<?xml version="1.0" encoding="UTF-8" standalone="no"?>
<!-- Created with Inkscape (http://www.inkscape.org/) -->
<svg id="svg5526" xmlns:rdf="http://www.w3.org/1999/02/22-rdf-syntax-ns#" xmlns="http://www.w3.org/2000/svg" height="22" width="22" version="1.0" xmlns:cc="http://creativecommons.org/ns#" xmlns:xlink="http://www.w3.org/1999/xlink" xmlns:dc="http://purl.org/dc/elements/1.1/">
 <metadata id="metadata49">
  <rdf:RDF>
   <cc:Work rdf:about="">
    <dc:format>image/svg+xml</dc:format>
    <dc:type rdf:resource="http://purl.org/dc/dcmitype/StillImage"/>
   </cc:Work>
  </rdf:RDF>
 </metadata>
 <defs id="defs5528">
  <linearGradient id="linearGradient5060">
   <stop id="stop5062" offset="0"/>
   <stop id="stop5064" style="stop-opacity:0" offset="1"/>
  </linearGradient>
  <linearGradient id="linearGradient6468">
   <stop id="stop6470" style="stop-color:#eee" offset="0"/>
   <stop id="stop6472" style="stop-color:#d9d9da" offset="1"/>
  </linearGradient>
  <linearGradient id="linearGradient3840" y2="609.51" gradientUnits="userSpaceOnUse" x2="302.86" gradientTransform="matrix(2.7744 0 0 1.9697 -1892.2 -872.89)" y1="366.65" x1="302.86">
   <stop id="stop5050" style="stop-opacity:0" offset="0"/>
   <stop id="stop5056" offset=".5"/>
   <stop id="stop5052" style="stop-opacity:0" offset="1"/>
  </linearGradient>
  <radialGradient id="radialGradient3842" xlink:href="#linearGradient5060" gradientUnits="userSpaceOnUse" cy="486.65" cx="605.71" gradientTransform="matrix(2.7744 0 0 1.9697 -1891.6 -872.89)" r="117.14"/>
  <radialGradient id="radialGradient3844" xlink:href="#linearGradient5060" gradientUnits="userSpaceOnUse" cy="486.65" cx="605.71" gradientTransform="matrix(-2.7744 0 0 1.9697 112.76 -872.89)" r="117.14"/>
  <linearGradient id="linearGradient2980" y2="16.877" gradientUnits="userSpaceOnUse" x2="22.947" gradientTransform="matrix(.91613 0 0 .88440 -1.0216 1.0575)" y1="-.046165" x1="4.583">
   <stop id="stop8999" style="stop-color:#cdcdcd" offset="0"/>
   <stop id="stop9001" style="stop-color:#cdcdcd;stop-opacity:0" offset="1"/>
  </linearGradient>
  <radialGradient id="radialGradient2984" xlink:href="#linearGradient6468" gradientUnits="userSpaceOnUse" cy="25.435" cx="17.949" gradientTransform="matrix(-.0033796 -.79811 1.2148 -.0048993 -15.491 25.313)" r="13.428"/>
  <linearGradient id="linearGradient2996" y2="36.402" xlink:href="#linearGradient6468" gradientUnits="userSpaceOnUse" x2="23.638" gradientTransform="matrix(.41830 0 0 .32361 1.3409 5.6914)" y1="38.423" x1="23.638"/>
  <linearGradient id="linearGradient2998" y2="-.19452" gradientUnits="userSpaceOnUse" x2="12.026" gradientTransform="matrix(.91379 0 0 .89809 .010446 .19666)" y1="19.963" x1="12.277">
   <stop id="stop3630" style="stop-color:#791235" offset="0"/>
   <stop id="stop3632" style="stop-color:#dd3b27" offset="1"/>
  </linearGradient>
  <radialGradient id="radialGradient2942-2" gradientUnits="userSpaceOnUse" cx="39.651" cy="18.619" r="20.714" gradientTransform="matrix(.034928 1.5715 -2.0961 .0020734 35.688 -64.333)">
   <stop id="stop3244-0-6" style="stop-color:#f8b17e" offset="0"/>
   <stop id="stop3246-9-4-1" style="stop-color:#e35d4f" offset=".31210"/>
   <stop id="stop3248-3-8-0" style="stop-color:#c6262e" offset=".57054"/>
   <stop id="stop3250-9-0-4" style="stop-color:#690b54" offset="1"/>
  </radialGradient>
  <linearGradient id="linearGradient2944-2" y2="1" gradientUnits="userSpaceOnUse" y1="38.246" gradientTransform="matrix(.48741 0 0 .44143 -.53058 -.44939)" x2="24.009" x1="24.009">
   <stop id="stop2492-9-2" style="stop-color:#791235" offset="0"/>
   <stop id="stop2494-6-0" style="stop-color:#dd3b27" offset="1"/>
  </linearGradient>
 </defs>
 <g id="g8875" transform="matrix(.0098239 0 0 .0067009 19.714 19.804)">
  <rect id="rect8877" style="opacity:.40206;fill:url(#linearGradient3840)" height="478.36" width="1339.6" y="-150.7" x="-1559.3"/>
  <path id="path8879" style="opacity:.40206;fill:url(#radialGradient3842)" d="m-219.62-150.68v478.33c142.87 0.90045 345.4-107.17 345.4-239.2s-159.44-239.13-345.4-239.13z"/>
  <path id="path8881" style="opacity:.40206;fill:url(#radialGradient3844)" d="m-1559.3-150.68v478.33c-142.87 0.90045-345.4-107.17-345.4-239.2s159.44-239.13 345.4-239.13z"/>
 </g>
 <path id="rect8840" style="stroke-linejoin:round;stroke-width:.99996;stroke-dashoffset:.06;stroke:url(#linearGradient2998);stroke-linecap:round;fill:url(#linearGradient2996)" d="m1.7931 16.5 18.707 0.16178c-0.19536 1.2586-0.4195 2.787-0.59091 3.8383h-17.778c-0.16237 0-0.29309-0.14346-0.29309-0.32165l-0.338-3.357c0-0.17819 0.13072-0.32165 0.29309-0.32165z"/>
 <path id="path9017" style="stroke:#666;stroke-linecap:round;stroke-width:.99996;fill:none" d="m20.056 20.131c0.07887-0.83058 0.39094-2.6369 0.43032-3.3826"/>
 <path id="rect8064" style="stroke-linejoin:round;stroke-width:.99975;color:#000000;stroke-dashoffset:.06;stroke:url(#linearGradient2944-2);stroke-linecap:round;fill:url(#radialGradient2942-2)" d="m2.7223 0.49998c-0.16882 0-0.30023 0.18539-0.30023 0.42026l-0.9221 15.16c0 0.23487 0.14447 0.42026 0.31329 0.42026h18.373c0.16882 0.000001 0.31329-0.18539 0.31329-0.42026l-1.0312-15.16c0-0.23487-0.13141-0.42026-0.30024-0.42026h-16.446z"/>
 <path id="path3267" style="opacity:.2;stroke:#000;stroke-linecap:square;stroke-width:.99996;fill:none" d="m2.6593 19.827-0.1775-1.954"/>
 <text id="text3323" style="opacity:.4;font-size:9.981px;font-family:Serif;fill:#141414" xml:space="preserve" transform="scale(1.0259 .97480)" y="11.143025" x="4.5463738"><tspan id="tspan3325" y="11.143025" x="4.5463738" style="fill:#141414">Aa</tspan></text>
 <text id="text2537" style="font-size:9.981px;font-family:Serif;fill:url(#radialGradient2984)" xml:space="preserve" transform="scale(1.0259 .97480)" y="12.168876" x="4.5463738"><tspan id="tspan2539" y="12.168876" x="4.5463738" style="fill:url(#radialGradient2984)">Aa</tspan></text>
 <path id="path2858" style="opacity:.3;stroke-linejoin:round;stroke-width:.99996;stroke-dashoffset:.06;stroke:url(#linearGradient2980);stroke-linecap:round;fill:none" d="m3.7225 1.5c-0.16884 0-0.30028 0.18462-0.30028 0.41851l-0.9222 13.164c0 0.23389 0.14449 0.41851 0.31333 0.41851h16.373c0.16884 0 0.31333-0.18462 0.31333-0.41851l-1.03-13.164c0-0.23389-0.13143-0.41851-0.30028-0.41851h-14.446z"/>
</svg>
