<?xml version="1.0" encoding="UTF-8" standalone="no"?>
<!-- Created with Inkscape (http://www.inkscape.org/) -->
<svg id="svg2565" xmlns="http://www.w3.org/2000/svg" height="22" width="22" version="1.0" xmlns:xlink="http://www.w3.org/1999/xlink">
 <defs id="defs2567">
  <linearGradient id="linearGradient2515" y2="3.899" xlink:href="#linearGradient2490-113-765" gradientUnits="userSpaceOnUse" x2="24" gradientTransform="matrix(.47561 0 0 .47561 -.41451 .56988)" y1="44" x1="24"/>
  <radialGradient id="radialGradient2513" xlink:href="#linearGradient3839" gradientUnits="userSpaceOnUse" cy="10.291" cx="12.011" gradientTransform="matrix(2.8663e-8 .97986 -1.4135 0 23.424 -4.8807)" r="20"/>
  <linearGradient id="linearGradient2490-113-765">
   <stop id="stop3686" style="stop-color:#861318" offset="0"/>
   <stop id="stop3688" style="stop-color:#f67e2a" offset="1"/>
  </linearGradient>
  <linearGradient id="linearGradient2563" y2="3.899" xlink:href="#linearGradient2490-113-765" gradientUnits="userSpaceOnUse" x2="24" gradientTransform="matrix(.51982 0 0 .52263 -.72116 -1.4569)" y1="44" x1="24"/>
  <linearGradient id="linearGradient3839">
   <stop id="stop3841" style="stop-color:#ffed8c" offset="0"/>
   <stop id="stop3843" style="stop-color:#fb9858" offset=".26238"/>
   <stop id="stop3845" style="stop-color:#dc572a" offset=".66094"/>
   <stop id="stop3847" style="stop-color:#9f3110" offset="1"/>
  </linearGradient>
  <radialGradient id="radialGradient2561" xlink:href="#linearGradient3839" gradientUnits="userSpaceOnUse" cy="10.291" cx="12.011" gradientTransform="matrix(3.1327e-8 1.0767 -1.5448 0 25.333 -7.4463)" r="20"/>
  <linearGradient id="linearGradient2537" y2="44.02" xlink:href="#linearGradient3308-4-6" gradientUnits="userSpaceOnUse" x2="30.15" gradientTransform="matrix(.47561 0 0 .47561 .58537 1.5699)" y1="5.0701" x1="30.15"/>
  <linearGradient id="linearGradient2541" y2="44.109" xlink:href="#linearGradient3308-4-6" gradientUnits="userSpaceOnUse" x2="15.8" gradientTransform="matrix(.47561 0 0 .47561 .58537 1.5699)" y1="20.445" x1="15.8"/>
  <linearGradient id="linearGradient3308-4-6">
   <stop id="stop3310-1-4" style="stop-color:#fff" offset="0"/>
   <stop id="stop3312-5-3" style="stop-color:#fff;stop-opacity:0" offset="1"/>
  </linearGradient>
  <linearGradient id="linearGradient2504" y2="42.995" xlink:href="#linearGradient3308-4-6" gradientUnits="userSpaceOnUse" x2="9.65" gradientTransform="matrix(.34507 0 0 .34905 .69956 5.5048)" y1="36.845" x1="9.65"/>
  <linearGradient id="linearGradient2533" y2="24.628" gradientUnits="userSpaceOnUse" x2="20.055" gradientTransform="matrix(.46694 0 0 .49641 2.4457 3.5816)" y1="15.298" x1="16.626">
   <stop id="stop2687-1-9" style="stop-color:#fff" offset="0"/>
   <stop id="stop2689-5-4" style="stop-color:#fff;stop-opacity:0" offset="1"/>
  </linearGradient>
 </defs>
 <g id="layer1">
  <path id="path2559" style="stroke-linejoin:round;stroke:url(#linearGradient2515);stroke-linecap:round;stroke-width:.97561;fill:url(#radialGradient2513)" d="m1.4879 2.4878v3.3456c8.5751 0.1598 15.501 7.0956 15.659 15.679h3.365c-0.159-10.44-8.594-18.865-19.024-19.024z"/>
  <path id="path2557" style="stroke-linejoin:round;stroke:url(#linearGradient2515);stroke-linecap:round;stroke-width:.97561;fill:url(#radialGradient2513)" d="m1.4879 10.189v3.009c4.526 0.157 8.1569 3.784 8.3145 8.314h3.0086c-0.158-6.2-5.1287-11.165-11.323-11.323z"/>
  <path id="path8636" style="stroke-linejoin:round;stroke:url(#linearGradient2563);stroke-linecap:round;stroke-width:.97561;fill:url(#radialGradient2561)" d="m3.5218 17.488c-0.5801 0-1.0263 0.205-1.4281 0.609-0.4023 0.398-0.6058 0.83-0.6058 1.414 0 0.575 0.2049 1.018 0.6058 1.414 0.3997 0.395 0.8435 0.587 1.4281 0.587 0.5664 0 0.9911-0.191 1.3847-0.587 0.403-0.406 0.6058-0.849 0.6058-1.414 0-0.584-0.2035-1.016-0.6058-1.414-0.3957-0.406-0.8229-0.609-1.3847-0.609z"/>
  <path id="path2535" style="stroke-linejoin:round;opacity:.4;stroke:url(#linearGradient2537);stroke-linecap:round;stroke-width:.97561;fill:none" d="m3.4688 4.5938v1.3437c5.5511 0.3815 10.747 3.6905 13.437 8.5625 1.212 2.148 1.909 4.572 2.094 7.031h1.375c-0.342-5.221-2.982-10.295-7.187-13.406-2.788-2.0974-6.2332-3.2925-9.7192-3.5312z" transform="translate(-.99988 -1)"/>
  <path id="path2539" style="stroke-linejoin:round;opacity:.4;stroke:url(#linearGradient2541);stroke-linecap:round;stroke-width:.97561;fill:none" d="m3.4375 12.281v1.125c3.7716 0.467 7.0725 3.356 7.9685 7.063h0.032c0.014 0.037-0.012 0.056 0 0.093 0.132 0.419 0.116 0.847 0.156 1.032 0.021 0.101 0.051 0.066 0 0.031s-0.062 0.013 0.094-0.031c0.04-0.016 0.082-0.027 0.124-0.032h0.876c-0.412-3.671-2.8414-7.097-6.2505-8.531-0.9477-0.41-1.9668-0.632-3-0.75z" transform="translate(-.99988 -1.0419)"/>
  <path id="path3219" style="stroke-linejoin:round;opacity:.4;stroke:url(#linearGradient2504);stroke-linecap:round;stroke-width:.97561;fill:none" d="m3.521 18.489c-0.7432-0.034-1.3422 0.935-0.8588 1.562 0.3642 0.599 1.3237 0.628 1.6828 0.008 0.4542-0.634-0.0816-1.567-0.824-1.57z"/>
  <path id="path2531" style="opacity:.2;fill-rule:evenodd;fill:url(#linearGradient2533)" d="m2.4688 3c-0.2693 0.0117-0.474 0.2512-0.4688 0.5v3.3438c-0.0023 0.1123 0.0444 0.2631 0.125 0.3437 0.1201 0.12 0.2611 0.1273 0.375 0.125 5.0813 0.0947 9.557 2.6644 12.312 6.5315 0.087 0.117 0.265 0.21 0.438 0.187h0.031l3.594-0.625c0.01 0.001 0.021 0.001 0.031 0 0.112-0.026 0.26-0.088 0.344-0.281 0.079-0.181 0.028-0.333-0.031-0.437-3.407-5.7239-9.6082-9.5797-16.719-9.688-0.0268-0.0009-0.0044-0.0009-0.0312 0zm0 7.688c-0.2693 0.011-0.474 0.251-0.4688 0.5v3.031c-0.0026 0.124 0.0369 0.258 0.125 0.343 0.0881 0.086 0.2289 0.12 0.3438 0.126 1.1995 0.041 2.299 0.338 3.3124 0.843 0.0105 0.001 0.0209 0.001 0.0313 0 0.0541 0.025 0.1514 0.08 0.2813 0.063 0.0138-0.002 0.0164 0.003 0.0312 0l4.156-0.719c0.011 0.001 0.021 0.001 0.031 0 0.21-0.047 0.322-0.202 0.376-0.375 0.053-0.173-0.029-0.334-0.126-0.438-0.009-0.011-0.019-0.021-0.031-0.031-2.0994-1.996-4.9147-3.264-8.031-3.343-0.0267-0.001-0.0046-0.001-0.0312 0z" transform="translate(-.99988 -1)"/>
 </g>
</svg>
