<?xml version="1.0" encoding="UTF-8" standalone="no"?>
<!-- Created with Inkscape (http://www.inkscape.org/) -->
<svg id="svg6476" xmlns="http://www.w3.org/2000/svg" height="22" width="22" version="1.0" xmlns:xlink="http://www.w3.org/1999/xlink">
 <defs id="defs6478">
  <linearGradient id="linearGradient2554" y2="46.259" gradientUnits="userSpaceOnUse" x2="29.694" gradientTransform="matrix(.51919 -.14195 .14168 .53953 -3.701 -.48888)" y1="21.27" x1="16.79">
   <stop id="stop6702" style="stop-color:#fff" offset="0"/>
   <stop id="stop6704" style="stop-color:#fff;stop-opacity:0" offset="1"/>
  </linearGradient>
  <linearGradient id="linearGradient2559" y2="26.354" gradientUnits="userSpaceOnUse" x2="29.893" gradientTransform="matrix(.40641 -.11145 .12011 .45877 -.014051 .93252)" y1="12.159" x1="23.238">
   <stop id="stop6630" offset="0"/>
   <stop id="stop6632" style="stop-opacity:0" offset="1"/>
  </linearGradient>
  <radialGradient id="radialGradient2562" gradientUnits="userSpaceOnUse" cy="42.261" cx="30.685" gradientTransform="matrix(1.902 -.45946 -.32091 -1.2221 -35.319 70.254)" r="8.2279">
   <stop id="stop3846" style="stop-color:#e8e8e8" offset="0"/>
   <stop id="stop3848" style="stop-color:#a5a6a8" offset="1"/>
  </radialGradient>
  <radialGradient id="radialGradient2568" gradientUnits="userSpaceOnUse" cy="30.233" cx="23.165" gradientTransform="matrix(1.004 -.22109 .38084 1.7987 -22.339 -35.688)" r="8.189">
   <stop id="stop4720" style="stop-color:#767973" offset="0"/>
   <stop id="stop4722" style="stop-color:#202120" offset="1"/>
  </radialGradient>
  <linearGradient id="linearGradient2570" y2=".31037" gradientUnits="userSpaceOnUse" x2="33.431" gradientTransform="matrix(.58027 -.15865 .14934 .56870 -5.4572 -.88197)" y1="45.052" x1="33.431">
   <stop id="stop6645" style="stop-color:#4c4c4c" offset="0"/>
   <stop id="stop6647" style="stop-color:#d3d7cf" offset="1"/>
  </linearGradient>
  <linearGradient id="linearGradient2573" y2="35.458" gradientUnits="userSpaceOnUse" x2="11.324" gradientTransform="matrix(.38399 -.10525 .099194 .37868 2.9394 4.8874)" y1="4.8112" x1="19.24">
   <stop id="stop6575" style="stop-color:#fff" offset="0"/>
   <stop id="stop6577" style="stop-color:#fff;stop-opacity:0" offset="1"/>
  </linearGradient>
  <linearGradient id="linearGradient2576" y2="21.75" gradientUnits="userSpaceOnUse" x2="11.438" gradientTransform="matrix(.31558 -.086284 .12684 .48303 .72812 1.5129)" y1="20.334" x1="20.226">
   <stop id="stop6381" style="stop-color:#fff;stop-opacity:0" offset="0"/>
   <stop id="stop21606" style="stop-color:#fff" offset=".5"/>
   <stop id="stop6383" style="stop-color:#fff;stop-opacity:0" offset="1"/>
  </linearGradient>
  <radialGradient id="radialGradient2579" gradientUnits="userSpaceOnUse" cy="27.053" cx="23.987" gradientTransform="matrix(-.15232 .041646 -.16330 -.62187 17.412 27.926)" r="7.75">
   <stop id="stop6653" style="stop-color:#fff" offset="0"/>
   <stop id="stop6655" style="stop-color:#fff;stop-opacity:0" offset="1"/>
  </radialGradient>
  <radialGradient id="radialGradient2582" gradientUnits="userSpaceOnUse" cy="18.817" cx="9.3204" gradientTransform="matrix(.40386 .15990 -.28985 .68936 9.7164 -3.8999)" r="12.5">
   <stop id="stop6635" style="stop-color:#eeeeec" offset="0"/>
   <stop id="stop6637" style="stop-color:#61635f" offset="1"/>
  </radialGradient>
  <linearGradient id="linearGradient2584" y2="12.064" gradientUnits="userSpaceOnUse" x2="4.6432" gradientTransform="matrix(.43146 -.11797 .11147 .42448 1.7785 4.1593)" y1="33.047" x1="7.75">
   <stop id="stop5294" style="stop-color:#4b4b4b" offset="0"/>
   <stop id="stop5296" style="stop-color:#babdb6" offset="1"/>
  </linearGradient>
  <linearGradient id="linearGradient2587" y2="14" gradientUnits="userSpaceOnUse" x2="77.125" gradientTransform="matrix(.47338 -.12943 .12684 .48303 -32.974 12.281)" y1="31.561" x1="80.693">
   <stop id="stop4870" style="stop-color:#383937" offset="0"/>
   <stop id="stop4872" style="stop-color:#595b57" offset="1"/>
  </linearGradient>
  <linearGradient id="linearGradient2593" y2="-41.092" spreadMethod="reflect" gradientUnits="userSpaceOnUse" x2="82.681" gradientTransform="matrix(.058072 .22115 -.20463 .055949 -8.7793 -7.205)" y1="-41.092" x1="102.36">
   <stop id="stop5264" style="stop-color:#babdb6" offset="0"/>
   <stop id="stop5266" style="stop-color:#eeeeec" offset=".43739"/>
   <stop id="stop5268" style="stop-color:#555753" offset="1"/>
  </linearGradient>
  <linearGradient id="linearGradient2595" y2="8.2934" gradientUnits="userSpaceOnUse" x2="102.43" gradientTransform="matrix(.12684 .48303 -.47338 .12943 -1.2145 -33.381)" y1="8.2934" x1="84.426">
   <stop id="stop3860" style="stop-color:#a0a0a0" offset="0"/>
   <stop id="stop3862" style="stop-color:#4a4a4a" offset="1"/>
  </linearGradient>
  <linearGradient id="linearGradient2607" y2="30.001" gradientUnits="userSpaceOnUse" x2="5.1012" gradientTransform="matrix(.42308 -.11568 .12684 .48303 .76101 3.057)" y1="14.051" x1="9.8832">
   <stop id="stop6533" style="stop-color:#fff" offset="0"/>
   <stop id="stop6535" style="stop-color:#fff;stop-opacity:0" offset="1"/>
  </linearGradient>
  <radialGradient id="radialGradient3379" gradientUnits="userSpaceOnUse" cy="20.434" cx="20.884" gradientTransform="matrix(.69966 -.15322 .22342 .68150 -7.4443 -.21684)" r="4">
   <stop id="stop5849" style="stop-color:#878a85" offset="0"/>
   <stop id="stop5851" style="stop-color:#3e3f3d" offset="1"/>
  </radialGradient>
 </defs>
 <path id="path5330" style="stroke:#555753;stroke-linecap:round;fill:#2e3436" d="m6.5027 12.877c0.38529 1.4672 0.061811 2.8305-0.7225 3.0449-0.78432 0.21444-1.7325-0.80114-2.1178-2.2684-0.38529-1.4672-0.061811-2.8305 0.7225-3.0449 0.78432-0.21444 1.7325 0.80114 2.1178 2.2684z"/>
 <path id="path6659" style="fill:#babdb6" d="m4.0287 12.21c0.052539 0.20008-0.063823 0.40573-0.2599 0.45934s-0.39762-0.06512-0.45016-0.2652c-0.052539-0.20008 0.063823-0.40573 0.2599-0.45934s0.39762 0.06512 0.45016 0.2652z"/>
 <path id="path2766" style="stroke:url(#linearGradient2595);fill:url(#linearGradient2593)" d="m4.7737 8.9489c-0.9473 0.259-1.233 2.3081-0.6379 4.5751 0.59513 2.2663 1.8469 3.8955 2.7941 3.6366l1.7161-0.47c0.9472-0.259 1.2329-2.308 0.6378-4.575-0.5951-2.266-1.8469-3.8952-2.7941-3.6362l-1.716 0.46917z"/>
 <path id="path2602" style="opacity:.4;stroke:url(#linearGradient2607);stroke-linecap:round;fill:none" d="m6.75 9.4688l-1.6875 0.46875c0.038266 0.061154-0.19473 0.42787-0.17893 0.62884-0.15094 1.2335 0.06641 2.4979 0.51857 3.6494 0.26243 0.62134 0.56161 1.2554 1.0524 1.7306 0.21411 0.13052 0.23591 0.26514 0.43965 0.16441 0.50403-0.13068 1.0081-0.26135 1.5121-0.39202-0.094964 0.02384 0.14838-0.30696 0.13711-0.44734 0.18407-0.91309 0.042829-1.8571-0.16348-2.7542-0.2459-0.956-0.6171-1.904-1.2372-2.6814-0.0599-0.125-0.4357-0.373-0.3928-0.3668z"/>
 <path id="path6556" style="fill:url(#linearGradient2587)" d="m6.528 8.7281c-0.9661 0.2642-1.2964 2.2059-0.7373 4.3349 0.55903 2.1289 1.7968 3.6423 2.7628 3.3782l0.30173-0.0825c0.966-0.263 1.2958-2.205 0.7373-4.334-0.5591-2.129-1.7968-3.6425-2.7628-3.3784l-0.30173 0.082496z"/>
 <path id="path1871" style="stroke:url(#linearGradient2584);stroke-linecap:round;fill:url(#radialGradient2582)" d="m7.0353 12.731c1.1704 4.457 6.1881 5.8148 8.8807 5.0787 1.8639-0.50962 2.4897-4.0437 1.4744-7.9099-1.015-3.8661-3.289-6.6074-5.152-6.0978-2.693 0.7362-6.3731 4.4721-5.2027 8.929z"/>
 <path id="path6649" style="fill:url(#radialGradient2579)" d="m17.864 9.7704c1.191 4.5356-0.016 8.8056-2.696 9.5386-2.68 0.732-5.8176-2.35-7.0085-6.885-1.1909-4.5354 0.0161-8.8057 2.6955-9.5384 2.68-0.7327 5.818 2.3498 7.009 6.8848z"/>
 <path id="path6639" style="opacity:.73359;fill:url(#linearGradient2576);fill-rule:evenodd" d="m9.054 6.1209c-1.046 1.008-1.9269 3.2567-2.6317 5.4831 1.1351-0.893 2.3508-1.6573 3.565-1.8803l-0.9333-3.6028z"/>
 <path id="path6567" style="opacity:.4;stroke:url(#linearGradient2573);stroke-linecap:round;fill:none" d="m8.9701 7.5341c-0.934 1.3358-1.4571 3.0289-0.9685 4.8949 0.48866 1.8655 1.7695 3.0646 3.2314 3.7437 9.5273 2.1762 4.1431-15.648-2.2629-8.6385z"/>
 <path id="path1873" style="stroke:url(#linearGradient2570);stroke-linecap:round;fill:url(#radialGradient2568)" d="m17.864 9.7704c1.366 5.2016 0.46 9.9696-2.024 10.649-2.484 0.679-5.604-2.987-6.9704-8.189-1.366-5.2024-0.46-9.97 2.0234-10.649 2.4837-0.67906 5.6044 2.9875 6.9705 8.1895z"/>
 <path id="path3672" style="stroke:#3e3f3d;stroke-linecap:round;fill:url(#radialGradient3379)" d="m13.425 11.026c0.35565 1.0848-0.629 2.2441-1.5285 2.4411-0.89953 0.197-1.9182-0.52355-2.2739-1.6084-0.35565-1.0848 0.085766-2.1251 0.9853-2.3221s2.4615 0.40459 2.8171 1.4894z"/>
 <path id="path6605" style="fill:url(#radialGradient2562)" d="m10.957 1.8225c-1.2464 0.3407-2.0146 1.7155-2.3263 3.5804-0.3116 1.8649-0.1654 4.2607 0.4904 6.7581 0.65575 2.4972 1.7031 4.6466 2.8868 6.1027s2.5226 2.2547 3.7688 1.914c1.2461-0.34071 2.0143-1.7155 2.326-3.5804 0.19478-1.1656 0.21205-2.5488 0.0377-4.0225-0.0055-0.04647-0.015-0.09322-0.02088-0.1399-0.03574-0.28374-0.07927-0.56411-0.12925-0.85447-0.04523-0.27052-0.09242-0.5406-0.15091-0.81619-0.0032-0.01514-0.0086-0.03013-0.01189-0.04528-0.06257-0.29136-0.13751-0.58404-0.21511-0.87953-0.08173-0.31124-0.16269-0.61799-0.25658-0.91673-0.083-0.2657-0.178-0.5287-0.27-0.7841-0.099-0.2769-0.198-0.5419-0.306-0.8059-0.019-0.0442-0.032-0.088-0.051-0.1318-0.571-1.3653-1.264-2.5543-2.004-3.4644-1.183-1.456-2.522-2.2547-3.768-1.914zm0.49037 0.90134c0.90996-0.24879 2.0135 0.36358 3.07 1.6683 0.66033 0.81543 1.2964 1.89 1.8238 3.1415 0.10549 0.25029 0.20216 0.51173 0.29884 0.77574 0.08911 0.24764 0.18052 0.496 0.26132 0.75365 0.09379 0.29559 0.18638 0.58901 0.26741 0.89759 0.07556 0.28776 0.13198 0.56968 0.19239 0.85339 0.0043 0.02003 0.0116 0.04037 0.01585 0.06038 0.05503 0.26284 0.10064 0.52814 0.14298 0.786 0.04565 0.27798 0.09003 0.5537 0.12132 0.82428 0.15644 1.3529 0.13219 2.608-0.04011 3.6511-0.27568 1.6689-0.9313 2.7623-1.8413 3.0111-0.91 0.249-2.014-0.364-3.07-1.669-1.057-1.304-2.047-3.266-2.652-5.568-0.6043-2.3021-0.7079-4.5062-0.4322-6.1751s0.9312-2.7623 1.8412-3.0111z"/>
 <path id="path6615" style="opacity:.3;stroke:url(#linearGradient2559);stroke-linecap:round;fill:none" d="m16.753 10.072c1.0987 4.1965 0.57916 7.9851-1.1604 8.4621-1.7395 0.47704-4.0403-2.5382-5.139-6.7346-1.0987-4.1965-0.57916-7.9851 1.1604-8.4621 1.7395-0.47704 4.0403 2.5382 5.139 6.7346z"/>
 <path id="path6661" style="fill:#fff" d="m4.898 10.63c0.070052 0.26677-0.085097 0.54097-0.34654 0.61245s-0.53016-0.08683-0.60022-0.3536c-0.070052-0.26677 0.085097-0.54097 0.34654-0.61245s0.53016 0.08683 0.60022 0.3536z"/>
 <path id="path6698" style="opacity:.4;stroke:url(#linearGradient2554);stroke-linecap:round;fill:none" d="m17.39 9.8999c1.296 4.9351 0.545 9.4281-1.677 10.036-2.222 0.608-5.074-2.901-6.37-7.836-1.296-4.9351-0.5451-9.4284 1.677-10.036 2.2222-0.60758 5.0743 2.9007 6.3703 7.8359z"/>
 <path id="path5501" style="opacity:.6;fill:#fff" d="m9.1934 5.7344c0.0701 0.2668-0.0851 0.541-0.3465 0.6124-0.2614 0.0715-0.5302-0.0868-0.6002-0.3536-0.0701-0.2667 0.0851-0.5409 0.3465-0.6124 0.26144-0.07148 0.53016 0.086832 0.60022 0.3536z"/>
</svg>
