<?xml version="1.0" encoding="UTF-8" standalone="no"?>
<!-- Created with Inkscape (http://www.inkscape.org/) -->
<svg id="svg3275" xmlns="http://www.w3.org/2000/svg" height="22" width="22" version="1.0" xmlns:xlink="http://www.w3.org/1999/xlink">
 <defs id="defs3277">
  <linearGradient id="linearGradient2407" y2="5.4676" gradientUnits="userSpaceOnUse" x2="63.397" gradientTransform="matrix(1.0863 0 0 1.0862 -56.567 14.814)" y1="-12.489" x1="63.397">
   <stop id="stop4875" style="stop-color:#fff" offset="0"/>
   <stop id="stop4877" style="stop-color:#fff;stop-opacity:0" offset="1"/>
  </linearGradient>
  <radialGradient id="radialGradient2410" gradientUnits="userSpaceOnUse" cy="3.99" cx="23.896" gradientTransform="matrix(0 1.2316 -1.6257 0 17.487 -29.721)" r="20.397">
   <stop id="stop2778" style="stop-color:#8badea" offset="0"/>
   <stop id="stop2780" style="stop-color:#6396cd" offset=".26238"/>
   <stop id="stop2782" style="stop-color:#3b7caf" offset=".66094"/>
   <stop id="stop2784" style="stop-color:#194c70" offset="1"/>
  </radialGradient>
  <linearGradient id="linearGradient2412" y2="3.0816" gradientUnits="userSpaceOnUse" x2="18.379" gradientTransform="matrix(.51604 0 0 .51604 -1.3849 -1.385)" y1="44.98" x1="18.379">
   <stop id="stop2788" style="stop-color:#1f4b6a" offset="0"/>
   <stop id="stop2790" style="stop-color:#4083c2" offset="1"/>
  </linearGradient>
 </defs>
 <path id="path2555" style="stroke-linejoin:round;stroke:url(#linearGradient2412);stroke-linecap:round;stroke-width:1.0037;fill:url(#radialGradient2410)" d="m11 0.50174c-5.7925 0-10.498 4.7057-10.498 10.498-0.00017 5.793 4.7055 10.498 10.498 10.498 5.793 0 10.498-4.705 10.498-10.498 0-5.7926-4.705-10.498-10.498-10.498z"/>
 <path id="path2463" style="opacity:.4;stroke:url(#linearGradient2407);fill:none" d="m20.5 11c0 5.246-4.254 9.5-9.5 9.5-5.2466 0-9.5-4.254-9.5-9.5 0-5.247 4.2534-9.5 9.5-9.5 5.246 0 9.5 4.253 9.5 9.5z"/>
 <path id="path2503" style="fill:#1f4b6a" d="m12.623 5.4886c0 0.8217-0.694 1.4886-1.55 1.4886-0.855 0-1.5497-0.6669-1.5497-1.4886s0.6947-1.4886 1.5497-1.4886c0.856 0 1.55 0.6669 1.55 1.4886zm3.869 1.5828c-0.072 0.0112-0.139 0.0383-0.197 0.0792l-5.295 0.793-5.2664-0.8039c-0.1361-0.0948-0.3275-0.1232-0.4796-0.0528s-0.2518 0.2372-0.2539 0.396c-0.002 0.1588 0.1037 0.2958 0.2539 0.3696l4.1266 1.2572-0.0282 2.8863-1.4561 4.322c-0.1403 0.197-0.0975 0.45 0.1128 0.581 0.2104 0.131 0.5087 0.091 0.649-0.106l2.3499-4.665 2.305 4.657c0.125 0.205 0.403 0.275 0.621 0.159 0.218-0.117 0.294-0.377 0.169-0.581l-1.429-4.341-0.056-2.7171 4.184-1.4678c0.17-0.111 0.243-0.321 0.17-0.5016-0.073-0.1807-0.275-0.286-0.48-0.2641z"/>
 <path id="path6668" style="fill:#fff" d="m12.623 6.4886c0 0.8217-0.694 1.4886-1.55 1.4886-0.855 0-1.5497-0.6669-1.5497-1.4886s0.6947-1.4886 1.5497-1.4886c0.856 0 1.55 0.6669 1.55 1.4886zm3.869 1.5828c-0.072 0.0112-0.139 0.0383-0.197 0.0792l-5.295 0.793-5.2664-0.8039c-0.1361-0.0948-0.3275-0.1232-0.4796-0.0528s-0.2518 0.2372-0.2539 0.396c-0.002 0.1588 0.1037 0.2958 0.2539 0.3696l4.1266 1.2575-0.0282 2.886-1.4561 4.322c-0.1403 0.197-0.0975 0.45 0.1128 0.581 0.2104 0.131 0.5087 0.091 0.649-0.106l2.3499-4.665 2.305 4.657c0.125 0.205 0.403 0.275 0.621 0.159 0.218-0.117 0.294-0.377 0.169-0.581l-1.429-4.341-0.056-2.717 4.184-1.4679c0.17-0.111 0.243-0.321 0.17-0.5016-0.073-0.1807-0.275-0.286-0.48-0.2641z"/>
</svg>
