<?xml version="1.0" encoding="UTF-8" standalone="no"?>
<!-- Created with Inkscape (http://www.inkscape.org/) -->
<svg id="svg3051" xmlns="http://www.w3.org/2000/svg" height="22" width="22" version="1.0" xmlns:xlink="http://www.w3.org/1999/xlink">
 <defs id="defs3053">
  <linearGradient id="linearGradient6752" y2="13.214" gradientUnits="userSpaceOnUse" x2="14.953" gradientTransform="matrix(.27790 0 0 .27790 .82970 9.8294)" y1="45.381" x1="14.953">
   <stop id="stop5356" style="stop-color:#555" offset="0"/>
   <stop id="stop5358" style="stop-color:#282828" offset="1"/>
  </linearGradient>
  <linearGradient id="linearGradient6330" y2="17.251" gradientUnits="userSpaceOnUse" x2="7.5" y1="11.639" x1="7.5">
   <stop id="stop3602" style="stop-color:#fff" offset="0"/>
   <stop id="stop3604" style="stop-color:#e6e6e6" offset="1"/>
  </linearGradient>
  <linearGradient id="linearGradient3520">
   <stop id="stop3522" style="stop-color:#f2f2f2" offset="0"/>
   <stop id="stop3524" style="stop-color:#999" offset="1"/>
  </linearGradient>
  <linearGradient id="linearGradient3199" y2="43" gradientUnits="userSpaceOnUse" x2="24" gradientTransform="matrix(.40541 0 0 .43243 3.2703 .12163)" y1="5" x1="24">
   <stop id="stop3310-1-4" style="stop-color:#fff" offset="0"/>
   <stop id="stop3312-5-3" style="stop-color:#fff;stop-opacity:0" offset="1"/>
  </linearGradient>
  <radialGradient id="radialGradient3202" gradientUnits="userSpaceOnUse" cy="11.394" cx="12.063" gradientTransform="matrix(0 .55405 -.69689 0 17.838 -.75637)" r="20">
   <stop id="stop3359" style="stop-color:#f89b7e" offset="0"/>
   <stop id="stop3361" style="stop-color:#e35d4f" offset=".39679"/>
   <stop id="stop3363" style="stop-color:#c6262e" offset="1"/>
  </radialGradient>
  <linearGradient id="linearGradient3204" y2="3.899" gradientUnits="userSpaceOnUse" x2="24" gradientTransform="matrix(.43656 0 0 .49844 2.5355 -.73846)" y1="44" x1="24">
   <stop id="stop2492" style="stop-color:#791235" offset="0"/>
   <stop id="stop2494" style="stop-color:#dd3b27" offset="1"/>
  </linearGradient>
  <linearGradient id="linearGradient3212" y2="44.984" gradientUnits="userSpaceOnUse" x2="19.36" gradientTransform="matrix(.43590 0 0 .43590 2.5385 .11676)" y1="16.138" x1="19.36">
   <stop id="stop3602-9" style="stop-color:#f4f4f4" offset="0"/>
   <stop id="stop3604-6" style="stop-color:#dbdbdb" offset="1"/>
  </linearGradient>
  <linearGradient id="linearGradient3214" y2="3.8905" gradientUnits="userSpaceOnUse" x2="24" gradientTransform="matrix(.43590 0 0 .43590 2.5385 .53846)" y1="44" x1="24">
   <stop id="stop3106" style="stop-color:#787878" offset="0"/>
   <stop id="stop3108" style="stop-color:#aaa" offset="1"/>
  </linearGradient>
  <radialGradient id="radialGradient3990" xlink:href="#linearGradient3520" spreadMethod="reflect" gradientUnits="userSpaceOnUse" cy="6.742" cx="14" gradientTransform="matrix(1.455 -2.6431e-8 5e-8 2.2747 -6.3697 -6.839)" r="2"/>
  <radialGradient id="radialGradient3992" xlink:href="#linearGradient3520" spreadMethod="reflect" gradientUnits="userSpaceOnUse" cy="6.742" cx="14" gradientTransform="matrix(1.455 -2.6431e-8 5e-8 2.2747 13.63 -6.839)" r="2"/>
 </defs>
 <g id="g2036" transform="matrix(.48022 0 0 .19938 2.4877 9.8167)"></g>
 <rect id="rect5505" style="stroke-linejoin:round;stroke:url(#linearGradient3214);stroke-linecap:round;fill:url(#linearGradient3212)" rx="1" ry="1" height="17" width="17" y="2.5" x="4.5"/>
 <path id="rect2424" style="stroke:url(#linearGradient3204);fill:url(#radialGradient3202)" d="m5.4686 1.5052c-0.5399 0-0.9686 0.4895-0.9686 1.1059v3.8941h17.026v-3.8941c0-0.6164-0.42875-1.1059-0.96862-1.1059h-15.089z"/>
 <rect id="rect6741" style="opacity:.4;stroke-linejoin:round;stroke:url(#linearGradient3199);stroke-linecap:round;fill:none" height="16" width="15" y="2.5" x="5.5"/>
 <g id="g3541" transform="matrix(.5 0 0 .41667 2 -.41667)">
  <rect id="rect3497" style="opacity:.4;fill:#fff" rx="2" ry="2" height="11" width="4" y="2" x="12"/>
  <rect id="rect3493" style="fill:#cc3429" rx="3.1738" ry="3.8086" height="4.8" width="4" y="7.2" x="12"/>
  <rect id="rect3483" style="fill:url(#radialGradient3990)" rx="2" ry="2" height="10" width="4" y="1" x="12"/>
 </g>
 <g id="g3536" transform="matrix(.5 0 0 .41667 3.7634e-8 -.41667)">
  <rect id="rect3526" style="opacity:.4;fill:#fff" rx="2" ry="2" height="11" width="4" y="2" x="32"/>
  <rect id="rect3528" style="fill:#cc3429" rx="3.1738" ry="3.8086" height="4.8" width="4" y="7.2" x="32"/>
  <rect id="rect3530" style="fill:url(#radialGradient3992)" rx="2" ry="2" height="10" width="4" y="1" x="32"/>
 </g>
 <text id="text7623" style="font-size:11.218px;font-family:Arial;font-weight:bold;fill:#4d4d4d" xml:space="preserve" transform="scale(1.0257 .97499)" y="17.293707" x="6.5455627"><tspan id="tspan7625" y="17.293707" x="6.5455627" style="fill:#4d4d4d">28</tspan></text>
 <g id="g6754" transform="translate(-1 -1)">
  <path id="path2555" style="stroke-linejoin:round;stroke:url(#linearGradient6752);stroke-linecap:round;stroke-width:1.6956;fill:url(#linearGradient6330)" d="m7.4956 10.848c-3.1195 0-5.6477 2.5283-5.6477 5.6477 0 3.1195 2.5283 5.6566 5.6477 5.6566 3.1195 0 5.6566-2.5372 5.6566-5.6566 0-3.1195-2.5372-5.6477-5.6566-5.6477z"/>
  <path id="path2312" style="stroke:#000;stroke-linecap:round;stroke-width:.5;fill:none" d="m7.1996 16.918 3.0584-3.279"/>
  <path id="path2314" style="stroke:#000;stroke-linecap:round;stroke-width:.5;fill:none" d="m7.8849 16.94-2.1721-2.217"/>
  <path id="path2316" style="fill-rule:evenodd;stroke:red;stroke-linecap:round;stroke-width:.5;fill:red" d="m7.2529 16.655 3.4301-0.453"/>
 </g>
</svg>
