<svg id="emoji" viewBox="0 0 72 72" xmlns="http://www.w3.org/2000/svg">
  <g id="color">
    <rect x="5" y="17" width="62" height="38" fill="#f1b31c"/>
    <polygon fill="#d22f27" points="5 17 5 55 67 17 5 17"/>
    <g>
      <path fill="none" stroke="#fff" stroke-linecap="round" stroke-linejoin="round" stroke-width="3" d="M42.6,25.3424s-8.1513,1.839-1.8888,8.8968-.2386,8.5489-.2386,8.5489-5.6263,2.3857-5.7257-6.9087-9.1453-3.1313-5.4673,1.74,2.7337,6.0638-4.7715,8.201"/>
      <polyline fill="none" stroke="#fff" stroke-linecap="round" stroke-linejoin="round" stroke-width="2" points="44 37 47.59 34.716 46.408 32.184"/>
      <polyline fill="none" stroke="#fff" stroke-linecap="round" stroke-linejoin="round" stroke-width="2" points="42 43 43.803 45.421 45.723 44.638"/>
      <line x1="31" x2="33.3286" y1="43" y2="46.0757" fill="none" stroke="#fff" stroke-linecap="round" stroke-linejoin="round" stroke-width="2"/>
      <circle cx="47.1444" cy="42.693" r="1" fill="#fff"/>
      <circle cx="45.0638" cy="30.1713" r="1" fill="#fff"/>
      <circle cx="35.1949" cy="47.3743" r="1" fill="#fff"/>
    </g>
  </g>
  <g id="line">
    <rect x="5" y="17" width="62" height="38" fill="none" stroke="#000" stroke-linecap="round" stroke-linejoin="round" stroke-width="2"/>
  </g>
</svg>
