<svg id="emoji" viewBox="0 0 72 72" xmlns="http://www.w3.org/2000/svg">
  <g id="color">
    <rect x="5" y="17" width="62" height="38" fill="#1e50a0"/>
    <g>
      <circle cx="51.1" cy="50" r="1.75" fill="#fff"/>
      <circle cx="51.1" cy="30" r="1.75" fill="#fff"/>
      <g>
        <circle cx="56.1" cy="48.6603" r="1.75" fill="#fff"/>
        <circle cx="46.1" cy="31.3397" r="1.75" fill="#fff"/>
      </g>
      <circle cx="41.1" cy="40" r="1.75" fill="#fff"/>
      <circle cx="61.1" cy="40" r="1.75" fill="#fff"/>
      <g>
        <circle cx="59.7603" cy="45" r="1.75" fill="#fff"/>
        <circle cx="42.4398" cy="35" r="1.75" fill="#fff"/>
      </g>
      <g>
        <circle cx="46.1" cy="48.6603" r="1.75" fill="#fff"/>
        <circle cx="56.1" cy="31.3397" r="1.75" fill="#fff"/>
      </g>
      <g>
        <circle cx="42.4398" cy="45" r="1.75" fill="#fff"/>
        <circle cx="59.7603" cy="35" r="1.75" fill="#fff"/>
      </g>
    </g>
    <g>
      <polygon fill="#fff" points="9.887 18 6 18 6 20.332 32.113 36 36 36 36 33.668 9.887 18"/>
      <polygon fill="#fff" points="36 20.332 36 18 32.113 18 6 33.668 6 36 9.887 36 36 20.332"/>
      <rect x="6" y="24" width="30" height="6" fill="#fff"/>
      <rect x="18" y="18" width="6" height="18" fill="#fff"/>
      <rect x="20" y="18" width="2" height="18" fill="#d22f27"/>
      <rect x="6" y="26" width="30" height="2" fill="#d22f27"/>
      <polygon fill="#d22f27" points="36 33.668 29.887 30 26 30 36 36 36 35.999 36 33.668"/>
      <polygon fill="#d22f27" points="36 18 32.113 18 24 22.868 24 24 26.001 24 36 18.001 36 18"/>
      <polygon fill="#d22f27" points="6 20.332 12.113 24 16.001 24 6.001 18 6 18.001 6 20.332"/>
      <polygon fill="#d22f27" points="6 36 9.887 36 18 31.132 18 30 16 30 6 35.999 6 36"/>
    </g>
  </g>
  <g id="line">
    <rect x="5" y="17" width="62" height="38" fill="none" stroke="#000" stroke-linecap="round" stroke-linejoin="round" stroke-width="2"/>
  </g>
</svg>
