<svg id="emoji" viewBox="0 0 72 72" version="1.1" xmlns="http://www.w3.org/2000/svg">
  <g id="color">
    <rect x="5" y="17" width="62" height="38" fill="#186648" fill-opacity="1"/>
    <rect x="38" y="16.9999" width="4" height="38" fill="#ffffff" stroke-width="2"/>
    <rect x="5" y="34" width="62" height="4"/>
    <rect x="5" y="38" width="62" height="4" fill="#ffffff" stroke-width="2"/>
    <rect x="5" y="30" width="62" height="4" fill="#fcea2b"/>
    <rect x="34" y="16.9999" width="4" height="38"/>
    <rect x="30" y="16.9999" width="4" height="38" fill="#fcea2b"/>
    <circle cx="36" cy="36" r="13" fill="#d22f27"/>
    <g>
      <path d="M36.3668,34.9556A5.1,5.1,0,0,0,39.2812,38.46a.2572.2572,0,0,0,.3528-.1087.1829.1829,0,0,0-.0858-.2935h0a4.81,4.81,0,0,1-2.6927-3.1408h0a.2261.2261,0,0,0-.2408-.1658A.2317.2317,0,0,0,36.3668,34.9556Z"/>
      <path fill="#8967aa" d="m 38.76838,36.930886 -0.04049,-0.07964 c -0.35042,-0.700289 -0.900863,-1.247485 -1.279496,-1.921372 -0.3688,-0.656515 0.523623,-1.402075 1.152692,-1.766677 0.735111,-0.425818 0.540407,-1.883677 0.185768,-2.432192 L 37.245235,28.7955 c 0,0 -0.81116,-1.158456 -3.568533,0.201086 0,0 -3.539239,0.856733 -3.846066,1.5378 0,0 2.683445,-0.73296 2.954423,0.520945 0.270979,1.253904 -1.404094,1.699196 0.241578,4.689899 0,0 1.39113,2.968668 3.114979,3.446877 a 6.2,6.2 0 0 1 2.542156,0.423068 c -0.222069,-0.587995 0.171291,-2.063302 0.08461,-2.684289 z"/>
      <path d="m 36.546061,40.353075 c -0.02413,-0.0043 -0.04798,-0.0095 -0.0716,-0.01608 -1.880332,-0.521946 -3.872761,-3.835772 -4.093515,-4.211819 -1.156731,-2.193184 -0.677442,-3.058197 -0.08869,-3.758501 0.190669,-0.226735 0.189081,-0.234428 0.171232,-0.324394 -0.0715,-0.308604 -1.465792,-0.825676 -2.947315,-0.971861 a 0.7645,0.7645 0 0 1 -0.575368,-0.370134 0.7471,0.7471 0 0 1 -0.03515,-0.683487 c 0.125943,-0.281203 0.458813,-1.021853 5.183722,-1.908856 a 3.1158,3.1158 0 0 1 3.03469,-0.716314 c 1.632216,0.629901 2.056766,2.90519 2.099993,3.162201 a 0.75,0.75 0 0 1 -1.478873,0.249385 c -0.07498,-0.435131 -0.44983,-1.739743 -1.16317,-2.013269 -0.521466,-0.203036 -1.221084,0.221324 -1.714145,0.611025 a 0.7464,0.7464 0 0 1 -0.328729,0.148777 c -0.811766,0.149916 -1.698281,0.346562 -2.462138,0.545542 a 2.5786,2.5786 0 0 1 1.859247,1.659669 1.7587,1.7587 0 0 1 -0.496261,1.576882 c -0.276065,0.328655 -0.514158,0.612421 0.250862,2.064222 0.753312,1.278636 2.257123,3.238546 3.185376,3.49625 a 0.75,0.75 0 0 1 -0.33,1.4615 z m -6.359238,-9.592806 z"/>
      <g>
        <path fill="#186648" d="m 36.064435,37.754768 c -0.30154,-2.450592 1.415024,-5.90865 3.020755,-4.276826 1.605732,1.631823 0.736585,11.198537 0.736585,11.198537 0,0 -3.455817,-4.471021 -3.75734,-6.921711 z"/>
        <path d="M 39.892396,45.388561 A 0.75,0.75 0 0 1 39.444515,45.12813 c -0.381778,-0.461404 -3.745087,-4.585186 -4.149067,-7.153353 l 8.7e-5,-4.92e-4 c -0.301704,-1.921584 0.463771,-4.649199 1.940178,-5.424198 a 1.8249,1.8249 0 0 1 2.193312,0.388771 c 1.819223,1.72887 1.436977,10.094283 1.342634,11.754016 a 0.75,0.75 0 0 1 -0.879263,0.695687 z M 36.77649,37.74131 c 0.199565,1.263855 1.483043,3.286457 2.5771,4.803688 0.08008,-3.890399 -0.220846,-7.818734 -0.958078,-8.519397 -0.263163,-0.250707 -0.37794,-0.190625 -0.462799,-0.147607 -0.695015,0.364855 -1.394724,2.342293 -1.155239,3.86349 z"/>
      </g>
      <circle cx="36" cy="25" r="1" fill="#186648"/>
      <circle cx="50.2849" cy="-3.0357" r="1" transform="rotate(36)" fill="#186648"/>
      <circle cx="45.3626" cy="-34.1134" r="1" transform="rotate(72)" fill="#186648"/>
      <circle cx="23.1134" cy="-56.3626" r="1" transform="rotate(108)" fill="#186648"/>
      <circle cx="-7.9643" cy="-61.2849" r="1" transform="rotate(144)" fill="#186648"/>
      <circle cx="-36" cy="-47" r="1" transform="scale(-1)" fill="#186648"/>
      <circle cx="-50.2849" cy="-18.9643" r="1" transform="rotate(-144)" fill="#186648"/>
      <circle cx="-45.3626" cy="12.1134" r="1" transform="rotate(-108)" fill="#186648"/>
      <circle cx="-23.1134" cy="34.3626" r="1" transform="rotate(-72)" fill="#186648"/>
      <circle cx="7.9643" cy="39.2849" r="1" transform="rotate(-36)" fill="#186648"/>
    </g>
  </g>
  <g id="line">
    <rect x="5" y="17" width="62" height="38" fill="none" stroke="#000" stroke-linecap="round" stroke-linejoin="round" stroke-width="2"/>
  </g>
</svg>
