<svg id="emoji" viewBox="0 0 72 72" xmlns="http://www.w3.org/2000/svg">
  <g id="color">
    <rect x="5" y="17" width="62" height="38" fill="#fcea2b"/>
    <rect x="5" y="17" width="21" height="38" fill="#1e50a0"/>
    <rect x="46" y="17" width="21" height="38" fill="#d22f27"/>
    <g>
      <path fill="#d22f27" d="M42,32.1538V44a2.0059,2.0059,0,0,1-2,2H32a2.0059,2.0059,0,0,1-2-2V32.1538"/>
      <rect x="36" y="32.1538" width="6" height="6.1538" fill="#f1b31c"/>
      <rect x="30" y="38.3077" width="6" height="7.6923" fill="#f1b31c"/>
      <ellipse cx="36" cy="38.3077" rx="2.25" ry="2.3077" fill="#6a462f"/>
      <g>
        <path fill="none" stroke="#6a462f" stroke-linecap="round" stroke-linejoin="round" stroke-width="2" d="M30,27.5385A12.5962,12.5962,0,0,1,36,26"/>
        <path fill="none" stroke="#6a462f" stroke-linecap="round" stroke-linejoin="round" stroke-width="2" d="M42,27.5385A12.5962,12.5962,0,0,0,36,26"/>
        <line x1="30" x2="42" y1="32.1538" y2="32.1538" fill="none" stroke="#6a462f" stroke-linecap="round" stroke-linejoin="round" stroke-width="2"/>
        <path fill="none" stroke="#6a462f" stroke-linecap="round" stroke-linejoin="round" stroke-width="2" d="M42,32.1538V44a2.0059,2.0059,0,0,1-2,2H32a2.0059,2.0059,0,0,1-2-2V32.1538"/>
      </g>
    </g>
  </g>
  <g id="line">
    <rect x="5" y="17" width="62" height="38" fill="none" stroke="#000" stroke-linecap="round" stroke-linejoin="round" stroke-width="2"/>
  </g>
</svg>
