<svg id="emoji" viewBox="0 0 72 72" xmlns="http://www.w3.org/2000/svg">
  <g id="color">
    <rect x="5" y="17" width="62" height="38" fill="#5c9e31"/>
    <rect x="5" y="30" width="62" height="12" fill="#fff"/>
    <rect x="5" y="17" width="62" height="13"/>
    <polygon fill="#d22f27" points="26 36 5 55 5 17 26 36"/>
    <path fill="#d22f27" stroke="#d22f27" stroke-linecap="round" stroke-linejoin="round" d="M35.1216,36A4.0529,4.0529,0,0,1,38.5,32.0764,4.3955,4.3955,0,0,0,37.6892,32a4.0043,4.0043,0,1,0,0,8,4.3955,4.3955,0,0,0,.8108-.0764A4.0529,4.0529,0,0,1,35.1216,36Z"/>
    <polygon fill="#d22f27" stroke="#d22f27" stroke-linecap="round" stroke-linejoin="round" points="38.707 38 40.035 34 41.18 37.939 38 35.565 42 35.467 38.707 38"/>
  </g>
  <g id="line">
    <rect x="5" y="17" width="62" height="38" fill="none" stroke="#000" stroke-linecap="round" stroke-linejoin="round" stroke-width="2"/>
  </g>
</svg>
