<svg id="emoji" viewBox="0 0 72 72" xmlns="http://www.w3.org/2000/svg">
  <g id="color">
    <rect x="5" y="17" width="62" height="38" fill="#fff"/>
    <polygon fill="#d22f27" points="63.173 17 8.827 17 36 33.654 63.173 17"/>
    <polygon fill="#d22f27" points="63.173 55 36 38.346 8.827 55 63.173 55"/>
    <polygon fill="#5c9e31" points="67 19.346 39.827 36 67 52.654 67 19.346"/>
    <polygon fill="#5c9e31" points="5 52.654 32.173 36 5 19.346 5 52.654"/>
    <circle cx="36" cy="36" r="10" fill="#fff"/>
    <circle cx="36" cy="31" r="2" fill="#d22f27"/>
    <circle cx="40.3301" cy="38.5" r="2" fill="#d22f27"/>
    <circle cx="31.6699" cy="38.5" r="2" fill="#d22f27"/>
    <line x1="31.6699" x2="36" y1="38.5" y2="36" fill="none"/>
    <line x1="40.3301" x2="36" y1="38.5" y2="36" fill="none"/>
  </g>
  <g id="line">
    <rect x="5" y="17" width="62" height="38" fill="none" stroke="#000" stroke-linecap="round" stroke-linejoin="round" stroke-width="2"/>
  </g>
</svg>
