<svg id="emoji" viewBox="0 0 72 72" xmlns="http://www.w3.org/2000/svg">
  <g id="color">
    <rect x="5" y="17" width="62" height="38" fill="#d22f27"/>
    <polygon fill="#fff" stroke="#fff" stroke-linecap="round" stroke-linejoin="round" points="53.5 30.5 46.547 39 39 37 41 31 45.87 36.74 53.37 29.389 57.207 29.518 53.5 30.5"/>
    <polygon fill="#fff" stroke="#fff" stroke-linecap="round" stroke-linejoin="round" points="26.858 22.347 37.77 23.574 40.187 30.998 34.062 32.575 36.24 25.369 25.995 23.06 24.021 19.766 26.858 22.347"/>
    <polygon fill="#fff" stroke="#fff" stroke-linecap="round" stroke-linejoin="round" points="31.511 48.414 28.113 37.971 33.873 32.7 37.842 37.624 30.38 38.622 32.516 48.905 30.335 52.064 31.511 48.414"/>
    <polygon fill="#fff" stroke="#fff" stroke-linecap="round" stroke-linejoin="round" stroke-width="2" points="38.165 36.915 40.719 31.1 34.65 31.728 38.165 36.915"/>
    <line x1="38" x2="39" y1="34" y2="38" fill="none" stroke="#fcea2b" stroke-linecap="round" stroke-linejoin="round" stroke-width="2"/>
    <polyline fill="none" stroke="#fcea2b" stroke-linecap="round" stroke-linejoin="round" stroke-width="2" points="41 31 38 34 34 32"/>
    <polygon fill="#fcea2b" stroke="#fcea2b" stroke-linecap="round" stroke-linejoin="round" points="24.209 28.342 25.165 25.342 26.063 28.323 23.654 26.5 26.654 26.469 24.209 28.342"/>
    <polygon fill="#fcea2b" stroke="#fcea2b" stroke-linecap="round" stroke-linejoin="round" points="49.209 29.342 50.165 26.342 51.063 29.323 48.654 27.5 51.654 27.469 49.209 29.342"/>
    <polygon fill="#fcea2b" stroke="#fcea2b" stroke-linecap="round" stroke-linejoin="round" points="35.209 49.342 36.165 46.342 37.063 49.323 34.654 47.5 37.654 47.469 35.209 49.342"/>
  </g>
  <g id="line">
    <rect x="5" y="17" width="62" height="38" fill="none" stroke="#000" stroke-linecap="round" stroke-linejoin="round" stroke-width="2"/>
  </g>
</svg>
