<svg id="emoji" viewBox="0 0 72 72" xmlns="http://www.w3.org/2000/svg">
  <g id="color">
    <rect x="5" y="17" width="62" height="38" fill="#f1b31c"/>
    <rect x="5" y="17" width="21" height="38" fill="#1e50a0"/>
    <rect x="46" y="17" width="21" height="38" fill="#1e50a0"/>
    <g>
      <polygon id="_" stroke="#000" stroke-linecap="round" stroke-linejoin="round" points="33.415 29.501 36 26.712 38.585 29.501 37.943 30.096 36.439 28.467 36.439 45.288 35.561 45.288 35.561 28.467 34.057 30.096 33.415 29.501"/>
      <polygon id="_2" stroke="#000" stroke-linecap="round" stroke-linejoin="round" points="41.5 39.212 40.703 39.212 40.703 31.9 39.685 33.003 39.25 32.6 41.5 30.212 41.5 39.212"/>
      <polygon id="_3" stroke="#000" stroke-linecap="round" stroke-linejoin="round" points="30.5 30.212 32.75 32.6 32.315 33.003 31.297 31.9 31.297 39.212 30.5 39.212 30.5 30.212"/>
      <polygon id="_4" stroke="#000" stroke-linecap="round" stroke-linejoin="round" points="41.5 39.297 30.5 39.297 30.5 38.703 41.5 38.703 41.5 39.297"/>
    </g>
  </g>
  <g id="line">
    <rect x="5" y="17" width="62" height="38" fill="none" stroke="#000" stroke-linecap="round" stroke-linejoin="round" stroke-width="2"/>
  </g>
</svg>
