<svg id="emoji" viewBox="0 0 72 72" xmlns="http://www.w3.org/2000/svg">
  <g id="color">
    <rect x="5" y="17" width="62" height="38" fill="#fff"/>
    <path fill="#e27022" stroke="#e27022" stroke-linecap="round" stroke-linejoin="round" d="M53.3956,25.8867a22.4569,22.4569,0,0,0-3.912,1.7784,1.2328,1.2328,0,0,1-1.08.2357,8.4457,8.4457,0,0,1-2.772,1.677c-.5144.188-1.0457.3253-1.5759.4624l-1.6436.4247a15.6892,15.6892,0,0,1-2.54.5091,15.6949,15.6949,0,0,1-2.77-.084l-1.9812-.1773a4.5448,4.5448,0,0,1-2.4609-.7106,4.9509,4.9509,0,0,1,.1615,2.3536c-.1173.6706-.511,1.4233-1.19,1.4691a2.816,2.816,0,0,1-1.23-.4253,2.6661,2.6661,0,0,0-2.2932.1061c-.4684.4485-.66,1.1472-1.1813,1.533-.6371.4716-1.1327.1157-1.7391-.107-.9379-.3444-.4842.42-.2224,1.0519a2.6344,2.6344,0,0,1,.1524,1.4925,2.1325,2.1325,0,0,1,1.1052,1.9224,26.0579,26.0579,0,0,0,2.93,1.3147,2.6293,2.6293,0,0,0,.9883.225c.516-.0153.9953-.3174,1.5114-.3086a1.3283,1.3283,0,0,1,1.2364,1.4653,3.4945,3.4945,0,0,1,1.24-.0275c-.546-.35-.327-1.2705.2195-1.62a3.8876,3.8876,0,0,1,1.8876-.365,8.0513,8.0513,0,0,0,3.78-1.2291,1.4765,1.4765,0,0,1,1.16-.3631c.55-.3392.2986-1.22.63-1.775.3865-.6478,1.3656-.5691,2.0385-.228a1.159,1.159,0,0,0,.58.1884,1.3224,1.3224,0,0,0,.5192-.22,2.29,2.29,0,0,1,2.3387.11,12.3481,12.3481,0,0,0-2.3708-2.9752,3.5207,3.5207,0,0,1,.1563-1.458,1.2014,1.2014,0,0,1,1.1224-.8041,1.5714,1.5714,0,0,0,.377.0285c.2865-.0456.4344-.3548.5849-.6028.8345-1.3751,2.8112-1.5874,3.86-2.8067a4.6449,4.6449,0,0,1,.534-.6082,4.9435,4.9435,0,0,1,1.1279-.5264A1.0671,1.0671,0,0,0,53.3956,25.8867Z"/>
    <g>
      <path fill="none" stroke="#5c9e31" stroke-linecap="round" stroke-linejoin="round" stroke-width="2" d="M23.5,42a18.0342,18.0342,0,0,0,11,4"/>
      <path fill="none" stroke="#5c9e31" stroke-linecap="round" stroke-linejoin="round" stroke-width="2" d="M48.5,42a18.0339,18.0339,0,0,1-11,4"/>
    </g>
  </g>
  <g id="line">
    <rect x="5" y="17" width="62" height="38" fill="none" stroke="#000" stroke-linecap="round" stroke-linejoin="round" stroke-width="2"/>
  </g>
</svg>
