<svg id="emoji" viewBox="0 0 72 72" xmlns="http://www.w3.org/2000/svg">
  <g id="color">
    <rect x="5" y="17" width="62" height="38" fill="#61b2e4"/>
    <g>
      <ellipse cx="36" cy="36" rx="10.4661" ry="10.4999" fill="none" stroke="#fff" stroke-miterlimit="10" stroke-width="3"/>
      <path fill="none" stroke="#fcea2b" stroke-linecap="round" stroke-linejoin="round" d="M46.4658,35.9315a10.4661,10.4661,0,1,1-20.9317.137"/>
      <path fill="none" stroke="#d22f27" stroke-linecap="round" stroke-linejoin="round" d="M25.5343,36.0685a10.4661,10.4661,0,1,1,20.9317-.137"/>
      <polygon fill="#9b9b9a" stroke="#9b9b9a" stroke-linecap="round" stroke-linejoin="round" points="40.5 50 31.5 50 34.5 32 37.5 32 40.5 50"/>
      <polygon fill="#9b9b9a" stroke="#9b9b9a" stroke-linecap="round" stroke-linejoin="round" points="38.5 29 33.5 29 34.5 33 37.5 33 38.5 29"/>
      <polygon fill="#fff" stroke="#fff" stroke-linecap="round" stroke-linejoin="round" points="32.122 42 36.105 30 39.539 41.816 30 34.696 42 34.4 32.122 42"/>
      <path fill="none" stroke="#5c9e31" stroke-linecap="round" stroke-linejoin="round" d="M25.7466,38.1161A10.6415,10.6415,0,0,1,25.7235,34"/>
      <path fill="none" stroke="#5c9e31" stroke-linecap="round" stroke-linejoin="round" d="M46.2535,34a10.6388,10.6388,0,0,1,.023,4.1158"/>
    </g>
  </g>
  <g id="line">
    <rect x="5" y="17" width="62" height="38" fill="none" stroke="#000" stroke-linecap="round" stroke-linejoin="round" stroke-width="2"/>
  </g>
</svg>
