<svg id="emoji" viewBox="0 0 72 72" xmlns="http://www.w3.org/2000/svg">
  <g id="color">
    <rect x="5" y="17" width="62" height="38" fill="#1e50a0"/>
    <polygon fill="#fff" stroke="#fff" stroke-linecap="round" stroke-linejoin="round" points="19.75 21.972 20.986 25.972 17.75 23.5 21.75 23.5 18.514 25.972 19.75 21.972"/>
    <polygon fill="#fff" stroke="#fff" stroke-linecap="round" stroke-linejoin="round" points="19.75 35.972 20.986 39.972 17.75 37.5 21.75 37.5 18.514 39.972 19.75 35.972"/>
    <polygon fill="#fff" stroke="#fff" stroke-linecap="round" stroke-linejoin="round" points="12.5 27.972 13.736 31.972 10.5 29.5 14.5 29.5 11.264 31.972 12.5 27.972"/>
    <polygon fill="#fff" stroke="#fff" stroke-linecap="round" stroke-linejoin="round" points="26.5 26.972 27.427 29.972 25 28.118 28 28.118 25.573 29.972 26.5 26.972"/>
    <path fill="#f1b31c" stroke="#f1b31c" stroke-linecap="round" stroke-linejoin="round" stroke-width="2" d="M56.4964,22.0042,22.5,47h32l2-.0008c-2.1713-3.7-5.4086-7.9629-5.4086-12.5009C51.0914,29.9634,54.3273,25.7026,56.4964,22.0042Z"/>
    <line x1="22.5" x2="58.5" y1="50" y2="50" fill="none" stroke="#f1b31c" stroke-linecap="round" stroke-linejoin="round" stroke-width="2"/>
  </g>
  <g id="line">
    <rect x="5" y="17" width="62" height="38" fill="none" stroke="#000" stroke-linecap="round" stroke-linejoin="round" stroke-width="2"/>
  </g>
</svg>
