<svg id="emoji" viewBox="0 0 72 72" xmlns="http://www.w3.org/2000/svg">
  <g id="color">
    <rect x="5" y="17" width="62" height="38" fill="#1e50a0"/>
    <polygon fill="#d22f27" stroke="#d22f27" stroke-linecap="round" stroke-linejoin="round" points="49.962 29.167 51.621 24.167 53.052 29.091 49.078 26.124 54.078 26.001 49.962 29.167"/>
    <polygon fill="#d22f27" stroke="#d22f27" stroke-linecap="round" stroke-linejoin="round" points="49.962 47.167 51.621 42.167 53.052 47.091 49.078 44.124 54.078 44.001 49.962 47.167"/>
    <polygon fill="#d22f27" stroke="#d22f27" stroke-linecap="round" stroke-linejoin="round" points="57.962 34.167 59.621 29.167 61.052 34.091 57.078 31.124 62.078 31.001 57.962 34.167"/>
    <polygon fill="#d22f27" stroke="#d22f27" stroke-linecap="round" stroke-linejoin="round" points="42.962 36.167 44.621 31.167 46.052 36.091 42.078 33.124 47.078 33.001 42.962 36.167"/>
    <g>
      <polygon fill="#fff" points="9.887 18 6 18 6 20.332 32.113 36 36 36 36 33.668 9.887 18"/>
      <polygon fill="#fff" points="36 20.332 36 18 32.113 18 6 33.668 6 36 9.887 36 36 20.332"/>
      <rect x="6" y="24" width="30" height="6" fill="#fff"/>
      <rect x="18" y="18" width="6" height="18" fill="#fff"/>
      <rect x="20" y="18" width="2" height="18" fill="#d22f27"/>
      <rect x="6" y="26" width="30" height="2" fill="#d22f27"/>
      <polygon fill="#d22f27" points="36 33.668 29.887 30 26 30 36 36 36 35.999 36 33.668"/>
      <polygon fill="#d22f27" points="36 18 32.113 18 24 22.868 24 24 26.001 24 36 18.001 36 18"/>
      <polygon fill="#d22f27" points="6 20.332 12.113 24 16.001 24 6.001 18 6 18.001 6 20.332"/>
      <polygon fill="#d22f27" points="6 36 9.887 36 18 31.132 18 30 16 30 6 35.999 6 36"/>
    </g>
  </g>
  <g id="line">
    <rect x="5" y="17" width="62" height="38" fill="none" stroke="#000" stroke-linecap="round" stroke-linejoin="round" stroke-width="2"/>
  </g>
</svg>
