<svg id="emoji" viewBox="0 0 72 72" xmlns="http://www.w3.org/2000/svg">
  <g id="color">
    <rect x="5" y="17" width="62" height="38" fill="#d22f27"/>
    <rect x="5" y="48" width="62" height="7" fill="#1e50a0" stroke="#f1b31c" stroke-miterlimit="10"/>
    <rect x="5" y="17" width="62" height="7" fill="#1e50a0" stroke="#f1b31c" stroke-miterlimit="10"/>
    <line x1="19.3616" x2="56.1629" y1="28.9275" y2="28.9275" fill="none" stroke="#fcea2b" stroke-linecap="round" stroke-linejoin="round" stroke-width="0.9681"/>
    <line x1="16.0161" x2="52.8173" y1="33.1094" y2="33.1094" fill="none" stroke="#fcea2b" stroke-linecap="round" stroke-linejoin="round" stroke-width="0.9681"/>
    <line x1="11.6763" x2="60.5027" y1="36.4783" y2="36.4783" fill="none" stroke="#fcea2b" stroke-linecap="round" stroke-linejoin="round" stroke-width="0.9246"/>
    <g>
      <path d="M48.6477,32.309a17.8474,17.8474,0,0,0-25.2386,0l-3.9549,3.9544a.3035.3035,0,0,0,0,.4293l3.9549,3.9544a17.8474,17.8474,0,0,0,25.2386,0l3.9549-3.9544a.3035.3035,0,0,0,0-.4293Z"/>
      <path fill="#fff" d="M36.09,45.6893A.3112.3112,0,0,0,36.4018,46a17.4822,17.4822,0,0,0,12.1535-5.1379l4.1695-4.169a.3036.3036,0,0,0,0-.4293l-4.1695-4.169a17.4813,17.4813,0,0,0-12.1535-5.1382.3111.3111,0,0,0-.3123.3106Z"/>
    </g>
    <g>
      <line x1="23.8897" x2="33.5703" y1="34.3001" y2="34.3001" fill="none" stroke="#fff" stroke-linecap="round" stroke-linejoin="round" stroke-width="1.9361"/>
      <line x1="23.8897" x2="33.5703" y1="38.6564" y2="38.6564" fill="none" stroke="#fff" stroke-linecap="round" stroke-linejoin="round" stroke-width="1.9361"/>
    </g>
    <g>
      <line x1="38.4106" x2="48.0911" y1="34.3001" y2="34.3001" fill="none" stroke="#000" stroke-linecap="round" stroke-linejoin="round" stroke-width="1.9361"/>
      <line x1="38.4106" x2="48.0911" y1="38.6564" y2="38.6564" fill="none" stroke="#000" stroke-linecap="round" stroke-linejoin="round" stroke-width="1.9361"/>
    </g>
    <circle cx="31.1189" cy="30.6452" r="2.9042" fill="#1e50a0" stroke="#000" stroke-linecap="round" stroke-linejoin="round" stroke-width="0.9681"/>
    <circle cx="12.7661" cy="38.2922" r="2.9042" fill="#1e50a0" stroke="#000" stroke-linecap="round" stroke-linejoin="round" stroke-width="0.9681"/>
    <circle cx="60.1776" cy="38.2922" r="2.9042" fill="#1e50a0" stroke="#000" stroke-linecap="round" stroke-linejoin="round" stroke-width="0.9681"/>
  </g>
  <g id="line">
    <rect x="5" y="17" width="62" height="38" fill="none" stroke="#000" stroke-linecap="round" stroke-linejoin="round" stroke-width="2"/>
  </g>
</svg>
