<svg id="emoji" viewBox="0 0 72 72" xmlns="http://www.w3.org/2000/svg">
  <g id="color">
    <rect x="5" y="17" width="62" height="38" fill="#d22f27"/>
    <rect x="5" y="17" width="32" height="21" fill="#1e50a0"/>
    <polygon fill="#fff" stroke="#fff" stroke-linecap="round" stroke-linejoin="round" points="20.081 24.089 21.313 20.089 22.553 24.087 19.315 21.618 23.315 21.615 20.081 24.089"/>
    <polygon fill="#fff" stroke="#fff" stroke-linecap="round" stroke-linejoin="round" points="20.081 35.971 21.313 31.971 22.553 35.969 19.315 33.5 23.315 33.497 20.081 35.971"/>
    <polygon fill="#fff" stroke="#fff" stroke-linecap="round" stroke-linejoin="round" points="26.581 27.471 27.813 23.471 29.053 27.469 25.815 25 29.815 24.997 26.581 27.471"/>
    <polygon fill="#fff" stroke="#fff" stroke-linecap="round" stroke-linejoin="round" points="13.581 27.471 14.813 23.471 16.053 27.469 12.815 25 16.815 24.997 13.581 27.471"/>
    <circle cx="24.75" cy="30" r="0.5" fill="#fff"/>
  </g>
  <g id="line">
    <rect x="5" y="17" width="62" height="38" fill="none" stroke="#000" stroke-linecap="round" stroke-linejoin="round" stroke-width="2"/>
  </g>
</svg>
