<svg id="emoji" viewBox="0 0 72 72" xmlns="http://www.w3.org/2000/svg">
  <g id="color">
    <rect x="17" y="17" width="38" height="38" fill="#fff"/>
    <rect x="17" y="17" width="19" height="38" fill="#fcea2b"/>
    <g>
      <ellipse cx="44.7274" cy="29.8602" rx="1.9462" ry="2.703" fill="#9b9b9a"/>
      <g>
        <line x1="43.6125" x2="45.8423" y1="28.7453" y2="28.7453" fill="none" stroke="#fcea2b" stroke-linecap="round" stroke-linejoin="round" stroke-width="0.9103"/>
        <line x1="43.6125" x2="45.8423" y1="29.8602" y2="29.8602" fill="none" stroke="#fcea2b" stroke-linecap="round" stroke-linejoin="round" stroke-width="0.9103"/>
        <line x1="43.6125" x2="45.8423" y1="30.9751" y2="30.9751" fill="none" stroke="#fcea2b" stroke-linecap="round" stroke-linejoin="round" stroke-width="0.9103"/>
      </g>
    </g>
    <path fill="none" stroke="#d22f27" stroke-linecap="round" stroke-linejoin="round" stroke-width="1.1468" d="M40.2017,42.2844c2.54,2.54,6.8992,2.29,9.747-.5575"/>
    <g>
      <path fill="#9b9b9a" d="M47.9343,36.1387a3.2621,3.2621,0,1,0,3.9646,2.3588A3.2622,3.2622,0,0,0,47.9343,36.1387Zm1.3,5.1189a2.0193,2.0193,0,1,1,1.46-2.4542A2.0193,2.0193,0,0,1,49.2342,41.2576Z"/>
      <rect x="42.8454" y="30.3687" rx="0.4164" ry="0.4164" width="1.4686" height="8.8114" transform="translate(-11.2822 44.7052) rotate(-48.8483)" fill="#9b9b9a"/>
      <rect x="39.7038" y="32.3358" rx="0.369" ry="0.369" width="1.4686" height="1.8096" transform="translate(31.8635 -18.3991) rotate(41.1517)" fill="#9b9b9a"/>
      <rect x="41.2676" y="33.7025" rx="0.369" ry="0.369" width="1.4686" height="1.8096" transform="translate(33.1492 -19.0905) rotate(41.1517)" fill="#9b9b9a"/>
    </g>
    <g>
      <path fill="#fcea2b" d="M37.5178,38.8188a3.262,3.262,0,1,0,3.8347-2.5645A3.262,3.262,0,0,0,37.5178,38.8188Zm1.2189.2419a2.0193,2.0193,0,1,1,1.5875,2.3739A2.0192,2.0192,0,0,1,38.7367,39.0607Z"/>
      <rect x="44.8948" y="30.2566" rx="0.4164" ry="0.4164" width="1.4686" height="8.8114" transform="translate(52.5644 91.5427) rotate(-134.1739)" fill="#fcea2b"/>
      <rect x="47.9512" y="32.0601" rx="0.369" ry="0.369" width="1.4686" height="1.8096" transform="translate(106.5753 22.6824) rotate(135.8261)" fill="#fcea2b"/>
      <rect x="46.4616" y="33.5073" rx="0.369" ry="0.369" width="1.4686" height="1.8096" transform="translate(105.0258 26.2056) rotate(135.8261)" fill="#fcea2b"/>
    </g>
  </g>
  <g id="line">
    <rect x="17" y="17" width="38" height="38" fill="none" stroke="#000" stroke-linecap="round" stroke-linejoin="round" stroke-width="2"/>
  </g>
</svg>
