<svg id="emoji" viewBox="0 0 72 72" xmlns="http://www.w3.org/2000/svg">
  <g id="color">
    <rect x="5" y="17" width="62" height="38" fill="#b1cc33"/>
    <rect x="5" y="17" width="62" height="13" fill="#61b2e4"/>
    <rect x="5" y="30.25" width="62" height="11.5" fill="#fff" stroke="#d22f27" stroke-miterlimit="10" stroke-width="1.5"/>
    <circle cx="29.25" cy="21" r="1" fill="#fff"/>
    <circle cx="29.25" cy="24" r="1" fill="#fff"/>
    <circle cx="29.25" cy="27" r="1" fill="#fff"/>
    <circle cx="26.25" cy="21" r="1" fill="#fff"/>
    <circle cx="26.25" cy="24" r="1" fill="#fff"/>
    <circle cx="26.25" cy="27" r="1" fill="#fff"/>
    <circle cx="23.25" cy="21" r="1" fill="#fff"/>
    <circle cx="23.25" cy="24" r="1" fill="#fff"/>
    <circle cx="23.25" cy="27" r="1" fill="#fff"/>
    <circle cx="20.25" cy="24" r="1" fill="#fff"/>
    <circle cx="20.25" cy="27" r="1" fill="#fff"/>
    <circle cx="17.25" cy="27" r="1" fill="#fff"/>
    <path fill="#fff" stroke="#fff" stroke-linecap="round" stroke-linejoin="round" d="M11.2973,24A3.4648,3.4648,0,0,1,14,20.5668a3.2286,3.2286,0,0,0-.6486-.0668,3.5033,3.5033,0,0,0,0,7A3.2286,3.2286,0,0,0,14,27.4332,3.4648,3.4648,0,0,1,11.2973,24Z"/>
  </g>
  <g id="line">
    <rect x="5" y="17" width="62" height="38" fill="none" stroke="#000" stroke-linecap="round" stroke-linejoin="round" stroke-width="2"/>
  </g>
</svg>
