<svg id="emoji" viewBox="0 0 72 72" xmlns="http://www.w3.org/2000/svg">
  <g id="color">
    <rect x="5" y="17" width="62" height="38" fill="#d22f27"/>
    <rect x="5" y="17" width="62" height="13" fill="#d0cfce"/>
    <rect x="5" y="30" width="62" height="12" fill="#1e50a0"/>
    <path fill="#d22f27" stroke="#fff" stroke-linecap="round" stroke-linejoin="round" d="M23.8334,45s6.75-2.25,6.75-9V27h-13.5v9C17.0834,42.75,23.8334,45,23.8334,45Z"/>
    <line x1="23.8334" x2="23.8334" y1="29.5" y2="41.5" fill="none" stroke="#fff" stroke-linecap="round" stroke-linejoin="round" stroke-width="2"/>
    <line x1="21.8334" x2="25.8334" y1="31.5" y2="31.5" fill="none" stroke="#fff" stroke-linecap="round" stroke-linejoin="round" stroke-width="2"/>
    <line x1="20.3334" x2="27.3334" y1="34.5" y2="34.5" fill="none" stroke="#fff" stroke-linecap="round" stroke-linejoin="round" stroke-width="2"/>
    <circle cx="23.8334" cy="41.5" r="3.1667" fill="#1e50a0"/>
    <path fill="#1e50a0" d="M19.25,39.3333a2.1457,2.1457,0,0,0-1.3265.465,9.5792,9.5792,0,0,0,2.7022,3.3628A2.158,2.158,0,0,0,19.25,39.3333Z"/>
    <path fill="#1e50a0" d="M28.4167,39.3333a2.158,2.158,0,0,0-1.3757,3.8278,9.5792,9.5792,0,0,0,2.7022-3.3628A2.1455,2.1455,0,0,0,28.4167,39.3333Z"/>
    <path fill="none" stroke="#fff" stroke-linecap="round" stroke-linejoin="round" d="M23.8334,45s6.75-2.25,6.75-9V27h-13.5v9C17.0834,42.75,23.8334,45,23.8334,45Z"/>
  </g>
  <g id="line">
    <rect x="5" y="17" width="62" height="38" fill="none" stroke="#000" stroke-linecap="round" stroke-linejoin="round" stroke-width="2"/>
  </g>
</svg>
