<svg id="emoji" viewBox="0 0 72 72" xmlns="http://www.w3.org/2000/svg">
  <g id="color">
    <rect x="5" y="17" width="62" height="38" fill="#1e50a0"/>
    <g>
      <polygon fill="#fff" stroke="#fff" stroke-linecap="round" stroke-linejoin="round" points="31.516 26.089 32.749 22.089 33.989 26.087 30.75 23.618 34.75 23.615 31.516 26.089"/>
      <polygon fill="#fff" stroke="#fff" stroke-linecap="round" stroke-linejoin="round" points="38.016 26.089 39.249 22.089 40.489 26.087 37.25 23.618 41.25 23.615 38.016 26.089"/>
    </g>
    <polygon fill="#fff" stroke="#fff" stroke-linecap="round" stroke-linejoin="round" points="43.581 28.471 44.813 24.471 46.053 28.469 42.815 26 46.815 25.997 43.581 28.471"/>
    <polygon fill="#fff" stroke="#fff" stroke-linecap="round" stroke-linejoin="round" points="49.581 30.471 50.813 26.471 52.053 30.469 48.815 28 52.815 27.997 49.581 30.471"/>
    <polygon fill="#fff" stroke="#fff" stroke-linecap="round" stroke-linejoin="round" points="25.581 28.471 26.813 24.471 28.053 28.469 24.815 26 28.815 25.997 25.581 28.471"/>
    <polygon fill="#fff" stroke="#fff" stroke-linecap="round" stroke-linejoin="round" points="19.581 30.471 20.813 26.471 22.053 30.469 18.815 28 22.815 27.997 19.581 30.471"/>
    <path fill="#f1b31c" stroke="#f1b31c" stroke-linecap="round" stroke-linejoin="round" d="M29.82,35.7794c.7763-.1309,1.5819-.21,1.9521-.85-.4534-.0176-.5355-.7276-.2233-1.0568a3.9713,3.9713,0,0,1,1.2-.6194c.4054-.2037.7722-.6831.5574-1.0827.2839-.0362.4037-.4169.2944-.6815a1.7427,1.7427,0,0,0-.58-.62,1.0377,1.0377,0,0,1-.4568-.6961c.755.3016,1.52-.8745,2.2743-.5718-.0541-.8706.9657.5222,1.0943.6242a.3132.3132,0,0,0-.42.0438.3923.3923,0,0,0,.0589.5124,1.1425,1.1425,0,0,0,.5039.2481l1.9305.578a.3427.3427,0,0,0,.3742-.2565.8223.8223,0,0,0,.6188.302,2.5089,2.5089,0,0,0,.5317,1.6872l.2376-.3913c.5867.2457.2566,1.2414.7057,1.6919a1.1708,1.1708,0,0,0,.4218.2387,10.2882,10.2882,0,0,0,1.6127.4733l-.4944,1.8145a4.406,4.406,0,0,1,3.21,1.2378.7776.7776,0,0,1,1.4476.3358c-.3669.0158-.4525.5115-.471.8783s-.2784.8514-.6122.6983c.15.2716-.0854.5929-.323.7922s-.5232.4342-.4916.7427c.018.1763.1427.3337.1355.5107-.0257.6244-1.3678.3943-1.3993,1.0184-.025.4958.9185.77.687,1.2091-.0993.1882-.355.2108-.5678.2093a.7287.7287,0,0,0-.6232-.5c-.2831.001-.5358.3445-.3807.5813a1.5951,1.5951,0,0,0-1.5308,1.9874l-1.035.2053a7.612,7.612,0,0,0-.5581-1.2853.688.688,0,0,0-.274-.3137.7281.7281,0,0,0-.6136.0978L35.638,47.0376c-.5576.2744-1.1916.6569-1.2329,1.2769-.0344.5149.3752,1.0107.245,1.51-.136.5214-.7631.7219-1.2981.7867-.2951.0357-.6575.0249-.8074-.2319-.1992-.3415.16-.7262.2781-1.1035a2.2413,2.2413,0,0,0-.29-1.4406,17.9857,17.9857,0,0,0-.933-2.6125,3.4261,3.4261,0,0,0-3.1072-1.6408,4.6472,4.6472,0,0,0-1.1278-2.8058,4.2641,4.2641,0,0,1-.809-1.0411A.91.91,0,0,1,26.85,38.57,8.4823,8.4823,0,0,1,25.51,37.89a.4332.4332,0,0,1-.1967-.1963.38.38,0,0,1,.05-.2979,1.2952,1.2952,0,0,1,1.4639-.6224c.3505.1025.723.356,1.0441.1822.1824-.0988.2723-.3051.3964-.4712A2.2858,2.2858,0,0,1,29.82,35.7794Z"/>
  </g>
  <g id="line">
    <rect x="5" y="17" width="62" height="38" fill="none" stroke="#000" stroke-linecap="round" stroke-linejoin="round" stroke-width="2"/>
  </g>
</svg>
