<svg id="emoji" viewBox="0 0 72 72" xmlns="http://www.w3.org/2000/svg">
  <g id="color">
    <rect x="5" y="17" width="62" height="38" fill="#1e50a0"/>
    <polygon fill="#fff" stroke="#fff" stroke-miterlimit="10" stroke-width="2" points="67.004 33.045 39.004 33.004 39.028 17.004 33.028 16.996 33.004 32.996 5.004 32.955 4.996 38.955 32.996 38.996 32.972 54.996 38.972 55.004 38.996 39.004 66.996 39.045 67.004 33.045"/>
    <g>
      <line x1="16" x2="22.5" y1="50" y2="50" fill="#f1b31c" stroke="#fff" stroke-linecap="round" stroke-linejoin="round" stroke-width="2"/>
      <line x1="16" x2="22.5" y1="50" y2="49" fill="#f1b31c" stroke="#fff" stroke-linecap="round" stroke-linejoin="round" stroke-width="2"/>
      <circle cx="22.5" cy="49.5" r="0.5" fill="none" stroke="#fff" stroke-linecap="round" stroke-linejoin="round" stroke-width="2"/>
      <path fill="none" stroke="#fff" stroke-linecap="round" stroke-linejoin="round" stroke-width="2" d="M19,47a3,3,0,0,0,3,3"/>
      <path fill="none" stroke="#fff" stroke-linecap="round" stroke-linejoin="round" stroke-width="2" d="M17,44h1.5a.5015.5015,0,0,1,.5.5V47"/>
    </g>
    <g>
      <line x1="16" x2="22.5" y1="28" y2="28" fill="#f1b31c" stroke="#fff" stroke-linecap="round" stroke-linejoin="round" stroke-width="2"/>
      <line x1="16" x2="22.5" y1="28" y2="27" fill="#f1b31c" stroke="#fff" stroke-linecap="round" stroke-linejoin="round" stroke-width="2"/>
      <circle cx="22.5" cy="27.5" r="0.5" fill="none" stroke="#fff" stroke-linecap="round" stroke-linejoin="round" stroke-width="2"/>
      <path fill="none" stroke="#fff" stroke-linecap="round" stroke-linejoin="round" stroke-width="2" d="M19,25a3,3,0,0,0,3,3"/>
      <path fill="none" stroke="#fff" stroke-linecap="round" stroke-linejoin="round" stroke-width="2" d="M17,22h1.5a.5015.5015,0,0,1,.5.5V25"/>
    </g>
    <g>
      <line x1="50" x2="56.5" y1="50" y2="50" fill="#f1b31c" stroke="#fff" stroke-linecap="round" stroke-linejoin="round" stroke-width="2"/>
      <line x1="50" x2="56.5" y1="50" y2="49" fill="#f1b31c" stroke="#fff" stroke-linecap="round" stroke-linejoin="round" stroke-width="2"/>
      <circle cx="56.5" cy="49.5" r="0.5" fill="none" stroke="#fff" stroke-linecap="round" stroke-linejoin="round" stroke-width="2"/>
      <path fill="none" stroke="#fff" stroke-linecap="round" stroke-linejoin="round" stroke-width="2" d="M53,47a3,3,0,0,0,3,3"/>
      <path fill="none" stroke="#fff" stroke-linecap="round" stroke-linejoin="round" stroke-width="2" d="M51,44h1.5a.5015.5015,0,0,1,.5.5V47"/>
    </g>
    <g>
      <line x1="50" x2="56.5" y1="28" y2="28" fill="#f1b31c" stroke="#fff" stroke-linecap="round" stroke-linejoin="round" stroke-width="2"/>
      <line x1="50" x2="56.5" y1="28" y2="27" fill="#f1b31c" stroke="#fff" stroke-linecap="round" stroke-linejoin="round" stroke-width="2"/>
      <circle cx="56.5" cy="27.5" r="0.5" fill="none" stroke="#fff" stroke-linecap="round" stroke-linejoin="round" stroke-width="2"/>
      <path fill="none" stroke="#fff" stroke-linecap="round" stroke-linejoin="round" stroke-width="2" d="M53,25a3,3,0,0,0,3,3"/>
      <path fill="none" stroke="#fff" stroke-linecap="round" stroke-linejoin="round" stroke-width="2" d="M51,22h1.5a.5015.5015,0,0,1,.5.5V25"/>
    </g>
  </g>
  <g id="line">
    <rect x="5" y="17" width="62" height="38" fill="none" stroke="#000" stroke-linecap="round" stroke-linejoin="round" stroke-width="2"/>
  </g>
</svg>
