<svg id="emoji" viewBox="0 0 72 72" xmlns="http://www.w3.org/2000/svg">
  <g id="color">
    <path fill="#8967aa" d="M34.5783,44.4994a12.9828,12.9828,0,0,1,4.1336-2.1c2.3566-.66,3.6464-.71,5.1619-2.9585L35.4882,37.17a37.1666,37.1666,0,0,0,1.125,8.4336,8.73,8.73,0,0,1,.0226,2.74c-.0146,1.2372.6044,2.1871.7444,3.2805l8.8392-1.1962c-1.3957-4.2529-5.3836-6.5089-8.3142-9.6695-3.9466-4.2564-10.3,2.1194-6.3639,6.3639,1.0879,1.1733,2.3393,2.1421,3.4942,3.2435.4977.4745.9222,1.0124,1.4092,1.4939l.5519.5086q1.5611,1.1652.5443.4521c1.4847,4.5239,9.5169,4.0973,8.8393-1.1963-.1416-1.1059-.6638-2.2547-.758-3.3148-.1154-1.2979.3537-2.3494.058-3.7318a36.6814,36.6814,0,0,1-1.192-7.4076c-.0837-4.6265-5.9351-5.9068-8.3857-2.2713l-.3422.5077,3.8857-2.2287c-3.4561-.1444-6.8318,1.66-9.61,3.5506-4.7613,3.2393-.2636,11.041,4.5425,7.7713Z"/>
  </g>
  <g id="line">
    <path fill="none" stroke="#000" stroke-linecap="round" stroke-linejoin="round" stroke-width="2" d="M47.1291,65.6222,26.4808,39.2091s4.0955-.4757,3.9726-3.6356c0,0,3.16-.1229,3.39-2.3471,0,0,3.8656,1.7484,5.0312-.8287"/>
    <path fill="none" stroke="#000" stroke-linecap="round" stroke-linejoin="round" stroke-width="2" d="M38.8745,32.3977c2.93,2.1013,4.8336-.1362,4.8336-.1362l3.421,33.3607"/>
    <line x1="30.4534" x2="46.7762" y1="35.5735" y2="64.6865" fill="none" stroke="#000" stroke-linecap="round" stroke-linejoin="round" stroke-width="2"/>
    <path fill="none" stroke="#000" stroke-linecap="round" stroke-linejoin="round" stroke-width="2" d="M46.7762,64.6865,27.5,17.5s-1-3-3-2a5.1236,5.1236,0,0,0-2.009,1.5287A2.3,2.3,0,0,0,22.5,19.5"/>
    <line x1="38.8745" x2="46.7762" y1="32.3977" y2="64.6865" fill="none" stroke="#000" stroke-linecap="round" stroke-linejoin="round" stroke-width="2"/>
  </g>
</svg>
