<svg id="emoji" viewBox="0 0 72 72" xmlns="http://www.w3.org/2000/svg">
  <g id="color">
    <rect x="12" y="12" rx="1" width="48" height="48" fill="#d0cfce"/>
  </g>
  <g id="line">
    <g>
      <rect x="12" y="12" rx="1" width="48" height="48" fill="none" stroke="#000" stroke-linecap="round" stroke-miterlimit="10" stroke-width="2"/>
      <path fill="none" stroke="#000" stroke-linecap="round" stroke-miterlimit="10" stroke-width="2" d="M38,54.9375,21,55s-5,0-5-5,6-5,6-5"/>
      <path fill="none" stroke="#000" stroke-linecap="round" stroke-miterlimit="10" stroke-width="2" d="M23,41.9375s1-9,9-9a7.5,7.5,0,0,1,6,3"/>
      <path fill="none" stroke="#000" stroke-linecap="round" stroke-miterlimit="10" stroke-width="2" d="M39,38.9375s4.1626-4.6125,9-3a6.83,6.83,0,0,1,4,4"/>
      <path fill="none" stroke="#000" stroke-linecap="round" stroke-miterlimit="10" stroke-width="2" d="M50,42.9375s7-1,7,5-8,7-15,7"/>
      <path fill="none" stroke="#000" stroke-linecap="round" stroke-miterlimit="10" stroke-width="2" d="M32.0151,18.4243C34.1693,15.5331,40.2658,13.85,43,19"/>
      <path fill="none" stroke="#000" stroke-linecap="round" stroke-miterlimit="10" stroke-width="2" d="M36,29.0636S40,29,45,29a3.5083,3.5083,0,1,0,0-7"/>
      <path fill="none" stroke="#000" stroke-linecap="round" stroke-miterlimit="10" stroke-width="2" d="M20,20s2-3,5-3,4,3,4,3"/>
      <path fill="none" stroke="#000" stroke-linecap="round" stroke-miterlimit="10" stroke-width="2" d="M49.6444,17.8127A6.05,6.05,0,0,1,54.8132,24"/>
      <path fill="none" stroke="#000" stroke-linecap="round" stroke-miterlimit="10" stroke-width="2" d="M27.6964,47.3647s3.6961-5.5981,7.9282-2.268"/>
      <path fill="none" stroke="#000" stroke-linecap="round" stroke-miterlimit="10" stroke-width="2" d="M20,23c-5,1-3,6,0,6H31"/>
    </g>
  </g>
</svg>
