<svg id="emoji" viewBox="0 0 72 72" xmlns="http://www.w3.org/2000/svg">
  <g id="color">
    <path fill="#d0cfce" stroke="none" d="M14.5968,29.9075c-0.0396,0.4525-0.4062,0.8186-0.8602,0.8673C8.233,31.3643,4,36.7833,4,43.3794 C4,50.3693,8.8475,56.751,14.8272,56.751h41.2775c1.3997-0.037,2.5589-0.1579,3.7218-0.551C63.0257,54.6289,68,49.4069,68,42.6607 c0-7.079-4.8912-12.8736-11.0809-13.3441c-0.4735-0.036-0.8576-0.3674-0.9479-0.8313 c-1.3827-7.1005-7.7614-12.4363-15.3028-12.4363c-4.9012,0-9.2671,2.2189-12.1023,5.7487c-0.277,0.3449-0.742,0.503-1.151,0.3315 c-1.091-0.4575-2.2432-0.6789-3.5324-0.6789C19.0109,21.4502,15.012,25.1682,14.5968,29.9075z"/>
  </g>
  <g id="hair"/>
  <g id="skin"/>
  <g id="skin-shadow"/>
  <g id="line">
    <path fill="none" stroke="#000000" stroke-linecap="round" stroke-linejoin="round" stroke-miterlimit="10" stroke-width="2" d="M59.4442,55.4591C64.3882,53.8362,68,48.7016,68,42.6183c0-7.079-4.8912-12.8736-11.0809-13.3441 c-0.4735-0.036-0.8576-0.3674-0.9479-0.8313c-1.3827-7.1005-7.7614-12.4363-15.3028-12.4363 c-4.9012,0-9.2671,2.2189-12.1023,5.7487c-0.277,0.3449-0.742,0.503-1.151,0.3315c-1.091-0.4575-2.2432-0.6789-3.5324-0.6789 c-4.8718,0-8.8707,3.718-9.2859,8.4573c-0.0396,0.4525-0.4062,0.8186-0.8602,0.8673C8.233,31.322,4,36.741,4,43.3371 c0,6.9899,4.8475,12.6562,10.8272,12.6562l36.2187,0"/>
    <path fill="none" stroke="#000000" stroke-linecap="round" stroke-linejoin="round" stroke-width="2" d="M31.686,32.062 c-1.2083,0.9992-2.7458,1.5119-4.312,1.438c-1.5664,0.0745-3.1043-0.4379-4.313-1.437"/>
    <path fill="none" stroke="#000000" stroke-linecap="round" stroke-linejoin="round" stroke-width="2" d="M48.939,32.062 c-1.2083,0.9992-2.7458,1.5119-4.312,1.438c-1.5664,0.0745-3.1043-0.4379-4.313-1.437"/>
    <path fill="none" stroke="#000000" stroke-linecap="round" stroke-linejoin="round" stroke-miterlimit="10" stroke-width="2" d="M39.6114,45.3333c1.6569,0,3-1.1379,3-2.5417c0-1.0528-0.7555-1.9561-1.8323-2.3419c-0.3589-0.1286-0.7535-0.1997-1.1677-0.1997"/>
    <path fill="none" stroke="#000000" stroke-linecap="round" stroke-linejoin="round" stroke-miterlimit="10" stroke-width="2" d="M39.1843,50.4062c0.9401,0,2.0159-0.5708,2.3309-1.472c0.5041-1.4419-0.3552-3.0541-1.9192-3.6009"/>
    <path fill="none" stroke="#000000" stroke-linecap="round" stroke-linejoin="round" stroke-miterlimit="10" stroke-width="2" d="M62.3636,45.5589c2.1545-3.308,2.0114-7.9339-1.9915-9.7984c-1.7893-0.8334-3.8681-0.6097-4.9454,1.0444 c-0.5386,0.827-0.3048,1.9341,0.5222,2.4727"/>
    <path fill="none" stroke="#000000" stroke-linecap="round" stroke-linejoin="round" stroke-miterlimit="10" stroke-width="2" d="M46.0899,46.5506c4.7602,2.7667,12.0053,5.3518,16.2737-0.9917"/>
    <path fill="none" stroke="#000000" stroke-linecap="round" stroke-linejoin="round" stroke-miterlimit="10" stroke-width="2" d="M55.955,59.826c-0.2166,1.9335-1.9589,3.369-3.8924,3.1524c-1.6258-0.1821-2.8687-1.4434-3.0943-2.9898"/>
    <path fill="none" stroke="#000000" stroke-linecap="round" stroke-linejoin="round" stroke-miterlimit="10" stroke-width="2" d="M46.0899,46.5506c0,0,10.7036,5.7177,9.8651,13.2754"/>
  </g>
</svg>
