<svg id="emoji" viewBox="0 0 72 72" xmlns="http://www.w3.org/2000/svg">
  <g id="color">
    <polygon fill="#FCEA2B" stroke="none" points="18.1614,32.7701 11.9941,36.1744 12.7237,27.6375 4.6594,26.4755 10.6952,21.0025 4.854,15.3211 12.9576,14.4443 11.5643,6.4134 18.6367,10.4702 22.2317,3.1521 25.5673,10.5893 32.776,6.7848 31.1101,14.7612 39.7868,16.6442 33.4508,21.9909 39.2695,27.7724 31.1466,28.4486 32.3409,36.5116 25.3706,32.2911 20.7128,39.8499"/>
    <path fill="#d0cfce" stroke="none" stroke-linecap="round" stroke-linejoin="round" stroke-miterlimit="10" stroke-width="2" d="M25.6193,30.5602c-0.031,0.3535-0.3174,0.6396-0.6721,0.6775c-4.2996,0.4606-7.6067,4.6942-7.6067,9.8474 c0,5.4608,3.7871,9.8877,8.4588,9.8877l32.248,0c5.1325,0,9.2932-4.6783,9.2932-10.4492c0-5.5305-3.8212-10.0575-8.6569-10.4251 c-0.37-0.0281-0.67-0.2871-0.7406-0.6494c-1.0803-5.5472-6.0636-9.7159-11.9553-9.7159c-3.829,0-7.2399,1.7335-9.4549,4.4912 c-0.2164,0.2695-0.5797,0.3929-0.8992,0.2589c-0.8523-0.3575-1.7525-0.5304-2.7597-0.5304 C29.0679,23.953,25.9437,26.8576,25.6193,30.5602z"/>
    <path fill="#92D3F5" stroke="none" d="M28.6934,59.2233c-0.7516,1.1632-2.1343,1.6031-3.0902,0.9854 c-0.9559-0.6177-1.1216-2.0613-0.37-3.2245c0,0,0.8943-1.4257,4.0066-3.0386c0,0,0.6168-0.3534,0.5724,0.3205 C29.6208,57.7662,28.6934,59.2233,28.6934,59.2233"/>
    <path fill="#61B2E4" stroke="none" d="M29.1527,54.0877c0.5441,1.6504-0.7227,4.9495-0.7227,4.9495 c-0.9587,1.3692-2.1337,1.5027-3.1418,0.7967C25.2881,59.834,28.0077,58.8628,29.1527,54.0877"/>
    <path fill="#92D3F5" stroke="none" d="M58.798,59.2233c-0.7516,1.1632-2.1343,1.6031-3.0902,0.9854c-0.9559-0.6177-1.1216-2.0613-0.37-3.2245 c0,0,0.8943-1.4257,4.0066-3.0386c0,0,0.6168-0.3534,0.5724,0.3205C59.7254,57.7662,58.798,59.2233,58.798,59.2233"/>
    <path fill="#61B2E4" stroke="none" d="M59.2573,54.0877c0.5441,1.6504-0.7227,4.9495-0.7227,4.9495 c-0.9587,1.3692-2.1337,1.5027-3.1418,0.7967C55.3927,59.834,58.1123,58.8628,59.2573,54.0877"/>
    <path fill="#92D3F5" stroke="none" d="M43.7457,59.2233c-0.7516,1.1632-2.1343,1.6031-3.0902,0.9854 c-0.9559-0.6177-1.1216-2.0613-0.37-3.2245c0,0,0.8943-1.4257,4.0066-3.0386c0,0,0.6168-0.3534,0.5724,0.3205 C44.6731,57.7662,43.7457,59.2233,43.7457,59.2233"/>
    <path fill="#61B2E4" stroke="none" d="M44.205,54.0877c0.5441,1.6504-0.7227,4.9495-0.7227,4.9495 c-0.9587,1.3692-2.1337,1.5027-3.1418,0.7967C40.3404,59.834,43.06,58.8628,44.205,54.0877"/>
    <path fill="#92D3F5" stroke="none" d="M35.7196,66.7944c-0.7516,1.1632-2.1343,1.603-3.0902,0.9854c-0.9559-0.6177-1.1216-2.0613-0.37-3.2245 c0,0,0.8943-1.4257,4.0066-3.0385c0,0,0.6168-0.3534,0.5724,0.3205C36.6469,65.3374,35.7196,66.7944,35.7196,66.7944"/>
    <path fill="#61B2E4" stroke="none" d="M36.1789,61.6589c0.5441,1.6504-0.7227,4.9495-0.7227,4.9495 c-0.9587,1.3692-2.1337,1.5027-3.1418,0.7967C32.3143,67.4051,35.0338,66.434,36.1789,61.6589"/>
    <path fill="#92D3F5" stroke="none" d="M50.7719,66.7944c-0.7516,1.1632-2.1343,1.603-3.0902,0.9854c-0.9559-0.6177-1.1216-2.0613-0.37-3.2245 c0,0,0.8943-1.4257,4.0066-3.0385c0,0,0.6168-0.3534,0.5724,0.3205C51.6992,65.3374,50.7719,66.7944,50.7719,66.7944"/>
    <path fill="#61B2E4" stroke="none" d="M51.2312,61.6589c0.5441,1.6504-0.7227,4.9495-0.7227,4.9495 c-0.9587,1.3692-2.1337,1.5027-3.1418,0.7967C47.3666,67.4051,50.0862,66.434,51.2312,61.6589"/>
  </g>
  <g id="hair"/>
  <g id="skin"/>
  <g id="skin-shadow"/>
  <g id="line">
    <polyline fill="none" stroke="#000000" stroke-linecap="round" stroke-linejoin="round" stroke-miterlimit="10" stroke-width="1.9" points="14.5238,33.667 11.324,35.463 12.9899,27.4866 4.9255,26.3246 10.9614,20.8516 5.1201,15.1703 13.2238,14.2934 11.8304,6.2625 18.9028,10.3193 22.4979,3.0012 25.8335,10.4384 33.0422,6.634 31.3763,14.6103 39.4406,15.7723 36.5166,18.1549"/>
    <path fill="none" stroke="#000000" stroke-linecap="round" stroke-linejoin="round" stroke-miterlimit="10" stroke-width="1.9" d="M32.9118,19.9675c-0.5423-5.4473-5.1387-9.7012-10.7287-9.7012c-5.9549,0-10.7822,4.8274-10.7822,10.7822 c0,4.2822,2.4963,7.9814,6.1131,9.7216"/>
    <path fill="none" stroke="#000000" stroke-linecap="round" stroke-linejoin="round" stroke-miterlimit="10" stroke-width="2" d="M25.6193,30.5602c-0.031,0.3535-0.3174,0.6396-0.6721,0.6775c-4.2996,0.4606-7.6067,4.6942-7.6067,9.8474 c0,5.4608,3.7871,9.8877,8.4588,9.8877l32.248,0c5.1325,0,9.2932-4.6783,9.2932-10.4492c0-5.5305-3.8212-10.0575-8.6569-10.4251 c-0.37-0.0281-0.67-0.2871-0.7406-0.6494c-1.0803-5.5472-6.0636-9.7159-11.9553-9.7159c-3.829,0-7.2399,1.7335-9.4549,4.4912 c-0.2164,0.2695-0.5797,0.3929-0.8992,0.2589c-0.8523-0.3575-1.7525-0.5304-2.7597-0.5304 C29.0679,23.953,25.9437,26.8576,25.6193,30.5602z"/>
    <path fill="none" stroke="#000000" stroke-linecap="round" stroke-linejoin="round" stroke-miterlimit="10" stroke-width="1.8" d="M28.6934,59.2233c-0.7516,1.1632-2.1343,1.6031-3.0902,0.9854c-0.9559-0.6177-1.1216-2.0613-0.37-3.2245 c0,0,0.8761-1.5078,4.0066-3.0386c0,0,0.6168-0.3534,0.5724,0.3205C29.6208,57.7662,28.6934,59.2233,28.6934,59.2233"/>
    <path fill="none" stroke="#000000" stroke-linecap="round" stroke-linejoin="round" stroke-miterlimit="10" stroke-width="1.8" d="M58.798,59.2233c-0.7516,1.1632-2.1343,1.6031-3.0902,0.9854c-0.9559-0.6177-1.1216-2.0613-0.37-3.2245 c0,0,0.8761-1.5078,4.0066-3.0386c0,0,0.6168-0.3534,0.5724,0.3205C59.7254,57.7662,58.798,59.2233,58.798,59.2233"/>
    <path fill="none" stroke="#000000" stroke-linecap="round" stroke-linejoin="round" stroke-miterlimit="10" stroke-width="1.8" d="M43.7457,59.2233c-0.7516,1.1632-2.1343,1.6031-3.0902,0.9854c-0.9559-0.6177-1.1216-2.0613-0.37-3.2245 c0,0,0.8761-1.5078,4.0066-3.0386c0,0,0.6168-0.3534,0.5724,0.3205C44.6731,57.7662,43.7457,59.2233,43.7457,59.2233"/>
    <path fill="none" stroke="#000000" stroke-linecap="round" stroke-linejoin="round" stroke-miterlimit="10" stroke-width="1.8" d="M35.7196,66.7944c-0.7516,1.1632-2.1343,1.603-3.0902,0.9854c-0.9559-0.6177-1.1216-2.0613-0.37-3.2245 c0,0,0.8761-1.5078,4.0066-3.0385c0,0,0.6168-0.3534,0.5724,0.3205C36.6469,65.3374,35.7196,66.7944,35.7196,66.7944"/>
    <path fill="none" stroke="#000000" stroke-linecap="round" stroke-linejoin="round" stroke-miterlimit="10" stroke-width="1.8" d="M50.7719,66.7944c-0.7516,1.1632-2.1343,1.603-3.0902,0.9854c-0.9559-0.6177-1.1216-2.0613-0.37-3.2245 c0,0,0.8761-1.5078,4.0066-3.0385c0,0,0.6168-0.3534,0.5724,0.3205C51.6992,65.3374,50.7719,66.7944,50.7719,66.7944"/>
  </g>
</svg>
