<svg id="emoji" viewBox="0 0 72 72" xmlns="http://www.w3.org/2000/svg">
  <g id="color">
    <path fill="#FCEA2B" stroke="none" d="M51.0577,42.483l0.0966-0.3192c0.9466-3.1267,0.787-7.2348-0.3992-10.2787l0,0l5.8871-8.2718 L46.2024,24.375l0.8096-11.0954l-9.2068,6.2396L32.9495,9.5142l-4.8554,10.0049l-9.2064-6.2399l0.8095,11.0952L8.6018,23.5648 l6.2396,9.2068L4.8364,37.6273l10.0049,4.8554l-6.2399,9.2064l11.0952-0.8095L18.887,61.975l9.2068-6.2396L51.0577,42.483z"/>
    <path fill="#FFFFFF" stroke="none" stroke-linecap="round" stroke-linejoin="round" stroke-miterlimit="10" stroke-width="2" d="M34.791,46.6066c-0.0241,0.2749-0.2468,0.4973-0.5226,0.5268c-3.3432,0.3581-5.9145,3.65-5.9145,7.6568 c0,4.2461,2.9447,7.6882,6.5771,7.6882h25.0744c3.9908,0,7.2259-3.6376,7.2259-8.1248c0-4.3002-2.9712-7.8202-6.7312-8.106 c-0.2877-0.0219-0.521-0.2232-0.5758-0.505c-0.84-4.3132-4.7148-7.5546-9.2958-7.5546c-2.9773,0-5.6294,1.3479-7.3517,3.4921 c-0.1683,0.2095-0.4507,0.3055-0.6992,0.2013c-0.6627-0.2779-1.3626-0.4124-2.1458-0.4124 C37.4724,41.4692,35.0432,43.7277,34.791,46.6066z"/>
  </g>
  <g id="hair"/>
  <g id="skin"/>
  <g id="skin-shadow"/>
  <g id="line">
    <path fill="none" stroke="#000000" stroke-linecap="round" stroke-linejoin="round" stroke-miterlimit="10" stroke-width="2" d="M24.4645,53.5202c-6.1162-2.9451-10.3373-9.202-10.3373-16.4446c0-10.0744,8.1669-18.2414,18.2414-18.2414 c9.0895,0,16.6262,6.648,18.013,15.347"/>
    <polyline fill="none" stroke="#000000" stroke-linecap="round" stroke-linejoin="round" stroke-miterlimit="10" stroke-width="2" points="24.5472,56.9821 18.5628,61.0249 19.3576,50.132 8.4649,50.9267 14.5909,41.8884 4.7686,37.1215 14.591,32.3545 8.4653,23.3157 19.3582,24.1105 18.5635,13.2178 27.6018,19.3438 32.3686,9.5215 37.1357,19.3439 46.1745,13.2182 45.3797,24.111 56.2724,23.3164 50.1464,32.3547"/>
    <path fill="none" stroke="#000000" stroke-linecap="round" stroke-linejoin="round" stroke-miterlimit="10" stroke-width="2" d="M34.791,46.6066c-0.0241,0.2749-0.2468,0.4973-0.5226,0.5268c-3.3432,0.3581-5.9145,3.65-5.9145,7.6568 c0,4.2461,2.9447,7.6882,6.5771,7.6882h25.0744c3.9908,0,7.2259-3.6376,7.2259-8.1248c0-4.3002-2.9712-7.8202-6.7312-8.106 c-0.2877-0.0219-0.521-0.2232-0.5758-0.505c-0.84-4.3132-4.7148-7.5546-9.2958-7.5546c-2.9773,0-5.6294,1.3479-7.3517,3.4921 c-0.1683,0.2095-0.4507,0.3055-0.6992,0.2013c-0.6627-0.2779-1.3626-0.4124-2.1458-0.4124 C37.4724,41.4692,35.0432,43.7277,34.791,46.6066z"/>
  </g>
</svg>
