<svg id="emoji" viewBox="0 0 72 72" xmlns="http://www.w3.org/2000/svg">
  <g id="color">
    <path fill="#b1cc33" d="M35.4871,7.054c-3.6266,0-6.5664,3.2647-6.5664,7.292V33.5385H25.9434c-3.9616,0-3.7957-1.0309-3.7957-4.7691l-1.6106-3.2526c0-2.7922-.3806-3.6821-3.3989-3.41-2.6314.2368-5.1765,1.5557-5.1765,4.05L11.7561,37.44c0,2.6374,4.38,7.58,7.1743,7.58l7.013.0688v0h2.9773V64.1754l13.1328,0V14.346C42.0535,10.3187,39.1138,7.054,35.4871,7.054Z"/>
    <path fill="#b1cc33" d="M54.5238,25.9843a4.7767,4.7767,0,0,0-5.2448,4.7531v6.3643c0,3.7383.1565,4.7691-3.5816,4.7691H42.3061l.0793,11.5507h3.312v0h8.3573A4.7757,4.7757,0,0,0,58.83,48.6458V30.9427A4.9143,4.9143,0,0,0,54.5238,25.9843Z"/>
  </g>
  <g id="line">
    <path fill="none" stroke="#000" stroke-linecap="round" stroke-linejoin="round" stroke-width="2" d="M42.0535,63.1477V14.198c0-3.9562-2.94-7.1634-6.5664-7.1634s-6.5664,3.2072-6.5664,7.1634v48.95"/>
    <path fill="none" stroke="#000" stroke-linecap="round" stroke-linejoin="round" stroke-width="2" d="M25.0615,44.0454H18.6972a6.7684,6.7684,0,0,1-6.7685-6.7686V26.137a4.7765,4.7765,0,0,1,5.2447-4.7531A4.9143,4.9143,0,0,1,21.48,26.3423V31.11a3.3843,3.3843,0,0,0,3.3842,3.3842h.1975"/>
    <path fill="none" stroke="#000" stroke-linecap="round" stroke-linejoin="round" stroke-width="2" d="M45.8256,52.4027h8.3573a4.7757,4.7757,0,0,0,4.7756-4.7756V29.9239a4.9143,4.9143,0,0,0-4.3065-4.9584,4.7765,4.7765,0,0,0-5.2447,4.7531v6.3643c0,3.7382.1565,6.7685-3.5817,6.7685"/>
    <line x1="40.0964" x2="44.1648" y1="18.3489" y2="14.2805" fill="none" stroke="#000" stroke-linecap="round" stroke-linejoin="round" stroke-width="2"/>
    <line x1="51.1343" x2="55.2027" y1="48.083" y2="44.0146" fill="none" stroke="#000" stroke-linecap="round" stroke-linejoin="round" stroke-width="2"/>
    <line x1="20.1528" x2="24.2212" y1="30.3694" y2="26.301" fill="none" stroke="#000" stroke-linecap="round" stroke-linejoin="round" stroke-width="2"/>
    <line x1="33.146" x2="29.668" y1="11.7031" y2="7" fill="none" stroke="#000" stroke-linecap="round" stroke-linejoin="round" stroke-width="2"/>
    <line x1="31.2172" x2="26.6242" y1="55.2326" y2="51.6104" fill="none" stroke="#000" stroke-linecap="round" stroke-linejoin="round" stroke-width="2"/>
    <line x1="55.9054" x2="59.9738" y1="27.9961" y2="23.9277" fill="none" stroke="#000" stroke-linecap="round" stroke-linejoin="round" stroke-width="2"/>
    <line x1="51.032" x2="46.6265" y1="35.5724" y2="31.7245" fill="none" stroke="#000" stroke-linecap="round" stroke-linejoin="round" stroke-width="2"/>
    <line x1="36.1743" x2="33.2368" y1="25.5782" y2="21.3614" fill="none" stroke="#000" stroke-linecap="round" stroke-linejoin="round" stroke-width="2"/>
    <line x1="14.6936" x2="11.7561" y1="25.9619" y2="20.712" fill="none" stroke="#000" stroke-linecap="round" stroke-linejoin="round" stroke-width="2"/>
  </g>
</svg>
