<svg id="emoji" viewBox="0 0 72 72" xmlns="http://www.w3.org/2000/svg">
  <g id="color">
    <circle cx="36.0002" cy="39.0732" r="21" fill="#f1b31c"/>
    <circle cx="25.9999" cy="46.3461" r="0.9091"/>
    <circle cx="26.909" cy="49.9825" r="0.9091"/>
    <circle cx="29.6363" cy="47.2552" r="0.9091"/>
    <path fill="#e27022" d="M49.2942,22.8145a9.6511,9.6511,0,0,1-2.5425,1.5039,9.46,9.46,0,0,1-1.7473.503A20.9459,20.9459,0,0,1,29.5317,59.0339,20.9849,20.9849,0,0,0,49.2942,22.8145Z"/>
    <path fill="#b1cc33" d="M36,22.3263a7.2293,7.2293,0,0,1,4.2028.8654c3.5973,2.06,9.6312.0634,11.2842-5.3548A4.077,4.077,0,0,1,49.06,16.4748C46.5805,13.4882,38.8128,13.2635,36,22.3263Z"/>
  </g>
  <g id="line">
    <path fill="none" stroke="#000" stroke-linecap="round" stroke-linejoin="round" stroke-width="2" d="M36,22.3263a7.2293,7.2293,0,0,1,4.2028.8654c3.5973,2.06,9.6312.0634,11.2842-5.3548A4.077,4.077,0,0,1,49.06,16.4748C46.5805,13.4882,38.8128,13.2635,36,22.3263Z"/>
    <path fill="none" stroke="#000" stroke-linecap="round" stroke-linejoin="round" stroke-width="2" d="M49.8321,24.6279A19.9974,19.9974,0,1,1,31.887,19.4968"/>
    <path fill="none" stroke="#000" stroke-linecap="round" stroke-linejoin="round" stroke-width="2" d="M31.3745,14.6242S36.4906,15.674,36,22.3263"/>
  </g>
</svg>
