<svg id="emoji" viewBox="0 0 72 72" version="1.1" xmlns="http://www.w3.org/2000/svg">
  <g id="color">
    <path fill="#b399c8" d="m32.33 37.54a6.688 6.688 0 0 1-6.688 6.688 6.688 6.688 0 0 1-6.688-6.688 6.688 6.688 0 0 1 6.688-6.688 6.688 6.688 0 0 1 6.688 6.688"/>
    <path fill="#b399c8" d="m27.88 27.51a6.688 6.688 0 0 1-6.688 6.688 6.688 6.688 0 0 1-6.688-6.688 6.688 6.688 0 0 1 6.688-6.688 6.688 6.688 0 0 1 6.688 6.688"/>
    <path fill="#b399c8" d="m31.22 34.2a6.684 6.684 0 1 0-5.897-3.531"/>
    <path fill="#b399c8" d="m49.05 47.58a6.688 6.688 0 0 1-6.688 6.688 6.688 6.688 0 0 1-6.688-6.688 6.688 6.688 0 0 1 6.688-6.688 6.688 6.688 0 0 1 6.688 6.688"/>
    <path fill="#b399c8" d="m37.91 47.58a6.688 6.688 0 0 1-6.688 6.688 6.688 6.688 0 0 1-6.688-6.688 6.688 6.688 0 0 1 6.688-6.688 6.688 6.688 0 0 1 6.688 6.688"/>
    <path fill="#b399c8" d="m55.74 37.54a6.688 6.688 0 0 1-6.688 6.688 6.688 6.688 0 0 1-6.688-6.688 6.688 6.688 0 0 1 6.688-6.688 6.688 6.688 0 0 1 6.688 6.688"/>
    <path fill="#b399c8" d="m43.48 36.43a6.688 6.688 0 0 1-6.688 6.688 6.688 6.688 0 0 1-6.688-6.688 6.688 6.688 0 0 1 6.688-6.688 6.688 6.688 0 0 1 6.688 6.688"/>
    <path fill="#8967aa" d="m36.57 29.13a6.688 6.688 0 0 1 0 13.38"/>
    <path fill="#8967aa" d="m57.82 27.18c0 3.693-1.239 5.486-4.762 4.377-4.713-1.483-8.869 0.0912-8.613-4.377 0.2117-3.687 2.994-6.688 6.688-6.688s6.688 2.994 6.688 6.688"/>
    <path fill="#b399c8" d="m47.22 30.54a6.678 6.678 0 1 0-4.165 3.415"/>
    <path fill="#b399c8" d="m43.48 57.61a6.688 6.688 0 0 1-6.688 6.688 6.688 6.688 0 0 1-6.688-6.688 6.688 6.688 0 0 1 6.688-6.688 6.688 6.688 0 0 1 6.688 6.688"/>
    <path fill="#8967aa" d="m36.57 50.92a6.688 6.688 0 0 1 0 13.38"/>
    <path fill="#8967aa" d="m42.16 40.89a6.688 6.688 0 0 1 0 13.38"/>
    <path fill="#8967aa" d="m48.97 30.79a6.688 6.688 0 0 1 0 13.38"/>
    <path fill="#8967aa" d="m41.08 20.88a6.688 6.688 0 0 1 0 13.38"/>
  </g>
  <g id="line">
    <path fill="none" stroke="#000" stroke-linecap="round" stroke-linejoin="round" stroke-width="2" d="m37.01 21.82c-1.343-7.331-6.229-22.43-22.85-7.574"/>
    <path fill="none" stroke="#000" stroke-miterlimit="10" d="m54.34 32.9a6.679 6.672 0 1 0-8.112-10.32"/>
    <path fill="none" stroke="#000" stroke-miterlimit="10" stroke-width="2" d="m30.48 40.42a6.625 6.619 0 0 1-0.949-3.418 6.706 6.699 0 0 1 5.462-6.562"/>
    <ellipse cx="36.57" cy="57.34" rx="6.721" ry="6.715" fill="none" stroke="#000" stroke-miterlimit="10" stroke-width="2"/>
    <path fill="none" stroke="#000" stroke-miterlimit="10" stroke-width="2" d="m36.57 50.62a6.721 6.715 0 0 0 0 13.43"/>
    <path fill="none" stroke="#000" stroke-miterlimit="10" stroke-width="2" d="m42.17 53.98q0.2552 0 0.5059-0.01869"/>
    <path fill="none" stroke="#000" stroke-miterlimit="10" stroke-width="2" d="m42.67 53.96a6.718 6.711 0 1 0-6.551-3.756"/>
    <path fill="none" stroke="#000" stroke-miterlimit="10" stroke-width="2" d="m36.37 43.28a6.721 6.715 0 1 0-6.042 10.67"/>
    <path fill="none" stroke="#000" stroke-miterlimit="10" stroke-width="2" d="m43.13 33.73a6.732 6.725 0 0 0-0.2801 6.416"/>
    <path fill="none" stroke="#000" stroke-miterlimit="10" stroke-width="2" d="m47.91 43.84a6.721 6.715 0 1 0-4.783-10.11"/>
    <path fill="none" stroke="#000" stroke-miterlimit="10" stroke-width="2" d="m30.41 32.75a6.721 6.715 0 1 0-6.157 11.06"/>
    <path fill="none" stroke="#000" stroke-miterlimit="10" stroke-width="2" d="m24.25 43.81a6.775 6.768 0 0 0 1.112 0.09143"/>
    <path fill="none" stroke="#000" stroke-miterlimit="10" stroke-width="2" d="m54.5 32.93a6.721 6.715 0 1 0-8.322-10.35"/>
    <path fill="none" stroke="#000" stroke-miterlimit="10" stroke-width="2" d="m46.68 30.78a6.708 6.701 0 1 0-3.669 2.765"/>
    <path fill="none" stroke="#000" stroke-miterlimit="10" stroke-width="2" d="m35.83 22.48a6.723 6.716 0 0 0-10.9 7.582"/>
    <path fill="none" stroke="#000" stroke-miterlimit="10" stroke-width="2" d="m25.64 22.37a6.721 6.715 0 1 0-6.216 11.3"/>
    <path fill="none" stroke="#000" stroke-linecap="round" stroke-linejoin="round" stroke-width="2" d="m50.57 9.212s-3.357 7.635-15.68 5.496"/>
  </g>
</svg>
