<svg id="emoji" viewBox="0 0 72 72" xmlns="http://www.w3.org/2000/svg">
  <g id="color">
    <path fill="#b1cc33" stroke="#b1cc33" stroke-linejoin="round" stroke-miterlimit="10" stroke-width="2" d="M58.6128,14.8309 c0,0-3.7211,6.9524-9.3761,9.375c-4.4396,1.9049-10.0808,1.0073-12.2962,0.5447c-2.2244,0.4174-7.8826,1.1998-12.2826-0.7952 c-5.6044-2.5373-9.183-9.5641-9.183-9.5641s7.6302-1.9423,13.2346,0.5949c1.2046,0.5423,2.307,1.2836,3.3085,2.1239 c3.786,3.1849,4.8131,3.5598,9.9995,0.1019c1.0184-0.8197,2.1358-1.5384,3.3511-2.056 C51.0237,12.7335,58.6128,14.8309,58.6128,14.8309z"/>
    <path fill="#FFA7C0" stroke="#FFA7C0" stroke-linecap="round" stroke-linejoin="round" stroke-miterlimit="10" stroke-width="2" d="M60.72,39.78C60.41,52.47,49.28,62.43,36.71,63.98c-0.05,0.01-0.1,0.01-0.15,0.02h-0.11c-0.21,0-0.41-0.01-0.63-0.02 c-11.34-2.56-22.28-12.53-23.42-24.2c0-1.76,0.19-3.49,0.55-5.15c0.64-2.99,1.85-5.78,3.49-8.25c2.64-2.89,6.55-4.71,10.92-4.71 c2.27,0,4.4,0.48,6.31,1.35c1.29,0.59,2.73,0.7401,4.09,0.44c0.45-0.09,0.9-0.24,1.33-0.44c1.9-0.87,4.04-1.35,6.3-1.35 c4.88,0,9.2,2.27,11.8,5.76c0.29,0.37,0.54,0.75,0.78,1.14c0.4901,0.93,0.91,1.89,1.28,2.88c0.01,0.02,0.02,0.03,0.02,0.05 c0.12,0.32,0.23,0.65,0.33,0.98c0.09,0.29,0.1801,0.58,0.26,0.87c0.07,0.26,0.14,0.51,0.2,0.77c0.37,1.56,0.59,3.18,0.65,4.83 C60.72,39.23,60.72,39.5,60.72,39.78z"/>
    <path fill="#E67A94" stroke="#E67A94" stroke-linejoin="round" stroke-miterlimit="10" stroke-width="2" d="M37.76,23.46 c1.05-0.2,2.05-0.36,2.99-0.46c-1.72,0.3-3.29,0.57-3.63,0.6C37.34,23.55,37.55,23.5,37.76,23.46z"/>
    <path fill="#E67A94" stroke="#E67A94" stroke-linejoin="round" stroke-miterlimit="10" stroke-width="2" d="M60.72,39.78 C60.41,52.47,49.28,62.43,36.71,63.98C56.9236,59.261,68.1247,20.0555,40.75,23c2.16-0.37,4.57-0.77,5.09-0.77 c4.61,0,8.72,2.03,11.35,5.2c0.29,0.37,0.54,0.75,0.78,1.14c0.4901,0.93,0.91,1.89,1.28,2.88c0.01,0.02,0.02,0.03,0.02,0.05 c0.12,0.32,0.23,0.65,0.33,0.98c0.09,0.29,0.1801,0.58,0.26,0.87c0.07,0.26,0.14,0.51,0.2,0.77c0.39,1.56,0.62,3.17,0.65,4.83 C60.72,39.23,60.72,39.5,60.72,39.78z"/>
    <path fill="none" stroke="#E67A94" stroke-linecap="round" stroke-linejoin="round" stroke-miterlimit="10" stroke-width="2" d="M37.7192,36.595c-0.7182-3.444-3.4067-5.5325-3.4067-5.5325"/>
  </g>
  <g id="hair"/>
  <g id="skin"/>
  <g id="skin-shadow"/>
  <g id="line">
    <path fill="none" stroke="#000000" stroke-linecap="round" stroke-linejoin="round" stroke-miterlimit="10" stroke-width="2" d="M41.9611,17.325c1.0056-0.8284,2.1179-1.5632,3.3207-2.0925c5.6325-2.4789,13.2481-0.4519,13.2481-0.4519"/>
    <path fill="none" stroke="#000000" stroke-linecap="round" stroke-linejoin="round" stroke-miterlimit="10" stroke-width="2" d="M58.5299,14.7806c0,0-1.0994,2.1043-3.0227,4.4128"/>
    <path fill="none" stroke="#000000" stroke-linecap="round" stroke-linejoin="round" stroke-miterlimit="10" stroke-width="2" d="M31.6404,16.8304c-1.0056-0.8284-2.1179-1.5632-3.3207-2.0925c-5.6325-2.4789-13.2481-0.4519-13.2481-0.4519"/>
    <path fill="none" stroke="#000000" stroke-linecap="round" stroke-linejoin="round" stroke-miterlimit="10" stroke-width="2" d="M15.0716,14.286c0,0,1.0245,1.961,2.8257,4.1736"/>
    <path fill="none" stroke="#000000" stroke-linecap="round" stroke-linejoin="round" stroke-miterlimit="10" stroke-width="2" d="M36.4451,15.3662c-0.3203-2.3302-1.1526-5.6407-3.3079-7.9037"/>
    <path fill="none" stroke="#000000" stroke-linecap="round" stroke-linejoin="round" stroke-miterlimit="10" stroke-width="2" d="M60.72,39.78C60.41,52.47,49.28,62.43,36.71,63.98c-0.05,0.01-0.1,0.01-0.15,0.02h-0.11c-0.21,0-0.42,0.03-0.63-0.02 c-11.34-2.56-22.28-12.53-23.42-24.2c-0.17-1.75,0.19-3.49,0.55-5.15c0.64-2.99,1.85-5.78,3.49-8.25 c2.64-2.89,6.55-4.71,10.92-4.71c2.27,0,4.4,0.48,6.31,1.35c1.29,0.59,2.73,0.7401,4.09,0.44c0.45-0.09,0.9-0.24,1.33-0.44 c1.9-0.87,4.04-1.35,6.3-1.35c4.88,0,9.2,2.27,11.8,5.76c0.29,0.37,0.54,0.75,0.78,1.14c0.4901,0.93,0.91,1.89,1.28,2.88 c0.01,0.02,0.02,0.03,0.02,0.05c0.12,0.32,0.23,0.65,0.33,0.98c0.09,0.29,0.1801,0.58,0.26,0.87c0.07,0.26,0.14,0.51,0.2,0.77 c0.39,1.56,0.62,3.17,0.65,4.83C60.72,39.23,60.72,39.5,60.72,39.78z"/>
    <path fill="none" stroke="#000000" stroke-linecap="round" stroke-linejoin="round" stroke-miterlimit="10" stroke-width="2" d="M40.9874,52.864c2.0414-7.1668,3.244-17.6158-3.7374-24.614"/>
  </g>
</svg>
