<svg id="emoji" viewBox="0 0 72 72" xmlns="http://www.w3.org/2000/svg">
  <g id="color">
    <path fill="#FFFFFF" stroke="none" d="M8.1221,36v-3.5859c-0.1543-0.4287,0.8281-0.9073,0.999-1.3672c0.126-0.336,0.3379-0.6114,0.5957-0.8272 c-0.4834-0.5361-0.666-1.3095-0.3965-2.0332c0.3067-0.8232,1.0986-1.3154,1.9307-1.292c-0.1895-0.4521-0.2188-0.9736-0.0342-1.4697 c0.1865-0.5,0.5537-0.8769,0.998-1.0937c-0.2265-0.4727-0.2714-1.0332-0.0742-1.5635c0.3291-0.8809,1.2119-1.3867,2.1065-1.2822 c-0.1446-0.419-0.1651-0.8838,0.0029-1.3331c0.3857-1.0351,1.5381-1.5615,2.5723-1.1757c0.0947,0.0351,0.1787,0.083,0.2646,0.1308 c-0.0654-0.3467-0.0469-0.7129,0.085-1.0674c0.2099-0.5625,0.6494-0.9677,1.1699-1.165c-0.2647-0.4902-0.332-1.083-0.1221-1.6465 c0.3858-1.0342,1.5371-1.5605,2.5723-1.1758c0.3545,0.1328,0.6435,0.3594,0.8623,0.6348c0.0205-0.0947,0.04-0.1904,0.0752-0.2852 c0.3047-0.8173,1.0889-1.3085,1.915-1.2929c-0.0908-0.375-0.0752-0.7793,0.0694-1.168c0.3857-1.0351,1.5381-1.5615,2.5722-1.1758 c0.3555,0.1319,0.6436,0.3584,0.8633,0.6348c0.0195-0.0957,0.0391-0.1914,0.0742-0.2852c0.334-0.8974,1.2461-1.4101,2.1563-1.2798 C29.7432,9.3315,30.3311,9,31,9c0.873,0,1.6074,0.563,1.8799,1.3428C33.2002,10.1265,33.585,10,34,10 c0.0898,0,0.1768,0.0151,0.2627,0.0264C34.6055,9.417,35.251,9,36,9s1.3945,0.417,1.7373,1.0264C37.8232,10.0151,37.9102,10,38,10 c0.415,0,0.7998,0.1265,1.1201,0.3428C39.3926,9.563,40.127,9,41,9c0.6689,0,1.2568,0.3315,1.6201,0.8354 c0.9102-0.1303,1.8223,0.3824,2.1563,1.2798c0.0351,0.0938,0.0547,0.1895,0.0742,0.2852c0.2197-0.2764,0.5078-0.5029,0.8633-0.6348 c1.0341-0.3857,2.1865,0.1407,2.5722,1.1758c0.1446,0.3887,0.1602,0.793,0.0694,1.168c0.8261-0.0156,1.6103,0.4756,1.915,1.2929 c0.0352,0.0948,0.0547,0.1905,0.0752,0.2852c0.2188-0.2754,0.5078-0.502,0.8623-0.6348c1.0352-0.3847,2.1865,0.1416,2.5723,1.1758 c0.2099,0.5635,0.1426,1.1563-0.1221,1.6465c0.5205,0.1973,0.96,0.6025,1.1699,1.165c0.1319,0.3545,0.1504,0.7207,0.085,1.0674 c0.0859-0.0478,0.1699-0.0957,0.2646-0.1308c1.0342-0.3858,2.1866,0.1406,2.5723,1.1757c0.168,0.4493,0.1475,0.9141,0.0029,1.3331 c0.8946-0.1045,1.7774,0.4013,2.1065,1.2822c0.1972,0.5303,0.1523,1.0908-0.0742,1.5635c0.4443,0.2168,0.8115,0.5937,0.998,1.0937 c0.1846,0.4961,0.1553,1.0176-0.0342,1.4697c0.8321-0.0234,1.624,0.4688,1.9307,1.292c0.2695,0.7237,0.0869,1.4971-0.3965,2.0332 c0.2578,0.2158,0.4697,0.4912,0.5957,0.8272c0.1709,0.4599,1.1533,0.9385,0.999,1.3672V36"/>
    <path fill="#FFFFFF" stroke="none" d="M65,36c0,16.0156-12.9834,29-29,29S7,52.0156,7,36H65z"/>
    <path fill="#d0cfce" stroke="none" d="M49,36c0,16.0156-4,29-13,29c16.0166,0,29-12.9844,29-29H49z"/>
  </g>
  <g id="hair"/>
  <g id="skin"/>
  <g id="skin-shadow"/>
  <g id="line">
    <path fill="none" stroke="#000000" stroke-linecap="round" stroke-linejoin="round" stroke-miterlimit="10" stroke-width="2" d="M62.8779,32.4141c0.1543-0.4287,0.1719-0.9073,0.001-1.3672c-0.126-0.336-0.3379-0.6114-0.5957-0.8272 c0.4834-0.5361,0.666-1.3095,0.3965-2.0332c-0.3067-0.8232-1.0986-1.3154-1.9307-1.292c0.1895-0.4521,0.2188-0.9736,0.0342-1.4697 c-0.1865-0.5-0.5537-0.8769-0.998-1.0937c0.2265-0.4727,0.2714-1.0332,0.0742-1.5635c-0.3291-0.8809-1.2119-1.3867-2.1065-1.2822 c0.1446-0.419,0.1651-0.8838-0.0029-1.3331c-0.3857-1.0351-1.5381-1.5615-2.5723-1.1757c-0.0947,0.0351-0.1787,0.083-0.2646,0.1308 c0.0654-0.3467,0.0469-0.7129-0.085-1.0674c-0.2099-0.5625-0.6494-0.9677-1.1699-1.165c0.2647-0.4902,0.332-1.083,0.1221-1.6465 c-0.3858-1.0342-1.5371-1.5605-2.5723-1.1758c-0.3545,0.1328-0.6435,0.3594-0.8623,0.6348 c-0.0205-0.0947-0.04-0.1904-0.0752-0.2852c-0.3047-0.8173-1.0889-1.3085-1.915-1.2929c0.0908-0.375,0.0752-0.7793-0.0694-1.168 c-0.3857-1.0351-1.5381-1.5615-2.5722-1.1758c-0.3555,0.1319-0.6436,0.3584-0.8633,0.6348 c-0.0195-0.0957-0.0391-0.1914-0.0742-0.2852c-0.334-0.8974-1.2461-1.4101-2.1563-1.2798C42.2568,9.3315,41.6689,9,41,9 c-0.873,0-1.6074,0.563-1.8799,1.3428C38.7998,10.1265,38.415,10,38,10c-0.0898,0-0.1768,0.0151-0.2627,0.0264 C37.3945,9.417,36.749,9,36,9s-1.3945,0.417-1.7373,1.0264C34.1768,10.0151,34.0898,10,34,10c-0.415,0-0.7998,0.1265-1.1201,0.3428 C32.6074,9.563,31.873,9,31,9c-0.6689,0-1.2568,0.3315-1.6201,0.8354c-0.9102-0.1303-1.8223,0.3824-2.1563,1.2798 c-0.0351,0.0938-0.0547,0.1895-0.0742,0.2852c-0.2197-0.2764-0.5078-0.5029-0.8633-0.6348 c-1.0341-0.3857-2.1865,0.1407-2.5722,1.1758c-0.1446,0.3887-0.1602,0.793-0.0694,1.168c-0.8261-0.0156-1.6103,0.4756-1.915,1.2929 c-0.0352,0.0948-0.0547,0.1905-0.0752,0.2852c-0.2188-0.2754-0.5078-0.502-0.8623-0.6348 c-1.0352-0.3847-2.1865,0.1416-2.5723,1.1758c-0.2099,0.5635-0.1426,1.1563,0.1221,1.6465c-0.5205,0.1973-0.96,0.6025-1.1699,1.165 c-0.1319,0.3545-0.1504,0.7207-0.085,1.0674c-0.0859-0.0478-0.1699-0.0957-0.2646-0.1308 c-1.0342-0.3858-2.1866,0.1406-2.5723,1.1757c-0.168,0.4493-0.1475,0.9141-0.0029,1.3331 c-0.8946-0.1045-1.7774,0.4013-2.1065,1.2822c-0.1972,0.5303-0.1523,1.0908,0.0742,1.5635 c-0.4443,0.2168-0.8115,0.5937-0.998,1.0937c-0.1846,0.4961-0.1553,1.0176,0.0342,1.4697c-0.8321-0.0234-1.624,0.4688-1.9307,1.292 c-0.2695,0.7237-0.0869,1.4971,0.3965,2.0332c-0.2578,0.2158-0.4697,0.4912-0.5957,0.8272 c-0.1709,0.4599-0.1533,0.9385,0.001,1.3672"/>
    <path fill="none" stroke="#000000" stroke-linecap="round" stroke-linejoin="round" stroke-miterlimit="10" stroke-width="2" d="M65,36c0,16.0156-12.9834,29-29,29S7,52.0156,7,36H65z"/>
  </g>
</svg>
