<svg id="emoji" viewBox="0 0 72 72" xmlns="http://www.w3.org/2000/svg">
  <g id="color">
    <path fill="#FFFFFF" stroke="none" d="M33.4932,61c1.0449,0,1.9629-0.5352,2.5-1.3457C36.5303,60.4648,37.4482,61,38.4922,61	c1.6572,0,3.001-1.3437,3.001-2.999c0-1.6572-1.3438-3.001-3-3.001v-6h-5v6c-1.6573,0-3.001,1.3438-3,3	C30.4932,59.6582,31.8359,61,33.4932,61z"/>
    <path fill="#f4aa41" stroke="none" d="M40.877,12.7861c-0.7774-1.9394-2.667-3.3144-4.8838-3.3144s-4.1065,1.375-4.8838,3.3144 C24.6924,21.0107,24.3203,32.4092,29.9932,41c0,2.291,0,4.3369,0,5c0,1.6563,1.3437,3,3,3c1.6562,0,4.3437,0,6,0 c1.6562,0,3-1.3437,3-3c0-0.6631,0-2.709,0-5.001C47.666,32.4092,47.2949,21.0107,40.877,12.7861z"/>
  </g>
  <g id="hair"/>
  <g id="skin"/>
  <g id="skin-shadow"/>
  <g id="line">
    <path fill="none" stroke="#000000" stroke-linecap="round" stroke-linejoin="round" stroke-miterlimit="10" stroke-width="2" d="M33.4932,61c1.0449,0,1.9629-0.5352,2.5-1.3457C36.5303,60.4648,37.4482,61,38.4922,61c1.6572,0,3.001-1.3437,3.001-2.999 c0-1.6572-1.3438-3.001-3-3.001v-6h-5v6c-1.6573,0-3.001,1.3438-3,3C30.4932,59.6582,31.8359,61,33.4932,61z"/>
    <path fill="none" stroke="#000000" stroke-linecap="round" stroke-linejoin="round" stroke-miterlimit="10" stroke-width="2" d="M40.877,12.7861c-0.7774-1.9394-2.667-3.3144-4.8838-3.3144s-4.1065,1.375-4.8838,3.3144 C24.6924,21.0107,24.3203,32.4092,29.9932,41c0,2.291,0,4.3369,0,5c0,1.6563,1.3437,3,3,3c1.6562,0,4.3437,0,6,0 c1.6562,0,3-1.3437,3-3c0-0.6631,0-2.709,0-5.001C47.666,32.4092,47.2949,21.0107,40.877,12.7861z"/>
  </g>
</svg>
