<svg id="emoji" viewBox="0 0 72 72" xmlns="http://www.w3.org/2000/svg">
  <g id="color">
    <polyline fill="#f4aa41" stroke="none" points="55,17 55,11 17,11 17,17"/>
    <path fill="#f4aa41" stroke="none" d="M45,60c8.2842,0,15-6.7158,15-15V22c0-2.7612-2.2383-5-5-5H17c-2.7617,0-5,2.2388-5,5v23 c0,8.2842,6.7158,15,15,15H45z"/>
    <path fill="#fcea2b" stroke="none" d="M35,17v14c0,2.7617,2.2393,5,5,5c2.7617,0,5-2.2383,5-5v11c0,1.6563,1.3428,3,3,3c1.6572,0,3-1.3437,3-3V23 c0,1.6567,1.3428,3,3,3c1.6563,0,3-1.3433,3-3v-5.5781C56.3867,17.1538,55.7119,17,55,17H35h-2v-6h22v6"/>
  </g>
  <g id="hair"/>
  <g id="skin"/>
  <g id="skin-shadow"/>
  <g id="line">
    <polyline fill="none" stroke="#000000" stroke-linecap="round" stroke-linejoin="round" stroke-miterlimit="10" stroke-width="2" points="55,17 55,11 17,11 17,17"/>
    <path fill="none" stroke="#000000" stroke-linecap="round" stroke-linejoin="round" stroke-miterlimit="10" stroke-width="2" d="M51,42c0,1.6563-1.3428,3-3,3c-1.6572,0-3-1.3437-3-3"/>
    <path fill="none" stroke="#000000" stroke-linecap="round" stroke-linejoin="round" stroke-miterlimit="10" stroke-width="2" d="M51,23c0,1.6567,1.3428,3,3,3c1.6563,0,3-1.3433,3-3v-5"/>
    <path fill="none" stroke="#000000" stroke-linecap="round" stroke-linejoin="round" stroke-miterlimit="10" stroke-width="2" d="M45,31c0,2.7617-2.2383,5-5,5c-2.7607,0-5-2.2383-5-5"/>
    <line x1="45" x2="45" y1="42" y2="31" fill="none" stroke="#000000" stroke-linecap="round" stroke-linejoin="round" stroke-miterlimit="10" stroke-width="2"/>
    <line x1="51" x2="51" y1="42" y2="23" fill="none" stroke="#000000" stroke-linecap="round" stroke-linejoin="round" stroke-miterlimit="10" stroke-width="2"/>
    <line x1="35" x2="35" y1="31" y2="17" fill="none" stroke="#000000" stroke-linecap="round" stroke-linejoin="round" stroke-miterlimit="10" stroke-width="2"/>
    <line x1="33" x2="33" y1="17" y2="11" fill="none" stroke="#000000" stroke-linecap="round" stroke-linejoin="round" stroke-miterlimit="10" stroke-width="2"/>
    <path fill="none" stroke="#000000" stroke-linecap="round" stroke-linejoin="round" stroke-miterlimit="10" stroke-width="2" d="M45,60c8.2842,0,15-6.7158,15-15V22c0-2.7612-2.2383-5-5-5H17c-2.7617,0-5,2.2388-5,5v23c0,8.2842,6.7158,15,15,15H45z"/>
  </g>
</svg>
