<svg id="emoji" viewBox="0 0 72 72" xmlns="http://www.w3.org/2000/svg">
  <g id="color">
    <path fill="#ea5a47" stroke="none" d="M29.9063,42.9375c-1.6563-0.5312-2.9688-1.375-4.1875-2.375c-2.9317-2.4053-5.7198-6.0488-5.7198-9.3125 v-19c0-2.7617-2.2383-5-5-5c-2.7617,0-5,2.2383-5,5l1,28c0,4.375,1.0733,10.293,3.751,14.6875 c0.6582,1.0801,3.2188,3.8125,4.1875,4.5938"/>
    <path fill="#f4aa41" stroke="none" d="M63.6572,35.2861C63.873,34.9668,64,34.582,64,34.166c0-0.414-0.127-0.7988-0.3428-1.1191 C64.4375,32.7734,65,32.0391,65,31.166c0-0.873-0.5625-1.6074-1.3428-1.8799C63.873,28.9668,64,28.582,64,28.166 c0-0.8725-0.5625-1.6069-1.3428-1.8799C62.873,25.9663,63,25.5815,63,25.1665c0-0.873-0.5625-1.6074-1.3428-1.8804 C61.873,22.9663,62,22.5815,62,22.1665c0-1.1045-0.8955-2-2-2c-0.1006,0-0.1973,0.0151-0.2939,0.0298 C59.8887,19.8945,60,19.5444,60,19.1665c0-1.1045-0.8955-2-2-2c-0.1006,0-0.1973,0.0151-0.2939,0.0298 C57.8887,16.8945,58,16.5444,58,16.1665c0-1.1045-0.8955-2-2-2c-0.3779,0-0.7275,0.1113-1.0303,0.2935 C54.9854,14.3633,55,14.2671,55,14.1665c0-1.1045-0.8955-2-2-2c-0.415,0-0.7998,0.1265-1.1201,0.3428 C51.6074,11.7295,50.873,11.1665,50,11.1665c-0.3779,0-0.7275,0.1113-1.0303,0.2935C48.9854,11.3633,49,11.2671,49,11.1665 c0-1.1045-0.8955-2-2-2c-0.415,0-0.7998,0.1265-1.1201,0.3428C45.6074,8.7295,44.873,8.1665,44,8.1665 c-0.415,0-0.7998,0.1265-1.1201,0.3428C42.6074,7.7295,41.873,7.1665,41,7.1665c-0.415,0-0.7998,0.1265-1.1201,0.3428 C39.6074,6.7295,38.873,6.1665,38,6.1665s-1.6074,0.563-1.8799,1.3428C35.7998,7.293,35.415,7.1665,35,7.1665 c-0.6885,0-1.2959,0.3481-1.6553,0.8779c-0.2197,0.0035-0.4277,0.0474-0.625,0.1162C32.3721,7.5684,31.7354,7.1665,31,7.1665 c-1.1045,0-2,0.8955-2,2c-1.1045,0-2,0.8955-2,2c-1.1045,0-2,0.8955-2,2c0,0.415,0.126,0.7998,0.3428,1.1196 C24.5635,14.5591,24,15.2935,24,16.1665c0,0.6006,0.2705,1.1333,0.6904,1.5C24.2705,18.0332,24,18.5659,24,19.1665 c0,0.8853,0.5791,1.6279,1.376,1.8911c0.001,0.0723,0.0136,0.1411,0.0215,0.2114C24.5898,21.5259,24,22.2734,24,23.1665 c0,1.1045,0.8955,2,2,2c0.1006,0,0.1963-0.0151,0.2939-0.0298C26.1113,25.4385,26,25.7886,26,26.1665 c0,1.1045,0.8955,1.9995,2,1.9995c0.3779,0,0.7275-0.1108,1.0303-0.293C29.0146,27.9697,29,28.0659,29,28.166 c0,1.1055,0.8955,2,2,2c0.415,0,0.7998-0.126,1.1201-0.3418C32.3926,30.6035,33.127,31.166,34,31.166 c0.6006,0,1.1338-0.2695,1.5-0.6894c0.3662,0.4199,0.8994,0.6894,1.5,0.6894c0.3779,0,0.7275-0.1113,1.0303-0.293 C38.0146,30.9697,38,31.0664,38,31.166c0,1.1055,0.8955,2,2,2c0.2314,0,0.4482-0.0488,0.6533-0.1211 c0.0899,0.1514,0.1914,0.2949,0.3155,0.418C40.3896,33.8105,40,34.4414,40,35.166c0,1.1055,0.8955,2,2,2c-1.1045,0-2,0.8965-2,2 c0,0.3789,0.1113,0.7285,0.2939,1.0303C40.1963,40.1816,40.1006,40.166,40,40.166c-1.1045,0-2,0.8965-2,2 c0,0.1016,0.0146,0.1973,0.0303,0.294c-0.3028-0.1827-0.6524-0.294-1.0303-0.294c-1.1045,0-2,0.8965-2,2 c-0.415,0-0.7998,0.127-1.1201,0.3438C33.6074,43.7295,32.873,43.166,32,43.166c-0.6006,0-1.1338,0.2715-1.5,0.6904 c-0.3662-0.4189-0.8994-0.6904-1.5-0.6904c-1.1045,0-2,0.8965-2,2c-1.1045,0-2,0.8965-2,2c0,0.3789,0.1113,0.7285,0.2939,1.0303 C25.1963,48.1816,25.1006,48.166,25,48.166c-1.1045,0-2,0.8965-2,2c-1.1045,0-2,0.8965-2,2c0,0.3789,0.1113,0.7285,0.2939,1.0303 C21.1963,53.1816,21.1006,53.166,21,53.166c-1.1045,0-2,0.8965-2,2c0,0.8858,0.5791,1.6289,1.376,1.8916 c0.001,0.0723,0.0136,0.1416,0.0215,0.2119C19.5898,57.5254,19,58.2734,19,59.166c0,1.1055,0.8955,2,2,2 c0.415,0,0.7998-0.126,1.1201-0.3418C22.3926,61.6035,23.127,62.166,24,62.166c0.3779,0,0.7275-0.1113,1.0303-0.293 C25.0146,61.9697,25,62.0664,25,62.166c0,1.1055,0.8955,2,2,2c0.6006,0,1.1338-0.2695,1.5-0.6894 c0.3662,0.4199,0.8994,0.6894,1.5,0.6894c0.415,0,0.7998-0.126,1.1201-0.3418C31.3926,64.6035,32.127,65.166,33,65.166 c0.8232,0,1.5283-0.498,1.835-1.207c0.1181,0.0332,0.2402,0.0537,0.3652,0.0644C35.5225,64.6973,36.2041,65.166,37,65.166 c0.6006,0,1.1338-0.2695,1.5-0.6894c0.3662,0.4199,0.8994,0.6894,1.5,0.6894c0.873,0,1.6074-0.5625,1.8799-1.3418 C42.2002,64.04,42.585,64.166,43,64.166c0.873,0,1.6074-0.5625,1.8799-1.3418C45.2002,63.04,45.585,63.166,46,63.166 c0.873,0,1.6074-0.5625,1.8799-1.3418C48.2002,62.04,48.585,62.166,49,62.166c1.1045,0,2-0.8945,2-2 c0-0.0996-0.0146-0.1963-0.0303-0.293c0.3028,0.1817,0.6524,0.293,1.0303,0.293c1.1045,0,2-0.8945,2-2c1.1045,0,2-0.8945,2-2 c1.1045,0,2-0.8945,2-2c1.1045,0,2-0.8945,2-2c0-0.3769-0.1113-0.7275-0.2939-1.0293C59.8027,51.1514,59.8994,51.166,60,51.166 c1.1045,0,2-0.8945,2-2c0-0.3769-0.1113-0.7275-0.2939-1.0293C61.8027,48.1514,61.8994,48.166,62,48.166c1.1045,0,2-0.8945,2-2 c0-0.5996-0.2705-1.1328-0.6895-1.5C63.7295,44.2998,64,43.7676,64,43.166c0-0.414-0.127-0.7988-0.3428-1.1191 C64.4375,41.7734,65,41.0391,65,40.166c0-0.5996-0.2705-1.1328-0.6895-1.5C64.7295,38.2998,65,37.7676,65,37.166 C65,36.293,64.4375,35.5586,63.6572,35.2861z"/>
  </g>
  <g id="hair"/>
  <g id="skin"/>
  <g id="skin-shadow"/>
  <g id="line">
    <path fill="none" stroke="#000000" stroke-linecap="round" stroke-linejoin="round" stroke-miterlimit="10" stroke-width="2" d="M25.0322,41.2734C21.9697,38.8955,19.999,35.1777,19.999,31V12c0-2.7617-2.2383-5-5-5c-2.7617,0-5,2.2383-5,5l1,28 c0,5.4502,1.7442,10.4922,4.7051,14.6006"/>
    <path fill="none" stroke="#000000" stroke-linecap="round" stroke-linejoin="round" stroke-miterlimit="10" stroke-width="2" d="M63.6572,35.1191C63.873,34.7998,64,34.415,64,34s-0.127-0.7998-0.3428-1.1191C64.4375,32.6074,65,31.873,65,31 s-0.5625-1.6074-1.3428-1.8809C63.873,28.7998,64,28.415,64,28c0-0.873-0.5625-1.6074-1.3428-1.8804 C62.873,25.7998,63,25.415,63,25c0-0.873-0.5625-1.6074-1.3428-1.8804C61.873,22.7998,62,22.415,62,22c0-1.1045-0.8955-2-2-2 c-0.1006,0-0.1973,0.0151-0.2939,0.0298C59.8887,19.728,60,19.3779,60,19c0-1.1045-0.8955-2-2-2 c-0.1006,0-0.1973,0.0151-0.2939,0.0298C57.8887,16.728,58,16.3779,58,16c0-1.1045-0.8955-2-2-2 c-0.3779,0-0.7275,0.1113-1.0303,0.2935C54.9854,14.1968,55,14.1006,55,14c0-1.1045-0.8955-2-2-2 c-0.415,0-0.7998,0.1265-1.1201,0.3428C51.6074,11.563,50.873,11,50,11c-0.3779,0-0.7275,0.1113-1.0303,0.2935 C48.9854,11.1968,49,11.1006,49,11c0-1.1045-0.8955-2-2-2c-0.415,0-0.7998,0.1265-1.1201,0.3428C45.6074,8.563,44.873,8,44,8 c-0.415,0-0.7998,0.1265-1.1201,0.3428C42.6074,7.563,41.873,7,41,7c-0.415,0-0.7998,0.1265-1.1201,0.3428 C39.6074,6.563,38.873,6,38,6s-1.6074,0.563-1.8799,1.3428C35.7998,7.1265,35.415,7,35,7c-0.6885,0-1.2959,0.3481-1.6553,0.8779 c-0.2197,0.0034-0.4277,0.0474-0.625,0.1162C32.3721,7.4019,31.7354,7,31,7c-1.1045,0-2,0.8955-2,2c-1.1045,0-2,0.8955-2,2 c-1.1045,0-2,0.8955-2,2c0,0.415,0.126,0.7998,0.3428,1.1196C24.5635,14.3926,24,15.127,24,16c0,0.6006,0.2705,1.1333,0.6904,1.5 C24.2705,17.8667,24,18.3994,24,19c0,0.8853,0.5791,1.6279,1.376,1.8911c0.001,0.0723,0.0136,0.1411,0.0215,0.2114 C24.5898,21.3594,24,22.1069,24,23c0,1.1045,0.8955,2,2,2c0.1006,0,0.1963-0.0151,0.2939-0.0298C26.1113,25.272,26,25.6221,26,26 c0,1.1045,0.8955,2,2,2c0.3779,0,0.7275-0.1113,1.0303-0.2935C29.0146,27.8032,29,27.8994,29,28c0,1.1045,0.8955,2,2,2 c0.415,0,0.7998-0.127,1.1201-0.3428C32.3926,30.4375,33.127,31,34,31c0.6006,0,1.1338-0.2705,1.5-0.6895 C35.8662,30.7295,36.3994,31,37,31c0.3779,0,0.7275-0.1113,1.0303-0.293C38.0146,30.8027,38,30.8994,38,31c0,1.1045,0.8955,2,2,2 c0.2314,0,0.4482-0.0488,0.6533-0.1221c0.0899,0.1514,0.1914,0.295,0.3155,0.418C40.3896,33.6445,40,34.2744,40,35 c0,1.1045,0.8955,2,2,2c-1.1045,0-2,0.8955-2,2c0,0.3779,0.1113,0.7285,0.2939,1.0293C40.1963,40.0156,40.1006,40,40,40 c-1.1045,0-2,0.8955-2,2c0,0.1006,0.0146,0.1973,0.0303,0.293C37.7275,42.1113,37.3779,42,37,42c-1.1045,0-2,0.8955-2,2 c-0.415,0-0.7998,0.127-1.1201,0.3428C33.6074,43.5625,32.873,43,32,43c-0.6006,0-1.1338,0.2705-1.5,0.6895 C30.1338,43.2705,29.6006,43,29,43c-1.1045,0-2,0.8955-2,2c-1.1045,0-2,0.8955-2,2c0,0.3779,0.1113,0.7285,0.2939,1.0293 C25.1963,48.0156,25.1006,48,25,48c-1.1045,0-2,0.8955-2,2c-1.1045,0-2,0.8955-2,2c0,0.3779,0.1113,0.7285,0.2939,1.0293 C21.1963,53.0156,21.1006,53,21,53c-1.1045,0-2,0.8955-2,2c0,0.8848,0.5791,1.6279,1.376,1.8906 c0.001,0.0723,0.0136,0.1416,0.0215,0.2119C19.5898,57.3594,19,58.1074,19,59c0,1.1045,0.8955,2,2,2 c0.415,0,0.7998-0.127,1.1201-0.3428C22.3926,61.4375,23.127,62,24,62c0.3779,0,0.7275-0.1113,1.0303-0.293 C25.0146,61.8027,25,61.8994,25,62c0,1.1045,0.8955,2,2,2c0.6006,0,1.1338-0.2705,1.5-0.6895C28.8662,63.7295,29.3994,64,30,64 c0.415,0,0.7998-0.127,1.1201-0.3428C31.3926,64.4375,32.127,65,33,65c0.8232,0,1.5283-0.498,1.835-1.208 c0.1181,0.0332,0.2402,0.0537,0.3652,0.0654C35.5225,64.5313,36.2041,65,37,65c0.6006,0,1.1338-0.2705,1.5-0.6895 C38.8662,64.7295,39.3994,65,40,65c0.873,0,1.6074-0.5625,1.8799-1.3428C42.2002,63.873,42.585,64,43,64 c0.873,0,1.6074-0.5625,1.8799-1.3428C45.2002,62.873,45.585,63,46,63c0.873,0,1.6074-0.5625,1.8799-1.3428 C48.2002,61.873,48.585,62,49,62c1.1045,0,2-0.8955,2-2c0-0.1006-0.0146-0.1973-0.0303-0.293C51.2725,59.8887,51.6221,60,52,60 c1.1045,0,2-0.8955,2-2c1.1045,0,2-0.8955,2-2c1.1045,0,2-0.8955,2-2c1.1045,0,2-0.8955,2-2c0-0.3779-0.1113-0.7285-0.2939-1.0293 C59.8027,50.9844,59.8994,51,60,51c1.1045,0,2-0.8955,2-2c0-0.3779-0.1113-0.7285-0.2939-1.0293C61.8027,47.9844,61.8994,48,62,48 c1.1045,0,2-0.8955,2-2c0-0.6006-0.2705-1.1328-0.6895-1.5C63.7295,44.1328,64,43.6006,64,43c0-0.415-0.127-0.7998-0.3428-1.1191 C64.4375,41.6074,65,40.873,65,40c0-0.6006-0.2705-1.1328-0.6895-1.5C64.7295,38.1328,65,37.6006,65,37 C65,36.127,64.4375,35.3926,63.6572,35.1191z"/>
  </g>
</svg>
