<svg id="emoji" viewBox="0 0 72 72" xmlns="http://www.w3.org/2000/svg">
  <g id="color">
    <path fill="#D0CFCE" stroke="none" stroke-miterlimit="10" stroke-width="2" d="M32.0706,26.2961 c0-5.9431-5.1204-12.161-5.1204-10.2961s0.9471,26.6324,0.9471,26.6324l-0.9471,16.1963c0,1.1046,0.8954,2,2,2s2-0.8954,2-2 l-0.5289-16.2893C30.4212,42.5394,32.0706,32.2392,32.0706,26.2961z"/>
    <path fill="#D0CFCE" stroke="none" stroke-linecap="round" stroke-linejoin="round" stroke-miterlimit="10" stroke-width="2" d="M45.9384,16.7398c0,0,0.1115,4.158,0.1115,8.1058c0,2.9609-0.8993,4.8203-2.1809,5.565l0,0l0.0285,28.4181c0,1.1046-0.8954,2-2,2 s-2-0.8954-2-2l0.8108-28.4123l0,0c-1.287-0.7408-2.191-2.6022-2.191-5.5708c0-3.9478,0.1115-8.1058,0.1115-8.1058"/>
  </g>
  <g id="hair"/>
  <g id="skin"/>
  <g id="skin-shadow"/>
  <g id="line">
    <path fill="none" stroke="#000000" stroke-miterlimit="10" stroke-width="2" d="M32.0706,26.2961 c0-5.9431-5.1204-12.161-5.1204-10.2961s0.9471,26.6324,0.9471,26.6324l-0.9471,16.1963c0,1.1046,0.8954,2,2,2s2-0.8954,2-2 l-0.5289-16.2893C30.4212,42.5394,32.0706,32.2392,32.0706,26.2961z"/>
    <path fill="none" stroke="#000000" stroke-linecap="round" stroke-linejoin="round" stroke-miterlimit="10" stroke-width="2" d="M45.9384,16.7398c0,0,0.1115,4.158,0.1115,8.1058c0,2.9609-0.8993,4.8203-2.1809,5.565l0,0l0.0285,28.4181c0,1.1046-0.8954,2-2,2 s-2-0.8954-2-2l0.8108-28.4123l0,0c-1.287-0.7408-2.191-2.6022-2.191-5.5708c0-3.9478,0.1115-8.1058,0.1115-8.1058"/>
    <line x1="42.2835" x2="42.2835" y1="16.7398" y2="26.3247" fill="none" stroke="#000000" stroke-linecap="round" stroke-linejoin="round" stroke-miterlimit="10" stroke-width="2"/>
  </g>
</svg>
