<svg id="emoji" viewBox="0 0 72 72" xmlns="http://www.w3.org/2000/svg">
  <g id="color">
    <path fill="#9b9b9a" stroke="none" d="M61.8789,5.8789L50.1348,17.8623c1.4922,1.166,2.8369,2.5098,4.0019,4.0029l11.9844-11.7441 c1.1719-1.1719,1.1719-3.0713,0-4.2432C64.9492,4.707,63.0508,4.707,61.8789,5.8789z"/>
    <path fill="#d0cfce" stroke="none" d="M54.1367,21.8652c-1.164-1.4931-2.5097-2.8369-4.0019-4.0029C46.2344,14.8193,41.3311,13,36,13 c-12.7031,0-23,10.2979-23,23s10.2969,23,23,23s23-10.2979,23-23C59,30.6689,57.1816,25.7656,54.1367,21.8652z"/>
    <path fill="#FFFFFF" stroke="none" d="M47.2246,37.5498c-0.0723-0.0352-0.1435-0.0703-0.2168-0.1016c-0.6338-0.3359-1.0566-1.0869-1.0566-1.8535 c-0.0039-0.0888-0.0205-0.1748-0.0264-0.2636c-0.0146-0.2247-0.0361-0.4473-0.0654-0.668 c-0.0196-0.1377-0.0391-0.2744-0.0625-0.4102c-0.043-0.2402-0.0957-0.4756-0.1543-0.709 c-0.0274-0.1064-0.0528-0.2138-0.0821-0.3183c-0.0869-0.3008-0.1884-0.5938-0.3017-0.8828 c-0.0127-0.0313-0.0225-0.0645-0.0352-0.0957c-0.7256-1.791-1.956-3.3213-3.5146-4.42c-0.4551-0.373-0.7666-0.9658-0.7666-1.5937 C40.5732,23.8359,38.5,22,36,22c-2.2852,0-4.2129,1.5342-4.8086,3.6279c-0.0508,0.1778-0.1182,0.4092-0.1338,0.5957 c-0.0488,0.5918-0.2763,1.1143-0.6826,1.4795c-0.1133,0.0762-0.2187,0.1641-0.3291,0.2451 c-0.0127,0.0088-0.0264,0.0166-0.0381,0.0254c-0.0176,0.0127-0.0322,0.0274-0.0488,0.0401 c-0.209,0.1572-0.4111,0.3203-0.6065,0.4931c-0.0254,0.0215-0.0498,0.045-0.0752,0.0674 c-0.1982,0.1787-0.3906,0.3643-0.5752,0.5586c-0.0126,0.0127-0.0244,0.0274-0.0361,0.0401c-1.6748,1.788-2.707,4.1845-2.707,6.8271 c0,5.5225,4.4765,10,10,10c0.3183,0,0.6348-0.0176,0.9453-0.0479c0.2617-0.0244,0.5176-0.0654,0.7725-0.1103 c0.0341-0.0059,0.0703-0.0088,0.1045-0.0156c0.6933-0.128,1.3613-0.3223,1.996-0.585c0.5977-0.1641,1.253-0.0478,1.7637,0.3555 c0.0606,0.0478,0.125,0.0918,0.1807,0.1474l-0.0088,0.0108C42.5898,46.5273,43.7383,47,45,47c2.7617,0,5-2.2393,5-5 C50,40.042,48.8633,38.3682,47.2246,37.5498z"/>
    <circle cx="36" cy="35.875" r="5" fill="#fcea2b" stroke="none"/>
  </g>
  <g id="hair"/>
  <g id="skin"/>
  <g id="skin-shadow"/>
  <g id="line">
    <path fill="none" stroke="#000000" stroke-linecap="round" stroke-linejoin="round" stroke-miterlimit="10" stroke-width="2" d="M61.8789,5.8789L50.1348,17.8623c1.4922,1.166,2.8369,2.5098,4.0019,4.0029l11.9844-11.7441c1.1719-1.1719,1.1719-3.0713,0-4.2432	C64.9492,4.707,63.0508,4.707,61.8789,5.8789z"/>
    <path fill="none" stroke="#000000" stroke-linecap="round" stroke-linejoin="round" stroke-miterlimit="10" stroke-width="2" d="M54.1367,21.8652c-1.164-1.4931-2.5097-2.8369-4.0019-4.0029C46.2344,14.8193,41.3311,13,36,13c-12.7031,0-23,10.2979-23,23	s10.2969,23,23,23s23-10.2979,23-23C59,30.6689,57.1816,25.7656,54.1367,21.8652z"/>
    <circle cx="36" cy="35.875" r="5" fill="none" stroke="#000000" stroke-linecap="round" stroke-linejoin="round" stroke-miterlimit="10" stroke-width="2"/>
    <path fill="none" stroke="#000000" stroke-linecap="round" stroke-linejoin="round" stroke-miterlimit="10" stroke-width="2" d="M47.2246,37.5498c-0.0723-0.0352-0.1435-0.0703-0.2168-0.1016c-0.6338-0.3359-1.0566-1.0869-1.0566-1.8535	c0-0.0009-0.0117-0.0224-0.0147-0.0293c-0.1377-3.1992-1.7715-6.0068-4.2275-7.7383c-0.4551-0.373-0.7666-0.9658-0.7666-1.5937	C40.5732,23.8359,38.5,22,36,22c-2.2852,0-4.2129,1.5342-4.8086,3.6279c-0.0508,0.1778-0.1182,0.4092-0.1338,0.5957	c-0.0488,0.5918-0.2763,1.1143-0.6826,1.4795C27.7109,29.5,25.959,32.5449,25.959,36c0,5.5225,4.4765,10,10,10	c1.3525,0,2.6406-0.2715,3.8183-0.7588c0.5977-0.1641,1.253-0.0478,1.7637,0.3555c0.0606,0.0478,0.125,0.0918,0.1807,0.1474	l-0.0088,0.0108C42.5898,46.5273,43.7383,47,45,47c2.7617,0,5-2.2393,5-5C50,40.042,48.8633,38.3682,47.2246,37.5498z"/>
  </g>
</svg>
