<svg id="emoji" viewBox="0 0 72 72" xmlns="http://www.w3.org/2000/svg">
  <g id="line-supplement">
    <circle cx="16.1336" cy="51.5015" r="1"/>
    <circle cx="30.3797" cy="51.5015" r="1"/>
    <circle cx="41.7769" cy="51.4458" r="1"/>
    <circle cx="56.023" cy="51.4458" r="1"/>
  </g>
  <g id="color">
    <path fill="#92d3f5" d="M34.165,60.9583H12a1,1,0,0,1-1-1V44.2542A10.2652,10.2652,0,0,1,21.2539,34h3.6572A10.2652,10.2652,0,0,1,35.165,44.2542V59.9583A.9994.9994,0,0,1,34.165,60.9583Z"/>
    <path fill="#ea5a47" d="M59.9824,60.9583H37.8174a1,1,0,0,1-1-1V44.2542A10.2649,10.2649,0,0,1,47.07,34h3.6582A10.2652,10.2652,0,0,1,60.9824,44.2542V59.9583A.9994.9994,0,0,1,59.9824,60.9583Z"/>
    <path fill="#3f3f3f" d="M27.3667,17.3335a9.4792,9.4792,0,0,0,1.2622-4.8317c0-4.2588-2.4365-7.5957-5.5459-7.5957s-5.5469,3.3369-5.5469,7.5957a9.4939,9.4939,0,0,0,1.2615,4.832,10.9261,10.9261,0,0,0-4.238,8.9414c0,5.7129,3.8232,10.36,8.5224,10.36s8.5235-4.6474,8.5235-10.36A10.9253,10.9253,0,0,0,27.3667,17.3335Z"/>
    <path fill="#3f3f3f" d="M52.4849,17.9785h0c1.8916-.7734,3.1482-2.1422,3.1482-3.7018,0-2.4156-3.0149-4.3739-6.7332-4.3739s-6.7341,1.9583-6.7341,4.3739c0,1.56,1.2561,2.9281,3.1477,3.7023a9.8815,9.8815,0,0,0-3.937,8.2308c0,5.17,3.3682,9.3606,7.5232,9.3606S56.4231,31.38,56.4231,26.21A9.8807,9.8807,0,0,0,52.4849,17.9785Z"/>
    <path fill="#fff" d="M55.6768,29.4887V29.49a7.8022,7.8022,0,0,1-5.11,5.843l-.0016.0008A5.958,5.958,0,0,1,48.9,35.57c-3.212,0-5.9224-2.567-6.7771-6.0806v-.0007a8.6763,8.6763,0,0,1,2.4135-4.2723,1.4387,1.4387,0,0,1,.904-.3863,1.5047,1.5047,0,0,1,.765.1542,6.0138,6.0138,0,0,0,5.3889,0,1.4807,1.4807,0,0,1,1.6691.2321A8.6716,8.6716,0,0,1,55.6768,29.4887Z"/>
    <path fill="#fff" d="M29.86,29.5444v.0007a7.8018,7.8018,0,0,1-5.11,5.8431l-.0015.0008a5.9582,5.9582,0,0,1-1.6651.2366c-3.2119,0-5.9223-2.567-6.7771-6.0806v-.0008a8.6772,8.6772,0,0,1,2.4135-4.2722,1.4392,1.4392,0,0,1,.904-.3863,1.5053,1.5053,0,0,1,.7651.1542,6.0138,6.0138,0,0,0,5.3889,0,1.4808,1.4808,0,0,1,1.6691.2321A8.6722,8.6722,0,0,1,29.86,29.5444Z"/>
    <circle cx="16.1336" cy="51.5015" r="1" fill="#1e50a0"/>
    <circle cx="30.3797" cy="51.5015" r="1" fill="#1e50a0"/>
    <circle cx="41.7769" cy="51.4458" r="1" fill="#ffa7c0"/>
    <circle cx="56.023" cy="51.4458" r="1" fill="#ffa7c0"/>
    <path fill="#1e50a0" d="M35.1577,59.9966c.0005-.0135.0078-.0247.0078-.0383a.98.98,0,0,0-.0283-.1412.9917.9917,0,0,0-.0405-.2008,2.0476,2.0476,0,0,0-.1966-.3248.9835.9835,0,0,0-.1657-.1338.9466.9466,0,0,0-.1079-.0871c-.086-.0449-8.5791-4.5293-10.58-11.75a.9091.9091,0,0,0-.052-.1017.9737.9737,0,0,0-.096-.188.9421.9421,0,0,0-.1142-.1335.9544.9544,0,0,0-.1568-.1329.9776.9776,0,0,0-.1635-.0831.9573.9573,0,0,0-.1148-.0581c-.0249-.0068-.0495,0-.0744-.0051a1.4123,1.4123,0,0,0-.386,0c-.0244.0048-.0484-.0017-.0728.005a.9528.9528,0,0,0-.1118.0567.9793.9793,0,0,0-.17.0863,1.1934,1.1934,0,0,0-.2691.2665.9815.9815,0,0,0-.094.1847.9151.9151,0,0,0-.0524.1031c-2.001,7.2207-10.4942,11.7051-10.58,11.75a.9388.9388,0,0,0-.1079.0872.9837.9837,0,0,0-.1658.1337,2.0239,2.0239,0,0,0-.1963.3246,1.0025,1.0025,0,0,0-.0408.2013A.9764.9764,0,0,0,11,59.9583c0,.0136.0073.0248.0078.0383a2.476,2.476,0,0,0,.0943.3861c.0053.0115.0044.0241.01.0356a.998.998,0,0,0,.1741.2378c.0124.0129.0283.0211.0417.0333a.99.99,0,0,0,.24.162.8991.8991,0,0,0,.0884.0377.9966.9966,0,0,0,.3411.0688l.0019,0h22.166l.002,0a.994.994,0,0,0,.3408-.0688.96.96,0,0,0,.0889-.0377.988.988,0,0,0,.24-.162c.0132-.0122.0293-.02.0418-.0333a.9957.9957,0,0,0,.174-.2378c.0059-.0114.0049-.024.01-.0355a.9905.9905,0,0,0,.0556-.1949A.9547.9547,0,0,0,35.1577,59.9966Z"/>
    <path fill="#ffa7c0" d="M60.9751,59.9966c.0005-.0135.0078-.0247.0078-.0383a.967.967,0,0,0-.0283-.1412.9917.9917,0,0,0-.0405-.2008.9536.9536,0,0,0-.0942-.1728.97.97,0,0,0-.1023-.152.9883.9883,0,0,0-.1658-.1338.9466.9466,0,0,0-.1079-.0871c-.086-.0449-8.5791-4.5293-10.58-11.75a.8925.8925,0,0,0-.052-.1017.979.979,0,0,0-.0959-.188,1.1976,1.1976,0,0,0-.271-.2664.9748.9748,0,0,0-.1636-.0831.9573.9573,0,0,0-.1148-.0581c-.0249-.0068-.05,0-.0744-.0051a1.4123,1.4123,0,0,0-.386,0c-.0244.0048-.0484-.0017-.0728.005a.9528.9528,0,0,0-.1118.0567.9793.9793,0,0,0-.17.0863,1.1989,1.1989,0,0,0-.2691.2665.9751.9751,0,0,0-.0939.1847.9158.9158,0,0,0-.0525.1031c-2.001,7.2207-10.4942,11.7051-10.58,11.75a.9475.9475,0,0,0-.1079.0872.9837.9837,0,0,0-.1658.1337,2.0239,2.0239,0,0,0-.1963.3246,1.0025,1.0025,0,0,0-.0408.2013.9764.9764,0,0,0-.0283.1409c0,.0136.0073.0248.0078.0383a2.476,2.476,0,0,0,.0943.3861c.0053.0115.0044.0241.01.0356a.998.998,0,0,0,.1741.2378c.0125.0129.0283.0211.0417.0333a.99.99,0,0,0,.24.162.8991.8991,0,0,0,.0884.0377.9966.9966,0,0,0,.3411.0688l.0019,0h22.166l.002,0a.994.994,0,0,0,.3408-.0688.96.96,0,0,0,.0889-.0377.9861.9861,0,0,0,.24-.162c.0132-.0122.0293-.02.0418-.0333a.9929.9929,0,0,0,.174-.2378c.0059-.0114.0049-.024.01-.0355a.9976.9976,0,0,0,.0557-.1949A.9614.9614,0,0,0,60.9751,59.9966Z"/>
    <path fill="#fcea2b" d="M24.1262,56.0005H22.1623a1,1,0,0,1-.9795-.7979L18.1242,40.3765a1,1,0,0,1,.98-1.2022h7.958a1,1,0,0,1,.9805,1.1944L25.1076,55.1948A1.0009,1.0009,0,0,1,24.1262,56.0005Z"/>
    <path fill="#fcea2b" d="M48.9,55.9448a.9987.9987,0,0,1-.7676-.3594l-8.4267-10.1a.9985.9985,0,0,1-.086-1.1621A10.8762,10.8762,0,0,1,58.18,44.3228a.9981.9981,0,0,1-.085,1.163l-8.4277,10.1A.9987.9987,0,0,1,48.9,55.9448Z"/>
  </g>
  <g id="line">
    <path fill="none" stroke="#000" stroke-linecap="round" stroke-linejoin="round" stroke-width="2" d="M20.2143,17.61a7.9964,7.9964,0,0,1-1.6784-5.1179c0-3.6431,2.0356-6.5965,4.5469-6.5965s4.5463,2.9534,4.5463,6.5965A7.992,7.992,0,0,1,25.9506,17.61"/>
    <ellipse cx="23.0825" cy="26.2655" rx="7.5232" ry="9.3606" fill="none" stroke="#000" stroke-linecap="round" stroke-linejoin="round" stroke-width="2"/>
    <path fill="none" stroke="#000" stroke-linecap="round" stroke-linejoin="round" stroke-width="2" d="M45.3151,17.9792h-.0008c-1.8918-.7741-3.1484-2.1429-3.1484-3.7025,0-2.4156,3.0149-4.3739,6.7342-4.3739s6.7333,1.9583,6.7333,4.3739c0,1.56-1.2567,2.9284-3.1484,3.7018"/>
    <ellipse cx="48.8998" cy="26.2098" rx="7.5232" ry="9.3606" fill="none" stroke="#000" stroke-linecap="round" stroke-linejoin="round" stroke-width="2"/>
    <path fill="none" stroke="#000" stroke-linecap="round" stroke-linejoin="round" stroke-width="2" d="M42.1227,29.4886a8.6763,8.6763,0,0,1,2.4135-4.2723,1.4387,1.4387,0,0,1,.904-.3863,1.5047,1.5047,0,0,1,.765.1542,6.0138,6.0138,0,0,0,5.3889,0,1.4807,1.4807,0,0,1,1.6691.2321,8.6716,8.6716,0,0,1,2.4136,4.2724"/>
    <path fill="none" stroke="#000" stroke-linecap="round" stroke-linejoin="round" d="M50.4534,28.5577s1.4924-2.2386,2.9848,0"/>
    <path fill="none" stroke="#000" stroke-linecap="round" stroke-linejoin="round" d="M44.4838,28.5577s1.4924-2.2386,2.9848,0"/>
    <path fill="none" stroke="#000" stroke-linecap="round" stroke-linejoin="round" stroke-width="2" d="M16.3054,29.545v-.0008a8.6772,8.6772,0,0,1,2.4135-4.2722,1.4392,1.4392,0,0,1,.904-.3863,1.5053,1.5053,0,0,1,.7651.1542,6.0138,6.0138,0,0,0,5.3889,0,1.4808,1.4808,0,0,1,1.6691.2321A8.6722,8.6722,0,0,1,29.86,29.5444v.0007"/>
    <path fill="none" stroke="#000" stroke-linecap="round" stroke-linejoin="round" d="M24.6362,28.6134s1.4924-2.2386,2.9847,0"/>
    <path fill="none" stroke="#000" stroke-linecap="round" stroke-linejoin="round" d="M18.6666,28.6134s1.4924-2.2386,2.9848,0"/>
    <path fill="none" stroke="#000" stroke-linecap="round" stroke-linejoin="round" stroke-width="2" d="M29.3778,36.1475a9.2515,9.2515,0,0,1,4.7874,8.1065V59.9584H12V44.254a9.2516,9.2516,0,0,1,4.7873-8.1065"/>
    <path fill="none" stroke="#000" stroke-linecap="round" stroke-linejoin="round" stroke-width="2" d="M55.1953,36.1475a9.2516,9.2516,0,0,1,4.7873,8.1065V59.9584H37.8172V44.254a9.2516,9.2516,0,0,1,4.7873-8.1065"/>
    <polyline fill="none" stroke="#000" stroke-linecap="round" stroke-linejoin="round" stroke-width="2" points="22.163 55 19.103 40.174 27.062 40.174 24.126 55 22.163 55"/>
    <path fill="none" stroke="#000" stroke-linecap="round" stroke-linejoin="round" stroke-width="2" d="M57.3272,44.8449a9.8764,9.8764,0,0,0-16.8546,0l8.4273,10.1Z"/>
    <path fill="none" stroke="#000" stroke-linecap="round" stroke-linejoin="round" stroke-width="2" d="M12,59.9584s6.0781-3.1474,9.4127-8.594"/>
    <path fill="none" stroke="#000" stroke-linecap="round" stroke-linejoin="round" stroke-width="2" d="M34.1652,59.9584a27.0679,27.0679,0,0,1-9.3418-8.4791"/>
    <path fill="none" stroke="#000" stroke-linecap="round" stroke-linejoin="round" stroke-width="2" d="M37.8172,59.9584a27.6264,27.6264,0,0,0,8.834-7.7089"/>
    <path fill="none" stroke="#000" stroke-linecap="round" stroke-linejoin="round" stroke-width="2" d="M59.9826,59.9584a27.6259,27.6259,0,0,1-8.834-7.709"/>
  </g>
</svg>
