<svg id="emoji" viewBox="0 0 72 72" version="1.1" xmlns="http://www.w3.org/2000/svg">
  <g id="color">
    <path fill="#B1CC33" d="M57.6963,32.9388c-0.0972,0-0.1942-0.0187-0.2886-0.056c-0.58-0.2286-14.0759-5.6686-21.5575-17.85 c-6.8325,3.0833-11.5895,10.2596-11.6642,10.375c-0.3334,0.5119-0.935,0.5901-1.3459,0.1738 c-0.41-0.4163-0.4717-1.1685-0.1392-1.6804c0.1298-0.1982,13.1054-19.7577,27.7987-9.8503 c7.8693,5.3059,8.1448,17.1677,8.1532,17.6704c0.0056,0.3848-0.1372,0.7497-0.3839,0.9795 C58.1016,32.8573,57.8999,32.9388,57.6963,32.9388z"/>
    <path fill="#5C9E31" d="M23.9844,25.9945c1.9157-2.992,5.2798-7.3798,9.791-9.9801c0.6218-0.3907,1.2601-0.761,1.9261-1.083 c0.0206,0.0323,0.0425,0.0629,0.0632,0.0952c3.6437-1.5269,7.9114-1.7803,12.6838,0.6358 c7.7149,3.9057,9.912,14.0599,10.3039,16.2592c0.0769-0.1857,0.1241-0.3896,0.1162-0.606 c-0.0195-0.5083-0.5581-12.503-8.5431-17.6986C35.416,3.9156,22.8774,23.9885,22.752,24.1919 c-0.3211,0.5251-0.2427,1.2848,0.1765,1.697C23.2437,26.1982,23.6601,26.2232,23.9844,25.9945z"/>
    <path fill="#B1CC33" d="M28.7007,4.534H15.5409c-1.5335,0-2.6953,0.5828-2.3725,1.2062c1.0379,2.0035,1.6823,4.784,1.6823,7.8618 c0,3.7561-0.9596,8.0768-2.4233,10.0755v2.0151c1.4637,1.9986,2.4233,6.3192,2.4233,10.0755c0,3.756-0.9596,8.0768-2.4233,10.0755 v2.0151c1.4637,1.9986,2.4233,6.3192,2.4233,10.0755c0,3.0779-0.6444,5.8583-1.6823,7.8618 c-0.3231,0.6233,0.839,1.2062,2.3725,1.2062h13.1595c1.5335,0,2.6953-0.5828,2.3725-1.2062 c-1.0379-2.0035-1.6823-4.7839-1.6823-7.8618c0-3.7561,0.9596-8.0769,2.4233-10.0755v-2.0151 c-1.4637-1.9987-2.4233-6.3194-2.4233-10.0755s0.9596-8.0769,2.4233-10.0755v-2.0151c-1.4637-1.9987-2.4233-6.3194-2.4233-10.0755 c0-3.0778,0.6444-5.8583,1.6823-7.8618C31.396,5.1168,30.2339,4.534,28.7007,4.534z"/>
    <path fill="#5C9E31" d="M22.8988,65.7955c1.3567-2.0035,2.1991-4.784,2.1991-7.8618c0-3.7561-1.2543-7.0694-3.1676-9.068v-4.0301 c1.9133-1.9987,3.1676-5.3118,3.1676-9.068s-1.2543-7.0693-3.1676-9.0679v-4.0301c1.9133-1.9987,3.1676-5.3118,3.1676-9.068 c0-3.0779-0.8423-5.8583-2.1991-7.8618C22.4768,5.1168,23.9954,4.534,26,4.534h-9.5028c-2.0046,0-3.5232,0.5828-3.1012,1.2062 c1.3571,2.0035,2.1991,4.7839,2.1991,7.8618c0,3.7561-1.2543,8.0768-3.1676,10.0755v2.0151 c1.9133,1.9986,3.1676,6.3192,3.1676,10.0755c0,3.756-1.2543,8.0768-3.1676,10.0755v2.0151 c1.9133,1.9986,3.1676,6.3192,3.1676,10.0755c0,3.0778-0.8423,5.8583-2.1991,7.8618c-0.4219,0.6232,1.0967,1.2062,3.1012,1.2062H26 C23.9954,67.0017,22.4768,66.4189,22.8988,65.7955z"/>
    <path fill="#EA5A47" d="M40.445,27.9895l-5.4208,2.6931c-0.6447,0.3203-0.978,1.0867-0.7746,1.8045 c1.2382,4.368,5.9416,19.1975,15.1459,28.9456c0.5127,0.5431,1.346,0.5627,1.9107,0.0672l9.2458-8.1146 c0.7049-0.6187,0.7032-1.763-0.0138-2.3489c-3.1252-2.5532-10.8734-9.6479-18.2871-22.4672 C41.8759,27.9204,41.1009,27.6636,40.445,27.9895z"/>
    <path fill="#D22F27" d="M39.497,28.4598l-4.2734,2.123c-0.6447,0.3203-0.978,1.0867-0.7746,1.8045 c1.2382,4.368,5.9416,19.1975,15.1459,28.9456c0.5127,0.5431,1.346,0.5627,1.9107,0.0672l2.5674-2.2533 C45.2467,48.7822,40.7485,33.3158,39.497,28.4598z"/>
    <path fill="#5C9E31" d="M31.5232,50.2071H12.4641C11.6588,50.2071,11,49.5482,11,48.743v-4.294 c0-0.8052,0.6588-1.4641,1.4641-1.4641h19.0591c0.8053,0,1.4641,0.6588,1.4641,1.4641v4.2939 C32.9873,49.5482,32.3285,50.2071,31.5232,50.2071z"/>
    <path fill="#5C9E31" d="M31.5232,28.2071H12.4641C11.6588,28.2071,11,27.5482,11,26.743v-4.294 c0-0.8052,0.6588-1.4641,1.4641-1.4641h19.0591c0.8053,0,1.4641,0.6588,1.4641,1.4641v4.2939 C32.9873,27.5482,32.3285,28.2071,31.5232,28.2071z"/>
    <path fill="#B1CC33" d="M31.5232,20.9849H31.316L16.892,28.207h14.6311c0.8053,0,1.4641-0.6588,1.4641-1.4641V22.449 C32.9873,21.6437,32.3285,20.9849,31.5232,20.9849z"/>
    <path fill="#B1CC33" d="M31.5232,42.9849H31.316L16.892,50.207h14.6311c0.8053,0,1.4641-0.6588,1.4641-1.4641V44.449 C32.9873,43.6437,32.3285,42.9849,31.5232,42.9849z"/>
  </g>
  <g id="hair"/>
  <g id="skin"/>
  <g id="skin-shadow"/>
  <g id="line">
    <path fill="none" stroke="#000000" stroke-linecap="round" stroke-linejoin="round" stroke-miterlimit="10" stroke-width="2" d="M41,12c3.3439-0.5011,6.7458-0.4799,10.4994,2.0511c7.8693,5.3059,8.1448,17.1677,8.1532,17.6704 c0.0056,0.3848-0.1372,0.7497-0.3839,0.9795c-0.167,0.1563-0.3688,0.2379-0.5724,0.2379c-0.0972,0-0.1942-0.0187-0.2886-0.056 C57.8743,32.6727,46.6569,28.2104,39,18"/>
    <path fill="none" stroke="#000000" stroke-linecap="round" stroke-linejoin="round" stroke-miterlimit="10" stroke-width="2" d="M40.445,27.9895l-5.4208,2.6931c-0.6447,0.3203-0.978,1.0867-0.7746,1.8045c1.2382,4.368,5.9416,19.1975,15.1459,28.9456 c0.5127,0.5431,1.346,0.5627,1.9107,0.0672l9.2458-8.1146c0.7049-0.6187,0.7032-1.763-0.0138-2.3489 c-3.1252-2.5532-10.8734-9.6479-18.2871-22.4672C41.8759,27.9204,41.1009,27.6636,40.445,27.9895z"/>
    <path d="M15.9497,13.5739c0.0132-2.9297-0.5317-5.7065-1.5405-7.8848c0.2617-0.0942,0.6865-0.1973,1.2671-0.1841l13.1597,0.0586 c0.5742,0.0024,1.0034,0.0991,1.2646,0.1953c-1.0283,2.1694-1.5977,4.9414-1.6108,7.8711 c-0.0059,1.3179,0.103,2.7412,0.3154,4.1152c0.1804,1.1668,0.4319,2.2573,0.733,3.2396H31.64 c-0.3561-1.0208-0.6553-2.2333-0.8583-3.5453c-0.1968-1.2715-0.2974-2.5859-0.292-3.8008c0.0127-2.8184,0.582-5.4443,1.603-7.394 c0.2412-0.4604,0.2256-0.9814-0.0439-1.4292c-0.5508-0.915-2.0161-1.2466-3.2041-1.252L15.6855,3.505 c-1.21,0.0195-2.6558,0.3125-3.2153,1.2227c-0.2734,0.4453-0.2944,0.9658-0.0576,1.4287c1.0039,1.959,1.5498,4.5903,1.5371,7.4087 c-0.0114,2.6023-0.5109,5.3911-1.2535,7.4198h2.1182C15.5073,18.8297,15.9383,16.1669,15.9497,13.5739z"/>
    <path d="M15.8506,35.7399c0.0116-2.53-0.4008-5.3115-1.1029-7.5328H12.637c0.0374,0.1025,0.0764,0.1989,0.1125,0.3057 c0.7007,2.0723,1.1123,4.7705,1.1011,7.2183c-0.0111,2.5326-0.4857,5.2396-1.1954,7.2538h2.1177 C15.4335,40.8607,15.8395,38.2642,15.8506,35.7399z"/>
    <path d="M30.3906,35.8048c0.0118-2.6768,0.5377-5.5574,1.316-7.5977h-2.119c-0.728,2.1857-1.1853,4.9222-1.197,7.5889 c-0.0113,2.4971,0.362,5.0714,0.9913,7.1888h2.1103C30.8171,40.9731,30.3793,38.3023,30.3906,35.8048z"/>
    <path d="M28.5249,54.6486l0.0005,0.0001c-0.1509,1.1279-0.2295,2.2431-0.2339,3.3124c-0.0132,2.9307,0.5317,5.708,1.5405,7.8857 c-0.2617,0.0938-0.6904,0.1797-1.2671,0.1846l-13.1592-0.0596c-0.5742-0.0029-1.0039-0.0996-1.2651-0.1953 c1.0283-2.1699,1.5977-4.9414,1.6108-7.8711c0.0122-2.7077-0.4344-5.4905-1.1622-7.6984h-2.1128 c0.7759,2.0511,1.2873,4.9786,1.275,7.6886c-0.0127,2.8193-0.582,5.4453-1.603,7.3945c-0.2412,0.4609-0.2256,0.9814,0.0439,1.4297 c0.5508,0.915,2.0166,1.2471,3.2046,1.252l13.1592,0.0596c0.0098,0,0.019,0,0.0288,0c1.1821,0,2.6309-0.3203,3.186-1.2236 c0.2734-0.4443,0.2944-0.9658,0.0576-1.4287c-1.0039-1.959-1.5498-4.5898-1.5371-7.4092c0.0044-0.9844,0.0771-2.0127,0.2163-3.0557 c0.0001-0.0008-0.0002-0.0014-0.0001-0.0022c0.2372-1.7746,0.6535-3.4259,1.1619-4.705H29.537 C29.0951,51.4969,28.7445,53.0043,28.5249,54.6486z"/>
  </g>
</svg>
