<svg id="emoji" viewBox="0 0 72 72" xmlns="http://www.w3.org/2000/svg">
  <g id="line-supplement">
    <g>
      <circle cx="36" cy="21" r="9" fill="none" stroke="#000" stroke-miterlimit="10" stroke-width="2"/>
      <g>
        <g>
          <path fill="none" stroke="#000" stroke-linecap="round" stroke-miterlimit="10" stroke-width="2" d="M15.0056,43.04a9.8158,9.8158,0,0,1,6.6232,2.9568"/>
          <path fill="none" stroke="#000" stroke-linecap="round" stroke-miterlimit="10" stroke-width="2" d="M15.5339,40.0114a10.281,10.281,0,0,1,6.56,2.4528"/>
          <path fill="none" stroke="#000" stroke-linecap="round" stroke-miterlimit="10" stroke-width="2" d="M16.2753,37.0059A10.5851,10.5851,0,0,1,22.72,39.1442"/>
          <path fill="none" stroke="#000" stroke-linecap="round" stroke-miterlimit="10" stroke-width="2" d="M17.4243,34.009a10.5987,10.5987,0,0,1,6.1608,2.0261"/>
          <path fill="none" stroke="#000" stroke-linecap="round" stroke-miterlimit="10" stroke-width="2" d="M24.8463,33.2525a9.9691,9.9691,0,0,0-5.27-2.1559"/>
          <path fill="none" stroke="#000" stroke-linecap="round" stroke-miterlimit="10" stroke-width="2" d="M23.0758,28.678a8.7566,8.7566,0,0,1,3.575,2.3416"/>
        </g>
        <g>
          <path fill="none" stroke="#000" stroke-linecap="round" stroke-miterlimit="10" stroke-width="2" d="M20.0056,52.04a9.8158,9.8158,0,0,1,6.6232,2.9568"/>
          <path fill="none" stroke="#000" stroke-linecap="round" stroke-miterlimit="10" stroke-width="2" d="M20.5339,49.0114a10.281,10.281,0,0,1,6.56,2.4528"/>
          <path fill="none" stroke="#000" stroke-linecap="round" stroke-miterlimit="10" stroke-width="2" d="M21.2753,46.0059A10.5851,10.5851,0,0,1,27.72,48.1442"/>
          <path fill="none" stroke="#000" stroke-linecap="round" stroke-miterlimit="10" stroke-width="2" d="M22.4243,43.009a10.5987,10.5987,0,0,1,6.1608,2.0261"/>
          <path fill="none" stroke="#000" stroke-linecap="round" stroke-miterlimit="10" stroke-width="2" d="M29.8463,42.2525a9.9691,9.9691,0,0,0-5.27-2.1559"/>
          <path fill="none" stroke="#000" stroke-linecap="round" stroke-miterlimit="10" stroke-width="2" d="M28.0758,37.678a8.7566,8.7566,0,0,1,3.575,2.3416"/>
        </g>
        <g>
          <path fill="none" stroke="#000" stroke-linecap="round" stroke-miterlimit="10" stroke-width="2" d="M25,28a12.06,12.06,0,0,0-7,5c-2.88,4.3193-3.686,14.8566-3.912,20.4214"/>
          <path fill="none" stroke="#000" stroke-linecap="round" stroke-miterlimit="10" stroke-width="2" d="M30,37a12.06,12.06,0,0,0-7,5c-2.2917,3.4375-3.2693,10.81-3.6873,16.484"/>
        </g>
        <polygon stroke="#000" stroke-linejoin="round" stroke-width="0.75" points="52 22.46 52.618 22.902 52.389 22.178 53 21.727 52.24 21.721 52 21 51.76 21.721 51 21.727 51.611 22.088 51.382 22.902 52 22.46"/>
        <polygon stroke="#000" stroke-linejoin="round" stroke-width="1.5" points="54.897 32.071 56.197 33 55.715 31.477 57 30.528 55.402 30.516 54.897 29 54.392 30.426 52.794 30.528 54.08 31.477 53.597 33 54.897 32.071"/>
        <polygon stroke="#000" stroke-linejoin="round" points="18.5 24.337 19.427 25 19.083 23.913 20 23.237 18.86 23.138 18.5 22.147 18.14 23.228 17 23.237 17.917 23.913 17.573 25 18.5 24.337"/>
      </g>
      <circle cx="53.75" cy="47.75" r="2.25" fill="none" stroke="#000" stroke-linecap="round" stroke-miterlimit="10" stroke-width="2"/>
      <circle cx="47" cy="47.75" r="2.25" fill="none" stroke="#000" stroke-linecap="round" stroke-miterlimit="10" stroke-width="2"/>
      <circle cx="40.25" cy="47.75" r="2.25" fill="none" stroke="#000" stroke-linecap="round" stroke-miterlimit="10" stroke-width="2"/>
      <circle cx="43.625" cy="41.75" r="2.25" fill="none" stroke="#000" stroke-linecap="round" stroke-miterlimit="10" stroke-width="2"/>
      <circle cx="50.375" cy="41.75" r="2.25" fill="none" stroke="#000" stroke-linecap="round" stroke-miterlimit="10" stroke-width="2"/>
      <circle cx="47" cy="35.75" r="2.25" fill="none" stroke="#000" stroke-linecap="round" stroke-miterlimit="10" stroke-width="2"/>
    </g>
  </g>
  <g id="color">
    <g>
      <circle cx="36" cy="36" r="28" fill="#1e50a0"/>
      <circle cx="36" cy="21" r="9" fill="#f1b31c" stroke="#f1b31c" stroke-miterlimit="10" stroke-width="2"/>
      <circle cx="53.75" cy="47.75" r="2.25" fill="#d0cfce" stroke="#d0cfce" stroke-linecap="round" stroke-miterlimit="10" stroke-width="2"/>
      <circle cx="47" cy="47.75" r="2.25" fill="#d0cfce" stroke="#d0cfce" stroke-linecap="round" stroke-miterlimit="10" stroke-width="2"/>
      <circle cx="40.25" cy="47.75" r="2.25" fill="#d0cfce" stroke="#d0cfce" stroke-linecap="round" stroke-miterlimit="10" stroke-width="2"/>
      <circle cx="43.625" cy="41.75" r="2.25" fill="#d0cfce" stroke="#d0cfce" stroke-linecap="round" stroke-miterlimit="10" stroke-width="2"/>
      <circle cx="50.375" cy="41.75" r="2.25" fill="#d0cfce" stroke="#d0cfce" stroke-linecap="round" stroke-miterlimit="10" stroke-width="2"/>
      <circle cx="47" cy="35.75" r="2.25" fill="#d0cfce" stroke="#d0cfce" stroke-linecap="round" stroke-miterlimit="10" stroke-width="2"/>
      <g>
        <path fill="none" stroke="#f4aa41" stroke-linecap="round" stroke-miterlimit="10" stroke-width="2" d="M15.0056,43.04a9.8158,9.8158,0,0,1,6.6232,2.9568"/>
        <path fill="none" stroke="#f4aa41" stroke-linecap="round" stroke-miterlimit="10" stroke-width="2" d="M15.5339,40.0114a10.281,10.281,0,0,1,6.56,2.4528"/>
        <path fill="none" stroke="#f4aa41" stroke-linecap="round" stroke-miterlimit="10" stroke-width="2" d="M16.2753,37.0059A10.5851,10.5851,0,0,1,22.72,39.1442"/>
        <path fill="none" stroke="#f4aa41" stroke-linecap="round" stroke-miterlimit="10" stroke-width="2" d="M17.4243,34.009a10.5987,10.5987,0,0,1,6.1608,2.0261"/>
        <path fill="none" stroke="#f4aa41" stroke-linecap="round" stroke-miterlimit="10" stroke-width="2" d="M24.8463,33.2525a9.9691,9.9691,0,0,0-5.27-2.1559"/>
        <path fill="none" stroke="#f4aa41" stroke-linecap="round" stroke-miterlimit="10" stroke-width="2" d="M23.0758,28.678a8.7566,8.7566,0,0,1,3.575,2.3416"/>
      </g>
      <g>
        <path fill="none" stroke="#f4aa41" stroke-linecap="round" stroke-miterlimit="10" stroke-width="2" d="M20.0056,52.04a9.8158,9.8158,0,0,1,6.6232,2.9568"/>
        <path fill="none" stroke="#f4aa41" stroke-linecap="round" stroke-miterlimit="10" stroke-width="2" d="M20.5339,49.0114a10.281,10.281,0,0,1,6.56,2.4528"/>
        <path fill="none" stroke="#f4aa41" stroke-linecap="round" stroke-miterlimit="10" stroke-width="2" d="M21.2753,46.0059A10.5851,10.5851,0,0,1,27.72,48.1442"/>
        <path fill="none" stroke="#f4aa41" stroke-linecap="round" stroke-miterlimit="10" stroke-width="2" d="M22.4243,43.009a10.5987,10.5987,0,0,1,6.1608,2.0261"/>
        <path fill="none" stroke="#f4aa41" stroke-linecap="round" stroke-miterlimit="10" stroke-width="2" d="M29.8463,42.2525a9.9691,9.9691,0,0,0-5.27-2.1559"/>
        <path fill="none" stroke="#f4aa41" stroke-linecap="round" stroke-miterlimit="10" stroke-width="2" d="M28.0758,37.678a8.7566,8.7566,0,0,1,3.575,2.3416"/>
      </g>
      <g>
        <path fill="none" stroke="#5c9e31" stroke-linecap="round" stroke-miterlimit="10" stroke-width="2" d="M25,28a12.06,12.06,0,0,0-7,5c-2.88,4.3193-3.686,14.8566-3.912,20.4214"/>
        <path fill="none" stroke="#5c9e31" stroke-linecap="round" stroke-miterlimit="10" stroke-width="2" d="M30,37a12.06,12.06,0,0,0-7,5c-2.2917,3.4375-3.2693,10.81-3.6873,16.484"/>
      </g>
      <polygon fill="#f1b31c" stroke="#f1b31c" stroke-linejoin="round" stroke-width="0.75" points="52 22.46 52.618 22.902 52.389 22.178 53 21.727 52.24 21.721 52 21 51.76 21.721 51 21.727 51.611 22.088 51.382 22.902 52 22.46"/>
      <polygon fill="#f1b31c" stroke="#f1b31c" stroke-linejoin="round" stroke-width="1.5" points="54.897 32.071 56.197 33 55.715 31.477 57 30.528 55.402 30.516 54.897 29 54.392 30.426 52.794 30.528 54.08 31.477 53.597 33 54.897 32.071"/>
      <polygon fill="#f1b31c" stroke="#f1b31c" stroke-linejoin="round" points="18.5 24.337 19.427 25 19.083 23.913 20 23.237 18.86 23.138 18.5 22.147 18.14 23.228 17 23.237 17.917 23.913 17.573 25 18.5 24.337"/>
      <path fill="#a57939" stroke="#a57939" stroke-linecap="round" stroke-linejoin="round" stroke-width="2" d="M36,64a27.8892,27.8892,0,0,0,18.6166-7.092q.4968-.4425.9715-.908H40Z"/>
      <polygon fill="#a57939" stroke="#a57939" stroke-linecap="round" stroke-linejoin="round" stroke-width="2" points="58.243 53 34 53 34 56 40 56 55.588 56 58.243 53"/>
    </g>
  </g>
  <g id="line">
    <g>
      <path fill="none" stroke="#000" stroke-linecap="round" stroke-miterlimit="10" stroke-width="2" d="M55.341,49.341a2.25,2.25,0,0,1-3.182-3.182"/>
      <path fill="none" stroke="#000" stroke-linecap="round" stroke-miterlimit="10" stroke-width="2" d="M48.591,49.341a2.25,2.25,0,0,1-3.182-3.182"/>
      <path fill="none" stroke="#000" stroke-linecap="round" stroke-miterlimit="10" stroke-width="2" d="M41.841,49.341a2.25,2.25,0,0,1-3.182-3.182"/>
      <path fill="none" stroke="#000" stroke-linecap="round" stroke-miterlimit="10" stroke-width="2" d="M45.216,43.341a2.25,2.25,0,0,1-3.182-3.182"/>
      <path fill="none" stroke="#000" stroke-linecap="round" stroke-miterlimit="10" stroke-width="2" d="M51.966,43.341a2.25,2.25,0,0,1-3.182-3.182"/>
      <path fill="none" stroke="#000" stroke-linecap="round" stroke-miterlimit="10" stroke-width="2" d="M48.591,37.341a2.25,2.25,0,0,1-3.182-3.182"/>
      <polyline fill="none" stroke="#000" stroke-linecap="round" stroke-linejoin="round" stroke-width="2" points="58.243 53 34 53 34 56"/>
      <path fill="none" stroke="#000" stroke-linecap="round" stroke-miterlimit="10" stroke-width="2" d="M42.364,27.364A9,9,0,0,1,29.636,14.636"/>
      <line x1="40" x2="36" y1="56" y2="64" fill="none" stroke="#000" stroke-linecap="round" stroke-linejoin="round" stroke-width="2"/>
      <circle cx="36" cy="36" r="28" fill="none" stroke="#000" stroke-linejoin="round" stroke-width="2"/>
    </g>
  </g>
</svg>
