<svg id="emoji" viewBox="0 0 72 72" xmlns="http://www.w3.org/2000/svg">
  <g id="color">
    <path fill="#d0cfce" d="M24.239,20H17.0281a7.1536,7.1536,0,0,1,.0252,2h7.1534A7.18,7.18,0,0,1,24.239,20Z"/>
    <path fill="#d0cfce" d="M26.9557,11.3057a6.4946,6.4946,0,0,0-6.3218-6.3219,6.3219,6.3219,0,0,0-6.3219,6.3219l-.0044-.026c.05,2.2573,1.4038,4.4042,2.2124,6.72h8.2325C25.562,15.6937,26.9061,13.5545,26.9557,11.3057Z"/>
    <path fill="#d0cfce" d="M27.2917,27.47A11.7467,11.7467,0,0,1,24.78,24H16.471a11.7743,11.7743,0,0,1-2.4995,3.4438c-9.2582,9.2582-5.8275,25.063,1.1162,39.53L15,67H26.1756C33.1192,52.5328,36.55,36.7281,27.2917,27.47Z"/>
    <path fill="#ea5a47" d="M24.2067,22H17.0533a7.1754,7.1754,0,0,1-.5823,2H24.78A7.1557,7.1557,0,0,1,24.2067,22Z"/>
    <path fill="#ea5a47" d="M24.7525,18H16.52a10.7607,10.7607,0,0,1,.5081,2H24.239A10.8478,10.8478,0,0,1,24.7525,18Z"/>
    <path fill="#9b9b9a" d="M22.1624,22H24.206a7.1759,7.1759,0,0,1,.0323-2H22.173C22.1417,20.6477,22.1332,21.3118,22.1624,22Z"/>
    <path fill="#9b9b9a" d="M23.0568,11.3057A63.054,63.054,0,0,1,22.34,18h2.4118c.8095-2.3063,2.1536-4.4455,2.2032-6.6943a6.5112,6.5112,0,0,0-5.7781-6.2914C22.2321,5.3206,23.0783,8.3113,23.0568,11.3057Z"/>
    <path fill="#9b9b9a" d="M27.291,27.47A11.7454,11.7454,0,0,1,24.7792,24h-2.43a20.8439,20.8439,0,0,0,.8172,3.47c3.0122,9.2582,1.896,25.0629-.3631,39.53l3.3482-.3277C33.0948,52.2052,36.5492,36.7281,27.291,27.47Z"/>
    <path fill="#d22f27" d="M22.3489,24h2.43a7.1587,7.1587,0,0,1-.5732-2H22.1624A19.7444,19.7444,0,0,0,22.3489,24Z"/>
    <path fill="#d22f27" d="M22.173,20h2.0653a10.84,10.84,0,0,1,.5135-2H22.34C22.2656,18.6511,22.2059,19.3159,22.173,20Z"/>
    <path fill="#d0cfce" d="M21,4.9838h-.0007v.02c.0591.0038.1189.0044.1776.01A.636.636,0,0,0,21,4.9838Z"/>
    <path fill="#d0cfce" d="M41.239,20H34.0281a7.1536,7.1536,0,0,1,.0252,2h7.1534A7.18,7.18,0,0,1,41.239,20Z"/>
    <path fill="#d0cfce" d="M43.9557,11.3057a6.4946,6.4946,0,0,0-6.3218-6.3219,6.3219,6.3219,0,0,0-6.3219,6.3219l-.0044-.026c.05,2.2573,1.4038,4.4042,2.2124,6.72h8.2325C42.562,15.6937,43.9061,13.5545,43.9557,11.3057Z"/>
    <path fill="#d0cfce" d="M44.2917,27.47A11.7467,11.7467,0,0,1,41.78,24H33.471a11.7743,11.7743,0,0,1-2.4995,3.4438c-9.2582,9.2582-5.9133,25.1037,1.03,39.5708L32,67H43.1756C50.1192,52.5328,53.55,36.7281,44.2917,27.47Z"/>
    <path fill="#ea5a47" d="M41.2067,22H34.0533a7.1754,7.1754,0,0,1-.5823,2H41.78A7.1557,7.1557,0,0,1,41.2067,22Z"/>
    <path fill="#ea5a47" d="M41.7525,18H33.52a10.7607,10.7607,0,0,1,.5081,2H41.239A10.8478,10.8478,0,0,1,41.7525,18Z"/>
    <path fill="#9b9b9a" d="M39.1624,22H41.206a7.1759,7.1759,0,0,1,.0323-2H39.173C39.1417,20.6477,39.1332,21.3118,39.1624,22Z"/>
    <path fill="#9b9b9a" d="M40.0568,11.3057A63.054,63.054,0,0,1,39.34,18h2.4118c.8095-2.3063,2.1536-4.4455,2.2032-6.6943a6.5112,6.5112,0,0,0-5.7781-6.2914C39.2321,5.3206,40.0783,8.3113,40.0568,11.3057Z"/>
    <path fill="#9b9b9a" d="M44.291,27.47A11.7454,11.7454,0,0,1,41.7792,24h-2.43a20.8439,20.8439,0,0,0,.8172,3.47c3.0122,9.2582,1.896,25.0629-.3631,39.53h3.3719C50.1185,52.5328,53.5492,36.7281,44.291,27.47Z"/>
    <path fill="#d22f27" d="M39.3489,24h2.43a7.1587,7.1587,0,0,1-.5732-2H39.1624A19.7444,19.7444,0,0,0,39.3489,24Z"/>
    <path fill="#d22f27" d="M39.173,20h2.0653a10.84,10.84,0,0,1,.5135-2H39.34C39.2656,18.6511,39.2059,19.3159,39.173,20Z"/>
    <path fill="#d0cfce" d="M38,4.9838h-.0007v.02c.0591.0038.1189.0044.1776.01A.636.636,0,0,0,38,4.9838Z"/>
    <circle cx="19.9983" cy="52.0915" r="15" fill="#9b9b9a"/>
    <path fill="#3F3F3F" d="M27.6018,39.1605A15.0029,15.0029,0,0,1,9.0328,62.3329,15.0041,15.0041,0,0,0,34.9983,52.0915,14.8862,14.8862,0,0,0,27.6018,39.1605Z"/>
    <path fill="#d0cfce" d="M58.239,20H51.0281a7.1536,7.1536,0,0,1,.0252,2h7.1534A7.18,7.18,0,0,1,58.239,20Z"/>
    <path fill="#d0cfce" d="M60.9557,11.3057a6.4946,6.4946,0,0,0-6.3218-6.3219,6.3219,6.3219,0,0,0-6.3219,6.3219l-.0044-.026c.05,2.2573,1.4038,4.4042,2.2124,6.72h8.2325C59.562,15.6937,60.9061,13.5545,60.9557,11.3057Z"/>
    <path fill="#d0cfce" d="M61.2917,27.47A11.7467,11.7467,0,0,1,58.78,24H50.471a11.7743,11.7743,0,0,1-2.4995,3.4438C38.7133,36.702,42.0563,52.5329,49,67H60.1756C67.1192,52.5328,70.55,36.7281,61.2917,27.47Z"/>
    <path fill="#ea5a47" d="M58.2067,22H51.0533a7.1754,7.1754,0,0,1-.5823,2H58.78A7.1557,7.1557,0,0,1,58.2067,22Z"/>
    <path fill="#ea5a47" d="M58.7525,18H50.52a10.7607,10.7607,0,0,1,.5081,2H58.239A10.8478,10.8478,0,0,1,58.7525,18Z"/>
    <path fill="#9b9b9a" d="M56.1624,22H58.206a7.1759,7.1759,0,0,1,.0323-2H56.173C56.1417,20.6477,56.1332,21.3118,56.1624,22Z"/>
    <path fill="#9b9b9a" d="M57.0568,11.3057A63.054,63.054,0,0,1,56.34,18h2.4118c.8095-2.3063,2.1536-4.4455,2.2032-6.6943a6.5112,6.5112,0,0,0-5.7781-6.2914C56.2321,5.3206,57.0783,8.3113,57.0568,11.3057Z"/>
    <path fill="#9b9b9a" d="M61.291,27.47A11.7454,11.7454,0,0,1,58.7792,24h-2.43a20.8439,20.8439,0,0,0,.8172,3.47c3.0122,9.2582,1.896,25.0629-.3631,39.53h3.3719C67.1185,52.5328,70.5492,36.7281,61.291,27.47Z"/>
    <path fill="#d22f27" d="M56.3489,24h2.43a7.1587,7.1587,0,0,1-.5732-2H56.1624A19.7444,19.7444,0,0,0,56.3489,24Z"/>
    <path fill="#d22f27" d="M56.173,20h2.0653a10.84,10.84,0,0,1,.5135-2H56.34C56.2656,18.6511,56.2059,19.3159,56.173,20Z"/>
    <path fill="#d0cfce" d="M55,4.9838h-.0007v.02c.0591.0038.1189.0044.1776.01A.636.636,0,0,0,55,4.9838Z"/>
  </g>
  <g id="line">
    <circle cx="19.9983" cy="52.0915" r="15" fill="none" stroke="#000" stroke-linecap="round" stroke-linejoin="round" stroke-width="2"/>
    <circle cx="16.197" cy="47.6524" r="2"/>
    <circle cx="19.777" cy="51.6524" r="2"/>
    <circle cx="12.4566" cy="53.6524" r="2"/>
    <path fill="none" stroke="#000" stroke-linecap="round" stroke-linejoin="round" stroke-width="2.3031" d="M8.7027,37.8423a19.06,19.06,0,0,1,5.2688-10.3984c6.8233-6.8233.445-11.226.336-16.1643l.0045.0261a6.3219,6.3219,0,0,1,6.3219-6.3219,6.4947,6.4947,0,0,1,6.3218,6.3219c-.1053,4.7754-6.0734,9.05-.2966,15.497"/>
    <path fill="none" stroke="#000" stroke-linecap="round" stroke-linejoin="round" stroke-width="2.3031" d="M26.3992,35.0074a18.4794,18.4794,0,0,1,4.5723-7.5635c6.8233-6.8233.445-11.226.336-16.1643l.0045.0261a6.3219,6.3219,0,0,1,6.3219-6.3219,6.4947,6.4947,0,0,1,6.3218,6.3219c-.1052,4.7674-6.0534,9.0357-.3255,15.4646"/>
    <path fill="none" stroke="#000" stroke-linecap="round" stroke-linejoin="round" stroke-width="2.3031" d="M49,67c-6.9436-14.4671-10.2867-30.298-1.0285-39.5561,6.8233-6.8233.445-11.226.336-16.1643l.0045.0261a6.3219,6.3219,0,0,1,6.3219-6.3219,6.4947,6.4947,0,0,1,6.3218,6.3219c-.1089,4.9383-6.4872,9.3409.3361,16.1642C70.55,36.7281,67.1192,52.5329,60.1756,67Z"/>
    <polyline fill="none" stroke="#000" stroke-linecap="round" stroke-linejoin="round" stroke-width="2.0967" points="32.321 65.557 32.703 66.902 42.547 66.902 43.784 63.329"/>
  </g>
</svg>
