<svg id="emoji" viewBox="0 0 72 72" version="1.1" xmlns="http://www.w3.org/2000/svg">
  <g id="color">
    <path fill="#6A462F" d="M43.9439,35.0722c0.504,0.5663,0.9593,1.183,0.9832,1.2502c0.4488,0.9423,0.5862,2.0227,0.3781,3.0953 c-0.0108,0.0656-0.1071,0.4973-0.161,0.6489c-0.01,0.0298-0.2472,0.5995-0.3817,0.8455c-0.0502,0.0895-0.0994,0.1783-0.1545,0.2638 c-0.6957,1.1809-1.7624,2.4803-2.6674,3.8946c-0.9569,1.4955-0.8246,2.1554-1.1615,2.9107 c-0.4395-0.367-0.9375-0.6771-1.5081-0.8813c-2.6-0.9304-5.4619,0.4231-6.3922,3.0231c-0.5809,1.6232-0.2712,3.3482,0.6759,4.6418 c-0.3025,0.2624-4.4344,3.1784-5.3895,4.0143c-4.2168,3.6905-9.84,3.5837-13.8775-0.2608l-0.3291-0.286 c-3.7426-4.1322-3.7091-9.7563,0.0855-13.8797c0.8594-0.934,3.8775-4.9919,4.1474-5.2877c1.2696,0.979,2.9864,1.3317,4.6236,0.7915 c2.6223-0.8652,4.0468-3.6924,3.1815-6.3149c-0.1898-0.5755-0.4874-1.081-0.8434-1.5296c0.7635-0.3179,1.4199-0.1692,2.9388-1.0885 c1.4364-0.8694,2.762-1.9034,3.9599-2.5694c0.0869-0.0529,0.1769-0.1,0.2676-0.1478c0.2493-0.1284,0.8247-0.3513,0.8548-0.3606 c0.1528-0.05,0.5868-0.1356,0.6527-0.1447c1.0774-0.1813,2.154-0.017,3.0848,0.4551c0.1104,0.0424,2.0447,1.6528,2.4301,2.3302"/>
    <polygon fill="#A57939" points="61.0609,11.9568 56.7439,14.0139 59.4094,16.071"/>
    <path fill="#A57939" d="M12.6194,56.683l4.2364-4.1571c0,0,1.3677-0.9057,2.7466,0.4679c1.3791,1.3736,0.4772,2.7472,0.4772,2.7472 l-3.9569,4.4273"/>
    <path fill="#A57939" d="M56.4282,18.3835c-0.3439,0.1023-0.9641-0.9583-1.2339-1.2338l-0.7138,0.2213l-22.718,20.9923 l1.8457,1.7656C33.6082,40.1289,56.2547,18.6534,56.4282,18.3835z"/>
  </g>
  <g id="hair"/>
  <g id="skin"/>
  <g id="skin-shadow"/>
  <g id="line">
    <line x1="55.1152" x2="56.3934" y1="21.4191" y2="22.7171" fill="none" stroke="#000000" stroke-linecap="round" stroke-linejoin="round" stroke-miterlimit="10" stroke-width="2"/>
    <line x1="51.0058" x2="52.132" y1="17.3261" y2="18.4697" fill="none" stroke="#000000" stroke-linecap="round" stroke-linejoin="round" stroke-miterlimit="10" stroke-width="2"/>
    <line x1="52.9868" x2="54.5177" y1="23.5176" y2="25.0872" fill="none" stroke="#000000" stroke-linecap="round" stroke-linejoin="round" stroke-miterlimit="10" stroke-width="2"/>
    <line x1="49.0002" x2="49.9045" y1="19.4768" y2="20.404" fill="none" stroke="#000000" stroke-linecap="round" stroke-linejoin="round" stroke-miterlimit="10" stroke-width="2"/>
    <line x1="62.609" x2="63.9803" y1="17.8319" y2="16.4945" fill="none" stroke="#000000" stroke-linecap="round" stroke-linejoin="round" stroke-miterlimit="10" stroke-width="2"/>
    <line x1="55.4605" x2="56.8318" y1="10.6958" y2="9.3584" fill="none" stroke="#000000" stroke-linecap="round" stroke-linejoin="round" stroke-miterlimit="10" stroke-width="2"/>
    <path fill="none" stroke="#000000" stroke-linecap="round" stroke-linejoin="round" stroke-miterlimit="10" stroke-width="2" d="M43.9439,35.0722c0.504,0.5663,0.9593,1.183,0.9832,1.2502c0.4488,0.9423,0.5862,2.0227,0.3781,3.0953 c-0.0108,0.0656-0.1071,0.4973-0.161,0.6489c-0.01,0.0298-0.2472,0.5995-0.3817,0.8455c-0.0502,0.0895-0.0994,0.1783-0.1545,0.2638 c-0.6957,1.1809-1.7624,2.4803-2.6674,3.8946c-0.9569,1.4955-0.8246,2.1554-1.1615,2.9107 c-0.4395-0.367-0.9375-0.6771-1.5081-0.8813c-2.6-0.9304-5.4619,0.4231-6.3922,3.0231c-0.5809,1.6232-0.2712,3.3482,0.6759,4.6418 c-0.3025,0.2624-4.4344,3.1784-5.3895,4.0143c-4.2168,3.6905-9.84,3.5837-13.8775-0.2608l-0.3291-0.286 c-3.7426-4.1322-3.7091-9.7563,0.0855-13.8797c0.8594-0.934,3.8775-4.9919,4.1474-5.2877c1.2696,0.979,2.9864,1.3317,4.6236,0.7915 c2.6223-0.8652,4.0468-3.6924,3.1815-6.3149c-0.1898-0.5755-0.4874-1.081-0.8434-1.5296c0.7635-0.3179,1.4199-0.1692,2.9388-1.0885 c1.4364-0.8694,2.762-1.9034,3.9599-2.5694c0.0869-0.0529,0.1769-0.1,0.2676-0.1478c0.2493-0.1284,0.8247-0.3513,0.8548-0.3606 c0.1528-0.05,0.5868-0.1356,0.6527-0.1447c1.0774-0.1813,2.154-0.017,3.0848,0.4551c0.1104,0.0424,2.0447,1.6528,2.4301,2.3302 L43.9439,35.0722z"/>
    <line x1="29.2127" x2="25.7589" y1="48.9006" y2="53.0395" fill="none" stroke="#000000" stroke-linecap="round" stroke-linejoin="round" stroke-miterlimit="10" stroke-width="2"/>
    <line x1="19.953" x2="24.2662" y1="47.2105" y2="43.9772" fill="none" stroke="#000000" stroke-linecap="round" stroke-linejoin="round" stroke-miterlimit="10" stroke-width="2"/>
    <polygon fill="none" stroke="#000000" stroke-linecap="round" stroke-linejoin="round" stroke-miterlimit="10" stroke-width="2" points="58.9788,16.5412 56.5197,14.0821 60.6872,11.3288 61.7321,12.3737"/>
    <polyline fill="none" stroke="#000000" stroke-linecap="round" stroke-linejoin="round" stroke-miterlimit="10" stroke-width="2" points="32.5021,37.7866 54.5546,16.7036 55.6563,17.8332"/>
    <path fill="none" stroke="#000000" stroke-linecap="round" stroke-linejoin="round" stroke-miterlimit="10" stroke-width="2" d="M13.2067,56.236l3.6146-3.4557c0,0,1.1839-0.7649,2.4343,0.4856c1.2505,1.2505,0.4891,2.4411,0.4891,2.4411l-3.3616,3.7022"/>
    <path fill="none" stroke="#000000" stroke-linecap="round" stroke-linejoin="round" stroke-miterlimit="10" stroke-width="2" d="M28.083,44.0587c0.3876,0.3232,0.7483,0.674,1.0798,1.0485"/>
  </g>
</svg>
