<svg id="emoji" viewBox="0 0 72 72" version="1.1" xmlns="http://www.w3.org/2000/svg">
  <g id="color">
    <path fill="#A57939" d="m54 49c-1-2 4-5 4-8 0-1.601-1-6-5-7-1.725-0.4316-3.981-1.442-6.166-1.314-9.522 0.5635-15.21 2.938-18.83 2.001-0.9687-0.25-8.812-8-9.375-8.688l-3.5-3.406-0.4609 3.698c-3.167 2.125-3.664 3.708-8.664 7.708-0.5527 0.4424 1.314 2.172 2 2 4-1 8-1 8-1s1.898 6.183 2 8c0.1133 1.997 0 6 1 7 1.581 1.581 3 2 3 2s-2 4-3 6c-0.6328 1.265-0.3535 2.646 0 3 2 2 8 4 8 4l1-3s-5-2-5-3c0-1.129 4-4 5-6 0 0 6.56-0.4023 9-1 1.69-0.4141 7.038-2.797 10.61-4.432 1.781 2.58 4.178 5.71 4.178 6.432l-4 5 2 1s5-4 6-5c0.3535-0.3535 0.1914-1.538 0-2-0.541-1.307-1.158-2.735-1.791-4z"/>
    <path fill="#6A462F" d="m48 49s-2.143 6.789-3 9c-0.8906 2.296-2 8-2 8l4.167-1.167 2.417-4.917-1.25-0.166v-2.584l2.916-3.041"/>
    <path fill="#6A462F" d="m56 35h2s7 3 6 7c-0.7275 2.91-4.126 5.583 0.874 10.58 0 0 0.709 2.834-2.041 2.042 0 0-2.379-0.9268-3.375-4.083-1.75-5.542 1.651-8.183 1-10.21-0.375-1.166-2.334-1.125-2.334-1.125"/>
    <path fill="#6A462F" d="m21.28 52.12-1.094 2.938c-0.625 0.2188-4.422 1.535-4.281 2.719 0.2187 1.844-0.9063 7.219-0.9063 7.219l-2 1s-2-8-2-9c0-0.79 0-2 1-3s6-4 6-4"/>
  </g>
  <g id="skin">
    <path fill="#c19a65" d="m46 44"/>
    <path fill="#c19a65" d="m48 48"/>
    <circle cx="21.66" cy="21.52" r="2.969" fill="#c19a65"/>
    <path fill="#c19a65" d="m33.22 24.95 6.506 1.069-8.31 4.808-0.2061 2.032 0.2913 9.369 3.5-0.7271 0.09908-7.254c6.802-2.592 12.3-5.421 10.5-9.565l-2.192-3.898-14.98 0.1588-1.437 2.535 3.019 4.311-5.512 0.4391c-0.4757 0.8527 0.0585 2.702 1.089 2.748 1.927 0.1191 3.802 0.113 5.258-0.2418 1.919-0.5771 2.773-1.593 2.971-3.333-0.6014-2.452-0.3161-1.728-0.6014-2.452z"/>
  </g>
  <g id="line" stroke-miterlimit="10">
    <circle cx="21.6" cy="20.81" r="2.969" fill="none" stroke="#000" stroke-miterlimit="10" stroke-width="2"/>
    <path fill="none" stroke="#000" stroke-linecap="round" stroke-linejoin="round" stroke-miterlimit="10" stroke-width="2" d="m25.37 28.59c3.052-0.03019 6.105 0.4847 4.513-1.838-2.223-2.713-2.706-1.703-2.425-4.755 0.4231-1.015 1.382-2.002 2.482-2.016 4.442-0.1066 8.627 0.7864 12.82 1.604 0.8095 0.2614 1.704 0.644 2.312 1.698 0.5417 0.9581 0.8023 1.671 0.7088 2.766 0 0-0.1072 1.838-0.7403 2.659-2.226 2.886-8.516 4.081-9.837 5.261l-0.2472 4.9c-0.07315 1.487-0.2026 3.366-1.573 3.496-1.683 0.1602-2.163-1.292-2.203-2.852 0 0-0.1731-5.068-0.1775-5.869-0.0045-0.8015 0.7853-2.355 1.535-3.049s0.2151-0.4125 1.889-1.168l4.747-2.148c1.495-1.187 0.9134-1.546 0.07506-1.779-0.8383-0.2324-5.126-0.6471-5.126-0.6471"/>
    <path fill="none" stroke="#000" stroke-linecap="round" stroke-linejoin="round" stroke-width="2" d="m46 44"/>
    <path fill="none" stroke="#000" stroke-linecap="round" stroke-linejoin="round" stroke-width="2" d="m48 48"/>
    <path fill="none" stroke="#000" stroke-linecap="round" stroke-linejoin="round" stroke-width="2" d="m27 35c-1-1-3.451-4.45-6-7-1-1-3-2-3-2l-2-3"/>
    <path fill="none" stroke="#000" stroke-linecap="round" stroke-linejoin="round" stroke-width="2" d="m46 40s-1 3 0 5c1.188 2.377 5.791 8 5.791 9l-2.791 3s-1.138 0.748-1.124 1.376c0.041 1.917 1.915 1.624 1.915 1.624s6.378-5.564 6.209-6c-0.5107-1.319-1.367-3.735-2-5-1-2 4-5 4-8 0-1.601-1-6-5-7-1.725-0.4316-3.773-0.4912-5.958-0.3486"/>
    <path fill="none" stroke="#000" stroke-linecap="round" stroke-linejoin="round" stroke-width="2" d="m24 64c-1.8-0.7598-3.957-1.957-5-3-0.3535-0.3535-0.6328-1.735 0-3l3-6s-1.419-0.4189-3-2c-1-1-0.8867-5.003-1-7-0.1025-1.817-2-8-2-8s-4 0-8 1c-0.6855 0.1719-2.553-1.558-2-2 5-4 5-4 8-6"/>
    <path fill="none" stroke="#000" stroke-linecap="round" stroke-linejoin="round" stroke-width="2" d="m26 61s0.5527 0.5254 1.23 1.166c0.6758 0.6416 0.6943 1.72 0.042 2.396-0.6543 0.6758-1.656 0.8252-2.23 0.333s-1.042-0.8955-1.042-0.8955"/>
    <path fill="none" stroke="#000" stroke-linecap="round" stroke-linejoin="round" stroke-width="2" d="m47 48s-7.385 3.359-10 4c-2.44 0.5977-9 1-9 1-4 4-5 6-5 6s1.629 1.342 3 2"/>
    <path fill="none" stroke="#000" stroke-linecap="round" stroke-linejoin="round" stroke-width="2" d="m48 49s-2.143 6.789-3 9c-0.4707 1.213-0.6182 1.922-1.542 3.958-0.8242 1.816-0.9101 2.118-0.9101 2.118-0.3018 1.059 0.1269 2.148 0.9521 2.424s1.9-0.3066 2.389-1.292l1.049-2.114"/>
    <path fill="none" stroke="#000" stroke-linecap="round" stroke-linejoin="round" stroke-width="2" d="m15 62v2c0 1.1-0.6748 2-1.5 2s-1.5-0.7002-1.5-1.557v-2.401"/>
    <path fill="none" stroke="#000" stroke-linecap="round" stroke-linejoin="round" stroke-width="2" d="m18 50s-5 3-6 4-1 2.21-1 3c0 0.5176 0.4834 2.854 1 5.042"/>
    <path fill="none" stroke="#000" stroke-linecap="round" stroke-linejoin="round" stroke-width="2" d="m55.68 35.03 2.32-0.03202s7 3 6 7c-0.7275 2.91-5 6 0 11"/>
    <line x1="15" x2="15" y1="58" y2="62" fill="none" stroke="#000" stroke-linecap="round" stroke-linejoin="round" stroke-width="2"/>
  </g>
</svg>
