<svg id="emoji" viewBox="0 0 72 72" xmlns="http://www.w3.org/2000/svg">
  <g id="color"/>
  <g id="skin">
    <circle cx="33.7452" cy="9.1038" r="2.8598" fill="#6a462f"/>
    <path fill="#6a462f" d="M28.2163,17.5879c-3.9085.4766-5.529.1906-6.101-.572-.4766-.7626-.1906-4.29-.3813-8.3888L19.6368,7.4832V17.8738L20.9714,19.78l4.957.7626,1.2392-.572Z"/>
    <path fill="#6a462f" d="M23.2592,9.0084l1.9066,4.7664,9.5327,2.86.9533,2.86L34.6985,29.98l.9533,3.8131.9532,13.3458,3.8131,15.2523h-2.86l-5.72-15.2523-1.9066-10.486h-.9532l-.9533,9.5327L26.1191,62.3916h-2.86V45.2327L24.2125,32.84l1.9066-8.5794,2.0972-6.5776c-.7627-.286-3.3365-.858-4.3851-2.0972S20.6854,10.057,20.59,8.5318"/>
  </g>
  <g id="line">
    <path fill="none" stroke="#000" stroke-linecap="round" stroke-linejoin="round" stroke-width="2" d="M40.2274,11.6776,50.904,13.7748l.9533,2.86c.9533,1.9065-1.9065,2.86-2.86,0"/>
    <path fill="none" stroke="#000" stroke-linecap="round" stroke-linejoin="round" stroke-width="2" d="M16.5863,7.1019l10.486,2.0019"/>
    <path fill="none" stroke="#000" stroke-linecap="round" stroke-linejoin="round" stroke-width="2" d="M28.0256,18.5411,26.691,22.45c-.286.9533-.7626,2.6692-1.0486,3.6225l-1.0486,4.8617c-.1906,1.0486-.4766,2.6691-.5719,3.7177l-.6673,8.5795c-.0954,1.0486-.1907,2.7644-.1907,3.813V60.39c0,1.0486.6673,1.9066,1.43,1.9066A1.9638,1.9638,0,0,0,26.2144,60.39l1.43-12.3925c.0953-1.0486.286-2.7645.3813-3.8131l.572-5.72c.0953-1.0486.3813-1.9065.6672-1.9065s.6673.8579.858,1.9065l1.2392,6.7682a22.6577,22.6577,0,0,0,1.0486,3.6225L36.7957,60.58a2.8,2.8,0,0,0,2.0972,1.8112c.7626,0,1.2392-.8579.9533-1.8112l-2.86-11.5346a25.07,25.07,0,0,1-.5719-3.7178l-.6673-9.5327c-.0953-1.0486-.3813-2.7644-.572-3.7177v-.0953a12.2615,12.2615,0,0,1-.286-3.7178l.572-6.6729a9.2911,9.2911,0,0,0-.286-3.3364,4.0017,4.0017,0,0,0-2.2878-2.0019l-5.91-1.8112a4.6631,4.6631,0,0,1-2.5738-2.2879l-1.144-3.1458"/>
    <circle cx="33.7452" cy="9.1038" r="3" fill="none" stroke="#000" stroke-miterlimit="10" stroke-width="2"/>
    <path fill="none" stroke="#000" stroke-linecap="round" stroke-linejoin="round" stroke-width="2" d="M27.0723,20.4477l-4.7663-.572a3.3716,3.3716,0,0,1-2.86-3.2411V8.0552"/>
  </g>
</svg>
