<svg id="emoji" viewBox="0 0 72 72" xmlns="http://www.w3.org/2000/svg">
  <g id="color">
    <path fill="#92D3F5" stroke="none" d="M67.958,35.958C59.958,35.958,57,39,52,39s-10-3-16-3s-10,3-16,3S7,36,4,36c0,0,0,9.916,0,11.666 C4,49.082,5.4189,56,11,56c5.6689,0,19.0635,0,24.9795,0c3.083,0,20.1035,0,26.1035,0c5.832,0,5.876-4.834,5.876-9.5215 C67.959,43.8125,67.958,35.958,67.958,35.958z"/>
  </g>
  <g id="hair"/>
  <g id="skin">
    <circle cx="19.3857" cy="33.0625" r="2.9687" fill="#fadcbc" stroke="#fadcbc"/>
    <path fill="#fadcbc" stroke="#fadcbc" d="M43.6875,37.3125c0,0-6.4795-4.4795-8-6c-0.3437-0.3437-0.4502-0.9258-0.8125-1.7812 c-0.3437-0.8125,1.2012-3.731,2.7188-3.5625c1.125,0.125,2.5898,0.8134,4.7187,1.7812c1.375,0.625,2.1563-0.5937,2.5625-1.3125 l-7.75-3.6562l-5.1562,4.5312l-3.5625,3.625l-2.875,7.1875l3.125-0.7187l7.6562-1.3438L43.6875,37.3125z"/>
  </g>
  <g id="skin-shadow"/>
  <g id="line">
    <circle cx="19.3857" cy="33.0625" r="2.9687" fill="none" stroke="#000000" stroke-miterlimit="10" stroke-width="2"/>
    <path fill="none" stroke="#000000" stroke-linecap="round" stroke-linejoin="round" stroke-miterlimit="10" stroke-width="2" d="M5,36c3,0,9,3,15,3s10-3,16-3s11,3,16,3s7-3,15-3"/>
    <path fill="none" stroke="#000000" stroke-linecap="round" stroke-linejoin="round" stroke-miterlimit="10" stroke-width="2" d="M46.0059,43.9639C48.0449,44.5313,50.0225,45,52,45c2.7441,0,4.585-0.9043,7.0088-1.7197"/>
    <path fill="none" stroke="#000000" stroke-linecap="round" stroke-linejoin="round" stroke-miterlimit="10" stroke-width="2" d="M12.7773,43.8867C15.0439,44.4883,17.5225,45,20,45c6,0,10-3,16-3"/>
    <path fill="none" stroke="#000000" stroke-linecap="round" stroke-linejoin="round" stroke-miterlimit="10" stroke-width="2" d="M26.001,50.959c3.208-0.8828,6.2031-2.084,9.999-2.084c4.4063,0,8.2734,1.6182,11.9971,2.4775"/>
    <path fill="none" stroke="#000000" stroke-linecap="round" stroke-linejoin="round" stroke-miterlimit="10" stroke-width="2" d="M26,38c1-3,0.9912-5.9912,4-9c2-2,5-6,7-6s7,3,7,3"/>
    <path fill="none" stroke="#000000" stroke-linecap="round" stroke-linejoin="round" stroke-miterlimit="10" stroke-width="2" d="M43,37c0,0-5.1572-3.8906-7-5c-1.916-1.1533-2-2-2-2"/>
  </g>
</svg>
