<svg id="emoji" viewBox="0 0 72 72" xmlns="http://www.w3.org/2000/svg">
  <g id="color">
    <path fill="#D0CFCE" stroke="none" d="M53.9375,15.7813L57,16l1,3c1,2-2.9687,3.1875-3.9687,0.1875"/>
  </g>
  <g id="hair"/>
  <g id="skin">
    <circle cx="38.9688" cy="11.0938" r="3" fill="#c19a65" stroke="#c19a65"/>
    <path fill="#c19a65" stroke="#c19a65" d="M29.9834,51.5381"/>
    <path fill="#c19a65" stroke="#c19a65" d="M33.1563,20c-4.0625,0.4688-5.8233,0.2085-6.3643-0.625c-0.5137-0.792-0.209-4.4585-0.375-8.75 l-2.25-1.1665l-0.042,10.875l1.417,2l5.25,0.7915l1.333-0.5835L33.1563,20z"/>
    <path fill="#c19a65" stroke="#c19a65" d="M28,11l2,5l10,3l1,3l-1,11l1,4l1,14l4,16h-3l-6-16l-2-11h-1l-1,10l-2,17h-3V49l1-13l2-9l2.25-6.9375 c-0.8437-0.2812-3.4687-0.9062-4.5937-2.1562s-3.3331-5.8335-3.3643-7.3648"/>
  </g>
  <g id="skin-shadow"/>
  <g id="line">
    <path fill="none" stroke="#000000" stroke-linecap="round" stroke-linejoin="round" stroke-miterlimit="10" stroke-width="2" d="M29.9834,51.5381"/>
    <path fill="none" stroke="#000000" stroke-linecap="round" stroke-linejoin="round" stroke-miterlimit="10" stroke-width="2" d="M33,21l-1.3672,4.1025c-0.3476,1.0435-0.8281,2.7759-1.0664,3.8496l-1.1328,5.0958c-0.2383,1.0732-0.502,2.8496-0.5869,3.9462 l-0.6934,9.0118C28.0684,48.1025,28,49.9004,28,51v14c0,1.0996,0.6758,2,1.5,2c0.8242,0,1.6045-0.8936,1.7334-1.9863 l1.5322-13.0274c0.1289-1.0927,0.3233-2.8818,0.4336-3.9765l0.6016-6.0196C33.9102,40.8955,34.2246,40,34.5,40 c0.2754,0,0.6611,0.8857,0.8574,1.9678l1.2852,7.0644c0.1963,1.0821,0.6738,2.8106,1.0595,3.8408l4.5958,12.254 C42.6836,66.1572,43.6748,67,44.5,67c0.8252,0,1.2813-0.873,1.0146-1.9404l-3.0292-12.1192 c-0.2666-1.0674-0.5499-2.8379-0.628-3.9355l-0.7148-10.0098c-0.0781-1.0976-0.3613-2.8681-0.628-3.9355l-0.0292-0.1192 c-0.2666-1.0674-0.4043-2.8369-0.3047-3.9326l0.6386-7.0161c0.0996-1.0952-0.0439-2.6665-0.3193-3.4917 c-0.2754-0.8252-1.3623-1.7588-2.416-2.0747l-6.168-1.8506c-1.0547-0.3159-2.25-1.4101-2.6582-2.4316L28,11"/>
    <circle cx="38.9688" cy="11.0938" r="3" fill="none" stroke="#000000" stroke-miterlimit="10" stroke-width="2"/>
    <path fill="none" stroke="#000000" stroke-linecap="round" stroke-linejoin="round" stroke-miterlimit="10" stroke-width="2" d="M32,23l-5.0234-0.6279C25.3398,22.1675,24,20.6499,24,19v-9"/>
    <path fill="none" stroke="#000000" stroke-linecap="round" stroke-linejoin="round" stroke-miterlimit="10" stroke-width="2" d="M45.7666,13.8164L57,16l1,3c1,2-2,3-3,0"/>
    <line x1="21" x2="31.9736" y1="9" y2="11.1343" fill="none" stroke="#000000" stroke-linecap="round" stroke-linejoin="round" stroke-miterlimit="10" stroke-width="2"/>
  </g>
</svg>
