<svg id="emoji" viewBox="0 0 72 72" xmlns="http://www.w3.org/2000/svg">
  <g id="skin">
    <circle cx="33.5589" cy="8.7501" r="2.8598" fill="#fadcbc"/>
    <path fill="#fadcbc" d="M41.2252,21.7565A38.5074,38.5074,0,0,0,40.21,29.785c-.0095,1.9332.52,3.3974.4538,5.3335l.6873,8.01s-1.2612,9.36-1.9247,11.3992c-.2945.9065-2.0543.8369-2.0543.8369V42.9725l-1.9065-7.6262h-.9533l-5.72,7.6262L24.98,52.5052s-1.36-.4089-1.4337-1.3593c-.1583-2.0658,1.5881-11.0637,1.5881-11.0637l4.612-8.5489,1.9065-4.7664.04-3.6148A21.4423,21.4423,0,0,0,29.09,20.5849c-.88-.6768-1.8226-.7769-4.0152.3671a20.9394,20.9394,0,0,1-6.7682,2.0018c-1.43.0954-6.3869,0-6.7682,0a1.7742,1.7742,0,0,1-1.9037-1.9361s8.2906.03,9.8158-.5424,9.7234-3.9084,9.7234-3.9084L43.187,15.3277l11.4392,6.3869,3.672,1.4928s-.4308,1.9389-2.814,1.1763a31.64,31.64,0,0,1-5.6014-2.4117c-1.8427-1.08-3.1516-2.0877-4.8169-3.1735a2.4631,2.4631,0,0,0-2.1411-.162,1.577,1.577,0,0,0-1.2745,1.407C41.5226,20.56,41.3548,21.1912,41.2252,21.7565Z"/>
  </g>
  <g id="color">
    <path fill="#92d3f5" stroke="#92d3f5" stroke-miterlimit="10" stroke-width="2" d="M32.7567,61.1383a13.81,13.81,0,0,0,6.5219-.0536l4.7663-1.9066,4.7664-5.72a28.1609,28.1609,0,0,0,2.86-5.72c.9533-2.86,1.9065-3.4318,2.6692-3.4318a4.1682,4.1682,0,0,1,1.7158.572s.6673,2.0972.1907,2.86c0,0-2.0019,3.05-1.43,2.3831a17.1822,17.1822,0,0,1,2.4785-.3813c.7626,0,3.5271.3813,3.8131,2.2879a3.6809,3.6809,0,0,0,1.0486,2.86c.9638,1.417,1.2817,3.014.6673,3.8131-.7853,1.0212-3.3652,1.0927-5.6353-.9188q-.6743-.4473-1.3474-.8924-1.0855-.7178-2.1687-1.43s-2.1926,1.3345-4.957,3.2411a16.7389,16.7389,0,0,1-7.812,3.1847,15.2771,15.2771,0,0,1-6.0707-.427"/>
  </g>
  <g id="line">
    <path fill="none" stroke="#000" stroke-linecap="round" stroke-linejoin="round" stroke-width="2" d="M5.7237,52.6959s2.2879,1.2392,8.77,2.6691a210.2877,210.2877,0,0,0,21.7346,3.05"/>
    <path fill="none" stroke="#000" stroke-linecap="round" stroke-linejoin="round" stroke-width="2" d="M51.6711,47.7389s.9536-3.6755,2.86-3.6755a2.1691,2.1691,0,0,1,1.2741.49,2.516,2.516,0,0,1,.5977,2.6681"/>
    <path fill="none" stroke="#000" stroke-linecap="round" stroke-linejoin="round" stroke-width="2" d="M50.5013,57.49a4.6978,4.6978,0,0,1,5.044-.7656"/>
    <path fill="none" stroke="#000" stroke-linecap="round" stroke-linejoin="round" stroke-width="2" d="M58.4333,58.6594s3.1458,2.1926,4.1944.6673c.572-.8579.858-2.86-2.0018-3.7177"/>
    <path fill="none" stroke="#000" stroke-linecap="round" stroke-linejoin="round" stroke-width="2" d="M32.6933,61.1256a13.6291,13.6291,0,0,0,9.1922-1.0837c3.5271-2.3832,5.9728-8.49,14.5522-9.4432"/>
    <circle cx="33.5589" cy="8.7501" r="3" fill="none" stroke="#000" stroke-miterlimit="10" stroke-width="2"/>
    <path fill="none" stroke="#000" stroke-linecap="round" stroke-linejoin="round" stroke-width="2" d="M10.5851,21.0473h4.8617a18.6309,18.6309,0,0,0,8.5794-2.3832,22.68,22.68,0,0,1,7.6262-2.86,77.4464,77.4464,0,0,1,8.5794-.4766,13.6688,13.6688,0,0,1,7.6262,2.3831,30.1609,30.1609,0,0,0,6.1963,3.8131c1.8112.7626,3.3364,1.43,3.3364,1.43"/>
    <path fill="none" stroke="#000" stroke-linecap="round" stroke-linejoin="round" stroke-width="2" d="M40.7661,20.0435s-1.052,7.93-.9934,10.03a21.2083,21.2083,0,0,0,.5105,3.8426A92.3713,92.3713,0,0,1,40.82,44.8791l-1.0976,8.5794c-.1722,1.0486-.8609,1.9065-1.55,1.9065s-1.2914-.8579-1.2914-1.9065V44.8791a17.5053,17.5053,0,0,0-.43-3.7178L35.59,37.2529c-.2583-1.0486-.6027-1.8112-.8609-1.8112s-5.7956,5.4126-6.3508,7.3163c-.4,1.3737-1.8725,7.8655-1.8725,7.8655-.2574.9637-.9452,1.6186-1.6916,1.469-.7637-.1526-1.0038-1.1935-.96-2.1354a77.0643,77.0643,0,0,1,.9909-8.3344c.65-1.9294,4.6359-8.0838,4.6359-8.0838A15.2485,15.2485,0,0,0,31.1551,29.75a21.3952,21.3952,0,0,0,.6465-5.652,5.3294,5.3294,0,0,0-.8609-2.86,5.107,5.107,0,0,0-.8609-.9532"/>
    <path fill="none" stroke="#000" stroke-linecap="round" stroke-linejoin="round" stroke-width="2" d="M37.5121,7.7205s.5967-.278.9542.0183c.4208.3477.7069,1.6491,1.2044,2.2121a3.3631,3.3631,0,0,0,1.87,1.1052"/>
  </g>
</svg>
