<svg id="emoji" viewBox="0 0 72 72" xmlns="http://www.w3.org/2000/svg">
  <g id="color">
    <path fill="#9B9B9A" stroke="none" d="M65.4897,62.0277v3.6853c0,1.0376-4.2382,1.8788-9.4662,1.8788s-9.4662-0.8412-9.4662-1.8788v-3.6853"/>
    <ellipse cx="56.0235" cy="61.6358" rx="9.4662" ry="1.8788" fill="#D0CFCE" stroke="none"/>
    <path fill="#A57939" stroke="none" d="M33.1938,56.7781c-0.4812,0.7463-1.3198,1.2404-2.2739,1.2404h0.0211H7.056 c-1.6851,0-3.0639,1.3788-3.0639,3.0639v2.5609c0,1.6852,1.3788,3.0639,3.0639,3.0639h24.2974 c1.1031,0,2.0849-0.5854,2.6246-1.4662l0,0L67.7809,7.9113c0.5557-0.9425,0.2392-2.1682-0.7033-2.7239l-0.4284-0.2525 l-0.4284-0.2526c-0.9424-0.5557-2.1682-0.2392-2.7239,0.7033L33.1938,56.7781z"/>
    <path fill="#6A462F" stroke="none" d="M67.0776,5.191l-0.3991-0.2353L33.3233,61.4713c-0.5397,0.8809-1.5214,1.4662-2.6246,1.4662h-9.8002 H6.4013H3.3374v1.765c0,1.6852,2.0335,2.0082,3.7186,2.0082h24.2974c1.1031,0,2.0848-0.5854,2.6246-1.4662l31.9985-52.2915 l2.5308-4.3117C69.063,7.6987,68.0201,5.7466,67.0776,5.191z"/>
  </g>
  <g id="hair"/>
  <g id="skin"/>
  <g id="skin-shadow"/>
  <g id="line">
    <path fill="none" stroke="#000000" stroke-linecap="round" stroke-linejoin="round" stroke-miterlimit="10" stroke-width="2" d="M67.2748,8.7696l0.5061-0.8583c0.5557-0.9425,0.2392-2.1682-0.7033-2.7239l-0.4284-0.2525l-0.4284-0.2526 c-0.9424-0.5557-2.1682-0.2392-2.7239,0.7033L33.1938,56.7781c-0.4812,0.7463-1.3198,1.2404-2.2739,1.2404h0.0211H7.056 c-1.6851,0-3.0639,1.3788-3.0639,3.0639v2.5609c0,1.6852,1.3788,3.0639,3.0639,3.0639h24.2974 c1.1031,0,2.0849-0.5854,2.6246-1.4662l0,0l31.2688-53.0318"/>
    <path fill="none" stroke="#000000" stroke-linecap="round" stroke-linejoin="round" stroke-miterlimit="10" stroke-width="1.9" d="M65.4897,61.6258v3.9515c0,1.1126-4.2382,2.0145-9.4662,2.0145s-9.4662-0.9019-9.4662-2.0145v-3.9515"/>
    <ellipse cx="56.0235" cy="61.6358" rx="9.4662" ry="1.8788" fill="none" stroke="#000000" stroke-linecap="round" stroke-linejoin="round" stroke-miterlimit="10" stroke-width="1.9"/>
  </g>
</svg>
