<svg id="emoji" viewBox="0 0 72 72" xmlns="http://www.w3.org/2000/svg">
  <g id="color">
    <g>
      <g>
        <path fill="#d0cfce" stroke="#d0cfce" stroke-linecap="round" stroke-linejoin="round" stroke-width="1.5" d="M48.4009,52.2372a2.4286,2.4286,0,1,0-4.8-.0008v.4452l0,3.1548L37.9987,67.0356l3.2.0005,1.6-1.6,1.6,1.6,1.6-1.6,1.6,1.6,1.6-1.6,1.6,1.6,3.2.0005L48.4,55.8372l0-3.1548Z"/>
        <path fill="#d22f27" d="M49.1757,53.4373l0,2.4s-6.35-.0118-6.35-.001l0-2.4Z"/>
      </g>
      <polygon fill="#9b9b9a" stroke="#9b9b9a" stroke-linecap="round" stroke-linejoin="round" stroke-width="2" points="23.641 67.036 23.641 53.202 24.495 46.505 26.517 46.505 27.37 53.202 27.37 67.036 23.641 67.036"/>
      <rect x="24.7518" y="29.5072" width="1.5" height="16" fill="#3f3f3f"/>
      <g>
        <line x1="25.6963" x2="25.6963" y1="4.5" y2="28.5" fill="none" stroke="#d0cfce" stroke-miterlimit="10" stroke-width="1.5"/>
        <line x1="22.6963" x2="22.6963" y1="5" y2="28" fill="none" stroke="#d0cfce" stroke-miterlimit="10" stroke-width="1.5"/>
        <line x1="19.6963" x2="19.6963" y1="7.5" y2="25.5" fill="none" stroke="#d0cfce" stroke-miterlimit="10" stroke-width="1.5"/>
        <line x1="28.6963" x2="28.6963" y1="5" y2="28" fill="none" stroke="#d0cfce" stroke-miterlimit="10" stroke-width="1.5"/>
        <line x1="31.6963" x2="31.6963" y1="7.5" y2="25.5" fill="none" stroke="#d0cfce" stroke-miterlimit="10" stroke-width="1.5"/>
        <line x1="16.2518" x2="34.2518" y1="14" y2="14" fill="none" stroke="#d0cfce" stroke-miterlimit="10" stroke-width="1.5"/>
        <line x1="16.2518" x2="34.2518" y1="17" y2="17" fill="none" stroke="#d0cfce" stroke-miterlimit="10" stroke-width="1.5"/>
        <line x1="16.7518" x2="33.7518" y1="20" y2="20" fill="none" stroke="#d0cfce" stroke-miterlimit="10" stroke-width="1.5"/>
        <line x1="17.7518" x2="33.2518" y1="11" y2="11" fill="none" stroke="#d0cfce" stroke-miterlimit="10" stroke-width="1.5"/>
        <line x1="19.2518" x2="31.2518" y1="8" y2="8" fill="none" stroke="#d0cfce" stroke-miterlimit="10" stroke-width="1.5"/>
        <line x1="19.2518" x2="31.2518" y1="26" y2="26" fill="none" stroke="#d0cfce" stroke-miterlimit="10" stroke-width="1.5"/>
        <line x1="17.2518" x2="33.2518" y1="23" y2="23" fill="none" stroke="#d0cfce" stroke-miterlimit="10" stroke-width="1.5"/>
      </g>
      <ellipse cx="25.7518" cy="16.8421" rx="9" ry="11.8421" fill="none" stroke="#3f3f3f" stroke-miterlimit="10" stroke-width="2"/>
    </g>
  </g>
  <g id="line">
    <g>
      <path fill="none" stroke="#000" stroke-linecap="round" stroke-linejoin="round" stroke-width="1.5" d="M48.4009,52.2372a2.4286,2.4286,0,1,0-4.8-.0008v.4452l0,3.1548-2.05,4.0979-.4957.991-3.0563,6.11,3.2.0005,1.6-1.6,1.6,1.6,1.6-1.6,1.6,1.6,1.6-1.6,1.6,1.6,3.2.0005L50.9358,60.91l-.5629-1.1263L48.4,55.8372l0-3.1548Z"/>
      <path fill="none" stroke="#000" stroke-miterlimit="10" stroke-width="1.5" d="M48.4007,53.4372l0,2.4s-4.8-.0116-4.8-.0008l0-2.4Z"/>
    </g>
    <g>
      <polyline fill="none" stroke="#000" stroke-linecap="round" stroke-linejoin="round" stroke-width="2" points="24.22 48.658 23.641 53.203 23.641 67.037 27.37 67.037 27.37 53.203"/>
      <rect x="24.7518" y="29.5072" width="1.5" height="16"/>
      <ellipse cx="25.7518" cy="16.8421" rx="9" ry="11.8421" fill="none" stroke="#000" stroke-miterlimit="10" stroke-width="2"/>
    </g>
  </g>
</svg>
