<svg id="emoji" viewBox="0 0 72 72" xmlns="http://www.w3.org/2000/svg">
  <g id="color">
    <path fill="#F4AA41" stroke="none" d="M17.2127,12.75l-1.0877,5l-2.2873,0.5625L12.002,20.305l-5.4986,0.6325l-0.3532,1.5l1.8421,3.0837 L15,27.3125l0.9529,9.8949l0.6348,3.9176l4.9409,3.7104l1.9909,6.1514l-0.7999,7.5348l0.7999,3.4576l2.5682-1.1364l1.8939-4.9315 L30.0877,46.5l3.3698,0.875l7.5502-0.875l8.0799-2.1875l2.9401,3.8826l2.9349,3.9953l0.4375,7.6221l1.1875,2.0921l3.1135-0.9228 L60,51.7255l-1.9497-6.1068l1.2924-6.7437l-0.9426-3.4375l1-0.0625l-0.625-2.0625c0,0,5.2823-4.222,5.3125-9.875 c0.038-7.1042-7.2917-13.6042-12.5833-11.1042l1.1133,1.206L56.8377,15l2.9569,3.9292l0.2594,5.8833l-2.8497,2.9946 c0,0-3.4179,1.3181-3.6082,1.3356c-0.1902,0.0176-3.3571-0.3725-3.7821-0.437c-0.425-0.0645-7.6642-0.2238-7.9142-0.2257 C41.6499,28.4782,28,28.375,28,28.375l-1.7632-5.0032l-2.0795-2.8127l-2.3318-1.6423l-1.1121-2.9453L19.5877,13.75L17.2127,12.75z"/>
    <path fill="#E27022" stroke="none" d="M44.296,45.1562l1.2083,3.5938l4.2567,2.9475l-0.2439,6.3442l0.6122,3.863l3.1667,0.512 c0,0,2.25-0.6667,2.7917-3.5833l-0.75-7.875l-3.5-3.5l-2.5417-4.2917L44.296,45.1562z"/>
    <path fill="#E27022" stroke="none" d="M16.6754,39.7993l-5.5255,7.6721c-0.0134,0.0187-0.0215,0.0407-0.0232,0.0636L10.7995,51.83 c-0.0022,0.0291,0.0058,0.0581,0.0227,0.0819l3.1895,4.498c0.0218,0.0307,0.0562,0.05,0.0937,0.0525l3.9491,0.2649 c0.0461,0.0031,0.0902-0.0195,0.1146-0.0587l1.1604-1.8636c0.0055-0.0088,0.0075-0.0108,0.0107-0.0206 c0.0453-0.1395,0.4485-2.6844-1.1605-2.8839c-1.8836-0.2336-2.0546-1.2336-1.6604-2.4479v0 c-0.0091-0.0473,0.0098-0.0956,0.0485-0.1243l5.5318-4.0882c0.0602-0.0445,0.0681-0.1316,0.0169-0.1863l-2.8728-3.0624 c-0.0194-0.0207-0.0418-0.0339-0.0699-0.0376c-0.3001-0.0395-2.229-0.3604-2.2747-2.0886 C16.8958,39.7484,16.7436,39.7047,16.6754,39.7993z"/>
  </g>
  <g id="hair"/>
  <g id="skin"/>
  <g id="skin-shadow"/>
  <g id="line">
    <path fill="none" stroke="#000000" stroke-linecap="round" stroke-linejoin="round" stroke-miterlimit="10" stroke-width="2" d="M58.6667,35.9167c0.6667,1.6979,0.8506,2.9638,0.5159,4.5011l-1.1322,5.2009L60,51.7255c0,0,0.1206,4.7698,0.0014,8.2786 c-0.0369,1.087-0.9494,1.9752-2.0371,1.9751l-0.3531,0c-1.3464,0-1.9256-1.3248-1.9256-2.6712l-0.8522-8.3913 c0,0-7.4907-5.4667-6.4583-13.6042"/>
    <path fill="none" stroke="#000000" stroke-linecap="round" stroke-linejoin="round" stroke-miterlimit="10" stroke-width="2" d="M33.5155,46.5c3.8333-0.2052,11.2345,0,14.9845-2.6875"/>
    <path fill="none" stroke="#000000" stroke-linecap="round" stroke-linejoin="round" stroke-miterlimit="10" stroke-width="2" d="M51.6253,13.25c5.7603,1.5458,8.0746,4.2902,8.6494,7.2047c1.0392,5.269-4.012,9.798-9.2239,8.5024 c-2.5257-0.6278-4.6488-0.4429-4.6488-0.4429L28,28.375c-1.6875-8.125-6.4473-9.565-6.4473-9.565 c-0.8653-5.56-4.3027-5.56-4.3027-5.56l-0.6995,4.8391l-1.4644,0.2501c-0.7843,0.1339-1.5121,0.4951-2.0931,1.0387l-1.3525,1.2654 l-4.1141,0.4425c-0.7613,0.0819-1.229,0.8738-0.9332,1.5801l0.8806,2.1021c0.2896,0.6913,0.9063,1.1916,1.6425,1.3325 l6.4671,0.7328c0,0-1,13.1667,2.7292,15.1667c8.1309,4.3607,4.4071,16.5216,4.4071,16.5216 c-0.8217,1.4362-0.1868,3.4576,1.4679,3.4576h0.0015c0.7939,0,1.5235-0.4367,1.8987-1.1364l2.0998-5.4678l1.3773-9.1449 c0.1081-0.7178-0.0364-1.4427-0.3653-2.0898c-0.576-1.1333-1.2538-3.3607-0.137-6.5257"/>
    <path fill="none" stroke="#000000" stroke-linecap="round" stroke-linejoin="round" stroke-miterlimit="10" stroke-width="2" d="M16.2346,40.3005l-4.3515,6.655c-0.3212,0.4697-0.5044,1.03-0.5192,1.6187c-0.044,1.7553-0.2547,5.5414,2.9991,7.69 c0.8545,0.5642,2.4644,0.6389,3.3141,0.1114c0.7175-0.4455,1.3028-1.2911,0.7739-2.8914"/>
    <line x1="20.534" x2="16.125" y1="45.4366" y2="48.5164" fill="none" stroke="#000000" stroke-linecap="round" stroke-linejoin="round" stroke-miterlimit="10" stroke-width="2"/>
    <path fill="none" stroke="#000000" stroke-linecap="round" stroke-linejoin="round" stroke-miterlimit="10" stroke-width="2" d="M46.4167,48.5164c0.4329,1.5669,3.0772,3.003,4.25,3.7336l-1.0698,7.1428c0,0.6523,0.1869,1.281,0.5906,1.7322 c1.0625,1.1875,2.4301,0.6653,2.4301,0.6653"/>
  </g>
</svg>
