<svg id="emoji" viewBox="0 0 72 72" xmlns="http://www.w3.org/2000/svg">
  <g id="color">
    <path fill="#D22F27" stroke="none" d="M60,30.3783c2-6.1193-3-6.1193-3-6.1193c-7,1.0199-2,7.1391-2,7.1391s6,11.2186-4.5833,10.8251 S43,31.3982,43,31.3982c6.0698-5.1987,4-11.2186,4-11.2186c-3-10.1988-11-9.1789-11-9.1789s-8-1.0199-11,8.159 c0,0-3,9.1789,4,12.2385c0,0,4,11.2186-8,11.2186c0,0-10,0-4-13.2584c0,0,2-7.1391-4-5.0994c0,0-3,1.0199-2,6.1193 c0,0-5,21.4174,14,16.318c0,0,16-3.0596,22,0c6,3.0596,14,1.0199,14-9.1789L60,30.3783z"/>
    <path fill="#EA5A47" stroke="none" d="M33,32c0,0,4,11.4491-7,14.5715c0,0-7-1.0408-7,5.2041s4,6.2449,6,5.2041c2-1.0408,3-4.1633,3-4.1633 S28,49.8775,24,53s-3-3.306,4-4.3468C35,47.6124,38,36.1633,36,32H33z"/>
    <path fill="#EA5A47" stroke="none" d="M19.1157,45c0,0-2,1-4-1s-4-1-4-1s-4,1-1,5c0,0,1,2,4,1c0,0,1.8843-1-0.1157-2s-4-2-2-2 S18.2314,50,19.1157,45z"/>
    <path fill="#EA5A47" stroke="none" d="M38.6082,32c0,0-4,11.4491,7,14.5715c0,0,7-1.0408,7,5.2041s-4,6.2449-6,5.2041 c-2-1.0408-3-4.1633-3-4.1633S44,49.8775,48,53s2.6082-3.306-4.3918-4.3468c-7-1.0408-10-12.4899-8-16.6532H38.6082z"/>
    <path fill="#EA5A47" stroke="none" d="M54,45c0,0,2,1,4-1s4-1,4-1s4,1,1,5c0,0-1,2-4,1c0,0-1.8843-1,0.1157-2s4-2,2-2S54.8843,50,54,45z"/>
  </g>
  <g id="hair"/>
  <g id="skin"/>
  <g id="skin-shadow"/>
  <g id="line">
    <path fill="none" stroke="#000000" stroke-linecap="round" stroke-linejoin="round" stroke-miterlimit="10" stroke-width="2" d="M60,30c2-6-3-6-3-6c-7,1-2,7-2,7s6,11-4.5833,10.6142C39.8333,41.2284,43,31,43,31c6.0698-5.0974,4-11,4-11c-3-10-11-9-11-9 s-8-1-11,8c0,0-3,9,4,12c0,0,4,11-8,11c0,0-10,0-4-13c0,0,2-7-4-5c0,0-3,1-2,6"/>
    <path fill="none" stroke="#000000" stroke-linecap="round" stroke-linejoin="round" stroke-miterlimit="10" stroke-width="2" d="M12,30"/>
    <path fill="none" stroke="#000000" stroke-linecap="round" stroke-linejoin="round" stroke-miterlimit="10" stroke-width="2" d="M34,32"/>
    <path fill="none" stroke="#000000" stroke-linecap="round" stroke-linejoin="round" stroke-miterlimit="10" stroke-width="2" d="M33,33c0,0,4,11-7,14c0,0-7-1-7,5s4,6,6,5s3-4,3-4"/>
    <path fill="none" stroke="#000000" stroke-linecap="round" stroke-linejoin="round" stroke-miterlimit="10" stroke-width="2" d="M38.7091,33c0,0-4,11,7,14c0,0,7-1,7,5s-4,6-6,5s-3-4-3-4"/>
    <path fill="none" stroke="#000000" stroke-linecap="round" stroke-linejoin="round" stroke-miterlimit="10" stroke-width="2" d="M19.1157,45c0,0-2,1-4-1s-4-1-4-1s-4,1-1,5c0,0,1,2,4,1"/>
    <path fill="none" stroke="#000000" stroke-linecap="round" stroke-linejoin="round" stroke-miterlimit="10" stroke-width="2" d="M54,45c0,0,2,1,4-1s4-1,4-1s4,1,1,5c0,0-1,2-4,1"/>
  </g>
</svg>
