<svg id="emoji" viewBox="0 0 72 72" xmlns="http://www.w3.org/2000/svg">
  <g id="color">
    <path fill="#92d3f5" d="M16.41,59.25s-1.84-14.3964,10.4293-14.3964c3.2636,2.2039,6.06,3.7269,9.2024,3.72h-.1278c3.1427.0065,6.45-1.62,9.7135-3.8239,11.8247-.0359,9.825,14.3962,10.0612,14.5"/>
    <g>
      <path fill="#3f3f3f" d="M35.9028,54.214l1.839,3.1852,1.5755,1.9234a.197.197,0,0,1-.1524.3218H32.6408a.197.197,0,0,1-.1524-.3218l1.5755-1.9234Z"/>
      <path fill="#3f3f3f" d="M38.3879,51.885v.01c-.11,1.56-.66,3.18-2.49,3.18-1.75,0-2.33-1.51-2.47-3.01l-.16-.15,2.57-2.65Z"/>
    </g>
    <path fill="#3f3f3f" d="M34.9634,23.57a16.5893,16.5893,0,0,1-7.2-2.38,9.199,9.199,0,0,1-1.47-1.19h21.07a7.6108,7.6108,0,0,1-1.31,1.22,11.6275,11.6275,0,0,1-3.71,1.79A19.1193,19.1193,0,0,1,34.9634,23.57Z"/>
    <path fill="#92d3f5" d="M50.3334,17.47c1.24.33.42,2.52-.4,3.51l-2.24,2.72-.07.04a8.2711,8.2711,0,0,0-1.91-1.98l-.66-.54a7.6108,7.6108,0,0,0,1.31-1.22h-21.07a9.199,9.199,0,0,0,1.47,1.19l-.76.57a8.2206,8.2206,0,0,0-1.75,1.76l-.13-.1-2.02-2.44c-.81-.99-1.64-3.18-.39-3.51,5.74-1.53,5.95-7.86,14.31-7.86S44.5934,15.94,50.3334,17.47Zm-14.28.33c2.12,0,2.46-3.87,2.46-3.87a4.16,4.16,0,0,0-5-.06S33.9334,17.8,36.0534,17.8Z"/>
    <path fill="#fcea2b" d="M36.0953,17.5561c-2.1207.0034-2.536-3.9337-2.536-3.9337a4.1733,4.1733,0,0,1,5,.0577S38.216,17.5526,36.0953,17.5561Z"/>
    <path fill="#61b2e4" d="M42.8657,11.5388s.9357,8.2184-2.5907,8.2184l5.3484.3352L47.361,23.07s3.6717-1.9011,3.61-5.2334C50.9711,17.837,43.71,13.6156,42.8657,11.5388Z"/>
    <path fill="#61b2e4" d="M44.5916,46.25c-3.154,1.8315-5.05,2.86-9.0916,3.37,12.9969.3566,12.9969,6.1632,13.7552,9.63h5.0872S56.5314,46.25,44.5916,46.25Z"/>
  </g>
  <g id="hair">
    <g id="hair-2">
      <path fill="#000000" d="M46.5073,42.7925c6.2358-.6113,8.387-3.307,8.387-3.307l-5.9082-.6C57.0563,30.4482,45.6124,22,45.6124,22H44.151l-7.1649,1.5887L28.03,22H26.1949s-11.444,8.4482-3.3737,16.8852l-5.6247.6s1.8674,2.6957,8.1037,3.307C25.3,44.0485,46.5073,44.0485,46.5073,42.7925Z"/>
    </g>
  </g>
  <g id="skin">
    <path fill="#6a462f" d="M36,23.3618l6.035-.5829s5.338,5.4276,5.23,6.948c0,7.8277-5.0765,14.1733-11.3386,14.1733S24.5881,37.5546,24.5881,29.7269C24.3928,25.6005,36,23.3618,36,23.3618Z"/>
  </g>
  <g id="line">
    <path d="M49.361,55.9954a2,2,0,1,1-2-2,2.0007,2.0007,0,0,1,2,2"/>
    <path fill="none" stroke="#000" stroke-linecap="round" stroke-linejoin="round" stroke-width="2" d="M16.9579,58.675s-2-13,10-13c3.16,2.09,5.86,3.55,8.88,3.59h.12c2.96-.04,5.63-1.44,8.7-3.47l.18-.12c12,0,10,13,10,13"/>
    <polyline fill="none" stroke="#000" stroke-linecap="round" stroke-linejoin="round" stroke-width="2" points="26.958 45.675 30.708 54.555 33.268 51.915 35.838 49.265"/>
    <line x1="38.3879" x2="35.8379" y1="51.885" y2="49.265" fill="none" stroke="#000" stroke-linecap="round" stroke-linejoin="round" stroke-width="2"/>
    <polyline fill="none" stroke="#000" stroke-linecap="round" stroke-linejoin="round" stroke-width="2" points="44.708 45.675 44.658 45.795 40.968 54.555 38.388 51.895"/>
    <path fill="none" stroke="#000" stroke-linecap="round" stroke-linejoin="round" stroke-width="2" d="M33.4279,52.065c.14,1.5.72,3.01,2.47,3.01,1.83,0,2.38-1.62,2.49-3.18v-.01"/>
    <line x1="35.0479" x2="32.6379" y1="55.075" y2="58.675" fill="none" stroke="#000" stroke-linecap="round" stroke-linejoin="round" stroke-width="2"/>
    <line x1="36.7479" x2="39.1679" y1="55.075" y2="58.675" fill="none" stroke="#000" stroke-linecap="round" stroke-linejoin="round" stroke-width="2"/>
    <path d="M26.9629,58.1289H21.1182a1,1,0,0,1,0-2h5.8447a1,1,0,1,1,0,2Z"/>
    <path d="M39.9734,25.815a2,2,0,1,1-2,2A1.9994,1.9994,0,0,1,39.9734,25.815Z"/>
    <path d="M31.9734,25.815a2,2,0,1,1-2,2A1.9994,1.9994,0,0,1,31.9734,25.815Z"/>
    <path d="M36.0224,37.8208a7.6524,7.6524,0,0,1-3.4472-.8579,1,1,0,1,1,.8945-1.789,5.3779,5.3779,0,0,0,5.1055,0,1,1,0,1,1,.8945,1.789A7.6528,7.6528,0,0,1,36.0224,37.8208Z"/>
    <path d="M36.0225,44.3525c-6.4161,0-11.6983-5.916-12.2862-13.7607l1.9942-.15c.5009,6.68,5.0215,11.9111,10.292,11.9111,5.2578,0,9.6728-5.0136,10.2714-11.663.045-.5.0674-1.0083.0674-1.51h2c0,.561-.0254,1.1294-.0752,1.689C47.5938,38.5557,42.3223,44.3525,36.0225,44.3525Z"/>
    <path d="M36.0928,18.5562c-2.9346,0-3.4756-4.3345-3.5274-4.8287a1.0009,1.0009,0,0,1,.38-.894,5.1294,5.1294,0,0,1,6.3184.1362,1.002,1.002,0,0,1,.292.7989c-.044.49-.51,4.7827-3.458,4.7876Zm.001-2,.0019,1-.0019-1c.7539-.001,1.2119-1.4581,1.3916-2.42a3.4077,3.4077,0,0,0-2.835-.02c.2187,1.0708.7324,2.44,1.4424,2.44Z"/>
    <path d="M36.2979,24.459c-4.6973,0-9.2071-1.5288-11.669-3.9951a1,1,0,0,1,.708-1.7066H46.4053a1,1,0,0,1,.7617,1.6475c-2.0313,2.3921-5.6787,3.8633-10.0059,4.0371Q36.729,24.4587,36.2979,24.459Zm-7.8243-3.7017a17.9909,17.9909,0,0,0,8.6075,1.6861,14.34,14.34,0,0,0,6.538-1.6861Z"/>
    <path d="M47.7324,24.46a1,1,0,0,1-.77-1.6372l2.248-2.7207a3.63,3.63,0,0,0,.8086-1.9424,12.2217,12.2217,0,0,1-5.64-3.84c-1.9815-2.0317-3.8535-3.9511-8.3125-3.9511s-6.332,1.9194-8.3135,3.9511a12.2242,12.2242,0,0,1-5.64,3.84,3.645,3.645,0,0,0,.8086,1.9424l2.0117,2.434a1,1,0,0,1-1.541,1.2745L21.3818,21.376c-.6718-.813-1.5791-2.5943-1.1562-3.9151a1.7748,1.7748,0,0,1,1.2715-1.207c2.1259-.564,3.4365-1.9077,4.8252-3.3306,2.082-2.1352,4.4423-4.5551,9.7451-4.5551s7.6621,2.42,9.7441,4.5547c1.3887,1.4233,2.6992,2.767,4.8252,3.3315a1.7719,1.7719,0,0,1,1.2715,1.2075c.4238,1.3218-.4844,3.1026-1.1562,3.9146l-2.2481,2.72A.9973.9973,0,0,1,47.7324,24.46Z"/>
    <path d="M36.0352,44.38c-6.8038,0-12.3389-6.8067-12.3389-15.1734a1,1,0,0,1,2,0c0,7.2642,4.6377,13.1734,10.3389,13.1734S46.373,36.4707,46.373,29.2065a1,1,0,0,1,2,0C48.373,37.5732,42.8379,44.38,36.0352,44.38Z"/>
    <path d="M25.293,43.4375c-.0323,0-.0655-.002-.0987-.0049-6.62-.6484-8.74-3.6064-8.8281-3.7324a1,1,0,0,1,.7158-1.5635l3.7676-.4023a9.4246,9.4246,0,0,1-1.8828-6.4483c.5039-5.8623,6.377-10.2607,6.627-10.4453a1,1,0,0,1,1.1884,1.6084c-.0537.04-5.4023,4.0586-5.8242,9.0156a8.1015,8.1015,0,0,0,2.5781,6.3741,1,1,0,0,1-.6162,1.6855l-3.1992.3418A14.6665,14.6665,0,0,0,25.39,41.4424a1,1,0,0,1-.0966,1.9951Z"/>
    <path d="M46.499,43.4375a1,1,0,0,1-.0967-1.9951,15.7991,15.7991,0,0,0,5.7969-1.5791l-3.3222-.3379a1,1,0,0,1-.6211-1.6865A8.0979,8.0979,0,0,0,50.833,31.457c-.4277-4.9707-5.7685-8.9673-5.8223-9.0068a1,1,0,0,1,1.1875-1.6094c.25.1846,6.1231,4.583,6.627,10.4453a9.429,9.429,0,0,1-1.876,6.4395l4.0391.41a1,1,0,0,1,.68,1.6192c-.0987.123-2.49,3.0322-9.07,3.6777C46.5645,43.4355,46.5313,43.4375,46.499,43.4375Z"/>
    <path d="M23.7432,31.3271a1.0125,1.0125,0,0,1-.208-.0214,1,1,0,0,1-.7715-1.1856c.9521-4.4922,10.2881-7.3164,11.35-7.6235a1,1,0,0,1,.5566,1.9209c-3.5644,1.0337-9.4179,3.6089-9.9492,6.1167A1.0006,1.0006,0,0,1,23.7432,31.3271Z"/>
    <path d="M47.3359,29.9634a.9993.9993,0,0,1-.7578-.3472L41.3252,23.521a1,1,0,0,1,1.5156-1.3057l5.253,6.0952a1.0006,1.0006,0,0,1-.7579,1.6529Z"/>
  </g>
</svg>
