<svg id="emoji" x="0" y="0" viewBox="0 0 72 72" version="1.1" xmlns="http://www.w3.org/2000/svg">
  <g id="color">
    <path fill="#92D3F5" d="M11.0003,61V44.9552c0-3.2895,3.2918-5.9566,6.5836-5.9566c3.9146,3.2895,7.8292,3.2895,11.8327,0h13.1673 c3.9146,3.2895,7.8292,3.2895,11.8327,0c3.2918,0,6.5836,2.6671,6.5836,5.9566V61"/>
    <path fill="#B1CC33" d="M26.5,61v-2.5333C26.5,56,29.0018,54,31.5036,54c2.9751,2.4667,5.9502,2.4667,8.9929,0 c2.5017,0,5.0035,2,5.0035,4.4667V61"/>
  </g>
  <g id="hair">
    <path fill="#A57939" d="M13.9286,21.3903c0.5334-7.7347,6.4011-7.8236,9.335-7.3791c0.2667,0.0889,1.0669,0,1.3336,0 c5.3343-0.7112,8.0014,5.3343,8.0014,8.0014c0,0.978,0.2255,3.3655-1.1081,4.6991c0,0-3.2483-3.7211-3.4261-5.8549 c0,0-10.1352,3.8229-10.8464,0.5334c0,0-0.7112,2.6671-1.3336,3.3784c0,0-0.3288,2.0448-0.3288,2.6671 C15.5558,27.4359,13.6619,24.7687,13.9286,21.3903z"/>
    <path fill="#A57939" d="M33.6355,42.2716c0.4694,3.3631,4.487-0.8706,4.487-0.8706c0.5491,1.5737,4.4254,3.8674,4.4254,3.8674 c1.0324-0.9557,0.5259-2.8525,0.3721-3.5136c-0.5106-2.7127-3.0794-4.5325-5.8079-4.1144c-0.3436,0.0276-0.6888,0.0276-1.0324,0 c-2.2709-0.3369-6.03-0.1483-7.12,4.6433c-0.5317,2.3382,0.624,2.9844,0.624,2.9844S33.3477,40.2093,33.6355,42.2716z"/>
    <path fill="#A57939" d="M56.4444,27.4357c0-0.6223-0.3288-2.6671-0.3288-2.6671c-0.6224-0.7113-1.3336-3.3784-1.3336-3.3784 c-0.7112,3.2895-10.8464-0.5334-10.8464-0.5334c-0.1778,2.1338-3.4261,5.8549-3.4261,5.8549 c-1.3336-1.3336-1.1081-3.7211-1.1081-4.6991c0-2.6671,2.6671-8.7126,8.0014-8.0014c0.2667,0,1.0669,0.0889,1.3336,0 c2.9339-0.4445,8.8016-0.3556,9.335,7.3791C58.3381,24.7687,56.4442,27.4359,56.4444,27.4357z"/>
  </g>
  <g id="skin">
    <path fill="#FCEA2B" d="M28.0454,20.8569c0,0-10.1351,3.8229-10.8464,0.5334c0,0-0.7112,2.6672-1.3336,3.3784 c0,0-0.3185,1.9835-0.3273,2.635c0.4585,5.148,3.8411,9.1996,7.9427,9.1996c4.2864,0,7.782-4.426,7.9809-9.9028 C31.3572,26.5801,28.2203,22.9551,28.0454,20.8569z"/>
    <path fill="#FCEA2B" d="M38.1228,41.401c0,0-4.0176,4.2337-4.487,0.8706c-0.2576-1.8462-3.2933,2.0046-3.9283,2.834 c-0.0739,0.3356-0.1232,0.5668-0.1232,0.5888c-0.1437,3.7311,2.7579,6.8753,6.4885,7.031c3.7306-0.1557,6.6323-3.2999,6.4886-7.031 c0-0.0303-0.0594-0.2263-0.15-0.5089C41.7327,44.7706,38.6118,42.8025,38.1228,41.401z"/>
    <path fill="#FCEA2B" d="M40.5382,26.7005c0.1989,5.4768,3.6945,9.9028,7.9809,9.9028c4.1016,0,7.4842-4.0516,7.9427-9.1996 c-0.0088-0.6515-0.3273-2.635-0.3273-2.635c-0.6224-0.7112-1.3336-3.3784-1.3336-3.3784 c-0.7113,3.2895-10.8464-0.5334-10.8464-0.5334C43.7796,22.9551,40.6427,26.5801,40.5382,26.7005z"/>
  </g>
  <g id="line">
    <path fill="none" stroke="#000000" stroke-miterlimit="10" stroke-width="2" d="M31.5,25.5689c0,0.1839,0,0.3678,0,0.6437 c0,5.7012-3.5862,10.3908-8,10.3908s-8-4.6897-8-10.3908c0-0.1839,0-0.3678,0-0.6437"/>
    <path fill="none" stroke="#000000" stroke-linecap="round" stroke-linejoin="round" stroke-width="2" d="M13.9286,21.3903 c0.5334-7.7347,6.4011-7.8236,9.335-7.3791c0.2667,0.0889,1.0669,0,1.3336,0c5.3343-0.7112,8.0014,5.3343,8.0014,8.0014 c0,0.978,0.2255,3.3655-1.1081,4.6991c0,0-3.2483-3.7211-3.4261-5.8549c0,0-10.1352,3.8229-10.8464,0.5334 c0,0-0.7112,2.6671-1.3336,3.3784c0,0-0.3288,2.0448-0.3288,2.6671C15.5558,27.4359,13.6619,24.7687,13.9286,21.3903z"/>
    <path d="M22.25,26.5c0,0.7143-0.5357,1.25-1.25,1.25s-1.25-0.5357-1.25-1.25s0.5357-1.25,1.25-1.25S22.25,25.7857,22.25,26.5"/>
    <path d="M27.25,26.5c0,0.7143-0.5357,1.25-1.25,1.25s-1.25-0.5357-1.25-1.25s0.5357-1.25,1.25-1.25S27.25,25.7857,27.25,26.5"/>
    <path fill="none" stroke="#000000" stroke-linecap="round" stroke-linejoin="round" stroke-width="2" d="M21.633,31.5332 c1.1558,0.6223,2.5782,0.6223,3.734,0"/>
    <path fill="none" stroke="#000000" stroke-linecap="round" stroke-linejoin="round" stroke-width="1.6" d="M26.5003,60.2v-1.7333 C26.5003,56,29.0021,54,31.5039,54c2.9751,2.4667,5.9502,2.4667,8.9929,0c2.5017,0,5.0035,2,5.0035,4.4667V60.2"/>
    <path d="M38.7983,45.7015c0.0333,0.4958-0.3417,0.9247-0.8377,0.958c-0.4959,0.0333-0.9249-0.3417-0.9582-0.8375 s0.3417-0.9247,0.8377-0.958c0.0201-0.0014,0.0402-0.002,0.0604-0.002C38.3801,44.8465,38.7818,45.2221,38.7983,45.7015z"/>
    <path fill="none" stroke="#000000" stroke-linecap="round" stroke-linejoin="round" stroke-width="1.6" d="M34.6642,49.1857 c0.7749,0.6425,1.8974,0.6425,2.6723,0"/>
    <path d="M34.1001,44.862c0.0201,0,0.0403,0.0007,0.0604,0.002c0.4959,0.0333,0.871,0.4622,0.8377,0.958 s-0.4623,0.8707-0.9582,0.8375c-0.4959-0.0333-0.871-0.4622-0.8377-0.958C33.2188,45.2221,33.6205,44.8465,34.1001,44.862z"/>
    <path fill="none" stroke="#000000" stroke-miterlimit="10" stroke-width="1.6" d="M42.5496,45.2683 c0.0078,0.141,0.0117,0.283,0.0118,0.4261c0.1437,3.7311-2.758,6.8753-6.4886,7.031c-3.7306-0.1557-6.6322-3.2999-6.4885-7.031 c0-0.0952,0.0017-0.1899,0.0052-0.2841"/>
    <path fill="none" stroke="#000000" stroke-linecap="round" stroke-linejoin="round" stroke-width="1.6" d="M33.6358,42.2716 c0.4694,3.3631,4.487-0.8706,4.487-0.8706c0.5491,1.5737,4.4254,3.8674,4.4254,3.8674c1.0324-0.9557,0.5259-2.8525,0.3721-3.5136 c-0.5106-2.7127-3.0794-4.5325-5.8079-4.1144c-0.3436,0.0276-0.6888,0.0276-1.0324,0c-2.2709-0.3369-6.03-0.1483-7.12,4.6433 c-0.5317,2.3382,0.624,2.9844,0.624,2.9844S33.348,40.2093,33.6358,42.2716z"/>
    <path fill="none" stroke="#000000" stroke-linecap="round" stroke-linejoin="round" stroke-miterlimit="10" stroke-width="2" d="M46.2565,41.1188c2.6973,0.8481,5.4076,0.1413,8.1601-2.1202c3.2918,0,6.5836,2.6671,6.5836,5.9566V60"/>
    <path fill="none" stroke="#000000" stroke-linecap="round" stroke-linejoin="round" stroke-miterlimit="10" stroke-width="2" d="M11.0003,60V44.9552c0-3.2895,3.2918-5.9566,6.5836-5.9566c2.6822,2.2539,5.3643,2.9634,8.0751,2.1288"/>
    <path fill="none" stroke="#000000" stroke-linecap="round" stroke-linejoin="round" stroke-width="2" d="M46.633,31.5332 c1.1558,0.6223,2.5782,0.6223,3.734,0"/>
    <path fill="none" stroke="#000000" stroke-miterlimit="10" stroke-width="2" d="M56.5,25.5689c0,0.2759,0,0.4598,0,0.6437 c0,5.7011-3.5862,10.3908-8,10.3908s-8-4.6896-8-10.3908c0-0.2759,0-0.4598,0-0.6437"/>
    <path fill="none" stroke="#000000" stroke-linecap="round" stroke-linejoin="round" stroke-width="2" d="M56.4444,27.4357 c0-0.6223-0.3288-2.6671-0.3288-2.6671c-0.6224-0.7113-1.3336-3.3784-1.3336-3.3784c-0.7112,3.2895-10.8464-0.5334-10.8464-0.5334 c-0.1778,2.1338-3.4261,5.8549-3.4261,5.8549c-1.3336-1.3336-1.1081-3.7211-1.1081-4.6991c0-2.6671,2.6671-8.7126,8.0014-8.0014 c0.2667,0,1.0669,0.0889,1.3336,0c2.9339-0.4445,8.8016-0.3556,9.335,7.3791C58.3381,24.7687,56.4442,27.4359,56.4444,27.4357z"/>
    <path d="M49.75,26.5c0-0.7143,0.5357-1.25,1.25-1.25s1.25,0.5357,1.25,1.25s-0.5357,1.25-1.25,1.25S49.75,27.2143,49.75,26.5"/>
    <path d="M44.75,26.5c0-0.7143,0.5357-1.25,1.25-1.25s1.25,0.5357,1.25,1.25s-0.5357,1.25-1.25,1.25S44.75,27.2143,44.75,26.5"/>
  </g>
</svg>
