<svg id="emoji" x="0" y="0" viewBox="0 0 72 72" version="1.1" xmlns="http://www.w3.org/2000/svg">
  <g id="color">
    <path fill="#92D3F5" d="M11.0003,61V44.9552c0-3.2895,3.2918-5.9566,6.5836-5.9566c3.9146,3.2895,7.8292,3.2895,11.8327,0h13.1673 c3.9146,3.2895,7.8292,3.2895,11.8327,0c3.2918,0,6.5836,2.6671,6.5836,5.9566V61"/>
    <path fill="#B1CC33" d="M26.5004,61v-2.5333C26.5004,56,29.0022,54,31.504,54c2.9751,2.4667,5.9502,2.4667,8.9929,0 c2.5017,0,5.0035,2,5.0035,4.4667V61"/>
  </g>
  <g id="hair">
    <path fill="#A57939" d="M37.1268,38.9986h5.4571c3.9146,3.2895,7.8292,3.2895,11.8327,0c1.2701,0,2.538,0.4002,3.619,1.0768 l0.3439-0.1638l1.7012-2.0374c1.956-2.2226,1.5774-5.9042,0.4216-8.6602c-1.6003-3.734-2.0448-3.734-2.3115-8.5349 c-0.0889-2.7561-2.2226-5.0676-4.9787-5.3343c0,0-1.6892-2.0448-5.3343-2.0448c-4.2675,0-8.1792,2.3115-9.1572,5.9566 c-1.0668,3.734,0.1779,5.2453-0.889,8.0903c-0.9335,2.4005-2.9313,3.7391-2.9105,6.6245c0.0068,0.9417,0.7955,3.0455,1.4623,4.0457 L37.1268,38.9986z"/>
    <path fill="#A57939" d="M13.9286,21.3903c0.5334-7.7347,6.4011-7.8236,9.335-7.3791c0.2667,0.0889,1.0669,0,1.3336,0 c5.3343-0.7112,8.0014,5.3343,8.0014,8.0014c0,0.978,0.2255,3.3655-1.1081,4.6991c0,0-3.2483-3.7211-3.4261-5.8549 c0,0-10.1352,3.8229-10.8464,0.5334c0,0-0.7112,2.6671-1.3336,3.3784c0,0-0.3288,2.0448-0.3288,2.6671 C15.5558,27.4359,13.6619,24.7687,13.9286,21.3903z"/>
    <path fill="#A57939" d="M36.0004,40.7038c3.864,1.3703,5.567,5.8271,5.6943,9.6307c1.4225,0.308,2.8826-0.3898,3.8057-1.461 c-0.9845-0.8337-1.7269-1.9167-2.1494-3.1356c0.7369-5.7252-2.03-9.5793-7.3506-8.4862c-5.3206-1.0931-8.0875,2.761-7.3506,8.4862 c-0.4225,1.2189-1.1649,2.3019-2.1494,3.1356c0.923,1.0712,2.3833,1.769,3.8057,1.461 C30.4334,46.5311,32.1363,42.074,36.0004,40.7038z"/>
  </g>
  <g id="skin">
    <path fill="#FCEA2B" d="M41.1209,26.8135c0,5.3343,3.3784,9.335,7.3791,9.335s7.3791-4.0007,7.3791-9.335 c0-3.3784-1.3336-5.3343-4.0007-8.0014c-2.6671,2.6671-10.6686,6.0455-10.6686,7.3791L41.1209,26.8135L41.1209,26.8135z"/>
    <path fill="#FCEA2B" d="M28.0454,20.8569c0,0-10.1351,3.8229-10.8464,0.5334c0,0-0.7112,2.6672-1.3336,3.3784 c0,0-0.3185,1.9835-0.3273,2.635c0.4585,5.148,3.8411,9.1996,7.9427,9.1996c4.2864,0,7.782-4.426,7.9809-9.9028 C31.3572,26.5801,28.2203,22.9551,28.0454,20.8569z"/>
    <path fill="#FCEA2B" d="M41.5038,48.517c-0.0138-0.0543-0.0171-0.1106-0.0324-0.1646c-0.5499-3.1755-2.2374-6.5396-5.471-7.6487 c-3.2336,1.1091-4.9211,4.4731-5.471,7.6487c-0.0153,0.054-0.0186,0.1102-0.0324,0.1646c0.8397,2.7543,2.9947,4.3117,5.5034,4.3118 C38.5091,52.8287,40.6642,51.2713,41.5038,48.517z"/>
  </g>
  <g id="line">
    <path fill="none" stroke="#000000" stroke-miterlimit="10" stroke-width="2" d="M31.5,25.5689c0,0.1839,0,0.3678,0,0.6437 c0,5.7012-3.5862,10.3908-8,10.3908s-8-4.6897-8-10.3908c0-0.1839,0-0.3678,0-0.6437"/>
    <path fill="none" stroke="#000000" stroke-linecap="round" stroke-linejoin="round" stroke-width="2" d="M13.9286,21.3903 c0.5334-7.7347,6.4011-7.8236,9.335-7.3791c0.2667,0.0889,1.0669,0,1.3336,0c5.3343-0.7112,8.0014,5.3343,8.0014,8.0014 c0,0.978,0.2255,3.3655-1.1081,4.6991c0,0-3.2483-3.7211-3.4261-5.8549c0,0-10.1352,3.8229-10.8464,0.5334 c0,0-0.7112,2.6671-1.3336,3.3784c0,0-0.3288,2.0448-0.3288,2.6671C15.5558,27.4359,13.6619,24.7687,13.9286,21.3903z"/>
    <path fill="none" stroke="#000000" stroke-linecap="round" stroke-linejoin="round" stroke-width="2" d="M35.8408,33.634 c-0.0323-2.2288,1.1717-4.1809,1.9908-6.287c1.0669-2.845-0.1778-4.3563,0.889-8.0903c0.978-3.6451,4.8898-5.9566,9.1572-5.9566 c3.6451,0,5.3343,2.0448,5.3343,2.0448c2.7561,0.2667,4.8898,2.5782,4.9787,5.3343c0.2667,4.8009,0.7112,4.8009,2.3115,8.5349 c1.0621,2.5328,0.7728,5.3659-0.7991,7.5333"/>
    <path fill="none" stroke="#000000" stroke-linejoin="round" stroke-miterlimit="10" stroke-width="2" d="M41.1209,26.8135 c0,5.3343,3.3784,9.335,7.3791,9.335s7.3791-4.0007,7.3791-9.335c0-3.3784-1.3336-5.3343-4.0007-8.0014 c-2.6671,2.6671-10.6686,6.0455-10.6686,7.3791L41.1209,26.8135L41.1209,26.8135z"/>
    <path fill="none" stroke="#000000" stroke-linecap="round" stroke-linejoin="round" stroke-miterlimit="10" stroke-width="2" d="M46.2565,41.1188c2.6973,0.8481,5.4076,0.1413,8.1601-2.1202c3.2918,0,6.5836,2.6671,6.5836,5.9566V60"/>
    <path fill="none" stroke="#000000" stroke-linecap="round" stroke-linejoin="round" stroke-miterlimit="10" stroke-width="2" d="M11.0003,60V44.9552c0-3.2895,3.2918-5.9566,6.5836-5.9566c2.6822,2.2539,5.3643,2.9634,8.0751,2.1288"/>
    <path d="M47.25,26.5c0,0.7143-0.5357,1.25-1.25,1.25s-1.25-0.5357-1.25-1.25s0.5357-1.25,1.25-1.25S47.25,25.7857,47.25,26.5"/>
    <path d="M52.25,26.5c0,0.7143-0.5357,1.25-1.25,1.25s-1.25-0.5357-1.25-1.25s0.5357-1.25,1.25-1.25S52.25,25.7857,52.25,26.5"/>
    <path fill="none" stroke="#000000" stroke-linecap="round" stroke-linejoin="round" stroke-width="2" d="M46.633,31.5332 c1.1558,0.6223,2.5782,0.6223,3.734,0"/>
    <path d="M22.25,26.5c0,0.7143-0.5357,1.25-1.25,1.25s-1.25-0.5357-1.25-1.25s0.5357-1.25,1.25-1.25S22.25,25.7857,22.25,26.5"/>
    <path d="M27.25,26.5c0,0.7143-0.5357,1.25-1.25,1.25s-1.25-0.5357-1.25-1.25s0.5357-1.25,1.25-1.25S27.25,25.7857,27.25,26.5"/>
    <path fill="none" stroke="#000000" stroke-linecap="round" stroke-linejoin="round" stroke-width="2" d="M21.633,31.5332 c1.1558,0.6223,2.5782,0.6223,3.734,0"/>
    <path fill="none" stroke="#000000" stroke-linecap="round" stroke-linejoin="round" stroke-width="1.6" d="M26.5003,60.2v-1.7333 C26.5003,56,29.0021,54,31.5039,54c2.9751,2.4667,5.9502,2.4667,8.9929,0c2.5017,0,5.0035,2,5.0035,4.4667V60.2"/>
    <path d="M38.5982,45.7015c0.0333,0.4958-0.3417,0.9247-0.8377,0.958c-0.4959,0.0333-0.9249-0.3417-0.9582-0.8375 s0.3417-0.9247,0.8377-0.958c0.0201-0.0014,0.0402-0.002,0.0604-0.002C38.18,44.8465,38.5817,45.2221,38.5982,45.7015z"/>
    <path fill="none" stroke="#000000" stroke-linecap="round" stroke-linejoin="round" stroke-width="1.6" d="M34.6642,49.1857 c0.7749,0.6425,1.8974,0.6425,2.6723,0"/>
    <path fill="none" stroke="#000000" stroke-miterlimit="10" stroke-width="1.6" d="M41.5441,48.407 c-0.8139,2.8267-3.0002,4.4219-5.5441,4.4219h0.0006c-2.5439,0-4.7302-1.5952-5.5441-4.4219"/>
    <path d="M34.3002,44.862c0.0201,0,0.0403,0.0007,0.0604,0.002c0.4959,0.0333,0.871,0.4622,0.8377,0.958 s-0.4623,0.8707-0.9582,0.8375c-0.4959-0.0333-0.871-0.4622-0.8377-0.958C33.4189,45.2221,33.8206,44.8465,34.3002,44.862z"/>
    <path fill="none" stroke="#000000" stroke-linecap="round" stroke-linejoin="round" stroke-width="1.6" d="M36.0003,40.7038 c3.864,1.3703,5.567,5.8271,5.6943,9.6307c1.4225,0.308,2.8826-0.3898,3.8057-1.461c-0.9845-0.8337-1.7269-1.9167-2.1494-3.1356 c0.7369-5.7252-2.03-9.5793-7.3506-8.4862c-5.3206-1.0931-8.0875,2.761-7.3506,8.4862c-0.4225,1.2189-1.1649,2.3019-2.1494,3.1356 c0.923,1.0712,2.3833,1.769,3.8057,1.461C30.4333,46.5311,32.1362,42.074,36.0003,40.7038z"/>
  </g>
</svg>
