<svg id="emoji" x="0" y="0" viewBox="0 0 72 72" version="1.1" xmlns="http://www.w3.org/2000/svg">
  <g id="color">
    <path fill="#92D3F5" d="M17.2331,58.6244c0,0-2-13.5,10-13.5c3.1918,2.1279,5.9264,3.5984,9,3.5921h-0.125 c3.0736,0.0063,4.7081-2.1642,7.9-4.2921c15.5705-0.0001,11.5,14.2,11.5,14.2"/>
    <polygon fill="#FFFFFF" points="35.4872,55.298 32.2483,51.3662 29.0093,47.4344 35.4872,47.4344 41.9652,47.4344 38.7262,51.3662"/>
    <path fill="#61B2E4" d="M26.4802,44.7199c0,0-5.9003,4.0266-2.161,7.4669h4.5729l-0.8335,3.7419l7.8919,1.9525l0.2903-2.5055 l-8.3606-10.3636"/>
    <polygon fill="#D0CFCE" points="67.0367,43.2225 60.0867,59.5725 35.0967,59.5725 42.0467,43.2225"/>
    <polygon fill="#9B9B9A" points="67.2533,43.2225 60.3033,59.5725 60.0833,59.5725 51.3133,59.5725 58.2633,43.2225 67.0333,43.2225"/>
  </g>
  <g id="hair">
    <path fill="#000000" d="M40.4042,47.0866l1.6425-3.8641H58.329c2.0935-4.7527-4.3265-5.1398-4.3265-5.1398 s0.0685-0.1664,0.0806-0.6989c0.0352-1.5532-0.1998-6.2212-4.2254-18.9596c-7.1146-17.1343-20.6161-9.1257-22.0119-6.7236 c-2.3333-0.8591-3.3057,0-5.2433,5.6871c-1.4147,5.3541-4.1835,16.175-3.9714,20.3615c-0.8116-0.4277-7.4719-0.0046-3.0917,8.0864 c1.0489,1.2944,2.1478,2.4639,3.288,3.5111c1.4121-2.3496,3.9374-4.2223,8.4058-4.2223c3.1653,2.1103,5.8819,3.5698,8.9245,3.5878 C37.8347,48.7021,39.0875,48.0316,40.4042,47.0866z"/>
  </g>
  <g id="skin">
    <path fill="#a57939" d="M47.4113,22.3057c0.2218,0.6774,0.4048,1.3798,0.5455,2.103c0.22,1.1303,0.3365,2.3113,0.3365,3.5262 c0,8.2116-5.3254,14.8684-11.8947,14.8684s-11.8948-6.6568-11.8948-14.8684c0-0.4816,0.0183-0.9578,0.0541-1.4277l0.0514,0.3835 c2.0191-0.9811,5.0299-9.8162,5.0299-9.8162s-0.7095,6.4405,17.8189,5.6156"/>
  </g>
  <g id="skin-shadow"/>
  <g id="line">
    <path d="M42.0185,26.8672c0,1.1045-0.8965,2-2,2s-2-0.8955-2-2c0-1.1035,0.8965-2,2-2S42.0185,25.7637,42.0185,26.8672"/>
    <path d="M34.0185,26.8672c0,1.1045-0.8965,2-2,2s-2-0.8955-2-2c0-1.1035,0.8965-2,2-2S34.0185,25.7637,34.0185,26.8672"/>
    <path d="M36.0183,36.8696c-1.1518,0-2.3037-0.2861-3.4472-0.8579c-0.4942-0.2471-0.6944-0.8477-0.4473-1.3418 c0.2466-0.4937,0.8462-0.6943,1.3418-0.4473c1.7178,0.8594,3.3877,0.8594,5.1055,0c0.4946-0.247,1.0947-0.0464,1.3418,0.4473 c0.247,0.4941,0.0468,1.0947-0.4473,1.3418C38.322,36.5835,37.1702,36.8696,36.0183,36.8696z"/>
    <path d="M36.0186,43.4014c-6.8038,0-12.3389-6.8067-12.3389-15.1734c0-0.4848,0.0185-0.9643,0.0547-1.437l1.9941,0.1524 c-0.0322,0.4228-0.0488,0.8515-0.0488,1.2846c0,7.2642,4.6377,13.1734,10.3389,13.1734c5.7002,0,10.3378-5.9092,10.3378-13.1734 c0-1.0757-0.1015-2.1421-0.3017-3.1699c-0.124-0.6392-0.2891-1.2729-0.4893-1.8848l1.9004-0.623 c0.2266,0.6904,0.4121,1.4058,0.5518,2.126c0.2246,1.1528,0.3388,2.3481,0.3388,3.5517 C48.3564,36.5947,42.8213,43.4014,36.0186,43.4014z"/>
    <path d="M41.5156,32.4922h-2.0068c-1.5479,0-2.8828-0.9258-3.4815-2.2529c-0.5986,1.3271-1.9335,2.2529-3.4814,2.2529h-2.0068 c-2.1045,0-3.8164-1.7119-3.8164-3.8164V27.438h-0.6924c-0.5528,0-1-0.4478-1-1c0-0.5523,0.4472-1,1-1h1.6924 c0.5527,0,1,0.4477,1,1v2.2378c0,1.0019,0.8144,1.8164,1.8164,1.8164h2.0068c1.002,0,1.8164-0.8145,1.8164-1.8164v-1.104 c0-0.5523,0.4473-1,1-1h1.3301c0.5527,0,1,0.4477,1,1v1.104c0,1.0019,0.8144,1.8164,1.8164,1.8164h2.0068 c1.002,0,1.8164-0.8145,1.8164-1.8164V26.438c0-0.5523,0.4473-1,1-1h1.1563c0.5527,0,1,0.4477,1,1c0,0.5522-0.4473,1-1,1H45.332 v1.2378C45.332,30.7803,43.6201,32.4922,41.5156,32.4922z"/>
    <path d="M24.7334,27.8672c-0.3711,0.0005-0.7275-0.207-0.9004-0.563c-0.2412-0.4966-0.0342-1.0952,0.4629-1.3364 c0.9268-0.4502,2.9639-4.9038,4.2852-8.7808c0.165-0.4829,0.666-0.7617,1.164-0.6533c0.4971,0.1108,0.832,0.5786,0.7764,1.0854l0,0 c0.001,0-0.0166,0.6861,0.8076,1.5093c1.2217,1.2193,4.8213,3.1973,15.1387,2.7354c0.542-0.0249,1.0195,0.4023,1.0439,0.9546 c0.0244,0.5517-0.4023,1.019-0.9541,1.0434c-8.6269,0.3877-14.2695-0.7803-16.7803-3.4614 c-0.0585-0.0625-0.1152-0.1255-0.1679-0.188c-1.0948,2.8359-2.8584,6.7861-4.4405,7.5542 C25.0283,27.835,24.8799,27.8672,24.7334,27.8672z"/>
    <path d="M16.2852,46.0303c-0.3555,0-0.6993-0.1895-0.8799-0.5235c-1.8106-3.3437-2.1446-5.6201-1.0225-6.9609 c0.9297-1.1094,2.5215-1.1328,3.6641-0.9678c0.1787-3.3994,1.5595-9.9536,4.1933-19.9214 c1.3702-4.0268,2.2549-5.5683,3.5284-6.1753c0.7187-0.3422,1.4443-0.3022,2.082-0.1474c1.5683-1.6494,5.6025-3.8858,10.0078-3.6035 c3.6475,0.2426,8.7344,2.3105,12.2539,10.7861c1.8174,5.7397,3.0361,10.4038,3.6533,13.9434 c0.0703,0.4062,0.542,3.3418,0.7871,4.8691c0.9444,0.0088,2.3174,0.2744,3.3008,1.5391c0.3399,0.4365,0.2608,1.0644-0.1748,1.4033 c-0.4365,0.3418-1.0635,0.2598-1.4033-0.1748c-0.8154-1.0488-2.3154-0.7246-2.3301-0.7188 c-0.2695,0.0655-0.5557,0.0137-0.7881-0.1406s-0.3886-0.3984-0.4326-0.6738c0,0-0.834-5.211-0.9297-5.7608 c-0.6015-3.4521-1.7988-8.0283-3.5595-13.6015c-2.4805-5.9615-6.0264-9.1768-10.5098-9.4751 c-4.2783-0.2779-8.1026,2.3164-8.6553,3.2671c-0.2441,0.4194-0.7558,0.601-1.2099,0.436 c-0.7598-0.2798-1.0489-0.2295-1.2315-0.1421c-0.8301,0.3955-1.7168,2.7232-2.4756,4.9478 c-2.9111,11.0297-4.3017,17.9565-4.1113,20.519c0.0254,0.333-0.1182,0.6572-0.3818,0.8623 c-0.2637,0.2061-0.6143,0.2647-0.9297,0.1611c-0.9121-0.2959-2.3985-0.4453-2.8155,0.0538 c-0.1318,0.1591-0.6953,1.1337,1.2491,4.7226c0.2627,0.4863,0.082,1.0928-0.4034,1.3565 C16.6094,45.9912,16.4463,46.0303,16.2852,46.0303z"/>
    <path d="M16.8672,58.7188c-0.4844,0.0009-0.9102-0.3526-0.9863-0.8467c-0.0411-0.2696-0.9727-6.6328,2.581-10.7754 c1.9229-2.2412,4.751-3.377,8.4072-3.377c0.1973,0,0.3907,0.0586,0.5547,0.168c3.1621,2.1084,5.6748,3.418,8.4063,3.4248h0.039 c0.5518,0,0.9991,0.4473,1,0.999c0.001,0.5586-0.4404,1.0059-1.0185,1.001c-0.0078,0-0.0137,0-0.0215,0h-0.085 c-0.0156,0-0.0302,0-0.0459-0.001c-3.0996-0.0429-5.8164-1.4033-9.1259-3.5888c-2.8965,0.0566-5.1104,0.9541-6.586,2.6689 c-2.956,3.4365-2.1377,9.1201-2.1289,9.1777c0.083,0.545-0.292,1.0547-0.8379,1.1387 C16.9688,58.7158,16.918,58.7188,16.8672,58.7188z"/>
    <path d="M33.9463,55.083c-0.294,0-0.584-0.1279-0.7813-0.375l-7.2646-9.0713c-0.3457-0.4306-0.2764-1.0605,0.1553-1.4053 c0.4326-0.3486,1.0615-0.2753,1.4052,0.1553l7.2647,9.0713c0.3457,0.4307,0.2764,1.0606-0.1553,1.4053 C34.3857,55.0117,34.165,55.083,33.9463,55.083z"/>
    <path d="M32.957,57.1563c-0.0742,0-0.1494-0.0079-0.2256-0.0254l-4.8974-1.128c-0.2686-0.0615-0.499-0.2314-0.6387-0.4697 c-0.1387-0.2373-0.1738-0.5225-0.0967-0.7861l0.458-1.5606h-3.2373c-0.2509,0-0.4922-0.0947-0.6767-0.2636 c-1.4043-1.292-1.6201-2.6456-1.5537-3.5547c0.2129-2.9268,3.459-5.2227,3.8281-5.4746c0.4551-0.3106,1.0771-0.1944,1.3877,0.2617 c0.3115,0.4551,0.1953,1.0771-0.2598,1.3896c-0.7832,0.5381-2.8428,2.3008-2.9619,3.9717 c-0.042,0.5918,0.1709,1.1406,0.6504,1.6699h4.1592c0.3154,0,0.6113,0.1485,0.8008,0.4004 c0.1884,0.2529,0.247,0.5791,0.1591,0.8809l-0.5361,1.8242l3.8643,0.8896c0.5381,0.1241,0.874,0.6612,0.75,1.1993 C33.8242,56.8438,33.4121,57.1563,32.957,57.1563z"/>
    <polygon fill="none" stroke="#000000" stroke-linecap="round" stroke-linejoin="round" stroke-miterlimit="10" stroke-width="2" points="35.0967,59.5725 60.0867,59.5725 67.0367,43.2225 42.0467,43.2225"/>
    <line x1="24.1267" x2="35.0967" y1="59.5725" y2="59.5725" fill="none" stroke="#000000" stroke-linecap="round" stroke-linejoin="round" stroke-miterlimit="10" stroke-width="2"/>
  </g>
</svg>
