<svg id="emoji" x="0" y="0" viewBox="0 0 72 72" version="1.1" xmlns="http://www.w3.org/2000/svg">
  <g id="color">
    <path fill="#92D3F5" d="M11.0003,61V44.9552c0-3.2895,3.2918-5.9566,6.5836-5.9566c3.9146,3.2895,7.8292,3.2895,11.8327,0h13.1673 c3.9146,3.2895,7.8292,3.2895,11.8327,0c3.2918,0,6.5836,2.6671,6.5836,5.9566V61"/>
    <path fill="#B1CC33" d="M17,61v-2.5333C17,56,19.5018,54,22.0036,54c2.9751,2.4667,5.9502,2.4667,8.9929,0 C33.4982,54,36,56,36,58.4667V61"/>
    <path fill="#B1CC33" d="M36.0003,61v-2.5333C36.0003,56,38.5021,54,41.0039,54c2.9751,2.4667,5.9502,2.4667,8.9929,0 c2.5018,0,5.0036,2,5.0036,4.4667V61"/>
  </g>
  <g id="hair">
    <path fill="#A57939" d="M37.9321,40.062l-1.5485-2.0449c-2.6671-4.0007,0.2034-7.4695,1.4481-10.6701 c1.0669-2.845-0.1778-4.3563,0.889-8.0903c0.978-3.6451,4.8898-5.9566,9.1572-5.9566c3.6451,0,5.3343,2.0448,5.3343,2.0448 c2.7561,0.2667,4.8898,2.5782,4.9787,5.3343c0.2667,4.8009,0.7112,4.8009,2.3115,8.5349c1.1558,2.756,1.5344,6.4376-0.4216,8.6602 l-1.7012,2.0373"/>
    <path fill="#A57939" d="M13.9286,21.3903c0.5334-7.7347,6.4011-7.8236,9.335-7.3791c0.2667,0.0889,1.0669,0,1.3336,0 c5.3343-0.7112,8.0014,5.3343,8.0014,8.0014c0,0.978,0.2255,3.3655-1.1081,4.6991c0,0-3.2483-3.7211-3.4261-5.8549 c0,0-10.1352,3.8229-10.8464,0.5334c0,0-0.7112,2.6671-1.3336,3.3784c0,0-0.3288,2.0448-0.3288,2.6671 C15.5558,27.4359,13.6619,24.7687,13.9286,21.3903z"/>
    <path fill="#A57939" d="M45.5003,40.7038c3.864,1.3703,5.567,5.8271,5.6943,9.6307c1.4225,0.308,2.8826-0.3898,3.8057-1.461 c-0.9845-0.8337-1.7269-1.9167-2.1494-3.1356c0.7369-5.7252-2.03-9.5793-7.3506-8.4862c-5.3206-1.0931-8.0875,2.761-7.3506,8.4862 c-0.4225,1.2189-1.1649,2.3019-2.1494,3.1356c0.923,1.0712,2.3833,1.769,3.8057,1.461 C39.9333,46.5311,41.6362,42.074,45.5003,40.7038z"/>
    <path fill="#A57939" d="M24.1355,42.2716c0.4694,3.3631,4.487-0.8706,4.487-0.8706c0.5491,1.5737,4.4254,3.8674,4.4254,3.8674 c1.0324-0.9557,0.5259-2.8525,0.3721-3.5136c-0.5106-2.7127-3.0794-4.5325-5.8079-4.1144c-0.3436,0.0276-0.6888,0.0276-1.0324,0 c-2.2709-0.3369-6.03-0.1483-7.12,4.6433c-0.5317,2.3382,0.624,2.9844,0.624,2.9844S23.8477,40.2093,24.1355,42.2716z"/>
  </g>
  <g id="skin">
    <path fill="#FCEA2B" d="M41.1209,26.8135c0,5.3343,3.3784,9.335,7.3791,9.335s7.3791-4.0007,7.3791-9.335 c0-3.3784-1.3336-5.3343-4.0007-8.0014c-2.6671,2.6671-10.6686,6.0455-10.6686,7.3791L41.1209,26.8135L41.1209,26.8135z"/>
    <path fill="#FCEA2B" d="M28.0454,20.8569c0,0-10.1351,3.8229-10.8464,0.5334c0,0-0.7112,2.6672-1.3336,3.3784 c0,0-0.3185,1.9835-0.3273,2.635c0.4585,5.148,3.8411,9.1996,7.9427,9.1996c4.2864,0,7.782-4.426,7.9809-9.9028 C31.3572,26.5801,28.2203,22.9551,28.0454,20.8569z"/>
    <path fill="#FCEA2B" d="M28.6225,41.401c0,0-4.0176,4.2337-4.487,0.8706c-0.2576-1.8462-3.2933,2.0046-3.9283,2.834 c-0.0739,0.3356-0.1232,0.5668-0.1232,0.5888c-0.1437,3.7311,2.7579,6.8753,6.4885,7.031c3.7306-0.1557,6.6323-3.2999,6.4886-7.031 c0-0.0303-0.0594-0.2263-0.15-0.5089C32.2324,44.7706,29.1115,42.8025,28.6225,41.401z"/>
    <path fill="#FCEA2B" d="M51.0034,48.517c-0.0138-0.0543-0.0171-0.1106-0.0324-0.1646c-0.5499-3.1755-2.2374-6.5396-5.471-7.6487 c-3.2336,1.1091-4.9211,4.4731-5.471,7.6487c-0.0153,0.054-0.0186,0.1102-0.0324,0.1646c0.8397,2.7543,2.9947,4.3117,5.5034,4.3118 C48.0087,52.8287,50.1638,51.2713,51.0034,48.517z"/>
  </g>
  <g id="line">
    <path fill="none" stroke="#000000" stroke-miterlimit="10" stroke-width="2" d="M31.5,25.5689c0,0.1839,0,0.3678,0,0.6437 c0,5.7012-3.5862,10.3908-8,10.3908s-8-4.6897-8-10.3908c0-0.1839,0-0.3678,0-0.6437"/>
    <path fill="none" stroke="#000000" stroke-linecap="round" stroke-linejoin="round" stroke-width="2" d="M13.9286,21.3903 c0.5334-7.7347,6.4011-7.8236,9.335-7.3791c0.2667,0.0889,1.0669,0,1.3336,0c5.3343-0.7112,8.0014,5.3343,8.0014,8.0014 c0,0.978,0.2255,3.3655-1.1081,4.6991c0,0-3.2483-3.7211-3.4261-5.8549c0,0-10.1352,3.8229-10.8464,0.5334 c0,0-0.7112,2.6671-1.3336,3.3784c0,0-0.3288,2.0448-0.3288,2.6671C15.5558,27.4359,13.6619,24.7687,13.9286,21.3903z"/>
    <path fill="none" stroke="#000000" stroke-linecap="round" stroke-linejoin="round" stroke-width="2" d="M36.7244,36.7461 c-2.0402-3.6662-0.0693-6.3738,1.1072-9.3991c1.0669-2.845-0.1778-4.3563,0.889-8.0903c0.978-3.6451,4.8898-5.9566,9.1572-5.9566 c3.6451,0,5.3343,2.0448,5.3343,2.0448c2.7561,0.2667,4.8898,2.5782,4.9787,5.3343c0.2667,4.8009,0.7112,4.8009,2.3115,8.5349 c1.0621,2.5328,0.7728,5.3659-0.7991,7.5333"/>
    <path fill="none" stroke="#000000" stroke-linejoin="round" stroke-miterlimit="10" stroke-width="2" d="M41.1209,26.8135 c0,5.3343,3.3784,9.335,7.3791,9.335s7.3791-4.0007,7.3791-9.335c0-3.3784-1.3336-5.3343-4.0007-8.0014 c-2.6671,2.6671-10.6686,6.0455-10.6686,7.3791L41.1209,26.8135L41.1209,26.8135z"/>
    <path fill="none" stroke="#000000" stroke-linecap="round" stroke-linejoin="round" stroke-width="2" d="M11.0003,60V44.9552 c0-3.2895,3.2918-5.9566,6.5836-5.9566c0.541,0.4546,1.082,0.8464,1.6232,1.1754"/>
    <path fill="none" stroke="#000000" stroke-linecap="round" stroke-linejoin="round" stroke-width="2" d="M52.6455,40.2424 c0.5886-0.3426,1.1789-0.7573,1.7711-1.2439c3.2918,0,6.5836,2.6671,6.5836,5.9566V60"/>
    <path d="M47.25,26.5c0,0.7143-0.5357,1.25-1.25,1.25s-1.25-0.5357-1.25-1.25s0.5357-1.25,1.25-1.25S47.25,25.7857,47.25,26.5"/>
    <path d="M52.25,26.5c0,0.7143-0.5357,1.25-1.25,1.25s-1.25-0.5357-1.25-1.25s0.5357-1.25,1.25-1.25S52.25,25.7857,52.25,26.5"/>
    <path fill="none" stroke="#000000" stroke-linecap="round" stroke-linejoin="round" stroke-width="2" d="M46.633,31.5332 c1.1558,0.6223,2.5782,0.6223,3.734,0"/>
    <path d="M22.25,26.5c0,0.7143-0.5357,1.25-1.25,1.25s-1.25-0.5357-1.25-1.25s0.5357-1.25,1.25-1.25S22.25,25.7857,22.25,26.5"/>
    <path d="M27.25,26.5c0,0.7143-0.5357,1.25-1.25,1.25s-1.25-0.5357-1.25-1.25s0.5357-1.25,1.25-1.25S27.25,25.7857,27.25,26.5"/>
    <path fill="none" stroke="#000000" stroke-linecap="round" stroke-linejoin="round" stroke-width="2" d="M21.633,31.5332 c1.1558,0.6223,2.5782,0.6223,3.734,0"/>
    <path d="M48.0979,45.7015c0.0333,0.4958-0.3417,0.9247-0.8377,0.958c-0.4959,0.0333-0.9249-0.3417-0.9582-0.8375 s0.3417-0.9247,0.8377-0.958c0.0201-0.0014,0.0402-0.002,0.0604-0.002C47.6797,44.8465,48.0814,45.2221,48.0979,45.7015z"/>
    <path fill="none" stroke="#000000" stroke-linecap="round" stroke-linejoin="round" stroke-width="1.6" d="M44.1639,49.1857 c0.7749,0.6425,1.8974,0.6425,2.6723,0"/>
    <path fill="none" stroke="#000000" stroke-miterlimit="10" stroke-width="1.6" d="M51.0438,48.407 c-0.8139,2.8267-3.0002,4.4219-5.5441,4.4219h0.0006c-2.5439,0-4.7302-1.5952-5.5441-4.4219"/>
    <path d="M43.7999,44.862c0.0201,0,0.0403,0.0007,0.0604,0.002c0.4959,0.0333,0.871,0.4622,0.8377,0.958 s-0.4623,0.8707-0.9582,0.8375c-0.4959-0.0333-0.871-0.4622-0.8377-0.958C42.9186,45.2221,43.3203,44.8465,43.7999,44.862z"/>
    <path fill="none" stroke="#000000" stroke-linecap="round" stroke-linejoin="round" stroke-width="1.6" d="M17,60.2v-1.7333 C17,56,19.5018,54,22.0036,54c2.9751,2.4667,5.9502,2.4667,8.9929,0C33.4982,54,36,56,36,58.4667V60.2"/>
    <path fill="none" stroke="#000000" stroke-linecap="round" stroke-linejoin="round" stroke-width="1.6" d="M36.0003,60.2v-1.7333 C36.0003,56,38.5021,54,41.0039,54c2.9751,2.4667,5.9502,2.4667,8.9929,0c2.5018,0,5.0036,2,5.0036,4.4667V60.2"/>
    <path d="M29.298,45.7015c0.0333,0.4958-0.3417,0.9247-0.8377,0.958c-0.4959,0.0333-0.9249-0.3417-0.9582-0.8375 s0.3417-0.9247,0.8377-0.958c0.0201-0.0014,0.0402-0.002,0.0604-0.002C28.8798,44.8465,29.2815,45.2221,29.298,45.7015z"/>
    <path fill="none" stroke="#000000" stroke-linecap="round" stroke-linejoin="round" stroke-width="1.6" d="M25.1639,49.1857 c0.7749,0.6425,1.8974,0.6425,2.6723,0"/>
    <path d="M24.5998,44.862c0.0201,0,0.0403,0.0007,0.0604,0.002c0.4959,0.0333,0.871,0.4622,0.8377,0.958 s-0.4623,0.8707-0.9582,0.8375c-0.4959-0.0333-0.871-0.4622-0.8377-0.958C23.7185,45.2221,24.1202,44.8465,24.5998,44.862z"/>
    <path fill="none" stroke="#000000" stroke-linecap="round" stroke-linejoin="round" stroke-width="1.6" d="M45.5003,40.7038 c3.864,1.3703,5.567,5.8271,5.6943,9.6307c1.4225,0.308,2.8826-0.3898,3.8057-1.461c-0.9845-0.8337-1.7269-1.9167-2.1494-3.1356 c0.7369-5.7252-2.03-9.5793-7.3506-8.4862c-5.3206-1.0931-8.0875,2.761-7.3506,8.4862c-0.4225,1.2189-1.1649,2.3019-2.1494,3.1356 c0.923,1.0712,2.3833,1.769,3.8057,1.461C39.9333,46.5311,41.6362,42.074,45.5003,40.7038z"/>
    <path fill="none" stroke="#000000" stroke-miterlimit="10" stroke-width="1.6" d="M33.0493,45.2683 c0.0078,0.141,0.0117,0.283,0.0118,0.4261c0.1437,3.7311-2.758,6.8753-6.4886,7.031c-3.7306-0.1557-6.6322-3.2999-6.4885-7.031 c0-0.0952,0.0017-0.1899,0.0052-0.2841"/>
    <path fill="none" stroke="#000000" stroke-linecap="round" stroke-linejoin="round" stroke-width="1.6" d="M24.1355,42.2716 c0.4694,3.3631,4.487-0.8706,4.487-0.8706c0.5491,1.5737,4.4254,3.8674,4.4254,3.8674c1.0324-0.9557,0.5259-2.8525,0.3721-3.5136 c-0.5106-2.7127-3.0794-4.5325-5.8079-4.1144c-0.3436,0.0276-0.6888,0.0276-1.0324,0c-2.2709-0.3369-6.03-0.1483-7.12,4.6433 c-0.5317,2.3382,0.624,2.9844,0.624,2.9844S23.8477,40.2093,24.1355,42.2716z"/>
  </g>
</svg>
