<svg id="emoji" x="0" y="0" viewBox="0 0 72 72" version="1.1" xmlns="http://www.w3.org/2000/svg">
  <g id="color">
    <path fill="#FFFFFF" d="M16.4082,58.7958c0,0-2-13.5,10-13.5c3.1919,2.1279,5.9264,3.5984,9,3.5921h-0.125 c3.0736,0.0063,5.5081-2.1642,8.7-4.2921c15.5705-0.0001,10.7,14.2,10.7,14.2"/>
    <path fill="#D0CFCE" d="M45.2932,44.1229c-3.17,2.1133-3.075,3.7-7.1375,4.2886c13.0625,0.4114,13.0625,5.4114,13.8246,9.4114 c4.2379,0,5.1129,0,5.1129,0S57.2932,44.1229,45.2932,44.1229z"/>
    <path fill="#FFFFFF" d="M58.4274,43.1684h-1.1793v6.4783l3.8661,8.8386c0,0,0.3081,1.3804-0.7928,1.3804 c-0.5364,0-9.8482,0.0117-10.3846,0.0117c-1.1009,0-0.7928-1.3804-0.7928-1.3804l3.8661-8.8286v-6.5h-1.0854"/>
    <line x1="53.0101" x2="57.2481" y1="43.1684" y2="43.1684" fill="none"/>
    <path fill="#B1CC33" d="M57.0481,49.6467l3.8661,8.8386c0,0,0.3081,1.3804-0.7928,1.3804c-0.5364,0-9.8482,0.0117-10.3846,0.0117 c-1.1009,0-0.7928-1.3804-0.7928-1.3804l3.8661-8.8286"/>
    <path fill="#92D3F5" d="M22.8026,25.1725c0,0,12.7029-7.0231,26.2497,0.8022l-3.8831,6.0255c0,0-6.7095,0.9322-9.2418-1.6 c-2.5912,2.5912-8.4903,1.6-8.4903,1.6L22.8026,25.1725z"/>
  </g>
  <g id="hair">
    <path fill="#000000" d="M52.1519,25.2249c-0.7507-5.994-2.7826-10.6506-5.1433-12.7278c-2.9246-2.5738-6.459-0.514-6.459-0.514 s-5.3405-6.4837-12.9044-1.6624c-7.5638,4.8214-8.3703,14.9042-8.3703,14.9042s-0.7261,8.073,0.3152,16.5172 c0.2071,1.6792,0.6382,3.3293,1.3223,4.8728c1.3883-0.8123,3.1788-1.3191,5.4958-1.3191c3.1658,2.1105,5.8825,3.5701,8.9255,3.5878 c3.0493-0.0179,5.4755-2.1718,8.6495-4.2878c2.7432,0,4.8411,0.447,6.4537,1.1732c0.6005-1.0406,1.0916-2.1504,1.4464-3.3234 c0.3227-1.0668,0.4429-2.1835,0.4549-3.298C52.3729,35.9031,52.5136,28.1117,52.1519,25.2249z M45.1692,32.0002 c0,0-6.7095,0.9322-9.2418-1.6c-2.5912,2.5912-8.4904,1.6-8.4904,1.6l-4.6345-6.8277c0,0,12.7029-7.0231,26.2497,0.8022 L45.1692,32.0002z"/>
  </g>
  <g id="skin">
    <path fill="#a57939" d="M47.4246,25.1099l-8.4968-6.6935c-2.4692,1.8462-4.9036,3.1522-7.0764,4.0812 C36.1904,21.9571,41.6873,22.2681,47.4246,25.1099z"/>
    <path fill="#a57939" d="M45.1692,32.0002c0,0-6.7095,0.9322-9.2418-1.6c-2.5912,2.5912-8.4904,1.6-8.4904,1.6l-2.4694-3.638 c0.1837,7.6266,5.1753,13.7426,11.3212,13.7426c6.1889,0,11.2108-6.2008,11.3276-13.902L45.1692,32.0002z"/>
  </g>
  <g id="skin-shadow"/>
  <g id="line">
    <line x1="33.026" x2="33.026" y1="54.8917" y2="56.661" fill="none" stroke="#000000" stroke-linecap="round" stroke-linejoin="round" stroke-miterlimit="10" stroke-width="2"/>
    <path d="M41.8917,27.0725c0,1.1045-0.8965,2-2,2s-2-0.8955-2-2c0-1.1035,0.8965-2,2-2S41.8917,25.969,41.8917,27.0725"/>
    <path d="M33.8917,27.0725c0,1.1045-0.8965,2-2,2s-2-0.8955-2-2c0-1.1035,0.8965-2,2-2S33.8917,25.969,33.8917,27.0725"/>
    <path d="M35.8915,37.0749c-1.1518,0-2.3037-0.2861-3.4472-0.8579c-0.4942-0.2471-0.6944-0.8477-0.4473-1.3418 c0.2466-0.4937,0.8462-0.6944,1.3418-0.4473c1.7178,0.8594,3.3877,0.8594,5.1055,0c0.4946-0.2471,1.0947-0.0464,1.3418,0.4473 c0.247,0.4941,0.0468,1.0947-0.4473,1.3418C38.1952,36.7888,37.0434,37.0749,35.8915,37.0749z"/>
    <path fill="none" stroke="#000000" stroke-linecap="round" stroke-linejoin="round" stroke-miterlimit="10" stroke-width="2" d="M47.1732,29.8627c-0.5734,7.1564-5.4055,12.7438-11.2817,12.7438c-6.2621,0-11.3386-6.3456-11.3386-14.1732v-1.2531"/>
    <path fill="none" stroke="#000000" stroke-linecap="round" stroke-linejoin="round" stroke-miterlimit="10" stroke-width="2" d="M16.8316,57.9252c0,0-2-13,10-13c3.1919,2.128,5.9264,3.5985,9,3.5922h-0.125c3.0736,0.0063,5.8081-1.4642,9-3.5922 c1.8775,0,3.4123,0.3183,4.6656,0.8551"/>
    <path fill="none" stroke="#000000" stroke-linecap="round" stroke-linejoin="round" stroke-miterlimit="10" stroke-width="2" d="M58.3099,43.0707h-1.1793v6.4784l3.8661,8.8385c0,0,0.3081,1.3805-0.7928,1.3805c-0.5364,0-9.8482,0.0116-10.3846,0.0116 c-1.1009,0-0.7928-1.3804-0.7928-1.3804l3.8661-8.8286v-6.5h-1.0854"/>
    <line x1="52.8926" x2="57.1306" y1="43.0707" y2="43.0707" fill="none" stroke="#000000" stroke-linecap="round" stroke-linejoin="round" stroke-miterlimit="10" stroke-width="2"/>
    <path fill="none" stroke="#000000" stroke-linecap="round" stroke-linejoin="round" stroke-miterlimit="10" stroke-width="2" d="M32.2796,22.3852c4.2811-1.6427,6.6482-3.9688,6.6482-3.9688s3.8316,3.9334,7.8297,6.0854"/>
    <path fill="none" stroke="#000000" stroke-linecap="round" stroke-linejoin="round" stroke-miterlimit="10" stroke-width="2" d="M20.7138,42.7252c-1.3842-8.8622-0.3955-18.0509-0.3955-18.0509s0.7556-9.7405,7.8405-14.3982s12.0875,1.6059,12.0875,1.6059 s3.3103-1.9898,6.05,0.4966c2.2111,2.0066,4.1143,6.5052,4.8177,12.2957c0.4325,3.5614,0.5575,9.7039,0.2505,14.8494"/>
    <path fill="none" stroke="#000000" stroke-linecap="round" stroke-linejoin="round" stroke-miterlimit="10" stroke-width="2" d="M26.3376,44.9252c0,0,4.831,7.1009,11.0601,7.7101v5.2899"/>
    <line x1="33.026" x2="33.026" y1="56.1342" y2="57.9036" fill="none" stroke="#000000" stroke-linecap="round" stroke-linejoin="round" stroke-miterlimit="10" stroke-width="2"/>
    <path fill="none" stroke="#000000" stroke-linecap="round" stroke-linejoin="round" stroke-miterlimit="10" stroke-width="2" d="M23.1223,25.0725c0,0,12.7029-7.0231,26.2497,0.8022l-3.8831,6.0255c0,0-6.7095,0.9322-9.2418-1.6 c-2.5912,2.5912-8.4903,1.6-8.4903,1.6L23.1223,25.0725z"/>
  </g>
</svg>
