<svg id="emoji" x="0" y="0" viewBox="0 0 72 72" version="1.1" xmlns="http://www.w3.org/2000/svg">
  <g id="color">
    <path fill="#FFFFFF" d="M16.6974,58.8529c0,0-0.9644-3.8571-0.1756-7.6612c0.7007-3.3792,4.6186-7.2388,10.2087-7.2388 c3.1918,2.1279,5.5264,4.5985,8.6,4.5922h-0.125c3.0736,0.0063,6.308-1.5642,9.4999-3.6922c11.5647-0.0346,10.009,13.9,10.24,14"/>
    <path fill="#D0CFCE" d="M44.5989,49.8475c4.2663,2.3224,4.3828,6.254,4.9068,9.004c4.2378,0,5.1128,0,5.1128,0 s1.6601-4.6027,0.1076-8.7835c-1.1542-3.1082-4.4418-6.1174-9.6076-6.1165"/>
    <path fill="#3F3F3F" d="M50.2688,16.1272c0.6,1.14,0.42,2.53-0.4,3.52l-2.24,2.72l-0.09,0.06c-1.02-1.56-2.34-2.5-2.34-2.5 l-0.04-0.05c0.49-0.35,0.93-0.76,1.31-1.21h-21.07c0.33,0.33,0.7,0.64,1.1,0.93l-0.02,0.03c0,0-1.2,0.91-2.17,2.4l-0.24-0.15 l-1.85-2.23c-0.82-0.99-1-2.38-0.4-3.52c1.37-2.58,4.98-6.72,14.23-7.28C45.2988,9.4072,48.9088,13.5472,50.2688,16.1272z"/>
    <path fill="#3F3F3F" d="M33.9488,22.2272c-2.82-0.33-5.51-1.23-7.45-2.63c-0.4-0.29-0.77-0.6-1.1-0.93h21.07 c-0.38,0.45-0.82,0.86-1.31,1.21c-1.08,0.82-2.38,1.43-3.82,1.83C39.0588,22.3572,36.4588,22.5172,33.9488,22.2272z"/>
    <path fill="#D0CFCE" d="M33.0349,18.0845c0-1.6553,1.3448-3,3-3c1.6553,0,3,1.3447,3,3"/>
    <polygon fill="#3F3F3F" points="35.7441,50.1755 39.5188,58.8523 35.7441,58.8523 31.7695,58.8523"/>
    <path fill="#3F3F3F" d="M33.3735,48.7295c0,0-1.2063,5.0369,2.3073,5.0369s2.3073-5.0369,2.3073-5.0369"/>
  </g>
  <g id="hair">
    <path fill="#000000" d="M46.5073,41.9582c6.2358-0.6113,8.387-3.307,8.387-3.307l-5.9082-0.6003 c8.0702-8.437-3.3737-16.8852-3.3737-16.8852H44.151l-7.1649,1.5887L28.03,21.1657h-1.8351c0,0-11.444,8.4482-3.3737,16.8852 l-5.6247,0.6003c0,0,1.8674,2.6957,8.1037,3.307C25.3002,43.2142,46.5073,43.2142,46.5073,41.9582z"/>
  </g>
  <g id="skin">
    <rect x="16.7583" y="44.3515" width="6.9637" height="3.8501" fill="#a57939"/>
    <rect x="47.7083" y="44.3515" width="6.9637" height="3.8501" fill="#a57939"/>
    <path fill="#a57939" d="M36,22.3618c0,0,6.035-0.5829,6.035-0.5829s5.338,5.4276,5.2303,6.948 c0,7.8277-5.0765,14.1733-11.3386,14.1733s-11.3386-6.3456-11.3386-14.1733C24.3928,24.6005,36,22.3618,36,22.3618z"/>
  </g>
  <g id="skin-shadow"/>
  <g id="line">
    <path d="M42.035,26.8457c0,1.1045-0.8965,2-2,2s-2-0.8955-2-2c0-1.1035,0.8965-2,2-2S42.035,25.7422,42.035,26.8457"/>
    <path d="M34.035,26.8457c0,1.1045-0.8965,2-2,2s-2-0.8955-2-2c0-1.1035,0.8965-2,2-2S34.035,25.7422,34.035,26.8457"/>
    <path d="M36.0349,36.8481c-1.1518,0-2.3037-0.2861-3.4473-0.8579c-0.4941-0.247-0.6943-0.8476-0.4472-1.3418 c0.2466-0.4936,0.8462-0.6943,1.3418-0.4472c1.7177,0.8593,3.3877,0.8593,5.1054,0c0.4947-0.2471,1.0948-0.0464,1.3418,0.4472 c0.2471,0.4942,0.0469,1.0948-0.4472,1.3418C38.3386,36.562,37.1868,36.8481,36.0349,36.8481z"/>
    <path d="M36.0352,43.3799c-6.8038,0-12.3389-6.8067-12.3389-15.1734c0-0.5522,0.4473-1,1-1s1,0.4478,1,1 c0,7.2642,4.6377,13.1734,10.3389,13.1734c5.7002,0,10.3378-5.9092,10.3378-13.1734c0-0.5522,0.4473-1,1-1c0.5528,0,1,0.4478,1,1 C48.373,36.5732,42.8379,43.3799,36.0352,43.3799z"/>
    <path d="M36.3535,23.4863c-4.6972,0-9.207-1.5288-11.6689-3.9951c-0.2852-0.2861-0.3701-0.7163-0.2158-1.0898 c0.1552-0.3731,0.5195-0.6167,0.9238-0.6167h21.0683c0.3897,0,0.7442,0.2265,0.9073,0.58c0.164,0.3536,0.1074,0.7706-0.1455,1.0674 c-2.0313,2.3921-5.6788,3.8633-10.0059,4.0371C36.9287,23.4805,36.6406,23.4863,36.3535,23.4863z M28.5293,19.7847 c2.333,1.1792,5.4336,1.8139,8.6074,1.686c2.5635-0.103,4.8272-0.6978,6.5381-1.686H28.5293z"/>
    <path d="M47.8242,23.2305c-0.2236,0-0.4492-0.0752-0.6357-0.229c-0.4258-0.3521-0.4864-0.9825-0.1338-1.4082l2.0371-2.4644 c0.5771-0.6987,0.6885-1.6465,0.2832-2.4141c-1.2051-2.2846-4.54-6.1943-13.3398-6.7504 c-8.7989,0.5561-12.1348,4.4658-13.3409,6.7504c-0.4052,0.7671-0.2939,1.7149,0.2842,2.4141l1.8633,2.2549 c0.3525,0.4258,0.292,1.0561-0.1338,1.4082c-0.4267,0.353-1.0557,0.291-1.4072-0.1338l-1.8633-2.2549 c-1.0947-1.3242-1.2949-3.1382-0.5127-4.622c1.4053-2.6612,5.2285-7.2159,15.0488-7.8169c0.041-0.003,0.0821-0.003,0.1231,0 c9.8222,0.6015,13.6435,5.1557,15.0478,7.8169c0.7832,1.4843,0.5821,3.2983-0.5117,4.622l-2.0371,2.4644 C48.3984,23.1069,48.1123,23.2305,47.8242,23.2305z"/>
    <path fill="none" stroke="#000000" stroke-linecap="round" stroke-linejoin="round" stroke-miterlimit="10" stroke-width="2" d="M42.3185,17.1053"/>
    <path fill="none" stroke="#000000" stroke-linecap="round" stroke-linejoin="round" stroke-miterlimit="10" stroke-width="2" d="M29.6948,17.1053"/>
    <path fill="none" stroke="#000000" stroke-linecap="round" stroke-linejoin="round" stroke-miterlimit="10" stroke-width="2" d="M46.4605,16.2912"/>
    <path d="M25.293,42.4375c-0.0323,0-0.0655-0.002-0.0987-0.0049c-6.6201-0.6484-8.7402-3.6064-8.8281-3.7324 c-0.2012-0.29-0.2344-0.6641-0.0869-0.9854c0.1465-0.3212,0.4521-0.541,0.8027-0.5781l3.7676-0.4023 c-1.4463-2.0137-2.0791-4.1758-1.8828-6.4483c0.5039-5.8623,6.377-10.2607,6.627-10.4453 c0.4443-0.3271,1.0693-0.2339,1.3974,0.2105c0.3281,0.4433,0.2344,1.0693-0.209,1.3979c-0.0537,0.0401-5.4023,4.0586-5.8242,9.0156 c-0.1904,2.2422,0.6768,4.3868,2.5781,6.3741c0.2637,0.2754,0.3477,0.6767,0.2168,1.0351 c-0.1308,0.3574-0.4541,0.6104-0.833,0.6504l-3.1992,0.3418c1.1504,0.6318,2.9619,1.3106,5.6689,1.5762 c0.5499,0.0537,0.9512,0.543,0.8975,1.0928C26.2363,42.0518,25.8018,42.4375,25.293,42.4375z"/>
    <path d="M46.499,42.4375c-0.5088,0-0.9433-0.3857-0.9941-0.9023c-0.0537-0.5498,0.3476-1.0391,0.8974-1.0928 c2.6993-0.2647,4.5733-0.9414,5.7969-1.5791l-3.3222-0.3379c-0.3799-0.0391-0.7051-0.291-0.837-0.6494 c-0.1318-0.3584-0.0478-0.7608,0.2159-1.0371c1.9033-1.9893,2.7705-4.1368,2.5771-6.3819 c-0.4277-4.9707-5.7685-8.9673-5.8223-9.0068c-0.4443-0.3281-0.539-0.9541-0.2109-1.3984c0.3281-0.4444,0.9541-0.5391,1.3984-0.211 c0.25,0.1846,6.1231,4.583,6.627,10.4453c0.1953,2.2686-0.4346,4.4278-1.876,6.4395l4.0391,0.4101 c0.3633,0.0372,0.6787,0.2706,0.8203,0.6075c0.1416,0.3379,0.0879,0.7256-0.1406,1.0117c-0.0987,0.123-2.4903,3.0322-9.0703,3.6777 C46.5645,42.4355,46.5313,42.4375,46.499,42.4375z"/>
    <path d="M23.7432,30.3271c-0.0684,0-0.1387-0.0068-0.208-0.0214c-0.5411-0.1153-0.8858-0.6455-0.7715-1.1856 c0.9521-4.4922,10.2881-7.3164,11.3496-7.6235c0.5312-0.1533,1.0859,0.1528,1.2383,0.6821 c0.1543,0.5303-0.1514,1.085-0.6817,1.2388c-3.5644,1.0337-9.4179,3.6089-9.9492,6.1167 C24.6211,30.0049,24.2051,30.3271,23.7432,30.3271z"/>
    <path d="M47.3359,28.9634c-0.2802,0-0.5595-0.1177-0.7578-0.3472l-5.2529-6.0952c-0.3604-0.4185-0.3135-1.0498,0.1055-1.4102 c0.417-0.3613,1.0478-0.3144,1.4101,0.1045l5.253,6.0952c0.3603,0.4185,0.3134,1.0499-0.1055,1.4102 C47.7998,28.8838,47.5674,28.9634,47.3359,28.9634z"/>
    <path d="M39.0352,19.0845c-0.5528,0-1-0.4478-1-1c0-1.1031-0.8975-2-2-2c-1.1026,0-2,0.8969-2,2c0,0.5522-0.4473,1-1,1 c-0.5528,0-1-0.4478-1-1c0-2.2056,1.7939-4,4-4c2.206,0,4,1.7944,4,4C40.0352,18.6367,39.5879,19.0845,39.0352,19.0845z"/>
    <path d="M35.6807,54.7666c-1.4112,0-2.2159-0.6455-2.6426-1.1865c-1.3828-1.753-0.7178-4.7481-0.6377-5.083 c0.1289-0.5371,0.6748-0.8672,1.2031-0.7393c0.5371,0.127,0.8692,0.666,0.7422,1.2031c-0.1436,0.6094-0.4033,2.5401,0.2637,3.3819 c0.1435,0.1826,0.4111,0.4238,1.0713,0.4238c0.6611,0,0.9287-0.2422,1.0722-0.4248c0.6211-0.7881,0.4453-2.6172,0.2627-3.3799 c-0.1289-0.5371,0.2032-1.0762,0.7403-1.2051c0.5361-0.1259,1.0761,0.2032,1.205,0.7403c0.0801,0.3349,0.7452,3.33-0.6377,5.083 C37.8965,54.1211,37.0918,54.7666,35.6807,54.7666z"/>
    <path d="M54.7598,58.9043c-0.0508,0-0.1016-0.0029-0.1524-0.0107c-0.5459-0.084-0.9209-0.5938-0.8379-1.1387 c0.0049-0.0371,0.5371-3.6924-0.7715-6.9111c-0.208-0.5118,0.0391-1.0958,0.5499-1.3038c0.5117-0.206,1.0957,0.0391,1.3037,0.5498 c1.5205,3.7432,0.9209,7.7969,0.8945,7.9678C55.6699,58.5518,55.2441,58.9043,54.7598,58.9043z"/>
    <path d="M30.1055,54.7012c-0.0284,0-0.0576-0.001-0.0869-0.0039c-0.3663-0.0323-0.6856-0.2627-0.8311-0.5996l-3.7754-8.7481 c-0.1279-0.2949-0.1055-0.6338,0.0596-0.9092c0.165-0.2763,0.4521-0.456,0.7724-0.4834l0.5528-0.0478 c0.2265-0.0225,0.4521,0.0381,0.6406,0.164c3.1543,2.1026,5.6621,3.4102,8.3828,3.4248c2.7227-0.0136,5.2295-1.3222,8.3828-3.4248 c0.1846-0.123,0.4004-0.1875,0.625-0.165l0.6787,0.0479c0.3282,0.0224,0.6241,0.206,0.7911,0.4892 c0.1669,0.2842,0.1845,0.6318,0.0449,0.9297l-4.0752,8.748c-0.1563,0.336-0.4854,0.5577-0.8555,0.5772 c-0.3701,0.0215-0.7197-0.1689-0.9092-0.4863l-2.9072-4.8692c-0.5469,0.0928-1.1006,0.1446-1.667,0.1524 c-0.0215,0.0009-0.043,0.0009-0.0644,0.0009c-0.0079,0-0.0137,0-0.0205,0h-0.0459c-0.0147,0-0.0284,0-0.042,0 c-0.0147,0-0.0293,0-0.044-0.0009c-0.5293-0.0078-1.0469-0.0528-1.5576-0.1348L30.9414,54.25 C30.7549,54.5332,30.4404,54.7012,30.1055,54.7012z M28.2988,46.9922l1.9903,4.6094l1.8144-2.7608 C30.8613,48.4102,29.6172,47.7822,28.2988,46.9922z M39.6094,48.8154l1.6426,2.752l2.1474-4.6104 C42.0859,47.748,40.8457,48.3799,39.6094,48.8154z"/>
    <path d="M16.8818,58.9053c-0.4853,0-0.9111-0.3535-0.9873-0.8477c-0.0263-0.1689-0.6172-4.164,0.8633-7.8847 c0.2041-0.5147,0.7861-0.7657,1.2979-0.5596c0.5136,0.2041,0.7646,0.7851,0.5595,1.2978c-1.2802,3.2207-0.75,6.8067-0.7441,6.8418 c0.084,0.5459-0.29,1.0567-0.8359,1.1407C16.9834,58.9014,16.9316,58.9053,16.8818,58.9053z"/>
    <path fill="none" stroke="#000000" stroke-linecap="round" stroke-linejoin="round" stroke-miterlimit="10" stroke-width="2" d="M28.9553,56.3636"/>
    <path fill="none" stroke="#000000" stroke-linecap="round" stroke-linejoin="round" stroke-miterlimit="10" stroke-width="2" d="M41.1079,56.3636"/>
    <path fill="none" stroke="#000000" stroke-linecap="round" stroke-linejoin="round" stroke-miterlimit="10" stroke-width="2" d="M32.6232,59.7038"/>
    <path fill="none" stroke="#000000" stroke-linecap="round" stroke-linejoin="round" stroke-miterlimit="10" stroke-width="2" d="M35.3704,54.059"/>
    <path d="M31.9014,58.8623c-0.1768,0-0.3555-0.0469-0.5176-0.1455c-0.4727-0.2861-0.6231-0.9014-0.3359-1.373l2.2382-3.6885 c0.2862-0.4727,0.9014-0.6231,1.3731-0.336c0.4726,0.2862,0.623,0.9014,0.3359,1.3731l-2.2383,3.6885 C32.5693,58.6914,32.2393,58.8623,31.9014,58.8623z"/>
    <path d="M39.4609,58.8623c-0.3379,0-0.6679-0.1709-0.8554-0.4814l-2.2393-3.6895c-0.2871-0.4717-0.1367-1.0869,0.3359-1.373 c0.4727-0.2871,1.0879-0.1368,1.3731,0.3359l2.2393,3.6895c0.2871,0.4716,0.1367,1.0869-0.336,1.373 C39.8164,58.8154,39.6377,58.8623,39.4609,58.8623z"/>
    <path d="M23.7217,48.2402c-0.5528,0-1-0.4472-1-1v-1.9521c0-0.5527,0.4472-1,1-1c0.5527,0,1,0.4473,1,1v1.9521 C24.7217,47.793,24.2744,48.2402,23.7217,48.2402z"/>
    <path d="M20.3262,48.2402c-0.5528,0-1-0.4472-1-1v-1.9521c0-0.5527,0.4472-1,1-1c0.5527,0,1,0.4473,1,1v1.9521 C21.3262,47.793,20.8789,48.2402,20.3262,48.2402z"/>
    <path d="M16.9307,48.2402c-0.5528,0-1-0.4472-1-1v-1.9521c0-0.5527,0.4472-1,1-1c0.5527,0,1,0.4473,1,1v1.9521 C17.9307,47.793,17.4834,48.2402,16.9307,48.2402z"/>
    <path d="M47.7949,48.2402c-0.5527,0-1-0.4472-1-1v-1.9521c0-0.5527,0.4473-1,1-1c0.5528,0,1,0.4473,1,1v1.9521 C48.7949,47.793,48.3477,48.2402,47.7949,48.2402z"/>
    <path d="M51.1904,48.2402c-0.5527,0-1-0.4472-1-1v-1.9521c0-0.5527,0.4473-1,1-1c0.5528,0,1,0.4473,1,1v1.9521 C52.1904,47.793,51.7432,48.2402,51.1904,48.2402z"/>
    <path d="M54.5859,48.2402c-0.5527,0-1-0.4472-1-1v-1.9521c0-0.5527,0.4473-1,1-1c0.5528,0,1,0.4473,1,1v1.9521 C55.5859,47.793,55.1387,48.2402,54.5859,48.2402z"/>
  </g>
</svg>
