<svg id="emoji" viewBox="0 0 72 72" xmlns="http://www.w3.org/2000/svg">
  <g id="color">
    <path fill="#92d3f5" d="M16.9208,59.496S15.1563,45.87,26.92,45.87c3.1288,2.0859,5.81,3.5274,8.8225,3.5213H35.62c3.013.0061,6.1836-1.5334,9.3126-3.6193,11.3366-.034,9.42,13.6258,9.6459,13.7239"/>
    <path fill="#61b2e4" d="M45.0648,44.7917c-3.1074,2.0716-4.9749,3.2349-8.9573,3.8119,12.8049.4033,12.8049,6.9712,13.552,10.8923h5.0121S56.8282,44.7917,45.0648,44.7917Z"/>
    <g>
      <path fill="#3f3f3f" d="M35.9028,54.214l1.839,3.1852,1.5755,1.9234a.197.197,0,0,1-.1524.3218H32.6408a.197.197,0,0,1-.1524-.3218l1.5755-1.9234Z"/>
      <path fill="#3f3f3f" d="M38.3879,51.885v.01c-.11,1.56-.66,3.18-2.49,3.18-1.75,0-2.33-1.51-2.47-3.01l-.16-.15,2.57-2.65Z"/>
    </g>
    <path fill="#92d3f5" d="M50.3334,17.47c1.24.33.42,2.52-.4,3.51l-2.24,2.72-.07.04a8.2711,8.2711,0,0,0-1.91-1.98l-.66-.54a7.6108,7.6108,0,0,0,1.31-1.22h-21.07a9.199,9.199,0,0,0,1.47,1.19l-.76.57a8.2206,8.2206,0,0,0-1.75,1.76l-.13-.1-2.02-2.44c-.81-.99-1.64-3.18-.39-3.51,5.74-1.53,5.95-7.86,14.31-7.86S44.5934,15.94,50.3334,17.47Zm-14.28.33c2.12,0,2.46-3.87,2.46-3.87a4.16,4.16,0,0,0-5-.06S33.9334,17.8,36.0534,17.8Z"/>
    <path fill="#61b2e4" d="M42.8657,11.7838s.9357,8.2184-2.5907,8.2184l5.3484.3352,1.7376,2.978s3.6717-1.9011,3.61-5.2334C50.9711,18.082,43.71,13.8606,42.8657,11.7838Z"/>
    <path fill="#fcea2b" d="M36.0953,17.5561c-2.1207.0034-2.536-3.9337-2.536-3.9337a4.1733,4.1733,0,0,1,5,.0577S38.216,17.5526,36.0953,17.5561Z"/>
    <path fill="#3f3f3f" d="M33.9634,23.57a16.5893,16.5893,0,0,1-7.2-2.38,9.199,9.199,0,0,1-1.47-1.19h21.07a7.6108,7.6108,0,0,1-1.31,1.22,11.6275,11.6275,0,0,1-3.71,1.79A19.1193,19.1193,0,0,1,33.9634,23.57Z"/>
  </g>
  <g id="hair">
    <g id="hair-2">
      <path fill="#fcea2b" d="M33.8539,23.2588c-7.05,1.08-9.38,7.7-9.38,7.7a6.256,6.256,0,0,1-.26-7.9,10.4794,10.4794,0,0,1,2.17-2.4l.02-.03A16.1942,16.1942,0,0,0,33.8539,23.2588Z"/>
      <path fill="#fcea2b" d="M47.4439,23.4588a5.9831,5.9831,0,0,1-.43,7.5s-2.69-7.96-5.77-8.22a11.2859,11.2859,0,0,0,3.82-1.83l.04.05A10.2793,10.2793,0,0,1,47.4439,23.4588Z"/>
    </g>
  </g>
  <g id="skin">
    <path fill="#debb90" d="M36,23.3618l6.035-.5829s5.338,5.4276,5.23,6.948c0,7.8277-5.0765,14.1733-11.3386,14.1733S24.5881,37.5546,24.5881,29.7269C24.3928,25.6005,36,23.3618,36,23.3618Z"/>
  </g>
  <g id="line">
    <path d="M49.361,55.9954a2,2,0,1,1-2-2,2.0007,2.0007,0,0,1,2,2"/>
    <path fill="none" stroke="#000" stroke-linecap="round" stroke-linejoin="round" stroke-width="2" d="M16.9579,58.675s-2-13,10-13c3.16,2.09,5.86,3.55,8.88,3.59h.12c2.96-.04,5.63-1.44,8.7-3.47l.18-.12c12,0,10,13,10,13"/>
    <polyline fill="none" stroke="#000" stroke-linecap="round" stroke-linejoin="round" stroke-width="2" points="26.958 45.675 30.708 54.555 33.268 51.915 35.838 49.265"/>
    <line x1="38.3879" x2="35.8379" y1="51.885" y2="49.265" fill="none" stroke="#000" stroke-linecap="round" stroke-linejoin="round" stroke-width="2"/>
    <polyline fill="none" stroke="#000" stroke-linecap="round" stroke-linejoin="round" stroke-width="2" points="44.708 45.675 44.658 45.795 40.968 54.555 38.388 51.895"/>
    <path fill="none" stroke="#000" stroke-linecap="round" stroke-linejoin="round" stroke-width="2" d="M33.4279,52.065c.14,1.5.72,3.01,2.47,3.01,1.83,0,2.38-1.62,2.49-3.18v-.01"/>
    <line x1="35.0479" x2="32.6379" y1="55.075" y2="58.675" fill="none" stroke="#000" stroke-linecap="round" stroke-linejoin="round" stroke-width="2"/>
    <line x1="36.7479" x2="39.1679" y1="55.075" y2="58.675" fill="none" stroke="#000" stroke-linecap="round" stroke-linejoin="round" stroke-width="2"/>
    <path d="M26.9629,58.1289H21.1182a1,1,0,0,1,0-2h5.8447a1,1,0,1,1,0,2Z"/>
    <path d="M39.9734,25.815a2,2,0,1,1-2,2A1.9994,1.9994,0,0,1,39.9734,25.815Z"/>
    <path d="M31.9734,25.815a2,2,0,1,1-2,2A1.9994,1.9994,0,0,1,31.9734,25.815Z"/>
    <path d="M36.0224,37.8208a7.6524,7.6524,0,0,1-3.4472-.8579,1,1,0,1,1,.8945-1.789,5.3779,5.3779,0,0,0,5.1055,0,1,1,0,1,1,.8945,1.789A7.6528,7.6528,0,0,1,36.0224,37.8208Z"/>
    <path d="M36.0225,44.3525c-6.4161,0-11.6983-5.916-12.2862-13.7607l1.9942-.15c.5009,6.68,5.0215,11.9111,10.292,11.9111,5.2578,0,9.6728-5.0136,10.2714-11.663.045-.5.0674-1.0083.0674-1.51h2c0,.561-.0254,1.1294-.0752,1.689C47.5938,38.5557,42.3223,44.3525,36.0225,44.3525Z"/>
    <path d="M36.0928,18.5562c-2.9346,0-3.4756-4.3345-3.5274-4.8287a1.0009,1.0009,0,0,1,.38-.894,5.1294,5.1294,0,0,1,6.3184.1362,1.002,1.002,0,0,1,.292.7989c-.044.49-.51,4.7827-3.458,4.7876Zm.001-2,.0019,1-.0019-1c.7539-.001,1.2119-1.4581,1.3916-2.42a3.4077,3.4077,0,0,0-2.835-.02c.2187,1.0708.7324,2.44,1.4424,2.44Z"/>
    <path d="M36.2979,24.459c-4.6973,0-9.2071-1.5288-11.669-3.9951a1,1,0,0,1,.708-1.7066H46.4053a1,1,0,0,1,.7617,1.6475c-2.0313,2.3921-5.6787,3.8633-10.0059,4.0371Q36.729,24.4587,36.2979,24.459Zm-7.8243-3.7017a17.9909,17.9909,0,0,0,8.6075,1.6861,14.34,14.34,0,0,0,6.538-1.6861Z"/>
    <path d="M47.7324,24.46a1,1,0,0,1-.77-1.6372l2.248-2.7207a3.63,3.63,0,0,0,.8086-1.9424,12.2217,12.2217,0,0,1-5.64-3.84c-1.9815-2.0317-3.8535-3.9511-8.3125-3.9511s-6.332,1.9194-8.3135,3.9511a12.2242,12.2242,0,0,1-5.64,3.84,3.645,3.645,0,0,0,.8086,1.9424l2.0117,2.434a1,1,0,0,1-1.541,1.2745L21.3818,21.376c-.6718-.813-1.5791-2.5943-1.1562-3.9151a1.7748,1.7748,0,0,1,1.2715-1.207c2.1259-.564,3.4365-1.9077,4.8252-3.3306,2.082-2.1352,4.4423-4.5551,9.7451-4.5551s7.6621,2.42,9.7441,4.5547c1.3887,1.4233,2.6992,2.767,4.8252,3.3315a1.7719,1.7719,0,0,1,1.2715,1.2075c.4238,1.3218-.4844,3.1026-1.1562,3.9146l-2.2481,2.72A.9973.9973,0,0,1,47.7324,24.46Z"/>
    <g>
      <path d="M24.55,32.0781a1,1,0,0,1-.7842-.38,7.286,7.286,0,0,1-1.7773-5.6948,8.6259,8.6259,0,0,1,3.4062-5.2495,1,1,0,0,1,1.1368,1.6455h0a6.6752,6.6752,0,0,0-2.5674,3.9151,4.6381,4.6381,0,0,0,.458,2.7026,12.7737,12.7737,0,0,1,9.4287-6.5454.9881.9881,0,0,1,1.13.8511.9993.9993,0,0,1-.8506,1.1293,11.1952,11.1952,0,0,0-8.6348,6.9512.9985.9985,0,0,1-.7773.66A.9827.9827,0,0,1,24.55,32.0781Z"/>
      <path d="M47.0908,32.0781a1.0009,1.0009,0,0,1-.9472-.6787c-1.004-2.96-3.26-7.4038-4.9131-7.5415a1,1,0,0,1,.166-1.9932c2.6748.2227,4.8086,4.3306,5.9082,6.9629a4.5658,4.5658,0,0,0,.3721-2.5131,6.6757,6.6757,0,0,0-2.5674-3.9151,1,1,0,0,1,1.1367-1.6455,8.6259,8.6259,0,0,1,3.4062,5.2495,7.2857,7.2857,0,0,1-1.7773,5.6948A1,1,0,0,1,47.0908,32.0781Z"/>
    </g>
  </g>
</svg>
