<svg id="emoji" x="0" y="0" viewBox="0 0 72 72" version="1.1" xmlns="http://www.w3.org/2000/svg">
  <g id="color">
    <path fill="#3F3F3F" d="M54.8495,58.9165c0,0,2-14-10-14c-3.1919,2.1279-5.9264,3.5984-9,3.5922h0.125 c-3.0736,0.0062-5.8082-1.4643-9-3.5922c-12,0-10,14-10,14"/>
    <polygon fill="#9B9B9A" points="45.1188,12.2713 35.8088,13.1813 26.7388,12.2913 21.2988,11.7613 35.1788,9.2413 50.3088,11.7613"/>
    <path fill="#3F3F3F" d="M45.1188,12.2713v7.97c0,0-6.72-0.27-9.19,2.63c-2.47-2.9-9.19-2.63-9.19-2.63v-7.95l9.07,0.89 L45.1188,12.2713z"/>
    <path fill="#FFFFFF" d="M35.8506,51.4932c-0.0049,0-0.0098,0-0.0147,0h-0.0586c-0.0097,0-0.0195,0-0.0293,0h-0.0039 c-0.0009,0-0.0009,0-0.0019,0v-0.001c-3.1973-0.0313-5.9854-1.4639-9.4277-3.7598c-0.46-0.3066-0.584-0.9277-0.2774-1.3867 c0.3057-0.46,0.9248-0.584,1.3867-0.2773c3.1533,2.1025,5.6602,3.4101,8.3828,3.4248c2.7217-0.0137,5.2286-1.3223,8.3829-3.4248 c0.4609-0.3067,1.081-0.1827,1.3867,0.2773c0.3066,0.46,0.1826,1.0801-0.2774,1.3867c-3.4433,2.2959-6.2314,3.7285-9.4277,3.7598 v0.001c-0.001,0-0.001,0-0.002,0h-0.0039C35.8604,51.4932,35.8545,51.4932,35.8506,51.4932z"/>
  </g>
  <g id="hair">
    <path fill="#a57939" d="M21.1866,46.4742c1.4263-0.9518,3.3033-1.5577,5.7879-1.5577c3.1699,2.1133,5.8895,3.5746,8.9375,3.5886 c3.048-0.0139,5.7675-1.4753,8.9375-3.5886c2.4695,0,4.3384,0.5988,5.7615,1.5405c1.121-1.4768,1.9742-3.0567,2.3716-4.7086 c2.0498-8.5205-5.2788-18.3913-7.4774-21.5108c-4.1739-0.3651-7.3131,0.5797-9.5764,2.6336 c-2.4446-2.1166-5.6751-2.8033-9.3764-2.6336c-2.1985,3.1195-9.7601,13.0233-7.5775,21.5108 C19.416,43.4637,20.1987,45.0374,21.1866,46.4742z"/>
  </g>
  <g id="skin">
    <path fill="#fadcbc" d="M47.1449,28.8923c-6.6211-7.1154-8.1216-9.2836-11.2161-6.021c-3.3996-3.3996-3.5685-0.36-11.4025,4.6002 c-0.0387,0.4764-0.0585,0.9315-0.0585,1.4208c0,7.8276,5.0764,14.1732,11.3386,14.1732 C42.0685,43.0655,47.1449,36.7199,47.1449,28.8923z"/>
  </g>
  <g id="skin-shadow"/>
  <g id="line">
    <path d="M41.9289,27.0637c0,1.1045-0.8965,2-2,2s-2-0.8955-2-2c0-1.1035,0.8965-2,2-2S41.9289,25.9602,41.9289,27.0637"/>
    <path d="M33.9289,27.0637c0,1.1045-0.8965,2-2,2s-2-0.8955-2-2c0-1.1035,0.8965-2,2-2 C33.0324,25.0637,33.9289,25.9602,33.9289,27.0637"/>
    <path d="M35.9288,37.0662c-1.1519,0-2.3037-0.2862-3.4473-0.858c-0.4941-0.247-0.6943-0.8476-0.4472-1.3417 c0.2465-0.4937,0.8461-0.6944,1.3417-0.4473c1.7178,0.8594,3.3877,0.8594,5.1055,0c0.4946-0.2471,1.0947-0.0464,1.3418,0.4473 c0.2471,0.4941,0.0469,1.0947-0.4473,1.3417C38.2325,36.78,37.0806,37.0662,35.9288,37.0662z"/>
    <path d="M54.7461,58.915c-0.0508,0-0.1016-0.0029-0.1523-0.0107c-0.5459-0.084-0.9209-0.5938-0.8379-1.1387 c0.0087-0.0576,0.8271-5.7412-2.1289-9.1777c-1.4756-1.7149-3.6895-2.6123-6.586-2.669c-3.3096,2.1856-6.0283,3.5459-9.126,3.5889 c-0.0214,0.002-0.0429,0.001-0.0644,0.001c-0.0078,0-0.0137,0-0.0215,0h-0.0449c-0.0147,0-0.0283,0-0.042,0 c-0.0147,0-0.0293,0-0.044-0.001c-3.0996-0.043-5.8164-1.4033-9.1259-3.5889c-2.8965,0.0567-5.1104,0.9541-6.586,2.669 c-2.956,3.4365-2.1377,9.1201-2.1289,9.1777c0.083,0.5449-0.292,1.0547-0.8379,1.1387c-0.5332,0.0801-1.0547-0.29-1.1386-0.8359 c-0.0411-0.2696-0.9727-6.6329,2.581-10.7754c1.9229-2.2412,4.751-3.377,8.4072-3.377c0.1973,0,0.3907,0.0586,0.5547,0.168 c3.1533,2.1025,5.6602,3.4101,8.3828,3.4248c2.7217-0.0137,5.2286-1.3223,8.3829-3.4248c0.164-0.1094,0.3574-0.168,0.5546-0.168 c3.6563,0,6.4844,1.1358,8.4073,3.377c3.5537,4.1425,2.622,10.5058,2.581,10.7754C55.6563,58.5625,55.2305,58.915,54.7461,58.915z"/>
    <path d="M21.2998,21.1133c-0.5527,0-1-0.4478-1-1v-8.1216c0-0.5522,0.4473-1,1-1s1,0.4478,1,1v8.1216 C22.2998,20.6655,21.8525,21.1133,21.2998,21.1133z"/>
    <path d="M19.2725,23.6929c-0.2159,0-0.4336-0.0699-0.6172-0.2134c-0.4336-0.3413-0.5098-0.9702-0.168-1.4043l2.0264-2.5796 c0.3408-0.4331,0.9677-0.5093,1.4043-0.1689c0.4336,0.3413,0.5097,0.9702,0.1679,1.4043l-2.0263,2.5795 C19.8623,23.5615,19.5693,23.6929,19.2725,23.6929z"/>
    <path d="M21.2998,25.2134c-0.5527,0-1-0.4478-1-1v-4.1001c0-0.5523,0.4473-1,1-1s1,0.4477,1,1v4.1001 C22.2998,24.7656,21.8525,25.2134,21.2998,25.2134z"/>
    <path d="M20.3213,44.0664c-0.3731,0-0.7305-0.209-0.9024-0.5674c-0.2255-0.4697-0.4238-0.9482-0.5888-1.4219 c-2.9785-8.5644,4.2597-18.8125,6.6387-22.1801l0.166-0.2354c0.3183-0.4507,0.9423-0.56,1.3935-0.2412 c0.4512,0.3179,0.5596,0.9419,0.2412,1.3936l-0.167,0.2373c-2.2324,3.1596-9.0244,12.7758-6.3837,20.3686 c0.1406,0.4024,0.3095,0.8106,0.5029,1.2139c0.2392,0.498,0.0293,1.0957-0.4688,1.334 C20.6133,44.0352,20.4658,44.0664,20.3213,44.0664z"/>
    <path d="M51.5361,44.0664c-0.1445,0-0.292-0.0312-0.4316-0.0986c-0.4981-0.2383-0.708-0.836-0.4688-1.334 c0.1934-0.4033,0.3623-0.8115,0.503-1.2149c2.6406-7.5918-4.1514-17.208-6.3838-20.3676l-0.167-0.2373 c-0.3184-0.4517-0.21-1.0757,0.2412-1.3936c0.4502-0.3188,1.0762-0.2095,1.3936,0.2412l0.166,0.2354 c2.3789,3.3676,9.6172,13.6157,6.6386,22.1792c-0.165,0.4746-0.3632,0.9531-0.5888,1.4228 C52.2666,43.8574,51.9092,44.0664,51.5361,44.0664z"/>
    <path d="M24.6201,28.6279c-0.3564,0-0.7012-0.1875-0.8818-0.5205c-0.2637-0.4853-0.0908-1.0884,0.3945-1.3515l0.0147-0.0083 c4.1728-2.2642,4.1728-2.2642,8.1572-6.3213l1.458,1.3701c-4.1865,4.2622-4.2666,4.3247-8.6611,6.709 C24.9482,28.5884,24.7832,28.6279,24.6201,28.6279z"/>
    <path d="M47.2471,28.6348c-0.1612,0-0.3242-0.0386-0.4756-0.1211c-0.1817-0.0987-4.499-2.4634-8.6768-6.7173 c-0.3867-0.3941-0.3808-1.0274,0.0137-1.4141c0.3926-0.3872,1.0254-0.3818,1.4141,0.0127c3.9687,4.042,8.1601,6.3379,8.2021,6.3609 c0.4854,0.2631,0.666,0.8701,0.4024,1.3559C47.9463,28.4453,47.6025,28.6348,47.2471,28.6348z"/>
    <path d="M35.9287,43.5977c-7.1494,0-12.3389-6.6202-12.3389-15.7403c0-0.5522,0.4473-1,1-1c0.5528,0,1,0.4478,1,1 c0,7.9619,4.3477,13.7403,10.3389,13.7403c5.7012,0,10.3389-5.9092,10.3389-13.1734c0-0.2495-0.0059-0.498-0.0166-0.7446 c-0.0244-0.5518,0.4023-1.0191,0.9541-1.044c0.539-0.0117,1.0185,0.4019,1.0439,0.9541c0.0127,0.2769,0.0186,0.5547,0.0186,0.8345 C48.2676,36.791,42.7324,43.5977,35.9287,43.5977z"/>
    <polyline fill="none" stroke="#000000" stroke-linecap="round" stroke-linejoin="round" stroke-miterlimit="10" stroke-width="2" points="21.2988,11.7613 26.7388,12.2913 35.8088,13.1813 45.1188,12.2713 50.3088,11.7613"/>
    <path fill="none" stroke="#000000" stroke-linecap="round" stroke-linejoin="round" stroke-miterlimit="10" stroke-width="2" d="M26.7388,11.7613v0.53v7.95c0,0,6.72-0.27,9.19,2.63"/>
    <path fill="none" stroke="#000000" stroke-linecap="round" stroke-linejoin="round" stroke-miterlimit="10" stroke-width="2" d="M45.1188,11.7613v0.51v7.97c0,0-6.72-0.27-9.19,2.63"/>
    <polyline fill="none" stroke="#000000" stroke-linecap="round" stroke-linejoin="round" stroke-miterlimit="10" stroke-width="2" points="50.3088,11.7613 35.1788,9.2413 21.2988,11.7613"/>
  </g>
</svg>
