<svg id="emoji" x="0" y="0" viewBox="0 0 72 72" version="1.1" xmlns="http://www.w3.org/2000/svg">
  <g id="color">
    <path fill="#FFFFFF" d="M16.6105,58.8196c0,0-1.7-15.1,10.3-15.1c3.1918,2.1279,5.8264,3.7984,8.9,3.7922h-0.125 c3.0736,0.0062,6.308-1.4643,9.4999-3.5922c11.5647-0.0346,9.609,14.8,9.84,14.9"/>
    <path fill="#D0CFCE" d="M45.2393,43.8672c-3.0853,1.3313-4.3865,3.1319-9.3375,3.7285 c13.0625,0.4115,13.0625,7.2115,13.8246,11.2115c4.2379,0,5.1129,0,5.1129,0S57.3825,43.8672,45.2393,43.8672z"/>
    <circle cx="24.6314" cy="54.7442" r="3" fill="#9B9B9A"/>
  </g>
  <g id="hair">
    <path fill="#fcea2b" d="M17.1713,43.8429l0.5833,0.9574c0.6752,0.6175,1.3502,1.1951,2.025,1.744 c1.5487-1.6689,3.8149-2.8246,7.1309-2.8246c3.1714,2.1143,5.7935,3.7733,8.842,3.7884c3.0537-0.015,6.2641-1.4759,9.4329-3.5884 c3.0659-0.0092,5.1746,1.0317,6.6327,2.561c0.712-0.5908,1.4239-1.2183,2.1356-1.8887l0.2913-0.7474 c2.2459-3.6926,1.7322-8.725-2.4182-16.8138c-0.1286-6.4628-0.941-15.4577-8.3977-15.2003 c-1.8268-4.2462-24.4828-9.5259-23.5816,15.5347C19.7712,31.6874,14.401,37.5165,17.1713,43.8429z"/>
  </g>
  <g id="skin">
    <path fill="#debb90" d="M47.3086,28.0123c0-5.3924-2.4091-10.0814-5.9554-12.4771c-3.3033,3.4694-15.7016,10.6151-16.7218,12.4771 c0,7.8277,5.0765,14.1732,11.3386,14.1732S47.3086,35.84,47.3086,28.0123z"/>
  </g>
  <g id="skin-shadow"/>
  <g id="line">
    <path d="M41.9701,27.0091c0,1.1045-0.8965,2-2,2s-2-0.8955-2-2c0-1.1035,0.8965-2,2-2S41.9701,25.9056,41.9701,27.0091"/>
    <path d="M33.9701,27.0091c0,1.1045-0.8965,2-2,2s-2-0.8955-2-2c0-1.1035,0.8965-2,2-2S33.9701,25.9056,33.9701,27.0091"/>
    <path d="M35.97,37.0116c-1.1519,0-2.3037-0.2862-3.4473-0.8579c-0.4941-0.2471-0.6943-0.8477-0.4472-1.3418 c0.2466-0.4937,0.8462-0.6944,1.3418-0.4473c1.7177,0.8594,3.3877,0.8594,5.1054,0c0.4947-0.2471,1.0948-0.0464,1.3418,0.4473 c0.2471,0.4941,0.0469,1.0947-0.4472,1.3418C38.2737,36.7254,37.1219,37.0116,35.97,37.0116z"/>
    <path fill="none" stroke="#000000" stroke-miterlimit="10" stroke-width="2" d="M24.7261,26.5296 c-0.0625,0.6024-0.0947,1.2167-0.0947,1.8404c0,7.8276,5.0765,14.1732,11.3386,14.1732S47.3086,36.1976,47.3086,28.37 c0-1.1582-0.1111-2.2839-0.3208-3.3614c-0.7817-4.0177-2.9333-7.3654-5.8015-9.2263"/>
    <path fill="none" stroke="#000000" stroke-linecap="round" stroke-linejoin="round" stroke-miterlimit="10" stroke-width="2" d="M49.9328,45.941c6.2065,3.1183,4.8523,11.9209,4.8523,11.9209"/>
    <path fill="none" stroke="#000000" stroke-linecap="round" stroke-linejoin="round" stroke-miterlimit="10" stroke-width="2" d="M28.6108,45.9526c2.4969,1.5232,4.7846,2.5066,7.2993,2.5015h-0.125c2.3664,0.0048,4.5318-0.8657,6.8597-2.2377"/>
    <path fill="none" stroke="#000000" stroke-linecap="round" stroke-linejoin="round" stroke-miterlimit="10" stroke-width="2" d="M16.9101,57.8619c0,0-1.4346-9.3246,5.416-12.1794"/>
    <path fill="none" stroke="#000000" stroke-linecap="round" stroke-linejoin="round" stroke-miterlimit="10" stroke-width="2" d="M41.1863,15.7823c-2.0474,3.673-11.675,8.6146-16.3736,10.7562"/>
    <path fill="none" stroke="#000000" stroke-linecap="round" stroke-linejoin="round" stroke-miterlimit="10" stroke-width="2" d="M18.3514,44.2851l-0.5604-0.9195C15.13,37.289,20.2882,31.69,20.3615,27.5385c-0.8656-24.0713,20.8962-19,22.6507-14.9214 c7.1623-0.2473,7.9425,8.3925,8.0662,14.6001c3.9866,7.7694,4.4801,12.6032,2.3227,16.15l-0.2796,0.7179"/>
    <circle cx="24.6314" cy="54.7442" r="3" fill="none" stroke="#000000" stroke-linecap="round" stroke-linejoin="round" stroke-miterlimit="10" stroke-width="2"/>
    <path fill="none" stroke="#000000" stroke-linecap="round" stroke-linejoin="round" stroke-miterlimit="10" stroke-width="2" d="M24.6314,51.7442c0,0-1.3273-5.4596,2.279-9.2022"/>
    <path fill="none" stroke="#000000" stroke-linecap="round" stroke-linejoin="round" stroke-miterlimit="10" stroke-width="2" d="M44.4749,42.542c1.5847,1.6445,2.4274,5.3193,2.4274,5.3193c-3.4246,0.1134-3.3096,3.8829-3.3096,3.8829 s-0.7793,5.5625,1.6549,5.4316l-0.1645,1.6162l0.2835-2.9631"/>
    <path fill="none" stroke="#000000" stroke-linecap="round" stroke-linejoin="round" stroke-miterlimit="10" stroke-width="2" d="M46.9023,47.8613"/>
    <path fill="none" stroke="#000000" stroke-linecap="round" stroke-linejoin="round" stroke-miterlimit="10" stroke-width="2" d="M47.3086,47.8613c3.4246,0.1134,3.3096,3.8829,3.3096,3.8829s0.7793,5.5625-1.6549,5.4316l0.1645,1.6162l-0.2835-2.9631"/>
    <line x1="29.8951" x2="35.5527" y1="46.7291" y2="57.8619" fill="none" stroke="#000000" stroke-linecap="round" stroke-linejoin="round" stroke-miterlimit="10" stroke-width="2"/>
    <line x1="41.2103" x2="35.5527" y1="46.9991" y2="57.8619" fill="none" stroke="#000000" stroke-linecap="round" stroke-linejoin="round" stroke-miterlimit="10" stroke-width="2"/>
  </g>
</svg>
