<svg id="emoji" viewBox="0 0 72 72" xmlns="http://www.w3.org/2000/svg">
  <g id="color">
    <path fill="#92d3f5" d="M7.9308,60.9413v-3.958c0-4.9941,5.0078-9,10-9q9,7.5,18,0c4.9941,0,10,4.0059,10,9v3.958"/>
    <path fill="#9b9b9a" d="M57.8244,39.9335a5.0006,5.0006,0,1,1-8.1446-.2012l-.499-.749.6875-.5625-2.75-3.0625-1.5-3.625-.1943-4.3286,2.5732,1.2036,9.6836,9.875s1.0625.9355,1,1.249"/>
    <path fill="#d0cfce" d="M53.6808,31.7333a5.0351,5.0351,0,0,0,.1006,1l-15.8506.25s.75,3.75,3.75,3.75h17a5,5,0,1,0-5-5Z"/>
  </g>
  <g id="skin">
    <path fill="#6a462f" d="M15.8673,30.9834c.6284,8.978,4.9365,14,11,14,5.9365,0,11.0635-5,11.0635-14a12.1332,12.1332,0,0,0-1-5A49.876,49.876,0,0,0,31.862,19.08a125.5714,125.5714,0,0,1-15.47,10.111C15.91,30.0719,15.557,26.55,15.8673,30.9834Z"/>
  </g>
  <g id="hair">
    <path fill="#000000" d="M51.2824,47.1215c-2.7869.5105-2.1016-8.1382-2.1016-8.1382l.6875-.5625-1.4345-1.672a29.2959,29.2959,0,0,0-6.3235-.3276c-3.1782.2293-3.5059-3.342-3.5059-3.342l6.5857-.36c-1.4726-3.27-1.0107-3.9218-1.3359-9.953.0272-3.6929-6.876-8.4006-10.5567-8.7091a1.0011,1.0011,0,0,1-.6884-.3434c-.0928-.1-2.4082-2.6546-7.2432-2.6546-6.2,0-11.4413,3.3817-12.7429,8.226a18.518,18.518,0,0,0-.5646,6.1758,13.3169,13.3169,0,0,1-.7607,5.9608,6.8,6.8,0,0,1-1.1193,2.0879c-3.7725,4.42-.9746,14.3029-1.167,14.01a24.0576,24.0576,0,0,0,3.6332,2.7193,10.4637,10.4637,0,0,1,5.361-2.09c6.2089,5.0127,12.4951,5.0127,18.7,0a8.343,8.343,0,0,1,4.2088,1.5136s4.6954,3.0582,5.6024,5.93c0,0,5.776.1631,7.4069-7.0171ZM27.6039,45.08C15.9236,45.6,15.88,29.9794,15.88,29.9794c1.369-2.4295,16.1514-10.2868,16.1514-10.2868a14.5083,14.5083,0,0,1,5.56,8.2907S39.2841,44.56,27.6039,45.08Z"/>
  </g>
  <g id="line">
    <circle cx="58.6808" cy="31.7333" r="2"/>
    <path fill="none" stroke="#000" stroke-linecap="round" stroke-linejoin="round" stroke-width="2" d="M7.9308,59.9833v-3c0-4.9941,5.0078-9,10-9q9,7.5,18,0c4.9941,0,10,4.0059,10,9v3"/>
    <path d="M32.8038,29.9833a2,2,0,1,1-2-2,2,2,0,0,1,2,2"/>
    <path d="M24.8038,29.9833a2,2,0,1,1-2-2,2,2,0,0,1,2,2"/>
    <path fill="none" stroke="#000" stroke-linecap="round" stroke-linejoin="round" stroke-width="2" d="M23.9308,37.9833a6.5535,6.5535,0,0,0,6,0"/>
    <path fill="none" stroke="#000" stroke-linecap="round" stroke-linejoin="round" stroke-width="2" d="M53.6808,31.7333a5.0351,5.0351,0,0,0,.1006,1l-15.8506.25s.75,3.75,3.75,3.75h17a5,5,0,1,0-5-5Z"/>
    <path fill="none" stroke="#000" stroke-linecap="round" stroke-linejoin="round" stroke-width="2" d="M57.8244,39.9335a5.0006,5.0006,0,1,1-8.1446-.2012"/>
    <path fill="none" stroke="#000" stroke-linecap="round" stroke-linejoin="round" stroke-width="2" d="M44.4093,26.7235a3.0643,3.0643,0,0,1,.749.4434,3.2181,3.2181,0,0,1,.2657.2378l2.5732,2.5747"/>
    <circle cx="53.6809" cy="42.7327" r="1.9995"/>
    <path fill="none" stroke="#000" stroke-linecap="round" stroke-linejoin="round" stroke-width="2" d="M9.6823,46.8046c-3.7227-5.8565-.628-10.08,1.18-14.7246,1.6357-4.2-.209-6.4512,1.291-12.0342,1.4795-5.5,7.2773-8.9658,13.709-8.9658,5.4,0,8,3,8,3,4.1689.374,9.0277,3.7029,9.9921,8.6858.4,2.2352.1331,6.1765,1.57,9.5969"/>
    <path fill="none" stroke="#000" stroke-linejoin="round" stroke-width="2" d="M15.862,31.08c0,8,5,14,11,14s11-6,11-14c0-5-2-8-6-12-4,4-16,9-16,11Z"/>
    <path fill="none" stroke="#000" stroke-linecap="round" stroke-linejoin="round" stroke-width="2" d="M53.3035,47.9833a11.5815,11.5815,0,0,1-2.0211,4.1294"/>
  </g>
</svg>
