<svg id="emoji" viewBox="0 0 72 72" xmlns="http://www.w3.org/2000/svg">
  <g id="color"/>
  <g id="skin">
    <circle cx="34.0595" cy="9.7262" r="3" fill="#fadcbc"/>
    <path fill="#fadcbc" d="M17.809,24.4514c.858,1.6206,1.7159,1.43,2.2879,1.2393l9.056-3.05,5.72-2.6692L36.7791,21.21,38.4,25.5953l-2.5739,2.2879-9.5327,6.5775-14.299,5.815.9532,2.86,17.9215-4.7663,7.8168-2.86L41.26,47.5206l1.0486,14.68h2.86l1.1439-16.2056V31.6963l-.9533-13.3458L43.452,16.4439l5.815-2.7645,6.7682-4.29s1.1439-.8579.286-2.9551L51.3641,9.39l-9.342,4.957-4.5757,1.144L33.252,17.7785l-2.7645,1.6206-5.529,2.5738Z"/>
  </g>
  <g id="line">
    <circle cx="33.9193" cy="9.8664" r="2.8598" fill="none" stroke="#000" stroke-miterlimit="10" stroke-width="2"/>
    <path fill="none" stroke="#000" stroke-linecap="round" stroke-linejoin="round" stroke-width="2" d="M42.4987,33.8888,32.68,37.6065c-.9532.3813-2.5738.858-3.6224,1.144L14.7585,42.5636a1.8051,1.8051,0,0,1-2.2878-.9533c-.286-.7626.286-1.7159,1.3346-2.1925l10.7719-4.3851a22.5882,22.5882,0,0,0,3.3365-1.8112l6.3869-4.3851c.8579-.5719,2.1925-1.62,2.86-2.1925a3.2033,3.2033,0,0,0,.6673-2.9551l-.286-.858a6.0828,6.0828,0,0,0-1.62-2.3831,6.8574,6.8574,0,0,1-.9533-.572"/>
    <path fill="none" stroke="#000" stroke-linecap="round" stroke-linejoin="round" stroke-width="2" d="M38.6856,35.5093l2.0972,10.2c.1907,1.0486.4767,2.7645.572,3.8131l.7626,10.772c.0953,1.0486.7626,1.9065,1.5253,1.9065a1.81,1.81,0,0,0,1.5252-1.9065l.9533-12.3925c.0953-1.0486.0953-2.7645.0953-3.8131V33.6028c0-1.0486-.0953-2.7645-.0953-3.8131l-.6673-9.5327a6.6691,6.6691,0,0,0-1.43-3.2411l-2.4785-2.5738"/>
    <path fill="none" stroke="#000" stroke-linecap="round" stroke-linejoin="round" stroke-width="2" d="M55.5585,6.9112l-5.72,3.7178a22.0593,22.0593,0,0,1-3.3364,1.7159l-3.5271,1.3345c-.9533.3813-2.5739.9533-3.6225,1.2393l-2.5738.7626a14.1834,14.1834,0,0,0-3.4318,1.6206l-2.6691,1.9065a22.0512,22.0512,0,0,1-3.3365,1.7159L18.667,24.07"/>
    <path fill="none" stroke="#000" stroke-linecap="round" stroke-linejoin="round" stroke-width="2" d="M29.9217,9.5206s-.6578-.0243-.8721.3876c-.2526.4839-.0105,1.7943-.25,2.5063a3.3636,3.3636,0,0,1-1.2931,1.7449"/>
  </g>
</svg>
