<svg id="emoji" viewBox="0 0 72 72" xmlns="http://www.w3.org/2000/svg">
  <g id="color">
    <path fill="#92d3f5" d="M17.0039,60.9583V57.7109c0-5.406,5.0078-9.7423,10-9.7423q9,8.1186,18,0c4.9941,0,10,4.3363,10,9.7423v3.2474"/>
  </g>
  <g id="skin">
    <path fill="#c19a65" d="M44.706,23.3294a13.3183,13.3183,0,0,0,.8819,5.7007,13.6034,13.6034,0,0,1,1.416,4.9385c0,5-5.127,11-11.0635,11-6.0635,0-11-6-11-11a7.6381,7.6381,0,0,1,1.0635-4c1-2,1.3848-5.271,1.708-6.3335l3.1378-2.27a12.01,12.01,0,0,1,3.0272-1.625c2.1993-1.228,2.6093-1.3,4.1708-.3614A30.41,30.41,0,0,1,41.5615,21.44Z"/>
    <path fill="#c19a65" d="M55.0039,4.9686c0,3-1,11-1,11v12c-1,4-4,4-4,4,0-6-3-12-3-12A14.6523,14.6523,0,0,0,43.6631,24.14c-1.4863,2.4067-3.6592.8286-2.6592-1.1714.8379-1.6758,3.0469-5.62,4-7a7.4948,7.4948,0,0,1,4-3v-8"/>
    <path fill="#c19a65" d="M17.0039,4.9686c0,3,1,11,1,11v12c1,4,4,4,4,4,0-6,3-12,3-12A14.6523,14.6523,0,0,1,28.3447,24.14c1.4863,2.4067,3.6592.8286,2.6592-1.1714-.8379-1.6758-3.0469-5.62-4-7a7.4948,7.4948,0,0,0-4-3v-8"/>
  </g>
  <g id="hair">
    <path fill="#6a462f" d="M46.7117,33.3921l-1.5085-5.4652a17.91,17.91,0,0,0-1.5563-3.7L40.75,24.1092V21.0738c.2266-.0884-3.6156-2.24-4.7775-2.1052s-4.4668,2.0168-4.4668,2.0168l.3715,2.24-3.6426,1.12c-1.1172,1.3371-1.65,4.7741-1.65,4.7741l-1.2466,7.41c-1.1972-.6336-3.0356-.72-3.3335-4.56a30.241,30.241,0,0,1,2-10l.3279-1.5748c4.5569,4.5569,6.3244,2.9827,6.3244,2.9827,1.4085-.0552-4.34-9.2409-4.34-9.2409,3.166-2.8125,5.8037-2.7085,9.6563-2.7085s5.8242-.375,9.8867,2.7705c0,0-6.3668,9.318-4.2815,9.63s6.5317-3.2973,6.5631-3.3653.3629,2.8645.3629,2.8645a33.36,33.36,0,0,1,1.5,8.6416c-1.0381,2.8646-2.1271,3.6888-3.9389,4.3007Z"/>
  </g>
  <g id="line">
    <path d="M41.8769,29.9686a2,2,0,1,1-2-2,2,2,0,0,1,2,2"/>
    <path d="M33.8769,29.9686a2,2,0,1,1-2-2,2,2,0,0,1,2,2"/>
    <path fill="none" stroke="#000" stroke-linecap="round" stroke-linejoin="round" stroke-width="2" d="M29.1631,13.3685a15.8,15.8,0,0,1,6.8408-1.4,15.9714,15.9714,0,0,1,6.5928,1.2847"/>
    <path fill="none" stroke="#000" stroke-linecap="round" stroke-linejoin="round" stroke-width="2" d="M17.0039,59.9686v-3c0-4.9941,5.0078-9,10-9q9,7.5,18,0c4.9941,0,10,4.0059,10,9v3"/>
    <path d="M41.8769,29.9686a2,2,0,1,1-2-2,2,2,0,0,1,2,2"/>
    <path d="M33.8769,29.9686a2,2,0,1,1-2-2,2,2,0,0,1,2,2"/>
    <path fill="none" stroke="#000" stroke-linecap="round" stroke-linejoin="round" stroke-width="2" d="M36.0039,17.9681a10.6183,10.6183,0,0,0-2.457.8594"/>
    <path fill="none" stroke="#000" stroke-linecap="round" stroke-linejoin="round" stroke-width="2" d="M26.0039,27.0765A40.3135,40.3135,0,0,0,24.94,33.9686c0,5,4.9365,11,11,11,5.9365,0,11.0635-6,11.0635-11a35.9127,35.9127,0,0,0-1-6.8921"/>
    <path fill="none" stroke="#000" stroke-linecap="round" stroke-linejoin="round" stroke-width="2" d="M33.0039,37.9686a6.5535,6.5535,0,0,0,6,0"/>
    <path fill="none" stroke="#000" stroke-linecap="round" stroke-linejoin="round" stroke-width="2" d="M17.0039,5.9686c0,3,1,10,1,10v12c1,4,4,4,4,4,0-6,3-12,3-12l4,4c1,1,3,0,2-2a66.7658,66.7658,0,0,0-4-6,7.4948,7.4948,0,0,0-4-3v-7"/>
    <path fill="none" stroke="#000" stroke-linecap="round" stroke-linejoin="round" stroke-width="2" d="M55.2773,5.9686c0,3-1,10-1,10v12c-1,4-4,4-4,4,0-6-3-12-3-12l-4,4c-1,1-3,0-2-2a66.7658,66.7658,0,0,1,4-6,7.4952,7.4952,0,0,1,4-3v-7"/>
    <path fill="none" stroke="#000" stroke-linecap="round" stroke-linejoin="round" stroke-width="2" d="M36.0039,17.9676a7.2883,7.2883,0,0,1,2.334.6675"/>
    <path fill="none" stroke="#000" stroke-linecap="round" stroke-linejoin="round" stroke-width="2" d="M25.3374,36.5289c-1.78-1.3475-2.78-1.512-3.2673-5.939"/>
    <path fill="none" stroke="#000" stroke-linecap="round" stroke-linejoin="round" stroke-width="2" d="M50.1751,30.6282c-.4869,4.4269-1.4877,4.5914-3.2674,5.939"/>
  </g>
</svg>
