<svg id="emoji" x="0" y="0" viewBox="0 0 72 72" version="1.1" xmlns="http://www.w3.org/2000/svg">
  <g id="color">
    <path fill="#D0CFCE" stroke="#D0CFCE" stroke-linejoin="round" stroke-miterlimit="10" stroke-width="1.8" d="M46.589,25.622 l-0.7801-0.7801c-0.3889-0.3889-0.3889-1.0253,0-1.4142l8.1154-8.1154c0.3889-0.3889,1.0253-0.3889,1.4142,0l0.7801,0.7801 c0.3889,0.3889,0.3889,1.0253,0,1.4142l-8.1154,8.1154C47.6143,26.0109,46.9779,26.0109,46.589,25.622z"/>
    <path fill="#FFFFFF" d="M50.4071,23.7527l-3.9024-3.9023c-0.3921-0.3922-1.0358-0.3922-1.4281,0L22.0351,42.892 c-0.3924,0.3923-0.3924,1.0259,0,1.4181l3.9022,3.9023"/>
    <path fill="#D0CFCE" d="M50.9842,18.2086l3.1192-3.0447c0.3098-0.3024,0.8776-0.2278,1.2618,0.1658l0.7706,0.7894 c0.3842,0.3936,0.445,0.963,0.1352,1.2655l-2.9947,2.9232"/>
    <line x1="52.8709" x2="59.1291" y1="12.8709" y2="19.1291" fill="none"/>
    <path fill="#FFFFFF" d="M46.5047,19.8504c-0.3921-0.3922-1.0358-0.3922-1.4281,0L22.0351,42.892 c-0.3924,0.3923-0.3924,1.0259,0,1.4181l3.9022,3.9023l0.5733-0.5733l16.0919-16.0818l7.8046-7.8046L46.5047,19.8504z"/>
    <path fill="#EA5A47" d="M44.5233,33.408l-15.981,15.9811c-0.3924,0.3922-1.0359,0.3922-1.4181,0l-1.1868-1.1768l0.5733-0.5733 l1.8203,1.8204l16.082-16.0919"/>
    <path fill="#D0CFCE" d="M44.4129,33.3676l-1.8104-1.8103l7.8046-7.8046l1.1766,1.1768c0.3923,0.3922,0.3923,1.0258,0,1.4181 l-7.0605,7.0605"/>
    <polygon fill="#D22F27" points="44.4129,33.3676 28.331,49.4595 26.5106,47.6391 42.6025,31.5573"/>
    <rect x="20.9566" y="34.2349" width="22.7536" height="6.2831" transform="matrix(0.7073 -0.7069 0.7069 0.7073 -16.9579 33.7965)" fill="#EA5A47"/>
    <line x1="50.9602" x2="50.4071" y1="23.1895" y2="23.7527" fill="none"/>
    <line x1="40.0783" x2="40.7355" y1="30.6074" y2="31.2645" fill="none"/>
  </g>
  <g id="hair"/>
  <g id="skin"/>
  <g id="skin-shadow"/>
  <g id="line">
    <path fill="none" stroke="#000000" stroke-linejoin="round" stroke-miterlimit="10" stroke-width="2" d="M50.4071,23.7527 l-3.9024-3.9023c-0.3921-0.3922-1.0358-0.3922-1.4281,0L22.0351,42.892c-0.3924,0.3923-0.3924,1.0259,0,1.4181l3.9022,3.9023"/>
    <line x1="24.58" x2="11.38" y1="46.8598" y2="60.0498" fill="none" stroke="#000000" stroke-linecap="round" stroke-linejoin="round" stroke-miterlimit="10" stroke-width="2"/>
    <path fill="none" stroke="#000000" stroke-linecap="round" stroke-linejoin="round" stroke-miterlimit="10" stroke-width="2" d="M50.9842,18.2086l3.1192-3.0447c0.3098-0.3024,0.8776-0.2278,1.2618,0.1658l0.7706,0.7894c0.3842,0.3936,0.445,0.963,0.1352,1.2655 l-2.9947,2.9232"/>
    <line x1="52.8709" x2="59.1291" y1="12.8709" y2="19.1291" fill="none" stroke="#000000" stroke-linecap="round" stroke-linejoin="round" stroke-miterlimit="10" stroke-width="2"/>
    <path fill="none" stroke="#000000" stroke-linejoin="round" stroke-miterlimit="10" stroke-width="2" d="M50.4071,23.7527 l1.1766,1.1768c0.3923,0.3922,0.3923,1.0258,0,1.4181l-7.0605,7.0605"/>
    <path fill="none" stroke="#000000" stroke-linejoin="round" stroke-miterlimit="10" stroke-width="2" d="M27.1242,49.3962 l-5.0895-5.0895c-0.3889-0.3889-0.3889-1.0253,0-1.4142l23.05-23.05c0.3889-0.3889,1.0253-0.3889,1.4142,0l5.0895,5.0895 c0.3889,0.3889,0.3889,1.0253,0,1.4142l-23.05,23.05C28.1495,49.7851,27.5131,49.7851,27.1242,49.3962z"/>
    <line x1="40.0783" x2="40.7355" y1="30.6074" y2="31.2645" fill="none" stroke="#000000" stroke-linecap="round" stroke-linejoin="round" stroke-miterlimit="10" stroke-width="2"/>
  </g>
</svg>
