<svg id="emoji" viewBox="0 0 72 72" xmlns="http://www.w3.org/2000/svg">
  <g id="color">
    <path fill="#92d3f5" d="M11.9451,60.9583V56.74c0-4.9942,5.0078-9,10-9q9,7.5,18,0c1.3682,0,3.1221-.2784,4.3887.2607A11.8771,11.8771,0,0,1,47.57,50.8128V60.9583"/>
  </g>
  <g id="skin">
    <path fill="#debb90" d="M54.9451,60.9583,53.0076,46.6946l.9375-1.25,6-2,5-6a1.4142,1.4142,0,0,0-2-2l-3,3c-1,1-4,0-7,1s-5,3.2325-5,5V60.9583"/>
    <path fill="#debb90" d="M19.8857,31c-.1015,7.999,4.0635,14,11,14,7.0635,0,11.0635-6,11.0635-14,0-5-3-10-3-10-8,0-10,3-16,1A17.0768,17.0768,0,0,0,19.8857,31Z"/>
  </g>
  <g id="hair">
    <path fill="#fcea2b" d="M39.2274,19.6878c-7.473,0-8.7162,3.5912-16.36,1.88C19.4633,20.8056,20.9492,38,20.9492,38c-3,0-4-7-4-14,0-6,5-12,14-12s14,6,14,12c0,7-1,14-4,14C40.9492,38,41.6662,19.6878,39.2274,19.6878Z"/>
  </g>
  <g id="line">
    <path fill="none" stroke="#000" stroke-linecap="round" stroke-linejoin="round" stroke-width="2" d="M11.9451,60V57c0-4.9941,5.0078-9,10-9q9,7.5,18,0a10.2713,10.2713,0,0,1,4.0029.84"/>
    <path d="M36.8181,30a2,2,0,1,1-2-2,2,2,0,0,1,2,2"/>
    <path d="M28.8181,30a2,2,0,1,1-2-2,2,2,0,0,1,2,2"/>
    <path fill="none" stroke="#000" stroke-linecap="round" stroke-linejoin="round" stroke-width="2" d="M27.9451,38a6.5535,6.5535,0,0,0,6,0"/>
    <path fill="none" stroke="#000" stroke-linecap="round" stroke-linejoin="round" stroke-width="2" d="M54.9451,60,53.0076,46.6946l.9375-1.25,6-2,5-6a1.4142,1.4142,0,0,0-2-2l-3,3c-1,1-4,0-7,1s-5,3.2325-5,5V60"/>
    <path fill="none" stroke="#000" stroke-linecap="round" stroke-linejoin="round" stroke-width="2" d="M20.9492,38c-3,0-4-7-4-14,0-6,5-12,14-12s14,6,14,12c0,7-1,14-4,14"/>
    <path fill="none" stroke="#000" stroke-linejoin="round" stroke-width="2" d="M19.8857,31c-.1015,7.999,4.9365,14,11,14,5.9365,0,11.0635-6,11.0635-14,0-5-3-11-3-11-8,0-10,3-16,1C22.9492,21,19.9492,26,19.8857,31Z"/>
  </g>
</svg>
