<svg id="emoji" viewBox="0 0 72 72" xmlns="http://www.w3.org/2000/svg">
  <g id="color">
    <rect x="14.6394" y="23.0377" width="46.4144" height="27.8803" fill="#FFFFFF" stroke="none"/>
    <rect x="22.2852" y="48.7145" width="31.1096" height="2.9375" fill="#5C9E31" stroke="none"/>
    <rect x="19.7775" y="22.3357" width="31.1096" height="2.9375" fill="#5C9E31" stroke="none"/>
    <path fill="#5C9E31" stroke="none" d="M59.36,20.7304v0.61H56.3c-0.04-0.51-0.47-0.92-0.9901-0.92H23.4c-0.52,0-0.95,0.41-0.99,0.92h-8.89v0.66 h-0.58v30.62h9.46c0,0.55,0.45,1,1,1h31.91c0.55,0,1-0.45,1-1h6v-31.89H59.36z M59.36,45.9104c-0.13-0.01-0.28-0.01-0.43-0.01 c-2.15,0-3.95,1.68-4.05,3.81H20.33c-0.09-2.13-1.88-3.81-4.05-3.81c-0.14,0-0.27,0-0.39,0.01v-17.91 c0.12,0.01,0.25,0.01,0.39,0.01c2.16,0,3.94-1.65,4.05-3.76h34.55c0.13,2.11,1.91,3.76,4.05,3.76c0.15,0,0.3,0,0.43-0.01V45.9104z"/>
    <ellipse cx="37.34" cy="36.6758" rx="16.1711" ry="10.0088" fill="#5C9E31" stroke="#5C9E31" stroke-miterlimit="10" stroke-width="2"/>
    <path fill="#D0CFCE" stroke="none" stroke-linecap="round" stroke-linejoin="round" stroke-miterlimit="10" stroke-width="2" d="M46.0276,22.3781v29.2855c0,0.1053-0.02,0.2011-0.05,0.2969c-0.13,0.383-0.51,0.6608-0.95,0.6608h-15.34 c-0.44,0-0.82-0.2778-0.95-0.6608c-0.03-0.0958-0.05-0.1915-0.05-0.2969V22.3781c0-0.1053,0.02-0.2011,0.05-0.2969 c0.13-0.3831,0.51-0.6608,0.95-0.6608h15.34c0.44,0,0.82,0.2777,0.95,0.6608C46.0077,22.1769,46.0276,22.2727,46.0276,22.3781z"/>
    <path fill="#5C9E31" stroke="none" stroke-linecap="round" stroke-miterlimit="10" stroke-width="2" d="M48.7533,29.5853 c2.939,1.8123,4.7578,4.3199,4.7578,7.0905c0,2.7944-1.8502,5.3213-4.8338,7.137"/>
    <path fill="#5C9E31" stroke="none" stroke-linecap="round" stroke-miterlimit="10" stroke-width="2" d="M24.7399,42.9499 c-2.2338-1.7164-3.5709-3.8986-3.5709-6.2741c0-2.5704,1.5655-4.9145,4.1386-6.687"/>
  </g>
  <g id="hair"/>
  <g id="skin"/>
  <g id="skin-shadow"/>
  <g id="line">
    <path fill="none" stroke="#000000" stroke-linecap="round" stroke-linejoin="round" stroke-miterlimit="10" stroke-width="2" d="M50.0275,24.2504H54.88c0.13,2.11,1.91,3.76,4.05,3.76c0.15,0,0.3,0,0.43-0.01v17.91c-0.13-0.01-0.28-0.01-0.43-0.01 c-2.15,0-3.95,1.68-4.05,3.81h-4.8525 M25.1076,49.7104H23.34h-3.01c-0.09-2.13-1.88-3.81-4.05-3.81c-0.14,0-0.27,0-0.39,0.01 v-17.91c0.12,0.01,0.25,0.01,0.39,0.01c2.16,0,3.94-1.65,4.05-3.76h4.385"/>
    <path fill="none" stroke="#000000" stroke-linecap="round" stroke-linejoin="round" stroke-miterlimit="10" stroke-width="2" d="M46.0276,22.3781v29.2855c0,0.1053-0.02,0.2011-0.05,0.2969c-0.13,0.383-0.51,0.6608-0.95,0.6608h-15.34 c-0.44,0-0.82-0.2778-0.95-0.6608c-0.03-0.0958-0.05-0.1915-0.05-0.2969V22.3781c0-0.1053,0.02-0.2011,0.05-0.2969 c0.13-0.3831,0.51-0.6608,0.95-0.6608h15.34c0.44,0,0.82,0.2777,0.95,0.6608C46.0077,22.1769,46.0276,22.2727,46.0276,22.3781z"/>
    <path fill="none" stroke="#000000" stroke-linecap="round" stroke-linejoin="round" stroke-miterlimit="10" stroke-width="2" d="M25.1075,52.6212H13.94c-0.5523,0-1-0.4477-1-1V22.4204c0-0.5523,0.4477-1,1-1h10.8375"/>
    <path fill="none" stroke="#000000" stroke-linecap="round" stroke-linejoin="round" stroke-miterlimit="10" stroke-width="2" d="M49.7719,21.4204H61.31c0.5523,0,1,0.4477,1,1v29.2008c0,0.5523-0.4477,1-1,1H49.7724"/>
    <path fill="none" stroke="#000000" stroke-linecap="round" stroke-miterlimit="10" stroke-width="2" d="M48.7533,29.5853 c2.939,1.8123,4.7578,4.3199,4.7578,7.0905c0,2.7944-1.8502,5.3213-4.8338,7.137"/>
    <path fill="none" stroke="#000000" stroke-linecap="round" stroke-miterlimit="10" stroke-width="2" d="M24.7399,42.9499 c-2.2338-1.7164-3.5709-3.8986-3.5709-6.2741c0-2.5704,1.5655-4.9145,4.1386-6.687"/>
    <path fill="none" stroke="#000000" stroke-linecap="round" stroke-linejoin="round" stroke-miterlimit="10" stroke-width="2" d="M39.6628,34.2208c-0.2188-0.8514-1.1649-1.4919-2.2989-1.4919h-0.0001c-1.296,0-2.3466,0.8366-2.3466,1.8685 s1.0506,1.8685,2.3466,1.8685l-0.0476,0.0069c1.296,0,2.3466,0.8366,2.3466,1.8685c0,1.0319-1.0506,1.8685-2.3466,1.8685l0,0 c-1.134,0-2.0802-0.6404-2.299-1.4919"/>
    <line x1="37.34" x2="37.34" y1="32.7289" y2="30.9475" fill="none" stroke="#000000" stroke-linecap="round" stroke-linejoin="round" stroke-miterlimit="10" stroke-width="2"/>
    <line x1="37.34" x2="37.34" y1="41.9912" y2="40.2098" fill="none" stroke="#000000" stroke-linecap="round" stroke-linejoin="round" stroke-miterlimit="10" stroke-width="2"/>
  </g>
</svg>
