<svg id="emoji" viewBox="0 0 72 72" xmlns="http://www.w3.org/2000/svg">
  <g id="color">
    <polygon fill="#9B9B9A" stroke="none" points="63.738,40.9795 63.738,68.0462 11.8119,68.0462 11.8119,40.9795 11.8119,35.9583 63.738,35.9583"/>
    <rect x="12.625" y="3.8917" width="50" height="32.0667" transform="matrix(-1 -1.224647e-16 1.224647e-16 -1 75.25 39.85)" fill="#9B9B9A" stroke="none" stroke-linecap="round" stroke-linejoin="round" stroke-miterlimit="10" stroke-width="2"/>
    <polygon fill="#FFFFFF" stroke="none" points="62.625,36 12.625,13.779 12.625,3.8917 62.625,26.1127"/>
  </g>
  <g id="hair"/>
  <g id="skin"/>
  <g id="skin-shadow"/>
  <g id="line">
    <polyline fill="none" stroke="#000000" stroke-linecap="round" stroke-linejoin="round" stroke-miterlimit="10" stroke-width="2" points="62.625,40.9795 62.625,68.0462 12.625,68.0462 12.625,40.9795"/>
    <rect x="12.625" y="3.8917" width="50" height="32.0667" transform="matrix(-1 -1.224647e-16 1.224647e-16 -1 75.25 39.85)" fill="none" stroke="#000000" stroke-linecap="round" stroke-linejoin="round" stroke-miterlimit="10" stroke-width="2"/>
    <line x1="17.625" x2="57.625" y1="41.5275" y2="41.5275" fill="none" stroke="#000000" stroke-linecap="round" stroke-linejoin="round" stroke-miterlimit="10" stroke-width="2"/>
    <line x1="17.625" x2="57.625" y1="47.0967" y2="47.0967" fill="none" stroke="#000000" stroke-linecap="round" stroke-linejoin="round" stroke-miterlimit="10" stroke-width="2"/>
    <line x1="17.625" x2="57.625" y1="52.666" y2="52.666" fill="none" stroke="#000000" stroke-linecap="round" stroke-linejoin="round" stroke-miterlimit="10" stroke-width="2"/>
    <rect x="30.7171" y="56.1856" width="13.5062" height="8.1037" fill="none" stroke="#000000" stroke-linecap="round" stroke-linejoin="round" stroke-miterlimit="10" stroke-width="2"/>
    <rect x="12.625" y="3.8917" width="50" height="32.0667" transform="matrix(-1 -1.224647e-16 1.224647e-16 -1 75.25 39.85)" fill="none" stroke="#000000" stroke-linecap="round" stroke-linejoin="round" stroke-miterlimit="10" stroke-width="2"/>
  </g>
</svg>
