<svg id="emoji" viewBox="0 0 72 72" xmlns="http://www.w3.org/2000/svg">
  <g id="color">
    <path id="_1F4B2" fill="#9b9b9a" d="M35.5,33c-1.76,0-7.5-.3965-7.5-5.5S33.74,22,35.5,22C44,22,44,25.9956,44,27.5a3.5,3.5,0,0,0,7,0c0-6.68-4.2306-11.05-11.5-12.1917V12.5a4,4,0,0,0-8,0v2.9037C25.0883,16.7194,21,21.2447,21,27.5,21,34.9766,26.8271,40,35.5,40c2.94,0,8.5,1.1494,8.5,5.5S38.44,51,35.5,51c-1.76,0-7.5-.3965-7.5-5.5a3.5,3.5,0,0,0-7,0c0,6.2553,4.0883,10.7806,10.5,12.0963V59.5a4,4,0,0,0,8,0V57.601C45.6858,56.3727,51,52.2729,51,45.5,51,37.2939,43.2021,33,35.5,33Z"/>
  </g>
  <g id="line">
    <path id="_1F4B2-2" fill="none" stroke="#000" stroke-miterlimit="10" stroke-width="2" d="M35.5,33c-1.76,0-7.5-.3965-7.5-5.5S33.74,22,35.5,22C44,22,44,25.9956,44,27.5a3.5,3.5,0,0,0,7,0c0-6.68-4.2306-11.05-11.5-12.1917V12.5a4,4,0,0,0-8,0v2.9037C25.0883,16.7194,21,21.2447,21,27.5,21,34.9766,26.8271,40,35.5,40c2.94,0,8.5,1.1494,8.5,5.5S38.44,51,35.5,51c-1.76,0-7.5-.3965-7.5-5.5a3.5,3.5,0,0,0-7,0c0,6.2553,4.0883,10.7806,10.5,12.0963V59.5a4,4,0,0,0,8,0V57.601C45.6858,56.3727,51,52.2729,51,45.5,51,37.2939,43.2021,33,35.5,33Z"/>
  </g>
</svg>
