<svg id="emoji" viewBox="0 0 72 72" xmlns="http://www.w3.org/2000/svg">
  <g id="color">
    <rect x="11.5579" y="19.9459" width="48.5526" height="32.8773" fill="#FFFFFF" stroke="none"/>
    <rect x="34.375" y="19.8844" width="22.5625" height="33.125" fill="#B399C8" stroke="none"/>
    <path fill="#D0CFCE" stroke="none" stroke-linecap="round" stroke-linejoin="round" stroke-miterlimit="10" stroke-width="2" d="M36.5686,21.8042v29.2855c0,0.1053-0.02,0.2011-0.05,0.2969c-0.13,0.383-0.51,0.6608-0.95,0.6608h-15.34 c-0.44,0-0.82-0.2778-0.95-0.6608c-0.03-0.0958-0.05-0.1915-0.05-0.2969V21.8042c0-0.1053,0.02-0.2011,0.05-0.2969 c0.13-0.3831,0.51-0.6608,0.95-0.6608h15.34c0.44,0,0.82,0.2777,0.95,0.6608C36.5486,21.6031,36.5686,21.6989,36.5686,21.8042z"/>
  </g>
  <g id="hair"/>
  <g id="skin"/>
  <g id="skin-shadow"/>
  <g id="line">
    <path fill="none" stroke="#000000" stroke-linecap="round" stroke-linejoin="round" stroke-miterlimit="10" stroke-width="2" d="M41.7094,20.8465h17.8015c0.5523,0,1,0.4477,1,1v29.2008c0,0.5523-0.4477,1-1,1H41.7094"/>
    <path fill="none" stroke="#000000" stroke-linecap="round" stroke-linejoin="round" stroke-miterlimit="10" stroke-width="2" d="M36.5686,21.8042v29.2855c0,0.1053-0.02,0.2011-0.05,0.2969c-0.13,0.383-0.51,0.6608-0.95,0.6608h-15.34 c-0.44,0-0.82-0.2778-0.95-0.6608c-0.03-0.0958-0.05-0.1915-0.05-0.2969V21.8042c0-0.1053,0.02-0.2011,0.05-0.2969 c0.13-0.3831,0.51-0.6608,0.95-0.6608h15.34c0.44,0,0.82,0.2777,0.95,0.6608C36.5486,21.6031,36.5686,21.6989,36.5686,21.8042z"/>
    <path fill="none" stroke="#000000" stroke-linecap="round" stroke-linejoin="round" stroke-miterlimit="10" stroke-width="2" d="M13.75,52.0473h-1.609c-0.5523,0-1-0.4477-1-1V21.8465c0-0.5523,0.4477-1,1-1H13.75"/>
    <line x1="25.4131" x2="27.1909" y1="36.4371" y2="36.4371" fill="none" stroke="#000000" stroke-linecap="round" stroke-linejoin="round" stroke-miterlimit="10" stroke-width="2"/>
    <path fill="none" stroke="#000000" stroke-linecap="round" stroke-linejoin="round" stroke-miterlimit="10" stroke-width="2" d="M30.0464,39.9502H26.302v-5.1343c0-1.034,0.8382-1.8722,1.8722-1.8722l0,0c0.9693,0,1.7666,0.7367,1.8625,1.6807"/>
    <path fill="none" stroke="#000000" stroke-linecap="round" stroke-linejoin="round" stroke-miterlimit="10" stroke-width="2" d="M53.2365,32.9437L53.2365,32.9437c-1.0579,0-1.9155-0.8576-1.9155-1.9155v-3.1689c0-1.0579,0.8576-1.9156,1.9155-1.9156l0,0 c1.058,0,1.9156,0.8577,1.9156,1.9156v3.1689C55.1521,32.0861,54.2945,32.9437,53.2365,32.9437z"/>
    <path fill="none" stroke="#000000" stroke-linecap="round" stroke-linejoin="round" stroke-miterlimit="10" stroke-width="2" d="M43.9538,27.6606c0.2005-0.9798,1.0674-1.7169,2.1065-1.7169l0,0c0.5937,0,1.1313,0.2407,1.5204,0.6298 c0.6053,0.6053,0.5494,1.6111-0.0185,2.2515l-3.6521,4.1187h4.3004"/>
  </g>
</svg>
