<svg id="emoji" viewBox="0 0 72 72" xmlns="http://www.w3.org/2000/svg">
  <g id="color">
    <path fill="#FFFFFF" stroke="none" d="M11.997,27.9165v32.1753l31.6594-0.0054l16.489-11.9V28.0918L11.997,27.9165z"/>
    <path fill="#EA5A47" stroke="none" d="M19.2073,18.736c0.0059-0.6514-0.7503-2.3148-0.4458-2.8811c-0.1466-0.5021,1.6993-3.5815,1.6993-3.5815H12 l-0.003,15l48.1484,0.305L60,12.2734l-6.6506-0.375l-1.9644,3.4982c0.3652,1.0116,0.6716,1.8772,0.7819,2.139 c0.3596,0.5433,0.7323,3.2262,0.7323,3.2264c-0.0197,1.9187-2.6538,2.2379-2.9272,2.2379 c-2.4384-0.3664-2.7436-2.0798-2.7231-4.2859c0.0058-0.6514-0.3112-2.6719-0.307-2.7145c0.0141-0.1445,1.5385-3.7261,1.5385-3.7261 H25.5657l-2.2003,3.1232c0.3652,1.0116,1.6155,4.6319,1.6155,4.6321c-0.0205,2.1914-1.2224,2.7459-3.0285,2.9712 C20.1463,23.2252,19.1868,20.9421,19.2073,18.736z"/>
    <path fill="#d0cfce" stroke="none" d="M60.1454,48.1864l-17.2117-0.3533c0,0,0.7574,3.9405,0.2047,3.9405c-0.502,0-0.8989,2.3688-0.9709,1.8871 v6.6846l1.6823-0.0774L60.1454,48.1864z"/>
  </g>
  <g id="hair"/>
  <g id="skin"/>
  <g id="skin-shadow"/>
  <g id="line">
    <polyline fill="none" stroke="#000000" stroke-linecap="round" stroke-linejoin="round" stroke-miterlimit="10" stroke-width="2" points="53.3494,12.2734 60,12.2734 60,28.2734 12,28.2734 12,12.2734 20.4608,12.2734"/>
    <line x1="25.5657" x2="48.4804" y1="12.2734" y2="12.2734" fill="none" stroke="#000000" stroke-linecap="round" stroke-linejoin="round" stroke-miterlimit="10" stroke-width="2"/>
    <path fill="none" fill-rule="evenodd" stroke="#000000" stroke-linecap="round" stroke-linejoin="round" stroke-miterlimit="10" stroke-width="2" d="M53.3494,12.2752l-1.9644,3.1214c0,0,0.9936,2.767,1.0851,2.8995c0.3399,0.4916,0.5366,1.0894,0.5304,1.7326 c-0.0158,1.6567-1.3717,2.987-3.0285,2.9712c-1.6568-0.0159-2.987-1.3718-2.9712-3.0286c0.006-0.6212,0.2003-1.1966,0.5284-1.6723 c0.0816-0.1184-0.9091-2.9024-0.9091-2.9024l1.8603-3.1332" clip-rule="evenodd"/>
    <path fill="none" fill-rule="evenodd" stroke="#000000" stroke-linecap="round" stroke-linejoin="round" stroke-miterlimit="10" stroke-width="2" d="M25.3298,12.2752l-1.9644,3.1214c0,0,0.9936,2.767,1.0851,2.8995c0.3399,0.4916,0.5366,1.0894,0.5304,1.7326 c-0.0158,1.6567-1.3717,2.987-3.0285,2.9712c-1.6568-0.0159-2.987-1.3718-2.9712-3.0286c0.006-0.6212,0.2003-1.1966,0.5284-1.6723 c0.0816-0.1184-0.9091-2.9024-0.9091-2.9024l1.8603-3.1332" clip-rule="evenodd"/>
    <path fill="none" stroke="#000000" stroke-linecap="round" stroke-linejoin="round" stroke-miterlimit="10" stroke-width="2" d="M34.3355,38.092c0.5248-2.5644,2.7937-4.4936,5.5134-4.4936l0,0c1.5539,0,2.9609,0.63,3.9793,1.6484 c1.5843,1.5842,1.438,4.2167-0.0484,5.8928l-9.5586,10.7799h4.7601"/>
    <polyline fill="none" stroke="#000000" stroke-linecap="round" stroke-linejoin="round" stroke-miterlimit="10" stroke-width="2" points="23.2764,37.3982 28.3485,33.5984 28.3485,51.9195"/>
    <polyline fill="none" stroke="#000000" stroke-linecap="round" stroke-linejoin="round" stroke-miterlimit="10" stroke-width="2" points="11.997,28.0918 11.997,60.0918 43.6564,60.0864 59.997,48.0382 59.997,28.0918"/>
    <polyline fill="none" stroke="#000000" stroke-linecap="round" stroke-linejoin="round" stroke-miterlimit="10" stroke-width="2" points="59.7462,48.0382 43.1384,48.0382 43.1384,53.5175"/>
  </g>
</svg>
