<svg id="emoji" viewBox="0 0 72 72" xmlns="http://www.w3.org/2000/svg">
  <g id="color">
    <path fill="#f1b31c" stroke="#f1b31c" stroke-linecap="round" stroke-linejoin="round" stroke-miterlimit="10" stroke-width="2" d="M39.8074,51h-9c-12.7025,0-23-14.9543-23-26h-5c0,12.7025,10.2975,30,23,30h9"/>
    <path fill="#fcea2b" stroke="none" d="M49.0532,33.1949c0-0.01,0-0.02-0.01-0.03c-0.24-0.75-0.56-1.4601-0.98-2.14 c-0.13-0.23-0.28-0.46-0.44-0.67l0.63,1.26c0.4,1.3,0.62,2.69,0.62,4.12c0,4.01-1.68,7.62-4.38,10.17c0.04,0.03,0.08,0.06,0.12,0.1 l0.36,0.43l2.43-3.25l0.39-0.59C49.6132,39.8749,50.0732,36.3248,49.0532,33.1949z M57.8032,35.7048 c-0.28-9.0299-5.64-17.1399-13.46-20.8399c-0.54-0.27-1.1-0.51-1.67-0.73c-0.36-0.13-0.72-0.26-1.09-0.3701 c-0.36-0.12-0.74-0.2199-1.11-0.3199c-1.81-0.4901-3.7-0.7401-5.67-0.7401c-9.14,0-17.05,5.3401-20.73,13.0701 c-0.16,0.34-0.31,0.67-0.46,1.02c-0.29,0.69-0.55,1.39-0.77,2.11c-0.12,0.3599-0.22,0.73-0.31,1.09c-0.08,0.31-0.16,0.62-0.22,0.93 c-0.03,0.11-0.05,0.2199-0.07,0.3399c-0.07,0.32-0.12,0.6501-0.17,0.9801c-0.06,0.35-0.1,0.7-0.14,1.06 c-0.09,0.8-0.13,1.62-0.13,2.44c0,0.81,0.04,1.62,0.13,2.41c0.03,0.37,0.08,0.7399,0.14,1.1c0.06,0.37,0.13,0.73,0.2,1.0799 c0.06,0.2701,0.12,0.5501,0.18,0.8201c0.07,0.27,0.14,0.53,0.21,0.7999c0.23,0.8001-0.3504,1.8635-0.0504,2.6335 c1.13,2.79,3.357,6.4439,5.4269,8.5639c0.71,0.74,1.7435,0.0027,2.5535,0.6227c0.01,0.01,0.01,0.01,0.02,0.01 c3.91,3.09,8.84,4.9199,14.19,4.9199c5.89,0,11.34-2.2099,15.46-5.8499c0.33-0.29,0.64-0.58,0.95-0.9001 c0.77-0.75,1.48-1.56,2.13-2.4199c2.77-3.63,4.43-8.11,4.47-12.9601C57.8132,36.2849,57.8132,35.9949,57.8032,35.7048z M43.1332,45.8248c-2.27,1.3301-9.16,4.5601-17.41,0.57c-3-2.57-5.5336-6.1064-5.5336-10.3765 c0-7.75,6.9136-14.3135,14.6536-14.3135c3.45,0,6.6,1.2401,9.04,3.31l2.6535,2.6201l1.1999,2.39l-0.3234,0.03 c0.07,0.1,0.15,0.2,0.21,0.3l0.63,1.26c0.4,1.3,0.62,2.69,0.62,4.12c0,4.01-1.68,7.62-4.38,10.17 C44.1032,45.6049,43.5632,45.5649,43.1332,45.8248z M49.0532,33.1949c0-0.01,0-0.02-0.01-0.03c-0.24-0.75-0.56-1.4601-0.98-2.14 c-0.13-0.23-0.28-0.46-0.44-0.67l0.63,1.26c0.4,1.3,0.62,2.69,0.62,4.12c0,4.01-1.68,7.62-4.38,10.17c0.04,0.03,0.08,0.06,0.12,0.1 l0.36,0.43l2.43-3.25l0.39-0.59C49.6132,39.8749,50.0732,36.3248,49.0532,33.1949z"/>
    <path fill="#f1b31c" stroke="none" d="M58.7332,38.03c-0.06,0.75-0.13,1.2-0.13,1.2c0,4.84-2.51,8.05-5.26,10.56c-1.15,1.05-2.34,1.98-3.41,2.85 c-0.22,0.18-0.43,0.35-0.64,0.52c-0.87,0.74-1.62,1.44-2.15,2.15l0.79-4.19l0.14-0.71l2.6-13.74l-1.62-3.22 c0-0.01,0-0.02-0.01-0.03l-0.79-1.55l-0.63-1.26l0.1134-0.33l-1.1999-2.39l-1.8031-2.62l-3.3204-2.74l-0.75-0.83l3.68-6.58 l0.02-0.04l0.31-0.56c6.95,2.89,11.54,9.26,13.27,15.03c0.09,0.3,0.16,0.63,0.23,0.92C58.9432,33.49,58.8632,36.45,58.7332,38.03z"/>
    <path fill="#FFFFFF" stroke="none" d="M44.4932,46.16c-2.51,2.4-5.9,3.86-9.65,3.86c-3.48,0-6.67-1.27-9.12-3.37c8.25,3.99,15.14,0.76,17.41-0.57 C43.5632,45.82,44.1032,45.86,44.4932,46.16z"/>
    <path fill="#FFFFFF" stroke="none" stroke-linecap="round" stroke-linejoin="round" stroke-width="2" d="M51.3351,52.3195"/>
    <path fill="#fcea2b" stroke="#fcea2b" stroke-linecap="round" stroke-linejoin="round" stroke-miterlimit="10" stroke-width="2" d="M69.1632,51.6l-3.38,2.6c-2.9-3.76-7.88-4.97-12.06-3.25l-2.51,1.26l-1.16,0.58l-0.75,0.38l-0.01-0.01l-1.36-2.04l-2.95-4.42 l-0.01-0.01l2.43-3.25l0.39-0.59c1.82-2.72,2.28-6.27,1.26-9.4c0-0.01,0-0.02-0.01-0.03c-0.24-0.75-0.56-1.46-0.98-2.14 c-0.13-0.23-0.28-0.46-0.44-0.67c-0.06-0.1-0.14-0.2-0.21-0.3l0.04-0.03l0.15-0.12l3.19-2.45l7.02,9.12l0.92,1.2L69.1632,51.6z"/>
    <path fill="#a57939" stroke="none" d="M49.8432,54.61c-14.54,9.47-27.82,2.42-31.8-0.17c-0.61-0.39-0.72-1.22-0.28-1.77 c0.02-0.04,0.06-0.08,0.09-0.11l0.47-0.57l3.11-3.74l1.68-2.02c0.39-0.39,0.99-0.45,1.47-0.18c0.38,0.21,0.77,0.41,1.14,0.6 c8.25,3.99,15.14,0.76,17.41-0.57c0.43-0.26,0.97-0.22,1.36,0.08c0.04,0.03,0.08,0.06,0.12,0.1l0.36,0.43l0.01,0.01l3.09,3.71 l1.86,2.23l0.08,0.1c0.02,0.02,0.03,0.03,0.04,0.05c0.09,0.1,0.16,0.2,0.21,0.32C50.4932,53.63,50.3432,54.28,49.8432,54.61z"/>
  </g>
  <g id="hair"/>
  <g id="skin"/>
  <g id="skin-shadow"/>
  <g id="line">
    <path fill="none" stroke="#000000" stroke-linecap="round" stroke-linejoin="round" stroke-width="2" d="M34.8074,55"/>
    <path fill="none" stroke="#000000" stroke-linecap="round" stroke-linejoin="round" stroke-width="2" d="M8.6106,30.6932 C8.0869,28.7456,7.8074,26.8198,7.8074,25h-5c0,6.0533,2.3385,13.15,6.1613,18.9211"/>
    <path fill="none" stroke="#000000" stroke-linecap="round" stroke-linejoin="round" stroke-width="2" d="M56.8664,29.4674 C54.0513,19.9468,45.2406,13,34.8074,13c-12.7025,0-23,10.2975-23,23c0,4.7187,1.421,9.1055,3.8584,12.7559"/>
    <path fill="none" stroke="#000000" stroke-linecap="round" stroke-linejoin="round" stroke-width="2" d="M25.8074,54.5"/>
    <path fill="none" stroke="#000000" stroke-linecap="round" stroke-linejoin="round" stroke-width="2" d="M46.1575,26.1927 C43.407,23.0123,39.3422,21,34.8074,21c-8.2843,0-15,6.7157-15,15c0,2.3463,0.5387,4.5667,1.4991,6.5444"/>
    <path fill="none" stroke="#000000" stroke-linecap="round" stroke-linejoin="round" stroke-width="2" d="M51.3351,52.3195"/>
    <path fill="none" stroke="#000000" stroke-linecap="round" stroke-linejoin="round" stroke-width="2" d="M47.4032,43.44l0.39-0.59 c1.82-2.72,2.28-6.27,1.26-9.4c0-0.01,0-0.02-0.01-0.03c-0.24-0.75-0.56-1.46-0.98-2.14c-0.13-0.23-0.28-0.46-0.44-0.67 c-0.06-0.1-0.14-0.2-0.21-0.3l0.04-0.03l0.15-0.12l3.19-2.45l7.02,9.12l0.92,1.2l10.43,13.57l-3.38,2.6 c-2.9-3.76-7.88-4.97-12.06-3.25"/>
    <path fill="none" stroke="#000000" stroke-linecap="round" stroke-linejoin="round" stroke-width="2.1425" d="M49.8432,54.61 c-14.54,9.47-27.82,2.42-31.8-0.17c-0.61-0.39-0.72-1.22-0.28-1.77c0.02-0.04,0.06-0.08,0.09-0.11l0.47-0.57l3.11-3.74l1.68-2.02 c0.39-0.39,0.99-0.45,1.47-0.18c0.38,0.21,0.77,0.41,1.14,0.6c8.25,3.99,15.14,0.76,17.41-0.57c0.43-0.26,0.97-0.22,1.36,0.08 c0.04,0.03,0.08,0.06,0.12,0.1l0.36,0.43l0.01,0.01l3.09,3.71l1.86,2.23l0.08,0.1c0.02,0.02,0.03,0.03,0.04,0.05 c0.09,0.1,0.16,0.2,0.21,0.32C50.4932,53.63,50.3432,54.28,49.8432,54.61z"/>
  </g>
</svg>
