<svg id="emoji" viewBox="0 0 72 72" xmlns="http://www.w3.org/2000/svg">
  <g id="color">
    <path fill="#61b2e4" d="M58.7,27.6c0-5.4-2.9627-10.4219-7.3-11.6-3.4284-.9312-15.4-.6-15.4-.6l-11.8036-.0976c-.7,0,3.5036,6.2976,3.5036,12.2976V39.3a2.338,2.338,0,0,1-2.1226,2.3964L58.7,41.6Z"/>
    <path fill="#3f3f3f" d="M34.6,27.6V39.4a2.1631,2.1631,0,0,1-2.1,2.3H15.3a2.15,2.15,0,0,1-2-2.3V26.6a12.27,12.27,0,0,1,4.6-9.1A9.5025,9.5025,0,0,1,24,15.3a13.5523,13.5523,0,0,1,2,.2h0C30.9,16.6,34.6,21.6,34.6,27.6Z"/>
    <path fill="#ea5a47" d="M40.3773,31.53v.9a1.12,1.12,0,0,0,1,1.2h10v2.1a1.12,1.12,0,0,0,1,1.2h7.4a1.1256,1.1256,0,0,0,1-1.2v-4.2a1.12,1.12,0,0,0-1-1.2h-18.4A1.1256,1.1256,0,0,0,40.3773,31.53Z"/>
    <path fill="#fff" d="M39.3,59.4V41.6533l-6.813.0082L32.5,46.4v13"/>
  </g>
  <g id="line">
    <path fill="none" stroke="#000" stroke-linecap="round" stroke-linejoin="round" stroke-width="2" d="M58.7,30.2954V27.6c0-5.4-3.0287-10.2014-7.3-11.6-3.4695-1.1361-27.2036-.6976-27.2036-.6976"/>
    <path fill="none" stroke="#000" stroke-linecap="round" stroke-linejoin="round" stroke-width="2" d="M25.5774,41.6964,58.7,41.6V36.9717"/>
    <path fill="none" stroke="#000" stroke-linejoin="round" stroke-width="2" d="M40.3773,31.53v.9a1.12,1.12,0,0,0,1,1.2h10v2.1a1.12,1.12,0,0,0,1,1.2h7.4a1.1256,1.1256,0,0,0,1-1.2v-4.2a1.12,1.12,0,0,0-1-1.2h-18.4A1.1256,1.1256,0,0,0,40.3773,31.53Z"/>
    <path fill="none" stroke="#000" stroke-miterlimit="10" stroke-width="2" d="M34.6,27.6V39.4a2.1631,2.1631,0,0,1-2.1,2.3H15.3a2.15,2.15,0,0,1-2-2.3V26.6a12.27,12.27,0,0,1,4.6-9.1A9.5025,9.5025,0,0,1,24,15.3a13.5523,13.5523,0,0,1,2,.2h0C30.9,16.6,34.6,21.6,34.6,27.6Z"/>
    <path fill="none" stroke="#000" stroke-linecap="round" stroke-linejoin="round" stroke-width="2" d="M39.3,59.4V41.6533l-6.813.0082L32.5,46.4v13"/>
  </g>
</svg>
