<svg id="emoji" viewBox="0 0 72 72" xmlns="http://www.w3.org/2000/svg">
  <g id="color">
    <g id="_1F529">
      <polygon fill="#9b9b9a" points="36.804 28.439 43.931 35.497 46.961 32.467 39.869 25.374 36.804 28.439"/>
      <rect x="35.1711" y="18.7696" width="23.948" height="11.4993" transform="translate(31.1462 -26.1551) rotate(45)" fill="#d0cfce"/>
      <polyline fill="#d0cfce" points="32.174 33.07 39.869 25.374 46.961 32.467 19.415 60.013 12.322 52.921 32.174 33.07"/>
      <rect x="30.858" y="35.5005" width="10.0303" height="1.9238" transform="translate(36.2899 -14.6866) rotate(45)" fill="#9b9b9a"/>
      <rect x="21.3355" y="45.0231" width="10.0303" height="1.9238" transform="translate(40.2342 -5.164) rotate(45)" fill="#9b9b9a"/>
      <rect x="19.2949" y="47.0636" width="10.0303" height="1.9238" transform="translate(41.0795 -3.1235) rotate(45)" fill="#9b9b9a"/>
      <rect x="17.2544" y="49.1042" width="10.0303" height="1.9238" transform="translate(41.9247 -1.0829) rotate(45)" fill="#9b9b9a"/>
      <rect x="21.125" y="37.4189" width="20.0607" height="7.5228" transform="translate(38.2441 -9.9688) rotate(45)" fill="#d0cfce"/>
    </g>
  </g>
  <g id="line">
    <g id="_1F529-2">
      <rect x="35.1711" y="18.7696" width="23.948" height="11.4993" transform="translate(31.1462 -26.1551) rotate(45)" fill="none" stroke="#000" stroke-linecap="round" stroke-linejoin="round" stroke-width="2"/>
      <polyline fill="none" stroke="#000" stroke-linecap="round" stroke-linejoin="round" stroke-width="2" points="32.755 32.488 39.869 25.374 46.961 32.467 39.883 39.546"/>
      <polyline fill="none" stroke="#000" stroke-linecap="round" stroke-linejoin="round" stroke-width="2" points="29.642 49.786 20.556 58.873 18.527 59.126 13.175 53.774 13.174 52.069 22.375 42.868"/>
      <rect x="21.125" y="37.4189" width="20.0607" height="7.5228" transform="translate(38.2441 -9.9688) rotate(45)" fill="none" stroke="#000" stroke-linecap="round" stroke-linejoin="round" stroke-width="2"/>
    </g>
  </g>
</svg>
