<svg id="emoji" viewBox="0 0 72 72" xmlns="http://www.w3.org/2000/svg">
  <g id="color">
    <path fill="#FCEA2B" stroke="none" d="M40.1545,68l0.002-8.6585c1.6181,0.9547,3.4967,1.5011,5.5005,1.5011c4.7844,0,9.1921-2.0494,10.4955-7.078 c0.3112-1.2007,0.3498-2.458,0.2359-3.6945l-0.1761-0.7974c-1.3037-5.9042-1.8268-11.9599-1.5553-18.0056l0,0h3l-4.5032-7.9957 L48.657,31.267h3l-0.4802,9.3056l-0.2672,5.1776c-0.0725,1.4041-0.4085,2.7809-0.9899,4.0558l0,0 c-1.7015,3.7307-6.9018,3.7324-8.6056,0.0028l0,0c-0.5842-1.2788-0.942-2.653-1.0569-4.0589L38.657,26.1678l-0.0332-0.3471h3 L37.127,17.825l-4.5032,7.9957h3l0.0005,0.2007l-1.6001,19.5822c-0.1149,1.406-0.4727,2.7801-1.0569,4.0589l0,0 c-1.7038,3.7296-6.9042,3.7279-8.6056-0.0028l0,0c-0.5814-1.2749-0.9175-2.6517-0.99-4.0558l-0.2672-5.1776l-0.4802-9.3056h3 l-4.4968-7.9957l-4.5032,7.9957h3l0,0c0.2715,6.0458-0.2516,12.1014-1.5553,18.0056l-0.1761,0.7974 c-0.1139,1.2365-0.0753,2.4938,0.2359,3.6945c1.3034,5.0287,5.7111,7.078,10.4955,7.078c2.0038,0,3.8824-0.5464,5.5005-1.5011 l0.0131,8.7446L40.1545,68z"/>
  </g>
  <g id="hair"/>
  <g id="skin"/>
  <g id="skin-shadow"/>
  <g id="line">
    <path fill="none" stroke="#000000" stroke-linecap="round" stroke-linejoin="round" stroke-miterlimit="10" stroke-width="2" d="M40.1565,67.0054v-8.4719c1.6181,0.9361,3.4967,1.4719,5.5005,1.4719c4.7844,0,9.1921-2.0095,10.4955-6.9403 c0.3112-1.1773,0.3498-2.4102,0.2359-3.6226l-0.1761-0.7819c-1.3037-5.7893-1.8268-11.7271-1.5553-17.6552l0,0h3l-4.5032-7.8401 l-4.4968,7.8401h3l-0.4802,9.1245l-0.2672,5.0769c-0.0725,1.3768-0.4085,2.7268-0.9899,3.9769l0,0 c-1.7015,3.6581-6.9018,3.6598-8.6056,0.0028l0,0c-0.5842-1.2539-0.942-2.6014-1.0569-3.9799l-1.6001-19.201l-0.0332-0.3403h3 L37.127,17.825l-4.5032,7.8401h3l0.0005,0.1968l-1.6001,19.201c-0.1149,1.3786-0.4727,2.726-1.0569,3.9799l0,0 c-1.7038,3.657-6.9042,3.6553-8.6056-0.0028l0,0c-0.5814-1.2501-0.9175-2.6001-0.99-3.9769l-0.2672-5.0769l-0.4802-9.1245h3 l-4.4968-7.8401l-4.5032,7.8401h3l0,0c0.2715,5.9281-0.2516,11.8659-1.5553,17.6552l-0.1761,0.7819 c-0.1139,1.2124-0.0753,2.4453,0.2359,3.6226c1.3034,4.9308,5.7111,6.9403,10.4955,6.9403c2.0038,0,3.8824-0.5358,5.5005-1.4719 l0.0116,8.5736"/>
  </g>
</svg>
