<svg id="emoji" viewBox="0 0 72 72" xmlns="http://www.w3.org/2000/svg">
  <g id="color">
    <path fill="#a57939" d="M53.0629,58.5s3.6193-12.2183-9.9717-13c-3.0312,1.8494-5.6282,3.1274-8.5472,3.1219h.1187c-2.9189.0055-5.5158-1.2725-8.5471-3.1219-11.3963,0-9.4969,13-9.4969,13"/>
    <polygon fill="#d0cfce" points="37.662 58.919 31.609 58.919 31.609 51.405 28.609 47.97 40.122 47.97 37.662 51.353 37.662 58.919"/>
    <path fill="#6a462f" d="M43.771,44.4809l-5.89,7.35c5.97-4.93,6.33,4.28,6.33,4.28l8.93-7.08c-1.24-2.76-3.81-5.19-9-5.19-.19.12-.37.24-.55.36Z"/>
    <path fill="#6a462f" d="M25.8458,44.54l5.89,7.35c-5.97-4.93-6.33,3.48-6.33,3.48L17.2158,49h-.01C18.5658,46.55,21.1258,44.54,25.8458,44.54Z"/>
    <circle cx="53.7652" cy="45.5055" r="4.9999" fill="#d0cfce"/>
    <path fill="#fff" d="M53.7959,40.2042l3.6824,6.5849a2.7938,2.7938,0,0,1-1.0754,3.8023l-.18.1006-5.0459-9.0234"/>
    <path fill="#a57939" d="M24.8858,22.07c-.55-.18-.84-.82-1.17-1.25a9.0545,9.0545,0,0,1,2.54-2.31c.02-.01.05-.03.07-.04a15.1817,15.1817,0,0,1,8.41-1.89,15.1817,15.1817,0,0,1,8.41,1.89c.02.01.05.03.07.04a9.0545,9.0545,0,0,1,2.54,2.31c-.35.46-.65,1.15-1.27,1.28a44.8079,44.8079,0,0,1-9.51.9h-.48a44.8706,44.8706,0,0,1-9.51-.9C24.9458,22.09,24.9158,22.08,24.8858,22.07Z"/>
    <path fill="#a57939" d="M43.2758,18.406l-.06.09c-.02-.01-.05-.03-.07-.04a15.1817,15.1817,0,0,0-8.41-1.89,15.1817,15.1817,0,0,0-8.41,1.89c-.02.01-.05.03-.07.04l-.06-.09c1.76-4.76,6.05-9.05,8.54-9.71C37.2258,9.356,41.5158,13.646,43.2758,18.406Z"/>
    <path fill="#6a462f" d="M34.7358,8.47c13.63,1.52,13.4,11,11.15,15.53h-.01a16.8263,16.8263,0,0,0-.59-1.94l-.8-.2c.62-.13.92-.82,1.27-1.28a9.0545,9.0545,0,0,0-2.54-2.31l.06-.09C41.5158,13.42,37.2258,9.13,34.7358,8.47Z"/>
    <path fill="#6a462f" d="M34.7358,8.47c-2.49.66-6.78,4.95-8.54,9.71l.06.09a9.0545,9.0545,0,0,0-2.54,2.31c.33.43.62,1.07,1.17,1.25a16.0465,16.0465,0,0,0-.86,2.93C21.4158,20.63,20.2958,10.08,34.7358,8.47Z"/>
  </g>
  <g id="hair">
    <g>
      <polygon fill="#6a462f" points="23 25 23 28 23 32 22 35 21 38 22 41 24 41 26 41 27.132 39.559 27 38 24.815 32.832 24.701 29.032 25.727 24.38 26 23 23 25"/>
      <polygon fill="#6a462f" points="47 25 47 28 47 32 48 35 49 38 48 41 46 41 44 41 42.868 39.559 43 38 45.185 32.832 45.299 29.032 44.273 24.38 44 23 47 25"/>
    </g>
  </g>
  <g id="skin">
    <g id="skin-2">
      <path fill="#c19a65" d="M46.03,25.01a17.6438,17.6438,0,0,1,.32,3.36c0,7.83-5.08,14.18-11.34,14.18S23.67,36.2,23.67,28.37A16.7949,16.7949,0,0,1,24,25.01V25a16.0465,16.0465,0,0,1,.86-2.93c.03.01.06.02.1.03a44.8706,44.8706,0,0,0,9.51.9h.48a44.8079,44.8079,0,0,0,9.51-.9l.8.2a16.8263,16.8263,0,0,1,.59,1.94C45.92,24.49,45.98,24.75,46.03,25.01Zm-5.02,2a2,2,0,1,0-2,2A2.0059,2.0059,0,0,0,41.01,27.01Zm-2.55,9.15a.9982.9982,0,0,0,.44-1.34.9879.9879,0,0,0-1.34-.45,5.3632,5.3632,0,0,1-5.1,0,.9879.9879,0,0,0-1.34.45.9982.9982,0,0,0,.44,1.34,7.35,7.35,0,0,0,6.9,0Zm-5.45-9.15a2,2,0,1,0-2,2A2.0059,2.0059,0,0,0,33.01,27.01Z"/>
    </g>
  </g>
  <g id="line">
    <g id="line-2">
      <path d="M53.7275,58.8516a.9962.9962,0,0,1-.99-1.1495,15.384,15.384,0,0,0,.082-2.8984,1,1,0,1,1,1.9961-.123,17.1075,17.1075,0,0,1-.1015,3.3232A.9992.9992,0,0,1,53.7275,58.8516Z"/>
      <path d="M48.6152,59.9707a1,1,0,0,1-.9336-1.3574l3.3643-8.7988a1,1,0,0,1,1.8672.7148l-3.3643,8.7988A.9979.9979,0,0,1,48.6152,59.9707Z"/>
      <path d="M39.0358,24.996a2,2,0,1,1-2,2A2.0059,2.0059,0,0,1,39.0358,24.996Z"/>
      <path d="M38.9258,34.806a.9982.9982,0,0,1-.44,1.34,7.35,7.35,0,0,1-6.9,0,.9982.9982,0,0,1-.44-1.34.9879.9879,0,0,1,1.34-.45,5.3632,5.3632,0,0,0,5.1,0A.9879.9879,0,0,1,38.9258,34.806Z"/>
      <path d="M31.0358,24.996a2,2,0,1,1-2,2A2.0059,2.0059,0,0,1,31.0358,24.996Z"/>
      <path fill="none" stroke="#000" stroke-linecap="round" stroke-linejoin="round" stroke-width="2" d="M24.0258,24.986a16.0465,16.0465,0,0,1,.86-2.93v-.01"/>
      <path fill="none" stroke="#000" stroke-linecap="round" stroke-linejoin="round" stroke-width="2" d="M45.2858,22.286a16.8263,16.8263,0,0,1,.59,1.94c.07.25.13.51.18.77a17.6438,17.6438,0,0,1,.32,3.36c0,7.83-5.08,14.18-11.34,14.18s-11.34-6.35-11.34-14.18a16.7949,16.7949,0,0,1,.33-3.36"/>
      <path fill="none" stroke="#000" stroke-linecap="round" stroke-linejoin="round" stroke-width="2" d="M34.7358,16.566a15.1817,15.1817,0,0,0-8.41,1.89c-.02.01-.05.03-.07.04a9.0545,9.0545,0,0,0-2.54,2.31c.33.43.62,1.07,1.17,1.25.03.01.06.02.1.03a44.8706,44.8706,0,0,0,9.51.9"/>
      <path fill="none" stroke="#000" stroke-linecap="round" stroke-linejoin="round" stroke-width="2" d="M26.1958,18.406c1.76-4.76,6.05-9.05,8.54-9.71-14.44,1.61-13.32,12.16-10.71,16.29v.01"/>
      <path fill="none" stroke="#000" stroke-linecap="round" stroke-linejoin="round" stroke-width="2" d="M34.7358,16.566a15.1817,15.1817,0,0,1,8.41,1.89c.02.01.05.03.07.04a9.0545,9.0545,0,0,1,2.54,2.31c-.35.46-.65,1.15-1.27,1.28a44.8079,44.8079,0,0,1-9.51.9"/>
      <path fill="none" stroke="#000" stroke-linecap="round" stroke-linejoin="round" stroke-width="2" d="M43.2758,18.406c-1.76-4.76-6.05-9.05-8.54-9.71,13.63,1.52,13.4,11,11.15,15.53"/>
      <line x1="34.7358" x2="34.7358" y1="8.696" y2="7.276" fill="none" stroke="#000" stroke-linecap="round" stroke-linejoin="round" stroke-width="2"/>
      <path d="M37.5986,58.9707a1,1,0,0,1-1-1V52.2031a1,1,0,0,1,.3633-.7715c1.9912-1.6425,3.7324-2.1494,5.1768-1.5078,1.542.6856,2.2334,2.4971,2.5429,3.9073l2.3536-1.8282a.9994.9994,0,0,1,1.2265,1.5782L44.543,56.4717a1,1,0,0,1-1.6123-.7442c-.05-1.0879-.5088-3.49-1.6055-3.9765-.6113-.2686-1.5684.0605-2.7266.9355v5.2842A.9994.9994,0,0,1,37.5986,58.9707Z"/>
      <path fill="none" stroke="#000" stroke-linecap="round" stroke-linejoin="round" stroke-width="2" d="M45.4358,45.026a8.1174,8.1174,0,0,0-1.71-.17c-3.15,2.09-5.86,3.55-8.88,3.59h-.12c-3.02-.04-5.72-1.5-8.88-3.59-4.72,0-7.28,2.01-8.64,4.46-2.1,3.76-1.36,8.54-1.36,8.54"/>
      <path fill="none" stroke="#000" stroke-linecap="round" stroke-linejoin="round" stroke-width="2" d="M31.7358,57.966v-5.76c-5.97-4.93-6.33,3.48-6.33,3.48l-8.19-6.37"/>
      <line x1="31.7358" x2="25.8458" y1="52.206" y2="44.856" fill="none" stroke="#000" stroke-linecap="round" stroke-linejoin="round" stroke-width="2"/>
      <path d="M37.5977,53.2031a1,1,0,0,1-.7676-1.6406l6.1269-7.3506a1.0006,1.0006,0,0,1,1.5371,1.2813l-6.1269,7.3506A.9989.9989,0,0,1,37.5977,53.2031Z"/>
      <path d="M53.7588,51.502a6,6,0,1,1,5.61-3.8565A5.9581,5.9581,0,0,1,53.7588,51.502ZM53.7627,41.5a4.01,4.01,0,1,0,1.4307.2656A4.0023,4.0023,0,0,0,53.7627,41.5Z"/>
    </g>
    <path fill="none" stroke="#000" stroke-linecap="round" stroke-linejoin="round" stroke-width="2" d="M27.1323,40.0457c-2.8064,1.58-4.7476.7338-5.8883-.2663a1.3329,1.3329,0,0,1-.1494-1.9094C23.05,35.75,24,24,24,24"/>
    <path fill="none" stroke="#000" stroke-linecap="round" stroke-linejoin="round" stroke-width="2" d="M42.7589,40.0457c2.8065,1.58,4.7476.7338,5.8884-.2663a1.3329,1.3329,0,0,0,.1494-1.9094C46.8414,35.75,45.8913,24,45.8913,24"/>
  </g>
</svg>
