<svg id="emoji" x="0" y="0" viewBox="0 0 72 72" version="1.1" xmlns="http://www.w3.org/2000/svg">
  <g id="hair"/>
  <g id="skin">
    <path fill="#debb90" d="M39.8217,32.5222l4.0087-21.643c1.8086-7.7501-5.693-10.0141-7.6152-1.7771l-3.6586,19.2358 c-0.7941,3.5808-1.8856,5.1414-3.2721,5.7653l0,0c-2.3799,1.0711-4.5703-2.4069-5.5939-4.8077l-5.2927-12.413 c-3.2362-7.0282-9.7419-3.7315-7.1376,2.7429l7.2784,16.5182l-1.2882-2.9677l-3.1633-7.2934 c-2.7812-5.8647-8.75-3.521-6.8125,2.2915c0,0,4.3337,10.6624,5.6042,14.2813c1.6565,4.7184,3.351,14.8214,5.9365,19.1019 c5.6263,9.3151,20.6085,8.1089,27.8661,0c2.0403-2.2795,5.6369-7.247,7.6442-9.5556c2.7887-3.2074,10.0855-11.5349,10.0855-11.5349 c1.4629-2.1582,0.3282-5.4939-0.8007-4.6726l-14.6899,5.3904c-1.0085,0.339-1.6661-0.4599-2.0902-1.096 c-0.3091-0.4636,0.0883-2.0531,0.2066-2.7705c1.3997-7.8137,2.7993-15.6273,4.199-23.441c1.195-5.9529-6.1175-8.1404-7.5747-2.0134"/>
  </g>
  <g id="skin-shadow"/>
  <g id="color"/>
  <g id="line">
    <path fill="none" stroke="#000000" stroke-linecap="round" stroke-linejoin="round" stroke-width="2" d="M39.8217,32.5222 l4.0087-21.643c1.8086-7.7501-5.693-10.0141-7.6152-1.7771l-3.6586,19.2358c-0.7941,3.5808-1.8856,5.1414-3.2721,5.7653l0,0 c-2.3799,1.0711-4.5703-2.4069-5.5939-4.8077l-5.2927-12.413c-3.2362-7.0282-9.7419-3.7315-7.1376,2.7429l7.2784,16.5182 l-1.2882-2.9677l-3.1633-7.2934c-2.7812-5.8647-8.75-3.521-6.8125,2.2915c0,0,4.3337,10.6624,5.6042,14.2813 c1.6565,4.7184,3.351,14.8214,5.9365,19.1019c5.6263,9.3151,20.6085,8.1089,27.8661,0c2.0403-2.2795,5.6369-7.247,7.6442-9.5556 c2.7887-3.2074,10.0855-11.5349,10.0855-11.5349c1.4629-2.1582,0.3282-5.4939-0.8007-4.6726l-14.6899,5.3904 c-1.0085,0.339-1.6661-0.4599-2.0902-1.096c-0.3091-0.4636,0.0883-2.0531,0.2066-2.7705c1.3997-7.8137,2.7993-15.6273,4.199-23.441 c1.195-5.9529-6.1175-8.1404-7.5747-2.0134"/>
    <path fill="none" stroke="#000000" stroke-linecap="round" stroke-linejoin="round" stroke-width="2" d="M39.8217,32.5222 l4.0087-21.643c1.8086-7.7501-5.693-10.0141-7.6152-1.7771l-3.6586,19.2358c-0.7941,3.5808-1.8856,5.1414-3.2721,5.7653l0,0 c-2.3799,1.0711-4.5703-2.4069-5.5939-4.8077l-5.2927-12.413c-3.2362-7.0282-9.7419-3.7315-7.1376,2.7429l7.2784,16.5182 l-1.2882-2.9677l-3.1633-7.2934c-2.7812-5.8647-8.75-3.521-6.8125,2.2915c0,0,4.3337,10.6624,5.6042,14.2813 c1.6565,4.7184,3.351,14.8214,5.9365,19.1019c5.6263,9.3151,20.6085,8.1089,27.8661,0c2.0403-2.2795,5.6369-7.247,7.6442-9.5556 c2.7887-3.2074,10.0855-11.5349,10.0855-11.5349c1.4629-2.1582,0.3282-5.4939-0.8007-4.6726l-14.6899,5.3904 c-1.0085,0.339-1.6661-0.4599-2.0902-1.096c-0.3091-0.4636,0.0883-2.0531,0.2066-2.7705c1.3997-7.8137,2.7993-15.6273,4.199-23.441 c1.195-5.9529-6.1175-8.1404-7.5747-2.0134"/>
  </g>
</svg>
