<svg id="emoji" viewBox="0 0 72 72" xmlns="http://www.w3.org/2000/svg">
  <g id="color"/>
  <g id="hair"/>
  <g id="skin">
    <path fill="#fcea2b" stroke="none" d="M65.3387,38.6623c-1.3062-3.5-4.9845-2.3437-9.3387,0.4704c-1.7618,1.1387-3.2292,1.8673-7.4167,2.7215 c-1.8333,0-2.2391-1.9534-1.8836-3.8665l4.199-23.441c1.195-5.9529-6.1175-8.1404-7.5747-2.0134L39.6675,32.946 c-1.8394,5.0852-2.515,0-2.515,0l-1.0147-21.9877c0-7.9583-7.8198-8.4583-7.8198,0l0.9266,20.0795 c0.4115,7.9309-1.512,3.4622-1.512,2.8356L24.0556,16c-1.7743-7.5312-8.8056-5.5938-7.5405,1.2692l3.4165,15.9355 c0.5643,3.6861-2.3321,1.9393-2.8394,1.0535L13.75,26.5522c-2.7812-5.8647-8.75-3.521-6.8125,2.2915l5.6042,14.2812 c0.5092,1.6635,1.0521,3.3281,1.2083,4.75c0,4,2.584,12.2077,4.7282,14.3519c7.695,7.695,20.1711,7.695,27.8661,0 C51.5,56.4375,53.9688,54.0114,56,49.5739"/>
  </g>
  <g id="skin-shadow"/>
  <g id="line">
    <path fill="none" stroke="#000000" stroke-linecap="round" stroke-linejoin="round" stroke-width="2" d="M48.5833,41.8542 c-1.8333,0-2.2391-1.9534-1.8836-3.8665l4.199-23.441c1.195-5.9529-6.1175-8.1404-7.5747-2.0134L39.6675,32.946 c-1.8394,5.0852-2.515,0-2.515,0l-1.0147-21.9877c0-7.9583-7.8198-8.4583-7.8198,0l0.9266,20.0795 c0.4115,7.9309-1.512,3.4622-1.512,2.8356L24.0556,16c-1.7743-7.5312-8.8056-5.5938-7.5405,1.2692l3.4165,15.9355 c0.5643,3.6861-2.0991,2.7953-3.0183,0.641L13.75,26.5522c-2.7812-5.8647-8.75-3.521-6.8125,2.2915 c0,0,4.3337,10.6624,5.6042,14.2812c1.6565,4.7184,3.351,14.8214,5.9365,19.1019c5.6263,9.3151,20.6085,8.1088,27.8661,0 c2.0403-2.2796,5.6369-7.247,7.6442-9.5556c2.7887-3.2074,10.0855-11.5349,10.0855-11.5349 c1.4629-2.1582,0.3282-5.4939-0.8007-4.6726L48.5833,41.8542"/>
  </g>
</svg>
