<svg id="emoji" viewBox="0 0 72 72" xmlns="http://www.w3.org/2000/svg">
  <g id="color">
    <path fill="#FFFFFF" stroke="none" d="M60.069,17.0151l-5.9178-0.9325H17.21l-5.2722,0.9684l0.0358,43.2177l31.6332-0.0359l16.4981-12.0507 L60.069,17.0151z"/>
    <path fill="#d0cfce" stroke="none" d="M56.9559,49.0381H44.1387v4.4795c0,0.5527-0.4473,1-1,1c-0.502,0-0.8992-0.3752-0.9712-0.8569v5.4255 l1.1596-0.0003L56.9559,49.0381z"/>
    <line x1="45.4806" x2="45.4806" y1="13.9548" y2="19.5906" fill="#FFFFFF" stroke="none" stroke-linecap="round" stroke-linejoin="round" stroke-miterlimit="10" stroke-width="2"/>
    <line x1="40.7203" x2="40.7203" y1="13.9548" y2="19.5906" fill="#FFFFFF" stroke="none" stroke-linecap="round" stroke-linejoin="round" stroke-miterlimit="10" stroke-width="2"/>
    <line x1="35.96" x2="35.96" y1="13.9548" y2="19.5906" fill="#FFFFFF" stroke="none" stroke-linecap="round" stroke-linejoin="round" stroke-miterlimit="10" stroke-width="2"/>
    <line x1="50.2408" x2="50.2408" y1="13.9548" y2="19.5906" fill="#FFFFFF" stroke="none" stroke-linecap="round" stroke-linejoin="round" stroke-miterlimit="10" stroke-width="2"/>
    <line x1="31.1997" x2="31.1997" y1="13.9548" y2="19.5906" fill="#FFFFFF" stroke="none" stroke-linecap="round" stroke-linejoin="round" stroke-miterlimit="10" stroke-width="2"/>
    <line x1="26.4394" x2="26.4394" y1="13.9548" y2="19.5906" fill="#FFFFFF" stroke="none" stroke-linecap="round" stroke-linejoin="round" stroke-miterlimit="10" stroke-width="2"/>
    <line x1="21.6792" x2="21.6792" y1="13.9548" y2="19.5906" fill="#FFFFFF" stroke="none" stroke-linecap="round" stroke-linejoin="round" stroke-miterlimit="10" stroke-width="2"/>
  </g>
  <g id="hair"/>
  <g id="skin"/>
  <g id="skin-shadow"/>
  <g id="line">
    <line x1="45.4806" x2="45.4806" y1="13.9548" y2="19.5906" fill="none" stroke="#000000" stroke-linecap="round" stroke-linejoin="round" stroke-miterlimit="10" stroke-width="2"/>
    <line x1="40.7203" x2="40.7203" y1="13.9548" y2="19.5906" fill="none" stroke="#000000" stroke-linecap="round" stroke-linejoin="round" stroke-miterlimit="10" stroke-width="2"/>
    <line x1="35.96" x2="35.96" y1="13.9548" y2="19.5906" fill="none" stroke="#000000" stroke-linecap="round" stroke-linejoin="round" stroke-miterlimit="10" stroke-width="2"/>
    <line x1="50.2408" x2="50.2408" y1="13.9548" y2="19.5906" fill="none" stroke="#000000" stroke-linecap="round" stroke-linejoin="round" stroke-miterlimit="10" stroke-width="2"/>
    <line x1="31.1997" x2="31.1997" y1="13.9548" y2="19.5906" fill="none" stroke="#000000" stroke-linecap="round" stroke-linejoin="round" stroke-miterlimit="10" stroke-width="2"/>
    <line x1="26.4394" x2="26.4394" y1="13.9548" y2="19.5906" fill="none" stroke="#000000" stroke-linecap="round" stroke-linejoin="round" stroke-miterlimit="10" stroke-width="2"/>
    <line x1="21.6792" x2="21.6792" y1="13.9548" y2="19.5906" fill="none" stroke="#000000" stroke-linecap="round" stroke-linejoin="round" stroke-miterlimit="10" stroke-width="2"/>
    <line x1="16.9896" x2="54.7874" y1="29.3515" y2="29.3515" fill="none" stroke="#000000" stroke-linecap="round" stroke-linejoin="round" stroke-miterlimit="10" stroke-width="2"/>
    <line x1="16.9896" x2="54.7874" y1="39.8249" y2="39.8249" fill="none" stroke="#000000" stroke-linecap="round" stroke-linejoin="round" stroke-miterlimit="10" stroke-width="2"/>
    <line x1="16.9896" x2="39.115" y1="50.2984" y2="50.2984" fill="none" stroke="#000000" stroke-linecap="round" stroke-linejoin="round" stroke-miterlimit="10" stroke-width="2"/>
    <line x1="25.9463" x2="25.9463" y1="24.4434" y2="55.5488" fill="none" stroke="#000000" stroke-linecap="round" stroke-linejoin="round" stroke-miterlimit="10" stroke-width="2"/>
    <polyline fill="none" stroke="#000000" stroke-linecap="round" stroke-linejoin="round" stroke-miterlimit="10" stroke-width="2" points="54.3253,16.9734 59.96,16.9734 59.997,48.0382 43.6564,60.0864 11.997,60.0918 11.96,16.9734 17.5992,16.9734"/>
    <polyline fill="none" stroke="#000000" stroke-linecap="round" stroke-linejoin="round" stroke-miterlimit="10" stroke-width="2" points="59.7462,48.0382 43.1384,48.0382 43.1384,53.5175"/>
  </g>
</svg>
