<svg id="emoji" viewBox="0 0 72 72" xmlns="http://www.w3.org/2000/svg">
  <g id="line-supplement">
    <path fill="none" stroke="#000000" stroke-linecap="round" stroke-linejoin="round" stroke-miterlimit="10" stroke-width="2" d="M52,52.38c0.8775-1.631,1-5.38,1-7.38c0-4-4-11-4-11"/>
    <path fill="none" stroke="#000000" stroke-linecap="round" stroke-linejoin="round" stroke-miterlimit="10" stroke-width="2" d="M44,36c0,0,3,6.7279,3,10c0,3.0652-1,8-1,10"/>
    <path fill="none" stroke="#000000" stroke-linecap="round" stroke-linejoin="round" stroke-miterlimit="10" stroke-width="2" d="M20,52.4c-0.8775-1.631-1-5.4-1-7.4c0-4,4-11,4-11"/>
    <path fill="none" stroke="#000000" stroke-linecap="round" stroke-linejoin="round" stroke-miterlimit="10" stroke-width="2" d="M28,36c0,0-3,6.7279-3,10c0,3.0652,1,8,1,10"/>
  </g>
  <g id="color">
    <path fill="#FCEA2B" d="M36.2002,13.3163c-12.5719,0-22.7998,10.2279-22.7998,22.7998c0,12.5718,10.2279,22.7998,22.7998,22.7998 C48.772,58.9159,59,48.6879,59,36.1161C59,23.5442,48.772,13.3163,36.2002,13.3163z"/>
    <path fill="#FFFFFF" d="M31.7799,31.4626c0,2.4645-2.0004,4.4626-4.4626,4.4626s-4.4626-1.9981-4.4626-4.4626 c0-2.4622,2.0004-4.4626,4.4626-4.4626S31.7799,29.0004,31.7799,31.4626"/>
    <path fill="#FFFFFF" d="M49.7799,31.4626c0,2.4645-2.0003,4.4626-4.4626,4.4626c-2.4622,0-4.4626-1.9981-4.4626-4.4626 c0-2.4622,2.0004-4.4626,4.4626-4.4626S49.7799,29.0004,49.7799,31.4626"/>
    <path fill="#FFFFFF" d="M28,50c0.2704-0.3562,3.3099-8.2177,8.4211-8.0038C41.0265,42.1889,43.6499,49.5372,44,50 C38.6667,50,33.3333,50,28,50z"/>
    <path fill="#92D3F5" d="M44,36c0,0,3,6.7279,3,10c0,3.0652-1,8-1,10c0,1.8028,5.1459-2.4124,6-4c0.8775-1.631,1-5,1-7 c0-4-4-11-4-11"/>
    <path fill="#92D3F5" d="M28,36c0,0-3,6.7279-3,10c0,3.0652,1,8,1,10c0,1.8028-5.1459-2.4124-6-4c-0.8775-1.631-1-5-1-7 c0-4,4-11,4-11"/>
  </g>
  <g id="hair"/>
  <g id="skin"/>
  <g id="skin-shadow"/>
  <g id="line">
    <path d="M29.3173,31.9252c0,1.1045-0.8965,2-2,2s-2-0.8955-2-2c0-1.1035,0.8965-2,2-2 C28.4208,29.9252,29.3173,30.8217,29.3173,31.9252"/>
    <path d="M47.3173,31.9252c0,1.1045-0.8965,2-2,2s-2-0.8955-2-2c0-1.1035,0.8965-2,2-2 C46.4208,29.9252,47.3173,30.8217,47.3173,31.9252"/>
    <path fill="none" stroke="#000000" stroke-linecap="round" stroke-linejoin="round" stroke-miterlimit="10" stroke-width="2" d="M28,50c0.2704-0.3562,1-8,8.4211-8.0038C43,41.9929,43.6499,49.5372,44,50C38.6667,50,33.3333,50,28,50z"/>
    <path fill="none" stroke="#000000" stroke-linecap="round" stroke-linejoin="round" stroke-miterlimit="10" stroke-width="2" d="M22.9385,22.2501c0.4872,0.2275,2.6277,1.1608,5.1639,0.3327c2.0576-0.6718,3.1771-2.1117,3.5396-2.6239"/>
    <path fill="none" stroke="#000000" stroke-linecap="round" stroke-linejoin="round" stroke-miterlimit="10" stroke-width="2" d="M48.642,22.2501c-0.4872,0.2275-2.6277,1.1608-5.1639,0.3327c-2.0576-0.6718-3.1771-2.1117-3.5396-2.6239"/>
    <path fill="none" stroke="#000000" stroke-miterlimit="10" stroke-width="2" d="M31.7799,31.4626 c0,2.4645-2.0004,4.4626-4.4626,4.4626s-4.4626-1.9981-4.4626-4.4626c0-2.4622,2.0004-4.4626,4.4626-4.4626 S31.7799,29.0004,31.7799,31.4626"/>
    <path fill="none" stroke="#000000" stroke-miterlimit="10" stroke-width="2" d="M49.7799,31.4626 c0,2.4645-2.0003,4.4626-4.4626,4.4626c-2.4622,0-4.4626-1.9981-4.4626-4.4626c0-2.4622,2.0004-4.4626,4.4626-4.4626 S49.7799,29.0004,49.7799,31.4626"/>
    <circle cx="36" cy="36" r="23" fill="none" stroke="#000000" stroke-miterlimit="10" stroke-width="2"/>
  </g>
</svg>
