<svg id="emoji" viewBox="0 0 72 72" xmlns="http://www.w3.org/2000/svg">
  <g id="color">
    <path transform="translate(0 0)" fill="#fcea2b" d="M36,12.9583a23,23,0,1,0,23,23h0A23.026,23.026,0,0,0,36,12.9583Z"/>
  </g>
  <g id="line">
    <circle cx="36" cy="35.9583" r="23" fill="none" stroke="#000" stroke-miterlimit="10" stroke-width="2"/>
    <path transform="translate(0 0)" stroke="#000" stroke-miterlimit="10" stroke-width="2.5104" d="M35.7778,43.6811a4.1686,4.1686,0,1,0,.0005,0Z"/>
    <g>
      <g>
        <path transform="translate(0 0)" fill="none" stroke="#000" stroke-linecap="round" stroke-miterlimit="10" stroke-width="2" d="M41.27,30.9367a5.4893,5.4893,0,1,1,10.9786,0"/>
        <path transform="translate(0 0)" fill="none" stroke="#000" stroke-linecap="round" stroke-miterlimit="10" stroke-width="2" d="M44.93,30.9367a1.83,1.83,0,0,1,3.66,0"/>
      </g>
      <path transform="translate(0 0)" fill="none" stroke="#000" stroke-linecap="round" stroke-miterlimit="10" stroke-width="2" d="M41.27,30.9367a7.3149,7.3149,0,0,0,7.3107,7.3191h.0084"/>
      <path transform="translate(0 0)" fill="none" stroke="#000" stroke-linecap="round" stroke-miterlimit="10" stroke-width="2" d="M44.93,30.9367a3.66,3.66,0,0,0,7.319.121q.001-.06,0-.121"/>
    </g>
    <g>
      <g>
        <path transform="translate(0 0)" fill="none" stroke="#000" stroke-linecap="round" stroke-miterlimit="10" stroke-width="2" d="M19.3155,30.9367a5.4893,5.4893,0,0,1,10.9786,0"/>
        <path transform="translate(0 0)" fill="none" stroke="#000" stroke-linecap="round" stroke-miterlimit="10" stroke-width="2" d="M22.975,30.9367a1.83,1.83,0,0,1,3.66,0"/>
      </g>
      <path transform="translate(0 0)" fill="none" stroke="#000" stroke-linecap="round" stroke-miterlimit="10" stroke-width="2" d="M19.3155,30.9367a7.3149,7.3149,0,0,0,7.3107,7.3191h.0084"/>
      <path transform="translate(0 0)" fill="none" stroke="#000" stroke-linecap="round" stroke-miterlimit="10" stroke-width="2" d="M22.975,30.9367a3.66,3.66,0,1,0,7.3191.1148q.0009-.0573,0-.1148"/>
    </g>
  </g>
</svg>
