<svg id="emoji" viewBox="0 0 72 72" xmlns="http://www.w3.org/2000/svg">
  <g id="color">
    <path fill="#FCEA2B" d="m36.29 12c-13.08 0-24.29 10.74-24.29 23.94s10.33 24.06 24.29 24.06c13.08 0 23.71-10.86 23.71-24.06s-10.64-23.94-23.71-23.94z"/>
    <path fill="#fff" d="m33.25 30.85c0 3.452-2.802 6.25-6.25 6.25s-6.25-2.798-6.25-6.25c0-3.448 2.802-6.25 6.25-6.25s6.25 2.802 6.25 6.25"/>
    <path fill="#fff" d="m51.25 30.85c0 3.452-2.802 6.25-6.25 6.25-3.448 0-6.25-2.798-6.25-6.25 0-3.448 2.802-6.25 6.25-6.25 3.448 0 6.25 2.802 6.25 6.25"/>
    <path fill="#fff" d="m28 49.38c0.2704-0.3562 3.31-8.218 8.421-8.004 4.605 0.1927 7.229 7.541 7.579 8.004h-16z"/>
    <path fill="#FCEA2B" d="m50.07 65.35c0.9871-4.017 0.9306-3.191 1.224-5.957-0.4629-1.34-1.021-3.423-0.9941-5.946 0.0213-1.978 0.3855-2.668 1.329-6.899 1.241-5.568 1.178-6.914 1.885-6.957 1.269-0.07666 3.36 4.147 4.201 7.807 0.8934 3.886-0.2077 9.322-0.2077 9.322l0.5405 5.589"/>
    <path fill="#FCEA2B" d="m22.37 65.47c-0.9871-4.017-0.9306-3.191-1.224-5.957 0.4629-1.34 1.021-3.423 0.9941-5.946-0.0213-1.978-0.3855-2.668-1.329-6.899-1.241-5.568-1.178-6.914-1.885-6.957-1.269-0.07666-3.36 4.147-4.201 7.807-0.8934 3.886 0.2077 9.322 0.2077 9.322l-0.5405 5.589"/>
  </g>
  <g id="hair"/>
  <g id="skin"/>
  <g id="skin-shadow"/>
  <g id="line">
    <path fill="none" stroke="#000" stroke-linecap="round" stroke-linejoin="round" stroke-miterlimit="10" stroke-width="2" d="m21 24c1-1 4.998-5.603 11-1.002"/>
    <path fill="none" stroke="#000" stroke-miterlimit="10" stroke-width="2" d="m33.25 31.46c0 3.452-2.802 6.25-6.25 6.25s-6.25-2.798-6.25-6.25c0-3.448 2.802-6.25 6.25-6.25s6.25 2.802 6.25 6.25"/>
    <path d="m29 31.46c0 1.104-0.8965 2-2 2s-2-0.8955-2-2c0-1.104 0.8965-2 2-2s2 0.8965 2 2"/>
    <path fill="none" stroke="#000" stroke-miterlimit="10" stroke-width="2" d="m51.25 31.46c0 3.452-2.802 6.25-6.25 6.25-3.448 0-6.25-2.798-6.25-6.25 0-3.448 2.802-6.25 6.25-6.25 3.448 0 6.25 2.802 6.25 6.25"/>
    <path d="m47 31.46c0 1.104-0.8965 2-2 2s-2-0.8955-2-2c0-1.104 0.8965-2 2-2s2 0.8965 2 2"/>
    <path fill="none" stroke="#000" stroke-linecap="round" stroke-linejoin="round" stroke-miterlimit="10" stroke-width="2" d="m28 50c0.2704-0.3562 1-8 8.421-8.004 6.579-0.0033 7.229 7.541 7.579 8.004h-16z"/>
    <path fill="none" stroke="#000" stroke-linecap="round" stroke-linejoin="round" stroke-miterlimit="10" stroke-width="2" d="m47.33 56.02c-3.344 1.896-7.21 2.979-11.33 2.979-3.994 0-7.749-1.018-11.02-2.808"/>
    <path fill="none" stroke="#000" stroke-linecap="round" stroke-linejoin="round" stroke-miterlimit="10" stroke-width="2" d="m13.21 39.07c-0.1076-1.378-0.245-1.638-0.2117-3.073 0.2947-12.7 10.3-23 23-23s23 10.3 23 23c0 1.073-0.0735 2.129-0.2156 3.163"/>
    <path fill="none" stroke="#000" stroke-linecap="round" stroke-linejoin="round" stroke-miterlimit="10" stroke-width="2" d="m49.81 64.32c1.208-3.956 0.9131-2.154 1.359-4.899-0.3878-1.364-0.8299-3.474-0.6628-5.992 0.131-1.973 2.418-3.208 2.841-7.757 0.4175-4.077 0.4286-5.896 1.137-5.899 1.271-0.0062 3.125 4.327 3.762 8.028 0.6764 3.93-1.667 9.391-1.667 9.391l1.365 4.535"/>
    <path fill="none" stroke="#000" stroke-linecap="round" stroke-linejoin="round" stroke-miterlimit="10" stroke-width="2" d="m22.57 64.32c-1.208-3.956-0.9131-2.154-1.359-4.899 0.3878-1.364 0.8299-3.474 0.6628-5.992-0.131-1.973-2.418-3.208-2.841-7.757-0.4175-4.077-0.4286-5.896-1.137-5.899-1.271-0.0062-3.125 4.327-3.762 8.028-0.6764 3.93 1.667 9.391 1.667 9.391l-1.365 4.535"/>
    <path fill="none" stroke="#000" stroke-linecap="round" stroke-linejoin="round" stroke-miterlimit="10" stroke-width="2" d="m51.48 24c-1-1-4.998-5.603-11-1.002"/>
  </g>
</svg>
