<svg id="emoji" viewBox="0 0 72 72" xmlns="http://www.w3.org/2000/svg">
  <g id="color">
    <path fill="#92d3f5" d="M17,60.9583v-4c0-4.9941,5.0078-9,10-9q9,7.5,18,0c4.9941,0,10,4.0059,10,9v4"/>
  </g>
  <g id="skin">
    <path fill="#fcea2b" d="M25.6173,29.5057v.957c0,7.6494,4.6093,13.6426,10.4941,13.6426s10.4942-5.9932,10.4942-13.6426c0-4.6533-1.7784-7.5151-5.2842-11.1343A64.1459,64.1459,0,0,1,32.3331,25.1C29.6866,26.6146,26.0782,28.67,25.6173,29.5057Z"/>
  </g>
  <g id="hair">
    <path fill="#f1b31c" d="M53.41,34.1466a23.7322,23.7322,0,0,1-1.1573-2.6328c-1.4726-3.27-2.0234-4.4927-2.3486-10.5239.0273-3.6929-3.794-6.7842-7.4746-7.0928a1.0016,1.0016,0,0,1-.6885-.3433c-.0928-.1-2.4082-2.6547-7.2432-2.6547-6.2,0-11.4413,3.3818-12.743,8.226a18.518,18.518,0,0,0-.5645,6.1758,13.3173,13.3173,0,0,1-.7607,5.9609A6.8034,6.8034,0,0,1,19.3108,33.35c-3.7725,4.42-.9747,14.3028-1.167,14.01a24.0468,24.0468,0,0,0,3.6331,2.7193,10.4646,10.4646,0,0,1,5.361-2.09c6.209,5.0127,12.4951,5.0127,18.7,0a8.343,8.343,0,0,1,4.2087,1.5136,22.7842,22.7842,0,0,0,2.972-2.33C54.2072,46.4572,56.1438,38.89,53.41,34.1466Zm-12.4457,8.835c-3.3783,2.5447-9.6082,1.083-9.6082,1.083s-8.6462-7.4083-5.7928-14.6c0,0,15.2693-9.2095,15.401-10.7889C40.9647,18.6761,54.8157,32.5484,40.9647,42.9816Z"/>
  </g>
  <g id="line">
    <path fill="none" stroke="#000" stroke-linecap="round" stroke-linejoin="round" stroke-width="2" d="M17,59.9583v-3c0-4.9941,5.0078-9,10-9q9,7.5,18,0c4.9941,0,10,4.0059,10,9v3"/>
    <path d="M41.873,29.9583a2,2,0,0,1-4,0c0-1.1045,2.0225-2,3.127-2a3.2627,3.2627,0,0,1,.873,2"/>
    <path d="M34,29.9583a2,2,0,0,1-4,0,3.1184,3.1184,0,0,1,1-2c1.1045,0,3,.8955,3,2"/>
    <path fill="none" stroke="#000" stroke-linecap="round" stroke-linejoin="round" stroke-width="2" d="M39,37.9583c-1-2-5-2-6,0"/>
    <path fill="none" stroke="#000" stroke-linecap="round" stroke-linejoin="round" stroke-width="2" d="M18.8634,46.6893c-3.7227-5.8565-.628-10.08,1.18-14.7246,1.6357-4.2-.209-6.4512,1.291-12.0342,1.48-5.5,7.2773-8.9658,13.709-8.9658,5.4,0,8,3,8,3a8.1321,8.1321,0,0,1,7.4052,8.0371c.3867,7.18,1.0244,7.1523,3.4287,12.8222a11.5986,11.5986,0,0,1-1.4463,11.6631"/>
    <path fill="none" stroke="#000" stroke-linejoin="round" stroke-width="2" d="M25.0431,30.9647c0,8,5,14,11,14s11-6,11-14c0-5-2-8-6-12-4,4-16,9-16,11Z"/>
  </g>
</svg>
