<svg id="emoji" viewBox="0 0 72 72" xmlns="http://www.w3.org/2000/svg">
  <g id="color">
    <path fill="#92d3f5" d="M17.0082,60.9583v-4c0-4.9941,5.0078-9,10-9q9,7.5,18,0c4.9941,0,10,4.0059,10,9v4"/>
  </g>
  <g id="skin">
    <path fill="#fcea2b" d="M25.6084,29.4743v.957c0,7.6494,4.6093,13.6426,10.4941,13.6426s10.4942-5.9932,10.4942-13.6426c0-4.6533-1.7784-7.5151-5.2842-11.1343a64.1459,64.1459,0,0,1-8.9883,5.772C29.6777,26.5832,26.0693,28.6383,25.6084,29.4743Z"/>
  </g>
  <g id="hair">
    <path fill="#f1b31c" d="M53.4551,34.1558a23.7225,23.7225,0,0,1-1.1573-2.6327c-1.4726-3.27-2.0234-4.4927-2.3486-10.5239.0273-3.6929-3.794-6.7842-7.4746-7.0928a1.0016,1.0016,0,0,1-.6885-.3433c-.0928-.1-2.4082-2.6548-7.2432-2.6548-6.2,0-11.4413,3.3819-12.743,8.2261a18.5174,18.5174,0,0,0-.5645,6.1757,13.3176,13.3176,0,0,1-.7607,5.961,6.8046,6.8046,0,0,1-1.1192,2.0879c-3.7725,4.42-.9747,14.3028-1.167,14.01a24.0535,24.0535,0,0,0,3.6331,2.7193,10.4656,10.4656,0,0,1,5.361-2.09c6.209,5.0127,12.4951,5.0127,18.7,0a8.3431,8.3431,0,0,1,4.2087,1.5137,22.7927,22.7927,0,0,0,2.972-2.33C54.2519,46.4665,56.1885,38.8991,53.4551,34.1558ZM41.0094,42.9909c-3.3782,2.5446-9.6082,1.083-9.6082,1.083s-8.6461-7.4083-5.7928-14.6c0,0,15.2693-9.2095,15.401-10.7889C41.0094,18.6854,54.86,32.5576,41.0094,42.9909Z"/>
  </g>
  <g id="line">
    <path fill="none" stroke="#000" stroke-linecap="round" stroke-linejoin="round" stroke-width="2" d="M17.0082,59.9583v-3c0-4.9941,5.0078-9,10-9q9,7.5,18,0c4.9941,0,10,4.0059,10,9v3"/>
    <path d="M42.0082,30.9583c0,1.1045-.8955,1-2,1s-2,.1045-2-1a3.1184,3.1184,0,0,1,1-2c1.1045,0,3,.8955,3,2"/>
    <path d="M34.0082,30.9583c0,1.1045-.8955,1-2,1s-2,.1045-2-1c0-1,2.0225-2,3.127-2a3.2627,3.2627,0,0,1,.873,2"/>
    <path fill="none" stroke="#000" stroke-linecap="round" stroke-linejoin="round" stroke-width="2" d="M38.0082,38.7083a3.0417,3.0417,0,0,0-4,0"/>
    <path fill="none" stroke="#000" stroke-linecap="round" stroke-linejoin="round" stroke-width="2" d="M18.8545,46.6579c-3.7227-5.8565-.628-10.08,1.18-14.7246,1.6357-4.2-.209-6.4512,1.291-12.0342,1.48-5.5,7.2773-8.9658,13.709-8.9658,5.4,0,8,3,8,3A8.1321,8.1321,0,0,1,50.4394,21.97c.3867,7.18,1.0244,7.1523,3.4287,12.8222a11.5986,11.5986,0,0,1-1.4463,11.6631"/>
    <path fill="none" stroke="#000" stroke-linejoin="round" stroke-width="2" d="M25.0342,30.9333c0,8,5,14,11,14s11-6,11-14c0-5-2-8-6-12-4,4-16,9-16,11Z"/>
  </g>
</svg>
