<svg id="emoji" viewBox="0 0 72 72" xmlns="http://www.w3.org/2000/svg">
  <g id="color">
    <path fill="#92d3f5" d="M56.4921,60.9261l4-17-10.9375-4.375-.1543-.624c-2.4082,3.0312-2.7539,1.3447-4.334,2.3974-6.6572,8.6026-13.8242,6.1338-19.0742.05-1.8174-1.3633-1.6562.584-2.5039-1.4482h-.9961l-10,3,4,18"/>
  </g>
  <g id="skin">
    <path fill="#fadcbc" d="M24.9286,32.9583c0,9,4.9365,14,11,14,5.9365,0,11.0635-5,11.0635-14a12.1371,12.1371,0,0,0-1-5.0005c-3-2.9995-7-8-7-8-4,3-7,6-13,7.0005C25.9921,26.9583,24.9286,27.9578,24.9286,32.9583Z"/>
    <path fill="#fadcbc" d="M22.9882,39.9583c-1.0918-4.1-1.6553-8.4766-1.9961-10.25-.6426-3.3394,5-12.75,5-12.75h2c3,0,5-2,11-2a.8313.8313,0,0,0,.9414-.5483L28.9491,11.5423a25.4338,25.4338,0,0,0-3.957.416,11.464,11.464,0,0,0-4,2s-7,11-7,15v13"/>
    <path fill="#fadcbc" d="M48.9,38.9593c.9219-3.7,1.6182-7.6348,2.0918-10.001.667-3.3345-5-12-5-12a3.4914,3.4914,0,0,0-2-1c-3,0-4-2-6-3a53.8435,53.8435,0,0,0-8-1,.9794.9794,0,0,1-1-1s.041-1.0835,1.041-1.0835c2.58,0,7.2276.0835,10.959.0835a32.8785,32.8785,0,0,1,8,2,11.0667,11.0667,0,0,1,2,2s7,11,7,15v13"/>
  </g>
  <g id="hair">
    <path fill="#a57939" d="M45.493,27.45c-1.9017,0-4.6484-7.4922-6.239-6.916-3.9214,1.4205-10.8788,5.6591-13.2619,6.617-1.6562.6658-.3539,13.4249-.3539,13.4249-2.7372,0-5.08-5.5828-3.8667-12.4769,1.5823-8.9916,2.0123-11.0515,13.3523-12.44,12.5681-1.5393,15.4053,5.3756,15.4079,12.4768.0025,7-.54,12.44-4.54,12.44C47.0506,40.0237,47.4091,27.45,45.493,27.45Z"/>
  </g>
  <g id="line">
    <path fill="none" stroke="#000" stroke-linecap="round" stroke-linejoin="round" stroke-width="2" d="M48.578,39.5384a2.9,2.9,0,0,1-2.5859,1.42"/>
    <path fill="none" stroke="#000" stroke-linecap="round" stroke-linejoin="round" stroke-width="2" d="M25.9921,40.9583A3.5531,3.5531,0,0,1,22.68,39.0208"/>
    <path d="M41.8651,31.9583a2,2,0,1,1-2-2,2,2,0,0,1,2,2"/>
    <path d="M33.8651,31.9583a2,2,0,1,1-2-2,2,2,0,0,1,2,2"/>
    <path fill="none" stroke="#000" stroke-linejoin="round" stroke-width="2" d="M24.9286,32.9583c0,9,4.9365,14,11,14,5.9365,0,11.0635-5,11.0635-14a12.1371,12.1371,0,0,0-1-5.0005c-3-2.9995-7-8-7-8-4,3-7,6-13,7.0005C25.9921,26.9583,24.9286,27.9578,24.9286,32.9583Z"/>
    <path fill="none" stroke="#000" stroke-linecap="round" stroke-linejoin="round" stroke-width="2" d="M38.9921,39.4583c-1,2-5,2-6,0"/>
    <path fill="none" stroke="#000" stroke-linecap="round" stroke-linejoin="round" stroke-width="2" d="M48.7743,39.4593c.9844-3.8408,1.7237-8.0274,2.2178-10.501.667-3.3345-5-12-5-12a3.4914,3.4914,0,0,0-2-1c-3,0-4-2-6-3a52.19,52.19,0,0,0-7.5547-.9932,1.3266,1.3266,0,0,1-1.4033-1.3242s-.042-1.4785,2.0791-1.4453a49.99,49.99,0,0,1,9.8789.7627c.98.1963,6.0244,1.0508,8,2a11.0667,11.0667,0,0,1,2,2s7,11,7,15V42.9261"/>
    <path fill="none" stroke="#000" stroke-linecap="round" stroke-linejoin="round" stroke-width="2" d="M39.9335,14.41a.8313.8313,0,0,1-.9414.5483c-6,0-8,2-11,2h-2s-5.6426,9.4106-5,12.75c.3125,1.625.8125,5.4375,1.7344,9.2188"/>
    <path fill="none" stroke="#000" stroke-linecap="round" stroke-linejoin="round" stroke-width="2" d="M13.9921,41.9583v-13c0-4,7-15,7-15a11.464,11.464,0,0,1,4-2,13.3688,13.3688,0,0,1,4.7363-.187"/>
    <polyline fill="none" stroke="#000" stroke-linecap="round" stroke-linejoin="round" stroke-width="2" points="22.492 39.926 11.992 42.958 15.992 59.958"/>
    <polyline fill="none" stroke="#000" stroke-linecap="round" stroke-linejoin="round" stroke-width="2" points="48.578 39.538 59.992 43.958 55.992 59.958"/>
  </g>
</svg>
