<svg id="emoji" viewBox="0 0 72 72" xmlns="http://www.w3.org/2000/svg">
  <g id="color">
    <path fill="#d0cfce" stroke="none" d="M61.0833,53.0625l3.4792-1H67L66.875,47.5h-0.6875c0,0,0.625-17.625-1.75-18.5 c-2.375-0.875-27.6875-0.5625-30.8125,0S27,28.625,15.75,39.9375L8,42.48c0,0-1.5,0.8325-1.5625,5.2075c0,0-0.875,0.25-0.75,1.5 c0.1164,1.1644-0.2544,4.2792,4.9688,4.5313"/>
    <circle cx="16.4803" cy="52.2917" r="3" fill="#d0cfce" stroke="none" stroke-linecap="round" stroke-linejoin="round" stroke-miterlimit="10" stroke-width="2"/>
    <circle cx="55" cy="52.2917" r="3" fill="#d0cfce" stroke="none" stroke-linecap="round" stroke-linejoin="round" stroke-miterlimit="10" stroke-width="2"/>
    <path fill="#fcea2b" stroke="none" d="M14.2402,44.5641c0,0,0.0855-1.0781-1.2895-1.2031s-3.898,1.2031-4.0386,1.5625 c-0.1406,0.3593-0.3489,1.4328,0.2813,1.625C9.8235,46.7406,14.2402,44.5641,14.2402,44.5641z"/>
    <path fill="#3f3f3f" stroke="none" d="M18.9688,41.625c0.375,0.02,10.2187-0.25,10.8437-1.75s0.625-7.4375,0.625-7.4375 s-5.2365,1.799-7.4062,3.9688C19.0313,40.4063,18.9688,41.625,18.9688,41.625z"/>
    <path fill="#3f3f3f" stroke="none" d="M34.0625,32.9375v7.5566c0,0.5523,0.4477,1,1,1l21.7707-0.8402c0.2292,0,0.4515-0.0788,0.6296-0.2231 l2.1667-1.7556C59.8639,38.4853,60,38.1998,60,37.8982l0.7059-4.9607c0-0.5523-0.4477-1-1-1H35.0625 C34.5102,31.9375,34.0625,32.3852,34.0625,32.9375z"/>
    <path fill="#ea5a47" stroke="none" d="M64.0923,48.0003h-2.4346V41.865h1.437c0.5509,0,0.9976,0.4466,0.9976,0.9976V48.0003z"/>
  </g>
  <g id="hair"/>
  <g id="skin"/>
  <g id="skin-shadow"/>
  <g id="line">
    <path fill="none" stroke="#000000" stroke-linecap="round" stroke-linejoin="round" stroke-miterlimit="10" stroke-width="2" d="M61,52.1363l3.5625-0.0738H67L66.875,47.5h-0.6875c0,0,0.625-17.625-1.75-18.5c-2.375-0.875-27.6875-0.5625-30.8125,0 S27,28.625,15.75,39.9375L8,42.48c0,0-1.5,0.8325-1.5625,5.2075c0,0-0.875,0.25-0.75,1.5 c0.1164,1.1644-0.4721,3.4134,4.7511,3.6655"/>
    <line x1="23.0625" x2="48.4378" y1="52.75" y2="52.3072" fill="none" stroke="#000000" stroke-linecap="round" stroke-linejoin="round" stroke-miterlimit="10" stroke-width="2"/>
    <circle cx="16.4803" cy="52.2917" r="3" fill="none" stroke="#000000" stroke-linecap="round" stroke-linejoin="round" stroke-miterlimit="10" stroke-width="2"/>
    <circle cx="55" cy="52.2917" r="3" fill="none" stroke="#000000" stroke-linecap="round" stroke-linejoin="round" stroke-miterlimit="10" stroke-width="2"/>
    <path fill="none" stroke="#000000" stroke-linecap="round" stroke-linejoin="round" stroke-miterlimit="10" stroke-width="2" d="M13.2904,44.4762c0,0-1.9647,1.6588-3.5765,1.9176"/>
    <path fill="none" stroke="#000000" stroke-linecap="round" stroke-linejoin="round" stroke-miterlimit="10" stroke-width="2" d="M19.875,41.48c0.375,0.02,9.3125-0.105,9.9375-1.605s0.625-6.5,0.625-6.5"/>
    <path fill="none" stroke="#000000" stroke-linecap="round" stroke-linejoin="round" stroke-miterlimit="10" stroke-width="2" d="M35.0625,40.6539h21.7707c0.2292,0,0.4515-0.0788,0.6296-0.2231l2.1667-1.7556C59.8639,38.4853,60,38.1998,60,37.8982v-4.9607"/>
    <polyline fill="none" stroke="#000000" stroke-linecap="round" stroke-linejoin="round" stroke-miterlimit="10" stroke-width="2" points="61.6577,42.849 61.6577,47.5988 63.1161,48.0481"/>
  </g>
</svg>
