<svg id="emoji" viewBox="0 0 72 72" xmlns="http://www.w3.org/2000/svg">
  <g id="color">
    <path fill="#92d3f5" stroke="none" d="M63.4786,49.9898h0.6453c0.5523,0,1-0.4477,1-1v-2c0-0.0954-0.0706-0.1761-0.1652-0.1887l-1.7098-0.228 c0-1.717,0.4975-13.863-0.9281-19.3795c-0.1094-0.4233-0.4944-0.7148-0.9313-0.731l-26.8087,0.0071 c-0.3597-0.0133-0.6988,0.1677-0.8879,0.4739l-4.4024,9.1295L12.5558,37.69c-0.3231,0.0313-0.611,0.2174-0.7721,0.4993 l-3.0765,6.3838H7.5405c-0.5522,0-1,0.4478-1,1v1.5834c0,0.5523,0.4478,1,1,1h1.0834h15.4375l2.8125,3.4375l27.25,0.1875v-1.8594 h9.0156"/>
    <path fill="#3f3f3f" stroke="none" d="M33.353,36.0106h12.6324c0,0,0.4678-6.8125,0-6.8125h-8.6856c-0.4107,0-0.785,0.2358-0.9633,0.6067 L33.353,36.0106z"/>
    <path fill="#3f3f3f" stroke="none" d="M7.2489,44.6343v4.4597h3.3125h14.125l1.8541,2.6105l29.3636,0.077l2.7521-0.8588h5.8956l0.7387-4.2871 l-3-0.1034l-1.8541-4.3601l-9.2656,0.9844l-2.5469,2.1666l-25.8755-0.1544l-1.362-2.7521 c-0.1764-0.3564-0.5233-0.5975-0.9189-0.6385l-6.8426-0.7652l-2.878,3.742L7.2489,44.6343z"/>
    <path fill="#9b9b9a" stroke="none" d="M16.3739,46.7398c-2.2,0-4,1.8-4,4s1.8,4,4,4s4-1.8,4-4S18.5739,46.7398,16.3739,46.7398z"/>
    <path fill="#9b9b9a" stroke="none" d="M54.4989,46.7398c-2.2,0-4,1.8-4,4s1.8,4,4,4c2.2,0,4-1.8,4-4S56.6989,46.7398,54.4989,46.7398z"/>
    <path fill="#3f3f3f" stroke="none" stroke-linecap="round" stroke-linejoin="round" stroke-miterlimit="10" stroke-width="2" d="M63.4786,31.969c0.0833,0,1.375,0.0833,1.375,0.0833s1.6666,0.9792,1.6041,5.8125c-0.0625,4.8334-1.6666,5.6875-1.6666,5.6875 h-0.7917"/>
  </g>
  <g id="hair"/>
  <g id="skin"/>
  <g id="skin-shadow"/>
  <g id="line">
    <path fill="none" stroke="#000000" stroke-linecap="round" stroke-linejoin="round" stroke-miterlimit="10" stroke-width="2" d="M63.1239,49.9898h1c0.5523,0,1-0.4477,1-1v-2c0-0.0954-0.0706-0.1761-0.1652-0.1887l-1.7098-0.228 c0-1.717,0.4975-13.863-0.9281-19.3795c-0.1094-0.4233-0.4944-0.7148-0.9313-0.731l-26.8087,0.0071 c-0.3597-0.0133-0.6988,0.1677-0.8879,0.4739l-4.4024,9.1295L12.5558,37.69c-0.3231,0.0313-0.611,0.2174-0.7721,0.4993 l-3.0765,6.3838H7.5405c-0.5522,0-1,0.4478-1,1v1.5834c0,0.5523,0.4478,1,1,1h1.0834"/>
    <path fill="none" stroke="#000000" stroke-linecap="round" stroke-linejoin="round" stroke-miterlimit="10" stroke-width="2" d="M23.6656,48.1565h0.7083l1.5755,2.1707c0.1881,0.2592,0.489,0.4126,0.8093,0.4126h19.653"/>
    <circle cx="16.3739" cy="50.7398" r="5" fill="none" stroke="#000000" stroke-linecap="round" stroke-linejoin="round" stroke-width="2"/>
    <circle cx="54.4989" cy="50.7398" r="5" fill="none" stroke="#000000" stroke-linecap="round" stroke-linejoin="round" stroke-width="2"/>
    <polyline fill="none" stroke="#000000" stroke-linecap="round" stroke-linejoin="round" stroke-miterlimit="10" stroke-width="2" points="34.1864,36.5107 45.9989,36.5107 45.9989,30.1565"/>
    <polyline fill="none" stroke="#000000" stroke-linecap="round" stroke-linejoin="round" stroke-miterlimit="10" stroke-width="2" points="47.5674,45.7398 50.7489,42.4689 59.4989,42.4689"/>
    <polyline fill="none" stroke="#000000" stroke-linecap="round" stroke-linejoin="round" stroke-miterlimit="10" stroke-width="2" points="14.3739,41.6565 21.5822,41.6565 23.4919,44.6343"/>
    <path fill="none" stroke="#000000" stroke-linecap="round" stroke-linejoin="round" stroke-miterlimit="10" stroke-width="2" d="M63.4786,31.969c0.0833,0,1.375,0.0833,1.375,0.0833s1.6666,0.9792,1.6041,5.8125c-0.0625,4.8334-1.6666,5.6875-1.6666,5.6875 h-0.7917"/>
  </g>
</svg>
