<svg id="emoji" viewBox="0 0 72 72" xmlns="http://www.w3.org/2000/svg">
  <g id="color">
    <path fill="#fcea2b" d="M44.3667,51.9478a20.262,20.262,0,0,1-.3614-3.4676c.012-1.2507.2252-2.51-.4312-3.6322a1.5011,1.5011,0,0,0-2.59,1.5142c.2483.4244.03,1.3969.024,1.8713-.0074.5543-.0152,1.11.0006,1.6644a22.6917,22.6917,0,0,0,.4655,2.8474c.2932,1.9022,3.1844,1.0943,2.8929-.7975Z"/>
    <path fill="#fcea2b" d="M37.2085,52.2928c-.0548-3.7094,1.2537-7.4607.7625-11.1859-.2487-1.8866-3.252-1.9114-3,0,.4912,3.7253-.8174,7.4672-.7625,11.1859a1.5009,1.5009,0,0,0,3,0Z"/>
    <path fill="#fcea2b" d="M34.3052,39.63l.5269-.6991a1.51,1.51,0,0,0-.5381-2.0523,1.5366,1.5366,0,0,0-2.0523.5381l-.5269.6991a1.51,1.51,0,0,0,.5381,2.0523,1.5366,1.5366,0,0,0,2.0523-.5381Z"/>
    <path fill="#d22f27" d="M16.637,22.9281l4.9646,2.7387c1.6917.9332,3.2069-1.6567,1.5142-2.59l-4.9646-2.7387c-1.6917-.9332-3.2069,1.6567-1.5142,2.5905Z"/>
    <path fill="#d22f27" d="M19.0924,24.96c5.14,2.4537,8.2856,7.9286,13.658,10.0759A1.51,1.51,0,0,0,34.6491,33.59c-.0055-2.051-2.2011-3.2172-3.665-4.3416-2.4348-1.87-4.9256-3.6622-7.4562-5.4-1.5955-1.0956-3.0975,1.5031-1.5142,2.59,1.79,1.2288,3.5608,2.4821,5.3043,3.7757.9235.6852,1.8481,1.371,2.745,2.0908.4166.3344,1.5865,1.4281,1.5861,1.2846l1.8988-1.4464c-5.0307-2.0108-8.0563-7.4414-12.9413-9.7735-1.7337-.8277-3.2575,1.7581-1.5142,2.59Z"/>
    <path fill="#d22f27" d="M32.0512,34.6165c4.3876,3.1007,8.1359,6.9727,12.41,10.2206a141.32,141.32,0,0,0,12.1175,8.1173,1.5187,1.5187,0,0,0,2.257-1.2952c.39-3.673-6.2994-6.7266-8.82-8.5241-2.7987-1.9959-5.8945-3.54-8.6817-5.5264-.4453-.3173-6.6425-4.9381-6.65-4.8467l-1.1012,1.4465c-.109.045,3.4752,2.83,3.479,2.8325a60.7906,60.7906,0,0,1,6.3258,4.58c1.4567,1.2531,3.588-.86,2.1213-2.1213-2.6949-2.3182-5.75-4.02-8.5023-6.2284-1.1545-.9265-2.5235-2.6572-4.2213-1.9558a1.5921,1.5921,0,0,0-1.1013,1.4464c-.078,1.0137.3841,1.3622,1.0034,2.0484,1.8288,2.0266,4.85,3.7945,7.132,5.3887,2.8119,1.9641,5.8763,3.5307,8.6817,5.5264,1.109.7889,7.4822,4.5393,7.3342,5.9337l2.2571-1.2952a122.34,122.34,0,0,1-13.8605-9.5009c-3.5878-2.9264-6.8775-6.159-10.667-8.837-1.58-1.1165-3.08,1.4837-1.5142,2.59Z"/>
    <path fill="#d22f27" d="M56.4357,52.1158c-4.4969,4.04-8.9963,7.3759-15.1162,8.1727-5.4388.7081-11.0151.7751-16.0214-1.7443l.5381,2.0523.5494-.8447a1.5137,1.5137,0,0,0-.8964-2.2035c-2.1353-.6087-4.0182-.9244-5.7975-2.4528-2.1682-1.8625-3.8446-4.9782-5.1251-7.5382a34.8239,34.8239,0,0,1-3.4457-17.7155,1.51,1.51,0,0,0-2.2571-1.2952c-4.8045,3.13-2.0674,12.4971-.65,16.7853A28.2112,28.2112,0,0,0,21.5708,61.7326C34.6472,68.8371,51.2,66.2984,59.5942,53.5882c1.067-1.6156-1.53-3.12-2.59-1.5142C50.1112,62.5107,37.249,64.9564,26.0023,60.4617A24.8308,24.8308,0,0,1,13.3064,49.6935a34.7509,34.7509,0,0,1-3.17-8.5245c-.52-2.1353-2.0815-8.5185.242-10.032L8.1209,29.8418A37.6924,37.6924,0,0,0,12.718,50.476a30.6241,30.6241,0,0,0,5.95,7.89,8.1853,8.1853,0,0,0,3.2235,2.0991c.8984.2221,1.9621-.2627,2.8-.0238l-.8965-2.2035-.5494.8448a1.5108,1.5108,0,0,0,.5382,2.0523c5.9364,2.9873,12.51,2.9879,18.9666,1.9627,6.3-1,11.1558-4.6818,15.8064-8.86,1.4392-1.2931-.688-3.4091-2.1213-2.1213Z"/>
    <path fill="#d22f27" d="M11.51,30.1274a11.3019,11.3019,0,0,1,2.4341-6.0049c.4948-.6139,1.5566-2.0173,2.3779-2.0978.794-.0778,2.0567,1.1628,2.7169,1.635,1.573,1.1251,3.0727-1.4757,1.5142-2.59-1.164-.8326-2.5594-2.2483-4.1054-2.2311-1.5357.0171-2.9837,1.3951-3.9854,2.4333A14.59,14.59,0,0,0,8.51,30.1274c-.1864,1.92,2.8149,1.9075,3,0Z"/>
    <path fill="#d22f27" d="M9.9183,30.4253c3.7111-9.8357,10.47-18.5581,21.3664-20.5682A31.7236,31.7236,0,0,1,46.8137,11.08c4.968,1.8065,9.2856,6.8346,12.4283,10.915,1.1617,1.5082,3.7689.0159,2.5905-1.5142-3.3969-4.41-7.631-9.3845-12.8189-11.7452C44.1889,6.54,37.3719,6.0482,32.19,6.71c-12.76,1.6293-20.8641,11.5193-25.1649,22.918-.6823,1.8083,2.2166,2.59,2.8928.7975Z"/>
    <path fill="#d22f27" d="M60.6107,21.2911c-1.4921-1.0857-2.1877-3.2342-3.4291-4.6148a26.0529,26.0529,0,0,0-5.2261-4.3372A27.3839,27.3839,0,0,0,40.46,8.64a33.5121,33.5121,0,0,0-14.1174,1.38,27.2567,27.2567,0,0,0-6.2867,2.8022c-2.0467,1.3244-3.3777,3.3765-5.3933,4.7351-1.5925,1.0734-.0927,3.6735,1.5142,2.59,3.8715-2.61,6.2406-5.7106,10.9633-7.2348A31.0452,31.0452,0,0,1,39.649,11.5437a23.4613,23.4613,0,0,1,13.0274,5.0952c2.588,2.1443,3.7641,5.31,6.42,7.2426,1.5631,1.1373,3.0618-1.4644,1.5141-2.59Z"/>
    <path fill="#d22f27" d="M58.7638,23.1191c.1257,2.7854,1.3612,5.2379,1.7386,7.9985a38.0272,38.0272,0,0,1,.219,8.7144c-.3262,3.6545-.638,6.3811-2.5814,9.5754-.7024,1.1545-1.3636,2.2309-1.1346,3.6251A1.46,1.46,0,0,0,58.053,54.08c1.46.3322,2.1442-.5981,2.8627-1.7483a22.5858,22.5858,0,0,0,3.5777-8.6482c.5614-3.9485,1.38-8.0509.8646-12.0365C64.84,27.6454,63.0864,23.94,61.3633,20.34c-.833-1.7408-3.4206-.2206-2.59,1.5141C62.1353,28.88,62.77,34.3835,61.71,42.0782A17.7361,17.7361,0,0,1,59.55,48.2328c-.1672.3256-1.4307,2.21-1.225,2.5849.4.7282,3.121-.9075,3.5789-1.415,2.3725-2.63,1.9824-8.8315,2.0792-12.0416a40.8546,40.8546,0,0,0-.6433-7.5885c-.3683-2.26-1.4722-4.3476-1.5762-6.6535-.0867-1.9227-3.0872-1.9333-3,0Z"/>
    <path fill="#fcea2b" d="M36.7939,28.2835c.084-.7935.0134-1.6658.1567-2.45.2171-1.1894.5062-1.2993,1.5342-1.5391,1.7884-.417,3.1285.4514,3.1946,2.0509.1221,2.95.5385,5.8756.6395,8.8261L44.88,34.1105a56.7319,56.7319,0,0,0-4.6664-4.0249c-1.3808-1.1566-1.5747-3.2539-1.2295-5.0384L37.936,26.0948c1.2635-.52,1.8945,1.392,2.064,2.2193a14.2783,14.2783,0,0,1,.0016,2.6725l2.5607-1.0606c-1.0208-1.2408-1.8631-2.42-1.7281-4.0969.1549-1.9245-2.846-1.9144-3,0-.2008,2.4952,1.0834,4.3665,2.6068,6.2182.8542,1.0383,2.5614.1544,2.5606-1.0607C43,28.6146,43.5025,25.35,41.31,23.714c-1.2027-.8976-4.1174-1.3268-5.0679.1773-.8179,1.2944-.4155,4.9943.1679,6.3661,1.05,2.4687,4.5143,4.0637,6.3483,5.9744a1.5156,1.5156,0,0,0,2.5607-1.0607c-.101-2.9514-.5615-5.8732-.6395-8.8261-.0609-2.3059-.8246-3.7269-3.1138-4.6456-1.6225-.651-4.3021-.7432-5.8126.2716-2.1266,1.4286-1.7261,4.11-1.9591,6.3125-.2029,1.9177,2.7986,1.9035,3,0Z"/>
    <path fill="#fcea2b" d="M38.875,17.8125a1.5009,1.5009,0,0,0,0-3,1.5009,1.5009,0,0,0,0,3Z"/>
  </g>
  <g id="line">
    <circle cx="36" cy="36" r="30" fill="none" stroke="#000" stroke-linecap="round" stroke-linejoin="round" stroke-width="2"/>
    <circle cx="26.75" cy="40.25" r="0.75" stroke="#000" stroke-linecap="round" stroke-linejoin="round" stroke-width="2"/>
    <circle cx="25.25" cy="45.5" r="0.75" stroke="#000" stroke-linecap="round" stroke-linejoin="round" stroke-width="2"/>
    <circle cx="27.5" cy="52.25" r="0.75" stroke="#000" stroke-linecap="round" stroke-linejoin="round" stroke-width="2"/>
    <circle cx="20.75" cy="51.5" r="0.75" stroke="#000" stroke-linecap="round" stroke-linejoin="round" stroke-width="2"/>
    <circle cx="20.75" cy="46.25" r="0.75" stroke="#000" stroke-linecap="round" stroke-linejoin="round" stroke-width="2"/>
    <path fill="none" stroke="#000" stroke-linecap="round" stroke-linejoin="round" stroke-width="2" d="M57.6551,48.4862a24.9938,24.9938,0,0,0-39.701-29.7776Z"/>
    <path fill="none" stroke="#000" stroke-linecap="round" stroke-linejoin="round" stroke-width="2" d="M14.87,22.6455a24.9948,24.9948,0,0,0,39.864,29.9Z"/>
    <path fill="none" stroke="#000" stroke-linecap="round" stroke-linejoin="round" stroke-width="2" d="M34.9222,38.4053l-.6574,13.8055s0,1.7892.5964,1.7892,1.1928,0,1.7892-1.1928c.4188-.8376,1.1312-7.8469,1.5186-11.95Z"/>
    <path fill="none" stroke="#000" stroke-linecap="round" stroke-linejoin="round" stroke-width="2" d="M40.5683,42.67c.3527,4.38.8533,10.1374.8533,10.1374a1.1928,1.1928,0,1,0,2.3856,0l-.3707-7.9712Z"/>
    <line x1="32.1076" x2="31" y1="35.5745" y2="39" fill="none" stroke="#000" stroke-linecap="round" stroke-linejoin="round" stroke-width="2"/>
    <circle cx="39.036" cy="16.5412" r="1.7892" fill="none" stroke="#000" stroke-linecap="round" stroke-linejoin="round" stroke-width="2"/>
    <path fill="none" stroke="#000" stroke-linecap="round" stroke-linejoin="round" stroke-width="2" d="M43.5875,37.09H45s0-8.9461-.5964-12.5245-2.982-3.5784-2.982-3.5784H36.65a2.9205,2.9205,0,0,0-2.982,2.982s-.41,2.8724-.55,5.214Z"/>
    <line x1="42.6543" x2="41.53" y1="36.3851" y2="25.1077" fill="none" stroke="#000" stroke-linecap="round" stroke-linejoin="round" stroke-width="2"/>
    <line x1="36.1887" x2="36.4576" y1="30.7464" y2="25.1077" fill="none" stroke="#000" stroke-linecap="round" stroke-linejoin="round" stroke-width="2"/>
  </g>
</svg>
