<svg id="emoji" viewBox="0 0 72 72" xmlns="http://www.w3.org/2000/svg">
  <g id="color">
    <path id="_xD83D__xDEAB_" fill="#ea5a47" stroke="none" stroke-linecap="round" stroke-linejoin="round" stroke-miterlimit="10" stroke-width="2" d="M36,7C19.9844,7,7,19.9844,7,36s12.9844,29,29,29s29-12.9844,29-29S52.0156,7,36,7z M13,36c0-5.0752,1.6475-9.7637,4.4316-13.5684	l32.1368,32.1368C45.7637,57.3525,41.0752,59,36,59C23.2969,59,13,48.7031,13,36z M54.5684,49.5684L22.4316,17.4316	C26.2363,14.6475,30.9248,13,36,13c12.7031,0,23,10.2969,23,23C59,41.0752,57.3525,45.7637,54.5684,49.5684z"/>
  </g>
  <g id="hair"/>
  <g id="skin"/>
  <g id="skin-shadow"/>
  <g id="line">
    <path id="_xD83D__xDEAB_" fill="none" stroke="#000000" stroke-linecap="round" stroke-linejoin="round" stroke-miterlimit="10" stroke-width="2" d="M36,7C19.9844,7,7,19.9844,7,36s12.9844,29,29,29s29-12.9844,29-29S52.0156,7,36,7z M13,36c0-5.0752,1.6475-9.7637,4.4316-13.5684	l32.1368,32.1368C45.7637,57.3525,41.0752,59,36,59C23.2969,59,13,48.7031,13,36z M54.5684,49.5684L22.4316,17.4316	C26.2363,14.6475,30.9248,13,36,13c12.7031,0,23,10.2969,23,23C59,41.0752,57.3525,45.7637,54.5684,49.5684z"/>
  </g>
</svg>
