<svg id="emoji" viewBox="0 0 72 72" xmlns="http://www.w3.org/2000/svg">
  <g id="color"/>
  <g id="skin">
    <circle cx="32.7093" cy="11.4654" r="2.8598" fill="#a57939"/>
    <path fill="#a57939" d="M31.646,17.3028l3.7288.44.9535,10.3258L35.8332,38.22l1.5206,7.2242,5.0717,9.8626.4756,3.3637-3.7629-1.6139-5.2111-9.8614-.6125-1.7481-.97-.9888-2.1166,5.6965-1.3013,6.8964-1.75,2.98-1.7153-1.7593.8182-10.4759,1.0271-9.4219.6889-5.0269s1.0714-7.0792,1.4348-10.5142A39.7849,39.7849,0,0,1,31.646,17.3028Z"/>
  </g>
  <g id="line">
    <circle cx="32.7093" cy="11.4654" r="2.8598" fill="none" stroke="#000" stroke-miterlimit="10" stroke-width="2"/>
    <path fill="none" stroke="#000" stroke-linecap="round" stroke-linejoin="round" stroke-width="2" d="M32.6482,20.2285l.0267,8.1285-2.3632,10.58"/>
    <path fill="none" stroke="#000" stroke-linecap="round" stroke-linejoin="round" stroke-width="2" d="M36.1173,35.85c-.8574,2.1325-2.3523,3.6166-2.8887,4.555-.62,1.0845-2.4061,6.3975-2.4061,6.3975s-1.78,10.193-2.0726,10.9587c-.2892.7559-.8681,2.2611-2.0574,2.0391-.9026-.168-1.1648-1.1763-1.2268-2.1276-.0628-.9465.7106-11.0465.7106-11.0465L27.952,33.6687s1.3617-10.05,1.9048-12.5617a6.3232,6.3232,0,0,1,1.257-3.0754,2.5078,2.5078,0,0,1,1.8493-.7761,2.6017,2.6017,0,0,1,1.8077.8209,7.2952,7.2952,0,0,1,1.0557,3.5174C36.1549,24.2818,36.5961,34.6605,36.1173,35.85Z"/>
    <path fill="none" stroke="#000" stroke-linecap="round" stroke-linejoin="round" stroke-width="2" d="M32.3451,42.5045A83.2007,83.2007,0,0,0,35.569,51.22a44.1791,44.1791,0,0,0,5.0657,6.8207c.5538.5758,1.592.9666,2.0724.6119a1.92,1.92,0,0,0,.3108-2.0752c-.7769-2.0057-3.775-6.6291-4.5576-8.2573-.8885-1.8455-2.8913-11.3229-2.8913-11.3229"/>
  </g>
</svg>
