<svg id="emoji" viewBox="0 0 72 72" version="1.1" xmlns="http://www.w3.org/2000/svg">
  <g id="color">
    <circle cx="36" cy="36" r="26" fill="#fff"/>
    <path fill="#ea5a47" stroke-miterlimit="10" d="m36 7c-16.02 0-29 12.98-29 29s12.98 29 29 29 29-12.98 29-29-12.98-29-29-29zm-25.21 29.27c0-5.075 3.417-12.69 6.202-16.49l35.2 35.27c-3.805 2.784-10.93 5.904-16.01 5.904-12.7 0-25.39-11.98-25.39-24.68zm44.87 15.18-35.06-35.13c3.805-2.784 10.77-5.441 15.84-5.441 12.7 0 24.68 12.25 24.68 24.95 0 5.075-2.686 11.81-5.47 15.62z"/>
    <path fill="#92d3f5" d="m21.49 46.64a7.587 7.587 0 0 1 2.571-0.3889 10.73 10.73 0 0 1 2.387 0.9613c1.516 0.5435 2.555-0.1053 4.039-0.3428 1.901-0.3044 1.094-3.196-0.7975-2.893-0.7938 0.1271-1.547 0.6219-2.36 0.3722-0.6923-0.2127-1.286-0.6967-2.001-0.8938a9.103 9.103 0 0 0-4.638 0.2921c-1.872 0.4693-1.079 3.363 0.7975 2.893z"/>
    <path fill="#d0cfce" d="m45.61 31.29c0.0145-0.9879 0.2071-2.161-0.7683-2.775-3.077 2.065-14.22-2.928-11.86-0.07128 4.152 3.275 6.358 10.11 12.63 6.967z"/>
    <path fill="#d0cfce" d="M51.3785,32.1655l1.5364-.85a5.2828,5.2828,0,0,1,1.3582-.728l-1.694-.6893q-.1713-1.0542-.2054-.1515-.055.4191-.1122.838c-.0545.4077-.111.8152-.1606,1.2236a26.5212,26.5212,0,0,0-.2085,2.8965l2.9464-.3988c-.53-1.3262-2.0882-3.3641-3.7255-3.1935-1.9011.1982-1.9214,3.2,0,3q-.479-.2652-.174-.031.2185.189.439.3757a1.88,1.88,0,0,1,.5677.6463,1.5078,1.5078,0,0,0,2.9464-.3987,29.5,29.5,0,0,1,.2893-3.5219c.1158-.8787.49-1.985-.0121-2.7989a1.5636,1.5636,0,0,0-1.694-.6893,5.8318,5.8318,0,0,0-1.6908.818l-1.92,1.0623c-1.69.9348-.1782,3.5266,1.5142,2.59Z"/>
    <path fill="#d0cfce" d="M41.2077,20.5386c-1.0992-.0034-2.251-.4694-3.3808-.5375-1.371-.0828-2.7451-.1305-4.1171-.1957-1.93-.0917-1.9252,2.9085,0,3,1.37.0651,2.7488.0946,4.1171.1957,1.1525.0851,2.2276.5339,3.3808.5375a1.5009,1.5009,0,0,0,0-3Z"/>
    <path fill="#d0cfce" d="m42.04 23.25c2.104-0.1026 4.191-0.3221 6.274-0.6309a1.512 1.512 0 0 0 1.048-1.845 1.537 1.537 0 0 0-1.845-1.048c-1.817 0.2693-3.643 0.4344-5.477 0.5238-1.922 0.0937-1.933 3.094 0 3z"/>
    <rect x="21.08" y="45.98" width="8.634" height="7.024" fill="#92d3f5" fill-rule="evenodd" stroke="#92d3f5" stroke-linecap="round" stroke-linejoin="round" paint-order="normal"/>
    <path fill="#d0cfce" d="m28 37c-0.7533-1.756 3.063-2.084 2.289-2.498 1.005 1.046-0.01809-2.755-1.884-1.806-0.7639-0.2756-4.488 2.551-4.405 4.304z"/>
  </g>
  <g id="line">
    <path fill="none" stroke="#000" stroke-miterlimit="10" stroke-width="2" d="m49.22 32.9v-3.664a3.753 3.753 0 0 0 3.264-1.973h3.264v8.901h-3.264a3.753 3.753 0 0 0-3.264-1.973v-3.664"/>
    <path fill="none" stroke="#000" stroke-miterlimit="10" stroke-width="2" d="m38.91 19.92s-3.15-0.6766-4.747-0.89c-2.374-0.2971-2.374 1.483-2.374 2.67s0.89 2.077 2.67 1.78c0.9689-0.2452 1.969-0.3452 2.967-0.2967 0.837-0.09713 1.681 0.1138 2.374 0.5934v1.484h1.78v-1.484c0.6928-0.4796 1.537-0.6905 2.374-0.5934 0.9983-0.04854 1.998 0.05145 2.967 0.2967 1.78 0.2967 2.67-0.5934 2.67-1.78s0-2.967-2.374-2.67c-1.597 0.2134-4.747 0.89-4.747 0.89z"/>
    <polyline fill="none" stroke="#000" stroke-linecap="round" stroke-linejoin="round" stroke-width="2" points="25.53 53 21.08 53 19 39.65 31.76 39.65 30.83 45.63 29.68 53 25.23 53"/>
    <circle cx="36" cy="36" r="30" fill="none" stroke="#000" stroke-linecap="round" stroke-linejoin="round" stroke-width="2"/>
    <path fill="none" stroke="#000" stroke-linecap="round" stroke-linejoin="round" stroke-width="2" d="m55.66 51.44a24.99 24.99 0 0 0-35.06-35.13z"/>
    <path fill="none" stroke="#000" stroke-linecap="round" stroke-linejoin="round" stroke-width="2" d="m16.99 19.77a24.99 24.99 0 0 0 35.2 35.27z"/>
    <path fill="none" stroke="#000" stroke-linecap="round" stroke-linejoin="round" stroke-width="2" d="m32.5 28h13.5v8l-5.136 0.165"/>
    <path fill="none" stroke="#000" stroke-linecap="round" stroke-linejoin="round" stroke-width="2" d="m28.87 31.86c-2.468 0.1054-5.076 2.69-4.869 5.139h4c-0.5578-0.2505 0.7514-2.916 3.264-2.666"/>
  </g>
</svg>
