<svg id="emoji" viewBox="0 0 72 72" xmlns="http://www.w3.org/2000/svg">
  <g id="color">
    <polygon fill="#d0cfce" points="40 26.095 56 16 68 29.46 68 69 4 69 4 29.46 18 21.048 28 27.778 40 26.095"/>
    <circle cx="19.1" cy="57" r="10.2" fill="#fff"/>
    <circle cx="51.1" cy="57" r="10.2" fill="#fff"/>
  </g>
  <g id="skin">
    <circle cx="33.4" cy="16.1" r="3" fill="#debb90"/>
    <polyline fill="#debb90" points="33.4 26.9 35.4 24 39.2 24.1 45.5 38.2 43.4 42 40.9 44.5 37.8 55.7 34.4 62.4 32 60.4 32.9 53.3 29.1 46.3 29.2 43 37.2 38 34.4 30.5"/>
  </g>
  <g id="line">
    <circle cx="33.4" cy="17.1" r="3" fill="none" stroke="#000" stroke-miterlimit="10" stroke-width="2"/>
    <path fill="none" stroke="#000" stroke-linecap="round" stroke-linejoin="round" stroke-width="2" d="M25.3,34.1l4.3-2.9a12.3989,12.3989,0,0,0,2.8-2.8l1.9-2.7a4.1348,4.1348,0,0,1,3.1-1.6A3.2054,3.2054,0,0,1,40.1,26l4.6,10.5a4.9741,4.9741,0,0,1-.1,3.6l-.1.2a6.1632,6.1632,0,0,1-2.8,2.5l-5.5,2.4a2.03,2.03,0,0,0-1.1,2.6l2.6,6.4A2.3967,2.3967,0,0,1,37,57a1.8149,1.8149,0,0,1-2.5-.8L30.1,48a9.0731,9.0731,0,0,1-.9-3.4,3.8459,3.8459,0,0,1,1.7-2.7L35.5,39a2.9209,2.9209,0,0,0,1.2-3l-1.5-6"/>
    <circle cx="19.1" cy="58" r="10.2" fill="none" stroke="#000" stroke-miterlimit="10" stroke-width="2"/>
    <circle cx="51.1" cy="58" r="10.2" fill="none" stroke="#000" stroke-miterlimit="10" stroke-width="2"/>
    <polyline fill="none" stroke="#000" stroke-linecap="round" stroke-linejoin="round" stroke-width="2" points="19.2 58 21.2 34 25 34"/>
    <path fill="none" stroke="#000" stroke-miterlimit="10" stroke-width="2" d="M37,57l-1,3.1A2.791,2.791,0,0,1,33.6,62,1.7018,1.7018,0,0,1,32,60l.9-6.7"/>
    <line x1="41.4" x2="37.8" y1="42.9" y2="54.4" fill="none" stroke="#000" stroke-miterlimit="10" stroke-width="2"/>
    <path fill="none" stroke="#000" stroke-linecap="round" stroke-miterlimit="10" stroke-width="2" d="M5,29.46l10.3624-7.2646a3.2617,3.2617,0,0,1,3.3291-.0809L25,26.0952"/>
    <path fill="none" stroke="#000" stroke-linecap="round" stroke-miterlimit="10" stroke-width="2" d="M44,23.5714l10.3085-6.5042a2.3261,2.3261,0,0,1,2.9571.4814L67,29.46"/>
  </g>
</svg>
