<svg id="emoji" viewBox="0 0 72 72" xmlns="http://www.w3.org/2000/svg">
  <g id="color">
    <circle cx="36" cy="36" r="26" fill="#FFFFFF" stroke="none"/>
    <path fill="#ea5a47" stroke="none" stroke-linecap="round" stroke-linejoin="round" stroke-miterlimit="10" stroke-width="2" d="M36,7C19.9844,7,7,19.9844,7,36s12.9844,29,29,29s29-12.9844,29-29S52.0156,7,36,7z M13,36c0-5.0752,1.6475-9.7637,4.4316-13.5684 l32.1368,32.1368C45.7637,57.3525,41.0752,59,36,59C23.2969,59,13,48.7031,13,36z M54.5684,49.5684L22.4316,17.4316 C26.2363,14.6475,30.9248,13,36,13c12.7031,0,23,10.2969,23,23C59,41.0752,57.3525,45.7637,54.5684,49.5684z"/>
  </g>
  <g id="hair"/>
  <g id="skin"/>
  <g id="skin-shadow"/>
  <g id="line">
    <polyline fill="none" stroke="#000000" stroke-linecap="round" stroke-linejoin="round" stroke-miterlimit="10" stroke-width="2" points="39.2513,29.7685 39.9359,27.3724 36.8552,27.3724"/>
    <path fill="none" stroke="#000000" stroke-linecap="round" stroke-linejoin="round" stroke-miterlimit="10" stroke-width="2" d="M30.9572,40.4399C30.9834,40.6727,31,40.9083,31,41.1481c0,3.4521-2.7979,6.25-6.25,6.25c-3.4521,0-6.25-2.7979-6.25-6.25 c0-3.4522,2.7979-6.25,6.25-6.25c0.2397,0,0.4754,0.0166,0.7081,0.0428"/>
    <path fill="none" stroke="#000000" stroke-linecap="round" stroke-linejoin="round" stroke-miterlimit="10" stroke-width="2" d="M44.8572,35.3745c0.2193-0.091,0.446-0.1663,0.677-0.2322l-2.2197-7.7699h-3.3786l-0.6846,2.3961"/>
    <path fill="none" stroke="#000000" stroke-linecap="round" stroke-linejoin="round" stroke-miterlimit="10" stroke-width="2" d="M36.8552,27.3724h3.0807L41,23.6481l-1.0641,3.7243h3.3786l2.2197,7.7699c0.5458-0.1557,1.12-0.2442,1.7158-0.2442 c3.4521,0,6.25,2.7978,6.25,6.25c0,0.8479-0.1705,1.6555-0.4764,2.3927 M38.5,23.6224h3.75H38.5z"/>
    <path fill="none" stroke="#000000" stroke-linecap="round" stroke-linejoin="round" stroke-miterlimit="10" stroke-width="2" d="M25.4581,34.9409c-0.2327-0.0262-0.4684-0.0428-0.7081-0.0428c-3.4521,0-6.25,2.7978-6.25,6.25c0,3.4521,2.7979,6.25,6.25,6.25 c3.4521,0,6.25-2.7979,6.25-6.25c0-0.2398-0.0166-0.4754-0.0428-0.7082"/>
    <polyline fill="none" stroke="#000000" stroke-linecap="round" stroke-linejoin="round" stroke-miterlimit="10" stroke-width="2" points="26.2867,35.7695 24.75,41.1481 26.2867,35.7695"/>
    <path fill="none" stroke="#000000" stroke-linecap="round" stroke-linejoin="round" stroke-miterlimit="10" stroke-width="2" d="M45.8978,36.415l-0.3636-1.2727c-0.231,0.0659-0.4577,0.1412-0.677,0.2322"/>
    <path fill="none" stroke="#000000" stroke-linecap="round" stroke-linejoin="round" stroke-miterlimit="10" stroke-width="2" d="M53.0236,43.5408C53.3295,42.8036,53.5,41.996,53.5,41.1481c0-3.4522-2.7979-6.25-6.25-6.25c-0.5958,0-1.17,0.0885-1.7158,0.2442 l0.3636,1.2727"/>
    <path fill="none" stroke="#000000" stroke-linecap="round" stroke-linejoin="round" stroke-miterlimit="10" stroke-width="2" d="M36,7C19.9844,7,7,19.9844,7,36s12.9844,29,29,29s29-12.9844,29-29S52.0156,7,36,7z M13,36c0-5.0752,1.6475-9.7637,4.4316-13.5684 l32.1368,32.1368C45.7637,57.3525,41.0752,59,36,59C23.2969,59,13,48.7031,13,36z M54.5684,49.5684L22.4316,17.4316 C26.2363,14.6475,30.9248,13,36,13c12.7031,0,23,10.2969,23,23C59,41.0752,57.3525,45.7637,54.5684,49.5684z"/>
  </g>
</svg>
