<svg id="emoji" viewBox="0 0 72 72" xmlns="http://www.w3.org/2000/svg">
  <g id="color">
    <circle cx="36" cy="36" r="26" fill="#fff"/>
    <path fill="#ea5a47" stroke-miterlimit="10" d="m36 7c-16.02 0-29 12.98-29 29s12.98 29 29 29 29-12.98 29-29-12.98-29-29-29zm-25.21 29.27c0-5.075 3.417-12.69 6.202-16.49l35.2 35.27c-3.805 2.784-10.93 5.904-16.01 5.904-12.7 0-25.39-11.98-25.39-24.68zm44.87 15.18-35.06-35.13c3.805-2.784 10.77-5.441 15.84-5.441 12.7 0 24.68 12.25 24.68 24.95 0 5.075-2.686 11.81-5.47 15.62z"/>
    <path fill="#fcea2b" d="m31.8 35.54c-2.171-1.284-3.077 20.48-1.162 21.17 0.679-0.8023 4.747-11.51 5.142-17.39 0.1215-1.81-2.781-3.236-3.979-3.786z"/>
    <path fill="#fcea2b" d="m35.44 40.44c-1.516 5.381 3.34 10.17 5.591 14.29 0.8772 1.72 3.466 0.2041 2.59-1.514-1.45-3.377-4.84-8.312-5.591-11.27 0.9149-1.7-1.674-3.217-2.59-1.514z"/>
    <path fill="#fcea2b" d="m38.03 32.91c-0.6-2.008 0.05927-7.774-2.187-8.954-0.9715-0.4939-2.153-0.2807-2.891 0.5215-0.8766 0.9334-0.8728 2.608-0.9609 3.805 3.009 1.753 6.005 5.796 6.038 4.627z"/>
    <path fill="#fcea2b" d="m34.94 18.09a1.501 1.501 0 0 0 0-3 1.501 1.501 0 0 0 0 3z"/>
  </g>
  <g id="line">
    <circle cx="36" cy="36" r="30" fill="none" stroke="#000" stroke-linecap="round" stroke-linejoin="round" stroke-width="2"/>
    <path fill="none" stroke="#000" stroke-linecap="round" stroke-linejoin="round" stroke-width="2" d="m55.66 51.44a24.99 24.99 0 0 0-35.06-35.13z"/>
    <path fill="none" stroke="#000" stroke-linecap="round" stroke-linejoin="round" stroke-width="2" d="m16.99 19.77a24.99 24.99 0 0 0 35.2 35.27z"/>
    <path fill="none" stroke="#000" stroke-linecap="round" stroke-linejoin="round" stroke-width="2" d="m31.83 27.25c0.2562-1.939 0.6331-4.406 3.33-4.302 3.715 0.1434 2.841 6.3 2.841 10.8"/>
    <path fill="none" stroke="#000" stroke-linecap="round" stroke-linejoin="round" stroke-width="2" d="m35 26v4.419"/>
    <line x1="34" x2="33" y1="36.99" y2="41" fill="none" stroke="#000" stroke-linecap="round" stroke-linejoin="round" stroke-width="2"/>
    <path fill="none" stroke="#000" stroke-linecap="round" stroke-linejoin="round" stroke-width="2" d="m31.16 34.03-2.162 19.97s1 6 3 1l3-12s0.2726-2.401 1.28-3.623"/>
    <path fill="none" stroke="#000" stroke-linecap="round" stroke-linejoin="round" stroke-width="2" d="m38.44 41.27 0.5608 1.735s1.485 3.892 2 5l2.407 4.539s0.5933 5.461-2.407 2.461c-1.538-2.353-3.531-5.014-4.635-7.323-0.5857-1.26-1.365-3.053-1.365-3.677"/>
    <circle cx="35" cy="17" r="2" fill="none" stroke="#000" stroke-linecap="round" stroke-linejoin="round" stroke-width="2"/>
  </g>
</svg>
