<svg id="emoji" viewBox="0 0 72 72" xmlns="http://www.w3.org/2000/svg">
  <g id="color">
    <path fill="#61b2e4" stroke="none" stroke-linecap="round" stroke-linejoin="round" stroke-miterlimit="10" stroke-width="2" d="M60,61.0208H12c-0.5523,0-1-0.4477-1-1v-48c0-0.5523,0.4477-1,1-1h48c0.5523,0,1,0.4477,1,1v48 C61,60.5731,60.5523,61.0208,60,61.0208z"/>
    <path fill="#FFFFFF" stroke="none" d="M26.4479,45.3958l2.1368,10.3194l9.6236,0.0556l2.1146-10.1667c0,0-7-4.375-14.0833-0.2083"/>
    <path fill="#FFFFFF" stroke="none" stroke-linecap="round" stroke-linejoin="round" stroke-miterlimit="10" stroke-width="2" d="M58.5,24.6808v4.87c0,0.56-0.45,1-1,1H40.62c-2.84,0-3.51,2.46-3.66,3.83c-0.06,0.5-0.48,0.88-0.99,0.88h-5.02 c-0.55,0-0.99-0.43-1-0.9801c-0.0101-2.7999,0.82-10.5999,10.6301-10.5999H45.75v-4.45H41v-3.21h13.25v3.21H49.5v4.45h8 C58.05,23.6808,58.5,24.1308,58.5,24.6808z"/>
  </g>
  <g id="hair"/>
  <g id="skin"/>
  <g id="skin-shadow"/>
  <g id="line">
    <path fill="none" stroke="#000000" stroke-linecap="round" stroke-linejoin="round" stroke-miterlimit="10" stroke-width="2" d="M60,61.0208H12c-0.5523,0-1-0.4477-1-1v-48c0-0.5523,0.4477-1,1-1h48c0.5523,0,1,0.4477,1,1v48 C61,60.5731,60.5523,61.0208,60,61.0208z"/>
    <polyline fill="none" stroke="#000000" stroke-linecap="round" stroke-linejoin="round" stroke-miterlimit="10" stroke-width="2" points="24.3333,34.8184 28.2619,55.7708 38.7381,55.7708 42.6667,34.8184"/>
    <path fill="none" stroke="#000000" stroke-linecap="round" stroke-linejoin="round" stroke-miterlimit="10" stroke-width="2" d="M26.7336,45.0446c0,0,6.5477-2.619,13.0953,0"/>
    <path fill="none" stroke="#000000" stroke-linecap="round" stroke-linejoin="round" stroke-miterlimit="10" stroke-width="2" d="M58.5,24.6808v4.87c0,0.56-0.45,1-1,1H40.62c-2.84,0-3.51,2.46-3.66,3.83c-0.06,0.5-0.48,0.88-0.99,0.88h-5.02 c-0.55,0-0.99-0.43-1-0.9801c-0.0101-2.7999,0.82-10.5999,10.6301-10.5999H45.75v-4.45H41v-3.21h13.25v3.21H49.5v4.45h8 C58.05,23.6808,58.5,24.1308,58.5,24.6808z"/>
  </g>
</svg>
