<svg id="emoji" viewBox="0 0 72 72" xmlns="http://www.w3.org/2000/svg">
  <g id="color">
    <g>
      <path fill="#92d3f5" d="M16.274,61.8992s-1.8-13.9,10.2-13.9c3.2,2.1,5.9,3.6,9,3.6h-.1c3.1,0,6.3-1.6,9.5-3.7,11.6,0,9.6,13.9,9.8,14"/>
      <path fill="#61b2e4" d="M44.8437,47.2852a18.2739,18.2739,0,0,1-8.87,3.514c13.1.4,13.1,7.1,13.8,11.1h5.1S56.8437,47.2852,44.8437,47.2852Z"/>
      <g>
        <path fill="#92d3f5" d="M50.074,19.4992c1.2.3.4,2.5-.4,3.5l-2.2,2.7h-.1a8.6253,8.6253,0,0,0-1.9-2l-.6-.4a15.38,15.38,0,0,0,1.3-1.2h-21.1a9.8318,9.8318,0,0,0,1.5,1.2l-.8.5a8.2919,8.2919,0,0,0-1.8,1.8l-.1-.1-2-2.4c-.8-1-1.6-3.2-.4-3.5,5.7-1.5,6-7.9,14.3-7.9S44.374,17.9992,50.074,19.4992Zm-14.2.4c2.1,0,2.5-3.9,2.5-3.9a4.3093,4.3093,0,0,0-5-.1C33.274,15.8992,33.674,19.8992,35.874,19.8992Z"/>
      </g>
      <path fill="#fcea2b" d="M35.874,19.8992c-2.1,0-2.5-3.9-2.5-3.9a4.01,4.01,0,0,1,5,.1C38.374,15.9992,37.974,19.8992,35.874,19.8992Z"/>
      <path fill="#61b2e4" d="M42.674,13.7992s.9,8.2-2.6,8.2l5.3.3,1.7,3s3.7-1.9,3.6-5.2C50.774,20.0992,43.474,15.8992,42.674,13.7992Z"/>
      <path fill="#3f3f3f" d="M33.774,25.5992a16.1734,16.1734,0,0,1-7.2-2.4c-.6-.4-1-.8-1.5-1.2h21.1a4.8944,4.8944,0,0,1-1.3,1.2,11.5838,11.5838,0,0,1-3.7,1.8A18.3268,18.3268,0,0,1,33.774,25.5992Z"/>
    </g>
    <g>
      <path fill="#92d3f5" d="M44.474,48.0992l-3.7,8.8-2.6-2.7h0l-2.5-2.6h.1C38.674,51.4992,41.374,50.0992,44.474,48.0992Z"/>
      <path fill="#92d3f5" d="M35.574,51.5992l-2.6,2.7-2.6,2.6-3.6-8.9C29.874,50.0992,32.574,51.4992,35.574,51.5992Z"/>
    </g>
    <path fill="#fcea2b" d="M47.03,48.1689,41.5472,62H47.024l5.1686-11.6454s-2.7675-2.6976-5.1628-2.186"/>
    <g>
      <rect x="24.6806" y="47.7967" width="7.5072" height="13.7632" fill="#6a462f"/>
      <rect x="11.3345" y="47.7967" width="13.3461" height="13.7632" fill="#a57939"/>
    </g>
  </g>
  <g id="skin">
    <path fill="#fcea2b" d="M46.874,33.2992l.1-.1c-.7,7-5.5,12.5-11.3,12.5-5.9,0-10.6-5.5-11.3-12.6a12.5615,12.5615,0,0,1,9.3-7.4,18.3268,18.3268,0,0,0,7.4-.6h0C44.174,25.3992,46.874,33.2992,46.874,33.2992Zm-5.1-3.2a2,2,0,1,0-2,2A2.0059,2.0059,0,0,0,41.774,30.0992Zm-8,0a2,2,0,1,0-2,2A2.0059,2.0059,0,0,0,33.774,30.0992Z"/>
  </g>
  <g id="hair">
    <path fill="#f4aa41" d="M46.974,33.1992l-.1.1s-2.7-8-5.8-8.2h0a10.6431,10.6431,0,0,0,3.7-1.8l.7.5a8.6253,8.6253,0,0,1,1.9,2C48.574,27.4992,49.374,30.0992,46.974,33.1992Z"/>
    <path fill="#f4aa41" d="M24.474,32.9992a.774.774,0,0,0-.1.3c-2.6-3.3-1.6-6-.3-7.7a8.6414,8.6414,0,0,1,1.8-1.8l.8-.6a16.1734,16.1734,0,0,0,7.2,2.4A12.5729,12.5729,0,0,0,24.474,32.9992Z"/>
  </g>
  <g id="line">
    <line x1="46.9898" x2="41.774" y1="48.521" y2="60.9712" fill="none" stroke="#000" stroke-linecap="round" stroke-linejoin="round" stroke-width="2"/>
    <line x1="51.6112" x2="47.0616" y1="50.6805" y2="60.9973" fill="none" stroke="#000" stroke-linecap="round" stroke-linejoin="round" stroke-width="2"/>
    <g>
      <g>
        <path fill="none" stroke="#000" stroke-linecap="round" stroke-linejoin="round" stroke-width="2" d="M32.08,50.86a11.22,11.22,0,0,0,3.59.74h.1c3,0,5.6-1.4,8.7-3.5.1,0,.1-.1.2-.1,12,0,10,13,10,13"/>
        <polyline fill="none" stroke="#000" stroke-linecap="round" stroke-linejoin="round" stroke-width="2" points="32.053 55.349 33.074 54.199 35.574 51.599"/>
        <line x1="38.174" x2="35.574" y1="54.1992" y2="51.5992" fill="none" stroke="#000" stroke-linecap="round" stroke-linejoin="round" stroke-width="2"/>
        <polyline fill="none" stroke="#000" stroke-linecap="round" stroke-linejoin="round" stroke-width="2" points="44.474 47.999 44.474 48.099 40.774 56.899 38.174 54.199"/>
      </g>
    </g>
    <path d="M35.774,40.0992a6.9211,6.9211,0,0,1-3.4-.9.9618.9618,0,0,1,.9-1.7,5.1542,5.1542,0,0,0,5.1,0,.9618.9618,0,1,1,.9,1.7A7.5936,7.5936,0,0,1,35.774,40.0992Z"/>
    <path d="M41.774,30.0992a2,2,0,1,1-2-2,2.0059,2.0059,0,0,1,2,2Z"/>
    <path d="M33.774,30.0992a2,2,0,1,1-2-2,2.0059,2.0059,0,0,1,2,2Z"/>
    <path d="M35.774,46.6992c-6.4,0-11.7-5.9-12.3-13.8l2-.2c.5,6.7,5,11.9,10.3,11.9s9.7-5,10.3-11.7c0-.5.1-1,.1-1.5h2a9.702,9.702,0,0,1-.1,1.7C47.374,40.8992,42.074,46.6992,35.774,46.6992Z"/>
    <path d="M24.374,34.2992a.91.91,0,0,1-.8-.4,7.2313,7.2313,0,0,1-1.8-5.7,8.31,8.31,0,0,1,3.4-5.2l.7-.5a1,1,0,0,1,1.2,1.6l-.8.6a6.1633,6.1633,0,0,0-2.6,3.9,4.3671,4.3671,0,0,0,.5,2.7,13.1189,13.1189,0,0,1,9.5-6.6.9033.9033,0,0,1,1.1.9.9449.9449,0,0,1-.9,1.1,10.8536,10.8536,0,0,0-8.7,7,.8711.8711,0,0,1-.8.6Z"/>
    <path d="M36.074,26.7992c-4.7,0-9.2-1.5-11.7-4a.9128.9128,0,0,1-.2-1.1.961.961,0,0,1,.9-.6h21.1a.961.961,0,0,1,.9.6,1.073,1.073,0,0,1-.1,1.1c-2,2.4-5.7,3.9-10,4Zm-7.8-3.7a17.89,17.89,0,0,0,8.6,1.7,13.8357,13.8357,0,0,0,6.5-1.7Z"/>
    <path d="M47.474,26.7992a1.4213,1.4213,0,0,1-.6-.2.972.972,0,0,1-.1-1.4l2.2-2.7a4.0613,4.0613,0,0,0,.8-1.9c-2.6-.7-4.1-2.3-5.6-3.8-2-2-3.9-4-8.3-4-4.5,0-6.3,1.9-8.3,4-1.5,1.5-3,3.1-5.6,3.8a3.7014,3.7014,0,0,0,.8,1.9l2,2.4a.9925.9925,0,0,1-1.5,1.3l-2-2.4c-.7-.8-1.6-2.6-1.2-3.9a1.7644,1.7644,0,0,1,1.3-1.2,10.9076,10.9076,0,0,0,4.8-3.3c2.1-2.1,4.4-4.6,9.7-4.6s7.7,2.4,9.7,4.6c1.4,1.4,2.7,2.8,4.8,3.3a1.9517,1.9517,0,0,1,1.3,1.2c.4,1.3-.5,3.1-1.2,3.9l-2.2,2.7A1.9093,1.9093,0,0,1,47.474,26.7992Z"/>
    <path d="M46.974,34.2992h-.2a.9689.9689,0,0,1-.8-.7c-1-3-3.3-7.4-4.9-7.5a.9033.9033,0,0,1-.9-1.1.9547.9547,0,0,1,1.1-.9c2.7.2,4.8,4.3,5.9,7a4.418,4.418,0,0,0,.4-2.5,6.1633,6.1633,0,0,0-2.6-3.9l-.7-.6a.9925.9925,0,0,1,1.3-1.5l.7.5a7.9473,7.9473,0,0,1,3.3,5.2,7.2313,7.2313,0,0,1-1.8,5.7A1.1355,1.1355,0,0,1,46.974,34.2992Z"/>
    <path d="M35.874,20.8992c-2.9,0-3.5-4.3-3.5-4.8a1.0858,1.0858,0,0,1,.4-.9c2-1.5,5-1.2,6.3.1a1.1355,1.1355,0,0,1,.3.8c-.1.5-.6,4.8-3.5,4.8Zm0-2v0c.8,0,1.2-1.5,1.4-2.4a3.3974,3.3974,0,0,0-2.8,0c.2,1,.7,2.4,1.4,2.4Z"/>
    <path fill="#000000" d="M39.774,28.0992a2,2,0,1,1-2,2A2.0059,2.0059,0,0,1,39.774,28.0992Z"/>
    <path fill="#000000" d="M31.774,28.0992a2,2,0,1,1-2,2A2.0059,2.0059,0,0,1,31.774,28.0992Z"/>
    <g>
      <polyline fill="none" stroke="#000" stroke-linecap="round" stroke-linejoin="round" stroke-width="2" points="15.797 47.834 11.478 47.834 11.478 61.273 16.285 61.273"/>
      <rect x="14.9366" y="47.8342" width="13.7892" height="13.4393" fill="none" stroke="#000" stroke-linecap="round" stroke-linejoin="round" stroke-width="2"/>
      <polyline fill="none" stroke="#000" stroke-linecap="round" stroke-linejoin="round" stroke-width="2" points="24.681 47.819 32.104 47.841 31.985 61.28 29.625 61.258"/>
      <line x1="29.5423" x2="25.5147" y1="61.2733" y2="61.2733" fill="none" stroke="#000" stroke-linecap="round" stroke-linejoin="round" stroke-width="2"/>
      <g>
        <path fill="none" stroke="#000" stroke-linecap="round" stroke-linejoin="round" stroke-width="2" d="M18.4246,47.6005V45.908a1.7563,1.7563,0,0,1,1.9662-1.6926h2.6215"/>
        <path fill="none" stroke="#000" stroke-linecap="round" stroke-linejoin="round" stroke-width="2" d="M25.0977,47.6005V45.908a1.7563,1.7563,0,0,0-1.9662-1.6926H20.51"/>
      </g>
    </g>
  </g>
</svg>
