<svg id="emoji" viewBox="0 0 72 72" xmlns="http://www.w3.org/2000/svg">
  <g id="color">
    <circle cx="32.0165" cy="25.0364" r="3" fill="#FCEA2B" stroke="#FCEA2B" stroke-linecap="round" stroke-linejoin="round" stroke-miterlimit="10" stroke-width="1.8"/>
    <path fill="#FCEA2B" stroke="#FCEA2B" stroke-linecap="round" stroke-linejoin="round" stroke-miterlimit="10" stroke-width="1.8" d="M47.8642,53.5865l-1.98,3.87c0.63,0.07,1.46,0.39,1.46,1.57c0,1.91-1.8199,1.93-1.8199,1.93l-13.3099-0.02 c0,0-5.7201,0.61-5.7201-4.62c0-5.05,5.3099-5.14,5.7001-5.14c0.01,0,0.02,0,0.02,0c5.0699,0,7.2499,0,7.2499,0 c0.42-3.145-3.6633-9.4783-6.4476-11.9783c0.5199-2.37,1.5476-5.7017,4.5376-7.0717 C42.7842,29.7165,51.7642,46.5065,47.8642,53.5865z"/>
    <path fill="#FCEA2B" stroke="#FCEA2B" stroke-linecap="round" stroke-linejoin="round" stroke-miterlimit="10" stroke-width="2" d="M32.0165,51.1765"/>
    <path fill="#FCEA2B" stroke="#FCEA2B" stroke-linecap="round" stroke-linejoin="round" stroke-miterlimit="10" stroke-width="2" d="M38.4643,51.1765l-0.1101-0.2599l0.0801,0.0699C38.4543,51.1065,38.4643,51.1765,38.4643,51.1765z"/>
    <path fill="#FCEA2B" stroke="#FCEA2B" stroke-linecap="round" stroke-linejoin="round" stroke-miterlimit="10" stroke-width="2" d="M38.4643,51.1765l-0.1101-0.2599l0.0801,0.0699l0.02,0.02C38.4643,51.0665,38.4643,51.1165,38.4643,51.1765z"/>
    <path fill="none" stroke="#D22F27" stroke-linecap="round" stroke-linejoin="round" stroke-miterlimit="10" stroke-width="2" d="M32.0165,51.1765"/>
  </g>
  <g id="hair"/>
  <g id="skin"/>
  <g id="skin-shadow"/>
  <g id="line">
    <path fill="#000000" stroke="#000000" stroke-miterlimit="10" d="M45.2635,55.7928"/>
    <polyline fill="none" stroke="#000000" stroke-linecap="round" stroke-linejoin="round" stroke-miterlimit="10" stroke-width="2" points="11,25.0364 36,10.826 61,24.4655"/>
    <circle cx="32.0165" cy="25.0364" r="3" fill="none" stroke="#000000" stroke-linecap="round" stroke-linejoin="round" stroke-miterlimit="10" stroke-width="2"/>
    <path fill="none" stroke="#000000" stroke-linecap="round" stroke-linejoin="round" stroke-miterlimit="10" stroke-width="2" d="M36.5442,43.5765c2.15,2.33,2.92,7.6,2.92,7.6s-1.2058,0-6.4477,0"/>
    <path fill="none" stroke="#000000" stroke-linecap="round" stroke-linejoin="round" stroke-miterlimit="10" stroke-width="2" d="M24.6142,38.9865c0,0,2.67,4.92,6.02,4.92s0.33-8.75,6.92-11.78c5.2271-2.407,14.2088,14.3762,10.3124,21.4599"/>
    <path fill="none" stroke="#000000" stroke-linecap="round" stroke-linejoin="round" stroke-miterlimit="10" stroke-width="2" d="M32.2169,51.1733c0,0-5.7243-0.0924-5.7243,5.1393s5.7243,4.6239,5.7243,4.6239l13.3075,0.0216c0,0,1.8235-0.0216,1.8235-1.932 c0-1.9104-2.1709-1.563-2.1709-1.563h-8.0038l-5.2057-1.39"/>
  </g>
</svg>
