<svg id="emoji" viewBox="0 0 72 72" xmlns="http://www.w3.org/2000/svg">
  <g id="color">
    <path fill="#a57939" d="M56.9733,55.4282a3.3347,3.3347,0,0,1-1.8184,3.2656c-2.6045,1.3155-8.0371,2.9444-19.1191,3.2344q-1.1763.0308-2.2686.03c-10.459,0-15.2549-2.0127-17.2295-3.27a3.2832,3.2832,0,0,1-1.5117-3.0928v-16.89h41.96Z"/>
    <path fill="#6a462f" d="M37.4567,42.1968A80.2755,80.2755,0,0,1,9.0739,36.9487a1.0321,1.0321,0,0,1-.4756-1.4824C18.0211,19.8979,34.9264,10.45,35.6422,10.0552a1.0333,1.0333,0,0,1,.9942-.002c.7675.4209,18.9,10.4746,27.0263,25.4121a1.0324,1.0324,0,0,1,.0723.82,1,1,0,0,1-.5518.6123C54.4381,40.5719,45.7062,41.7118,37.4567,42.1968Z"/>
    <path fill="#6a462f" d="M33.8834,61.9663c-2.3349,0-3.792-.0937-3.9052-.1006a1,1,0,0,1-.9336-.998V45.2693a.9994.9994,0,0,1,1-1H42.193a1,1,0,0,1,1,1V60.5864a1.0005,1.0005,0,0,1-.9082.9961C38.9762,61.8862,36.0514,61.9663,33.8834,61.9663Zm8.31-1.38h0Z"/>
    <path fill="#fcea2b" d="M36.994,11.4445a1.16,1.16,0,0,0,.1363-.5375.9824.9824,0,0,0-.0346-.1774.96.96,0,0,0-.0628-.1987c-.0086-.0181-.0077-.038-.0176-.0558a.922.922,0,0,0-.09-.106.9368.9368,0,0,0-.0781-.1176c-.0146-.0146-.0342-.0193-.0493-.0328a.9607.9607,0,0,0-.17-.1132,1.1573,1.1573,0,0,0-.5393-.1369.9964.9964,0,0,0-.1779.0346.9629.9629,0,0,0-.1954.0612c-.0189.0088-.04.0079-.0581.0181-.7149.3946-17.6123,9.8389-27.0313,25.4a.999.999,0,0,0,.4571,1.4346,39.77,39.77,0,0,0,6.0537,2.0742,1.01,1.01,0,0,0,.1983.02l.0077.001h.002l.0058-.0011a.9928.9928,0,0,0,.2935-.0507.949.949,0,0,0,.0881-.0357.9873.9873,0,0,0,.1853-.1033.9538.9538,0,0,0,.08-.06.9858.9858,0,0,0,.1493-.1679c.017-.0234.0375-.043.0525-.0681l.0106-.0138A114.8886,114.8886,0,0,1,36.8473,11.6655c.0147-.0147.02-.0344.033-.05A.9558.9558,0,0,0,36.994,11.4445Z"/>
    <path fill="none" stroke="#000" stroke-linecap="round" stroke-linejoin="round" stroke-width="2" d="M53.7406,33.0874c1.0231,1.6166,2.0464,3.3131,3.0562,5.0865"/>
  </g>
  <g id="line">
    <path fill="none" stroke="#000" stroke-linecap="round" stroke-linejoin="round" stroke-width="2" d="M55.986,41.2306,55.9737,55.478a2.3154,2.3154,0,0,1-1.2693,2.3232c-2.1873,1.1044-7.3737,2.8312-18.6947,3.1268-11.7573.3069-16.8981-1.7856-18.9344-3.0824a2.3,2.3,0,0,1-1.049-2.1985V41.2306"/>
    <polyline fill="none" stroke="#000" stroke-linecap="round" stroke-linejoin="round" stroke-width="2" points="30.044 57.816 30.044 45.269 42.193 45.269 42.193 57.816"/>
    <path fill="none" stroke="#000" stroke-linecap="round" stroke-linejoin="round" stroke-width="2" d="M62.7565,35.9583c-8.074-14.8427-26.6157-25-26.6157-25S18.87,20.4892,9.4806,36"/>
    <path fill="none" stroke="#000" stroke-linecap="round" stroke-linejoin="round" stroke-width="2" d="M25.4036,33.1321a60.26,60.26,0,0,0-2.0221,6.7441"/>
    <path fill="none" stroke="#000" stroke-linecap="round" stroke-linejoin="round" stroke-width="2" d="M32.0452,41.0117s.2834-3.3826.97-8.0255"/>
    <path fill="none" stroke="#000" stroke-linecap="round" stroke-linejoin="round" stroke-width="2" d="M46.9182,33.1968A60.2813,60.2813,0,0,1,48.94,39.941"/>
    <path fill="none" stroke="#000" stroke-linecap="round" stroke-linejoin="round" stroke-width="2" d="M40.1924,41.0489s-.2835-3.3826-.97-8.0254"/>
    <path fill="none" stroke="#000" stroke-linecap="round" stroke-linejoin="round" stroke-width="2" d="M18.4,32.9267q-1.5348,2.4249-3.0562,5.0865"/>
    <path fill="none" stroke="#000" stroke-linecap="round" stroke-linejoin="round" stroke-width="2" d="M53.7406,33.0874c1.0231,1.6166,2.0464,3.3131,3.0562,5.0865"/>
  </g>
</svg>
