<svg id="emoji" viewBox="0 0 72 72" xmlns="http://www.w3.org/2000/svg">
  <g id="line-supplement">
    <path fill="none" stroke="#000" stroke-linecap="round" stroke-linejoin="round" stroke-width="2" d="M16.8742,15.0481C2.3563,28.1948,4.886,45.9647,15.4493,56.3005A30.3559,30.3559,0,0,0,44.75,63.6551C69.6439,53.2674,68.4718,28.893,56.2756,15.7239,47.1666,5.8883,31.8768,2.4252,16.8742,15.0481Z"/>
  </g>
  <g id="color">
    <path fill="none" stroke="#d0cfce" stroke-linecap="round" stroke-linejoin="round" stroke-width="2" d="M16.8742,15.0481C2.3563,28.1948,4.886,45.9647,15.4493,56.3005A30.3559,30.3559,0,0,0,44.75,63.6551C69.6439,53.2674,68.4718,28.893,56.2756,15.7239,47.1666,5.8883,31.8768,2.4252,16.8742,15.0481Z"/>
    <path fill="#ea5a47" d="M36,11A25,25,0,1,0,61,36,25,25,0,0,0,36,11Zm0,39.9874A14.9875,14.9875,0,1,1,50.9876,36,14.9875,14.9875,0,0,1,36,50.9874Z"/>
    <path fill="#fff" d="M20.8574,15.0481a24.3423,24.3423,0,0,0-5.8431,5.843L22.8409,28.71a13.5056,13.5056,0,0,1,5.5628-5.6964Z"/>
    <path fill="#fff" d="M57.0614,20.88a24.5793,24.5793,0,0,0-5.9-5.9l-7.89,7.8888a13.6355,13.6355,0,0,1,5.9048,5.8977Z"/>
    <path fill="#fff" d="M51.113,56.9855a24.3441,24.3441,0,0,0,5.8431-5.843L49.13,43.3237A13.5058,13.5058,0,0,1,43.5666,49.02Z"/>
    <path fill="#fff" d="M14.7922,51.3478a24.9933,24.9933,0,0,0,6,6l8.0237-8.0224a13.8661,13.8661,0,0,1-6.0047-5.9976Z"/>
    <path fill="#d22f27" d="M49.1986,43.3237l2.3154,2.3131a18.0762,18.0762,0,0,0-.0779-19.0617l-2.1909,2.1913A13.6339,13.6339,0,0,0,43.34,22.8687l2.1814-2.181a18.0808,18.0808,0,0,0-19.18.0765l2.1308,2.2493A13.5059,13.5059,0,0,0,22.91,28.71l-2.2734-2.2711a18.0873,18.0873,0,0,0-.1248,19.2572L22.88,43.3274a13.8663,13.8663,0,0,0,6.0048,5.9976l-2.3615,2.3611a18.1038,18.1038,0,0,0,19.3843-.268L43.6358,49.02A13.5062,13.5062,0,0,0,49.1986,43.3237ZM21.1036,36A14.9876,14.9876,0,1,1,36.0911,50.9874,14.9876,14.9876,0,0,1,21.1036,36Z"/>
    <path fill="#d0cfce" d="M28.551,22.8413,26.42,20.592a18.2635,18.2635,0,0,0-5.7053,5.6746l2.2734,2.2711A13.5062,13.5062,0,0,1,28.551,22.8413Z"/>
    <path fill="#d0cfce" d="M49.3234,28.5942l2.191-2.1913A18.2586,18.2586,0,0,0,45.6,20.5155l-2.1814,2.181A13.6342,13.6342,0,0,1,49.3234,28.5942Z"/>
    <path fill="#d0cfce" d="M51.5922,45.4646l-2.3154-2.3131a13.5059,13.5059,0,0,1-5.5627,5.6964l2.2717,2.398A18.2661,18.2661,0,0,0,51.5922,45.4646Z"/>
    <path fill="#d0cfce" d="M22.9582,43.1552,20.59,45.5239a18.26,18.26,0,0,0,6.0115,5.99l2.3616-2.3611A13.8666,13.8666,0,0,1,22.9582,43.1552Z"/>
  </g>
  <g id="line">
    <path fill="none" stroke="#000" stroke-linecap="round" stroke-linejoin="round" stroke-width="2" d="M15.3611,50.1122a25.0141,25.0141,0,0,1-.0915-28.09"/>
    <path fill="none" stroke="#000" stroke-linecap="round" stroke-linejoin="round" stroke-width="2" d="M50.0832,56.6588a25.0144,25.0144,0,0,1-28.0609.0716"/>
    <path fill="none" stroke="#000" stroke-linecap="round" stroke-linejoin="round" stroke-width="2" d="M56.6288,21.8731A25.014,25.014,0,0,1,56.73,49.9777"/>
    <path fill="none" stroke="#000" stroke-linecap="round" stroke-linejoin="round" stroke-width="2" d="M21.8739,15.3706a25.0141,25.0141,0,0,1,28.1038-.101"/>
    <path fill="none" stroke="#000" stroke-linecap="round" stroke-linejoin="round" stroke-width="2" d="M20.8574,15.0481a24.3423,24.3423,0,0,0-5.8431,5.843L22.8409,28.71a13.5056,13.5056,0,0,1,5.5628-5.6964Z"/>
    <path stroke="#000" stroke-linecap="round" stroke-linejoin="round" stroke-width="2" d="M18.3305,16.4054,16.338,14.3022a7.712,7.712,0,0,0-1.851,1.8509l2.05,2.0478"/>
    <path stroke="#000" stroke-linecap="round" stroke-linejoin="round" stroke-width="2" d="M55.7109,18.1848l2.1032-1.9925a7.712,7.712,0,0,0-1.8509-1.851l-2.0479,2.05"/>
    <path stroke="#000" stroke-linecap="round" stroke-linejoin="round" stroke-width="2" d="M53.9706,55.6468,55.9631,57.75a7.71,7.71,0,0,0,1.851-1.8509l-2.05-2.0479"/>
    <path stroke="#000" stroke-linecap="round" stroke-linejoin="round" stroke-width="2" d="M16.1538,54.0667l-2.1032,1.9926a7.71,7.71,0,0,0,1.851,1.8509l2.0478-2.05"/>
    <path fill="none" stroke="#000" stroke-linecap="round" stroke-linejoin="round" stroke-width="2" d="M57.0614,20.88a24.5793,24.5793,0,0,0-5.9-5.9l-7.89,7.8888a13.6355,13.6355,0,0,1,5.9048,5.8977Z"/>
    <path fill="none" stroke="#000" stroke-linecap="round" stroke-linejoin="round" stroke-width="2" d="M51.113,56.9855a24.3441,24.3441,0,0,0,5.8431-5.843L49.13,43.3237A13.5058,13.5058,0,0,1,43.5666,49.02Z"/>
    <path fill="none" stroke="#000" stroke-linecap="round" stroke-linejoin="round" stroke-width="2" d="M14.7922,51.3478a24.9933,24.9933,0,0,0,6,6l8.0237-8.0224a13.8661,13.8661,0,0,1-6.0047-5.9976Z"/>
    <circle cx="36.0001" cy="36.1701" r="14.9875" fill="none" stroke="#000" stroke-linecap="round" stroke-linejoin="round" stroke-width="2"/>
  </g>
</svg>
