<svg id="emoji" viewBox="0 0 72 72" xmlns="http://www.w3.org/2000/svg">
  <g id="color">
    <path fill="#d0cfce" d="M48.8668,30.3783s-24,23-27,20,20-27,20-27,4-5,8-1S48.8668,30.3783,48.8668,30.3783Z"/>
    <path fill="#e27022" d="M31.8468,55.2083l-2.17,3.25a.7511.7511,0,0,1-1.17.09l-7.45-8.12-8.25-7.56a.7511.7511,0,0,1,.09-1.17l3.25-2.17a.7529.7529,0,0,1,.86.03l8.52,6.41,6.29,8.38A.7529.7529,0,0,1,31.8468,55.2083Z"/>
    <path fill="#e27022" d="M58.9868,51.5083l-5.56,3.01a1.6207,1.6207,0,0,1-1.71-.38l-18.06-14.89-.62-.5-.5-.62-14.89-18.06a1.6207,1.6207,0,0,1-.38-1.71l3.01-5.56c.38-.69,1.49-.56,2.28.27l17.55,18.61,18.61,17.55C59.5468,50.0183,59.6768,51.1283,58.9868,51.5083Z"/>
    <path fill="#92d3f5" d="M42.9113,33.32a.9972.9972,0,0,1-.71-.2959L39.21,30.0054a1,1,0,0,1-.0274-1.38L40.5546,27.21a1.8847,1.8847,0,0,1,1.3584-.6074,1.9759,1.9759,0,0,1,1.3867.5625L45.0742,28.94a1.92,1.92,0,0,1,.5605,1.39,1.886,1.886,0,0,1-.61,1.3594l-1.4383,1.3691A.9985.9985,0,0,1,42.9113,33.32Z"/>
  </g>
  <g id="line">
    <line x1="49.2668" x2="47.7368" y1="32.9781" y2="31.4481" fill="none" stroke="#000" stroke-linecap="round" stroke-linejoin="round" stroke-width="2"/>
    <line x1="40.7968" x2="39.2668" y1="24.5081" y2="22.9781" fill="none" stroke="#000" stroke-linecap="round" stroke-linejoin="round" stroke-width="2"/>
    <line x1="39.8592" x2="36.8592" y1="20.5791" y2="23.5791" fill="none" stroke="#000" stroke-linecap="round" stroke-linejoin="round" stroke-width="2"/>
    <line x1="51.5606" x2="48.5606" y1="32.2805" y2="35.2805" fill="none" stroke="#000" stroke-linecap="round" stroke-linejoin="round" stroke-width="2"/>
    <path fill="none" stroke="#000" stroke-linecap="round" stroke-linejoin="round" stroke-width="2" d="M33.6568,39.2481l2.78,2.29a97.7831,97.7831,0,0,1-9.02,6.94l-1.89-2.51-1.68-1.26a97.3881,97.3881,0,0,1,6.82-8.85l1.87,2.27.5.62Z"/>
    <path fill="none" stroke="#000" stroke-linecap="round" stroke-linejoin="round" stroke-width="2" d="M48.8668,30.3781s-.41.39-1.13,1.07c-.9.85-2.3,2.15-3.98,3.67l-3.65-3.44-3-3.18c1.54-1.69,2.84-3.08,3.69-3.99.68-.72,1.07-1.13,1.07-1.13s4-5,8-1S48.8668,30.3781,48.8668,30.3781Z"/>
    <path fill="none" stroke="#000" stroke-linecap="round" stroke-linejoin="round" stroke-width="2" d="M40.631,28.6008c.2363-.2574.456-.4951.6548-.7091a.9049.9049,0,0,1,1.3059-.02l1.7757,1.7757a.9052.9052,0,0,1-.0216,1.3073c-.2184.2021-.4615.4255-.7242.6649"/>
    <path fill="none" stroke="#000" stroke-linecap="round" stroke-linejoin="round" stroke-width="2" d="M31.8468,55.2081l-2.17,3.25a.7511.7511,0,0,1-1.17.09l-7.45-8.12-8.25-7.56a.7511.7511,0,0,1,.09-1.17l3.25-2.17a.7529.7529,0,0,1,.86.03l6.84,5.15,1.68,1.26,1.89,2.51,4.4,5.87A.7529.7529,0,0,1,31.8468,55.2081Z"/>
    <path fill="none" stroke="#000" stroke-linecap="round" stroke-linejoin="round" stroke-width="2" d="M58.9868,51.5081l-5.56,3.01a1.6207,1.6207,0,0,1-1.71-.38l-15.28-12.6-2.78-2.29-.62-.5-.5-.62-1.87-2.27-13.02-15.79a1.6207,1.6207,0,0,1-.38-1.71l3.01-5.56c.38-.69,1.49-.56,2.28.27l14.55,15.43,3,3.18,3.65,3.44,14.96,14.11C59.5468,50.0181,59.6768,51.1281,58.9868,51.5081Z"/>
    <line x1="45.0855" x2="58.8981" y1="13.5345" y2="27.347" fill="none" stroke="#000" stroke-linecap="round" stroke-linejoin="round" stroke-width="1.7979"/>
    <line x1="53.2105" x2="50.5543" y1="19.222" y2="21.8783" fill="none" stroke="#000" stroke-linecap="round" stroke-linejoin="round" stroke-width="1.7979"/>
  </g>
</svg>
