<svg id="emoji" viewBox="0 0 72 72" xmlns="http://www.w3.org/2000/svg">
  <g id="color">
    <path fill="#d0cfce" stroke="none" d="M60.81,45.25c-0.06,0.01-0.12,0.02-0.18,0.03c-0.07,0-0.14,0.01-0.22,0.02c0.08-0.01,0.16-0.02,0.24-0.03 C60.71,45.27,60.76,45.26,60.81,45.25z"/>
    <path fill="#d0cfce" stroke="none" d="M60.65,45.27c-0.01,0-0.01,0-0.02,0.01c-0.07,0-0.14,0.01-0.22,0.02C60.49,45.29,60.57,45.28,60.65,45.27z"/>
    <path fill="#d0cfce" stroke="none" d="M60.81,45.25c-0.06,0.01-0.12,0.02-0.18,0.03c-0.07,0-0.14,0.01-0.22,0.02c0.08-0.01,0.16-0.02,0.24-0.03 C60.71,45.27,60.76,45.26,60.81,45.25z"/>
    <path fill="#d0cfce" stroke="none" d="M61.66,46.07c-0.3,0.3-4.65,0.55-10.69,0.73c-1.62,0.04-3.36,0.08-5.17,0.12c-1.18,0.02-2.4,0.04-3.64,0.05 c-0.42,0-0.83,0.01-1.25,0.01c-0.12,0.01-0.23,0.01-0.35,0.01C39.91,47,39.26,47,38.6,47.01c-1.01,0.01-2.02,0.02-3.04,0.02 c-3.04,0.02-6.08,0.01-8.92-0.02c-1.15-0.01-2.27-0.03-3.34-0.04c-0.16-0.01-0.31-0.01-0.47-0.01c-0.51-0.01-1.01-0.02-1.5-0.03 c-5.98-0.15-10.32-0.42-10.76-0.86c-0.71-0.72-0.77-1.43-0.61-1.98c0.17-0.65,0.61-1.09,0.61-1.09l10.22-7.15h30.65L61.66,43 c0,0,0.29,0.59,0.4,1.28C62.17,44.88,62.14,45.59,61.66,46.07z"/>
    <polygon fill="#9b9b9a" stroke="none" points="40.7961,36.5366 48.75,46.5833 61.2917,45.98 62.1128,44.9583 61.2561,42.7175 51.4,35.85 40.56,36"/>
    <path fill="#d0cfce" stroke="none" d="M40.97,45.97c-0.21,0-0.42,0.01-0.63,0.01h-0.46c0.21-0.01,0.42-0.01,0.63-0.01H40.97z"/>
    <path fill="#d0cfce" stroke="none" d="M46.22,45.89c-0.11,0-0.22,0-0.32,0.01c-0.2,0-0.4,0-0.6,0.01h-0.17c0.1-0.01,0.2-0.01,0.3-0.01 c0.2,0,0.4-0.01,0.6-0.01H46.22z"/>
    <path fill="#d0cfce" stroke="none" d="M51.36,45.76c0,0.01,0,0.01,0,0.01c-0.23,0-0.46,0.01-0.7,0.02C50.9,45.78,51.13,45.77,51.36,45.76z"/>
    <path fill="#9b9b9a" stroke="none" d="M50.97,46.8c-1.63,3.04-7.43,5.3-14.38,5.39c0.1-0.08,0.19-0.18,0.28-0.27c1.29-1.29,2.42-2.63,3.38-3.96 c0.23-0.33,0.45-0.65,0.66-0.98c1.67-0.01,3.31-0.03,4.89-0.06C47.61,46.88,49.35,46.84,50.97,46.8z"/>
    <path fill="#d0cfce" stroke="none" d="M40.91,46.98c-0.21,0.33-0.43,0.65-0.66,0.98c-0.96,1.33-2.09,2.67-3.38,3.96 c-0.09,0.09-0.18,0.19-0.28,0.27c-0.15,0.01-0.31,0.01-0.47,0.01c-0.87,0-1.73-0.03-2.56-0.1c-0.88-0.07-1.73-0.17-2.55-0.31 c-4.63-0.76-8.24-2.53-9.61-4.75c-0.03-0.04-0.05-0.07-0.07-0.11c1.96,0.04,4.1,0.07,6.34,0.09c0.13,0,0.25-0.01,0.38,0 c4.02,0.03,8.35,0.02,12.51-0.03C40.68,46.99,40.79,46.99,40.91,46.98z"/>
    <path fill="#d0cfce" stroke="none" d="M40.97,45.97c-0.21,0-0.42,0.01-0.63,0.01h-0.46c0.21-0.01,0.42-0.01,0.63-0.01H40.97z"/>
    <path fill="#d0cfce" stroke="none" d="M46.22,45.89c-0.11,0-0.22,0-0.32,0.01c-0.2,0-0.4,0-0.6,0.01h-0.17c0.1-0.01,0.2-0.01,0.3-0.01 c0.2,0,0.4-0.01,0.6-0.01H46.22z"/>
    <path fill="#9b9b9a" stroke="none" d="M40.97,45.97c-0.21,0-0.42,0.01-0.63,0.01c0.06,0,0.12,0,0.17-0.01H40.97z"/>
    <path fill="#9b9b9a" stroke="none" d="M45.9,45.9c-0.2,0-0.4,0-0.6,0.01c0.04,0,0.09,0,0.13-0.01H45.9z"/>
    <path fill="#9b9b9a" stroke="none" d="M46.22,45.89c-0.11,0-0.22,0-0.32,0.01c0.05,0,0.09-0.01,0.13-0.01H46.22z"/>
    <path fill="#9b9b9a" stroke="none" d="M51.94,45.75c-0.11,0-0.22,0-0.33,0.01c0.03,0,0.05,0,0.08-0.01H51.94z"/>
    <path fill="#9b9b9a" stroke="none" d="M53.46,45.7c-0.11,0-0.22,0-0.33,0.01c0.04,0,0.07,0,0.1-0.01H53.46z"/>
    <path fill="#9b9b9a" stroke="none" d="M55.39,45.62c-0.13,0.01-0.26,0.01-0.39,0.02c0.03,0,0.06,0,0.08-0.01C55.19,45.63,55.29,45.63,55.39,45.62 z"/>
    <path fill="#9b9b9a" stroke="none" d="M60.81,45.25c-0.06,0.01-0.12,0.02-0.18,0.03c-0.07,0-0.14,0.01-0.22,0.02c0.08-0.01,0.16-0.02,0.24-0.03 C60.71,45.27,60.76,45.26,60.81,45.25z"/>
    <path fill="#d0cfce" stroke="none" d="M15.65,45.7h-0.08c-0.11-0.01-0.22-0.02-0.32-0.02c0.09,0,0.18,0.01,0.27,0.01 C15.57,45.69,15.61,45.7,15.65,45.7z"/>
    <path fill="#d0cfce" stroke="none" d="M16.25,45.73c-0.21-0.01-0.41-0.02-0.6-0.03c0.18,0.01,0.35,0.02,0.53,0.02 C16.2,45.73,16.23,45.73,16.25,45.73z"/>
    <path fill="#d0cfce" stroke="none" d="M20.9,45.9c-0.07-0.01-0.13-0.01-0.19-0.01h0.18L20.9,45.9z"/>
    <path fill="#d0cfce" stroke="none" d="M40.97,45.97c-0.21,0-0.42,0.01-0.63,0.01h-0.46c0.21-0.01,0.42-0.01,0.63-0.01H40.97z"/>
    <path fill="#d0cfce" stroke="none" d="M46.22,45.89c-0.11,0-0.22,0-0.32,0.01c-0.2,0-0.4,0-0.6,0.01h-0.17c0.1-0.01,0.2-0.01,0.3-0.01 c0.2,0,0.4-0.01,0.6-0.01H46.22z"/>
    <path fill="#d0cfce" stroke="none" d="M51.41,45.76c-0.02,0.01-0.04,0.01-0.05,0.01c-0.23,0-0.46,0.01-0.7,0.02c0.24-0.01,0.47-0.02,0.7-0.03 H51.41z"/>
    <path fill="#d0cfce" stroke="none" d="M60.65,45.27c-0.01,0-0.01,0-0.02,0.01c-0.07,0-0.14,0.01-0.22,0.02C60.49,45.29,60.57,45.28,60.65,45.27z"/>
    <path fill="#9b9b9a" stroke="none" d="M52.04,45.74c-0.03,0-0.07,0-0.1,0.01c-0.11,0-0.22,0-0.33,0.01c0.03,0,0.05,0,0.08-0.01 C51.81,45.75,51.93,45.75,52.04,45.74z"/>
    <path fill="#9b9b9a" stroke="none" d="M53.54,45.69c-0.02,0-0.05,0-0.08,0.01c-0.11,0-0.22,0-0.33,0.01c0.04,0,0.07,0,0.1-0.01 C53.34,45.7,53.44,45.7,53.54,45.69z"/>
    <path fill="#9b9b9a" stroke="none" d="M55.39,45.62c-0.13,0.01-0.26,0.01-0.39,0.02c0.03,0,0.06,0,0.08-0.01C55.19,45.63,55.29,45.63,55.39,45.62 z"/>
    <path fill="#9b9b9a" stroke="none" d="M60.81,45.25c-0.06,0.01-0.12,0.02-0.18,0.03c-0.07,0-0.14,0.01-0.22,0.02c0.08-0.01,0.16-0.02,0.24-0.03 C60.71,45.27,60.76,45.26,60.81,45.25z"/>
    <path fill="#d0cfce" stroke="none" d="M11.03,45.24c-0.02,0-0.04-0.01-0.06-0.01c-0.03-0.01-0.06-0.02-0.09-0.03c0.04,0.01,0.08,0.02,0.13,0.03 C11.02,45.23,11.02,45.24,11.03,45.24z"/>
    <path fill="#d0cfce" stroke="none" d="M15.65,45.7h-0.08c-0.02-0.01-0.03-0.01-0.05-0.01C15.57,45.69,15.61,45.7,15.65,45.7z"/>
    <path fill="#d0cfce" stroke="none" d="M11.03,45.24c-0.02,0-0.04-0.01-0.06-0.01c-0.03-0.01-0.06-0.02-0.09-0.03c0.04,0.01,0.08,0.02,0.13,0.03 C11.02,45.23,11.02,45.24,11.03,45.24z"/>
    <path fill="#d0cfce" stroke="none" d="M15.65,45.7h-0.08c-0.02-0.01-0.03-0.01-0.05-0.01C15.57,45.69,15.61,45.7,15.65,45.7z"/>
    <path fill="#61b2e4" stroke="none" d="M51.4,35.75v0.1H41.03c1.03-4.9-0.35-10.21-4.16-14.01c-0.09-0.1-0.19-0.19-0.29-0.28 C44.45,21.79,50.83,27.96,51.4,35.75z"/>
    <path fill="#92d3f5" stroke="none" d="M41.03,35.85h-20.2v-0.09c0.19-2.67,1.07-5.16,2.46-7.28c2.3-3.5,5.98-6,10.27-6.72 c0.83-0.14,1.69-0.21,2.56-0.21c0.15,0,0.31,0,0.46,0.01c0.1,0.09,0.2,0.18,0.29,0.28C40.68,25.64,42.06,30.95,41.03,35.85z"/>
    <path fill="#92d3f5" stroke="none" stroke-miterlimit="10" stroke-width="2" d="M52.04,41.4402c0,0.31-0.07,0.61-0.2,0.88 c-0.02,0.05-0.04,0.09-0.07,0.14c-0.35,0.61-1.02,1.03-1.77,1.03c-0.18,0-0.35-0.02-0.51-0.08c-0.53-0.13-0.99-0.48-1.25-0.95 c-0.19-0.3-0.29-0.65-0.29-1.02c0-0.55,0.22-1.06,0.6-1.42c0.24-0.27,0.57-0.46,0.94-0.55c0.16-0.05,0.33-0.07,0.51-0.07 C51.12,39.4002,52.04,40.3202,52.04,41.4402z"/>
    <path fill="#92d3f5" stroke="none" stroke-miterlimit="10" stroke-width="2" d="M38.195,41.4402c0,0.31-0.07,0.61-0.2,0.88 c-0.02,0.05-0.04,0.09-0.07,0.14c-0.35,0.61-1.02,1.03-1.77,1.03c-0.18,0-0.35-0.02-0.51-0.08c-0.53-0.13-0.99-0.48-1.25-0.95 c-0.19-0.3-0.29-0.65-0.29-1.02c0-0.55,0.22-1.06,0.6-1.42c0.24-0.27,0.57-0.46,0.94-0.55c0.16-0.05,0.33-0.07,0.51-0.07 C37.275,39.4002,38.195,40.3202,38.195,41.4402z"/>
    <path fill="#92d3f5" stroke="none" stroke-miterlimit="10" stroke-width="2" d="M24.445,41.4402c0,0.31-0.07,0.61-0.2,0.88 c-0.02,0.05-0.04,0.09-0.07,0.14c-0.35,0.61-1.02,1.03-1.77,1.03c-0.18,0-0.35-0.02-0.51-0.08c-0.53-0.13-0.99-0.48-1.25-0.95 c-0.19-0.3-0.29-0.65-0.29-1.02c0-0.55,0.22-1.06,0.6-1.42c0.24-0.27,0.57-0.46,0.94-0.55c0.16-0.05,0.33-0.07,0.51-0.07 C23.525,39.4002,24.445,40.3202,24.445,41.4402z"/>
  </g>
  <g id="hair"/>
  <g id="skin"/>
  <g id="skin-shadow"/>
  <g id="line">
    <path fill="none" stroke="#000000" stroke-miterlimit="10" stroke-width="2" d="M52.04,41.4402c0,0.31-0.07,0.61-0.2,0.88 c-0.02,0.05-0.04,0.09-0.07,0.14c-0.35,0.61-1.02,1.03-1.77,1.03c-0.18,0-0.35-0.02-0.51-0.08c-0.53-0.13-0.99-0.48-1.25-0.95 c-0.19-0.3-0.29-0.65-0.29-1.02c0-0.55,0.22-1.06,0.6-1.42c0.24-0.27,0.57-0.46,0.94-0.55c0.16-0.05,0.33-0.07,0.51-0.07 C51.12,39.4002,52.04,40.3202,52.04,41.4402z"/>
    <path fill="none" stroke="#000000" stroke-miterlimit="10" stroke-width="2" d="M38.195,41.4402c0,0.31-0.07,0.61-0.2,0.88 c-0.02,0.05-0.04,0.09-0.07,0.14c-0.35,0.61-1.02,1.03-1.77,1.03c-0.18,0-0.35-0.02-0.51-0.08c-0.53-0.13-0.99-0.48-1.25-0.95 c-0.19-0.3-0.29-0.65-0.29-1.02c0-0.55,0.22-1.06,0.6-1.42c0.24-0.27,0.57-0.46,0.94-0.55c0.16-0.05,0.33-0.07,0.51-0.07 C37.275,39.4002,38.195,40.3202,38.195,41.4402z"/>
    <path fill="none" stroke="#000000" stroke-miterlimit="10" stroke-width="2" d="M24.445,41.4402c0,0.31-0.07,0.61-0.2,0.88 c-0.02,0.05-0.04,0.09-0.07,0.14c-0.35,0.61-1.02,1.03-1.77,1.03c-0.18,0-0.35-0.02-0.51-0.08c-0.53-0.13-0.99-0.48-1.25-0.95 c-0.19-0.3-0.29-0.65-0.29-1.02c0-0.55,0.22-1.06,0.6-1.42c0.24-0.27,0.57-0.46,0.94-0.55c0.16-0.05,0.33-0.07,0.51-0.07 C23.525,39.4002,24.445,40.3202,24.445,41.4402z"/>
    <path fill="none" stroke="#000000" stroke-linecap="round" stroke-linejoin="round" stroke-miterlimit="10" stroke-width="2" d="M61.66,46.07c-0.3,0.3-4.65,0.55-10.69,0.73c-1.62,0.04-3.36,0.08-5.17,0.12c-1.18,0.02-2.4,0.04-3.64,0.05 c-0.42,0-0.83,0.01-1.25,0.01c-0.12,0.01-0.23,0.01-0.35,0.01C39.91,47,39.26,47,38.6,47.01c-1.01,0.01-2.02,0.02-3.04,0.02 c-3.04,0.02-6.08,0.01-8.92-0.02c-1.15-0.01-2.27-0.03-3.34-0.04c-0.16-0.01-0.31-0.01-0.47-0.01c-0.51-0.01-1.01-0.02-1.5-0.03 c-5.98-0.15-10.32-0.42-10.76-0.86c-0.71-0.72-0.77-1.43-0.61-1.98c0.17-0.65,0.61-1.09,0.61-1.09l10.22-7.15h30.65L61.66,43 c0,0,0.29,0.59,0.4,1.28C62.17,44.88,62.14,45.59,61.66,46.07z"/>
    <path fill="none" stroke="#000000" stroke-linecap="round" stroke-linejoin="round" stroke-miterlimit="10" stroke-width="2" d="M42.16,46.97c-0.42,0.01-0.84,0.01-1.26,0.02c0.01,0,0.01-0.01,0.01-0.01C41.33,46.98,41.74,46.97,42.16,46.97z"/>
    <path fill="none" stroke="#000000" stroke-linecap="round" stroke-linejoin="round" stroke-miterlimit="10" stroke-width="2" d="M50.97,46.8c-1.63,3.04-7.43,5.3-14.38,5.39c-0.15,0.01-0.31,0.01-0.47,0.01c-0.87,0-1.73-0.03-2.56-0.1 c-0.88-0.07-1.73-0.17-2.55-0.31c-4.63-0.76-8.24-2.53-9.61-4.75c-0.03-0.04-0.05-0.07-0.07-0.11c0.49,0.01,0.99,0.02,1.5,0.03 c0.16,0,0.31,0,0.47,0.01c1.07,0.01,2.19,0.03,3.34,0.04c2.84,0.03,5.88,0.04,8.92,0.02c1.02,0,2.03-0.01,3.04-0.02 c0.66-0.01,1.31-0.01,1.96-0.02h0.34c0.42-0.01,0.84-0.01,1.26-0.02c1.24-0.01,2.46-0.03,3.64-0.05 C47.61,46.88,49.35,46.84,50.97,46.8z"/>
    <path fill="none" stroke="#000000" stroke-linecap="round" stroke-linejoin="round" stroke-miterlimit="10" stroke-width="2" d="M40.91,46.98c0,0,0,0.01-0.01,0.01h-0.34C40.68,46.99,40.79,46.99,40.91,46.98z"/>
    <path fill="none" stroke="#000000" stroke-linecap="round" stroke-linejoin="round" stroke-miterlimit="10" stroke-width="2" d="M42.16,46.97c-0.42,0.01-0.84,0.01-1.26,0.02h-0.34c0.12,0,0.23,0,0.35-0.01C41.33,46.98,41.74,46.97,42.16,46.97z"/>
    <path fill="none" stroke="#000000" stroke-linecap="round" stroke-linejoin="round" stroke-miterlimit="10" stroke-width="2" d="M51.4,35.75v0.1H20.83v-0.09c0.19-2.67,1.07-5.16,2.46-7.28c2.3-3.5,5.98-6,10.27-6.72c0.83-0.14,1.69-0.21,2.56-0.21 c0.15,0,0.31,0,0.46,0.01C44.45,21.79,50.83,27.96,51.4,35.75z"/>
  </g>
</svg>
