<svg id="emoji" viewBox="0 0 72 72" xmlns="http://www.w3.org/2000/svg">
  <g id="color">
    <circle cx="36" cy="36" r="24" fill="#FCEA2B"/>
    <path fill="#FFFFFF" d="M37.9763,26.7191c6.7831,0.247,13.8395,0.8443,19.6935,2.1435l0.2159,0.0451 C54.8961,19.6755,46.2274,13,36,13c-12.7031,0-23,10.2969-23,23c0,2.8816,0.5299,5.6395,1.4977,8.1814l-0.0013-0.0023 c0,0,3.79-3.84,9.95-8.55c1.21-0.93,2.52-1.89,3.91-2.86C31.2463,30.7291,34.4864,28.6491,37.9763,26.7191"/>
  </g>
  <g id="hair"/>
  <g id="skin"/>
  <g id="skin-shadow"/>
  <g id="line">
    <path fill="none" stroke="#000000" stroke-linecap="round" stroke-linejoin="round" stroke-miterlimit="10" stroke-width="2" d="M44.9164,27.1091c0.56,0.97,1.38,1.78,2.38,2.34c1.29,0.89,2.87,1.27,4.43,1.07"/>
    <path d="M48,35c0,1.6568-1.3447,3-3,3s-3-1.3433-3-3c0-1.6552,1.3447-3,3-3S48,33.3448,48,35"/>
    <path fill="none" stroke="#000000" stroke-linecap="round" stroke-linejoin="round" stroke-miterlimit="10" stroke-width="2" d="M33.1081,46.8878c0,0,5.7328-1.0685,11.6633,2.0944"/>
    <path fill="none" stroke="#000000" stroke-linecap="round" stroke-linejoin="round" stroke-miterlimit="10" stroke-width="2" d="M14.4963,44.1791c0,0,3.79-3.84,9.95-8.55c1.21-0.93,2.52-1.89,3.91-2.86c2.89-2.04,6.13-4.12,9.62-6.05"/>
    <path d="M28.7005,32.5324c-0.1125,0.0787-0.2327,0.158-0.3442,0.2367c-1.39,0.97-2.7,1.93-3.91,2.86 c-0.104,0.0795-0.2018,0.1566-0.3044,0.2357C24.5153,37.0969,25.6472,38,27,38c1.6552,0,3-1.3432,3-3 C30,33.9766,29.4842,33.074,28.7005,32.5324z"/>
    <path fill="none" stroke="#000000" stroke-linecap="round" stroke-linejoin="round" stroke-miterlimit="10" stroke-width="2" d="M57.6698,28.8626c-15.9396-3.5376-41.9481-1.9371-41.9481-1.9371"/>
    <path fill="none" stroke="#000000" stroke-linecap="round" stroke-linejoin="round" stroke-miterlimit="10" stroke-width="2" d="M19.3657,20.2796c0,0,21.5837-1.5544,34.954,1.9832"/>
    <path fill="none" stroke="#000000" stroke-linecap="round" stroke-linejoin="round" stroke-miterlimit="10" stroke-width="2" d="M57.8857,28.9077C54.8961,19.6755,46.2274,13,36,13c-12.7031,0-23,10.2969-23,23c0,2.8816,0.5299,5.6395,1.4977,8.1814"/>
    <path fill="none" stroke="#000000" stroke-linecap="round" stroke-linejoin="round" stroke-miterlimit="10" stroke-width="2" d="M16.0847,47.5135C20.0633,54.3807,27.4919,59,35.9999,59c12.7022,0,23-10.2978,23-23c0-1.243-0.0986-2.4629-0.2884-3.6525"/>
  </g>
</svg>
