<svg id="emoji" viewBox="0 0 72 72" xmlns="http://www.w3.org/2000/svg">
  <g id="color"/>
  <g id="hair"/>
  <g id="skin">
    <path fill="#c19a65" stroke="#c19a65" d="M41.7659,13.7375c-0.284-1.9293,1.0499-3.7236,2.9792-4.0075c1.9293-0.284,3.7236,1.0498,4.0075,2.9792 c0.0455,0.3093,0.0498,0.6232,0.0126,0.9336l0.2571,18.9983l-0.0217,4.3248L48.8247,23.967 c-0.284-1.9293,1.0499-3.7236,2.9792-4.0075s3.7236,1.0498,4.0075,2.9792c0.0455,0.3093,0.0498,0.6232,0.0126,0.9336L56,36.8711 l-0.0526,10.0853c-0.4248,8.3102-7.7519,13.6293-16.06,13.2046c-4.7918-0.2654-9.32-2.2781-12.7278-5.6572 C24.2418,51.4134,17.074,42.969,17.074,42.969c-1.4629-2.1582-0.3282-5.4939,0.8007-4.6726l9.8756,4.6509l0.0389-5.3996 l-0.0389,5.3996l0.0389-5.3996l-0.0395-21.8505c-0.284-1.9293,1.0499-3.7236,2.9792-4.0075s3.7236,1.0498,4.0075,2.9792 c0.0455,0.3093,0.0498,0.6232,0.0126,0.9336l0.0947,6.9994l0.1861,10.6365l-0.3671-22.1928 c-0.284-1.9293,1.0499-3.7236,2.9792-4.0075c1.9293-0.284,3.7236,1.0498,4.0075,2.9792c0.0455,0.3093,0.0498,0.6232,0.0126,0.9336 l0.2064,24.016"/>
  </g>
  <g id="skin-shadow"/>
  <g id="line">
    <path fill="none" stroke="#000000" stroke-linecap="round" stroke-linejoin="round" stroke-width="2" d="M41.7659,13.7375 c-0.284-1.9293,1.0499-3.7236,2.9792-4.0075c1.9293-0.284,3.7236,1.0498,4.0075,2.9792c0.0455,0.3093,0.0498,0.6232,0.0126,0.9336 l0.2571,18.9983l-0.0048,0.9513l-0.1928-9.6253c-0.284-1.9293,1.0499-3.7236,2.9792-4.0075s3.7236,1.0498,4.0075,2.9792 c0.0455,0.3093,0.0498,0.6232,0.0126,0.9336L56,36.8711l-0.0526,10.0853c-0.4248,8.3102-7.7519,13.6293-16.06,13.2046 c-4.7918-0.2654-9.32-2.2781-12.7278-5.6572C24.2418,51.4134,17.074,42.969,17.074,42.969 c-1.4629-2.1582-0.3282-5.4939,0.8007-4.6726l9.8756,4.6509l0.0389-5.3996l-0.0389,5.3996l0.0389-5.3996l-0.0395-21.8505 c-0.284-1.9293,1.0499-3.7236,2.9792-4.0075s3.7236,1.0498,4.0075,2.9792c0.0455,0.3093,0.0498,0.6232,0.0126,0.9336l0.0947,6.9994 l0.1861,10.6365l-0.3671-22.1928c-0.284-1.9293,1.0499-3.7236,2.9792-4.0075c1.9293-0.284,3.7236,1.0498,4.0075,2.9792 c0.0455,0.3093,0.0498,0.6232,0.0126,0.9336l0.1758,20.4538"/>
  </g>
</svg>
