<svg id="emoji" x="0" y="0" viewBox="0 0 72 72" version="1.1" xmlns="http://www.w3.org/2000/svg" xmlns:xlink="http://www.w3.org/1999/xlink">
  <g id="color">
    <g>
      <g>
        <g>
          <defs>
            <polygon id="SVGID_1_" points="0,2 1,2 0,3"/>
          </defs>
          <clipPath id="SVGID_2_">
            <use overflow="visible" xlink:href="#SVGID_1_"/>
          </clipPath>
        </g>
        <g>
          <defs>
            <polygon id="SVGID_3_" points="0,2 1,2 0,3"/>
          </defs>
          <defs>
            <polygon id="SVGID_4_" points="-2,0 -3,0 -2,-1"/>
          </defs>
          <clipPath id="SVGID_5_">
            <use overflow="visible" xlink:href="#SVGID_3_"/>
          </clipPath>
          <clipPath id="SVGID_6_" clip-path="url(#SVGID_5_)">
            <use overflow="visible" xlink:href="#SVGID_4_"/>
          </clipPath>
          <rect x="8.75" y="2.4201" width="55.25" height="56" fill="#FCEA2B" clip-path="url(#SVGID_6_)"/>
        </g>
      </g>
    </g>
    <circle cx="36" cy="30.4201" r="24" fill="#FCEA2B"/>
    <polygon fill="#FCEA2B" points="37.1077,48.7386 42.2043,47.0679 43.7846,47.9033 43.7846,48.7386 43.7846,50.726 41.5238,51.8338 39.1168,52.6228 36.0908,53.1573 35.293,52.8658 35.6332,49.6589"/>
    <path fill="#FCEA2B" d="M16.5504,61.0381c0,0-0.7001-3.559-0.4126-4.9449c0.2875-1.386,3.2154-8.9803,3.7058-10.2387 c0.4905-1.2584,1.9884-6.276,3.3321-6.6078c1.3437-0.3319,1.6494,0.1675,1.5908,0.9544 c-0.0587,0.7869-0.8061,10.7526-0.8061,10.7526l12.9169-3.9249c0,0,6.0147-1.6332,6.2521-0.4403 c0.0794,0.3986,0.1788,1.3206-0.6519,1.8762c-1.6552,1.1071-5.8398,2.7239-5.8398,2.7239s1.5801,0.8783,1.3342,1.8305 c-0.246,0.9521-0.3972,2.2106-0.7208,2.2622c-0.3236,0.0516,1.3674,0.6568,1.393,1.865c0.0256,1.2082-0.5322,1.7665-1.3755,2.0227 s1.4478,1.361,1.5205,1.8736c0.0728,0.5126,0.8148,1.5031-0.517,1.9078c-1.3318,0.4047-10.4322,3.1699-10.4322,3.1699 s-4.5775,1.5426-7.2801-0.0955C17.8571,64.3865,16.5504,61.0381,16.5504,61.0381z"/>
  </g>
  <g id="hair"/>
  <g id="skin"/>
  <g id="skin-shadow"/>
  <g id="line">
    <path fill="none" stroke="#000000" stroke-linecap="round" stroke-linejoin="round" stroke-miterlimit="10" stroke-width="2" d="M28.8884,38.7481c2.3711-0.667,11.8767,0.5356,14.0593,2.0654"/>
    <path fill="none" stroke="#000000" stroke-linecap="round" stroke-linejoin="round" stroke-miterlimit="10" stroke-width="2" d="M22.3595,16.7775c1.2836-0.8899,2.8496-1.2724,4.3983-1.0733c1.5696,0.0357,3.0678,0.6574,4.204,1.7396"/>
    <path fill="none" stroke="#000000" stroke-linecap="round" stroke-linejoin="round" stroke-miterlimit="10" stroke-width="2" d="M51.1306,20.7918c-2.7613-0.6555-5.3671-0.7511-8.242-0.2607"/>
    <path fill="none" stroke="#000000" stroke-linecap="round" stroke-linejoin="round" stroke-miterlimit="10" stroke-width="2" d="M42.0164,52.6252C51.8008,49.9804,59,41.0407,59,30.4201c0-12.7031-10.2978-23-23-23c-12.7031,0-23,10.2969-23,23 c0,4.8349,1.4919,9.3215,4.0404,13.0244"/>
    <path d="M31,25c0,1.6568-1.3448,3-3,3c-1.6553,0-3-1.3433-3-3c0-1.6552,1.3447-3,3-3C29.6552,22,31,23.3448,31,25"/>
    <path d="M48,28c0,1.6568-1.3447,3-3,3s-3-1.3433-3-3c0-1.6552,1.3447-3,3-3S48,26.3448,48,28"/>
    <path fill="none" stroke="#000000" stroke-linecap="round" stroke-linejoin="round" stroke-miterlimit="10" stroke-width="2" d="M35.4853,63.797l-9.0851,2.7606c-4.4471,1.3513-8.5667-1.2969-9.9177-5.7429c-1.2991-4.2753,0.5611-7.7594,0.5611-7.7594"/>
    <path fill="none" stroke="#000000" stroke-linecap="round" stroke-linejoin="round" stroke-miterlimit="10" stroke-width="2" d="M30.9385,48.8333l-6.9474,2.111c0,0,0,0,0.818-10.7562c0.0947-1.2453-2.1081-1.5776-2.8345,0.2775 c-4.9309,12.5898-4.9309,12.5898-4.9309,12.5898"/>
    <path fill="none" stroke="#000000" stroke-linecap="round" stroke-linejoin="round" stroke-miterlimit="10" stroke-width="2" d="M35.0824,51.1807l4.9606-1.5073c2.105-0.6396,3.6015-1.9058,3.3256-2.8138s-2.2239-1.1275-4.3288-0.4879l-13.6938,4.161"/>
    <path fill="none" stroke="#000000" stroke-linecap="round" stroke-linejoin="round" stroke-miterlimit="10" stroke-width="2" d="M33.7789,64.3155c0,0,1.2343-0.3751,2.743-0.8335c1.5086-0.4584,2.4739-1.719,2.1451-2.8013 c-0.3289-1.0823-1.4686-1.7033-2.5327-1.38s-1.9347,0.5879-1.9347,0.5879"/>
    <path fill="none" stroke="#000000" stroke-linecap="round" stroke-linejoin="round" stroke-miterlimit="10" stroke-width="2" d="M34.6494,55.5854c0,0,0.8607-0.2615,1.9126-0.5812s1.6452-1.461,1.3185-2.5365c-0.3268-1.0754-1.4819-1.6855-2.567-1.3558 c-1.0851,0.3297-1.9729,0.5995-1.9729,0.5995"/>
    <path fill="none" stroke="#000000" stroke-linecap="round" stroke-linejoin="round" stroke-miterlimit="10" stroke-width="2" d="M34.5143,59.793c0,0,1.0316-0.3135,2.2925-0.6966c1.2609-0.3831,2.0315-1.5555,1.7125-2.6053s-1.4451-1.6458-2.5024-1.3246 s-1.9225,0.5842-1.9225,0.5842"/>
  </g>
</svg>
