<svg id="emoji" x="0" y="0" viewBox="0 0 72 72" version="1.1" xmlns="http://www.w3.org/2000/svg">
  <g id="color"/>
  <g id="hair"/>
  <g id="skin">
    <path fill="#debb90" d="M18,25.4375L16,14.25C15.125,9.7518,8.3125,10.625,8.8125,16c0,0,3.8903,21.9482,4.4479,29.3481v-0.2559 c0.5404,10.5716,9.8613,17.3382,20.4303,16.7979c6.0957-0.3376,11.8562-2.898,16.1913-7.1966 c3.7118-3.9314,12.8301-14.6738,12.8301-14.6738c1.861-2.7454,0.4175-6.9889-1.0186-5.9441l-12.563,5.9165l0.3194-0.107 c-2.3974,0.8467-3.0395-1.5318-2.8249-3.2447l2.1111-27.8841c0.5272-6.7684-7.2581-6.5855-7.2581-0.9621L40.3125,23.5 l-9.6782,0.8404l-0.5949,0.6013l-0.6767-0.4909L18,25.4375z"/>
  </g>
  <g id="skin-shadow"/>
  <g id="line">
    <path fill="none" stroke="#000000" stroke-linecap="round" stroke-linejoin="round" stroke-width="2" d="M18,25.4375L16,14.25 C15.125,9.7518,8.3125,10.625,8.8125,16c0,0,3.8903,21.9482,4.4479,29.3481v-0.2559c0.5404,10.5716,9.8613,17.3382,20.4303,16.7979 c6.0957-0.3376,11.8562-2.898,16.1913-7.1966c3.7118-3.9314,12.8301-14.6738,12.8301-14.6738 c1.861-2.7454,0.4175-6.9889-1.0186-5.9441l-12.563,5.9165l0.3194-0.107c-2.3974,0.8467-3.0395-1.5318-2.8249-3.2447 l2.1111-27.8841c0.5272-6.7684-7.2581-6.5855-7.2581-0.9621L40.3125,23.5"/>
    <path fill="none" stroke="#000000" stroke-linecap="round" stroke-linejoin="round" stroke-width="2" d="M30.0394,27.604 c0.2371-2.1519,1.7598-3.4091,3.8076-3.4552c1.9138-0.043,3.9409,0.9576,3.9591,3.2774c0,0,0.1972,6.9598,0.1592,7.3048 c-0.2371,2.1519-2.1736,3.7041-4.3255,3.467c-2.1518-0.237-3.3818-2.198-3.467-4.3254L30.0394,27.604z"/>
    <path fill="none" stroke="#000000" stroke-linecap="round" stroke-linejoin="round" stroke-width="2" d="M22.1086,27.604 c0.2371-2.1519,1.7598-3.4091,3.8076-3.4552c1.9138-0.043,3.9409,0.9576,3.9591,3.2774c0,0,0.1972,6.9598,0.1592,7.3048 c-0.2371,2.1519-2.1736,3.7041-4.3255,3.467c-2.1518-0.237-3.3818-2.198-3.467-4.3254L22.1086,27.604z"/>
  </g>
</svg>
