<svg id="emoji" x="0" y="0" viewBox="0 0 72 72" version="1.1" xmlns="http://www.w3.org/2000/svg">
  <g id="color">
    <path fill="#92D3F5" d="M16,60.958L15.875,57c0-5.875,6.1328-10,11.125-10c6,5,12,5,18,0c4.9941,0,10,5.0059,10,10v3.958"/>
  </g>
  <g id="hair">
    <path fill="#000000" d="M25.7715,39c-4,0-4.832-6.5-4.832-13.5S25.7715,12,35.7715,12s14,7,14,14s0,13-4,13"/>
  </g>
  <g id="skin">
    <path fill="#6a462f" d="M28.8438,43.0937C29.5947,44.0117,32.8525,46,35.75,46c5.9365,0,11.125-5.25,11.125-14.25 c0-3-1-5.0005-1-5.0005c-3-2.9995-7.6562-9.4995-7.6562-9.4995c-1.1211,0.8413-2.0743,2.5479-3.3243,3.978"/>
    <path fill="#6a462f" d="M28.875,60.958c0.0049-0.5703-0.6973-10.4092,0-14.9717c0.2666-1.7461,2-1.9863,3-3.9863 c3-6,1.833-8.333,4-14c1.1299-2.9541-1.5645-3.7236-3.127-0.6001l3.0079-3.7939C36.96,20.2915,33.168,19.1665,31.5,21 l-1.8271,3.6265c1.5693-2.3536-0.9815-4.1485-2.6729-2.375C25.4209,23.9072,23.376,28.5464,21.875,33 c0,0-0.1172-2.1943,0.8125-4.1875C23.252,27.6025,22.916,25.8633,21,26c-0.9971,0.0713-1.7637,2.7734-2.54,5.667 c-0.7803,2.9067,0.0879,7.1562,0.7197,8.4209c1.4141,2.8281,1.6953,2.8984,1.6953,2.8984s-2,8.9717-4,17.9717"/>
  </g>
  <g id="skin-shadow"/>
  <g id="line">
    <path fill="none" stroke="#000000" stroke-linecap="round" stroke-linejoin="round" stroke-width="2" d="M22.1895,23.4019 C23.0879,17.3662,27.2441,12,36,12c10,0,14,7,14,14s0,13-4,13"/>
    <path d="M41.873,30c0,1.1045-0.8955,2-2,2c-1.1044,0-2-0.8955-2-2s0.8956-2,2-2C40.9775,28,41.873,28.8955,41.873,30"/>
    <path fill="none" stroke="#000000" stroke-linecap="round" stroke-linejoin="round" stroke-width="2" d="M37.4375,38 c1.75,0-0.875,0,1.5625,0"/>
    <path fill="none" stroke="#000000" stroke-linecap="round" stroke-linejoin="round" stroke-width="2" d="M55,60v-3 c0-4.9941-5.0059-9-10-9c-3.3652,2.8027-6.8389,3.6934-10.0937,3.6934c-0.7042,0-1.4415-0.0655-2.0538-0.1402"/>
    <path fill="none" stroke="#000000" stroke-linecap="round" stroke-linejoin="round" stroke-miterlimit="10" stroke-width="2" d="M32.3457,21.542C30.1553,24.8276,30.4473,24.3462,27,31"/>
    <path fill="none" stroke="#000000" stroke-linecap="round" stroke-linejoin="round" stroke-miterlimit="10" stroke-width="2" d="M22,32.6025c2.25-4.333,4.1094-7.81,5.5313-9.6025"/>
    <path fill="none" stroke="#000000" stroke-linecap="round" stroke-linejoin="round" stroke-miterlimit="10" stroke-width="2" d="M17,60c2-9,4-17.4111,4-17.4111S20.4141,41.8286,19,39c-2-4,0-9,2-12"/>
    <path fill="none" stroke="#000000" stroke-linecap="round" stroke-linejoin="round" stroke-miterlimit="10" stroke-width="2" d="M35,23c-1.2832,2.5649-2.8262,5.4771-4,9"/>
    <path fill="none" stroke="#000000" stroke-linecap="round" stroke-linejoin="round" stroke-miterlimit="10" stroke-width="2" d="M29,60c0.0049-0.5703-0.6973-9.4512,0-14.0137c0.2666-1.7461,2.1914-2.289,3-3.9863c1.9063-4,2.334-7.8057,3.9365-14"/>
    <path fill="none" stroke="#000000" stroke-linecap="round" stroke-linejoin="round" stroke-width="2" d="M37.3262,19.7109 c0.5107-0.5605,0.9062-1.1352,1.6738-1.7114c0,0,4,5.0005,7,8c0,0,1,2.0005,1,5.0005c0,9-5.127,14-11.0635,14 C35.7178,45,35.377,44.9771,35,44.9438"/>
  </g>
</svg>
