<svg id="emoji" viewBox="0 0 72 72" xmlns="http://www.w3.org/2000/svg">
  <g id="line-supplement">
    <path d="M36.2846,57.9425c2.897,0,5.245-2.927,5.245-6.538s-2.348-6.538-5.245-6.538-5.245,2.927-5.245,6.538S33.3876,57.9425,36.2846,57.9425Z"/>
  </g>
  <g id="color">
    <path fill="#f1b31c" d="M17.2846,26.1925a10.6967,10.6967,0,0,0,5.137,1.433c.3128.0126.5667.13.6266.2943.9175,2.513,5.149,4.402,10.15,4.402a14.942,14.942,0,0,0,8.0311-2.036,1.0485,1.0485,0,0,1,.7576-.1169,10.6155,10.6155,0,0,0,2.3479.2412c3.232,0,5.8851-1.316,6.161-2.994.0263-.16.2686-.29.5681-.3069a9.6243,9.6243,0,0,0,3.9621-1.045,46.1232,46.1232,0,0,0-37.74.128Z"/>
    <path fill="#fcea2b" d="M36.2846,62.0125a23.004,23.004,0,0,0,18.936-36.06,9.4731,9.4731,0,0,1-4.168,1.16c-.2995.0171-.5418.1467-.5681.3069-.2753,1.678-2.929,2.994-6.1609,2.994a10.6158,10.6158,0,0,1-2.348-.2412,1.0481,1.0481,0,0,0-.7575.1169,14.9416,14.9416,0,0,1-8.031,2.036c-5.003,0-9.235-1.889-10.15-4.402-.06-.1643-.3137-.2817-.6266-.2943a10.6483,10.6483,0,0,1-5.199-1.472,22.9993,22.9993,0,0,0,19.075,35.85Z"/>
    <path d="M36.2846,57.9425c2.897,0,5.245-2.927,5.245-6.538s-2.348-6.538-5.245-6.538-5.245,2.927-5.245,6.538S33.3876,57.9425,36.2846,57.9425Z"/>
    <path fill="#fff" d="M23.2646,15.3825c-.0241.14-.2461.2536-.5208.2685-3.348.1819-5.924,1.861-5.924,3.904,0,2.165,2.948,3.92,6.585,3.92h.4921a8.3244,8.3244,0,0,1,1.942,2.698,21.4379,21.4379,0,0,1,1.197,4.668c.0272.158.0528.3059.077.4416a17.2563,17.2563,0,0,0,6.071,1.038,14.9416,14.9416,0,0,0,8.031-2.036,1.0487,1.0487,0,0,1,.7575-.1169,10.6169,10.6169,0,0,0,2.348.2413,11.5324,11.5324,0,0,0,1.294-.072,19.4024,19.4024,0,0,1,1.11-4.164,8.331,8.331,0,0,1,1.942-2.698h-.1525c3.993-.0015,7.229-1.856,7.229-4.142,0-2.193-2.976-3.988-6.741-4.133-.2868-.0111-.52-.1138-.5744-.2576-.841-2.199-4.72-3.852-9.307-3.852a14.1982,14.1982,0,0,0-7.362,1.782,1.0008,1.0008,0,0,1-.6945.1023,10.1768,10.1768,0,0,0-2.152-.2111c-2.963,0-5.395,1.152-5.648,2.619Z"/>
  </g>
  <g id="line">
    <path d="M48.2846,38.0125a3,3,0,1,1-3-3A3.0011,3.0011,0,0,1,48.2846,38.0125Z"/>
    <path d="M30.2846,38.0125a3,3,0,1,1-3-3A3.0011,3.0011,0,0,1,30.2846,38.0125Z"/>
    <path fill="none" stroke="#000" stroke-linecap="round" stroke-linejoin="round" stroke-width="2" d="M36.2846,62.0125a23.004,23.004,0,0,0,18.936-36.06,9.4745,9.4745,0,0,1-4.168,1.16c-.2995.0171-.5418.1467-.5681.3069-.2753,1.678-2.929,2.994-6.1609,2.994a10.6158,10.6158,0,0,1-2.348-.2412,1.0481,1.0481,0,0,0-.7575.1169,14.9416,14.9416,0,0,1-8.031,2.036c-5.003,0-9.235-1.889-10.15-4.402-.06-.1643-.3137-.2817-.6266-.2943a10.6483,10.6483,0,0,1-5.199-1.472,22.9993,22.9993,0,0,0,19.075,35.85Z"/>
    <path fill="none" stroke="#000" stroke-linecap="round" stroke-linejoin="round" stroke-width="2" d="M36.2846,57.9425c2.897,0,5.245-2.927,5.245-6.538s-2.348-6.538-5.245-6.538-5.245,2.927-5.245,6.538S33.3876,57.9425,36.2846,57.9425Z"/>
    <path fill="none" stroke="#000" stroke-linecap="round" stroke-linejoin="round" stroke-width="2" d="M23.2646,15.3825c-.0241.14-.2461.2536-.5208.2685-3.348.1819-5.924,1.861-5.924,3.904,0,2.165,2.948,3.92,6.585,3.92h.4921a8.3244,8.3244,0,0,1,1.942,2.698,21.4379,21.4379,0,0,1,1.197,4.668c.0272.158.0528.3059.077.4416a17.2563,17.2563,0,0,0,6.071,1.038,14.9416,14.9416,0,0,0,8.031-2.036,1.0487,1.0487,0,0,1,.7575-.1169,10.6169,10.6169,0,0,0,2.348.2413,11.5324,11.5324,0,0,0,1.294-.072,19.4024,19.4024,0,0,1,1.11-4.164,8.331,8.331,0,0,1,1.942-2.698h-.1525c3.993-.0015,7.229-1.856,7.229-4.142,0-2.193-2.976-3.988-6.741-4.133-.2868-.0111-.52-.1138-.5744-.2576-.841-2.199-4.72-3.852-9.307-3.852a14.1982,14.1982,0,0,0-7.362,1.782,1.0008,1.0008,0,0,1-.6945.1023,10.1768,10.1768,0,0,0-2.152-.2111c-2.963,0-5.395,1.152-5.648,2.619Z"/>
    <path fill="none" stroke="#000" stroke-width="2" d="M23.7846,23.5925a17.6584,17.6584,0,0,0-6.5,2.5"/>
    <path fill="none" stroke="#000" stroke-width="2" d="M48.2846,23.5925a19.3387,19.3387,0,0,1,7,2.5"/>
    <path fill="none" stroke="#000" stroke-linejoin="round" stroke-width="2" d="M23.9046,23.4825c2.064.59,6.546,1.062,7.962-1.769,2.1231,2.123,7.077,1.474,8.846,0,.8847,1.769,4.423,3.185,7.962,1.769"/>
  </g>
</svg>
