<svg id="emoji" x="0" y="0" viewBox="0 0 72 72" version="1.1" xmlns="http://www.w3.org/2000/svg">
  <g id="color">
    <path fill="#92D3F5" d="M17,60.958L15.875,57c0-5.875,6.1328-10,11.125-10c6,5,12,5,18,0c4.9941,0,10,5.0059,10,10v3.958"/>
  </g>
  <g id="hair">
    <path fill="#F1B31C" d="M20.2654,49.272C22.305,47.8316,24.765,47,27,47c6,5,12,5,18,0c1.8959,0,3.7919,0.7239,5.4167,1.8923 c0.7012-0.423,1.4046-0.861,2.1135-1.3337c-0.3916,0.3906,3.5781-7.6279,0.8447-12.3711c-0.4385-0.8535-0.9805-2.3496-1.3125-3.25 c-1.4727-3.2695-1.8623-4.0313-2.1875-10.0625c0.0273-3.6929-3.1562-6.999-6.8369-7.3076 c-0.2656-0.0181-0.5137-0.1416-0.6885-0.3433c-0.0928-0.0996-2.8271-3.0366-7.6621-3.0366c-6.2002,0-11.3057,4.0464-12.6074,8.8906 c-0.5342,2.0122-2.6553,2.0952-2.4951,4.171c0.2041,2.019-0.0098,7.0098-0.7139,8.912c-0.2481,0.7559-0.627,1.463-1.1191,2.088 c-3.7725,4.4199,0.4316,12.4463,0.2392,12.1533C18.7402,48.0841,19.5001,48.6959,20.2654,49.272z"/>
  </g>
  <g id="skin">
    <path fill="#FCEA2B" d="M28.875,60.958c0.0049-0.5703-0.6973-10.4092,0-14.9717c0.2666-1.7461,2-1.9863,3-3.9863 c3-6,1.833-8.333,4-14c1.1299-2.9541-1.5645-3.7236-3.127-0.6001l3.0079-3.7939C36.96,20.2915,33.168,19.1665,31.5,21 l-1.8271,3.6265c1.5693-2.3536-0.9815-4.1485-2.6729-2.375C25.4209,23.9072,23.376,28.5464,21.875,33 c0,0-0.1172-2.1943,0.8125-4.1875C23.252,27.6025,22.916,25.8633,21,26c-0.9971,0.0713-1.7637,2.7734-2.54,5.667 c-0.7803,2.9067,0.0879,7.1562,0.7197,8.4209c1.4141,2.8281,1.6953,2.8984,1.6953,2.8984s-2,8.9717-4,17.9717"/>
    <path fill="#FCEA2B" d="M24.125,31c-0.1562,8.7187,4.4063,15,11.8115,15C43,46,47,39,47,31c0-5-8.916-13.499-8.916-13.499 c-3.75,3.583-6.874,12.7778-12.75,10.3003C25.334,27.8013,24.2148,26.0005,24.125,31z"/>
  </g>
  <g id="skin-shadow"/>
  <g id="line">
    <path fill="none" stroke="#000000" stroke-linecap="round" stroke-linejoin="round" stroke-width="2" d="M20.4785,24.0044 c0.0371-1.1914,0.1895-2.5352,0.627-4.1616c1.4795-5.5,7.2773-8.9658,13.709-8.9658c5.4003,0,8,3,8,3 c4.1689,0.374,7.373,3.8515,7.4052,8.0371c0.3867,7.1796,1.0244,7.1523,3.4287,12.8222c1.7159,3.9698,1.0762,8.5567-1.6377,11.9038"/>
    <path d="M41.873,30c0,1.1045-0.8955,2-2,2c-1.1044,0-2-0.8955-2-2s0.8956-2,2-2C40.9775,28,41.873,28.8955,41.873,30"/>
    <path fill="none" stroke="#000000" stroke-linecap="round" stroke-linejoin="round" stroke-width="2" d="M37.4375,38 c1.75,0-0.875,0,1.5625,0"/>
    <path fill="none" stroke="#000000" stroke-linecap="round" stroke-linejoin="round" stroke-width="2" d="M55,60v-3 c0-4.9941-5.0059-9-10-9c-3.3652,2.8027-6.8389,3.6934-10.0937,3.6934c-0.7042,0-1.4415-0.0655-2.0538-0.1402"/>
    <path fill="none" stroke="#000000" stroke-linecap="round" stroke-linejoin="round" stroke-miterlimit="10" stroke-width="2" d="M32.3457,21.542C30.1553,24.8276,30.4473,24.3462,27,31"/>
    <path fill="none" stroke="#000000" stroke-linecap="round" stroke-linejoin="round" stroke-miterlimit="10" stroke-width="2" d="M22,32.6025c2.25-4.333,4.1094-7.81,5.5313-9.6025"/>
    <path fill="none" stroke="#000000" stroke-linecap="round" stroke-linejoin="round" stroke-miterlimit="10" stroke-width="2" d="M17,60c2-9,4-17.4111,4-17.4111S20.4141,41.8286,19,39c-2-4,0-9,2-12"/>
    <path fill="none" stroke="#000000" stroke-linecap="round" stroke-linejoin="round" stroke-miterlimit="10" stroke-width="2" d="M35,23c-1.2832,2.5649-2.8262,5.4771-4,9"/>
    <path fill="none" stroke="#000000" stroke-linecap="round" stroke-linejoin="round" stroke-miterlimit="10" stroke-width="2" d="M29,60c0.0049-0.5703-0.6973-9.4512,0-14.0137c0.2666-1.7461,2.1914-2.289,3-3.9863c1.9063-4,2.334-7.8057,3.9365-14"/>
    <path fill="none" stroke="#000000" stroke-linecap="round" stroke-linejoin="round" stroke-width="2" d="M37.3262,19.7109 c0.5107-0.5605,0.9062-1.1352,1.6738-1.7114c0,0,4,5.0005,7,8c0,0,1,2.0005,1,5.0005c0,9-5.127,14-11.0635,14 C35.7178,45,35.377,44.9771,35,44.9438"/>
  </g>
</svg>
