<svg id="emoji" viewBox="0 0 72 72" xmlns="http://www.w3.org/2000/svg">
  <g id="color">
    <g>
      <path fill="#61b2e4" d="M39.8089,48.7871h4.1716a2,2,0,0,1,0,4H42.8887"/>
      <path fill="#61b2e4" d="M42.8887,52.7871c.0517.0674.1064.1348.167.2031.8574.9737,2.81,2.1866,7.2353,2.4356a9.9772,9.9772,0,0,0,5.6514-1.23A10.6383,10.6383,0,0,0,60.7,47.6982a9.509,9.509,0,0,0,.3359-2.624V7a2,2,0,0,1,4,0V45.0742A13.4992,13.4992,0,0,1,64.543,48.81a14.708,14.708,0,0,1-6.5674,8.832A13.6886,13.6886,0,0,1,50.99,59.4463q-.4584,0-.9238-.0264c-4.7773-.2685-8.1924-1.5967-10.1523-3.9482A7.1491,7.1491,0,0,1,38.5,52.8037l-1.5225-.0166a2,2,0,0,1,.0225-4h2.8089"/>
    </g>
    <path fill="#92d3f5" d="M32.823,42.7361a4.1445,4.1445,0,0,1,2.5225.8313c2.423,1.8508,7.6443,1.8431,10.6744,1.5713,5.5412-.4972,10.517-1.1755,10.941-8.15l-.4014-7.026,1.5272.04V26.6766s-8.39-7.1786-24.0823-1.8519h-4.79c-14.7722-5.05-24.2808,1.8519-24.2808,1.8519v3.3261l1.5271-.04-.4014,7.026c.424,6.9749,5.4,7.6532,10.941,8.15,3.03.2718,8.2514.2795,10.6744-1.5713a4.1445,4.1445,0,0,1,2.5225-.8313Z"/>
    <path fill="#d0cfce" d="M33.9546,27.8015a14.5976,14.5976,0,0,1,6.4447-1.5183h8.9545a4.0118,4.0118,0,0,1,4,4V37.85a4.0118,4.0118,0,0,1-4,4H41.5825a8.1306,8.1306,0,0,1-6.1448-3.3763l-1.7829-2.8064c-1.18-1.8569-3.1338-1.8723-4.3424-.034l-1.89,2.8745A8.305,8.305,0,0,1,21.2248,41.85H13.6661a4.0118,4.0118,0,0,1-4-4V30.2832a4.0118,4.0118,0,0,1,4-4h8.6975a15.4435,15.4435,0,0,1,6.5732,1.5183A5.3377,5.3377,0,0,0,33.9546,27.8015Z"/>
    <path fill="#9b9b9a" d="M47.8415,26.2832h3.3c1.815,0,3.3,1.8,3.3,4V37.85a4.0118,4.0118,0,0,1-4,4h-6.39"/>
    <polygon stroke="#000" stroke-linecap="round" stroke-linejoin="round" stroke-width="2" points="60.428 18.572 65.62 18.572 65.573 23.777 60.381 23.777 60.428 18.572"/>
    <polygon stroke="#000" stroke-linecap="round" stroke-linejoin="round" stroke-width="2" points="60.428 18.572 65.62 18.572 65.573 23.777 60.381 23.777 60.428 18.572"/>
  </g>
  <g id="line">
    <path fill="none" stroke="#000" stroke-linecap="round" stroke-linejoin="round" stroke-width="2" d="M32.823,42.7361a4.1445,4.1445,0,0,1,2.5225.8313c2.423,1.8508,7.6443,1.8431,10.6744,1.5713,5.5412-.4972,10.517-1.1755,10.941-8.15l-.4014-7.026,1.5272.04V26.6766s-8.39-7.1786-24.0823-1.8519h-4.79c-14.7722-5.05-24.2808,1.8519-24.2808,1.8519v3.3261l1.5271-.04-.4014,7.026c.424,6.9749,5.4,7.6532,10.941,8.15,3.03.2718,8.2514.2795,10.6744-1.5713a4.1445,4.1445,0,0,1,2.5225-.8313Z"/>
    <path fill="none" stroke="#000" stroke-linecap="round" stroke-linejoin="round" stroke-width="2" d="M33.9546,27.8015a14.5976,14.5976,0,0,1,6.4447-1.5183h8.9545a4.0118,4.0118,0,0,1,4,4V37.85a4.0118,4.0118,0,0,1-4,4H41.5825a8.1306,8.1306,0,0,1-6.1448-3.3763l-1.7829-2.8064c-1.18-1.8569-3.1338-1.8723-4.3424-.034l-1.89,2.8745A8.305,8.305,0,0,1,21.2248,41.85H13.6661a4.0118,4.0118,0,0,1-4-4V30.2832a4.0118,4.0118,0,0,1,4-4h8.6975a15.4435,15.4435,0,0,1,6.5732,1.5183A5.3377,5.3377,0,0,0,33.9546,27.8015Z"/>
    <path fill="none" stroke="#000" stroke-linecap="round" stroke-linejoin="round" stroke-width="2" d="M63.0361,5a2,2,0,0,1,2,2V45.0742A13.4992,13.4992,0,0,1,64.543,48.81a14.708,14.708,0,0,1-6.5674,8.832A13.6886,13.6886,0,0,1,50.99,59.4463q-.4584,0-.9238-.0264c-4.7773-.2685-8.1924-1.5967-10.1523-3.9482A7.1491,7.1491,0,0,1,38.5,52.8037l-1.5225-.0166A2.0007,2.0007,0,0,1,35,50.7764"/>
  </g>
</svg>
