<svg id="emoji" viewBox="0 0 72 72" xmlns="http://www.w3.org/2000/svg">
  <g id="color"/>
  <g id="hair"/>
  <g id="skin">
    <circle cx="34.334" cy="52" r="3" fill="#fadcbc" stroke="#fadcbc"/>
    <path fill="#fadcbc" stroke="#fadcbc" d="M23.666,47.085c-1.292,2.042-0.959,5.417-1.042,11.125c-0.0283,1.917,0.084,2.7588,2.4073,2.7588 c0,0-0.5313-3.2813-0.0313-9.25c0.5-5.9688,3.8125-5.5938,7.8125-6.6563s8,1.875,9.1563,3.4688c1.1562,1.5937,1,12.4375,1,12.4375 c3.2187,0,2.2812-2.5938,2.2812-2.5938c0,2.5938,1.291-10.168-0.751-12.793C43.126,43.8174,41,42,41,42l-2-2l1-7l6-9l5-14h-3 l-7,12l-6,5l-2,1l-11-3l-11-4.9995l-1,3L20,29l9,6l-2,7C26.6885,43.3945,25.333,44.4502,23.666,47.085z"/>
  </g>
  <g id="skin-shadow"/>
  <g id="line">
    <circle cx="34.334" cy="52" r="3" fill="none" stroke="#000000" stroke-miterlimit="10" stroke-width="2"/>
    <path fill="none" stroke="#000000" stroke-linecap="round" stroke-linejoin="round" stroke-miterlimit="10" stroke-width="2" d="M26.3027,48.0938"/>
    <path fill="none" stroke="#000000" stroke-linecap="round" stroke-linejoin="round" stroke-miterlimit="10" stroke-width="2" d="M28,42l0.7168-5.0205c0.1562-1.0889-0.4658-2.4785-1.3809-3.0889l-5.6718-3.7812c-0.9151-0.6104-2.4356-1.5723-3.3789-2.1382 l-6.5704-3.9419c-0.9433-0.5659-1.4902-1.7036-1.2148-2.5288c0.2754-0.8252,1.3193-1.1275,2.3203-0.6724l7.3594,3.3443 c1.001,0.455,2.6885,1.0644,3.75,1.354l7.1406,1.9472C32.1318,27.7632,33.4502,27.7749,34,27.5 c0.5498-0.2749,1.6914-1.0762,2.5361-1.7803l2.9278-2.4394c0.8447-0.7041,1.9892-2.0576,2.5439-3.0078l4.9844-8.545 C47.5469,10.7773,48.6748,10,49.5,10c0.8252,0,1.1973,0.8477,0.8271,1.8833l-3.6542,10.2334 c-0.3702,1.0356-1.1719,2.6323-1.7823,3.5474l-3.7812,5.6718c-0.6104,0.9151-1.2364,2.5547-1.3926,3.6436l-0.4336,3.041 C39.127,39.1094,39.2246,40.4502,39.5,41c0.2754,0.5498,0.5,1,0.5,1"/>
    <path fill="none" stroke="#000000" stroke-linecap="round" stroke-linejoin="round" stroke-miterlimit="10" stroke-width="2" d="M25,60c0-4,0-6,0-8c0-3.4307,1.8301-5.458,4-6c4-1,6-1,10,0c2.1689,0.542,4,2.6543,4,6c0,2,0,5.0957,0,8"/>
    <path fill="none" stroke="#000000" stroke-linecap="round" stroke-linejoin="round" stroke-miterlimit="10" stroke-width="2" d="M46.167,48.0938"/>
  </g>
</svg>
