<svg id="emoji" viewBox="0 0 72 72" xmlns="http://www.w3.org/2000/svg">
  <g id="skin">
    <path fill="#fcea2b" d="M45.1849,42.8973s-3.5271-7.4355-4.29-9.914l-1.7159,8.9608-4.8617-1.0486-4.8617.286-1.8112-10.486-.9533-.858c-.5719-1.5252-5.8149-1.8112-8.1028-3.7177-1.62-1.43-3.05-6.4823-3.6224-8.77l1.2393-1.5253,3.7177,6.8636,8.3888,3.05L39.4653,27.073,42.23,29.0749l5.3383,11.63.7626,2.9552Z"/>
    <circle cx="33.3643" cy="19.1609" r="2.8598" fill="#fcea2b"/>
  </g>
  <g id="color">
    <path fill="#92d3f5" d="M64.8223,41.2768c0-1.8112-11.3439,2.86-16.11,2.86s-9.5327-2.86-15.2523-2.86-9.5327,2.86-15.2524,2.86S3.8129,39.4656,3.8129,41.1815c0,5.0523-.2859,7.15,1.6206,10.6766s9.5327,3.5271,12.4878,6.5776c2.2879,2.3831,6.7683,1.7158,9.7234,1.7158,2.0972,0,4.3851.0954,8.58.0954,3.6224,0,10.0093-1.2393,12.6785-1.2393,2.1925,0,5.5289-3.2411,6.1962-4.5757,1.9066-3.8131,6.2916-.9533,7.8168-3.9084C65.0129,46.71,64.8223,46.52,64.8223,41.2768Z"/>
    <circle cx="14.2989" cy="14.3945" r="2.8598" fill="#ea5a47"/>
  </g>
  <g id="line">
    <path fill="none" stroke="#000" stroke-linecap="round" stroke-linejoin="round" stroke-width="2" d="M4.7665,40.9908c2.86,0,8.5794,2.86,14.2991,2.86s9.5327-2.86,15.2523-2.86,10.486,2.86,15.2523,2.86,6.6729-2.86,14.2991-2.86"/>
    <path fill="none" stroke="#000" stroke-linecap="round" stroke-linejoin="round" stroke-width="2" d="M43.8506,48.617a19.97,19.97,0,0,0,5.72.9533c2.5739,0,4.3851-.858,6.6729-1.6206"/>
    <path fill="none" stroke="#000" stroke-linecap="round" stroke-linejoin="round" stroke-width="2" d="M12.202,48.5217A26.5093,26.5093,0,0,0,19.0656,49.57c5.72,0,9.5327-2.86,15.2523-2.86"/>
    <path fill="none" stroke="#000" stroke-linecap="round" stroke-linejoin="round" stroke-width="2" d="M24.7852,55.29c3.05-.858,5.91-2.0019,9.5327-2.0019,4.1944,0,7.9121,1.5252,11.4392,2.3832"/>
    <circle cx="14.2992" cy="14.3946" r="2.8598" fill="none" stroke="#000" stroke-miterlimit="10" stroke-width="2"/>
    <circle cx="33.3643" cy="19.1609" r="3" fill="none" stroke="#000" stroke-miterlimit="10" stroke-width="2"/>
    <path fill="none" stroke="#000" stroke-linecap="round" stroke-linejoin="round" stroke-width="2" d="M28.598,40.9908V34.3179a11.7319,11.7319,0,0,0-.4766-3.3364c-.286-.7627-.4767-1.43-.4767-1.43"/>
    <path fill="none" stroke="#000" stroke-linecap="round" stroke-linejoin="round" stroke-width="2" d="M40.0372,33.3646l-.9532,7.6262"/>
    <path fill="none" stroke="#000" stroke-linecap="round" stroke-linejoin="round" stroke-width="2" d="M17.0634,15.2525l2.3832,6.7682a4.1985,4.1985,0,0,0,2.4785,2.2879l3.9084.9532a16.7367,16.7367,0,0,0,3.7178.572l8.5794.6673a6.0306,6.0306,0,0,1,3.2411,1.5252l.1907.1907a11.0071,11.0071,0,0,1,2.0018,3.1458L44.327,33.46c.3813.9532.9532,2.5738,1.3345,3.5271L48.426,43.374"/>
    <path fill="none" stroke="#000" stroke-linecap="round" stroke-linejoin="round" stroke-width="2" d="M37.395,18.4363s.6362-.1686.936.186c.3531.4163.4056,1.7478.7962,2.39a3.3624,3.3624,0,0,0,1.6458,1.417"/>
  </g>
</svg>
