<svg id="emoji" viewBox="0 0 72 72" xmlns="http://www.w3.org/2000/svg">
  <g id="skin">
    <circle cx="34.3182" cy="12.4879" r="2.8598" fill="#a57939"/>
    <path fill="#a57939" d="M28.5986,24.785,26.978,63.8692h3.1458l3.2411-23.8318h1.9066l3.2411,23.8318h3.1458L40.0378,24.785s.1907,3.9085,1.3346,5.72a5.732,5.732,0,0,0,5.815,2.7645s4.29-.572,5.0523-2.0972a1.89,1.89,0,0,0,0-1.8113c-.0953-.2859-2.5738.6673-2.5738.6673l-2.7645.4767L44.9,29.4561l-1.2393-1.43-1.9065-6.9589L38.4173,19.828l-9.2468-.1906-3.2411,4.1944-.4766,4.099-1.6206,1.144-6.3869-5.91s-1.43,1.62-.4766,2.9551,3.6224,5.0524,5.6243,5.4337a3.9687,3.9687,0,0,0,4.1944-1.3346A11.8051,11.8051,0,0,0,28.5986,24.785Z"/>
  </g>
  <g id="color">
    <circle cx="18.9065" cy="17.0935" r="1.9065" fill="#ea5a47"/>
    <circle cx="38.9065" cy="6.0935" r="1.9065" fill="#92d3f5"/>
    <circle cx="52.9065" cy="26.0935" r="1.9065" fill="#b1cc33"/>
  </g>
  <g id="line">
    <circle cx="34.5" cy="12.3" r="3" fill="none" stroke="#000" stroke-miterlimit="10" stroke-width="2"/>
    <path fill="none" stroke="#000" stroke-linecap="round" stroke-linejoin="round" stroke-width="2" d="M39.0845,24.785l2.4786,37.1776a1.6148,1.6148,0,0,1-1.43,1.9066,2.0408,2.0408,0,0,1-1.8112-1.9066L35.5574,41.9439c-.0953-1.0486-.6672-1.9065-1.2392-1.9065-.4766,0-1.0486.8579-1.2393,1.9065L30.3145,61.9626a2.0408,2.0408,0,0,1-1.8113,1.9066,1.6148,1.6148,0,0,1-1.43-1.9066L29.5518,24.785"/>
    <path fill="none" stroke="#000" stroke-linecap="round" stroke-linejoin="round" stroke-width="2" d="M18.1126,23.8318,21.64,27.8355c1.7159,2.0019,3.5271,1.43,3.9084-1.1439l.3813-2.0019c.4766-2.5738,2.4785-4.957,4.5757-5.1476a33.9994,33.9994,0,0,1,7.6262,0c2.0972.2859,4.1944,2.5738,4.5757,5.1476l.3813,2.0019c.4766,2.5738,2.4785,4.29,4.5757,3.7177,2.0972-.4766,3.8131-.9532,3.8131-.9532"/>
  </g>
</svg>
