<svg id="emoji" viewBox="0 0 72 72" xmlns="http://www.w3.org/2000/svg">
  <g id="skin">
    <circle cx="35.7952" cy="12.733" r="2.8598" fill="#fcea2b"/>
    <path fill="#fcea2b" d="M35.5092,19.2152,21.5914,20.2638l-7.2448-.9532s-1.3346.6673.4766,1.9065A15.9222,15.9222,0,0,0,21.8774,23.6c3.3365,0,6.5931-.7716,7.3539.963a14.3437,14.3437,0,0,0,1.0574,3.1846l.8421,1.3547-.7149,5.3087-2.3165,5.1858L16.73,45.0489l.3813,2.86,12.7261-2.9532L33.698,40.95l-.1163,1.46-.2678,3.1355a13.2684,13.2684,0,0,1-2.0981,6.1063l-3.4576,5.3156,2.5442,1.796,6.99-8.287a3.6139,3.6139,0,0,0,.76-1.5219l1.8079-7.88a3.9249,3.9249,0,0,0,.084-.5314l.6095-6.892s.6414-5.6152,1.3351-10.3534c.8377-1.9241,4.5835-.0786,7.8246.8747,1.8113.4766,4.29,1.5252,7.15,2.0972,2.0972.4766,2.6691-1.8113,2.6691-1.8113L42.0868,18.3573Z"/>
  </g>
  <g id="color">
    <circle cx="11.9634" cy="20.3592" r="2.8598" fill="#ea5a47"/>
  </g>
  <g id="line">
    <circle cx="11.9634" cy="20.3582" r="2.8598" fill="none" stroke="#000" stroke-miterlimit="10" stroke-width="2"/>
    <circle cx="35.7952" cy="12.733" r="3" fill="none" stroke="#000" stroke-miterlimit="10" stroke-width="2"/>
    <path fill="none" stroke="#000" stroke-linecap="round" stroke-linejoin="round" stroke-width="2" d="M35.8905,37.4227a90.5555,90.5555,0,0,1-5.923,6.8645,2.9679,2.9679,0,0,1-1.2624.6957l-9.7828,2.64a1.6983,1.6983,0,0,1-2.0972-1.1439A2.2778,2.2778,0,0,1,18.35,44.3816s5.5886-2.5513,8.5521-4.4092a5.8866,5.8866,0,0,0,2.2209-2.5418,25.0686,25.0686,0,0,0,2.1391-6.2632c.2841-2.2769-1.0744-6.7349-1.0744-6.7349"/>
    <path fill="none" stroke="#000" stroke-linecap="round" stroke-linejoin="round" stroke-width="2" d="M33.4778,40.9126s.0743,1.6874.0494,3.5222a11.9068,11.9068,0,0,1-2.0585,6.5386l-3.3,4.8475a1.7776,1.7776,0,0,0,.3813,2.4785,2.3716,2.3716,0,0,0,2.7645-.4767s3.7957-4.72,5.6483-7.3a7.8939,7.8939,0,0,0,1.2806-2.8262L39.337,42.977a20.5445,20.5445,0,0,0,.4647-4.2037c.0674-1.5154.1449-3.4686.1415-4.7769-.0009-.6015.4305-6.9214.4305-7.1464"/>
    <path fill="none" stroke="#000" stroke-linecap="round" stroke-linejoin="round" stroke-width="2" d="M12.8214,17.404l6.9588,3.05a6.3671,6.3671,0,0,0,3.5271.1907l2.0972-.6673a23.3584,23.3584,0,0,1,3.7178-.7627l10.486-.6672a12.4482,12.4482,0,0,1,3.7177.4766l15.3477,5.0523"/>
    <path fill="none" stroke="#000" stroke-linecap="round" stroke-linejoin="round" stroke-width="2" d="M31.949,11.0751s-.5469-.3663-.9456-.1285c-.4693.2789-.9519,1.521-1.53,2.0009a3.3623,3.3623,0,0,1-2.0171.8049"/>
  </g>
</svg>
