<svg id="emoji" viewBox="0 0 72 72" xmlns="http://www.w3.org/2000/svg">
  <g id="color">
    <path fill="#186648" d="M27.037,53.4838a16.0022,16.0022,0,0,1-5.4986-6.1161,22.0193,22.0193,0,0,0-3.0177-4.7918,22.81,22.81,0,0,1-3.6337-4.884,8.6843,8.6843,0,0,1-.5067-6.3365c1.4818-4.5742,6.846-4.2015,9.41-7.6226.8955-1.1949,1.5355-2.5609,2.3746-3.7961a9.4526,9.4526,0,0,1,3.67-3.329,5.7439,5.7439,0,0,1,4.85-.1308c.8966.4286,1.6411,1.1316,2.5417,1.5515,1.5467.7212,2.841.1193,4.3856-.1813a10.5144,10.5144,0,0,1,5.1505.1624,6.5606,6.5606,0,0,1,4.6453,5.0269c.1549,1.101-.0431,2.2232.0433,3.3322.2619,3.3584,3.6647,4.6279,5.1839,7.3053a7.6378,7.6378,0,0,1,.5229,5.5734c-.4983,2.004-1.8063,3.665-2.4351,5.6156-.5354,1.6607.1015,3.2129-.1266,4.8834a5.4242,5.4242,0,0,1-1.25,2.6141,9.4833,9.4833,0,0,1-9.4873,3.1522c-1.5994-.4068-3.1893-1.2892-4.8818-1.2041-1.4705.0739-2.77,1.0833-4.2687,1.3172a9.5436,9.5436,0,0,1-4.9014-.7116A15.28,15.28,0,0,1,27.037,53.4838Z"/>
    <path fill="#5c9e31" d="M26.8756,54.2283a10.1828,10.1828,0,0,1-3.6827-4.7245,15.2339,15.2339,0,0,0-1.93-3.7836,15.1262,15.1262,0,0,1-2.38-3.8209,7.8454,7.8454,0,0,1,.0275-5.2247c1.3878-3.8889,5.3361-3.9206,7.4521-6.9218.7391-1.0482,1.3-2.2221,2-3.3a9.3115,9.3115,0,0,1,2.9288-2.995,3.95,3.95,0,0,1,3.5993-.4168c.6366.2986,1.1431.8345,1.7833,1.1257,1.0994.5,2.096-.0816,3.2589-.4291a6.9765,6.9765,0,0,1,3.8033-.1926,4.2278,4.2278,0,0,1,3.12,3.8751c.0447.9036-.1732,1.8472-.18,2.7617-.02,2.77,2.4195,3.6065,3.3742,5.7312a6.8515,6.8515,0,0,1,.033,4.59c-.4964,1.6942-1.57,3.1553-2.16,4.8135-.502,1.4118-.129,2.6591-.4041,4.0594a5.6666,5.6666,0,0,1-1.0917,2.2481c-1.813,2.4111-4.7545,3.7212-7.2252,3.2181-1.1584-.2359-2.2795-.8669-3.5382-.6888-1.0935.1548-2.12,1.0748-3.2444,1.3641a6.0141,6.0141,0,0,1-3.584-.2789A8.8759,8.8759,0,0,1,26.8756,54.2283Z"/>
    <path fill="#b1cc33" d="M22.4273,48.5436c.6659-1.1209,3.6558.55,4.3767.8332a1.8664,1.8664,0,0,0,.7679.1814,1.7769,1.7769,0,0,0,1.1119-.6813,27.4586,27.4586,0,0,0,3.046-4.138A128.562,128.562,0,0,0,38.24,33.204,3.1273,3.1273,0,0,1,39.32,31.7927c2.6713-1.551-.3944,5.5186-.6993,6.1674-1.2658,2.6943-2.6557,5.3278-4.0929,7.9341-1.0574,1.9176-3.6009,4.6059-2.0948,6.8366a7.7554,7.7554,0,0,0,2.2092,1.9425c.4249.2867.82.4833,1.013.9023-1.5271.9373-4.5053-.0723-6.0293-.66C25.235,53.22,21.9,49.4383,22.4273,48.5436Z"/>
    <path fill="none" stroke="#b1cc33" stroke-linecap="round" stroke-linejoin="round" stroke-width="2" d="M33.43,34.0271a22.19,22.19,0,0,0,2.3317,5.8291"/>
    <path fill="none" stroke="#b1cc33" stroke-linecap="round" stroke-linejoin="round" stroke-width="2" d="M29.9324,38.69A22.1993,22.1993,0,0,0,32.2641,44.52"/>
    <path fill="none" stroke="#b1cc33" stroke-linecap="round" stroke-linejoin="round" stroke-width="2" d="M43.2706,40.172a22.197,22.197,0,0,1-6.2764.1482"/>
    <path fill="none" stroke="#b1cc33" stroke-linecap="round" stroke-linejoin="round" stroke-width="2" d="M40.3581,45.2214a22.197,22.197,0,0,1-6.2764.1482"/>
  </g>
  <g id="line">
    <path fill="none" stroke="#000" stroke-linecap="round" stroke-linejoin="round" stroke-width="2" d="M27.037,53.4838a16.0022,16.0022,0,0,1-5.4986-6.1161,22.0193,22.0193,0,0,0-3.0177-4.7918,22.81,22.81,0,0,1-3.6337-4.884,8.6843,8.6843,0,0,1-.5067-6.3365c1.4818-4.5742,6.846-4.2015,9.41-7.6226.8955-1.1949,1.5355-2.5609,2.3746-3.7961a9.4526,9.4526,0,0,1,3.67-3.329,5.7439,5.7439,0,0,1,4.85-.1308c.8966.4286,1.6411,1.1316,2.5417,1.5515,1.5467.7212,2.841.1193,4.3856-.1813a10.5144,10.5144,0,0,1,5.1505.1624,6.5606,6.5606,0,0,1,4.6453,5.0269c.1549,1.101-.0431,2.2232.0433,3.3322.2619,3.3584,3.6647,4.6279,5.1839,7.3053a7.6378,7.6378,0,0,1,.5229,5.5734c-.4983,2.004-1.8063,3.665-2.4351,5.6156-.5354,1.6607.1015,3.2129-.1266,4.8834a5.4242,5.4242,0,0,1-1.25,2.6141,9.4833,9.4833,0,0,1-9.4873,3.1522c-1.5994-.4068-3.1893-1.2892-4.8818-1.2041-1.4705.0739-2.77,1.0833-4.2687,1.3172a9.5436,9.5436,0,0,1-4.9014-.7116A15.28,15.28,0,0,1,27.037,53.4838Z"/>
  </g>
</svg>
