<svg id="emoji" viewBox="0 0 72 72" xmlns="http://www.w3.org/2000/svg">
  <g id="line-supplement">
    <path d="M35.9772,30.4187A10.9345,10.9345,0,0,0,25.0986,43.074a2.5,2.5,0,0,1,1.3786-.4414,2.5356,2.5356,0,0,1,2.3448,1.4746,39.3435,39.3435,0,0,1,2.6435-5.2178,3.39,3.39,0,0,1,2.6651-1.9629,2.4872,2.4872,0,0,1,1.4521.4073c1.2295-1.5811,2.6338-1.69,3.6338-1.1846a3.3452,3.3452,0,0,1,1.7051,2.76,2.554,2.554,0,0,1,.83.2011,2.3206,2.3206,0,0,1,1.4755,2.2735,5.8368,5.8368,0,0,1-.6005,2.5029,2.6279,2.6279,0,0,1,.6005.77,4.0262,4.0262,0,0,1-.12,3.6875l-.8525,1.6123c-.0711.2164-.1292.4324-.19.6486a11.01,11.01,0,0,0-6.0874-20.1867Z"/>
  </g>
  <g id="color">
    <circle cx="36.0043" cy="35.3184" r="23.9004" fill="#fcea2b"/>
    <path fill="#fcea2b" d="M35.6039,66.3682c-.0225,0-.0459-.001-.0684-.003l-9.6992-.6992a.95.95,0,0,1-.8633-1.1338c.5381-2.6924.9893-4.709,1.23-5.792l.001-.0019c-.1533-.3145-.3066-.6406-.46-.9658-.1963-.418-.3925-.836-.59-1.23-.2061-.4112-.6358-1.2686-1.2969-8.64-.2021-2.0176-.1514-3.48.7246-4.5029a2.4611,2.4611,0,0,1,1.9219-.9326,2.5354,2.5354,0,0,1,2.3447,1.4746,39.3438,39.3438,0,0,1,2.6436-5.2178,3.39,3.39,0,0,1,2.665-1.9629,2.4882,2.4882,0,0,1,1.4522.4072c1.23-1.581,2.6338-1.69,3.6338-1.1845a3.345,3.345,0,0,1,1.705,2.76,2.5531,2.5531,0,0,1,.83.2012,2.32,2.32,0,0,1,1.4756,2.2735,5.8357,5.8357,0,0,1-.6006,2.5029,2.6265,2.6265,0,0,1,.6006.77,4.0262,4.0262,0,0,1-.12,3.6875l-.8526,1.6123c-.2158.6582-.3769,1.3184-.5332,1.959l-.122.498a21.71,21.71,0,0,1-2.39,6.5274,5.8081,5.8081,0,0,1-1.625,1.9775c-.0683.0664-.1338.1279-.1953.1865a1.7238,1.7238,0,0,0-.29.3076l-.0723.4434a36.5458,36.5458,0,0,0-.5019,3.7861.95.95,0,0,1-.9483.8907Z"/>
    <path d="M35.9772,30.4187A10.9345,10.9345,0,0,0,25.0986,43.074a2.5,2.5,0,0,1,1.3786-.4414,2.5356,2.5356,0,0,1,2.3448,1.4746,39.3435,39.3435,0,0,1,2.6435-5.2178,3.39,3.39,0,0,1,2.6651-1.9629,2.4872,2.4872,0,0,1,1.4521.4073c1.2295-1.5811,2.6338-1.69,3.6338-1.1846a3.3452,3.3452,0,0,1,1.7051,2.76,2.554,2.554,0,0,1,.83.2011,2.3206,2.3206,0,0,1,1.4755,2.2735,5.8368,5.8368,0,0,1-.6005,2.5029,2.6279,2.6279,0,0,1,.6005.77,4.0262,4.0262,0,0,1-.12,3.6875l-.8525,1.6123c-.0711.2164-.1292.4324-.19.6486a11.01,11.01,0,0,0-6.0874-20.1867Z"/>
  </g>
  <g id="line">
    <path fill="none" stroke="#000" stroke-linecap="round" stroke-linejoin="round" stroke-width="2" d="M42.8042,57.3184a22.9792,22.9792,0,1,0-28.8-15.2,23.7912,23.7912,0,0,0,7.1,10.8"/>
    <path fill="none" stroke="#000" stroke-linecap="round" stroke-linejoin="round" stroke-width="2" d="M23.1042,26.0684c4.4-.1,7.9-1.4,8.8-3.1"/>
    <path fill="none" stroke="#000" stroke-linecap="round" stroke-linejoin="round" stroke-width="2" d="M48.9042,26.0684c-4.4-.1-7.9-1.4-8.8-3.1"/>
    <path fill="none" stroke="#000" stroke-linecap="round" stroke-linejoin="round" stroke-width="2" d="M25.9042,64.7184c.6-3,1.1-5.2,1.3-6.1-.4-.8-.8-1.7-1.2-2.5-.2-.4-.6-1.6-1.2-8.3-.2-2-.1-3.1.5-3.8a1.5628,1.5628,0,0,1,1.2-.6c1.3,0,1.7,1.2,2,2.4l.1.3.2.6a39.4783,39.4783,0,0,1,3.5-7.5c1.8-3,3.5-.6,3.5-.6,2.2-4.1,5-.8,4,1.3a1.9811,1.9811,0,0,1,1.6-.1,1.4158,1.4158,0,0,1,.9,1.4,5.2848,5.2848,0,0,1-.9,2.8,2.1889,2.1889,0,0,1,1,.9,3.0777,3.0777,0,0,1-.1,2.8l-.9,1.7c-.3.9-.5,1.8-.7,2.6a20.7835,20.7835,0,0,1-2.3,6.3,4.7436,4.7436,0,0,1-1.4,1.7c-.4.4-.7.6-.8,1a42.7765,42.7765,0,0,0-.6,4.4"/>
    <path fill="none" stroke="#000" stroke-linecap="round" stroke-linejoin="round" stroke-width="2" d="M26.2418,43.4453a10.001,10.001,0,1,1,15.0545,6.31"/>
  </g>
</svg>
