<svg id="emoji" viewBox="0 0 72 72" xmlns="http://www.w3.org/2000/svg">
  <g id="color">
    <circle cx="36" cy="36" r="23" fill="#FCEA2B"/>
    <path d="M31.7992,49H27.5c-2.2064-0.0065-3.9935-1.7936-4-4l0,0c0.0065-2.2064,1.7936-3.9935,4-4h17 c2.2064,0.0065,3.9935,1.7936,4,4l0,0c-0.0065,2.2064-1.7936,3.9935-4,4h-2.1221"/>
    <path d="M40.873,49h-0.506"/>
    <path d="M42.3779,49H40.873"/>
    <path fill="#92D3F5" d="M50.3869,40.63c-0.5305-0.5275-0.8278-1.2455-0.8256-1.9936c0-2.4789,2.3433-4.8508,2.443-4.95 c0.2068-0.2071,0.5424-0.2073,0.7495-0.0005c0.0002,0.0002,0.0003,0.0003,0.0005,0.0005c0.1,0.1,2.4432,2.4718,2.4437,4.9512l0,0 c-0.0013,1.5569-1.2646,2.818-2.8215,2.8167C51.6303,41.4537,50.9149,41.1572,50.3869,40.63z"/>
    <path fill="#EA5A47" d="M41.74,41.818c0,6.0751-2.5324,11-5.6562,11s-5.6563-4.9249-5.6563-11"/>
  </g>
  <g id="hair"/>
  <g id="skin"/>
  <g id="skin-shadow"/>
  <g id="line">
    <circle cx="36" cy="36" r="23" fill="none" stroke="#000000" stroke-miterlimit="10" stroke-width="2"/>
    <path d="M30,30.9205c-0.0014,1.6569-1.3456,2.9989-3.0025,2.9975c-1.6569-0.0014-2.9989-1.3456-2.9975-3.0025 s1.3456-2.9989,3.0025-2.9975C28.6591,27.92,30.0008,29.2639,30,30.9205"/>
    <path d="M48,30.9354c-0.0014,1.6569-1.3456,2.9989-3.0025,2.9975c-1.6569-0.0014-2.9989-1.3456-2.9975-3.0025 c0.0014-1.6569,1.3456-2.9989,3.0025-2.9975C46.6591,27.9348,48.0008,29.2788,48,30.9354"/>
    <path fill="none" stroke="#000000" stroke-linecap="round" stroke-linejoin="round" stroke-width="2" d="M20.8782,25.8894 c1.7142,0.4976,3.5523,0.3383,5.1553-0.4469c1.3412-0.6851,2.429-1.7801,3.1051-3.1259"/>
    <path fill="none" stroke="#000000" stroke-linecap="round" stroke-linejoin="round" stroke-width="2" d="M51.1386,25.8894 c-1.7142,0.4976-3.5523,0.3383-5.1553-0.4469c-1.3412-0.6851-2.429-1.7801-3.1051-3.1259"/>
    <path fill="none" stroke="#000000" stroke-linecap="round" stroke-miterlimit="10" stroke-width="2" d="M41.74,41.818 c0,6.0751-2.5324,11-5.6562,11s-5.6563-4.9249-5.6563-11"/>
    <path fill="none" stroke="#000000" stroke-miterlimit="10" stroke-width="2" d="M50.3869,40.63 c-0.5305-0.5275-0.8278-1.2455-0.8256-1.9936c0-2.4789,2.3433-4.8508,2.443-4.95c0.2068-0.2071,0.5424-0.2073,0.7495-0.0005 c0.0002,0.0002,0.0003,0.0003,0.0005,0.0005c0.1,0.1,2.4432,2.4718,2.4437,4.9512l0,0c-0.0013,1.5569-1.2646,2.818-2.8215,2.8167 C51.6303,41.4537,50.9149,41.1572,50.3869,40.63z"/>
    <path fill="none" stroke="#000000" stroke-miterlimit="2" stroke-width="2" d="M31.7992,49H27.5 c-2.2064-0.0065-3.9935-1.7936-4-4l0,0c0.0065-2.2064,1.7936-3.9935,4-4h17c2.2064,0.0065,3.9935,1.7936,4,4l0,0 c-0.0065,2.2064-1.7936,3.9935-4,4h-2.1221"/>
    <path fill="none" stroke="#000000" stroke-miterlimit="2" stroke-width="2" d="M40.873,49h-0.506"/>
    <path fill="none" stroke="#000000" stroke-miterlimit="2" stroke-width="2" d="M42.3779,49H40.873"/>
  </g>
</svg>
