<svg id="emoji" viewBox="0 0 72 72" xmlns="http://www.w3.org/2000/svg">
  <g id="color">
    <path fill="#EA5A47" stroke="none" d="M39.8231,26.896c0,0,9.7765,0.248,9.8779-3.7507c0.1014-3.9987,1.6859-6.6916-0.7748-8.0222 C45,13,44.8635,21.0219,45.7904,23.0461S38,25,38,25L39.8231,26.896z"/>
    <path fill="#EA5A47" stroke="none" d="M32,27c0,0-10,0-10-4s-1-6,1-8s4,6,3,8s7,2,7,2L32,27z"/>
    <path fill="#D22F27" stroke="none" d="M41.9643,55.8624c0,0-2.1556-6.898,2.8023-3.0179s-3.0179,9.9158-6.7902,6.898 c-3.7723-3.0179-9.808-18.5383-5.4968-33.1965c0,0,3.449-5.1735,6.0357,0c2.5867,5.1735,1.1643,20.6939,0.151,24.1429 c-1.0133,3.449-1.0133,6.0357,2.4357,7.3291"/>
    <rect x="31" y="34" width="9" height="4" fill="#EA5A47" stroke="none"/>
    <rect x="31" y="43" width="9" height="4" fill="#EA5A47" stroke="none"/>
  </g>
  <g id="hair"/>
  <g id="skin"/>
  <g id="skin-shadow"/>
  <g id="line">
    <path fill="none" stroke="#000000" stroke-linecap="round" stroke-linejoin="round" stroke-miterlimit="10" stroke-width="2" d="M23.8571,11.8879c-6.898,10.347,0.8622,14.6582,0.8622,14.6582l6.898,0.8622"/>
    <path fill="none" stroke="#000000" stroke-linecap="round" stroke-linejoin="round" stroke-miterlimit="10" stroke-width="2" d="M23.1893,14.5535c5.3678,1.8034,2.3924,8.5436,2.3924,8.5436l0.8622,0.8622l6.898,0.8622"/>
    <path fill="none" stroke="#000000" stroke-linecap="round" stroke-linejoin="round" stroke-miterlimit="10" stroke-width="2" d="M47.1378,11.8879c0,0,6.898,9.4847-0.8622,14.6582l-6.6891,0.4638"/>
    <path fill="none" stroke="#000000" stroke-linecap="round" stroke-linejoin="round" stroke-miterlimit="10" stroke-width="2" d="M37.6531,24.8216l7.7602-0.8622l0.8622-1.7245c0,0-4.7459-3.2912,1.5071-7.6813"/>
    <polyline fill="none" stroke="#000000" stroke-linecap="round" stroke-linejoin="round" stroke-miterlimit="10" stroke-width="2" points="40.2398,30.8573 45.1669,32.5818 47.1378,30.8573 46.1524,29.1328"/>
    <polyline fill="none" stroke="#000000" stroke-linecap="round" stroke-linejoin="round" stroke-miterlimit="10" stroke-width="2" points="30.7551,30.8573 25.5816,32.5818 23.8571,30.8573 25.5816,29.1328"/>
    <polyline fill="none" stroke="#000000" stroke-linecap="round" stroke-linejoin="round" stroke-miterlimit="10" stroke-width="2" points="30.7551,34.3063 27.3061,40.342 25.5816,41.2043 23.1027,39.9828"/>
    <polyline fill="none" stroke="#000000" stroke-linecap="round" stroke-linejoin="round" stroke-miterlimit="10" stroke-width="2" points="40.2398,34.3063 43.6888,40.342 45.4133,41.2043 48.036,40.0546"/>
    <line x1="34.2041" x2="34.7789" y1="22.2349" y2="24.2468" fill="none" stroke="#000000" stroke-linecap="round" stroke-linejoin="round" stroke-miterlimit="10" stroke-width="2"/>
    <line x1="36.1441" x2="36.7908" y1="24.2468" y2="22.2349" fill="none" stroke="#000000" stroke-linecap="round" stroke-linejoin="round" stroke-miterlimit="10" stroke-width="2"/>
    <path fill="none" stroke="#000000" stroke-linecap="round" stroke-linejoin="round" stroke-miterlimit="10" stroke-width="2" d="M39.3776,33.4441c-5.1735,1.7245-8.3225-0.1249-8.3225-0.1249"/>
    <path fill="none" stroke="#000000" stroke-linecap="round" stroke-linejoin="round" stroke-miterlimit="10" stroke-width="2" d="M30.8403,37.324c0,0,4.8008,2.1556,8.8247,0"/>
    <path fill="none" stroke="#000000" stroke-linecap="round" stroke-linejoin="round" stroke-miterlimit="10" stroke-width="2" d="M41.9643,55.8624c0,0-2.1556-6.898,2.8023-3.0179s-3.0179,9.9158-6.7902,6.898c-3.7723-3.0179-9.808-18.5383-5.4968-33.1965 c0,0,3.449-5.1735,6.0357,0c2.5867,5.1735,1.1643,20.6939,0.151,24.1429c-1.0133,3.449-1.0133,6.0357,2.4357,7.3291"/>
    <path fill="none" stroke="#000000" stroke-linecap="round" stroke-linejoin="round" stroke-miterlimit="10" stroke-width="2" d="M25.5816,48.24h3.1731l1.5865-1.7245l0.7933-4.3112c0,0,5.5529,1.7245,8.7259,0l0.7933,4.3112l1.5865,1.7245h3.1731"/>
    <path fill="none" stroke="#000000" stroke-linecap="round" stroke-linejoin="round" stroke-miterlimit="10" stroke-width="2" d="M31.9321,46.3151c0,0,3.9965,1.7871,7.4455,0.0626"/>
  </g>
</svg>
