<svg id="emoji" viewBox="0 0 72 72" xmlns="http://www.w3.org/2000/svg">
  <g id="color">
    <path fill="#A57939" stroke="none" d="M5,52c0,0,15-3,17-10s14.6667-11.1667,20.8333-8.5833c0,0,6.3333,0.5833,8.25-7.4167C53,18,55,9,62,10 s6.1667,6.3333,4.0833,7.1667C64,18,61,18,60,19.5s-2.1667,16.1667-6.5833,19.8333c0,0-4.9167,6.5-4.6667,9.5833 C49,52,50.5833,61.25,47,61c-3.6293-0.2532-3-7-3-8s-8-3-11-1s-2.1667,8-4.5833,8.5S23.5,60.8333,22.75,59.9167 C22,59,23.3494,53.229,22.25,51.25"/>
  </g>
  <g id="hair"/>
  <g id="skin"/>
  <g id="skin-shadow"/>
  <g id="line">
    <path fill="none" stroke="#000000" stroke-linecap="round" stroke-linejoin="round" stroke-width="2" d="M5,52c0,0,15-3,17-10 s14.6667-11.1667,20.8333-8.5833c0,0,6.3333,0.5833,8.25-7.4167C53,18,55,9,62,10s6.1667,6.3333,4.0833,7.1667C64,18,61,18,60,19.5 s-2.1667,16.1667-6.5833,19.8333c0,0-4.9167,6.5-4.6667,9.5833C49,52,50.5833,61.25,47,61c-3.6293-0.2532-3-7-3-8s-8-3-11-1 s-2.1667,8-4.5833,8.5S23.5,60.8333,22.75,59.9167C22,59,23.3494,53.229,22.25,51.25"/>
  </g>
</svg>
