<svg id="emoji" viewBox="0 0 72 72" xmlns="http://www.w3.org/2000/svg">
  <g id="line-supplement">
    <circle cx="22.25" cy="36.98" r="1.5"/>
    <circle cx="49.75" cy="36.98" r="1.5"/>
    <circle cx="28.75" cy="32" r="1.5"/>
    <circle cx="43.68" cy="31.91" r="1.5"/>
    <circle cx="22.25" cy="47.54" r="1.5"/>
    <circle cx="49.75" cy="47.54" r="1.5"/>
    <circle cx="28.75" cy="42.57" r="1.5"/>
    <circle cx="43.68" cy="42.48" r="1.5"/>
    <circle cx="22.25" cy="27.16" r="1.5"/>
    <circle cx="36" cy="17.47" r="1.5"/>
    <circle cx="49.75" cy="26.66" r="1.5"/>
    <circle cx="28.75" cy="22.26" r="1.5"/>
    <circle cx="43.34" cy="22.26" r="1.5"/>
  </g>
  <g id="color">
    <path fill="#5c9e31" d="M41.2843,56.5638s3.7847,1.5119,4.6456.9267c.7594-.5162,0-3.6731,0-3.6731s4.2762,2.12,5.1621,1.1394c.7968-.8819-1.4891-4.5147-1.4891-4.5147s5.04-.4134,5.46-1.7869c.331-1.0824-2.78-3.5738-2.78-3.5738s6.5379-.9356,6.4527-2.68c-.0746-1.5291-5.8571-1.7869-5.8571-1.7869S59.2226,38.95,59.2324,37.14c.0063-1.1667-4.07-2.2832-4.07-2.2832s4.81-2.1116,4.6658-3.5739c-.1043-1.0619-3.8289-1.8861-3.8289-1.8861s3.4575-3.7435,2.7369-4.9637c-.6057-1.0257-4.7651,0-4.7651,0s2.505-4.54,1.4891-5.5592c-1.2326-1.2363-6.4579.6951-6.4579.6951s1.3259-4.27.0052-5.0631c-1.2881-.7735-5.1622,3.0774-5.1622,3.0774s1.2242-3.4669-.4634-4.956C41.8,11.2312,38.9556,14.116,38.9556,14.116S37.159,10.3436,36,10.3436s-2.9561,4.2687-2.9561,4.2687-2.2019-3.0338-4.1556-2.3825c-1.4891.4963-.7339,5.3531-.7339,5.3531S24.28,13.732,22.9918,14.5055c-1.3207.7931-.5566,4.9712-.5566,4.9712s-4.64-1.8161-5.8961-.6032c-1.5494,1.4966,1.4891,5.5592,1.4891,5.5592s-4.1593-1.0257-4.7651,0C12.5425,25.6529,16,29.3964,16,29.3964s-3.7245.8242-3.8289,1.8861c-.1437,1.4623,4.6658,3.5739,4.6658,3.5739s-4.0765,1.1165-4.07,2.2832c.01,1.81,4.3827,2.8651,4.3827,2.8651s-3.8116.8673-3.8863,2.3964c-.0852,1.7447,6.4527,2.68,6.4527,2.68s-3.1106,2.4914-2.78,3.5738c.42,1.3735,5.46,1.7869,5.46,1.7869s-2.2858,3.6328-1.4891,4.5147c.886.9807,5.1622-1.1394,5.1622-1.1394s-.7595,3.1569,0,3.6731c.8609.5852,4.5071-.7879,4.5071-.7879L32.42,55.3344l7.1981.02Z"/>
    <path fill="#1e50a0" d="M34.8924,22.6011a3.1363,3.1363,0,0,1,3.0744,2.1959c1.3045,3.1451-.2042,10.2555.3486,13.6152.4289,2.6071,4.2757,7.02,4.2822,9.6624C42.6093,52.9057,39.0648,56,36,55.9583c-4.2147-.0573-6.5467-5.3142-6.5976-7.8837-.0651-3.294,3.399-7.1722,4.2822-9.6624.8375-2.3612,1.576-9.1151.0765-10.5019-.6311-.5837-4.3587-.5879-4.3587-.5879S32.5866,22.6011,34.8924,22.6011Z"/>
    <circle cx="22.2487" cy="36.9788" r="1.5" fill="#fcea2b"/>
    <circle cx="22.2487" cy="37.4788" r="1" fill="#1e50a0"/>
    <circle cx="49.7513" cy="36.9788" r="1.5" fill="#fcea2b"/>
    <circle cx="49.7513" cy="37.4788" r="1" fill="#1e50a0"/>
    <circle cx="28.752" cy="32" r="1.5" fill="#fcea2b"/>
    <circle cx="28.752" cy="32.5" r="1" fill="#1e50a0"/>
    <circle cx="43.676" cy="31.9121" r="1.5" fill="#fcea2b"/>
    <circle cx="43.676" cy="32.4121" r="1" fill="#1e50a0"/>
    <circle cx="22.2487" cy="47.5442" r="1.5" fill="#fcea2b"/>
    <circle cx="22.2487" cy="48.0442" r="1" fill="#1e50a0"/>
    <circle cx="49.7513" cy="47.5442" r="1.5" fill="#fcea2b"/>
    <circle cx="49.7513" cy="48.0442" r="1" fill="#1e50a0"/>
    <circle cx="28.752" cy="42.5653" r="1.5" fill="#fcea2b"/>
    <circle cx="28.752" cy="43.0653" r="1" fill="#1e50a0"/>
    <circle cx="43.676" cy="42.4774" r="1.5" fill="#fcea2b"/>
    <circle cx="43.676" cy="42.9774" r="1" fill="#1e50a0"/>
    <circle cx="22.2487" cy="27.1568" r="1.5" fill="#fcea2b"/>
    <circle cx="22.2487" cy="27.6568" r="1" fill="#1e50a0"/>
    <circle cx="36" cy="17.468" r="1.5" fill="#fcea2b"/>
    <circle cx="36" cy="17.968" r="1" fill="#1e50a0"/>
    <circle cx="49.7513" cy="26.6568" r="1.5" fill="#fcea2b"/>
    <circle cx="49.7513" cy="27.1568" r="1" fill="#1e50a0"/>
    <circle cx="28.752" cy="22.2595" r="1.5" fill="#fcea2b"/>
    <circle cx="28.752" cy="22.7595" r="1" fill="#1e50a0"/>
    <circle cx="43.3403" cy="22.2595" r="1.5" fill="#fcea2b"/>
    <circle cx="43.3403" cy="22.7595" r="1" fill="#1e50a0"/>
  </g>
  <g id="line">
    <path fill="none" stroke="#000" stroke-linecap="round" stroke-linejoin="round" stroke-width="2" d="M42.0582,55.9583s3.0108,2.1174,3.8717,1.5322c.7594-.5162,0-3.6731,0-3.6731s4.2762,2.12,5.1621,1.1394c.7968-.8819-1.4891-4.5147-1.4891-4.5147s5.04-.4134,5.46-1.7869c.331-1.0824-2.78-3.5738-2.78-3.5738s6.5379-.9356,6.4527-2.68c-.0746-1.5291-5.8571-1.7869-5.8571-1.7869S59.2226,38.95,59.2324,37.14c.0063-1.1667-4.07-2.2832-4.07-2.2832s4.81-2.1116,4.6658-3.5739c-.1043-1.0619-3.8289-1.8861-3.8289-1.8861s3.4575-3.7435,2.7369-4.9637c-.6057-1.0257-4.7651,0-4.7651,0s2.505-4.54,1.4891-5.5592c-1.2326-1.2363-6.4579.6951-6.4579.6951s1.3259-4.27.0052-5.0631c-1.2881-.7735-5.1622,3.0774-5.1622,3.0774s1.2242-3.4669-.4634-4.956C41.8,11.2312,38.9556,14.116,38.9556,14.116S37.159,10.3436,36,10.3436s-2.9561,4.2687-2.9561,4.2687-2.2019-3.0338-4.1556-2.3825c-1.4891.4963-.7339,5.3531-.7339,5.3531S24.28,13.732,22.9918,14.5055c-1.3207.7931-.5566,4.9712-.5566,4.9712s-4.64-1.8161-5.8961-.6032c-1.5494,1.4966,1.4891,5.5592,1.4891,5.5592s-4.1593-1.0257-4.7651,0C12.5425,25.6529,16,29.3964,16,29.3964s-3.7245.8242-3.8289,1.8861c-.1437,1.4623,4.6658,3.5739,4.6658,3.5739s-4.0765,1.1165-4.07,2.2832c.01,1.81,4.3827,2.8651,4.3827,2.8651s-4.3762.6956-3.8863,2.3964c1.0317,3.5813,6.4527,2.68,6.4527,2.68s-3.1106,2.4914-2.78,3.5738c.42,1.3735,5.46,1.7869,5.46,1.7869s-2.2858,3.6328-1.4891,4.5147c.886.9807,5.1622-1.1394,5.1622-1.1394s-.7595,3.1569,0,3.6731c.8609.5852,3.8716-1.5322,3.8716-1.5322"/>
    <path fill="none" stroke="#000" stroke-linecap="round" stroke-linejoin="round" stroke-width="2" d="M34.8924,22.6011a3.1363,3.1363,0,0,1,3.0744,2.1959c1.3045,3.1451-.2042,10.2555.3486,13.6152.4289,2.6071,4.2757,7.02,4.2822,9.6624C42.6093,52.9057,39.0648,56,36,55.9583c-4.2147-.0573-6.5467-5.3142-6.5976-7.8837-.0651-3.294,3.399-7.1722,4.2822-9.6624.8375-2.3612,1.576-9.0158.7686-9.9918-.548-.6624-5.0508-1.098-5.0508-1.098S32.5866,22.6011,34.8924,22.6011Z"/>
    <polyline fill="none" stroke="#000" stroke-linecap="round" stroke-linejoin="round" stroke-width="2" points="33.044 54.957 33.044 60.592 30.827 61.331"/>
    <line x1="35.2606" x2="33.0435" y1="60.5918" y2="60.5918" fill="none" stroke="#000" stroke-linecap="round" stroke-linejoin="round" stroke-width="2"/>
    <polyline fill="none" stroke="#000" stroke-linecap="round" stroke-linejoin="round" stroke-width="2" points="38.956 55.081 38.956 60.592 36.739 61.331"/>
    <line x1="41.1726" x2="38.9556" y1="60.5918" y2="60.5918" fill="none" stroke="#000" stroke-linecap="round" stroke-linejoin="round" stroke-width="2"/>
  </g>
</svg>
