<svg id="emoji" viewBox="0 0 72 72" xmlns="http://www.w3.org/2000/svg">
  <g id="color">
    <path id="Hippo_Color_1" fill="#9b9b9a" d="M67.2757,40.1442a62.857,62.857,0,0,0-1.4695-7.8221c-.9658-3.9354-3.9112-10.202-8.465-12.178-6.7334-2.9217-25.4333,1.3831-32.5011-.5969-1.21-.3391-1.2381-1.7341-2.49-1.6261a3.4577,3.4577,0,0,0-2.1518,1.7212c-.6188.9484-.644,1.3464-1.7069,1.7368-1.1864.4357-3.4953.3435-4.5524,1.0362-.6935.4545-.5377,1.7278-1.0719,2.362-1.16,1.3776-6.0434,1.2573-7.23,2.612-1.2076,1.3781-1.3044,6.34.2406,7.3254,3.4307,2.1875,11.5958-2.5,14.3211-1.8045,3.94,1.0058,4.6073,5.4885,5.3645,7.9464,1.07,3.4751,1.0679,12.5652,1.0679,12.5652s5.1753,1.0749,5.2412.0554c.21-3.2486-2.0547-12.8469-1.0416-12.3517,11.1279,5.4382,19.7312-.7405,23.7118-1.304,3.4331-.4859,2.72,13.6,2.72,13.6s5.7125,1.1562,5.7815,0c.1551-2.598-1.7564-12.7794-1.1485-13.6,1.3371-1.8057,2.2684.3582,2.8512.9332C65.2263,41.2284,67.3125,40.6163,67.2757,40.1442Z"/>
    <path id="Hippo_Color_2" fill="#3f3f3f" d="M48.738,41.91c.7555-.03,3.0015-1.3861,3.4033-.725,1.0949,1.8015,1.3476,10.5591.9451,12.55-.2754,1.3621-5.522-.1622-5.522-.1622S48.28,41.9282,48.738,41.91Z"/>
    <path id="Hippo_Color_3" fill="#3f3f3f" d="M25.1364,39.3416c1.2139.0034,1.9042,2.9528,1.986,4.0913.1176,1.6391-3.0473,10.2624-3.0473,10.2624H19.5234S24.7942,39.3407,25.1364,39.3416Z"/>
  </g>
  <g id="line">
    <path id="Hippo_Line_1" fill="none" stroke="#000" stroke-linecap="round" stroke-linejoin="round" stroke-width="2" d="M66.6608,39.6834c-1.3173-.9056,0-4.3423-.6738-7.0877-.9658-3.9355-3.9112-10.2021-8.4651-12.178-6.7333-2.9217-25.4332,1.3831-32.501-.597-1.21-.339-1.2381-1.734-2.49-1.626a3.4576,3.4576,0,0,0-2.1519,1.7212c-.6187.9484-.6439,1.3464-1.7069,1.7367-1.1863.4358-3.4952.3436-4.5523,1.0363-.6936.4545-.5377,1.7278-1.0719,2.3619-1.16,1.3777-6.0434,1.2573-7.2305,2.6121-1.2076,1.3781-1.3044,6.34.2406,7.3254,3.4307,2.1875,11.5958-2.5,14.321-1.8045,3.94,1.0058,4.6074,5.4884,5.3646,7.9464,1.07,3.475,1.0679,12.5651,1.0679,12.5651h4.0866"/>
    <path id="Hippo_Line_2" fill="none" stroke="#000" stroke-linecap="round" stroke-linejoin="round" stroke-width="2" d="M30.99,41.1255c6.3125,5.4647,20.5831.0133,23.7117-1.304,2.7079-1.14,2.72,13.6,2.72,13.6h4.633"/>
    <path id="Hippo_Line_3" fill="none" stroke="#000" stroke-linecap="round" stroke-linejoin="round" stroke-width="2" d="M24.67,38.3847c-.5153,5.1478-4.9217,15.0371-4.9217,15.0371h3.4138"/>
    <path id="Hippo_Line_4" fill="none" stroke="#000" stroke-linecap="round" stroke-linejoin="round" stroke-width="2" d="M48.2783,42.04c1.2472,2.8857-.2823,11.3814-.2823,11.3814h4.1453"/>
  </g>
</svg>
