<svg id="emoji" viewBox="0 0 72 72" xmlns="http://www.w3.org/2000/svg">
  <g id="color">
    <path fill="#9b9b9a" d="M35,29.035C22.3,29.736,36,51,36,51S52,27.9834,35,29.035Z"/>
    <ellipse cx="36" cy="26" rx="4" ry="3" fill="#9b9b9a"/>
    <path fill="#d0cfce" d="M31.6722,29.8859s-22.81,8.422-13.0379,14.3,8.3093-2.7518,12.5448-2.4183,3.26-3.5751,3.26-3.5751l3.7041.0028s-.97,3.907,3.2648,3.58,2.7849,8.3007,12.5484,2.4372-13.0593-14.32-13.0593-14.32"/>
  </g>
  <g id="line">
    <path fill="none" stroke="#000" stroke-linecap="round" stroke-linejoin="round" stroke-width="2" d="M41,29c3.0991-.1345,4.406-1.0737,5-2,1.5336-2.3915-.8716-5.9648,1-8a3.4923,3.4923,0,0,1,2-1"/>
    <path fill="none" stroke="#000" stroke-linecap="round" stroke-linejoin="round" stroke-width="2" d="M32,29c-3.0991-.1345-4.406-1.0737-5-2-1.5336-2.3915.8716-5.9648-1-8a3.4923,3.4923,0,0,0-2-1"/>
    <path fill="none" stroke="#000" stroke-linecap="round" stroke-linejoin="round" stroke-width="2" d="M37.6053,37.9318S36.68,41.86,40.8922,41.5741,43.75,49.97,53.4082,44.1605,39,29,39,29"/>
    <path fill="none" stroke="#000" stroke-linecap="round" stroke-linejoin="round" stroke-width="2" d="M33,29S9.05,38.4212,18.5228,44.119s8.1789-2.8742,12.32-2.61,3.2484-3.6132,3.2484-3.6132"/>
    <ellipse cx="36" cy="26" rx="4" ry="3" fill="none" stroke="#000" stroke-linecap="round" stroke-linejoin="round" stroke-width="2"/>
    <path fill="none" stroke="#000" stroke-linecap="round" stroke-linejoin="round" stroke-width="2" d="M31.0824,41.8024A62.3208,62.3208,0,0,0,36,52a59.8429,59.8429,0,0,0,5.1671-9.9055"/>
    <line x1="36" x2="36" y1="22" y2="16" fill="none" stroke="#000" stroke-linecap="round" stroke-linejoin="round" stroke-width="2"/>
    <path fill="none" stroke="#000" stroke-linecap="round" stroke-linejoin="round" stroke-width="2" d="M32.2678,41.2825c-3.0991.1677-4.406,1.3389-5,2.4941-1.5336,2.9823.8716,7.4384-1,9.9764a3.2831,3.2831,0,0,1-2,1.247"/>
    <path fill="none" stroke="#000" stroke-linecap="round" stroke-linejoin="round" stroke-width="2" d="M39.2678,41.2825a9.8487,9.8487,0,0,1,2.0051.298,4.3811,4.3811,0,0,1,2.9949,2.1961c1.5336,2.9823-.8716,7.4384,1,9.9764a3.2831,3.2831,0,0,0,2,1.247"/>
    <line x1="33" x2="39" y1="29" y2="29" fill="none" stroke="#000" stroke-linecap="round" stroke-linejoin="round" stroke-width="2"/>
  </g>
</svg>
