<svg id="emoji" viewBox="0 0 72 72" xmlns="http://www.w3.org/2000/svg">
  <g id="color">
    <path id="Kangaroo_Color_1" fill="#a57939" d="M63.6013,52.6192s-16.6057,8.0678-19.79,5.6847C36.1149,52.5453,46.3,36.8473,36.0575,31.2058c-7.8082-4.3009-9.3869-.4814-12.3761-2.845-3.6239-2.8655-1.936-8.4556-3.33-13.11-.3675-1.2275-.3969-4.3793-2.6627-4.3793-1.7361,0-.8217,3.1745-1.3314,4.133-1.1857,2.23-8.8036,2.3677-7.9881,6.185.5032,2.3559,3.5513.5146,6.6568.6657,2.389.1163,2.85,9.3315.7765,13.0294-.3942.7031-1.3507,1.42-.7534,1.9608,1.1611,1.052,6.0822,4.0211,9.6739,7.66,3.05,3.09-4.813,16.5887-4.813,16.5887s1.9591.1535,2.51-.6314c2.6139-3.7261,5.5072-14.7663,6.2763-15.0272,2.2649-.7682,9.2839,1.3074,9.2012,1.79a15.59,15.59,0,0,0,.8263,8.2972c3.3614,9.8334,17.7971,3.94,23.24.4683C64.065,54.651,63.9656,53.3055,63.6013,52.6192Z"/>
    <path id="Kangaroo_Color_2" fill="#6a462f" d="M32.0506,45.6547c.5792,2.585,1.434,13.52.0468,15.1513-.3218.3785-2.3092.3384-2.3218.2956-.7487-2.5335.3382-16.0851.3382-16.0851S31.8994,44.98,32.0506,45.6547Z"/>
  </g>
  <g id="line">
    <path id="Kangaroo_Line_1" fill="none" stroke="#000" stroke-linecap="round" stroke-linejoin="round" stroke-width="2" d="M62.7842,53.1875s-14.51,8.171-18.9734,5.1164c-7.9322-5.4285,1.9295-20.5431-7.7533-27.0981-6.0509-4.0963-8.8343.1392-12.3761-2.845-3.533-2.9768-1.936-8.4556-3.33-13.11-.3675-1.2275-.3969-4.3793-2.6627-4.3793-1.7361,0-.8217,3.1745-1.3314,4.133-1.1857,2.23-8.8036,2.3677-7.9881,6.185.5032,2.3559,3.5513.5146,6.6568.6657,2.7081.1318,3.81,13.2721-.1916,14.1811-.856.1945-3.6121-1.9111-4.4709-.48"/>
    <path id="Kangaroo_Line_2" fill="none" stroke="#000" stroke-linecap="round" stroke-linejoin="round" stroke-width="2" d="M37.8976,46.24s-8.1773-2.9434-8.2363-1.1609c-.0393,1.1864,1.2586,11.7435.1878,15.05h-4.08"/>
    <path id="Kangaroo_Line_3" fill="none" stroke="#000" stroke-linecap="round" stroke-linejoin="round" stroke-width="2" d="M18.98,38.4327a40.9849,40.9849,0,0,0,5.6269,4.917c2.9279,2.2048-2.378,10.9929-4.4695,16.7788H15.765"/>
  </g>
</svg>
