<svg id="emoji" viewBox="0 0 72 72" xmlns="http://www.w3.org/2000/svg">
  <g id="color">
    <path fill="#a57939" d="M26.2322,43.3577c.0483.5237.0725,1.0476.0725,1.5794v.0081L15.144,65.1566H11.0985l14.215-25.9412a.5352.5352,0,0,1,.0242.0645,21.6879,21.6879,0,0,1,.8382,3.4975C26.2,42.9708,26.2242,43.1642,26.2322,43.3577Z"/>
    <path fill="#9b9b9a" d="M25.8134,49.7739a11.525,11.525,0,0,1,.1292-2.0456,18.9907,18.9907,0,0,0,.21-2.8045c0-.5319-.0242-1.0557-.0725-1.58-.0081-.1934-.0323-.3868-.0564-.58a21.6741,21.6741,0,0,0-.8381-3.4975c-.0645-.2176-.129-.4271-.1853-.6125a10.7287,10.7287,0,0,0-.6286-1.5473,4.6312,4.6312,0,0,1-.3143-.7978,3.8224,3.8224,0,0,1-.1209-1.0557,4.0554,4.0554,0,0,1,3.0059-3.8118,4,4,0,0,1,2.2484.0645C28.6343,28.8144,31.0985,29,31.0985,29a14.999,14.999,0,0,1,3.29,2.4012A18.6687,18.6687,0,0,1,37.66,36.1881a18.8989,18.8989,0,0,0,.5238-2.8044c-.016-.0081-.0322-.0242-.0483-.0322a6.14,6.14,0,0,1-2.1679-7.0434,19.1332,19.1332,0,0,0,.58-2.1195,17.3793,17.3793,0,0,0,.3868-3.0623c.0081-.2579.0162-.5077.0162-.7656a18.4112,18.4112,0,0,0-.58-4.6015,3.4686,3.4686,0,0,1,1.3459-3.6345,7.7965,7.7965,0,0,1,.7736-.4916,2.44,2.44,0,0,1,3.2718.9428,18.3039,18.3039,0,0,1,2.2887,6.2053,18.5191,18.5191,0,0,1,.2821,3.2235c0,.4835-.0161.959-.0564,1.4344.153.1612.29.3385.4352.5239a5.8021,5.8021,0,0,1,.3626.5077c.0887.1289.1772.2659.2579.4029.1127.1854.2257.3788.33.58a8.0335,8.0335,0,0,1,1.2734-1.8212,7.8409,7.8409,0,0,1,1.6762-1.37.0079.0079,0,0,1,.008-.0081,8.0515,8.0515,0,0,1,12.2816,6.858,10.3969,10.3969,0,0,1-1.5635,4.65c-1.8775,2.603-2.756,4.5935-2.7237,7.8089v.1612A18.5327,18.5327,0,0,1,38.0791,60.2677c-.2095,0-.4191-.0081-.6286-.0161h-.0726c-.1773.008-.3626.0161-.5479.0161a11.9187,11.9187,0,0,1-4.9722-1.0718c-.0081,0-.0162-.0081-.0242-.0081l-.0968-.0483a10.4981,10.4981,0,0,1-5.9234-9.3656Z"/>
    <path fill="#3f3f3f" d="M35.6472,45.725a16.797,16.797,0,0,0-.2664-4.075c-.0178-.0979-.0355-.2038-.0621-.3016a15.83,15.83,0,0,0-.6928-2.4531,17.7684,17.7684,0,0,0-2.5047-4.6292c-.24-.3423-.5151-.6764-.79-1.0025a7.5754,7.5754,0,0,0-1.11-1.2061l-.0089-.0082A4.7526,4.7526,0,0,0,28.8,31.3566c-.0088,0-.0266-.0082-.0355-.0082a2.263,2.263,0,0,1,1.9451-2.828,19.8963,19.8963,0,0,1,3.819,2.9177,18.7586,18.7586,0,0,1,3.57,4.7677v.0081c-.0888.2935-.1865.5868-.2841.8721a13.84,13.84,0,0,1-.5774,1.4018c-.0178.2363-.0178.4727-.0178.7172,0,.3749.0089.7579.0445,1.1246.1242,1.98-.6219.2283.1242,1.98Z"/>
    <path fill="#3f3f3f" d="M44.53,21.9352c0,.4319-.0167.8476-.05,1.2714l-.0083-.0081a4.0085,4.0085,0,0,0-2.4956-1.41,5.058,5.058,0,0,0-4.0783,1.2225,3.6965,3.6965,0,0,0-1.1641,2.73,4.359,4.359,0,0,0,.6449,1.8827,6.9772,6.9772,0,0,1,.8542,2.9992c.0084.2282.0168.44.0168.6194a17.8233,17.8233,0,0,1-.1089,2.013l-.0252.1711c-.0083-.0081-.0167-.0163-.025-.0163a6.1141,6.1141,0,0,1-2.2528-7.123,18.9891,18.9891,0,0,0,.603-2.1435,17.1346,17.1346,0,0,0,.4019-3.0969c.0084-.2609.0168-.5135.0168-.7743a18.15,18.15,0,0,0-.603-4.6536,3.46,3.46,0,0,1,1.3986-3.6756,8.1334,8.1334,0,0,1,.8039-.4972,2.5735,2.5735,0,0,1,3.4.9536A18.3941,18.3941,0,0,1,44.53,21.9352Z"/>
    <path fill="none" stroke="#000" stroke-miterlimit="10" stroke-width="2" d="M32.0547,59.2054c-.008,0-.0161-.008-.0241-.008"/>
    <path fill="none" stroke="#000" stroke-miterlimit="10" stroke-width="2" d="M30.6767,32.2086,30.6686,32.2"/>
    <path fill="none" stroke="#000" stroke-miterlimit="10" stroke-width="2" d="M45.5209,24.4a2.2537,2.2537,0,0,1-.25.0805"/>
    <path fill="#d0cfce" d="M59.2662,30.6146c-.9517,2.6893-4.39,3.943-7.6495,2.7894s-5.144-4.2908-4.1922-6.98a4.6254,4.6254,0,0,1,2.5236-2.6889c1.4335-.6662,2.3143,1.4983,4.1106,2.134,1.6631.5886,3.9479-.5791,4.7015.6757A4.6977,4.6977,0,0,1,59.2662,30.6146Z"/>
    <path fill="#9b9b9a" d="M46.7654,27.9816c.7544-.2888,1.1855-.8156,2.2245-.7567l.1643-.0036c1.1115.0845,1.792.6959,2.3821.4107a.8531.8531,0,0,0,.4557-.8269c-.115-.5965-1.163-1.0909-1.3079-1.1422a6.3166,6.3166,0,0,0-3.2231-.3378Z"/>
    <path fill="#9b9b9a" d="M58.8653,32.2637c-.4048-.6991-.4086-1.38-1.2533-1.9875l-.1255-.1062c-.9173-.6334-1.8308-.5861-2.11-1.1791a.8532.8532,0,0,1,.1659-.9294c.4646-.3914,1.59-.1166,1.7352-.0653a7.11,7.11,0,0,1,2.2356,1.2852,2.94,2.94,0,0,1,.4825.48Z"/>
    <circle cx="52.8052" cy="30.0592" r="0.8059"/>
    <path fill="#a57939" d="M47.1367,6.8434,32.1957,34.1626c-.1692-.2579-.3626-.5077-.556-.7575a7.3116,7.3116,0,0,0-1.0073-1.1927l-.0081-.0081a3.9733,3.9733,0,0,0-1.1605-.6366L42.8817,6.8434Z"/>
  </g>
  <g id="line">
    <path fill="none" stroke="#000" stroke-linecap="round" stroke-miterlimit="10" stroke-width="2" d="M42.84,14.51a17.71,17.71,0,0,1,1.31,4.28,19.0845,19.0845,0,0,1,.28,3.22,13.7547,13.7547,0,0,1-.06,1.44"/>
    <path fill="none" stroke="#000" stroke-linecap="round" stroke-miterlimit="10" stroke-width="2" d="M38.59,11.64a2.339,2.339,0,0,1,1.71-.22"/>
    <line x1="11" x2="22.9464" y1="65.1566" y2="43.3556" fill="none" stroke="#000" stroke-linecap="round" stroke-miterlimit="10" stroke-width="2"/>
    <polyline fill="none" stroke="#000" stroke-linecap="round" stroke-miterlimit="10" stroke-width="2" points="22.008 52.543 21.883 52.764 15.046 65.157"/>
    <line x1="32.0972" x2="42.7831" y1="26.5337" y2="6.8434" fill="none" stroke="#000" stroke-linecap="round" stroke-miterlimit="10" stroke-width="2"/>
    <line x1="41.1096" x2="47.0382" y1="17.6838" y2="6.8434" fill="none" stroke="#000" stroke-linecap="round" stroke-miterlimit="10" stroke-width="2"/>
    <path fill="none" stroke="#000" stroke-linecap="round" stroke-linejoin="round" stroke-width="2" d="M26.0411,47.74a18.9883,18.9883,0,0,0,.2095-2.8044c0-.5319-.0241-1.0557-.0725-1.58-.0081-.1934-.0322-.3869-.0564-.58a21.6766,21.6766,0,0,0-.8381-3.4975c-.0645-.2176-.129-.4271-.1854-.6124a10.7127,10.7127,0,0,0-.6286-1.5473,4.6589,4.6589,0,0,1-.3143-.7978,3.8271,3.8271,0,0,1-.1208-1.0557A4.0551,4.0551,0,0,1,27.04,31.4529a3.96,3.96,0,0,1,2.2161.0564c.0081,0,.0242.008.0323.008a4.18,4.18,0,0,1,1.2813.685l.0081.0081a7.3116,7.3116,0,0,1,1.0073,1.1927c.25.3223.5.6528.7173.9912a18.1178,18.1178,0,0,1,2.2725,4.5774,16.74,16.74,0,0,1,.6286,2.4257c.0242.0967.04.2015.0564.2982a18.0676,18.0676,0,0,1,.2418,4.0293c-.0242.5077-.0645,1.0154-.137,1.5231a18.6081,18.6081,0,0,1-.7413,3.2822"/>
    <path fill="none" stroke="#000" stroke-linecap="round" stroke-linejoin="round" stroke-width="2" d="M34.39,60.0126a11.7572,11.7572,0,0,1-2.4336-.8054c-.008,0-.0161-.008-.0241-.008l-.0968-.0484A10.67,10.67,0,0,1,26.0411,47.74"/>
    <path fill="none" stroke="#000" stroke-linecap="round" stroke-linejoin="round" stroke-width="2" d="M45.7609,25.4652a8.0305,8.0305,0,0,1,1.2733-1.8213,7.8469,7.8469,0,0,1,1.6762-1.37.0078.0078,0,0,1,.008-.008A8.0514,8.0514,0,0,1,61,29.1239a10.3971,10.3971,0,0,1-1.5634,4.65c-1.8777,2.603-2.7561,4.5935-2.7239,7.8089v.1612A18.5274,18.5274,0,0,1,47.026,58.0353"/>
    <path fill="none" stroke="#000" stroke-linecap="round" stroke-linejoin="round" stroke-width="2" d="M38.1776,45.9748a.0484.0484,0,0,1-.0081-.0323A18.0661,18.0661,0,0,1,36.9688,40.39a8.6088,8.6088,0,0,1,.5-3.2073c.0887-.2821.1773-.5722.2579-.8623v-.0081c.0081-.04.0242-.0725.0322-.1128a18.7894,18.7894,0,0,0,.5-2.6352l.0242-.1693a18.093,18.093,0,0,0,.1047-1.9905c0-.1773-.008-.3868-.0161-.6124a7.0416,7.0416,0,0,0-.822-2.9657,4.39,4.39,0,0,1-.62-1.8615,3.7031,3.7031,0,0,1,1.12-2.7,4.7814,4.7814,0,0,1,3.9246-1.2088,3.8332,3.8332,0,0,1,2.4015,1.3941l.008.0081c.1532.1612.2821.33.4272.5157a5.7961,5.7961,0,0,1,.3626.5077c.0886.129.1773.266.2579.403.1128.1853.2256.3787.33.58a30.3734,30.3734,0,0,1,2.9575,12.04,18.4017,18.4017,0,0,1-2.8286,9.84v.0081"/>
    <path fill="none" stroke="#000" stroke-linecap="round" stroke-miterlimit="10" stroke-width="2" d="M36,33.2333a18.6587,18.6587,0,0,1,1.76,2.9621v.0081c-.008.04-.0241.0725-.0322.1128-.0806.29-.1692.58-.2579.8623v.008c-.0161.0564-.04.1209-.0644.1934"/>
    <path fill="none" stroke="#000" stroke-linecap="round" stroke-miterlimit="10" stroke-width="2" d="M35.2055,41.3933a16.74,16.74,0,0,0-.6286-2.4257A18.1194,18.1194,0,0,0,32.3044,34.39c-.2176-.3384-.4674-.6688-.7173-.9912A7.3116,7.3116,0,0,0,30.58,32.2063l-.0081-.008a4.1762,4.1762,0,0,0-1.2813-.685"/>
  </g>
</svg>
