<svg id="emoji" viewBox="0 0 72 72" xmlns="http://www.w3.org/2000/svg">
  <g id="color">
    <path fill="#a57939" d="M63.4565,57H57.3549a.9991.9991,0,0,1-.9941-.8945c-.5352-5.0459-2.21-9.0528-4.0723-9.7451-.8076-.3028-1.7666.0556-2.8428,1.0654-2.5791,2.3252-5.5439,1.4287-7.9248.7109-1.6006-.4834-2.9824-.9023-3.7891-.2959-1.0957.82-1.6308,3.5625-1.5918,8.15A1,1,0,0,1,35.14,57H29.3725a1,1,0,0,1-.9815-1.19c2.2256-11.458.5918-16.7325-.0957-18.3018-2.2881.3467-2.8564.6436-5.1963,2.1358a76.999,76.999,0,0,0,1.6641,13.371,1.0007,1.0007,0,0,1-.6816,1.167l-2.2666.7012a1,1,0,0,1-1.1407-.42c-5.1679-8.1582-5.0068-18.6709-4.998-19.1152,0-5.4268,4.2353-10.1016,7.9717-14.2266.7724-.8525,1.5322-1.6914,2.24-2.5195a.9982.9982,0,0,1,.2041-.1807c5.49-3.6758,9.08-.9688,11.5908,1.7988a.939.939,0,0,1,.1231.168c.89,1.5234,3.6054,2.2021,6.2314,2.8584,2.7061.6758,5.5029,1.375,7.0039,3.1269A19.4814,19.4814,0,0,0,56.39,29.9854c2.254,1.1328,4.1788,2.1005,5.5157,5.2187.01.0225.0195.0449.0283.0674a22.1667,22.1667,0,0,1,1.3691,5.4736,1,1,0,1,1-1.98.2793c-.1231-.8682-.26-1.6406-.4112-2.331-.84,5.5087,2.6094,15.2363,3.4356,16.8515A1.0009,1.0009,0,0,1,63.4565,57Z"/>
    <path fill="#6a462f" d="M43.2221,57h-4.625a.9994.9994,0,0,1-1-1c0-1.9873-1.6621-5.8271-2.3028-7.14a1,1,0,0,1,.46-1.337c.4961-.2431,5.6924-.86,6.1953-1.0888a.9969.9969,0,0,1,1.3242.4961c.8282,1.82.9356,7.8652.9483,9.0586a1,1,0,0,1-1,1.0107Z"/>
    <path fill="#6a462f" d="M54.2748,57H48.768a.9994.9994,0,0,1-1-1c0-2.6338-.586-8.6885-.5918-8.749a1,1,0,0,1,.8984-1.0918c.5664-.0469,5.4971-.3887,6.042-.4756a1.0009,1.0009,0,0,1,1.1455.8291,55.1518,55.1518,0,0,1,.01,9.5664A1,1,0,0,1,54.2748,57Z"/>
    <path fill="#d0cfce" d="M14.4272,43.3652a9.6285,9.6285,0,0,1-6.1778-1.9511,7.7354,7.7354,0,0,1-2.5166-6.2178,8.6835,8.6835,0,0,1,2.5254-6.584c2.8887-2.7441,7.1553-2.5576,7.3379-2.55a1,1,0,0,1,.0928,1.9883A6.5232,6.5232,0,0,0,10.2133,34.71a3.1332,3.1332,0,0,0,.8672,2.1386,5.1525,5.1525,0,0,0,3.8066,1.2188c4.8389,0,6.53-4.9492,6.6-5.16a1,1,0,0,1,.9239-.6865.9411.9411,0,0,1,.958.6357c.9521,2.4493.8974,4.5909-.1621,6.3653-2.003,3.3574-6.876,4.0029-7.0821,4.0283A11.32,11.32,0,0,1,14.4272,43.3652Z"/>
  </g>
  <g id="line">
    <path fill="none" stroke="#000" stroke-linecap="round" stroke-linejoin="round" stroke-width="2" d="M22.4372,33.219C25.4878,41.0712,16,42.2575,16,42.2575s-9.2673,1.5253-9.2673-7.0614,8.8126-8.1347,8.8126-8.1347"/>
    <path fill="none" stroke="#000" stroke-linecap="round" stroke-linejoin="round" stroke-width="2" d="M30.619,21.6929a2.78,2.78,0,0,1,1.87-.8014c1.122,0,3.511,2.3509,3.511,8.0144s-3.0912,2.5723-3.0912,2.5723-1.1827,3.75-4.1114.22H27.2327"/>
    <path fill="none" stroke="#000" stroke-linecap="round" stroke-linejoin="round" stroke-width="2" d="M16.6764,35.3693c0-6.125,5.8544-11.3033,9.971-16.1176,4.6372-3.1014,7.6315-1.2966,10.2955,1.64,2.1029,3.6044,10.6727,2.9453,13.3667,6.1655,6.0884,5.9367,10.4218,2.6495,12.0032,13.8278"/>
    <path fill="none" stroke="#000" stroke-linecap="round" stroke-linejoin="round" stroke-width="2" d="M23.7851,53.2265l-2.2663.7015a32.6584,32.6584,0,0,1-4.2645-11.9308"/>
    <path fill="none" stroke="#000" stroke-linecap="round" stroke-linejoin="round" stroke-width="2" d="M59.7938,40.8848C59.8755,46.8315,62.77,54.6585,63.4562,56H57.3548c-.6982-6.5813-3.6734-13.9134-8.5927-9.3041C43.155,51.7505,34.991,38.4012,35.14,56H29.3723c2.8725-14.782-.5189-19.5829-.5189-19.5829"/>
    <path fill="none" stroke="#000" stroke-linecap="round" stroke-linejoin="round" stroke-width="2" d="M36.1923,48.4223S38.597,53.3417,38.597,56h4.6255"/>
    <path fill="none" stroke="#000" stroke-linecap="round" stroke-linejoin="round" stroke-width="2" d="M48.1713,47.1546s.5967,6.132.5967,8.8454h5.5066"/>
  </g>
</svg>
