<svg id="emoji" viewBox="0 0 72 72" xmlns="http://www.w3.org/2000/svg">
  <g id="color">
    <path fill="#3f3f3f" d="M29.3689,54.3966l-1.1,3-3,3.1h-4c-1.6-1.2,3.4-3.7,3.4-3.7v-3.7l-.2-3.1A15.8574,15.8574,0,0,1,29.3689,54.3966Z"/>
    <path fill="#3f3f3f" d="M60.7613,30.1692c-.22-.03-1.41-1.41-2.99-2.89,0,0-2.5-2.7-4.6-3a2.4863,2.4863,0,0,0-2.8,2.1,2.7819,2.7819,0,0,0,.5444,1.9944,4.67,4.67,0,0,0,1.6571,1.3719c6.6971,3.5671,7.8255,6.304,7.9106,10.9578.0695,3.7993-2.4122,6.8759-5.8122,8.5759l-.6,7.1-2.6,4.5c-6.3.7-1-2.2-1-2.2l-.5-2.3-.8-2.1a3.36,3.36,0,0,1-1.4.5v2.7l-4,3.8c-7.4.9-1.1-3.3-1.1-3.3l.1-3a4.6271,4.6271,0,0,1-1.8-2.1c-2.6-.7-5.9.7-5.9.7l-1.1,3.7-2,3.9c-1.92.24-2.81.12-3.12-.17-.7-.63,1.62-2.13,1.62-2.13a5.6779,5.6779,0,0,0-.69-3.32c-.07-.14-.15-.29-.23-.43-.07-.12-.15-.24-.23-.36a16.23,16.23,0,0,0-4.85-4.29c-1-.59-2.01-1.1-3.07-1.61a2.7956,2.7956,0,0,0-.26-.12c-.12-.05-.24-.11-.37-.17a11.6107,11.6107,0,0,1-3.95.16q-.36-.045-.69-.12c-.23-.04-.46-.1-.68-.16-.22-.05-.43-.12-.64-.19-2.09-.7-3.49-1.93-3.7-2.87a.8018.8018,0,0,1,.23-.86,1.1669,1.1669,0,0,1,.43-.26c2.6-1,5.2-4.9,5.2-4.9l.43-.13.87-.27.02-.01,1.78-.66.9-.33a6.6361,6.6361,0,0,1,.86-.13,1.84,1.84,0,0,1,.33-.03,9.5961,9.5961,0,0,1,5.76,1.82c.14.11.25.19.33.25l.12.09.18-.15a5.8242,5.8242,0,0,1,3.2-1.33,4.51,4.51,0,0,1,.52,0,4.3966,4.3966,0,0,1,1.46-1.12,12.1247,12.1247,0,0,1,1.56-.72c.2-.07.4-.15.61-.22.42-.14.87-.28,1.34-.39.23-.06.47-.11.71-.16a16.6432,16.6432,0,0,1,2.29-.3,11.5969,11.5969,0,0,1,7.45,1.98c.11.08.22.16.33.25a10.4526,10.4526,0,0,1,1.65,1.56c1.2193,1.252,2.9785.0951,1.0886-3.2621-2.2047-3.9165-7.9986-8.0879-7.9986-8.0879a9.8505,9.8505,0,0,1-.7-14,9.9552,9.9552,0,0,1,3.76-2.61,1.33,1.33,0,0,1,.18-.07,3.5033,3.5033,0,0,1,.55-.17,9.8226,9.8226,0,0,1,1.72-.3,9.46,9.46,0,0,1,9.3,5Z"/>
    <path fill="#fff" d="M60.8213,29.0892c-.0319.3587-.02.72-.05,1.09l-.01-.01a22.483,22.483,0,0,0-6.2276-11.3808c-4.1993-3.9209-9.7862.6277-9.0862,5.2277,1.3,8.4,13.3138,13.0131,11.7138,17.6131-2,5.7-10,2.8-10,2.8-10-5.3-19.7,0-19.7,0-5.49-.47-8.83-4.97-9.17-5.46-.01-.01-.02-.02-.02-.03l-.01-.01,2.7-1a7.6331,7.6331,0,0,1,3.98.21c.18.06.34.11.51.17a6.7635,6.7635,0,0,1,.9.38,10.18,10.18,0,0,1,2.01,1.24,5.2616,5.2616,0,0,1,1.19-.82,3.5482,3.5482,0,0,1,.44-.21c.14-.06.28-.12.43-.17a.3518.3518,0,0,1,.06-.01,5.2837,5.2837,0,0,1,1.79-.22,4.3966,4.3966,0,0,1,1.46-1.12,13.6486,13.6486,0,0,1,1.56-.72c.2-.07.4-.15.61-.22.42-.14.87-.27,1.34-.39.23-.06.47-.11.71-.16a16.6432,16.6432,0,0,1,2.29-.3,11.5969,11.5969,0,0,1,7.45,1.98c.11.08.22.16.33.25a10.4526,10.4526,0,0,1,1.65,1.56c.01.01.02.03.03.04.02.04.04.07.06.11a1.5576,1.5576,0,0,0,1.5-1.6,2,2,0,0,0-.02-.36.9086.9086,0,0,0-.18-.44c-2.4-3.8-8.3-9.1-8.3-9.1a9.8505,9.8505,0,0,1-.7-14,9.9552,9.9552,0,0,1,3.76-2.61,1.33,1.33,0,0,1,.18-.07,3.5033,3.5033,0,0,1,.55-.17,9.8571,9.8571,0,0,1,9.51,2.15,10.1013,10.1013,0,0,1,1.9,2.3C58.0113,15.6292,61.5762,20.6,60.8213,29.0892Z"/>
  </g>
  <g id="line">
    <path fill="none" stroke="#000" stroke-linecap="round" stroke-miterlimit="10" stroke-width="1.64" d="M43.3689,47.0966a4.2988,4.2988,0,0,0-2.3,5.6,5.5091,5.5091,0,0,0,1.7,2l-.1,3s-6.3,4.2,1.1,3.3l4-3.8v-2.7"/>
    <path fill="none" stroke="#000" stroke-linecap="round" stroke-miterlimit="10" stroke-width="1.64" d="M49.7713,39.4992a.5716.5716,0,0,0-.07-.08c-.01-.02-.03-.03-.04-.05-6.3516-6.9244-16.5251-2.5368-17.39-.87a2.62,2.62,0,0,0-.28-.01,1.9269,1.9269,0,0,0-.24.01,4.512,4.512,0,0,0-1.27.22.3536.3536,0,0,0-.06.01c-.15.05-.29.11-.43.17a3.5482,3.5482,0,0,0-.44.21,5.081,5.081,0,0,0-1,.72c-.06.05-.12.11-.18.17,0,0-.04-.04-.12-.11-.08-.06-.19-.14-.33-.25a9.9668,9.9668,0,0,0-1.57-.95c-.28-.13-.58-.26-.9-.38-.17-.06-.33-.11-.51-.17a7.5208,7.5208,0,0,0-2.78-.32,1.8413,1.8413,0,0,0-.33.03,6.7463,6.7463,0,0,0-.86.15l-.9.31-1.8.63-.87.31-.43.15s-2.6,4-5.2,4.9a1.1791,1.1791,0,0,0-.43.24.802.802,0,0,0-.23.86c.23.93,1.63,2.15,3.7,2.87.21.07.42.14.64.19.22.06.45.12.68.16q.33.075.69.12a11.0949,11.0949,0,0,0,3.95-.14s.13.05.37.15a2.7837,2.7837,0,0,1,.26.12c1.62.71,5.9,2.81,7.92,5.9.08.12.16.24.23.36.08.14.16.28.23.43a5.5213,5.5213,0,0,1,.59,3.24s-2.51,1.62-1.52,2.21c.38.23,1.27.31,3.02.09l2-3.9"/>
    <path fill="none" stroke="#000" stroke-linecap="round" stroke-miterlimit="10" stroke-width="1.64" d="M42.7689,27.8966a9.9156,9.9156,0,0,1,13.2-14.8,11.6021,11.6021,0,0,1,2,2.4"/>
    <path fill="none" stroke="#000" stroke-linecap="round" stroke-miterlimit="10" stroke-width="1.64" d="M35.0689,53.3966s3.3-1.3,5.9-.7"/>
    <path fill="none" stroke="#000" stroke-linecap="round" stroke-miterlimit="10" stroke-width="1.64" d="M50.1689,56.0966l.5,2.3s-5.3,2.9,1,2.2l2.6-4.5.7-6.9a9.9631,9.9631,0,0,0,4.5-13.3,10.24,10.24,0,0,0-4.6-4.6"/>
    <path fill="none" stroke="#000" stroke-linecap="round" stroke-miterlimit="10" stroke-width="1.64" d="M24.6689,53.3966v3.6s-5,2.5-3.4,3.7h4l3-3.1"/>
  </g>
</svg>
