<svg id="emoji" viewBox="0 0 72 72" xmlns="http://www.w3.org/2000/svg">
  <g id="color">
    <g>
      <g>
        <path fill="#e27022" d="M20.4623,52.9662a68.7312,68.7312,0,0,0,2.89,8.2577,1.0593,1.0593,0,0,1-.2478,1.185,4.248,4.248,0,0,0-.6835.8568,1.4833,1.4833,0,0,0,1.272,2.2425H34.816A1.1194,1.1194,0,0,0,35.94,64.3731a3.6721,3.6721,0,0,0-1.1032-2.893,1.5244,1.5244,0,0,1-.6325-.9986c-.5228-3.6695-1.2465-9.4636-1.2465-9.4636-.34-4.0179-2.9254-7.26-6.4713-7.26-3.5033,0-6.3462,3.2015-6.4142,6.9293a7.255,7.255,0,0,0,.39,2.2787l-.3966-2.1434c0-.0455.0055-.09.0063-.1353,0-.0253-.0063-.049-.0063-.0744"/>
        <path fill="#e27022" d="M50.3875,51.11c-.65,4.1108-1.4089,8.3884-1.859,9.9169a1.0591,1.0591,0,0,0,.3907,1.1458,4.25,4.25,0,0,1,.7831.7669,1.4833,1.4833,0,0,1-.9884,2.3811l-11.04-.0086a1.1194,1.1194,0,0,1-1.254-.9893,3.6722,3.6722,0,0,1,.7414-3.0061,1.5239,1.5239,0,0,0,.5057-1.0684c.0705-3.7059.0808-9.545.0808-9.545-.1532-4.0294,2.0162-7.5628,5.5356-7.9961,3.4771-.4281,6.69,2.4019,7.2129,6.0936a7.2543,7.2543,0,0,1-.1089,2.3092l.1317-2.1758c-.0056-.0451-.0165-.0885-.0228-.1334-.0029-.0252,0-.0494-.0028-.0747"/>
        <path fill="#e27022" d="M58.8353,23.3134c-.71-2.4614-3.2036-8.2574-11.6123-13.3642a2.3471,2.3471,0,0,0-1.246-.3365,3.5536,3.5536,0,0,0-2.2277-1.9309,3.74,3.74,0,0,0-2.6217.02,4.3094,4.3094,0,0,0-.9859.41c-1.5194.8772-2.247,2.4618-1.6249,3.5393s2.3581,1.24,3.8775.3624c.0156-.009.0283-.02.0437-.03a4.2887,4.2887,0,0,0,1.1137.1828,2.4486,2.4486,0,0,0,.4156,1.31L48.0156,19.45a2.4626,2.4626,0,0,1,.3615,1.933l-.222.966a2.4624,2.4624,0,0,1-2.71,1.8914l-3-.3806a2.4682,2.4682,0,0,0-.4166-.0173l-15.2182.66a2.4616,2.4616,0,0,0-.8277.1818l-5.0183,2.0579a2.4631,2.4631,0,0,0-1.3039,1.2517L12.905,42.72a2.4626,2.4626,0,0,0,.8191,3.0392l6.8914,4.86a2.4622,2.4622,0,0,0,2.8593-.015l3.7329-6.8459s5.8,0,6.1279,10.2345c.0962,2.9995.2931,6.9709,1.3775,7.403,0,0,2.6451,1.2219,2.6771-2.368s-.19-8.6821.1639-10.4355C39.2213,40.32,46.2416,43.27,46.2416,43.27c.0321-.4142,3.0829,1.9933,2.9178,1.6121-.7534-1.74-1.1588-7.4828,5.4912-13.9371a2.2874,2.2874,0,0,0,.2984-.35l3.5577-5.2A2.46,2.46,0,0,0,58.8353,23.3134Z"/>
        <ellipse cx="34.7156" cy="27.7257" rx="11.526" ry="15.448" fill="#e27022"/>
      </g>
      <ellipse cx="34.7156" cy="27.7257" rx="8.3348" ry="11.1709" fill="#f4aa41"/>
    </g>
  </g>
  <g id="line">
    <g>
      <ellipse cx="34.7361" cy="31.9067" rx="4.865" ry="6.5204" fill="none" stroke="#000" stroke-miterlimit="10" stroke-width="1.6"/>
      <circle cx="32.2858" cy="21.4671" r="1.0418"/>
      <circle cx="36.7298" cy="21.4671" r="1.0418"/>
      <path fill="none" stroke="#000" stroke-linecap="round" stroke-miterlimit="10" stroke-width="1.6" d="M32.6192,33.6038a7.0235,7.0235,0,0,0,4.2348-.0412"/>
      <g>
        <path fill="none" stroke="#000" stroke-linecap="round" stroke-miterlimit="10" stroke-width="2" d="M19.5037,49.8351l-5.78-4.0757A2.4627,2.4627,0,0,1,12.905,42.72L19.6606,27.994a2.4625,2.4625,0,0,1,1.3039-1.2516l2.0934-.8585"/>
        <path fill="none" stroke="#000" stroke-linecap="round" stroke-linejoin="round" stroke-width="2" d="M48.6167,44.8817c-.2516-1.8824,2.1467-8.8171,6.4938-14.5236h0c.6938-1.0138,2.466-3.6041,3.3989-4.9675a2.4209,2.4209,0,0,0,.3369-2.0388c-.6949-2.4391-3.17-8.2691-11.6233-13.4026a6.0469,6.0469,0,0,0-1.0519-.6332,4.784,4.784,0,0,0-2.4218-1.6342,3.74,3.74,0,0,0-2.6217.02,4.3094,4.3094,0,0,0-.9859.41c-1.5194.8772-2.247,2.4618-1.6249,3.5393s2.3581,1.24,3.8775.3624c.0156-.009-.0154.0092,0,0a.8869.8869,0,0,1,1.1574.1533,2.4486,2.4486,0,0,0,.4156,1.31L48.0157,19.45a2.4629,2.4629,0,0,1,.3614,1.933l-.222.966a2.4631,2.4631,0,0,1-1.9125,1.8627"/>
        <path fill="none" stroke="#000" stroke-linecap="round" stroke-miterlimit="10" stroke-width="2" d="M34.7156,43.1737c-6.3657,0-11.526-6.9163-11.526-15.448s5.16-15.448,11.526-15.448,11.526,6.9163,11.526,15.448a18.6525,18.6525,0,0,1-2.91,10.2616"/>
        <line x1="23.9159" x2="22.2" y1="43.7582" y2="39.8642" fill="none" stroke="#000" stroke-linecap="round" stroke-miterlimit="10" stroke-width="2"/>
        <path fill="none" stroke="#000" stroke-linecap="round" stroke-linejoin="round" stroke-width="2" d="M20.4623,52.9662a67.6146,67.6146,0,0,0,2.987,8.48.6866.6866,0,0,1-.1683.8,4.3925,4.3925,0,0,0-.6923.7624,1.59,1.59,0,0,0,1.3046,2.5H33.9671a2.0471,2.0471,0,0,0,1.9278-2.7959,2.8954,2.8954,0,0,0-1.1539-1.2989,1.06,1.06,0,0,1-.5088-.7351c-.5246-3.655-1.2747-9.66-1.2747-9.66-.34-4.0179-2.9254-7.26-6.4713-7.26-3.5033,0-6.3462,3.2015-6.4142,6.9293a7.255,7.255,0,0,0,.39,2.2787l-.3966-2.1434c0-.0455.0055-.09.0063-.1353,0-.0253-.0063-.049-.0063-.0744"/>
        <ellipse cx="34.7156" cy="27.7257" rx="8.3348" ry="11.1709" fill="none" stroke="#000" stroke-miterlimit="10" stroke-width="2"/>
        <g>
          <path fill="none" stroke="#000" stroke-linecap="round" stroke-linejoin="round" stroke-width="2" d="M36.4405,61.684c.243-.2023.9253-.9085.9305-1.2246.061-3.692.05-9.744.05-9.744-.1675-4.0288,1.9895-7.57,5.5074-8.0156,3.4755-.44,6.6983,2.3783,7.2343,6.0681a7.7155,7.7155,0,0,1-.1007,2.31l.124-2.1763c-.0057-.0451-.0168-.0884-.0233-.1333-.003-.0252,0-.0494-.0031-.0747"/>
          <path fill="none" stroke="#000" stroke-linecap="round" stroke-linejoin="round" stroke-width="2" d="M50.0623,51.0775c-.6692,4.3324-1.43,8.7021-1.8633,10.158a.6863.6863,0,0,0,.2676.7724,4.3988,4.3988,0,0,1,.7826.6693,1.59,1.59,0,0,1-.98,2.6437l-10.0279-.1033a4.1926,4.1926,0,0,1-1.4473-.18"/>
        </g>
      </g>
    </g>
  </g>
</svg>
