<svg id="emoji" viewBox="0 0 72 72" xmlns="http://www.w3.org/2000/svg">
  <g id="color">
    <path fill="#8967aa" d="M50.66,54.5046C63,41.6147,63,29,63,29a5.0025,5.0025,0,0,0-7.02-4.575l.0042-.0046a6.6278,6.6278,0,1,0-11.1073-6.9451l.0033-.0016A9.0077,9.0077,0,0,0,36,7H34a9.0077,9.0077,0,0,0-8.88,10.4737l.0033.0016A6.628,6.628,0,1,0,14.0161,24.42l.0042.0046A5.0025,5.0025,0,0,0,7,29S7,41.6147,19.34,54.5046"/>
    <circle cx="34.5" cy="49.5" r="7.5" fill="#fff"/>
    <path fill="#d0cfce" d="M35.304,42.0444A7.4948,7.4948,0,0,1,31.5,56a7.57,7.57,0,0,1-.804-.0444,7.4965,7.4965,0,1,0,4.608-13.9112Z"/>
    <path fill="#b399c8" d="M10,55H60s-8,9-25,9"/>
    <path fill="#8967aa" d="M48.8051,55.0512H59.5s-8,9-25,9C34.5,64.0512,44.4405,61.5261,48.8051,55.0512Z"/>
    <path fill="#b399c8" d="M35,64c-17,0-25-9-25-9"/>
  </g>
  <g id="line">
    <path fill="none" stroke="#000" stroke-linecap="round" stroke-linejoin="round" stroke-width="2" d="M28.7577,54.3248a7.5,7.5,0,1,1,11.3274.181"/>
    <path fill="none" stroke="#000" stroke-linecap="round" stroke-linejoin="round" stroke-width="2" d="M10,55H60s-8,9-25,9"/>
    <path fill="none" stroke="#000" stroke-linecap="round" stroke-linejoin="round" stroke-width="2" d="M35,64c-17,0-25-9-25-9"/>
    <path fill="none" stroke="#000" stroke-linecap="round" stroke-linejoin="round" stroke-width="2" d="M50.66,54.5046C63,41.6147,63,29,63,29a5.0025,5.0025,0,0,0-7.02-4.575l.0042-.0046a6.6278,6.6278,0,1,0-11.1073-6.9451l.0033-.0016A9.0077,9.0077,0,0,0,36,7H34a9.0077,9.0077,0,0,0-8.88,10.4737l.0033.0016A6.628,6.628,0,1,0,14.0161,24.42l.0042.0046A5.0025,5.0025,0,0,0,7,29S7,41.6147,19.34,54.5046"/>
  </g>
</svg>
