<svg id="emoji" viewBox="0 0 72 72" xmlns="http://www.w3.org/2000/svg">
  <g id="color">
    <path fill="#e27022" d="M15.52,11.4V60.6a7.4,7.4,0,0,0,7.4,7.4H48.8a7.4,7.4,0,0,0,7.4-7.4V11.4A7.4,7.4,0,0,0,48.8,4h0L36.2773,5.47q-.2772.01-.5546,0L23.2,4h-.28A7.4,7.4,0,0,0,15.52,11.4Z"/>
    <line x1="51.36" x2="43.076" y1="4.0377" y2="48.8" fill="none" stroke="#fcea2b" stroke-miterlimit="10" stroke-width="2"/>
    <line x1="20.64" x2="28.32" y1="4.0377" y2="48.8" fill="none" stroke="#fcea2b" stroke-miterlimit="10" stroke-width="2"/>
    <line x1="38" x2="56.48" y1="48.8" y2="48.8" fill="none" stroke="#fcea2b" stroke-miterlimit="10" stroke-width="2"/>
    <line x1="15.52" x2="34" y1="48.8" y2="48.8" fill="none" stroke="#fcea2b" stroke-miterlimit="10" stroke-width="2"/>
    <line x1="38" x2="56.48" y1="59.04" y2="59.04" fill="none" stroke="#fcea2b" stroke-miterlimit="10" stroke-width="2"/>
    <line x1="15.52" x2="34" y1="59.04" y2="59.04" fill="none" stroke="#fcea2b" stroke-miterlimit="10" stroke-width="2"/>
    <polygon fill="#ea5a47" points="25.24 6 34.48 21.694 34.48 63.984 33.085 67 39.384 67 38 63.984 38 21.794 47.24 6 36 6 25.24 6"/>
  </g>
  <g id="line">
    <path fill="none" stroke="#000" stroke-linecap="round" stroke-linejoin="round" stroke-width="2" d="M44.0325,68H48.97a7.51,7.51,0,0,0,7.51-7.51V9.5156C56.48,5,52.2,4,50.92,4H49.5094a1.28,1.28,0,0,0-1.0854.6016l-9.81,16.2647a4.2317,4.2317,0,0,0-.5984,1.8988l-.0063.0915Q38,23,38,23.1437V61.9675A6.0326,6.0326,0,0,0,44.0325,68Z"/>
    <path fill="none" stroke="#000" stroke-linecap="round" stroke-miterlimit="10" stroke-width="2" d="M48,5S38,6,36,6,25,5,25,5"/>
    <path fill="none" stroke="#000" stroke-linecap="round" stroke-miterlimit="10" stroke-width="2" d="M32,67s3.2571.1077,4.38.1c1.06-.0073,4.12-.1,4.12-.1"/>
    <path fill="none" stroke="#000" stroke-linecap="round" stroke-linejoin="round" stroke-width="2" d="M28.4475,68H23.51A7.51,7.51,0,0,1,16,60.49V9.5156C16,5,20.28,4,21.56,4h1.4106a1.28,1.28,0,0,1,1.0854.6016l9.81,16.2647a4.2317,4.2317,0,0,1,.5984,1.8988l.0062.0915q.01.1434.01.2871V61.9675A6.0326,6.0326,0,0,1,28.4475,68Z"/>
  </g>
</svg>
