<svg id="emoji" viewBox="0 0 72 72" xmlns="http://www.w3.org/2000/svg">
  <g id="color">
    <path fill="#d0cfce" d="M46.0938,29.8141a8.0935,8.0935,0,0,0,1.231-5.1156c-.3322-8.5131-6.5889-10.9008-9.5933-13.4778,4.1911,5.4922,5.9607,10.7559,2.6157,20.8539C40.3472,32.0746,43.68,33.5811,46.0938,29.8141Z"/>
  </g>
  <g id="skin">
    <path fill="#fcea2b" d="M15.2237,17.3624C19.8487-.1792,51.1166,4.6141,39.8279,33.2791c-14.5919,35.7917-32.7917,24.6771-29.7292,13"/>
  </g>
  <g id="skin-shadow">
    <path fill="#f1b31c" d="M35.5248,33.6662c3.6637-21.8775-14.5625-17.2394-16.0056-11.6769C23.4935,6.1143,43.6107,12.3969,35.5248,33.6662Z"/>
    <path fill="#f1b31c" d="M24,25.6855c4.4385,7,8.3371,13.9079,2.3371,16.6163-1.3969.5735-2.8765.4132-4.3824,1.1735-1.5343.7223-1.8192,1.3265-3.6385,3.2848-2.5625,2.0625-5.7708-1.5465-3.9583-3.6875,3.0729-3.3958,6.4479-3.9271,4.6667-7.2083-1.2187-2.2047.4957-5.0277,4.402-3.9027Z"/>
  </g>
  <g id="line">
    <g>
      <path fill="none" stroke="#000" stroke-linecap="round" stroke-miterlimit="10" stroke-width="2" d="M50.45,18.001a20.3132,20.3132,0,0,1,1.2748,9.7546,13.6741,13.6741,0,0,1-.5124,2.2184"/>
      <path fill="none" stroke="#000" stroke-linecap="round" stroke-miterlimit="10" stroke-width="2" d="M54.6652,15.0123a27.8846,27.8846,0,0,1,1.6739,13.0089,18.6581,18.6581,0,0,1-.6573,2.9564"/>
      <path fill="none" stroke="#000" stroke-linecap="round" stroke-miterlimit="10" stroke-width="2" d="M58.9094,13.9284a32.3379,32.3379,0,0,1,1.868,14.7126,21.5331,21.5331,0,0,1-.7184,3.3416"/>
      <path fill="none" stroke="#000" stroke-linecap="round" stroke-linejoin="round" stroke-width="2" d="M46.0938,29.8141a8.0935,8.0935,0,0,0,1.231-5.1156c-.3322-8.5131-6.5889-10.9008-9.5933-13.4778,4.1911,5.4922,5.9607,10.7559,2.6157,20.8539C40.3472,32.0746,43.68,33.5811,46.0938,29.8141Z"/>
      <path fill="none" stroke="#000" stroke-linecap="round" stroke-linejoin="round" stroke-width="2" d="M19.5192,21.9893c3.9744-15.875,24.8326-10.2582,15.24,11.1183"/>
      <path fill="none" stroke="#000" stroke-linecap="round" stroke-linejoin="round" stroke-width="2" d="M10.7123,47.333C7.65,59.01,24.9329,69.8018,39.5248,34.01,50.8373,5.9268,20.5873.1351,15.9623,17.6768c0,0-2.7758,9.8921,5.3911,14.0507"/>
      <path fill="none" stroke="#000" stroke-linecap="round" stroke-linejoin="round" stroke-width="2" d="M24.8373,26.0518c4.4386,7,7.5,13.5417,1.5,16.25-1.3969.5735-2.8765.4132-4.3824,1.1735-1.5343.7223-1.8192,1.3265-3.6385,3.2848-2.5625,2.0625-5.7708-1.5465-3.9583-3.6875"/>
      <circle cx="20.0281" cy="35.5516" r="4.0484" fill="none" stroke="#000" stroke-linecap="round" stroke-linejoin="round" stroke-width="2"/>
    </g>
  </g>
  <g id="color-foreground">
    <circle cx="20.01" cy="35.494" r="3.0542" fill="#d0cfce"/>
  </g>
</svg>
