<svg id="emoji" viewBox="0 0 72 72" xmlns="http://www.w3.org/2000/svg">
  <g id="color">
    <path id="Bone_Color_1" fill="#fff" d="M57.6308,16.2773c-.7492-.6747-2.1534-.5925-3.69-.3074l.002-.0034c-3.0382.3833-3.745-4.61-5.3217-6.3872a5.5988,5.5988,0,0,0-4.7942-1.8044c-3.3581.503-4.6862,4.6674-4.8625,5.22a8.98,8.98,0,0,0-.0162,5.23A7.259,7.259,0,0,1,38.6611,23.1,57.3478,57.3478,0,0,1,21.953,44.4656a10.2284,10.2284,0,0,0-6.0247,1.645c-1.167.7675-3.44,2.2622-3.5253,4.742A5.3774,5.3774,0,0,0,14.3692,54.81c.7508.6761,2.1591.5924,3.6994.3058l-.0114.005c3.0382-.3833,3.745,4.6095,5.3217,6.3872a5.5986,5.5986,0,0,0,4.7942,1.8044c3.3581-.503,4.6862-4.6674,4.8626-5.22a8.9807,8.9807,0,0,0,.0161-5.23,5.5407,5.5407,0,0,1,.01-3.365l.37-.1363,8.6435-14.0464.3368-.5492a55.5006,55.5006,0,0,1,7.5605-8.1871,10.3173,10.3173,0,0,0,6.0991-1.6015c1.1669-.7675,3.44-2.2622,3.5252-4.742A5.3774,5.3774,0,0,0,57.6308,16.2773Z"/>
    <path id="Bone_Color_2" fill="#d0cfce" d="M22.4243,59.1764c-.9465,1.4995,2.1858,6.5792,8.5527,2.83,1.4108-.8308,1.85-3.9655,2.7855-5.8362.4811-.9627-1.3408-5.5054-.8416-6.5355,4.8771-10.0636,12.8184-19.207,17.0519-22.8138a10.3166,10.3166,0,0,0,6.099-1.6015c1.1669-.7674,3.44-2.2621,3.5252-4.7419A5.3776,5.3776,0,0,0,57.6308,16.52c-2.0734-1.867-3.8687-.9947-4.0321-.6918,0,0,1.1287,2.1825-1.8611,5.2919C44.6469,28.4939,32.767,43.8363,27.0105,55.5732,24.3916,60.9129,22.4243,59.1764,22.4243,59.1764Z"/>
  </g>
  <g id="line">
    <path id="Bone_Line_1" fill="none" stroke="#000" stroke-linecap="round" stroke-linejoin="round" stroke-width="2" d="M47.39,16.6351c1.0969,1.92,8.1674-1.9826,10.2408-.1156a5.3776,5.3776,0,0,1,1.9662,3.9577c-.0856,2.48-2.3583,3.9745-3.5252,4.7419a10.3166,10.3166,0,0,1-6.099,1.6015c-7.2788,6.2013-13.999,17.304-16.541,21.9142a5.9007,5.9007,0,0,0-.38,4.37,8.9807,8.9807,0,0,1-.0161,5.23c-.1764.5528-1.5045,4.7173-4.8626,5.22a5.5986,5.5986,0,0,1-4.7941-1.8044c-1.5768-1.7777-2.2836-6.7706-5.3218-6.3873"/>
    <path id="Bone_Line_1-2" fill="none" stroke="#000" stroke-linecap="round" stroke-linejoin="round" stroke-width="2" d="M24.61,54.9369c-1.097-1.92-8.1675,1.9826-10.2409.1156a5.3776,5.3776,0,0,1-1.9662-3.9577c.0856-2.48,2.3583-3.9745,3.5252-4.7419a10.2279,10.2279,0,0,1,6.0247-1.645A57.3482,57.3482,0,0,0,38.6611,23.3417a7.26,7.26,0,0,0,.2871-4.8744,8.98,8.98,0,0,1,.0162-5.23c.1763-.5528,1.5044-4.7173,4.8625-5.22a5.5988,5.5988,0,0,1,4.7942,1.8044c1.5767,1.7777,2.2835,6.7706,5.3218,6.3873"/>
  </g>
</svg>
