<svg id="emoji" x="0" y="0" viewBox="0 0 72 72" version="1.1" xmlns="http://www.w3.org/2000/svg">
  <g id="hair">
    <path fill="#000000" d="M26,39c-4,0-4-6-4-13s4-14,14-14s14,7,14,14s0,13-4,13"/>
  </g>
  <g id="skin">
    <path fill="#a57939" d="M24.9365,31c0,9,4.9365,14,11,14C41.873,45,47,40,47,31c0-3-1-5.0005-1-5.0005c-3-2.9995-7-8-7-8 c-4,3-7,6-13,7.0005C26,25,24.9365,25.9995,24.9365,31z"/>
  </g>
  <g id="color">
    <path fill="#3F3F3F" d="M35.9935,45c-2.7523,0-5.2888-1.2704-7.2341-3.4094L13.3912,41.583 c1.694,2.6777,4.6436,8.9425,5.1442,10.7899h34.9291c0.4994-1.8426,3.4345-8.0783,5.1306-10.7675l-15.3727-0.0076 C41.2778,43.7329,38.7431,45,35.9935,45z"/>
    <path fill="#5C9E31" d="M36,32.706c-0.4906,0.9134-2.9358,2.556-5.8905,2.566c-2.4937,0.0084-5.3503-1.146-7.7007-4.8833 c-0.8499-1.3361-2.4223-5.0381-2.4223-8.0675c1.9916,6.7499,6.304,3.5056,10.6368,3.5306c1.848,0.0107,3.6998,0.6161,5.3767,2.8456 c1.6769-2.2294,3.5286-2.8349,5.3767-2.8456c4.3328-0.025,8.6452,3.2193,10.6368-3.5306c0,3.0294-1.5724,6.7314-2.4223,8.0675 c-2.3504,3.7372-5.207,4.8917-7.7007,4.8833C38.9358,35.262,36.4906,33.6194,36,32.706z"/>
    <path fill="#B1CC33" d="M17,61v-4c0-4.9941,5.0078-9,10-9c6,5,12,5,18,0c4.9941,0,10,4.0059,10,9v4"/>
    <path fill="#3F3F3F" d="M47.392,61c-0.2717-1.0124-0.6203-3.1588-1.0429-4.118c-1.0368-2.3375-2.4915-4.4662-4.2926-6.2814H29.9435 c-1.8011,1.8152-3.2558,3.9439-4.2926,6.2814c-0.4226,0.9592-0.7712,3.1056-1.0429,4.118"/>
  </g>
  <g id="line">
    <path fill="none" stroke="#000000" stroke-linecap="round" stroke-linejoin="round" stroke-width="2" d="M39,38.9729 c-1.875-1-4.125-1-6,0"/>
    <path d="M42,29.9729c0,1.1046-0.8954,2-2,2s-2-0.8954-2-2s0.8954-2,2-2S42,28.8683,42,29.9729"/>
    <path d="M34,29.9729c0,1.1046-0.8954,2-2,2c-1.1046,0-2-0.8954-2-2s0.8954-2,2-2C33.1046,27.9729,34,28.8683,34,29.9729"/>
    <path fill="none" stroke="#000000" stroke-linecap="round" stroke-linejoin="round" stroke-width="2" d="M28.264,41.6054 L13.3913,41.583c1.694,2.6777,4.6436,8.9425,5.1442,10.7899"/>
    <path fill="none" stroke="#000000" stroke-linecap="round" stroke-miterlimit="10" stroke-width="2" d="M20.5496,53.6671 c1.0817-1.4077,2.4649-2.5554,4.048-3.3589c1.0422-0.5249,2.1568-0.8916,3.3071-1.088"/>
    <path fill="none" stroke="#000000" stroke-linecap="round" stroke-miterlimit="10" stroke-width="2" d="M29.2085,49.7066 c-3.4125,1.1596-5.9768,4.0098-6.7705,7.5255"/>
    <path fill="none" stroke="#000000" stroke-linecap="round" stroke-miterlimit="10" stroke-width="2" d="M29.9435,50.6006 c-1.8011,1.8152-3.2558,3.9439-4.2926,6.2814c-0.4226,0.9592-0.7712,2.1056-1.0429,3.118"/>
    <path fill="none" stroke="#000000" stroke-linecap="round" stroke-linejoin="round" stroke-width="2" d="M17,60v-3 c0-4.9941,5.0078-9,10-9c6,5,12,5,18,0c4.9941,0,10,4.0059,10,9v3"/>
    <path fill="none" stroke="#000000" stroke-linecap="round" stroke-linejoin="round" stroke-width="2" d="M53.4646,52.3729 c0.5006-1.8474,3.4502-8.1122,5.1442-10.7899l-15.0685,0.0224"/>
    <path fill="none" stroke="#000000" stroke-linecap="round" stroke-miterlimit="10" stroke-width="2" d="M44.0953,49.2202 c1.1503,0.1964,2.2649,0.5631,3.3071,1.088c1.5831,0.8035,2.9663,1.9512,4.048,3.3589"/>
    <path fill="none" stroke="#000000" stroke-linecap="round" stroke-miterlimit="10" stroke-width="2" d="M49.562,57.2321 c-0.7937-3.5157-3.358-6.3659-6.7705-7.5255"/>
    <path fill="none" stroke="#000000" stroke-linecap="round" stroke-miterlimit="10" stroke-width="2" d="M47.392,60 c-0.2717-1.0124-0.6203-2.1588-1.0429-3.118c-1.0368-2.3375-2.4915-4.4662-4.2926-6.2814"/>
    <path fill="none" stroke="#000000" stroke-linejoin="round" stroke-width="2" d="M36,32.706 c-0.4906,0.9134-2.9358,2.556-5.8905,2.566c-2.4937,0.0084-5.3503-1.146-7.7007-4.8833c-0.8499-1.3361-2.4223-5.0381-2.4223-8.0675 c1.9916,6.7499,6.304,3.5056,10.6368,3.5306c1.848,0.0107,3.6998,0.6161,5.3767,2.8456c1.6769-2.2294,3.5286-2.8349,5.3767-2.8456 c4.3328-0.025,8.6452,3.2193,10.6368-3.5306c0,3.0294-1.5724,6.7314-2.4223,8.0675c-2.3504,3.7372-5.207,4.8917-7.7007,4.8833 C38.9358,35.262,36.4906,33.6194,36,32.706z"/>
    <path fill="none" stroke="#000000" stroke-linecap="round" stroke-linejoin="round" stroke-width="2" d="M49.9933,25.8157 C49.9235,18.8777,45.9122,12,36,12s-13.9235,6.8777-13.9933,13.8157"/>
    <path fill="none" stroke="#000000" stroke-linecap="round" stroke-linejoin="round" stroke-width="2" d="M46,39 c3.2681,0,3.8655-4.0066,3.975-9.29"/>
    <path fill="none" stroke="#000000" stroke-linecap="round" stroke-linejoin="round" stroke-width="2" d="M22.025,29.71 C22.1345,34.9934,22.7319,39,26,39"/>
    <path fill="none" stroke="#000000" stroke-linecap="round" stroke-linejoin="round" stroke-width="2" d="M46.2142,26.5153 C46.0914,26.1923,46,25.9995,46,25.9995c-3-2.9995-7-8-7-8c-4,3-7,6-13,7.0005c0,0-0.351,0.3353-0.6498,1.5657"/>
    <path fill="none" stroke="#000000" stroke-linecap="round" stroke-linejoin="round" stroke-width="2" d="M25.0826,33.465 C25.9066,40.9007,30.4542,45,35.9365,45c5.3525,0,10.0335-4.0765,10.9053-11.4729"/>
  </g>
</svg>
