<svg id="emoji" viewBox="0 0 72 72" xmlns="http://www.w3.org/2000/svg">
  <g id="color">
    <path fill="#f4aa41" d="m49.15 65.85c7.524-4.309 12.53-10.69 12.53-19.98 0-2.521-2.033-4.476-2.727-6.77l-5.336-8.306-32.2 0.51-5.61 5.587c-0.6942 2.295-2.597 8.88-2.597 11.4 0 9.292 3.599 13.25 11.12 17.56z"/>
    <path fill="#e27022" d="m58.9 39.03-5.066-7.885a0.7549 0.7549 0 0 0-0.6351-0.3468h-4.424a0.7549 0.7549 0 0 0-0.6717 1.099l1.514 2.952a16.01 16.01 0 0 1 1.351 3.691c0.2916 1.257 0.64 2.766 0.7695 3.349a22.91 22.91 0 0 1 0.5136 6.113c-0.4674 5.59-2.793 13.41-10.17 17.74a0.7889 0.7889 0 0 1-0.397 0.1074h11.26a0.7958 0.7958 0 0 0 0.4-0.1086c7.348-4.324 8.008-11.64 8.008-20.86 0-2.489-1.662-3.466-2.372-5.698a0.6811 0.6811 0 0 0-0.0745-0.1608z"/>
    <rect x="21.81" y="24.04" width="31.36" height="6.114" fill="#9b9b9a"/>
    <path fill="none" stroke="#9b9b9a" stroke-linecap="round" stroke-linejoin="round" stroke-width="2" d="m39.4 19.67 2.467-6.773c1.23-3.378 3.565-5.473 6.098-5.473h9.577"/>
  </g>
  <g id="line">
    <path fill="none" stroke="#000" stroke-linecap="round" stroke-linejoin="round" stroke-width="2" d="m37.2 30.8h16.42s8.005 10.28 8.211 16.97c0.1908 6.208-2.786 14.34-9.316 18.08h-29.99c-6.53-3.74-9.507-11.88-9.316-18.08 0.2057-6.694 8.211-16.97 8.211-16.97h16.42"/>
    <path fill="none" stroke="#000" stroke-linecap="round" stroke-linejoin="round" stroke-width="2" d="m37.54 19.5 2.766-7.63c1.379-3.805 3.996-6.165 6.836-6.165h10.4"/>
    <polyline fill="none" stroke="#000" stroke-linecap="round" stroke-linejoin="round" stroke-width="2" points="21.42 30.8 21.42 23.5 53.62 23.5 53.62 30.8"/>
  </g>
</svg>
