<svg id="emoji" x="0" y="0" viewBox="0 0 72 72" version="1.1" xmlns="http://www.w3.org/2000/svg">
  <g id="color">
    <path fill="#92D3F5" d="M17.0985,61l1-4c0.882-3.7223,3.2788-6.9071,6.6115-8.785c1.7304-0.9126,3.6858-1.3109,5.6353-1.148 c0.225,0.0313-1.3287,0.251-1.0783,0.3947c7.9961,4.5894,12.1261,4.8623,16.9794,1.8752c1.8003-1.1192,4.035-1.2848,5.9806-0.4431 c3.2977,1.4523,5.8715,4.5252,5.8715,8.1062v4"/>
  </g>
  <g id="hair">
    <path fill="#F1B31C" d="M29.7468,47.1166c6.209,5.0127,12.4951,5.0127,18.7,0c1.5146,0.112,2.9698,0.6353,4.2089,1.5134 c1.0534-0.6931,2.0475-1.4724,2.972-2.33c1.1884-0.7148,3.125-8.2822,0.3916-13.0254c-0.4386-0.8533-0.8251-1.7325-1.1573-2.6326 c-1.4726-3.27-2.0234-4.4927-2.3486-10.5239c0.0273-3.6929-3.794-6.7842-7.4746-7.0928c-0.266-0.0182-0.5139-0.1418-0.6885-0.3433 c-0.0928-0.1-2.4082-2.6547-7.2432-2.6547c-6.2,0-11.4413,3.3818-12.743,8.226c-0.5339,2.0123-0.7246,4.1001-0.5641,6.1758 c0.2039,2.019-0.0563,4.0578-0.7607,5.9609c-0.2481,0.7561-0.627,1.4627-1.1193,2.0879l-1.08,5.8961l4.9189-5.5975l2.2051,2.0355 l-4.41,4.8624l3.6185,2.827l-0.113,4.7494L29.7468,47.1166z"/>
  </g>
  <g id="skin">
    <path fill="#FCEA2B" d="M18.8459,60.9583l3.2252-10.22c1.2814-0.2502,2.4901-0.7855,3.5366-1.5662 c0.7613-0.5853,1.2082-1.4904,1.21-2.4507l0.0062-0.8187l-0.9673-0.9151c2.9608-3.0021-2.9-5.0627-2.9-5.0627l3.2259-3.271 c0.637-0.5814,0.9781-1.419,0.9285-2.28c-0.1839-1.4763-2.15-0.483-2.15-0.483l-5.6295,5.7082 c-0.192,0.1954-0.3282,0.4387-0.3945,0.7046l-1.2649,5.0423c-0.2775,1.1067-0.253,2.2676,0.071,3.3616l0.22,0.7427l-4.7955,11.508 H18.8459z"/>
    <path fill="#FCEA2B" d="M28.4869,29.0647v0.957c0,7.6494,4.6093,13.6426,10.4941,13.6426s10.4942-5.9932,10.4942-13.6426 c0-4.6533-1.7784-7.5151-5.2842-11.1343c-2.8304,2.1706-5.8369,4.1012-8.9883,5.772 C32.5562,26.1736,28.9478,28.2287,28.4869,29.0647z"/>
  </g>
  <g id="line">
    <path fill="none" stroke="#000000" stroke-linecap="round" stroke-linejoin="round" stroke-width="2" d="M58.0985,60v-3 c0-4.9941-5.0059-9-10-9c-6,5-12,5-18,0"/>
    <g>
      <path fill="none" stroke="#000000" stroke-linecap="round" stroke-miterlimit="10" stroke-width="2" d="M18.5655,29.3344 c1.1934,1.6038,1.1699,3.8068-0.0575,5.3848"/>
      <path fill="none" stroke="#000000" stroke-linecap="round" stroke-miterlimit="10" stroke-width="2" d="M14.9838,27.0754 c0,0,2.5694,4.9485-0.6794,9.3944"/>
    </g>
    <g>
      <path fill="none" stroke="#000000" stroke-linecap="round" stroke-linejoin="round" stroke-width="2" d="M26.1041,45.1212 c2.9607-3.0021-2.9-5.0627-2.9-5.0627l3.226-3.271c0.637-0.5814,0.978-1.419,0.9284-2.28c-0.1838-1.4763-2.15-0.483-2.15-0.483 l-5.6295,5.7083c-0.192,0.1954-0.3282,0.4387-0.3944,0.7046L17.92,45.48c-0.2775,1.1067-0.253,2.2677,0.071,3.3617l0.22,0.7427 L13.5636,60.029"/>
      <path fill="none" stroke="#000000" stroke-linecap="round" stroke-linejoin="round" stroke-width="2" d="M27.0713,46.0363 l-0.0062,0.8187c-0.0018,0.9603-0.4487,1.8654-1.21,2.4507c-0.9974,0.8119-2.1746,1.3735-3.4333,1.6379"/>
      <line x1="22.4219" x2="19.1568" y1="50.9436" y2="60.0006" fill="none" stroke="#000000" stroke-linecap="round" stroke-linejoin="round" stroke-width="2"/>
    </g>
    <g>
      <path fill="none" stroke="#000000" stroke-linecap="round" stroke-linejoin="round" stroke-width="2" d="M20.8292,37.926 c-0.204-3.01,2.0835-6.8738,2.0835-6.8738c1.6357-4.2-0.209-6.4512,1.291-12.0342c1.4795-5.5,7.2773-8.9658,13.709-8.9658 c5.4,0,8,3,8,3c4.169,0.374,7.373,3.8515,7.4052,8.0371c0.3867,7.18,1.0244,7.1523,3.4287,12.8222 c1.6689,3.8623,1.1153,8.3256-1.4466,11.6631"/>
      <path d="M44.9127,29.0522c0,1.1046-0.8954,2-2,2s-2-0.8954-2-2s0.8954-2,2-2S44.9127,27.9476,44.9127,29.0522"/>
      <path d="M36.9127,29.0522c0,1.1046-0.8954,2-2,2s-2-0.8954-2-2s0.8954-2,2-2S36.9127,27.9476,36.9127,29.0522"/>
      <path fill="none" stroke="#000000" stroke-linejoin="round" stroke-width="2" d="M27.9127,30.0522c0,8,5,14,11,14s11-6,11-14 c0-5-2-8-6-12c-4,4-16,9-16,11V30.0522z"/>
      <path fill="none" stroke="#000000" stroke-linecap="round" stroke-linejoin="round" stroke-width="2" d="M35.895,37.1205 c1.8826-0.9693,4.1174-0.9693,6,0v0.2729c-1.8826,0.9693-4.1174,0.9693-6,0V37.1205z"/>
    </g>
  </g>
</svg>
