<svg id="emoji" viewBox="0 0 72 72" xmlns="http://www.w3.org/2000/svg">
  <g id="color">
    <g id="color-2">
      <path fill="#92d3f5" d="M17.0985,61l1-4A13.7126,13.7126,0,0,1,24.71,48.215a10.25,10.25,0,0,1,5.6353-1.148c.225.0313-1.3287.251-1.0783.3947,7.9961,4.5894,12.1261,4.8623,16.9794,1.8752a6.4655,6.4655,0,0,1,5.9806-.4431C55.5247,50.3461,58.0985,53.419,58.0985,57v4"/>
    </g>
  </g>
  <g id="hair">
    <path fill="#f1b31c" d="M39.0985,12c-10,0-14,7-14,14s0,13,4,13h.6336a17.7974,17.7974,0,0,1-1.6971-8c0-5,1.0635-6,1.0635-6,6-1,9-4,13-7,0,0,4,5,7,8a12.1371,12.1371,0,0,1,1,5,17.4511,17.4511,0,0,1-1.7462,8h.7462c4,0,4-6,4-13S49.0985,12,39.0985,12Z"/>
  </g>
  <g id="skin">
    <path fill="#fcea2b" d="M28.035,31c0,9,4.9365,14,11,14,5.9365,0,11.0635-5,11.0635-14a12.1371,12.1371,0,0,0-1-5c-3-3-7-8-7-8-4,3-7,6-13,7C29.0985,25,28.035,26,28.035,31Z"/>
    <path fill="#fcea2b" d="M18.8459,60.9583l3.2252-10.22a8.7039,8.7039,0,0,0,3.5366-1.5662,3.0988,3.0988,0,0,0,1.21-2.4507l.0062-.8187-.9673-.9151c2.9608-3.0021-2.9-5.0627-2.9-5.0627l3.2259-3.271a2.8641,2.8641,0,0,0,.9285-2.28c-.1839-1.4763-2.15-.483-2.15-.483l-5.6295,5.7082a1.5349,1.5349,0,0,0-.3945.7046l-1.2649,5.0423a6.3773,6.3773,0,0,0,.071,3.3616l.22.7427L13.1676,60.9583Z"/>
  </g>
  <g id="line">
    <path fill="none" stroke="#000" stroke-linecap="round" stroke-linejoin="round" stroke-width="2" d="M29.0985,39a2.8777,2.8777,0,0,1-2.4938-1.2827c-.724-1.0235,4.6251-4.803-1.2952-4.5278,0,0-.211-4.5645-.211-7.19,0-7,4-14,14-14s14,7,14,14,0,13-4,13"/>
    <path fill="none" stroke="#000" stroke-linecap="round" stroke-linejoin="round" stroke-width="2" d="M58.0985,60V57c0-4.9941-5.0059-9-10-9q-9,7.5-18,0"/>
    <path d="M44.9715,30a2,2,0,1,1-2-2,2,2,0,0,1,2,2"/>
    <path d="M36.9715,30a2,2,0,1,1-2-2,2,2,0,0,1,2,2"/>
    <path fill="none" stroke="#000" stroke-linejoin="round" stroke-width="2" d="M28.035,31c0,9,4.9365,14,11,14,5.9365,0,11.0635-5,11.0635-14a12.1371,12.1371,0,0,0-1-5c-3-3-7-8-7-8-4,3-7,6-13,7C29.0985,25,28.035,26,28.035,31Z"/>
    <path fill="none" stroke="#000" stroke-linecap="round" stroke-linejoin="round" stroke-width="2" d="M36.0985,37.7271a6.5535,6.5535,0,0,1,6,0V38a6.5535,6.5535,0,0,1-6,0Z"/>
    <path fill="none" stroke="#000" stroke-linecap="round" stroke-miterlimit="10" stroke-width="2" d="M19.8838,29.3344a4.447,4.447,0,0,1-.0575,5.3848"/>
    <path fill="none" stroke="#000" stroke-linecap="round" stroke-miterlimit="10" stroke-width="2" d="M15.7264,27.5s2.5694,4.9484-.6794,9.3943"/>
    <g>
      <path fill="none" stroke="#000" stroke-linecap="round" stroke-linejoin="round" stroke-width="2" d="M26.1041,45.1212c2.9607-3.0021-2.9-5.0627-2.9-5.0627l3.226-3.271a2.864,2.864,0,0,0,.9284-2.28c-.1838-1.4763-2.15-.483-2.15-.483L19.579,39.7328a1.5347,1.5347,0,0,0-.3944.7046L17.92,45.48a6.3777,6.3777,0,0,0,.071,3.3617l.22.7427L13.5636,60.029"/>
      <path fill="none" stroke="#000" stroke-linecap="round" stroke-linejoin="round" stroke-width="2" d="M27.0713,46.0363l-.0062.8187a3.0988,3.0988,0,0,1-1.21,2.4507,8.0641,8.0641,0,0,1-3.4333,1.6379"/>
      <line x1="22.4219" x2="19.1568" y1="50.9436" y2="60.0006" fill="#fcea2b" stroke="#000" stroke-linecap="round" stroke-linejoin="round" stroke-width="2"/>
    </g>
  </g>
</svg>
