<svg id="emoji" viewBox="0 0 72 72" xmlns="http://www.w3.org/2000/svg">
  <g id="color"/>
  <g id="skin">
    <g id="color-2">
      <path fill="#fcea2b" d="M42.533,22.2881a4.3,4.3,0,0,0-4.209-4.1314h-6a4.3,4.3,0,0,0-4.209,4.1314l-.792,19.4393a1.0173,1.0173,0,0,1-.1209.4369L30.1357,40.07l-.7136,22.1333a1.2322,1.2322,0,0,0,.25.8789.2412.2412,0,0,0,.152.09c.214,0,.656-.4266.735-1.1254l2.8986-22.5033a4.9252,4.9252,0,0,1,.4028-1.1922l.7246-.8052H36.21l.984.6231a4.9259,4.9259,0,0,1,.352,1.3413l2.542,22.5343c.079.6978.522,1.1254.736,1.1254a.242.242,0,0,0,.152-.09c.1922-.2483.4894-.585.4568-.9l-.9322-22.11L44,42.5"/>
      <circle cx="35.4039" cy="10.6511" r="2.969" fill="#fcea2b"/>
    </g>
  </g>
  <g id="line">
    <g id="Standing_Man">
      <g id="line-2">
        <circle cx="35.4039" cy="10.6511" r="2.969" fill="none" stroke="#000" stroke-miterlimit="10" stroke-width="2"/>
        <path fill="none" stroke="#000" stroke-linecap="round" stroke-linejoin="round" stroke-width="2" d="M40.37,23.5891l1.9,38c.055,1.1-.575,2-1.4,2a2.076,2.076,0,0,1-1.729-1.987l-2.542-22.031c-.129-1.093-.679-1.987-1.229-1.987s-1.103.894-1.229,1.987l-2.539,22.031a2.076,2.076,0,0,1-1.729,1.987c-.825,0-1.455-.9-1.4-2l1.9-38"/>
        <path fill="none" stroke="#000" stroke-linecap="round" stroke-linejoin="round" stroke-width="2" d="M26.3729,41.5891l.792-19a5.274,5.274,0,0,1,5.208-5h6"/>
      </g>
      <path fill="none" stroke="#000" stroke-linecap="round" stroke-linejoin="round" stroke-width="2" d="M38.3,17.589a5.274,5.274,0,0,1,5.208,5l.792,19"/>
    </g>
  </g>
</svg>
