<svg id="emoji" viewBox="0 0 72 72" xmlns="http://www.w3.org/2000/svg">
  <g id="color">
    <path fill="#9b9b9a" stroke="none" d="M50.9022,27.5212c0,1.2253-0.1469,2.4164-0.4241,3.5564c-1.5969,6.5676-7.5169,11.4436-14.5759,11.4436 c-7.0588,0-12.9787-4.8758-14.5758-11.4431c-0.2772-1.1402-0.4242-2.3314-0.4242-3.5569c0-8.2843,6.7157-15,15-15 S50.9022,19.2369,50.9022,27.5212z"/>
    <path fill="#d0cfce" stroke="none" d="M31.9312,12.9274c0,0-6.5188,2.2396-9.1842,7.3842c-1.1602,2.1133-3.0061,3.5059-1.4206,10.7665 c1.5855,7.2605,10.5604,11.0474,10.5604,11.0474c5.4844-1.2857,9.8095-5.5807,11.1387-11.0479 c0.2773-1.1401,0.424-2.3311,0.424-3.5564C43.4495,20.4355,38.5367,14.4973,31.9312,12.9274z"/>
    <path fill="#d0cfce" stroke="none" d="M16.7643,58.7383c0,0-2-13.5,10-13.5c3.1919,2.1279,5.9264,3.5984,9,3.5922h-0.125 c3.0736,0.0062,5.5082-2.1643,8.7-4.2922c15.5705,0,10.7,14.2,10.7,14.2"/>
    <rect x="28.4496" y="52.8928" width="15.5608" height="5.8236" fill="#9b9b9a" stroke="none"/>
    <path fill="#9b9b9a" stroke="none" d="M44.7452,45.6655c-3.1699,2.1132-4.875,3-8.9375,3.5885c13.0625,0.4115,13.0625,5.4115,13.8246,9.4115 c4.2379,0,5.1129,0,5.1129,0S56.7452,45.6655,44.7452,45.6655z"/>
  </g>
  <g id="hair"/>
  <g id="skin">
    <path fill="#6a462f" stroke="#6a462f" d="M47.1168,26.5485c-0.365-2.5625-13.943-8.544-22.2102-0.8061c0,0-0.3152,1.9842-0.3152,3.1318 c0,7.8276,5.0766,14.1732,11.3388,14.1732c6.262,0,11.3384-6.3456,11.3384-14.1732C47.2686,28.082,47.4817,29.111,47.1168,26.5485z"/>
  </g>
  <g id="skin-shadow"/>
  <g id="line">
    <path fill="#000000" stroke="none" d="M34.7953,58.7082c0.0426-0.1623,0.0653-0.3327,0.0653-0.5083c0-1.1035-0.8965-2-2-2h0.0068c-1.1035,0-2,0.8965-2,2 c0,0.1756,0.0227,0.346,0.0653,0.5083"/>
    <path fill="#000000" stroke="none" d="M41.4973,58.7082c0.0426-0.1623,0.0653-0.3327,0.0653-0.5083c0-1.1035-0.8965-2-2-2h0.0068c-1.1035,0-2,0.8965-2,2 c0,0.1756,0.0227,0.346,0.0653,0.5083"/>
    <path fill="none" stroke="#000000" stroke-linecap="round" stroke-linejoin="round" stroke-miterlimit="10" stroke-width="2" d="M16.8702,57.8071c0,0-2-13,10-13c3.1918,2.1279,5.9264,3.5984,9,3.5921h-0.125c3.0736,0.0063,5.8081-1.4642,9-3.5921 c12,0,10,13,10,13"/>
    <path fill="none" stroke="#000000" stroke-linecap="round" stroke-linejoin="round" stroke-miterlimit="10" stroke-width="2" d="M47.7916,28.0765c-0.2095-0.3905-0.4467-0.7659-0.7094-1.1234c-1.1918-1.6212-2.9103-2.8724-4.9635-3.4745 c-2.1203-0.6217-4.1294-0.903-6.2164-0.8438c-2.0871-0.0592-4.0963,0.2221-6.2165,0.8438 c-2.5057,0.7348-4.513,2.4362-5.6725,4.5972"/>
    <line x1="53.8642" x2="53.8642" y1="25.4561" y2="30.2269" fill="none" stroke="#000000" stroke-linecap="round" stroke-linejoin="round" stroke-miterlimit="10" stroke-width="2"/>
    <line x1="17.7512" x2="17.7512" y1="25.4561" y2="30.2269" fill="none" stroke="#000000" stroke-linecap="round" stroke-linejoin="round" stroke-miterlimit="10" stroke-width="2"/>
    <polyline fill="none" stroke="#000000" stroke-linecap="round" stroke-linejoin="round" stroke-miterlimit="10" stroke-width="2" points="43.8305,57.7854 43.8305,52.9773 28.5695,52.9773 28.5695,57.7854"/>
    <path fill="#000000" stroke="none" d="M41.9302,26.9543c0,1.1045-0.8965,2-2,2c-1.1035,0-2-0.8955-2-2c0-1.1035,0.8965-2,2-2 C41.0337,24.9543,41.9302,25.8508,41.9302,26.9543"/>
    <path fill="#000000" stroke="none" d="M33.9302,26.9543c0,1.1045-0.8965,2-2,2c-1.1035,0-2-0.8955-2-2c0-1.1035,0.8965-2,2-2 C33.0337,24.9543,33.9302,25.8508,33.9302,26.9543"/>
    <path fill="#000000" stroke="none" d="M35.9301,36.9567c-1.1519,0-2.3037-0.2861-3.4473-0.8579c-0.4941-0.2471-0.6943-0.8476-0.4472-1.3418 c0.2465-0.4936,0.8462-0.6943,1.3418-0.4473c1.7177,0.8594,3.3877,0.8594,5.1054,0c0.4947-0.247,1.0948-0.0463,1.3418,0.4473 c0.2471,0.4942,0.0469,1.0947-0.4472,1.3418C38.2338,36.6706,37.082,36.9567,35.9301,36.9567z"/>
    <path fill="none" stroke="#000000" stroke-miterlimit="10" stroke-width="2" d="M46.2349,34.2361 c0.6636-1.8017,1.0338-3.8073,1.0338-5.921c0-0.3873-0.0125-0.771-0.0368-1.1505"/>
    <path fill="none" stroke="#000000" stroke-miterlimit="10" stroke-width="2" d="M24.6342,27.0769 c-0.0283,0.408-0.0427,0.821-0.0427,1.2382c0,7.8277,5.0765,14.1732,11.3386,14.1732"/>
    <path fill="none" stroke="#000000" stroke-linecap="round" stroke-miterlimit="10" stroke-width="2" d="M36.5562,39.343 c0,0,7.0406-0.0053,9.5918-5.1389"/>
    <path fill="none" stroke="#000000" stroke-linecap="round" stroke-linejoin="round" stroke-miterlimit="10" stroke-width="2" d="M50.9022,27.5212c0,1.2253-0.1469,2.4164-0.4241,3.5564c-1.5969,6.5676-7.5169,11.4436-14.5759,11.4436 c-7.0588,0-12.9787-4.8758-14.5758-11.4431c-0.2772-1.1402-0.4242-2.3314-0.4242-3.5569c0-8.2843,6.7157-15,15-15 S50.9022,19.2369,50.9022,27.5212z"/>
  </g>
</svg>
