<svg id="emoji" viewBox="0 0 72 72" xmlns="http://www.w3.org/2000/svg">
  <g id="color">
    <path fill="#92D3F5" d="M18,61v-4.1c0-5,3.8-9,8.8-9c6,5,12,5,18,0c5,0,9.2,4,9.2,9V61"/>
  </g>
  <g id="hair">
    <path fill="#000000" d="M26,40c-6,0-5-16-2-20c6-8,18-8,24,0c3,4,4,20-2,20"/>
  </g>
  <g id="skin">
    <path fill="#6a462f" d="M25,34c0,8,4.8,11.9,10.8,11.9S47,42,47,34c0-5.9-2.2-9.2-2.2-9.2c-2,0-5.8-3.5-5.8-3.5s-8.2,5.5-12.8,5.5 C26.2,26.8,25,28,25,34z"/>
  </g>
  <g id="skin-shadow"/>
  <g id="line">
    <path fill="none" stroke="#000000" stroke-linecap="round" stroke-linejoin="round" stroke-width="2" d="M26,40c-6,0-5-16-2-20 c6-8,18-8,24,0c3,4,4,20-2,20"/>
    <path fill="none" stroke="#000000" stroke-linecap="round" stroke-linejoin="round" stroke-width="2" d="M18,60v-3.1 c0-5,3.8-9,8.8-9c6,5,12,5,18,0c5,0,9.2,4,9.2,9V60"/>
    <path d="M42,33c0,1.1-0.9,2-2,2s-2-0.9-2-2s0.9-2,2-2S42,31.9,42,33"/>
    <path d="M34,33c0,1.1-0.9,2-2,2s-2-0.9-2-2s0.9-2,2-2C33.1,31,34,31.9,34,33"/>
    <path fill="none" stroke="#000000" stroke-linejoin="round" stroke-width="2" d="M25,34c0,8,4.8,11.9,10.8,11.9S47,42,47,34 c0-5.9-2.2-9.2-2.2-9.2c-2,0-5.8-3.5-5.8-3.5s-8.2,5.5-12.8,5.5C26.2,26.8,25,28,25,34z"/>
    <path fill="none" stroke="#000000" stroke-linecap="round" stroke-linejoin="round" stroke-width="2" d="M32.8,39.2 c1.9,1,4.1,1,6,0"/>
  </g>
</svg>
