<svg id="emoji" viewBox="0 0 72 72" xmlns="http://www.w3.org/2000/svg">
  <g id="color">
    <path fill="#ffa7c0" d="M54.9246,60.9315s2-14.0268-10-14.0268c-3.1919,2.1279-5.9264,3.5984-9,3.5921h.125c-3.0736.0063-5.8082-1.4642-9-3.5921-12,0-10,14.0268-10,14.0268Z"/>
    <path fill="#e67a94" d="M45.3106,46.9047a18.0129,18.0129,0,0,1-8.9375,3.5885c13.0625.4115,12.9775,6.395,13.74,10.395h5.1129S57.3106,46.9047,45.3106,46.9047Z"/>
    <polyline fill="#6a462f" points="18.058 52.064 18.058 42.499 25.143 42.499 25.143 46.063"/>
    <path fill="#a57939" d="M47.97,60.9583C29.4706,55.8225,27.05,46.9047,27.05,46.9047s-4.2.2046-5.6776,1.3537c3.1163,6.4287,5.9346,9.5505,14.1044,12.6807"/>
  </g>
  <g id="skin">
    <path fill="#c19a65" d="M38.1556,20.7562a9.3946,9.3946,0,0,1-2.18-5.054c-.028,0-.0549-.0052-.0829-.0052a8.2719,8.2719,0,0,1-1.98,5.0591,10.8766,10.8766,0,0,1-8.7937,4.7087,17.3993,17.3993,0,0,0-.5656,4.4052c0,7.8277,5.0765,14.1732,11.3386,14.1732S47.231,37.6977,47.231,29.87a17.3453,17.3453,0,0,0-.6258-4.6109A9.7529,9.7529,0,0,1,38.1556,20.7562Z"/>
    <path fill="#c19a65" d="M46.6784,24.6989l11.45-1.6359s-6.2678,9.8488-10.494,8.7989"/>
    <path fill="#c19a65" d="M25.5687,24.68,14.2512,23.063S20.44,32.7981,24.6175,31.76"/>
  </g>
  <g id="hair">
    <path fill="#6a462f" d="M35.8617,11.9194A15.35,15.35,0,0,0,20.7253,24.765c8.8261,3.0574,13.1564-3.9388,13.1564-3.9388a8.2716,8.2716,0,0,0,1.98-5.0592h.0826a9.3969,9.3969,0,0,0,2.18,5.0592s3.413,6.46,12.8727,3.93A15.3509,15.3509,0,0,0,35.8617,11.9194Z"/>
    <path fill="#6a462f" d="M47.2631,32.3374l4.8794-1.5357s-.943,1.64,1.023,3.999C54.8648,36.84,58.31,38.54,57.38,42.0739a9.8857,9.8857,0,0,0,2.8549,9.9242c3.4065,3.23.0162,8.9354.0162,8.9354H54.8394c1.767-13.95-9.5789-13.8569-9.5789-13.8569-10.4159,8.0909-17.3908,0-17.3908,0l-2.139.372-.093-4.371-7.6259-.186.2789,9.3-1.2285,8.7H11.6085c-3.19-7.3723-.3577-8.8028,1.5455-11.1139,1.4022-1.7026,1.7421-7.0244,1.7421-7.0244s-1.7374-3.9066,2.4935-7.603c3.5625-3.1125,2.4133-4.8758,2.4133-4.8758L24.57,32.4385S28.895,44.64,35.4185,44.08c7.2879-.6255,10.248-3.8931,11.8446-11.7429"/>
  </g>
  <g id="line">
    <path d="M42.0105,28.5516a2,2,0,1,1-2-2,2.0007,2.0007,0,0,1,2,2"/>
    <path d="M34.0105,28.5516a2,2,0,1,1-2-2,2.0007,2.0007,0,0,1,2,2"/>
    <path d="M36.01,38.554a7.6528,7.6528,0,0,1-3.4473-.8579,1,1,0,0,1,.8945-1.7891,5.3774,5.3774,0,0,0,5.1055,0,1,1,0,1,1,.8945,1.7891A7.6524,7.6524,0,0,1,36.01,38.554Z"/>
    <path fill="none" stroke="#000" stroke-linecap="round" stroke-linejoin="round" stroke-width="2" d="M50.9578,24.1129C46.4844,10.4921,36.01,11.8916,36.01,11.8916S25.6572,10.5082,21.1412,23.878"/>
    <path fill="none" stroke="#000" stroke-linecap="round" stroke-linejoin="round" stroke-width="2" d="M25.4555,24.6987,14.138,23.0816s6.1889,9.7351,10.3663,8.6973"/>
    <path fill="none" stroke="#000" stroke-linecap="round" stroke-linejoin="round" stroke-width="2" d="M46.5652,24.7175l11.45-1.6359s-6.2678,9.8488-10.494,8.7989"/>
    <circle cx="36.0104" cy="22.1129" r="1.5"/>
    <path fill="none" stroke="#000" stroke-linecap="round" stroke-linejoin="round" stroke-width="2" d="M36.01,15.7392a20.4581,20.4581,0,0,1-3.08,5.0592"/>
    <path fill="none" stroke="#000" stroke-linecap="round" stroke-linejoin="round" stroke-width="2" d="M36.01,15.7392a20.4558,20.4558,0,0,0,3.08,5.0592"/>
    <polyline fill="none" stroke="#000" stroke-linecap="round" stroke-linejoin="round" stroke-width="2" points="18.082 52.072 18.082 42.506 25.167 42.506 25.167 46.071"/>
    <line x1="20.0159" x2="20.0159" y1="42.4677" y2="37.7245" fill="none" stroke="#000" stroke-linecap="round" stroke-linejoin="round" stroke-width="2"/>
    <line x1="23.3874" x2="23.3874" y1="42.5065" y2="39.0652" fill="none" stroke="#000" stroke-linecap="round" stroke-linejoin="round" stroke-width="2"/>
    <path fill="none" stroke="#000" stroke-linecap="round" stroke-linejoin="round" stroke-width="2" d="M54.9479,59.9124s2-13-10-13c-3.1919,2.1279-5.9264,3.5984-9,3.5921h.125c-3.0736.0063-5.8082-1.4642-9-3.5921-12,0-10,13-10,13"/>
    <path fill="none" stroke="#000" stroke-linecap="round" stroke-linejoin="round" stroke-width="2" d="M26.4333,24.51l-.9825.2293a17.29,17.29,0,0,0-.779,5.1733c0,7.8276,5.0765,14.1732,11.3386,14.1732S47.349,37.74,47.349,29.9124a17.29,17.29,0,0,0-.7791-5.1733l-.8123-.3239"/>
    <path fill="none" stroke="#000" stroke-linecap="round" stroke-linejoin="round" stroke-width="2" d="M46.5652,24.7175l11.45-1.6359s-6.2678,9.8488-10.494,8.7989"/>
    <path fill="none" stroke="#000" stroke-linecap="round" stroke-linejoin="round" stroke-width="2" d="M47.89,59.9691C29.3908,54.8333,27.0729,46.9124,27.0729,46.9124s-4.2.2046-5.6776,1.3537c3.1163,6.4287,5.69,8.6387,13.86,11.7689"/>
    <path fill="none" stroke="#000" stroke-linecap="round" stroke-linejoin="round" stroke-width="2" d="M19.6347,30.2912s-.06,3.717-2.7115,5.1447c-2.5417,1.4408-2.7524,4.5177-2.2435,7.0705.7479,3.5353.4079,5.7108-2.2435,8.0223-3.12,2.72-2.1923,7.7515-.9,9.3831"/>
    <path fill="none" stroke="#000" stroke-linecap="round" stroke-linejoin="round" stroke-width="2" d="M26.8294,21.54a6.5528,6.5528,0,0,0,6.0977,1.5354"/>
    <path fill="none" stroke="#000" stroke-linecap="round" stroke-linejoin="round" stroke-width="2" d="M45.19,21.54a6.5525,6.5525,0,0,1-6.0976,1.5354"/>
    <path fill="none" stroke="#000" stroke-linecap="round" stroke-linejoin="round" stroke-width="2" d="M52.2,30.2912s.06,3.717,2.7115,5.1447c2.5417,1.4408,2.7524,4.5177,2.2435,7.0705-.7478,3.5353-.4079,5.7108,2.2435,8.0223,3.12,2.72,2.1923,7.7515.9006,9.3831"/>
  </g>
</svg>
