<svg id="emoji" x="0" y="0" viewBox="0 0 72 72" version="1.1" xmlns="http://www.w3.org/2000/svg">
  <g id="color">
    <path fill="#3F3F3F" d="M54.8621,58.8041c0,0,2-14-10-14c-3.1918,2.1279-5.9264,3.5984-9,3.5921h0.125 c-3.0736,0.0063-5.8081-1.4642-9-3.5921c-12,0-10,14-10,14"/>
    <polygon fill="#9B9B9A" points="45.1314,12.1554 35.8214,13.0654 26.7514,12.1854 21.3114,11.6554 35.1914,9.1254 50.3214,11.6554"/>
    <path fill="#3F3F3F" d="M45.1314,12.1554v7.97c0,0-6.72-0.26-9.19,2.64c-2.47-2.9-9.19-2.64-9.19-2.64v-7.94l9.07,0.88 L45.1314,12.1554z"/>
    <path fill="#FFFFFF" d="M35.9688,51.3809c-0.0079,0-0.0137,0-0.0215,0h-0.0459c-0.0118,0-0.0274,0-0.041,0v-0.001 c-3.1973-0.0313-5.9854-1.4639-9.4278-3.7598c-0.4599-0.3066-0.584-0.9277-0.2773-1.3867c0.3056-0.46,0.9248-0.583,1.3867-0.2773 c3.1533,2.1025,5.6601,3.4101,8.3828,3.4248c2.7217-0.0137,5.2285-1.3223,8.3828-3.4248c0.46-0.3057,1.0811-0.1827,1.3867,0.2773 c0.3067,0.46,0.1827,1.0801-0.2773,1.3867c-3.4434,2.2959-6.2315,3.7285-9.4277,3.7598v0.001 C35.9824,51.3809,35.9756,51.3809,35.9688,51.3809z"/>
  </g>
  <g id="hair">
    <path fill="#6a462f" d="M26.5778,20.0977c-0.6876,1.2066-1.2278,2.5535-1.5876,3.9997l-0.0279,0.0694 c0,0,3.9805,0.7845,7.961-3.0788l0.0355-0.1017c-2.8687-0.9967-6.3327-0.8611-6.3327-0.8611"/>
    <path fill="#6a462f" d="M45.0119,20.1252c0,0-3.4076-0.2012-6.3247,0.9044l0.0275,0.0584c3.9805,3.8633,7.961,3.0788,7.961,3.0788 l-0.0102,0.0025c-0.3597-1.4735-0.9063-2.8451-1.6054-4.0716"/>
  </g>
  <g id="skin">
    <path fill="#c19a65" d="M46.5413,24.1869c-0.7043,0.0936-4.2608,0.3619-7.8265-3.0989l-0.0275-0.0584 c0.0073-0.0027,0.0148-0.0049,0.022-0.0077c-1.0909,0.3906-2.0895,0.9471-2.7678,1.7435 c-2.0695-2.4297-7.1041-2.6405-8.6871-2.6452c1.1271,0.0109,3.5778,0.1272,5.7045,0.8661l-0.0355,0.1017 c-3.5658,3.4608-7.1223,3.1925-7.8265,3.0989c-0.3976,1.4398-0.6163,2.9834-0.6163,4.5929c0,7.8276,5.0765,14.1732,11.3386,14.1732 c6.2621,0,11.3386-6.3456,11.3386-14.1732C47.1576,27.1702,46.9389,25.6266,46.5413,24.1869z"/>
  </g>
  <g id="skin-shadow"/>
  <g id="line">
    <path d="M41.9416,26.9513c0,1.1045-0.8965,2-2,2s-2-0.8955-2-2c0-1.1035,0.8965-2,2-2S41.9416,25.8478,41.9416,26.9513"/>
    <path d="M33.9416,26.9513c0,1.1045-0.8965,2-2,2s-2-0.8955-2-2c0-1.1035,0.8965-2,2-2S33.9416,25.8478,33.9416,26.9513"/>
    <path d="M35.9414,36.9537c-1.1518,0-2.3037-0.2861-3.4472-0.8579C32,35.8487,31.7998,35.2481,32.0469,34.754 c0.2466-0.4937,0.8462-0.6943,1.3418-0.4473c1.7178,0.8594,3.3877,0.8594,5.1055,0c0.4946-0.247,1.0947-0.0464,1.3418,0.4473 c0.247,0.4941,0.0468,1.0947-0.4473,1.3418C38.2451,36.6676,37.0933,36.9537,35.9414,36.9537z"/>
    <path d="M46.13,19.7698c-0.57-1.03-1.24-1.97-2-2.79v2.15c-0.22,0-0.48,0.01-0.76,0.03c0.46,0.6,0.87,1.2599,1.23,1.96 c1.06,2.07,1.6801,4.54,1.6801,7.19c0,7.27-4.64,13.18-10.34,13.18s-10.34-5.91-10.34-13.18c0-2.66,0.62-5.13,1.69-7.2 c0.36-0.7,0.77-1.35,1.22-1.95c-0.28-0.02-0.54-0.03-0.76-0.03v-2.15c-0.75,0.82-1.43,1.76-2,2.79c-1.36,2.43-2.15,5.37-2.15,8.54 c0,8.37,5.54,15.18,12.34,15.18c6.81,0,12.34-6.81,12.34-15.18C48.28,25.1398,47.49,22.1998,46.13,19.7698z"/>
    <polyline fill="none" stroke="#000000" stroke-linecap="round" stroke-linejoin="round" stroke-miterlimit="10" stroke-width="2" points="21.3114,11.6554 26.7514,12.1854 35.8214,13.0654 45.1314,12.1554 50.3214,11.6554"/>
    <path d="M36.74,23.3698c-0.02,0.01-0.03,0.03-0.04,0.04c-0.13,0.16-0.29,0.2599-0.47,0.31c-0.04,0.02-0.08,0.03-0.12,0.03 c-0.06,0.02-0.11,0.02-0.17,0.02s-0.12,0-0.17-0.02c-0.04,0-0.08-0.01-0.12-0.03c-0.13-0.03-0.25-0.1-0.36-0.19 c-0.06-0.05-0.11-0.1-0.15-0.16c-1.65-1.86-5.85-2.25-7.85-2.26c-0.19,0-0.36,0.01-0.5,0.01c-0.27,0.01-0.54-0.08-0.73-0.27 c-0.2-0.19-0.31-0.45-0.31-0.72v-8.47c0-0.56,0.45-1,1-1s1,0.44,1,1v7.47c0.22,0,0.48,0.01,0.76,0.03 c2.04,0.12,5.36,0.5699,7.43,2.24c0.28,0.21,0.53,0.45,0.76,0.72C37.01,22.4797,37.02,22.9998,36.74,23.3698z"/>
    <path d="M46.13,11.6598v8.47c0,0.27-0.11,0.53-0.3,0.72c-0.2,0.18-0.44,0.28-0.74,0.28c-0.14-0.01-0.31-0.01-0.4901-0.01 c-2.0099,0-6.22,0.38-7.86,2.25c-0.02,0.01-0.03,0.03-0.04,0.04c-0.13,0.16-0.29,0.2599-0.47,0.31c-0.04,0.02-0.08,0.03-0.12,0.03 c-0.06,0.02-0.11,0.02-0.17,0.02s-0.12,0-0.17-0.02c-0.04,0-0.08-0.01-0.12-0.03c-0.13-0.03-0.25-0.1-0.36-0.19 c-0.06-0.05-0.11-0.1-0.15-0.16c-0.28-0.37-0.27-0.89,0.04-1.25c0.23-0.27,0.48-0.51,0.76-0.72c2.07-1.67,5.39-2.12,7.43-2.24 c0.28-0.02,0.54-0.03,0.76-0.03v-7.47c0-0.56,0.45-1,1-1S46.13,11.0998,46.13,11.6598z"/>
    <polyline fill="none" stroke="#000000" stroke-linecap="round" stroke-linejoin="round" stroke-miterlimit="10" stroke-width="2" points="50.3214,11.6554 35.1914,9.1254 21.3114,11.6554"/>
    <path d="M21.3125,21.0005c-0.5527,0-1-0.4478-1-1v-8.1211c0-0.5523,0.4473-1,1-1s1,0.4477,1,1v8.1211 C22.3125,20.5527,21.8652,21.0005,21.3125,21.0005z"/>
    <path d="M19.2852,23.5801c-0.2159,0-0.4336-0.0698-0.6172-0.2134c-0.4336-0.3413-0.5098-0.9702-0.168-1.4043l2.0264-2.5796 c0.3408-0.4336,0.9677-0.5102,1.4043-0.1689c0.4336,0.3413,0.5097,0.9702,0.1679,1.4043l-2.0263,2.5796 C19.875,23.4487,19.582,23.5801,19.2852,23.5801z"/>
    <path d="M21.3125,25.1011c-0.5527,0-1-0.4478-1-1v-4.1006c0-0.5523,0.4473-1,1-1s1,0.4477,1,1v4.1006 C22.3125,24.6533,21.8652,25.1011,21.3125,25.1011z"/>
    <path d="M45.8936,25.2324c-1.5938,0-4.6875-0.4511-7.753-3.4267c-0.3965-0.3848-0.4062-1.0181-0.0215-1.4141 c0.3858-0.3965,1.0176-0.4053,1.4141-0.0215c3.5215,3.4185,6.9356,2.8418,7.0781,2.8145c0.5401-0.0967,1.0635,0.2573,1.1651,0.7964 c0.1025,0.54-0.2461,1.061-0.7852,1.1669C46.9385,25.1587,46.5381,25.2324,45.8936,25.2324z"/>
    <path d="M25.9893,25.2324c-0.6455,0-1.045-0.0737-1.0977-0.0845c-0.542-0.1064-0.8945-0.6323-0.7881-1.1743 c0.1065-0.5405,0.6289-0.8911,1.169-0.789c0.1611,0.0312,3.5664,0.5947,7.0771-2.8145c0.3965-0.3838,1.0283-0.375,1.4141,0.0215 c0.3847,0.396,0.375,1.0293-0.0215,1.4141C30.6768,24.7813,27.583,25.2324,25.9893,25.2324z"/>
    <path d="M54.7588,58.8027c-0.0508,0-0.1016-0.0029-0.1524-0.0107c-0.5459-0.084-0.9209-0.5938-0.8378-1.1387 c0.0087-0.0576,0.8271-5.7412-2.129-9.1777c-1.4755-1.7149-3.6894-2.6123-6.5859-2.669c-3.3096,2.1856-6.0283,3.5459-9.126,3.5889 c-0.0214,0.001-0.0429,0.001-0.0644,0.001c-0.0078,0-0.0137,0-0.0215,0h-0.0449c-0.0147,0-0.0274,0-0.042,0 c-0.0147,0-0.0293,0-0.044-0.001c-3.0996-0.043-5.8164-1.4033-9.1259-3.5889c-2.8965,0.0567-5.1104,0.9541-6.586,2.669 c-2.956,3.4365-2.1377,9.1201-2.1289,9.1777c0.083,0.5449-0.292,1.0547-0.8379,1.1387c-0.5351,0.084-1.0547-0.29-1.1386-0.8359 c-0.0411-0.2696-0.9727-6.6329,2.581-10.7754c1.9229-2.2412,4.751-3.377,8.4072-3.377c0.1973,0,0.3907,0.0586,0.5547,0.168 c3.1533,2.1025,5.6602,3.4101,8.3828,3.4248c2.7217-0.0137,5.2286-1.3223,8.3828-3.4248c0.1641-0.1094,0.3575-0.168,0.5547-0.168 c3.6563,0,6.4844,1.1358,8.4073,3.377c3.5537,4.1425,2.622,10.5058,2.581,10.7754C55.6689,58.4502,55.2432,58.8027,54.7588,58.8027 z"/>
  </g>
</svg>
