<svg id="emoji" x="0" y="0" viewBox="0 0 72 72" version="1.1" xmlns="http://www.w3.org/2000/svg">
  <g id="color">
    <path fill="#92D3F5" d="M17.1347,58.8989c0,0-2-13.5,10-13.5c3.1918,2.1279,5.9264,3.5984,9,3.5922h-0.125 c3.0736,0.0062,5.4081-2.1643,8.6-4.2922c15.5705,0,10.8,14.2,10.8,14.2"/>
    <polygon fill="#61B2E4" points="49.2972,58.8612 49.2972,45.9861 44.8058,45.2018 44.8058,52.4469 26.929,52.4469 26.9308,45.2018 22.2649,45.9861 22.2649,58.8612"/>
    <path fill="#61B2E4" d="M36.9313,9.2258h-1.8034C23.8327,9.261,25.083,20.5397,25.083,20.5397c12.8913-5.6569,21.8933,0,21.8933,0 S48.2265,9.261,36.9313,9.2258z"/>
    <path fill="#9B9B9A" d="M54.7242,38.1713c0.5179-2.1527,2.3562-3.642,4.4486-3.8149l-1.1314,4.637 c0.0817,0.0154,2.7265,0.6496,2.8079,0.6692l1.1311-4.7124c1.9373,1.0552,3.007,3.313,2.4664,5.5601 c-0.4768,1.9822-2.0758,3.3943-3.9596,3.7416l-3.4226,14.2269c-0.2616,1.0876-1.3553,1.7572-2.443,1.4956 c-1.0876-0.2617-1.757-1.3555-1.4954-2.4431l3.4226-14.2269C55.0292,42.1384,54.2474,40.1535,54.7242,38.1713z"/>
    <path fill="#FFFFFF" d="M33.1159,18.2555v-2.3118c0-1.6568,1.3431-3,3-3s3,1.3432,3,3v2.3295"/>
  </g>
  <g id="hair">
    <path fill="#000000" d="M25.4782,20.4703c0.5452-0.1169,10.5986-5.3959,21.5581,0.3394l-0.0361,0.1447 c1.5074,5.4986,0.1748,6.2727,0.1748,6.2727l-5.2599-6.3244c0,0-1.4782,2.8056-5.6542,2.4931c0,0,0.6471-2.293,0.2934-3.5679 c0,0-6.8103,4.4728-11.6497,6.5335L24.8973,26.36l-0.1214,0.0037c-0.4592,0.1263-0.7052-4.1554,0.8544-5.824"/>
  </g>
  <g id="skin">
    <path fill="#a57939" d="M36.2609,23.3958c2.1125,0.0278,4.1416-0.5155,6.0263-2.0457l5.1256,6.6847 c0,7.8277-5.0765,14.1733-11.3386,14.1733s-11.3386-6.3456-11.3386-14.1733c0-3.2033,11.8187-8.2069,11.8187-8.2069 L36.2609,23.3958z"/>
  </g>
  <g id="skin-shadow"/>
  <g id="line">
    <path d="M41.9743,27.0348c0,1.1045-0.8965,2-2,2s-2-0.8955-2-2c0-1.1035,0.8965-2,2-2S41.9743,25.9313,41.9743,27.0348"/>
    <path d="M33.9743,27.0348c0,1.1045-0.8965,2-2,2s-2-0.8955-2-2c0-1.1035,0.8965-2,2-2S33.9743,25.9313,33.9743,27.0348"/>
    <path d="M35.9742,37.0372c-1.1519,0-2.3037-0.2861-3.4473-0.8579c-0.4941-0.2471-0.6943-0.8477-0.4473-1.3418 c0.2466-0.4937,0.8462-0.6943,1.3418-0.4473c1.7178,0.8594,3.3877,0.8594,5.1055,0c0.4946-0.247,1.0947-0.0464,1.3418,0.4473 c0.2471,0.4941,0.0469,1.0947-0.4473,1.3418C38.2779,36.7511,37.126,37.0372,35.9742,37.0372z"/>
    <path fill="none" stroke="#000000" stroke-linecap="round" stroke-miterlimit="10" stroke-width="2" d="M24.7535,26.3437 c-0.0777,0.6699-0.1179,1.355-0.1179,2.0519c0,7.8277,5.0764,14.1732,11.3386,14.1732c6.2621,0,11.3386-6.3455,11.3386-14.1732 c0-0.3957-0.013-0.7876-0.0385-1.1751"/>
    <path fill="none" stroke="#000000" stroke-linecap="round" stroke-linejoin="round" stroke-miterlimit="10" stroke-width="2" d="M51.7457,47.1887c-1.5129-1.3672-3.7235-2.3011-6.9399-2.3011c-3.1918,2.1279-5.9264,3.5984-9,3.5921h0.125 c-3.0736,0.0063-5.8081-1.4642-9-3.5921c-12,0-10,13-10,13"/>
    <path fill="none" stroke="#000000" stroke-linecap="round" stroke-linejoin="round" stroke-miterlimit="10" stroke-width="2" d="M54.7242,38.1713c0.5179-2.1527,2.3562-3.642,4.4486-3.8149l-1.1314,4.637c0.0817,0.0154,2.7265,0.6496,2.8079,0.6692 l1.1311-4.7124c1.9373,1.0552,3.007,3.313,2.4664,5.5601c-0.4768,1.9822-2.0758,3.3943-3.9596,3.7416l-3.4226,14.2269 c-0.2616,1.0876-1.3553,1.7572-2.443,1.4956c-1.0876-0.2617-1.757-1.3555-1.4954-2.4431l3.4226-14.2269 C55.0292,42.1384,54.2474,40.1535,54.7242,38.1713z"/>
    <path fill="none" stroke="#000000" stroke-linecap="round" stroke-miterlimit="10" stroke-width="2" d="M33.1159,18.2555v-2.3118 c0-1.6568,1.3431-3,3-3s3,1.3432,3,3v2.3295"/>
    <polyline fill="none" stroke="#000000" stroke-linecap="round" stroke-linejoin="round" stroke-miterlimit="10" stroke-width="2" points="44.8058,44.8876 44.8058,52.1327 26.929,52.1327 26.9308,44.8876"/>
    <line x1="49.2972" x2="49.2972" y1="45.6719" y2="57.8666" fill="none" stroke="#000000" stroke-linecap="round" stroke-linejoin="round" stroke-miterlimit="10" stroke-width="2"/>
    <line x1="22.2649" x2="22.2649" y1="45.7569" y2="57.8666" fill="none" stroke="#000000" stroke-linecap="round" stroke-linejoin="round" stroke-miterlimit="10" stroke-width="2"/>
    <line x1="32.6042" x2="26.929" y1="56.7776" y2="56.7776" fill="none" stroke="#000000" stroke-linecap="round" stroke-linejoin="round" stroke-miterlimit="10" stroke-width="2"/>
    <path fill="none" stroke="#000000" stroke-linecap="round" stroke-linejoin="round" stroke-miterlimit="10" stroke-width="2" d="M46.9763,20.5397c0,0,1.2502-11.2787-10.045-11.3139h-1.8034C23.8327,9.261,25.083,20.5397,25.083,20.5397"/>
    <path fill="none" stroke="#000000" stroke-linecap="round" stroke-linejoin="round" stroke-miterlimit="10" stroke-width="2" d="M49.8089,22.4082c-6.1883-4.9827-16.9721-5.4838-24.0306-2.1379c-1.2509,0.593-2.3848,1.3068-3.3554,2.1379"/>
    <path fill="none" stroke="#000000" stroke-linecap="round" stroke-linejoin="round" stroke-miterlimit="10" stroke-width="2" d="M25.4782,20.4703c0.5452-0.1169,10.5986-5.3959,21.5581,0.3394l-0.0361,0.1447c1.5074,5.4986,0.1748,6.2727,0.1748,6.2727 l-5.2599-6.3244c0,0-1.4782,2.8056-5.6542,2.4931c0,0,0.6471-2.293,0.2934-3.5679c0,0-6.8103,4.4728-11.6497,6.5335L24.8973,26.36 l-0.1214,0.0037c-0.4592,0.1263-0.7052-4.1554,0.8544-5.824"/>
  </g>
</svg>
