<svg id="emoji" viewBox="0 0 72 72" xmlns="http://www.w3.org/2000/svg">
  <g id="color">
    <path fill="#5c9e31" d="M42.06,29.84V52.92a6.506,6.506,0,0,1-6.51,6.51,6.3082,6.3082,0,0,1-1.7754-.2486A6.5,6.5,0,0,1,29.04,52.92V29.84h.7811l-.5444,1.0534A14.0534,14.0534,0,0,0,35.55,32.2075a15.9069,15.9069,0,0,0,2.9589-.26c.071-.0119.1539-.0236.2249-.0355a11.5513,11.5513,0,0,0,3.0891-1.0178"/>
    <path fill="#b1cc33" d="M28.2936,30.8938a14.0534,14.0534,0,0,0,6.2729,1.3137,15.9069,15.9069,0,0,0,2.9589-.26V52.92a6.5,6.5,0,0,1-4.7343,6.261,6.5,6.5,0,0,1-4.7342-6.261V29.84"/>
  </g>
  <g id="line">
    <path fill="none" stroke="#000" stroke-linecap="round" stroke-linejoin="round" stroke-width="2" d="M42.06,16.9372v35.43A6.7993,6.7993,0,0,1,35.55,59.43a6.7992,6.7992,0,0,1-6.51-7.0628V17.2855"/>
    <ellipse cx="35.5433" cy="15.2238" rx="7.3933" ry="3.137" fill="none" stroke="#000" stroke-miterlimit="10" stroke-width="2"/>
    <path fill="none" stroke="#000" stroke-linecap="round" stroke-linejoin="round" stroke-width="2" d="M42.06,29.84V52.92a6.506,6.506,0,0,1-6.51,6.51,6.3082,6.3082,0,0,1-1.7754-.2486A6.5,6.5,0,0,1,29.04,52.92V29.84"/>
    <path fill="none" stroke="#000" stroke-linecap="round" stroke-linejoin="round" stroke-width="2" d="M29.277,30.8938A14.0534,14.0534,0,0,0,35.55,32.2075a15.9069,15.9069,0,0,0,2.9589-.26c.071-.0119.1539-.0236.2249-.0355a11.5513,11.5513,0,0,0,3.0891-1.0178"/>
  </g>
</svg>
