<svg id="emoji" viewBox="0 0 72 72" xmlns="http://www.w3.org/2000/svg">
  <g id="color">
    <rect x="22.1844" y="50.2336" width="2" height="6.8467" transform="translate(-31.1506 32.1096) rotate(-45)" fill="#92d3f5"/>
    <rect x="17.3429" y="45.3919" width="2" height="6.8472" transform="translate(-29.1452 27.2681) rotate(-45)" fill="#ea5a47"/>
    <rect x="30.1412" y="33.3138" width="2" height="6.2505" transform="translate(-16.6452 32.6929) rotate(-45)" fill="#92d3f5"/>
    <rect x="34.5608" y="37.7336" width="2" height="6.25" transform="translate(-18.4759 37.1125) rotate(-45)" fill="#ea5a47"/>
    <rect x="38.4468" y="33.9712" width="2" height="6.8467" transform="translate(-14.8882 38.8457) rotate(-45)" fill="#92d3f5"/>
    <rect x="33.6053" y="29.1294" width="2" height="6.8472" transform="translate(-12.8828 34.0042) rotate(-45)" fill="#ea5a47"/>
    <polygon fill="#92d3f5" points="41.7477 30.2523 40.0161 31.9839 37.1138 29.0815 38.1518 28.0435 41.7477 30.2523"/>
    <polygon fill="#ea5a47" points="44.0376 33.767 42.9185 34.8862 40.0161 31.9839 41.7477 30.2523 44.0376 33.767"/>
    <rect x="51.3518" y="20.9426" width="2" height="6.25" transform="translate(-1.6848 44.0676) rotate(-45)" fill="#92d3f5"/>
    <rect x="46.9323" y="16.5227" width="2" height="6.2505" transform="translate(.1458 39.648) rotate(-45)" fill="#ea5a47"/>
    <rect x="55.8358" y="16.5822" width="2" height="6.8467" transform="translate(2.5008 46.0485) rotate(-45)" fill="#92d3f5"/>
    <rect x="50.9943" y="11.7404" width="2" height="6.8472" transform="translate(4.5062 41.207) rotate(-45)" fill="#ea5a47"/>
    <rect x="17.8889" y="54.5291" width="2" height="6.8467" transform="translate(-35.4461 30.3303) rotate(-45)" fill="#92d3f5"/>
    <rect x="13.0474" y="49.6873" width="2" height="6.8472" transform="translate(-33.4407 25.4888) rotate(-45)" fill="#ea5a47"/>
    <path fill="#92d3f5" d="M48.8128,31.8422c.792,3.9598,.3747,8.4358-4.08,12.8905-4.4548,4.4548-8.9308,4.872-12.8905,4.08-2.1284-.4313-4.1154-1.2162-5.8761-1.9021-.2122-.0848-.4242-.1697-.6293-.2475-4.5891-1.7748-7.2407-2.4466-10.2459,.5586l-4.4407,4.4407c-1.0748,1.0748-2.8143,1.0748-3.8891,0s-1.0748-2.8143,0-3.8891l4.4407-4.4407c4.0446-4.0446,8.2024-4.1436,11.9854-3.1749,1.6829,.4101,3.2951,1.0465,4.7871,1.6334,.5586,.2192,1.0961,.4313,1.6122,.6223,4.5326,1.6758,7.5731,2.1142,11.2571-1.5698,3.684-3.684,3.2456-6.7245,1.5698-11.2571,.5162,.1909,1.0536,.4031,1.6122,.6223,1.4919,.5869,3.1042,1.2233,4.7871,1.6334Z"/>
    <path fill="#92d3f5" d="M51.6624,6.7612c1.0748,1.0748,1.0748,2.8143,0,3.8891l-4.4407,4.4407c-3.0052,3.0052-2.3334,5.6568-.5586,10.2459-.2051-.0778-.4172-.1626-.6293-.2475-1.7607-.6859-3.7477-1.4708-5.8761-1.9021-.9687-3.783-.8697-7.9408,3.1749-11.9854l4.4407-4.4407c1.0748-1.0748,2.8143-1.0748,3.8891,0Z"/>
    <path fill="#ea5a47" d="M25.9662,46.9107c1.7607,.6859,3.7477,1.4708,5.8761,1.9021,.9687,3.783,.8697,7.9408-3.1749,11.9854l-4.4407,4.4407c-1.0748,1.0748-2.8143,1.0748-3.8891,0s-1.0748-2.8143,0-3.8891l4.4407-4.4407c3.0052-3.0052,2.3334-5.6568,.5586-10.2459,.2051,.0778,.4172,.1626,.6293,.2475Z"/>
    <path fill="#ea5a47" d="M65.2388,20.3376c1.0748,1.0748,1.0748,2.8143,0,3.8891l-4.4407,4.4407c-4.0446,4.0446-8.2024,4.1436-11.9854,3.1749-1.6829-.4101-3.2951-1.0465-4.7871-1.6334-.5586-.2192-1.0961-.4313-1.6122-.6223-4.5326-1.6758-7.5731-2.1142-11.2571,1.5698s-3.2456,6.7245-1.5698,11.2571c-.5162-.1909-1.0536-.4031-1.6122-.6223-1.4919-.5869-3.1042-1.2233-4.7871-1.6334-.792-3.9598-.3747-8.4358,4.08-12.8905s8.9308-4.872,12.8905-4.08c2.1284,.4313,4.1154,1.2162,5.8761,1.9021,.2122,.0848,.4242,.1697,.6293,.2475,4.5891,1.7748,7.2407,2.4466,10.2459-.5586l4.4407-4.4407c1.0748-1.0748,2.8143-1.0748,3.8891,0Z"/>
  </g>
  <g id="line">
    <g>
      <path fill="none" stroke="#000" stroke-miterlimit="10" stroke-width="2" d="M23.1932,40.1518c-.7944-3.9626-.3766-8.4301,4.076-12.8827,6.8508-6.8508,13.7371-4.1505,18.7646-2.1779,4.9843,1.9542,7.7305,2.8277,10.8738-.3156l4.4401-4.4401c1.0738-1.0738,2.8153-1.0738,3.8891,0s1.0738,2.8153,0,3.8891l-4.4401,4.4401c-5.835,5.835-11.8986,3.4575-16.7703,1.5468-5.469-2.1448-8.7629-3.1585-12.8681,.9467-3.684,3.684-3.2459,6.7149-1.5669,11.2503"/>
      <path fill="none" stroke="#000" stroke-miterlimit="10" stroke-width="2" d="M31.8511,48.8057c.9568,3.7914,.8586,7.946-3.1864,11.991l-4.4401,4.4401c-1.0738,1.0738-2.8153,1.0738-3.8891,0s-1.0738-2.8153,0-3.8891l4.4401-4.4401c3.0081-3.0081,2.3373-5.6531,.5607-10.2439"/>
    </g>
    <g>
      <path fill="none" stroke="#000" stroke-miterlimit="10" stroke-width="2" d="M40.1484,23.193c-.9565-3.7911-.8576-7.9453,3.1868-11.9897l4.4401-4.4401c1.0738-1.0738,2.8153-1.0738,3.8891,0s1.0738,2.8153,0,3.8891l-4.4401,4.4401c-3.0084,3.0084-2.337,5.6534-.5609,10.2443"/>
      <path fill="none" stroke="#000" stroke-miterlimit="10" stroke-width="2" d="M48.8073,31.851c.7937,3.9617,.3748,8.4283-4.0766,12.8797-6.8508,6.8508-13.7371,4.1498-18.7649,2.1783-4.9836-1.9542-7.7305-2.8277-10.8735,.3152l-4.4401,4.4401c-1.0738,1.0738-2.8153,1.0738-3.8891,0s-1.0738-2.8153,0-3.8891l4.4401-4.4401c5.835-5.835,11.8982-3.4572,16.7707-1.5465,5.4683,2.1448,8.7625,3.1582,12.8678-.9471,3.6841-3.6841,3.2456-6.7147,1.5671-11.2501"/>
    </g>
    <line x1="50.9838" x2="60.6671" y1="11.3328" y2="21.0161" fill="none" stroke="#000" stroke-linecap="round" stroke-linejoin="round" stroke-width="2"/>
    <line x1="46.7124" x2="56.3471" y1="15.6527" y2="25.2875" fill="none" stroke="#000" stroke-linecap="round" stroke-linejoin="round" stroke-width="2"/>
    <line x1="35.2237" x2="43.423" y1="28.5769" y2="36.7762" fill="none" stroke="#000" stroke-linecap="round" stroke-linejoin="round" stroke-width="2"/>
    <line x1="30.7892" x2="40.459" y1="31.5409" y2="41.2106" fill="none" stroke="#000" stroke-linecap="round" stroke-linejoin="round" stroke-width="2"/>
    <line x1="28.3611" x2="35.4887" y1="36.5112" y2="43.6388" fill="none" stroke="#000" stroke-linecap="round" stroke-linejoin="round" stroke-width="2"/>
    <line x1="17.735" x2="26.5463" y1="45.4536" y2="54.2649" fill="none" stroke="#000" stroke-linecap="round" stroke-linejoin="round" stroke-width="2"/>
    <line x1="13.0033" x2="22.6867" y1="49.3132" y2="58.9966" fill="none" stroke="#000" stroke-linecap="round" stroke-linejoin="round" stroke-width="2"/>
  </g>
</svg>
