<svg id="emoji" viewBox="0 0 72 72" xmlns="http://www.w3.org/2000/svg">
  <g id="line-supplement">
    <g>
      <path d="M40.701,37.6519l2.598,1.5-1,1.7321-2.598-1.5,1-1.7321m-.3651-2.3662a1,1,0,0,0-.867.5l-2,3.4641a1,1,0,0,0,.366,1.366l4.33,2.5a.9994.9994,0,0,0,1.366-.366l2-3.4641a1,1,0,0,0-.366-1.366l-4.33-2.5a.9944.9944,0,0,0-.499-.1342Z"/>
      <path d="M30.4974,29.2674A1.0015,1.0015,0,1,1,30,29.4019a.9926.9926,0,0,1,.4974-.1345m0-2a3,3,0,1,0,2.6009,1.5005,2.987,2.987,0,0,0-2.6009-1.5005Z"/>
      <path d="M58.4972,42.2681A1.0008,1.0008,0,1,1,58,42.4026a.9922.9922,0,0,1,.4974-.1345m0-2a3,3,0,1,0,2.6009,1.5005,2.9869,2.9869,0,0,0-2.6009-1.5005Z"/>
      <path d="M33.299,47.6519l1,1.7321-2.598,1.5-1-1.7321,2.598-1.5m.3651-2.3662a.9946.9946,0,0,0-.499.1342l-4.33,2.5a1,1,0,0,0-.366,1.366l2,3.4641a.9994.9994,0,0,0,1.366.366l4.33-2.5a1,1,0,0,0,.366-1.366l-2-3.4641a1,1,0,0,0-.867-.5Z"/>
      <path d="M15,38.5v3H13v-3h2m1-2H12a1,1,0,0,0-1,1v5a1,1,0,0,0,1,1h4a1,1,0,0,0,1-1v-5a1,1,0,0,0-1-1Z"/>
    </g>
  </g>
  <g id="color">
    <g>
      <rect x="9" y="22" rx="3" width="54" height="34" fill="#a57939"/>
      <rect x="19" y="20" rx="1" width="4" height="38" fill="#6a462f"/>
      <rect x="49" y="20" rx="1" width="4" height="38" fill="#6a462f"/>
      <rect x="38" y="36.2679" rx="1" width="7" height="6" transform="matrix(0.866, 0.5, -0.5, 0.866, 25.194, -15.4891)" fill="#e67a94"/>
      <circle cx="30.5" cy="30.2679" r="3" fill="#fcea2b"/>
      <circle cx="58.4998" cy="43.2686" r="3" fill="#61b2e4"/>
      <rect x="29" y="46.2679" rx="1" width="7" height="6" transform="translate(-20.2798 22.8507) rotate(-30)" fill="#f4aa41"/>
      <rect x="10.5" y="37" rx="1" width="7" height="6" transform="translate(54 26) rotate(90.0001)" fill="#b1cc33"/>
      <path fill="#a57939" d="M33.5,22V20a1,1,0,0,1,1-1h3a1,1,0,0,1,1,1v2h3V18.2A2.2,2.2,0,0,0,39.3,16H32.7a2.2,2.2,0,0,0-2.2,2.2V22Z"/>
    </g>
  </g>
  <g id="line">
    <g>
      <path fill="none" stroke="#000" stroke-linejoin="round" stroke-width="2" d="M33.5,22V20a1,1,0,0,1,1-1h3a1,1,0,0,1,1,1v2h3V18.2A2.2,2.2,0,0,0,39.3,16H32.7a2.2,2.2,0,0,0-2.2,2.2V22Z"/>
      <path fill="none" stroke="#000" stroke-miterlimit="10" stroke-width="2" d="M53,56h7a3,3,0,0,0,3-3V25a3,3,0,0,0-3-3H53"/>
      <path fill="none" stroke="#000" stroke-miterlimit="10" stroke-width="2" d="M19,22H12a3,3,0,0,0-3,3V53a3,3,0,0,0,3,3h7"/>
      <polyline fill="none" stroke="#000" stroke-linecap="round" stroke-linejoin="round" stroke-width="2" points="40.067 40.75 38.335 39.75 40.335 36.286 43.366 38.036"/>
      <path fill="none" stroke="#000" stroke-linecap="round" stroke-miterlimit="10" stroke-width="2" d="M31.5,32a2,2,0,1,1-2-3.4635"/>
      <path fill="none" stroke="#000" stroke-linecap="round" stroke-miterlimit="10" stroke-width="2" d="M57.5,41.5365a2,2,0,1,1,2,3.4641"/>
      <polyline fill="none" stroke="#000" stroke-linecap="round" stroke-linejoin="round" stroke-width="2" points="31.067 47.786 29.335 48.786 31.335 52.25 34.366 50.5"/>
      <polyline fill="none" stroke="#000" stroke-linecap="round" stroke-linejoin="round" stroke-width="2" points="12 39.5 12 37.5 16 37.5 16 41"/>
      <rect x="19" y="20" rx="1" width="4" height="38" fill="none" stroke="#000" stroke-miterlimit="10" stroke-width="2"/>
      <rect x="49" y="20" rx="1" width="4" height="38" fill="none" stroke="#000" stroke-miterlimit="10" stroke-width="2"/>
      <line x1="23" x2="49" y1="22" y2="22" fill="none" stroke="#000" stroke-miterlimit="10" stroke-width="2"/>
      <line x1="49" x2="23" y1="56" y2="56" fill="none" stroke="#000" stroke-miterlimit="10" stroke-width="2"/>
    </g>
  </g>
</svg>
