<svg id="emoji" viewBox="0 0 72 72" xmlns="http://www.w3.org/2000/svg">
  <g id="color">
    <path fill="#a57939" d="M56.2572,56.5079a3.6438,3.6438,0,0,1-1.8248-.12,4.12,4.12,0,0,1-2.537-2.5472c-.1745-.4688-.8453-2.3951-1.7366-4.9545-2.0524-5.8964-5.8741-16.8724-6.4614-18.0656a7.6229,7.6229,0,0,0-7.3731-4.3817c-5.2377-.0228-20.3535.0763-22.8461.1041a4.2774,4.2774,0,0,1-3.3968-1.4521,3.8181,3.8181,0,0,1-.7478-3.2645,4.1547,4.1547,0,0,1,.3579-.9635c.0462-.0968.0925-.1935.1336-.2913l.0955-.1776a4.2413,4.2413,0,0,1,2.9806-1.72c1.904-.3271,4.4137-.7626,7.1784-1.2426,12.1-2.1007,22.2222-3.8469,23.5236-3.9344a10.0771,10.0771,0,0,1,10.7184,8.48c1.42,8.1167,4.853,28.01,5.1405,29.7239a3.9712,3.9712,0,0,1-1.7366,4.2A4.0343,4.0343,0,0,1,56.2572,56.5079Z"/>
    <polygon fill="#fcea2b" points="18.108 25.507 15.424 19.771 19.499 19.042 22.382 25.205 18.108 25.507"/>
    <polygon fill="#d22f27" points="24.964 26.476 21.432 18.877 25.512 18.159 29.365 26.447 24.964 26.476"/>
    <polygon fill="#fcea2b" points="51.167 50.764 57.399 51.892 57.062 47.767 50.367 46.555 51.167 50.764"/>
    <polygon fill="#d22f27" points="48.589 44.382 56.728 45.855 56.379 41.728 47.068 40.043 48.589 44.382"/>
  </g>
  <g id="line">
    <path fill="none" stroke="#000" stroke-linecap="round" stroke-miterlimit="10" stroke-width="2" d="M48.4022,40.8228c-1.7382-4.9513-3.41-9.6347-3.8074-10.4437a8.6038,8.6038,0,0,0-8.2664-4.94c-1.7794-.0078-4.6533-.0018-7.78.0107"/>
    <path fill="none" stroke="#000" stroke-miterlimit="10" stroke-width="2" d="M25.6211,25.4632c-5.4429.0268-10.8706.0656-12.1543.08-2.1544.0241-3.5618-1.5206-3.1534-3.5158a6.14,6.14,0,0,1,.4354-1.0723,3.2263,3.2263,0,0,1,2.322-1.2948c8.4613-1.4536,28.8507-5.0473,30.5994-5.1652a9.0219,9.0219,0,0,1,9.6663,7.654c1.4457,8.2642,4.8648,28.0768,5.1394,29.7168a2.986,2.986,0,0,1-1.301,3.2,2.85,2.85,0,0,1-4.3429-1.5744c-.2771-.7445-1.8107-5.18-3.4878-9.9791"/>
    <line x1="19.203" x2="17.5922" y1="25.4998" y2="22.0557" fill="none" stroke="#000" stroke-linecap="round" stroke-linejoin="round" stroke-width="2"/>
    <line x1="25.6211" x2="24.0103" y1="25.4744" y2="22.0303" fill="none" stroke="#000" stroke-linecap="round" stroke-linejoin="round" stroke-width="2"/>
    <line x1="51.5331" x2="55.2764" y1="49.83" y2="50.4963" fill="none" stroke="#000" stroke-linecap="round" stroke-linejoin="round" stroke-width="2"/>
    <line x1="49.3472" x2="53.0906" y1="43.5116" y2="44.1779" fill="none" stroke="#000" stroke-linecap="round" stroke-linejoin="round" stroke-width="2"/>
  </g>
</svg>
