<svg id="emoji" viewBox="0 0 72 72" xmlns="http://www.w3.org/2000/svg">
  <g id="line-supplement">
    <rect x="33.6248" y="20.0448" width="4.6535" height="32.1987" transform="rotate(44.93 35.952 36.144)"/>
  </g>
  <g id="color">
    <rect x="33.6248" y="20.0448" width="4.6535" height="32.1987" transform="rotate(44.93 35.952 36.144)" fill="#3f3f3f"/>
    <circle cx="47.5749" cy="10.9583" r="2" fill="#fcea2b"/>
    <circle cx="56" cy="28.3101" r="2" fill="#fcea2b"/>
  </g>
  <g id="line">
    <rect x="34.2628" y="9.2771" rx="0.4398" width="3.3851" height="53.5249" transform="rotate(44.93 35.955 36.04)" fill="none" stroke="#000" stroke-miterlimit="10" stroke-width="2"/>
    <line x1="45.3062" x2="47.6346" y1="23.8732" y2="26.0854" fill="none" stroke="#000" stroke-miterlimit="10" stroke-width="2"/>
    <line x1="23.4413" x2="25.8379" y1="46.1937" y2="48.5844" fill="none" stroke="#000" stroke-miterlimit="10" stroke-width="2"/>
    <line x1="47.5749" x2="47.5749" y1="8.9583" y2="7.2929" fill="none" stroke="#000" stroke-linecap="round" stroke-miterlimit="10" stroke-width="2"/>
    <line x1="47.5749" x2="47.5749" y1="14.6237" y2="12.9583" fill="none" stroke="#000" stroke-linecap="round" stroke-miterlimit="10" stroke-width="2"/>
    <line x1="45.5749" x2="43.9096" y1="10.9583" y2="10.9583" fill="none" stroke="#000" stroke-linecap="round" stroke-miterlimit="10" stroke-width="2"/>
    <line x1="51.2403" x2="49.5749" y1="10.9583" y2="10.9583" fill="none" stroke="#000" stroke-linecap="round" stroke-miterlimit="10" stroke-width="2"/>
    <line x1="56" x2="56" y1="26.3101" y2="24.6447" fill="none" stroke="#000" stroke-linecap="round" stroke-miterlimit="10" stroke-width="2"/>
    <line x1="56" x2="56" y1="31.9755" y2="30.3101" fill="none" stroke="#000" stroke-linecap="round" stroke-miterlimit="10" stroke-width="2"/>
    <line x1="54" x2="52.3346" y1="28.3101" y2="28.3101" fill="none" stroke="#000" stroke-linecap="round" stroke-miterlimit="10" stroke-width="2"/>
    <line x1="59.6654" x2="58" y1="28.3101" y2="28.3101" fill="none" stroke="#000" stroke-linecap="round" stroke-miterlimit="10" stroke-width="2"/>
  </g>
</svg>
