<svg id="emoji" viewBox="0 0 72 72" xmlns="http://www.w3.org/2000/svg">
  <g id="color">
    <path fill="#6a462f" d="M22.2648,62.0342H20.2072a1.0759,1.0759,0,0,1-1.0234-1.4072l16.164-49.94a1.0754,1.0754,0,0,1,1.0235-.7451H38.43a1.0759,1.0759,0,0,1,1.0235,1.4072L23.2882,61.2891A1.0752,1.0752,0,0,1,22.2648,62.0342Z"/>
    <path fill="#a57939" d="M36.09,62.0342H34.0324A1.0759,1.0759,0,0,1,33.009,60.627l16.1641-49.94a1.0752,1.0752,0,0,1,1.0234-.7451h2.0586a1.0759,1.0759,0,0,1,1.0234,1.4072L37.1135,61.2891A1.0753,1.0753,0,0,1,36.09,62.0342Z"/>
    <path fill="#a57939" d="M47.9377,18.6777H34.12a1,1,0,0,1-.9346-1.3554l.6387-1.6778A1,1,0,0,1,34.759,15H48.5763a1,1,0,0,1,.9346,1.3555l-.6387,1.6777A1,1,0,0,1,47.9377,18.6777Z"/>
    <path fill="#a57939" d="M44.1359,30.3166H30.3185a1,1,0,0,1-.9345-1.3555l.6386-1.6777a1,1,0,0,1,.9346-.6446H44.7746a1,1,0,0,1,.9346,1.3555l-.6387,1.6777A1,1,0,0,1,44.1359,30.3166Z"/>
    <path fill="#a57939" d="M40.4338,42H26.6164a1,1,0,0,1-.9346-1.3555l.6387-1.6777a1,1,0,0,1,.9346-.6446H41.0725a1,1,0,0,1,.9345,1.3555l-.6386,1.6778A1.0005,1.0005,0,0,1,40.4338,42Z"/>
    <path fill="#a57939" d="M36.6485,53.6528H22.8311a1,1,0,0,1-.9345-1.3555l.6386-1.6777a1,1,0,0,1,.9346-.6446H37.2872a1,1,0,0,1,.9346,1.3555l-.6387,1.6777A1,1,0,0,1,36.6485,53.6528Z"/>
  </g>
  <g id="line">
    <line x1="20.2069" x2="36.3713" y1="60.9583" y2="11.0176" fill="none" stroke="#000" stroke-linecap="round" stroke-linejoin="round" stroke-width="2"/>
    <line x1="34.0242" x2="50.1886" y1="60.9583" y2="11.0176" fill="none" stroke="#000" stroke-linecap="round" stroke-linejoin="round" stroke-width="2"/>
    <line x1="34.7586" x2="48.5759" y1="16" y2="16" fill="none" stroke="#000" stroke-linecap="round" stroke-linejoin="round" stroke-width="2"/>
    <line x1="30.9853" x2="44.8026" y1="27.658" y2="27.658" fill="none" stroke="#000" stroke-linecap="round" stroke-linejoin="round" stroke-width="2"/>
    <line x1="37.2559" x2="23.4385" y1="50.9739" y2="50.9739" fill="none" stroke="#000" stroke-linecap="round" stroke-linejoin="round" stroke-width="2"/>
    <line x1="27.2119" x2="41.0292" y1="39.316" y2="39.316" fill="none" stroke="#000" stroke-linecap="round" stroke-linejoin="round" stroke-width="2"/>
  </g>
</svg>
