<svg id="emoji" viewBox="0 0 72 72" xmlns="http://www.w3.org/2000/svg">
  <g id="line">
    <path fill="none" stroke="#000" stroke-linecap="round" stroke-linejoin="round" stroke-width="2" d="M39.1786,35.6423l15.0183-17.26a3.9887,3.9887,0,0,0-6.38-4.7887L18.5791,59.1927l16.39-18.7271"/>
    <path fill="none" stroke="#000" stroke-linecap="round" stroke-linejoin="round" stroke-width="2" d="M49.9081,19.6608c-.7433.515-1.4725.6747-1.9149.3426-.7033-.5278-.416-2.0979.6416-3.507s2.485-2.1234,3.1882-1.5956a.9071.9071,0,0,1,.3111.4506"/>
    <path fill="none" stroke="#000" stroke-linecap="round" stroke-linejoin="round" stroke-width="2" d="M49.005,16.0479a10.5275,10.5275,0,0,1,1.5422.9753,13.1655,13.1655,0,0,1,5.21,13.2026s-1.613,8.9339-10.8977,9.209C36.3547,39.6868,23.451,30.8018,11,42.233"/>
    <path fill="none" stroke="#000" stroke-linecap="round" stroke-linejoin="round" stroke-width="2" d="M34.5894,18.5635s6.0295-4.8028,12.1836-3.3422"/>
  </g>
  <g id="color">
    <path fill="#d0cfce" d="M54.0019,11.998a5.0087,5.0087,0,0,0-7.0273,1.0562L17.7373,58.6523A1,1,0,0,0,19.332,59.85L54.95,19.04c.0166-.0185.0322-.0376.0469-.0576A4.995,4.995,0,0,0,54.0019,11.998Zm-3.62,5.81a3.283,3.283,0,0,1-1.7685,1.3692,3.2815,3.2815,0,0,1,.8213-2.08,3.283,3.283,0,0,1,1.7685-1.3692A3.2884,3.2884,0,0,1,50.3818,17.8076Z"/>
    <path fill="none" stroke="#000" stroke-linecap="round" stroke-linejoin="round" stroke-width="2" d="M39.1786,35.6423l15.0183-17.26a3.9887,3.9887,0,0,0-6.38-4.7887L18.5791,59.1927l16.39-18.7271"/>
    <path fill="none" stroke="#000" stroke-linecap="round" stroke-linejoin="round" stroke-width="2" d="M49.9081,19.6608c-.7433.515-1.4725.6747-1.9149.3426-.7033-.5278-.416-2.0979.6416-3.507s2.485-2.1234,3.1882-1.5956a.9071.9071,0,0,1,.3111.4506"/>
    <path fill="#92d3f5" d="M46.3,14.1057c-6.2857-1.0746-12.087,3.4745-12.3394,3.6755a1,1,0,0,0,1.2451,1.565c.0518-.0411,4.8049-3.75,9.8964-3.3722Z"/>
    <path fill="#92d3f5" d="M49.2587,17.345q.3492.221.6837.4753a12.0932,12.0932,0,0,1,4.831,12.2256c-.0615.332-1.6054,8.1416-9.9433,8.3887A32.3323,32.3323,0,0,1,36.8467,37.13c-7.68-1.8545-17.2334-4.16-26.5235,4.3672A1,1,0,0,0,11.6767,42.97c8.503-7.8056,17.1075-5.73,24.7-3.8965a35.2989,35.2989,0,0,0,8.5118,1.3614c9.98-.2969,11.8349-9.9341,11.8369-9.9624a14.0555,14.0555,0,0,0-5.5733-14.2447q-.2141-.1624-.4341-.3145a3.8635,3.8635,0,0,0-1.4042,1.3433Z"/>
  </g>
</svg>
