<svg id="emoji" viewBox="0 0 72 72" version="1.1" xmlns="http://www.w3.org/2000/svg">
  <g id="color">
    <path fill="#fff" fill-rule="evenodd" stroke-width="0" d="m34.46 20.63 8.395 0.1609 9.035 4.037c-2.104 3.297-19.32 7.674-26.09 0.1106z"/>
    <path fill="#fff" fill-rule="evenodd" stroke-width="0" d="m11.44 27.59 7.677 5.663-1.251 11.29c-5.338-7.938-2.193-7.998-10.62-16.39z"/>
    <path fill="#fff" fill-rule="evenodd" stroke-width="0" d="m19.61 29.12 24.84 2.985 2.639 23.31c-11.72 1.044-22.89 1.456-29.79-2.95z"/>
    <path fill="#d0cfce" d="m60.08 50.35c-1.663-7.488-1.856-16.36-2.695-23.85-0.8992-2.183-4.368-3.677-13.11-3.85 6.846 0.1808 7.639 1.312 7.639 3.042 0 1.853-6.112 2.406-13.65 2.406s-12.67-0.815-12.67-2.668c0-1.731 0.3384-2.647 7.184-2.827-10.44 0.2063-13.66 2.564-13.66 5.461 0 3.033 8.017 5.258 19.15 5.258 1.926 0 3.559-0.09773 5.286-0.2347l2.626 22v0.0039l1e-3 0.0068c0.05638 0.5061 0.4838 0.8892 0.9931 0.89 3.785-0.6651 7.676-1.066 11.15-2.782 1.284-0.648 1.914-1.425 1.763-2.855z"/>
  </g>
  <g id="line" fill="none" stroke="#000" stroke-linecap="round" stroke-linejoin="round" stroke-width="2">
    <path d="m26.91 31.33a56.83 56.83 0 0 0 11.38 1.055c2.161 0 4.236-0.1 6.165-0.2836l2.299 19.29"/>
    <path d="m32.29 22.65c-7.285 0.6737-12.52 2.539-12.52 4.735l-2.545 22.98a2.426 2.426 0 0 0 1.106 2.319c2.148 1.368 7.571 3.575 19.97 3.252 11.94-0.3118 17.41-2.133 19.72-3.298a2.442 2.442 0 0 0 1.339-2.451l-2.538-22.8c0-2.155-5.043-3.992-12.12-4.696"/>
    <path d="m44.72 22.74c4.001 0.5136 6.723 1.525 6.723 2.69 0 1.684-5.693 3.049-12.72 3.049s-12.71-1.365-12.71-3.049c0-1.123 2.532-2.104 6.302-2.633"/>
    <path d="m32.62 25.12v-1.476a3.614 3.614 0 0 1 3.614-3.614h4.987a3.614 3.614 0 0 1 3.614 3.614v1.782"/>
    <path d="m17.86 44.54-6.463-11.59a14.77 14.77 0 0 0-1.062-1.787l-3.14-2.687a0.1893 0.1893 0 0 1 0.0475-0.3287l4.192-0.5607 7.677 5.663"/>
  </g>
</svg>
