<svg id="emoji" viewBox="0 0 72 72" xmlns="http://www.w3.org/2000/svg">
  <g id="color">
    <path fill="#d22f27" d="M53.9507,31.1549c-.3554-1.9814-2.1-5.7285-6.1552-5.7285a8.6992,8.6992,0,0,0-5.9731,2.572,8.0125,8.0125,0,0,0-6.0064-2.571A7.0467,7.0467,0,0,0,30.51,28.4456a8.911,8.911,0,0,0-6.4169-3.0192c-4.0566,0-5.8008,3.7471-6.165,5.7871-.0821.6856-1.9307,16.916,4.626,26.2656,2.0908,2.9825,4.1464,4.4893,6.1181,4.4893a3.9652,3.9652,0,0,0,.5576-.04,4.7914,4.7914,0,0,0,2.9529-1.846,6.4133,6.4133,0,0,0,4.1477,1.9651c.04.001.0791.002.1182.002a5.6842,5.6842,0,0,0,3.67-1.5066,4.4908,4.4908,0,0,0,2.5389,1.3855,3.9652,3.9652,0,0,0,.5576.04c1.9717,0,4.0283-1.5068,6.1191-4.4893C55.89,48.13,54.0416,31.8991,53.9507,31.1549Z"/>
    <path fill="none" stroke="#000" stroke-linecap="round" stroke-linejoin="round" stroke-width="2" d="M28.6179,28.0637c2.8366-4.1894,6.2058-4.39,6.2058-4.39S33.921,14.9711,40.8224,16a11.3515,11.3515,0,0,1,4.2183,1.6255,1.991,1.991,0,0,1,.2244,3.0754h0a2.0116,2.0116,0,0,1-2.4077.2618c-1.695-.984-4.5364-2.0851-4.6067,2.9516,0,0,3.7983,1.4249,5.6393,3.7109"/>
    <path fill="#B1CC33" d="M40.0124,21.2243c.2412-.1377.8682-.2412,2.336.6114a2.9981,2.9981,0,0,0,4.5224-2.8213A2.9473,2.9473,0,0,0,45.6,16.8083a12.3468,12.3468,0,0,0-4.6367-1.79,5.7074,5.7074,0,0,0-5.04,1.332c-1.93,1.8447-2.16,4.97-2.1455,6.5166a10.7849,10.7849,0,0,0-5.9536,4.588l-.0044.0038-.0031.0062c-.0112.0164-.0229.0291-.0341.0456a.9542.9542,0,0,0-.0634.1517,1.002,1.002,0,0,0-.0776.1858.9718.9718,0,0,0-.0123.1874.5908.5908,0,0,0,.0573.3679.968.968,0,0,0,.0737.1832,1.0022,1.0022,0,0,0,.1252.1448.9451.9451,0,0,0,.113.1307,9.58,9.58,0,0,1,1.792,1.837l.0019.0015a.9922.9922,0,0,0,.3008.27c.0134.0078.0281.01.0417.0173.0183.0095.0367.0147.0555.023a.9942.9942,0,0,0,.4028.0945l.0019,0,.001,0,.0135-.0021a1.0047,1.0047,0,0,0,.266-.0418c.0306-.009.0588-.024.0887-.0359a.992.992,0,0,0,.1786-.0919c.0147-.01.0317-.013.046-.0236s.0189-.0244.0313-.0345a.98.98,0,0,0,.2108-.2324c.0081-.0127.02-.0227.0275-.0357l.0009-.0011c.8106-1.4,2.2373-3.09,4.4336-3.1836a6.4423,6.4423,0,0,1,4.9715,2.4479.9782.9782,0,0,0,.258.3695.999.999,0,0,0,1.41-.1016,9.1827,9.1827,0,0,1,1.7813-1.5937c.0261-.0176.04-.0448.0634-.0642a.9449.9449,0,0,0,.1329-.0687,1.0005,1.0005,0,0,0,.1523-1.4062,15.2218,15.2218,0,0,0-5.39-3.74C39.3913,21.7488,39.8171,21.3347,40.0124,21.2243Z"/>
    <path fill="#781e32" d="M22.582,57.4691c2.11,3.0088,4.1045,4.4775,6.0977,4.4892h.0224a4.759,4.759,0,0,0,3.8213-2.2763c.0139-.0192.0158-.0422.0281-.062a1.4667,1.4667,0,0,0,.1376-.3627.8738.8738,0,0,0-.0756-.5513.9514.9514,0,0,0-.0948-.18.3092.3092,0,0,1-.0324-.0613c-6.7533-16.0871-1.1007-27.8005-1.0284-27.98.009-.0227.0053-.0461.0125-.069a1.083,1.083,0,0,0-.0633-.7567c-.0112-.0216-.0114-.0458-.0244-.0669-.1133-.1856-3.0047-4.1762-7.2616-4.1762-4.0557,0-5.8,3.7471-6.1553,5.7286C17.875,31.889,16.0263,48.12,22.582,57.4691Z"/>
  </g>
  <g id="line">
    <path fill="none" stroke="#000" stroke-linecap="round" stroke-linejoin="round" stroke-width="2" d="M30.6019,30.0979c-.7559-1.026-3.0468-3.6815-6.5091-3.6815-4.2913,0-5.1713,4.9052-5.1713,4.9052s-1.9612,16.43,4.4506,25.573c4.5587,6.5009,7.4164,3.7576,8.6874,1.6289"/>
    <path fill="none" stroke="#000" stroke-linecap="round" stroke-linejoin="round" stroke-width="2" d="M41.0119,30.4958s2.4917-4.0794,6.783-4.0794,5.1713,4.9052,5.1713,4.9052,1.9612,16.43-4.4506,25.573c-4.1538,5.9235-6.8953,4.172-8.3111,2.2038"/>
    <path fill="none" stroke="#000" stroke-linecap="round" stroke-linejoin="round" stroke-width="2" d="M41.635,29.2141a7.6351,7.6351,0,0,0-5.7767-2.7977c-4.1168.1745-5.8558,4.9052-5.8558,4.9052a37.9215,37.9215,0,0,0-1.8073,12.3659"/>
    <path fill="none" stroke="#000" stroke-linecap="round" stroke-linejoin="round" stroke-width="2" d="M30.3566,57.31c.8186,0,1.7025,1.2132,1.7025,1.2132,3.6354,4.1062,6.4076,2.3556,8.148.5733,0,0,1.2724-1.7865,2.38-1.7865"/>
    <path fill="none" stroke="#000" stroke-linecap="round" stroke-linejoin="round" stroke-width="2" d="M30.4581,25.9a7.7934,7.7934,0,0,1,4.3656-2.226S33.921,14.9711,40.8224,16a11.3515,11.3515,0,0,1,4.2183,1.6255,1.991,1.991,0,0,1,.2244,3.0754h0a2.0116,2.0116,0,0,1-2.4077.2618c-1.695-.984-4.5364-2.0851-4.6067,2.9516a18.9983,18.9983,0,0,1,3.5351,1.8505"/>
  </g>
</svg>
