<svg id="emoji" viewBox="0 0 72 72" xmlns="http://www.w3.org/2000/svg">
  <g id="color">
    <ellipse cx="43.8235" cy="58.3802" rx="3.1473" ry="3.1533" fill="#d22f27"/>
    <path fill="#d22f27" d="M43.7127,49.3165a1.4758,1.4758,0,0,1-1.4757-1.4641c-.0005-.0819-.0607-2.5611.0044-8.4158.0358-3.2309,3.63-6.1269,8.385-10.8752C52.8045,26.3867,53.1,23.8446,53.1,21.4338c0-3.2818-2.9648-7.5869-8.9835-7.5869-5.3383,0-8.4993,3.4672-8.4993,9.5524a1.4344,1.4344,0,0,1-1.3947,1.5866,1.5517,1.5517,0,0,1-1.5048-1.7588c0-9.8821,7.2907-12.2688,11.3649-12.2688,6.57,0,12.0283,3.4313,12.0283,10.207,0,3.671-.48,6.5255-3.71,9.7549-3.9558,3.9557-7.1838,6.3462-7.208,8.5487-.0651,5.8264-.005,8.278-.0044,8.36a1.4759,1.4759,0,0,1-1.4641,1.4872Z"/>
    <ellipse cx="22.4214" cy="58.2498" rx="3" ry="3.0228" fill="#d22f27"/>
    <path fill="#d22f27" d="M22.3214,50.7783a2.4852,2.4852,0,0,1-2.5-2.519V12.7916a2.5,2.5,0,1,1,5,0V48.2593A2.4852,2.4852,0,0,1,22.3214,50.7783Z"/>
  </g>
  <g id="line">
    <ellipse cx="43.8235" cy="58.3802" rx="3.1473" ry="3.1533" fill="none" stroke="#000" stroke-linecap="round" stroke-linejoin="round" stroke-width="2"/>
    <path d="M44.0821,10.9583c6.57,0,12.0283,3.4313,12.0283,10.207,0,3.671-.48,6.5255-3.71,9.7549-3.9558,3.9557-7.1838,6.3462-7.208,8.5487-.0651,5.8264-.005,8.278-.0044,8.36a1.476,1.476,0,0,1-1.4641,1.4872h-.0115a1.4758,1.4758,0,0,1-1.4757-1.4641c-.0005-.0819-.0607-2.5611.0044-8.4158.0358-3.2309,3.63-6.1269,8.385-10.8752C52.8045,26.3867,53.1,23.8446,53.1,21.4338c0-3.2818-2.9648-7.5869-8.9835-7.5869-5.3383,0-8.4993,3.4672-8.4993,9.5524a1.4344,1.4344,0,0,1-1.3947,1.5866,1.5517,1.5517,0,0,1-1.5048-1.7588c0-9.8821,7.2907-12.2688,11.3649-12.2688m0-2c-4.964,0-13.3649,3.0052-13.3649,14.2688a3.5188,3.5188,0,0,0,3.5048,3.7588,3.4178,3.4178,0,0,0,3.3947-3.5866c0-3.4454,1.1276-7.5524,6.4993-7.5524,4.8169,0,6.9835,3.2671,6.9835,5.5869,0,2.3639-.3155,4.144-1.8862,5.7123-.7515.75-1.4737,1.454-2.1571,2.12-3.9334,3.8326-6.7754,6.6018-6.8147,10.1486-.055,4.9457-.0218,7.5388-.005,8.4241a3.4759,3.4759,0,1,0,6.9517-.0248l-.0012-.075c-.0164-.8595-.0488-3.3838.0056-8.2476.0092-.8384,2.1016-2.8219,3.9476-4.5719.8091-.767,1.7261-1.6363,2.6747-2.5849,3.5769-3.577,4.2955-6.9255,4.2955-11.1691,0-7.3013-5.6376-12.207-14.0283-12.207Z"/>
    <ellipse cx="22.4214" cy="58.8953" rx="3" ry="3.0228" fill="none" stroke="#000" stroke-linecap="round" stroke-linejoin="round" stroke-width="2"/>
    <path fill="none" stroke="#000" stroke-linecap="round" stroke-linejoin="round" stroke-width="2" d="M22.4214,50.7783a2.4852,2.4852,0,0,1-2.5-2.519V12.7916a2.5,2.5,0,1,1,5,0V48.2593A2.4852,2.4852,0,0,1,22.4214,50.7783Z"/>
  </g>
</svg>
