<svg id="emoji" viewBox="0 0 72 72" xmlns="http://www.w3.org/2000/svg">
  <g id="color">
    <path fill="#3F3F3F" stroke="none" d="M38.6553,12.8414H22.7344v3.4189h15.9208c7.3628,0,16.1395,3.214,16.1395,18.5264 c0,11.6068-5.3478,17.4921-15.8958,17.4921H21.0742l5.5427-5.0903l-2.0293-2.21l-9.8013,9.0097l9.8013,8.9927l2.0293-2.209 l-5.5248-5.0743H38.899c12.4552,0,19.3146-7.4262,19.3146-20.911C58.2137,20.8403,51.0847,12.8414,38.6553,12.8414z"/>
  </g>
  <g id="hair"/>
  <g id="skin"/>
  <g id="skin-shadow"/>
  <g id="line">
    <path fill="#000000" stroke="none" d="M38.655,10.8413H22.7346c-1.1045,0-2,0.8955-2,2v3.4189c0,1.1045,0.8955,2,2,2H38.655 c9.3823,0,14.1396,5.5601,14.1396,16.5264c0,10.5693-4.4155,15.4922-13.8955,15.4922H26.2087l1.7612-1.6172 c0.8135-0.7471,0.8672-2.0122,0.1201-2.8257l-2.0293-2.21c-0.3589-0.3911-0.8584-0.623-1.3887-0.6455 c-0.5239-0.0239-1.0474,0.1665-1.438,0.5254l-9.8013,9.0098c-0.4121,0.3794-0.647,0.9136-0.6465,1.4736 s0.2354,1.0942,0.6479,1.4727l9.8013,8.9922c0.3838,0.3525,0.8682,0.5264,1.3516,0.5264c0.5405,0,1.0791-0.2178,1.4731-0.6465 l2.0293-2.209c0.3589-0.3916,0.5479-0.9082,0.5254-1.4385s-0.2544-1.0293-0.645-1.3877l-1.7432-1.6006h12.6724 c13.5454,0,21.3145-8.3511,21.3145-22.9116C60.2136,19.793,52.1545,10.8413,38.655,10.8413z M38.899,55.6977H21.0921l5.5248,5.0743 l-2.0293,2.209l-9.8013-8.9927l9.8013-9.0097l2.0293,2.21l-5.5427,5.0903H38.899c10.5479,0,15.8958-5.8854,15.8958-17.4921 c0-15.3124-8.7767-18.5264-16.1395-18.5264H22.7344v-3.4189h15.9208c12.4294,0,19.5584,7.9988,19.5584,21.9453 C58.2137,48.2715,51.3542,55.6977,38.899,55.6977z"/>
  </g>
</svg>
