<svg id="emoji" viewBox="0 0 72 72" xmlns="http://www.w3.org/2000/svg">
  <g id="color">
    <path fill="#3F3F3F" stroke="none" d="M34.3447,12.8414h15.9208v3.4189H34.3447c-7.3628,0-16.1395,3.214-16.1395,18.5264 c0,11.6068,5.3478,17.4921,15.8958,17.4921h17.8248l-5.5427-5.0903l2.0293-2.21l9.8013,9.0097l-9.8013,8.9927l-2.0293-2.209 l5.5248-5.0743H34.101c-12.4552,0-19.3146-7.4262-19.3146-20.911C14.7863,20.8403,21.9153,12.8414,34.3447,12.8414z"/>
  </g>
  <g id="hair"/>
  <g id="skin"/>
  <g id="skin-shadow"/>
  <g id="line">
    <path fill="#000000" stroke="none" d="M12.7864,34.7866c0,14.5605,7.769,22.9116,21.3145,22.9116h12.6724L45.03,59.2988 c-0.3906,0.3584-0.6226,0.8574-0.645,1.3877s0.1665,1.0469,0.5254,1.4385l2.0293,2.209c0.394,0.4287,0.9326,0.6465,1.4731,0.6465 c0.4834,0,0.9678-0.1738,1.3516-0.5264l9.8013-8.9922c0.4126-0.3784,0.6475-0.9126,0.6479-1.4727s-0.2344-1.0942-0.6465-1.4736 l-9.8013-9.0098c-0.3906-0.3589-0.9141-0.5493-1.438-0.5254c-0.5303,0.0225-1.0298,0.2544-1.3887,0.6455l-2.0293,2.21 c-0.7471,0.8135-0.6934,2.0786,0.1201,2.8257l1.7612,1.6172H34.1008c-9.48,0-13.8955-4.9229-13.8955-15.4922 c0-10.9663,4.7573-16.5264,14.1396-16.5264h15.9204c1.1045,0,2-0.8955,2-2v-3.4189c0-1.1045-0.8955-2-2-2H34.345 C20.8455,10.8413,12.7864,19.793,12.7864,34.7866z M14.7863,34.7867c0-13.9464,7.129-21.9453,19.5584-21.9453h15.9208v3.4189 H34.3447c-7.3628,0-16.1395,3.214-16.1395,18.5264c0,11.6068,5.3478,17.4921,15.8958,17.4921h17.8248l-5.5427-5.0903l2.0293-2.21 l9.8013,9.0097l-9.8013,8.9927l-2.0293-2.209l5.5248-5.0743H34.101C21.6458,55.6977,14.7863,48.2715,14.7863,34.7867z"/>
  </g>
</svg>
