<svg id="emoji" viewBox="0 0 72 72" xmlns="http://www.w3.org/2000/svg">
  <g id="color">
    <line x1="50.258" x2="53.1419" y1="55.036" y2="59.8645" fill="#FFFFFF" stroke="none" stroke-linecap="round" stroke-linejoin="round" stroke-miterlimit="10" stroke-width="2"/>
    <line x1="21.7419" x2="18.858" y1="55.036" y2="59.8645" fill="#FFFFFF" stroke="none" stroke-linecap="round" stroke-linejoin="round" stroke-miterlimit="10" stroke-width="2"/>
    <path fill="#d0cfce" stroke="none" d="M46.1859,14.7917c2.2534-4.6476,4.2653-4.0842,6.1673-4.3168c1.2869-0.1573,6.4609,3.1641,6.4609,6.5799 s-2.2433,4.739-3.5597,5.4867"/>
    <path fill="#d0cfce" stroke="none" d="M25.8141,14.7917c-2.2533-4.6476-4.2652-4.0842-6.1672-4.3168c-1.287-0.1573-6.461,3.1641-6.461,6.5799 s2.2433,4.739,3.5597,5.4867"/>
    <circle cx="36" cy="36.2941" r="23" fill="#FFFFFF" stroke="none" stroke-linecap="round" stroke-linejoin="round" stroke-miterlimit="10" stroke-width="2"/>
    <line x1="36.0257" x2="36.0257" y1="18.9893" y2="35.9893" fill="#FFFFFF" stroke="none" stroke-linecap="round" stroke-linejoin="round" stroke-miterlimit="10" stroke-width="2"/>
    <line x1="35.9742" x2="29.9742" y1="35.9349" y2="46.3272" fill="#FFFFFF" stroke="none" stroke-linecap="round" stroke-linejoin="round" stroke-miterlimit="10" stroke-width="2.0785"/>
  </g>
  <g id="hair"/>
  <g id="skin"/>
  <g id="skin-shadow"/>
  <g id="line">
    <line x1="50.258" x2="53.1419" y1="55.036" y2="59.8645" fill="none" stroke="#000000" stroke-linecap="round" stroke-linejoin="round" stroke-miterlimit="10" stroke-width="2"/>
    <line x1="21.7419" x2="18.858" y1="55.036" y2="59.8645" fill="none" stroke="#000000" stroke-linecap="round" stroke-linejoin="round" stroke-miterlimit="10" stroke-width="2"/>
    <path fill="none" stroke="#000000" stroke-linecap="round" stroke-linejoin="round" stroke-miterlimit="10" stroke-width="2" d="M48.8497,12.5761c0.9692-0.8502,2.2395-1.3655,3.6301-1.3655c3.0417,0,5.5076,2.4657,5.5076,5.5075 c0,1.1088-0.3277,2.1411-0.8914,3.0052"/>
    <path fill="none" stroke="#000000" stroke-linecap="round" stroke-linejoin="round" stroke-miterlimit="10" stroke-width="2" d="M23.1504,12.5761c-0.9693-0.8502-2.2396-1.3655-3.6302-1.3655c-3.0417,0-5.5075,2.4657-5.5075,5.5075 c0,1.1088,0.3276,2.1411,0.8914,3.0052"/>
    <circle cx="36" cy="36.2941" r="23" fill="none" stroke="#000000" stroke-linecap="round" stroke-linejoin="round" stroke-miterlimit="10" stroke-width="2"/>
    <line x1="36.0257" x2="36.0257" y1="18.9893" y2="35.9893" fill="none" stroke="#000000" stroke-linecap="round" stroke-linejoin="round" stroke-miterlimit="10" stroke-width="2"/>
    <line x1="35.9742" x2="29.9742" y1="35.9349" y2="46.3272" fill="none" stroke="#000000" stroke-linecap="round" stroke-linejoin="round" stroke-miterlimit="10" stroke-width="2.0785"/>
  </g>
</svg>
