<svg id="emoji" viewBox="0 0 72 72" xmlns="http://www.w3.org/2000/svg">
  <g id="color">
    <ellipse cx="20.7672" cy="48.4069" rx="6.5859" ry="7.0249" transform="translate(-19.0203 13.8894) rotate(-25.8368)" fill="#ea5a47"/>
    <path fill="#d22f27" d="M24.98,42.1607c-.0356-.0345.1043,1.5.1135,1.5474a9.4682,9.4682,0,0,1-.5592,4.4086c-.7529,2.3217-2.1159,5.892-3.1642,5.9543-2.2311.1328,4.1662.0938,4.1662.0938s.4376-.0957.8781-.8781c.1784-.3167,1.24-.1983,1.4184-.8131.1719-.5921.4429-.4843.7019-.7406.6742-.6671.544-.5776.5141-1.0807-.0415-.6963,0-4.3906,0-4.3906Z"/>
  </g>
  <g id="line">
    <path fill="none" stroke="#000000" stroke-linecap="round" stroke-linejoin="round" stroke-width="1.49" d="M28.0542,44.3144l1.0332,2.7421.3112,2.0492-1.0159,2.793L27.4042,53.07l-1.6.7034-1.0825.5953-2.4946.6928-.7573-.165-1.9634-.025-2.03-.9106-1.6125-2.0421-.7486-2.0038-.974-2.0116.448-1.2854.3246-1.2306.5009-2.3322,3.8089-2.0374L21.56,41s.9362.4209,1.2579.56c.1121.0485,1.0541.38,1.1731.4077Z"/>
    <line x1="26.8412" x2="46.2765" y1="36.7588" y2="17.3235" fill="none" stroke="#000000" stroke-linecap="round" stroke-linejoin="round" stroke-width="2"/>
    <line x1="31.7824" x2="55.3824" y1="37.9824" y2="14.3824" fill="none" stroke="#000000" stroke-linecap="round" stroke-linejoin="round" stroke-width="2"/>
    <line x1="35.1706" x2="51.1353" y1="40.2294" y2="24.2647" fill="none" stroke="#000000" stroke-linecap="round" stroke-linejoin="round" stroke-width="2"/>
    <line x1="40.1706" x2="43.7" y1="18.2294" y2="14.7" fill="none" stroke="#000000" stroke-linecap="round" stroke-linejoin="round" stroke-width="2"/>
    <line x1="25.1706" x2="28.7" y1="33.2294" y2="29.7" fill="none" stroke="#000000" stroke-linecap="round" stroke-linejoin="round" stroke-width="2"/>
    <line x1="33.1706" x2="36.7" y1="46.2294" y2="42.7" fill="none" stroke="#000000" stroke-linecap="round" stroke-linejoin="round" stroke-width="2"/>
    <line x1="56.1706" x2="59.7" y1="19.2294" y2="15.7" fill="none" stroke="#000000" stroke-linecap="round" stroke-linejoin="round" stroke-width="2"/>
    <path fill="#000000" d="M22.6083,30.4963a1.1257,1.1257,0,0,0,0-2.25,1.1257,1.1257,0,0,0,0,2.25Z"/>
    <path fill="#000000" d="M30.6083,58.4963a1.1257,1.1257,0,0,0,0-2.25,1.1257,1.1257,0,0,0,0,2.25Z"/>
    <polygon fill="none" stroke="#000000" stroke-linecap="round" stroke-linejoin="round" stroke-width="2" points="40 41 42 41 42.75 38.75 43.5 41 45.5 41 44 42.25 44.5 44.25 42.75 43 41 44.25 41.75 42.25 40 41"/>
    <polygon fill="none" stroke="#000000" stroke-linecap="round" stroke-linejoin="round" stroke-width="2" points="28 20 30 20 30.75 17.75 31.5 20 33.5 20 32 21.25 32.5 23.25 30.75 22 29 23.25 29.75 21.25 28 20"/>
    <path fill="#000000" d="M53.6083,28.4963a1.1257,1.1257,0,0,0,0-2.25,1.1257,1.1257,0,0,0,0,2.25Z"/>
  </g>
</svg>
