<svg id="emoji" viewBox="0 0 72 72" xmlns="http://www.w3.org/2000/svg">
  <g id="color"/>
  <g id="hair"/>
  <g id="skin">
    <path fill="#fadcbc" stroke="#fadcbc" d="M20.2385,52.0665c1.0756,8.6001,8.0438,14.9847,16.215,14.857c9.106,0,16.8546-6.833,16.8546-16.878 l-0.0019,0.251l-0.6189-11.213c-0.1679-2.1944-1.9158-3.8708-3.9892-3.826h-9.4197c-5.6339-3.2226-18.8644,6.5869-18.8644,8.5099"/>
    <path fill="#fadcbc" stroke="#fadcbc" d="M23.6714,48.4689c-1.9056-0.1527-4.0021-1.6337-3.8889-3.6995l0.0538-14.7823 c-0.2381-1.933,3.3124-3.8158,5.0972-4.0736c1.7848-0.2578,2.473,2.9834,2.7111,4.9164c0.9887-5.0982,0.2472-0.932-0.7415,6.639v7 C27.0163,46.5347,25.577,48.3162,23.6714,48.4689z"/>
    <path fill="#fadcbc" stroke="#fadcbc" d="M31.5339,53.2379c-1.9056-0.1527-3.345-1.9342-3.2317-4l-0.029-19.7702 c-0.6874-1.8063-5.2848-1.2272,2.9078-3.2917c1.7538-0.4419,2.9939,0.7177,3.2319,2.6507 c0.0382,0.3099,0.3909,5.1012,0.3528,5.4111v15C34.8789,51.3037,33.4395,53.0852,31.5339,53.2379z"/>
    <path fill="#fadcbc" stroke="#fadcbc" d="M33.7593,37.9333v-7.3098c-0.0213-1.9167,2.1944-5.08,4.2141-5.3379 c2.0197-0.2578,6.9202,1.697,7.1896,3.63c0.0432,0.3099,0.0171,1.1216-0.0261,1.4314l-2.0281,5.8444"/>
    <path fill="#fadcbc" stroke="#fadcbc" d="M43.1089,37.6294l0.366-29.2067c0-6.175,9.417-5.3884,9.417,0.283l1.0547,30.9545"/>
  </g>
  <g id="skin-shadow"/>
  <g id="line">
    <path fill="none" stroke="#000000" stroke-linecap="round" stroke-linejoin="round" stroke-width="2" d="M24.3121,40.8979 c-2.0638-0.1527-3.6226-1.9342-3.5-4v-7c-0.2578-1.933,1.1001-3.709,3.0331-3.9669c1.933-0.2578,3.709,1.1001,3.9669,3.0331 c0.0413,0.3099,0.0413,0.6239,0,0.9337v7C27.9347,38.9637,26.3759,40.7452,24.3121,40.8979z"/>
    <path fill="none" stroke="#000000" stroke-linecap="round" stroke-miterlimit="10" stroke-width="2" d="M53.3092,51.072V40.7288 c-0.1631-2.228-1.7835-4.5373-4.8134-4.5373"/>
    <path fill="none" stroke="#000000" stroke-linecap="round" stroke-miterlimit="10" stroke-width="2" d="M48.4958,36.1982h-8.2889 c-1.7123-0.1206-3.189,1.4125-3.3155,3.4423c0.1509,2.0752,1.5455,3.7158,3.2957,3.877l0.8695,0.1151 c1.8128,0.238,3.2957,1.3199,3.2957,2.4018v1.967v0.4327c-1.7849,0.4502-3.4373,1.4541-4.7885,2.9093"/>
    <path fill="none" stroke="#000000" stroke-linecap="round" stroke-miterlimit="10" stroke-width="2" d="M20.7807,53.0597 c1.058,8.4584,7.9121,14.7378,15.9497,14.6122c8.957,0,16.5788-6.7204,16.5788-16.5999l-0.001-0.001"/>
    <line x1="44.3083" x2="44.3083" y1="8.372" y2="23.3615" fill="none" stroke="#000000" stroke-linecap="round" stroke-miterlimit="10" stroke-width="2"/>
    <line x1="52.6833" x2="52.6833" y1="8.5804" y2="33.3988" fill="none" stroke="#000000" stroke-linecap="round" stroke-miterlimit="10" stroke-width="2"/>
    <path fill="none" stroke="#000000" stroke-linecap="round" stroke-miterlimit="10" stroke-width="2" d="M44.3083,8.372 c0-5.875,8.375-5.1875,8.375,0.2083"/>
    <path fill="none" stroke="#000000" stroke-linecap="round" stroke-linejoin="round" stroke-width="2" d="M32.7489,40.7605 c-3.322,1.2271-4.997-1.9342-4.8744-4v-7c-0.2578-1.933,1.1001-3.709,3.0331-3.9669c1.933-0.2578,3.709,1.1001,3.9669,3.0331 c0.0413,0.3099,0.0413,0.6239,0,0.9337"/>
    <path fill="none" stroke="#000000" stroke-linecap="round" stroke-linejoin="round" stroke-width="2" d="M34.9369,34.1256v-5.3175 c-0.2578-1.933,1.1001-3.709,3.0331-3.9669c1.933-0.2578,3.709,1.1001,3.9669,3.0331c0.0413,0.3099,0.0413,0.6239,0,0.9337 l0.031,3.5043"/>
    <path fill="none" stroke="#000000" stroke-linecap="round" stroke-miterlimit="10" stroke-width="2" d="M20.7807,53.0597 c-0.08-1.5115,0-8.9394,0-8.9394"/>
  </g>
</svg>
