<svg id="emoji" viewBox="0 0 72 72" xmlns="http://www.w3.org/2000/svg">
  <g id="color">
    <circle cx="36" cy="36" r="23" fill="#f4aa41"/>
  </g>
  <g id="line">
    <circle cx="36" cy="36.0006" r="23" fill="none" stroke="#000" stroke-linecap="round" stroke-linejoin="round" stroke-width="2"/>
    <path d="M22.5907,41.1451a6.0024,6.0024,0,0,1,10.9607-3.3825l.7513-.4278a1.83,1.83,0,0,1,1.2793-2.3489l.0263-.6637A6.0029,6.0029,0,0,1,35.34,22.3669l-.2169-1.02A7.9866,7.9866,0,0,0,28.7811,32.688a7.9956,7.9956,0,0,0-7.3549,7.97,8.73,8.73,0,0,0,.6394,3.1379l.9623-.3974A5.9839,5.9839,0,0,1,22.5907,41.1451Z"/>
    <path d="M46.403,46.3242A6.0025,6.0025,0,0,1,38.01,38.5056l-.6394-.4984a1.8278,1.8278,0,0,1-2.6252.0421l-.775.4267a6.0029,6.0029,0,0,1-10.1972,6.2465l-.7719.7a7.9617,7.9617,0,0,0,12.9852-.253,7.9957,7.9957,0,0,0,10.5744,2.4068,8.7313,8.7313,0,0,0,2.4023-2.1177l-.824-.6364A5.9848,5.9848,0,0,1,46.403,46.3242Z"/>
    <path d="M49.51,36.6616a7.9855,7.9855,0,0,0-6.2342-3.9821A7.9314,7.9314,0,0,0,40.033,22.3837a8.7274,8.7274,0,0,0-3.0336-1.026l-.1406,1.0316a6.0032,6.0032,0,0,1-.4233,11.93l.0547.666a1.83,1.83,0,0,1,1.2814,2.35l.6481.4522a6.0029,6.0029,0,0,1,10.4962,5.73l.9919.32A7.9834,7.9834,0,0,0,49.51,36.6616Z"/>
    <path d="M29.0425,36.8469a7.04,7.04,0,0,1,.05-.8377l-1.56-.0632q-.0423.4216-.0426.8549a8.4721,8.4721,0,0,0,4.9161,7.6911l.8945-1.221A6.9739,6.9739,0,0,1,29.0425,36.8469Z"/>
    <path d="M40.9458,29.9513a8.4742,8.4742,0,0,0-9.9093-.0437l.8148,1.3462a6.9741,6.9741,0,0,1,8.3346.0062Z"/>
    <path d="M44.3944,36.0006H42.9356a7.0563,7.0563,0,0,1,.0508.8463,6.974,6.974,0,0,1-4.25,6.4208l.8291,1.2011a8.4718,8.4718,0,0,0,4.8664-7.6679Q44.4317,36.3961,44.3944,36.0006Z"/>
  </g>
</svg>
