<svg id="emoji" viewBox="0 0 72 72" xmlns="http://www.w3.org/2000/svg">
  <g id="color">
    <path fill="#9B9B9A" stroke="none" d="M40.0944,33.0963l0.9439-0.9438l7.5124-7.5121l1.3506-1.3432v12.7245l4.9497-4.9497V14.8084H38.5877 l-4.9497,4.9497h12.7278l-0.0836,0.0835l-0.4706,0.4706l-8.4264,8.4268l-0.8243,0.8243c-5.858-4.1749-14.0433-3.6346-19.2989,1.621 c-5.8579,5.8579-5.8579,15.3553,0,21.2132c5.8578,5.8578,15.3553,5.8579,21.2132,0 C43.7314,47.1413,44.2712,38.9545,40.0944,33.0963z M20.7663,48.8932c-3.9052-3.9052-3.9052-10.2369,0-14.1421 s10.2369-3.9052,14.1421,0s3.9052,10.2369,0,14.1421S24.6715,52.7984,20.7663,48.8932z"/>
  </g>
  <g id="hair"/>
  <g id="skin"/>
  <g id="skin-shadow"/>
  <g id="line">
    <path fill="none" stroke="#000000" stroke-linecap="round" stroke-linejoin="round" stroke-miterlimit="10" stroke-width="2" d="M50.0583,23.1367"/>
    <path fill="none" stroke="#000000" stroke-linecap="round" stroke-linejoin="round" stroke-miterlimit="10" stroke-width="2" d="M35.2091,37.9859"/>
    <path fill="none" stroke="#000000" stroke-linecap="round" stroke-linejoin="round" stroke-miterlimit="10" stroke-width="2" d="M31.6736,34.4504"/>
    <path fill="none" stroke="#000000" stroke-linecap="round" stroke-linejoin="round" stroke-miterlimit="10" stroke-width="2" d="M42.6337,17.1263"/>
    <path fill="none" stroke="#000000" stroke-linecap="round" stroke-linejoin="round" stroke-miterlimit="10" stroke-width="2" d="M47.937,18.1869"/>
    <path fill="none" stroke="#000000" stroke-linecap="round" stroke-linejoin="round" stroke-miterlimit="10" stroke-width="2" d="M54.7381,14.9214H38.4746l-4.9497,4.9497h12.7279l-0.0835,0.0835l-0.4707,0.4707l-8.4264,8.4267l-0.8243,0.8243 c-5.858-4.1749-14.0433-3.6346-19.2989,1.621c-5.8579,5.8579-5.8579,15.3553,0,21.2132s15.3553,5.8579,21.2132,0 c5.2563-5.2563,5.7961-13.4431,1.6193-19.3013l0.9439-0.9439l7.5124-7.5121l1.3505-1.3433v12.7245l4.9497-4.9497V14.9214"/>
    <ellipse cx="27.7555" cy="41.904" rx="10" ry="10" transform="matrix(0.7071 -0.7071 0.7071 0.7071 -21.5012 31.8995)" fill="none" stroke="#000000" stroke-linecap="round" stroke-linejoin="round" stroke-miterlimit="10" stroke-width="2"/>
  </g>
</svg>
