<svg id="emoji" viewBox="0 0 72 72" xmlns="http://www.w3.org/2000/svg">
  <g id="color">
    <g id="_2694">
      <path fill="#9b9b9a" d="M29.8689,49.8881s3.8768-.1914,1.57-2.9351A27.3514,27.3514,0,0,1,21.46,41.6161s-3.6038,1.0922-.9827,3.2489A44.5205,44.5205,0,0,1,29.8689,49.8881Z"/>
      <path fill="#d0cfce" d="M43.91,13.2107a25.7734,25.7734,0,0,1-2.7051,9.5749L29.9145,44.6031a22.4062,22.4062,0,0,1-4.52-2.4173L37.2724,20.6822a25.7753,25.7753,0,0,1,6.4619-7.5657"/>
      <path fill="#9b9b9a" d="M18.326,55.9442a1.997,1.997,0,1,0,3.522,1.8837,88.1683,88.1683,0,0,0,3.8491-10.02L24.523,47.18A88.1637,88.1637,0,0,0,18.326,55.9442Z"/>
      <path fill="#9b9b9a" d="M51.5232,44.865c2.6211-2.1567-.9827-3.2489-.9827-3.2489a27.3514,27.3514,0,0,1-9.9791,5.3369c-2.3071,2.7437,1.57,2.9351,1.57,2.9351A44.5205,44.5205,0,0,1,51.5232,44.865Z"/>
      <path fill="#d0cfce" d="M29.2657,14.1165a25.7753,25.7753,0,0,1,6.4619,7.5657L47.6055,43.1858a22.4062,22.4062,0,0,1-4.52,2.4173L31.7947,23.7856A25.7734,25.7734,0,0,1,29.09,14.2107"/>
      <path fill="#9b9b9a" d="M53.674,55.9442a1.997,1.997,0,1,1-3.522,1.8837,88.1683,88.1683,0,0,1-3.8491-10.02L47.477,47.18A88.1637,88.1637,0,0,1,53.674,55.9442Z"/>
    </g>
  </g>
  <g id="line">
    <g id="_2694-2">
      <g>
        <path fill="none" stroke="#000" stroke-linecap="round" stroke-linejoin="round" stroke-width="2" d="M40.3417,46.5421h0a1.9971,1.9971,0,0,0,1.8836,3.5221"/>
        <path fill="none" stroke="#000" stroke-linecap="round" stroke-linejoin="round" stroke-width="2" d="M51.6174,45.0411a1.997,1.997,0,0,0-1.8836-3.522h0"/>
        <path fill="none" stroke="#000" stroke-linecap="round" stroke-linejoin="round" stroke-width="2" d="M51.6174,45.0411a22.1726,22.1726,0,0,0-9.3921,5.0231"/>
        <path fill="none" stroke="#000" stroke-linecap="round" stroke-linejoin="round" stroke-width="2" d="M40.3417,46.5421a22.1724,22.1724,0,0,0,9.3921-5.023"/>
      </g>
      <path fill="none" stroke="#000" stroke-linecap="round" stroke-linejoin="round" stroke-width="2" d="M53.674,55.9442a1.997,1.997,0,1,1-3.522,1.8837,88.1683,88.1683,0,0,1-3.8491-10.02L47.477,47.18A88.1637,88.1637,0,0,1,53.674,55.9442Z"/>
      <path fill="none" stroke="#000" stroke-linecap="round" stroke-linejoin="round" stroke-width="2" d="M28.2657,13.1165a25.7753,25.7753,0,0,1,6.4619,7.5657L46.9194,42.7728A22.4041,22.4041,0,0,1,42.4,45.19L30.7947,22.7856A25.7734,25.7734,0,0,1,28.09,13.2107"/>
      <g>
        <path fill="none" stroke="#000" stroke-linecap="round" stroke-linejoin="round" stroke-width="2" d="M29.7747,50.0642a1.9971,1.9971,0,0,0,1.8836-3.5221h0"/>
        <path fill="none" stroke="#000" stroke-linecap="round" stroke-linejoin="round" stroke-width="2" d="M22.2662,41.5191h0a1.997,1.997,0,1,0-1.8836,3.522"/>
        <path fill="none" stroke="#000" stroke-linecap="round" stroke-linejoin="round" stroke-width="2" d="M29.7747,50.0642a22.1726,22.1726,0,0,0-9.3921-5.0231"/>
        <path fill="none" stroke="#000" stroke-linecap="round" stroke-linejoin="round" stroke-width="2" d="M22.2662,41.5191a22.1724,22.1724,0,0,0,9.3921,5.023"/>
      </g>
      <g>
        <path fill="none" stroke="#000" stroke-linecap="round" stroke-linejoin="round" stroke-width="2" d="M37.7047,19.9549a30.83,30.83,0,0,1,6.03-6.8384"/>
        <path fill="none" stroke="#000" stroke-linecap="round" stroke-linejoin="round" stroke-width="2" d="M34.3432,36.0337,29.6005,45.19a22.4041,22.4041,0,0,1-4.52-2.4173l6.36-11.5234"/>
        <path fill="none" stroke="#000" stroke-linecap="round" stroke-linejoin="round" stroke-width="2" d="M43.91,13.2107a25.7734,25.7734,0,0,1-2.7051,9.5749l-.9124,1.7576"/>
      </g>
      <path fill="none" stroke="#000" stroke-linecap="round" stroke-linejoin="round" stroke-width="2" d="M18.326,55.9442a1.997,1.997,0,1,0,3.522,1.8837,88.1683,88.1683,0,0,0,3.8491-10.02L24.523,47.18A88.1637,88.1637,0,0,0,18.326,55.9442Z"/>
    </g>
  </g>
</svg>
