<svg id="emoji" viewBox="0 0 72 72" xmlns="http://www.w3.org/2000/svg">
  <g id="color">
    <path fill="#B1CC33" stroke="#B1CC33" stroke-linecap="round" stroke-linejoin="round" stroke-miterlimit="10" stroke-width="1.8" d="M31.8796,32.5444h3.0758c1.081,0,1.9573,0.8763,1.9573,1.9573s-0.8763,1.9573-1.9573,1.9573H22.0928 c-3.4747,0-6.2915,2.8168-6.2915,6.2915s2.8168,6.2915,6.2915,6.2915h5.82l0.1518-4.1943h-5.6921 c-1.081,0-2.1149-0.8916-2.1149-1.9726c0-1.081,1.0339-1.9421,2.1149-1.9421h12.0237h0.4194c3.4747,0,6.2915-2.8168,6.2915-6.2915 s-2.8168-6.2915-6.2915-6.2915h-2.936V32.5444z"/>
    <path fill="#5C9E31" stroke="#5C9E31" stroke-linecap="round" stroke-linejoin="round" stroke-miterlimit="10" stroke-width="1.8" d="M25.6815,52.9568l6.2564,0c1.0718,0,2.0064-0.8259,2.0385-1.8971c0.0333-1.1085-0.8554-2.0176-1.9564-2.0176v-4.1943h0.2686 c3.4114,0,6.317,2.6528,6.4382,6.062c0.1273,3.5793-2.7365,6.5209-6.2874,6.5209h-11.045l0,0 c0.3544-1.7722,1.476-3.2963,3.0626-4.1617l0,0C24.8326,53.0641,25.2537,52.9568,25.6815,52.9568z"/>
    <path fill="#B1CC33" stroke="#B1CC33" stroke-linecap="round" stroke-linejoin="round" stroke-miterlimit="10" stroke-width="2" d="M38.5255,49.5541c0.1156,0.4344,0.1846,0.8879,0.2013,1.3557c0.1273,3.5793-2.7365,6.5209-6.2874,6.5209h-11.045l0,0 c0.3544-1.7722,1.476-3.2963,3.0626-4.1617l0,0c0.3756-0.2049,0.7966-0.3122,1.2245-0.3122l6.2564,0 c0.6261,0,1.2055-0.2819,1.5854-0.7299L38.5255,49.5541z"/>
    <polyline fill="#5C9E31" stroke="#5C9E31" stroke-linecap="round" stroke-linejoin="round" stroke-miterlimit="10" stroke-width="1.8" points="32.02,49.0421 28.264,49.0421 28.264,44.8478 32.02,44.8478"/>
    <path fill="#5C9E31" stroke="none" d="M22.0172,39.9504c0,0-7.0835,1.3718-6.6981,5.5566c0,0,1.5016,2.8532,3.3237,3.3165l5.4135,1.2276h2.9924 v-6.2l-5.1829-0.0391l-1.4931-0.648l1.4261-1.743L22.0172,39.9504z"/>
    <path fill="#B1CC33" stroke="#B1CC33" stroke-linecap="round" stroke-linejoin="round" stroke-miterlimit="10" stroke-width="1.8" d="M53.1287,19.8834c0,4.333-7.5,4.5-7.5,4.5l-9.0336,0.0479l-0.2124,0.0041l-16.9653,0c-0.975,0-1.8787,0.6663-2.0353,1.6286 c-0.1995,1.2263,0.7418,2.2861,1.9306,2.2861h8.7861l-0.0654,4.1943l-3.9671,0l-4.7694,0c-3.4449,0-6.449-2.6546-6.5523-6.0979 c-0.1069-3.563,2.7496-6.485,6.2886-6.485h16.7773l0.0694-0.0001h0c0.9191-0.0536,1.6803-0.7117,1.8908-1.608 c0.6815-2.9017,3.2865-5.062,6.3961-5.062"/>
    <path fill="#B1CC33" stroke="none" d="M44.1667,13.2914c3.628,0,8.962,2.964,8.962,6.592"/>
    <path fill="#5C9E31" stroke="none" d="M40.0554,35.0975c0,0,0.3106-2.1447-0.5502-3.2538c-1.1194-1.4422-2.6599-3.9045-5.0267-4.4977h-6.0243 l0.184,6.203h6.6038l0,0c0.8129-0.2732,1.2617-0.2283,1.7893-0.07c0.8758,0.2629,1.6941,0.689,2.4436,1.2129L40.0554,35.0975z"/>
    <path fill="#5C9E31" stroke="none" d="M17.3177,27.8429c0.9637,0.7905,2.4037,0.5477,3.0549-0.515l6.8774,0.0181l-0.0809,6.1896 c-1.7968-0.0299-3.6842,0.107-5.0206-0.1243c-7.325-1.2678-8.0362-5.2822-8.0362-5.2822s0.4486-4.6934,5.3821-4.6934 l-1.5559,1.5603c-0.8572,0.2494-1.4626,1.014-1.5088,1.9056L17.3177,27.8429z"/>
  </g>
  <g id="hair"/>
  <g id="skin"/>
  <g id="skin-shadow"/>
  <g id="line">
    <path fill="none" stroke="#000000" stroke-linecap="round" stroke-linejoin="round" stroke-miterlimit="10" stroke-width="2" d="M60.1255,28.4172"/>
    <path fill="none" stroke="#000000" stroke-linecap="round" stroke-linejoin="round" stroke-miterlimit="10" stroke-width="2" d="M52.8962,35.18"/>
    <path fill="none" stroke="#000000" stroke-linecap="round" stroke-linejoin="round" stroke-miterlimit="10" stroke-width="2" d="M24.1293,44.8478H22.33c-1.081,0-1.9573-0.8763-1.9573-1.9573s0.8763-1.9573,1.9573-1.9573h12.0237h0.4194 c3.4747,0,6.2915-2.8168,6.2915-6.2915s-2.8168-6.2915-6.2915-6.2915h-2.936"/>
    <path fill="none" stroke="#000000" stroke-linecap="round" stroke-linejoin="round" stroke-miterlimit="10" stroke-width="2" d="M31.8371,32.5444h3.0758c1.081,0,1.9573,0.8763,1.9573,1.9573s-0.8763,1.9573-1.9573,1.9573H22.0504 c-3.4747,0-6.2915,2.8168-6.2915,6.2915s2.8168,6.2915,6.2915,6.2915h2.0789"/>
    <path fill="none" stroke="#000000" stroke-linecap="round" stroke-linejoin="round" stroke-width="2" d="M24.0663,32.5444 l-4.7694,0c-3.4449,0-6.449-2.6546-6.5523-6.0979c-0.1069-3.563,2.7496-6.485,6.2886-6.485h16.7773l0.0694-0.0001h0 c0.9191-0.0536,1.6803-0.7117,1.8908-1.608c0.6815-2.9017,3.2865-5.062,6.3961-5.062"/>
    <path fill="none" stroke="#000000" stroke-linecap="round" stroke-linejoin="round" stroke-width="2" d="M53.1287,19.8834 c0,4.333-7.5,4.5-7.5,4.5l-9.0336,0.0479l-0.2124,0.0041l-16.9653,0c-0.975,0-1.8787,0.6663-2.0353,1.6286 c-0.1995,1.2263,0.7418,2.2861,1.9306,2.2861h4.7536"/>
    <path fill="none" stroke="#000000" stroke-linecap="round" stroke-linejoin="round" stroke-width="1.8" d="M44.1667,13.2914 c3.628,0,8.962,2.964,8.962,6.592"/>
    <path fill="none" stroke="#000000" stroke-linecap="round" stroke-miterlimit="10" stroke-width="2" d="M50.9807,23.8384 c0,0,3.793,4.054,7.585,4.577"/>
    <line x1="58.0687" x2="62.9067" y1="28.4154" y2="26.1924" fill="none" stroke="#000000" stroke-linecap="round" stroke-miterlimit="10" stroke-width="2"/>
    <line x1="59.1147" x2="58.0687" y1="32.9924" y2="28.4154" fill="none" stroke="#000000" stroke-linecap="round" stroke-miterlimit="10" stroke-width="2"/>
    <line x1="28.0646" x2="28.0646" y1="58.2367" y2="62.9616" fill="none" stroke="#000000" stroke-linecap="round" stroke-linejoin="round" stroke-width="2"/>
    <line x1="28.0646" x2="28.0646" y1="41.8585" y2="51.877" fill="none" stroke="#000000" stroke-linecap="round" stroke-linejoin="round" stroke-width="2"/>
    <polyline fill="none" stroke="#000000" stroke-linecap="round" stroke-linejoin="round" stroke-width="2" points="28.0646,25.3981 28.0646,27.3487 28.0646,33.5418 28.0646,35.5756"/>
    <line x1="28.0646" x2="28.0646" y1="15.0384" y2="18.8813" fill="none" stroke="#000000" stroke-linecap="round" stroke-linejoin="round" stroke-width="2"/>
    <circle cx="28.0646" cy="12.0384" r="3" fill="#000000" stroke="none"/>
    <path fill="none" stroke="#000000" stroke-linecap="round" stroke-linejoin="round" stroke-miterlimit="10" stroke-width="2" d="M32.02,44.8478h0.2686c3.4114,0,6.317,2.6528,6.4382,6.062c0.1273,3.5793-2.7365,6.5209-6.2874,6.5209h-11.045l0,0 c0.3544-1.7722,1.476-3.2963,3.0626-4.1617l0,0c0.3756-0.2049,0.7966-0.3122,1.2245-0.3122l6.2564,0 c1.0718,0,2.0064-0.8259,2.0385-1.8971c0.0333-1.1085-0.8554-2.0176-1.9564-2.0176"/>
  </g>
</svg>
