<svg id="emoji" viewBox="0 0 72 72" xmlns="http://www.w3.org/2000/svg">
  <g id="color">
    <rect x="26.5892" y="46.4526" width="19.0828" height="3.5434" fill="#fcea2b" stroke="#fcea2b" stroke-miterlimit="10" stroke-width="0.9541"/>
    <path fill="#fcea2b" d="M38.3593,53.3015c.7194,2.8877,1.9365,3.03,1.9365,6.2157,0,4.5215-4.2132,6.9738-4.2132,6.9738l-.0154.009-.0153-.009s-4.2132-2.4523-4.2132-6.9738c0-3.1847,1.2166-3.3279,1.936-6.2137"/>
    <path fill="#fcea2b" d="M33.78,42.8976c-1.7823-7.1024-7.612-13.29-7.612-19.5871,0-7.4337,9.8842-17.7944,9.8842-17.7944L36.0673,5.5l.0153.0161s9.8843,10.3607,9.8843,17.7944c0,6.2974-5.83,12.4848-7.612,19.5872"/>
    <path fill="#fcea2b" d="M42.3976,42.8984c2.1073-3.01,5.6779-5.8795,8.4984-5.8795,4.28,0,5.43,1.93,5.43,3.77a19.4669,19.4669,0,0,1-1.3034,5.1371s8.6413-.46,8.6413-6.9005S58.55,29.7445,52.876,29.7445c-4.8767,0-12.547,4.2982-14.5211,13.1532"/>
    <path fill="#fcea2b" d="M38.3593,53.3015c2.18,6.6031,9.303,5.1565,9.303,5.1565a5.732,5.732,0,0,0,4.6-6.21,10.2325,10.2325,0,0,1-5.98,1.9168,6.1052,6.1052,0,0,1-3.3222-.861"/>
    <path fill="#fcea2b" d="M33.7747,53.3035c-2.18,6.6006-9.2022,5.1545-9.2022,5.1545a5.732,5.732,0,0,1-4.6-6.21,10.2325,10.2325,0,0,0,5.98,1.9168,6.106,6.106,0,0,0,3.3218-.8607"/>
    <path fill="#fcea2b" d="M29.8373,42.8984c-2.1073-3.01-5.678-5.8795-8.4985-5.8795-4.28,0-5.43,1.93-5.43,3.77a19.4669,19.4669,0,0,0,1.3034,5.1371s-8.6413-.46-8.6413-6.9005,5.1144-9.2814,10.7881-9.2814c4.8768,0,12.4469,4.2977,14.4209,13.1531"/>
    <path fill="#f1b31c" d="M36.0826,66.491s4.2132-2.4523,4.2132-6.9738c0-3.1855-1.2171-3.328-1.9365-6.2157h-2.292Z"/>
    <path fill="#f1b31c" d="M36.0673,42.8977h2.2876c1.7822-7.1024,7.612-13.29,7.612-19.5872,0-7.4337-9.8843-17.7944-9.8843-17.7944Z"/>
    <path fill="#f1b31c" d="M54.4016,45.9264a19.4657,19.4657,0,0,0,1.3035-5.1371c0-1.84-1.15-3.77-5.43-3.77-2.8206,0-6.3912,2.8693-8.4985,5.88H40.234s3.2832-8.4891,9.9579-8.4891c0,0,8.55-.75,8.55,6.3372C58.7415,40.7465,58.9617,45.9264,54.4016,45.9264Z"/>
    <path fill="#f1b31c" d="M17.86,45.9264a19.4669,19.4669,0,0,1-1.3034-5.1371c0-1.84,1.15-3.77,5.43-3.77,2.82,0,6.3912,2.8693,8.4984,5.88h1.5425s-3.2833-8.4891-9.9579-8.4891c0,0-8.55-.75-8.55,6.3372C13.52,40.7465,13.3,45.9264,17.86,45.9264Z"/>
    <path fill="#f1b31c" d="M51.5135,52.694a10.2325,10.2325,0,0,1-5.98,1.9168,4.2434,4.2434,0,0,1-3.3753-1.3093H40.5939s1.852,3.1942,4.9038,3.1942C45.4977,56.4957,51.5135,56.7305,51.5135,52.694Z"/>
    <path fill="#f1b31c" d="M20.5569,52.694a10.2329,10.2329,0,0,0,5.98,1.9168,4.2436,4.2436,0,0,0,3.3754-1.3093h1.5638s-1.852,3.1942-4.9038,3.1942C26.5727,56.4957,20.5569,56.7305,20.5569,52.694Z"/>
  </g>
  <g id="line">
    <path fill="none" stroke="#000" stroke-linecap="round" stroke-linejoin="round" stroke-width="1.9083" d="M38.3593,53.3015c.7194,2.8877,1.9365,3.03,1.9365,6.2157,0,4.5215-4.2132,6.9738-4.2132,6.9738l-.0154.009-.0153-.009s-4.2132-2.4523-4.2132-6.9738c0-3.1847,1.2166-3.3279,1.936-6.2137"/>
    <path fill="none" stroke="#000" stroke-linecap="round" stroke-linejoin="round" stroke-width="1.9083" d="M33.78,42.8976c-1.7823-7.1024-7.612-13.29-7.612-19.5871,0-7.4337,9.8842-17.7944,9.8842-17.7944L36.0673,5.5l.0153.0161s9.8843,10.3607,9.8843,17.7944c0,6.2974-5.83,12.4848-7.612,19.5872"/>
    <path fill="none" stroke="#000" stroke-linecap="round" stroke-linejoin="round" stroke-width="1.9083" d="M42.3976,42.8984c2.1073-3.01,5.6779-5.8795,8.4984-5.8795,4.28,0,5.43,1.93,5.43,3.77a19.4669,19.4669,0,0,1-1.3034,5.1371s8.6413-.46,8.6413-6.9005S58.55,29.7445,52.876,29.7445c-4.8767,0-12.547,4.2982-14.5211,13.1532"/>
    <path fill="none" stroke="#000" stroke-linecap="round" stroke-linejoin="round" stroke-width="1.9083" d="M38.3593,53.3015c2.18,6.6031,9.303,5.1565,9.303,5.1565a5.732,5.732,0,0,0,4.6-6.21,10.2325,10.2325,0,0,1-5.98,1.9168,6.1052,6.1052,0,0,1-3.3222-.861"/>
    <path fill="none" stroke="#000" stroke-linecap="round" stroke-linejoin="round" stroke-width="1.9083" d="M33.7747,53.3035c-2.18,6.6006-9.2022,5.1545-9.2022,5.1545a5.732,5.732,0,0,1-4.6-6.21,10.2325,10.2325,0,0,0,5.98,1.9168,6.106,6.106,0,0,0,3.3218-.8607"/>
    <path fill="none" stroke="#000" stroke-linecap="round" stroke-linejoin="round" stroke-width="1.9083" d="M29.8373,42.8984c-2.1073-3.01-5.678-5.8795-8.4985-5.8795-4.28,0-5.43,1.93-5.43,3.77a19.4669,19.4669,0,0,0,1.3034,5.1371s-8.6413-.46-8.6413-6.9005,5.1144-9.2814,10.7881-9.2814c4.8768,0,12.4469,4.2977,14.4209,13.1531"/>
    <line x1="45.672" x2="26.5892" y1="49.996" y2="49.996" fill="none" stroke="#000" stroke-linecap="round" stroke-linejoin="round" stroke-width="1.9083"/>
    <line x1="26.5892" x2="45.672" y1="46.4526" y2="46.4526" fill="none" stroke="#000" stroke-linecap="round" stroke-linejoin="round" stroke-width="1.9083"/>
  </g>
</svg>
