<svg id="emoji" viewBox="0 0 72 72" xmlns="http://www.w3.org/2000/svg">
  <g id="color">
    <path fill="#B1CC33" stroke="none" d="M17.0033,68c0-5.6246-0.5417-10.3318,8.1621-11.6317c0.1915,2.5172,2.2717,3.5067,4.8379,3.5067 s4.6464-0.9896,4.8379-3.5067c8.7037,1.2999,8.4122,6.0071,8.4122,11.6317H17.0033z"/>
    <path fill="#5C9E31" stroke="none" d="M24.4252,68h18.8293c0-2.5777,0.097-5.6094-1.0543-7.6507C42.2002,66.9583,30.1722,68,24.4252,68z"/>
    <path fill="#d0cfce" stroke="none" d="M32.0033,7.8785V5.7001c-0.0938-1.6532-3.5156-2.1688-3.9063,0.0812l-0.0156,2.0973"/>
    <path fill="#d0cfce" stroke="none" d="M27.1701,6.0755v53.3806c0,0,2.6005,0.9454,5.7165,0V6.0755"/>
    <path fill="#EA5A47" stroke="none" d="M28.0033,10.8878h4l21.0625,4.9899c1.0231,0.2948,1.9375,0.8674,1.9375,1.9375 c0,1.0701-0.855,1.6071-1.9375,1.9375h0.0013l-21.0638,4.9902l-3.9987,0.0017l-0.0013-6.9294V10.8878z"/>
    <path fill="#D22F27" stroke="none" d="M55.0033,17.8152c0,1.0701-0.855,1.6071-1.9375,1.9375h0.0013l-21.0638,4.9902l-3.9987,0.0017 l-0.0013-6.9294H55.0033z"/>
  </g>
  <g id="hair"/>
  <g id="skin"/>
  <g id="skin-shadow"/>
  <g id="line">
    <path fill="none" stroke="#000000" stroke-linecap="round" stroke-linejoin="round" stroke-miterlimit="10" stroke-width="2" d="M17.0033,68c0-5.6246-0.5417-10.3318,8.1621-11.6317c0.1915,2.5172,2.2717,3.5067,4.8379,3.5067s4.6464-0.9896,4.8379-3.5067 c8.7037,1.2999,8.4122,6.0071,8.4122,11.6317H17.0033z"/>
    <path fill="none" stroke="#000000" stroke-linecap="round" stroke-linejoin="round" stroke-miterlimit="10" stroke-width="2" d="M32.0033,6.8824V6c0-1.1-0.9-2-2-2h0c-1.1,0-2,0.9-2,2v0.8824"/>
    <path fill="none" stroke="#000000" stroke-linecap="round" stroke-linejoin="round" stroke-miterlimit="10" stroke-width="2" d="M28.0033,28.75v30.8832c0,0,1.8471,0.5469,4,0V28.75"/>
    <path fill="none" stroke="#000000" stroke-linecap="round" stroke-linejoin="round" stroke-miterlimit="10" stroke-width="2" d="M28.0045,24.7409l3.9988-0.0017l21.0638-4.9902h-0.0013c1.0825-0.3304,1.9375-0.8674,1.9375-1.9375s-0.9144-1.6427-1.9375-1.9375 l-21.0625-4.9899h-4L28.0045,24.7409z"/>
  </g>
</svg>
