<svg id="emoji" viewBox="0 0 72 72" xmlns="http://www.w3.org/2000/svg">
  <g id="color">
    <circle cx="33.9688" cy="13.0938" r="3" fill="#FCEA2B" stroke="none"/>
    <path fill="#FCEA2B" stroke="none" d="M45,25.6875L51,35l-2,5l-12,5l0.1738,14H33.75l-3.2812-16.3867l5.7031-4.9131 c0.9521-0.7666,0.9082-0.8877,0.9082-1.4189c0-0.7198-0.5176-2.5313-0.5176-2.5313l-3.1875-8.125L34.5,20.5l2.9375-0.9375 l2.875-0.0625L45,25.6875z"/>
    <polyline fill="#FCEA2B" stroke="none" points="40,44 42,54 45,54 45,45 47,41"/>
  </g>
  <g id="hair"/>
  <g id="skin"/>
  <g id="skin-shadow"/>
  <g id="line">
    <circle cx="33.9688" cy="13.0938" r="3" fill="none" stroke="#000000" stroke-miterlimit="10" stroke-width="2"/>
    <path fill="none" stroke="#000000" stroke-linecap="round" stroke-linejoin="round" stroke-miterlimit="10" stroke-width="2" d="M44.54,24.6738l5.3995,8.6309c0.583,0.9326,0.7265,2.5312,0.3173,3.5527l-0.5136,1.2852 c-0.4092,1.0215-1.5743,2.2031-2.5889,2.6269l-8.3086,3.461c-1.0146,0.4238-1.835,1.6699-1.8213,2.7695l0.125,10 c0.0137,1.0996-0.7461,2-1.6875,2c-0.9414,0-1.8887-0.8828-2.1045-1.9609l-2.4961-12.4649 c-0.2158-1.0781,0.3594-2.456,1.2783-3.0605L36.5,38.6445"/>
    <path fill="none" stroke="#000000" stroke-linecap="round" stroke-linejoin="round" stroke-miterlimit="10" stroke-width="2" d="M44.8613,25.1685l-2.5361-3.9136C41.0459,19.4648,38.4248,18.6748,36.5,19.5c-1.9248,0.8252-2.9727,3.2212-2.3291,5.3247 l0.8604,2.2275"/>
    <path fill="none" stroke="#000000" stroke-linecap="round" stroke-linejoin="round" stroke-miterlimit="10" stroke-width="2" d="M38.167,23l0.6719,3.2905c0.2207,1.0777-0.292,2.5342-1.1387,3.2368l-2.7803,2.3067"/>
    <path fill="none" stroke="#000000" stroke-linecap="round" stroke-linejoin="round" stroke-miterlimit="10" stroke-width="2" d="M40,44l1.6074,8.0391C41.8232,53.1172,42.6748,54,43.5,54c0.8252,0,1.5-0.9004,1.5-2v-5c0-1.0996,0.4023-2.8047,0.8945-3.7891 L47,41"/>
    <polyline fill="none" stroke="#000000" stroke-linecap="round" stroke-linejoin="round" stroke-miterlimit="10" stroke-width="2" points="11,61 13,63 61,63"/>
    <line x1="66" x2="41" y1="58" y2="58" fill="none" stroke="#000000" stroke-linecap="round" stroke-linejoin="round" stroke-miterlimit="10" stroke-width="2"/>
    <polyline fill="none" stroke="#000000" stroke-linecap="round" stroke-linejoin="round" stroke-miterlimit="10" stroke-width="2" points="29,58 20,58 18,56"/>
    <line x1="33" x2="56" y1="31" y2="49" fill="none" stroke="#000000" stroke-linecap="round" stroke-linejoin="round" stroke-miterlimit="10" stroke-width="2"/>
    <line x1="55" x2="53" y1="46" y2="49" fill="none" stroke="#000000" stroke-linecap="round" stroke-linejoin="round" stroke-miterlimit="10" stroke-width="2"/>
    <circle cx="33.9688" cy="13.0938" r="3" fill="none" stroke="#000000" stroke-miterlimit="10" stroke-width="2"/>
    <path fill="none" stroke="#000000" stroke-linecap="round" stroke-linejoin="round" stroke-miterlimit="10" stroke-width="2" d="M46.3174,27.417l3.6318,5.8809c0.5781,0.9365,0.7168,2.538,0.3076,3.5595l-0.5136,1.2852 c-0.4092,1.0215-1.5743,2.2031-2.5889,2.6269l-8.3086,3.461c-1.0146,0.4238-1.835,1.6699-1.8213,2.7695l0.125,10 c0.0137,1.0996-0.7461,2-1.6875,2c-0.9414,0-1.8887-0.8828-2.1045-1.9609l-2.4961-12.4649 c-0.2158-1.0781,0.3594-2.456,1.2783-3.0605L36.5,38.6445"/>
    <path fill="none" stroke="#000000" stroke-linecap="round" stroke-linejoin="round" stroke-miterlimit="10" stroke-width="2" d="M48.1045,30.1748l-5.7793-8.9199C41.0459,19.4648,38.4248,18.6748,36.5,19.5c-1.9248,0.8252-2.9727,3.2212-2.3291,5.3247 l0.8604,2.2275"/>
    <path fill="none" stroke="#000000" stroke-linecap="round" stroke-linejoin="round" stroke-miterlimit="10" stroke-width="2" d="M38.167,23l0.6719,3.2905c0.2207,1.0777-0.292,2.5342-1.1387,3.2368l-2.7803,2.3067"/>
    <path fill="none" stroke="#000000" stroke-linecap="round" stroke-linejoin="round" stroke-miterlimit="10" stroke-width="2" d="M40,44l1.6074,8.0391C41.8232,53.1172,42.6748,54,43.5,54c0.8252,0,1.5-0.9004,1.5-2v-5c0-1.0996,0.4023-2.8047,0.8945-3.7891 L47,41"/>
    <polyline fill="none" stroke="#000000" stroke-linecap="round" stroke-linejoin="round" stroke-miterlimit="10" stroke-width="2" points="11,61 13,63 61,63"/>
    <line x1="66" x2="41" y1="58" y2="58" fill="none" stroke="#000000" stroke-linecap="round" stroke-linejoin="round" stroke-miterlimit="10" stroke-width="2"/>
    <polyline fill="none" stroke="#000000" stroke-linecap="round" stroke-linejoin="round" stroke-miterlimit="10" stroke-width="2" points="29,58 20,58 18,56"/>
    <line x1="33" x2="56" y1="31" y2="49" fill="none" stroke="#000000" stroke-linecap="round" stroke-linejoin="round" stroke-miterlimit="10" stroke-width="2"/>
    <line x1="55" x2="53" y1="46" y2="49" fill="none" stroke="#000000" stroke-linecap="round" stroke-linejoin="round" stroke-miterlimit="10" stroke-width="2"/>
  </g>
</svg>
