<svg id="emoji" viewBox="0 0 72 72" xmlns="http://www.w3.org/2000/svg">
  <g id="skin">
    <circle cx="27.1073" cy="13.4638" r="3" fill="#fcea2b"/>
    <path fill="#fcea2b" stroke="#fcea2b" stroke-miterlimit="10" stroke-width="2" d="M29.1183,23.7569c.0938.385.237.928.4435,1.57,0,0,.18.56.3549,1.02.5914,1.557,1.5083,1.9274,2.2425,3.5317a12.0038,12.0038,0,0,1,.7549,2.9865c.3046,1.5615-.0608,2.3043-.8454,4.1877,0,0-.3461.0921-3.3226,7.1368l-.3146,12.8974,1.2141.8828a1.3746,1.3746,0,0,0,1.6716-1.1348l1.495-9.9662,2.86-5.72,5.2629-4.9217.1351-3.22q-2.6991-5.4621-5.398-10.9242"/>
    <path fill="#fcea2b" d="M41.4064,35.2937l4.7663,9.5327,9.7234,5.72-.9533,2.86L43.3129,48.64,36.64,41.0133"/>
    <path fill="#fcea2b" stroke="#fcea2b" stroke-miterlimit="10" stroke-width="2" d="M35.6868,21.9479c-1.9066-3.8131-4.1944-4.0037-5.72-3.4318-2.1925.858-1.0924,4.2249-.5357,6.3869"/>
  </g>
  <g id="color">
    <circle cx="17.5069" cy="40.2869" r="4.7664" fill="#ea5a47"/>
  </g>
  <g id="line">
    <circle cx="17.5063" cy="40.286" r="4.7664" fill="none" stroke="#000" stroke-miterlimit="10" stroke-width="2"/>
    <circle cx="27.2475" cy="13.3236" r="3" fill="none" stroke="#000" stroke-miterlimit="10" stroke-width="2"/>
    <path fill="none" stroke="#000" stroke-linecap="round" stroke-linejoin="round" stroke-width="2" d="M31.8832,29.3167s.3889.9819.6425,1.8741a6.9907,6.9907,0,0,1-.102,4.4318s-3.94,7.8464-3.94,8.8949l-.5185,11.7482a1.7453,1.7453,0,0,0,1.62,1.9065,2.2158,2.2158,0,0,0,1.9066-1.9065l1.3345-9.5327c.1907-1.0486,3.6225-6.2916,4.3851-6.9589l2.7645-2.2879a5.8093,5.8093,0,0,0,1.0381-3.039,5.9848,5.9848,0,0,0-.48-3.5262l-4.8483-8.9731"/>
    <path fill="none" stroke="#000" stroke-linecap="round" stroke-linejoin="round" stroke-width="2" d="M41.0851,34.8743s3.6911,8.4479,4.8779,9.5336C47.2223,45.56,54.18,49.5928,54.18,49.5928a2.2856,2.2856,0,0,1,1.1439,2.3831,1.5205,1.5205,0,0,1-2.1925.6673s-10.1771-4.7177-11.1533-5.5289c-1.0867-.9028-4.7425-6.36-4.7425-6.36"/>
    <path fill="none" stroke="#000" stroke-linecap="round" stroke-linejoin="round" stroke-width="2" d="M35.6868,21.9479c-1.9066-3.8131-4.2894-4.0441-5.8146-3.4722a2.24,2.24,0,0,0-1.17,1.9012"/>
    <path fill="none" stroke="#000" stroke-linecap="round" stroke-linejoin="round" stroke-width="2" d="M30.9207,21.9484s-1.5142,6.3832-1.7977,6.6967c-.2415.2663-7.2937,3.9028-7.2937,3.9028"/>
    <path fill="none" stroke="#000" stroke-linecap="round" stroke-linejoin="round" stroke-width="2" d="M30.2475,10.4518s.4242-.5033.8732-.3851c.5281.1382,1.3355,1.1982,2.0238,1.4995a3.3634,3.3634,0,0,0,2.1611.2154"/>
  </g>
</svg>
