<svg id="emoji" viewBox="0 0 72 72" xmlns="http://www.w3.org/2000/svg">
  <g id="color">
    <path fill="#B399C8" stroke="none" stroke-linecap="round" stroke-linejoin="round" stroke-miterlimit="10" stroke-width="2" d="M53.13,28.38v2.91c0,1.6569-1.3431,3-3,3H43.45c-1.6569,0-3,1.3431-3,3v20.72c0,1.6569-1.3431,3-3,3h-2.9c-1.6569,0-3-1.3431-3-3 V37.29c0-1.6569-1.3431-3-3-3H21.87c-1.6569,0-3-1.3431-3-3v-2.91c0-1.6569,1.3431-3,3-3h6.6799c1.6569,0,3-1.3431,3-3v-8.39 c0-1.6569,1.3431-3,3-3h2.9c1.6569,0,3,1.3431,3,3v8.39c0,1.6569,1.3431,3,3,3H50.13C51.7869,25.38,53.13,26.7232,53.13,28.38z"/>
  </g>
  <g id="hair"/>
  <g id="skin"/>
  <g id="skin-shadow"/>
  <g id="line">
    <path fill="none" stroke="#000000" stroke-linecap="round" stroke-linejoin="round" stroke-miterlimit="10" stroke-width="2" d="M53.13,28.38v2.91c0,1.6569-1.3431,3-3,3H43.45c-1.6569,0-3,1.3431-3,3v20.72c0,1.6569-1.3431,3-3,3h-2.9c-1.6569,0-3-1.3431-3-3 V37.29c0-1.6569-1.3431-3-3-3H21.87c-1.6569,0-3-1.3431-3-3v-2.91c0-1.6569,1.3431-3,3-3h6.6799c1.6569,0,3-1.3431,3-3v-8.39 c0-1.6569,1.3431-3,3-3h2.9c1.6569,0,3,1.3431,3,3v8.39c0,1.6569,1.3431,3,3,3H50.13C51.7869,25.38,53.13,26.7232,53.13,28.38z"/>
  </g>
</svg>
