<svg id="emoji" viewBox="0 0 72 72" xmlns="http://www.w3.org/2000/svg">
  <g id="line-supplement">
    <path fill="none" stroke="#000" stroke-miterlimit="10" stroke-width="2" d="M42.976,39.0753,48.8618,48.37a.4945.4945,0,0,1-.6956.6737l-8.9076-6.0479a.4946.4946,0,0,0-.7636.3165L36.4868,53.841a.4946.4946,0,0,1-.9716,0l-2.01-10.5287a.4946.4946,0,0,0-.7637-.3164l-8.9056,6.0479A.4946.4946,0,0,1,23.14,48.37l5.884-9.2948a.4946.4946,0,0,0-.33-.7512L18.5486,36.4877a.4946.4946,0,0,1,0-.9733L28.6946,33.676a.4946.4946,0,0,0,.33-.7511L23.14,23.63a.4946.4946,0,0,1,.6957-.6737l8.9056,6.0479a.4946.4946,0,0,0,.7637-.3164l2.01-10.5287a.4946.4946,0,0,1,.9716,0L38.495,28.6876a.4946.4946,0,0,0,.7636.3165l8.9076-6.0479a.4945.4945,0,0,1,.6956.6737l-5.8859,9.2949a.4945.4945,0,0,0,.33.7512l10.1459,1.8384a.4946.4946,0,0,1,0,.9733L43.3057,38.3241A.4945.4945,0,0,0,42.976,39.0753Z"/>
  </g>
  <g id="color">
    <path fill="#f4aa41" d="M60,60.9583H12a.9448.9448,0,0,1-1-1v-48a.9448.9448,0,0,1,1-1H60a.9448.9448,0,0,1,1,1v48A.9448.9448,0,0,1,60,60.9583Z"/>
    <path fill="#fff" stroke="#fff" stroke-miterlimit="10" stroke-width="2" d="M42.976,39.0336l5.8858,9.2948a.4945.4945,0,0,1-.6956.6737l-8.9076-6.0479a.4946.4946,0,0,0-.7636.3165L36.4868,53.7993a.4946.4946,0,0,1-.9716,0l-2.01-10.5287a.4946.4946,0,0,0-.7637-.3164l-8.9056,6.0479a.4946.4946,0,0,1-.6957-.6737l5.884-9.2948a.4946.4946,0,0,0-.33-.7512L18.5486,36.446a.4946.4946,0,0,1,0-.9733l10.1461-1.8384a.4946.4946,0,0,0,.33-.7511L23.14,23.5882a.4946.4946,0,0,1,.6957-.6737l8.9056,6.0479a.4946.4946,0,0,0,.7637-.3164l2.01-10.5287a.4946.4946,0,0,1,.9716,0L38.495,28.6459a.4946.4946,0,0,0,.7636.3165l8.9076-6.0479a.4945.4945,0,0,1,.6956.6737l-5.8859,9.2949a.4945.4945,0,0,0,.33.7512l10.1459,1.8384a.4946.4946,0,0,1,0,.9733L43.3057,38.2824A.4945.4945,0,0,0,42.976,39.0336Z"/>
  </g>
  <g id="line">
    <path fill="none" stroke="#000" stroke-linecap="round" stroke-linejoin="round" stroke-width="2" d="M60,60.9583H12a.9448.9448,0,0,1-1-1v-48a.9448.9448,0,0,1,1-1H60a.9448.9448,0,0,1,1,1v48A.9448.9448,0,0,1,60,60.9583Z"/>
  </g>
</svg>
