<svg id="emoji" viewBox="0 0 72 72" xmlns="http://www.w3.org/2000/svg">
  <g id="color">
    <path fill="#d0cfce" stroke="none" d="m 29.043969,61.611125 c 0,-0.927468 -0.03474,-3.979828 -0.03474,-7.764543 0,-2.646092 0.874013,-4.372735 1.862956,-5.252093 -6.227673,-0.721661 -12.778757,-3.153928 -12.778757,-14.034982 0,-3.0978 1.095858,-5.631632 2.886648,-7.614865 -0.285992,-0.71899 -1.253553,-3.605637 0.277973,-7.513301 0,0 2.354755,-0.764427 7.716434,2.90803 2.23715,-0.628113 4.637344,-0.946179 7.026845,-0.951526 2.384156,0.0054 4.784349,0.323413 7.026846,0.951526 5.356333,-3.672457 7.711088,-2.90803 7.711088,-2.90803 1.531527,3.907664 0.569311,6.794311 0.277974,7.513301 1.796134,1.983233 2.8813,4.514393 2.8813,7.614865 0,10.905109 -6.559101,13.307975 -12.816176,14.008253 1.013001,0.882032 1.908395,2.611346 1.908395,5.262785 0,3.792732 -0.03474,6.85044 -0.03474,7.78058 0,0.761755 0.505162,1.641114 1.929775,1.368486 11.145665,-3.757987 19.17749,-14.395813 19.17749,-26.931342 0,-15.678767 -12.567603,-28.3880299 -28.067291,-28.3880299 -15.494341,0 -28.0592708,12.7065899 -28.0592708,28.3880299 0,12.540875 8.0398428,23.181374 19.2015438,26.934015 1.395212,0.261936 1.905721,-0.614749 1.905721,-1.371159 z"/>
  </g>
  <g id="hair"/>
  <g id="skin"/>
  <g id="skin-shadow"/>
  <g id="line">
    <path fill="none" stroke="#000000" stroke-linecap="round" stroke-linejoin="round" stroke-miterlimit="10" stroke-width="2" d="m 29.043969,61.611125 c 0,-0.927468 -0.03474,-3.979828 -0.03474,-7.764543 0,-2.646092 0.874013,-4.372735 1.862956,-5.252093 -6.227673,-0.721661 -12.778757,-3.153928 -12.778757,-14.034982 0,-3.0978 1.095858,-5.631632 2.886648,-7.614865 -0.285992,-0.71899 -1.253553,-3.605637 0.277973,-7.513301 0,0 2.354755,-0.764427 7.716434,2.90803 2.23715,-0.628113 4.637344,-0.946179 7.026845,-0.951526 2.384156,0.0054 4.784349,0.323413 7.026846,0.951526 5.356333,-3.672457 7.711088,-2.90803 7.711088,-2.90803 1.531527,3.907664 0.569311,6.794311 0.277974,7.513301 1.796134,1.983233 2.8813,4.514393 2.8813,7.614865 0,10.905109 -6.559101,13.307975 -12.816176,14.008253 1.013001,0.882032 1.908395,2.611346 1.908395,5.262785 0,3.792732 -0.03474,6.85044 -0.03474,7.78058 0,0.761755 0.505162,1.641114 1.929775,1.368486 11.145665,-3.757987 19.17749,-14.395813 19.17749,-26.931342 0,-15.678767 -12.567603,-28.3880299 -28.067291,-28.3880299 -15.494341,0 -28.0592708,12.7065899 -28.0592708,28.3880299 0,12.540875 8.0398428,23.181374 19.2015438,26.934015 1.395212,0.261936 1.905721,-0.614749 1.905721,-1.371159 z"/>
    <path fill="none" stroke="#000000" stroke-linecap="round" stroke-linejoin="round" stroke-miterlimit="10" stroke-width="2" d="m 16.289268,48.089327 c 2.56858,0.780462 3.58158,1.635766 4.789693,3.661764 1.205444,2.025998 2.619366,4.287204 7.932933,2.998904"/>
  </g>
</svg>
