<svg id="emoji" viewBox="0 0 72 72" xmlns="http://www.w3.org/2000/svg">
  <g id="color">
    <path fill="#fcea2b" d="M15.4883,42.8687A33.5825,33.5825,0,0,1,19.3876,27.778c.4651,7.3054,3.9113,10.2468,5.6219,10.2468,1.2778,0,2.4529-1.3022,2.4529-3.4259.0885-2.7421.5065-7.4372,4.1743-14.2246a2.0964,2.0964,0,0,0,1.0269.2866c1.4368,0,3.75-1.5545,1.8514-13.2012,0,0,14.1092,9.5092,13.5785,25.2544a1.9324,1.9324,0,0,0,2.08,2.0345,5.14,5.14,0,0,0,3.9807-2.6742A20.7208,20.7208,0,0,1,56.3156,41.77c0,12.055-7.4818,21.4867-20.2561,21.4867-11.3772,0-20.5712-9.5848-20.5712-20.0575"/>
    <path fill="#f1b31c" d="M37.2545,26.9077c-.3833,1.4743-1.661,3.9314-5.3664,8.1576-.1277.0983-.1277.1966-.2555.2949-.3833.688-2.0654,1.951-2.0654,4.7383a5.0912,5.0912,0,0,0,.66,2.24,4.85,4.85,0,0,1-3.0416,1.493c-.7461,0-2.3087-.7109-2.4294-1.8209a4.7314,4.7314,0,0,0-1.7013,3.6709c0,4.3877,2.0615,8.9425,7.939,12.4808,0,0,1.661,1.0811,1.7887,1.9657,0,0,0,.0983.1278.0983h6.7718c.2556,0,.2556,0,.2556-.0983,0-.1966.511-1.2777,4.0886-3.7348a14.106,14.106,0,0,0,4.7275-5.2091.8621.8621,0,0,0-.7666-1.1794A2.0155,2.0155,0,0,1,46.71,48.8252h0s-.2556-.7863.7666-2.5554a4.7181,4.7181,0,0,0,.841-2.3589,1.2064,1.2064,0,0,0-1.661-.688,2.8632,2.8632,0,0,1-3.652-1.0811s-.8943-1.5725-.1277-5.4056c.5111-2.9486-1.2777-7.7645-3.5776-10.2216C38.66,25.9248,37.3823,26.1214,37.2545,26.9077Z"/>
    <polyline fill="#3f3f3f" points="39.302 55.881 47.057 56.419 41.501 47.603 45.013 47.757 40.217 40.501 43.237 40.332 36.397 30.97 29.826 40.547 32.907 40.171 27.566 47.757 31.293 47.603 25.737 56.419 32.67 55.605"/>
  </g>
  <g id="line">
    <polyline fill="none" stroke="#000" stroke-linecap="round" stroke-linejoin="round" stroke-width="2" points="39.632 55.881 47.057 56.419 41.501 47.603 45.013 47.757 40.217 40.501 43.237 40.332 36.397 30.97 29.826 40.547 32.907 40.171 27.566 47.757 31.293 47.603 25.737 56.419 32.34 55.605"/>
    <line x1="36.3969" x2="36.3969" y1="57.2264" y2="63.2201" fill="none" stroke="#000" stroke-linecap="round" stroke-miterlimit="10" stroke-width="2"/>
    <path fill="none" stroke="#000" stroke-linecap="round" stroke-linejoin="round" stroke-width="2" d="M20.3488,55.8877a20.1948,20.1948,0,0,1-4.86-13.019A33.5825,33.5825,0,0,1,19.3876,27.778c.4651,7.3054,3.9113,10.2468,5.6219,10.2468,1.2778,0,2.4529-1.3022,2.4529-3.4259.0885-2.7421.1766-7.1072,3.8443-13.8946"/>
    <path fill="none" stroke="#000" stroke-linecap="round" stroke-linejoin="round" stroke-width="2" d="M46.871,60.436a20.6379,20.6379,0,0,1-10.8115,2.82,20.288,20.288,0,0,1-10.3243-2.8253"/>
    <path fill="none" stroke="#000" stroke-linecap="round" stroke-linejoin="round" stroke-width="2" d="M34.845,7.46s13.7792,9.5092,13.2485,25.2544a1.9324,1.9324,0,0,0,2.08,2.0345,5.14,5.14,0,0,0,3.9807-2.6742A20.7208,20.7208,0,0,1,56.3156,41.77a23.4673,23.4673,0,0,1-3.7862,13.28"/>
  </g>
</svg>
