<svg id="emoji" viewBox="0 0 72 72" xmlns="http://www.w3.org/2000/svg">
  <g id="color">
    <circle cx="51.1801" cy="40.0857" r="4.8013" fill="#6a462f"/>
    <circle cx="58.3309" cy="47.8811" r="4.8013" fill="#3f3f3f"/>
    <circle cx="49.4511" cy="30.6335" r="2.552" fill="#a57939"/>
    <circle cx="26.7738" cy="23.1513" r="1.2785" fill="#3f3f3f"/>
    <circle cx="27.5166" cy="30.1022" r="1.2785" fill="#3f3f3f"/>
    <circle cx="30.7957" cy="34.2678" r="1.2785" fill="#3f3f3f"/>
    <circle cx="37.2031" cy="34.4687" r="2.552" fill="#6a462f"/>
    <circle cx="34.7431" cy="22.3271" r="2.552" fill="#a57939"/>
    <circle cx="38.5417" cy="42.5841" r="2.552" fill="#3f3f3f"/>
    <circle cx="32.8296" cy="39.7426" r="2.552" fill="#3f3f3f"/>
    <circle cx="43.674" cy="37.1237" r="2.552" fill="#3f3f3f"/>
    <polygon fill="#a57939" points="27.807 59.185 20.907 34.315 21.963 30.046 19.099 18.163 17.63 16.196 14.297 19.248 13.016 25.362 8.976 59.185 27.807 59.185"/>
    <polygon fill="#3f3f3f" points="27.807 59.185 20.907 34.315 21.963 30.046 19.099 18.163 17.63 16.196 20.701 13.427 26.348 18.902 31.921 38.139 41.863 46.833 52.085 47.654 61.412 55.916 62.402 59.185 27.807 59.185"/>
    <circle cx="44.3339" cy="47.1867" r="2.552" fill="#3f3f3f"/>
  </g>
  <g id="line">
    <polyline fill="none" stroke="#000" stroke-linecap="round" stroke-linejoin="round" stroke-width="2" points="49.452 47.493 52.085 47.654 61.412 55.916"/>
    <polyline fill="none" stroke="#000" stroke-linecap="round" stroke-miterlimit="10" stroke-width="2" points="9.08 58.591 13.016 25.362 14.297 19.248 20.701 13.427 26.348 18.902 28.209 25.424"/>
    <line x1="20.9069" x2="27.7797" y1="34.3148" y2="58.7688" fill="none" stroke="#000" stroke-linecap="round" stroke-miterlimit="10" stroke-width="2"/>
    <polyline fill="none" stroke="#000" stroke-linecap="round" stroke-miterlimit="10" stroke-width="2" points="21.963 30.046 19.099 18.163 17.63 16.196"/>
    <path fill="none" stroke="#000" stroke-linecap="round" stroke-miterlimit="10" stroke-width="2" d="M34.6511,34.4687a2.552,2.552,0,1,1,2.552,2.552"/>
    <circle cx="34.7431" cy="22.3271" r="2.552" fill="none" stroke="#000" stroke-linecap="round" stroke-miterlimit="10" stroke-width="2"/>
    <path fill="none" stroke="#000" stroke-linecap="round" stroke-miterlimit="10" stroke-width="2" d="M49.4511,28.0815a2.5521,2.5521,0,1,1-2.552,2.552"/>
    <path fill="none" stroke="#000" stroke-linecap="round" stroke-miterlimit="10" stroke-width="2" d="M58.8643,43.1092a4.8017,4.8017,0,0,1,2.5533,8.45"/>
    <path fill="none" stroke="#000" stroke-linecap="round" stroke-miterlimit="10" stroke-width="2" d="M48.7769,35.9282a4.8018,4.8018,0,0,1,5.3262,7.9668"/>
    <circle cx="44.3339" cy="47.1867" r="2.552" fill="none" stroke="#000" stroke-linecap="round" stroke-miterlimit="10" stroke-width="2"/>
    <circle cx="32.8296" cy="39.7426" r="2.552" fill="none" stroke="#000" stroke-linecap="round" stroke-miterlimit="10" stroke-width="2"/>
    <circle cx="45.4334" cy="26.877" r="1.2785"/>
    <circle cx="42.1251" cy="31.0381" r="1.2785"/>
    <circle cx="38.0802" cy="27.4137" r="1.2785"/>
    <circle cx="29.857" cy="19.7384" r="1.2785"/>
    <circle cx="33.105" cy="30.4585" r="1.2785"/>
  </g>
</svg>
