<svg id="emoji" viewBox="0 0 72 72" version="1.1" xmlns="http://www.w3.org/2000/svg">
  <g id="color">
    <path fill="#FCEA2B" d="M54.6252,48.8242c0,11.975-7.1612,18.3906-16.2494,18.3906c-10.1295-1.8157-18.5019-4.0812-16.6172-31.1527"/>
    <line x1="54.8315" x2="54.8315" y1="49.8855" y2="37.8855" fill="none"/>
    <path fill="#FCEA2B" d="M47.8393,37.5921c0.081-1.9313,1.7123-3.4313,3.6436-3.3502s3.4313,1.7123,3.3502,3.6436"/>
    <path fill="#FCEA2B" d="M40.8423,37.3592c0.081-1.9313,1.7123-3.4313,3.6436-3.3502s3.4313,1.7123,3.3502,3.6436"/>
    <path fill="#FCEA2B" d="M40.8463,37.2253c0.155-1.9268,1.8426-3.3631,3.7694-3.2081c1.9268,0.155,3.3631,1.8426,3.2081,3.7694"/>
    <path fill="#FCEA2B" d="M33.8047,36.8809c0.1237-1.929,1.7878-3.3925,3.7168-3.2688s3.3925,1.7878,3.2688,3.7168"/>
    <path fill="#FCEA2B" d="M22.2915,46.1851c-5.8672-7.6195-6.7449-10.6867-5.3546-12.0296s5.6942,0.7837,7.0371,2.1741"/>
    <path fill="#FCEA2B" d="M26.8047,14.5086c0-1.933,1.567-3.5,3.5-3.5s3.5,1.567,3.5,3.5"/>
    <line x1="33.8047" x2="33.8047" y1="36.8438" y2="14.5086" fill="none"/>
    <line x1="26.8047" x2="26.8047" y1="14.5086" y2="42.2992" fill="none"/>
    <line x1="23.8439" x2="21.8859" y1="36.4553" y2="34.2415" fill="none"/>
    <path fill="#FCEA2B" d="M18.6186,41.4242c1.9526,2.1439,3.3734,5.1677,3.3013,9.5218"/>
    <line x1="16.8509" x2="18.6723" y1="39.1045" y2="41.4847" fill="none"/>
    <polygon fill="#FCEA2B" points="33.9148,41.9242 26.8523,39.9566 26.8523,14.1742 33.8047,14.1742"/>
    <rect x="33.9148" y="36.8438" width="20.9214" height="12.2262" fill="#FCEA2B"/>
    <polygon fill="#FCEA2B" points="26.8047,40.0649 24.1492,39.0701 24.6582,35.8843 26.8224,38.814"/>
  </g>
  <g id="hair"/>
  <g id="skin"/>
  <g id="skin-shadow"/>
  <g id="line">
    <path fill="none" stroke="#000000" stroke-linecap="round" stroke-linejoin="round" stroke-miterlimit="10" stroke-width="2" d="M33.79,23.7098c4.13-1.45,7.09-5.39,7.09-10.02c0-5.87-4.75-10.63-10.62-10.63s-10.62,4.76-10.62,10.63c0,4.65,2.99,8.6,7.15,10.04"/>
    <path fill="none" stroke="#000000" stroke-linecap="round" stroke-linejoin="round" stroke-miterlimit="10" stroke-width="2" d="M54.8163,50.7743c0,9.0883-7.3675,16.4558-16.4558,16.4558s-16.4558-7.3675-16.4558-16.4558"/>
    <line x1="54.8163" x2="54.8163" y1="49.9008" y2="37.9008" fill="none" stroke="#000000" stroke-linecap="round" stroke-linejoin="round" stroke-miterlimit="10" stroke-width="2"/>
    <path fill="none" stroke="#000000" stroke-linecap="round" stroke-linejoin="round" stroke-miterlimit="10" stroke-width="2" d="M47.824,37.6074c0.081-1.9313,1.7123-3.4313,3.6436-3.3502s3.4313,1.7123,3.3502,3.6436"/>
    <path fill="none" stroke="#000000" stroke-linecap="round" stroke-linejoin="round" stroke-miterlimit="10" stroke-width="2" d="M40.827,37.3745c0.081-1.9313,1.7123-3.4313,3.6436-3.3502s3.4313,1.7123,3.3502,3.6436"/>
    <path fill="none" stroke="#000000" stroke-linecap="round" stroke-linejoin="round" stroke-miterlimit="10" stroke-width="2" d="M40.8311,37.2406c0.155-1.9268,1.8426-3.3631,3.7694-3.2081s3.3631,1.8426,3.2081,3.7694"/>
    <path fill="none" stroke="#000000" stroke-linecap="round" stroke-linejoin="round" stroke-miterlimit="10" stroke-width="2" d="M33.7895,36.8962c0.1237-1.929,1.7878-3.3925,3.7168-3.2688s3.3925,1.7878,3.2688,3.7168"/>
    <path fill="none" stroke="#000000" stroke-linecap="round" stroke-linejoin="round" stroke-miterlimit="10" stroke-width="2" d="M16.8357,39.1198c-1.3429-1.3904-1.3044-3.6061,0.086-4.949s3.6061-1.3044,4.949,0.086"/>
    <path fill="none" stroke="#000000" stroke-linecap="round" stroke-linejoin="round" stroke-miterlimit="10" stroke-width="2" d="M26.7895,14.5239c0-1.933,1.567-3.5,3.5-3.5s3.5,1.567,3.5,3.5"/>
    <line x1="33.7895" x2="33.7895" y1="36.8591" y2="14.5239" fill="none" stroke="#000000" stroke-linecap="round" stroke-linejoin="round" stroke-miterlimit="10" stroke-width="2"/>
    <line x1="26.7895" x2="26.7895" y1="14.5239" y2="42.3145" fill="none" stroke="#000000" stroke-linecap="round" stroke-linejoin="round" stroke-miterlimit="10" stroke-width="2"/>
    <line x1="23.8286" x2="21.8706" y1="36.4705" y2="34.2568" fill="none" stroke="#000000" stroke-linecap="round" stroke-linejoin="round" stroke-miterlimit="10" stroke-width="2"/>
    <path fill="none" stroke="#000000" stroke-linecap="round" stroke-linejoin="round" stroke-miterlimit="10" stroke-width="2" d="M18.6034,41.4395c1.9526,2.1439,3.3734,5.1677,3.3013,9.5218"/>
    <line x1="16.8357" x2="18.6571" y1="39.1198" y2="41.5" fill="none" stroke="#000000" stroke-linecap="round" stroke-linejoin="round" stroke-miterlimit="10" stroke-width="2"/>
    <path fill="none" stroke="#000000" stroke-linecap="round" stroke-linejoin="round" stroke-miterlimit="10" stroke-width="2" d="M54.8315,50.7591c0,9.0883-7.3675,16.4558-16.4558,16.4558S21.92,59.8474,21.92,50.7591"/>
  </g>
</svg>
