<svg id="emoji" viewBox="0 0 72 72" xmlns="http://www.w3.org/2000/svg">
  <g id="color">
    <polygon fill="#EA5A47" stroke="none" points="45,66 27,66 27,28 36,28 45,25"/>
    <polygon fill="#D22F27" stroke="none" points="33,66 45,33 45,66"/>
    <polygon fill="#D0CFCE" stroke="none" points="45,25 45,36 27,36 27,28 36,28"/>
    <line x1="36" x2="36" y1="28" y2="35" fill="#D0CFCE" stroke="none"/>
    <path fill="#F1B31C" stroke="none" stroke-linecap="round" stroke-linejoin="round" stroke-miterlimit="10" stroke-width="2" d="M35,17.7143C35,20.8571,33.2091,25,31,25s-4-4.1429-4-7.2857C27,11.8865,31,9,31,6C31,9,35,11.4286,35,17.7143z"/>
    <path fill="#FFFFFF" stroke="none" stroke-linecap="round" stroke-linejoin="round" stroke-miterlimit="10" stroke-width="2" d="M36,34"/>
    <path fill="#FFFFFF" stroke="none" stroke-linecap="round" stroke-linejoin="round" stroke-miterlimit="10" stroke-width="2" d="M36,28"/>
  </g>
  <g id="hair"/>
  <g id="skin"/>
  <g id="skin-shadow"/>
  <g id="line">
    <polygon fill="none" stroke="#000000" stroke-linecap="round" stroke-linejoin="round" stroke-miterlimit="10" stroke-width="2" points="45,66 27,66 27,28 36,28 45,25"/>
    <path fill="none" stroke="#000000" stroke-linecap="round" stroke-linejoin="round" stroke-miterlimit="10" stroke-width="2" d="M35,17.7143C35,20.8571,33.2091,25,31,25s-4-4.1429-4-7.2857C27,11.8865,31,9,31,6C31,9,35,11.4286,35,17.7143z"/>
    <path fill="none" stroke="#000000" stroke-linecap="round" stroke-linejoin="round" stroke-miterlimit="10" stroke-width="2" d="M35,17.7143C35,20.8571,33.2091,25,31,25s-4-4.1429-4-7.2857C27,11.8865,31,9,31,6C31,9,35,11.4286,35,17.7143z"/>
    <line x1="27" x2="45" y1="35" y2="35" fill="none" stroke="#000000" stroke-linecap="round" stroke-linejoin="round" stroke-miterlimit="10" stroke-width="2"/>
    <path fill="none" stroke="#000000" stroke-linecap="round" stroke-linejoin="round" stroke-miterlimit="10" stroke-width="2" d="M36,34"/>
    <path fill="none" stroke="#000000" stroke-linecap="round" stroke-linejoin="round" stroke-miterlimit="10" stroke-width="2" d="M36,28"/>
    <line x1="36" x2="36" y1="28" y2="31" fill="none" stroke="#000000" stroke-linecap="round" stroke-linejoin="round" stroke-miterlimit="10" stroke-width="2"/>
  </g>
</svg>
