<svg id="emoji" viewBox="0 0 72 72" xmlns="http://www.w3.org/2000/svg">
  <g id="color">
    <circle cx="51.9049" cy="16.9143" r="4.0018" fill="#FCEA2B" stroke="none"/>
    <path fill="#FCEA2B" stroke="none" d="M52.2592,26.1633l-3.3432,9.3693l-1.277,1.8323l3.6645,6.2186l0.9392,0.8509l1.9117,4.2545l0.4211,16.9269 c0,0-0.4968,3.126-4.3383,2.1101l-1.5033-15.4441l-6.5083-6.7305l-6.8892,6.2543l-13.6515,6.7623l-1.8414-2.0318l6.0638-4.5082 l5.3019-3.651l4.0954-6.4448l4.6034-10.0005l4.7304-8.9528l3.7145-0.9524l2.7938,2.0953L52.2592,26.1633z"/>
    <path fill="#FFFFFF" stroke="none" d="M52.0239,32.4866"/>
  </g>
  <g id="hair"/>
  <g id="skin"/>
  <g id="skin-shadow"/>
  <g id="line">
    <path fill="none" stroke="#000000" stroke-linecap="round" stroke-linejoin="round" stroke-miterlimit="10" stroke-width="2" d="M51.5635,13.9302c-1.4963,0.1683-2.6617,1.4392-2.6617,2.9811c0,1.5119,1.1206,2.7634,2.575,2.9701"/>
    <path fill="none" stroke="#000000" stroke-linecap="round" stroke-linejoin="round" stroke-miterlimit="10" stroke-width="2" d="M50.6968,66.8175l-1.5845-13.0147c-0.1329-1.0919-0.8781-2.6217-1.6559-3.3996l-3.1716-3.1716 c-0.7778-0.7778-2.1056-1.9904-2.9507-2.6946l-2.9271-2.4393c-0.845-0.7042-1.5364-2.1804-1.5364-3.2804l0,0 c0-1.1,0.431-2.7901,0.9577-3.7558l5.0423-9.2442"/>
    <path fill="none" stroke="#000000" stroke-linecap="round" stroke-linejoin="round" stroke-miterlimit="10" stroke-width="2" d="M48.0229,35.1769c0,0-0.2593,0.5941-0.5761,1.3203c-0.3169,0.7262-0.093,2.0796,0.4976,3.0076l3.4189,5.3725"/>
    <path fill="none" stroke="#000000" stroke-linecap="round" stroke-linejoin="round" stroke-miterlimit="10" stroke-width="2" d="M50.8706,27.8175"/>
    <path fill="none" stroke="#000000" stroke-linecap="round" stroke-linejoin="round" stroke-miterlimit="10" stroke-width="2" d="M36.8706,39.8175l-5.8531,8.3615c-0.6308,0.9012-1.922,2.0959-2.8694,2.6549l-6.7221,3.967 c-0.9473,0.5591-1.4974,1.6915-1.2224,2.5165c0.275,0.825,1.3324,1.1579,2.3499,0.7398l8.4672-3.4796 c1.0174-0.4181,2.5226-1.3581,3.3447-2.0889l7.5052-6.6713"/>
    <path fill="none" stroke="#000000" stroke-linecap="round" stroke-linejoin="round" stroke-miterlimit="10" stroke-width="2" d="M42.8706,25.8175c2-4,4.3589-4.2329,6.0312-3.583c1.6377,0.6367,2.4151,2.2378,2.3692,3.834"/>
    <line x1="47.7514" x2="51.4167" y1="26.9155" y2="32.401" fill="none" stroke="#000000" stroke-linecap="round" stroke-linejoin="round" stroke-miterlimit="10" stroke-width="2"/>
    <line x1="54.9781" x2="54.9781" y1="4.866" y2="66.8397" fill="none" stroke="#000000" stroke-linecap="round" stroke-linejoin="round" stroke-miterlimit="10" stroke-width="2"/>
    <line x1="14.2247" x2="33.5983" y1="20.8999" y2="20.8999" fill="none" stroke="#000000" stroke-linecap="round" stroke-linejoin="round" stroke-miterlimit="10" stroke-width="2"/>
    <line x1="29.0845" x2="33.8998" y1="16.0755" y2="20.8907" fill="none" stroke="#000000" stroke-linecap="round" stroke-linejoin="round" stroke-miterlimit="10" stroke-width="2"/>
    <line x1="29.0845" x2="33.8998" y1="25.7451" y2="20.9299" fill="none" stroke="#000000" stroke-linecap="round" stroke-linejoin="round" stroke-miterlimit="10" stroke-width="2"/>
  </g>
</svg>
