<svg id="emoji" viewBox="0 0 72 72" xmlns="http://www.w3.org/2000/svg">
  <g id="color">
    <polygon fill="#3f3f3f" points="38 18 38 15 37 15 37 13 35 13 35 15 34 15 34 18 33 18 33 26 39 26 39 18 38 18"/>
    <path fill="#3f3f3f" d="M20,38h9V32h.0487l3.4757-4,1.1419-1.3143H31.3705l-9.2572,5.1429a13.3413,13.3413,0,0,1-1.0285,3.0856,4.99,4.99,0,0,1-3.0857,2.0572H18V38Z"/>
    <path fill="#3f3f3f" d="M50.9143,34.9142a13.3441,13.3441,0,0,1-1.0286-3.0856l-9.2571-5.1429H38.3337L39.4756,28l3.4757,4H43v6H54V36.9714A4.99,4.99,0,0,1,50.9143,34.9142Z"/>
    <polygon fill="#e67a94" points="43 38 45 32 42.951 32 39.476 28 36 24 32.524 28 29.049 32 27 32 29 38 20 38 20 51 20 60 52 60 52 51 52 38 43 38"/>
    <rect x="20" y="51" width="32" height="10" fill="#d0cfce"/>
    <circle cx="36" cy="32" r="2" fill="#fff"/>
    <rect x="34" y="52" rx="1.4085" width="5" height="8" fill="#a57939"/>
  </g>
  <g id="line">
    <polyline fill="none" stroke="#000" stroke-linecap="round" stroke-linejoin="round" stroke-width="2" points="39 26 39 18 38 18 38 15 37 15 37 13 35 13 35 15 34 15 34 18 33 18 33 26"/>
    <rect x="34" y="52" rx="1.4085" width="5" height="8" fill="none" stroke="#000" stroke-linecap="round" stroke-linejoin="round" stroke-width="2"/>
    <line x1="36" x2="36" y1="8" y2="13" fill="none" stroke="#000" stroke-linecap="round" stroke-linejoin="round" stroke-width="2"/>
    <line x1="33.65" x2="33.65" y1="42.0854" y2="44.198" fill="none" stroke="#000" stroke-linecap="round" stroke-linejoin="round" stroke-width="2"/>
    <line x1="36.65" x2="36.65" y1="42.0854" y2="44.198" fill="none" stroke="#000" stroke-linecap="round" stroke-linejoin="round" stroke-width="2"/>
    <line x1="39.65" x2="39.65" y1="42.0854" y2="44.198" fill="none" stroke="#000" stroke-linecap="round" stroke-linejoin="round" stroke-width="2"/>
    <line x1="33.65" x2="33.65" y1="47.0854" y2="49.198" fill="none" stroke="#000" stroke-linecap="round" stroke-linejoin="round" stroke-width="2"/>
    <line x1="36.65" x2="36.65" y1="47.0854" y2="49.198" fill="none" stroke="#000" stroke-linecap="round" stroke-linejoin="round" stroke-width="2"/>
    <line x1="39.65" x2="39.65" y1="47.0854" y2="49.198" fill="none" stroke="#000" stroke-linecap="round" stroke-linejoin="round" stroke-width="2"/>
    <line x1="23.65" x2="23.65" y1="41.0854" y2="43.198" fill="none" stroke="#000" stroke-linecap="round" stroke-linejoin="round" stroke-width="2"/>
    <line x1="26.65" x2="26.65" y1="41.0854" y2="43.198" fill="none" stroke="#000" stroke-linecap="round" stroke-linejoin="round" stroke-width="2"/>
    <line x1="23.65" x2="23.65" y1="46.0854" y2="48.198" fill="none" stroke="#000" stroke-linecap="round" stroke-linejoin="round" stroke-width="2"/>
    <line x1="26.65" x2="26.65" y1="46.0854" y2="48.198" fill="none" stroke="#000" stroke-linecap="round" stroke-linejoin="round" stroke-width="2"/>
    <line x1="45.65" x2="45.65" y1="41.0854" y2="43.198" fill="none" stroke="#000" stroke-linecap="round" stroke-linejoin="round" stroke-width="2"/>
    <line x1="48.65" x2="48.65" y1="41.0854" y2="43.198" fill="none" stroke="#000" stroke-linecap="round" stroke-linejoin="round" stroke-width="2"/>
    <line x1="45.65" x2="45.65" y1="46.0854" y2="48.198" fill="none" stroke="#000" stroke-linecap="round" stroke-linejoin="round" stroke-width="2"/>
    <line x1="48.65" x2="48.65" y1="46.0854" y2="48.198" fill="none" stroke="#000" stroke-linecap="round" stroke-linejoin="round" stroke-width="2"/>
    <line x1="33.65" x2="33.65" y1="37.0854" y2="39.198" fill="none" stroke="#000" stroke-linecap="round" stroke-linejoin="round" stroke-width="2"/>
    <line x1="36.65" x2="36.65" y1="37.0854" y2="39.198" fill="none" stroke="#000" stroke-linecap="round" stroke-linejoin="round" stroke-width="2"/>
    <line x1="39.65" x2="39.65" y1="37.0854" y2="39.198" fill="none" stroke="#000" stroke-linecap="round" stroke-linejoin="round" stroke-width="2"/>
    <line x1="23.65" x2="23.65" y1="53.0854" y2="55.198" fill="none" stroke="#000" stroke-linecap="round" stroke-linejoin="round" stroke-width="2"/>
    <line x1="26.65" x2="26.65" y1="53.0854" y2="55.198" fill="none" stroke="#000" stroke-linecap="round" stroke-linejoin="round" stroke-width="2"/>
    <line x1="45.65" x2="45.65" y1="53.0854" y2="55.198" fill="none" stroke="#000" stroke-linecap="round" stroke-linejoin="round" stroke-width="2"/>
    <line x1="48.65" x2="48.65" y1="53.0854" y2="55.198" fill="none" stroke="#000" stroke-linecap="round" stroke-linejoin="round" stroke-width="2"/>
    <polygon fill="none" stroke="#000" stroke-linecap="round" stroke-linejoin="round" stroke-width="2" points="43 38 45 32 42.951 32 39.476 28 36 24 32.524 28 29.049 32 27 32 29 38 20 38 20 51 20 60 52 60 52 51 52 38 43 38"/>
    <circle cx="36" cy="32" r="2" fill="none" stroke="#000" stroke-miterlimit="10" stroke-width="2"/>
    <path fill="none" stroke="#000" stroke-linecap="round" stroke-linejoin="round" stroke-width="2" d="M33.6663,26.6857H31.3705l-9.2572,5.1429a13.3413,13.3413,0,0,1-1.0285,3.0856,4.99,4.99,0,0,1-3.0857,2.0572H18V38h2"/>
    <path fill="none" stroke="#000" stroke-linecap="round" stroke-linejoin="round" stroke-width="2" d="M52,38h2V36.9714a4.99,4.99,0,0,1-3.0857-2.0572,13.3441,13.3441,0,0,1-1.0286-3.0856l-9.2571-5.1429H38.3337"/>
  </g>
</svg>
