<svg id="emoji" viewBox="0 0 72 72" xmlns="http://www.w3.org/2000/svg">
  <g id="color">
    <circle cx="36.3436" cy="10.4324" r="2.969" fill="#d0cfce"/>
    <path fill="#f4aa41" d="M43.54,22.5413a4.3,4.3,0,0,0-4.209-4.1314h-6a4.3,4.3,0,0,0-4.209,4.1314L28.33,41.9806a1.0162,1.0162,0,0,1-.1209.4369l1.3961-.9967.8239,21.0356a1.2321,1.2321,0,0,0,.25.8789.2411.2411,0,0,0,.152.09c.214,0,.656-.4266.735-1.1254l2.8986-22.5033a4.9282,4.9282,0,0,1,.4028-1.1922l.7246-.8052h1.6249l.984.6231a4.9266,4.9266,0,0,1,.352,1.3413l2.542,22.5343c.079.6978.522,1.1254.736,1.1254a.242.242,0,0,0,.152-.09c.1922-.2483.4894-.585.4568-.9l-.0762-21.5157,2.6434,1.8356"/>
  </g>
  <g id="line">
    <circle cx="36.3436" cy="10.4324" r="2.969" fill="none" stroke="#000" stroke-linecap="round" stroke-linejoin="round" stroke-width="2"/>
    <path fill="none" stroke="#000" stroke-linecap="round" stroke-linejoin="round" stroke-width="2" d="M31.4771,24.2518c2.3523,3.5329.677,6.107.0317,8a33.3767,33.3767,0,0,0-.8975,5.6136c-.6,5.9762-1.0025,24.0044-1.0025,24.0044-.055,1.1.575,2,1.4,2a2.076,2.076,0,0,0,1.729-1.987l2.539-22.031c.126-1.093.679-1.987,1.229-1.987s1.1.894,1.229,1.987l2.5423,22.0314a2.076,2.076,0,0,0,1.729,1.987c.825,0,1.455-.9,1.4-2,0,0-.5226-17.8415-1.0731-23.7627a35.8713,35.8713,0,0,0-.8269-5.8553c-.6173-1.9024-2.416-4.7392-.0287-8"/>
    <path fill="none" stroke="#000" stroke-linecap="round" stroke-linejoin="round" stroke-width="2" d="M27.38,41.8423l.792-19a5.274,5.274,0,0,1,5.208-5h5.9271a5.274,5.274,0,0,1,5.208,5l.792,19"/>
    <ellipse cx="38.8436" cy="13.521" rx="1.1343" ry="0.7574" transform="translate(3.5177 34.5858) rotate(-50)" stroke="#000" stroke-linecap="round" stroke-linejoin="round"/>
    <ellipse cx="33.8436" cy="13.521" rx="0.7574" ry="1.1343" transform="translate(-0.7733 24.9175) rotate(-40)" stroke="#000" stroke-linecap="round" stroke-linejoin="round"/>
    <circle cx="36.3436" cy="13.4014" r="1.5" stroke="#000" stroke-linecap="round" stroke-linejoin="round"/>
    <circle cx="39.6304" cy="20.8745" r="1"/>
  </g>
</svg>
