<svg id="emoji" viewBox="0 0 72 72" xmlns="http://www.w3.org/2000/svg">
  <g id="color">
    <path fill="#fff" d="M16.9509,60.8806s-2.1-14.9,9.9-14.9c3.1919,2.1279,6.0264,3.7984,9.1,3.7921l.2749.1c3.0737.0063,5.9081-1.8642,9.1-3.9921,11.5646-.0346,9.509,14.9,9.74,15"/>
    <circle cx="24.9167" cy="56.8051" r="3" fill="#9b9b9a"/>
    <path fill="#d0cfce" d="M45.38,45.8681c-3.17,2.1133-5.275,3.5-9.3375,4.0886,13.0625.4114,12.9625,6.9114,13.7247,10.9114H54.88S57.4941,45.8659,45.38,45.8681Z"/>
    <path fill="#fff" d="M26.9628,18.7341v-7.97s6.72.26,9.19-2.64c2.47,2.9,9.19,2.64,9.19,2.64v7.94l-9.07-.88Z"/>
    <polygon fill="#d22f27" points="34.173 14.169 35.615 14.169 35.615 15.611 36.63 15.611 36.63 14.169 38.072 14.169 38.072 13.154 36.63 13.154 36.63 11.712 35.615 11.712 35.615 13.154 34.173 13.154 34.173 14.169"/>
  </g>
  <g id="skin">
    <path fill="#fcea2b" d="M47.445,29.2734c-1.848.2657-2.3966-5-2.3966-5-.3839,5.3694-5.8039-.4876-5.8039-.4876.8753,3.4209-5.125-.5757-5.125-.5757,1.437,3.0471-4.6066-.9647-4.6066-.9647S26.782,28.32,24.889,29.2206c-.0135.2836-.0344.5648-.0344.8526,0,7.8277,5.0765,14.1733,11.3386,14.1733s11.3386-6.3456,11.3386-14.1733c0-.3094-.0214-.6119-.037-.9164C47.4762,29.1956,47.4642,29.2346,47.445,29.2734Z"/>
  </g>
  <g id="hair">
    <path fill="#a57939" d="M47.5443,29.06c-.03.07-.07.14-.1.21-1.85.27-2.4-5-2.4-5-.38,5.37-5.8-.48-5.8-.48.88,3.42-5.12-.58-5.12-.58,1.43,3.05-4.61-.96-4.61-.96s-2.81,6.25-4.7,7.01c-.01,0-.01.01-.02.01-.14-.33-.26-.66-.36-.98a8.2218,8.2218,0,0,1,1.7-8.29.8958.8958,0,0,1-.13-.28,1.1967,1.1967,0,0,1-.03-.42c0-.02-.01-.05-.01-.07V17.64c.57-.72.13-.47.89-.82l.52,1.81.59-.49a31.6982,31.6982,0,0,1,16.38-.01V16.58a14.7,14.7,0,0,1,1.98,2.33c.01.01.01.02.02.03a12.24,12.24,0,0,1,1.58,3.15A9.3142,9.3142,0,0,1,47.5443,29.06Z"/>
  </g>
  <g id="line">
    <path fill="#000" d="M46.0343,10.04a.9778.9778,0,0,0-.73-.27c-.14,0-.31.01-.5.01-2-.01-6.2-.4-7.85-2.26a.7549.7549,0,0,0-.15-.16.8955.8955,0,0,0-.36-.19.2666.2666,0,0,0-.12-.03.4678.4678,0,0,0-.17-.02.4959.4959,0,0,0-.17.02.2669.2669,0,0,0-.12.03.9073.9073,0,0,0-.47.31c-.01.01-.02.03-.04.04a7.1557,7.1557,0,0,1-3.79,1.83,20.8291,20.8291,0,0,1-4.07.42c-.18,0-.35,0-.49-.01a1.0616,1.0616,0,0,0-.74.28,1.0224,1.0224,0,0,0-.3.72v8.47c0,.02.01.05.01.07a1.1967,1.1967,0,0,0,.03.42.8958.8958,0,0,0,.13.28,1.0243,1.0243,0,0,0,.83.44.9818.9818,0,0,0,.29-.05,29.9743,29.9743,0,0,1,17.79,0,.9975.9975,0,0,0,1.18-.49.7635.7635,0,0,0,.07-.16.5636.5636,0,0,0,.03-.18.7561.7561,0,0,0,0-.26.1445.1445,0,0,0,.02-.07V10.76A.9917.9917,0,0,0,46.0343,10.04Zm-1.69,8.09a31.6982,31.6982,0,0,0-16.38.01V11.76c.22,0,.48-.01.76-.03,2.04-.12,5.36-.57,7.43-2.24,2.07,1.67,5.39,2.12,7.43,2.24.28.02.54.03.76.03Z"/>
    <path d="M36.63,11.7122v1.4419h1.4419v1.0151H36.63v1.4419H35.6149V14.1692H34.173V13.1541h1.4419V11.7122H36.63m0-1H35.6149a1,1,0,0,0-1,1v.4419H34.173a1,1,0,0,0-1,1v1.0151a1,1,0,0,0,1,1h.4419v.4419a1,1,0,0,0,1,1H36.63a1,1,0,0,0,1-1v-.4419h.4419a1,1,0,0,0,1-1V13.1541a1,1,0,0,0-1-1H37.63v-.4419a1,1,0,0,0-1-1Z"/>
    <g id="line-2">
      <path d="M42.2555,29.07a2,2,0,1,1-2-2,2.0007,2.0007,0,0,1,2,2Z"/>
      <path d="M34.2555,29.07a2,2,0,1,1-2-2,2.0007,2.0007,0,0,1,2,2Z"/>
      <path d="M36.2553,39.0725a7.6524,7.6524,0,0,1-3.4472-.8579,1,1,0,1,1,.8945-1.789,5.3779,5.3779,0,0,0,5.1055,0,1,1,0,1,1,.8945,1.789A7.6528,7.6528,0,0,1,36.2553,39.0725Z"/>
      <path d="M36.2549,45.6045c-6.8028,0-12.3379-6.8066-12.3379-15.1733l-.12-1.3726a1,1,0,0,1,.9111-1.0815.99.99,0,0,1,1.0811.9116l.124,1.4575c.0039,7.3491,4.6416,13.2583,10.3418,13.2583s10.3389-5.9092,10.3389-13.1733q0-.701-.0567-1.3848a1,1,0,0,1,1.9941-.1611q.0617.7624.0626,1.5459C48.5938,38.7979,43.0586,45.6045,36.2549,45.6045Z"/>
      <path d="M47.3066,30.28a1.9721,1.9721,0,0,1-1.2226-.4365,5.2452,5.2452,0,0,1-1.4619-2.58,2.3133,2.3133,0,0,1-.3282.1455c-1.4658.5132-3.2441-.6343-4.4863-1.6949a1.6153,1.6153,0,0,1-.166.1343c-1.05.7451-2.9238.0513-4.6592-.9331a1.2813,1.2813,0,0,1-.1025.0977c-.3613.3134-1.1768,1.0132-4.9424-1.3057-1.0117,2.0908-2.9717,5.72-4.709,6.4624A1.0258,1.0258,0,0,1,23.873,29.66c-.1533-.3614-.2841-.7222-.3935-1.0723a9.21,9.21,0,0,1,1.9365-9.2832,7.2209,7.2209,0,0,1,.7608-.6909,1,1,0,0,1,1.2343,1.5732,5.2868,5.2868,0,0,0-.5527.5034,7.1581,7.1581,0,0,0-1.582,6.9043A28.9215,28.9215,0,0,0,28.6025,21.84a1,1,0,0,1,1.4649-.4228,21.1988,21.1988,0,0,0,3.06,1.7075,1,1,0,0,1,1.5508-.7466,12.9964,12.9964,0,0,0,3.624,1.7793c-.0068-.0356-.0156-.0747-.0273-.1181a1,1,0,0,1,1.7021-.9292c1.33,1.4326,3.0938,2.6069,3.6524,2.413.1142-.0405.3486-.3691.417-1.3237a.999.999,0,0,1,.98-.9287,1.0171,1.0171,0,0,1,1.0117.895A11.2139,11.2139,0,0,0,47.0557,27.97a5.977,5.977,0,0,0-.0254-5.4326A5.8879,5.8879,0,0,0,45.582,20.666a4.3228,4.3228,0,0,0-.4326-.3213,1,1,0,1,1,1.07-1.6894,6.587,6.587,0,0,1,.6416.4731A8.1075,8.1075,0,0,1,48.375,29.6758c-.0029.0054-.06.09-.0635.0952a1.1965,1.1965,0,0,1-.7226.4888A1.9818,1.9818,0,0,1,47.3066,30.28Z"/>
      <path d="M24.917,60.8047a4,4,0,1,1,4-4A4.004,4.004,0,0,1,24.917,60.8047Zm0-6a2,2,0,1,0,2,2A2.0026,2.0026,0,0,0,24.917,54.8047Z"/>
      <path d="M24.916,54.8047a1.0007,1.0007,0,0,1-.9707-.7637c-.06-.2451-1.4121-6.04,2.5313-10.1318a1,1,0,1,1,1.4394,1.3887c-3.1875,3.3076-2.039,8.2216-2.0273,8.27a1,1,0,0,1-.9727,1.2363Z"/>
      <path d="M55.0723,60.9219a.9962.9962,0,0,1-.99-1.1494c.0118-.0811,1.16-8.127-4.3134-10.877a1,1,0,1,1,.8984-1.7871c6.7793,3.4053,5.4512,12.5781,5.3916,12.9668A.9992.9992,0,0,1,55.0723,60.9219Z"/>
      <path d="M36.1719,51.5146h-.06c-.0146-.0009-.03,0-.0439,0s-.0274,0-.0411-.0009c-2.372-.0313-4.6738-.8291-7.6513-2.6465a1,1,0,0,1,1.041-1.707c2.6846,1.6386,4.6982,2.3447,6.7148,2.3544a12.2646,12.2646,0,0,0,6.29-2.0986,1,1,0,0,1,1.0156,1.7227,14.3642,14.3642,0,0,1-7.1963,2.375C36.2188,51.5146,36.1963,51.5137,36.1719,51.5146Z"/>
      <path d="M17.1934,60.9219a.9992.9992,0,0,1-.9864-.8467c-.0634-.4121-1.4677-10.1338,6.02-13.2549a1,1,0,0,1,.7695,1.8457c-6.0361,2.5166-4.8252,11.0205-4.8125,11.1065a.9962.9962,0,0,1-.99,1.1494Z"/>
      <path d="M45.3691,61.8525c-.0332,0-.0664-.0019-.1-.0048a1,1,0,0,1-.8965-1.0909l.0713-.747a2.2729,2.2729,0,0,1-.666-.5069c-1.3633-1.4843-1.0156-4.8916-.9013-5.7558-.0166-1.45.63-3.9336,3.0507-4.6377A10.698,10.698,0,0,0,44.04,45.2979a1,1,0,1,1,1.44-1.3887c1.7578,1.8222,2.6455,5.6279,2.6826,5.789a1,1,0,0,1-.9414,1.2227c-2.2852.0762-2.3525,2.3945-2.3428,2.8584a1.0085,1.0085,0,0,1-.01.1631,11.4587,11.4587,0,0,0,.0185,3.3037.9767.9767,0,0,1,.8613-.3516,1,1,0,0,1,.9,1.0909l-.1153,1.205a1.053,1.053,0,0,1-.0039.1475l-.165,1.6162A1.0007,1.0007,0,0,1,45.3691,61.8525Z"/>
      <path d="M49.4121,61.8525a1.0007,1.0007,0,0,1-.9941-.8994l-.1641-1.6162a.9972.9972,0,0,1-.0039-.1435l-.1152-1.209a.9988.9988,0,0,1,.9-1.09.9739.9739,0,0,1,.8593.3506,11.4481,11.4481,0,0,0,.0186-3.3027,1.0762,1.0762,0,0,1-.01-.168c.01-.459-.0576-2.7773-2.3428-2.8535a1,1,0,1,1,.0665-1.998c3.4365.1132,4.2968,3.1542,4.2773,4.8242.1143.8642.4619,4.2715-.9,5.7568a2.3025,2.3025,0,0,1-.667.5059l.0713.748a1,1,0,0,1-.8975,1.09C49.4775,61.8506,49.4443,61.8525,49.4121,61.8525Z"/>
      <path d="M35.9141,60.9229a1.0016,1.0016,0,0,1-.8926-.5469L29.3643,49.2432a1,1,0,1,1,1.7832-.9063L36.8047,59.47a1,1,0,0,1-.8906,1.4532Z"/>
      <path d="M35.9121,60.9229a1,1,0,0,1-.8867-1.461L40.6826,48.56a1,1,0,0,1,1.7754.9218L36.8008,60.3838A1,1,0,0,1,35.9121,60.9229Z"/>
    </g>
  </g>
</svg>
