<svg id="emoji" x="0" y="0" viewBox="0 0 72 72" version="1.1" xmlns="http://www.w3.org/2000/svg">
  <g id="color">
    <path fill="#FFA7C0" d="M36.8134,15.513c2.5154,2.2602,5.3358,4.1559,8.3786,5.6314c0,0,8.3721,6.0465,1.7674,20.5581 c0,0-2.9767,13.1163-21.4883,13.4884c-1.6203,0.0202-3.2391-0.1044-4.8372-0.3721v6.2339h-4.6511v-6.792 c-0.2629-0.3453-0.499-0.7102-0.7064-1.0915c-2.9194-5.4055-0.9057-12.1542,4.4985-15.076c1.8787-1.081,3.8853-1.9226,5.973-2.5051 c1.6178-0.4154,3.0597-1.3387,4.1139-2.6342c1.1918-1.3789,1.9035-3.1075,2.0282-4.9258c0,0-0.093-4.8372,2.14-6.9767 c0,0-4.44-5.3674-5.4705-8.4482h5.8237C34.7507,12.9971,36.2259,14.976,36.8134,15.513z"/>
    <path fill="#E67A94" d="M27.0619,46.6359c-1.0568,0.0405-1.9908,0.6989-2.3842,1.6806c-0.3227,0.8809-0.0785,1.875,2.1889,2.3285 c2.9425,1.0829,6.24,0.498,8.6306-1.5307c0.3101-0.275,0.6582-0.5038,1.0336-0.6795c1.5761-0.6397,2.989-1.6243,4.1347-2.8815 c0.5267-0.7065,0.3809-1.7061-0.3255-2.2328c-0.0275-0.0205-0.0557-0.0401-0.0845-0.0588c-1.6121-1.0951-3.7681-0.9262-5.19,0.4066 C35.0655,43.6683,32.82,46.3121,27.0619,46.6359z"/>
  </g>
  <g id="line">
    <path fill="none" stroke="#000000" stroke-linecap="round" stroke-linejoin="round" stroke-width="2" d="M15.9828,60.9583v-6.6977 c-0.2629-0.3453-0.499-0.7102-0.7064-1.0915c-2.9194-5.4055-0.9057-12.1542,4.4985-15.076c1.8787-1.081,3.8853-1.9226,5.973-2.5051 c1.6178-0.4154,3.0597-1.3387,4.1139-2.6342c1.1917-1.3789,1.9035-3.1075,2.0282-4.9257c0,0-0.093-4.8372,2.14-6.9767 c0,0-5.0232-4.93-5.2093-8.093"/>
    <path fill="none" stroke="#000000" stroke-linecap="round" stroke-linejoin="round" stroke-width="2" d="M34.4013,12.9584 c0,0,3.2558,4.4651,10.7907,8.186c0,0,8.3721,6.0465,1.7674,20.5581c0,0-2.9767,13.1163-21.4883,13.4884 c-1.6203,0.0202-3.2391-0.1044-4.8372-0.3721v6.1395"/>
    <path fill="none" stroke="#000000" stroke-linecap="round" stroke-linejoin="round" stroke-width="2" d="M27.0619,46.6359 c-1.0568,0.0405-1.9908,0.6989-2.3842,1.6806c-0.3227,0.8809-0.0785,1.875,2.1889,2.3285c2.9425,1.0829,6.24,0.498,8.6306-1.5307 c0.3101-0.275,0.6582-0.5038,1.0336-0.6795c1.5761-0.6397,2.989-1.6243,4.1347-2.8815c0.5267-0.7065,0.3809-1.7061-0.3255-2.2328 c-0.0275-0.0205-0.0557-0.0401-0.0845-0.0588c-1.6121-1.0951-3.7681-0.9262-5.19,0.4066 C35.0655,43.6683,32.82,46.3121,27.0619,46.6359z"/>
  </g>
</svg>
