<svg id="emoji" viewBox="0 0 72 72" xmlns="http://www.w3.org/2000/svg">
  <g id="color">
    <g id="TBUbV3.tif">
      <path fill="#ffa7c0" d="M52.4821,29.6194c-1.2516,1.8087-.0754,3.3868,1.1034,5.1863,1.2235,1.8679.5637,4.3036-1.2618,5.9167a1.3535,1.3535,0,0,0-.3668,1.9489c1.2419,2.625.3572,5.1635-2.1192,6.7382a2.9742,2.9742,0,0,0-1.118,1.377,4.9165,4.9165,0,0,1-5.2731,3.4475,1.9016,1.9016,0,0,0-1.3917.7023c-1.4215,1.9664-3.2778,2.3548-5.3092.9175a1.1147,1.1147,0,0,0-1.5535.0083c-1.9606,1.4167-3.89,1.0065-5.3236-.9417a1.9253,1.9253,0,0,0-1.4079-.6945,4.7193,4.7193,0,0,1-5.1489-3.371,2.9727,2.9727,0,0,0-1.12-1.4037c-2.6518-1.6524-3.51-4.2687-2.0824-7.0627.4036-.79.1733-1.0993-.3716-1.5765a4.98,4.98,0,0,1-.1622-7.7694,1.3192,1.3192,0,0,0,.3736-1.7532c-1.1342-2.7968-.3051-5.0515,2.2418-6.6909a3.1617,3.1617,0,0,0,1.147-1.5315,4.5915,4.5915,0,0,1,4.98-3.2013,1.4459,1.4459,0,0,0,1.6636-.79,3.3792,3.3792,0,0,1,5.09-.9907,1.2271,1.2271,0,0,0,1.7651.0123c1.8769-1.3483,3.8243-.89,5.2124.99a2.0478,2.0478,0,0,0,1.5051.73,4.8644,4.8644,0,0,1,5.1831,3.5575A3.24,3.24,0,0,0,50.02,24.7906,5.2345,5.2345,0,0,1,52.4821,29.6194Z"/>
    </g>
  </g>
  <g id="line">
    <g id="TBUbV3.tif-2">
      <path fill="none" stroke="#000" stroke-miterlimit="10" stroke-width="2" d="M52.4821,29.6194c-1.2516,1.8087-.0754,3.3868,1.1034,5.1863,1.2235,1.8679.5637,4.3036-1.2618,5.9167a1.3535,1.3535,0,0,0-.3668,1.9489c1.2419,2.625.3572,5.1635-2.1192,6.7382a2.9742,2.9742,0,0,0-1.118,1.377,4.9165,4.9165,0,0,1-5.2731,3.4475,1.9016,1.9016,0,0,0-1.3917.7023c-1.4215,1.9664-3.2778,2.3548-5.3092.9175a1.1147,1.1147,0,0,0-1.5535.0083c-1.9606,1.4167-3.89,1.0065-5.3236-.9417a1.9253,1.9253,0,0,0-1.4079-.6945,4.7193,4.7193,0,0,1-5.1489-3.371,2.9727,2.9727,0,0,0-1.12-1.4037c-2.6518-1.6524-3.51-4.2687-2.0824-7.0627.4036-.79.1733-1.0993-.3716-1.5765a4.98,4.98,0,0,1-.1622-7.7694,1.3192,1.3192,0,0,0,.3736-1.7532c-1.1342-2.7968-.3051-5.0515,2.2418-6.6909a3.1617,3.1617,0,0,0,1.147-1.5315,4.5915,4.5915,0,0,1,4.98-3.2013,1.4459,1.4459,0,0,0,1.6636-.79,3.3792,3.3792,0,0,1,5.09-.9907,1.2271,1.2271,0,0,0,1.7651.0123c1.8769-1.3483,3.8243-.89,5.2124.99a2.0478,2.0478,0,0,0,1.5051.73,4.8644,4.8644,0,0,1,5.1831,3.5575A3.24,3.24,0,0,0,50.02,24.7906,5.2345,5.2345,0,0,1,52.4821,29.6194Z"/>
    </g>
    <line x1="36" x2="36" y1="18.4613" y2="55.5447" fill="none" stroke="#000" stroke-miterlimit="10" stroke-width="2"/>
    <path fill="none" stroke="#000" stroke-linecap="round" stroke-linejoin="round" stroke-width="2" d="M30.6748,30.0612S34.5983,26.1166,36,31.4126"/>
    <path fill="none" stroke="#000" stroke-linecap="round" stroke-linejoin="round" stroke-width="2" d="M41.3252,30.0612S37.4017,26.1166,36,31.4126"/>
    <path fill="none" stroke="#000" stroke-linecap="round" stroke-linejoin="round" stroke-width="2" d="M44.1216,27.077S46.7807,22.19,41.305,22.36"/>
    <path fill="none" stroke="#000" stroke-linecap="round" stroke-linejoin="round" stroke-width="2" d="M41.3252,42.9007S37.4017,46.8453,36,41.5493"/>
    <path fill="none" stroke="#000" stroke-linecap="round" stroke-linejoin="round" stroke-width="2" d="M42.3124,36.5012s3.96-3.908,5.3125,1.4007"/>
    <path fill="none" stroke="#000" stroke-linecap="round" stroke-linejoin="round" stroke-width="2" d="M30.6748,42.9007S34.5983,46.8453,36,41.5493"/>
    <path fill="none" stroke="#000" stroke-linecap="round" stroke-linejoin="round" stroke-width="2" d="M50.02,24.7906s-1.2582-1.335-5.2985-1.0092"/>
    <path fill="none" stroke="#000" stroke-linecap="round" stroke-linejoin="round" stroke-width="2" d="M44.0628,46.5889s2.2139,5.1041-3.225,4.4479"/>
    <path fill="none" stroke="#000" stroke-linecap="round" stroke-linejoin="round" stroke-width="2" d="M49.98,49.317s-1.6167,1.2917-5.612.6079"/>
    <path fill="none" stroke="#000" stroke-linecap="round" stroke-linejoin="round" stroke-width="2" d="M28.085,27.077S25.4259,22.19,30.9016,22.36"/>
    <path fill="none" stroke="#000" stroke-linecap="round" stroke-linejoin="round" stroke-width="2" d="M29.2,36.5012s-3.96-3.908-5.3124,1.4007"/>
    <path fill="none" stroke="#000" stroke-linecap="round" stroke-linejoin="round" stroke-width="2" d="M22.137,24.6339s1.3076-1.1783,5.3478-.8525"/>
    <path fill="none" stroke="#000" stroke-linecap="round" stroke-linejoin="round" stroke-width="2" d="M27.89,46.5889s-2.2139,5.1041,3.225,4.4479"/>
    <path fill="none" stroke="#000" stroke-linecap="round" stroke-linejoin="round" stroke-width="2" d="M21.9732,49.317s1.6167,1.2917,5.612.6079"/>
  </g>
</svg>
