<svg id="emoji" viewBox="0 0 72 72" xmlns="http://www.w3.org/2000/svg">
  <g id="color">
    <path fill="#d0cfce" d="M56.376,61.2988v-1.777a1.6353,1.6353,0,0,1-.0921-.5063,3.5622,3.5622,0,0,0-2.0255-3.48c-.2486-.1381-.4879-.3039-.7365-.442A48.5558,48.5558,0,0,0,46,51.9262c-1.2245-.4327-2.4583-.8471-3.6736-1.2982a1.6365,1.6365,0,0,1-1.1692-1.62c-.0093-1.05-.0369-2.0992.0276-3.1488a2.2723,2.2723,0,0,1,.46-1.2245A9.0448,9.0448,0,0,0,43.45,40.4176a6.8664,6.8664,0,0,1,.5708-2.0439,10.5933,10.5933,0,0,0,1.0864-3.1672,6.0558,6.0558,0,0,0,.0092-1.5283c-.0368-.6261-.1657-1.2522-.1657-1.8875a9.24,9.24,0,0,1,.1565-1.5927,7.5977,7.5977,0,0,0-2.3754-6.7855,8.52,8.52,0,0,0-4.87-2.3662,14.88,14.88,0,0,0-1.556-.1657v-.0092a.4491.4491,0,0,0-.1105.0092.3774.3774,0,0,0-.1012-.0092v.0092a15.3227,15.3227,0,0,0-1.5652.1657,8.5473,8.5473,0,0,0-4.87,2.3662,7.5917,7.5917,0,0,0-2.3662,6.7855,11.511,11.511,0,0,1,.1565,1.5927c-.0092.6353-.1289,1.2614-.1657,1.8875a6.5256,6.5256,0,0,0,0,1.5283,10.6134,10.6134,0,0,0,1.0956,3.1672,7.14,7.14,0,0,1,.5616,2.0439,9.059,9.059,0,0,0,1.8138,4.2167,2.2723,2.2723,0,0,1,.46,1.2245c.0645,1.05.0276,2.0992.0184,3.1488a1.626,1.626,0,0,1-1.1692,1.62c-1.2153.4511-2.4491.8655-3.6736,1.2982a48.0815,48.0815,0,0,0-7.5128,3.1671c-.2486.1381-.4879.3039-.7365.442a3.5622,3.5622,0,0,0-2.0255,3.48,1.9783,1.9783,0,0,1-.1013.5063v1.777"/>
    <path fill="#d22f27" d="M31.0092,22.43c1.4088-.7011,6.1177-2.6571,10.4337-.0071a.768.768,0,0,1,.3574.6533V26.16a.7675.7675,0,0,1-.9717.7346,17.29,17.29,0,0,0-9.2809-.0365.7581.7581,0,0,1-.9589-.7362V23.1132A.7583.7583,0,0,1,31.0092,22.43Z"/>
  </g>
  <g id="line">
    <path fill="none" stroke="#000" stroke-linecap="round" stroke-linejoin="round" stroke-width="2.0013" d="M56.376,61.2988v-1.777a1.6353,1.6353,0,0,1-.0921-.5063,3.5622,3.5622,0,0,0-2.0255-3.48c-.2486-.1381-.4879-.3039-.7365-.442A48.5558,48.5558,0,0,0,46,51.9262c-1.2245-.4327-2.4583-.8471-3.6736-1.2982a1.6365,1.6365,0,0,1-1.1692-1.62c-.0093-1.05-.0369-2.0992.0276-3.1488a2.2723,2.2723,0,0,1,.46-1.2245A9.0448,9.0448,0,0,0,43.45,40.4176a6.8664,6.8664,0,0,1,.5708-2.0439,10.5933,10.5933,0,0,0,1.0864-3.1672,6.0558,6.0558,0,0,0,.0092-1.5283c-.0368-.6261-.1657-1.2522-.1657-1.8875a9.24,9.24,0,0,1,.1565-1.5927,7.5977,7.5977,0,0,0-2.3754-6.7855,8.52,8.52,0,0,0-4.87-2.3662,14.88,14.88,0,0,0-1.556-.1657v-.0092a.4491.4491,0,0,0-.1105.0092.3774.3774,0,0,0-.1012-.0092v.0092a15.3227,15.3227,0,0,0-1.5652.1657,8.5473,8.5473,0,0,0-4.87,2.3662,7.5917,7.5917,0,0,0-2.3662,6.7855,11.511,11.511,0,0,1,.1565,1.5927c-.0092.6353-.1289,1.2614-.1657,1.8875a6.5256,6.5256,0,0,0,0,1.5283,10.6134,10.6134,0,0,0,1.0956,3.1672,7.14,7.14,0,0,1,.5616,2.0439,9.059,9.059,0,0,0,1.8138,4.2167,2.2723,2.2723,0,0,1,.46,1.2245c.0645,1.05.0276,2.0992.0184,3.1488a1.626,1.626,0,0,1-1.1692,1.62c-1.2153.4511-2.4491.8655-3.6736,1.2982a48.0815,48.0815,0,0,0-7.5128,3.1671c-.2486.1381-.4879.3039-.7365.442a3.5622,3.5622,0,0,0-2.0255,3.48,1.9783,1.9783,0,0,1-.1013.5063v1.777"/>
    <path fill="none" stroke="#000" stroke-miterlimit="10" stroke-width="2" d="M31.0092,22.43c1.4088-.7011,6.1177-2.6571,10.4337-.0071a.768.768,0,0,1,.3574.6533V26.16a.7675.7675,0,0,1-.9717.7346,17.29,17.29,0,0,0-9.2809-.0365.7581.7581,0,0,1-.9589-.7362V23.1132A.7583.7583,0,0,1,31.0092,22.43Z"/>
    <polyline fill="none" stroke="#000" stroke-linecap="round" stroke-linejoin="round" stroke-width="2" points="43.393 16.948 45.375 12.911 47.402 15.063 49.892 9.991"/>
    <polyline fill="none" stroke="#000" stroke-linecap="round" stroke-linejoin="round" stroke-width="2" points="24.574 8.857 26.906 12.702 24.002 13.251 26.933 18.082"/>
    <polyline fill="none" stroke="#000" stroke-linecap="round" stroke-linejoin="round" stroke-width="2" points="36.737 15.28 36.548 10.787 33.826 11.94 33.588 6.295"/>
  </g>
  <g id="color-foreground">
    <polyline fill="none" stroke="#d22f27" stroke-linecap="round" stroke-linejoin="round" stroke-width="2" points="43.393 16.948 45.375 12.911 47.402 15.063 49.892 9.991"/>
    <polyline fill="none" stroke="#d22f27" stroke-linecap="round" stroke-linejoin="round" stroke-width="2" points="24.574 8.857 26.906 12.702 24.002 13.251 26.933 18.082"/>
    <polyline fill="none" stroke="#d22f27" stroke-linecap="round" stroke-linejoin="round" stroke-width="2" points="36.737 15.28 36.548 10.787 33.826 11.94 33.588 6.295"/>
  </g>
</svg>
