<svg id="emoji" x="0" y="0" viewBox="0 0 72 72" version="1.1" xmlns="http://www.w3.org/2000/svg">
  <g id="color">
    <ellipse cx="28.5068" cy="43.7256" rx="11.4683" ry="11.2744" fill="#D0CFCE"/>
    <ellipse cx="28.5068" cy="44.0817" rx="6.8428" ry="6.7272" fill="#9B9B9A"/>
    <ellipse cx="28.5068" cy="43.7256" rx="2.4923" ry="2.4502" fill="#D0CFCE"/>
    <ellipse cx="47.442" cy="51.184" rx="3.8816" ry="3.816" fill="#D0CFCE"/>
    <path fill="#D22F27" d="M29.9415,32.5385l17.0555-0.0874l1.7694,11.2745h-8.7913C39.9751,43.7256,39.2786,33.7,29.9415,32.5385z"/>
  </g>
  <g id="line">
    <path stroke="#000000" stroke-linecap="round" stroke-linejoin="round" stroke-width="2" d="M25.3636,27.2 c0,0,20.1457-0.0658,21.6081,0c0.0628,1.2046,0.0842,1.4174,0.0842,2.2887c-0.7851,0.0127-18.0857,0.131-21.3081,0.1488 C25.566,28.8344,25.4376,28.0201,25.3636,27.2z"/>
    <polyline fill="none" stroke="#000000" stroke-linecap="round" stroke-linejoin="round" stroke-width="2" points="12.329,17.361 23.159,17.361 25.938,32.451"/>
    <ellipse cx="28.5068" cy="43.7256" rx="11.4683" ry="11.2744" fill="none" stroke="#000000" stroke-linecap="round" stroke-linejoin="round" stroke-width="2"/>
    <ellipse cx="28.5068" cy="44.0817" rx="6.8428" ry="6.7272" fill="none" stroke="#000000" stroke-linecap="round" stroke-linejoin="round" stroke-width="2"/>
    <ellipse cx="28.5068" cy="43.7256" rx="2.4923" ry="2.4502" fill="none" stroke="#000000" stroke-linecap="round" stroke-linejoin="round" stroke-width="2"/>
    <ellipse cx="47.442" cy="51.184" rx="3.8816" ry="3.816" fill="none" stroke="#000000" stroke-linecap="round" stroke-linejoin="round" stroke-width="2"/>
    <ellipse cx="47.4487" cy="51.1395" rx="1.331" ry="1.3085"/>
    <line x1="23.6329" x2="26.6233" y1="39.3618" y2="42.1241" fill="none" stroke="#000000" stroke-linecap="round" stroke-linejoin="round" stroke-width="2"/>
    <line x1="32.9727" x2="30.3903" y1="39.3618" y2="42.1241" fill="none" stroke="#000000" stroke-linecap="round" stroke-linejoin="round" stroke-width="2"/>
    <line x1="30.0921" x2="33.3903" y1="45.6162" y2="48.7909" fill="none" stroke="#000000" stroke-linecap="round" stroke-linejoin="round" stroke-width="2"/>
    <line x1="26.6233" x2="23.6241" y1="45.6162" y2="48.7909" fill="none" stroke="#000000" stroke-linecap="round" stroke-linejoin="round" stroke-width="2"/>
    <path fill="none" stroke="#000000" stroke-linecap="round" stroke-linejoin="round" stroke-width="2" d="M29.9415,32.5385 l17.0555-0.0874l1.7694,11.2745h-8.7913C39.9751,43.7256,39.2786,33.7,29.9415,32.5385z"/>
    <path d="M52.049,45.2603h3.4144c0.4006,0,0.7254,0.3248,0.7254,0.7254v0.3801c0,0.4006-0.3248,0.7254-0.7254,0.7254H52.049 c-0.4006,0-0.7254-0.3248-0.7254-0.7254v-0.3801C51.3236,45.5851,51.6484,45.2603,52.049,45.2603z"/>
  </g>
</svg>
