<?xml version="1.0" encoding="UTF-8" standalone="no"?>
<!-- Created with Inkscape (http://www.inkscape.org/) -->
<svg id="svg2755" xmlns="http://www.w3.org/2000/svg" height="24" width="24" version="1.0" xmlns:xlink="http://www.w3.org/1999/xlink">
 <defs id="defs2757">
  <linearGradient id="linearGradient2673" y2="609.51" gradientUnits="userSpaceOnUse" x2="302.86" gradientTransform="matrix(.035207 0 0 .0082353 -.72485 18.981)" y1="366.65" x1="302.86">
   <stop id="stop5050" style="stop-opacity:0" offset="0"/>
   <stop id="stop5056" offset=".5"/>
   <stop id="stop5052" style="stop-opacity:0" offset="1"/>
  </linearGradient>
  <radialGradient id="radialGradient2670" xlink:href="#linearGradient5060" gradientUnits="userSpaceOnUse" cy="486.65" cx="605.71" gradientTransform="matrix(-.012049 0 0 .0082353 10.761 18.981)" r="117.14"/>
  <linearGradient id="linearGradient5060">
   <stop id="stop5062" offset="0"/>
   <stop id="stop5064" style="stop-opacity:0" offset="1"/>
  </linearGradient>
  <radialGradient id="radialGradient2667" xlink:href="#linearGradient5060" gradientUnits="userSpaceOnUse" cy="486.65" cx="605.71" gradientTransform="matrix(.012049 0 0 .0082353 13.239 18.981)" r="117.14"/>
  <linearGradient id="linearGradient2664" y2="2.9062" gradientUnits="userSpaceOnUse" x2="-51.786" gradientTransform="matrix(.39221 0 0 .44736 29.199 -1.2387)" y1="44.819" x1="-55.613">
   <stop id="stop2492" style="stop-color:#2e4a5a" offset="0"/>
   <stop id="stop2494" style="stop-color:#6e8796" offset="1"/>
  </linearGradient>
  <linearGradient id="linearGradient2656" y2="46.017" gradientUnits="userSpaceOnUse" x2="24" gradientTransform="matrix(.45454 0 0 .46512 1.0909 .33723)" y1="2" x1="24">
   <stop id="stop3213" style="stop-color:#fff" offset="0"/>
   <stop id="stop3215" style="stop-color:#fff;stop-opacity:0" offset="1"/>
  </linearGradient>
  <linearGradient id="linearGradient2652" y2="5.4565" gradientUnits="userSpaceOnUse" x2="36.358" gradientTransform="matrix(.47785 0 0 .55248 .37225 -.076128)" y1="8.059" x1="32.892">
   <stop id="stop8591" style="stop-color:#fefefe" offset="0"/>
   <stop id="stop8593" style="stop-color:#cbcbcb" offset="1"/>
  </linearGradient>
  <radialGradient id="radialGradient3679" gradientUnits="userSpaceOnUse" cy="6.8818" cx="6.6147" gradientTransform="matrix(.0087506 1.8049 -2.3301 .011297 23.286 -9.4487)" r="9">
   <stop id="stop3995" style="stop-color:#a3c0d0" offset="0"/>
   <stop id="stop4001" style="stop-color:#427da1" offset="1"/>
  </radialGradient>
 </defs>
 <g id="layer1">
  <rect id="rect2879" style="opacity:.15;fill:url(#linearGradient2673)" height="2" width="17" y="22" x="3.5"/>
  <path id="path2881" style="opacity:.15;fill:url(#radialGradient2670)" d="m3.5 22v1.9999c-0.6205 0.004-1.5-0.448-1.5-1s0.6924-1 1.5-1z"/>
  <path id="path2883" style="opacity:.15;fill:url(#radialGradient2667)" d="m20.5 22v1.9999c0.62047 0.0038 1.5-0.44807 1.5-1.0001 0-0.552-0.6924-0.99982-1.5-0.99982z"/>
  <path id="path4160" style="stroke-linejoin:round;stroke:url(#linearGradient2664);stroke-width:.99992;fill:url(#radialGradient3679)" d="m3.5 0.49996h11.5c0.683 0.2373 4.541 3.1281 5.5 5 0 5.7292 0.000039 11.271 0.000039 17h-17v-22z"/>
  <path id="path3605" style="fill:#4a6574;fill-rule:evenodd" d="m8.8235 4.6358c-1.794 0.0002-3.958 1.7903-4.8235 4.7483v6.9339c0.39873 2.1175 1.0372 3.7494 1.5735 5.5033l2.4706-1.391c-0.5673-1.57-1.2966-3.136-1.5588-3.913-0.7342-2.176-0.7026-3.15-0.6413-4.808 0.0593-1.604 0.155-2.5916 0.8766-3.5368s1.7198-1.4149 2.9118-1.1921c2.5245 0.4725 3.3368 3.0538 3.3971 4.3113 0.04959 1.0343-0.5017 3.5814-2.4412 3.457-1.3445-0.08643-2.1003-1.0933-2.1912-2.8013-0.066961-1.2588 0.83463-2.5294 2.2941-1.8874 0.23492 0.10327 0.2508-0.46588-0.01471-0.75497-0.68356-0.74421-3.3915-0.45971-3.3824 2.4636 0.00849 2.709 1.6125 4.5177 3.1618 4.5298 3.2447 0.0258 3.8819-3.4346 3.7647-5.8212-0.13-2.6448-2.599-5.8417-5.3975-5.8412z"/>
  <path id="path3607" style="fill:#eeeeec;fill-rule:evenodd" d="m8.8235 4c-1.796 0.0003-3.9586 1.8046-4.8235 4.7682v6.9138c0.4017 2.117 1.0372 3.749 1.5735 5.503l2.4706-1.39c-0.5673-1.57-1.3113-3.137-1.5735-3.914-0.7342-2.176-0.6029-3.15-0.5416-4.808 0.0593-1.6035 0.07-2.5913 0.7916-3.5366 0.7216-0.9452 1.7051-1.4149 2.897-1.192 2.5245 0.4725 3.3368 3.0538 3.3971 4.3113 0.04959 1.0343-0.48698 3.5814-2.4265 3.457-1.3445-0.08643-2.1003-1.1132-2.1912-2.8212-0.06696-1.2588 0.83463-2.5095 2.2941-1.8676 0.23492 0.10327 0.25081-0.46589-0.01471-0.75497-0.68356-0.74421-3.3915-0.45971-3.3824 2.4636 0.00849 2.709 1.6125 4.5177 3.1618 4.5298 3.2447 0.0258 3.8672-3.4346 3.75-5.8212-0.13-2.6446-2.584-5.8415-5.3825-5.8411z"/>
  <path id="path3609" style="opacity:.77381;fill:#466170;fill-rule:evenodd" d="m18.426 4.8146-2.47 1.3907c0.56728 1.5701 1.3113 3.1365 1.5735 3.9139 0.7342 2.1759 1.0025 3.1494 0.94118 4.8079-0.05927 1.6031-0.46957 2.5712-1.1912 3.5166-0.72159 0.94517-1.7051 1.4349-2.8971 1.2119-2.5245-0.47214-3.3368-3.0538-3.3971-4.3113-0.04958-1.0341 0.48699-3.5814 2.4265-3.457 1.3445 0.08643 2.1003 1.0933 2.1912 2.8013 0.06696 1.2587-0.83463 2.5295-2.2941 1.8874-0.23493-0.10318-0.25081 0.46589 0.01471 0.75497 0.68356 0.74429 3.3915 0.45962 3.3824-2.4636-0.009-2.708-1.613-4.537-3.162-4.549-3.245-0.026-3.867 3.454-3.7499 5.841 0.1298 2.644 2.5839 5.842 5.3819 5.841 1.794 0 3.957-1.81 4.824-4.768v-6.914c-0.402-2.1169-1.037-3.7494-1.574-5.5034z"/>
  <path id="path3611" style="fill:#a9c5d3;fill-rule:evenodd" d="m18.353 4-2.4706 1.3907c0.56728 1.5701 1.3113 3.1365 1.5735 3.9139 0.7342 2.1759 0.70242 3.1494 0.64112 4.8079-0.05927 1.6031-0.16952 2.5712-0.89112 3.5166-0.7216 0.94517-1.7051 1.4349-2.8971 1.2119-2.5245-0.47214-3.3368-3.0538-3.3971-4.3113-0.04958-1.0341 0.48699-3.5814 2.4265-3.457 1.3445 0.08643 2.1003 1.0933 2.1912 2.8013 0.06696 1.2587-0.83463 2.5295-2.2941 1.8874-0.23493-0.10318-0.25081 0.46589 0.01471 0.75497 0.68356 0.74429 3.4062 0.45962 3.3971-2.4636-0.0085-2.7089-1.6272-4.5375-3.1765-4.5497-3.2447-0.02597-3.8672 3.4542-3.75 5.8411 0.12983 2.6443 2.5838 5.8418 5.3824 5.8411 1.8461-0.000137 4.084-1.914 4.8971-5.0265v-6.298c-0.394-2.2924-1.0813-4.0106-1.6471-5.8609z"/>
  <path id="path2435" style="opacity:0.42;stroke:url(#linearGradient2656);fill:none" d="m19.5 5.677v15.823h-15v-20h10.394"/>
  <path id="path3370" style="opacity:.3;fill-rule:evenodd" d="m14.075 1c1.1563 0.32877 0.33906 4.6144 0.33906 4.6144s4.5154-0.42774 5.6077 1.195c1.489 2.2122-0.068-0.6352-0.173-0.8217-0.756-1.3401-3.867-4.5471-5.046-4.9412-0.088-0.0295-0.283-0.0465-0.728-0.0465z"/>
  <path id="path4474" style="fill:url(#linearGradient2652);fill-rule:evenodd" d="m14 0c1.5262 0 1 5 1 5s6.0748-0.45326 6.0748 2c0-0.59774 0.04504-1.8225-0.07478-2-0.83911-1.243-4.6708-4.6821-6-5-0.09048-0.021638-0.55596 0-1 0z"/>
 </g>
</svg>
