<?xml version="1.0" encoding="UTF-8" standalone="no"?>
<!-- Created with Inkscape (http://www.inkscape.org/) -->
<svg id="svg3396" xmlns="http://www.w3.org/2000/svg" height="24" width="24" version="1.0" xmlns:xlink="http://www.w3.org/1999/xlink">
 <defs id="defs3398">
  <linearGradient id="linearGradient2620" y2="609.51" gradientUnits="userSpaceOnUse" x2="302.86" gradientTransform="matrix(.035207 0 0 .0082353 -.72485 18.981)" y1="366.65" x1="302.86">
   <stop id="stop5050" style="stop-opacity:0" offset="0"/>
   <stop id="stop5056" offset=".5"/>
   <stop id="stop5052" style="stop-opacity:0" offset="1"/>
  </linearGradient>
  <radialGradient id="radialGradient2617" xlink:href="#linearGradient5060" gradientUnits="userSpaceOnUse" cy="486.65" cx="605.71" gradientTransform="matrix(-.012049 0 0 .0082353 10.761 18.981)" r="117.14"/>
  <linearGradient id="linearGradient5060">
   <stop id="stop5062" offset="0"/>
   <stop id="stop5064" style="stop-opacity:0" offset="1"/>
  </linearGradient>
  <radialGradient id="radialGradient2614" xlink:href="#linearGradient5060" gradientUnits="userSpaceOnUse" cy="486.65" cx="605.71" gradientTransform="matrix(.012049 0 0 .0082353 13.239 18.981)" r="117.14"/>
  <linearGradient id="linearGradient2610" y2="2.9062" gradientUnits="userSpaceOnUse" x2="-51.786" gradientTransform="matrix(.39221 0 0 .44736 29.199 -1.2387)" y1="50.786" x1="-51.786">
   <stop id="stop3106" style="stop-color:#aaa" offset="0"/>
   <stop id="stop3108" style="stop-color:#c8c8c8" offset="1"/>
  </linearGradient>
  <linearGradient id="linearGradient2608" y2="47.013" gradientUnits="userSpaceOnUse" x2="25.132" gradientTransform="matrix(.48572 0 0 .47803 .34283 -.70595)" y1=".98521" x1="25.132">
   <stop id="stop3602" style="stop-color:#f4f4f4" offset="0"/>
   <stop id="stop3604" style="stop-color:#dbdbdb" offset="1"/>
  </linearGradient>
  <linearGradient id="linearGradient2604" y2="46.017" gradientUnits="userSpaceOnUse" x2="24" gradientTransform="matrix(.45454 0 0 .46512 1.0909 .33723)" y1="1.425" x1="24">
   <stop id="stop3213" style="stop-color:#fff" offset="0"/>
   <stop id="stop3215" style="stop-color:#fff;stop-opacity:0" offset="1"/>
  </linearGradient>
  <linearGradient id="linearGradient2597" y2="5.4565" gradientUnits="userSpaceOnUse" x2="36.358" gradientTransform="matrix(.47785 0 0 .55248 .37225 -.076128)" y1="8.059" x1="32.892">
   <stop id="stop8591" style="stop-color:#fefefe" offset="0"/>
   <stop id="stop8593" style="stop-color:#cbcbcb" offset="1"/>
  </linearGradient>
  <linearGradient id="linearGradient3972">
   <stop id="stop3974" style="stop-color:#fff" offset="0"/>
   <stop id="stop3976" style="stop-color:#fff;stop-opacity:0" offset="1"/>
  </linearGradient>
  <linearGradient id="linearGradient3683" y2="44.866" gradientUnits="userSpaceOnUse" x2="34" gradientTransform="matrix(.77839 0 0 1.0095 -17.855 -22.298)" y1="13.682" x1="34">
   <stop id="stop2266" style="stop-color:#d7e866" offset="0"/>
   <stop id="stop2268" style="stop-color:#8cab2a" offset="1"/>
  </linearGradient>
  <linearGradient id="linearGradient3685" y2="38.031" xlink:href="#linearGradient3972" gradientUnits="userSpaceOnUse" x2="34.644" gradientTransform="matrix(.60089 0 0 .91190 -11.056 -18.672)" y1="26" x1="34.644"/>
  <linearGradient id="linearGradient3691" y2="44.866" gradientUnits="userSpaceOnUse" x2="34" gradientTransform="matrix(.77839 0 0 1.0095 -13.855 -20.298)" y1="13.682" x1="34">
   <stop id="stop3995" style="stop-color:#a3c0d0" offset="0"/>
   <stop id="stop4001" style="stop-color:#427da1" offset="1"/>
  </linearGradient>
  <linearGradient id="linearGradient3693" y2="38.031" xlink:href="#linearGradient3972" gradientUnits="userSpaceOnUse" x2="34.644" gradientTransform="matrix(.60089 0 0 .91190 -7.0557 -16.672)" y1="26" x1="34.644"/>
  <linearGradient id="linearGradient3699" y2="44.866" gradientUnits="userSpaceOnUse" x2="34" gradientTransform="matrix(.77839 0 0 1.0095 -9.8545 -18.298)" y1="13.682" x1="34">
   <stop id="stop4170" style="stop-color:#f8cd70" offset="0"/>
   <stop id="stop4172" style="stop-color:#d99a11" offset="1"/>
  </linearGradient>
  <linearGradient id="linearGradient3701" y2="38.031" xlink:href="#linearGradient3972" gradientUnits="userSpaceOnUse" x2="34.644" gradientTransform="matrix(.60089 0 0 .91190 -3.0557 -14.672)" y1="26" x1="34.644"/>
  <linearGradient id="linearGradient3709" y2="7.273" gradientUnits="userSpaceOnUse" x2="12.388" y1="19.507" x1="12.685">
   <stop id="stop2492" style="stop-color:#2e4a5a" offset="0"/>
   <stop id="stop2494" style="stop-color:#6e8796" offset="1"/>
  </linearGradient>
  <linearGradient id="linearGradient3717" y2="4.8811" gradientUnits="userSpaceOnUse" x2="7.7546" gradientTransform="translate(1)" y1="20.119" x1="7.9047">
   <stop id="stop3928" style="stop-color:#5d8430" offset="0"/>
   <stop id="stop3930" style="stop-color:#6d9a38" offset="1"/>
  </linearGradient>
 </defs>
 <g id="layer1">
  <rect id="rect2879" style="opacity:.15;fill:url(#linearGradient2620)" height="2" width="17" y="22" x="3.5"/>
  <path id="path2881" style="opacity:.15;fill:url(#radialGradient2617)" d="m3.5 22v1.9999c-0.6205 0.004-1.5-0.448-1.5-1s0.6924-1 1.5-1z"/>
  <path id="path2883" style="opacity:.15;fill:url(#radialGradient2614)" d="m20.5 22v1.9999c0.62047 0.0038 1.5-0.44807 1.5-1.0001 0-0.552-0.6924-0.99982-1.5-0.99982z"/>
  <path id="path4160" style="stroke-linejoin:round;stroke:url(#linearGradient2610);stroke-width:.99992;fill:url(#linearGradient2608)" d="m3.5 0.49996h11.5c0.683 0.2373 4.541 3.1281 5.5 5 0 5.7292 0.000039 11.271 0.000039 17h-17v-22z"/>
  <rect id="rect3980" style="opacity:.3" rx=".93798" ry="0" height="1" width="12.194" y="19.5" x="6.4482"/>
  <path id="path2435" style="opacity:0.24;stroke:url(#linearGradient2604);fill:none" d="m19.5 5.677v15.823h-15v-20h10.394"/>
  <path id="path3370" style="opacity:.2;fill-rule:evenodd" d="m14.075 1c1.1563 0.32877 0.33906 4.6144 0.33906 4.6144s4.5154-0.42774 5.6077 1.195c1.489 2.2122-0.068-0.6352-0.173-0.8217-0.756-1.3401-3.867-4.5471-5.046-4.9412-0.088-0.0295-0.283-0.0465-0.728-0.0465z"/>
  <path id="path4474" style="fill:url(#linearGradient2597);fill-rule:evenodd" d="m14 1c1.5262 0 1 4 1 4s4.9921-0.45326 4.9921 2c0-0.59774 0.05575-1.4784-0.06407-1.6559-0.839-1.243-3.744-3.8619-4.798-4.2976-0.086-0.0356-0.686-0.0465-1.13-0.0465z"/>
  <path id="path3677" style="stroke:url(#linearGradient3717);stroke-linecap:square;fill:url(#linearGradient3683)" d="m9.5 5.5v14h-2v-14h2z"/>
  <path id="path3681" style="opacity:.4;stroke-width:.98028;stroke:url(#linearGradient3685);stroke-linecap:square;fill:none" d="m8.4919 6.4901 0.043377 8.067"/>
  <path id="path3687" style="stroke:url(#linearGradient3709);stroke-linecap:square;fill:url(#linearGradient3691)" d="m13.5 7.5v12h-2v-12h2z"/>
  <path id="path3689" style="opacity:.4;stroke-width:.98028;stroke:url(#linearGradient3693);stroke-linecap:square;fill:none" d="m12.492 8.4901 0.04338 8.067"/>
  <path id="path3695" style="stroke:#c57a41;stroke-linecap:square;fill:url(#linearGradient3699)" d="m17.5 9.5v10h-2v-10h2z"/>
  <path id="path3697" style="opacity:.4;stroke-width:.98028;stroke:url(#linearGradient3701);stroke-linecap:square;fill:none" d="m16.492 10.49 0.04338 8.067"/>
 </g>
</svg>
