<?xml version="1.0" encoding="UTF-8" standalone="no"?>
<!-- Created with Inkscape (http://www.inkscape.org/) -->
<svg id="svg3473" xmlns="http://www.w3.org/2000/svg" height="24" width="24" version="1.0" xmlns:xlink="http://www.w3.org/1999/xlink">
 <defs id="defs3475">
  <linearGradient id="linearGradient2447" y2="609.51" gradientUnits="userSpaceOnUse" x2="302.86" gradientTransform="matrix(.035207 0 0 .0082353 -.72485 18.981)" y1="366.65" x1="302.86">
   <stop id="stop5050" style="stop-opacity:0" offset="0"/>
   <stop id="stop5056" offset=".5"/>
   <stop id="stop5052" style="stop-opacity:0" offset="1"/>
  </linearGradient>
  <radialGradient id="radialGradient2444" xlink:href="#linearGradient5060" gradientUnits="userSpaceOnUse" cy="486.65" cx="605.71" gradientTransform="matrix(-.012049 0 0 .0082353 10.761 18.981)" r="117.14"/>
  <linearGradient id="linearGradient5060">
   <stop id="stop5062" offset="0"/>
   <stop id="stop5064" style="stop-opacity:0" offset="1"/>
  </linearGradient>
  <radialGradient id="radialGradient2441" xlink:href="#linearGradient5060" gradientUnits="userSpaceOnUse" cy="486.65" cx="605.71" gradientTransform="matrix(.012049 0 0 .0082353 13.239 18.981)" r="117.14"/>
  <linearGradient id="linearGradient3405" y2="2.9062" gradientUnits="userSpaceOnUse" x2="-51.786" gradientTransform="matrix(.39221 0 0 .44736 29.199 -1.2387)" y1="53.624" x1="-51.786">
   <stop id="stop4963" style="stop-color:#643340" offset="0"/>
   <stop id="stop4965" style="stop-color:#a77a86" offset="1"/>
  </linearGradient>
  <radialGradient id="radialGradient3403" gradientUnits="userSpaceOnUse" cy="11.49" cx="14.239" gradientTransform="matrix(0 1.5891 -2.5736 0 36.379 -19.498)" r="18">
   <stop id="stop4953" style="stop-color:#e694bb" offset="0"/>
   <stop id="stop4955" style="stop-color:#d3819a" offset=".26238"/>
   <stop id="stop4957" style="stop-color:#b25a64" offset=".70495"/>
   <stop id="stop4959" style="stop-color:#98313d" offset="1"/>
  </radialGradient>
  <linearGradient id="linearGradient2429" y2="46.017" gradientUnits="userSpaceOnUse" x2="24" gradientTransform="matrix(.45454 0 0 .46512 1.0909 .33723)" y1="2" x1="24">
   <stop id="stop3213" style="stop-color:#fff" offset="0"/>
   <stop id="stop3215" style="stop-color:#fff;stop-opacity:0" offset="1"/>
  </linearGradient>
  <linearGradient id="linearGradient2425" y2="5.4565" gradientUnits="userSpaceOnUse" x2="36.358" gradientTransform="matrix(.47785 0 0 .55248 .37225 -.076128)" y1="8.059" x1="32.892">
   <stop id="stop8591" style="stop-color:#fefefe" offset="0"/>
   <stop id="stop8593" style="stop-color:#cbcbcb" offset="1"/>
  </linearGradient>
  <linearGradient id="linearGradient3376" y2="24.628" gradientUnits="userSpaceOnUse" x2="20.055" gradientTransform="matrix(.34830 0 0 .69672 3.6408 -3.1585)" y1="15.298" x1="16.626">
   <stop id="stop2687" style="stop-color:#fff" offset="0"/>
   <stop id="stop2689" style="stop-color:#fff;stop-opacity:0" offset="1"/>
  </linearGradient>
  <linearGradient id="linearGradient3465" y2="12" spreadMethod="reflect" gradientUnits="userSpaceOnUse" x2="91" gradientTransform="matrix(.56069 0 0 .44682 -29.284 3.0839)" y1="28" x1="75.854">
   <stop id="stop4002" offset="0"/>
   <stop id="stop4004" style="stop-opacity:0" offset="1"/>
  </linearGradient>
  <linearGradient id="linearGradient3462" y2="12" spreadMethod="reflect" gradientUnits="userSpaceOnUse" x2="91" gradientTransform="matrix(.56069 0 0 .44682 -29.284 2.5437)" y1="28" x1="75.854">
   <stop id="stop5295" style="stop-color:#fff" offset="0"/>
   <stop id="stop5297" style="stop-color:#fff;stop-opacity:0" offset="1"/>
  </linearGradient>
  <linearGradient id="linearGradient3450" y2=".19081" gradientUnits="userSpaceOnUse" x2="24.239" gradientTransform="matrix(.50426 0 0 .50292 1.9072 -.42847)" y1="44.11" x1="24.239">
   <stop id="stop4108" style="stop-color:#51293c" offset="0"/>
   <stop id="stop4110" style="stop-color:#876374" offset="1"/>
  </linearGradient>
 </defs>
 <g id="layer1">
  <rect id="rect2879" style="opacity:.15;fill:url(#linearGradient2447)" height="2" width="17" y="22" x="3.5"/>
  <path id="path2881" style="opacity:.15;fill:url(#radialGradient2444)" d="m3.5 22v2c-0.6205 0.004-1.5-0.448-1.5-1s0.6924-1 1.5-1z"/>
  <path id="path2883" style="opacity:.15;fill:url(#radialGradient2441)" d="m20.5 22v2c0.62 0.004 1.5-0.448 1.5-1s-0.692-1-1.5-1z"/>
  <path id="path4160" style="stroke-linejoin:round;stroke-width:.99992;stroke:url(#linearGradient3405);fill:url(#radialGradient3403)" d="m3.5 0.49996h11.5c0.683 0.2373 4.541 3.1281 5.5 5v17h-17v-22-0.00004z"/>
  <path id="path2435" style="opacity:.4;stroke:url(#linearGradient2429);fill:none" d="m19.5 5.677v15.823h-15v-20h10.394"/>
  <path id="path3370" style="opacity:.2;fill-rule:evenodd" d="m14.075 1c1.157 0.3288 0.34 4.6144 0.34 4.6144s4.515-0.4278 5.607 1.195c1.489 2.2122-0.068-0.6352-0.173-0.8217-0.756-1.3401-3.867-4.5471-5.046-4.9412-0.088-0.0295-0.283-0.0465-0.728-0.0465z"/>
  <path id="path4474" style="fill:url(#linearGradient2425);fill-rule:evenodd" d="m14 1c1.526 0 1 4 1 4s4.992-0.4533 4.992 2c0-0.5977 0.056-1.4784-0.064-1.6559-0.839-1.243-3.744-3.8619-4.798-4.2976-0.086-0.0356-0.686-0.0465-1.13-0.0465z"/>
  <path id="path3879" style="opacity:.2;fill:url(#linearGradient3376);fill-rule:evenodd" d="m4.7619 1c-0.4208 0-0.7619 0.6822-0.7619 1.5241v11.148c0.001 0.093 0.0215 0.182 0.0567 0.244 0.0351 0.062 0.0817 0.092 0.1283 0.082l15.674-4.964c0.08-0.0254 0.14-0.1633 0.141-0.3265v-3.0002l-5.098-4.7073h-10.14z"/>
  <path id="path5316" style="opacity:.1;fill:url(#linearGradient3465)" d="m16.345 8.4457c-0.206-0.0082-0.411 0.0011-0.612 0.0172-1.766 0.1415-3.293 1.2083-3.88 2.9041-0.362 1.045-0.29 2.152 0.097 3.179l-7.95 6.968v0.486h4.7026l-0.102-1.336 2.5924 0.516 0.306-2.389 2.431 0.516 1.594-1.358c1.628 0.528 3.28 0.258 4.476-0.618v-5.723c-0.198 0.049-0.427 0.037-0.644-0.052-0.531-0.217-0.83-0.797-0.66-1.289 0.127-0.3682 0.494-0.6071 0.885-0.6011 0.131 0.0019 0.27 0.0316 0.403 0.0859 0.007 0.0029 0.009 0.0141 0.016 0.0172v-0.8937c-0.518-0.1394-1.04-0.0827-1.449 0.1547-0.111-0.0539-0.206-0.1246-0.322-0.1719-0.624-0.2554-1.266-0.3878-1.884-0.4124z"/>
  <path id="path5283" style="opacity:.4;fill:url(#linearGradient3462)" d="m16.345 7.9056c-0.206-0.0082-0.411 0.0011-0.612 0.0171-1.766 0.1415-3.293 1.2084-3.88 2.9043-0.362 1.045-0.29 2.152 0.097 3.179l-7.95 7.022 0.0218 0.972h4.7237l-0.1449-1.876 2.5924 0.516 0.306-2.389 2.431 0.516 1.594-1.358c1.628 0.528 3.28 0.258 4.476-0.619v-5.722c-0.198 0.049-0.427 0.037-0.644-0.052-0.531-0.217-0.83-0.797-0.66-1.2888 0.127-0.3686 0.494-0.6075 0.885-0.6015 0.131 0.002 0.27 0.0317 0.403 0.0859 0.007 0.003 0.009 0.0142 0.016 0.0172v-0.8936c-0.518-0.1395-1.04-0.0827-1.449 0.1547-0.111-0.0539-0.206-0.1246-0.322-0.1719-0.624-0.2555-1.266-0.3879-1.884-0.4124z"/>
  <path id="path3467" style="opacity:.4;fill:#fff" d="m14.648 18c-0.25-0.869-0.398-2.131-0.648-3h-3.787c-0.2526 0.869-0.6084 2.131-0.8614 3h-2.3516c1.1896-3.667 2.3792-7.333 3.569-11h2.847c1.195 3.667 2.389 7.333 3.584 11h-2.352zm-1.292-4.556c-0.413-1.453-0.888-2.888-1.246-4.3554-0.069-0.221-0.1-0.8088-0.164-0.264-0.35 1.5594-0.832 3.0844-1.272 4.6194h2.682z"/>
  <path id="text3893" style="fill:url(#linearGradient3450)" d="m14.648 17c-0.25-0.869-0.398-2.131-0.648-3h-3.787c-0.2526 0.869-0.6084 2.131-0.8614 3h-2.3516c1.1896-3.667 2.3792-7.3333 3.569-11h2.847c1.195 3.6667 2.389 7.333 3.584 11h-2.352zm-1.292-5c-0.28-1.14-1.239-3.6582-1.356-4-0.35 1.5592-0.886 2.465-1.326 4h2.682z"/>
 </g>
</svg>
