<?xml version="1.0" encoding="UTF-8" standalone="no"?>
<!-- Created with Inkscape (http://www.inkscape.org/) -->
<svg id="svg2497" xmlns="http://www.w3.org/2000/svg" height="24" width="24" version="1.0" xmlns:xlink="http://www.w3.org/1999/xlink">
 <defs id="defs2499">
  <linearGradient id="linearGradient2447" y2="609.51" gradientUnits="userSpaceOnUse" x2="302.86" gradientTransform="matrix(.035207 0 0 .0082353 -.72485 18.981)" y1="366.65" x1="302.86">
   <stop id="stop5050" style="stop-opacity:0" offset="0"/>
   <stop id="stop5056" offset=".5"/>
   <stop id="stop5052" style="stop-opacity:0" offset="1"/>
  </linearGradient>
  <radialGradient id="radialGradient2444" xlink:href="#linearGradient5060" gradientUnits="userSpaceOnUse" cy="486.65" cx="605.71" gradientTransform="matrix(-.012049 0 0 .0082353 10.761 18.981)" r="117.14"/>
  <linearGradient id="linearGradient5060">
   <stop id="stop5062" offset="0"/>
   <stop id="stop5064" style="stop-opacity:0" offset="1"/>
  </linearGradient>
  <radialGradient id="radialGradient2441" xlink:href="#linearGradient5060" gradientUnits="userSpaceOnUse" cy="486.65" cx="605.71" gradientTransform="matrix(.012049 0 0 .0082353 13.239 18.981)" r="117.14"/>
  <linearGradient id="linearGradient2438" y2="2.9062" gradientUnits="userSpaceOnUse" x2="-51.786" gradientTransform="matrix(.39221 0 0 .44736 29.199 -1.2387)" y1="50.786" x1="-51.786">
   <stop id="stop3106" style="stop-color:#aaa" offset="0"/>
   <stop id="stop3108" style="stop-color:#c8c8c8" offset="1"/>
  </linearGradient>
  <linearGradient id="linearGradient2435" y2="47.013" gradientUnits="userSpaceOnUse" x2="25.132" gradientTransform="matrix(.48572 0 0 .47803 .34283 -.70595)" y1=".98521" x1="25.132">
   <stop id="stop3602" style="stop-color:#f4f4f4" offset="0"/>
   <stop id="stop3604" style="stop-color:#dbdbdb" offset="1"/>
  </linearGradient>
  <radialGradient id="radialGradient2432" gradientUnits="userSpaceOnUse" cy="102.7" cx="92.09" gradientTransform="matrix(.17021 0 0 -.19072 1.1064 23.717)" r="139.56">
   <stop id="stop41" style="stop-color:#b7b8b9" offset="0"/>
   <stop id="stop47" style="stop-color:#ececec" offset=".17403"/>
   <stop id="stop49" style="stop-color:#fafafa;stop-opacity:0" offset=".23908"/>
   <stop id="stop51" style="stop-color:#fff;stop-opacity:0" offset=".30111"/>
   <stop id="stop53" style="stop-color:#fafafa;stop-opacity:0" offset=".53130"/>
   <stop id="stop55" style="stop-color:#ebecec;stop-opacity:0" offset=".84490"/>
   <stop id="stop57" style="stop-color:#e1e2e3;stop-opacity:0" offset="1"/>
  </radialGradient>
  <linearGradient id="linearGradient2429" y2="46.017" gradientUnits="userSpaceOnUse" x2="24" gradientTransform="matrix(.45454 0 0 .46512 1.0909 .33723)" y1="2" x1="24">
   <stop id="stop3213" style="stop-color:#fff" offset="0"/>
   <stop id="stop3215" style="stop-color:#fff;stop-opacity:0" offset="1"/>
  </linearGradient>
  <linearGradient id="linearGradient3341">
   <stop id="stop3343" style="stop-color:#fff" offset="0"/>
   <stop id="stop3345" style="stop-color:#fff;stop-opacity:0" offset="1"/>
  </linearGradient>
  <linearGradient id="linearGradient3785">
   <stop id="stop3787" style="stop-color:#b8b8b8" offset="0"/>
   <stop id="stop3789" style="stop-color:#878787" offset="1"/>
  </linearGradient>
  <linearGradient id="linearGradient6954">
   <stop id="stop6960" style="stop-color:#f5f5f5" offset="0"/>
   <stop id="stop6962" style="stop-color:#d2d2d2" offset="1"/>
  </linearGradient>
  <linearGradient id="linearGradient2425" y2="5.4565" gradientUnits="userSpaceOnUse" x2="36.358" gradientTransform="matrix(.47785 0 0 .55248 .37225 -.076128)" y1="8.059" x1="32.892">
   <stop id="stop8591" style="stop-color:#fefefe" offset="0"/>
   <stop id="stop8593" style="stop-color:#cbcbcb" offset="1"/>
  </linearGradient>
  <linearGradient id="linearGradient2605" y2="43.144" xlink:href="#linearGradient3341" gradientUnits="userSpaceOnUse" x2="29.956" gradientTransform="matrix(.42809 0 0 .42297 .70744 .74978)" y1="21.866" x1="29.956"/>
  <linearGradient id="linearGradient2608" y2="25.793" xlink:href="#linearGradient3341" gradientUnits="userSpaceOnUse" x2="30" gradientTransform="matrix(.33686 0 0 .32161 3.4255 3.7031)" y1=".91818" x1="30"/>
  <radialGradient id="radialGradient2611" xlink:href="#linearGradient6954" gradientUnits="userSpaceOnUse" cy="12.313" cx="26.376" gradientTransform="matrix(.55250 -.042640 .043156 .50972 -2.7714 2.0219)" r="8"/>
  <linearGradient id="linearGradient2613" y2="44.679" xlink:href="#linearGradient3785" gradientUnits="userSpaceOnUse" x2="30" gradientTransform="matrix(.33686 0 0 .32161 3.4255 3.7031)" y1="5" x1="30"/>
  <radialGradient id="radialGradient2616" xlink:href="#linearGradient6954" gradientUnits="userSpaceOnUse" cy="28.66" cx="25" gradientTransform="matrix(.56187 0 0 .15788 -2.637 9.3369)" r="16"/>
  <linearGradient id="linearGradient2618" y2="45" xlink:href="#linearGradient3785" gradientUnits="userSpaceOnUse" x2="30" gradientTransform="matrix(.42809 0 0 .42297 .70744 .74978)" y1="25.085" x1="30"/>
  <linearGradient id="linearGradient2633" y2="43.144" xlink:href="#linearGradient3341" gradientUnits="userSpaceOnUse" x2="29.956" gradientTransform="matrix(.42809 0 0 .42297 -2.2926 -.25184)" y1="21.866" x1="29.956"/>
  <linearGradient id="linearGradient2636" y2="25.793" xlink:href="#linearGradient3341" gradientUnits="userSpaceOnUse" x2="30" gradientTransform="matrix(.33686 0 0 .32161 .42553 2.7015)" y1=".91818" x1="30"/>
  <radialGradient id="radialGradient2639" xlink:href="#linearGradient6954" gradientUnits="userSpaceOnUse" cy="12.313" cx="26.376" gradientTransform="matrix(.55250 -.042640 .043156 .50972 -5.7714 1.0203)" r="8"/>
  <linearGradient id="linearGradient2641" y2="44.679" xlink:href="#linearGradient3785" gradientUnits="userSpaceOnUse" x2="30" gradientTransform="matrix(.33686 0 0 .32161 .42553 2.7015)" y1="5" x1="30"/>
  <radialGradient id="radialGradient2644" xlink:href="#linearGradient6954" gradientUnits="userSpaceOnUse" cy="28.66" cx="25" gradientTransform="matrix(.56187 0 0 .15788 -5.637 8.3353)" r="16"/>
  <linearGradient id="linearGradient2646" y2="45" xlink:href="#linearGradient3785" gradientUnits="userSpaceOnUse" x2="30" gradientTransform="matrix(.42809 0 0 .42297 -2.2926 -.25184)" y1="25.085" x1="30"/>
 </defs>
 <g id="layer1">
  <rect id="rect2879" style="opacity:.15;fill:url(#linearGradient2447)" height="2" width="17" y="22" x="3.5"/>
  <path id="path2881" style="opacity:.15;fill:url(#radialGradient2444)" d="m3.5 22v1.9999c-0.6205 0.004-1.5-0.448-1.5-1s0.6924-1 1.5-1z"/>
  <path id="path2883" style="opacity:.15;fill:url(#radialGradient2441)" d="m20.5 22v1.9999c0.62047 0.0038 1.5-0.44807 1.5-1.0001 0-0.552-0.6924-0.99982-1.5-0.99982z"/>
  <path id="path4160" style="stroke-linejoin:round;stroke:url(#linearGradient2438);stroke-width:.99992;fill:url(#linearGradient2435)" d="m3.5 0.49996h11.5c0.683 0.2373 4.541 3.1281 5.5 5 0 5.7292 0.000039 11.271 0.000039 17h-17v-22z"/>
  <path id="path4191" style="fill:url(#radialGradient2432)" d="m4.1702 22c-0.0938 0-0.1702-0.086-0.1702-0.191v-20.598c0-0.105 0.0764-0.1905 0.1702-0.1905 3.5215 0.0527 7.4238-0.07883 10.941 0.0131l4.839 4.3272 0.05 16.448c0 0.105-0.076 0.191-0.17 0.191h-15.66z"/>
  <path id="path2435" style="opacity:.6;stroke:url(#linearGradient2429);fill:none" d="m19.5 5.677v15.823h-15v-20h10.394"/>
  <path id="path2846" style="stroke-linejoin:round;stroke:url(#linearGradient2646);stroke-width:1.0001;fill:url(#radialGradient2644)" d="m9.375 9.4968c-0.08064 0.68009 0.59016 2.1001 0.21875 2.7188-1.4448 0.50489-4.0489 1.4261-4.1875 2.0312-0.10237 0.93994-0.25592 2.3114-0.375 3.25 2.5329 1.3682 8.4918 1.3022 10.938 0-0.0863-0.66592-0.1637-2.5841-0.25-3.25-0.65364-0.78052-2.3749-1.2372-4.1875-2.0312-0.47365-0.61617 0.24346-1.9932 0.09375-2.6875-0.28643-0.049247-1.9599-0.023725-2.25-0.03125z"/>
  <path id="path2860" style="stroke:url(#linearGradient2641);stroke-width:.94714;fill:url(#radialGradient2639)" d="m10.531 4.4655c-1.3953 0-2.5312 1.0066-2.5312 2.25 0.010946 0.46014 0.05895 1.0055 0.34375 2.25 0.16843 0.48242 1.6739 1.7767 1.6875 1.9375 0.32664 0.1608 0.85064 0.1608 1.1875 0 0-0.16081 1.3316-1.4551 1.5-1.9375 0.32048-1.2934 0.32656-1.7676 0.34375-2.25 0-1.2434-1.1359-2.25-2.5312-2.25z"/>
  <path id="path2856" style="stroke:url(#linearGradient2636);stroke-width:.94714;fill:none" d="m10.531 5.4655c-0.61239-0.014824-1.267 0.33056-1.4688 0.9375-0.11358 0.41049-0.010161 0.83684 0.03125 1.25 0.05222 0.33814 0.11328 0.66608 0.1875 1 0.19409 0.17145 0.36114 0.39746 0.5625 0.5625 0.26331 0.25603 0.4908 0.5212 0.75 0.78125 0.2682-0.21731 0.44842-0.50327 0.6875-0.75 0.15268-0.17982 0.31025-0.38762 0.46875-0.5625 0.15764-0.71028 0.33973-1.4222 0.28125-2.1562-0.12463-0.68677-0.84702-1.0797-1.5-1.0625z"/>
  <path id="path2852" style="stroke-linejoin:round;stroke:url(#linearGradient2633);stroke-width:1.0001;fill:none" d="m10.531 12.059c0.04083 0.61847-0.4845 1.101-1.0625 1.1875-1.0618 0.37758-2.1651 0.7065-3.125 1.3125-0.22472 0.54072-0.10424 1.1607-0.25 1.7188-0.33093 0.70896 0.56908 0.77606 1.0312 0.90625 2.2561 0.54072 4.6521 0.49906 6.9062-0.03125 0.33585-0.16859 1.1383-0.08494 0.9375-0.625-0.06223-0.58751-0.09192-1.1917-0.125-1.7812-0.92005-0.70833-2.0869-0.95733-3.125-1.4375-0.82297-0.11676-0.8526-0.71962-1.1875-1.25z"/>
  <path id="path2880" style="stroke-linejoin:round;stroke:url(#linearGradient2618);stroke-width:1.0001;fill:url(#radialGradient2616)" d="m12.375 10.498c-0.08064 0.68009 0.59016 2.1001 0.21875 2.7188-1.4448 0.50489-4.0489 1.4261-4.1875 2.0312-0.10237 0.93994-0.25592 2.3114-0.375 3.25 2.5329 1.3682 8.4918 1.3022 10.938 0-0.0863-0.66592-0.1637-2.5841-0.25-3.25-0.65364-0.78052-2.3749-1.2372-4.1875-2.0312-0.47365-0.61617 0.24346-1.9932 0.09375-2.6875-0.28643-0.04925-1.9599-0.02372-2.25-0.03125z"/>
  <path id="path2870" style="stroke:url(#linearGradient2613);stroke-width:.94714;fill:url(#radialGradient2611)" d="m13.531 5.4671c-1.3953 0-2.5312 1.0066-2.5312 2.25 0.01095 0.46014 0.05895 1.0055 0.34375 2.25 0.16843 0.48242 1.6739 1.7767 1.6875 1.9375 0.32664 0.1608 0.85064 0.1608 1.1875 0 0-0.1608 1.3316-1.4551 1.5-1.9375 0.32048-1.2934 0.32656-1.7676 0.34375-2.25 0-1.2434-1.1359-2.25-2.5312-2.25z"/>
  <path id="path2866" style="stroke:url(#linearGradient2608);stroke-width:.94714;fill:none" d="m13.531 6.4671c-0.61239-0.014824-1.267 0.33056-1.4688 0.9375-0.11358 0.41049-0.01016 0.83684 0.03125 1.25 0.05222 0.33814 0.11328 0.66608 0.1875 1 0.19409 0.17145 0.36114 0.39746 0.5625 0.5625 0.26331 0.25603 0.4908 0.5212 0.75 0.78125 0.2682-0.21731 0.44842-0.50327 0.6875-0.75 0.15268-0.17982 0.31025-0.38762 0.46875-0.5625 0.15764-0.71028 0.33973-1.4222 0.28125-2.1562-0.12463-0.68677-0.84702-1.0797-1.5-1.0625z"/>
  <path id="path2876" style="stroke-linejoin:round;stroke:url(#linearGradient2605);stroke-width:1.0001;fill:none" d="m13.531 13.061c0.04083 0.61847-0.4845 1.101-1.0625 1.1875-1.0618 0.37758-2.1651 0.7065-3.125 1.3125-0.22472 0.54072-0.10424 1.1607-0.25 1.7188-0.33093 0.70896 0.56908 0.77606 1.0312 0.90625 2.2561 0.54072 4.6521 0.49906 6.9062-0.03125 0.33585-0.16859 1.1383-0.08494 0.9375-0.625-0.06223-0.58751-0.09192-1.1917-0.125-1.7812-0.92005-0.70833-2.0869-0.95733-3.125-1.4375-0.82297-0.11676-0.8526-0.71962-1.1875-1.25z"/>
  <path id="path3370" style="opacity:.2;fill-rule:evenodd" d="m14.075 1c1.1563 0.32877 0.33906 4.6144 0.33906 4.6144s4.5154-0.42774 5.6077 1.195c1.489 2.2122-0.068-0.6352-0.173-0.8217-0.756-1.3401-3.867-4.5471-5.046-4.9412-0.088-0.0295-0.283-0.0465-0.728-0.0465z"/>
  <path id="path4474" style="fill:url(#linearGradient2425);fill-rule:evenodd" d="m14 1c1.5262 0 1 4 1 4s4.9921-0.45326 4.9921 2c0-0.59774 0.05575-1.4784-0.06407-1.6559-0.839-1.243-3.744-3.8619-4.798-4.2976-0.086-0.0356-0.686-0.0465-1.13-0.0465z"/>
 </g>
</svg>
