<?xml version="1.0" encoding="UTF-8" standalone="no"?>
<!-- Created with Inkscape (http://www.inkscape.org/) -->
<svg id="svg2504" xmlns="http://www.w3.org/2000/svg" height="64" width="64" version="1.0" xmlns:xlink="http://www.w3.org/1999/xlink">
 <defs id="defs2506">
  <radialGradient id="radialGradient2500" gradientUnits="userSpaceOnUse" cy="4.625" cx="62.625" gradientTransform="matrix(2.9176 0 0 .98823 -150.72 48.929)" r="10.625">
   <stop id="stop8840" offset="0"/>
   <stop id="stop8842" style="stop-opacity:0" offset="1"/>
  </radialGradient>
  <linearGradient id="linearGradient2497" y2="3.0816" gradientUnits="userSpaceOnUse" x2="18.379" gradientTransform="matrix(1.2534 0 0 1.2534 1.9192 3.9192)" y1="44.98" x1="18.379">
   <stop id="stop2788" style="stop-color:#1f4b6a" offset="0"/>
   <stop id="stop2790" style="stop-color:#4083c2" offset="1"/>
  </linearGradient>
  <radialGradient id="radialGradient2495" gradientUnits="userSpaceOnUse" cy="3.99" cx="23.896" gradientTransform="matrix(0 2.9914 -3.9485 0 47.755 -64.903)" r="20.397">
   <stop id="stop2778" style="stop-color:#8badea" offset="0"/>
   <stop id="stop2780" style="stop-color:#6396cd" offset=".26238"/>
   <stop id="stop2782" style="stop-color:#3b7caf" offset=".66094"/>
   <stop id="stop2784" style="stop-color:#194c70" offset="1"/>
  </radialGradient>
  <linearGradient id="linearGradient2492" y2="5.4676" gradientUnits="userSpaceOnUse" x2="63.397" gradientTransform="matrix(2.8014 0 0 2.8014 -142.25 43.835)" y1="-12.489" x1="63.397">
   <stop id="stop4875" style="stop-color:#fff" offset="0"/>
   <stop id="stop4877" style="stop-color:#fff;stop-opacity:0" offset="1"/>
  </linearGradient>
 </defs>
 <g id="layer1">
  <path id="path8836" style="opacity:.3;fill-rule:evenodd;fill:url(#radialGradient2500)" d="m63 53.5c0 5.799-13.879 10.5-31 10.5s-31-4.701-31-10.5 13.879-10.5 31-10.5 31 4.701 31 10.5z"/>
  <path id="path2555" style="stroke-linejoin:round;stroke:url(#linearGradient2497);stroke-linecap:round;fill:url(#radialGradient2495)" d="m32 8.5018c-14.069 0-25.498 11.429-25.498 25.498-0.0002 14.069 11.429 25.498 25.498 25.498s25.498-11.429 25.498-25.498-11.429-25.498-25.498-25.498z"/>
  <path id="path8655" style="opacity:.4;stroke:url(#linearGradient2492);fill:none" d="m56.5 33.999c0 13.532-10.97 24.501-24.5 24.501-13.531 0-24.5-10.97-24.5-24.501s10.969-24.499 24.5-24.499c13.53 0 24.5 10.968 24.5 24.499z"/>
  <path id="path2502" style="fill:#1f4b6b" d="m33.138 40.752c-0.083-3.084 0.578-6.079 3.364-8.2 2.942-2.398 5.776-5.4 5.476-8.937-0.065-3.412-3.865-6.086-7.959-6.47-4.605-0.668-10.178 0.983-11.721 4.745-0.783 1.83-0.057 5.113 2.57 5.113 1.536 0 2.242-1.038 2.358-1.988 0.087-0.718-0.195-1.36-0.361-1.953-0.19-0.677 0.62-1.988 1.502-2.522 0.738-0.446 1.509-0.596 1.623-0.624 2.647-0.666 5.287 0.805 6.388 2.594 1.101 1.79-0.111 4.504-1.854 7.144-1.742 2.64-3.612 5.638-3.605 8.823 0 1.212-0.103 1.624-0.03 2.115 0.059 0.392 1.299 0.344 2.249 0.16zm-1.208 4.152c-2.532-0.144-4.284 2.859-2.763 4.771 1.358 2.113 5.166 1.591 5.819-0.801 0.678-1.859-0.955-4.001-3.056-3.97z"/>
  <path id="path3298" style="fill:#fff" d="m33.138 41.752c-0.083-3.084 0.578-6.079 3.364-8.2 2.942-2.398 5.776-5.4 5.476-8.937-0.065-3.412-3.865-6.086-7.959-6.47-4.605-0.668-10.178 0.983-11.721 4.745-0.783 1.83-0.057 5.113 2.57 5.113 1.536 0 2.242-1.038 2.358-1.988 0.087-0.718-0.195-1.36-0.361-1.953-0.19-0.677 0.62-1.988 1.502-2.522 0.738-0.446 1.509-0.596 1.623-0.624 2.647-0.666 5.287 0.805 6.388 2.594 1.101 1.79-0.111 4.504-1.854 7.144-1.742 2.64-3.612 5.638-3.605 8.823 0 1.212-0.103 1.624-0.03 2.115 0.059 0.392 1.299 0.344 2.249 0.16zm-1.208 4.152c-2.532-0.144-4.284 2.859-2.763 4.771 1.358 2.113 5.166 1.591 5.819-0.801 0.678-1.859-0.955-4.001-3.056-3.97z"/>
 </g>
</svg>
