<?xml version="1.0" encoding="UTF-8" standalone="no"?>
<!-- Created with Inkscape (http://www.inkscape.org/) -->
<svg id="svg3310" xmlns="http://www.w3.org/2000/svg" height="64" width="64" version="1.0" xmlns:xlink="http://www.w3.org/1999/xlink">
 <defs id="defs3312">
  <linearGradient id="linearGradient2789" y2="25.411" gradientUnits="userSpaceOnUse" x2="57.726" gradientTransform="matrix(0 .71845 -.69452 0 51.285 15.158)" y1="25.411" x1="13.472">
   <stop id="stop4224" style="stop-color:#fff" offset="0"/>
   <stop id="stop4226" style="stop-color:#fff;stop-opacity:0" offset="1"/>
  </linearGradient>
  <linearGradient id="linearGradient2787" y2="20.71" gradientUnits="userSpaceOnUse" x2=".81572" gradientTransform="matrix(0 -.60241 -.58403 0 46.953 46.614)" y1="20.71" x1="28.315">
   <stop id="stop2266" style="stop-color:#d7e866" offset="0"/>
   <stop id="stop2268" style="stop-color:#8cab2a" offset="1"/>
  </linearGradient>
  <radialGradient id="radialGradient2528" gradientUnits="userSpaceOnUse" cy="41.636" cx="23.335" gradientTransform="matrix(1.2816 0 0 .37562 2.0937 36.861)" r="22.627">
   <stop id="stop23421" offset="0"/>
   <stop id="stop23423" style="stop-opacity:0" offset="1"/>
  </radialGradient>
  <linearGradient id="linearGradient2525" y2="45.033" gradientUnits="userSpaceOnUse" x2="-21.916" gradientTransform="matrix(1.3415 0 0 1.3415 67.234 -.19512)" y1="3" x1="-21.916">
   <stop id="stop3774" style="stop-color:#b4b4b4" offset="0"/>
   <stop id="stop3776" style="stop-color:#969696" offset="1"/>
  </linearGradient>
  <linearGradient id="linearGradient2523" y2="14.203" gradientUnits="userSpaceOnUse" x2="35.391" gradientTransform="matrix(0 1.5714 -1.5714 0 68.3 -5.7146)" y1="32.416" x1="12.274">
   <stop id="stop3265" style="stop-color:#dedbde" offset="0"/>
   <stop id="stop3267" style="stop-color:#e6e6e6" offset=".5"/>
   <stop id="stop3269" style="stop-color:#d2d2d2" offset="1"/>
  </linearGradient>
  <linearGradient id="linearGradient2519" y2="32.509" gradientUnits="userSpaceOnUse" x2="21.448" gradientTransform="matrix(1.3125 0 0 1.3125 0.5 0.5)" y1="15.5" x1="21.448">
   <stop id="stop3430" style="stop-color:#aaa" offset="0"/>
   <stop id="stop3432" style="stop-color:#d4d4d4" offset="1"/>
  </linearGradient>
  <linearGradient id="linearGradient2516" y2="45.962" xlink:href="#linearGradient6036" gradientUnits="userSpaceOnUse" x2="18.203" gradientTransform="matrix(.58088 0 0 .58088 17.857 17.478)" y1="4.0378" x1="18.776"/>
  <linearGradient id="linearGradient2485" y2="20.613" xlink:href="#linearGradient3519" spreadMethod="reflect" gradientUnits="userSpaceOnUse" x2="9.7298" y1="17.886" x1="10.609"/>
  <linearGradient id="linearGradient2483" y2="13.462" xlink:href="#linearGradient3511" spreadMethod="reflect" gradientUnits="userSpaceOnUse" x2="14.609" y1="16.188" x1="12.372"/>
  <linearGradient id="linearGradient2481" y2="10.732" xlink:href="#linearGradient3503" spreadMethod="reflect" gradientUnits="userSpaceOnUse" x2="16.994" y1="13.046" x1="14.085"/>
  <linearGradient id="linearGradient2479" y2="9.7956" xlink:href="#linearGradient3495" spreadMethod="reflect" gradientUnits="userSpaceOnUse" x2="21.047" y1="11.2" x1="17.495"/>
  <linearGradient id="linearGradient2477" y2="9.8622" xlink:href="#linearGradient3487" spreadMethod="reflect" gradientUnits="userSpaceOnUse" x2="24.274" y1="10.775" x1="20.58"/>
  <linearGradient id="linearGradient6036">
   <stop id="stop6038" style="stop-color:#fff" offset="0"/>
   <stop id="stop6040" style="stop-color:#fff;stop-opacity:0" offset="1"/>
  </linearGradient>
  <linearGradient id="linearGradient2507" y2="54.698" xlink:href="#linearGradient6036" gradientUnits="userSpaceOnUse" x2="48.799" gradientTransform="matrix(1.3385 0 0 1.3385 -.58953 -1.4636)" y1="3.61" x1="10.502"/>
  <linearGradient id="linearGradient3519">
   <stop id="stop3521" style="stop-color:#fcd9cd" offset="0"/>
   <stop id="stop3523" style="stop-color:#fcd9cd;stop-opacity:0" offset="1"/>
  </linearGradient>
  <linearGradient id="linearGradient3511">
   <stop id="stop3513" style="stop-color:#ebeec7" offset="0"/>
   <stop id="stop3515" style="stop-color:#ebeec7;stop-opacity:0" offset="1"/>
  </linearGradient>
  <linearGradient id="linearGradient3503">
   <stop id="stop3505" style="stop-color:#c4ebdd" offset="0"/>
   <stop id="stop3507" style="stop-color:#c4ebdd;stop-opacity:0" offset="1"/>
  </linearGradient>
  <linearGradient id="linearGradient3495">
   <stop id="stop3497" style="stop-color:#c1cbe4" offset="0"/>
   <stop id="stop3499" style="stop-color:#c1cbe4;stop-opacity:0" offset="1"/>
  </linearGradient>
  <linearGradient id="linearGradient3487">
   <stop id="stop3489" style="stop-color:#e6cde2" offset="0"/>
   <stop id="stop3491" style="stop-color:#e6cde2;stop-opacity:0" offset="1"/>
  </linearGradient>
 </defs>
 <g id="layer1">
  <path id="path23417" style="opacity:.3;fill-rule:evenodd;fill:url(#radialGradient2528)" d="m61 52.5c0.001 4.694-12.983 8.5-29 8.5s-29.002-3.806-29-8.5c-0.0015-4.694 12.983-8.5 29-8.5s29.001 3.806 29 8.5z"/>
  <path id="path2781" style="stroke:url(#linearGradient2525);fill:url(#linearGradient2523)" d="m59.5 32c0-15.243-12.257-27.5-27.5-27.5s-27.5 12.257-27.5 27.5 12.257 27.5 27.5 27.5 27.5-12.257 27.5-27.5zm-17 0c0 5.538-4.851 10.5-10.5 10.5-5.759 0-10.5-5.074-10.5-10.5 0-5.537 4.519-10.5 10.5-10.5s10.5 5.073 10.5 10.5z"/>
  <path id="path3418" style="stroke-linejoin:round;fill-opacity:.49804;stroke:url(#linearGradient2519);fill:#fff" d="m32 21.5c-5.796 0-10.5 4.704-10.5 10.5s4.704 10.5 10.5 10.5 10.5-4.704 10.5-10.5-4.704-10.5-10.5-10.5zm0 5.25c2.898 0 5.25 2.352 5.25 5.25s-2.352 5.25-5.25 5.25-5.25-2.352-5.25-5.25 2.352-5.25 5.25-5.25z"/>
  <path id="path3281" style="opacity:.8;stroke:url(#linearGradient2516);fill:none" d="m32 20.5c-6.374 0-11.5 5.126-11.5 11.5s5.126 11.5 11.5 11.5 11.5-5.126 11.5-11.5-5.126-11.5-11.5-11.5z"/>
  <g id="g3527" transform="matrix(1.3333 0 0 1.3333 -.0000016 .058893)">
   <path id="path3296" style="opacity:.8;fill:url(#linearGradient2477)" d="m15.857 5.7308l4.768 10.613c1.035-0.459 2.17-0.719 3.375-0.719h0.094l0.014-11.62c-2.942-0.0709-5.543 0.657-8.251 1.7258z" transform="matrix(.99960 .028243 -.028243 .99960 .69241 -.67083)"/>
   <path id="path3308" style="opacity:.8;fill:url(#linearGradient2479)" d="m12.121 7.906l6.931 9.36c0.914-0.67 1.966-1.167 3.143-1.425 0.031-0.007 0.06-0.014 0.092-0.02l-2.43-11.395c-2.889 0.5616-5.319 1.8559-7.736 3.48z"/>
   <path id="path3310" style="opacity:.8;fill:url(#linearGradient2481)" d="m8.2524 11.647l9.2136 7.155c0.709-0.883 1.597-1.636 2.667-2.19 0.028-0.014 0.054-0.028 0.083-0.043l-5.35-10.318c-2.645 1.2895-4.7 3.2014-6.6136 5.396z"/>
   <path id="path3312" style="opacity:.8;fill:url(#linearGradient2483)" d="m5.6329 16.074c7.1751 2.242 7.8501 7.031 12.777 1.754l-7.91-8.6959c-2.2213 1.9309-3.5867 4.3269-4.8671 6.9419z"/>
   <path id="path3314" style="opacity:.8;fill:url(#linearGradient2485)" d="m7.1553 13.193c-1.1831 1.752-1.9077 3.637-2.5251 5.644l11.339 2.975c0.215-0.763 0.518-1.514 0.969-2.218 0.017-0.027 0.044-0.067 0.062-0.094l-9.8447-6.307z"/>
  </g>
  <path id="path3272" style="opacity:.4;stroke:url(#linearGradient2507);fill:none" d="m32 5.5c-14.689 0-26.5 11.811-26.5 26.5s11.811 26.5 26.5 26.5 26.5-11.811 26.5-26.5-11.811-26.5-26.5-26.5z"/>
  <g id="g3297" transform="matrix(-1.3333 0 0 -1.3333 64 64.047)">
   <path id="path3299" style="opacity:.8;fill:url(#linearGradient2477)" d="m15.857 5.7308l4.768 10.613c1.035-0.459 2.17-0.719 3.375-0.719h0.094l0.014-11.62c-2.942-0.0709-5.543 0.657-8.251 1.7258z" transform="matrix(.99960 .028243 -.028243 .99960 .69241 -.67083)"/>
   <path id="path3301" style="opacity:.8;fill:url(#linearGradient2479)" d="m12.121 7.906l6.931 9.36c0.914-0.67 1.966-1.167 3.143-1.425 0.031-0.007 0.06-0.014 0.092-0.02l-2.43-11.395c-2.889 0.5616-5.319 1.8559-7.736 3.48z"/>
   <path id="path3303" style="opacity:.8;fill:url(#linearGradient2481)" d="m8.2524 11.647l9.2136 7.155c0.709-0.883 1.597-1.636 2.667-2.19 0.028-0.014 0.054-0.028 0.083-0.043l-5.35-10.318c-2.645 1.2895-4.7 3.2014-6.6136 5.396z"/>
   <path id="path3305" style="opacity:.8;fill:url(#linearGradient2483)" d="m5.6329 16.074c7.1751 2.242 7.8501 7.031 12.777 1.754l-7.91-8.6959c-2.2213 1.9309-3.5867 4.3269-4.8671 6.9419z"/>
   <path id="path3307" style="opacity:.8;fill:url(#linearGradient2485)" d="m7.1553 13.193c-1.1831 1.752-1.9077 3.637-2.5251 5.644l11.339 2.975c0.215-0.763 0.518-1.514 0.969-2.218 0.017-0.027 0.044-0.067 0.062-0.094l-9.8447-6.307z"/>
  </g>
 </g>
 <g id="g2783" transform="matrix(1.3386 0 0 1.3325 3.7327 .60946)">
  <path id="path3288" style="stroke-linejoin:round;stroke:#699536;stroke-linecap:round;stroke-width:.74450;fill:url(#linearGradient2787)" d="m44.511 31.406l-11.54 14.105-11.482-14.03h5.233v-10.488h12.631v10.413h5.158z"/>
  <path id="path3290" style="opacity:0.354;stroke:url(#linearGradient2789);stroke-width:.74392;fill:none" d="m42.691 32.225l-9.691 12.05-9.671-11.975h4.058v-10.637h11.225v10.562h4.079z"/>
 </g>
</svg>
