<?xml version="1.0" encoding="UTF-8" standalone="no"?>
<!-- Created with Inkscape (http://www.inkscape.org/) -->
<svg id="svg3486" xmlns="http://www.w3.org/2000/svg" height="64" width="64" version="1.0" xmlns:xlink="http://www.w3.org/1999/xlink">
 <defs id="defs3488">
  <linearGradient id="linearGradient3434">
   <stop id="stop3436" style="stop-color:#fff;stop-opacity:0" offset="0"/>
   <stop id="stop3438" style="stop-color:#fff" offset="1"/>
  </linearGradient>
  <linearGradient id="linearGradient3463">
   <stop id="stop3465" offset="0"/>
   <stop id="stop3467" style="stop-opacity:0" offset="1"/>
  </linearGradient>
  <linearGradient id="linearGradient3260" y2="33.434" xlink:href="#linearGradient3434" gradientUnits="userSpaceOnUse" x2="15" gradientTransform="matrix(1.75 0 0 1.7586 0.875 -18.759)" y1="17" x1="15"/>
  <linearGradient id="linearGradient3263" y2="15.875" xlink:href="#linearGradient3434" gradientUnits="userSpaceOnUse" x2="14.499" gradientTransform="matrix(1.8667 0 0 1.7682 -.6125 -18.813)" y1="44.179" x1="14.499"/>
  <linearGradient id="linearGradient3266" y2="45.497" gradientUnits="userSpaceOnUse" x2="22.056" gradientTransform="matrix(1.7272 0 0 1.7787 .23472 -20.544)" y1="15.834" x1="22.056">
   <stop id="stop9938" style="stop-color:#575757" offset="0"/>
   <stop id="stop9940" style="stop-color:#333" offset="1"/>
  </linearGradient>
  <radialGradient id="radialGradient3272" xlink:href="#linearGradient3463" gradientUnits="userSpaceOnUse" cy="36.686" cx="-6.1603" gradientTransform="matrix(.51735 0 0 .39006 11.481 43.19)" r="14.098"/>
  <radialGradient id="radialGradient3275" xlink:href="#linearGradient3463" gradientUnits="userSpaceOnUse" cy="36.686" cx="-6.1603" gradientTransform="matrix(1.6932 0 0 .38542 35.3 43.426)" r="14.098"/>
  <radialGradient id="radialGradient3278" xlink:href="#linearGradient3463" gradientUnits="userSpaceOnUse" cy="36.686" cx="-6.1603" gradientTransform="matrix(1.411 0 0 .39006 50.801 43.19)" r="14.098"/>
  <linearGradient id="linearGradient3281" y2="103.13" gradientUnits="userSpaceOnUse" x2="143.92" gradientTransform="matrix(2.0013 0 0 1.964 -245.52 -128.22)" y1="75.221" x1="143.92">
   <stop id="stop3244" style="stop-color:#f8b17e" offset="0"/>
   <stop id="stop3246" style="stop-color:#e35d4f" offset=".31210"/>
   <stop id="stop3248" style="stop-color:#c6262e" offset=".57054"/>
   <stop id="stop3250" style="stop-color:#690b54" offset="1"/>
  </linearGradient>
  <linearGradient id="linearGradient3283" y2="75.221" gradientUnits="userSpaceOnUse" x2="153.41" gradientTransform="matrix(2.0013 0 0 1.964 -245.52 -128.22)" y1="98.785" x1="153.41">
   <stop id="stop2492" style="stop-color:#791235" offset="0"/>
   <stop id="stop2494" style="stop-color:#dd3b27" offset="1"/>
  </linearGradient>
  <radialGradient id="radialGradient3286" xlink:href="#linearGradient3463" gradientUnits="userSpaceOnUse" cy="36.686" cx="-6.1603" gradientTransform="matrix(.51735 0 0 .39006 44.633 43.19)" r="14.098"/>
  <linearGradient id="linearGradient3294" y2="75.221" xlink:href="#linearGradient3434" gradientUnits="userSpaceOnUse" x2="153.41" gradientTransform="matrix(2.0013 0 0 1.964 -245.52 -128.22)" y1="98.785" x1="153.41"/>
 </defs>
 <path id="path3478" style="opacity:.2;fill-rule:evenodd;fill:url(#radialGradient3286)" d="m48.739 57.5c0.001 3.037-3.265 5.5-7.293 5.5-4.029 0-7.295-2.463-7.294-5.5-0.001-3.037 3.265-5.5 7.294-5.5 4.028 0 7.294 2.463 7.293 5.5z"/>
 <path id="text2400" style="fill-rule:evenodd;stroke:url(#linearGradient3283);fill:url(#linearGradient3281)" d="m58.627 23.029c-0.976-2.23-3.357-1.997-4.991-2.351-5.408-0.627-10.807 0.374-15.34 3.445-4.375 2.989-8.334 7.034-11.114 12.253-2.418 4.65-3.503 10.861-1.978 16.778 1.2 3.983 4.814 6.444 7.861 5.78 4.665-0.785 7.989-5.152 10.732-9.412 1.24-1.757 2.002-4.084 3.465-5.561-0.208 3.786-0.301 7.719 0.552 11.564 0.485 2.268 2.259 4.055 4.057 3.972 1.829-0.211 3.221-1.813 4.737-2.858 1.364-1.218 2.926-2.266 3.892-4.027-0.166-2.918-2.753-1.086-3.656-0.085-1.262 2.004-3.869 0.412-3.311-2.314 0.292-6.227 1.731-12.075 2.949-17.946 0.684-3.095 1.405-6.172 2.145-9.238zm-7.555 3.885c-2.317 7.382-4.82 14.895-9.102 20.618-2.02 2.611-4.982 4.978-8.248 3.722-2.257-1.009-2.78-4.328-2.829-6.824-0.291-7.373 3.238-13.478 7.65-17.162 3.076-2.469 7.051-3.587 10.934-2.381 0.733 0.275 1.528 0.988 1.595 2.027z"/>
 <path id="path3461" style="opacity:.2;fill-rule:evenodd;fill:url(#radialGradient3278)" d="m62 57.5c0.002 3.037-8.904 5.5-19.891 5.5s-19.894-2.463-19.892-5.5c-0.002-3.037 8.905-5.5 19.892-5.5s19.893 2.463 19.891 5.5z"/>
 <path id="path3482" style="opacity:.05;fill-rule:evenodd;fill:url(#radialGradient3275)" d="m48.739 57.565c0.003 3.002-10.685 5.435-23.869 5.435-13.185 0-23.872-2.433-23.87-5.435-0.00248-3.001 10.685-5.434 23.87-5.434 13.184 0 23.872 2.433 23.869 5.434z"/>
 <path id="path3474" style="opacity:.2;fill-rule:evenodd;fill:url(#radialGradient3272)" d="m15.587 57.5c0.001 3.037-3.265 5.5-7.2935 5.5-4.0286 0-7.2943-2.463-7.2935-5.5-0.00076-3.037 3.2649-5.5 7.2935-5.5 4.0285 0 7.2945 2.463 7.2935 5.5z"/>
 <path id="path3292" style="opacity:.4;stroke:url(#linearGradient3294);fill:none" d="m49.625 21.562c-3.849 0.155-7.553 1.22-10.781 3.407-4.258 2.909-8.054 6.815-10.75 11.875-2.303 4.43-3.328 10.424-1.875 16.062 1.072 3.557 4.251 5.548 6.625 5.032 0.021-0.001 0.041-0.001 0.062 0 4.135-0.696 7.32-4.756 10.032-8.969-0.001-0.011-0.001-0.021 0-0.031 1.109-1.573 1.878-3.958 3.593-5.688 0.301-0.287 0.746-0.363 1.124-0.191s0.614 0.557 0.595 0.972c-0.207 3.763-0.256 7.593 0.562 11.281 0.398 1.857 1.907 3.178 3 3.157 1.243-0.181 2.503-1.472 4.094-2.594 0.041-0.037 0.084-0.058 0.125-0.094 1.32-1.162 2.563-2.122 3.375-3.437-0.031-0.082-0.082-0.329-0.062-0.313 0.042 0.034 0.084 0.005-0.125 0.063-0.42 0.116-1.292 0.755-1.625 1.125l-0.032-0.031c-0.425 0.589-0.985 1.079-1.624 1.218-0.703 0.153-1.433-0.032-2-0.406-1.099-0.724-1.683-2.206-1.407-3.844 0.001-0.021-0.001-0.041 0-0.062 0.006-0.034-0.007-0.06 0-0.094h0.031c0.315-6.29 1.704-12.14 2.907-17.938 0.654-2.959 1.357-5.916 2.062-8.843-0.344-0.609-0.775-0.905-1.437-1.094-0.73-0.208-1.663-0.247-2.594-0.437-0.031-0.004-0.062 0.003-0.094 0-1.269-0.143-2.528-0.176-3.781-0.126zm-3.031 1.813c1.047 0.028 2.119 0.2 3.187 0.531 0.011 0.01 0.021 0.021 0.031 0.032 1.051 0.394 2.153 1.382 2.25 2.906 0.014 0.126 0.003 0.253-0.031 0.375-2.32 7.392-4.825 14.992-9.25 20.906v0.031c-1.066 1.379-2.412 2.733-4 3.594s-3.509 1.179-5.437 0.438h-0.032c-1.48-0.663-2.315-2.049-2.781-3.469-0.465-1.42-0.63-2.942-0.656-4.25-0.305-7.716 3.367-14.102 8-17.969h0.031c2.469-1.982 5.512-3.211 8.688-3.125z"/>
 <path id="text2396" style="stroke:#333;stroke-width:1px;fill:url(#linearGradient3266)" d="m39.09 59.5l-4.778-15h-19.572l-4.8978 15h-6.3422c6.0386-17 12.077-34 18.116-51h5.735c6.049 17 12.099 34 18.149 51h-6.41zm-6.715-21l-7.875-22.086-7.875 22.086h15.75z"/>
 <path id="path3422" style="opacity:.3;stroke:url(#linearGradient3263);stroke-width:1px;fill:none" d="m44.099 58.554l-17.447-49.054h-4.329s-17.465 49.217-17.465 49.217"/>
 <path id="path3447" style="opacity:.2;stroke-linejoin:round;stroke:url(#linearGradient3260);stroke-width:1px;fill:none" d="m24.5 13.5l9.313 26h-18.626l9.313-26z"/>
</svg>
