<?xml version="1.0" encoding="UTF-8" standalone="no"?>
<!-- Created with Inkscape (http://www.inkscape.org/) -->
<svg id="svg3955" xmlns:rdf="http://www.w3.org/1999/02/22-rdf-syntax-ns#" xmlns="http://www.w3.org/2000/svg" height="64px" width="64px" version="1.1" xmlns:cc="http://creativecommons.org/ns#" xmlns:xlink="http://www.w3.org/1999/xlink" xmlns:dc="http://purl.org/dc/elements/1.1/">
 <defs id="defs3957">
  <radialGradient id="radialGradient3016" fx="14.688" fy="37.456" gradientUnits="userSpaceOnUse" cy="41.059" cx="17.059" gradientTransform="matrix(1.2747 -.22815 .044756 1.2129 6.845 6.9167)" r="5.7385">
   <stop id="stop7069" style="stop-color:#fff" offset="0"/>
   <stop id="stop7071" style="stop-color:#fff;stop-opacity:0" offset="1"/>
  </radialGradient>
  <linearGradient id="linearGradient3019" y2="125.39" xlink:href="#linearGradient2372" gradientUnits="userSpaceOnUse" x2="26.257" gradientTransform="matrix(.42941 0 0 .43136 25.286 -39.532)" y1="137.54" x1="28.503"/>
  <linearGradient id="linearGradient2372">
   <stop id="stop2374" style="stop-color:#fff" offset="0"/>
   <stop id="stop2376" style="stop-color:#fff;stop-opacity:.34483" offset="1"/>
  </linearGradient>
  <radialGradient id="radialGradient3022" fx="14.758" fy="37.841" gradientUnits="userSpaceOnUse" cy="41.059" cx="17.059" gradientTransform="matrix(1.3422 -.21763 .029296 1.2546 29.701 -.63667)" r="5.7385">
   <stop id="stop3670" style="stop-color:#fff" offset="0"/>
   <stop id="stop3672" style="stop-color:#fff;stop-opacity:0" offset="1"/>
  </radialGradient>
  <linearGradient id="linearGradient3025" y2="125.39" xlink:href="#linearGradient2372" gradientUnits="userSpaceOnUse" x2="26.257" gradientTransform="matrix(.59270 0 0 .43136 45.148 -45.096)" y1="144.12" x1="28.739"/>
  <radialGradient id="radialGradient3031" xlink:href="#linearGradient5060" gradientUnits="userSpaceOnUse" cy="486.65" cx="605.71" gradientTransform="matrix(.063473 0 0 .030923 .10286 31.31)" r="117.14"/>
  <linearGradient id="linearGradient5060">
   <stop id="stop5062" offset="0"/>
   <stop id="stop5064" style="stop-opacity:0" offset="1"/>
  </linearGradient>
  <linearGradient id="linearGradient3038" y2="35.055" gradientUnits="userSpaceOnUse" x2="16.723" gradientTransform="matrix(1.3702 0 0 1.3295 -1.5587 -.075828)" y1="3" x1="16.723">
   <stop id="stop3463" style="stop-color:#fff" offset="0"/>
   <stop id="stop3465" style="stop-color:#fff;stop-opacity:0" offset="1"/>
  </linearGradient>
  <radialGradient id="radialGradient3044" xlink:href="#linearGradient259" gradientUnits="userSpaceOnUse" cy="35.737" cx="33.967" gradientTransform="matrix(1.1164 0 0 1.1201 -5.7183 -.39488)" r="86.708"/>
  <linearGradient id="linearGradient259">
   <stop id="stop260" style="stop-color:#828282" offset="0"/>
   <stop id="stop261" style="stop-color:#434343" offset="1"/>
  </linearGradient>
  <linearGradient id="linearGradient3046" y2="2" xlink:href="#linearGradient3582" gradientUnits="userSpaceOnUse" x2="33" gradientTransform="matrix(1.399 0 0 1.3352 -2.971 .18068)" y1="36.015" x1="33"/>
  <linearGradient id="linearGradient3582">
   <stop id="stop3584" style="stop-color:#333" offset="0"/>
   <stop id="stop3586" style="stop-color:#5a5a5a" offset="1"/>
  </linearGradient>
  <radialGradient id="radialGradient3050" xlink:href="#linearGradient259" gradientUnits="userSpaceOnUse" cy="35.737" cx="33.967" gradientTransform="matrix(1.1205 0 0 1.1194 -4.0647 -.41992)" r="86.708"/>
  <linearGradient id="linearGradient3052" y2="1.9853" xlink:href="#linearGradient3582" gradientUnits="userSpaceOnUse" x2="6" gradientTransform="matrix(1.4043 0 0 1.3336 -1.3078 .15685)" y1="36" x1="6"/>
  <linearGradient id="linearGradient3057" y2="22.407" gradientUnits="userSpaceOnUse" x2="12.872" gradientTransform="matrix(2.1899 0 0 2.069 -3.9025 1.6332)" y1=".70116" x1="12.872">
   <stop id="stop3618" style="stop-color:#f0c178" offset="0"/>
   <stop id="stop3270" style="stop-color:#e18941" offset=".5"/>
   <stop id="stop3620" style="stop-color:#ec4f18" offset="1"/>
  </linearGradient>
  <linearGradient id="linearGradient3059" y2="1.9999" gradientUnits="userSpaceOnUse" x2="12.248" gradientTransform="matrix(1.33 0 0 1.33 -.90884 .27977)" y1="34.993" x1="12.248">
   <stop id="stop3624" style="stop-color:#bb2b12" offset="0"/>
   <stop id="stop3626" style="stop-color:#cd7233" offset="1"/>
  </linearGradient>
  <radialGradient id="radialGradient3062" xlink:href="#linearGradient5060" gradientUnits="userSpaceOnUse" cy="486.65" cx="605.71" gradientTransform="matrix(-.063473 0 0 .030923 45.959 31.31)" r="117.14"/>
  <linearGradient id="linearGradient3953" y2="609.51" gradientUnits="userSpaceOnUse" y1="366.65" gradientTransform="matrix(.063473 0 0 .030923 .090369 31.31)" x2="302.86" x1="302.86">
   <stop id="stop5050" style="stop-opacity:0" offset="0"/>
   <stop id="stop5056" offset=".5"/>
   <stop id="stop5052" style="stop-opacity:0" offset="1"/>
  </linearGradient>
 </defs>
 <metadata id="metadata3960">
  <rdf:RDF>
   <cc:Work rdf:about="">
    <dc:format>image/svg+xml</dc:format>
    <dc:type rdf:resource="http://purl.org/dc/dcmitype/StillImage"/>
    <dc:title/>
   </cc:Work>
  </rdf:RDF>
 </metadata>
 <g id="layer1">
  <rect id="rect4173" style="opacity:.40206;fill:url(#linearGradient3953)" height="7.5098" width="30.648" y="42.648" x="7.7071"/>
  <path id="path5018" style="opacity:.40206;fill:url(#radialGradient3062)" d="m7.7071 42.648v7.5093c-3.2687 0.015-7.9021-1.682-7.9021-3.755 0-2.0727 3.6476-3.7542 7.9021-3.7542z"/>
  <rect id="rect3457" style="stroke-linejoin:round;stroke:url(#linearGradient3059);fill:url(#linearGradient3057)" rx="0" ry="0" height="43.87" width="25.251" y="3.6048" x="10.406"/>
  <path id="path3460" style="stroke-linejoin:round;stroke:#333;stroke-linecap:square;fill:none" d="m11.589 26.515h22.614"/>
  <path id="path3360" style="opacity:.36638;stroke-linejoin:round;stroke:#fff;stroke-linecap:square;display:block;fill:none" d="m11.726 27.545h22.603"/>
  <path id="path3385" style="stroke-linejoin:round;stroke:url(#linearGradient3052);display:block;fill:url(#radialGradient3050)" d="m10.629 3.5008v43.998h-6.7151c-0.57484-0.52096-0.13772-1.5553-0.27431-2.2928v-41.453l0.080166-0.17893 0.19414-0.0739h6.7151z"/>
  <rect id="rect3464" style="fill:#fff" height="2" width="3" y="5" x="6.0997"/>
  <path id="rect15391" style="stroke-linejoin:round;stroke:url(#linearGradient3046);display:block;fill:url(#radialGradient3044)" d="m35.502 47.552v-44.024h6.7181c0.33029 0 0.2733 1.3829 0.2733 2.2941 0 13.826 0.000003 27.651 0.000003 41.477-0.56318 0.53011-1.6813 0.12701-2.4786 0.25297h-4.5128z"/>
  <rect id="rect3766" style="fill:#fff" height="2" width="3" y="25" x="37.1"/>
  <rect id="rect3760" style="fill:#fff" height="2" width="3" y="5" x="37.1"/>
  <rect id="rect3772" style="fill:#fff" height="2" width="3" y="30" x="37.1"/>
  <rect id="rect2689" style="opacity:.4;stroke:url(#linearGradient3038);stroke-linecap:square;stroke-width:.99869;fill:none" rx="0" ry="0" height="41.215" width="36.995" y="4.5775" x="4.6071"/>
  <rect id="rect3774" style="fill:#fff" height="2" width="3" y="40" x="37.1"/>
  <rect id="rect3768" style="fill:#fff" height="2" width="3" y="35" x="37.1"/>
  <rect id="rect3762" style="fill:#fff" height="2" width="3" y="10" x="37.1"/>
  <rect id="rect3776" style="fill:#fff" height="2" width="3" y="45" x="37.1"/>
  <path id="path5058" style="opacity:.40206;fill:url(#radialGradient3031)" d="m38.355 42.648v7.5093c3.2687 0.01414 7.9021-1.6825 7.9021-3.7552s-3.6476-3.7542-7.9021-3.7542z"/>
  <rect id="rect3770" style="fill:#fff" height="2" width="3" y="20" x="37.1"/>
  <rect id="rect3764" style="fill:#fff" height="2" width="3" y="15" x="37.1"/>
  <path id="path3406" style="stroke-linejoin:round;stroke:#333;stroke-linecap:round;fill:#4d4d4d" d="m60.233 8.046c-7.9897 1.2777-16.002 4.4248-23.985 5.7351-2.1729 1.0904-1.3954 3.8599-1.5354 5.8134-0.000002 8.4523 0 16.905 0 25.357-5.579-1.2434-12.018 3.1092-12.065 9.0219-0.25119 3.797 3.4123 6.9432 7.0979 6.5955 4.9959-0.25621 9.3691-5.0957 8.8342-10.263-0.000001-8.4532 0-18.224 0-26.677 6.5889-0.95007 13.364-3.995 19.952-4.9469-0.000002 6.5163 0 14.35 0 20.866-5.346-1.5401-11.778 1.9904-12.664 7.6345-0.74072 3.3261 1.5835 6.6691 4.7583 7.6197 5.9428 1.948 12.59-3.7975 11.889-9.9416-0.01658-11.525 0.05005-23.049 0-34.574-0.14-1.1446-1.035-2.2979-2.282-2.24z"/>
  <path id="path3996" style="opacity:.4;fill:url(#linearGradient3025);fill-rule:evenodd" d="m58.922 40.149 0.07899-21.974c0.83247-0.10821-0.16123-0.01745 0.96133-0.1795 0.01539 4.1045 0 6.8691 0 22.371 0 0.11535-0.17471-0.0579-1.0403-0.21724h0.000004z"/>
  <path id="path2716" style="opacity:.6;fill:url(#radialGradient3022)" d="m61.502 45.851c0 3.9166-3.4484 7.6785-7.7021 8.4026-4.2538 0.72407-7.7021-1.864-7.7021-5.7805 0-3.9166 3.4484-7.6785 7.7021-8.4026 4.2538-0.72407 7.7021 1.864 7.7021 5.7805z"/>
  <path id="path2720" style="opacity:.4;fill:url(#linearGradient3019);fill-rule:evenodd" d="m35.083 45.712 0.000012-29.686s0.15558-1.6583 1.5632-1.664c0.12229 0.21182 23.749-5.8332 23.749-5.8332s0.49869 0.99805-9.3949 3.4714c-12 3-14.887 3.6356-14.887 5.1367v29.479c-0.31268-0.26683-0.40285-0.54429-1.03-0.70364v-0.2z"/>
  <path id="path2712" style="opacity:.6;fill:url(#radialGradient3016)" d="m37.743 51.559c0 3.7882-3.275 7.4268-7.315 8.1272-4.04 0.70033-7.315-1.8029-7.315-5.591 0-3.7882 3.275-7.4268 7.315-8.1272 4.04-0.70033 7.315 1.8029 7.315 5.591z"/>
  <rect id="rect3744" style="fill:#fff" height="2" width="3" y="10" x="6.0997"/>
  <rect id="rect3746" style="fill:#fff" height="2" width="3" y="15" x="6.0997"/>
  <rect id="rect3748" style="fill:#fff" height="2" width="3" y="25" x="6.0997"/>
  <rect id="rect3750" style="fill:#fff" height="2" width="3" y="35" x="6.0997"/>
  <rect id="rect3752" style="fill:#fff" height="2" width="3" y="20" x="6.0997"/>
  <rect id="rect3754" style="fill:#fff" height="2" width="3" y="30" x="6.0997"/>
  <rect id="rect3756" style="fill:#fff" height="2" width="3" y="40" x="6.0997"/>
  <rect id="rect3758" style="fill:#fff" height="2" width="3" y="45" x="6.0997"/>
 </g>
</svg>
