<?xml version="1.0" encoding="UTF-8" standalone="no"?>
<!-- Created with Inkscape (http://www.inkscape.org/) -->
<svg id="svg11300" xmlns="http://www.w3.org/2000/svg" height="64" width="64" version="1.0" xmlns:xlink="http://www.w3.org/1999/xlink">
 <defs id="defs3">
  <linearGradient id="linearGradient7962">
   <stop id="stop7964" style="stop-color:#fff" offset="0"/>
   <stop id="stop7966" style="stop-color:#fff;stop-opacity:0" offset="1"/>
  </linearGradient>
  <linearGradient id="linearGradient3688">
   <stop id="stop3690" offset="0"/>
   <stop id="stop3692" style="stop-opacity:0" offset="1"/>
  </linearGradient>
  <linearGradient id="linearGradient3702">
   <stop id="stop3704" style="stop-opacity:0" offset="0"/>
   <stop id="stop3710" offset=".5"/>
   <stop id="stop3706" style="stop-opacity:0" offset="1"/>
  </linearGradient>
  <linearGradient id="linearGradient5582" y2="48" gradientUnits="userSpaceOnUse" x2="45" gradientTransform="matrix(1.0405 0 0 1.0228 -7.0856 -6.247)" y1="25" x1="45">
   <stop id="stop139214" style="stop-color:#a7bce2" offset="0"/>
   <stop id="stop139216" style="stop-color:#5077b1" offset="1"/>
  </linearGradient>
  <linearGradient id="linearGradient5585" y2="48" gradientUnits="userSpaceOnUse" x2="37" gradientTransform="matrix(1.0376 0 0 1.0595 -6.1298 -7.9958)" y1="35" x1="37">
   <stop id="stop2266" style="stop-color:#d7e866" offset="0"/>
   <stop id="stop2268" style="stop-color:#8cab2a" offset="1"/>
  </linearGradient>
  <linearGradient id="linearGradient5588" y2="48" gradientUnits="userSpaceOnUse" x2="29" gradientTransform="matrix(1.0518 0 0 1.0595 -6.5018 -7.9957)" y1="30" x1="29">
   <stop id="stop4105" style="stop-color:#edd563" offset="0"/>
   <stop id="stop4107" style="stop-color:#e08223" offset="1"/>
  </linearGradient>
  <linearGradient id="linearGradient5590" y2="48" gradientUnits="userSpaceOnUse" x2="28.111" gradientTransform="matrix(1.0518 0 0 1.0595 -6.5018 -7.9957)" y1="30" x1="27.945">
   <stop id="stop6484" style="stop-color:#cd8033" offset="0"/>
   <stop id="stop6486" style="stop-color:#bb5e12" offset="1"/>
  </linearGradient>
  <linearGradient id="linearGradient5614" y2="40.938" xlink:href="#linearGradient7962" gradientUnits="userSpaceOnUse" x2="29" gradientTransform="matrix(1 0 0 1.02 -5 -6.2404)" y1="7.9375" x1="29"/>
  <linearGradient id="linearGradient5626" y2="34.939" gradientUnits="userSpaceOnUse" x2="48.851" gradientTransform="matrix(1.0072 0 0 1.1876 -5.2079 -7.5158)" y1="9.4142" x1="9.4142">
   <stop id="stop6282" style="stop-color:#fff" offset="0"/>
   <stop id="stop6284" style="stop-color:#dcdcdc" offset="1"/>
  </linearGradient>
  <linearGradient id="linearGradient5628" y2="9.4142" gradientUnits="userSpaceOnUse" x2="9.4142" gradientTransform="matrix(1.0072 0 0 1.1876 -5.2079 -7.5158)" y1="34.939" x1="48.851">
   <stop id="stop6290" style="stop-color:#969696" offset="0"/>
   <stop id="stop6292" style="stop-color:#bebebe" offset="1"/>
  </linearGradient>
  <radialGradient id="radialGradient6407" gradientUnits="userSpaceOnUse" cy=".023987" cx="5.0849" gradientTransform="matrix(1 0 0 .775 0 4.1625)" r="20">
   <stop id="stop5115" style="stop-color:#fff" offset="0"/>
   <stop id="stop5117" style="stop-color:#fff;stop-opacity:0" offset="1"/>
  </radialGradient>
  <radialGradient id="radialGradient6409" xlink:href="#linearGradient7962" gradientUnits="userSpaceOnUse" cy="32.166" cx="22.586" gradientTransform="matrix(1.1915 .035301 -.087913 2.9673 -1.8738 -70.934)" r="2"/>
  <radialGradient id="radialGradient6411" xlink:href="#linearGradient7962" gradientUnits="userSpaceOnUse" cy="34.829" cx="30.851" gradientTransform="matrix(.57452 9.8904e-7 -.0000040201 2.3352 13.126 -50.558)" r="2"/>
  <radialGradient id="radialGradient6413" xlink:href="#linearGradient7962" gradientUnits="userSpaceOnUse" cy="29.631" cx="38.497" gradientTransform="matrix(1.1448 -.061183 .24869 4.6532 -13.619 -114.74)" r="2"/>
  <radialGradient id="radialGradient6415" xlink:href="#linearGradient3688" gradientUnits="userSpaceOnUse" cy="43.5" cx="4.993" gradientTransform="matrix(2.2072 0 0 1.6 42.315 -13.886)" r="2.5"/>
  <radialGradient id="radialGradient6417" xlink:href="#linearGradient3688" gradientUnits="userSpaceOnUse" cy="43.5" cx="4.993" gradientTransform="matrix(2.2072 0 0 1.6 -33.529 -125.31)" r="2.5"/>
  <linearGradient id="linearGradient6419" y2="39.999" xlink:href="#linearGradient3702" gradientUnits="userSpaceOnUse" x2="25.058" gradientTransform="matrix(1.1015 0 0 1.1429 11.486 5.9998)" y1="47.028" x1="25.058"/>
  <radialGradient id="radialGradient6421" xlink:href="#linearGradient3688" gradientUnits="userSpaceOnUse" cy="43.5" cx="4.993" gradientTransform="matrix(2.014 0 0 1 41.931 12.214)" r="2.5"/>
  <radialGradient id="radialGradient6423" xlink:href="#linearGradient3688" gradientUnits="userSpaceOnUse" cy="43.5" cx="4.993" gradientTransform="matrix(2.014 0 0 1 -33.914 -99.214)" r="2.5"/>
  <linearGradient id="linearGradient6425" y2="39.999" xlink:href="#linearGradient3702" gradientUnits="userSpaceOnUse" x2="25.058" gradientTransform="matrix(1.0051 0 0 .71429 13.8 24.643)" y1="47.028" x1="25.058"/>
 </defs>
 <g id="g6427" transform="matrix(1.33 0 0 1.33 0.16 .15)">
  <path id="path3771" style="opacity:.2;fill-rule:evenodd;enable-background:new;fill:#464646" d="m17.152 43.474v0.77444h27.846v-0.77444h-27.846z"/>
  <g id="g6970" style="opacity:.9" transform="matrix(1.1468 0 0 1.125 -19.488 -28.178)">
   <rect id="rect3701" style="opacity:.26235;fill:url(#radialGradient6415)" height="8" width="5.5075" y="51.714" x="53.343"/>
   <rect id="rect3703" style="opacity:.26235;fill:url(#radialGradient6417)" transform="scale(-1)" height="8" width="5.5075" y="-59.714" x="-22.501"/>
   <rect id="rect3705" style="opacity:.26235;fill:url(#linearGradient6419)" height="8" width="30.842" y="51.714" x="22.501"/>
   <rect id="rect3717" style="opacity:.4;fill:url(#radialGradient6421)" height="5" width="5.0255" y="53.214" x="51.994"/>
   <rect id="rect3719" style="opacity:.4;fill:url(#radialGradient6423)" transform="scale(-1)" height="5" width="5.0255" y="-58.214" x="-23.851"/>
   <rect id="rect3721" style="opacity:.4;fill:url(#linearGradient6425)" height="5" width="28.143" y="53.214" x="23.851"/>
  </g>
  <rect id="rect5508" style="stroke-linejoin:round;fill-rule:evenodd;stroke:url(#linearGradient5628);stroke-linecap:round;stroke-width:.75188;fill:url(#linearGradient5626)" height="33.072" width="41.295" y="2.5785" x="3.3525"/>
  <rect id="rect7919" style="stroke-width:.76372;stroke:#bebebe;stroke-linecap:round;enable-background:new;fill:none" height="26.965" width="16.491" y="5.5176" x="25.142"/>
  <rect id="rect7917" style="stroke-width:.76164;stroke:#bebebe;stroke-linecap:round;enable-background:new;fill:none" height="26.966" width="11.266" y="5.5172" x="13.84"/>
  <rect id="rect7913" style="stroke:#bebebe;stroke-linecap:round;stroke-width:.72966;fill:none" height="26.312" width="3.7102" y="6.2686" x="6.3445"/>
  <rect id="rect7923" style="stroke-width:.73235;stroke:#bebebe;stroke-linecap:round;enable-background:new;fill:none" height="26.991" width="3.7654" y="5.5043" x="10.053"/>
  <rect id="rect7905" style="fill-rule:evenodd;stroke:#cd8033;stroke-linecap:round;stroke-width:.73525;fill:#deaa76" height="3.7896" width="35.316" y="5.5676" x="6.3421"/>
  <rect id="rect7907" style="fill-rule:evenodd;stroke:#c7af64;stroke-linecap:round;stroke-width:.75188;fill:#fed995" height="2.9976" width="35.374" y="13.877" x="6.2755"/>
  <rect id="rect7909" style="stroke-width:.76295;fill-rule:evenodd;stroke:#beaf6d;stroke-linecap:round;enable-background:new;fill:#fed995" height="2.1972" width="34.972" y="20.589" x="6.4388"/>
  <rect id="rect7911" style="stroke-width:.78642;fill-rule:evenodd;stroke:#beaf6d;stroke-linecap:round;enable-background:new;fill:#fed995" height="2.197" width="34.972" y="25.138" x="6.3639"/>
  <rect id="rect7921" style="stroke-width:.78642;fill-rule:evenodd;stroke:#beaf6d;stroke-linecap:round;enable-background:new;fill:#fed995" height="2.197" width="34.972" y="30.364" x="6.2887"/>
  <path id="rect7955" style="opacity:.3;fill:url(#linearGradient5614);fill-rule:evenodd" d="m7 6v1.02h34v-1.02h-34zm0 8.1603v1.02h34v-1.02h-34z"/>
  <rect id="rect7925" style="fill:#cd8033;fill-rule:evenodd" height="4" width="1" y="5.3008" x="9.5489"/>
  <rect id="rect7927" style="enable-background:new;fill:#cd8033;fill-rule:evenodd" height="4" width="1" y="5.2256" x="13.323"/>
  <rect id="rect7929" style="enable-background:new;fill:#cd8033;fill-rule:evenodd" height="4" width="1" y="5.3008" x="24.624"/>
  <rect id="rect7931" style="enable-background:new;fill:#beaf6d;fill-rule:evenodd" height="3.6992" width="1" y="13.451" x="9.5489"/>
  <rect id="rect7933" style="enable-background:new;fill:#beaf6d;fill-rule:evenodd" height="3.6992" width="1" y="13.451" x="13.323"/>
  <rect id="rect7935" style="enable-background:new;fill:#beaf6d;fill-rule:evenodd" height="3.9248" width="1" y="13.376" x="24.624"/>
  <rect id="rect7937" style="enable-background:new;fill:#beaf6d;fill-rule:evenodd" height="2.8496" width="1" y="20.15" x="9.5489"/>
  <rect id="rect7939" style="enable-background:new;fill:#beaf6d;fill-rule:evenodd" height="2.6992" width="1" y="20.15" x="24.624"/>
  <rect id="rect7941" style="enable-background:new;fill:#beaf6d;fill-rule:evenodd" height="2.8496" width="1" y="20.15" x="13.323"/>
  <rect id="rect7943" style="enable-background:new;fill:#beaf6d;fill-rule:evenodd" height="3" width="1" y="24.774" x="9.5489"/>
  <rect id="rect7945" style="enable-background:new;fill:#beaf6d;fill-rule:evenodd" height="3" width="1" y="24.774" x="13.323"/>
  <rect id="rect7947" style="enable-background:new;fill:#beaf6d;fill-rule:evenodd" height="3" width="1" y="24.85" x="25"/>
  <rect id="rect7949" style="enable-background:new;fill:#beaf6d;fill-rule:evenodd" height="3" width="1" y="30" x="9.5489"/>
  <rect id="rect7951" style="enable-background:new;fill:#beaf6d;fill-rule:evenodd" height="3" width="1" y="30" x="13.323"/>
  <rect id="rect7953" style="enable-background:new;fill:#beaf6d;fill-rule:evenodd" height="3" width="1" y="29.85" x="25"/>
  <rect id="rect7970" style="opacity:.8;stroke:url(#radialGradient6407);stroke-linecap:round;stroke-width:1.0006;fill:none" height="29.999" width="38.999" y="3.5003" x="4.5003"/>
  <path id="path3691" style="enable-background:new;fill:#cd8033;fill-rule:evenodd" d="m36.03 43.474v0.77444h0.77444v-0.77444h-0.77444z"/>
  <path id="path3689" style="enable-background:new;fill:#cd8033;fill-rule:evenodd" d="m38.256 43.474v0.77444h0.77444v-0.77444h-0.77444z"/>
  <path id="path8037" style="opacity:.2;fill-rule:evenodd;enable-background:new;fill:#464646" d="m14 15.624v1.6992h4v1.5263h-2.3008v0.62406h2.3008v1.3759h-2.3008v0.84962h2.3008v0.69925h-4v0.92481h4v1.5263h-2.3008v0.77444h2.3008v1.2256h-2.3008v1h2.3008v0.62406h-4v0.69925h4v1.6767h-2.3008v0.69925h2.3008v1.3008h-2.3008v1h2.3008v0.69925h-4v0.77444h4v1.5263h-2.3008v0.62406h2.3008v1.3759h-2.3008v0.92481h2.3008v2.0752h1 26v-0.62406h-26.301v-25.602h-4.6992z"/>
  <rect id="rect8085" style="fill-rule:evenodd;stroke:url(#linearGradient5590);stroke-linecap:round;stroke-width:.79370;fill:url(#linearGradient5588)" height="18.017" width="5.265" y="24.315" x="21.368"/>
  <rect id="rect8087" style="stroke-width:.78836;fill-rule:evenodd;stroke:#42770c;stroke-linecap:round;enable-background:new;fill:url(#linearGradient5585)" height="12.738" width="5.2116" y="29.605" x="29.657"/>
  <rect id="rect8089" style="stroke-width:.76732;fill-rule:evenodd;stroke:#0854a9;stroke-linecap:round;enable-background:new;fill:url(#linearGradient5582)" height="22.495" width="5.1951" y="19.839" x="37.14"/>
  <path id="rect7980" style="fill:#464646;fill-rule:evenodd" d="m14.15 15.624v0.84962h3v1.3759h-1.4511v1h1.4511v1.3008h-1.4511v0.69925h1.4511v0.84962h-3v0.77444h3v1.4511h-1.4511v0.84962h1.4511v1.3759h-1.4511v0.77444h1.4511v0.69925h-3v0.92481h3v1.3008h-1.4511v1h1.4511v1.3008h-1.4511v0.77444h1.4511v0.92481h-3v0.69925h3v1.5263h-1.4511v0.77444h1.4511v1.4511h-1.4511v0.69925h1.4511v3.8496h1 27v-1h-27.15v-26.226h-3.8496z"/>
  <path id="path6330" style="opacity:.6;stroke:url(#radialGradient6409);stroke-linecap:square;stroke-width:.75188;fill:none" d="m22.122 40.149v-15.005h3.0047v15.005"/>
  <path id="path6340" style="opacity:.6;stroke-width:.75188;stroke:url(#radialGradient6411);stroke-linecap:square;enable-background:new;fill:none" d="m30.498 40.374v-10.005h3.0049v10.005"/>
  <path id="path6344" style="opacity:.6;stroke-width:.75188;stroke:url(#radialGradient6413);stroke-linecap:square;enable-background:new;fill:none" d="m37.825 40.596v-19.997h2.9968v19.997"/>
  <path id="path3767" style="enable-background:new;fill:#cd8033;fill-rule:evenodd" d="m40.496 43.474v0.77444h0.77444v-0.77444h-0.77444z"/>
  <path id="path3769" style="enable-background:new;fill:#cd8033;fill-rule:evenodd" d="m42.722 43.474v0.77444h0.84962v-0.77444h-0.84962z"/>
  <path id="path3783" style="enable-background:new;fill:#cd8033;fill-rule:evenodd" d="m26.977 43.474v0.77444h0.77444v-0.77444h-0.77444z"/>
  <path id="path3785" style="enable-background:new;fill:#cd8033;fill-rule:evenodd" d="m29.203 43.474v0.77444h0.77444v-0.77444h-0.77444z"/>
  <path id="path3787" style="enable-background:new;fill:#cd8033;fill-rule:evenodd" d="m33.729 43.474v0.77444h0.77444v-0.77444h-0.77444z"/>
  <path id="path3795" style="enable-background:new;fill:#cd8033;fill-rule:evenodd" d="m31.444 43.474v0.77444h0.84962v-0.77444h-0.84962z"/>
  <path id="path3809" style="enable-background:new;fill:#cd8033;fill-rule:evenodd" d="m22.466 43.474v0.77444h0.77444v-0.77444h-0.77444z"/>
  <path id="path3811" style="enable-background:new;fill:#cd8033;fill-rule:evenodd" d="m24.692 43.474v0.77444h0.77444v-0.77444h-0.77444z"/>
  <path id="path3813" style="enable-background:new;fill:#cd8033;fill-rule:evenodd" d="m17.94 43.474v0.77444h0.77444v-0.77444h-0.77444z"/>
  <path id="path3815" style="enable-background:new;fill:#cd8033;fill-rule:evenodd" d="m20.165 43.474v0.77444h0.84962v-0.77444h-0.84962z"/>
 </g>
</svg>
