<?xml version="1.0" encoding="UTF-8" standalone="no"?>
<!-- Created with Inkscape (http://www.inkscape.org/) -->
<svg id="svg3422" xmlns="http://www.w3.org/2000/svg" height="22" width="22" version="1.0" xmlns:xlink="http://www.w3.org/1999/xlink">
 <defs id="defs3424">
  <linearGradient id="linearGradient2634" y2="2.9062" gradientUnits="userSpaceOnUse" x2="-51.786" gradientTransform="matrix(.39221 0 0 .44736 28.199 -1.7387)" y1="53.624" x1="-51.786">
   <stop id="stop5651" style="stop-color:#425a2d" offset="0"/>
   <stop id="stop5653" style="stop-color:#7f956d" offset="1"/>
  </linearGradient>
  <radialGradient id="radialGradient2632" gradientUnits="userSpaceOnUse" cy="11.49" cx="14.239" gradientTransform="matrix(0 1.5891 -2.5736 0 35.379 -19.998)" r="18">
   <stop id="stop5641" style="stop-color:#b5cc85" offset="0"/>
   <stop id="stop5643" style="stop-color:#9abe74" offset=".26238"/>
   <stop id="stop5645" style="stop-color:#669f4d" offset=".70495"/>
   <stop id="stop5647" style="stop-color:#47892b" offset="1"/>
  </radialGradient>
  <linearGradient id="linearGradient2629" y2="46.017" gradientUnits="userSpaceOnUse" x2="24" gradientTransform="matrix(.45454 0 0 .44186 .090934 .39537)" y1="2" x1="24">
   <stop id="stop3213" style="stop-color:#fff" offset="0"/>
   <stop id="stop3215" style="stop-color:#fff;stop-opacity:0" offset="1"/>
  </linearGradient>
  <linearGradient id="linearGradient2589" y2="12" spreadMethod="reflect" gradientUnits="userSpaceOnUse" x2="91" gradientTransform="matrix(.55867 0 0 .47440 -30.222 1.3696)" y1="28" x1="75.854">
   <stop id="stop4002" offset="0"/>
   <stop id="stop4004" style="stop-opacity:0" offset="1"/>
  </linearGradient>
  <linearGradient id="linearGradient2586" y2="12" spreadMethod="reflect" gradientUnits="userSpaceOnUse" x2="91" gradientTransform="matrix(.55867 0 0 .47440 -30.161 .31228)" y1="28" x1="75.854">
   <stop id="stop5295" style="stop-color:#fff" offset="0"/>
   <stop id="stop5297" style="stop-color:#fff;stop-opacity:0" offset="1"/>
  </linearGradient>
  <linearGradient id="linearGradient2583" y2="20.127" spreadMethod="reflect" gradientUnits="userSpaceOnUse" x2="-25.366" gradientTransform="matrix(.47059 0 0 .5 32.437 -2.506)" y1="34.497" x1="-43.305">
   <stop id="stop3761" offset="0"/>
   <stop id="stop3763" style="stop-opacity:0" offset="1"/>
  </linearGradient>
  <linearGradient id="linearGradient2625" y2="24.628" gradientUnits="userSpaceOnUse" x2="20.055" gradientTransform="matrix(.34830 0 0 .69672 2.6408 -3.1585)" y1="15.298" x1="16.626">
   <stop id="stop2687" style="stop-color:#fff" offset="0"/>
   <stop id="stop2689" style="stop-color:#fff;stop-opacity:0" offset="1"/>
  </linearGradient>
  <linearGradient id="linearGradient2579" y2=".19081" gradientUnits="userSpaceOnUse" x2="24.239" gradientTransform="matrix(.52272 0 0 .50498 .72074 -1.5)" y1="44.11" x1="24.239">
   <stop id="stop2601" style="stop-color:#355129" offset="0"/>
   <stop id="stop2603" style="stop-color:#7c8763" offset="1"/>
  </linearGradient>
  <linearGradient id="linearGradient2622" y2="5.4565" gradientUnits="userSpaceOnUse" x2="36.358" gradientTransform="matrix(.47785 0 0 .55248 -.62775 -.076128)" y1="8.059" x1="32.892">
   <stop id="stop8591" style="stop-color:#fefefe" offset="0"/>
   <stop id="stop8593" style="stop-color:#cbcbcb" offset="1"/>
  </linearGradient>
 </defs>
 <g id="layer1">
  <path id="path4160" style="stroke-linejoin:round;stroke-width:.99992;stroke:url(#linearGradient2634);fill:url(#radialGradient2632)" d="m2.5 0.49996h11.5c0.683 0.2373 4.541 3.1281 5.5 5v16h-17v-21-0.00004z"/>
  <path id="path2435" style="opacity:.4;stroke:url(#linearGradient2629);fill:none" d="m18.5 5.4682v15.032h-15v-19h10.394"/>
  <path id="path3743" style="opacity:.1;fill:url(#linearGradient2589)" d="m8.6061 6c-1.869 2.6415-3.7371 5.286-5.6061 7.928v8.072h13.318c1.228-1.736 1.418-2.001 2.682-3.787v-7.318c-3.668-1.7286-8.012-3.7727-10.394-4.895z"/>
  <path id="path3697" style="opacity:.4;fill:url(#linearGradient2586)" d="m8.6061 5c-1.869 2.6415-3.7371 5.286-5.6061 7.928v8.072h13.318c1.228-1.736 1.418-2.001 2.682-3.787v-7.3183c-3.668-1.7283-8.012-3.7724-10.394-4.8947z"/>
  <path id="path6223" style="opacity:.1;fill-rule:evenodd;fill:url(#linearGradient2583)" d="m9.0255 8.5408l-0.5882 0.7813 3.1177 1.4689 0.588-0.781-3.1175-1.4692zm-1.1765 1.5472l-0.5882 0.781 3.1172 1.469 0.589-0.782-3.118-1.468zm5.191 0.343l-0.588 0.782 3.118 1.468 0.588-0.781-3.118-1.469zm-6.3674 1.219l-0.603 0.781 3.1177 1.469 0.6029-0.781-3.1176-1.469zm5.1914 0.328l-0.589 0.782 3.118 1.468 0.588-0.781-3.117-1.469zm5.191 0.344l-0.603 0.766 2.309 1.093v-1.062l-1.706-0.797zm-11.574 0.891l-0.5883 0.765 3.1177 1.469 0.5882-0.766-3.1176-1.468zm5.2056 0.328l-0.603 0.781 3.118 1.469 0.603-0.781-3.118-1.469zm5.177 0.328l-0.589 0.781 3.118 1.469 0.368-0.484v-0.407l-2.897-1.359zm-11.559 0.891l-0.5882 0.781 3.1176 1.469 0.5883-0.782-3.1177-1.468zm5.1912 0.343l-0.5882 0.766 3.1171 1.469 0.589-0.766-3.1179-1.469zm5.1909 0.328l-0.588 0.766 3.118 1.469 0.588-0.766-3.118-1.469zm-11.456 0.954v1.046l2.4117 1.141 0.5883-0.781-3-1.406zm5.0882 0.265l-0.5882 0.781 3.1176 1.469 0.588-0.781-3.1174-1.469zm5.1764 0.328l-0.588 0.782 3.117 1.468 0.589-0.781-3.118-1.469zm-6.3676 1.235l-0.5882 0.781 3.1177 1.469 0.5881-0.782-3.1176-1.468zm-3.897 0.265v1.063l1.2353 0.578 0.5882-0.781-1.8235-0.86zm9.0886 0.063l-0.589 0.781 3.118 1.469 0.588-0.781-3.117-1.469zm-6.368 1.219l-0.5883 0.781 1.5294 0.719h2.1471l0.0294-0.032-3.1176-1.468zm5.191 0.328l-0.603 0.781 0.824 0.391h2.264l-2.485-1.172zm-7.9116 0.5v0.672h0.3676l0.2794-0.36-0.647-0.312z"/>
  <path id="path3522" style="opacity:.4;fill:#fff" d="m16 17h-2.757c-0.776-1.387-1.552-2.774-2.329-4.161-0.776 1.387-1.5521 2.774-2.3283 4.161h-2.5857c1.1526-1.891 2.3053-3.782 3.4579-5.673-1.0721-1.7757-2.1443-3.5514-3.2165-5.327h2.6636c0.7113 1.3192 1.423 2.6384 2.134 3.9576 0.696-1.3192 1.391-2.6384 2.087-3.9576h2.601c-1.085 1.8183-2.17 3.6366-3.255 5.455 1.176 1.848 2.352 3.697 3.528 5.545z"/>
  <path id="path3879" style="opacity:.2;fill:url(#linearGradient2625);fill-rule:evenodd" d="m3.7619 1c-0.4208 0-0.7619 0.6822-0.7619 1.5241v11.148c0.001 0.093 0.0215 0.182 0.0567 0.244 0.0351 0.062 0.0817 0.092 0.1283 0.082l15.674-4.964c0.08-0.0254 0.14-0.1633 0.141-0.3265v-3.0002l-5.098-4.7073h-10.14z"/>
  <path id="path2623" style="fill:url(#linearGradient2579)" d="m16 16h-2.757c-0.776-1.387-1.552-2.774-2.329-4.161-0.776 1.387-1.5521 2.774-2.3283 4.161h-2.5857c1.1526-1.891 2.3053-3.782 3.4579-5.673-1.0721-1.7757-2.1443-3.5514-3.2165-5.327h2.6636c0.7113 1.3192 1.423 2.6384 2.134 3.9576 0.696-1.3192 1.391-2.6384 2.087-3.9576h2.601c-1.085 1.8183-2.17 3.6366-3.255 5.455 1.176 1.848 2.352 3.697 3.528 5.545z"/>
  <path id="path3370" style="opacity:.2;fill-rule:evenodd" d="m13.075 1c1.157 0.3288 0.34 4.6144 0.34 4.6144s4.515-0.4278 5.607 1.195c1.489 2.2122-0.068-0.6352-0.173-0.8217-0.756-1.3401-3.867-4.5471-5.046-4.9412-0.088-0.0295-0.283-0.0465-0.728-0.0465z"/>
  <path id="path4474" style="fill:url(#linearGradient2622);fill-rule:evenodd" d="m13 1c1.526 0 1 4 1 4s4.992-0.4533 4.992 2c0-0.5977 0.056-1.4784-0.064-1.6559-0.839-1.243-3.744-3.8619-4.798-4.2976-0.086-0.0356-0.686-0.0465-1.13-0.0465z"/>
 </g>
</svg>
