<?xml version="1.0" encoding="UTF-8" standalone="no"?>
<!-- Created with Inkscape (http://www.inkscape.org/) -->

<svg
   xmlns:dc="http://purl.org/dc/elements/1.1/"
   xmlns:cc="http://creativecommons.org/ns#"
   xmlns:rdf="http://www.w3.org/1999/02/22-rdf-syntax-ns#"
   xmlns:svg="http://www.w3.org/2000/svg"
   xmlns="http://www.w3.org/2000/svg"
   xmlns:sodipodi="http://sodipodi.sourceforge.net/DTD/sodipodi-0.dtd"
   xmlns:inkscape="http://www.inkscape.org/namespaces/inkscape"
   width="48"
   height="48.000019"
   id="svg3109"
   version="1.1"
   inkscape:version="0.48+devel r12392"
   sodipodi:docname="application-exit.svg">
  <defs
     id="defs3111">
    <linearGradient
       id="linearGradient3257">
      <stop
         offset="0"
         style="stop-color:#a50000;stop-opacity:1"
         id="stop3259" />
      <stop
         offset="1"
         style="stop-color:#e73800;stop-opacity:1"
         id="stop3261" />
    </linearGradient>
  </defs>
  <sodipodi:namedview
     id="base"
     pagecolor="#ffffff"
     bordercolor="#666666"
     borderopacity="1.0"
     inkscape:pageopacity="0.0"
     inkscape:pageshadow="2"
     inkscape:zoom="3.040625"
     inkscape:cx="43.933702"
     inkscape:cy="5.4024359"
     inkscape:document-units="px"
     inkscape:current-layer="layer1"
     showgrid="false"
     fit-margin-top="0"
     fit-margin-left="0"
     fit-margin-right="0"
     fit-margin-bottom="0"
     inkscape:window-width="1366"
     inkscape:window-height="718"
     inkscape:window-x="0"
     inkscape:window-y="30"
     inkscape:window-maximized="1" />
  <metadata
     id="metadata3114">
    <rdf:RDF>
      <cc:Work
         rdf:about="">
        <dc:format>image/svg+xml</dc:format>
        <dc:type
           rdf:resource="http://purl.org/dc/dcmitype/StillImage" />
        <dc:title />
      </cc:Work>
    </rdf:RDF>
  </metadata>
  <g
     inkscape:label="Capa 1"
     inkscape:groupmode="layer"
     id="layer1"
     transform="translate(-533.14286,-554.07646)">
    <g
       transform="translate(-17.142856,-28.572008)"
       id="layer1-2"
       inkscape:label="Capa 1"
       style="fill:#38a2ec;fill-opacity:1">
      <g
         inkscape:label="Capa 1"
         id="layer1-3"
         transform="matrix(0.99996523,0,0,0.99996477,550.28655,-421.6775)"
         style="fill:#38a2ec;fill-opacity:1">
        <path
           inkscape:connector-curvature="0"
           id="path260"
           style="fill:#38a2ec;fill-opacity:1;fill-rule:nonzero;stroke:none"
           d="m 34.73378,1039.0962 c -5.918102,5.9181 -15.549136,5.9186 -21.467762,0 -5.918554,-5.9186 -5.918102,-15.5497 0,-21.4678 5.91857,-5.9185 15.549209,-5.9185 21.467764,0 C 40.652411,1023.547 40.652351,1033.1776 34.73378,1039.0962 Z M 12.332637,1016.695 c -6.444062,6.4441 -6.4445,16.8901 0,23.3346 6.444572,6.4445 16.890462,6.444 23.334524,0 6.44453,-6.4446 6.44457,-16.89 2e-6,-23.3346 -6.444501,-6.4445 -16.889996,-6.4445 -23.334526,0" />
        <path
           inkscape:connector-curvature="0"
           id="path262"
           style="fill:#38a2ec;fill-opacity:1;fill-rule:nonzero;stroke:none"
           d="m 17.466233,1020.8953 -0.933381,0.9333 6.533666,6.5337 -6.502398,6.5024 0.933381,0.9334 6.502398,-6.5024 6.502908,6.5029 0.933381,-0.9334 -6.502908,-6.5029 6.533668,-6.5337 -0.933381,-0.9333 -6.533668,6.5336 -6.533666,-6.5336" />
      </g>
    </g>
  </g>
</svg>
