<?xml version="1.0" encoding="UTF-8" standalone="no"?>
<!-- Created with Inkscape (http://www.inkscape.org/) -->

<svg
   xmlns:dc="http://purl.org/dc/elements/1.1/"
   xmlns:cc="http://creativecommons.org/ns#"
   xmlns:rdf="http://www.w3.org/1999/02/22-rdf-syntax-ns#"
   xmlns:svg="http://www.w3.org/2000/svg"
   xmlns="http://www.w3.org/2000/svg"
   xmlns:sodipodi="http://sodipodi.sourceforge.net/DTD/sodipodi-0.dtd"
   xmlns:inkscape="http://www.inkscape.org/namespaces/inkscape"
   width="48"
   height="48"
   id="svg3613"
   version="1.1"
   inkscape:version="0.48+devel r12392"
   sodipodi:docname="gnome-run.svg">
  <defs
     id="defs3615" />
  <sodipodi:namedview
     id="base"
     pagecolor="#ffffff"
     bordercolor="#666666"
     borderopacity="1.0"
     inkscape:pageopacity="0.0"
     inkscape:pageshadow="2"
     inkscape:zoom="3.0679688"
     inkscape:cx="-45.964237"
     inkscape:cy="4.8789347"
     inkscape:document-units="px"
     inkscape:current-layer="layer1"
     showgrid="false"
     inkscape:window-width="1366"
     inkscape:window-height="715"
     inkscape:window-x="0"
     inkscape:window-y="30"
     inkscape:window-maximized="1" />
  <metadata
     id="metadata3618">
    <rdf:RDF>
      <cc:Work
         rdf:about="">
        <dc:format>image/svg+xml</dc:format>
        <dc:type
           rdf:resource="http://purl.org/dc/dcmitype/StillImage" />
        <dc:title />
      </cc:Work>
    </rdf:RDF>
  </metadata>
  <g
     inkscape:label="Capa 1"
     inkscape:groupmode="layer"
     id="layer1"
     transform="translate(0,-1004.3622)">
    <path
       inkscape:connector-curvature="0"
       id="path204"
       style="fill:#38a2ec;fill-opacity:1;fill-rule:nonzero;stroke:none;display:inline"
       d="m 21.708322,1031.2234 c -2.339553,0 -4.235016,-1.8967 -4.235016,-4.2363 0,-2.3401 1.895463,-4.2356 4.235016,-4.2356 2.34015,0 4.235017,1.8955 4.235017,4.2356 0,2.3396 -1.894867,4.2363 -4.235017,4.2363 L 21.708322,1031.2234 z m 3.025013,-19.3612 -6.050025,0 0,3.2216 c -1.155553,0.2983 -2.241541,0.7604 -3.236147,1.3643 l -2.294784,-2.2949 -4.2773666,4.2781 2.3431846,2.3431 c -0.565687,0.9843 -0.992819,2.0546 -1.2644565,3.1877 l -3.370477,0 0,6.0502 3.4733285,0 c 0.298871,1.0818 0.742942,2.0987 1.312242,3.0363 l -2.4938216,2.4938 4.2773666,4.2792 2.542835,-2.544 c 0.926248,0.5324 1.928747,0.9402 2.988096,1.2131 l 0,3.6215 6.050025,0 0,-3.6215 c 1.059367,-0.2729 2.062461,-0.6807 2.988711,-1.2131 l 2.542833,2.5436 4.277369,-4.2788 -2.49382,-2.4938 c 0.569298,-0.9376 1.013368,-1.9545 1.31224,-3.0363 l 3.472714,0 0,-6.0502 -3.369863,0 c -0.271637,-1.1331 -0.698786,-2.2034 -1.264455,-3.1877 l 2.343184,-2.3431 -4.277386,-4.2781 -2.294763,2.2949 c -0.995221,-0.6039 -2.080614,-1.066 -3.236763,-1.3643 L 24.733335,1011.8622 z m -3.025013,20.5712 c 3.002636,0 5.445021,-2.443 5.445021,-5.4463 0,-3.0026 -2.442385,-5.4456 -5.445021,-5.4456 -3.002022,0 -5.44502,2.443 -5.44502,5.4456 0,3.0033 2.442998,5.4463 5.44502,5.4463 m 1.815007,-19.3612 0,2.9487 0.907504,0.234 c 1.027294,0.2658 2.006803,0.6776 2.911885,1.2278 l 0.811913,0.4924 0.670941,-0.6717 1.43929,-1.4386 2.566421,2.5665 -1.487693,1.4877 -0.655225,0.6545 0.461625,0.8036 c 0.51183,0.8911 0.894194,1.8561 1.136791,2.8669 l 0.222641,0.9283 3.113956,0 0,3.6298 -3.183522,0 -0.245632,0.8877 c -0.264395,0.9577 -0.661258,1.8766 -1.18035,2.7309 l -0.49249,0.8124 0.671551,0.6711 1.638348,1.6382 -2.566421,2.5666 -1.687341,-1.6868 -0.65521,-0.6552 -0.802846,0.4615 c -0.833097,0.4792 -1.737567,0.8459 -2.688035,1.0909 l -0.9081,0.2335 0,3.3493 -3.630014,0 0,-3.3493 -0.908118,-0.2335 c -0.949834,-0.245 -1.854322,-0.6117 -2.68742,-1.0909 l -0.803442,-0.4615 -0.654613,0.6552 -1.687344,1.6873 -2.566419,-2.5671 1.638347,-1.6382 0.671552,-0.6711 -0.492471,-0.8124 c -0.519093,-0.8543 -0.915975,-1.7732 -1.180966,-2.7309 l -0.245035,-0.8877 -3.1841188,0 0,-3.6298 3.1145528,0 0.222641,-0.9283 c 0.242,-1.0108 0.624958,-1.9758 1.13679,-2.8669 l 0.461626,-0.8036 -0.655226,-0.6545 -1.487692,-1.4877 2.566419,-2.5665 1.439292,1.4386 0.670956,0.6717 0.811912,-0.4924 c 0.905085,-0.5502 1.884576,-0.962 2.911274,-1.2278 l 0.907502,-0.234 0,-2.9487 3.630014,0" />
    <path
       style="fill:#38a2ec;fill-opacity:1;fill-rule:nonzero;stroke:none;display:inline"
       d="m 37.635469,1028.7633 -0.802087,0.802 0,0.4584 -0.458335,0 -0.05729,0.057 c -0.03672,-0.023 -0.07742,-0.036 -0.114583,-0.057 l -1.747403,0 c 0.527234,0.1526 1.020592,0.3739 1.48959,0.6589 l 0.48698,0.2864 0.372398,-0.4009 0.830732,-0.8308 1.489589,1.4894 -0.859378,0.8595 -0.401044,0.3724 0.28646,0.4584 c 0.294691,0.5132 0.51918,1.0792 0.658857,1.6614 l 0.114583,0.5442 1.804696,0 0,2.0625 -1.833341,0 -0.14323,0.5156 c -0.152226,0.5516 -0.388632,1.0836 -0.687503,1.5757 l -0.286458,0.4869 0.401042,0.3724 0.945316,0.9452 -1.489589,1.4897 -0.973963,-0.974 -0.372396,-0.4009 -0.458335,0.2863 c -0.479662,0.2758 -0.999644,0.489 -1.546882,0.6302 l -0.544273,0.1146 0,1.948 -2.062508,0 0,-1.948 -0.544273,-0.1146 c -0.546876,-0.1412 -1.067219,-0.3544 -1.546881,-0.6302 l -0.458335,-0.2863 -0.372396,0.4009 -0.973963,0.974 -1.489589,-1.4897 0.945316,-0.9452 0.401042,-0.3724 -0.286458,-0.4869 c -0.283469,-0.4667 -0.50674,-0.9687 -0.658857,-1.4896 -0.210705,0.094 -0.413273,0.2033 -0.630211,0.2864 0.169968,0.5565 0.39123,1.0875 0.687502,1.5756 l -1.432297,1.4321 2.463552,2.4637 1.460943,-1.4609 c 0.533295,0.3066 1.108828,0.5306 1.718757,0.6875 l 0,2.091 3.494805,0 0,-2.091 c 0.609939,-0.1569 1.185462,-0.3809 1.718757,-0.6875 l 1.460943,1.4609 2.463552,-2.4637 -1.432297,-1.4321 c 0.327778,-0.54 0.572717,-1.1245 0.744795,-1.7475 l 2.005215,0 0,-3.4947 -1.947925,0 c -0.156396,-0.6527 -0.390459,-1.2666 -0.716148,-1.8334 L 40.09902,1031.2267 z m -4.927104,4.2682 c -0.216054,0 -0.426333,0.015 -0.630211,0.057 l 0.630211,0.6301 c 1.347359,0 2.434905,1.0874 2.434905,2.4348 0,1.347 -1.087546,2.435 -2.434905,2.435 -0.350274,0 -0.672961,-0.095 -0.973962,-0.2291 l -0.544273,0.5441 c 0.449474,0.2494 0.968927,0.3726 1.518235,0.3726 1.728791,0 3.122409,-1.3934 3.122409,-3.1226 C 35.830775,1034.425 34.437156,1033.0315 32.708365,1033.0315 Z"
       id="path4055"
       inkscape:connector-curvature="0"
       sodipodi:nodetypes="ccccccccccccccccccccccccccccccccccccccccccccccccccccccccccccccccsccssccsss" />
  </g>
</svg>
