<?xml version="1.0" encoding="UTF-8" standalone="no"?>
<!-- Created with Inkscape (http://www.inkscape.org/) -->

<svg
   xmlns:dc="http://purl.org/dc/elements/1.1/"
   xmlns:cc="http://creativecommons.org/ns#"
   xmlns:rdf="http://www.w3.org/1999/02/22-rdf-syntax-ns#"
   xmlns:svg="http://www.w3.org/2000/svg"
   xmlns="http://www.w3.org/2000/svg"
   xmlns:sodipodi="http://sodipodi.sourceforge.net/DTD/sodipodi-0.dtd"
   xmlns:inkscape="http://www.inkscape.org/namespaces/inkscape"
   width="48"
   height="48"
   id="svg973"
   version="1.1"
   inkscape:version="0.48+devel r12392"
   sodipodi:docname="mail-encrytped.svg">
  <defs
     id="defs975" />
  <sodipodi:namedview
     id="base"
     pagecolor="#ffffff"
     bordercolor="#666666"
     borderopacity="1.0"
     inkscape:pageopacity="0.0"
     inkscape:pageshadow="2"
     inkscape:zoom="6.1359375"
     inkscape:cx="30.568669"
     inkscape:cy="23.269191"
     inkscape:document-units="px"
     inkscape:current-layer="layer1"
     showgrid="false"
     fit-margin-top="0"
     fit-margin-left="0"
     fit-margin-right="0"
     fit-margin-bottom="0"
     inkscape:window-width="1366"
     inkscape:window-height="715"
     inkscape:window-x="0"
     inkscape:window-y="30"
     inkscape:window-maximized="1" />
  <metadata
     id="metadata978">
    <rdf:RDF>
      <cc:Work
         rdf:about="">
        <dc:format>image/svg+xml</dc:format>
        <dc:type
           rdf:resource="http://purl.org/dc/dcmitype/StillImage" />
        <dc:title />
      </cc:Work>
    </rdf:RDF>
  </metadata>
  <g
     inkscape:label="Capa 1"
     inkscape:groupmode="layer"
     id="layer1"
     transform="translate(-413.14286,-488.36218)">
    <g
       transform="translate(413.14286,-516.00002)"
       id="layer1-8"
       inkscape:label="Capa 1">
      <path
         d="m 35.423073,1043.593 -22.846146,0 0,-14.5962 22.846146,0 L 35.423073,1043.593 z m -2.53846,-15.8654 -15.86538,0 0,-7.6154 c 0,-3.8496 3.13246,-6.9808 6.982036,-6.9808 3.848941,0 6.979498,3.1312 6.979498,6.9808 l 0,2.5385 1.26923,0 0,-2.5385 c 0,-4.5559 -3.69346,-8.25 -8.248728,-8.25 -4.556537,0 -8.251267,3.6941 -8.251267,8.25 l 0,7.6154 -4.442306,0 0,17.1346 25.384608,0 0,-17.1346 -3.807691,0"
         style="fill:#38a2ec;fill-opacity:1;fill-rule:nonzero;stroke:none;display:inline"
         id="path154"
         inkscape:connector-curvature="0" />
    </g>
  </g>
</svg>
