<?xml version="1.0" encoding="UTF-8" standalone="no"?>
<!-- Created with Inkscape (http://www.inkscape.org/) -->

<svg
   xmlns:dc="http://purl.org/dc/elements/1.1/"
   xmlns:cc="http://creativecommons.org/ns#"
   xmlns:rdf="http://www.w3.org/1999/02/22-rdf-syntax-ns#"
   xmlns:svg="http://www.w3.org/2000/svg"
   xmlns="http://www.w3.org/2000/svg"
   xmlns:sodipodi="http://sodipodi.sourceforge.net/DTD/sodipodi-0.dtd"
   xmlns:inkscape="http://www.inkscape.org/namespaces/inkscape"
   width="48"
   height="48"
   id="svg3070"
   version="1.1"
   inkscape:version="0.48+devel r12392"
   sodipodi:docname="gtk-sort-descending.svg">
  <defs
     id="defs3072" />
  <sodipodi:namedview
     id="base"
     pagecolor="#ffffff"
     bordercolor="#666666"
     borderopacity="1.0"
     inkscape:pageopacity="0.0"
     inkscape:pageshadow="2"
     inkscape:zoom="8.677526"
     inkscape:cx="42.1069"
     inkscape:cy="25.778477"
     inkscape:document-units="px"
     inkscape:current-layer="layer1"
     showgrid="false"
     fit-margin-top="0"
     fit-margin-left="0"
     fit-margin-right="0"
     fit-margin-bottom="0"
     inkscape:window-width="1366"
     inkscape:window-height="715"
     inkscape:window-x="0"
     inkscape:window-y="30"
     inkscape:window-maximized="1" />
  <metadata
     id="metadata3075">
    <rdf:RDF>
      <cc:Work
         rdf:about="">
        <dc:format>image/svg+xml</dc:format>
        <dc:type
           rdf:resource="http://purl.org/dc/dcmitype/StillImage" />
        <dc:title></dc:title>
      </cc:Work>
    </rdf:RDF>
  </metadata>
  <g
     inkscape:label="Capa 1"
     inkscape:groupmode="layer"
     id="layer1"
     transform="translate(-424.57143,-522.6479)">
    <path
       inkscape:connector-curvature="0"
       id="path156"
       style="fill:#38a2ec;fill-opacity:1;fill-rule:nonzero;stroke:none;display:inline"
       d="m 445.85327,535.97143 -16.30588,0 0,-3.88235 L 445.85327,532.08908 z m -18.24706,-5.82353 0,7.76471 20.18824,0 0,-7.76471 -20.18824,0"
       sodipodi:nodetypes="cccccccccc" />
    <path
       inkscape:connector-curvature="0"
       id="path158"
       style="fill:#38a2ec;fill-opacity:1;fill-rule:nonzero;stroke:none;display:inline"
       d="m 429.54739,544.70672 16.30588,0 0,3.88236 L 429.54739,548.58908 z m -1.94118,5.82353 20.18824,0 0,-7.7647 -20.18824,0 0,7.7647"
       sodipodi:nodetypes="cccccccccc" />
    <path
       inkscape:connector-curvature="0"
       id="path160"
       style="fill:#38a2ec;fill-opacity:1;fill-rule:nonzero;stroke:none;display:inline"
       d="m 429.54739,557.32437 16.30588,0 0,3.88235 L 429.54739,561.20672 z m -1.94118,5.82353 20.18824,0 0,-7.76471 -20.18824,0 0,7.76471"
       sodipodi:nodetypes="cccccccccc" />
    <path
       d="m 451.17894,541.49699 -1.37241,-1.37241 9.86506,-9.86506 9.86506,9.86506 -1.37241,1.37241 -7.52206,-7.52206 0,29.17297 -1.94118,0 0,-29.17297 -7.52206,7.52206"
       style="fill:#38a2ec;fill-opacity:1;fill-rule:nonzero;stroke:none"
       id="path62-5"
       inkscape:connector-curvature="0"
       sodipodi:nodetypes="cccccccccc" />
  </g>
</svg>
