<?xml version="1.0" encoding="UTF-8" standalone="no"?>
<!-- Created with Inkscape (http://www.inkscape.org/) -->

<svg
   xmlns:dc="http://purl.org/dc/elements/1.1/"
   xmlns:cc="http://creativecommons.org/ns#"
   xmlns:rdf="http://www.w3.org/1999/02/22-rdf-syntax-ns#"
   xmlns:svg="http://www.w3.org/2000/svg"
   xmlns="http://www.w3.org/2000/svg"
   xmlns:xlink="http://www.w3.org/1999/xlink"
   xmlns:sodipodi="http://sodipodi.sourceforge.net/DTD/sodipodi-0.dtd"
   xmlns:inkscape="http://www.inkscape.org/namespaces/inkscape"
   width="48"
   height="48"
   id="svg3049"
   version="1.1"
   inkscape:version="0.48+devel r12392"
   sodipodi:docname="view-preview.svg">
  <defs
     id="defs3051">
    <linearGradient
       inkscape:collect="always"
       xlink:href="#linearGradient3754"
       id="linearGradient3770"
       gradientUnits="userSpaceOnUse"
       x1="23.673292"
       y1="1046.1796"
       x2="23.673292"
       y2="1004.5619"
       gradientTransform="translate(-0.0416311,0.21835584)" />
    <linearGradient
       id="linearGradient3754">
      <stop
         style="stop-color:#b1731b;stop-opacity:1;"
         offset="0"
         id="stop3756" />
      <stop
         style="stop-color:#e6ac59;stop-opacity:1;"
         offset="1"
         id="stop3758" />
    </linearGradient>
    <linearGradient
       inkscape:collect="always"
       xlink:href="#linearGradient3754"
       id="linearGradient3767"
       gradientUnits="userSpaceOnUse"
       x1="23.673292"
       y1="1046.1796"
       x2="23.673292"
       y2="1004.5619"
       gradientTransform="translate(-0.0416311,0.21835584)" />
    <linearGradient
       id="linearGradient3919">
      <stop
         style="stop-color:#b1731b;stop-opacity:1;"
         offset="0"
         id="stop3921" />
      <stop
         style="stop-color:#e6ac59;stop-opacity:1;"
         offset="1"
         id="stop3923" />
    </linearGradient>
    <linearGradient
       y2="1004.5619"
       x2="23.673292"
       y1="1046.1796"
       x1="23.673292"
       gradientTransform="translate(-0.0416311,0.21835584)"
       gradientUnits="userSpaceOnUse"
       id="linearGradient3928"
       xlink:href="#linearGradient3754"
       inkscape:collect="always" />
    <linearGradient
       id="linearGradient3754-0">
      <stop
         style="stop-color:#b1731b;stop-opacity:1;"
         offset="0"
         id="stop3756-7" />
      <stop
         style="stop-color:#e6ac59;stop-opacity:1;"
         offset="1"
         id="stop3758-3" />
    </linearGradient>
  </defs>
  <sodipodi:namedview
     id="base"
     pagecolor="#ffffff"
     bordercolor="#666666"
     borderopacity="1.0"
     inkscape:pageopacity="0.0"
     inkscape:pageshadow="2"
     inkscape:zoom="8.6406249"
     inkscape:cx="23.259616"
     inkscape:cy="24.884523"
     inkscape:document-units="px"
     inkscape:current-layer="layer1"
     showgrid="false"
     fit-margin-top="0"
     fit-margin-left="0"
     fit-margin-right="0"
     fit-margin-bottom="0"
     inkscape:window-width="1366"
     inkscape:window-height="715"
     inkscape:window-x="0"
     inkscape:window-y="30"
     inkscape:window-maximized="1" />
  <metadata
     id="metadata3054">
    <rdf:RDF>
      <cc:Work
         rdf:about="">
        <dc:format>image/svg+xml</dc:format>
        <dc:type
           rdf:resource="http://purl.org/dc/dcmitype/StillImage" />
        <dc:title></dc:title>
      </cc:Work>
    </rdf:RDF>
  </metadata>
  <g
     inkscape:label="Capa 1"
     inkscape:groupmode="layer"
     id="layer1"
     transform="translate(-421.71429,-499.79074)">
    <path
       inkscape:connector-curvature="0"
       id="path60"
       style="fill:#38a2ec;fill-opacity:1;fill-rule:nonzero;stroke:none;display:inline"
       d="m 435.51823,538.18909 c -2.31789,0 -4.20288,-1.88503 -4.20288,-4.20295 0,-2.31688 1.88499,-4.20191 4.20288,-4.20191 2.31789,0 4.20288,1.88503 4.20288,4.20191 C 439.72111,536.30406 437.83612,538.18909 435.51823,538.18909 z m 0,-10.50636 c -3.48103,0 -6.3043,2.82124 -6.3043,6.30341 0,3.48109 2.82327,6.30444 6.3043,6.30444 3.48104,0 6.3043,-2.82335 6.3043,-6.30444 0,-3.48217 -2.82326,-6.30341 -6.3043,-6.30341" />
    <path
       inkscape:connector-curvature="0"
       id="path62"
       style="fill:#38a2ec;fill-opacity:1;fill-rule:nonzero;stroke:none;display:inline"
       d="m 435.51823,517.79725 c -2.31789,0 -4.20288,-1.88503 -4.20288,-4.20295 0,-2.31688 1.88499,-4.20191 4.20288,-4.20191 2.31789,0 4.20288,1.88503 4.20288,4.20191 C 439.72111,515.91222 437.83612,517.79725 435.51823,517.79725 z m 0,-10.50635 c -3.48103,0 -6.3043,2.82124 -6.3043,6.3034 0,3.48109 2.82327,6.30445 6.3043,6.30445 3.48104,0 6.3043,-2.82336 6.3043,-6.30445 0,-3.48216 -2.82326,-6.3034 -6.3043,-6.3034" />
    <path
       inkscape:connector-curvature="0"
       id="path72"
       style="fill:#38a2ec;fill-opacity:1;fill-rule:nonzero;stroke:none;display:inline"
       d="m 455.90963,538.18909 c -2.31789,0 -4.20288,-1.88503 -4.20288,-4.20295 0,-2.31688 1.88499,-4.20191 4.20288,-4.20191 2.31789,0 4.20287,1.88503 4.20287,4.20191 C 460.1125,536.30406 458.22752,538.18909 455.90963,538.18909 z m 0,-10.50636 c -3.48104,0 -6.30431,2.82124 -6.30431,6.30341 0,3.48109 2.82327,6.30444 6.30431,6.30444 3.48103,0 6.3043,-2.82335 6.3043,-6.30444 0,-3.48217 -2.82327,-6.30341 -6.3043,-6.30341" />
    <path
       inkscape:connector-curvature="0"
       id="path74"
       style="fill:#38a2ec;fill-opacity:1;fill-rule:nonzero;stroke:none;display:inline"
       d="m 455.90963,509.39239 c 2.31789,0 4.20287,1.88503 4.20287,4.20191 0,2.31792 -1.88498,4.20295 -4.20287,4.20295 -2.31789,0 -4.20288,-1.88503 -4.20288,-4.20295 C 451.70675,511.27742 453.59174,509.39239 455.90963,509.39239 z m 0,10.50636 c 3.48103,0 6.3043,-2.82336 6.3043,-6.30445 0,-3.48216 -2.82327,-6.3034 -6.3043,-6.3034 -3.48104,0 -6.30431,2.82124 -6.30431,6.3034 0,3.48109 2.82327,6.30445 6.30431,6.30445" />
  </g>
</svg>
