<?xml version="1.0" encoding="UTF-8" standalone="no"?>
<!-- Created with Inkscape (http://www.inkscape.org/) -->
<svg id="svg3506" xmlns:rdf="http://www.w3.org/1999/02/22-rdf-syntax-ns#" xmlns="http://www.w3.org/2000/svg" height="16" width="16" version="1.0" xmlns:cc="http://creativecommons.org/ns#" xmlns:xlink="http://www.w3.org/1999/xlink" xmlns:dc="http://purl.org/dc/elements/1.1/">
 <metadata id="metadata77">
  <rdf:RDF>
   <cc:Work rdf:about="">
    <dc:format>image/svg+xml</dc:format>
    <dc:type rdf:resource="http://purl.org/dc/dcmitype/StillImage"/>
    <dc:title/>
   </cc:Work>
  </rdf:RDF>
 </metadata>
 <defs id="defs3508">
  <linearGradient id="linearGradient3245" y2="4.8826" gradientUnits="userSpaceOnUse" x2="24.64" gradientTransform="matrix(.32242 0 0 .99898 .76981 -2.4457)" y1="3.1234" x1="24.627">
   <stop id="stop2348" style="stop-color:#eee" offset="0"/>
   <stop id="stop2350" style="stop-color:#d9d9da" offset="1"/>
  </linearGradient>
  <linearGradient id="linearGradient3247" y2=".065302" gradientUnits="userSpaceOnUse" x2="55.495" gradientTransform="matrix(.23001 0 0 .48528 1.0687 .14473)" y1="5.2438" x1="5.7542">
   <stop id="stop3268" style="stop-color:#4e555a" offset="0"/>
   <stop id="stop3270" style="stop-color:#151c20" offset=".12283"/>
   <stop id="stop3272" style="stop-color:#9b876c" offset=".14490"/>
   <stop id="stop3274" style="stop-color:#9b876c" offset=".75216"/>
   <stop id="stop3276" style="stop-color:#9b876c" offset=".89877"/>
   <stop id="stop3278" style="stop-color:#c2c2c2" offset=".91783"/>
   <stop id="stop3280" style="stop-color:#c2c2c2" offset="1"/>
  </linearGradient>
  <linearGradient id="linearGradient3250" y2="24.62" gradientUnits="userSpaceOnUse" x2="40.978" gradientTransform="matrix(.28641 0 0 .27442 .91861 2.2437)" y1="4.0341" x1="28.252">
   <stop id="stop3200" style="stop-color:#fff" offset="0"/>
   <stop id="stop3202" style="stop-color:#fff;stop-opacity:0" offset="1"/>
  </linearGradient>
  <linearGradient id="linearGradient3255" y2="25.019" gradientUnits="userSpaceOnUse" x2="8.5001" gradientTransform="matrix(.28572 0 0 .35714 .57141 -.42857)" y1="25.019" x1="5.4801">
   <stop id="stop8980" style="stop-color:#4d5459;stop-opacity:.99608" offset="0"/>
   <stop id="stop8982" style="stop-color:#141b1f" offset="1"/>
  </linearGradient>
  <linearGradient id="linearGradient3258" y2="46" gradientUnits="userSpaceOnUse" x2="38.491" gradientTransform="matrix(.31475 0 0 .32452 .74311 .72464)" y1="9.8889" x1="16.102">
   <stop id="stop8969" style="stop-color:#ddcfbd" offset="0"/>
   <stop id="stop8971" style="stop-color:#856f50" offset="1"/>
  </linearGradient>
  <linearGradient id="linearGradient3260" y2="61.22" gradientUnits="userSpaceOnUse" x2="53.453" gradientTransform="matrix(.22646 0 0 .23349 .75336 1.3584)" y1="11.03" x1="22.334">
   <stop id="stop3321" style="stop-color:#af9b7f" offset="0"/>
   <stop id="stop3323" style="stop-color:#736148" offset="1"/>
  </linearGradient>
  <linearGradient id="linearGradient5530" y2="39.268" gradientUnits="userSpaceOnUse" x2="24.139" gradientTransform="matrix(.20131 0 0 .19992 7.4133 7.3089)" y1="7.0479" x1="24.139">
   <stop id="stop3945" style="stop-color:#fff" offset="0"/>
   <stop id="stop3947" style="stop-color:#fff;stop-opacity:0" offset="1"/>
  </linearGradient>
  <radialGradient id="radialGradient3183" gradientUnits="userSpaceOnUse" cx="69.448" cy="51.695" r="31" gradientTransform="matrix(0 .25031 -.27259 0 25.245 -8.0767)">
   <stop id="stop3244-5" style="stop-color:#eef87e" offset="0"/>
   <stop id="stop3246-9" style="stop-color:#cde34f" offset=".26238"/>
   <stop id="stop3248-7" style="stop-color:#93b723" offset=".66094"/>
   <stop id="stop3250-8" style="stop-color:#5a7e0d" offset="1"/>
  </radialGradient>
  <linearGradient id="linearGradient3185" y2="51.244" gradientUnits="userSpaceOnUse" y1="124.76" gradientTransform="matrix(.10408 0 0 .10482 2.8406 2.7754)" x2="72.422" x1="72.422">
   <stop id="stop2492-3" style="stop-color:#365f0e" offset="0"/>
   <stop id="stop2494-8" style="stop-color:#84a718" offset="1"/>
  </linearGradient>
 </defs>
 <g id="layer1">
  <rect id="rect2719" style="stroke-linejoin:round;stroke:url(#linearGradient3260);stroke-linecap:round;stroke-miterlimit:0;stroke-width:1.019;fill:url(#linearGradient3258)" rx=".30969" ry=".33013" height="12.981" width="10.981" y="2.5095" x="2.5095"/>
  <path id="path2721" style="fill:url(#linearGradient3255)" d="m2 1c0.8255 0.5241 1.5644 0.3068 2 0.3608v14.639h-1.5917s-0.4083 0-0.4083-0.42v-14.58z"/>
  <rect id="rect2725" style="fill:#4d4d4d" rx=".64036" ry=".79862" height="13.589" width=".59336" y="1.5949" x="3.3707"/>
  <path id="path2723" style="stroke-linejoin:round;stroke:url(#linearGradient3247);stroke-miterlimit:0;stroke-width:1.0174;fill:url(#linearGradient3245)" d="m13.491 2.2678c-0.095-0.6438-0.035-1.1451-0.088-1.7591h-9.7105c-0.5042 0-1.0025 0.14958-1.1431 0.7583-0.0079 0.0342-0.0166 0.0688-0.0215 0.1061-0.129 0.6275 0.4052 1.1182 1.2219 1.1182h0.4865"/>
  <path id="path4743" style="opacity:.4;stroke-linejoin:round;stroke:url(#linearGradient3250);stroke-linecap:square;stroke-width:.96683;fill:none" d="m4.4834 3.4925l8.0336-0.0091v11.034"/>
  <path id="path4494" style="fill-rule:evenodd;stroke:#a18d72;stroke-width:1px;fill:#a18d72" d="m13.036 2.5h-9.0719"/>
  <path id="path3282" style="opacity:.4;fill:#fff" d="m7.7557 9.5117c0 0.3196 0.0686 0.5713 0.2058 0.7563 0.1399 0.184 0.3287 0.277 0.5662 0.277 0.2349 0 0.4223-0.093 0.5622-0.277 0.1399-0.187 0.2099-0.4393 0.2099-0.7563 0-0.3144-0.0713-0.5626-0.2138-0.7444-0.1399-0.1845-0.3287-0.2768-0.5662-0.2768-0.2323 0-0.4184 0.0923-0.5583 0.2768-0.1372 0.1818-0.2058 0.43-0.2058 0.7444m1.6233 1.1733c-0.0792 0.184-0.2072 0.329-0.3841 0.432-0.1742 0.102-0.3788 0.152-0.6137 0.152-0.454 0-0.8235-0.161-1.1086-0.483-0.2824-0.325-0.4236-0.747-0.4236-1.2665 0-0.5197 0.1425-0.9419 0.4276-1.2667 0.285-0.3248 0.6533-0.4872 1.1046-0.4872 0.2349 0 0.4395 0.052 0.6137 0.1559 0.1769 0.1039 0.3049 0.2481 0.3841 0.4326v-0.5106h0.827v2.7015c0.328-0.05 0.585-0.204 0.773-0.464 0.187-0.2627 0.281-0.5979 0.281-1.0058 0-0.2599-0.039-0.5028-0.115-0.7289-0.077-0.2286-0.193-0.4378-0.349-0.6275-0.25-0.317-0.564-0.5612-0.9419-0.7327-0.3748-0.1715-0.7813-0.2573-1.2195-0.2573-0.3062 0-0.5992 0.0403-0.8789 0.1209-0.2798 0.0779-0.5385 0.1935-0.7761 0.3468-0.3906 0.2547-0.6955 0.5847-0.9146 0.99-0.2164 0.4028-0.3246 0.8393-0.3246 1.3096 0 0.3872 0.0699 0.7509 0.2098 1.0909 0.1426 0.338 0.3471 0.637 0.6137 0.897 0.264 0.254 0.5662 0.448 0.9067 0.581 0.3431 0.135 0.7087 0.202 1.0967 0.202 0.3326 0 0.6652-0.061 0.9977-0.183 0.3326-0.122 0.616-0.287 0.851-0.495l0.424 0.631c-0.33 0.253-0.69 0.445-1.081 0.577-0.388 0.135-0.7826 0.203-1.1838 0.203-0.4883 0-0.9489-0.086-1.3818-0.257-0.4328-0.169-0.8182-0.416-1.1561-0.741-0.3378-0.325-0.5952-0.7-0.772-1.126-0.1769-0.429-0.2653-0.8888-0.2653-1.3799 0-0.4729 0.0897-0.9237 0.2692-1.3524 0.1795-0.4288 0.4355-0.8055 0.7681-1.1303 0.3326-0.3222 0.7193-0.5717 1.1601-0.7484 0.4434-0.1767 0.9027-0.265 1.3778-0.265 0.5913 0 1.1284 0.1117 1.6118 0.3352 0.483 0.2209 0.887 0.5405 1.211 0.9588 0.198 0.2546 0.347 0.5314 0.448 0.8302 0.103 0.2962 0.154 0.608 0.154 0.9354 0 0.7041-0.215 1.2514-0.645 1.6404-0.431 0.39-1.038 0.585-1.8216 0.585h-0.1544v-0.6"/>
  <path id="path2779" style="fill:#746956" d="m7.7557 8.5117c0 0.3196 0.0686 0.5716 0.2058 0.7561 0.1399 0.1845 0.3287 0.2767 0.5662 0.2767 0.2349 0 0.4223-0.0922 0.5622-0.2767 0.1399-0.1871 0.2099-0.4391 0.2099-0.7561 0-0.3144-0.0713-0.5626-0.2138-0.7444-0.1399-0.1845-0.3287-0.2768-0.5662-0.2768-0.2323 0-0.4184 0.0923-0.5583 0.2768-0.1372 0.1818-0.2058 0.43-0.2058 0.7444m1.6233 1.1732c-0.0792 0.1844-0.2072 0.3291-0.3841 0.4321-0.1742 0.102-0.3788 0.152-0.6137 0.152-0.454 0-0.8235-0.161-1.1086-0.4828-0.2824-0.3248-0.4236-0.747-0.4236-1.2667s0.1425-0.9419 0.4276-1.2667c0.285-0.3248 0.6533-0.4872 1.1046-0.4872 0.2349 0 0.4395 0.052 0.6137 0.1559 0.1769 0.1039 0.3049 0.2481 0.3841 0.4326v-0.5106h0.827v2.701c0.328-0.0493 0.585-0.2039 0.773-0.4638 0.187-0.2624 0.281-0.5976 0.281-1.0055 0-0.2599-0.039-0.5028-0.115-0.7289-0.077-0.2286-0.193-0.4378-0.349-0.6275-0.25-0.317-0.564-0.5612-0.9419-0.7327-0.3748-0.1715-0.7813-0.2573-1.2195-0.2573-0.3062 0-0.5992 0.0403-0.8789 0.1209-0.2798 0.0779-0.5385 0.1935-0.7761 0.3468-0.3906 0.2547-0.6955 0.5847-0.9146 0.99-0.2164 0.4028-0.3246 0.8393-0.3246 1.3096 0 0.3872 0.0699 0.7509 0.2098 1.0913 0.1426 0.3378 0.3471 0.6366 0.6137 0.8966 0.264 0.254 0.5662 0.448 0.9067 0.581 0.3431 0.135 0.7087 0.202 1.0967 0.202 0.3326 0 0.6652-0.061 0.9977-0.183 0.3326-0.122 0.616-0.287 0.851-0.495l0.424 0.631c-0.33 0.253-0.69 0.445-1.081 0.577-0.388 0.135-0.7826 0.203-1.1838 0.203-0.4883 0-0.9489-0.086-1.3818-0.257-0.4328-0.169-0.8182-0.416-1.1561-0.741-0.3378-0.325-0.5952-0.7-0.772-1.1262-0.1769-0.4287-0.2653-0.8886-0.2653-1.3797 0-0.4729 0.0897-0.9237 0.2692-1.3524 0.1795-0.4288 0.4355-0.8055 0.7681-1.1303 0.3326-0.3222 0.7193-0.5717 1.1601-0.7484 0.4434-0.1767 0.9027-0.265 1.3778-0.265 0.5913 0 1.1284 0.1117 1.6118 0.3352 0.483 0.2209 0.887 0.5405 1.211 0.9588 0.198 0.2546 0.347 0.5314 0.448 0.8302 0.103 0.2962 0.154 0.608 0.154 0.9354 0 0.7041-0.215 1.2511-0.645 1.6408-0.431 0.3896-1.038 0.5846-1.8216 0.5846h-0.1544v-0.6001"/>
 </g>
 <path id="path2262" style="stroke-linejoin:round;stroke-width:.98543;color:#000000;stroke:url(#linearGradient3185);stroke-linecap:round;fill:url(#radialGradient3183)" d="m10.5 10.5v-2.0073h3v2.0073h2.0073v3h-2.0073v2.0073h-3v-2.0073h-2.0073v-3h2.0073z"/>
 <path id="path2272" style="opacity:.4;stroke:url(#linearGradient5530);fill:none" d="m11.5 11.5v-2h1v2h2v1h-2v2.2925h-1v-2.2925h-2v-1h2z"/>
</svg>
