<?xml version="1.0" encoding="UTF-8" standalone="no"?>
<!-- Created with Inkscape (http://www.inkscape.org/) -->
<svg id="svg3591" xmlns="http://www.w3.org/2000/svg" height="16" width="16" version="1.0" xmlns:xlink="http://www.w3.org/1999/xlink">
 <defs id="defs3593">
  <linearGradient id="linearGradient3738" y2="13.214" gradientUnits="userSpaceOnUse" x2="14.953" gradientTransform="matrix(.36876 0 0 .36876 -0.851 -.85137)" y1="45.381" x1="14.953">
   <stop id="stop5356" style="stop-color:#3f3f3f" offset="0"/>
   <stop id="stop5358" offset="1"/>
  </linearGradient>
  <linearGradient id="linearGradient3736" y2="45.348" gradientUnits="userSpaceOnUse" x2="28.771" gradientTransform="matrix(.36876 0 0 .36876 -0.851 -.85137)" y1="12.918" x1="28.771">
   <stop id="stop2147" style="stop-color:#fffffd" offset="0"/>
   <stop id="stop2149" style="stop-color:#cbcbc9" offset="1"/>
  </linearGradient>
  <linearGradient id="linearGradient3630" y2="5.9722" gradientUnits="userSpaceOnUse" x2="63.761" gradientTransform="matrix(.74324 0 0 .74322 -38.23 10.609)" y1="-12.929" x1="63.761">
   <stop id="stop37937" style="stop-color:#929292" offset="0"/>
   <stop id="stop37939" style="stop-color:#4a4a4a" offset="1"/>
  </linearGradient>
  <linearGradient id="linearGradient3578" y2="32.485" gradientUnits="userSpaceOnUse" x2="24.104" gradientTransform="matrix(.32803 0 0 .32571 4.445 4.532)" y1="15.169" x1="24.104">
   <stop id="stop3567" style="stop-color:#ecf5b6" offset="0"/>
   <stop id="stop3949" style="stop-color:#9fba48" offset="1"/>
  </linearGradient>
 </defs>
 <g id="layer1">
  <path id="path2555" style="stroke-linejoin:round;stroke:url(#linearGradient3738);stroke-linecap:round;stroke-width:.99995;fill:url(#linearGradient3736)" d="m7.9941 0.49998c-4.1393 0-7.4941 3.3548-7.4941 7.4941s3.3548 7.5059 7.4941 7.5059 7.5059-3.3666 7.5059-7.5059-3.3666-7.4941-7.5059-7.4941z"/>
  <path id="path8655" style="opacity:.52747;stroke:url(#linearGradient3630);fill:none" d="m14.5 7.9998c0 3.5902-2.91 6.5002-6.4999 6.5002s-6.5001-2.91-6.5001-6.5002c0-3.5898 2.9102-6.4998 6.5001-6.4998s6.4999 2.91 6.4999 6.4998z"/>
  <path id="path2312" style="stroke:#000;stroke-linecap:round;stroke-width:.5;fill:none" d="m7.6741 8.4713 4.7109-4.7111"/>
  <path id="path2314" style="stroke:#000;stroke-linecap:round;stroke-width:.5;fill:none" d="m8.4391 8.5061-3.1466-3.1465"/>
  <path id="path2316" style="fill-rule:evenodd;stroke:red;stroke-linecap:round;stroke-width:.5;fill:red" d="m7.7785 8.228 5.3645-1.4375"/>
  <path id="path2262" style="stroke-linejoin:round;fill-rule:evenodd;stroke:#699536;stroke-width:1.0151;fill:url(#linearGradient3578)" d="m10.5 10.5v-1.9925h3v1.9925h1.9925v3h-1.9925v1.9925h-3v-1.9925h-1.9925v-3h1.9925z"/>
 </g>
</svg>
