<?xml version="1.0" encoding="UTF-8" standalone="no"?>
<!-- Created with Inkscape (http://www.inkscape.org/) -->

<svg
   xmlns:dc="http://purl.org/dc/elements/1.1/"
   xmlns:cc="http://creativecommons.org/ns#"
   xmlns:rdf="http://www.w3.org/1999/02/22-rdf-syntax-ns#"
   xmlns:svg="http://www.w3.org/2000/svg"
   xmlns="http://www.w3.org/2000/svg"
   xmlns:sodipodi="http://sodipodi.sourceforge.net/DTD/sodipodi-0.dtd"
   xmlns:inkscape="http://www.inkscape.org/namespaces/inkscape"
   id="svg2457"
   height="128"
   width="128"
   version="1.0"
   sodipodi:docname="document-properties.svg"
   inkscape:version="0.92.5 (2060ec1f9f, 2020-04-08)">
  <metadata
     id="metadata20">
    <rdf:RDF>
      <cc:Work
         rdf:about="">
        <dc:format>image/svg+xml</dc:format>
        <dc:type
           rdf:resource="http://purl.org/dc/dcmitype/StillImage" />
        <dc:title></dc:title>
      </cc:Work>
    </rdf:RDF>
  </metadata>
  <sodipodi:namedview
     pagecolor="#ffffff"
     bordercolor="#666666"
     borderopacity="1"
     objecttolerance="10"
     gridtolerance="10"
     guidetolerance="10"
     inkscape:pageopacity="0"
     inkscape:pageshadow="2"
     inkscape:window-width="4240"
     inkscape:window-height="2338"
     id="namedview18"
     showgrid="false"
     inkscape:zoom="10.429825"
     inkscape:cx="63.824149"
     inkscape:cy="85.063218"
     inkscape:window-x="144"
     inkscape:window-y="54"
     inkscape:window-maximized="1"
     inkscape:current-layer="svg2457" />
  <defs
     id="defs2459">
    <linearGradient
       id="linearGradient3260"
       y2="20.895"
       gradientUnits="userSpaceOnUse"
       x2="84.639"
       gradientTransform="matrix(0.096142,0,0,0.096142,1.8469,1.943)"
       y1="105.1"
       x1="86.133003">
      <stop
         id="stop5130"
         style="stop-color:#e5e5e5"
         offset="0" />
      <stop
         id="stop5132"
         style="stop-color:#ababab"
         offset="1" />
    </linearGradient>
    <linearGradient
       id="linearGradient3264"
       y2="16.004999"
       gradientUnits="userSpaceOnUse"
       x2="21"
       gradientTransform="translate(-17.058)"
       x1="21">
      <stop
         id="stop3399"
         style="stop-color:#aaa"
         offset="0" />
      <stop
         id="stop3401"
         style="stop-color:#8c8c8c"
         offset="1" />
    </linearGradient>
    <linearGradient
       id="linearGradient3262"
       y2="16"
       gradientUnits="userSpaceOnUse"
       x2="25"
       gradientTransform="translate(-17.058)"
       x1="25">
      <stop
         id="stop3311"
         style="stop-color:#f6f6f6"
         offset="0" />
      <stop
         id="stop3313"
         style="stop-color:#ccc"
         offset="1" />
    </linearGradient>
  </defs>
  <g
     id="g832"
     transform="matrix(7.9871738,0,0,7.9871738,0,-894.35615)">
    <g
       transform="translate(0,112)"
       id="layer1">
      <g
         id="g2479">
        <path
           inkscape:connector-curvature="0"
           d="M 6.9375,0.5 C 6.6891,0.5 6.5,0.68908 6.5,0.9375 v 1.25 C 5.9461,2.3297 5.4488,2.5594 4.9688,2.8438 L 4.0625,1.9375 c -0.17566,-0.17566 -0.44934,-0.17566 -0.625,0 l -1.5,1.5 c -0.17566,0.17566 -0.17566,0.44934 0,0.625 L 2.8438,4.9688 C 2.5594,5.4488 2.3297,5.9461 2.1875,6.5 h -1.25 C 0.68908,6.5 0.5,6.6891 0.5,6.9375 v 2.125 c 1e-8,0.24842 0.18908,0.4375 0.4375,0.4375 h 1.25 c 0.1422,0.5539 0.37188,1.0512 0.65625,1.5312 l -0.9063,0.907 c -0.17566,0.17566 -0.17566,0.44934 0,0.625 l 1.5,1.5 c 0.17566,0.17566 0.44934,0.17566 0.625,0 l 0.9063,-0.907 c 0.48,0.285 0.9773,0.514 1.5312,0.656 v 1.25 c 1e-7,0.24842 0.18908,0.4375 0.4375,0.4375 h 2.125 c 0.2484,0 0.4375,-0.189 0.4375,-0.438 v -1.25 c 0.5539,-0.1422 1.0512,-0.37188 1.5312,-0.65625 l 0.90625,0.90625 c 0.17566,0.17566 0.44934,0.17566 0.625,0 l 1.5,-1.5 c 0.17566,-0.17566 0.17566,-0.44934 0,-0.625 l -0.906,-0.906 c 0.285,-0.48 0.514,-0.977 0.656,-1.531 h 1.25 c 0.249,0 0.438,-0.1891 0.438,-0.4375 v -2.125 c 0,-0.2484 -0.189,-0.4375 -0.438,-0.4375 h -1.25 c -0.142,-0.5539 -0.371,-1.0512 -0.656,-1.5312 l 0.906,-0.9063 c 0.17566,-0.17566 0.17566,-0.44934 0,-0.625 l -1.5,-1.5 c -0.17566,-0.17566 -0.44934,-0.17566 -0.625,0 l -0.906,0.9063 c -0.48,-0.2844 -0.977,-0.5141 -1.531,-0.6563 v -1.25 C 9.5004,0.68878 9.3113,0.4997 9.0629,0.4997 H 6.9379 Z M 8,6 c 1.104,0 2,0.896 2,2 0,1.104 -0.896,2 -2,2 C 6.896,10 6,9.104 6,8 6,6.896 6.896,6 8,6 Z"
           style="display:block;fill:url(#linearGradient3262);stroke:url(#linearGradient3264);stroke-linejoin:round"
           id="path2426" />
        <path
           inkscape:connector-curvature="0"
           d="M 8,3.4651 C 5.4994,3.4651 3.4651,5.4994 3.4651,8 c 0,2.501 2.0343,4.535 4.5349,4.535 2.501,0 4.535,-2.034 4.535,-4.535 C 12.535,5.4994 10.501,3.4651 8,3.4651 Z m 0,2.093 c 1.3479,0 2.4419,1.094 2.4419,2.4419 0,1.3479 -1.094,2.4419 -2.4419,2.4419 -1.3479,0 -2.4419,-1.0941 -2.4419,-2.442 C 5.5581,6.652 6.6521,5.558 8,5.558 Z"
           style="opacity:0.05"
           id="path3315" />
        <path
           inkscape:connector-curvature="0"
           d="M 8,4 C 5.7944,4 4,5.7944 4,8 c 0,2.206 1.7944,4 4,4 2.206,0 4,-1.794 4,-4 C 12,5.7944 10.206,4 8,4 Z"
           style="fill:none;stroke:url(#linearGradient3260)"
           id="path28" />
      </g>
    </g>
  </g>
</svg>
