<?xml version="1.0" encoding="UTF-8" standalone="no"?>
<!-- Created with Inkscape (http://www.inkscape.org/) -->
<svg id="svg11300" xmlns="http://www.w3.org/2000/svg" height="16" width="16" version="1.0" xmlns:xlink="http://www.w3.org/1999/xlink">
 <defs id="defs3">
  <linearGradient id="linearGradient3771">
   <stop id="stop3773" style="stop-color:#fff" offset="0"/>
   <stop id="stop3775" style="stop-color:#4d4d4d" offset="1"/>
  </linearGradient>
  <linearGradient id="linearGradient2867" y2="33" gradientUnits="userSpaceOnUse" x2="22.008" gradientTransform="matrix(.33544 0 0 .36882 -.050653 -.45805)" y1="21" x1="21.919">
   <stop id="stop6830" style="stop-color:#6e6e6e" offset="0"/>
   <stop id="stop6832" style="stop-color:#1e1e1e" offset="1"/>
  </linearGradient>
  <linearGradient id="linearGradient2869" y2="21" gradientUnits="userSpaceOnUse" x2="15.335" gradientTransform="matrix(.33544 0 0 .36882 -.050653 -.45805)" y1="33" x1="15.601">
   <stop id="stop2368" style="stop-color:#2e3436" offset="0"/>
   <stop id="stop2370" style="stop-color:#555753" offset="1"/>
  </linearGradient>
  <radialGradient id="radialGradient2872" gradientUnits="userSpaceOnUse" cy="11.918" cx="3.7591" gradientTransform="matrix(.31702 .0053612 -.0040037 .19224 .43812 6.4967)" r="21">
   <stop id="stop6844" style="stop-color:#fff" offset="0"/>
   <stop id="stop6846" style="stop-color:#fff;stop-opacity:0" offset="1"/>
  </radialGradient>
  <linearGradient id="linearGradient2875" y2="37" gradientUnits="userSpaceOnUse" x2="11.506" gradientTransform="matrix(.34884 0 0 0.375 -.37213 -.18762)" y1="20" x1="11.519">
   <stop id="stop8591" style="stop-color:#fefefe" offset="0"/>
   <stop id="stop8593" style="stop-color:#bebebe" offset="1"/>
  </linearGradient>
  <linearGradient id="linearGradient2877" y2="20" gradientUnits="userSpaceOnUse" x2="20.279" gradientTransform="matrix(.34884 0 0 0.375 -.37213 -.18761)" y1="37" x1="20.562">
   <stop id="stop6868" style="stop-color:#828282" offset="0"/>
   <stop id="stop6870" style="stop-color:#aaa" offset="1"/>
  </linearGradient>
  <radialGradient id="radialGradient3777" xlink:href="#linearGradient3771" gradientUnits="userSpaceOnUse" cy="5" cx="5" r="4"/>
  <linearGradient id="linearGradient3793" y2="9.3198" xlink:href="#linearGradient3771" gradientUnits="userSpaceOnUse" x2="8.9341" y1="7.9055" x1="10.243"/>
 </defs>
 <rect id="rect2315" style="stroke-linejoin:round;stroke:#3c3d3a;stroke-linecap:round;stroke-width:1.0001;fill:#505050" rx=".29157" ry=".36185" height="7.9999" width="11" y="3.5" x="2.5"/>
 <g id="layer1" transform="matrix(.69407 0 0 .73254 2.444 .13360)">
  <path id="rect2594" style="stroke-linejoin:round;stroke:#b5b6b2;stroke-width:1.3958;fill:#f4f4f4" d="m1.4976 0.49763 13.005 0.002374v15.002h-13.005v-15.005z"/>
 </g>
 <path id="rect6333" style="stroke:#3c3d3a;stroke-linecap:square;stroke-width:.99971;fill:#505050" d="m1.505 12.5c0.025372 0.51806-0.0657 1.0755 0.080353 1.5555 0.27398 0.60919 0.87867 0.40888 1.283 0.44374 0.0073 0.35961 0.029665 0.91477 0.34211 0.99126 3.3006 0.01952 6.2781 0.0028 9.579 0.0084 0.34064 0.01588 0.35312-0.58079 0.34211-0.95942 0.11125-0.09326 0.42744-0.01386 0.58107-0.04021 0.38015 0.0815 0.84497-0.32979 0.78162-1.0137v-0.98556h-12.989z"/>
 <path id="rect2313" style="stroke-linejoin:round;stroke:url(#linearGradient2877);stroke-linecap:round;stroke-width:.99993;fill:url(#linearGradient2875)" d="m1.2252 7.5h13.55c0.40178 0 0.72523 0.34771 0.72523 0.77962v5.2204h-15v-5.2204c0-0.43191 0.32345-0.77962 0.72522-0.77962z"/>
 <path id="rect2374" style="opacity:.9;stroke:url(#radialGradient2872);stroke-linecap:round;stroke-width:.99991;fill:none" d="m1.817 8.5h12.366c0.1645 0 0.31707 0.13748 0.31707 0.28572v3.7144h-13v-3.7144c0-0.14824 0.15257-0.28572 0.31708-0.28572z"/>
 <rect id="rect2319" style="stroke:url(#linearGradient2869);stroke-linecap:round;stroke-width:.94302;fill:url(#linearGradient2867)" height="4.057" width="9.057" y="7.4715" x="3.4715"/>
 <path id="rect6331" style="fill:#e6e6e6" d="m13 14v0.875c0 0.069-0.07 0.125-0.156 0.125h-9.6875c-0.086562 0-0.15625-0.05575-0.15625-0.125v-0.875h9.9998z"/>
 <path id="path3220" style="fill:url(#linearGradient3793);fill-rule:evenodd" d="m7.2452 6.5361c-0.050332 0.0187-0.097798 0.044595-0.14056 0.076684l-0.8496 0.5352c-0.1292 0.0759-0.2199 0.199-0.2468 0.3351-0.0269 0.1362 0.0129 0.2708 0.1082 0.3667l5.1409 5.0157c0.08856 0.09167 0.21845 0.14038 0.35726 0.13396 0.13881-0.0064 0.27343-0.06734 0.37025-0.16757l0.88067-0.91068c0.18017-0.19038 0.17933-0.4658-0.002-0.62516l-5.1725-4.6402c-0.1092-0.1114-0.2782-0.1568-0.4463-0.1197z"/>
 <path id="path2447" style="fill-opacity:.66667;fill-rule:evenodd;stroke:url(#radialGradient3777);stroke-width:1.8873;fill:#fff" d="m8.0563 5c0 1.688-1.3684 3.0563-3.0563 3.0563-1.688 0-3.0563-1.3684-3.0563-3.0563 0-1.688 1.3684-3.0563 3.0563-3.0563 1.688 0 3.0563 1.3684 3.0563 3.0563z"/>
</svg>
