<?xml version="1.0" encoding="UTF-8" standalone="no"?>
<!-- Created with Inkscape (http://www.inkscape.org/) -->
<svg id="svg8657" xmlns="http://www.w3.org/2000/svg" height="16" width="16" version="1.1" xmlns:xlink="http://www.w3.org/1999/xlink">
 <defs id="defs8659">
  <linearGradient id="linearGradient8655" y2="41.392" gradientUnits="userSpaceOnUse" x2="9.5221" gradientTransform="matrix(.37638 .036153 0.0367 .37487 -2.2183 -1.1331)" y1="37.372" x1="5.5179">
   <stop id="stop2613" style="stop-color:#dbce48" offset="0"/>
   <stop id="stop2615" style="stop-color:#c5b625" offset="1"/>
  </linearGradient>
  <linearGradient id="linearGradient8653" y2="26.03" gradientUnits="userSpaceOnUse" x2="9" gradientTransform="matrix(.40402 -.40569 .60738 .60227 -17.637 .46249)" y1="29.057" x1="9">
   <stop id="stop2607" style="stop-color:#ece5a5" offset="0"/>
   <stop id="stop2609" style="stop-color:#fcfbf2" offset="1"/>
  </linearGradient>
  <linearGradient id="linearGradient8651" y2="30" gradientUnits="userSpaceOnUse" x2="30.038" gradientTransform="matrix(.40402 -.40569 .60738 .60227 -17.177 -.00021970)" y1="24.99" x1="30.038">
   <stop id="stop2599" style="stop-color:#b1b1b1" offset="0"/>
   <stop id="stop2601" style="stop-color:#fff" offset=".5"/>
   <stop id="stop2603" style="stop-color:#8f8f8f" offset="1"/>
  </linearGradient>
  <linearGradient id="linearGradient8649" y2="30" gradientUnits="userSpaceOnUse" x2="30.038" gradientTransform="matrix(.40402 -.40569 .60738 .60227 -17.062 -.11641)" y1="24.99" x1="30.038">
   <stop id="stop2591" style="stop-color:#565656" offset="0"/>
   <stop id="stop2593" style="stop-color:#9a9a9a" offset=".5"/>
   <stop id="stop2595" style="stop-color:#545454" offset="1"/>
  </linearGradient>
  <linearGradient id="linearGradient8647" y2="30" gradientUnits="userSpaceOnUse" x2="30.038" gradientTransform="matrix(.40402 -.40569 .60738 .60227 -17.581 .40547)" y1="24.99" x1="30.038">
   <stop id="stop2583" style="stop-color:#b1b1b1" offset="0"/>
   <stop id="stop2585" style="stop-color:#fff" offset=".5"/>
   <stop id="stop2587" style="stop-color:#8f8f8f" offset="1"/>
  </linearGradient>
  <linearGradient id="linearGradient8645" y2="30" gradientUnits="userSpaceOnUse" x2="30.038" gradientTransform="matrix(.40402 -.40569 .60738 .60227 -17.466 .28929)" y1="24.99" x1="30.038">
   <stop id="stop2575" style="stop-color:#565656" offset="0"/>
   <stop id="stop2577" style="stop-color:#9a9a9a" offset=".5"/>
   <stop id="stop2579" style="stop-color:#545454" offset="1"/>
  </linearGradient>
  <linearGradient id="linearGradient8643" y2="30" gradientUnits="userSpaceOnUse" x2="30.038" gradientTransform="matrix(.40402 -.40569 .60738 .60227 -17.983 .80921)" y1="24.99" x1="30.038">
   <stop id="stop2567" style="stop-color:#b1b1b1" offset="0"/>
   <stop id="stop2569" style="stop-color:#fff" offset=".5"/>
   <stop id="stop2571" style="stop-color:#8f8f8f" offset="1"/>
  </linearGradient>
  <linearGradient id="linearGradient8641" y2="30" gradientUnits="userSpaceOnUse" x2="30.038" gradientTransform="matrix(.40402 -.40569 .60738 .60227 -17.868 .69303)" y1="24.99" x1="30.038">
   <stop id="stop2559" style="stop-color:#565656" offset="0"/>
   <stop id="stop2561" style="stop-color:#9a9a9a" offset=".5"/>
   <stop id="stop2563" style="stop-color:#545454" offset="1"/>
  </linearGradient>
  <linearGradient id="linearGradient8639" y2="31.211" gradientUnits="userSpaceOnUse" x2="23.576" gradientTransform="matrix(.41578 -.41749 .51898 .51462 -15.747 2.6504)" y1="25.357" x1="23.576">
   <stop id="stop2541" style="stop-color:#181818" offset="0"/>
   <stop id="stop2543" style="stop-color:#dbdbdb" offset=".13483"/>
   <stop id="stop2545" style="stop-color:#a4a4a4" offset=".20224"/>
   <stop id="stop2547" style="stop-color:#fff" offset=".26966"/>
   <stop id="stop2549" style="stop-color:#8d8d8d" offset=".44650"/>
   <stop id="stop2551" style="stop-color:#959595" offset=".57114"/>
   <stop id="stop2553" style="stop-color:#cecece" offset=".72038"/>
   <stop id="stop2555" style="stop-color:#181818" offset="1"/>
  </linearGradient>
 </defs>
 <g id="layer1">
  <path id="path2422" style="opacity:.15;fill:#0c0c0c;fill-rule:evenodd" d="m13.22 12.085c-0.1356-0.02111-0.23946-0.01225-0.30769 0.003l-9.0875 2.0172-1.6725 0.37219-0.051633 0.008-1.9387 1.4327 4.9498-0.07402 0.040722-0.0095 1.6834-0.3707 9.0846-2.0326c0.27291-0.06092-0.1773-0.40993-1.01-0.78431-0.62452-0.28079-1.2837-0.49854-1.6905-0.56188z"/>
  <g id="g8626" transform="matrix(1.03 0 0 1.0325 -.016773 -.52153)">
   <path id="rect2383" style="stroke-linejoin:round;stroke:#0c0c0c;stroke-width:.48484;fill:url(#linearGradient8639)" d="m2.0488 11.037c0.28654-0.20771 1.148 0.25639 1.9603 1.0619 0.81045 0.80363 1.2602 1.6413 1.0576 1.9306-0.0007708 0.0011 0.01977 0.01774 0.01898 0.01882l10.138-10.18c0.258-0.2581-0.213-1.1432-1.051-1.9744-0.838-0.8311-1.728-1.295-1.986-1.0366l-10.138 10.18z"/>
   <path id="rect3175" style="opacity:.8;stroke-linejoin:round;stroke:#e28ccd;stroke-width:.48484;fill:#ffb6ed" d="m10.565 2.4841c0.28654-0.20771 1.148 0.25639 1.9603 1.0619 0.81044 0.80363 1.2602 1.6413 1.0576 1.9306-0.000769 0.0011 0.01977 0.017738 0.01898 0.018821l1.552-1.5571c0.409-0.4086-0.029-1.0928-0.981-2.0447-0.813-0.8055-1.674-1.2696-1.96-1.0619l-0.02525 0.025356-1.6218 1.6271z"/>
   <path id="path3208" style="opacity:.6;fill:#0c0c0c" d="m2.0488 11.037c0.28654-0.20771 1.148 0.25639 1.9603 1.0619 0.81044 0.80363 1.2602 1.6413 1.0576 1.9306-0.0007714 0.0011 0.01977 0.01774 0.01898 0.01882l6.982-7.0109 0.02525-0.025356c0.00079-0.00108-0.01975-0.01772-0.01898-0.01882 0.203-0.2885-0.247-1.1262-1.058-1.9298-0.812-0.8056-1.6734-1.2697-1.9599-1.062l-0.025251 0.025355-6.982 7.0109z"/>
   <path id="path3233" style="fill:url(#linearGradient8641)" d="m9.1785 3.8767c0.28654-0.20771 1.148 0.25639 1.9603 1.0619 0.81044 0.80363 1.2602 1.6413 1.0576 1.9306-0.000771 0.0011 0.01977 0.017736 0.01898 0.01882l0.12626-0.12678c0.00079-0.00108-0.01975-0.01772-0.01898-0.01882 0.203-0.2892-0.246-1.1269-1.057-1.9305-0.812-0.8056-1.6737-1.2697-1.9602-1.062l-0.12626 0.12678z"/>
   <path id="path3216" style="fill:url(#linearGradient8643)" d="m9.0628 3.9929c0.28654-0.20771 1.148 0.25639 1.9603 1.0619 0.81044 0.80363 1.2602 1.6413 1.0576 1.9306-0.000771 0.0011 0.01977 0.017738 0.01898 0.018822l0.126-0.1268c0.00079-0.00108-0.01975-0.017721-0.01898-0.018821 0.203-0.2892-0.247-1.1269-1.058-1.9305-0.812-0.8056-1.6734-1.2697-1.9599-1.062l-0.1263 0.1268z"/>
   <path id="path3248" style="fill:url(#linearGradient8645)" d="m9.5806 3.473c0.28654-0.20771 1.148 0.25639 1.9603 1.0619 0.81045 0.80363 1.2602 1.6413 1.0576 1.9306-0.000773 0.0011 0.01977 0.017737 0.01898 0.01882l0.12626-0.12678c0.000791-0.00108-0.01975-0.017721-0.01898-0.01882 0.202-0.2892-0.247-1.1269-1.058-1.9306-0.812-0.8055-1.6736-1.2696-1.9601-1.0619l-0.1263 0.1268z"/>
   <path id="path3250" style="fill:url(#linearGradient8647)" d="m9.4649 3.5891c0.28654-0.20771 1.148 0.25639 1.9603 1.0619 0.81045 0.80363 1.2602 1.6413 1.0576 1.9306-0.000769 0.0011 0.01977 0.017737 0.01898 0.018821l0.12626-0.12678c0.00079-0.00108-0.01975-0.01772-0.01898-0.01882 0.203-0.2892-0.247-1.1269-1.057-1.9305-0.813-0.8055-1.6743-1.2696-1.9608-1.0619l-0.1263 0.1267z"/>
   <path id="path3256" style="fill:url(#linearGradient8649)" d="m9.9846 3.0673c0.2864-0.2077 1.1484 0.2564 1.9604 1.0619 0.81045 0.80363 1.2602 1.6413 1.0576 1.9306-0.00077 0.0011 0.01977 0.017738 0.01898 0.018821l0.126-0.1268c0.000792-0.00108-0.01975-0.017721-0.01898-0.018821 0.202-0.2892-0.247-1.1269-1.058-1.9306-0.812-0.8055-1.674-1.2696-1.96-1.0619l-0.1264 0.1268z"/>
   <path id="path3258" style="fill:url(#linearGradient8651)" d="m9.8689 3.1835c0.28654-0.20771 1.148 0.25639 1.9603 1.0619 0.81044 0.80363 1.2602 1.6413 1.0576 1.9306-0.000771 0.0011 0.01977 0.017737 0.01898 0.018821l0.12626-0.12678c0.000789-0.00108-0.01975-0.017722-0.01898-0.018821 0.203-0.2892-0.247-1.1269-1.057-1.9306-0.813-0.8055-1.674-1.2696-1.9608-1.0619l-0.1263 0.1268z"/>
   <path id="path3270" style="fill-rule:evenodd;stroke:url(#linearGradient8655);stroke-width:.48484;fill:url(#linearGradient8653)" d="m0.25981 15.794 4.7719-1.7255 0.039308-0.03926c0.2026-0.289-0.2524-1.127-1.0629-1.93-0.8124-0.806-1.6727-1.268-1.9592-1.06l-1.7891 4.755z"/>
   <path id="path3281" style="fill-rule:evenodd;stroke:#0c0c0c;stroke-width:.48484;fill:#0c0c0c" d="m0.74443 14.506-0.48521 1.283 1.3014-0.473c-0.1137-0.134-0.2193-0.268-0.3544-0.402-0.1555-0.154-0.30705-0.281-0.46177-0.408z"/>
  </g>
 </g>
</svg>
