<?xml version="1.0" encoding="UTF-8" standalone="no"?>
<!-- Created with Inkscape (http://www.inkscape.org/) -->

<svg
   xmlns:dc="http://purl.org/dc/elements/1.1/"
   xmlns:cc="http://creativecommons.org/ns#"
   xmlns:rdf="http://www.w3.org/1999/02/22-rdf-syntax-ns#"
   xmlns:svg="http://www.w3.org/2000/svg"
   xmlns="http://www.w3.org/2000/svg"
   xmlns:sodipodi="http://sodipodi.sourceforge.net/DTD/sodipodi-0.dtd"
   xmlns:inkscape="http://www.inkscape.org/namespaces/inkscape"
   width="48.000011"
   height="48.014492"
   id="svg5453"
   version="1.1"
   inkscape:version="0.48+devel r12504"
   sodipodi:docname="application-x-gnome-saved-search.svg">
  <defs
     id="defs5455" />
  <sodipodi:namedview
     id="base"
     pagecolor="#ffffff"
     bordercolor="#666666"
     borderopacity="1.0"
     inkscape:pageopacity="0"
     inkscape:pageshadow="2"
     inkscape:zoom="0.81016102"
     inkscape:cx="102.05883"
     inkscape:cy="-142.84034"
     inkscape:document-units="px"
     inkscape:current-layer="layer1"
     showgrid="false"
     fit-margin-top="0"
     fit-margin-left="0"
     fit-margin-right="0"
     fit-margin-bottom="0"
     inkscape:window-width="1366"
     inkscape:window-height="718"
     inkscape:window-x="0"
     inkscape:window-y="30"
     inkscape:window-maximized="1" />
  <metadata
     id="metadata5458">
    <rdf:RDF>
      <cc:Work
         rdf:about="">
        <dc:format>image/svg+xml</dc:format>
        <dc:type
           rdf:resource="http://purl.org/dc/dcmitype/StillImage" />
        <dc:title />
      </cc:Work>
    </rdf:RDF>
  </metadata>
  <g
     inkscape:label="Capa 1"
     inkscape:groupmode="layer"
     id="layer1"
     transform="translate(-384.57143,-499.78351)">
    <g
       inkscape:label="Capa 2"
       id="layer2-8"
       transform="translate(208.56026,490.20319)" />
    <g
       inkscape:label="Capa 2"
       id="layer2-8-5"
       transform="translate(199.81012,499.79076)" />
    <g
       transform="translate(301.92156,499.79076)"
       id="layer2"
       inkscape:label="Capa 2" />
    <g
       inkscape:label="Capa 2"
       id="layer2-8-6"
       transform="translate(257.07144,499.79076)" />
    <g
       transform="translate(359.18288,499.79076)"
       id="layer2-81"
       inkscape:label="Capa 2" />
    <g
       inkscape:label="Capa 2"
       id="layer2-8-4"
       transform="translate(198.96265,505.39399)" />
    <g
       transform="translate(301.07409,505.39399)"
       id="layer2-9"
       inkscape:label="Capa 2" />
    <g
       inkscape:label="Capa 2"
       id="layer2-8-0"
       transform="translate(216.87235,502.80981)" />
    <g
       transform="translate(318.98379,502.80981)"
       id="layer2-5"
       inkscape:label="Capa 2" />
    <path
       inkscape:connector-curvature="0"
       id="path172"
       style="fill:#38a2ec;fill-opacity:1;fill-rule:nonzero;stroke:none"
       d="m 386.60377,519.09708 c 0,-9.5256 7.74812,-17.274 17.27459,-17.274 9.52437,0 17.2746,7.7484 17.2746,17.274 0,9.52536 -7.75023,17.27448 -17.2746,17.27448 -9.52647,0 -17.27459,-7.74912 -17.27459,-17.27448 z m 45.96767,26.18016 -13.84301,-13.84488 c 2.78216,-3.34608 4.45672,-7.64376 4.45672,-12.33528 0,-10.66344 -8.64333,-19.30632 -19.30679,-19.30632 -10.66148,0 -19.30692,8.64288 -19.30692,19.30632 0,10.66248 8.64544,19.3068 19.30692,19.3068 4.6916,0 8.9889,-1.67472 12.33506,-4.4568 l 13.84303,13.84368 2.51499,-2.51352" />
  </g>
</svg>
