<?xml version="1.0" encoding="UTF-8" standalone="no"?>
<!-- Created with Inkscape (http://www.inkscape.org/) -->

<svg
   xmlns:dc="http://purl.org/dc/elements/1.1/"
   xmlns:cc="http://creativecommons.org/ns#"
   xmlns:rdf="http://www.w3.org/1999/02/22-rdf-syntax-ns#"
   xmlns:svg="http://www.w3.org/2000/svg"
   xmlns="http://www.w3.org/2000/svg"
   xmlns:sodipodi="http://sodipodi.sourceforge.net/DTD/sodipodi-0.dtd"
   xmlns:inkscape="http://www.inkscape.org/namespaces/inkscape"
   width="48"
   height="48"
   id="svg4230"
   version="1.1"
   inkscape:version="0.48+devel r12504"
   sodipodi:docname="user-trash.svg">
  <defs
     id="defs4232" />
  <sodipodi:namedview
     id="base"
     pagecolor="#ffffff"
     bordercolor="#666666"
     borderopacity="1.0"
     inkscape:pageopacity="0.0"
     inkscape:pageshadow="2"
     inkscape:zoom="5.1162429"
     inkscape:cx="29.44341"
     inkscape:cy="42.570317"
     inkscape:document-units="px"
     inkscape:current-layer="layer1"
     showgrid="false"
     inkscape:showpageshadow="false"
     borderlayer="true"
     inkscape:window-width="1366"
     inkscape:window-height="718"
     inkscape:window-x="0"
     inkscape:window-y="30"
     inkscape:window-maximized="1" />
  <metadata
     id="metadata4235">
    <rdf:RDF>
      <cc:Work
         rdf:about="">
        <dc:format>image/svg+xml</dc:format>
        <dc:type
           rdf:resource="http://purl.org/dc/dcmitype/StillImage" />
        <dc:title />
      </cc:Work>
    </rdf:RDF>
  </metadata>
  <g
     inkscape:label="Capa 1"
     inkscape:groupmode="layer"
     id="layer1"
     transform="translate(0,-1004.3622)">
    <path
       style="fill:#000000;fill-opacity:0.49803922;fill-rule:nonzero;stroke:none"
       d="m 19.211541,1004.3622 c -2.12064,0 -3.865388,1.7469 -3.865388,3.8658 l 0,1.9036 -9.5769198,0 0,1.9035 1.961533,0 1.903846,36.4612 c 0,2.1189 1.7447478,3.8659 3.8653878,3.8659 l 21.115388,0 c 2.12064,0 3.865377,-1.747 3.865377,-3.8659 l 1.846153,-36.4612 1.903847,0 0,-1.9035 -9.576918,0 0,-1.9036 c 0,-2.1189 -1.744748,-3.8658 -3.865388,-3.8658 l -9.576918,0 z m 0,1.9035 9.576918,0 c 1.05984,0 1.903847,0.904 1.903847,1.9623 l 0,1.9036 -13.442306,0 0,-1.9036 c 0,-1.0583 0.904581,-1.9623 1.961541,-1.9623 z m -9.5769288,5.7694 28.7884698,0 -1.903847,36.4036 0,0.053 c 0,1.0576 -0.844967,1.9041 -1.903847,1.9041 l -21.115388,0 c -1.05792,0 -1.903847,-0.8465 -1.903847,-1.9041 l 0,-0.053 -1.9615408,-36.4036 z m 21.1153878,3.8082 -1.961541,30.7495 1.903847,0.053 1.961541,-30.6922 -1.903847,-0.1152 z m -13.5,0.053 -1.903847,0.053 1.961541,30.6923 1.903847,-0.1165 L 17.25,1015.8918 Z m 5.769235,0 0,30.6928 1.96153,0 0,-30.6928 -1.96153,9e-4 z"
       id="path178"
       inkscape:connector-curvature="0" />
  </g>
</svg>
