<?xml version="1.0" encoding="UTF-8" standalone="no"?>
<!-- Created with Inkscape (http://www.inkscape.org/) -->
<svg id="svg3272" xmlns="http://www.w3.org/2000/svg" height="16" width="16" version="1.0" xmlns:xlink="http://www.w3.org/1999/xlink">
 <defs id="defs3274">
  <linearGradient id="linearGradient2509" y2="25.411" gradientUnits="userSpaceOnUse" x2="57.726" gradientTransform="matrix(0 .37050 -.36175 0 17.508 -1.3321)" y1="25.411" x1="13.472">
   <stop id="stop4224" style="stop-color:#fff" offset="0"/>
   <stop id="stop4226" style="stop-color:#fff;stop-opacity:0" offset="1"/>
  </linearGradient>
  <linearGradient id="linearGradient2512" y2="20.71" gradientUnits="userSpaceOnUse" x2=".81572" gradientTransform="matrix(0 -.31945 -.31335 0 15.486 15.086)" y1="20.71" x1="28.315">
   <stop id="stop2530" style="stop-color:#e6e6e6" offset="0"/>
   <stop id="stop2532" style="stop-color:#929292" offset="1"/>
  </linearGradient>
  <linearGradient id="linearGradient2687" y2="24.628" gradientUnits="userSpaceOnUse" x2="20.055" gradientTransform="matrix(.29669 0 0 .35207 1.8805 2.1186)" y1="16.408" x1="18.031">
   <stop id="stop2687" style="stop-color:#fff;stop-opacity:.27451" offset="0"/>
   <stop id="stop2689" style="stop-color:#fff;stop-opacity:.078431" offset="1"/>
  </linearGradient>
  <linearGradient id="linearGradient2692" y2="4.0514" gradientUnits="userSpaceOnUse" x2="4.176" gradientTransform="matrix(1.0083 0 0 1.0006 -.00082398 -.0066205)" y1="14.993" x1="10.318">
   <stop id="stop3624" style="stop-color:#bb2b12" offset="0"/>
   <stop id="stop3626" style="stop-color:#cd7233" offset="1"/>
  </linearGradient>
  <linearGradient id="linearGradient2690" y2="238.4" gradientUnits="userSpaceOnUse" x2="169.23" gradientTransform="matrix(.054893 .013851 .0025726 .052482 -.71280 -.26741)" y1="58.583" x1="126.7">
   <stop id="stop3618" style="stop-color:#edb763" offset="0"/>
   <stop id="stop3270" style="stop-color:#de7f32" offset=".5"/>
   <stop id="stop3620" style="stop-color:#d24413" offset="1"/>
  </linearGradient>
  <radialGradient id="radialGradient2677" xlink:href="#linearGradient5060" gradientUnits="userSpaceOnUse" cy="486.65" cx="605.71" gradientTransform="matrix(-2.7744 0 0 1.9697 112.76 -872.89)" r="117.14"/>
  <radialGradient id="radialGradient2675" xlink:href="#linearGradient5060" gradientUnits="userSpaceOnUse" cy="486.65" cx="605.71" gradientTransform="matrix(2.7744 0 0 1.9697 -1891.6 -872.89)" r="117.14"/>
  <linearGradient id="linearGradient2673" y2="609.51" gradientUnits="userSpaceOnUse" x2="302.86" gradientTransform="matrix(2.7744 0 0 1.9697 -1892.2 -872.89)" y1="366.65" x1="302.86">
   <stop id="stop5050" style="stop-opacity:0" offset="0"/>
   <stop id="stop5056" offset=".5"/>
   <stop id="stop5052" style="stop-opacity:0" offset="1"/>
  </linearGradient>
  <linearGradient id="linearGradient5060">
   <stop id="stop5062" offset="0"/>
   <stop id="stop5064" style="stop-opacity:0" offset="1"/>
  </linearGradient>
 </defs>
 <g id="layer1">
  <g id="layer6" transform="matrix(.36395 0 0 .34457 -.64485 -.38545)">
   <g id="g2488" transform="matrix(.021652 0 0 .014857 43.008 42.685)">
    <rect id="rect2490" style="opacity:.40206;fill:url(#linearGradient2673)" height="478.36" width="1339.6" y="-150.7" x="-1559.3"/>
    <path id="path2492" style="opacity:.40206;fill:url(#radialGradient2675)" d="m-219.62-150.68v478.33c142.88 0.9 345.4-107.17 345.4-239.2 0-132.02-159.44-239.13-345.4-239.13z"/>
    <path id="path2494" style="opacity:.40206;fill:url(#radialGradient2677)" d="m-1559.3-150.68v478.33c-142.8 0.9-345.4-107.17-345.4-239.2 0-132.02 159.5-239.13 345.4-239.13z"/>
   </g>
  </g>
  <path id="rect2196" style="stroke-linejoin:round;stroke:#a8a8a8;stroke-linecap:round;stroke-width:0.979;fill:#fff" d="m0.6015 1.5215c-0.05626 0-0.10449 0.0603-0.10449 0.1226 0 4.6046 0.00337 8.6509-0.00066 12.857 4.7064-0.024 9.4152-0.048 14.123-0.065-0.417 0-1.112-0.07-1.103-0.941 0.004-3.5967 0.023-7.408 0.011-10.98l-6.0517-0.0005c-0.4775 0-1.0962-0.993-1.5261-0.993h-5.3477z"/>
  <path id="rect3086" style="stroke-linejoin:round;stroke:url(#linearGradient2692);stroke-linecap:round;stroke-width:.95339;fill:url(#linearGradient2690)" d="m2.5254 4.524c0.6564 0 12.48 0.0314 12.989 0.0314 0 0.6154-0.024 9.9576-0.054 9.9576-4.559 0.018-11.659-0.013-12.986-0.013-0.0005-1.162 0.0514-7.5857 0.0514-9.976z"/>
  <path id="path2509" style="fill:url(#linearGradient2687);fill-rule:evenodd" d="m2.8355 4c-0.4566 0-0.8345 0.4484-0.8345 0.9902v5.6328c0.0018 0.101 0.0441 0.216 0.1113 0.286 0.0672 0.071 0.1531 0.1 0.2503 0.088h0.0093l13.351-2.5081c0.155-0.029 0.276-0.1881 0.278-0.3741v-3.1246c0-0.5418-0.378-0.9902-0.834-0.9902h-12.332 0.0005z"/>
  <path id="path2406" style="opacity:.35;stroke:#fff;stroke-width:1px;fill:none" d="m3.499 14v-8.5h11.5"/>
 </g>
 <g id="layer1-1" transform="translate(2 1)">
  <g id="g2564">
   <path id="path3288" style="stroke-linejoin:round;stroke:#7e7e7e;stroke-linecap:round;stroke-width:.99829;fill:url(#linearGradient2512)" d="m13.5 8.5l-5.5 6.001-5.5-6.001h3v-5h5v5h3z"/>
   <path id="path3290" style="opacity:0.354;stroke:url(#linearGradient2509);stroke-width:.99829;fill:none" d="m11 9.5l-3 3.5-3-3.5h1.5v-5h3v5h1.5z"/>
  </g>
 </g>
</svg>
