<?xml version="1.0" encoding="UTF-8" standalone="no"?>
<!-- Created with Inkscape (http://www.inkscape.org/) -->
<svg id="svg3203" xmlns="http://www.w3.org/2000/svg" height="16" width="16" version="1.1" xmlns:xlink="http://www.w3.org/1999/xlink">
 <defs id="defs3205">
  <linearGradient id="linearGradient2417" y2="15.677" gradientUnits="userSpaceOnUse" x2="8.1772" gradientTransform="matrix(1.0307 0 0 1.012 -.42805 -.52505)" y1="1.0433" x1="8.1772">
   <stop id="stop2612" style="stop-color:#f0c178" offset="0"/>
   <stop id="stop2614" style="stop-color:#e18941" offset=".5"/>
   <stop id="stop2616" style="stop-color:#ec4f18" offset="1"/>
  </linearGradient>
  <linearGradient id="linearGradient3201" y2="17.887" gradientUnits="userSpaceOnUse" x2="8" y1="1.9688" x1="8">
   <stop id="stop3197" style="stop-color:#fff" offset="0"/>
   <stop id="stop3199" style="stop-color:#fff;stop-opacity:0" offset="1"/>
  </linearGradient>
  <linearGradient id="linearGradient3632" y2=".53072" gradientUnits="userSpaceOnUse" x2="4.3322" y1="16" x1="4.3698">
   <stop id="stop2605" style="stop-color:#bb2b12" offset="0"/>
   <stop id="stop2607" style="stop-color:#cd7233" offset="1"/>
  </linearGradient>
 </defs>
 <g id="layer1">
  <path id="rect5117" style="stroke-linejoin:round;stroke:url(#linearGradient3632);fill:url(#linearGradient2417)" d="m8 1.0307-7.5 7.4916h2.0278l-7e-7 6.9776h10.944l0.000001-6.9776h2.0278l-2-2.0224v-5h-3v2l-2.5-2.4693z"/>
  <path id="path3193" style="opacity:.4;stroke:url(#linearGradient3201);fill:none" d="m8 2.4688-5.125 5.0937a1.0127 1.0127 0 0 1 0.65625 0.96875v5.9688h8.9375v-5.9688a1.0127 1.0127 0 0 1 0.656 -0.9374l-0.34375-0.375a1.0127 1.0127 0 0 1 -0.281 -0.7188v-4h-1v1a1.0127 1.0127 0 0 1 -1.7188 0.7188l-1.7812-1.75z"/>
 </g>
</svg>
