<?xml version="1.0" encoding="UTF-8" standalone="no"?>
<!-- Created with Inkscape (http://www.inkscape.org/) -->
<svg id="svg3272" xmlns="http://www.w3.org/2000/svg" height="24" width="24" version="1.0" xmlns:xlink="http://www.w3.org/1999/xlink">
 <defs id="defs3274">
  <linearGradient id="linearGradient3260" y2="20.895" gradientUnits="userSpaceOnUse" x2="84.639" gradientTransform="matrix(.096142 0 0 .096142 1.8469 1.943)" y1="105.1" x1="86.133">
   <stop id="stop5130" style="stop-color:#e5e5e5" offset="0"/>
   <stop id="stop5132" style="stop-color:#ababab" offset="1"/>
  </linearGradient>
  <linearGradient id="linearGradient3264" y2="16.005" gradientUnits="userSpaceOnUse" x2="21" gradientTransform="translate(-17.058)" x1="21">
   <stop id="stop3399" style="stop-color:#aaa" offset="0"/>
   <stop id="stop3401" style="stop-color:#8c8c8c" offset="1"/>
  </linearGradient>
  <linearGradient id="linearGradient3262" y2="16" gradientUnits="userSpaceOnUse" x2="25" gradientTransform="translate(-17.058)" x1="25">
   <stop id="stop3311" style="stop-color:#f6f6f6" offset="0"/>
   <stop id="stop3313" style="stop-color:#ccc" offset="1"/>
  </linearGradient>
  <linearGradient id="linearGradient3404" y2="24.628" gradientUnits="userSpaceOnUse" x2="20.055" y1="16.408" x1="18.031">
   <stop id="stop2687" style="stop-color:#fff;stop-opacity:.27451" offset="0"/>
   <stop id="stop2689" style="stop-color:#fff;stop-opacity:.078431" offset="1"/>
  </linearGradient>
  <radialGradient id="radialGradient3402" gradientUnits="userSpaceOnUse" cy="5.5927" cx="4.02" gradientTransform="matrix(-.016802 1.3943 -1.7966 -.021651 -5.3658 -19.339)" r="10.273">
   <stop id="stop3754" style="stop-color:#fff" offset="0"/>
   <stop id="stop3760" style="stop-color:#fff" offset=".84754"/>
   <stop id="stop3756" style="stop-color:#fff;stop-opacity:0" offset="1"/>
  </radialGradient>
  <linearGradient id="linearGradient3400" y2="4.303" gradientUnits="userSpaceOnUse" x2="9.7046" gradientTransform="matrix(.99458 0 0 .99458 -19.857 -19.778)" y1="20.882" x1="9.7046">
   <stop id="stop3624" style="stop-color:#bb2b12" offset="0"/>
   <stop id="stop3626" style="stop-color:#cd7233" offset="1"/>
  </linearGradient>
  <radialGradient id="radialGradient3398" gradientUnits="userSpaceOnUse" cy="8.5609" cx="7.8186" gradientTransform="matrix(1.69 0 0 1.0436 -24.967 -20.534)" r="11.268">
   <stop id="stop3618" style="stop-color:#edb763" offset="0"/>
   <stop id="stop3270" style="stop-color:#de7f32" offset=".5"/>
   <stop id="stop3620" style="stop-color:#d24413" offset="1"/>
  </radialGradient>
  <linearGradient id="linearGradient3396" y2="23.062" gradientUnits="userSpaceOnUse" x2="9.8764" gradientTransform="translate(-19.518 -21.496)" y1="2.6015" x1="9.8764">
   <stop id="stop5159" style="stop-color:#c1c1c1" offset="0"/>
   <stop id="stop5161" style="stop-color:#909090" offset="1"/>
  </linearGradient>
  <linearGradient id="linearGradient3394" y2="37.503" gradientUnits="userSpaceOnUse" x2="-28.531" gradientTransform="translate(14.86 -35.997)" y1="17.956" x1="-28.531">
   <stop id="stop11113" style="stop-color:#fff" offset="0"/>
   <stop id="stop11115" style="stop-color:#cdcdcd" offset=".91014"/>
   <stop id="stop11117" style="stop-color:#a1a1a1" offset="1"/>
  </linearGradient>
  <radialGradient id="radialGradient3392" xlink:href="#linearGradient5060" gradientUnits="userSpaceOnUse" cy="486.65" cx="605.71" gradientTransform="matrix(-2.7744 0 0 1.9697 112.76 -872.89)" r="117.14"/>
  <linearGradient id="linearGradient5060">
   <stop id="stop5062" offset="0"/>
   <stop id="stop5064" style="stop-opacity:0" offset="1"/>
  </linearGradient>
  <radialGradient id="radialGradient3390" xlink:href="#linearGradient5060" gradientUnits="userSpaceOnUse" cy="486.65" cx="605.71" gradientTransform="matrix(2.7744 0 0 1.9697 -1891.6 -872.89)" r="117.14"/>
  <linearGradient id="linearGradient3388" y2="609.51" gradientUnits="userSpaceOnUse" x2="302.86" gradientTransform="matrix(2.7744 0 0 1.9697 -1892.2 -872.89)" y1="366.65" x1="302.86">
   <stop id="stop5050" style="stop-opacity:0" offset="0"/>
   <stop id="stop5056" offset=".5"/>
   <stop id="stop5052" style="stop-opacity:0" offset="1"/>
  </linearGradient>
 </defs>
 <g id="g2701">
  <g id="g2902">
   <g id="g2589" transform="translate(.036304 -1.2166e-7)">
    <g id="g3377" transform="translate(19.518 21.496)">
     <g id="g3490" style="stroke-width:1.8826" transform="matrix(.54593 0 0 .51685 -20.52 -22.074)">
      <g id="g5022" style="stroke-width:104.96" transform="matrix(.021652 0 0 .014857 43.008 42.685)">
       <rect id="rect2527" style="opacity:.40206;fill:url(#linearGradient3388)" height="478.36" width="1339.6" y="-150.7" x="-1559.3"/>
       <path id="path2529" style="opacity:.40206;fill:url(#radialGradient3390)" d="m-219.62-150.68v478.33c142.88 0.9 345.4-107.17 345.4-239.2 0-132.02-159.44-239.13-345.4-239.13z"/>
       <path id="path2531" style="opacity:.40206;fill:url(#radialGradient3392)" d="m-1559.3-150.68v478.33c-142.8 0.9-345.4-107.17-345.4-239.2 0-132.02 159.5-239.13 345.4-239.13z"/>
      </g>
     </g>
     <path id="path3496" style="stroke-linejoin:round;stroke:url(#linearGradient3396);stroke-linecap:round;stroke-width:1.0111;fill:url(#linearGradient3394)" d="m-18.841-18.927c-0.085 0-0.159 0.093-0.159 0.189 0 5.869-0.043 12.244-0.049 18.225 0.029 0.89475 0.537 1.5049 0.89 1.5081 1.013 0.0092 0.539-0.00407 1.048-0.00004 6.471-0.0161 13.579-0.07817 20.05-0.09427 0.0539 0.00692-1.4771-0.10773-1.4619-1.4455 0-4.673-0.50209-11.187-0.50209-15.86 0-0.187-0.01544-0.291-0.03178-0.377-0.01261-0.066-0.02869-0.099-0.06354-0.125-0.02787-0.025-0.05455-0.057-0.09533-0.063h-8.8202c-0.8153 0-1.002-1.992-2.2132-1.992l-8.592 0.035z"/>
     <path id="path3498" style="stroke-linejoin:round;stroke:url(#linearGradient3400);stroke-linecap:round;fill:url(#radialGradient3398)" d="m-16.019-14.949c10.57 0 13.031 0.001 19.994-0.027-0.0002 1.57 0.2579 16.04-0.4843 16.04-0.7141-0.0002-14.046-0.09453-21.009-0.06653 1.472 0 1.499-0.62275 1.499-15.946z"/>
     <path id="path3211" style="opacity:.4;stroke:url(#radialGradient3402);stroke-width:.98120;fill:none" d="m3.4207-13.887s-16.832 0.093-18.397-0.093c-0.083 13.83-0.501 14.439-0.501 14.439"/>
     <path id="path2608" style="fill:url(#linearGradient3404);fill-rule:evenodd" d="m3.2188 5.3438c-1.539 0-2.8126 1.2735-2.8126 2.8124l0.00005 16c0.00589 0.286 0.14842 0.613 0.375 0.813 0.22655 0.2 0.51615 0.284 0.84375 0.25h0.0312l45-7.125c0.522-0.083 0.93-0.535 0.938-1.063v-8.8748c0-1.5389-1.274-2.8124-2.813-2.8124h-41.562-0.0002z" transform="matrix(.44503 0 0 .40237 -16.699 -17.646)"/>
    </g>
   </g>
   <rect id="rect2545" style="display:block;fill:#eda374" rx=".53846" ry=".5" height="1" width="7" y="4" x="2"/>
  </g>
 </g>
 <g id="g2467" transform="translate(8 8)">
  <g id="g2479">
   <path id="path2426" style="stroke-linejoin:round;stroke:url(#linearGradient3264);display:block;fill:url(#linearGradient3262)" d="m6.9375 0.5c-0.2484 0-0.4375 0.18908-0.4375 0.4375v1.25c-0.5539 0.1422-1.0512 0.3719-1.5312 0.6563l-0.9063-0.9063c-0.1757-0.1757-0.4493-0.1757-0.625 0l-1.5 1.5c-0.1757 0.1757-0.1757 0.4493 0 0.625l0.9063 0.9063c-0.2844 0.48-0.5141 0.9773-0.6563 1.5312h-1.25c-0.24842 0-0.4375 0.1891-0.4375 0.4375v2.125c0 0.2484 0.18908 0.4375 0.4375 0.4375h1.25c0.1422 0.554 0.3719 1.051 0.6563 1.531l-0.9063 0.907c-0.1757 0.175-0.1757 0.449 0 0.624l1.5 1.5c0.1757 0.176 0.4493 0.176 0.625 0l0.9063-0.906c0.48 0.285 0.9773 0.514 1.5312 0.656v1.25c0 0.249 0.1891 0.438 0.4375 0.438h2.125c0.2484 0 0.4375-0.189 0.4375-0.438v-1.25c0.554-0.142 1.051-0.371 1.531-0.656l0.907 0.906c0.175 0.176 0.449 0.176 0.624 0l1.5-1.5c0.176-0.175 0.176-0.449 0-0.624l-0.906-0.907c0.285-0.48 0.514-0.977 0.656-1.531h1.25c0.249 0 0.438-0.1891 0.438-0.4375v-2.125c0-0.2484-0.189-0.4375-0.438-0.4375h-1.25c-0.142-0.5539-0.371-1.0512-0.656-1.5312l0.906-0.9063c0.176-0.1757 0.176-0.4493 0-0.625l-1.5-1.5c-0.175-0.1757-0.449-0.1757-0.624 0l-0.907 0.9063c-0.48-0.2844-0.977-0.5141-1.531-0.6563v-1.25c0-0.24842-0.1891-0.4375-0.4375-0.4375h-2.125zm1.0625 5.5c1.104 0 2 0.896 2 2s-0.896 2-2 2-2-0.896-2-2 0.896-2 2-2z"/>
   <path id="path3315" style="opacity:.05" d="m8 3.4651c-2.5006 0-4.5349 2.0343-4.5349 4.5349 0 2.501 2.0343 4.535 4.5349 4.535 2.501 0 4.535-2.034 4.535-4.535 0-2.5006-2.034-4.5349-4.535-4.5349zm0 2.093c1.3479 0 2.442 1.094 2.442 2.4419s-1.0941 2.442-2.442 2.442-2.4419-1.0941-2.4419-2.442 1.094-2.4419 2.4419-2.4419z"/>
   <path id="path28" style="stroke:url(#linearGradient3260);fill:none" d="m8 4c-2.2056 0-4 1.7944-4 4 0 2.206 1.7944 4 4 4 2.206 0 4-1.794 4-4 0-2.2056-1.794-4-4-4z"/>
  </g>
 </g>
</svg>
