<?xml version="1.0" encoding="UTF-8" standalone="no"?>
<!-- Created with Inkscape (http://www.inkscape.org/) -->
<svg id="svg2" xmlns="http://www.w3.org/2000/svg" height="24" width="24" version="1.0" xmlns:xlink="http://www.w3.org/1999/xlink">
 <defs id="defs4">
  <linearGradient id="linearGradient3388-629" y2="609.51" gradientUnits="userSpaceOnUse" x2="302.86" gradientTransform="matrix(2.7744 0 0 1.9697 -1892.2 -872.89)" y1="366.65" x1="302.86">
   <stop id="stop2472" style="stop-opacity:0" offset="0"/>
   <stop id="stop2474" offset=".5"/>
   <stop id="stop2476" style="stop-opacity:0" offset="1"/>
  </linearGradient>
  <radialGradient id="radialGradient3390-817" gradientUnits="userSpaceOnUse" cy="486.65" cx="605.71" gradientTransform="matrix(2.7744 0 0 1.9697 -1891.6 -872.89)" r="117.14">
   <stop id="stop2480" offset="0"/>
   <stop id="stop2482" style="stop-opacity:0" offset="1"/>
  </radialGradient>
  <radialGradient id="radialGradient3392-92" gradientUnits="userSpaceOnUse" cy="486.65" cx="605.71" gradientTransform="matrix(-2.7744 0 0 1.9697 112.76 -872.89)" r="117.14">
   <stop id="stop2486" offset="0"/>
   <stop id="stop2488" style="stop-opacity:0" offset="1"/>
  </radialGradient>
  <linearGradient id="linearGradient3394-930" y2="37.503" gradientUnits="userSpaceOnUse" x2="-28.531" gradientTransform="translate(14.86 -35.997)" y1="17.956" x1="-28.531">
   <stop id="stop2492" style="stop-color:#fff" offset="0"/>
   <stop id="stop2494" style="stop-color:#cdcdcd" offset=".91014"/>
   <stop id="stop2496" style="stop-color:#a1a1a1" offset="1"/>
  </linearGradient>
  <linearGradient id="linearGradient3396-525" y2="23.062" gradientUnits="userSpaceOnUse" x2="9.8764" gradientTransform="translate(-19.518 -21.496)" y1="2.6015" x1="9.8764">
   <stop id="stop2500" style="stop-color:#c1c1c1" offset="0"/>
   <stop id="stop2502" style="stop-color:#909090" offset="1"/>
  </linearGradient>
  <radialGradient id="radialGradient3398-988" gradientUnits="userSpaceOnUse" cy="8.5609" cx="7.8186" gradientTransform="matrix(1.69 0 0 1.0436 -24.967 -20.534)" r="11.268">
   <stop id="stop2506" style="stop-color:#a8a8a8" offset="0"/>
   <stop id="stop2508" style="stop-color:#818181" offset="1"/>
  </radialGradient>
  <linearGradient id="linearGradient3400-505" y2="4.303" gradientUnits="userSpaceOnUse" x2="9.7046" gradientTransform="matrix(.99458 0 0 .99458 -19.857 -19.778)" y1="20.882" x1="9.7046">
   <stop id="stop2512" style="stop-color:#666" offset="0"/>
   <stop id="stop2514" style="stop-color:gray" offset="1"/>
  </linearGradient>
  <radialGradient id="radialGradient3402-412" gradientUnits="userSpaceOnUse" cy="5.5927" cx="4.02" gradientTransform="matrix(-.016802 1.3943 -1.7966 -.021651 -5.3658 -19.339)" r="10.273">
   <stop id="stop2518" style="stop-color:#fff" offset="0"/>
   <stop id="stop2520" style="stop-color:#fff" offset=".84754"/>
   <stop id="stop2522" style="stop-color:#fff;stop-opacity:0" offset="1"/>
  </radialGradient>
  <linearGradient id="linearGradient3404-623" y2="24.628" gradientUnits="userSpaceOnUse" x2="20.055" y1="16.408" x1="18.031">
   <stop id="stop2526" style="stop-color:#fff;stop-opacity:.27451" offset="0"/>
   <stop id="stop2528" style="stop-color:#fff;stop-opacity:.078431" offset="1"/>
  </linearGradient>
 </defs>
 <g id="layer1">
  <g id="g2589" transform="translate(.036304 -1.2166e-7)">
   <g id="g3377" transform="translate(19.518 21.496)">
    <g id="g3490" style="stroke-width:1.8826" transform="matrix(.54593 0 0 .51685 -20.52 -22.074)">
     <g id="g5022" style="stroke-width:104.96" transform="matrix(.021652 0 0 .014857 43.008 42.685)">
      <rect id="rect2527" style="opacity:.40206;fill:url(#linearGradient3388-629)" height="478.36" width="1339.6" y="-150.7" x="-1559.3"/>
      <path id="path2529" style="opacity:.40206;fill:url(#radialGradient3390-817)" d="m-219.62-150.68v478.33c142.87 0.90045 345.4-107.17 345.4-239.2s-159.44-239.13-345.4-239.13z"/>
      <path id="path2531" style="opacity:.40206;fill:url(#radialGradient3392-92)" d="m-1559.3-150.68v478.33c-142.87 0.90045-345.4-107.17-345.4-239.2s159.44-239.13 345.4-239.13z"/>
     </g>
    </g>
    <path id="path3496" style="stroke-linejoin:round;stroke:url(#linearGradient3396-525);stroke-linecap:round;stroke-width:1.0111;fill:url(#linearGradient3394-930)" d="m-18.841-18.927c-0.08554 0-0.15887 0.09275-0.15887 0.18854 0 5.8692-0.04308 12.244-0.04914 18.225 0.02908 0.89504 0.53724 1.5051 0.88966 1.5083 1.0127 0.009195 0.53927-0.004029 1.0485 0 6.4703-0.016099 13.579-0.078173 20.049-0.094271 0.054214 0.006918-1.4767-0.10772-1.4616-1.4455 0.000001-4.6729-0.50205-11.187-0.50205-15.86 0-0.18688-0.01544-0.29089-0.031774-0.37708-0.012614-0.06656-0.028696-0.09887-0.063547-0.1257-0.027862-0.02445-0.054549-0.05704-0.095321-0.06285h-8.8201c-0.81532 0-1.0021-1.992-2.2137-1.992l-8.5913 0.03569z"/>
    <path id="path3498" style="stroke-linejoin:round;stroke:url(#linearGradient3400-505);stroke-linecap:round;fill:url(#radialGradient3398-988)" d="m-16.019-14.949c10.57 0 13.03 0.00046 19.994-0.02754 0 1.5704 0.25816 16.04-0.48411 16.04-0.71405 0-14.046-0.094351-21.009-0.066352 1.4717 0 1.4993-0.62275 1.4993-15.946z"/>
    <path id="path3211" style="opacity:.4;stroke:url(#radialGradient3402-412);stroke-width:.98120;fill:none" d="m3.4207-13.887s-16.832 0.09361-18.397-0.09237c-0.08294 13.829-0.50095 14.439-0.50095 14.439"/>
    <path id="path2608" style="fill:url(#linearGradient3404-623);fill-rule:evenodd" d="m3.2188 5.3438c-1.5389 0-2.8125 1.2736-2.8125 2.8125v16c0.005894 0.28623 0.14842 0.61258 0.375 0.8125s0.51619 0.28427 0.84375 0.25c0.010415 0.000266 0.020835 0.000266 0.03125 0l45-7.125c0.52177-0.08229 0.93021-0.53433 0.9375-1.0625v-8.875c0-1.5389-1.2736-2.8125-2.8125-2.8125h-41.562z" transform="matrix(.44503 0 0 .40237 -16.699 -17.646)"/>
   </g>
  </g>
  <rect id="rect2545" style="display:block;fill:#b0b0b0" rx=".53846" ry=".5" height="1" width="7" y="4" x="2"/>
 </g>
</svg>
