<?xml version="1.0" encoding="UTF-8" standalone="no"?>
<!-- Created with Inkscape (http://www.inkscape.org/) -->
<svg id="svg2" xmlns="http://www.w3.org/2000/svg" height="24" width="24" version="1.0" xmlns:xlink="http://www.w3.org/1999/xlink">
 <defs id="defs4">
  <linearGradient id="linearGradient7093">
   <stop id="stop7095" style="stop-color:#fff" offset="0"/>
   <stop id="stop7097" style="stop-color:#fff;stop-opacity:0" offset="1"/>
  </linearGradient>
  <linearGradient id="linearGradient5060">
   <stop id="stop5062" offset="0"/>
   <stop id="stop5064" style="stop-opacity:0" offset="1"/>
  </linearGradient>
  <linearGradient id="linearGradient6443">
   <stop id="stop6445" style="stop-color:#f7ff00" offset="0"/>
   <stop id="stop6447" style="stop-color:lime" offset="1"/>
  </linearGradient>
  <linearGradient id="linearGradient6270">
   <stop id="stop6272" style="stop-color:#ebebeb" offset="0"/>
   <stop id="stop6274" style="stop-color:#bebebe" offset="1"/>
  </linearGradient>
  <linearGradient id="linearGradient5551" y2="19.038" xlink:href="#linearGradient7093" gradientUnits="userSpaceOnUse" x2="25" gradientTransform="matrix(.46342 0 0 .42859 .87798 .71396)" y1="9.8403" x1="25"/>
  <radialGradient id="radialGradient5556" xlink:href="#linearGradient6443" gradientUnits="userSpaceOnUse" cy="16.5" cx="6.5" gradientTransform="matrix(.58824 0 0 .58823 .17647 -1.7059)" r="2"/>
  <linearGradient id="linearGradient5559" y2="45" xlink:href="#linearGradient6270" gradientUnits="userSpaceOnUse" x2="26.75" gradientTransform="matrix(.46512 0 0 .44444 .83722 -9.7777)" y1="35" x1="26.5"/>
  <linearGradient id="linearGradient5564" y2="7.375" xlink:href="#linearGradient6270" gradientUnits="userSpaceOnUse" x2="12" gradientTransform="translate(0 -2)" y1="4.6464" x1="12"/>
  <linearGradient id="linearGradient5570" y2="19.475" xlink:href="#linearGradient7093" gradientUnits="userSpaceOnUse" x2="25" gradientTransform="matrix(.46342 0 0 .42859 .87798 6.714)" y1="9.9862" x1="25.135"/>
  <radialGradient id="radialGradient5577" xlink:href="#linearGradient6443" gradientUnits="userSpaceOnUse" cy="16.5" cx="6.5" gradientTransform="matrix(.58824 0 0 .58823 .17647 4.2941)" r="2"/>
  <linearGradient id="linearGradient5580" y2="45" xlink:href="#linearGradient6270" gradientUnits="userSpaceOnUse" x2="26.75" gradientTransform="matrix(.46512 0 0 .44444 .83722 -3.7777)" y1="35" x1="26.5"/>
  <linearGradient id="linearGradient5586" y2="19.038" xlink:href="#linearGradient7093" gradientUnits="userSpaceOnUse" x2="25" gradientTransform="matrix(.46342 0 0 .42859 .87798 12.714)" y1="10.132" x1="25"/>
  <radialGradient id="radialGradient5593" xlink:href="#linearGradient6443" gradientUnits="userSpaceOnUse" cy="16.5" cx="6.5" gradientTransform="matrix(.58824 0 0 .58823 .17647 10.294)" r="2"/>
  <linearGradient id="linearGradient5596" y2="45" xlink:href="#linearGradient6270" gradientUnits="userSpaceOnUse" x2="26.75" gradientTransform="matrix(.46512 0 0 .44444 .83722 2.2223)" y1="35" x1="26.5"/>
  <linearGradient id="linearGradient5603" y2="609.51" gradientUnits="userSpaceOnUse" x2="302.86" gradientTransform="matrix(2.7744 0 0 1.9697 -1892.2 -872.89)" y1="366.65" x1="302.86">
   <stop id="stop5050" style="stop-opacity:0" offset="0"/>
   <stop id="stop5056" offset=".5"/>
   <stop id="stop5052" style="stop-opacity:0" offset="1"/>
  </linearGradient>
  <radialGradient id="radialGradient5605" xlink:href="#linearGradient5060" gradientUnits="userSpaceOnUse" cy="486.65" cx="605.71" gradientTransform="matrix(2.7744 0 0 1.9697 -1891.6 -872.89)" r="117.14"/>
  <radialGradient id="radialGradient5607" xlink:href="#linearGradient5060" gradientUnits="userSpaceOnUse" cy="486.65" cx="605.71" gradientTransform="matrix(-2.7744 0 0 1.9697 112.76 -872.89)" r="117.14"/>
  <linearGradient id="linearGradient6387" y2="12" gradientUnits="userSpaceOnUse" x2="12" y1="5" x1="12">
   <stop id="stop6370" style="stop-color:#a0a0a0" offset="0"/>
   <stop id="stop6372" style="stop-color:#646464" offset="1"/>
  </linearGradient>
 </defs>
 <g id="g5544">
  <path id="path6523" style="stroke-linejoin:round;stroke:#a0a0a0;stroke-linecap:square;stroke-width:.99987;fill:url(#linearGradient5564)" d="m4.9186 2.5h14.163l3.4186 3.0001h-21l3.4176-3.0001z"/>
  <path id="rect6371" style="fill:url(#linearGradient6387)" d="m1.5 5h21c0.277 0 0.5 0.223 0.5 0.5v4.8l-1 0.2 1 1.4v4.4l-1 0.2 1 1.4v4.6c0 0.277-0.223 0.5-0.5 0.5h-21c-0.277 0-0.5-0.223-0.5-0.5v-4.8l1-1.2-1-0.2v-4.4l1-1.4-1-0.2v-4.8c0-0.277 0.223-0.5 0.5-0.5z"/>
  <g id="g5022" style="opacity:.58730" transform="matrix(.011820 0 0 .0041810 22.513 22.63)">
   <rect id="rect4173" style="opacity:.40206;fill:url(#linearGradient5603)" height="478.36" width="1339.6" y="-150.7" x="-1559.3"/>
   <path id="path5058" style="opacity:.40206;fill:url(#radialGradient5605)" d="m-219.62-150.68v478.33c142.87 0.90045 345.4-107.17 345.4-239.2s-159.44-239.13-345.4-239.13z"/>
   <path id="path5018" style="opacity:.40206;fill:url(#radialGradient5607)" d="m-1559.3-150.68v478.33c-142.87 0.90045-345.4-107.17-345.4-239.2s159.44-239.13 345.4-239.13z"/>
  </g>
  <rect id="rect5480" style="fill:url(#linearGradient5596)" height="4" width="20" y="18" x="2"/>
  <path id="path6441" style="stroke-linejoin:round;stroke:#828282;stroke-linecap:square;stroke-width:.23529;fill:url(#radialGradient5593)" d="m4.8824 20c0 0.48731-0.39504 0.88235-0.88235 0.88235s-0.88235-0.39504-0.88235-0.88235 0.39504-0.88235 0.88235-0.88235 0.88235 0.39504 0.88235 0.88235z"/>
  <path id="path6477" style="fill:#fafafa" d="m6.7 20.5c0 0.276-0.2239 0.5-0.5 0.5s-0.5-0.224-0.5-0.5 0.2239-0.5 0.5-0.5c0.27614 0 0.5 0.22386 0.5 0.5z"/>
  <path id="path6471" style="fill:#3c3c3c" d="m7 20.5c0 0.276-0.2239 0.5-0.5 0.5s-0.5-0.224-0.5-0.5 0.2239-0.5 0.5-0.5 0.5 0.224 0.5 0.5z"/>
  <rect id="rect6499" style="fill:gray" height="1" width="1" y="20" x="8"/>
  <rect id="rect6501" style="fill:gray" height="1" width="1" y="20" x="10"/>
  <rect id="rect7105" style="opacity:.8;stroke:url(#linearGradient5586);stroke-linecap:square;stroke-width:.99969;fill:none" height="3.0003" width="19" y="18.5" x="2.4998"/>
  <path id="path6474" style="fill:#fafafa" d="m16.2 19c-0.276 0-0.5 0.224-0.5 0.5s0.224 0.5 0.5 0.5 0.5-0.224 0.5-0.5-0.224-0.5-0.5-0.5zm2 0c-0.276 0-0.5 0.224-0.5 0.5s0.224 0.5 0.5 0.5 0.5-0.224 0.5-0.5-0.224-0.5-0.5-0.5zm2 0c-0.276 0-0.5 0.224-0.5 0.5s0.224 0.5 0.5 0.5 0.5-0.224 0.5-0.5-0.224-0.5-0.5-0.5zm-3 1c-0.276 0-0.5 0.224-0.5 0.5s0.224 0.5 0.5 0.5 0.5-0.224 0.5-0.5-0.224-0.5-0.5-0.5zm2 0c-0.276 0-0.5 0.224-0.5 0.5s0.224 0.5 0.5 0.5 0.5-0.224 0.5-0.5-0.224-0.5-0.5-0.5z"/>
  <path id="path6462" style="fill:#666" d="m16.5 19c-0.276 0-0.5 0.224-0.5 0.5s0.224 0.5 0.5 0.5 0.5-0.224 0.5-0.5-0.224-0.5-0.5-0.5zm2 0c-0.276 0-0.5 0.224-0.5 0.5s0.224 0.5 0.5 0.5 0.5-0.224 0.5-0.5-0.224-0.5-0.5-0.5zm2 0c-0.276 0-0.5 0.224-0.5 0.5s0.224 0.5 0.5 0.5 0.5-0.224 0.5-0.5-0.224-0.5-0.5-0.5zm-3 1c-0.276 0-0.5 0.224-0.5 0.5s0.224 0.5 0.5 0.5 0.5-0.224 0.5-0.5-0.224-0.5-0.5-0.5zm2 0c-0.276 0-0.5 0.224-0.5 0.5s0.224 0.5 0.5 0.5 0.5-0.224 0.5-0.5-0.224-0.5-0.5-0.5z"/>
  <rect id="rect6476" style="fill:gray" height="1" width="1" y="20" x="12"/>
  <rect id="rect6495" style="fill:url(#linearGradient5580)" height="4" width="20" y="12" x="2"/>
  <path id="path6497" style="stroke-linejoin:round;stroke:#828282;stroke-linecap:square;stroke-width:.23529;fill:url(#radialGradient5577)" d="m4.8824 14c0 0.48731-0.39504 0.88235-0.88235 0.88235s-0.88235-0.39504-0.88235-0.88235 0.39504-0.88235 0.88235-0.88235 0.88235 0.39504 0.88235 0.88235z"/>
  <path id="path6499" style="fill:#fafafa" d="m6.7 14.5c0 0.276-0.2239 0.5-0.5 0.5s-0.5-0.224-0.5-0.5 0.2239-0.5 0.5-0.5c0.27614 0 0.5 0.22386 0.5 0.5z"/>
  <path id="path6501" style="fill:#3c3c3c" d="m7 14.5c0 0.276-0.2239 0.5-0.5 0.5s-0.5-0.224-0.5-0.5 0.2239-0.5 0.5-0.5 0.5 0.224 0.5 0.5z"/>
  <rect id="rect6503" style="fill:gray" height="1" width="1" y="14" x="8"/>
  <rect id="rect6505" style="fill:gray" height="1" width="1" y="14" x="10"/>
  <rect id="rect6507" style="opacity:.8;stroke:url(#linearGradient5570);stroke-linecap:square;stroke-width:.99969;fill:none" height="3.0003" width="19" y="12.5" x="2.4998"/>
  <path id="path6509" style="fill:#fafafa" d="m16.2 13c-0.276 0-0.5 0.224-0.5 0.5s0.224 0.5 0.5 0.5 0.5-0.224 0.5-0.5-0.224-0.5-0.5-0.5zm2 0c-0.276 0-0.5 0.224-0.5 0.5s0.224 0.5 0.5 0.5 0.5-0.224 0.5-0.5-0.224-0.5-0.5-0.5zm2 0c-0.276 0-0.5 0.224-0.5 0.5s0.224 0.5 0.5 0.5 0.5-0.224 0.5-0.5-0.224-0.5-0.5-0.5zm-3 1c-0.276 0-0.5 0.224-0.5 0.5s0.224 0.5 0.5 0.5 0.5-0.224 0.5-0.5-0.224-0.5-0.5-0.5zm2 0c-0.276 0-0.5 0.224-0.5 0.5s0.224 0.5 0.5 0.5 0.5-0.224 0.5-0.5-0.224-0.5-0.5-0.5z"/>
  <path id="path6511" style="fill:#666" d="m16.5 13c-0.276 0-0.5 0.224-0.5 0.5s0.224 0.5 0.5 0.5 0.5-0.224 0.5-0.5-0.224-0.5-0.5-0.5zm2 0c-0.276 0-0.5 0.224-0.5 0.5s0.224 0.5 0.5 0.5 0.5-0.224 0.5-0.5-0.224-0.5-0.5-0.5zm2 0c-0.276 0-0.5 0.224-0.5 0.5s0.224 0.5 0.5 0.5 0.5-0.224 0.5-0.5-0.224-0.5-0.5-0.5zm-3 1c-0.276 0-0.5 0.224-0.5 0.5s0.224 0.5 0.5 0.5 0.5-0.224 0.5-0.5-0.224-0.5-0.5-0.5zm2 0c-0.276 0-0.5 0.224-0.5 0.5s0.224 0.5 0.5 0.5 0.5-0.224 0.5-0.5-0.224-0.5-0.5-0.5z"/>
  <rect id="rect6513" style="fill:gray" height="1" width="1" y="14" x="12"/>
  <rect id="rect6525" style="fill:url(#linearGradient5559)" height="4" width="20" y="6" x="2"/>
  <path id="path6527" style="stroke-linejoin:round;stroke:#828282;stroke-linecap:square;stroke-width:.23529;fill:url(#radialGradient5556)" d="m4.8824 8c0 0.48731-0.39504 0.88235-0.88235 0.88235s-0.88235-0.39504-0.88235-0.88235 0.39504-0.88235 0.88235-0.88235 0.88235 0.39504 0.88235 0.88235z"/>
  <path id="path6529" style="fill:#fafafa" d="m6.7 8.5c0 0.27614-0.22386 0.5-0.5 0.5s-0.5-0.22386-0.5-0.5 0.22386-0.5 0.5-0.5 0.5 0.22386 0.5 0.5z"/>
  <path id="path6531" style="fill:#3c3c3c" d="m7 8.5c0 0.27614-0.22386 0.5-0.5 0.5s-0.5-0.22386-0.5-0.5 0.22386-0.5 0.5-0.5 0.5 0.22386 0.5 0.5z"/>
  <rect id="rect6537" style="opacity:.8;stroke:url(#linearGradient5551);stroke-linecap:square;stroke-width:.99969;fill:none" height="3.0003" width="19" y="6.4998" x="2.4998"/>
  <path id="path6539" style="fill:#fafafa" d="m16.2 7c-0.276 0-0.5 0.224-0.5 0.5s0.224 0.5 0.5 0.5 0.5-0.224 0.5-0.5-0.224-0.5-0.5-0.5zm2 0c-0.276 0-0.5 0.224-0.5 0.5s0.224 0.5 0.5 0.5 0.5-0.224 0.5-0.5-0.224-0.5-0.5-0.5zm2 0c-0.276 0-0.5 0.224-0.5 0.5s0.224 0.5 0.5 0.5 0.5-0.224 0.5-0.5-0.224-0.5-0.5-0.5zm-3 1c-0.276 0-0.5 0.224-0.5 0.5s0.224 0.5 0.5 0.5 0.5-0.224 0.5-0.5-0.224-0.5-0.5-0.5zm2 0c-0.276 0-0.5 0.224-0.5 0.5s0.224 0.5 0.5 0.5 0.5-0.224 0.5-0.5-0.224-0.5-0.5-0.5z"/>
  <path id="path6541" style="fill:#666" d="m16.5 7c-0.276 0-0.5 0.224-0.5 0.5s0.224 0.5 0.5 0.5 0.5-0.224 0.5-0.5-0.224-0.5-0.5-0.5zm2 0c-0.276 0-0.5 0.224-0.5 0.5s0.224 0.5 0.5 0.5 0.5-0.224 0.5-0.5-0.224-0.5-0.5-0.5zm2 0c-0.276 0-0.5 0.224-0.5 0.5s0.224 0.5 0.5 0.5 0.5-0.224 0.5-0.5-0.224-0.5-0.5-0.5zm-3 1c-0.276 0-0.5 0.224-0.5 0.5s0.224 0.5 0.5 0.5 0.5-0.224 0.5-0.5-0.224-0.5-0.5-0.5zm2 0c-0.276 0-0.5 0.224-0.5 0.5s0.224 0.5 0.5 0.5 0.5-0.224 0.5-0.5-0.224-0.5-0.5-0.5z"/>
  <rect id="rect6600" style="fill:gray" height="1" width="1" y="8" x="8"/>
  <rect id="rect6602" style="fill:gray" height="1" width="1" y="8" x="10"/>
  <rect id="rect6604" style="fill:gray" height="1" width="1" y="8" x="12"/>
 </g>
</svg>
