<?xml version="1.0" encoding="UTF-8" standalone="no"?>
<!-- Created with Inkscape (http://www.inkscape.org/) -->

<svg
   xmlns:dc="http://purl.org/dc/elements/1.1/"
   xmlns:cc="http://creativecommons.org/ns#"
   xmlns:rdf="http://www.w3.org/1999/02/22-rdf-syntax-ns#"
   xmlns:svg="http://www.w3.org/2000/svg"
   xmlns="http://www.w3.org/2000/svg"
   xmlns:sodipodi="http://sodipodi.sourceforge.net/DTD/sodipodi-0.dtd"
   xmlns:inkscape="http://www.inkscape.org/namespaces/inkscape"
   width="1920"
   height="1080"
   id="svg3798"
   version="1.1"
   inkscape:version="0.91 r13725"
   sodipodi:docname="Post_It_2.svg">
  <defs
     id="defs3800" />
  <sodipodi:namedview
     id="base"
     pagecolor="#ffffff"
     bordercolor="#666666"
     borderopacity="1.0"
     inkscape:pageopacity="0.0"
     inkscape:pageshadow="2"
     inkscape:zoom="0.98994949"
     inkscape:cx="1025.2422"
     inkscape:cy="478.4144"
     inkscape:document-units="px"
     inkscape:current-layer="layer1"
     showgrid="false"
     inkscape:window-width="1483"
     inkscape:window-height="835"
     inkscape:window-x="184"
     inkscape:window-y="105"
     inkscape:window-maximized="0"
     inkscape:snap-global="false" />
  <metadata
     id="metadata3803">
    <rdf:RDF>
      <cc:Work
         rdf:about="">
        <dc:format>image/svg+xml</dc:format>
        <dc:type
           rdf:resource="http://purl.org/dc/dcmitype/StillImage" />
        <dc:title></dc:title>
      </cc:Work>
    </rdf:RDF>
  </metadata>
  <g
     inkscape:label="Calque 1"
     inkscape:groupmode="layer"
     id="layer1"
     transform="translate(0,27.63782)">
    <rect
       style="opacity:0;fill:#ffff00;fill-opacity:1;stroke:#ce19cf;stroke-width:4;stroke-linecap:butt;stroke-linejoin:round;stroke-miterlimit:4;stroke-dasharray:none;stroke-dashoffset:0.2;stroke-opacity:0.52941165"
       id="rect3810"
       width="556.59406"
       height="411.13208"
       x="681.703"
       y="306.79614"
       ry="1.463998" />
    <rect
       style="opacity:0;fill:#ffff00;fill-opacity:1;stroke:#000000;stroke-width:4;stroke-linecap:butt;stroke-linejoin:round;stroke-miterlimit:4;stroke-dasharray:none;stroke-dashoffset:0.2;stroke-opacity:0"
       id="rect4322"
       width="640"
       height="480"
       x="640"
       y="272.36218"
       ry="1.463998" />
    <rect
       style="opacity:0;fill:#ffff00;fill-opacity:1;stroke:#000000;stroke-width:4;stroke-linecap:butt;stroke-linejoin:round;stroke-miterlimit:4;stroke-dasharray:none;stroke-dashoffset:0.2;stroke-opacity:0"
       id="rect4324"
       width="228.29448"
       height="261.62952"
       x="845.85278"
       y="381.54742"
       ry="1.463998" />
    <rect
       style="opacity:0;fill:#ffff00;fill-opacity:1;stroke:#000000;stroke-width:4;stroke-linecap:butt;stroke-linejoin:round;stroke-miterlimit:4;stroke-dasharray:none;stroke-dashoffset:0.2;stroke-opacity:0"
       id="rect4326"
       width="407.09146"
       height="304.05591"
       x="756.45428"
       y="360.33423"
       ry="1.463998" />
    <rect
       style="opacity:0;fill:#ffff00;fill-opacity:1;stroke:#000000;stroke-width:4;stroke-linecap:butt;stroke-linejoin:round;stroke-miterlimit:4;stroke-dasharray:none;stroke-dashoffset:0.2;stroke-opacity:0"
       id="rect4331"
       width="371.73615"
       height="304.05591"
       x="774.13196"
       y="360.33423"
       ry="1.463998" />
    <rect
       style="color:#000000;display:inline;overflow:visible;visibility:visible;fill:#ffff00;fill-opacity:1;fill-rule:evenodd;stroke:#000000;stroke-width:1px;stroke-linecap:butt;stroke-linejoin:miter;stroke-miterlimit:4;stroke-dasharray:none;stroke-dashoffset:0;stroke-opacity:1;marker:none;enable-background:accumulate"
       id="rect4333"
       width="636.96954"
       height="476.96954"
       x="641.51526"
       y="273.87741"
       ry="0" />
    <g
       transform="matrix(1.0157894,0,0,0.98445603,678.80466,-384.23297)"
       style="font-style:normal;font-variant:normal;font-weight:normal;font-stretch:normal;font-size:30.65865898px;line-height:125%;font-family:'Bitstream Charter';-inkscape-font-specification:'Bitstream Charter';letter-spacing:0px;word-spacing:0px;fill:#000000;fill-opacity:1;stroke:none"
       id="text4358">
      <path
         d="m 6.271736,890.50855 0,1.22634 1.7475435,0.18395 0.5211972,0.42922 0,16.89293 -0.5211972,0.42922 -1.7475435,0.15329 0,1.25701 7.450054,0 0,-1.25701 -1.900837,-0.15329 -0.521197,-0.42922 0,-8.24718 10.546579,0 0,8.24718 -0.521197,0.42922 -1.900837,0.15329 0,1.25701 7.450054,0 0,-1.25701 -1.747544,-0.15329 -0.521197,-0.42922 0,-16.89293 0.521197,-0.42922 1.747544,-0.18395 0,-1.22634 -7.450054,0 0,1.22634 1.900837,0.18395 0.521197,0.42922 0,7.23545 -10.546579,0 0,-7.23545 0.521197,-0.42922 1.900837,-0.18395 0,-1.22634 -7.450054,0"
         id="path4363"
         inkscape:connector-curvature="0" />
      <path
         d="m 41.629792,907.83069 c -1.747542,1.16503 -3.280478,1.7782 -4.81341,1.7782 -3.096521,0 -5.150654,-2.33006 -5.150654,-6.25437 0,-0.092 0,-0.21461 0,-0.33724 l 9.933405,0 c 0.03066,-0.33725 0.03066,-0.64383 0.03066,-0.95042 0,-3.77101 -2.176768,-6.03976 -5.518559,-6.03976 -4.108256,0 -7.08215,3.15785 -7.08215,7.7873 0,4.50682 2.789942,7.54203 6.836881,7.54203 1.931493,0 3.92431,-0.61317 5.763828,-1.83952 l 0,-1.68622 m -2.728621,-6.10108 -7.08215,0 c 0.183952,-2.60598 1.931497,-4.32287 3.893649,-4.32287 2.054129,0 3.188501,1.34899 3.188501,3.83234 0,0.15329 0,0.33724 0,0.49053"
         id="path4365"
         inkscape:connector-curvature="0" />
      <path
         d="m 43.844402,911.08051 7.388737,0 0,-1.10372 -2.146106,-0.15329 -0.521197,-0.49054 0,-8.76837 c 1.257004,-1.47162 2.330059,-2.23809 3.341794,-2.23809 0.643831,0 1.165029,0.24527 1.563591,0.73581 l 0.981077,0 0,-2.63664 c -0.643831,-0.27593 -1.226347,-0.39857 -1.839519,-0.39857 -0.245269,0 -0.521198,0 -0.766467,0.0613 -1.10371,0.8891 -2.207424,1.87018 -3.280476,2.97389 l 0,-2.88191 -1.165029,0 -3.556405,1.10371 0,0.95042 2.176765,0 0,11.09843 -0.551856,0.49054 -1.624909,0.15329 0,1.10372"
         id="path4367"
         inkscape:connector-curvature="0" />
      <path
         d="m 68.396237,907.83069 c -1.747542,1.16503 -3.280478,1.7782 -4.81341,1.7782 -3.096521,0 -5.150654,-2.33006 -5.150654,-6.25437 0,-0.092 0,-0.21461 0,-0.33724 l 9.933405,0 c 0.03066,-0.33725 0.03066,-0.64383 0.03066,-0.95042 0,-3.77101 -2.176768,-6.03976 -5.518559,-6.03976 -4.108256,0 -7.08215,3.15785 -7.08215,7.7873 0,4.50682 2.789942,7.54203 6.836881,7.54203 1.931494,0 3.92431,-0.61317 5.763828,-1.83952 l 0,-1.68622 m -2.728621,-6.10108 -7.08215,0 c 0.183952,-2.60598 1.931497,-4.32287 3.89365,-4.32287 2.054128,0 3.1885,1.34899 3.1885,3.83234 0,0.15329 0,0.33724 0,0.49053"
         id="path4369"
         inkscape:connector-curvature="0" />
      <path
         d="m 88.434067,909.3023 0.398562,1.77821 4.322871,0 0,-1.10372 -1.624909,-0.15329 -0.551856,-0.49054 0,-8.89101 c 0,-3.09652 -1.348984,-4.41485 -4.56814,-4.41485 -3.862987,0 -6.193049,1.59426 -6.193049,3.46443 0,0.73581 0.24527,0.95042 0.950419,0.95042 l 2.115447,0 0,-2.57533 c 0.827783,-0.33724 1.563592,-0.49054 2.330058,-0.49054 2.207421,0 2.820597,1.01174 2.820597,3.43377 l 0,0.98108 c -6.131726,1.47162 -8.952329,2.39138 -8.952329,5.57988 0,2.29939 1.502277,3.92431 3.924309,3.92431 1.471614,0 3.096526,-0.6745 5.02802,-1.99282 m 0,-1.04239 c -1.532932,0.8891 -2.789939,1.37964 -3.801674,1.37964 -1.532931,0 -2.452693,-1.01174 -2.452693,-2.51401 0,-2.23808 1.9315,-3.06587 6.254367,-4.26156 l 0,5.39593"
         id="path4371"
         inkscape:connector-curvature="0" />
      <path
         d="m 103.18567,911.08051 6.71425,0 0,-1.10372 -1.47162,-0.15329 -0.52119,-0.49054 0,-10.27065 c 1.31832,-0.67449 2.45269,-1.01173 3.43377,-1.01173 2.26873,0 3.09652,0.91976 3.09652,3.15784 l 0,8.12454 -0.5212,0.49054 -1.47161,0.15329 0,1.10372 6.71424,0 0,-1.10372 -1.65556,-0.15329 -0.5212,-0.49054 0,-8.64574 c 0,-3.06586 -1.47162,-4.66012 -4.13892,-4.66012 -1.31832,0 -2.88192,0.70515 -4.93604,1.83952 l 0,-1.68622 -1.16503,0 -3.55641,1.10371 0,0.95042 2.17677,0 0,11.09843 -0.5212,0.49054 -1.65557,0.15329 0,1.10372"
         id="path4373"
         inkscape:connector-curvature="0" />
      <path
         d="m 133.42612,907.83069 c -1.74754,1.16503 -3.28047,1.7782 -4.8134,1.7782 -3.09653,0 -5.15066,-2.33006 -5.15066,-6.25437 0,-0.092 0,-0.21461 0,-0.33724 l 9.93341,0 c 0.0307,-0.33725 0.0307,-0.64383 0.0307,-0.95042 0,-3.77101 -2.17676,-6.03976 -5.51855,-6.03976 -4.10826,0 -7.08215,3.15785 -7.08215,7.7873 0,4.50682 2.78994,7.54203 6.83688,7.54203 1.93149,0 3.92431,-0.61317 5.76382,-1.83952 l 0,-1.68622 m -2.72862,-6.10108 -7.08215,0 c 0.18396,-2.60598 1.9315,-4.32287 3.89365,-4.32287 2.05413,0 3.1885,1.34899 3.1885,3.83234 0,0.15329 0,0.33724 0,0.49053"
         id="path4375"
         inkscape:connector-curvature="0" />
      <path
         d="m 134.65967,896.33369 0,1.13437 1.87017,0.18395 4.07761,13.4285 1.90083,0 4.13892,-11.61964 3.7097,11.61964 1.90084,0 4.38418,-13.36718 1.71689,-0.24527 0,-1.13437 -5.42658,0 0,1.13437 1.65556,0.12264 0.24527,0.49053 -3.12718,9.96407 -3.61772,-11.71161 -1.87018,0 -4.10826,11.71161 -2.78994,-9.96407 0.36791,-0.49053 1.62491,-0.12264 0,-1.13437 -6.65293,0"
         id="path4377"
         inkscape:connector-curvature="0" />
      <path
         d="m 167.58179,917.76409 7.20478,0 0,-1.10371 -1.96215,-0.15329 -0.5212,-0.49054 0,-5.12 c 1.13437,0.18396 2.08479,0.27593 2.85126,0.27593 4.53747,0 7.54203,-3.12719 7.54203,-7.97125 0,-4.29221 -2.51402,-7.17413 -5.88647,-7.17413 -1.44095,0 -2.88191,0.61318 -4.50682,1.83952 l 0,-1.68622 -1.16503,0 -3.5564,1.10371 0,0.95042 2.17676,0 0,17.78202 -0.52119,0.49054 -1.65557,0.15329 0,1.10371 m 4.72143,-8.46179 0,-10.30131 c 1.16503,-0.67449 2.17677,-1.04239 3.21916,-1.04239 2.6673,0 4.47616,2.11545 4.47616,5.64119 0,3.77101 -2.08479,6.19305 -5.08933,6.19305 -0.73581,0 -1.59425,-0.15329 -2.60599,-0.49054"
         id="path4379"
         inkscape:connector-curvature="0" />
      <path
         d="m 192.01003,896.0271 c -4.13891,0 -7.11281,3.09653 -7.11281,7.66467 0,4.53748 3.00456,7.66466 7.11281,7.66466 4.10826,0 7.14347,-3.12718 7.14347,-7.66466 0,-4.53748 -3.00455,-7.66467 -7.14347,-7.66467 m 0,1.31833 c 2.48335,0 4.26156,2.39138 4.26156,6.34634 0,3.98562 -1.77821,6.34634 -4.26156,6.34634 -2.45269,0 -4.23089,-2.39138 -4.23089,-6.34634 0,-3.98562 1.74754,-6.34634 4.23089,-6.34634"
         id="path4381"
         inkscape:connector-curvature="0" />
      <path
         d="m 210.83636,896.70159 c -1.04239,-0.45988 -2.23808,-0.67449 -3.58706,-0.67449 -3.49508,0 -5.42658,1.59426 -5.42658,4.29222 0,2.05412 1.34898,3.0352 3.95497,4.20023 2.02346,0.91976 3.12718,1.47162 3.12718,3.06587 0,1.44095 -1.10371,2.48335 -2.88192,2.48335 -0.8891,0 -1.74754,-0.24527 -2.60598,-0.73581 l -0.36791,-2.60598 -1.47161,0 0,3.98562 c 1.07305,0.39856 2.42203,0.64383 3.98562,0.64383 3.61772,0 5.73317,-1.74754 5.73317,-4.5988 0,-1.13436 -0.42922,-2.05413 -1.16503,-2.63664 -1.01173,-0.82778 -2.17676,-1.25701 -3.24981,-1.7782 -1.71689,-0.82779 -2.60599,-1.47162 -2.60599,-2.78994 0,-1.37964 0.91976,-2.20742 2.54467,-2.20742 0.73581,0 1.47162,0.21461 2.26874,0.64383 l 0.24527,2.17676 1.50227,0 0,-3.46443"
         id="path4383"
         inkscape:connector-curvature="0" />
      <path
         d="m 215.2632,898.17321 0,9.90275 c 0,2.17676 0.64383,3.09652 3.1885,3.09652 1.19569,0 2.57533,-0.21461 4.01628,-0.67449 l 0,-1.13437 c -0.70514,0.15329 -1.4103,0.24527 -2.11544,0.24527 -2.14611,0 -2.54467,-1.01174 -2.54467,-3.34179 l 0,-8.09389 4.66011,0 0,-1.44096 -4.66011,0 0,-3.24981 -1.13437,0 -1.31832,2.85125 -2.02348,0.8891 0,0.95042 1.9315,0"
         id="path4385"
         inkscape:connector-curvature="0" />
      <path
         d="m 224.2457,902.68003 0,2.05413 6.89819,0 0,-2.05413 -6.89819,0"
         id="path4387"
         inkscape:connector-curvature="0" />
      <path
         d="m 237.28664,889.37417 c -0.98108,0 -1.7782,0.76647 -1.7782,1.77821 0,0.98107 0.79712,1.74754 1.7782,1.74754 0.98108,0 1.7782,-0.76647 1.7782,-1.74754 0,-0.98108 -0.79712,-1.77821 -1.7782,-1.77821 m -0.12263,6.80623 -3.52575,1.10371 0,0.95042 2.14611,0 0,11.09843 -0.5212,0.49054 -1.62491,0.15329 0,1.10372 6.8982,0 0,-1.10372 -1.65557,-0.15329 -0.55186,-0.49054 0,-13.15256 -1.16502,0"
         id="path4389"
         inkscape:connector-curvature="0" />
      <path
         d="m 243.82605,898.17321 0,9.90275 c 0,2.17676 0.64383,3.09652 3.1885,3.09652 1.19569,0 2.57533,-0.21461 4.01628,-0.67449 l 0,-1.13437 c -0.70514,0.15329 -1.41029,0.24527 -2.11544,0.24527 -2.14611,0 -2.54467,-1.01174 -2.54467,-3.34179 l 0,-8.09389 4.66011,0 0,-1.44096 -4.66011,0 0,-3.24981 -1.13437,0 -1.31832,2.85125 -2.02348,0.8891 0,0.95042 1.9315,0"
         id="path4391"
         inkscape:connector-curvature="0" />
    </g>
    <g
       id="g4393"
       style="font-style:normal;font-variant:normal;font-weight:normal;font-stretch:normal;font-size:30.65865898px;line-height:125%;font-family:'Bitstream Charter';-inkscape-font-specification:'Bitstream Charter';letter-spacing:0px;word-spacing:0px;fill:#000000;fill-opacity:1;stroke:none"
       transform="matrix(0.02520392,1.7168914,-2.8651893,0.01418543,3802.3935,282.74848)">
      <path
         id="path4395"
         d="m 6.271736,890.50855 0,1.22634 1.7475435,0.18395 0.5211972,0.42922 0,16.89293 -0.5211972,0.42922 -1.7475435,0.15329 0,1.25701 7.450054,0 0,-1.25701 -1.900837,-0.15329 -0.521197,-0.42922 0,-8.24718 10.546579,0 0,8.24718 -0.521197,0.42922 -1.900837,0.15329 0,1.25701 7.450054,0 0,-1.25701 -1.747544,-0.15329 -0.521197,-0.42922 0,-16.89293 0.521197,-0.42922 1.747544,-0.18395 0,-1.22634 -7.450054,0 0,1.22634 1.900837,0.18395 0.521197,0.42922 0,7.23545 -10.546579,0 0,-7.23545 0.521197,-0.42922 1.900837,-0.18395 0,-1.22634 -7.450054,0"
         inkscape:connector-curvature="0" />
      <path
         id="path4397"
         d="m 41.629792,907.83069 c -1.747542,1.16503 -3.280478,1.7782 -4.81341,1.7782 -3.096521,0 -5.150654,-2.33006 -5.150654,-6.25437 0,-0.092 0,-0.21461 0,-0.33724 l 9.933405,0 c 0.03066,-0.33725 0.03066,-0.64383 0.03066,-0.95042 0,-3.77101 -2.176768,-6.03976 -5.518559,-6.03976 -4.108256,0 -7.08215,3.15785 -7.08215,7.7873 0,4.50682 2.789942,7.54203 6.836881,7.54203 1.931493,0 3.92431,-0.61317 5.763828,-1.83952 l 0,-1.68622 m -2.728621,-6.10108 -7.08215,0 c 0.183952,-2.60598 1.931497,-4.32287 3.893649,-4.32287 2.054129,0 3.188501,1.34899 3.188501,3.83234 0,0.15329 0,0.33724 0,0.49053"
         inkscape:connector-curvature="0" />
      <path
         id="path4399"
         d="m 43.844402,911.08051 7.388737,0 0,-1.10372 -2.146106,-0.15329 -0.521197,-0.49054 0,-8.76837 c 1.257004,-1.47162 2.330059,-2.23809 3.341794,-2.23809 0.643831,0 1.165029,0.24527 1.563591,0.73581 l 0.981077,0 0,-2.63664 c -0.643831,-0.27593 -1.226347,-0.39857 -1.839519,-0.39857 -0.245269,0 -0.521198,0 -0.766467,0.0613 -1.10371,0.8891 -2.207424,1.87018 -3.280476,2.97389 l 0,-2.88191 -1.165029,0 -3.556405,1.10371 0,0.95042 2.176765,0 0,11.09843 -0.551856,0.49054 -1.624909,0.15329 0,1.10372"
         inkscape:connector-curvature="0" />
      <path
         id="path4401"
         d="m 68.396237,907.83069 c -1.747542,1.16503 -3.280478,1.7782 -4.81341,1.7782 -3.096521,0 -5.150654,-2.33006 -5.150654,-6.25437 0,-0.092 0,-0.21461 0,-0.33724 l 9.933405,0 c 0.03066,-0.33725 0.03066,-0.64383 0.03066,-0.95042 0,-3.77101 -2.176768,-6.03976 -5.518559,-6.03976 -4.108256,0 -7.08215,3.15785 -7.08215,7.7873 0,4.50682 2.789942,7.54203 6.836881,7.54203 1.931494,0 3.92431,-0.61317 5.763828,-1.83952 l 0,-1.68622 m -2.728621,-6.10108 -7.08215,0 c 0.183952,-2.60598 1.931497,-4.32287 3.89365,-4.32287 2.054128,0 3.1885,1.34899 3.1885,3.83234 0,0.15329 0,0.33724 0,0.49053"
         inkscape:connector-curvature="0" />
      <path
         id="path4403"
         d="m 88.434067,909.3023 0.398562,1.77821 4.322871,0 0,-1.10372 -1.624909,-0.15329 -0.551856,-0.49054 0,-8.89101 c 0,-3.09652 -1.348984,-4.41485 -4.56814,-4.41485 -3.862987,0 -6.193049,1.59426 -6.193049,3.46443 0,0.73581 0.24527,0.95042 0.950419,0.95042 l 2.115447,0 0,-2.57533 c 0.827783,-0.33724 1.563592,-0.49054 2.330058,-0.49054 2.207421,0 2.820597,1.01174 2.820597,3.43377 l 0,0.98108 c -6.131726,1.47162 -8.952329,2.39138 -8.952329,5.57988 0,2.29939 1.502277,3.92431 3.924309,3.92431 1.471614,0 3.096526,-0.6745 5.02802,-1.99282 m 0,-1.04239 c -1.532932,0.8891 -2.789939,1.37964 -3.801674,1.37964 -1.532931,0 -2.452693,-1.01174 -2.452693,-2.51401 0,-2.23808 1.9315,-3.06587 6.254367,-4.26156 l 0,5.39593"
         inkscape:connector-curvature="0" />
      <path
         id="path4405"
         d="m 103.18567,911.08051 6.71425,0 0,-1.10372 -1.47162,-0.15329 -0.52119,-0.49054 0,-10.27065 c 1.31832,-0.67449 2.45269,-1.01173 3.43377,-1.01173 2.26873,0 3.09652,0.91976 3.09652,3.15784 l 0,8.12454 -0.5212,0.49054 -1.47161,0.15329 0,1.10372 6.71424,0 0,-1.10372 -1.65556,-0.15329 -0.5212,-0.49054 0,-8.64574 c 0,-3.06586 -1.47162,-4.66012 -4.13892,-4.66012 -1.31832,0 -2.88192,0.70515 -4.93604,1.83952 l 0,-1.68622 -1.16503,0 -3.55641,1.10371 0,0.95042 2.17677,0 0,11.09843 -0.5212,0.49054 -1.65557,0.15329 0,1.10372"
         inkscape:connector-curvature="0" />
      <path
         id="path4407"
         d="m 133.42612,907.83069 c -1.74754,1.16503 -3.28047,1.7782 -4.8134,1.7782 -3.09653,0 -5.15066,-2.33006 -5.15066,-6.25437 0,-0.092 0,-0.21461 0,-0.33724 l 9.93341,0 c 0.0307,-0.33725 0.0307,-0.64383 0.0307,-0.95042 0,-3.77101 -2.17676,-6.03976 -5.51855,-6.03976 -4.10826,0 -7.08215,3.15785 -7.08215,7.7873 0,4.50682 2.78994,7.54203 6.83688,7.54203 1.93149,0 3.92431,-0.61317 5.76382,-1.83952 l 0,-1.68622 m -2.72862,-6.10108 -7.08215,0 c 0.18396,-2.60598 1.9315,-4.32287 3.89365,-4.32287 2.05413,0 3.1885,1.34899 3.1885,3.83234 0,0.15329 0,0.33724 0,0.49053"
         inkscape:connector-curvature="0" />
      <path
         id="path4409"
         d="m 134.65967,896.33369 0,1.13437 1.87017,0.18395 4.07761,13.4285 1.90083,0 4.13892,-11.61964 3.7097,11.61964 1.90084,0 4.38418,-13.36718 1.71689,-0.24527 0,-1.13437 -5.42658,0 0,1.13437 1.65556,0.12264 0.24527,0.49053 -3.12718,9.96407 -3.61772,-11.71161 -1.87018,0 -4.10826,11.71161 -2.78994,-9.96407 0.36791,-0.49053 1.62491,-0.12264 0,-1.13437 -6.65293,0"
         inkscape:connector-curvature="0" />
      <path
         id="path4411"
         d="m 167.58179,917.76409 7.20478,0 0,-1.10371 -1.96215,-0.15329 -0.5212,-0.49054 0,-5.12 c 1.13437,0.18396 2.08479,0.27593 2.85126,0.27593 4.53747,0 7.54203,-3.12719 7.54203,-7.97125 0,-4.29221 -2.51402,-7.17413 -5.88647,-7.17413 -1.44095,0 -2.88191,0.61318 -4.50682,1.83952 l 0,-1.68622 -1.16503,0 -3.5564,1.10371 0,0.95042 2.17676,0 0,17.78202 -0.52119,0.49054 -1.65557,0.15329 0,1.10371 m 4.72143,-8.46179 0,-10.30131 c 1.16503,-0.67449 2.17677,-1.04239 3.21916,-1.04239 2.6673,0 4.47616,2.11545 4.47616,5.64119 0,3.77101 -2.08479,6.19305 -5.08933,6.19305 -0.73581,0 -1.59425,-0.15329 -2.60599,-0.49054"
         inkscape:connector-curvature="0" />
      <path
         id="path4413"
         d="m 192.01003,896.0271 c -4.13891,0 -7.11281,3.09653 -7.11281,7.66467 0,4.53748 3.00456,7.66466 7.11281,7.66466 4.10826,0 7.14347,-3.12718 7.14347,-7.66466 0,-4.53748 -3.00455,-7.66467 -7.14347,-7.66467 m 0,1.31833 c 2.48335,0 4.26156,2.39138 4.26156,6.34634 0,3.98562 -1.77821,6.34634 -4.26156,6.34634 -2.45269,0 -4.23089,-2.39138 -4.23089,-6.34634 0,-3.98562 1.74754,-6.34634 4.23089,-6.34634"
         inkscape:connector-curvature="0" />
      <path
         id="path4415"
         d="m 210.83636,896.70159 c -1.04239,-0.45988 -2.23808,-0.67449 -3.58706,-0.67449 -3.49508,0 -5.42658,1.59426 -5.42658,4.29222 0,2.05412 1.34898,3.0352 3.95497,4.20023 2.02346,0.91976 3.12718,1.47162 3.12718,3.06587 0,1.44095 -1.10371,2.48335 -2.88192,2.48335 -0.8891,0 -1.74754,-0.24527 -2.60598,-0.73581 l -0.36791,-2.60598 -1.47161,0 0,3.98562 c 1.07305,0.39856 2.42203,0.64383 3.98562,0.64383 3.61772,0 5.73317,-1.74754 5.73317,-4.5988 0,-1.13436 -0.42922,-2.05413 -1.16503,-2.63664 -1.01173,-0.82778 -2.17676,-1.25701 -3.24981,-1.7782 -1.71689,-0.82779 -2.60599,-1.47162 -2.60599,-2.78994 0,-1.37964 0.91976,-2.20742 2.54467,-2.20742 0.73581,0 1.47162,0.21461 2.26874,0.64383 l 0.24527,2.17676 1.50227,0 0,-3.46443"
         inkscape:connector-curvature="0" />
      <path
         id="path4417"
         d="m 215.2632,898.17321 0,9.90275 c 0,2.17676 0.64383,3.09652 3.1885,3.09652 1.19569,0 2.57533,-0.21461 4.01628,-0.67449 l 0,-1.13437 c -0.70514,0.15329 -1.4103,0.24527 -2.11544,0.24527 -2.14611,0 -2.54467,-1.01174 -2.54467,-3.34179 l 0,-8.09389 4.66011,0 0,-1.44096 -4.66011,0 0,-3.24981 -1.13437,0 -1.31832,2.85125 -2.02348,0.8891 0,0.95042 1.9315,0"
         inkscape:connector-curvature="0" />
      <path
         id="path4419"
         d="m 224.2457,902.68003 0,2.05413 6.89819,0 0,-2.05413 -6.89819,0"
         inkscape:connector-curvature="0" />
      <path
         id="path4421"
         d="m 237.28664,889.37417 c -0.98108,0 -1.7782,0.76647 -1.7782,1.77821 0,0.98107 0.79712,1.74754 1.7782,1.74754 0.98108,0 1.7782,-0.76647 1.7782,-1.74754 0,-0.98108 -0.79712,-1.77821 -1.7782,-1.77821 m -0.12263,6.80623 -3.52575,1.10371 0,0.95042 2.14611,0 0,11.09843 -0.5212,0.49054 -1.62491,0.15329 0,1.10372 6.8982,0 0,-1.10372 -1.65557,-0.15329 -0.55186,-0.49054 0,-13.15256 -1.16502,0"
         inkscape:connector-curvature="0" />
      <path
         id="path4423"
         d="m 243.82605,898.17321 0,9.90275 c 0,2.17676 0.64383,3.09652 3.1885,3.09652 1.19569,0 2.57533,-0.21461 4.01628,-0.67449 l 0,-1.13437 c -0.70514,0.15329 -1.41029,0.24527 -2.11544,0.24527 -2.14611,0 -2.54467,-1.01174 -2.54467,-3.34179 l 0,-8.09389 4.66011,0 0,-1.44096 -4.66011,0 0,-3.24981 -1.13437,0 -1.31832,2.85125 -2.02348,0.8891 0,0.95042 1.9315,0"
         inkscape:connector-curvature="0" />
    </g>
  </g>
</svg>
