<?xml version="1.0" encoding="UTF-8" standalone="no"?>
<!-- Created with Inkscape (http://www.inkscape.org/) -->
<svg id="svg6056" xmlns="http://www.w3.org/2000/svg" height="48" width="48" version="1.1" xmlns:xlink="http://www.w3.org/1999/xlink">
 <defs id="defs6058">
  <radialGradient id="radialGradient6510" xlink:href="#linearGradient5060" gradientUnits="userSpaceOnUse" cy="486.65" cx="605.71" gradientTransform="matrix(.024097 0 0 .015375 26.478 38.629)" r="117.14"/>
  <linearGradient id="linearGradient5060">
   <stop id="stop5062" offset="0"/>
   <stop id="stop5064" style="stop-opacity:0" offset="1"/>
  </linearGradient>
  <radialGradient id="radialGradient6508" xlink:href="#linearGradient5060" gradientUnits="userSpaceOnUse" cy="486.65" cx="605.71" gradientTransform="matrix(-.024097 0 0 .015375 21.522 38.629)" r="117.14"/>
  <linearGradient id="linearGradient6506" y2="609.51" gradientUnits="userSpaceOnUse" x2="302.86" gradientTransform="matrix(.070414 0 0 .015375 -1.4497 38.629)" y1="366.65" x1="302.86">
   <stop id="stop5050" style="stop-opacity:0" offset="0"/>
   <stop id="stop5056" offset=".5"/>
   <stop id="stop5052" style="stop-opacity:0" offset="1"/>
  </linearGradient>
  <linearGradient id="linearGradient6546" y2="2.9062" gradientUnits="userSpaceOnUse" x2="-51.786" gradientTransform="matrix(.80750 0 0 .93585 59.41 -2.1145)" y1="50.786" x1="-51.786">
   <stop id="stop3106" style="stop-color:#aaa" offset="0"/>
   <stop id="stop3108" style="stop-color:#d2d2d2" offset="1"/>
  </linearGradient>
  <linearGradient id="linearGradient6544" y2="47.013" gradientUnits="userSpaceOnUse" x2="25.132" gradientTransform="translate(-.00001 -1)" y1="6.7287" x1="25.132">
   <stop id="stop3602" style="stop-color:#f4f4f4" offset="0"/>
   <stop id="stop3604" style="stop-color:#dbdbdb" offset="1"/>
  </linearGradient>
  <linearGradient id="linearGradient3762" y2="19.321" gradientUnits="userSpaceOnUse" x2="22.954" gradientTransform="matrix(.96607 0 0 .90142 -2.15 3.5833)" y1="7.6358" x1="22.954">
   <stop id="stop4044" style="stop-color:#7a7a7a" offset="0"/>
   <stop id="stop4046" style="stop-color:#5d5d5d" offset="1"/>
  </linearGradient>
  <linearGradient id="linearGradient8668" y2="11.817" xlink:href="#linearGradient4338" gradientUnits="userSpaceOnUse" x2="22.104" gradientTransform="matrix(1.0676 0 0 1.5499 1.7897 4.68)" y1="43.199" x1="22.104"/>
  <linearGradient id="linearGradient8656" y2="11.817" xlink:href="#linearGradient4338" gradientUnits="userSpaceOnUse" x2="22.104" gradientTransform="matrix(1.0676 0 0 1.5499 1.7897 5.9078)" y1="43.199" x1="22.104"/>
  <linearGradient id="linearGradient8644" y2="11.817" xlink:href="#linearGradient4338" gradientUnits="userSpaceOnUse" x2="22.104" gradientTransform="matrix(1.0376 0 0 1.5499 2.1321 5.0893)" y1="43.199" x1="22.104"/>
  <linearGradient id="linearGradient8630" y2="11.817" xlink:href="#linearGradient4338" gradientUnits="userSpaceOnUse" x2="22.104" gradientTransform="matrix(1.0583 0 0 1.5499 1.896 5.4985)" y1="43.199" x1="22.104"/>
  <linearGradient id="linearGradient8620" y2="11.817" xlink:href="#linearGradient4338" gradientUnits="userSpaceOnUse" x2="22.104" gradientTransform="matrix(1.0583 0 0 1.5499 1.896 7.1356)" y1="43.199" x1="22.104"/>
  <linearGradient id="linearGradient8610" y2="11.817" xlink:href="#linearGradient4338" gradientUnits="userSpaceOnUse" x2="22.104" gradientTransform="matrix(1.0334 0 0 1.5499 2.1801 6.3171)" y1="43.199" x1="22.104"/>
  <linearGradient id="linearGradient8598" y2="11.817" xlink:href="#linearGradient4338" gradientUnits="userSpaceOnUse" x2="22.104" gradientTransform="matrix(1.0872 0 0 1.5499 1.5654 6.7263)" y1="43.199" x1="22.104"/>
  <linearGradient id="linearGradient8583" y2="11.817" xlink:href="#linearGradient4338" gradientUnits="userSpaceOnUse" x2="22.104" gradientTransform="matrix(1.0701 0 0 1.5499 1.7602 7.5449)" y1="43.199" x1="22.104"/>
  <linearGradient id="linearGradient4338">
   <stop id="stop4340" style="stop-color:#8e8e8e" offset="0"/>
   <stop id="stop4342" style="stop-color:#b5b5b5" offset="1"/>
  </linearGradient>
  <linearGradient id="linearGradient3159" y2="46.017" gradientUnits="userSpaceOnUse" x2="24" gradientTransform="matrix(1 0 0 .97778 -3e-7 -.98889)" y1="2" x1="24">
   <stop id="stop3213" style="stop-color:#fff" offset="0"/>
   <stop id="stop3215" style="stop-color:#fff;stop-opacity:0" offset="1"/>
  </linearGradient>
  <linearGradient id="linearGradient4079" y2="55.1" gradientUnits="userSpaceOnUse" x2="20.196" y1="-14.172" x1="10.943">
   <stop id="stop3995" style="stop-color:#a3c0d0" offset="0"/>
   <stop id="stop4001" style="stop-color:#427da1" offset="1"/>
  </linearGradient>
 </defs>
 <g id="layer1">
  <g id="g3800" transform="matrix(.95613 0 0 .95613 1.053 1.1059)">
   <rect id="rect3802" style="opacity:.40206;fill:url(#linearGradient6506)" height="3.7339" width="34" y="44.266" x="7"/>
   <path id="path3804" style="opacity:.40206;fill:url(#radialGradient6508)" d="m7 44.266v3.7337c-1.2409 0.007-3-0.83652-3-1.8671 0-1.0305 1.3848-1.8666 3-1.8666z"/>
   <path id="path3806" style="opacity:.40206;fill:url(#radialGradient6510)" d="m41 44.266v3.7337c1.2409 0.007 3-0.83652 3-1.8671 0-1.0305-1.3848-1.8666-3-1.8666z"/>
  </g>
  <path id="path3808" style="stroke-linejoin:round;stroke:url(#linearGradient6546);stroke-width:.99992;fill:url(#linearGradient6544)" d="m6.5 0.5h35v45h-35v-45z"/>
  <path id="text4036" style="fill:url(#linearGradient3762)" d="m19.298 11.438c-0.70743 1.79-1.4149 3.5799-2.1223 5.3699h4.2523l-2.13-5.37zm-0.883-1.438h1.7737c1.4691 3.5968 2.9382 7.1936 4.4073 10.79h-1.6266c-0.35114-0.92269-0.70227-1.8454-1.0534-2.7681h-5.2128c-0.35114 0.92269-0.70227 1.8454-1.0534 2.7681h-1.6498c1.4717-3.5968 2.9433-7.1936 4.415-10.79zm11.742 6.7214c-0.90853 0.03519-1.9693-0.02527-2.6848 0.58542-0.73713 0.78594-0.37197 2.2853 0.80016 2.5013 1.1444 0.30244 2.481-0.20185 2.9616-1.2442 0.26505-0.53848 0.44081-1.3254 0.29502-1.8425h-1.372zm2.8426-0.54928v4.6183h-1.4252v-1.2286c-0.58837 0.99054-1.8162 1.4881-2.9976 1.4382-1.2558 0.06807-2.5924-0.6715-2.8282-1.8798-0.29998-1.1647 0.17754-2.587 1.4514-3.0492 1.3812-0.55902 2.9123-0.34761 4.3743-0.39028 0.0996-0.86351-0.50993-1.723-1.4252-1.9261-1.289-0.2999-2.6847-0.04413-3.8418 0.53843-0.000001-0.40955-0.000001-0.8191-0.000001-1.2286 1.6007-0.56393 3.4957-0.87219 5.0888-0.1333 1.2622 0.61296 1.6179 2.0205 1.6034 3.2411h-0.000002z"/>
  <path id="path8479" style="opacity:.7;fill:url(#linearGradient8668)" d="m14 23h2.5179v1h-2.518v-1z"/>
  <path id="path8477" style="opacity:.7;fill:url(#linearGradient8668)" d="m16.861 23h2.3758v1h-2.3758v-1z"/>
  <path id="path8475" style="opacity:.7;fill:url(#linearGradient8668)" d="m19.58 23h2.0914v1h-2.0914v-1z"/>
  <path id="path8473" style="opacity:.7;fill:url(#linearGradient8668)" d="m22.014 23h0.91865v1h-0.91865v-1z"/>
  <path id="path8471" style="opacity:.7;fill:url(#linearGradient8668)" d="m23.276 23h2.0559v1h-2.0559v-1z"/>
  <path id="path8469" style="opacity:.7;fill:url(#linearGradient8668)" d="m25.675 23h5.325v1h-5.3255v-1z"/>
  <path id="path8461" style="opacity:.7;fill:url(#linearGradient8656)" d="m14 29h2.5179v1h-2.518v-1z"/>
  <path id="path8459" style="opacity:.7;fill:url(#linearGradient8656)" d="m16.861 29h2.3758v1h-2.3758v-1z"/>
  <path id="path8457" style="opacity:.7;fill:url(#linearGradient8656)" d="m19.58 29h2.0914v1h-2.0914v-1z"/>
  <path id="path8455" style="opacity:.7;fill:url(#linearGradient8656)" d="m22.014 29h0.91865v1h-0.91865v-1z"/>
  <path id="path8453" style="opacity:.7;fill:url(#linearGradient8656)" d="m23.276 29h2.0559v1h-2.0559v-1z"/>
  <path id="path8451" style="opacity:.7;fill:url(#linearGradient8656)" d="m25.675 29h5.325v1h-5.3255v-1z"/>
  <path id="path8443" style="opacity:.7;fill:url(#linearGradient8644)" d="m14 25h3.7944v1h-3.794v-1z"/>
  <path id="path8441" style="opacity:.7;fill:url(#linearGradient8644)" d="m18.141 25h1.8255v1h-1.8255v-1z"/>
  <path id="path8439" style="opacity:.7;fill:url(#linearGradient8644)" d="m20.313 25h0.85834v1h-0.85834v-1z"/>
  <path id="path8437" style="opacity:.7;fill:url(#linearGradient8644)" d="m21.517 25h1.6528v1h-1.6528v-1z"/>
  <path id="path8435" style="opacity:.7;fill:url(#linearGradient8644)" d="m23.516 25h1.6528v1h-1.6528v-1z"/>
  <path id="path8433" style="opacity:.7;fill:url(#linearGradient8644)" d="m25.516 25h2.6545v1h-2.6545v-1z"/>
  <path id="path8431" style="opacity:.7;fill:url(#linearGradient8644)" d="m28.516 25h3.484v1h-3.4836v-1z"/>
  <path id="path8425" style="opacity:.7;fill:url(#linearGradient8630)" d="m14 27h4.4336v1h-4.434v-1z"/>
  <path id="path8423" style="opacity:.7;fill:url(#linearGradient8630)" d="m18.781 27h4.7507v1h-4.7507v-1z"/>
  <path id="path8421" style="opacity:.7;fill:url(#linearGradient8630)" d="m23.879 27h1.8971v1h-1.8971v-1z"/>
  <path id="path8419" style="opacity:.7;fill:url(#linearGradient8630)" d="m26.124 27h4.4688v1h-4.4688v-1z"/>
  <path id="path8415" style="opacity:.7;fill:url(#linearGradient8630)" d="m30.94 27h3.06v1h-3.0596v-1z"/>
  <path id="path8409" style="opacity:.7;fill:url(#linearGradient8620)" d="m14 35h4.4336v1h-4.434v-1z"/>
  <path id="path8407" style="opacity:.7;fill:url(#linearGradient8620)" d="m18.781 35h4.7507v1h-4.7507v-1z"/>
  <path id="path8405" style="opacity:.7;fill:url(#linearGradient8620)" d="m23.879 35h1.8971v1h-1.8971v-1z"/>
  <path id="path8403" style="opacity:.7;fill:url(#linearGradient8620)" d="m26.124 35h4.4688v1h-4.4688v-1z"/>
  <path id="path8399" style="opacity:.7;fill:url(#linearGradient8620)" d="m30.94 35h3.06v1h-3.0596v-1z"/>
  <path id="path8393" style="opacity:.7;fill:url(#linearGradient8610)" d="m14 31h3.1255v1h-3.126v-1z"/>
  <path id="path8391" style="opacity:.7;fill:url(#linearGradient8610)" d="m17.457 31h5.1896v1h-5.1896v-1z"/>
  <path id="path8389" style="opacity:.7;fill:url(#linearGradient8610)" d="m22.979 31h2.5062v1h-2.5062v-1z"/>
  <path id="path8387" style="opacity:.7;fill:url(#linearGradient8610)" d="m28.484 31h1.9902v1h-1.9902v-1z"/>
  <path id="path8385" style="opacity:.7;fill:url(#linearGradient8610)" d="m30.806 31h3.194v1h-3.1943v-1z"/>
  <path id="path8381" style="opacity:.7;fill:url(#linearGradient8610)" d="m25.817 31h2.3342v1h-2.3342v-1z"/>
  <path id="path8379" style="opacity:.7;fill:url(#linearGradient8598)" d="m14 33h4.1204v1h-4.12v-1z"/>
  <path id="path8377" style="opacity:.7;fill:url(#linearGradient8598)" d="m18.461 33h1.2974v1h-1.2974v-1z"/>
  <path id="path8375" style="opacity:.7;fill:url(#linearGradient8598)" d="m20.098 33h2.9623v1h-2.9623v-1z"/>
  <path id="path8373" style="opacity:.7;fill:url(#linearGradient8598)" d="m23.401 33h2.0213v1h-2.0213v-1z"/>
  <path id="path8371" style="opacity:.7;fill:url(#linearGradient8598)" d="m25.762 33h2.0213v1h-2.0213v-1z"/>
  <path id="path8369" style="opacity:.7;fill:url(#linearGradient8598)" d="m28.124 33h2.9261v1h-2.9261v-1z"/>
  <path id="path8367" style="opacity:.7;fill:url(#linearGradient8598)" d="m31.39 33h0.61v1h-0.60981v-1z"/>
  <path id="path8361" style="opacity:.7;fill:url(#linearGradient8583)" d="m14 37h1.6334v1h-1.633v-1z"/>
  <path id="path8359" style="opacity:.7;fill:url(#linearGradient8583)" d="m16.056 37h5.944v1h-5.9439v-1z"/>
  <path id="path3821" style="opacity:.6;stroke:url(#linearGradient4079);stroke-width:1px;fill:none" d="m7 40.5h34m-28.339-39.264-0.161 43.764m24-44v44m-29.5-37.5h34"/>
  <path id="path2435" style="opacity:.6;stroke-linejoin:round;stroke:url(#linearGradient3159);stroke-width:.99992;fill:none" d="m40.5 2.2366v41.263h-33v-42.045h32.866"/>
 </g>
</svg>
