<?xml version="1.0" encoding="UTF-8" standalone="no"?>
<!-- Created with Inkscape (http://www.inkscape.org/) -->
<svg id="svg2974" xmlns="http://www.w3.org/2000/svg" height="48" width="48" version="1.0" xmlns:xlink="http://www.w3.org/1999/xlink">
 <defs id="defs2976">
  <linearGradient id="linearGradient5593" y2="609.51" gradientUnits="userSpaceOnUse" x2="302.86" gradientTransform="matrix(.065587 0 0 .036985 3.3658 83.447)" y1="366.65" x1="302.86">
   <stop id="stop5050" style="stop-opacity:0" offset="0"/>
   <stop id="stop5056" offset=".5"/>
   <stop id="stop5052" style="stop-opacity:0" offset="1"/>
  </linearGradient>
  <radialGradient id="radialGradient5595" xlink:href="#linearGradient5060" gradientUnits="userSpaceOnUse" cy="486.65" cx="605.71" gradientTransform="matrix(.065587 0 0 .036985 3.3787 83.447)" r="117.14"/>
  <linearGradient id="linearGradient5060">
   <stop id="stop5062" offset="0"/>
   <stop id="stop5064" style="stop-opacity:0" offset="1"/>
  </linearGradient>
  <radialGradient id="radialGradient5597" xlink:href="#linearGradient5060" gradientUnits="userSpaceOnUse" cy="486.65" cx="605.71" gradientTransform="matrix(-.065587 0 0 .036985 50.763 83.447)" r="117.14"/>
  <linearGradient id="linearGradient5585" y2="60.894" gradientUnits="userSpaceOnUse" x2="24.978" gradientTransform="translate(-5 -5)" y1="12" x1="24.493">
   <stop id="stop4105" style="stop-color:#edd563" offset="0"/>
   <stop id="stop4107" style="stop-color:#e08223" offset="1"/>
  </linearGradient>
  <linearGradient id="linearGradient5587" y2="50" xlink:href="#linearGradient6402" gradientUnits="userSpaceOnUse" x2="19.66" gradientTransform="translate(-5 -5)" y1="12" x1="19.49"/>
  <linearGradient id="linearGradient6402">
   <stop id="stop6404" style="stop-color:#cd8033" offset="0"/>
   <stop id="stop6406" style="stop-color:#bb5e12" offset="1"/>
  </linearGradient>
  <radialGradient id="radialGradient5582" gradientUnits="userSpaceOnUse" cy="14.746" cx="10.083" gradientTransform="matrix(.39205 -.026334 .086746 1.2914 -.32075 -9.473)" r="17.993">
   <stop id="stop3101" style="stop-color:#fff" offset="0"/>
   <stop id="stop3103" style="stop-color:#fff;stop-opacity:0" offset="1"/>
  </radialGradient>
  <linearGradient id="linearGradient5578" y2="49.836" xlink:href="#linearGradient6402" gradientUnits="userSpaceOnUse" x2="15.206" gradientTransform="translate(-5 -5)" y1="12.094" x1="15.206"/>
  <linearGradient id="linearGradient5574" y2="50.124" xlink:href="#linearGradient6402" gradientUnits="userSpaceOnUse" x2="25.048" gradientTransform="translate(-5 -5)" y1="11.852" x1="24.806"/>
  <linearGradient id="linearGradient8576" y2="9.8282" xlink:href="#XMLID_897_" gradientUnits="userSpaceOnUse" x2="296.4" gradientTransform="matrix(-2.266 1.0606 1.3034 2.8055 691.56 -311.63)" y1="6.3851" x1="294.21"/>
  <linearGradient id="XMLID_897_" y2="10.711" gradientUnits="userSpaceOnUse" x2="296.94" y1="4.7593" x1="292.97">
   <stop id="stop45093" style="stop-color:#e8e8e5" offset="0"/>
   <stop id="stop45095" style="stop-color:#f0f0f0" offset="1"/>
  </linearGradient>
  <linearGradient id="linearGradient8573" y2="23.943" xlink:href="#linearGradient2229" gradientUnits="userSpaceOnUse" x2="24.326" gradientTransform="matrix(.54896 -.25693 .31509 .67822 12.147 16.191)" y1="6.4604" x1="20.288"/>
  <linearGradient id="linearGradient2229">
   <stop id="stop2231" style="stop-color:#e2e2e2" offset="0"/>
   <stop id="stop2233" style="stop-color:#d8d8d8" offset="1"/>
  </linearGradient>
  <linearGradient id="linearGradient8569" y2="10.289" xlink:href="#XMLID_897_" gradientUnits="userSpaceOnUse" x2="296.64" gradientTransform="matrix(2.2252 -1.0415 1.3034 2.8055 -636.93 310.15)" y1="3.0185" x1="293.01"/>
  <linearGradient id="linearGradient8566" y2="23.943" xlink:href="#linearGradient2229" gradientUnits="userSpaceOnUse" x2="24.326" gradientTransform="matrix(.54896 -.25693 .31509 .67822 12.147 16.191)" y1="18.036" x1="19.222"/>
  <linearGradient id="linearGradient8582" y2="22.861" gradientUnits="userSpaceOnUse" x2="24.19" y1="23.843" x1="22.225">
   <stop id="stop695" style="stop-color:#babdb6" offset="0"/>
   <stop id="stop697" style="stop-color:#eeeeec" offset="1"/>
  </linearGradient>
 </defs>
 <g id="layer1">
  <g id="g5599" style="enable-background:new" transform="translate(0 -1)">
   <g id="g9421" transform="matrix(.92708 0 0 .66799 -3.347 -23.8)">
    <rect id="rect4173" style="opacity:.40206;fill:url(#linearGradient5593)" height="8.9822" width="31.669" y="97.008" x="11.236"/>
    <path id="path5058" style="opacity:.40206;fill:url(#radialGradient5595)" d="m42.906 97.008v8.9817c3.3776 0.0169 8.1654-2.0123 8.1654-4.4914s-3.7691-4.4903-8.1654-4.4903z"/>
    <path id="path5018" style="opacity:.40206;fill:url(#radialGradient5597)" d="m11.236 97.008v8.9817c-3.3776 0.0169-8.1654-2.0123-8.1654-4.4914s3.7691-4.4903 8.1654-4.4903z"/>
   </g>
   <path id="rect5490" style="stroke-linejoin:round;fill-rule:evenodd;stroke:url(#linearGradient5587);stroke-linecap:square;fill:url(#linearGradient5585)" d="m3.5 7.5v37h37v-9h-28v-28h-9z"/>
   <path id="rect8492" style="opacity:.6;stroke:url(#radialGradient5582);stroke-linecap:square;stroke-width:.986;fill:none" d="m4.5 8.5v28 7h7 28v-7h-28v-28h-7z"/>
   <path id="path8551" style="stroke-width:.82561;fill-rule:evenodd;stroke:#edcb73;stroke-linecap:square;enable-background:new;fill:#eabe5c" d="m8.4128 14.9v0.1875h3.25v-0.1875h-3.25zm1.9375 1.9375v0.3125h1.3125v-0.3125h-1.3125zm0 2v0.3125h1.3125v-0.3125h-1.3125zm0 2v0.3125h1.3125v-0.3125h-1.3125zm0 2v0.3125h1.3125v-0.3125h-1.3125zm-1.9375 2.0625v0.1875h3.25v-0.1875h-3.25zm1.9375 1.9375v0.3125h1.3125v-0.3125h-1.3125zm0 2v0.3125h1.3125v-0.3125h-1.3125zm0 2v0.3125h1.3125v-0.3125h-1.3125zm0 2v0.3125h1.3125v-0.3125h-1.3125zm-1.9375 2.0625v0.1875h3.25v-0.1875h-3.25z"/>
   <path id="rect8505" style="stroke:url(#linearGradient5578);stroke-linecap:square;stroke-width:.82561;fill:none" d="m8.4128 14.413v0.1875h3.5872v-0.1875h-3.5872zm1.9375 1.9375v0.3125h1.6497v-0.3125h-1.6497zm0 2v0.3125h1.6497v-0.3125h-1.6497zm0 2v0.3125h1.6497v-0.3125h-1.6497zm0 2v0.3125h1.6497v-0.3125h-1.6497zm-1.9375 2.0625v0.1875h3.5872v-0.1875h-3.5872zm1.9375 1.9375v0.3125h1.6497v-0.3125h-1.6497zm0 2v0.3125h1.6497v-0.3125h-1.6497zm0 2v0.3125h1.6497v-0.3125h-1.6497zm0 2v0.3125h1.6497v-0.3125h-1.6497zm-1.9375 2.0625v0.1875h3.5872v-0.1875h-3.5872z"/>
   <path id="path8555" style="stroke-width:.82561;fill-rule:evenodd;stroke:#eabe5c;stroke-linecap:square;enable-background:new;fill:#eabe5c" d="m12.913 39.587h0.1875v-3.25h-0.1875v3.25zm1.9375-1.9375h0.3125v-1.3125h-0.3125v1.3125zm2 0h0.3125v-1.3125h-0.3125v1.3125zm2 0h0.3125v-1.3125h-0.3125v1.3125zm2 0h0.3125v-1.3125h-0.3125v1.3125zm2.0625 1.9375h0.1875v-3.25h-0.1875v3.25zm1.9375-1.9375h0.3125v-1.3125h-0.3125v1.3125zm2 0h0.3125v-1.3125h-0.3125v1.3125zm2 0h0.3125v-1.3125h-0.3125v1.3125zm2 0h0.3125v-1.3125h-0.3125v1.3125zm2.0625 1.9375h0.1875v-3.25h-0.1875v3.25z"/>
   <path id="rect8527" style="stroke-width:.82561;stroke:url(#linearGradient5574);stroke-linecap:square;enable-background:new;fill:none" d="m13.413 39.663h0.1875v-3.7498h-0.1875v3.7498zm1.9375-1.9375h0.3125v-1.8123h-0.3125v1.8123zm2 0h0.3125v-1.8123h-0.3125v1.8123zm2 0h0.3125v-1.8123h-0.3125v1.8123zm2 0h0.3125v-1.8123h-0.3125v1.8123zm2.0625 1.9375h0.1875v-3.7498h-0.1875v3.7498zm1.9375-1.9375h0.3125v-1.8123h-0.3125v1.8123zm2 0h0.3125v-1.8123h-0.3125v1.8123zm2 0h0.3125v-1.8123h-0.3125v1.8123zm2 0h0.3125v-1.8123h-0.3125v1.8123zm2.0625 1.9375h0.1875v-3.7498h-0.1875v3.7498z"/>
   <g id="g8586" transform="translate(-5 -5)">
    <path id="path16717" style="stroke-linejoin:round;stroke:#888a85;stroke-linecap:round;stroke-width:.99952;fill:url(#linearGradient8576)" d="m31.419 8.5126c0.13795-0.00798 0.27464-0.0091 0.41107-0.012809 1.0499 1.3227 3.4078 2.0535 3.4668 3.8325-0.08982 5.3103-0.13796 10.671-0.19624 16.008-0.3631 0.29124-0.75086 0.53879-1.159 0.74451-0.8582 0.43487-1.8262 0.69411-2.8227 0.71501 0.07829-7.0974 0.15181-14.208 0.30015-21.287v4e-7z"/>
    <path id="path16719" style="fill:url(#linearGradient8573)" d="m32.309 10.263c-0.03 0.2679 0.02761 0.70621-0.01228 0.96046-0.09383 5.6196-0.22875 11.249-0.33962 16.854 0.04652 0.18723-0.12785 0.89568 0.2905 0.64264 0.67256-0.15139 1.3576-0.3459 1.8734-0.82971 0.10454-5.1825 0.15438-10.379 0.25353-15.561 0.06598-0.35066-0.06696-0.73265-0.3863-0.90249-0.54827-0.41767-1.1134-0.86171-1.6574-1.2513l-0.01645 0.06608-0.0054 0.02154 0.000037 0.000001z"/>
    <polygon id="polygon45129" style="stroke-linejoin:round;stroke:#333;stroke-linecap:round;stroke-width:.41783;fill:#464646" points="295.75 11.96 297.04 12.3 297.04 12.3 296.4 13.385 295.13 14.719 294.73 13.673" transform="matrix(1.9971 -.93470 1.0935 2.3537 -572.66 276.69)"/>
    <path id="polygon45097" style="stroke-linejoin:round;stroke:#888a85;stroke-linecap:round;stroke-width:.99952;fill:url(#linearGradient8569)" d="m19.773 13.963c-0.09266 0.09996-0.17936 0.20338-0.26784 0.30495 0.3411 1.6544-0.5869 3.9232 0.72158 5.1173 4.0728 3.362 8.1576 6.7884 12.231 10.192 0.4483-0.08853 0.87905-0.22406 1.291-0.40218 0.86786-0.37299 1.6718-0.94306 2.3134-1.6889-5.417-4.525-10.841-9.063-16.289-13.523z"/>
    <path id="path16635" style="fill:url(#linearGradient8566)" d="m20.468 15.805c0.14474 0.86256-0.1795 1.699 0.05314 2.5812 4.0506 3.3838 8.1247 6.7408 12.172 10.12 0.73924-0.13272 1.3625-0.56077 1.9344-1.0344-0.33694-0.45368-0.82461-0.713-1.2049-1.1118-4.2083-3.4556-8.4333-6.8975-12.625-10.374-0.05581-0.09906-0.27151-0.27266-0.32972-0.18111h-0.000001z"/>
    <path id="path16731" style="fill:url(#linearGradient8582)" d="m24.19 23.843c0.000371 0.5429-0.43963 0.9832-0.98252 0.9832-0.5429 0-0.9829-0.4403-0.98252-0.9832-0.000371-0.5429 0.43963-0.9832 0.98252-0.9832 0.5429 0 0.9829 0.4403 0.98252 0.9832z" transform="matrix(.53792 -.25177 .31509 .67822 12.372 16.229)"/>
    <path id="path45138" style="stroke:#333;stroke-width:1.0168;fill:#464646" d="m31.471 32.535c2.4675 0.3307 4.2574 3.49 3.9952 7.0581-0.26128 3.5697-2.472 6.1964-4.9378 5.8711-2.4684-0.33033-4.2565-3.4884-3.9944-7.0565 0.26125-3.5677 2.4729-6.1948 4.937-5.8728zm-0.16417 2.2734c-1.0947-0.1448-2.4507 1.4836-2.6247 3.8828-0.17639 2.4002 0.91747 4.3582 2.0106 4.5018 1.0954 0.14818 2.4514-1.4839 2.6255-3.8831 0.17718-2.4005-0.9167-4.3567-2.0114-4.5015z"/>
    <polygon id="polygon45101" style="stroke-linejoin:round;stroke:#333;stroke-linecap:round;stroke-width:.40961;fill:#464646" points="298.25 11.96 296.96 12.3 296.96 12.3 297.6 13.385 298.87 14.719 299.27 13.673" transform="matrix(1.9897 -.93124 1.142 2.4582 -571.32 275.36)"/>
    <path id="path11967" style="stroke:#333;stroke-width:.98721;fill:#464646" d="m38.919 28.973c-1.1687 2.0587 0.15618 5.535 2.9619 7.7637 2.8064 2.2305 6.0289 2.3714 7.2007 0.31767 1.1695-2.0591-0.15542-5.5332-2.9611-7.762-2.8049-2.2291-6.0281-2.3697-7.2014-0.31945zm1.786 1.4221c0.51992-0.91201 2.5093-0.81384 4.3946 0.68644 1.8874 1.4992 2.7173 3.6422 2.1974 4.5522-0.51783 0.91485-2.51 0.8142-4.3953-0.68608-1.8881-1.4989-2.7166-3.6406-2.1967-4.5526z"/>
   </g>
  </g>
 </g>
</svg>
