<?xml version="1.0" encoding="UTF-8" standalone="no"?>
<!-- Created with Inkscape (http://www.inkscape.org/) -->
<svg id="svg2869" xmlns="http://www.w3.org/2000/svg" height="48" width="48" version="1.1" xmlns:xlink="http://www.w3.org/1999/xlink">
 <defs id="defs2871">
  <linearGradient id="linearGradient4029" y2="23.049" gradientUnits="userSpaceOnUse" x2="25.476" y1="9.3902" x1="18.647">
   <stop id="stop4033" style="stop-color:#fff" offset="0"/>
   <stop id="stop4035" style="stop-color:#fff;stop-opacity:.078431" offset="1"/>
  </linearGradient>
  <linearGradient id="linearGradient3671" y2="28" gradientUnits="userSpaceOnUse" x2="-87.687" gradientTransform="matrix(.32481 -.23503 .23503 .32481 37.139 -15.417)" y1="28" x1="-108.28">
   <stop id="stop3284" style="stop-color:#414141" offset="0"/>
   <stop id="stop3286" style="stop-color:#a4a6a6" offset="1"/>
  </linearGradient>
  <radialGradient id="radialGradient3675" gradientUnits="userSpaceOnUse" cy="14.825" cx="18.581" gradientTransform="matrix(.58851 1.839 -1.2202 .39048 18.156 -47.959)" r="20.488">
   <stop id="stop3644" style="stop-color:#eeeeec" offset="0"/>
   <stop id="stop3646" style="stop-color:#babdb6" offset=".88416"/>
   <stop id="stop3648" style="stop-color:#a1a59b" offset="1"/>
  </radialGradient>
  <linearGradient id="linearGradient3683" y2="39" gradientUnits="userSpaceOnUse" x2="29" y1="-7" x1="12">
   <stop id="stop3675" style="stop-color:#fff" offset="0"/>
   <stop id="stop3677" style="stop-color:#fff;stop-opacity:0" offset="1"/>
  </linearGradient>
 </defs>
 <g id="layer1" transform="translate(0,16)">
  <path id="path2881" style="stroke-linejoin:round;stroke:#888a85;stroke-linecap:round;stroke-miterlimit:10;stroke-width:1.0001;fill:url(#radialGradient3675)" d="m26 14c2.4891 7.4563 15.398 4.1787 11.789 7.7886-3.6098 3.6098-8.6835 5.7114-13.789 5.7114-5.1051 0-10.179-2.1016-13.789-5.7114-3.6094-3.61-5.711-8.684-5.711-13.789 0-5.1051 2.1016-10.179 5.7114-13.789 1.8049-1.8049 3.9758-3.2328 6.3336-4.2094 2.358-0.977 1.455 9.998 2.455 12.998 1.1402 3.4205 4.5109 3.5437 7 11z"/>
  <path id="path3305" style="enable-background:new;fill:url(#linearGradient3671)" d="m35.96 22.258c-1.1619 0.9117-2.5101 1.8719-2.6741 1.904-0.05758 0.0113-0.2203 0.08509-0.34858 0.15944-0.12827 0.07435-0.36968 0.16575-0.5449 0.20871-0.22683 0.05561-0.34693 0.1163-0.42697 0.20071-0.07261 0.07655-0.1781 0.12727-0.28313 0.14302-0.08945 0.01344-0.23398 0.06717-0.33282 0.11711-0.09884 0.04993-0.1985 0.06763-0.21382 0.04647-0.01534-0.02119-0.06567 0.01188-0.10885 0.0633-0.05573 0.06636-0.10451 0.07784-0.17883 0.05207-0.05745-0.0199-0.17887 0.00003-0.2663 0.03805-0.17681 0.07689-0.35101 0.11158-0.85808 0.20335-0.23486 0.04251-0.38707 0.09696-0.47666 0.17479-0.17062 0.14825-0.34335 0.12883-0.29007-0.03754 0.03413-0.1066 0.02943-0.11645-0.0661-0.09135-0.06051 0.01589-0.08788 0.05073-0.07666 0.0864 0.01 0.03159-0.0029 0.07946-0.02418 0.09481-0.02124 0.01537-0.05233-0.02369-0.06889-0.07387-0.02256-0.06825-0.05605-0.07815-0.162-0.0529-0.15998 0.03826-0.42592 0.08065-0.55291 0.09079-0.04664 0.0037-0.2223 0.03163-0.38704 0.06355-0.29643 0.05743-0.30108 0.05661-0.26697-0.06973 0.05738-0.21247-0.0612-0.2084-0.30583 0.0048-0.14457 0.12599-0.26381 0.18682-0.36434 0.20177-0.08108 0.01208-0.1739 0.06008-0.20474 0.10175-0.04103 0.05545-0.10131 0.05382-0.21555 0.0013-0.107-0.04917-0.2103-0.0469-0.34082-0.00082-0.19281 0.06806-0.29733 0.06534-0.30303-0.0127-0.0017-0.02356 0.02757-0.05482 0.07386-0.06891s-0.0042-0.03407-0.11966-0.03714c-0.11545-0.0031-0.23011 0.01186-0.25615 0.0307-0.02605 0.01885-0.13556-0.0033-0.23478-0.04662-0.09922-0.04328-0.19498-0.05995-0.21729-0.04382-0.05538 0.04008-0.03936 0.05809 0.11578 0.11726 0.12251 0.04672 0.13159 0.05518 0.08814 0.1218-0.02591 0.03972-0.13801 0.0974-0.25269 0.12098-0.31916 0.06561-0.50867-0.08041-0.30435-0.22826 0.13289-0.09616 0.11642-0.14805-0.05662-0.20647-0.08573-0.02895-0.20218-0.10843-0.25748-0.18485-0.08164-0.11282-0.13307-0.13329-0.2512-0.11206-0.09867 0.01773-0.15483-0.0039-0.20433-0.06866-0.04004-0.0526-0.12829-0.12634-0.1903-0.15614-0.06203-0.02977-0.11636-0.06919-0.11858-0.09978-0.0056-0.07647 0.11615-0.1698 0.21316-0.15424 0.1166 0.01869 0.1086-0.03178-0.02269-0.13823-0.1087-0.08814-0.1372-0.0863-0.33175 0.05447-0.15002 0.10856-0.21713 0.13602-0.27752 0.10803-0.09282-0.04301-0.4963 0.0034-0.58509 0.06768-0.0317 0.02294-0.06901 0.03285-0.08294 0.01361-0.01392-0.01923-0.1144-0.01925-0.2257 0.0087-0.14708 0.03689-0.21131 0.02856-0.25508-0.03193-0.05086-0.07029-0.04306-0.08399 0.06759-0.14169 0.16747-0.08732 0.16897-0.19983 0.01939-0.40065-0.08125-0.10887-0.08788-0.16062-0.04473-0.16868 0.0344-0.0064 0.09363-0.02619 0.14104-0.04019 0.04741-0.01401 0.11342 0.0071 0.1445 0.05009 0.0435 0.06011 0.06214 0.06898 0.09762 0.0067 0.06772-0.11893 0.26896-0.2398 0.52675-0.31929 0.33939-0.10465 0.56314-0.2856 0.58698-0.47114 0.02447-0.19038-0.02036-0.24496-0.16893-0.23346-0.1882 0.01458-0.45662-0.11499-0.44992-0.21571 0.0031-0.0466-0.04495-0.13852-0.10177-0.20473-0.06087-0.07098-0.08374-0.14034-0.06222-0.17149 0.02293-0.03321 0.06465-0.01753 0.10951 0.04448 0.05214 0.07206 0.0944 0.07239 0.1648 0.0354 0.06959-0.03656 0.15268-0.01083 0.29181 0.08268 0.106 0.07125 0.22138 0.12302 0.26136 0.10472 0.09334-0.04272 0.03767-0.11896-0.0661-0.09135-0.04721 0.01256-0.09053-0.02377-0.1214-0.08227-0.03759-0.07124-0.03563-0.1134 0.0354-0.1648 0.08562-0.06195 0.12575-0.05112 0.289 0.10018 0.10199 0.09451 0.22723 0.18404 0.28232 0.1978 0.08914 0.02227 0.09749 0.03771-0.0095 0.11512-0.17222 0.12461-0.14459 0.20157 0.06957 0.18164 0.10165-0.0095 0.20977-0.01344 0.2432-0.0059 0.3954 0.08963 0.41348 0.08525 0.39372-0.16118-0.01304-0.16264-0.02754-0.17605-0.1441-0.22049-0.07334-0.02797-0.15566-0.02655-0.20821 0.01147-0.1007 0.07287-0.20951 0.05583-0.17495-0.02806 0.01212-0.02942-0.0076-0.09604-0.04019-0.14104-0.03259-0.04504-0.04084-0.1851-0.01214-0.31598l0.05677-0.24213-0.15291 0.0024c-0.24074-0.01161-0.38389-0.03896-0.40973-0.07468-0.01301-0.01798 0.02643-0.12013 0.08896-0.21902 0.06706-0.10606 0.10102-0.22374 0.08268-0.29181-0.02608-0.09684-0.0037-0.13673 0.16001-0.27043 0.22625-0.18479 0.26507-0.36211 0.07641-0.36459-0.11749-0.0015-0.20214-0.10352-0.1672-0.18832 0.0125-0.03034-0.02111-0.08546-0.06049-0.12634-0.04852-0.05034-0.04339-0.12364-0.0013-0.21555 0.05606-0.12245 0.07371-0.12592 0.1799-0.11471 0.06473 0.0068 0.19642-0.02613 0.28941-0.07023 0.09299-0.04411 0.21045-0.07393 0.26176-0.06569 0.05132 0.0082 0.11711-0.0074 0.14838-0.03004 0.03128-0.02264 0.09483-0.02559 0.14557-0.01255 0.06286 0.01616 0.15134-0.02504 0.28033-0.12553 0.16169-0.12601 0.1877-0.16764 0.16001-0.27043-0.02442-0.09073-0.01247-0.12782 0.06024-0.15184 0.05604-0.01851 0.09178-0.04414 0.07386-0.06891-0.0184-0.02543 0.01012-0.05979 0.07666-0.0864 0.08689-0.03476 0.10433-0.06858 0.07774-0.14904-0.03894-0.11784 0.05686-0.17668 0.12915-0.07799 0.02639 0.03602 0.13564 0.09824 0.2484 0.12956s0.23513 0.08985 0.26589 0.13236c0.07166 0.09903 0.1778 0.06886 0.17883-0.05208 0.000661-0.07754 0.02208-0.0964 0.10431-0.09094 0.05438 0.0036 0.11404-0.01917 0.13369-0.05034 0.02444-0.03877 0.0017-0.04438-0.04234-0.01576-0.06913 0.04497-0.32757-0.13123-0.332-0.22372-0.0014-0.03038 0.01388-0.0964 0.04275-0.15465 0.03466-0.06997 0.03128-0.13341-0.01709-0.17322-0.06042-0.04973-0.04716-0.08137 0.06585-0.18684 0.15377-0.14354 0.25753-0.15703 0.33909-0.04432 0.03034 0.04193 0.09776 0.09708 0.15078 0.12287 0.09339 0.04546 0.10891 0.04357 0.16802-0.15251 0.03354-0.11128 0.10892-0.2581 0.16843-0.32292 0.18018-0.19628 0.05926-0.24405-0.24386-0.10191-0.14729 0.06907-0.2775 0.12809-0.29048 0.13287-0.01301 0.0047-0.01205-0.03636 0.0067-0.09762 0.02845-0.09306 0.02465-0.12808-0.06957-0.18164-0.09236-0.05249-0.16062-0.03594-0.35205 0.06916-0.12859 0.0706-0.29836 0.19326-0.37556 0.27176-0.12819 0.13034-0.15254 0.12778-0.26176 0.06569-0.06576-0.0374-0.15649-0.04141-0.19525-0.01336-0.03876 0.02804-0.19166 0.03487-0.34363 0.01667l-0.27258-0.03474-0.05289 0.162c-0.04174 0.13128-0.03724 0.19659 0.03805 0.2663 0.13299 0.12314 0.12049 0.25201-0.04423 0.3877-0.21025 0.1732-0.29277 0.1432-0.2862-0.11767l-0.0013-0.21555-0.13196 0.09548c-0.11093 0.08027-0.15825 0.08118-0.23585 0.01601-0.05197-0.04364-0.13746-0.06659-0.19698-0.05851-0.06072 0.0083-0.14672-0.03178-0.18403-0.08335-0.10052-0.13892-0.21539-0.127-0.31879 0.02963-0.04747 0.07189-0.11649 0.13416-0.15786 0.14516-0.08102 0.02155-0.44691-0.14743-0.50975-0.23428-0.02103-0.02906-0.08211-0.05397-0.13435-0.05744-0.07091-0.0047-0.09789-0.02436-0.09375-0.08681 0.0042-0.06276-0.03181-0.0995-0.14795-0.14038-0.08515-0.02996-0.18542-0.0712-0.22636-0.09911-0.04094-0.02792-0.10806-0.03006-0.14276-0.0049-0.07301 0.05283-0.39868 0.0044-0.51751-0.07402-0.06761-0.04459-0.09679-0.02358-0.21209 0.0916-0.08465 0.08457-0.14932 0.11422-0.16695 0.08987-0.04187-0.05787-0.09855-0.000922-0.11726 0.11578-0.02082 0.12984-0.16072 0.23034-0.24361 0.17628-0.05436-0.03547-0.07691-0.01318-0.15786 0.14516-0.05236 0.1024-0.13342 0.19355-0.17644 0.20499-0.12496 0.03325-0.24431 0.20559-0.21076 0.30716 0.03527 0.10674 0.23453 0.20145 0.30823 0.14813 0.02719-0.01967 0.06406-0.01835 0.08748 0.01402 0.02343 0.03237 0.01555 0.08153-0.01683 0.10497-0.03238 0.02343-0.08155 0.01553-0.10497-0.01683s-0.05575-0.03698-0.07733-0.02137c-0.02157 0.01561-0.06304-0.0016-0.08467-0.03152-0.02163-0.02989-0.1077-0.05216-0.18964-0.04836-0.13108 0.0061-0.15206-0.01355-0.22529-0.16175-0.05071-0.10263-0.10815-0.16055-0.14516-0.15786-0.03662 0.0027-0.03691 0.03449 0.0035 0.09028 0.03684 0.05091 0.0693 0.12736 0.06222 0.17149-0.01773 0.11058-0.22846 0.09034-0.31772-0.03301-0.07535-0.10413-0.3736-0.18432-0.34429-0.0911 0.022 0.07-0.08459 0.16094-0.12461 0.10563-0.01562-0.02158-0.01035-0.05438 0.01122-0.06999s0.01354-0.06679-0.0255-0.12074-0.05895-0.11149-0.04301-0.12353c0.1479-0.11171 0.000598-0.29427-0.14969-0.18552-0.04984 0.03606-0.11862 0.05601-0.14104 0.04019-0.02243-0.01581-0.13254 0.01708-0.24707 0.086-0.11453 0.06891-0.21029 0.12454-0.2177 0.12659-0.0074 0.002-0.03802-0.08728-0.05662-0.20647-0.03645-0.23382-0.09328-0.2882-0.20954-0.20408-0.09971 0.07215-0.18172 0.02725-0.17388-0.09069 0.0051-0.07609-0.01477-0.09913-0.09548-0.13195-0.08914-0.03625-0.08342-0.05899-0.01989-0.15572 0.06513-0.09917 0.05118-0.12757-0.06116-0.23412-0.07476-0.0709-0.2175-0.13357-0.36071-0.15654-0.25676-0.04118-0.2844-0.11699-0.09334-0.25722 0.05611-0.0412 0.06771-0.07741 0.03714-0.11966-0.02632-0.03637-0.03741-0.13703-0.02897-0.21101 0.02254-0.1975-0.04001-0.33098-0.1521-0.33843-0.07754-0.0052-0.11254 0.01616-0.15506 0.12767-0.06925 0.18156-0.10379 0.17718-0.30022-0.0302-0.20178-0.21306-0.30907-0.23002-0.46502-0.0656-0.07006 0.07386-0.13639 0.12111-0.16975 0.10737-0.08067-0.03324-0.08746-0.29959-0.0072-0.45875 0.08557-0.16964 0.1015-0.18031 0.15226-0.11017 0.02237 0.03092 0.08154 0.04573 0.12981 0.02979 0.10181-0.03364 0.33664 0.03494 0.54862 0.15976 0.13112 0.0772 0.16126 0.06717 0.30129-0.03244 0.19175-0.1364 0.63349-0.26624 0.81121-0.24676 0.07134 0.0078 0.16011 0.05028 0.19872 0.10365 0.06644 0.09182 0.07738 0.08985 0.21382-0.04647 0.17656-0.1764 0.19753-0.21523 0.13798-0.30088-0.02575-0.03696-0.05345-0.11401-0.05207-0.17883 0.0037-0.17421-0.07902-0.26087-0.19202-0.20128-0.06091 0.0321-0.11918 0.01183-0.1648-0.0354-0.04006-0.04155-0.1321-0.07854-0.20152-0.08615-0.06943-0.0076-0.16256-0.05368-0.20606-0.1138-0.131-0.18104-0.18348-0.12714-0.12287 0.15078 0.07157 0.32822 0.02892 0.6536-0.09192 0.68512-0.07945 0.02072-0.08657 0.01651-0.05597-0.09869 0.04026-0.15152-0.0293-0.37149-0.13353-0.39826-0.04134-0.01062-0.14182-0.04743-0.22182-0.07146l-0.1473-0.03258 0.04943-0.25228c0.07607-0.37737-0.04133-0.48745-0.28859-0.27059-0.03947 0.03461-0.10789 0.06487-0.14665 0.07518-0.12658 0.03367 0.0013-0.25312 0.14078-0.31838 0.09085-0.0425 0.10596-0.06729 0.07212-0.11405-0.05436-0.07512-0.32123-0.04593-0.45702 0.05233-0.13092 0.09474-0.20427 0.0504-0.15638-0.08789 0.02488-0.07185-0.0013-0.18297-0.06743-0.30691-0.10351-0.194-0.10841-0.19393-0.20887-0.0963-0.12981 0.12615-0.35741 0.18998-0.41295 0.11323-0.05007-0.0692-0.01367-0.10986 0.08681-0.09375 0.03841 0.0062 0.09219-0.02954 0.119-0.07064 0.07188-0.11018-0.07433-0.23136-0.19764-0.16629-0.14929 0.07879-0.2206-0.0993-0.11538-0.28767 0.0857-0.15342 0.08922-0.23384 0.000409-0.17041-0.06287 0.0449-0.28361-0.07136-0.37994-0.20449-0.04075-0.05631-0.07184-0.16256-0.07131-0.22677 0.000961-0.11554-0.000182-0.11529 0.20301-0.1469 0.11291-0.01757 0.25783-0.02435 0.31598-0.01214 0.14696 0.03086 0.43346-0.22162 0.38678-0.34174-0.01795-0.04615 0.0028-0.12126 0.04555-0.17214 0.07498-0.0893 0.07627-0.10163-0.06222-0.17149-0.07893-0.03981-0.20006-0.06767-0.25962-0.05958-0.17856 0.02425-0.23471-0.11758-0.09615-0.23973 0.12629-0.11132 0.13628-0.07972-0.12231-0.46824-0.08468-0.12726-0.0072-0.50416 0.11742-0.56438 0.08023-0.03876 0.08654-0.07275 0.03259-0.14731-0.07384-0.10205-0.1211-0.08413-0.14104 0.04019-0.0094 0.05875-0.03782 0.07469-0.09135 0.0661-0.14697-0.02357-0.15022-0.17703-0.01387-0.36112 0.1279-0.1727 0.13985-0.17162 0.27299-0.13567 0.07639 0.02063 0.16223 0.04274 0.19698 0.05851 0.03475 0.01576 0.13302 0.00063 0.21382-0.04647 0.14216-0.08287 0.14458-0.09213 0.06238-0.27712-0.078-0.172-0.103-0.208-0.283-0.262-0.111-0.033-0.232-0.085-0.259-0.122-0.117-0.1624-0.343-0.2882-0.511-0.2795-0.113 0.0059-0.229-0.0423-0.314-0.1131-0.074-0.0616-0.175-0.1139-0.213-0.124-0.098-0.0252-0.175-0.2445-0.106-0.295 0.03141-0.022728 0.14774-0.021405 0.25054 0.00429 0.16631 0.041563 0.21036 0.02975 0.37515-0.10135 0.23071-0.18353 0.25724-0.35201 0.08763-0.43457-0.10227-0.049786-0.10559-0.046423-0.10604 0.045801-0.00026 0.055438-0.01598 0.11982-0.02979 0.12981-0.04473 0.032366-0.18135-0.21198-0.16787-0.29608 0.01022-0.063758-0.0184-0.075424-0.11123-0.089629-0.11304-0.017288-0.12055-0.017949-0.1218 0.088137-0.0014 0.11772-0.08887 0.15502-0.15399 0.065029-0.0212-0.029295-0.06741-0.043094-0.10216-0.034329-0.06849 0.017269 0.01568-0.45589 0.09151-0.5147 0.07367-0.057136 0.05903-0.22157-0.03137-0.36393-0.04755-0.074929-0.09229-0.1655-0.09442-0.19458-0.0049-0.066837-0.08933-0.093361-0.18684-0.065851-0.0413 0.011653-0.15172 0.085913-0.24361 0.17627-0.14452 0.14211-0.17006 0.16121-0.25269 0.12098-0.12216-0.059464-0.123-0.11424 0.01229-0.13261 0.2339-0.031766 0.07399-0.2733-0.16614-0.25094-0.16039 0.01493-0.16272 0.027307-0.14771 0.13782 0.01237 0.091115-0.0076 0.10868-0.07947 0.1039-0.12626-0.00839-0.16554-0.098942-0.10911-0.21488 0.04805-0.098706-0.0027-0.23004-0.06957-0.18164-0.01946 0.014081-0.10299-0.021801-0.17668-0.073196-0.07371-0.051387-0.17858-0.10617-0.24105-0.11941-0.06247-0.013241-0.118-0.052055-0.12874-0.092423-0.01075-0.04036-0.07164-0.078966-0.1214-0.082272-0.08251-0.00549-0.19144-0.093452-0.15078-0.12287 0.08636-0.062491 0.30075-0.076209 0.38877-0.01841 0.12144 0.07976 0.244 0.028377 0.21209-0.091601-0.01766-0.066396-0.0089-0.068442 0.10604-0.045801 0.0741 0.01459 0.15455 0.0002477 0.16587-0.027239 0.03267-0.079287 0.20688-0.12016 0.25161-0.058348 0.02237 0.030915 0.05654 0.051871 0.0745 0.038875 0.0179-0.013011-0.05603-0.11943-0.15151-0.23066-0.139-0.1629-0.155-0.2134-0.118-0.2703 0.063-0.096-0.058-0.2391-0.277-0.3405-0.132-0.0611-0.197-0.1273-0.249-0.2374-0.055-0.1164-0.096-0.1495-0.158-0.133-0.04437 0.011805-0.09223 0.0007657-0.11231-0.026986s-0.07098-0.037973-0.11231-0.026986c-0.04137 0.01101-0.1044-0.01605-0.13435-0.057437-0.03722-0.051444-0.08468-0.058617-0.16761-0.017905-0.06671 0.032755-0.16998 0.070277-0.21943 0.081455-0.06329 0.014303-0.0797 0.039456-0.04902 0.081863 0.06487 0.089648 0.02468 0.26051-0.08095 0.33695-0.11506 0.083254-0.18776 0.062857-0.24667-0.084418-0.03927-0.098182-0.02706-0.13507 0.11941-0.24105 0.12932-0.093576 0.18167-0.15675 0.1978-0.28232 0.02007-0.15619 0.01142-0.16267-0.10456-0.18725-0.06702-0.014198-0.11059-0.047532-0.09654-0.069329 0.03221-0.049991-0.06826-0.30843-0.10803-0.27752-0.10983 0.085339-0.4633 0.57391-0.44917 0.61885 0.0096 0.030441 0.04312 0.046121 0.07733 0.02137 0.10004-0.072391 0.15282 0.049436 0.06504 0.15398-0.05843 0.069584-0.06424 0.12494-0.01337 0.19525 0.05088 0.070312 0.05522 0.11831-0.0032 0.18791-0.09671 0.11516-0.07136 0.1699 0.06049 0.12634 0.25572-0.08445 0.16094 0.30225-0.10513 0.43179-0.09054 0.04408-0.20035 0.062167-0.24146 0.051003-0.04113-0.011153-0.10914 0.013637-0.16133 0.054881-0.08436 0.066658-0.106 0.059451-0.20433-0.068657-0.063419-0.082868-0.097838-0.14681-0.07239-0.16413 0.075646-0.051491 0.25137-0.03731 0.30022 0.030199 0.07034 0.097212 0.13963 0.021487 0.10992-0.12593-0.01659-0.082217 0.0035-0.15717 0.05851-0.19699 0.04992-0.036123 0.09001-0.1184 0.08615-0.20153-0.007-0.1415-0.018-0.1408-0.154-0.1054-0.103 0.0269-0.162 0.0638-0.223 0.1616-0.0464 0.0729-0.2122 0.2346-0.3624 0.3547-0.3889 0.3109-0.4706 0.5214-0.4234 1.0178 0.0206 0.2175 0.0085 0.2722-0.0911 0.3443-0.1586 0.1147-0.2462-0.0039-0.2571-0.3553-0.0055-0.1783-0.0406-0.2804-0.0996-0.33-0.0477-0.04-0.0986-0.1575-0.121-0.2527-0.0321-0.1365-0.0097-0.2367 0.1209-0.4741 0.1518-0.2759 0.1667-0.3299 0.1213-0.6445-0.0272-0.1887-0.048-0.4029-0.0394-0.4819 0.0086-0.0789 0.0079-0.1947-0.003-0.2606-0.0214-0.1291 0.1054-0.5371 0.1856-0.5983 0.0269-0.0206 0.1395-0.2185 0.2581-0.4342 0.2036-0.3704 0.2549-0.5531 0.1321-0.5441-0.0836 0.0061-0.1889-0.1652-0.1707-0.2786-0.7002-0.1695-0.6862 0.3587-0.8787 1.1152-0.0256 0.0297-0.0999 0.0523-0.1687 0.0448-0.1166-0.0128-0.1364-0.0094-0.1596 0.1-0.0192 0.0907-0.0519 0.1267-0.1606 0.1627-0.0773 0.0256-0.2418 0.1165-0.3717 0.1916-0.2829 0.1635-0.3211 0.2563-0.1699 0.5559 0.1307 0.2591 0.1267 0.3259-0.0555 0.4577-0.1556 0.1127-0.1493 0.1536 0.002 0.3234 0.0645 0.0723-0.0172 0.2148-0.1008 0.1812-0.0301-0.0121-0.0894-0.0002-0.1382 0.0227-0.0489 0.0229-0.1183 0.0118-0.1575-0.0253-0.0392-0.037-0.1038-0.0594-0.1344-0.0574-0.1092 0.0069-0.3769-0.3799-0.4085-0.5859-0.0872-0.5685-0.2108-0.7779-0.2266-0.3773-0.0138 0.3498-0.033 0.426-0.0932 0.4696-0.0324 0.0234-0.0743 0.0255-0.0903 0.0034-0.0624-0.0861-0.0382-0.9403 0.0283-1.0721 0.0597-0.1182 0.0518-0.1427-0.0363-0.2212-0.0957-0.0854-0.0981-0.1169 0.0212-0.3555 0.7325-5.1571-2.0091 3.2069 2.039 0.4764 0.4705-0.2907 6.9957-5.2632-1.3643 0.7861-3.6058 2.9488-0.5824 10.856 1.8949 14.214 6.1711 8.367 17.823 10.347 26.183 4.298m-25.33-21.2c-0.065549 0.047431-0.068115 0.13265-0.00495 0.14277 0.080822 0.012961 0.14253-0.059491 0.099768-0.11859-0.02342-0.032365-0.063721-0.046677-0.094814-0.024178zm-2.5053 2.5861c-0.02743 0.00984-0.056439 0.073316-0.080544 0.16654-0.021421 0.082828 0.011286 0.1957 0.082117 0.32721 0.060529 0.11238 0.12374 0.18988 0.14234 0.17537 0.072887-0.056839 0.098385-0.25527 0.04596-0.34256-0.030415-0.050561-0.070627-0.15231-0.098946-0.22224-0.029933-0.073845-0.063529-0.11413-0.090928-0.10432zm-0.093815 1.0886c0.034164-0.024721 0.059979-0.020586 0.069984 0.01122 0.028379 0.090309-0.036677 0.16304-0.086814 0.093749-0.024723-0.034166-0.017334-0.080248 0.01683-0.10497zm2.9758-1.3801c-0.1292 0.0922-0.2069 0.5722-0.1038 0.6473 0.042099 0.030614 0.10118 0.071268 0.12874 0.092422 0.027954 0.021471 0.11066-0.00275 0.18898-0.05942 0.1763-0.1278 0.2203-0.3634 0.1133-0.592-0.087-0.1833-0.1649-0.2042-0.3272-0.0883zm1.3012-2.6376c0.02253-0.014904-0.03971 0.023846-0.0434 0.046871-0.0079 0.049611 0.01791 0.077279 0.08358 0.09417 0.11933 0.030681 0.25507-0.05357 0.2002-0.1294-0.04371-0.06041-0.17255-0.056039-0.24039-0.011632l0.000013-0.0000086zm-2.6703 4.2933c0.021608-0.020067 0.039134-0.00787 0.064371 0.046211 0.019938 0.042736 0.011381 0.10395-0.022444 0.13996-0.0527 0.056-0.0613 0.0585-0.0745-0.0389-0.0093-0.0689 0.011-0.1273 0.0326-0.1473l-0.0000154 0.0000112zm0.075026 0.59524c0.051347-0.037155 0.11683 0.085181 0.1238 0.23518 0.00413 0.088929 0.046036 0.18178 0.10629 0.23239 0.077993 0.065514 0.085505 0.099009 0.031777 0.19352-0.070096 0.12332-0.07391 0.14927 0.036314 0.22116 0.049699 0.032435 0.12851-0.0001972 0.26738-0.10068 0.20988-0.15187 0.25617-0.1354 0.21448 0.061312-0.015067 0.071105 0.00916 0.24409 0.056205 0.37689 0.047042 0.13278 0.089387 0.27373 0.092267 0.31986 0.00331 0.053074 0.031782 0.099054 0.080793 0.11165 0.14176 0.036445 0.1662 0.22559 0.051665 0.34924-0.2291 0.2473-0.383 0.2591-0.3989 0.0257-0.0045-0.0656-0.0169-0.0961-0.0413-0.0784-0.0218 0.0157-0.0613 0.0008-0.0847-0.0315-0.0587-0.0811 0.0171-0.1249 0.1089-0.0633 0.111 0.0745 0.1897 0.0481 0.2341-0.0612 0.0535-0.1317 0.0179-0.1621-0.1406-0.1302-0.0812 0.0163-0.1707-0.0073-0.232-0.0641-0.1154-0.1069-0.2919-0.1419-0.2348-0.0466 0.01884 0.031495 0.051865 0.078499 0.073448 0.1015 0.021584 0.023005 0.023058 0.070707 0.010807 0.10043-0.012242 0.029719-0.044181 0.02444-0.062641-0.00107-0.022212-0.030696-0.059835-0.011335-0.12634 0.06049-0.07993 0.086314-0.11327 0.099925-0.15119 0.047533-0.0263-0.0363-0.149-0.0772-0.2817-0.0901-0.2254-0.0219-0.2427-0.0258-0.2134-0.1239 0.0211-0.0703 0-0.1376-0.0594-0.189-0.1404-0.1214-0.1225-0.2197 0.0579-0.3048 0.12064-0.056931 0.16325-0.060241 0.18791 0.00322 0.017753 0.045669 0.090349 0.089976 0.16373 0.098038 0.12408 0.013605 0.14114 0.0062 0.19005-0.12206 0.0286-0.0751 0.0172-0.1684-0.0115-0.2082-0.0288-0.0397-0.0472-0.1448-0.0437-0.2313s-0.0249-0.2198-0.0601-0.2968c-0.0576-0.1258-0.0251-0.3374 0.0544-0.395zm2.9823-1.9263c-0.01607 0.026829-0.01497 0.056654-0.0067 0.097623 0.02016 0.099629 0.04364 0.096758 0.19071-0.014279 0.22066-0.16659 0.22733-0.17857 0.13129-0.20326-0.04664-0.011996-0.1448 0.01047-0.21382 0.046464-0.04773 0.024887-0.08544 0.046631-0.1015 0.073447l0.000019 0.000004zm0.18387 0.53195c0.10007-0.072414 0.21761 0.093402 0.18362 0.25376-0.033 0.154-0.147 0.2245-0.21 0.1366-0.077-0.1056-0.06-0.3283 0.026-0.3905zm-0.80402 0.70551c0.01324-0.010434 0.02968-0.014648 0.04795-0.019231 0.04037-0.010133 0.03873 0.0000422-0.0056 0.034992-0.04013 0.031628-0.06904 0.0389-0.06545 0.016426 0.0018-0.01127 0.0099-0.021765 0.02309-0.032175l0.00001-0.000012zm-1.0694 0.8513c0.016333-0.02468 0.038469-0.042794 0.071052-0.051413 0.08427-0.022293 0.081898 0.00421 0.031777 0.19352-0.0556 0.2102-0.1889 0.4014-0.2338 0.3393-0.0129-0.0178 0.0093-0.0771 0.0399-0.1371s0.0536-0.1728 0.0568-0.2422c0.002-0.0436 0.018-0.0774 0.0343-0.1021zm6.3514-13.332c-0.01795-0.0165 0.0089 0.05845-0.0035 0.09028-0.03312 0.08522 0.02811 0.15376 0.20234 0.25467 0.04485 0.02597 0.05973 0.10236 0.03821 0.1823-0.05272 0.19576-0.07172 0.20029-0.28512 0.18031-0.13745-0.012867-0.22649 0.013796-0.27431 0.079879-0.09348 0.12919-0.23722 0.025199-0.19286-0.13955 0.04286-0.15914 0.01692-0.23369-0.11206-0.2512-0.10801-0.01468-0.17017 0.024946-0.33761 0.18873-0.05145 0.05031-0.13818 0.1119-0.1931 0.13864-0.13512 0.065775-0.15568 0.088392-0.07518 0.14665 0.03797 0.027476 0.12408 0.029903 0.18056 0.00693 0.08071-0.032816 0.12598-0.012339 0.21943 0.081458 0.09835 0.098716 0.14767 0.11167 0.28207 0.080383 0.12718-0.029604 0.16927-0.023805 0.18617 0.041928 0.03877 0.15077-0.1836 0.28958-0.55556 0.34032-0.20742 0.028292-0.47679 0.11529-0.66548 0.21439-0.36436 0.19136-0.53983 0.19976-0.54062 0.041831-0.00056-0.11241 0.22717-0.38898 0.35361-0.42459 0.05698-0.016041 0.07066-0.03336 0.04862-0.088536-0.05578-0.13955-0.15355-0.1787-0.28487-0.09788-0.1087 0.066902-0.13548 0.11284-0.14128 0.238-0.0044 0.094849-0.03812 0.17115-0.09895 0.22224-0.08237 0.069172-0.08319 0.094451-0.0024 0.15292 0.05321 0.038503 0.09639 0.11951 0.0935 0.19137-0.0043 0.10803-0.02887 0.135-0.13955 0.19286-0.07157 0.03743-0.1917 0.07322-0.26697 0.069729-0.12516-0.0058-0.14357-0.022892-0.15506-0.12767-0.0093-0.084502 0.0047-0.11739 0.06049-0.12634 0.08868-0.014221 0.15088-0.15373 0.08426-0.20194-0.03222-0.023314-0.09836 0.039013-0.19202 0.20128-0.07346 0.12723-0.15015 0.22822-0.17906 0.22612-0.06913-0.00504-0.23146 0.21914-0.18362 0.25376 0.0526 0.038058 0.28093-0.046286 0.33868-0.12609 0.03186-0.044023 0.08382-0.05066 0.16026-0.00775 0.08083 0.045382 0.1531 0.049523 0.25054-0.00429 0.179-0.098855 0.22722-0.096354 0.48186 0.039371 0.21196 0.11298 0.22844 0.10885 0.46502-0.065599 0.0747-0.05509 0.0825-0.061074 0.10885 0.063297 0.01498 0.070666-0.0012 0.16401-0.03912 0.20367-0.09194 0.096086 0.01515 0.20892 0.14037 0.14797 0.05258-0.025619 0.16434-0.11819 0.24452-0.20969 0.17786-0.20299 0.25665-0.24599 0.27324-0.14251 0.01793 0.11182 0.09288 0.13854 0.08574 0.03111-0.0049-0.073623 0.01162-0.093867 0.08079-0.11165 0.13541-0.034821 0.17214-0.21567 0.06008-0.29675-0.08347-0.060399-0.11474-0.055155-0.20433 0.068657-0.09595 0.13259-0.11208 0.14073-0.18964 0.048355-0.07254-0.08637-0.07932-0.086799-0.10777-0.0006642-0.02567 0.07767-0.05463 0.084193-0.11966 0.037136-0.08217-0.059459-0.07777-0.10255 0.0031-0.26069 0.04125-0.080736 0.32379-0.093199 0.46329-0.020459 0.03138 0.01641 0.08859 0.02574 0.13822 0.0227 0.04965-0.00303 0.19816-0.016513 0.32787-0.02566 0.20185-0.014238 0.2355-0.00699 0.21662 0.063963-0.01212 0.045606-0.09197 0.15535-0.17628 0.24361-0.13427 0.14056-0.14154 0.17957-0.086 0.24707 0.0808 0.09816 0.05849 0.117-0.21127 0.24922-0.12228 0.05993-0.26481 0.17361-0.31904 0.24856-0.11786 0.16288-0.18059 0.19409-0.2659 0.13236-0.03492-0.025266-0.15712-0.029287-0.26069-0.00306-0.24805 0.062824-0.49761-0.082129-0.41509-0.2385 0.03938-0.074671 0.02018-0.10748-0.05009-0.1445-0.07349-0.03871-0.10096-0.027911-0.15184 0.060242-0.03585 0.062003-0.09389 0.11225-0.12592 0.10993-0.03205-0.00234-0.07831 0.022719-0.10671 0.061971s-0.13298 0.12455-0.22248 0.17924c-0.15665 0.095742-0.15495 0.098772-0.20086-0.021625-0.02623-0.068789-0.07337-0.12282-0.09977-0.11859-0.02641 0.00423-0.02868-0.041011-0.0067-0.09762 0.02201-0.056617 0.01641-0.12731-0.0151-0.15011-0.04227-0.030583-0.08146 0.00765-0.15078 0.12287-0.08941 0.14865-0.10274 0.14217-0.21448 0.061311-0.09673-0.069995-0.14592-0.058314-0.29288 0.020049-0.14595 0.077822-0.20122 0.07091-0.29568 0.00255-0.08704-0.062984-0.14407-0.06228-0.2257-0.00867-0.05953 0.039116-0.1319 0.059207-0.1648 0.0354-0.07627-0.055187-0.04325-0.1211 0.078-0.12914 0.05182-0.00343 0.1114-0.02572 0.13435-0.057437s0.11586-0.080006 0.19872-0.10365c0.30261-0.086324 0.27965-0.32969-0.02459-0.26523-0.08711 0.018459-0.14972 0.00622-0.19632-0.049273-0.04527-0.053913-0.0919-0.077611-0.13369-0.050339-0.03569 0.023262-0.08271 0.032936-0.10497 0.016832-0.0687-0.049712 0.0361-0.14557 0.18016-0.16348 0.11827-0.014698 0.14711-0.050392 0.25641-0.24748 0.12218-0.22029 0.13585-0.21926 0.30716-0.21076 0.09757 0.00485 0.23328-0.041857 0.29915-0.092835 0.06588-0.050969 0.23538-0.15919 0.37433-0.23948 0.13896-0.080285 0.26181-0.17044 0.27217-0.20515 0.01036-0.034704 0.04677-0.074695 0.09375-0.086813 0.06201-0.015945 0.09489-0.045516 0.10562-0.12462 0.01859-0.13686 0.14858-0.14897 0.13261-0.012292-0.0096 0.082547 0.0043 0.087946 0.15226 0.11017 0.14627 0.021981 0.1765 0.01392 0.27324-0.14251 0.09398-0.15197 0.092-0.17789 0.0087-0.2257-0.07515-0.043143-0.0796-0.082346-0.02525-0.15746 0.04253-0.05877 0.09527-0.07893 0.15184-0.06024 0.05755 0.01902 0.14544-0.02235 0.22636-0.09911 0.14629-0.13876 0.15656-0.25377 0.01882-0.21836-0.12069 0.03103-0.18853-0.08483-0.11099-0.18857 0.08098-0.10849 0.49885-0.24968 0.55316-0.1874 0.02312 0.02652 0.11431 0.07037 0.19459 0.09441 0.13799 0.04132 0.13901 0.05751 0.05743 0.13435-0.07614 0.0717-0.07971 0.07897 0.01683 0.10497 0.06019 0.01621 0.14585 0.05371 0.18444 0.08707 0.05012 0.04333 0.08761 0.03277 0.12981-0.02979 0.05904-0.08774 0.25926 0.043493 0.2054-0.006l-0.000037-0.000034v-0.00002zm-7.8331 14.682c-0.01532 0.012263-0.028068 0.023371-0.043403 0.046871-0.056947 0.087295-0.00496 0.14771 0.090928 0.10432 0.043338-0.019633 0.072606-0.064017 0.061974-0.1067-0.016548-0.0663-0.063676-0.081176-0.10951-0.044476l0.0000152-0.0000101zm3.2281-2.3356c0.03035-0.028383 0.06144-0.057313 0.0812-0.058752 0.1008-0.00735 0.1551 0.156 0.07865 0.23692-0.03702 0.039194-0.06649 0.09687-0.06478 0.1242 0.004 0.064743-0.25792 0.064726-0.27819 0.0002514-0.01671-0.053182 0.09204-0.21747 0.18312-0.30262zm-3.4557 2.7477c0.04262-0.028371 0.1086-0.023975 0.11231 0.026984 0.00212 0.029065-0.012487 0.070901-0.031517 0.084671-0.054944 0.039758-0.13831-0.013256-0.11405-0.072122 0.0072-0.017551 0.019056-0.030094 0.033259-0.039533zm4.0697-2.8826c0.01118-0.011426 0.02661-0.013701 0.0553-0.00908 0.04222 0.00678 0.0928 0.048511 0.11123 0.089629 0.02831 0.06312 0.01467 0.070471-0.07386 0.06891-0.07395-0.0013-0.10738-0.029515-0.11123-0.089629-0.0021-0.031776 0.0074-0.048401 0.01857-0.059835l-0.00001 0.000005zm-4.1843 3.4295c0.069325-0.050163 0.26599 0.0031 0.28446 0.072535 0.00975 0.036654 0.072152 0.04876 0.13715 0.039941 0.079176-0.010757 0.12558 0.017359 0.14904 0.077737 0.034341 0.088364 0.1678 0.14244 0.27885 0.10752 0.092326-0.029037 0.12476 0.15209 0.05901 0.35939-0.068069 0.21465-0.039844 0.61705 0.063391 0.83564 0.037125 0.0786 0.15176 0.21178 0.25813 0.29264 0.10629 0.08076 0.23041 0.19069 0.26655 0.24014 0.036146 0.04946 0.13033 0.11986 0.20779 0.15894 0.077471 0.03909 0.13551 0.08924 0.12592 0.10993-0.00958 0.02069-0.063642 0.0863-0.11272 0.14343-0.085428 0.09943-0.086455 0.09424-0.18964-0.04836-0.0593-0.082-0.167-0.175-0.2372-0.199-0.0796-0.028-0.1604-0.094-0.2124-0.187-0.0715-0.128-0.109-0.153-0.2631-0.15-0.098883 0.0023-0.19612 0.01164-0.20821 0.01147-0.052169-0.000725-0.004-0.3527 0.054377-0.39504 0.11021-0.07993 0.011584-0.1876-0.14516-0.15786-0.080633 0.01529-0.13132 0.001-0.11231-0.02698 0.019016-0.02802 0.079616-0.06008 0.1365-0.06783 0.075954-0.01031 0.11715-0.04955 0.14771-0.13782 0.038548-0.11132 0.038963-0.12087-0.087079-0.18443-0.1168-0.059-0.1481-0.084-0.1496-0.1856-0.0016-0.1014-0.0113-0.118-0.1102-0.1522-0.0753-0.0261-0.1343-0.0162-0.176 0.0345-0.0827 0.1004-0.1295 0.0363-0.0735-0.1015 0.035877-0.088233 0.029026-0.12049-0.054877-0.16134-0.080704-0.039289-0.10069-0.068241-0.08987-0.16695 0.0075-0.068456 0.030964-0.14613 0.052895-0.162l0.0000174-0.0000265zm6.4331-7.3174-0.0078 0.16026c-0.02139 0.43955-0.0081 0.52809 0.03095 0.53434 0.02335 0.00375 0.07931-0.079196 0.12849-0.18576 0.09418-0.20409 0.14535-0.22657 0.23239-0.10629 0.02918 0.040321 0.11242 0.10052 0.18576 0.12849 0.09073 0.034601 0.16164 0.02222 0.23866-0.033508 0.10535-0.076229 0.10413-0.091187 0.0015-0.23305-0.08632-0.1193-0.13243-0.1523-0.24559-0.14705-0.07952 0.00369-0.16771-0.018051-0.18964-0.048356-0.02193-0.030308-0.10448-0.053001-0.19698-0.058506l-0.17777-0.010579 0.00004 0.0000095zm-6.3999 8.4532c0.044611-0.04749 0.070118-0.05234 0.09762 0.0067 0.020951 0.04499 0.018878 0.11394-0.015099 0.15011-0.044611 0.04749-0.07744 0.04222-0.10497-0.01683-0.020951-0.04499-0.011536-0.10379 0.022444-0.13996l4e-7 -0.000021zm6.6799-7.6816c-0.03137-0.00335 0.0044 0.095984 0.04193 0.18617 0.08906 0.21412 0.01348 0.30712-0.2125 0.26201-0.29027-0.05793-0.3126 0.028134-0.04835 0.18964 0.1044 0.063818 0.18074 0.07874 0.24493 0.039278 0.05151-0.031721 0.17919-0.028757 0.27819-0.0002519 0.14619 0.042089 0.17742 0.028299 0.21382-0.046466 0.06926-0.14229 0.18364-0.20209 0.32374-0.17239 0.17297 0.036661 0.30285-0.064579 0.29997-0.24799l-0.0024-0.15291-0.24774-0.021783c-0.13598-0.013253-0.26082-0.010949-0.27819 0.000252-0.01737 0.011214-0.08495-0.010987-0.1445-0.050091-0.07651-0.05026-0.13452-0.057308-0.2054-0.00602-0.05516 0.039916-0.12268 0.060767-0.15852 0.03739-0.05492-0.035827-0.09535-0.046886-0.10497-0.016832l-0.000015-0.0000016zm-0.969 3.6264c-0.02688 0.026118-0.05686 0.063076-0.08227 0.12141-0.03684 0.084548-0.05933 0.17448-0.04836 0.18964 0.06734 0.093068 0.17666 0.10414 0.27258 0.034738 0.05979-0.043263 0.13869-0.07235 0.18898-0.059424 0.12914 0.033206 0.19584-0.018329 0.24187-0.22142 0.03301-0.14561 0.02672-0.17243-0.03284-0.13088-0.05397 0.037572-0.0857 0.027608-0.10951-0.044476-0.02637-0.079811-0.04437-0.091614-0.12981-0.029791-0.05682 0.041118-0.15361 0.083664-0.21209 0.091602-0.04033 0.00547-0.06166 0.02251-0.08855 0.048607zm-0.38227 0.36939c-0.01214 0.00668-0.02114 0.020105-0.02309 0.032174-0.0032 0.019839 0.02328 0.040872 0.0542 0.053565 0.06939 0.028593 0.13778-0.023308 0.1015-0.073448-0.02512-0.034723-0.09617-0.032208-0.13261-0.012291zm2.7895-4.851c0.0094-0.0061 0.0056 0.030446 0.03672 0.050748 0.04196 0.027354 0.09522 0.067503 0.11123 0.089629 0.01658 0.022919 0.05093 0.00315 0.0784-0.041261 0.02651-0.042871 0.06532-0.10805 0.09523-0.14623 0.07831-0.099977 0.021-0.14768-0.07906-0.066511-0.04662 0.037806-0.1303 0.074485-0.18444 0.087063-0.04017 0.00933-0.0675 0.032688-0.05809 0.02657l0.000012-0.0000078zm1.0224-0.72433c-0.02491 0.027402-0.02206 0.056712 0.02376 0.075591 0.02694 0.011103 0.08438 0.0008117 0.13088-0.032844 0.07791-0.056377 0.07704-0.059452-0.02376-0.07559-0.05497-0.00882-0.10599 0.00543-0.13088 0.032843zm-4.7044 6.3295c0.02157-0.015605 0.05437-0.010359 0.06999 0.011223s0.01035 0.054375-0.01122 0.069986c-0.02157 0.015605-0.05437 0.010359-0.06999-0.011223s-0.01035-0.054375 0.01122-0.069986zm3.6127-5.5086c-0.1033 0.064043-0.12963 0.38813-0.0075 0.43845 0.02651 0.010933 0.10754-0.031419 0.18444-0.087063 0.11591-0.083872 0.12592-0.098524 0.05463-0.11685-0.05266-0.013543-0.07152-0.050269-0.05876-0.081203 0.02196-0.053276-0.05671-0.14369-0.12765-0.15507-0.01798-0.0029-0.03039-0.00742-0.04513 0.00172l-0.00003 0.0000186zm-1.1998-6.4426c0.02399 0.024769 0.01592 0.058002-0.02832 0.10323-0.04042 0.041366-0.10869 0.068759-0.15184 0.060241-0.04317-0.00852-0.1494-0.020543-0.23866-0.033508-0.31071-0.045125-0.30401-0.080264 0.0577-0.14383 0.18556-0.032615 0.3211-0.027334 0.36112 0.01387zm-1.4585-0.86975c0.02286 0.016543 0.0097 0.036019-0.01924 0.047932-0.02897 0.011921-0.05312 0.00796-0.06264 0.00107-0.0095-0.00689-0.0037-0.016205 0.0119-0.037787 0.01562-0.021582 0.04711-0.027764 0.06998-0.011215zm-5.1283 16.8c0.021566-0.0156 0.061252-0.000848 0.084671 0.03152 0.023426 0.03237 0.025036 0.07467 0.00346 0.09028-0.021566 0.01561-0.061251 0.000848-0.084671-0.03152-0.023426-0.03237-0.025036-0.07467-0.00346-0.09028zm4.7473-16.487c0.03238 0.023431 0.04715 0.063087 0.03153 0.084661-0.01562 0.021582-0.0579 0.01997-0.09028-0.00346-0.03238-0.023431-0.04713-0.063089-0.03152-0.084671 0.01562-0.021582 0.05789-0.019961 0.09027 0.00347zm1.5719 12.332c-0.02157 0.015605-0.02684 0.048404-0.01122 0.069986s0.04842 0.026828 0.06999 0.011223 0.02684-0.048404 0.01122-0.069986-0.04841-0.026834-0.06999-0.011223zm1.6389-3.6627c-0.05849 0.042325-0.0818 0.087011-0.05183 0.099356 0.02897 0.011921 0.08076 0.00343 0.11058-0.018154 0.02982-0.021579 0.04395-0.060785 0.04167-0.092017-0.0024-0.032333-0.04195-0.031498-0.10043 0.010815zm1.3399-0.96951c-0.1714 0.12772-0.17825 0.39677-0.0082 0.33067 0.0449-0.017456 0.09942-0.044821 0.11619-0.053145 0.03461-0.017144 0.03904-0.26663 0.0054-0.31318-0.01214-0.016778-0.06533-0.0001718-0.11339 0.03565zm-4.1519 5.9605c0.05347-0.055147 0.15843-0.058878 0.20541 0.00602 0.0369 0.050999 0.02668 0.10736-0.02525 0.15746-0.08828 0.085156-0.23725 0.024708-0.21902-0.088958 0.0044-0.027559 0.02105-0.056136 0.03886-0.07452zm0.51247-12.398c-0.06616-0.047871-0.09349-0.041418-0.1445 0.050092-0.07533 0.13509-0.04558 0.21718 0.08335 0.18403 0.12448-0.032006 0.16284-0.16054 0.06116-0.23412l-0.000012-0.0000039zm-0.27415 0.52847c0.005 0.00758-0.0134 0.018525-0.02938 0.04061-0.02394 0.033086-0.05925 0.072336-0.0864 0.076662-0.02712 0.00436-0.04576-0.026199-0.03606-0.057023 0.0097-0.030806 0.05513-0.062717 0.09654-0.069329 0.0276-0.00443 0.05027 0.00147 0.0553 0.00908zm4.6434 6.8964c0.00008 0.00352 0.02237 0.00103 0.08013 0.00388 0.12646 0.00621 0.15995 0.00732 0.13822-0.0227-0.0073-0.010038-0.05969-0.013747-0.12527-0.00214-0.05725 0.010134-0.09323 0.017456-0.09309 0.020958zm-8.088 9.0261c0.035-0.0127 0.09027-0.0035 0.11966 0.03714 0.03123 0.04316 0.02894 0.10278-0.0021 0.12527-0.06932 0.05016-0.16373 0.01385-0.16934-0.06305-0.0036-0.04996 0.01683-0.08666 0.05182-0.09936l-0.000038 0.000001zm3.4602-2.4419c0.02157-0.01561 0.04841-0.0186 0.05529-0.0091 0.0069 0.0095 0.000696 0.04103-0.01122 0.06999-0.01192 0.02894-0.03873 0.03197-0.0553 0.0091-0.01654-0.02285-0.01034-0.05437 0.01122-0.06999h0.00001zm3.765-5.6188c-0.04285 0.034708-0.05993 0.06678-0.04901 0.081865 0.01583 0.021882-0.01704 0.086591-0.06759 0.14169-0.08788 0.095805-0.11417 0.36098-0.0302 0.30022 0.02176-0.015746 0.01667-0.041047 0.0011-0.062629-0.01562-0.021582-0.0027-0.059903 0.02137-0.077326 0.02449-0.017722 0.05877 0.014338 0.07906 0.066512 0.01993 0.051335 0.05422 0.084485 0.06889 0.073868 0.01465-0.010599 0.09285 0.048099 0.18576 0.12849l0.16547 0.14317-0.19005 0.12205c-0.14719 0.090734-0.19192 0.14085-0.16348 0.18016 0.02116 0.029246 0.0159 0.10208-0.0078 0.16026-0.05917 0.14555-0.000482 0.2041 0.17733 0.18098 0.13986-0.018192 0.50858-0.23753 0.47599-0.28257-0.008-0.011083-0.06143-0.032094-0.11685-0.054631-0.16822-0.06839-0.1241-0.23046 0.0911-0.34429 0.09644-0.051009 0.26265-0.15785 0.36995-0.23677 0.17076-0.12554 0.20418-0.17334 0.24228-0.39183 0.04779-0.274 0.0032-0.35592-0.21259-0.46477-0.10116-0.051027-0.17104-0.061815-0.24039-0.011633-0.05416 0.039189-0.15966 0.075065-0.23692 0.078652-0.12355 0.00573-0.71032 0.3447-0.56347 0.26854l0.000043-0.0000223zm-5.2386-7.7263c0.05749 0.0005749 0.08768 0.11392 0.06024 0.15184-0.03606 0.049832-0.07781 0.03235-0.119-0.070642-0.01721-0.043038-0.0043-0.089036 0.02097-0.093074 0.01546-0.00249 0.01861 0.011681 0.03778 0.011873l0.00001 1e-7zm1.631 13.648c0.02157-0.01561 0.04841-0.0186 0.0553-0.0091 0.0069 0.0095 0.000696 0.04103-0.01122 0.06999-0.01192 0.02894-0.03873 0.03197-0.05529 0.0091-0.01654-0.02285-0.01035-0.05437 0.01123-0.06998l-0.00002-0.00001zm1.0695-0.40274c0.03829-0.0361 0.11583-0.03228 0.15746 0.02525 0.0478 0.06606-0.05127 0.14738-0.13476 0.11298-0.03146-0.01298-0.05472-0.0504-0.04862-0.08854 0.0034-0.02134 0.01315-0.03764 0.02591-0.04968l0.000012-0.000007zm-0.68568 0.52709c0.01126-0.02733 0.05115-0.02899 0.09028-0.0035 0.09602 0.06264 0.07872 0.0948-0.02871 0.06718-0.05216-0.01341-0.07376-0.03409-0.06155-0.06372l-0.00002 0.00004zm-0.30549 1.0098c0.05749-0.0416 0.183 0.03463 0.18857 0.11099 0.0052 0.07054-0.12524 0.16741-0.19286 0.13955-0.06677-0.02751-0.06475-0.20059 0.0043-0.25054l-0.000011-0.000001zm17.443 9.6875c-0.06967 0.05041-0.11123 0.2951-0.05891 0.3674 0.07195 0.09943 0.27969-0.08457 0.27232-0.24345-0.0067-0.14385-0.10694-0.20099-0.21341-0.12395zm-10.772-12.081c-0.07091 0.049134-0.14204 0.17244-0.23387 0.33934-0.1776 0.32277-0.16327 0.41492 0.06074 0.40453 0.07952-0.00369 0.16704 0.017118 0.19698 0.058506 0.02995 0.04139 0.08283 0.0744 0.11405 0.07212 0.03122-0.0023 0.09601 0.04719 0.14343 0.11272s0.15978 0.14419 0.25013 0.1747c0.17314 0.05846 0.25904-0.0014 0.13195-0.09548-0.04114-0.03045-0.06567-0.08598-0.05315-0.1162 0.0124-0.03012-0.0061-0.09364-0.04019-0.14103-0.03896-0.05419-0.03663-0.14697 0.0071-0.26804 0.07556-0.20925 0.05101-0.29266-0.09507-0.30237-0.05182-0.00343-0.13476-0.058006-0.17842-0.11834-0.122-0.1689-0.186-0.2024-0.304-0.1205l-0.000014 0.0000097zm11.076 12.032c-0.08314 0.06016-0.06469 0.16606 0.0482 0.25896 0.05006 0.0412 0.0753 0.12122 0.06677 0.19913-0.0077 0.07047 0.0082 0.12693 0.03284 0.13088 0.02464 0.004 0.0399 0.0664 0.03284 0.13088-0.01022 0.09319 0.01688 0.13426 0.1119 0.1974 0.06575 0.04368 0.156 0.09973 0.20326 0.13129 0.04724 0.03158 0.10788 0.09657 0.13782 0.14772 0.06539 0.11177 0.27348 0.05598 0.30971-0.08492 0.02571-0.1 0.12824-0.12199 0.18617-0.04193 0.02579 0.03565 0.11667 0.0122 0.27192-0.07304 0.18096-0.09935 0.2542-0.12128 0.31706-0.07477 0.10207 0.07554 0.08841 0.15044-0.04769 0.29742-0.09505 0.10265-0.11555 0.10567-0.22116 0.03632-0.11649-0.0765-0.12448-0.07849-0.15118 0.04753-0.01504 0.07094 0.00067 0.16392 0.03912 0.20367 0.06623 0.06848 0.1263 0.05191 0.23692-0.07865 0.03251-0.03837 0.0768-0.02601 0.13715 0.03994 0.08891 0.09717 0.08398 0.09883 0.29222-0.08773 0.15674-0.14041 0.23268-0.18245 0.28594-0.16051 0.0485 0.01998 0.03537-0.04006-0.03178-0.19352-0.09318-0.21296-0.08528-0.22887 0.0302-0.30022 0.09687-0.05985 0.11001-0.10833 0.08896-0.21902-0.04111-0.2161-0.08087-0.25628-0.46701-0.38893-0.48297-0.16591-0.53816-0.15737-0.55572 0.10828-0.01047 0.1584 0.01968 0.26063 0.10869 0.3853 0.15787 0.2209 0.08638 0.26253-0.10885 0.0633-0.13616-0.13893-0.16623-0.15808-0.25401-0.09457-0.05469 0.03958-0.12624 0.14379-0.16174 0.22529-0.08931 0.205-0.14855 0.17175-0.15638-0.08789-0.0065-0.2164-0.12143-0.43684-0.2182-0.42978-0.05061 0.0037-0.27709-0.18683-0.30889-0.2559-0.03017-0.06549-0.34178-0.05608-0.25508-0.03193l0.000014 0.000004zm-17.263-9.353c0.04595-0.02955 0.09204-0.05722 0.1365-0.06784 0.15781-0.03756 0.22406 0.0053 0.11405 0.07212-0.04627 0.02805-0.05358 0.08964-0.01791 0.16761l0.05315 0.11619-0.15292 0.0024c-0.08383-0.0023-0.19866-0.01507-0.26523-0.02459-0.11626-0.01662-0.12362-0.02004-0.0024-0.15292 0.03959-0.0434 0.08878-0.08345 0.13476-0.11298zm1.1617-0.80963c-0.01084 0.01599-0.01306 0.04459-0.01122 0.06999 0.0023 0.03128 0.05588 0.03757 0.12246 0.01964 0.08076-0.02175 0.17496 0.0036 0.25682 0.07707 0.11732 0.10537 0.11872 0.10778 0.09028-0.0035-0.02288-0.08948-0.07501-0.13512-0.20499-0.17644-0.12948-0.04115-0.22084-0.03483-0.25335 0.01321l-0.000001 0.000025zm-0.1775 0.26763c-0.0076 0.01069 0.0069 0.03081 0.04128 0.07838 0.03885 0.0537 0.09381 0.09578 0.11858 0.09978 0.07857 0.0126 0.15696-0.06092 0.11726-0.11578-0.021-0.02903-0.10526-0.06537-0.17668-0.0732-0.06328-0.0069-0.09285 0.000122-0.10043 0.01081l-0.000001 0.000015zm-0.50512 0.52016c0.0069-0.01168 0.03347-0.0038 0.06999 0.01122 0.02695 0.01111 0.03588 0.04617 0.02376 0.07559-0.01211 0.02942-0.04565 0.02241-0.06999-0.01122-0.02494-0.03446-0.03072-0.06394-0.02376-0.07559zm1.0477-0.155c-0.04044 0.0079-0.07118 0.07207-0.06585 0.18684 0.0089 0.19124 0.05671 0.23499 0.19202 0.20128 0.1811-0.04512 0.17399-0.05876 0.03928-0.24493-0.07346-0.10153-0.12503-0.15104-0.16547-0.14317l0.000014-0.000012zm-2.8652 2.0887c0.012-0.01399 0.0364-0.02498 0.05809-0.02657 0.03395-0.0025 0.08374 0.03024 0.11405 0.07212 0.0659 0.09108-0.0377 0.17629-0.13476 0.11298-0.06129-0.03997-0.07337-0.11657-0.03738-0.15853zm2.788-1.617c-0.08764 0.06342-0.04547 0.15422 0.07974 0.17428 0.08551 0.01371 0.14101-0.04022 0.10431-0.09094-0.01171-0.01619-0.03534-0.04884-0.05876-0.0812-0.02366-0.0327-0.08167-0.03369-0.12527-0.0021l-0.00002-0.00004zm0.01973 0.60432c-0.03299 0.04744-0.0577 0.15535-0.03086 0.19245 0.0137 0.01893 0.04991 0.01029 0.08294-0.01361 0.06325-0.04577 0.04763-0.18976-0.02162-0.20086-0.01201-0.0019-0.01947 0.0062-0.03044 0.02203l-0.00002-0.000003zm6.006-1.882c-0.04968 0.02619-0.0915 0.09009-0.09523 0.14622-0.0061 0.09132 0.0056 0.09077 0.11793-0.008 0.13743-0.12086 0.1216-0.21417-0.0227-0.13822zm-0.46518 0.383c-0.08444 0.0611-0.14899 0.28566-0.10125 0.35163 0.05165 0.07137 0.11748-0.05293 0.13971-0.25574 0.0114-0.10398 0.0046-0.12702-0.03846-0.09589zm0.51685-0.03377c-0.09955 0.0227-0.15346 0.15775-0.14705 0.2456 0.0024 0.03316-0.03163 0.08475-0.07212 0.11405-0.04852 0.03511-0.05174 0.11606-0.01898 0.23024 0.02734 0.0953 0.03604 0.17447 0.02443 0.18336-0.01162 0.0089-0.02629 0.05343-0.04167 0.09202-0.04757 0.11936 0.42528 0.25785 0.66828 0.19689 0.26969-0.06765 0.36581-0.13547 0.34792-0.26722-0.0081-0.05987-0.001-0.12298 0.02244-0.13996 0.02855-0.02066 0.03063-0.0031 0.02659 0.05808-0.0033 0.0503 0.0214 0.10311 0.05315 0.11619 0.08715 0.03591 0.13481-0.06228 0.08054-0.16653-0.02645-0.05071-0.0152-0.12286 0.01791-0.16761 0.07846-0.10603 0.0098-0.15265-0.2106-0.14144-0.13652 0.0069-0.22074-0.03571-0.34322-0.15374-0.08768-0.08451-0.16747-0.18055-0.18923-0.21877-0.03716-0.06518-0.13616-0.04175-0.21836 0.01882l-0.000025 0.000006zm-5.9234 2.7656c-0.02875 0.02525-0.05053 0.04903-0.05636 0.07171-0.0263 0.10232 0.04351 0.21334 0.15145 0.23064 0.11897 0.01908 0.17549-0.03744 0.25764-0.26375 0.04371-0.12044 0.04598-0.18792 0.0078-0.16026-0.03538 0.0256-0.07942 0.03984-0.09309 0.02096-0.03048-0.04213-0.18124 0.02483-0.26737 0.10069l-0.000065 0.000012zm-1.1012 0.936c0.05918-0.04282 0.17709 0.01473 0.16653 0.08054-0.01428 0.08906-0.11523 0.1186-0.16868 0.04474-0.03123-0.04316-0.02793-0.10351 0.0021-0.12527l0.000043-0.00001zm8.2319-3.9566c-0.08621 0.0615-0.04451 0.19924 0.06396 0.21663 0.06229 0.01 0.06399 0.0036 0.12287-0.15078 0.05773-0.15136-0.02485-0.18139-0.18684-0.06585zm-10.782 5.9254c0.08757-0.06337 0.16918-0.01619 0.18857 0.11099 0.0079 0.05182 0.000421 0.10795-0.01964 0.12246-0.05023 0.03635-0.2017-0.04118-0.22356-0.1166-0.0098-0.03398 0.01507-0.08823 0.05463-0.11685zm10.078-5.2308c0.02662 0 0.05108 0.0065 0.0745 0.03888 0.02343 0.03237 0.02785 0.05717 0.0063 0.07277-0.02157 0.0156-0.05391 0.011-0.07733-0.02137-0.02343-0.03237-0.0301-0.09028-0.0035-0.09028h0.00003zm-7.8596 3.8728c0.03245-0.0517 0.10335-0.04953 0.15746 0.02525 0.04481 0.06193 0.06061 0.11079 0.02269 0.13823-0.06871 0.04972-0.19226-0.01515-0.19872-0.10365-0.0021-0.02876 0.0077-0.04259 0.01857-0.05983zm-1.7912 1.7136c0.02931-0.04153 0.09374-0.06018 0.18164-0.06957 0.18687-0.01994 0.32228 0.15403 0.25986 0.33778-0.02221 0.06539-0.04486 0.20494-0.05785 0.30476-0.02671 0.20529-0.09874 0.27446-0.13022 0.14063-0.01158-0.04916-0.07356-0.20142-0.1521-0.33843-0.10821-0.1888-0.1502-0.30593-0.10134-0.37515l0.00002-0.000016zm3.1741-1.8328c0.04316-0.03123 0.08649-0.03008 0.10043-0.01081 0.03191 0.0441-0.04105 0.15492-0.09523 0.14623-0.08141-0.01305-0.0817-0.08007-0.0052-0.13542zm5.2473-1.6268c-0.01545 0.09634 0.11343 0.17513 0.16373 0.09804 0.02301-0.03529 0.0924-0.06884 0.14664-0.07518 0.10555-0.01231 0.1484-0.07276 0.10257-0.13609-0.04523-0.0625-0.4003 0.03436-0.41295 0.11323zm-4.0672 1.2059c-0.04379 0.02737-0.04976 0.1022-0.000407 0.17041 0.03031 0.04189 0.08958 0.0589 0.11966 0.03714 0.06912-0.05002 0.03109-0.21036-0.05381-0.22397-0.0224-0.0036-0.05085 0.0073-0.06544 0.01642zm-2.5591 2.1433c0.03795-0.02815 0.93796-0.41143 0.94919-0.32878 0.01649 0.1214-0.03186 0.16962-0.12007 0.13328-0.06224-0.02563-0.91238 0.25728-0.82912 0.1955zm5.578 0.40458c-0.01073 0.0073-0.01918 0.02105-0.03326 0.03954-0.1136 0.14865-0.09443 0.21057 0.07865 0.23692 0.09105 0.01387 0.16354 0.01887 0.16761 0.0179 0.0042-0.001-0.03569-0.07475-0.08987-0.16694-0.06699-0.11399-0.09092-0.14918-0.12313-0.12741zm-0.82641 0.84543c-0.0165 0.01202-0.03056 0.03224-0.04621 0.06437-0.02537 0.05213-0.0936 0.11946-0.15787 0.14516-0.07225 0.0289-0.10625 0.06689-0.08681 0.09375 0.01731 0.02392 0.05868 0.01941 0.09028-0.0035 0.0316-0.02287 0.0893-0.02107 0.14276 0.0049 0.05347 0.02601 0.22991 0.05773 0.38489 0.06172 0.30862 0.0079 0.3485-0.01227 0.39372-0.16118 0.02817-0.09275 0.02082-0.1014-0.15812-0.13302-0.1063-0.01878-0.23764-0.06244-0.29915-0.09284-0.06152-0.03038-0.12211-0.0378-0.13262-0.01229-0.0105 0.02549-0.04608 0.03594-0.07559 0.02376-0.01819-0.0075-0.0388-0.0029-0.0553 0.0091l0.000006 0.000066zm2.1316-1.5424c-0.03107 0.0023-0.01148 0.04822 0.02832 0.10323 0.04284 0.05921 0.05067 0.1412 0.02163 0.20086-0.05242 0.1077-0.11237 0.11352-0.33736 0.08946-0.08004-0.0086-0.14464 0.0067-0.14838 0.03005-0.01252 0.07809 0.12632 0.12895 0.25401 0.09457 0.08582-0.02312 0.14136 0.003 0.18684 0.06585 0.03682 0.05089 0.09381 0.09578 0.11857 0.09978 0.0248 0.004 0.09609-0.03859 0.16695-0.08987 0.15834-0.11457 0.15563-0.24973-0.0065-0.35097-0.06227-0.03887-0.13094-0.11127-0.16264-0.16068-0.03177-0.04936-0.09065-0.08452-0.12139-0.08228l-0.000053 0.000006zm-2.4438 1.923c-0.0085 0.0061-0.0075 0.04893 0.0035 0.09028 0.01101 0.04135 0.02597 0.05853 0.04686 0.04341 0.02092-0.01514 0.0273-0.04776 0.0039-0.08013-0.02342-0.03237-0.04569-0.05973-0.0542-0.05357l-0.00006 0.00001zm2.7294-1.9131c-0.03364 0.02435-0.04713 0.06309-0.03152 0.08467 0.01562 0.02158 0.04234 0.01576 0.06264 0.0011 0.0203-0.01469 0.04115-0.04329 0.03886-0.07452-0.0023-0.03124-0.03635-0.03556-0.06999-0.01122l0.00001-0.00003zm-1.4733 1.298c-0.0054 0.0039 0.0036 0.0251 0.02659 0.05808 0.02891 0.04132 0.12109 0.04949 0.22009 0.02632 0.17892-0.04188 0.21308-0.06918 0.12461-0.10563-0.03088-0.01272-0.09006 0.0033-0.13088 0.03285-0.04082 0.02953-0.1239 0.03893-0.17322 0.01709-0.04262-0.01889-0.06176-0.03262-0.06716-0.02872l-0.000035 0.000014zm2.1126-1.3122c-0.0042 0.0078-0.0065 0.02084-0.0056 0.03498 0.0069 0.11244 0.06596 0.17208 0.18468 0.19113 0.10713 0.01718 0.16923-0.04396 0.11726-0.11578-0.01524-0.02106-0.08861-0.06939-0.16373-0.09804-0.07731-0.02949-0.12015-0.0359-0.13262-0.01229zm-10.006-18.81c-0.11344 0.044566-0.0967 0.12154-0.05116 0.20714 0.03158 0.05934 0.04453 0.14361 0.04193 0.18617-0.0026 0.04257 0.03412 0.09517 0.07066 0.11899 0.05128 0.03346 0.09689 0.006 0.20474-0.10175 0.09125-0.09117 0.14674-0.11779 0.16695-0.08987 0.017 0.02349 0.09325 0.05359 0.16934 0.06305 0.16871 0.02097 0.19484 0.12501 0.04193 0.18617-0.08127 0.03251-0.10449 0.06932-0.07213 0.11404 0.02427 0.03354 0.04565 0.11814 0.04927 0.19632 0.0047 0.10052 0.04616 0.1748 0.1238 0.23518 0.06037 0.04698 0.13017 0.11842 0.16264 0.16068 0.04998 0.06498 0.08529 0.06157 0.20367-0.03912 0.09749-0.08292 0.1862-0.1272 0.29782-0.12272 0.20193 0.0081 0.23302-0.008 0.21316-0.15424-0.01333-0.09815-0.04117-0.11962-0.13326-0.12008-0.06098-0.000298-0.1219 0.02405-0.14384 0.05768-0.02194 0.03364-0.12111 0.08221-0.21489 0.1091-0.13867 0.03978-0.17867 0.03874-0.21729-0.04382-0.0261-0.05583-0.05766-0.09746-0.07624-0.08402s-0.0554 0.0089-0.07733-0.02137c-0.05098-0.07045 0.27505-0.25909 0.42524-0.24584 0.13267 0.01169 0.3239-0.17096 0.35914-0.33719 0.01881-0.08877-0.0036-0.17124-0.0685-0.24427-0.11548-0.12998-0.24086-0.0988-0.18617 0.04193 0.04984 0.12825-0.01977 0.14398-0.20647 0.05662-0.08131-0.03805-0.28849-0.08815-0.45661-0.11808s-0.35148-0.07653-0.40693-0.09217c-0.06579-0.01856-0.1261 0.044796-0.21943 0.08146l-0.000056 0.000022zm9.7123 19.733c-0.0151 0.0096-0.01719 0.02268-0.01575 0.04233 0.0025 0.03424 0.02859 0.08622 0.06331 0.10884 0.08023 0.05232 0.19411-0.03096 0.1421-0.10283-0.04308-0.05954-0.14434-0.077-0.18964-0.04836l-0.000024 0.000019zm0.82091-0.0837c-0.03454 0.01771-0.0387 0.06396-0.02978 0.12981 0.0167 0.12298 0.16463 0.19017 0.25855 0.12221 0.03796-0.02747 0.12136-0.0433 0.18617-0.04193 0.06481 0.0014 0.1139-0.0061 0.11792-0.008 0.0402-0.0186-0.2133-0.16-0.33761-0.18873-0.09486-0.02192-0.1607-0.03103-0.19525-0.01337zm-1.8129 1.9614c0.02157-0.01561 0.05437-0.01036 0.06999 0.01122s0.01035 0.05438-0.01122 0.06999-0.05437 0.01036-0.06999-0.01122-0.01035-0.05438 0.01122-0.06999zm1.5742-0.75248c0.0025-0.01533 0.01373-0.01673 0.03044-0.02202 0.0335-0.01054 0.06841-0.0023 0.07733 0.02137 0.02967 0.07875-0.05062 0.12239-0.0987 0.05595-0.01301-0.01798-0.01155-0.03996-0.0091-0.0553h0.00003zm-13.397-18.298c2.6313-0.097269 1.7525-1.2678 0 0zm13.024 18.893c0.0222-0.03361 0.0738-0.04488 0.16414-0.07237 0.10053-0.03058 0.21954-0.02539 0.26804 0.0071 0.04838 0.03239 0.13642 0.04962 0.19979 0.04101 0.07451-0.01012 0.13436 0.01947 0.16653 0.08054 0.02963 0.05631 0.01753 0.11609-0.02525 0.15746-0.09309 0.09001-0.14139 0.08245-0.23478-0.04662-0.06907-0.09546-0.27907-0.16923-0.34883-0.11875-0.01552 0.01123-0.02928 0.10338-0.04101 0.19979-0.03098 0.25474-0.15405 0.21585-0.16199-0.05289-0.0031-0.10463-0.0088-0.16163 0.01337-0.19525l-0.000007-0.00002zm1.2179-0.43277c0.01062-0.0034 0.02601 0.01461 0.0542 0.05357 0.0708 0.09784 0.05309 0.18262-0.0326 0.14731-0.03221-0.01326-0.05263-0.06335-0.04301-0.12353 0.0081-0.05043 0.01076-0.07397 0.02137-0.07733l0.00004-0.000018zm0.23049 0.29716c0.02286-0.01654 0.05437-0.01036 0.06999 0.01122s0.02873 0.04107 0.01925 0.04794c-0.0095 0.0069-0.05118 0.008-0.08013-0.0039-0.02897-0.01192-0.03197-0.03873-0.0091-0.05529l-0.00001 0.00003zm-13.443-18.682c0.02178 0-0.03256 0.11747-0.02913 0.23759 0.0069 0.24326 0.12496 0.40446 0.23503 0.32481 0.03831-0.02772 0.13058-0.03652 0.20086-0.02162 0.07029 0.01489 0.17056 0.000304 0.22116-0.03631 0.07229-0.05231 0.07437-0.08957 0.0179-0.16761-0.03953-0.05463-0.04947-0.13178-0.02724-0.16587 0.03294-0.0505-0.06982-0.20754-0.12942-0.20019-0.0085 0.0011-0.11125-0.000532-0.23305-0.0015-0.1218-0.000962-0.27791 0.0307-0.25615 0.0307h0.000027zm12.993 19.086c0.04126-0.06326 0.3588-0.03845 0.40799 0.02953 0.01582 0.02186 0.07521 0.04383 0.127 0.04729 0.05182 0.0034 0.11284 0.02771 0.13435 0.05744 0.06486 0.08964-0.03064 0.10832-0.21382 0.04647-0.0951-0.03211-0.22732-0.0377-0.29288-0.02005-0.13024 0.03508-0.225-0.0651-0.16264-0.16068zm-1.7152 1.5195c0.03238-0.02343 0.07466-0.02504 0.09028-0.0035 0.01562 0.02158 0.000864 0.06124-0.03152 0.08467-0.03238 0.02343-0.06451 0.0177-0.08013-0.0039-0.01562-0.02158-0.011-0.05391 0.02137-0.07733v0.00006zm3.639-2.494c0.01939-0.013 0.04331 0.0232 0.09093 0.10432 0.07001 0.11925 0.06714 0.15153-0.01898 0.23024-0.09242 0.08447-0.10342 0.07374-0.1648-0.0354-0.04026-0.0715-0.04438-0.13706-0.0097-0.16307 0.03196-0.02402 0.07402-0.07278 0.08962-0.11125 0.0055-0.01345 0.0065-0.02051 0.01296-0.02484l-0.000029-0.00001zm-15.341-17.372c0.01436-0.011829 0.03207 0.04978 0.06889 0.07387 0.06882 0.04491 0.27802-0.0646 0.23519-0.12379-0.02904-0.04013-0.34071 0.08008-0.3041 0.04993l0.000017-0.000014zm14.831 17.864c0.03899-0.02969 0.0692-0.0481 0.0987-0.05595 0.13673-0.03637 0.22062 0.14123 0.14022 0.30063-0.03985 0.079-0.09753 0.16337-0.12849 0.18576-0.07081 0.05124-0.33338-0.04319-0.35618-0.1289-0.01469-0.05519 0.1289-0.21233 0.24575-0.30155zm1.185-0.5636c0.01136-0.0061 0.02833-0.0086 0.04513-0.0017 0.02614 0.01077 0.03098 0.06066 0.01815 0.11058-0.01898 0.0738-0.022 0.07645-0.05809 0.02657-0.03975-0.05494-0.03931-0.11717-0.0052-0.13542l0.00001-0.000034zm-15.349-17.148c-0.08075 0.05843 0.03276 0.19916 0.14969 0.18552 0.12448-0.01452 0.124-0.0428 0.0049-0.14276-0.05357-0.04496-0.19378-0.037781-0.15465-0.04275l0.000063-0.000008zm12.184 19.934c0.02878-0.02082 0.07926-0.02114 0.10777-0.000671 0.03082 0.02214 0.0089 0.05544-0.04167 0.09202-0.05057 0.03659-0.08905 0.04703-0.10043 0.01081-0.01052-0.03349 0.0056-0.08134 0.03433-0.10216zm4.0433-2.833c-0.01891 0.02331-0.03662 0.0621-0.06197 0.1067-0.07677 0.13506-0.04621 0.20793 0.10629 0.23239 0.12123 0.01944 0.12163 0.02241 0.18164-0.06957 0.02869-0.04399 0.01238-0.11112-0.04927-0.19632-0.07859-0.10861-0.12001-0.14315-0.17668-0.0732zm-1.0852 1.1719c-0.0079 0.01445-0.01049 0.03481-0.01857 0.05983-0.03078 0.09538-0.01556 0.11505 0.06783 0.1365 0.05392 0.01386 0.12722 0.000731 0.16587-0.02724 0.08546-0.06184 0.52769 0.06629 0.60845 0.17832 0.10216 0.14173 0.09829 0.44717-0.0096 0.56372-0.05495 0.05934-0.10783 0.14092-0.11099 0.18857-0.0032 0.04765-0.03271 0.11595-0.06759 0.14169-0.15224 0.11238-0.13113 0.1781 0.08319 0.26457 0.11324 0.04569 0.20784 0.11866 0.21795 0.1516 0.01012 0.03293 0.08448 0.08146 0.15358 0.10538 0.06909 0.02393 0.14523 0.07247 0.17107 0.10819 0.06503 0.08986 0.19336 0.08316 0.35098-0.0065 0.07332-0.0417 0.17982-0.06622 0.25161-0.05835 0.12168 0.01334 0.13651 0.0089 0.1596-0.10002 0.01362-0.06427 0.05388-0.13177 0.08789-0.15638 0.0495-0.03582 0.04098-0.0857-0.06677-0.19913-0.11587-0.12198-0.12335-0.14351-0.05943-0.18898 0.10281-0.07316 0.14081-0.06327 0.58014 0.07509 0.21291 0.06705 0.40721 0.10661 0.43457 0.08763 0.0305-0.02118 0.0089-0.0946-0.05208-0.17883-0.05465-0.07553-0.08205-0.15348-0.06222-0.17149 0.12871-0.11682 0.19242-0.14368 0.21489-0.1091 0.05581 0.08582 0.0554 0.4084-0.000159 0.4486-0.08733 0.0632 0.04588 0.12722 0.21621 0.10645 0.32859-0.04004 0.5333-0.39392 0.26085-0.45166-0.09338-0.01979-0.14567-0.05351-0.1903-0.15614-0.07412-0.17048-0.02183-0.31155 0.16215-0.3957 0.14893-0.06812 0.13714-0.15746-0.02443-0.18337-0.06536-0.01048-0.08204-0.03247-0.08814-0.1218-0.0043-0.06225-0.04375-0.15205-0.09442-0.19458-0.06246-0.05246-0.09451-0.13538-0.09334-0.25722 0.0022-0.21938-0.05673-0.24942-0.31557-0.15828-0.12629 0.04447-0.31806 0.04973-0.51404 0.01627-0.37482-0.06401-0.51863-0.03208-0.46543 0.10481 0.02218 0.05705 0.0068 0.11882-0.04275 0.15465-0.09009 0.06519-0.13124 0.04573-0.13888-0.08508-0.0039-0.06734-0.02751-0.0645-0.12246-0.01964-0.1068 0.05046-0.1401 0.03306-0.24386-0.10191-0.0649-0.08423-0.16469-0.1925-0.23157-0.23453-0.12843-0.08069-0.22706-0.05732-0.15852 0.03739 0.02229 0.0308 0.01566 0.13703-0.0088 0.2229-0.05775 0.20244-0.29008 0.36822-0.49737 0.3599-0.0861-0.0035-0.17536 0.0032-0.20086 0.02163-0.0255 0.01845-0.10264 0.01781-0.17041-0.000411-0.08251-0.02218-0.11464-0.02052-0.13822 0.0227l-0.000037-0.000061zm1.1784-0.46603c0.03094-0.0177 0.06161 0.009 0.09375 0.08681 0.02875 0.06961 0.05961 0.14872 0.06222 0.17149 0.0073 0.06317-0.21774 0.21439-0.2814 0.18816-0.03088-0.01272-0.05151-0.03391-0.04686-0.04341 0.0046-0.0095 0.03447-0.10573 0.06866-0.20433 0.04156-0.11988 0.07267-0.18102 0.10365-0.19872l-0.000012 0.000006zm-6.3949 5.0758c0.1495-0.10818 0.15664-0.10692 0.2229 0.0088 0.04582 0.08004 0.12817 0.12502 0.2281 0.14425 0.08642 0.01664 0.15929 0.0639 0.17107 0.10819 0.03627 0.13635-0.12054 0.17874-0.39545 0.11604-0.18188-0.04148-0.28162-0.09649-0.32292-0.16843-0.0535-0.09316-0.04219-0.10865 0.0963-0.20887l0.000006 0.000024zm7.2167-4.7735c0.04359-0.03154 0.10161-0.03056 0.12527 0.0021 0.02366 0.0327-0.000886 0.07796-0.04448 0.10951-0.04359 0.03155-0.09427 0.0407-0.11792 0.008-0.02366-0.0327-0.0065-0.08811 0.03714-0.11966l-0.000006 0.000051zm-6.3958 4.6899c0.01441-0.0077 0.05326 0.0012 0.12246 0.01964 0.07842 0.02087 0.156 0.04462 0.16934 0.06305 0.04486 0.06199-0.06335 0.22313-0.14144 0.2106-0.0721-0.01156-0.08521-0.03218-0.14411-0.22049-0.01478-0.04732-0.02069-0.06512-0.0063-0.07277l0.000048-0.00003zm6.0751-4.2568c0.02098-0.01518 0.07772-0.0055 0.11231 0.02698 0.03936 0.03695 0.03092 0.08588-0.0095 0.11512-0.04041 0.02924-0.07936 0.01461-0.10216-0.03433-0.02004-0.04304-0.02165-0.09258-0.000664-0.10777l0.000013 0.000005zm-0.75235 1.0548c0.04794-0.03469 0.09653-0.03637 0.10777-0.000666 0.029 0.09213-0.09273 0.19243-0.14491 0.12032-0.02634-0.0364-0.01106-0.08478 0.03714-0.11966zm-5.0069 3.6385c0.0078-0.04843 0.12957-0.05603 0.16306-0.0097 0.0147 0.02031 0.0091 0.05529-0.01122 0.06999-0.04629 0.0335-0.15961-0.0118-0.15184-0.06024l-0.000003-0.00005zm7.1118-4.7904c0.05354-0.02825 0.11934-0.02742 0.14276 0.0049 0.02342 0.03237 0.0036 0.09513-0.03994 0.13715-0.06096 0.05882-0.08589 0.05228-0.13261-0.01229-0.04674-0.06459-0.04515-0.0903 0.02979-0.12981l-0.000001 0.000046zm-4.0746 3.1958c-0.0029 0.01787 0.0219 0.05714 0.05876 0.0812 0.08353 0.0545 0.20318-0.01843 0.14945-0.09268-0.03989-0.05512-0.19854-0.04877-0.20821 0.01147l-0.000002 0.00001zm3.8557-2.558c0.01103-0.0097 0.03182-0.0218 0.04794-0.01923 0.02295 0.0037 0.03027 0.03569 0.02376 0.07559-0.0078 0.04855-0.02775 0.07638-0.0637 0.06156-0.04536-0.0187-0.04112-0.08883-0.008-0.11792zm-6.2772 4.7897c0.0094-0.002 0.01655 0.0015 0.02483 0.01297 0.01654 0.02285 0.01035 0.05438-0.01122 0.06999s-0.04107 0.02873-0.04795 0.01923c-0.0069-0.0095-0.000696-0.04103 0.01123-0.06998 0.006-0.01445 0.01374-0.03019 0.02309-0.03218l0.00002-0.00003zm5.7581-3.4552c-0.01324 0.01043-0.0213 0.02097-0.02309 0.03218-0.0036 0.02246 0.02531 0.01521 0.06544-0.01642 0.04436-0.03494 0.04878-0.06261 0.0084-0.05248-0.01826 0.0046-0.03752 0.02631-0.05075 0.03672zm0.20474-0.10175c-0.01367 0.01668-0.01354 0.03895 0.0091 0.05529 0.03186 0.02304 0.11357 0.03186 0.1851 0.02071 0.15192-0.02368 0.28386-0.09927 0.24815-0.14863-0.04213-0.05822-0.18871-0.05418-0.34363 0.01668-0.05765 0.02637-0.08502 0.03927-0.0987 0.05595l-0.00002-0.000002z"/>
  <path id="path4021" style="opacity:0.24;fill:url(#linearGradient4029)" d="m6.9818 26.224c-0.2728-3.903 0.2348-8.364 3.0117-11.121 1.8235-1.81 2.7995-3.762 3.7745-4.737 1.3834-1.3834 0.97153-1.0354 2.9269-0.97561 1.9553 0.059838 0.97562 3.8972 0.97562 5.8537 0 1.9512-0.5218 2.6436 0.97562 3.9024s-0.02609 1.2463 0.97562 2.9268" transform="matrix(1.025 0 0 1.025 -1.1124 -17.625)"/>
  <path id="path3673" style="opacity:.4;stroke-linejoin:round;stroke:url(#linearGradient3683);stroke-linecap:round;stroke-miterlimit:10;stroke-width:.97268;fill:none" d="m16.562-9c-2.119 0.9259-4.05 2.2379-5.687 3.875-3.4338 3.4338-5.4688 8.271-5.4688 13.125s2.035 9.6912 5.4688 13.125 8.271 5.4688 13.125 5.4688 9.6912-2.035 13.125-5.4688c0.34205-0.34205 0.31116-0.44704 0.3125-0.4375 0.0013 0.0095-0.02048-0.12054-0.34375-0.34375-0.64655-0.44643-2.1241-0.96969-3.75-1.4688-1.6259-0.49906-3.4166-1.0176-4.9375-1.6875-1.521-0.67-2.703-1.55-3.281-2.969-2.125-5.219-6.125-8.219-6.781-10.563-0.333-1.1879-1.009-2.1119-1.156-3.5622-0.148-1.4504-0.152-3.1317-0.188-4.6876-0.036-1.5558-0.118-3.0151-0.281-3.9062-0.055-0.2987-0.106-0.3744-0.157-0.5z"/>
 </g>
</svg>
