<?xml version="1.0" encoding="UTF-8" standalone="no"?>
<!-- Created with Inkscape (http://www.inkscape.org/) -->
<svg id="svg3624" xmlns="http://www.w3.org/2000/svg" height="48" width="48" version="1.0" xmlns:xlink="http://www.w3.org/1999/xlink">
 <defs id="defs3626">
  <linearGradient id="linearGradient2643" y2="609.51" gradientUnits="userSpaceOnUse" x2="302.86" gradientTransform="matrix(.067325 0 0 0.0147 -.34114 37.04)" y1="366.65" x1="302.86">
   <stop id="stop5050" style="stop-opacity:0" offset="0"/>
   <stop id="stop5056" offset=".5"/>
   <stop id="stop5052" style="stop-opacity:0" offset="1"/>
  </linearGradient>
  <radialGradient id="radialGradient2640" xlink:href="#linearGradient5060" gradientUnits="userSpaceOnUse" cy="486.65" cx="605.71" gradientTransform="matrix(-.023040 0 0 0.0147 21.623 37.04)" r="117.14"/>
  <linearGradient id="linearGradient5060">
   <stop id="stop5062" offset="0"/>
   <stop id="stop5064" style="stop-opacity:0" offset="1"/>
  </linearGradient>
  <radialGradient id="radialGradient2637" xlink:href="#linearGradient5060" gradientUnits="userSpaceOnUse" cy="486.65" cx="605.71" gradientTransform="matrix(.023040 0 0 0.0147 26.361 37.04)" r="117.14"/>
  <linearGradient id="linearGradient2634" y2="57.735" gradientUnits="userSpaceOnUse" x2="-51.562" gradientTransform="matrix(.80750 0 0 .89483 59.41 -2.9806)" y1="11.49" x1="-57.17">
   <stop id="stop3213" style="stop-color:#fff" offset="0"/>
   <stop id="stop3215" style="stop-color:#fff;stop-opacity:0" offset="1"/>
  </linearGradient>
  <radialGradient id="radialGradient2868" gradientUnits="userSpaceOnUse" cy="10.898" cx="14.766" gradientTransform="matrix(-2.2703e-8 2.1357 -3.5601 -3.7845e-8 54.769 -22.905)" r="18">
   <stop id="stop3995" style="stop-color:#a3c0d0" offset="0"/>
   <stop id="stop4001" style="stop-color:#427da1" offset="1"/>
  </radialGradient>
  <linearGradient id="linearGradient2870" y2="2.9062" gradientUnits="userSpaceOnUse" x2="-51.786" gradientTransform="matrix(.80750 0 0 .89483 59.559 -1.4475)" y1="53.624" x1="-51.786">
   <stop id="stop2492" style="stop-color:#2e4a5a" offset="0"/>
   <stop id="stop2494" style="stop-color:#6e8796" offset="1"/>
  </linearGradient>
 </defs>
 <g id="layer1">
  <rect id="rect2879" style="opacity:0.24;fill:url(#linearGradient2643)" height="3.5701" width="32.508" y="42.43" x="7.7378"/>
  <path id="path2881" style="opacity:0.24;fill:url(#radialGradient2640)" d="m7.7378 42.43v3.5699c-1.1865 0.0067-2.8684-0.79982-2.8684-1.7852 0-0.98533 1.324-1.7847 2.8684-1.7847z"/>
  <path id="path2883" style="opacity:0.24;fill:url(#radialGradient2637)" d="m40.246 42.43v3.5699c1.1865 0.0067 2.8684-0.79982 2.8684-1.7852 0-0.98533-1.324-1.7847-2.8684-1.7847z"/>
  <path id="path4160" style="stroke-linejoin:round;stroke:url(#linearGradient2870);stroke-width:.99992;fill:url(#radialGradient2868)" d="m7.554 13.136c6.999-7.2437 16.584-5.2718 21.163-0.019l11.12-5.083c7.245 14.177 7.245 22.038 1.974 29.851s-18.169 6.702-22.553 1.268l-10.98 4.347c-7.426-14.306-7.7229-23.12-0.724-30.364z"/>
  <path id="path3605" style="fill:#4a6574;fill-rule:evenodd" d="m17.398 13.221c-3.8123 0.000434-8.8776 3.5058-10.25 7.4688s-1.0868 7.0897 0 10.906c0.8473 3.3307 2.2041 5.8974 3.3438 8.6562l5.25-2.1875c-1.2055-2.4694-2.7552-4.9339-3.3125-6.1562-1.5602-3.4225-2.1303-4.9539-2-7.5625 0.12595-2.522 0.96662-4.0757 2.5-5.5625 1.5334-1.4867 3.6545-2.2256 6.1875-1.875 5.3645 0.7432 7.0907 4.8033 7.2188 6.7812 0.10537 1.6268-1.0661 5.6333-5.1875 5.4375-2.8571-0.13595-4.4631-1.7197-4.6563-4.4062-0.14229-1.98 1.7736-3.9786 4.875-2.9688 0.4992 0.16244 0.53295-0.73279-0.03125-1.1875-1.4526-1.1706-7.207-0.72309-7.1875 3.875 0.01803 4.2611 3.4265 7.1059 6.7188 7.125 6.895 0.04058 8.249-5.4023 8-9.1562-0.27589-4.1597-5.522-9.1882-11.469-9.1875z"/>
  <path id="path3607" style="fill:#eeeeec;fill-rule:evenodd" d="m17.398 12.221c-3.8165 0.000435-8.6066 3.3567-10.25 7.5-1.6435 4.1433-0.97018 7.3977 0 10.875s2.2041 5.8974 3.3438 8.6562l5.25-2.1875c-1.2055-2.4694-2.7865-4.9339-3.3438-6.1562-1.5602-3.4225-2.1303-4.9539-2-7.5625 0.12595-2.522 0.99787-4.0757 2.5313-5.5625 1.5334-1.4867 3.6233-2.2255 6.1563-1.875 5.3645 0.7432 7.0907 4.8033 7.2188 6.7812 0.10537 1.6268-1.0348 5.6333-5.1563 5.4375-2.8571-0.13595-4.4631-1.751-4.6563-4.4375-0.14229-1.98 1.7736-3.9473 4.875-2.9375 0.4992 0.16244 0.53298-0.7328-0.03125-1.1875-1.4526-1.1706-7.207-0.72308-7.1875 3.875 0.01803 4.2611 3.4265 7.1059 6.7188 7.125 6.895 0.04058 8.2178-5.4023 7.9688-9.1562-0.27589-4.1597-5.4907-9.1882-11.438-9.1875z"/>
  <path id="path3609" style="opacity:.77381;fill:#466170;fill-rule:evenodd" d="m37.805 13.502-5.25 2.1875c1.2055 2.4697 2.7865 4.9335 3.3438 6.1562 1.5602 3.4225 2.1303 4.9538 2 7.5625-0.12594 2.5216-0.99784 4.0443-2.5313 5.5312-1.5334 1.4867-3.6233 2.2569-6.1563 1.9062-5.3645-0.74264-7.0907-4.8033-7.2188-6.7812-0.10536-1.6265 1.0349-5.6333 5.1563-5.4375 2.8571 0.13595 4.4631 1.7197 4.6563 4.4062 0.14229 1.9799-1.7736 3.9787-4.875 2.9688-0.49923-0.1623-0.53297 0.7328 0.03125 1.1875 1.4526 1.1707 7.207 0.72294 7.1875-3.875-0.01803-4.2609-3.4265-7.1371-6.7188-7.1562-6.895-0.04085-8.2177 5.4332-7.9688 9.1875 0.27588 4.1593 5.4907 9.1886 11.438 9.1875 3.8123-0.00021 8.6951-3.7134 10.25-7.5s1.0868-6.8841 0-10.875c-0.85357-3.3295-2.2041-5.8972-3.3438-8.6562z"/>
  <path id="path3611" style="fill:#a9c5d3;fill-rule:evenodd" d="m37.648 12.221-5.25 2.1875c1.2055 2.4697 2.7865 4.9335 3.3438 6.1562 1.5602 3.4225 2.1303 4.9538 2 7.5625-0.12594 2.5216-0.99784 4.0443-2.5313 5.5312-1.5334 1.4867-3.6233 2.2569-6.1563 1.9062-5.3645-0.74264-7.0907-4.8033-7.2188-6.7812-0.10536-1.6265 1.0349-5.6333 5.1563-5.4375 2.8571 0.13595 4.4631 1.7197 4.6563 4.4062 0.14229 1.9799-1.7736 3.9787-4.875 2.9688-0.49923-0.1623-0.53297 0.7328 0.03125 1.1875 1.4526 1.1707 7.2382 0.72294 7.2188-3.875-0.01803-4.2609-3.4578-7.1371-6.75-7.1562-6.895-0.04085-8.2177 5.4332-7.9688 9.1875 0.27588 4.1593 5.4907 9.1886 11.438 9.1875 3.923-0.000216 8.8179-3.8882 10.406-7.9062 1.5884-4.0181 1.0868-6.4225 0-9.9062-0.83726-3.6057-2.2978-6.3084-3.5-9.2188z"/>
  <path id="path2866" style="opacity:.4;stroke-linejoin:round;stroke:url(#linearGradient2634);stroke-width:.99992;fill:none" d="m39.312 9.4375-10.156 4.6565a1.0503 1.0503 0 0 1 -1.218 -0.282c-4.189-4.8045-13.026-6.7984-19.626 0.032-3.3458 3.463-4.8692 7.135-4.7495 11.781 0.1143 4.435 1.9305 9.896 5.2813 16.531l10.031-3.968a1.0503 1.0503 0 0 1 1.187 0.312c1.8976 2.3519 5.9527 3.9591 10.125 3.9375 4.1723-0.02159 8.3493-1.5981 10.75-5.1562 2.5445-3.7713 3.765-7.3882 3.5312-11.875-0.221-4.263-1.922-9.454-5.156-15.968z"/>
 </g>
</svg>
