<?xml version="1.0" encoding="UTF-8" standalone="no"?>
<!-- Created with Inkscape (http://www.inkscape.org/) -->
<svg id="svg3428" xmlns="http://www.w3.org/2000/svg" height="48" width="48" version="1.0" xmlns:xlink="http://www.w3.org/1999/xlink">
 <defs id="defs3430">
  <linearGradient id="XMLID_5_" y2="104.06" gradientUnits="userSpaceOnUse" x2="64" y1="21.941" x1="64">
   <stop id="stop24" style="stop-color:#dadada" offset="0"/>
   <stop id="stop26" style="stop-color:#ccc" offset="1"/>
  </linearGradient>
  <linearGradient id="XMLID_6_" y2="103.07" xlink:href="#XMLID_5_" gradientUnits="userSpaceOnUse" x2="64" y1="21.523" x1="64">
   <stop id="stop31" style="stop-color:#d9d9d9" offset="0"/>
   <stop id="stop33" style="stop-color:#ccc" offset="1"/>
  </linearGradient>
  <linearGradient id="linearGradient3511" y2="44.14" gradientUnits="userSpaceOnUse" x2="-9.7747" gradientTransform="matrix(-.50045 -.49965 -.84917 .84785 49.112 -9.0091)" y1="44.229" x1="-6.3078">
   <stop id="stop6223" offset="0"/>
   <stop id="stop6225" style="stop-opacity:0" offset="1"/>
  </linearGradient>
  <linearGradient id="linearGradient3514" y2="35.079" gradientUnits="userSpaceOnUse" x2="90.221" gradientTransform="matrix(-.82274 -.82219 -.71961 .71912 121.1 81.547)" y1="35.152" x1="97.442">
   <stop id="stop4958" style="stop-color:#f8b17e" offset="0"/>
   <stop id="stop4960" style="stop-color:#e35d4f" offset=".26238"/>
   <stop id="stop4962" style="stop-color:#c6262e" offset=".66347"/>
   <stop id="stop4964" style="stop-color:#690b54" offset="1"/>
  </linearGradient>
  <linearGradient id="linearGradient3516" y2="27.273" gradientUnits="userSpaceOnUse" x2="36.001" gradientTransform="matrix(-1 0 0 1 49.001 .00054986)" y1="34.023" x1="29.278">
   <stop id="stop2492" style="stop-color:#791235" offset="0"/>
   <stop id="stop2494" style="stop-color:#dd3b27" offset="1"/>
  </linearGradient>
  <linearGradient id="linearGradient3533" y2="88.006" gradientUnits="userSpaceOnUse" x2="317.16" gradientTransform="matrix(-1.363 0 0 1.3617 452.82 -67.958)" y1="75.575" x1="326.6">
   <stop id="stop7423-0" style="stop-color:#fff" offset="0"/>
   <stop id="stop7425-2" style="stop-color:#fff;stop-opacity:0" offset="1"/>
  </linearGradient>
  <linearGradient id="linearGradient3536" y2="60.768" gradientUnits="userSpaceOnUse" x2="308.65" gradientTransform="matrix(-1.363 0 0 1.3617 452.82 -67.958)" y1="58.443" x1="302.29">
   <stop id="stop7383" style="stop-color:#babdb6" offset="0"/>
   <stop id="stop7385" style="stop-color:#fff" offset="1"/>
  </linearGradient>
  <linearGradient id="linearGradient3539" y2="81.926" gradientUnits="userSpaceOnUse" x2="335.3" gradientTransform="matrix(-1.363 0 0 1.3617 452.82 -67.958)" y1="64.295" x1="304.76">
   <stop id="stop4436" style="stop-color:#d3d7cf" offset="0"/>
   <stop id="stop4438" style="stop-color:#babdb6" offset=".18304"/>
   <stop id="stop4440" style="stop-color:#fff" offset=".31893"/>
   <stop id="stop4442" style="stop-color:#babdb6" offset=".87644"/>
   <stop id="stop4444" style="stop-color:#eeeeec" offset="1"/>
  </linearGradient>
  <linearGradient id="linearGradient3541" y2="58.612" gradientUnits="userSpaceOnUse" x2="305.67" gradientTransform="matrix(-1.363 0 0 1.3617 452.82 -67.958)" y1="52.787" x1="301.32">
   <stop id="stop7446" style="stop-color:#888a85" offset="0"/>
   <stop id="stop7448" style="stop-color:#555753" offset="1"/>
  </linearGradient>
  <linearGradient id="linearGradient3591" y2="103.07" xlink:href="#XMLID_6_" gradientUnits="userSpaceOnUse" x2="64" gradientTransform="matrix(.37137 0 0 .37075 .23836 -.35744)" y1="21.523" x1="64"/>
  <linearGradient id="linearGradient3593" y2="102.05" xlink:href="#XMLID_6_" gradientUnits="userSpaceOnUse" x2="49.374" gradientTransform="matrix(.37137 0 0 .37075 .23836 -.35744)" y1="22.275" x1="49.273"/>
  <linearGradient id="linearGradient3596" y2="104.06" xlink:href="#XMLID_5_" gradientUnits="userSpaceOnUse" x2="64" gradientTransform="matrix(.32178 0 0 .32124 3.4122 3.0428)" y1="21.941" x1="64"/>
  <linearGradient id="linearGradient3598" y2="20.895" gradientUnits="userSpaceOnUse" x2="84.639" gradientTransform="matrix(.32178 0 0 .32124 3.4122 3.0428)" y1="105.1" x1="86.133">
   <stop id="stop5130" style="stop-color:#fff" offset="0"/>
   <stop id="stop5132" style="stop-color:#959595" offset="1"/>
  </linearGradient>
  <linearGradient id="linearGradient3601" y2="117.23" gradientUnits="userSpaceOnUse" x2="64" gradientTransform="scale(.375)" y1="6.8743" x1="64">
   <stop id="stop11" style="stop-color:#f2f2f2" offset="0"/>
   <stop id="stop13" style="stop-color:#d8d8d8" offset="1"/>
  </linearGradient>
  <radialGradient id="radialGradient3605" gradientUnits="userSpaceOnUse" cy="73.616" cx="6.7027" gradientTransform="matrix(3.0435 0 0 .96975 3.6 -30.399)" r="7.2284">
   <stop id="stop10693" offset="0"/>
   <stop id="stop10695" style="stop-opacity:0" offset="1"/>
  </radialGradient>
 </defs>
 <path id="path10689" style="opacity:.4;fill:url(#radialGradient3605)" d="m46 40.99c0 3.872-9.85 7.01-22 7.01s-22-3.138-22-7.01c0-3.8714 9.8497-7.0098 22-7.0098s22 3.1384 22 7.0098z"/>
 <path id="path6" style="opacity:.1;stroke-width:2.6667;fill:#030303" d="m44.042 18.203h-1.6964c-0.45786 0-0.98727-0.38039-1.1328-0.81356-0.0081-0.02252-1.0528-2.5473-1.0528-2.5473-0.21501-0.43176-0.11103-1.0733 0.21254-1.3966l1.1995-1.1975c0.27563-0.27553 0.4279-0.6429 0.4279-1.0345 0-0.39165-0.15226-0.75902-0.4279-1.0342l-4.723-4.7142c-0.276-0.2751-0.644-0.4268-1.036-0.4272-0.3923 0-0.76028 0.15166-1.0359 0.42719l-1.199 1.1975c-0.324 0.3227-0.967 0.4268-1.376 0.2227-0.023-0.0105-2.552-1.0532-2.552-1.0532-0.457-0.1537-0.838-0.6823-0.838-1.1394v-1.694c-0.001-0.8068-0.658-1.4631-1.466-1.4631h-6.6786c-0.80822 0-1.4656 0.65627-1.4656 1.4631v1.694c0 0.4571-0.38102 0.98563-0.81491 1.131-0.02256 0.00845-2.5515 1.0511-2.5515 1.0511-0.43248 0.21465-1.0754 0.11049-1.399-0.21254l-1.199-1.1972c-0.276-0.2755-0.644-0.4272-1.036-0.4272-0.3923 0-0.76028 0.15201-1.0359 0.42719l-4.7235 4.7152c-0.57136 0.57041-0.57136 1.4983 0 2.0687l1.1995 1.1975c0.32322 0.32303 0.42755 0.96487 0.22311 1.3734-0.010575 0.02287-1.0553 2.5477-1.0553 2.5477-0.15403 0.45604-0.68309 0.83608-1.1409 0.83608h-1.2569c-0.8079 0-1.9052 0.657-1.9052 1.464v6.6672c0 0.80687 0.65736 1.4631 1.4656 1.4631h1.6968c0.45786 0 0.98727 0.38004 1.1325 0.81356 0.00846 0.02252 1.0532 2.5473 1.0532 2.5473 0.21501 0.43176 0.11068 1.0733-0.21254 1.3966l-1.1995 1.1975c-0.57136 0.57041-0.57136 1.4983 0 2.0687l4.7231 4.7149c0.27563 0.27518 0.64361 0.4272 1.0359 0.4272 0.39265 0 0.76063-0.15202 1.0363-0.4272l1.1995-1.1975c0.32357-0.32268 0.96648-0.42684 1.3757-0.22275 0.02291 0.01054 2.5519 1.0535 2.5519 1.0535 0.45645 0.15377 0.83747 0.68196 0.83747 1.1391v1.6936c0 0.80687 0.65736 1.4631 1.4656 1.4631h6.6783c0.80786 0 1.4652-0.65626 1.4652-1.4631v-1.6936c0-0.4571 0.38102-0.98564 0.81527-1.131 0.02256-0.0081 2.5515-1.0511 2.5515-1.0511 0.43248-0.21465 1.0757-0.11084 1.399 0.21219l1.1995 1.1975c0.27563 0.27518 0.64361 0.4272 1.0359 0.4272 0.3923 0 0.76028-0.15202 1.0359-0.4272l4.7228-4.7149c0.27564-0.27518 0.4279-0.64254 0.4279-1.0342 0-0.39165-0.15226-0.75902-0.4279-1.0342l-1.1995-1.1975c-0.32357-0.32303-0.42755-0.96487-0.22311-1.3734 0.01057-0.02287 1.0553-2.5477 1.0553-2.5477 0.15403-0.45569 0.68309-0.83608 1.141-0.83608h1.6964c0.80822 0 1.4656-0.65627 1.4656-1.4631v-6.6679c0.0011-0.80687-0.6563-1.4631-1.4645-1.4631zm-20.035 11.022c-3.4384 0-6.2359-2.7926-6.2359-6.2252s2.7976-6.2256 6.2359-6.2256c3.4387 0 6.2356 2.7929 6.2356 6.2256 0 3.433-2.7969 6.2252-6.2356 6.2252z"/>
 <path id="path8" style="stroke-linejoin:round;stroke:#888;stroke-linecap:round;stroke-width:.99957;fill:url(#linearGradient3601)" d="m44.036 18.195h-1.6964c-0.45786 0-0.98727-0.38109-1.1328-0.81497-0.0081-0.02252-1.0528-2.5512-1.0528-2.5512-0.21501-0.43247-0.11103-1.075 0.21254-1.3987l1.1995-1.1996c0.27563-0.27588 0.4279-0.64395 0.4279-1.0363 0-0.392-0.15227-0.76007-0.4279-1.036l-4.723-4.722c-0.27563-0.27588-0.64361-0.42789-1.0359-0.42789-0.3923 0-0.76028 0.15201-1.0359 0.42789l-1.199 1.1992c-0.324 0.3234-0.967 0.4275-1.376 0.2231-0.023-0.0106-2.552-1.055-2.552-1.055-0.457-0.1541-0.838-0.6833-0.838-1.1411v-1.6968c-0.001-0.8083-0.658-1.4656-1.466-1.4656h-6.6786c-0.80822 0-1.4656 0.65732-1.4656 1.4656v1.6968c0 0.4578-0.38102 0.98739-0.81491 1.1327-0.02256 0.00845-2.5515 1.0528-2.5515 1.0528-0.43248 0.215-1.0754 0.11084-1.399-0.21254l-1.199-1.1992c-0.27598-0.27588-0.64396-0.42789-1.0363-0.42789-0.3923 0-0.76028 0.15237-1.0359 0.42789l-4.7235 4.723c-0.57136 0.57146-0.57136 1.5011 0 2.0723l1.1995 1.1996c0.32322 0.32338 0.42755 0.96628 0.22311 1.3759-0.010575 0.02287-1.0553 2.5519-1.0553 2.5519-0.15403 0.45675-0.68309 0.83749-1.1409 0.83749h-1.2569c-0.80786-0.000351-1.9051 0.65697-1.9051 1.4653v6.6784c0 0.80793 0.65736 1.4653 1.4656 1.4653h1.6968c0.45786 0 0.98727 0.38074 1.1325 0.81497 0.00846 0.02252 1.0532 2.5512 1.0532 2.5512 0.21501 0.43247 0.11068 1.0754-0.21254 1.3991l-1.1995 1.1996c-0.57136 0.57111-0.57136 1.5011 0 2.0723l4.7231 4.7227c0.27563 0.27588 0.64361 0.42789 1.0359 0.42789 0.39265 0 0.76063-0.15201 1.0363-0.42789l1.1995-1.1992c0.32357-0.32338 0.96648-0.4279 1.3757-0.2231 0.02291 0.0102 2.5519 1.055 2.5519 1.055 0.45645 0.15412 0.83747 0.68301 0.83747 1.1412v1.6964c0 0.80828 0.65736 1.4656 1.4656 1.4656h6.6783c0.80786 0 1.4652-0.65733 1.4652-1.4656v-1.6964c0-0.45816 0.38102-0.98739 0.81526-1.1331 0.02256-0.0081 2.5515-1.0528 2.5515-1.0528 0.43248-0.21501 1.0757-0.11049 1.399 0.21254l1.1995 1.1992c0.27563 0.27588 0.64361 0.42789 1.0359 0.42789 0.3923 0 0.76028-0.15201 1.0359-0.42789l4.7228-4.7227c0.27564-0.27553 0.4279-0.6436 0.4279-1.036 0-0.39235-0.15226-0.76042-0.4279-1.036l-1.1995-1.1996c-0.32356-0.32338-0.42755-0.96663-0.22311-1.3755 0.01058-0.02322 1.0553-2.5519 1.0553-2.5519 0.15403-0.4571 0.68309-0.83784 1.141-0.83784h1.6964c0.80821 0 1.4656-0.65732 1.4656-1.4653v-6.6784c0.0011-0.80828-0.6563-1.4656-1.4645-1.4656zm-20.035 11.523c-3.7302 0-6.7646-3.0294-6.7646-6.753 0-3.724 3.0344-6.7534 6.7646-6.7534 3.7298 0 6.7643 3.0294 6.7643 6.7534 0 3.7237-3.0344 6.753-6.7643 6.753z"/>
 <path id="path28" style="stroke:url(#linearGradient3598);stroke-width:.99957;fill:url(#linearGradient3596)" d="m24.006 9.9158c-7.3819 0-13.388 5.9957-13.388 13.365 0 7.3697 6.0057 13.365 13.388 13.365 7.3819 0 13.388-5.9957 13.388-13.365 0-7.3697-6.0057-13.365-13.388-13.365zm0 23.195c-5.4384 0-9.8464-4.4004-9.8464-9.8301s4.4081-9.8301 9.8464-9.8301c5.4384 0 9.8464 4.4007 9.8464 9.8301s-4.4081 9.8301-9.8464 9.8301z"/>
 <path id="path35" style="stroke:url(#linearGradient3593);stroke-width:.99957;fill:url(#linearGradient3591)" d="m24.006 11.507c-6.3582 0-11.512 5.1457-11.512 11.493 0 6.3477 5.1542 11.493 11.512 11.493 6.3582 0 11.512-5.1457 11.512-11.493 0-6.3477-5.1542-11.493-11.512-11.493zm0 19.094c-4.205 0-7.6131-3.4028-7.6131-7.6004 0-4.198 3.4081-7.6004 7.6131-7.6004 4.2046 0 7.6131 3.4024 7.6131 7.6004 0 4.1977-3.4084 7.6004-7.6131 7.6004z"/>
 <path id="path6912" style="stroke-linejoin:round;fill-rule:evenodd;stroke-dashoffset:.3612;stroke:url(#linearGradient3541);stroke-linecap:round;enable-background:new;fill:url(#linearGradient3539)" d="m36.844 2.438c0.16383-0.0082 0.32804 0.05813 0.4375 0.1875 0.14596 0.17246 0.14574 0.42832 0.03125 0.625l-3.0625 5.4687c-0.275 0.49158-0.13073 1.1346 0.3125 1.7813 0.44742 0.65277 1.2037 1.2938 2.1562 1.8125 0.9527 0.51876 1.8911 0.81686 2.6875 0.84375 0.79166 0.02683 1.4118-0.19462 1.6875-0.6875l3.0938-5.5312c0.08587-0.15303 0.23147-0.22968 0.40625-0.25 0.17477-0.02029 0.35216 0.02675 0.46875 0.15625 0.06297 0.06727 0.10346 0.1605 0.125 0.25 0.59308 2.5534 0.31243 5.489-0.8125 7.5-1.5363 2.7463-4.7419 4.0543-7.875 3.5-1.2803 0.4303-3.4561 1.1778-5.469 3.1752l-4.15-4.419c1.8145-1.8006 2.6625-3.4436 3.1502-4.6625-0.42316-1.685-0.23421-3.4706 0.65625-5.0625 1.1245-2.0101 3.4682-3.7895 5.9688-4.6562 0.05364-0.01961 0.13289-0.02853 0.1875-0.03125z"/>
 <path id="path7379" style="enable-background:new;fill:url(#linearGradient3536);fill-rule:evenodd" d="m36.841 2.9353c-0.02549 0.0095-0.0095 0.04248 0 0.04262l-3.0668 5.4893c-0.41372 0.73951-0.11531 1.6129 0.38335 2.3404 0.50362 0.73476 1.284 1.4467 2.3001 2 1.0183 0.55451 2.0864 0.82082 2.9816 0.85106 0.89324 0.03023 1.7317-0.22456 2.1297-0.93616l3.0668-5.5319c0.01758-0.0027 0.04552 0.0027 0.04266 0-0.02808-0.02996-0.0054 0.02179 0 0.04262 0.56554 2.4349 0.27222 5.2491-0.7667 7.1063-1.4211 2.5405-4.3881 3.7538-7.3262 3.234-2.925-0.522-5.425-3.067-6.049-5.489-0.394-1.568-0.226-3.253 0.596-4.7231 1.037-1.8521 3.316-3.5963 5.708-4.4255l-0.000069-0.000136z"/>
 <path id="path4756" style="stroke-width:0.7;stroke-dashoffset:.3612;stroke:url(#linearGradient3533);stroke-linecap:round;enable-background:new;fill:none" d="m35.313 4.4693-2.0625 3.6875c-0.58141 1.0392-0.15947 2.1746 0.40625 3 0.57157 0.83389 1.407 1.561 2.5 2.1562 1.0976 0.5977 2.2353 0.93447 3.25 0.96875 1.016 0.03434 2.1416-0.27398 2.6875-1.25l2.125-3.8437c0.09078 1.7949-0.11702 3.6005-0.8125 4.8437-1.2819 2.2916-3.9852 3.4156-6.6875 2.9375-0.19783-0.03904-0.40347-0.0042-0.59375 0.0625-1.4647 0.49226-3.2934 1.4971-5.4062 3.5938l-1 1-3.0938-3.0938 0.96875-0.96875c1.9049-1.8903 2.9485-3.5592 3.5-4.9375 0.08314-0.21553 0.08686-0.43207 0.03125-0.65625-0.3583-1.4268-0.20876-2.9896 0.53125-4.3125 0.67634-1.209 2.101-2.3128 3.6562-3.1875z"/>
 <path id="rect7166" style="opacity:0.08;fill-rule:evenodd;enable-background:new" d="m30.876 16.282c0.1369 0.01172 0.25777 0.0391 0.34375 0.125l0.625 0.65625c0.34391 0.34358 0.09326 1.1887-0.59375 1.875l-2.125 2.0938-1.875-1.9062 2.0938-2.0938c0.51526-0.51476 1.1205-0.78517 1.5312-0.75z"/>
 <path id="path6899" style="stroke-linejoin:round;stroke-width:.99963;stroke-dashoffset:.7;stroke:url(#linearGradient3516);stroke-linecap:round;enable-background:new;fill:url(#linearGradient3514)" d="m31.473 20.865-21.271 22.696c-1.3953 1.3944-3.7842 1.2118-5.3795-0.38238s-1.778-3.9815-0.38264-5.3759l22.711-21.257 4.322 4.319zm-22.329 17.995c-0.79307-0.79252-2.088-0.79252-2.8811 0-0.79306 0.79253-0.79306 2.0866-0.000001 2.8791 0.79307 0.79253 2.088 0.79253 2.8811 0 0.79306-0.79253 0.79306-2.0866 0-2.8791z"/>
 <path id="rect6533" style="opacity:.23106;fill:url(#linearGradient3511)" d="m27.535 20.529c-0.5545-0.55361-1.5695-0.43158-2.2758 0.2736l-14.692 13.334c-0.70628 0.70519-0.16052 2.3863 0.39398 2.9399 0.5545 0.55362 2.2378 1.0996 2.9441 0.39445l13.355-14.67c0.70628-0.70519 0.82848-1.7186 0.27398-2.2722z"/>
</svg>
