<?xml version="1.0" encoding="UTF-8" standalone="no"?>
<!-- Created with Inkscape (http://www.inkscape.org/) -->
<svg id="svg3134" xmlns="http://www.w3.org/2000/svg" height="48" width="48" version="1.1" xmlns:xlink="http://www.w3.org/1999/xlink">
 <defs id="defs3136">
  <linearGradient id="linearGradient2098" y2="39.999" gradientUnits="userSpaceOnUse" x2="25.058" y1="47.028" x1="25.058">
   <stop id="stop3704" style="stop-opacity:0" offset="0"/>
   <stop id="stop3710" offset=".5"/>
   <stop id="stop3706" style="stop-opacity:0" offset="1"/>
  </linearGradient>
  <radialGradient id="radialGradient2096" xlink:href="#linearGradient3688" gradientUnits="userSpaceOnUse" cy="43.5" cx="4.993" gradientTransform="matrix(2.0038 0 0 1.4 -20.012 -104.4)" r="2.5"/>
  <linearGradient id="linearGradient3688">
   <stop id="stop3690" offset="0"/>
   <stop id="stop3692" style="stop-opacity:0" offset="1"/>
  </linearGradient>
  <radialGradient id="radialGradient2094" xlink:href="#linearGradient3688" gradientUnits="userSpaceOnUse" cy="43.5" cx="4.993" gradientTransform="matrix(2.0038 0 0 1.4 27.988 -17.4)" r="2.5"/>
  <linearGradient id="linearGradient1992" y2="34.609" xlink:href="#linearGradient4585" gradientUnits="userSpaceOnUse" x2="8.4886" y1="18.345" x1="9.1178"/>
  <linearGradient id="linearGradient1990" y2="36.625" xlink:href="#linearGradient6732" gradientUnits="userSpaceOnUse" x2="31.5" gradientTransform="matrix(.85804 0 0 .8 -.93222 9.3)" y1=".75951" x1="11.511"/>
  <linearGradient id="linearGradient6732">
   <stop id="stop6734" style="stop-color:#fff" offset="0"/>
   <stop id="stop6736" style="stop-color:#ddd" offset="1"/>
  </linearGradient>
  <linearGradient id="linearGradient4585">
   <stop id="stop4587" style="stop-color:#9e9e9e" offset="0"/>
   <stop id="stop4589" style="stop-color:#ddd;stop-opacity:0" offset="1"/>
  </linearGradient>
  <linearGradient id="linearGradient3997" y2="99.274" gradientUnits="userSpaceOnUse" x2="330.06" gradientTransform="matrix(.68166 0 0 .67984 -202.21 -33.645)" y1="70.282" x1="324.5">
   <stop id="stop4011" style="stop-color:#555753" offset="0"/>
   <stop id="stop4013" style="stop-color:#555753" offset="1"/>
  </linearGradient>
  <linearGradient id="linearGradient3999" y2="60.768" gradientUnits="userSpaceOnUse" x2="308.65" gradientTransform="matrix(.65225 0 0 .64594 -193.17 -31.629)" y1="58.443" x1="302.29">
   <stop id="stop7383" style="stop-color:#babdb6" offset="0"/>
   <stop id="stop7385" style="stop-color:#fff" offset="1"/>
  </linearGradient>
  <linearGradient id="linearGradient4001" y2="88.006" gradientUnits="userSpaceOnUse" x2="317.16" gradientTransform="matrix(.68166 0 0 .67984 -202.21 -33.645)" y1="75.575" x1="326.6">
   <stop id="stop7423" style="stop-color:#fff" offset="0"/>
   <stop id="stop7425" style="stop-color:#fff;stop-opacity:0" offset="1"/>
  </linearGradient>
  <linearGradient id="linearGradient4003" y2="35.079" gradientUnits="userSpaceOnUse" x2="90.221" gradientTransform="matrix(.41146 -.41048 .35988 .35903 -36.314 40.996)" y1="35.152" x1="97.442">
   <stop id="stop4958" style="stop-color:#f8b17e" offset="0"/>
   <stop id="stop4960" style="stop-color:#e35d4f" offset=".26238"/>
   <stop id="stop4962" style="stop-color:#c6262e" offset=".66347"/>
   <stop id="stop4964" style="stop-color:#690b54" offset="1"/>
  </linearGradient>
  <linearGradient id="linearGradient4005" y2="27.273" gradientUnits="userSpaceOnUse" x2="36.001" gradientTransform="matrix(.50011 0 0 .49926 -.25507 .28339)" y1="34.023" x1="29.278">
   <stop id="stop2492" style="stop-color:#791235" offset="0"/>
   <stop id="stop2494" style="stop-color:#dd3b27" offset="1"/>
  </linearGradient>
  <linearGradient id="linearGradient4007" y2="44.14" xlink:href="#linearGradient3688" gradientUnits="userSpaceOnUse" x2="-9.7747" gradientTransform="matrix(.25028 -.24945 .42468 .42330 -.31069 -4.2147)" y1="44.229" x1="-6.3078"/>
  <radialGradient id="radialGradient2930" xlink:href="#linearGradient3688" gradientUnits="userSpaceOnUse" cy="34.498" cx="21.96" gradientTransform="matrix(.30892 0 0 .11992 35.257 40.428)" r="12.728"/>
  <linearGradient id="linearGradient2944" y2="34.609" xlink:href="#linearGradient4585" gradientUnits="userSpaceOnUse" x2="8.4886" gradientTransform="matrix(1.1025 0 0 1.0306 1.4303 -9.3456)" y1="18.345" x1="9.1178"/>
  <linearGradient id="linearGradient2963" y2="36.625" xlink:href="#linearGradient6732" gradientUnits="userSpaceOnUse" x2="31.5" gradientTransform="matrix(.93233 0 0 .832 .82707 .012004)" y1=".75951" x1="11.511"/>
 </defs>
 <g id="g2043" transform="matrix(1 0 0 .55556 -1 7.8889)">
  <g id="g2036">
   <g id="g3712" style="opacity:.4" transform="matrix(1.0526 0 0 1.2857 -1.2632 -13.429)">
    <rect id="rect2801" style="fill:url(#radialGradient2094)" height="7" width="5" y="40" x="38"/>
    <rect id="rect3696" style="fill:url(#radialGradient2096)" transform="scale(-1)" height="7" width="5" y="-47" x="-10"/>
    <rect id="rect3700" style="fill:url(#linearGradient2098)" height="7" width="28" y="40" x="10"/>
   </g>
  </g>
 </g>
 <g id="g1962" transform="translate(3 -8)">
  <rect id="rect5857" style="fill-rule:evenodd;stroke:#939393;fill:url(#linearGradient1990)" rx="2.75" ry="2.75" height="24" width="34" y="16.5" x="2.5"/>
  <path id="text6970" d="m18.395 22.589c0 0.29414-0.06929 0.51971-0.20785 0.67672-0.13857 0.15597-0.32753 0.23395-0.56687 0.23395-0.09763 0-0.19106-0.01832-0.28029-0.05495v-0.41765c0.07874 0.05967 0.16587 0.0895 0.26139 0.0895 0.11758 0 0.20575-0.04344 0.26454-0.13032 0.05983-0.08793 0.08975-0.21929 0.08975-0.3941v-1.3927h0.43933v1.3896m1.2266-0.80391c0.24564 0.000002 0.44142 0.07537 0.58734 0.2261 0.14591 0.15073 0.21887 0.35328 0.21887 0.60764 0 0.27634-0.07821 0.49197-0.23462 0.64689-0.15641 0.15387-0.36636 0.23081-0.62985 0.23081-0.2425 0-0.43985-0.07589-0.59207-0.22767-0.15116-0.15178-0.22675-0.35066-0.22675-0.59665 0-0.27634 0.07926-0.49302 0.23778-0.65003 0.15851-0.15806 0.37161-0.23709 0.6393-0.23709m-0.03622 1.3739c0.12807 0 0.23199-0.04553 0.31178-0.1366 0.08083-0.09211 0.12125-0.2172 0.12125-0.37526 0-0.16015-0.03989-0.28629-0.11967-0.3784-0.07979-0.09316-0.18214-0.13974-0.30705-0.13974-0.12388 0.000001-0.22885 0.04867-0.31493 0.14602-0.08608 0.0963-0.12912 0.22348-0.12912 0.38154 0 0.15597 0.04199 0.27896 0.12597 0.36898 0.08503 0.08898 0.18895 0.13346 0.31178 0.13346m2.6753 0.29204h-0.42201v-0.88084c0-0.14759-0.02257-0.25436-0.06771-0.32031-0.04515-0.06699-0.1223-0.10049-0.23148-0.10049-0.09553 0.000001-0.17479 0.03611-0.23777 0.10834-0.06299 0.07223-0.09448 0.16434-0.09448 0.27634v0.91696h-0.42673v-2.3803h0.42673v0.99703c0.05774-0.09421 0.12964-0.16486 0.21573-0.21197 0.08713-0.0471 0.18843-0.07065 0.3039-0.07066 0.17741 0.000002 0.31073 0.05496 0.39996 0.16486 0.08923 0.10991 0.13384 0.27477 0.13385 0.49459v1.0065m1.9337 0h-0.42201v-0.88084c0-0.14759-0.02257-0.25436-0.06771-0.32031-0.04514-0.06699-0.12229-0.10049-0.23147-0.10049-0.09553 0.000001-0.17478 0.03611-0.23777 0.10834s-0.09448 0.16434-0.09448 0.27634v0.91696h-0.42673v-1.6078h0.42673v0.22453c0.05774-0.09421 0.12965-0.16486 0.21573-0.21197 0.08712-0.0471 0.18842-0.07065 0.3039-0.07066 0.17741 0.000002 0.31073 0.05496 0.39996 0.16486 0.08923 0.10991 0.13385 0.27477 0.13385 0.49459v1.0065m1.381-2.2516h0.79047c0.38211 0.000002 0.6687 0.09159 0.85976 0.27477 0.1921 0.18318 0.28815 0.45743 0.28815 0.82275 0 0.35276-0.10812 0.63328-0.32437 0.84159-0.21521 0.2083-0.50704 0.31246-0.87551 0.31246h-0.7385v-2.2516m0.43932 1.9046h0.28974c0.23724 0 0.42358-0.07066 0.559-0.21197 0.13647-0.14131 0.20469-0.33444 0.2047-0.57938-0.00001-0.23761-0.06614-0.42236-0.1984-0.55426-0.13228-0.13189-0.31651-0.19784-0.5527-0.19784h-0.30234v1.5434m2.6265-1.3189c0.24564 0.000002 0.44142 0.07537 0.58734 0.2261 0.14591 0.15073 0.21888 0.35328 0.21888 0.60764 0 0.27634-0.07821 0.49197-0.23462 0.64689-0.15642 0.15387-0.36637 0.23081-0.62986 0.23081-0.2425 0-0.43985-0.07589-0.59207-0.22767-0.15117-0.15178-0.22675-0.35066-0.22675-0.59665 0-0.27634 0.07926-0.49302 0.23777-0.65003 0.15851-0.15806 0.37162-0.23709 0.63931-0.23709m-0.03622 1.3739c0.12807 0 0.232-0.04553 0.31178-0.1366 0.08083-0.09211 0.12125-0.2172 0.12125-0.37526 0-0.16015-0.0399-0.28629-0.11968-0.3784-0.07978-0.09316-0.18213-0.13974-0.30705-0.13974-0.12388 0.000001-0.22885 0.04867-0.31493 0.14602-0.08608 0.0963-0.12912 0.22348-0.12912 0.38154 0 0.15597 0.04199 0.27896 0.12597 0.36898 0.08503 0.08898 0.18896 0.13346 0.31178 0.13346m2.5824-0.41922h-1.0739c0 0.13189 0.04041 0.23447 0.12125 0.30774 0.08188 0.07223 0.19525 0.10834 0.34012 0.10834 0.15956 0.000001 0.31336-0.04763 0.46137-0.14288v0.34857c-0.16586 0.08583-0.35167 0.12875-0.55742 0.12875-0.2488 0-0.44352-0.07275-0.58419-0.21825-0.13962-0.1455-0.20944-0.34438-0.20944-0.59665 0-0.27216 0.07454-0.48883 0.22361-0.65003 0.15011-0.16224 0.34747-0.24337 0.59206-0.24337 0.2152 0.000002 0.38316 0.06699 0.50389 0.20098 0.12177 0.13294 0.18266 0.31874 0.18266 0.5574v0.19941m-0.39367-0.28262c0-0.112-0.02834-0.1994-0.08503-0.26221-0.05563-0.0628-0.13489-0.09421-0.23777-0.09421-0.09342 0.000002-0.17426 0.03245-0.24249 0.09735-0.06824 0.06385-0.10655 0.15021-0.11495 0.25907h0.68024"/>
  <rect id="rect6978" style="opacity:.39766;fill-rule:evenodd;fill:#8d8d8d" rx="1" ry="1" height="2" width="15" y="25" x="17"/>
  <rect id="rect6980" style="opacity:.39766;fill-rule:evenodd;fill:#8d8d8d" rx="1" ry="1" height="2" width="10.956" y="28" x="17.089"/>
  <g id="g7033" style="opacity:.48538" transform="matrix(.78254 0 0 .65025 .39068 14.551)">
   <rect id="rect7003" style="fill-rule:evenodd" rx="0" ry="0" height="6" width="1" y="30" x="6"/>
   <rect id="rect7005" style="fill-rule:evenodd" rx="0" ry="0" height="2.9852" width="1.9375" y="30" x="8.0846"/>
   <rect id="rect7007" style="fill-rule:evenodd" height="2.9852" width="1" y="30" x="11"/>
   <rect id="rect7009" style="fill-rule:evenodd" height="2.9852" width="2" y="30" x="13"/>
   <rect id="rect7011" style="fill-rule:evenodd" height="2.9852" width="1" y="30" x="16"/>
   <rect id="rect7013" style="fill-rule:evenodd" height="2.9852" width="1" y="30" x="18"/>
   <rect id="rect7015" style="fill-rule:evenodd" height="2.9852" width="1" y="30" x="21"/>
   <rect id="rect7017" style="fill-rule:evenodd" height="2.9852" width="2" y="30" x="23"/>
   <rect id="rect7019" style="fill-rule:evenodd" height="2.9852" width="2" y="30" x="26"/>
   <rect id="rect7021" style="fill-rule:evenodd" height="2.9852" width="1" y="30" x="29"/>
   <rect id="rect7023" style="fill-rule:evenodd" height="2.9852" width="1" y="30" x="31"/>
   <rect id="rect7025" style="fill-rule:evenodd" height="2.9852" width="1" y="30" x="33"/>
   <rect id="rect7027" style="fill-rule:evenodd" height="2.9852" width="2" y="30" x="35"/>
   <rect id="rect7029" style="fill-rule:evenodd" height="2.9852" width="2" y="30" x="39"/>
   <rect id="rect7031" style="fill-rule:evenodd" height="6" width="1" y="30" x="42"/>
  </g>
  <path id="text7050" d="m7.473 37.137c0.058659 0.01251 0.10438 0.03852 0.13714 0.07805 0.033172 0.03953 0.049762 0.08834 0.049762 0.14643 0 0.08915-0.030746 0.15813-0.092238 0.20694s-0.14887 0.07322-0.26214 0.07322c-0.038031 0-0.077276-0.0038-0.11772-0.0115-0.040051-0.0073-0.081517-0.01835-0.1244-0.03328v-0.11799c0.033986 0.01977 0.071204 0.03469 0.11165 0.04478 0.040458 0.01009 0.082731 0.01513 0.12683 0.01513 0.076869 0 0.13532-0.01513 0.17538-0.04538 0.04045-0.03025 0.060678-0.07422 0.060678-0.13191 0-0.05325-0.018812-0.0948-0.056429-0.12465-0.037225-0.03025-0.089209-0.04538-0.15595-0.04538h-0.10559v-0.10044h0.11044c0.06028 0.000001 0.1064-0.0119 0.13835-0.0357 0.031959-0.0242 0.047938-0.05889 0.047938-0.10407 0-0.04639-0.016582-0.08189-0.049754-0.10649-0.032773-0.02501-0.079905-0.03752-0.14139-0.03752-0.033579 0-0.069584 0.0036-0.10802 0.01089-0.038438 0.0073-0.080711 0.01856-0.12683 0.03388v-0.10891c0.046522-0.01291 0.090008-0.02259 0.13046-0.02904 0.040857-0.0065 0.079287-0.0097 0.11529-0.0097 0.093052 0.000002 0.16667 0.02118 0.22089 0.06353 0.054207 0.04195 0.081314 0.09883 0.081314 0.17063 0 0.05002-0.014368 0.09238-0.043087 0.12707-0.028719 0.03429-0.069583 0.05809-0.12258 0.0714m0.52551 0.38423h0.42781v0.10286h-0.57527v-0.10286c0.04653-0.048 0.10984-0.11234 0.18994-0.19302 0.080508-0.08108 0.13108-0.13332 0.1517-0.15672 0.039245-0.04397 0.066548-0.08108 0.081924-0.11134 0.015776-0.03066 0.023665-0.06071 0.023665-0.09016 0-0.048-0.016989-0.08713-0.050975-0.11739-0.033579-0.03025-0.077472-0.04538-0.13168-0.04538-0.038431 0-0.079092 0.0067-0.12197 0.01997-0.042484 0.01331-0.087989 0.03348-0.13654 0.06051v-0.12344c0.049355-0.01976 0.09547-0.03469 0.13835-0.04478 0.042883-0.01008 0.082128-0.01513 0.11773-0.01513 0.09385 0.000002 0.16869 0.0234 0.22453 0.07019 0.055827 0.04679 0.08374 0.10932 0.08374 0.18758 0 0.03711-0.00708 0.07241-0.021238 0.10589-0.013757 0.03308-0.039041 0.07221-0.075852 0.11738-0.010118 0.0117-0.04228 0.04558-0.096487 0.10165-0.054207 0.05567-0.13067 0.13372-0.22938 0.23417m1.0225-0.69403-0.30948 0.48225h0.30948v-0.48225m-0.032162-0.10649h0.15414v0.58874h0.12925v0.10165h-0.12925v0.21299h-0.12198v-0.21299h-0.409v-0.11799l0.37683-0.57241m0.48789 0h0.48121v0.10286h-0.36895v0.22146c0.017803-0.0061 0.035606-0.01049 0.053401-0.01331 0.017803-0.0032 0.035605-0.0048 0.0534-0.0048 0.10114 0.000001 0.18124 0.02763 0.2403 0.0829 0.059066 0.05527 0.088599 0.13009 0.088599 0.22449 0 0.09722-0.030347 0.17285-0.091025 0.2269-0.060686 0.05365-0.14624 0.08048-0.25669 0.08048-0.038024 0-0.076861-0.0032-0.1165-0.0097-0.039244-0.0065-0.079897-0.01614-0.12197-0.02905v-0.12283c0.036411 0.01977 0.074036 0.03449 0.11287 0.04417 0.03883 0.0097 0.079898 0.01452 0.12318 0.01452 0.069991 0 0.12541-0.01835 0.16627-0.05506 0.040857-0.03671 0.061289-0.08653 0.061289-0.14946s-0.020432-0.11275-0.061289-0.14946c-0.040864-0.03671-0.096283-0.05506-0.16627-0.05506-0.032765 0-0.065538 0.0036-0.098303 0.01089-0.032366 0.0073-0.065537 0.01856-0.099515 0.03388v-0.45381m1.4479 0.08047c-0.06311 0.000001-0.11064 0.03106-0.1426 0.09318-0.03156 0.06172-0.04734 0.1547-0.04734 0.27894 0 0.12384 0.01578 0.21682 0.04734 0.27894 0.03196 0.06172 0.07949 0.09258 0.1426 0.09258 0.06351 0 0.11105-0.03086 0.1426-0.09258 0.03196-0.06212 0.04794-0.1551 0.04794-0.27894 0-0.12424-0.01598-0.21722-0.04794-0.27894-0.03155-0.06212-0.07909-0.09318-0.1426-0.09318m0-0.09681c0.10154 0.000002 0.17901 0.04014 0.23241 0.12041 0.0538 0.07987 0.0807 0.19605 0.0807 0.34853 0 0.15208-0.0269 0.26825-0.0807 0.34853-0.0534 0.07987-0.13087 0.11981-0.23241 0.11981s-0.17922-0.03993-0.23302-0.11981c-0.0534-0.08027-0.0801-0.19645-0.0801-0.34853 0-0.15248 0.0267-0.26866 0.0801-0.34853 0.0538-0.08027 0.13147-0.12041 0.23302-0.12041m0.53036 0.01634h0.48121v0.10286h-0.36894v0.22146c0.0178-0.0061 0.0356-0.01049 0.0534-0.01331 0.0178-0.0032 0.0356-0.0048 0.0534-0.0048 0.10114 0.000001 0.18124 0.02763 0.2403 0.0829s0.08859 0.13009 0.08859 0.22449c0 0.09722-0.03034 0.17285-0.09102 0.2269-0.06069 0.05365-0.14625 0.08048-0.25669 0.08048-0.03802 0-0.07686-0.0032-0.11651-0.0097-0.03924-0.0065-0.0799-0.01614-0.12197-0.02905v-0.12283c0.03641 0.01977 0.07403 0.03449 0.11287 0.04417 0.03884 0.0097 0.0799 0.01452 0.12319 0.01452 0.06998 0 0.12541-0.01835 0.16627-0.05506s0.06129-0.08653 0.06129-0.14946-0.02043-0.11275-0.06129-0.14946-0.09628-0.05506-0.16627-0.05506c-0.03277 0-0.06554 0.0036-0.0983 0.01089-0.03237 0.0073-0.06554 0.01856-0.09952 0.03388v-0.45381m0.7913 0h0.48121v0.10286h-0.36894v0.22146c0.01779-0.0061 0.0356-0.01049 0.0534-0.01331 0.01779-0.0032 0.0356-0.0048 0.0534-0.0048 0.10114 0.000001 0.18124 0.02763 0.2403 0.0829 0.05907 0.05527 0.0886 0.13009 0.0886 0.22449 0 0.09722-0.03034 0.17285-0.09103 0.2269-0.06068 0.05365-0.14624 0.08048-0.25668 0.08048-0.03803 0-0.07687-0.0032-0.11651-0.0097-0.03924-0.0065-0.0799-0.01614-0.12197-0.02905v-0.12283c0.0364 0.01977 0.07403 0.03449 0.11287 0.04417 0.03884 0.0097 0.0799 0.01452 0.12319 0.01452 0.06998 0 0.1254-0.01835 0.16627-0.05506 0.04086-0.03671 0.06129-0.08653 0.06129-0.14946s-0.02043-0.11275-0.06129-0.14946c-0.04087-0.03671-0.09628-0.05506-0.16627-0.05506-0.03277 0-0.06554 0.0036-0.09831 0.01089-0.03237 0.0073-0.06554 0.01856-0.09952 0.03388v-0.45381m0.75914 0h0.58255v0.05204l-0.3289 0.85135h-0.12804l0.30948-0.80052h-0.43508v-0.10286m1.2191 0h0.48121v0.10286h-0.36895v0.22146c0.0178-0.0061 0.03561-0.01049 0.0534-0.01331 0.0178-0.0032 0.03561-0.0048 0.0534-0.0048 0.10114 0.000001 0.18124 0.02763 0.2403 0.0829 0.05907 0.05527 0.0886 0.13009 0.0886 0.22449 0 0.09722-0.03035 0.17285-0.09103 0.2269-0.06069 0.05365-0.14625 0.08048-0.25669 0.08048-0.03802 0-0.07686-0.0032-0.1165-0.0097-0.03924-0.0065-0.0799-0.01614-0.12198-0.02905v-0.12283c0.03641 0.01977 0.07404 0.03449 0.11287 0.04417 0.03883 0.0097 0.0799 0.01452 0.12318 0.01452 0.06999 0 0.12541-0.01835 0.16627-0.05506 0.04087-0.03671 0.06129-0.08653 0.0613-0.14946-0.000008-0.06293-0.02043-0.11275-0.0613-0.14946-0.04086-0.03671-0.09628-0.05506-0.16627-0.05506-0.03277 0-0.06554 0.0036-0.0983 0.01089-0.03237 0.0073-0.06554 0.01856-0.09952 0.03388v-0.45381m0.81132 0.80052h0.20025v-0.68919l-0.21785 0.04357v-0.11134l0.21664-0.04357h0.12258v0.80052h0.20025v0.10286h-0.52187v-0.10286m1.0322-0.72005c-0.06311 0.000001-0.11064 0.03106-0.1426 0.09318-0.03155 0.06172-0.04733 0.1547-0.04733 0.27894 0 0.12384 0.01578 0.21682 0.04733 0.27894 0.03196 0.06172 0.07949 0.09258 0.1426 0.09258 0.06351 0 0.11105-0.03086 0.1426-0.09258 0.03196-0.06212 0.04794-0.1551 0.04794-0.27894 0-0.12424-0.01598-0.21722-0.04794-0.27894-0.03155-0.06212-0.07909-0.09318-0.1426-0.09318m0-0.09681c0.10154 0.000002 0.17901 0.04014 0.23242 0.12041 0.0538 0.07987 0.0807 0.19605 0.0807 0.34853 0 0.15208-0.0269 0.26825-0.0807 0.34853-0.0534 0.07987-0.13087 0.11981-0.23242 0.11981-0.10154 0-0.17921-0.03993-0.23302-0.11981-0.0534-0.08027-0.0801-0.19645-0.0801-0.34853 0-0.15248 0.0267-0.26866 0.0801-0.34853 0.05381-0.08027 0.13148-0.12041 0.23302-0.12041m0.80646 0.41932c-0.05501 0.000001-0.09871 0.01876-0.13107 0.05627-0.03196 0.03751-0.04794 0.08895-0.04794 0.1543 0 0.06494 0.01598 0.11638 0.04794 0.1543 0.03236 0.03751 0.07606 0.05627 0.13107 0.05627 0.05502 0 0.09851-0.01876 0.13047-0.05627 0.03236-0.03792 0.04854-0.08935 0.04854-0.1543 0-0.06535-0.01618-0.11678-0.04854-0.1543-0.03196-0.03751-0.07545-0.05627-0.13047-0.05627m0.24334-0.38302v0.11134c-0.03075-0.01452-0.0619-0.02561-0.09345-0.03328-0.03115-0.0077-0.06209-0.0115-0.09284-0.0115-0.08091 0-0.14281 0.02723-0.18569 0.08169-0.04248 0.05446-0.06675 0.13675-0.07282 0.24687 0.02387-0.03509 0.0538-0.06192 0.08981-0.08048 0.036-0.01896 0.07565-0.02844 0.11894-0.02844 0.09102 0.000001 0.16283 0.02763 0.21542 0.0829 0.053 0.05486 0.0795 0.12969 0.0795 0.22449 0 0.09278-0.02751 0.1672-0.08253 0.22328-0.05502 0.05607-0.12824 0.08411-0.21968 0.08411-0.10478 0-0.18488-0.03993-0.2403-0.11981-0.05543-0.08027-0.08314-0.19645-0.08314-0.34853 0-0.1428 0.03398-0.25655 0.10195-0.34127 0.06796-0.08511 0.15918-0.12767 0.27367-0.12767 0.03075 0.000002 0.0617 0.003 0.09285 0.0091 0.03155 0.0061 0.06432 0.01513 0.0983 0.02723m0.6675-0.01997h0.48121v0.10286h-0.36895v0.22146c0.0178-0.0061 0.03561-0.01049 0.0534-0.01331 0.0178-0.0032 0.03561-0.0048 0.0534-0.0048 0.10114 0.000001 0.18124 0.02763 0.2403 0.0829 0.05907 0.05527 0.0886 0.13009 0.0886 0.22449 0 0.09722-0.03035 0.17285-0.09103 0.2269-0.06069 0.05365-0.14625 0.08048-0.25669 0.08048-0.03802 0-0.07686-0.0032-0.1165-0.0097-0.03925-0.0065-0.0799-0.01614-0.12197-0.02905v-0.12283c0.03641 0.01977 0.07403 0.03449 0.11287 0.04417 0.03883 0.0097 0.0799 0.01452 0.12318 0.01452 0.06999 0 0.12541-0.01835 0.16627-0.05506s0.06129-0.08653 0.0613-0.14946c-0.000007-0.06293-0.02043-0.11275-0.0613-0.14946-0.04086-0.03671-0.09628-0.05506-0.16627-0.05506-0.03277 0-0.06554 0.0036-0.0983 0.01089-0.03237 0.0073-0.06554 0.01856-0.09952 0.03388v-0.45381m1.1269 0.10649-0.30948 0.48225h0.30948v-0.48225m-0.03216-0.10649h0.15413v0.58874h0.12925v0.10165h-0.12925v0.21299h-0.12197v-0.21299h-0.409v-0.11799l0.37684-0.57241m0.74881 0.08047c-0.06311 0.000001-0.11064 0.03106-0.1426 0.09318-0.03155 0.06172-0.04733 0.1547-0.04733 0.27894 0 0.12384 0.01578 0.21682 0.04733 0.27894 0.03196 0.06172 0.07949 0.09258 0.1426 0.09258 0.06351 0 0.11105-0.03086 0.1426-0.09258 0.03196-0.06212 0.04794-0.1551 0.04794-0.27894 0-0.12424-0.01598-0.21722-0.04794-0.27894-0.03155-0.06212-0.07909-0.09318-0.1426-0.09318m0-0.09681c0.10154 0.000002 0.17901 0.04014 0.23242 0.12041 0.0538 0.07987 0.0807 0.19605 0.0807 0.34853 0 0.15208-0.0269 0.26825-0.0807 0.34853-0.0534 0.07987-0.13087 0.11981-0.23242 0.11981-0.10154 0-0.17922-0.03993-0.23302-0.11981-0.0534-0.08027-0.0801-0.19645-0.0801-0.34853 0-0.15248 0.0267-0.26866 0.0801-0.34853 0.0538-0.08027 0.13147-0.12041 0.23302-0.12041m0.80646 0.41932c-0.05501 0.000001-0.09871 0.01876-0.13107 0.05627-0.03196 0.03751-0.04794 0.08895-0.04794 0.1543 0 0.06494 0.01598 0.11638 0.04794 0.1543 0.03236 0.03751 0.07606 0.05627 0.13107 0.05627 0.05502 0 0.09851-0.01876 0.13047-0.05627 0.03237-0.03792 0.04855-0.08935 0.04855-0.1543 0-0.06535-0.01618-0.11678-0.04855-0.1543-0.03196-0.03751-0.07545-0.05627-0.13047-0.05627m0.24334-0.38302v0.11134c-0.03075-0.01452-0.0619-0.02561-0.09345-0.03328-0.03115-0.0077-0.0621-0.0115-0.09284-0.0115-0.08092 0-0.14281 0.02723-0.18569 0.08169-0.04248 0.05446-0.06675 0.13675-0.07282 0.24687 0.02387-0.03509 0.05381-0.06192 0.08981-0.08048 0.03601-0.01896 0.07565-0.02844 0.11894-0.02844 0.09103 0.000001 0.16283 0.02763 0.21542 0.0829 0.053 0.05486 0.0795 0.12969 0.0795 0.22449 0 0.09278-0.02751 0.1672-0.08253 0.22328-0.05502 0.05607-0.12824 0.08411-0.21968 0.08411-0.10477 0-0.18488-0.03993-0.2403-0.11981-0.05543-0.08027-0.08314-0.19645-0.08314-0.34853 0-0.1428 0.03398-0.25655 0.10194-0.34127 0.06796-0.08511 0.15919-0.12767 0.27368-0.12767 0.03075 0.000002 0.0617 0.003 0.09285 0.0091 0.03155 0.0061 0.06432 0.01513 0.0983 0.02723m0.6675-0.01997h0.48122v0.10286h-0.36895v0.22146c0.0178-0.0061 0.03561-0.01049 0.0534-0.01331 0.0178-0.0032 0.0356-0.0048 0.0534-0.0048 0.10114 0.000001 0.18124 0.02763 0.2403 0.0829 0.05907 0.05527 0.08859 0.13009 0.0886 0.22449-0.000008 0.09722-0.03035 0.17285-0.09103 0.2269-0.06069 0.05365-0.14625 0.08048-0.25669 0.08048-0.03802 0-0.07686-0.0032-0.1165-0.0097-0.03925-0.0065-0.0799-0.01614-0.12198-0.02905v-0.12283c0.03641 0.01977 0.07404 0.03449 0.11287 0.04417 0.03884 0.0097 0.07991 0.01452 0.12319 0.01452 0.06999 0 0.12541-0.01835 0.16627-0.05506s0.06129-0.08653 0.06129-0.14946-0.02042-0.11275-0.06129-0.14946c-0.04086-0.03671-0.09628-0.05506-0.16627-0.05506-0.03277 0-0.06554 0.0036-0.0983 0.01089-0.03237 0.0073-0.06554 0.01856-0.09952 0.03388v-0.45381m1.1269 0.10649-0.30947 0.48225h0.30947v-0.48225m-0.03215-0.10649h0.15412v0.58874h0.12926v0.10165h-0.12926v0.21299h-0.12197v-0.21299h-0.409v-0.11799l0.37685-0.57241m0.76398 0.40298c-0.05502 0.000001-0.09871 0.01876-0.13107 0.05627-0.03196 0.03751-0.04794 0.08895-0.04794 0.1543 0 0.06494 0.01598 0.11638 0.04794 0.1543 0.03236 0.03751 0.07605 0.05627 0.13107 0.05627s0.09851-0.01876 0.13047-0.05627c0.03236-0.03792 0.04854-0.08935 0.04855-0.1543-0.00001-0.06535-0.01619-0.11678-0.04855-0.1543-0.03196-0.03751-0.07545-0.05627-0.13047-0.05627m0.24333-0.38302v0.11134c-0.03074-0.01452-0.06189-0.02561-0.09345-0.03328-0.03114-0.0077-0.06209-0.0115-0.09284-0.0115-0.08091 0-0.1428 0.02723-0.18569 0.08169-0.04247 0.05446-0.06675 0.13675-0.07281 0.24687 0.02386-0.03509 0.0538-0.06192 0.0898-0.08048 0.03601-0.01896 0.07566-0.02844 0.11894-0.02844 0.09103 0.000001 0.16283 0.02763 0.21543 0.0829 0.05299 0.05486 0.07949 0.12969 0.07949 0.22449 0 0.09278-0.02751 0.1672-0.08253 0.22328-0.05502 0.05607-0.12824 0.08411-0.21967 0.08411-0.10478 0-0.18488-0.03993-0.2403-0.11981-0.05543-0.08027-0.08314-0.19645-0.08314-0.34853 0-0.1428 0.03399-0.25655 0.10195-0.34127 0.06797-0.08511 0.15919-0.12767 0.27368-0.12767 0.03074 0.000002 0.06169 0.003 0.09284 0.0091 0.03155 0.0061 0.06433 0.01513 0.0983 0.02723m0.27186-0.01997h0.48121v0.10286h-0.36895v0.22146c0.0178-0.0061 0.03561-0.01049 0.0534-0.01331 0.01781-0.0032 0.0356-0.0048 0.0534-0.0048 0.10114 0.000001 0.18124 0.02763 0.24031 0.0829 0.05906 0.05527 0.08859 0.13009 0.08859 0.22449 0 0.09722-0.03034 0.17285-0.09102 0.2269-0.06069 0.05365-0.14625 0.08048-0.25669 0.08048-0.03802 0-0.07686-0.0032-0.1165-0.0097-0.03925-0.0065-0.0799-0.01614-0.12198-0.02905v-0.12283c0.03641 0.01977 0.07404 0.03449 0.11287 0.04417 0.03883 0.0097 0.0799 0.01452 0.12318 0.01452 0.07 0 0.12541-0.01835 0.16627-0.05506 0.04087-0.03671 0.06129-0.08653 0.06129-0.14946s-0.02042-0.11275-0.06129-0.14946c-0.04086-0.03671-0.09627-0.05506-0.16627-0.05506-0.03276 0-0.06553 0.0036-0.0983 0.01089-0.03236 0.0073-0.06554 0.01856-0.09952 0.03388v-0.45381m1.1548 0h0.58255v0.05204l-0.3289 0.85135h-0.12804l0.30948-0.80052h-0.43509v-0.10286m1.0844 0.08047c-0.06311 0.000001-0.11065 0.03106-0.14261 0.09318-0.03156 0.06172-0.04733 0.1547-0.04733 0.27894 0 0.12384 0.01577 0.21682 0.04733 0.27894 0.03196 0.06172 0.0795 0.09258 0.14261 0.09258 0.06351 0 0.11104-0.03086 0.1426-0.09258 0.03196-0.06212 0.04794-0.1551 0.04794-0.27894 0-0.12424-0.01598-0.21722-0.04794-0.27894-0.03156-0.06212-0.07909-0.09318-0.1426-0.09318m0-0.09681c0.10153 0.000002 0.179 0.04014 0.2324 0.12041 0.05381 0.07987 0.08072 0.19605 0.08072 0.34853 0 0.15208-0.02691 0.26825-0.08072 0.34853-0.0534 0.07987-0.13087 0.11981-0.2324 0.11981-0.10155 0-0.17922-0.03993-0.23303-0.11981-0.0534-0.08027-0.0801-0.19645-0.0801-0.34853 0-0.15248 0.0267-0.26866 0.0801-0.34853 0.05381-0.08027 0.13148-0.12041 0.23303-0.12041m0.80646 0.41932c-0.05502 0.000001-0.09871 0.01876-0.13108 0.05627-0.03195 0.03751-0.04793 0.08895-0.04793 0.1543 0 0.06494 0.01598 0.11638 0.04793 0.1543 0.03237 0.03751 0.07606 0.05627 0.13108 0.05627 0.05501 0 0.09851-0.01876 0.13047-0.05627 0.03235-0.03792 0.04854-0.08935 0.04854-0.1543 0-0.06535-0.01619-0.11678-0.04854-0.1543-0.03196-0.03751-0.07546-0.05627-0.13047-0.05627m0.24333-0.38302v0.11134c-0.03074-0.01452-0.0619-0.02561-0.09345-0.03328-0.03114-0.0077-0.06209-0.0115-0.09284-0.0115-0.08091 0-0.14281 0.02723-0.18569 0.08169-0.04248 0.05446-0.06675 0.13675-0.07281 0.24687 0.02386-0.03509 0.05379-0.06192 0.0898-0.08048 0.036-0.01896 0.07566-0.02844 0.11894-0.02844 0.09102 0.000001 0.16283 0.02763 0.21542 0.0829 0.053 0.05486 0.07949 0.12969 0.07949 0.22449 0 0.09278-0.0275 0.1672-0.08252 0.22328-0.05502 0.05607-0.12825 0.08411-0.21967 0.08411-0.10478 0-0.18488-0.03993-0.2403-0.11981-0.05543-0.08027-0.08314-0.19645-0.08314-0.34853 0-0.1428 0.03399-0.25655 0.10195-0.34127 0.06796-0.08511 0.15918-0.12767 0.27367-0.12767 0.03075 0.000002 0.0617 0.003 0.09285 0.0091 0.03155 0.0061 0.06432 0.01513 0.0983 0.02723m0.27186-0.01997h0.48121v0.10286h-0.36895v0.22146c0.0178-0.0061 0.03561-0.01049 0.0534-0.01331 0.0178-0.0032 0.03561-0.0048 0.0534-0.0048 0.10114 0.000001 0.18124 0.02763 0.2403 0.0829 0.05907 0.05527 0.0886 0.13009 0.0886 0.22449 0 0.09722-0.03034 0.17285-0.09102 0.2269-0.06069 0.05365-0.14625 0.08048-0.25669 0.08048-0.03803 0-0.07686-0.0032-0.11651-0.0097-0.03924-0.0065-0.07989-0.01614-0.12197-0.02905v-0.12283c0.03641 0.01977 0.07404 0.03449 0.11287 0.04417 0.03883 0.0097 0.0799 0.01452 0.12318 0.01452 0.06999 0 0.12541-0.01835 0.16627-0.05506s0.06129-0.08653 0.0613-0.14946c-0.00001-0.06293-0.02044-0.11275-0.0613-0.14946s-0.09628-0.05506-0.16627-0.05506c-0.03276 0-0.06554 0.0036-0.0983 0.01089-0.03237 0.0073-0.06554 0.01856-0.09952 0.03388v-0.45381m1.1548 0h0.58255v0.05204l-0.3289 0.85135h-0.12804l0.30948-0.80052h-0.43509v-0.10286m1.0996 0.40298c-0.05502 0.000001-0.09871 0.01876-0.13107 0.05627-0.03196 0.03751-0.04794 0.08895-0.04794 0.1543 0 0.06494 0.01598 0.11638 0.04794 0.1543 0.03236 0.03751 0.07605 0.05627 0.13107 0.05627s0.09851-0.01876 0.13047-0.05627c0.03236-0.03792 0.04854-0.08935 0.04854-0.1543 0-0.06535-0.01618-0.11678-0.04854-0.1543-0.03196-0.03751-0.07545-0.05627-0.13047-0.05627m0.24334-0.38302v0.11134c-0.03075-0.01452-0.0619-0.02561-0.09345-0.03328-0.03115-0.0077-0.0621-0.0115-0.09285-0.0115-0.08091 0-0.14281 0.02723-0.18569 0.08169-0.04248 0.05446-0.06675 0.13675-0.07281 0.24687 0.02386-0.03509 0.0538-0.06192 0.08981-0.08048 0.036-0.01896 0.07565-0.02844 0.11894-0.02844 0.09101 0.000001 0.16282 0.02763 0.21541 0.0829 0.053 0.05486 0.07949 0.12969 0.07949 0.22449 0 0.09278-0.0275 0.1672-0.08252 0.22328-0.05502 0.05607-0.12824 0.08411-0.21967 0.08411-0.10477 0-0.18487-0.03993-0.2403-0.11981-0.05542-0.08027-0.08313-0.19645-0.08313-0.34853 0-0.1428 0.03398-0.25655 0.10194-0.34127 0.06796-0.08511 0.15919-0.12767 0.27368-0.12767 0.03074 0.000002 0.06169 0.003 0.09284 0.0091 0.03156 0.0061 0.06432 0.01513 0.09831 0.02723m0.23969-0.01997h0.58255v0.05204l-0.3289 0.85135h-0.12803l0.30947-0.80052h-0.43509v-0.10286m0.82589 0.88463v-0.11134c0.03074 0.01452 0.06189 0.02562 0.09344 0.03328 0.03156 0.0077 0.06251 0.0115 0.09285 0.0115 0.08091 0 0.1426-0.02703 0.18508-0.08108 0.04288-0.05446 0.06735-0.13695 0.07342-0.24748-0.02346 0.03469-0.05319 0.06132-0.0892 0.07987-0.036 0.01856-0.07585 0.02783-0.11954 0.02783-0.09062 0-0.16243-0.02723-0.21542-0.08169-0.0526-0.05486-0.07889-0.12969-0.07889-0.22448 0-0.09278 0.02751-0.1672 0.08252-0.22328 0.05503-0.05607 0.12825-0.08411 0.21968-0.08411 0.10477 0.000002 0.18467 0.04014 0.23969 0.12041 0.05542 0.07987 0.08313 0.19605 0.08314 0.34853-0.00001 0.1424-0.03399 0.25615-0.10195 0.34127-0.06756 0.08471-0.15858 0.12707-0.27307 0.12707-0.03074 0-0.0619-0.003-0.09345-0.0091-0.03156-0.0061-0.06432-0.01513-0.0983-0.02723m0.24394-0.38302c0.05501 0 0.09851-0.01876 0.13046-0.05627 0.03236-0.03751 0.04855-0.08895 0.04855-0.1543 0-0.06495-0.01619-0.11617-0.04855-0.15369-0.03195-0.03792-0.07545-0.05688-0.13046-0.05688-0.05502 0.000001-0.09871 0.01896-0.13108 0.05688-0.03195 0.03752-0.04793 0.08874-0.04793 0.15369 0 0.06535 0.01598 0.11678 0.04793 0.1543 0.03237 0.03751 0.07606 0.05627 0.13108 0.05627m0.54735 0.38302v-0.11134c0.03074 0.01452 0.0619 0.02562 0.09345 0.03328 0.03155 0.0077 0.0625 0.0115 0.09285 0.0115 0.0809 0 0.1426-0.02703 0.18508-0.08108 0.04288-0.05446 0.06735-0.13695 0.07342-0.24748-0.02347 0.03469-0.0532 0.06132-0.0892 0.07987-0.036 0.01856-0.07586 0.02783-0.11955 0.02783-0.09062 0-0.16242-0.02723-0.21542-0.08169-0.05259-0.05486-0.07888-0.12969-0.07888-0.22448 0-0.09278 0.0275-0.1672 0.08252-0.22328 0.05502-0.05607 0.12825-0.08411 0.21967-0.08411 0.10478 0.000002 0.18468 0.04014 0.2397 0.12041 0.05542 0.07987 0.08313 0.19605 0.08313 0.34853 0 0.1424-0.03398 0.25615-0.10194 0.34127-0.06757 0.08471-0.15858 0.12707-0.27308 0.12707-0.03074 0-0.06189-0.003-0.09345-0.0091-0.03155-0.0061-0.06432-0.01513-0.0983-0.02723m0.24394-0.38302c0.05502 0 0.09851-0.01876 0.13046-0.05627 0.03237-0.03751 0.04855-0.08895 0.04855-0.1543 0-0.06495-0.01618-0.11617-0.04855-0.15369-0.03195-0.03792-0.07544-0.05688-0.13046-0.05688-0.05501 0.000001-0.09871 0.01896-0.13107 0.05688-0.03196 0.03752-0.04794 0.08874-0.04794 0.15369 0 0.06535 0.01598 0.11678 0.04794 0.1543 0.03236 0.03751 0.07606 0.05627 0.13107 0.05627"/>
  <rect id="rect6553" style="fill-rule:evenodd;fill:url(#linearGradient1992)" rx=".31250" ry=".31250" height="11.704" width="9.9774" y="19.741" x="5.0519"/>
  <g id="g6935" style="fill:#939393" transform="matrix(.30043 0 0 .29957 -1.2393 19.268)">
   <path id="path2329" style="fill-rule:evenodd;fill:#939393" d="m50.301 40.747c1.0356-2.9825 0.17678-8.8923-6.5407-13.488h-12.551c-6.7175 4.2426-7.557 10.045-6.0104 13.435l25.102 0.05345z"/>
   <path id="path2327" style="fill-rule:evenodd;fill:#939393" d="m39.775 19.009a8.6621 8.6621 0 1 1 -17.324 0 8.6621 8.6621 0 1 1 17.324 0z" transform="translate(6.4071 1.7424)"/>
  </g>
  <rect id="rect6555" style="stroke:#fff;fill:none" rx="1.7777" ry="1.7777" height="22" width="32" y="17.5" x="3.5"/>
 </g>
 <rect id="rect2373" style="fill-rule:evenodd;stroke:#939393;fill:url(#linearGradient2963)" rx="2.9881" ry="2.86" height="24.96" width="36.944" y="7.5" x="4.5564"/>
 <path id="path2375" d="m22.146 13.875c0.05209 0.53864-0.29805 1.2126-0.9205 1.1205-0.34816 0.0293-0.19241-0.34184-0.22585-0.55458 0.39738 0.30914 0.78492-0.24688 0.66899-0.68479v-1.5974c0.1435 0.04631 0.48157-0.10196 0.47736 0.09206v1.6242zm1.3328-0.99289c0.65846-0.03613 0.98311 0.70943 0.86008 1.2717-0.02276 0.65377-0.80612 1.0604-1.3599 0.73227-0.78359-0.46925-0.52846-2.0661 0.49987-2.0039zm-0.03935 1.6968c0.6022-0.04026 0.63605-1.0867 0.10404-1.2614-0.71617-0.12823-0.79801 1.2428-0.10404 1.2614zm2.9069 0.3607c-0.1482-0.04556-0.4992 0.11167-0.45855-0.12274-0.02464-0.45302 0.06208-0.92447-0.07357-1.3608-0.36605-0.38339-0.71547 0.20124-0.61253 0.5658v0.91772c-0.137-0.04824-0.47547 0.10498-0.46367-0.09206v-2.8478c0.137 0.04824 0.47547-0.10498 0.46367 0.09206v1.1394c0.21918-0.54132 1.12-0.41999 1.1242 0.18862 0.04074 0.50426 0.0117 1.0138 0.02046 1.5198zm2.1011-0.000004c-0.1482-0.04556-0.4992 0.11167-0.45854-0.12274-0.02464-0.45302 0.06208-0.92447-0.07357-1.3608-0.36605-0.38339-0.71546 0.20124-0.61252 0.5658v0.91772c-0.137-0.04824-0.47547 0.10498-0.46367-0.09205v-1.8937c0.137 0.04824 0.47547-0.10498 0.46367 0.09206-0.06772 0.43772 0.43475-0.47139 0.76127-0.13517 0.49865 0.21915 0.36202 0.83352 0.38337 1.2768v0.75209zm1.5005-2.7809c0.60608 0.03583 1.318-0.14479 1.7931 0.33937 0.40684 0.50839 0.4046 1.2817 0.11484 1.8459-0.26305 0.50189-0.85914 0.64014-1.3817 0.59559-0.16308-0.02257-0.41517 0.04387-0.52627-0.03069v-2.7502zm0.47735 2.3523c0.37858 0.02086 0.83789-0.0077 1.0195-0.40469 0.25936-0.50533 0.15248-1.3745-0.50912-1.4863-0.17463 0.02756-0.60192-0.14916-0.51041 0.16884v1.7222zm2.8539-1.629c0.65845-0.03613 0.98312 0.70943 0.86008 1.2717-0.02276 0.65377-0.80613 1.0604-1.36 0.73227-0.78359-0.46925-0.52847-2.0661 0.49987-2.0039zm-0.03936 1.6968c0.6022-0.04026 0.63605-1.0867 0.10405-1.2614-0.71617-0.12823-0.79801 1.2428-0.10405 1.2614zm2.806-0.51778h-1.1669c-0.09555 0.71243 0.86091 0.42589 1.0026 0.42948 0.10912 0.35624-0.19712 0.50295-0.52286 0.49499-0.62808 0.0999-1.0401-0.56352-0.94136-1.1268-0.03241-0.61008 0.59628-1.1917 1.1947-0.91853 0.42744 0.19812 0.44609 0.71295 0.43374 1.1209zm-0.42775-0.34906c0.14124-0.70675-1.0073-0.36517-0.64708 0h0.64708z"/>
 <rect id="rect2377" style="opacity:.39766;fill-rule:evenodd;fill:#8d8d8d" rx="1" ry="1" height="2" width="15" y="17" x="21"/>
 <rect id="rect2379" style="opacity:.39766;fill-rule:evenodd;fill:#8d8d8d" rx="1" ry="1" height="2" width="12" y="20" x="21"/>
 <path id="rect2383" style="opacity:.48538;fill-rule:evenodd" d="m9 25.969v2.031h2v-2.0312h-2zm3 0v2.0312h1v-2.0312h-1zm2 0v2.0312h2v-2.0312h-2zm4 0v2.0312h1v-2.0312h-1zm2 0v2.0312h2v-2.0312h-2zm3 0v2.0312h2v-2.0312h-2zm6 0v2.0312h1v-2.0312h-1zm2 0v2.0312h2v-2.0312h-2zm3 0v2.0312h1v-2.0312h-1zm-27 0.031v4.0625h1v-4.062h-1zm19 0v2.0312h1v-2.031h-1zm10 0v2.0312h1v-2.031h-1zm2 0v4.0625h1v-4.062h-1z"/>
 <path id="path2413" d="m9.4562 29.475c0.73484 0.35508-0.95204 0.59612 0.013422 0.36358-0.43196-0.45417 0.26157-0.5578-0.36043-0.69632 0.14694-0.37381 0.84639 0.18502 0.34701 0.33273zm0.58532 0.39959c0.91407-0.08883-0.44189 0.37845 0.03413-0.14936 0.60639-0.28731-0.19593-0.78981 0.01376-0.6557 0.76882-0.10867 0.29581 0.63617-0.04789 0.80506zm1.1389-0.72178c-0.66126 0.55121 0.16513 0.78536 0 0zm-0.03582-0.11075c0.69916 0.4335-0.20229 1.3129-0.37108 0.51868 0.09087-0.19516 0.26262-0.33476 0.37108-0.51868zm0.54342 0c0.26878-0.15138 0.68676 0.22058 0.14374 0.10698 0.44013 0.28267 0.55241 1.0411-0.08212 0.7588 1.0086-0.35585-0.35426-0.28034-0.06162-0.86578h-0.000005zm1.6127 0.08369c-0.71353 0.24706 0.42274 1.1543 0.20631 0.26838-0.0025-0.10782-0.06746-0.27898-0.20631-0.26838zm0-0.10068c1.089 0.23903-0.58717 1.6584-0.33842 0.32043 0.0262-0.1598 0.15736-0.34307 0.33842-0.32043zm0.59072 0.017c0.26878-0.15138 0.68676 0.22058 0.14374 0.10698 0.44014 0.28266 0.55241 1.0411-0.08212 0.7588 1.0086-0.35586-0.35428-0.28034-0.06162-0.86578h-0.000001zm0.88136-0.000003c0.26878-0.15138 0.68676 0.22058 0.14374 0.10698 0.44013 0.28266 0.5524 1.0411-0.08212 0.7588 1.0086-0.35586-0.35429-0.28034-0.06162-0.86578h-0.000003zm0.84554 0c0.88877-0.53626 0.40428 1.2137 0.23359 0.70364 0.20073-0.35233 0.35196-0.7074-0.23359-0.70364zm1.3579 0.000001c0.26878-0.15138 0.68676 0.22058 0.14374 0.10698 0.44013 0.28267 0.5524 1.0411-0.08213 0.7588 1.0086-0.35585-0.35426-0.28034-0.06161-0.86578h0.000001zm0.90366 0.83254c0.63491 0.0063-0.29004-1.1854 0.40589-0.70308-0.20628 0.32816 0.33501 1.2229-0.40589 0.70308zm1.1497-0.74885c-0.71351 0.24707 0.42273 1.1543 0.20631 0.26838-0.0025-0.10782-0.06745-0.27898-0.20631-0.26838zm0-0.10068c1.089 0.23903-0.58717 1.6584-0.33842 0.32042 0.02619-0.1598 0.15736-0.34307 0.33842-0.32042zm0.89825 0.4361c-0.82645 0.5716 0.80018 0.48491 0 0zm0.27104-0.39834c-0.72521 0.2133-0.13175 0.31331-0.01571 0.55709-0.3843 1.3372-1.1407-1.0014 0.01571-0.55713m0.74347-0.02077c0.26878-0.15138 0.68677 0.22057 0.14375 0.10698 0.44014 0.28267 0.5524 1.0411-0.08213 0.75884 1.0411-0.37322-0.34133-0.25353-0.06163-0.86578m1.2551 0.11075c-0.66126 0.55121 0.16513 0.78536 0 0zm-0.03582-0.11075c0.69914 0.43352-0.2023 1.3128-0.37109 0.51868 0.09088-0.19516 0.26263-0.33475 0.37109-0.51868zm0.83404 0.08369c-0.71352 0.24706 0.42273 1.1543 0.20631 0.26838-0.0025-0.10782-0.06745-0.27898-0.20631-0.26838zm0-0.10068c1.089 0.23903-0.58717 1.6584-0.33842 0.32042 0.02619-0.1598 0.15736-0.34307 0.33842-0.32042zm0.89825 0.4361c-0.82644 0.57158 0.80015 0.48493 0 0zm0.27104-0.39834c-0.72521 0.21329-0.13175 0.31331-0.01571 0.55709-0.3843 1.3372-1.1407-1.0014 0.01571-0.55713m0.74347-0.02077c0.26878-0.15138 0.68677 0.22057 0.14375 0.10698 0.44013 0.28266 0.55241 1.0411-0.08211 0.75884 1.0411-0.37322-0.34133-0.25352-0.06163-0.86578m1.2551 0.11075c-0.66124 0.55121 0.16512 0.78536 0 0zm-0.035-0.111c0.69913 0.43353-0.20231 1.3128-0.3711 0.51868 0.09088-0.19516 0.26263-0.33476 0.3711-0.51868zm0.85093 0.4191c-0.82646 0.57159 0.80018 0.48492 0 0zm0.27103-0.39834c-0.7252 0.2133-0.13175 0.3133-0.01571 0.55709-0.38428 1.3372-1.1407-1.0014 0.01571-0.55712m0.3028-0.02077c0.26878-0.15138 0.68676 0.22058 0.14374 0.10698 0.44014 0.28266 0.55241 1.0411-0.08212 0.75884 1.0411-0.37322-0.34132-0.25352-0.06163-0.86578m1.2862 0c0.88877-0.53626 0.40428 1.2137 0.23359 0.70364 0.20073-0.35233 0.35196-0.7074-0.23359-0.70364zm1.2078 0.08369c-0.71354 0.24705 0.42274 1.1544 0.20631 0.26838-0.0025-0.10782-0.06746-0.27897-0.20631-0.26838zm0-0.10068c1.089 0.23905-0.58719 1.6584-0.33843 0.32042 0.0262-0.1598 0.15736-0.34307 0.33843-0.32042zm0.89825 0.4361c-0.82645 0.57158 0.80016 0.48493 0 0zm0.27103-0.39834c-0.7252 0.21329-0.13174 0.31331-0.01571 0.55709-0.3843 1.3372-1.1407-1.0014 0.01571-0.55713m0.3028-0.02077c0.26878-0.15138 0.68676 0.22058 0.14374 0.10698 0.44015 0.28267 0.5524 1.0411-0.08213 0.75884 1.0411-0.37321-0.34131-0.25352-0.06161-0.86578m1.2862 0c0.88878-0.53626 0.40429 1.2137 0.23359 0.70364 0.20073-0.35233 0.35196-0.7074-0.23359-0.70364zm1.2247 0.4191c-0.82645 0.57157 0.80015 0.48494 0 0zm0.27104-0.39834c-0.72522 0.21329-0.13175 0.31331-0.01571 0.55709-0.38435 1.3372-1.1406-1.0015 0.01581-0.55713m0.26697-0.02077c0.88877-0.53626 0.40428 1.2137 0.2336 0.70364 0.20073-0.35233 0.35194-0.7074-0.2336-0.70364zm0.91989 0.92002c0.72449-0.21247 0.13324-0.31435 0.01635-0.55733 0.38476-1.3364 1.1392 1.003-0.01635 0.5574m0.2717-0.39834c0.82546-0.57235-0.80043-0.48351 0 0zm0.60965 0.39834c0.7245-0.21247 0.13326-0.31435 0.01634-0.55732 0.38473-1.3364 1.1393 1.003-0.01634 0.55732zm0.2717-0.39834c0.82547-0.57234-0.80041-0.48353 0 0z"/>
 <rect id="rect2415" style="fill-rule:evenodd;fill:url(#linearGradient2944)" rx=".34453" ry=".32207" height="12.063" width="11" y="11" x="7"/>
 <path id="path2419" style="fill-rule:evenodd;fill:#939393" d="m12.25 14.062c-1.7151 0.02343-3.2471 1.8324-2.6136 3.5158 0.03623 0.46513 0.77106 1.0438 0.81873 1.2342-0.30598-0.0084-0.53166 0.2764-0.78682 0.41562-0.94207 0.67304-1.7586 1.7428-1.6656 2.9562 0.0659 0.24542 0.033608 0.76397 0.34305 0.78491 2.8431 0.01026 5.6862 0.02053 8.5293 0.03079 0.37553-1.0786-0.14217-2.2583-0.8722-3.0598-0.40656-0.44082-0.88041-0.84272-1.4032-1.1277-0.43481 0.06252 0.16052-0.22647 0.2219-0.38632 1.2935-1.3252 0.49283-3.6859-1.2256-4.1782-0.429-0.156-0.891-0.218-1.346-0.186z"/>
 <rect id="rect2423" style="stroke:#fff;fill:none" rx="1.946" ry="1.8585" height="23" width="35.029" y="8.5" x="5.5"/>
 <g id="g3786" transform="translate(22.973 22.042)">
  <path id="path6912" style="stroke-linejoin:round;stroke-width:1.1;fill-rule:evenodd;stroke-dashoffset:.3612;stroke:url(#linearGradient3997);stroke-linecap:round;enable-background:new;fill:#babdb6" d="m5.8244 1.5003c-0.5111-0.1359-0.2403 0.4755-0.0769 0.6867 0.4691 0.8496 0.9619 1.6875 1.4159 2.5447 0.1256 0.6146-0.4158 1.1077-0.8604 1.4398-0.6534 0.4323-1.505 0.5977-2.303 0.3559-0.8141-0.856-1.2952-1.7904-1.8859-2.8307-0.4784-0.6967-0.541 0.4202-0.5696 0.7374-0.1638 1.4211 0.109 3.0405 1.2326 4.0257 0.8637 0.7669 2.0914 1.0617 3.2192 0.857 1.013 0.3182 1.9818 0.8272 2.7351 1.5852 0.6918-0.735 1.3836-1.4707 2.0756-2.2061-0.672-0.6611-1.0297-1.448-1.376-2.3278 0.339-1.2407-0.1225-2.6062-1.06-3.4661-0.6602-0.6325-1.6664-1.147-2.5466-1.4017z"/>
  <path id="path7379" style="enable-background:new;fill:url(#linearGradient3999);fill-rule:evenodd" d="m5.808 1.7813c0.6724 1.5773 2.4588 3.1002 1.0206 4.2187-0.6624 0.6304-1.5745 1.1578-2.4986 1.0709-0.354-0.0289-0.7487-0.2471-0.8871-0.5681-0.4602-0.8229-1.0923-1.7864-1.5525-2.6092-0.0561 1.5782-0.2479 3.1645 0.938 4.2928 1.1351 1.0866 3.1393 1.35 4.5229 0.203 0.9546-0.6375 1.7013-1.7162 1.6477-2.9014-0.0051-0.9478-0.5322-1.8138-1.2442-2.4084-0.5472-0.4728-1.2637-1.0611-1.9468-1.2983z"/>
  <path id="path4756" style="opacity:.7;stroke-linejoin:round;stroke-dashoffset:.3612;stroke:url(#linearGradient4001);stroke-linecap:round;enable-background:new;fill:none" d="m8.585 6.3454c0.0134-0.444 0.1628-0.7304 0.0787-1.1825-0.0757-0.8738-0.6969-1.6718-1.3986-2.1629-0.2642-0.1978-0.8775-0.7384-1.1651-0.9 0.668 0.5807 1.2195 1.7022 1.5704 2.3533 0.3015 0.746-0.234 1.511-0.7793 1.9829-0.7793 0.6378-1.8674 1.0689-2.8911 0.907-0.988-0.387-1.4812-2.1918-2-3.0732-0.0519 1.0625 0.2036 2.8649 1.0151 3.6418 0.756 0.7629 1.9076 1.0351 2.9465 0.8353"/>
  <path id="path6899" style="stroke-linejoin:round;stroke-width:.99963;stroke-dashoffset:.7;stroke:url(#linearGradient4005);stroke-linecap:round;enable-background:new;fill:url(#linearGradient4003)" d="m8.5108 10.7 10.637 11.331c0.69781 0.69616 1.8925 0.60502 2.6903-0.19091 0.79782-0.79593 0.88918-1.9878 0.19136-2.6839l-11.358-10.612-2.1612 2.156zm11.266 9.084c0.39662-0.39568 1.0444-0.39568 1.441-0.000003 0.39662 0.39568 0.39662 1.0413 0 1.437-0.39662 0.39567-1.1214 0.47467-1.518 0.079-0.39662-0.39568-0.31962-1.1203 0.077-1.516z"/>
  <path id="rect6533" style="opacity:.23106;fill:url(#linearGradient4007)" d="m10.48 10.532c0.27731-0.27639 0.78492-0.21547 1.1381 0.1366l7.3474 6.6572c0.35322 0.35207 0.08028 1.1914-0.19703 1.4678s-1.1192 0.549-1.4724 0.19693l-6.6791-7.3241c-0.35322-0.35207-0.41433-0.85802-0.13702-1.1344z"/>
 </g>
 <path id="path3828" style="opacity:.25;fill:url(#radialGradient2930)" d="m45.973 44.542a4 1.4995 0 0 1 -8 0 4 1.4995 0 1 1 8 0z"/>
</svg>
