<?xml version="1.0" encoding="UTF-8" standalone="no"?>
<!-- Created with Inkscape (http://www.inkscape.org/) -->
<svg id="svg2" xmlns="http://www.w3.org/2000/svg" height="24" width="24" version="1.0" xmlns:xlink="http://www.w3.org/1999/xlink">
 <defs id="defs4">
  <linearGradient id="linearGradient3587-6-5">
   <stop id="stop3589-9-2" offset="0"/>
   <stop id="stop3591-7-4" style="stop-color:#363636" offset="1"/>
  </linearGradient>
  <linearGradient id="linearGradient2485" y2="11.969" xlink:href="#linearGradient3587-6-5" gradientUnits="userSpaceOnUse" x2="15.669" gradientTransform="matrix(.93023 0 0 1.236 -10.576 6.1536)" y1="-2.622" x1="15.669"/>
  <linearGradient id="linearGradient2488" y2="4.9946" xlink:href="#linearGradient3587-6-5" gradientUnits="userSpaceOnUse" x2="35.008" gradientTransform="translate(-24.786 -2.0357)" y1="23.179" x1="35.008"/>
 </defs>
 <path id="path3229" style="opacity:.6;fill-rule:evenodd;fill:#fff" d="m12 5c-4.416 0-8 3.584-8 8s3.584 8 8 8 8-3.584 8-8-3.584-8-8-8zm0 5c1.656 0 3 1.344 3 3s-1.344 3-3 3-3-1.344-3-3 1.344-3 3-3z"/>
 <path id="path3170" style="opacity:0.42;fill-rule:evenodd;fill:url(#linearGradient2488)" d="m12 4c-4.416 0-8 3.584-8 8 0 0.897 0.1648 1.757 0.4375 2.562l4.75-1.531c-0.12-0.324-0.1875-0.665-0.1875-1.031 0-1.656 1.344-3 3-3v-5zm-7.4688 10.844c0.1106 0.29 0.2327 0.57 0.375 0.844-0.145-0.275-0.2655-0.56-0.375-0.844zm1.0938 1.968c0.148 0.196 0.3037 0.382 0.4688 0.563-0.1615-0.178-0.3237-0.371-0.4688-0.563zm5.406 3.126c0.319 0.038 0.64 0.062 0.969 0.062-0.33 0-0.649-0.024-0.969-0.062z"/>
 <path id="path3288" style="opacity:.7;fill:url(#linearGradient2485)" d="m12 4v5c1.656 0 3 1.344 3 3s-1.344 3-3 3c-0.988 0-1.859-0.482-2.4062-1.219-0.1758-0.238-0.3109-0.485-0.4063-0.75l-4.7813 1.531c0.259 0.767 0.6503 1.503 1.1563 2.188 1.4576 1.971 3.7998 3.25 6.4375 3.25 4.416 0 8-3.584 8-8s-3.584-8-8-8z"/>
</svg>
