<?xml version="1.0" encoding="UTF-8" standalone="no"?>
<!-- Created with Inkscape (http://www.inkscape.org/) -->
<svg id="svg2" xmlns="http://www.w3.org/2000/svg" height="24" width="24" version="1.0" xmlns:xlink="http://www.w3.org/1999/xlink">
 <defs id="defs4">
  <linearGradient id="linearGradient3587-6-5">
   <stop id="stop3589-9-2" offset="0"/>
   <stop id="stop3591-7-4" style="stop-color:#363636" offset="1"/>
  </linearGradient>
  <linearGradient id="linearGradient2468" y2="11.969" xlink:href="#linearGradient3587-6-5" gradientUnits="userSpaceOnUse" x2="15.669" gradientTransform="matrix(.93023 0 0 1.236 -10.576 6.1536)" y1="-2.622" x1="15.669"/>
  <linearGradient id="linearGradient2471" y2="4.9946" xlink:href="#linearGradient3587-6-5" gradientUnits="userSpaceOnUse" x2="35.008" gradientTransform="translate(-24.786 -2.0357)" y1="23.179" x1="35.008"/>
 </defs>
 <path id="path3229" style="opacity:.6;fill-rule:evenodd;fill:#fff" d="m12 5c-4.416 0-8 3.584-8 8s3.584 8 8 8 8-3.584 8-8-3.584-8-8-8zm0 5c1.656 0 3 1.344 3 3s-1.344 3-3 3-3-1.344-3-3 1.344-3 3-3z"/>
 <path id="path3170" style="opacity:0.42;fill-rule:evenodd;fill:url(#linearGradient2471)" d="m12 4c-4.416 0-8 3.584-8 8 0 3.564 2.3405 6.56 5.5625 7.594l1.5935-4.75c-1.2352-0.371-2.156-1.488-2.156-2.844 0-1.656 1.344-3 3-3v-5zm-2.0938 15.719c0.2568 0.069 0.5158 0.143 0.7818 0.187-0.268-0.043-0.524-0.117-0.7818-0.187zm0.9058 0.187c0.388 0.058 0.784 0.094 1.188 0.094-0.405 0-0.8-0.037-1.188-0.094z"/>
 <path id="path3288" style="opacity:.7;fill:url(#linearGradient2468)" d="m12 4v5c1.656 0 3 1.344 3 3s-1.344 3-3 3c-0.296 0-0.574-0.076-0.844-0.156l-1.5935 4.781c0.7705 0.247 1.5855 0.375 2.4375 0.375 4.416 0 8-3.584 8-8s-3.584-8-8-8z"/>
</svg>
