<?xml version="1.0" encoding="UTF-8" standalone="no"?>
<!-- Created with Inkscape (http://www.inkscape.org/) -->
<svg id="svg2" xmlns="http://www.w3.org/2000/svg" height="22" width="22" version="1.0" xmlns:xlink="http://www.w3.org/1999/xlink">
 <defs id="defs4">
  <linearGradient id="linearGradient3587-6-5">
   <stop id="stop3589-9-2" offset="0"/>
   <stop id="stop3591-7-4" style="stop-color:#363636" offset="1"/>
  </linearGradient>
  <linearGradient id="linearGradient2401" y2="11.969" xlink:href="#linearGradient3587-6-5" gradientUnits="userSpaceOnUse" x2="15.669" gradientTransform="matrix(.93023 0 0 1.236 -11.576 5.1536)" y1="-2.622" x1="15.669"/>
  <linearGradient id="linearGradient2404" y2="4.9946" xlink:href="#linearGradient3587-6-5" gradientUnits="userSpaceOnUse" x2="35.008" gradientTransform="translate(-25.786 -3.0357)" y1="23.179" x1="35.008"/>
 </defs>
 <path id="path3229" style="opacity:.6;fill-rule:evenodd;fill:#fff" d="m11 4c-4.416 0-8 3.584-8 8s3.584 8 8 8 8-3.584 8-8-3.584-8-8-8zm0 5c1.656 0 3 1.344 3 3s-1.344 3-3 3-3-1.344-3-3 1.344-3 3-3z"/>
 <path id="path3170" style="opacity:0.42;fill-rule:evenodd;fill:url(#linearGradient2404)" d="m11 3c-0.897 0-1.7572 0.1648-2.5625 0.4375l1.5313 4.75c0.3242-0.12 0.6652-0.1875 1.0312-0.1875v-5zm-2.8438 0.5312c-0.2906 0.1106-0.5704 0.2327-0.8437 0.375 0.2741-0.145 0.5593-0.2655 0.8437-0.375zm-1.9687 1.0938c-0.1957 0.148-0.3814 0.3037-0.5625 0.4688 0.1779-0.1615 0.3706-0.3237 0.5625-0.4688zm-3.125 5.406c-0.0388 0.319-0.0625 0.64-0.0625 0.969 0-0.33 0.0237-0.649 0.0625-0.969z"/>
 <path id="path3288" style="opacity:.7;fill:url(#linearGradient2401)" d="m11 3v5c1.656 0 3 1.344 3 3s-1.344 3-3 3-3-1.344-3-3c0-0.988 0.4817-1.8595 1.2188-2.4062 0.2379-0.1758 0.4855-0.3109 0.75-0.4063l-1.5313-4.7813c-0.7664 0.259-1.5023 0.6503-2.1875 1.1563-1.971 1.4576-3.25 3.7998-3.25 6.4375 0 4.416 3.584 8 8 8s8-3.584 8-8-3.584-8-8-8z"/>
</svg>
