<?xml version="1.0" encoding="UTF-8" standalone="no"?>
<!-- Created with Inkscape (http://www.inkscape.org/) -->

<svg
   xmlns:dc="http://purl.org/dc/elements/1.1/"
   xmlns:cc="http://creativecommons.org/ns#"
   xmlns:rdf="http://www.w3.org/1999/02/22-rdf-syntax-ns#"
   xmlns:svg="http://www.w3.org/2000/svg"
   xmlns="http://www.w3.org/2000/svg"
   xmlns:xlink="http://www.w3.org/1999/xlink"
   xmlns:sodipodi="http://sodipodi.sourceforge.net/DTD/sodipodi-0.dtd"
   xmlns:inkscape="http://www.inkscape.org/namespaces/inkscape"
   width="48"
   height="48"
   id="svg4230"
   version="1.1"
   inkscape:version="0.48+devel r12481"
   sodipodi:docname="folder-download.svg">
  <defs
     id="defs4232">
    <linearGradient
       inkscape:collect="always"
       xlink:href="#linearGradient5459-3"
       id="linearGradient4181-1"
       x1="2.9250314"
       y1="1029.4803"
       x2="44.956501"
       y2="1029.4803"
       gradientUnits="userSpaceOnUse"
       gradientTransform="translate(-1052.3622,-1004.3622)" />
    <linearGradient
       id="linearGradient5459-3"
       inkscape:collect="always">
      <stop
         id="stop5461-5"
         offset="0"
         style="stop-color:#8796a4;stop-opacity:1" />
      <stop
         id="stop5463-3"
         offset="1"
         style="stop-color:#b0b7c5;stop-opacity:1" />
    </linearGradient>
    <linearGradient
       gradientTransform="matrix(0,-1,1,0,-1004.3621,1052.3622)"
       inkscape:collect="always"
       xlink:href="#linearGradient7161-3"
       id="linearGradient7167-0"
       x1="2.9281611"
       y1="1031.2874"
       x2="41.929218"
       y2="1031.2874"
       gradientUnits="userSpaceOnUse" />
    <linearGradient
       inkscape:collect="always"
       id="linearGradient7161-3">
      <stop
         style="stop-color:#dedede;stop-opacity:1"
         offset="0"
         id="stop7163-7" />
      <stop
         style="stop-color:#f0f0f0;stop-opacity:1"
         offset="1"
         id="stop7165-2" />
    </linearGradient>
  </defs>
  <sodipodi:namedview
     id="base"
     pagecolor="#ffffff"
     bordercolor="#666666"
     borderopacity="1.0"
     inkscape:pageopacity="0.0"
     inkscape:pageshadow="2"
     inkscape:zoom="5.581929"
     inkscape:cx="2.0970875"
     inkscape:cy="11.162542"
     inkscape:document-units="px"
     inkscape:current-layer="layer1"
     showgrid="false"
     inkscape:showpageshadow="false"
     borderlayer="true"
     inkscape:window-width="1366"
     inkscape:window-height="715"
     inkscape:window-x="0"
     inkscape:window-y="30"
     inkscape:window-maximized="1"
     showguides="false"
     inkscape:guide-bbox="true">
    <sodipodi:guide
       orientation="0,1"
       position="44.847656,45.304688"
       id="guide7743" />
    <sodipodi:guide
       orientation="0,1"
       position="45.050781,45.597656"
       id="guide7745" />
    <sodipodi:guide
       orientation="0,1"
       position="44.953125,46.199219"
       id="guide7747" />
    <sodipodi:guide
       orientation="0,1"
       position="44.910156,45.894531"
       id="guide7749" />
    <sodipodi:guide
       orientation="0,1"
       position="44.426193,45.011766"
       id="guide7751" />
    <sodipodi:guide
       orientation="0,1"
       position="59.363824,1.8009126"
       id="guide7760" />
    <sodipodi:guide
       orientation="0,1"
       position="59.351563,2.1015625"
       id="guide7762" />
    <sodipodi:guide
       orientation="0,1"
       position="59.582031,2.4023438"
       id="guide7764" />
    <sodipodi:guide
       orientation="0,1"
       position="59.539063,2.703125"
       id="guide7766" />
    <sodipodi:guide
       orientation="0,1"
       position="61.269698,2.9996795"
       id="guide7768" />
    <sodipodi:guide
       orientation="0,1"
       position="64.265625,5.4921875"
       id="guide7782" />
  </sodipodi:namedview>
  <metadata
     id="metadata4235">
    <rdf:RDF>
      <cc:Work
         rdf:about="">
        <dc:format>image/svg+xml</dc:format>
        <dc:type
           rdf:resource="http://purl.org/dc/dcmitype/StillImage" />
        <dc:title />
      </cc:Work>
    </rdf:RDF>
  </metadata>
  <g
     inkscape:label="Capa 1"
     inkscape:groupmode="layer"
     id="layer1"
     transform="translate(0,-1004.3622)">
    <g
       id="layer1-9"
       inkscape:label="Capa 1">
      <g
         id="g4116"
         transform="translate(0,4.7900391e-5)">
        <rect
           style="fill:#000000;fill-opacity:0.01960784;stroke:none"
           id="rect5263-1"
           width="44.399963"
           height="44.399963"
           x="1.8000183"
           y="1006.1622"
           ry="6.2786646" />
        <rect
           ry="6.1938181"
           y="1006.4623"
           x="2.1000061"
           height="43.799973"
           width="43.799973"
           id="rect5261-1"
           style="fill:#000000;fill-opacity:0.03921569;stroke:none" />
        <rect
           style="fill:#000000;fill-opacity:0.07843137;stroke:none"
           id="rect5259-8"
           width="43.199982"
           height="43.199982"
           x="2.3999939"
           y="1006.7626"
           ry="6.1089716" />
        <rect
           ry="6.0241251"
           y="1007.0624"
           x="2.7000122"
           height="42.599991"
           width="42.599991"
           id="rect5257-5"
           style="fill:#000000;fill-opacity:0.15686275;stroke:none" />
        <rect
           style="fill:url(#linearGradient4181-1);fill-opacity:1;stroke:none"
           id="rect4173-7"
           width="42"
           height="42"
           x="-1049.3622"
           y="3.0000219"
           ry="5.9392796"
           transform="matrix(0,-1,1,0,0,0)" />
        <path
           inkscape:connector-curvature="0"
           style="fill:url(#linearGradient7167-0);fill-opacity:1;stroke:none"
           d="m 2.9999782,1043.4228 c 0,3.2903 2.6491,5.9394 5.9395,5.9394 l 30.1209998,0 c 3.2904,0 5.9395,-2.6491 5.9395,-5.9394 l 0,-13.0606 0,-10 0,-2 c 0,-0.1385 -0.014,-0.2738 -0.041,-0.4043 -0.1859,-0.913 -0.9895,-1.5957 -1.959,-1.5957 l -18.7129,0 -2.4863,-4.9023 c -0.1007,-0.1985 -0.2352,-0.3657 -0.3848,-0.5137 -0.089,-0.088 -0.1836,-0.1658 -0.2851,-0.2344 -0.01,0 -0.014,-0.011 -0.021,-0.016 -0.092,-0.06 -0.1887,-0.112 -0.2891,-0.1562 -0.025,-0.011 -0.049,-0.021 -0.074,-0.031 -0.089,-0.035 -0.1787,-0.062 -0.2715,-0.084 -0.039,-0.01 -0.077,-0.018 -0.1172,-0.025 -0.083,-0.014 -0.1656,-0.022 -0.25,-0.025 -0.036,0 -0.071,-0.012 -0.1074,-0.012 l -14.9999998,0 c -1.108,0 -2,0.892 -2,2 l 0,2 0,10 0,19.0606 z"
           id="rect5237-7" />
        <path
           inkscape:connector-curvature="0"
           style="fill:#000000;fill-opacity:0.11764706;stroke:none"
           d="m 3.0000004,1040.9247 0,2.5 c 0,3.2904 2.64714,5.9375 5.9375,5.9375 l 30.1249996,0 c 3.29036,0 5.9375,-2.6471 5.9375,-5.9375 l 0,-2.5 c 0,3.2904 -2.64714,5.9375 -5.9375,5.9375 l -30.1249996,0 c -3.29036,0 -5.9375,-2.6471 -5.9375,-5.9375 z"
           id="rect5265-0" />
        <path
           inkscape:connector-curvature="0"
           style="fill:#000000;fill-opacity:0.09803922;stroke:none"
           d="m 3.0000004,1042.9247 0,0.5 c 0,3.2904 2.64714,5.9375 5.9375,5.9375 l 30.1249996,0 c 3.29036,0 5.9375,-2.6471 5.9375,-5.9375 l 0,-0.5 c 0,3.2904 -2.64714,5.9375 -5.9375,5.9375 l -30.1249996,0 c -3.29036,0 -5.9375,-2.6471 -5.9375,-5.9375 z"
           id="path5252-7" />
        <path
           style="fill:#000000"
           d=""
           id="path906-9"
           inkscape:connector-curvature="0" />
      </g>
    </g>
    <path
       style="fill:#38a2ec;fill-opacity:1;fill-rule:nonzero;stroke:none"
       d="m 23.578125,1020.3622 0,13.1875 -3.21875,-3.2188 -0.59375,0.5938 4.25,4.2187 4.21875,-4.2187 -0.59375,-0.5938 -3.21875,3.2188 0,-13.1875 -0.84375,0 z m -7.90625,4.1875 0,15.8125 16.65625,0 0,-15.8125 -6.25,0 0,0.8125 5.4375,0 0,14.1875 -15,0 0,-14.1875 5.40625,0 0,-0.8125 -6.25,0 z"
       id="path62"
       inkscape:connector-curvature="0" />
  </g>
</svg>
