<?xml version="1.0" encoding="UTF-8" standalone="no"?>
<!-- Created with Inkscape (http://www.inkscape.org/) -->
<svg id="svg4297" xmlns="http://www.w3.org/2000/svg" height="48" width="48" version="1.1" xmlns:xlink="http://www.w3.org/1999/xlink">
 <defs id="defs4299">
  <radialGradient id="radialGradient3314" xlink:href="#linearGradient3681" gradientUnits="userSpaceOnUse" cy="41.5" cx="5" gradientTransform="matrix(.59382 0 0 1.5367 41.141 -103.94)" r="5"/>
  <linearGradient id="linearGradient3312" y2="35" gradientUnits="userSpaceOnUse" x2="17.554" gradientTransform="matrix(1.757 0 0 1.397 -17.394 -16.412)" y1="46" x1="17.554">
   <stop id="stop3705" style="stop-opacity:0" offset="0"/>
   <stop id="stop3711" offset=".5"/>
   <stop id="stop3707" style="stop-opacity:0" offset="1"/>
  </linearGradient>
  <linearGradient id="linearGradient3681">
   <stop id="stop3683" offset="0"/>
   <stop id="stop3685" style="stop-opacity:0" offset="1"/>
  </linearGradient>
  <radialGradient id="radialGradient3310" xlink:href="#linearGradient3681" gradientUnits="userSpaceOnUse" cy="41.5" cx="5" gradientTransform="matrix(.59382 0 0 1.5367 -6.6595 -103.94)" r="5"/>
  <linearGradient id="linearGradient3293" y2="45.042" gradientUnits="userSpaceOnUse" x2="15.464" y1="7.9757" x1="15.464">
   <stop id="stop3297" style="stop-color:#c9af8b" offset="0"/>
   <stop id="stop3299" style="stop-color:#ad8757" offset=".23942"/>
   <stop id="stop3301" style="stop-color:#c2a57f" offset=".27582"/>
   <stop id="stop3303" style="stop-color:#9d7d53" offset="1"/>
  </linearGradient>
  <linearGradient id="linearGradient3197" y2="37.277" gradientUnits="userSpaceOnUse" x2="24.997" gradientTransform="matrix(1.2822 0 0 1.5573 -6.0702 -15.291)" y1="15.378" x1="24.823">
   <stop id="stop3201" style="stop-color:#dac197" offset="0"/>
   <stop id="stop3203" style="stop-color:#c1a581" offset=".23942"/>
   <stop id="stop3205" style="stop-color:#dbc298" offset=".27582"/>
   <stop id="stop3207" style="stop-color:#a68b60" offset="1"/>
  </linearGradient>
  <linearGradient id="linearGradient2659" y2="45.934" gradientUnits="userSpaceOnUse" x2="43.007" gradientTransform="matrix(1.2822 0 0 1.1747 -6.0702 -5.3032)" y1="30.555" x1="23.452">
   <stop id="stop4561" style="stop-color:#fff;stop-opacity:0" offset="0"/>
   <stop id="stop4563" style="stop-color:#fff;stop-opacity:0" offset="1"/>
  </linearGradient>
  <linearGradient id="linearGradient3834" y2="8" gradientUnits="userSpaceOnUse" x2="26" y1="22" x1="26">
   <stop id="stop3829" style="stop-color:#fff" offset="0"/>
   <stop id="stop4295" style="stop-color:#fff" offset=".30213"/>
   <stop id="stop4293" style="stop-color:#fff;stop-opacity:.69020" offset=".34361"/>
   <stop id="stop3832" style="stop-color:#fff;stop-opacity:0" offset="1"/>
  </linearGradient>
  <linearGradient id="linearGradient3281" y2="17.5" spreadMethod="reflect" gradientUnits="userSpaceOnUse" x2="3.0052" y1="17.5" x1="44.995">
   <stop id="stop3277" style="stop-color:#fff;stop-opacity:0" offset="0"/>
   <stop id="stop3283" style="stop-color:#fff" offset=".245"/>
   <stop id="stop3285" style="stop-color:#fff" offset=".77350"/>
   <stop id="stop3279" style="stop-color:#fff;stop-opacity:0" offset="1"/>
  </linearGradient>
 </defs>
 <g id="layer1">
  <g id="g3305" style="opacity:.4" transform="matrix(.99266 0 0 .97615 .27519 1.293)">
   <rect id="rect2484" style="fill:url(#radialGradient3310)" transform="scale(-1)" height="15.367" width="2.9602" y="-47.848" x="-3.6904"/>
   <rect id="rect2486" style="fill:url(#linearGradient3312)" height="15.367" width="40.412" y="32.482" x="3.6904"/>
   <rect id="rect3444" style="fill:url(#radialGradient3314)" transform="scale(1,-1)" height="15.367" width="2.9602" y="-47.848" x="44.11"/>
  </g>
  <path id="path2488" style="stroke:url(#linearGradient3293);stroke-linecap:round;stroke-width:.99420;display:block;fill:url(#linearGradient3197)" d="m9.0107 8.5h29.498c1.722 0 2.4969-0.28655 2.9916 1l3.0017 8v25.674c0 1.5533 0.10293 1.316-1.6191 1.316h-37.765c-1.722 0-1.6191 0.23733-1.6191-1.316l-0.0016-25.674 3.0017-8c0.48083-1.2606 0.78873-1 2.5107-1z"/>
  <path id="path2490" style="opacity:.50549;stroke:url(#linearGradient2659);stroke-width:.74212;display:block;fill:none" d="m9.9482 9.5129h27.653c1.6143 0 2.6134 0.55654 3.2895 2.086l2.3289 6.4197v23.145c0 1.4607-0.81876 2.1961-2.4331 2.1961h-33.733c-1.6143 0-2.2728-0.80883-2.2728-2.2695v-23.071l2.2538-6.5574c0.4511-1.186 1.2999-1.9491 2.9142-1.9491z"/>
  <path id="rect3326" style="opacity:.4;fill:url(#linearGradient3834)" d="m22 8h4v14h-1.1812-1.2094-0.97358-0.636v-14z"/>
  <path id="text3329" style="opacity:.4" d="m8.8578 41h1.596v-5.196c0.35039-0.08546 1.1204 0.2487 0.96-0.34754-0.10217-0.33549 0.22656-1.1019-0.20852-1.1045-0.48565 0.0498-0.93276 0.06107-0.75148-0.55606v-1.6639h-1.596v2.22c-0.4272-0.005-0.98183-0.13746-0.78 0.48656 0.085799 0.35186-0.24902 1.1243 0.34754 0.96544 0.62658-0.2044 0.39648 0.44788 0.43246 0.83409v4.3619zm10.101-6.648h-1.464c0.0024 0.55539 0.1076 1.2278-0.43725 0.41606-1.6368-1.2961-4.3743-0.3001-4.9245 1.69-0.6616 1.8112 0.30076 4.1756 2.2854 4.595 1.0942 0.29227 2.3652 0.0092 3.0764-0.91708 0.04748 0.37953-0.20896 1.063 0.41705 0.864 0.30869-0.1098 1.0756 0.23862 1.047-0.20852v-6.4395zm-3.468 1.308c1.5808-0.09128 2.457 1.8896 1.6725 3.144-0.78013 1.464-3.3828 1.034-3.5797-0.64976-0.2612-1.2054 0.59589-2.551 1.9072-2.4942zm4.658 5.34h1.596c0.02695-1.4067-0.05762-2.8207 0.04952-4.2222-0.03929-1.1503 1.6956-0.62286 1.3785-1.6713 0.04606-0.58273 0.10766-1.3014-0.76547-0.81741-0.8015 0.592-0.68196 0.73424-0.93355 0.06298h-1.325v6.648zm4.0597 0h1.596v-1.536h-1.596v1.536zm8.2956-6.648c-0.003 0.51394 0.11702 1.1897-0.41194 0.40088-1.6282-1.2536-4.3016-0.30581-4.8457 1.666-0.65918 1.8487 0.33066 4.3082 2.389 4.6697 1.0428 0.2378 2.2169-0.0832 2.8686-0.96457 0.16985 1.4288-1.2383 2.5551-2.5913 2.036-0.6341-0.35771-1.1316-0.7867-1.9098-0.62004-0.62719-0.06916-1.1889-0.02657-0.4626 0.68953 1.3918 1.9574 5.0105 1.9643 6.1182-0.29072 0.59117-1.4935 0.29826-3.1341 0.36956-4.7011v-2.8857h-1.524zm-1.993 1.308c1.4578-0.09191 2.3029 1.6176 1.7841 2.8575-0.50064 1.6386-3.2491 1.5304-3.557-0.18361-0.34804-1.2053 0.36588-2.7448 1.7729-2.6739h0.000001zm4.346 5.34h5.064v-1.428h-3.156l2.928-3.792v-1.428h-4.5v1.428h2.592l-2.928 3.792v1.428z"/>
  <path id="path3273" style="opacity:.4;stroke:url(#linearGradient3281);stroke-linecap:square;stroke-width:1px;fill:none" d="m3.5052 17.5h40.99"/>
 </g>
</svg>
