<?xml version="1.0" encoding="UTF-8" standalone="no"?>
<!-- Created with Inkscape (http://www.inkscape.org/) -->
<svg id="svg3512" xmlns="http://www.w3.org/2000/svg" height="48" width="48" version="1.1" xmlns:xlink="http://www.w3.org/1999/xlink">
 <defs id="defs3514">
  <radialGradient id="radialGradient3314" xlink:href="#linearGradient3681" gradientUnits="userSpaceOnUse" cy="41.5" cx="5" gradientTransform="matrix(.59382 0 0 1.5367 41.141 -103.94)" r="5"/>
  <linearGradient id="linearGradient3312" y2="35" gradientUnits="userSpaceOnUse" x2="17.554" gradientTransform="matrix(1.757 0 0 1.397 -17.394 -16.412)" y1="46" x1="17.554">
   <stop id="stop3705" style="stop-opacity:0" offset="0"/>
   <stop id="stop3711" offset=".5"/>
   <stop id="stop3707" style="stop-opacity:0" offset="1"/>
  </linearGradient>
  <linearGradient id="linearGradient3681">
   <stop id="stop3683" offset="0"/>
   <stop id="stop3685" style="stop-opacity:0" offset="1"/>
  </linearGradient>
  <radialGradient id="radialGradient3310" xlink:href="#linearGradient3681" gradientUnits="userSpaceOnUse" cy="41.5" cx="5" gradientTransform="matrix(.59382 0 0 1.5367 -6.6595 -103.94)" r="5"/>
  <linearGradient id="linearGradient3293" y2="45.042" gradientUnits="userSpaceOnUse" x2="15.464" y1="7.9757" x1="15.464">
   <stop id="stop3297" style="stop-color:#c9af8b" offset="0"/>
   <stop id="stop3299" style="stop-color:#ad8757" offset=".23942"/>
   <stop id="stop3301" style="stop-color:#c2a57f" offset=".27582"/>
   <stop id="stop3303" style="stop-color:#9d7d53" offset="1"/>
  </linearGradient>
  <linearGradient id="linearGradient3197" y2="37.277" gradientUnits="userSpaceOnUse" x2="24.997" gradientTransform="matrix(1.2822 0 0 1.5573 -6.0702 -15.291)" y1="15.378" x1="24.823">
   <stop id="stop3201" style="stop-color:#dac197" offset="0"/>
   <stop id="stop3203" style="stop-color:#c1a581" offset=".23942"/>
   <stop id="stop3205" style="stop-color:#dbc298" offset=".27582"/>
   <stop id="stop3207" style="stop-color:#a68b60" offset="1"/>
  </linearGradient>
  <linearGradient id="linearGradient2659" y2="45.934" gradientUnits="userSpaceOnUse" x2="43.007" gradientTransform="matrix(1.2822 0 0 1.1747 -6.0702 -5.3032)" y1="30.555" x1="23.452">
   <stop id="stop4561" style="stop-color:#fff;stop-opacity:0" offset="0"/>
   <stop id="stop4563" style="stop-color:#fff;stop-opacity:0" offset="1"/>
  </linearGradient>
  <linearGradient id="linearGradient3834" y2="8" gradientUnits="userSpaceOnUse" x2="26" y1="22" x1="26">
   <stop id="stop3829" style="stop-color:#fff" offset="0"/>
   <stop id="stop4295" style="stop-color:#fff" offset=".30213"/>
   <stop id="stop4293" style="stop-color:#fff;stop-opacity:.69020" offset=".34361"/>
   <stop id="stop3832" style="stop-color:#fff;stop-opacity:0" offset="1"/>
  </linearGradient>
  <linearGradient id="linearGradient3281" y2="17.5" spreadMethod="reflect" gradientUnits="userSpaceOnUse" x2="3.0052" y1="17.5" x1="44.995">
   <stop id="stop3277" style="stop-color:#fff;stop-opacity:0" offset="0"/>
   <stop id="stop3283" style="stop-color:#fff" offset=".245"/>
   <stop id="stop3285" style="stop-color:#fff" offset=".77350"/>
   <stop id="stop3279" style="stop-color:#fff;stop-opacity:0" offset="1"/>
  </linearGradient>
 </defs>
 <g id="layer1">
  <g id="g3305" style="opacity:.4" transform="matrix(.99266 0 0 .97615 .27519 1.293)">
   <rect id="rect2484" style="fill:url(#radialGradient3310)" transform="scale(-1)" height="15.367" width="2.9602" y="-47.848" x="-3.6904"/>
   <rect id="rect2486" style="fill:url(#linearGradient3312)" height="15.367" width="40.412" y="32.482" x="3.6904"/>
   <rect id="rect3444" style="fill:url(#radialGradient3314)" transform="scale(1,-1)" height="15.367" width="2.9602" y="-47.848" x="44.11"/>
  </g>
  <path id="path2488" style="stroke:url(#linearGradient3293);stroke-linecap:round;stroke-width:.99420;display:block;fill:url(#linearGradient3197)" d="m9.0107 8.5h29.498c1.722 0 2.4969-0.28655 2.9916 1l3.0017 8v25.674c0 1.5533 0.10293 1.316-1.6191 1.316h-37.765c-1.722 0-1.6191 0.23733-1.6191-1.316l-0.0016-25.674 3.0017-8c0.48083-1.2606 0.78873-1 2.5107-1z"/>
  <path id="path2490" style="opacity:.50549;stroke:url(#linearGradient2659);stroke-width:.74212;display:block;fill:none" d="m9.9482 9.5129h27.653c1.6143 0 2.6134 0.55654 3.2895 2.086l2.3289 6.4197v23.145c0 1.4607-0.81876 2.1961-2.4331 2.1961h-33.733c-1.6143 0-2.2728-0.80883-2.2728-2.2695v-23.071l2.2538-6.5574c0.4511-1.186 1.2999-1.9491 2.9142-1.9491z"/>
  <path id="rect3326" style="opacity:.4;fill:url(#linearGradient3834)" d="m22 8h4v14h-1.1812-1.2094-0.97358-0.636v-14z"/>
  <path id="path3273" style="opacity:.4;stroke:url(#linearGradient3281);stroke-linecap:square;stroke-width:1px;fill:none" d="m3.5052 17.5h40.99"/>
  <path id="path1399" style="opacity:.6;fill:#500" d="m30.818 22.68-0.77186 0.99837c2.171 0.91553 3.8527 2.3552 4.6424 3.9281 0.45566 0.9075 0.53 2.4478 0.49151 2.9546l-0.06777 0.89251c2.1416 0.38041 4.8282 0.86116 5.8774 1.0321 0 0-0.0037-0.30324-0.15151-1.1872-0.2166-1.2957-1.3251-3.2954-2.4804-4.4693-1.9772-2.009-4.0885-3.246-7.5397-4.1492z"/>
  <path id="path1397" style="opacity:.6;fill:#1a1a1a" d="m14.299 37.873v-4.5862l2.5157 0.11371c3.1734 0.14344 4.7338 0.60298 5.9259 1.7451 0.73795 0.70708 0.81275 0.86264 0.81275 1.6904 0 0.68193-0.11921 1.0679-0.4731 1.5319-0.63358 0.83068-2.5947 1.7689-4.2382 2.0277l-1.3323 0.20978v0.69318c0 0.78421-0.05484 0.81204-2.0303 1.0303l-1.1804 0.13039v-4.5862zm4.5798 1.3375c1.4993-0.95082 1.9134-2.4694 0.97682-3.5824-0.57117-0.67879-1.3242-1.2359-1.921-1.4212l-0.42494-0.13194v2.8457c0 2.2137 0.0547 2.8457 0.24632 2.8457 0.13547 0 0.64072-0.25012 1.1228-0.55582zm-13.035-2.229l0.051386-3.5412 2.9274-0.02656c2.1592-0.01959 3.0993 0.04436 3.5826 0.24375l0.65522 0.27031-0.79477 0.47394c-0.688 0.41028-0.88682 0.44853-1.4799 0.28476-0.37685-0.10405-0.93022-0.14018-1.2297-0.08028l-0.54453 0.1089v2.9038 2.9038h-1.6095-1.6095l0.051378-3.5412zm19.976-0.06502v-3.6062l6.8463 0.07231c5.8623 0.06191 6.9481 0.11738 7.5545 0.38589l0.70824 0.31358v3.2203 3.2203h-1.6008-1.6008l-0.05178-3.1635-0.05179-3.1635-1.3693-0.05549-1.3693-0.05549v3.219 3.219h-1.5109-1.5109v-2.9119c0-1.6016-0.05159-3.0464-0.11464-3.2107-0.08919-0.23244-0.40359-0.29874-1.4165-0.29874h-1.3018v3.2107 3.2107h-1.6053-1.6053v-3.6062zm6.9879-5.7617c-6.6283-1.1912-8.8676-1.5298-9.1307-1.3805-0.25868 0.14678-0.42919 0.12777-0.66102-0.07374-0.17183-0.14935-0.56738-0.3654-0.87901-0.48011l-0.56659-0.20856 0.56659 0.0293c0.31162 0.01611 0.77258-0.03903 1.0244-0.12253 0.32655-0.1083 0.51773-0.06982 0.66695 0.13425 0.20014 0.27371 1.0897 0.443 15.306 2.9128 1.5581 0.27068 2.9137 0.56447 3.0124 0.65285 0.28744 0.25745-0.09487 0.19753-9.3393-1.4638zm-26.819 0.593c0-0.97595 0.67409-2.5935 1.6114-3.8668 2.7871-3.786 8.9886-6.2466 15.736-6.2434 2.3976 0.0011 5.294 0.3413 6.7665 0.79472l0.78886 0.24292-0.41113 0.5045-0.41113 0.5045-1.322-0.44493c-6.2943-2.1183-14.569 0.12559-16.725 4.5352-0.36391 0.74446-0.45996 1.2341-0.45384 2.3136 0.0043 0.75309-0.03823 1.3696-0.09443 1.3701-0.0562 0.000441-1.2876 0.21291-2.7365 0.47216s-2.66 0.47136-2.6913 0.47136c-0.031327 0-0.056959-0.29427-0.056959-0.65394z"/>
 </g>
</svg>
