<?xml version="1.0" encoding="UTF-8" standalone="no"?>
<!-- Created with Inkscape (http://www.inkscape.org/) -->
<svg id="svg2483" xmlns="http://www.w3.org/2000/svg" height="48" width="48" version="1.0" xmlns:xlink="http://www.w3.org/1999/xlink">
 <defs id="defs2485">
  <linearGradient id="linearGradient2487" y2=".19081" gradientUnits="userSpaceOnUse" x2="24.239" gradientTransform="matrix(.99013 0 0 1.01 4.1903 0)" y1="44.11" x1="24.239">
   <stop id="stop4108" style="stop-color:#51293c" offset="0"/>
   <stop id="stop4110" style="stop-color:#876374" offset="1"/>
  </linearGradient>
  <linearGradient id="linearGradient5503" y2="5.4565" gradientUnits="userSpaceOnUse" x2="36.358" gradientTransform="matrix(.99770 0 0 1.0407 .17180 -1.1058)" y1="8.059" x1="32.892">
   <stop id="stop8591" style="stop-color:#fefefe" offset="0"/>
   <stop id="stop8593" style="stop-color:#cbcbcb" offset="1"/>
  </linearGradient>
  <filter id="filter3212" height="1.3287" width="1.2969" color-interpolation-filters="sRGB" y="-.16434" x="-.14846">
   <feGaussianBlur id="feGaussianBlur3214" stdDeviation="0.77391625"/>
  </filter>
  <linearGradient id="linearGradient5507" y2="6.5436" gradientUnits="userSpaceOnUse" x2="34.103" gradientTransform="translate(.008002)" y1="4.8577" x1="35.517">
   <stop id="stop4269" style="stop-color:#c4c4c4" offset="0"/>
   <stop id="stop4271" style="stop-color:#c4c4c4;stop-opacity:0" offset="1"/>
  </linearGradient>
  <linearGradient id="linearGradient5510" y2="46.017" gradientUnits="userSpaceOnUse" x2="24" gradientTransform="matrix(1 0 0 .97778 .008002 -.96667)" y1="2" x1="24">
   <stop id="stop3213" style="stop-color:#fff" offset="0"/>
   <stop id="stop3215" style="stop-color:#fff;stop-opacity:0" offset="1"/>
  </linearGradient>
  <linearGradient id="linearGradient5513" y2="24.628" gradientUnits="userSpaceOnUse" x2="20.055" gradientTransform="matrix(.74014 0 0 1.3934 6.2447 -7.3171)" y1="15.298" x1="16.626">
   <stop id="stop2687" style="stop-color:#fff" offset="0"/>
   <stop id="stop2689" style="stop-color:#fff;stop-opacity:0" offset="1"/>
  </linearGradient>
  <radialGradient id="radialGradient5516" gradientUnits="userSpaceOnUse" cy="112.3" cx="102" gradientTransform="matrix(.36170 0 0 -.39078 .85906 47.517)" r="139.56">
   <stop id="stop41" offset="0"/>
   <stop id="stop47" offset=".18851"/>
   <stop id="stop49" style="stop-opacity:0" offset=".25718"/>
   <stop id="stop51" style="stop-opacity:0" offset="1"/>
  </radialGradient>
  <linearGradient id="linearGradient5519" y2="12" spreadMethod="reflect" gradientUnits="userSpaceOnUse" x2="91" gradientTransform="matrix(1.1872 0 0 .91915 -63.473 3.9764)" y1="28" x1="75.854">
   <stop id="stop5295" style="stop-color:#fff" offset="0"/>
   <stop id="stop5297" style="stop-color:#fff;stop-opacity:0" offset="1"/>
  </linearGradient>
  <linearGradient id="linearGradient5522" y2="12" spreadMethod="reflect" gradientUnits="userSpaceOnUse" x2="91" gradientTransform="matrix(1.1872 0 0 .91915 -63.473 5.0875)" y1="28" x1="75.854">
   <stop id="stop4002" offset="0"/>
   <stop id="stop4004" style="stop-opacity:0" offset="1"/>
  </linearGradient>
  <linearGradient id="linearGradient5527" y2="2.9062" gradientUnits="userSpaceOnUse" x2="-51.786" gradientTransform="matrix(.80750 0 0 .89483 59.418 -2.9806)" y1="53.624" x1="-51.786">
   <stop id="stop4963" style="stop-color:#643340" offset="0"/>
   <stop id="stop4965" style="stop-color:#a77a86" offset="1"/>
  </linearGradient>
  <radialGradient id="radialGradient5525" gradientUnits="userSpaceOnUse" cy="11.49" cx="14.239" gradientTransform="matrix(0 3.1786 -5.2985 0 74.199 -39.503)" r="18">
   <stop id="stop4953" style="stop-color:#e694bb" offset="0"/>
   <stop id="stop4955" style="stop-color:#d3819a" offset=".26238"/>
   <stop id="stop4957" style="stop-color:#b25a64" offset=".70495"/>
   <stop id="stop4959" style="stop-color:#98313d" offset="1"/>
  </radialGradient>
  <radialGradient id="radialGradient5530" xlink:href="#linearGradient5060" gradientUnits="userSpaceOnUse" cy="486.65" cx="605.71" gradientTransform="matrix(.023040 0 0 0.0147 26.369 37.04)" r="117.14"/>
  <linearGradient id="linearGradient5060">
   <stop id="stop5062" offset="0"/>
   <stop id="stop5064" style="stop-opacity:0" offset="1"/>
  </linearGradient>
  <radialGradient id="radialGradient5533" xlink:href="#linearGradient5060" gradientUnits="userSpaceOnUse" cy="486.65" cx="605.71" gradientTransform="matrix(-.023040 0 0 0.0147 21.631 37.04)" r="117.14"/>
  <linearGradient id="linearGradient5536" y2="609.51" gradientUnits="userSpaceOnUse" x2="302.86" gradientTransform="matrix(.067325 0 0 0.0147 -.33314 37.04)" y1="366.65" x1="302.86">
   <stop id="stop5050" style="stop-opacity:0" offset="0"/>
   <stop id="stop5056" offset=".5"/>
   <stop id="stop5052" style="stop-opacity:0" offset="1"/>
  </linearGradient>
 </defs>
 <g id="layer1">
  <rect id="rect3869" style="opacity:.3;fill:url(#linearGradient5536)" height="3.5701" width="32.508" y="42.43" x="7.7458"/>
  <path id="path3871" style="opacity:.3;fill:url(#radialGradient5533)" d="m7.7458 42.43v3.57c-1.1865 0.007-2.8683-0.8-2.8683-1.785 0-0.986 1.324-1.785 2.8683-1.785z"/>
  <path id="path3873" style="opacity:.3;fill:url(#radialGradient5530)" d="m40.254 42.43v3.57c1.187 0.007 2.869-0.8 2.869-1.785 0-0.986-1.325-1.785-2.869-1.785z"/>
  <path id="path3875" style="stroke-linejoin:round;stroke:url(#linearGradient5527);stroke-width:.99992;fill:url(#radialGradient5525)" d="m6.508 0.4972h24.061c0.525 1.9602 6.133 6.8516 10.939 9.6268v34.379h-35v-44.006 0.0002z"/>
  <path id="path5316" style="opacity:.1;fill:url(#linearGradient5522)" d="m33.139 16.117c-0.436-0.017-0.871 0.003-1.296 0.036-3.739 0.291-6.972 2.485-8.216 5.974-0.766 2.15-0.612 4.427 0.205 6.54l-16.832 14.333v1h9.957l-0.216-2.747 5.489 1.06 0.647-4.914 5.148 1.061 3.375-2.793c3.447 1.086 6.944 0.531 9.477-1.273v-11.772c-0.418 0.102-0.903 0.077-1.363-0.106-1.124-0.447-1.758-1.64-1.398-2.651 0.27-0.758 1.046-1.25 1.875-1.238 0.277 0.004 0.572 0.065 0.852 0.177 0.016 0.006 0.019 0.029 0.034 0.035v-1.838c-1.097-0.287-2.202-0.17-3.068 0.318-0.235-0.111-0.437-0.256-0.682-0.353-1.321-0.526-2.68-0.798-3.988-0.849z"/>
  <path id="path5283" style="opacity:.4;fill:url(#linearGradient5519)" d="m33.139 15.006c-0.436-0.017-0.871 0.003-1.296 0.036-3.739 0.291-6.972 2.485-8.216 5.974-0.766 2.15-0.612 4.427 0.205 6.54l-16.832 14.444 0.0461 2h10.002l-0.307-3.858 5.489 1.06 0.647-4.914 5.148 1.061 3.375-2.793c3.447 1.086 6.944 0.531 9.477-1.273v-11.772c-0.418 0.102-0.903 0.077-1.363-0.106-1.124-0.447-1.758-1.641-1.398-2.651 0.27-0.759 1.046-1.25 1.875-1.238 0.277 0.004 0.572 0.065 0.852 0.177 0.016 0.006 0.019 0.029 0.034 0.035v-1.838c-1.097-0.287-2.202-0.17-3.068 0.318-0.235-0.111-0.437-0.256-0.682-0.353-1.321-0.526-2.68-0.798-3.988-0.849z"/>
  <path id="path3877" style="opacity:.1;fill:url(#radialGradient5516)" d="m7.3697 44c-0.1993 0-0.3617-0.175-0.3617-0.391v-42.204c0-0.2155 0.1624-0.3906 0.3617-0.3906 7.4833 0.108 15.775-0.16158 23.249 0.0269l10.283 8.866 0.106 33.702c0 0.216-0.162 0.391-0.362 0.391h-33.276z"/>
  <path id="path3879" style="opacity:.2;fill:url(#linearGradient5513);fill-rule:evenodd" d="m8.627 1c-0.8942 0-1.619 1.3645-1.619 3.0481v22.295c0.0021 0.188 0.0457 0.365 0.1205 0.489 0.0747 0.124 0.1736 0.184 0.2727 0.164l33.306-9.928c0.172-0.051 0.299-0.327 0.301-0.653v-6l-10.834-9.415h-21.547z"/>
  <path id="path3881" style="opacity:.4;stroke-linejoin:round;stroke:url(#linearGradient5510);stroke-width:.99992;fill:none" d="m40.508 10.259v33.263h-33v-42.044c7.562-0.0003 15.304-0.0003 22.866-0.0003"/>
  <path id="path3883" style="stroke-linejoin:round;stroke:url(#linearGradient5507);stroke-width:.99992;fill:none" d="m30.569 0.5c1.407 0.47465 8.965 5.8794 10.939 9.624v12.285c-40.446 15.729-35.236-21.909-10.939-21.909z"/>
  <path id="path3885" style="opacity:.4;fill-rule:evenodd;filter:url(#filter3212)" d="m28.625 0.92126c4.283 0 2.154 8.4831 2.154 8.4831s10.357-1.8023 10.357 2.8186c0-2.6096-11.302-10.728-12.511-11.302v0.00026z"/>
  <path id="path3887" style="fill:url(#linearGradient5503);fill-rule:evenodd" d="m28.625 0.92126c3.187 0 2.336 7.6618 2.336 7.6618s10.175-0.981 10.175 3.6399c0-1.126 0.086-1.932-0.134-2.2834-1.578-2.5242-8.113-8.1884-10.575-8.9308-0.184-0.05556-0.875-0.08754-1.802-0.08754z"/>
  <path id="text4083" style="opacity:.4;fill:#fff" d="m29.208 36c-0.492-1.746-0.983-3.491-1.475-5.237h-7.435c-0.497 1.746-0.994 3.491-1.49 5.237h-4.618c2.336-7.363 4.672-14.727 7.008-22.09h5.591c2.345 7.363 4.691 14.727 7.037 22.09h-4.618zm-2.537-9.149c-0.811-2.917-1.744-5.8-2.447-8.747-0.136-0.444-0.196-1.624-0.322-0.53-0.687 3.131-1.634 6.194-2.498 9.277h5.267z"/>
  <path id="text3893" style="fill:url(#linearGradient2487)" d="m29.208 35c-0.492-1.746-0.983-3.491-1.475-5.237h-7.435c-0.497 1.746-0.994 3.491-1.49 5.237h-4.618c2.336-7.363 4.672-14.727 7.008-22.09h5.591c2.345 7.363 4.691 14.727 7.037 22.09h-4.618zm-2.537-9.149c-0.811-2.917-1.744-5.8-2.447-8.747-0.136-0.444-0.196-1.624-0.322-0.53-0.687 3.131-1.634 6.194-2.498 9.277h5.267z"/>
 </g>
</svg>
