<?xml version="1.0" encoding="UTF-8" standalone="no"?>
<!-- Created with Inkscape (http://www.inkscape.org/) -->
<svg id="svg2453" xmlns="http://www.w3.org/2000/svg" height="48" width="48" version="1.0" xmlns:xlink="http://www.w3.org/1999/xlink">
 <defs id="defs2455">
  <radialGradient id="radialGradient19613" xlink:href="#linearGradient5060" gradientUnits="userSpaceOnUse" cy="486.65" cx="605.71" gradientTransform="matrix(.028917 0 0 .012353 26.973 38.471)" r="117.14"/>
  <linearGradient id="linearGradient5060">
   <stop id="stop5062" offset="0"/>
   <stop id="stop5064" style="stop-opacity:0" offset="1"/>
  </linearGradient>
  <radialGradient id="radialGradient19616" xlink:href="#linearGradient5060" gradientUnits="userSpaceOnUse" cy="486.65" cx="605.71" gradientTransform="matrix(-.028917 0 0 .012353 21.027 38.471)" r="117.14"/>
  <linearGradient id="linearGradient19619" y2="609.51" gradientUnits="userSpaceOnUse" x2="302.86" gradientTransform="matrix(.084497 0 0 .012353 -6.5396 38.471)" y1="366.65" x1="302.86">
   <stop id="stop5050" style="stop-opacity:0" offset="0"/>
   <stop id="stop5056" offset=".5"/>
   <stop id="stop5052" style="stop-opacity:0" offset="1"/>
  </linearGradient>
  <linearGradient id="linearGradient2447" y2="14.029" gradientUnits="userSpaceOnUse" x2="25.818" gradientTransform="matrix(.50664 0 0 .35125 -58.338 -49.086)" y1="110.28" x1="108.26">
   <stop id="stop3802" style="stop-color:#fff" offset="0"/>
   <stop id="stop3804" style="stop-color:#e0e0e0" offset="1"/>
  </linearGradient>
  <linearGradient id="linearGradient2444" y2="-40.164" gradientUnits="userSpaceOnUse" x2="-24.098" gradientTransform="matrix(1.1143 0 0 1.1111 2.7514 3.5103)" y1="-13.091" x1="-24.032">
   <stop id="stop3796" style="stop-color:#333" offset="0"/>
   <stop id="stop3798" style="stop-color:#292929" offset="1"/>
  </linearGradient>
  <linearGradient id="linearGradient2442" y2="92.824" gradientUnits="userSpaceOnUse" x2="105.37" gradientTransform="matrix(.49084 0 0 .38034 -57.357 -48.338)" y1="17.333" x1="28.938">
   <stop id="stop3790" style="stop-color:#262626" offset="0"/>
   <stop id="stop3792" style="stop-color:#828282" offset="1"/>
  </linearGradient>
  <linearGradient id="linearGradient20256" y2="38.449" gradientUnits="userSpaceOnUse" x2="24.286" gradientTransform="translate(0 -1)" y1="34" x1="24.286">
   <stop id="stop20252" style="stop-color:#fff" offset="0"/>
   <stop id="stop20254" style="stop-color:#fff;stop-opacity:0" offset="1"/>
  </linearGradient>
 </defs>
 <g id="layer1">
  <g id="g3257" style="opacity:.4">
   <rect id="rect2879" style="fill:url(#linearGradient19619)" height="3" width="40.8" y="43" x="3.6"/>
   <path id="path2881" style="fill:url(#radialGradient19616)" d="m3.6 43v2.9998c-1.4891 0.006-3.6-0.672-3.6-1.5s1.6618-1.5 3.6-1.5z"/>
   <path id="path2883" style="fill:url(#radialGradient19613)" d="m44.4 43v2.9998c1.4891 0.0056 3.6-0.67211 3.6-1.5001 0-0.828-1.6618-1.4997-3.6-1.4997z"/>
  </g>
  <rect id="rect3580" style="stroke-opacity:.96863;stroke:#c1c1c1;stroke-linecap:round;fill:url(#linearGradient2447)" transform="matrix(-1 .0017332 -.00096053 -1 0 0)" height="35.922" width="44.966" y="-44.503" x="-46.457"/>
  <rect id="rect3582" style="stroke:url(#linearGradient2444);stroke-linecap:round;fill:url(#linearGradient2442)" transform="matrix(-.99999 .0037552 .0024409 -1 0 0)" rx="0" ry="0" height="29.854" width="38.927" y="-41.517" x="-43.529"/>
 </g>
 <path id="path19698" style="fill:#fff" d="m22.333 23.21c-0.29046 0.27915-0.58091 0.55831-0.87137 0.83746-1.6287-1.6903-4.2985-2.4989-6.4626-1.4029-2.1626 0.92947-3.3952 3.6372-2.5433 5.8868 0.7526 2.2913 3.2461 3.6526 5.5561 3.3363 1.8354-0.15195 3.5231-1.6393 3.725-3.5321h-3.5848v-1.1011h4.846c0.0561 2.022-0.8977 4.1423-2.7255 5.0858-1.9051 0.9621-4.283 0.87796-6.1683-0.09207-2.1721-1.1559-3.4687-3.7672-3.0129-6.225 0.38214-2.6475 2.7204-4.7664 5.3351-4.9575 2.1797-0.25724 4.3671 0.59567 5.9067 2.1644z"/>
 <path id="path19696" style="fill:#e6e6e6" d="m26 21h1v12h-1v-12z"/>
 <path id="text19687" style="fill:#e6e6e6" d="m30 21h6v1.1829h-4.8114v3.7525h4.8114v1.1829h-4.8114v5.8817h-1.1886v-12z"/>
 <path id="path19707" style="opacity:.3;fill:url(#linearGradient20256)" d="m22.333 42.79c-0.29046-0.27915-0.58091-0.55831-0.87137-0.83746-1.6287 1.6903-4.2985 2.4989-6.4626 1.4029-2.1626-0.92947-3.3952-3.6372-2.5433-5.8868 0.7526-2.2913 3.2461-3.6526 5.5561-3.3363 1.8354 0.15195 3.5231 1.6393 3.725 3.5321h-3.5848v1.1011h4.846c0.0561-2.022-0.8977-4.1423-2.7255-5.0858-1.9051-0.9621-4.283-0.87796-6.1683 0.09207-2.1721 1.1559-3.4687 3.7672-3.0129 6.225 0.38214 2.6475 2.7204 4.7664 5.3351 4.9575 2.1797 0.25724 4.3671-0.59567 5.9067-2.1644zm3.667 2.21h1v-12h-1v12zm4 0h6v-1.1829h-4.8114v-3.7525h4.8114v-1.1829h-4.8114v-5.8817h-1.1886v12z"/>
</svg>
