<?xml version="1.0" encoding="UTF-8" standalone="no"?>
<!-- Created with Inkscape (http://www.inkscape.org/) -->

<svg
   xmlns:dc="http://purl.org/dc/elements/1.1/"
   xmlns:cc="http://creativecommons.org/ns#"
   xmlns:rdf="http://www.w3.org/1999/02/22-rdf-syntax-ns#"
   xmlns:svg="http://www.w3.org/2000/svg"
   xmlns="http://www.w3.org/2000/svg"
   xmlns:xlink="http://www.w3.org/1999/xlink"
   version="1.1"
   width="48"
   height="48"
   id="svg21744">
  <defs
     id="defs21746">
    <linearGradient
       x1="525.4375"
       y1="836.1875"
       x2="516.65625"
       y2="828.5"
       id="linearGradient14113"
       xlink:href="#linearGradient14494-2-7"
       gradientUnits="userSpaceOnUse"
       gradientTransform="translate(-125.5,-1702.64)" />
    <linearGradient
       id="linearGradient14494-2-7">
      <stop
         id="stop14496-9-3"
         style="stop-color:#dc85e9;stop-opacity:1"
         offset="0" />
      <stop
         id="stop14498-9-7"
         style="stop-color:#f2cbf8;stop-opacity:1"
         offset="1" />
    </linearGradient>
    <linearGradient
       x1="520.58502"
       y1="735.05206"
       x2="516.15179"
       y2="720.86298"
       id="linearGradient14115"
       xlink:href="#linearGradient14494-5"
       gradientUnits="userSpaceOnUse" />
    <linearGradient
       id="linearGradient14494-5">
      <stop
         id="stop14496-5"
         style="stop-color:#dc85e9;stop-opacity:1"
         offset="0" />
      <stop
         id="stop14498-1"
         style="stop-color:#f2cbf8;stop-opacity:1"
         offset="1" />
    </linearGradient>
    <linearGradient
       x1="525.4375"
       y1="836.1875"
       x2="516.65625"
       y2="828.5"
       id="linearGradient54948"
       xlink:href="#linearGradient14494-2-7"
       gradientUnits="userSpaceOnUse"
       gradientTransform="translate(-502.50049,-802.00385)" />
    <linearGradient
       x1="520.58502"
       y1="735.05206"
       x2="516.15179"
       y2="720.86298"
       id="linearGradient14109"
       xlink:href="#linearGradient14494-5"
       gradientUnits="userSpaceOnUse" />
    <linearGradient
       x1="525.4375"
       y1="836.1875"
       x2="516.65625"
       y2="828.5"
       id="linearGradient54952"
       xlink:href="#linearGradient14494-2-7"
       gradientUnits="userSpaceOnUse"
       gradientTransform="translate(-502.50049,-797.50385)" />
    <linearGradient
       x1="209.0625"
       y1="-765.46082"
       x2="209.0625"
       y2="-781.62268"
       id="linearGradient44039"
       xlink:href="#linearGradient15606-1"
       gradientUnits="userSpaceOnUse"
       gradientTransform="matrix(1.5,0,0,1.5,-304.99949,1176.9562)" />
    <linearGradient
       id="linearGradient15606-1">
      <stop
         id="stop15608-0"
         style="stop-color:#ffffff;stop-opacity:0.58823502"
         offset="0" />
      <stop
         id="stop15610-5"
         style="stop-color:#ffffff;stop-opacity:0.86274499"
         offset="1" />
    </linearGradient>
    <linearGradient
       x1="294.3429"
       y1="256.58133"
       x2="294.41818"
       y2="243.13852"
       id="linearGradient44042"
       xlink:href="#linearGradient10286-3"
       gradientUnits="userSpaceOnUse"
       gradientTransform="matrix(2.99213,0,0,3.00466,-870.71149,-727.44385)" />
    <linearGradient
       id="linearGradient10286-3">
      <stop
         id="stop10288-8"
         style="stop-color:#b3b3b3;stop-opacity:1"
         offset="0" />
      <stop
         id="stop10290-7"
         style="stop-color:#e6e6e6;stop-opacity:1"
         offset="1" />
    </linearGradient>
    <linearGradient
       x1="110.96875"
       y1="976.29968"
       x2="110.96875"
       y2="992.375"
       id="linearGradient43236"
       xlink:href="#linearGradient4145-42"
       gradientUnits="userSpaceOnUse" />
    <linearGradient
       id="linearGradient4145-42">
      <stop
         id="stop4953"
         style="stop-color:#e694bb;stop-opacity:1"
         offset="0" />
      <stop
         id="stop4955"
         style="stop-color:#d3819a;stop-opacity:1"
         offset="0.26238" />
      <stop
         id="stop4957"
         style="stop-color:#b25a64;stop-opacity:1"
         offset="0.704952" />
      <stop
         id="stop4959"
         style="stop-color:#98313d;stop-opacity:1"
         offset="1" />
    </linearGradient>
    <linearGradient
       x1="110.96875"
       y1="976.29968"
       x2="110.99982"
       y2="991.87488"
       id="linearGradient14097-7"
       xlink:href="#linearGradient4145-42"
       gradientUnits="userSpaceOnUse"
       gradientTransform="matrix(1,0,0,1.00011,0,-0.10551)" />
    <linearGradient
       x1="110.96875"
       y1="976.29968"
       x2="110.96875"
       y2="992.375"
       id="linearGradient21742"
       xlink:href="#linearGradient4145-42"
       gradientUnits="userSpaceOnUse"
       gradientTransform="matrix(1.00399,0,0,1.00959,-1.1658,-9.36636)" />
  </defs>
  <metadata
     id="metadata21749">
    <rdf:RDF>
      <cc:Work
         rdf:about="">
        <dc:format>image/svg+xml</dc:format>
        <dc:type
           rdf:resource="http://purl.org/dc/dcmitype/StillImage" />
        <dc:title></dc:title>
      </cc:Work>
    </rdf:RDF>
  </metadata>
  <g
     id="layer1">
    <g
       transform="matrix(2.9999,0,0,2.99884,-328.98849,-2927.9738)"
       id="g14073"
       style="fill:url(#linearGradient43236);fill-opacity:1;display:inline">
      <path
         d="m 111.8125,976.3733 c -0.4584,0.0875 -0.82072,0.53346 -0.8125,1.00011 l 0,14.00148 c 5e-5,0.52364 0.47642,1.00006 1,1.00011 l 11.33333,0 c 0.52358,-5e-5 0.99995,-0.47647 1,-1.00011 l 0,-8.73078 c 0.006,-0.26409 -0.0975,-0.52903 -0.28125,-0.71883 l -5.27042,-5.2707 c -0.18978,-0.18372 -0.45469,-0.2874 -0.71875,-0.28128 l -6.06291,0 c -0.0623,-0.006 -0.12518,-0.006 -0.1875,0 z"
         id="path14075"
         style="font-size:medium;font-style:normal;font-variant:normal;font-weight:normal;font-stretch:normal;text-indent:0pt;text-align:start;text-decoration:none;line-height:normal;letter-spacing:normal;word-spacing:normal;text-transform:none;direction:ltr;text-anchor:start;color:#000000;fill:url(#linearGradient14097-7);fill-opacity:1;stroke:none;stroke-width:2;marker:none;visibility:visible;display:inline;overflow:visible;font-family:Andale Mono" />
      <path
         d="m 120.66272,976.3765 c -0.33282,0.10664 -0.44483,0.61349 -0.18825,0.85184 l 3.01199,3.02879 c 0.27825,0.26531 0.83246,0.0383 0.84712,-0.34705 l 0,-3.02878 c -3e-5,-0.26431 -0.23916,-0.50477 -0.502,-0.5048 l -3.01199,0 c -0.0519,-0.008 -0.105,-0.008 -0.15687,0 z"
         id="path14077"
         style="font-size:medium;font-style:normal;font-variant:normal;font-weight:normal;font-stretch:normal;text-indent:0pt;text-align:start;text-decoration:none;line-height:normal;letter-spacing:normal;word-spacing:normal;text-transform:none;direction:ltr;text-anchor:start;color:#000000;fill:url(#linearGradient21742);fill-opacity:1;fill-rule:nonzero;stroke:none;stroke-width:1;marker:none;visibility:visible;display:inline;overflow:visible;font-family:Andale Mono" />
    </g>
    <path
       d="m 7.0006142,3.0210706 0,0.75 0,40.5000404 0,0.72723 0.75,0 32.4993988,0 0.75,0 0,-0.72723 0,-25.50003 0,-0.3282 -0.2344,-0.2343 -14.9059,-15.0000104 -0.1875,-0.1875 -0.3282,0 -17.5933988,0 -0.75,0 z"
       id="path14079"
       style="font-size:medium;font-style:normal;font-variant:normal;font-weight:normal;font-stretch:normal;text-indent:0pt;text-align:start;text-decoration:none;line-height:normal;letter-spacing:normal;word-spacing:normal;text-transform:none;direction:ltr;text-anchor:start;color:#000000;fill:url(#linearGradient44042);fill-opacity:1;fill-rule:nonzero;stroke:none;stroke-width:1;marker:none;visibility:visible;display:inline;overflow:visible;font-family:Andale Mono" />
    <path
       d="m 9.0005142,4.9983406 15.9999988,0 14,14.0000004 0,24 -29.9999988,0 0,-38.0000004 z"
       id="path14081"
       style="fill:url(#linearGradient44039);fill-opacity:1;stroke:none;display:inline" />
    <path
       d="m 12.499314,31.998351 0,3.5 c 0,0 0,0.338 0,0.5 0,1.933 5.1487,3.5 11.499999,3.5 6.3513,0 11.5,-1.567 11.5,-3.5 l 0,-0.5 0,-3.5 -22.999999,0 z"
       id="path14085"
       style="color:#000000;fill:url(#linearGradient54952);fill-opacity:1;fill-rule:nonzero;stroke:#8e03a3;stroke-width:1;stroke-linecap:butt;stroke-linejoin:miter;stroke-miterlimit:4;stroke-opacity:1;stroke-dasharray:none;stroke-dashoffset:0;marker:none;visibility:visible;display:inline;overflow:visible" />
    <path
       d="m 542.125,730.3125 a 22.4375,5.6875 0 1 1 -44.875,0 22.4375,5.6875 0 1 1 44.875,0 z"
       transform="matrix(0.512535,0,0,0.615385,-242.35949,-422.92385)"
       id="path14087"
       style="color:#000000;fill:url(#linearGradient14109);fill-opacity:1;fill-rule:nonzero;stroke:#8e03a3;stroke-width:1.78059006;marker:none;visibility:visible;display:inline;overflow:visible" />
    <path
       d="m 12.499314,27.498351 0,3.5 c 0,0 0,0.338 0,0.5 0,1.933 5.1487,3.5 11.499999,3.5 6.3513,0 11.5,-1.567 11.5,-3.5 l 0,-0.5 0,-3.5 -22.999999,0 z"
       id="path14089"
       style="color:#000000;fill:url(#linearGradient54948);fill-opacity:1;fill-rule:nonzero;stroke:#8e03a3;stroke-width:1;stroke-linecap:butt;stroke-linejoin:miter;stroke-miterlimit:4;stroke-opacity:1;stroke-dasharray:none;stroke-dashoffset:0;marker:none;visibility:visible;display:inline;overflow:visible" />
    <g
       transform="translate(-377.00049,895.63615)"
       id="g14091"
       style="display:inline">
      <path
         d="m 389.5,-873.1378 0,3.5 c 0,0 0,0.338 0,0.5 0,1.933 5.14873,3.5 11.5,3.5 6.35127,0 11.5,-1.567 11.5,-3.5 l 0,-0.5 0,-3.5 -23,0 z"
         id="path14093"
         style="color:#000000;fill:url(#linearGradient14113);fill-opacity:1;fill-rule:nonzero;stroke:#8e03a3;stroke-width:1;stroke-linecap:butt;stroke-linejoin:miter;stroke-miterlimit:4;stroke-opacity:1;stroke-dasharray:none;stroke-dashoffset:0;marker:none;visibility:visible;display:inline;overflow:visible" />
      <path
         d="m 542.125,730.3125 a 22.4375,5.6875 0 1 1 -44.875,0 22.4375,5.6875 0 1 1 44.875,0 z"
         transform="matrix(0.512535,0,0,0.615385,134.642,-1323.06)"
         id="path14095"
         style="color:#000000;fill:url(#linearGradient14115);fill-opacity:1;fill-rule:nonzero;stroke:#8e03a3;stroke-width:1.78059006;marker:none;visibility:visible;display:inline;overflow:visible" />
    </g>
  </g>
</svg>
