<?xml version="1.0" encoding="UTF-8" standalone="no"?>
<!-- Created with Inkscape (http://www.inkscape.org/) -->
<svg id="svg5795" xmlns:rdf="http://www.w3.org/1999/02/22-rdf-syntax-ns#" xmlns="http://www.w3.org/2000/svg" height="48" width="48" version="1.1" xmlns:cc="http://creativecommons.org/ns#" xmlns:xlink="http://www.w3.org/1999/xlink" xmlns:dc="http://purl.org/dc/elements/1.1/">
 <metadata id="metadata136">
  <rdf:RDF>
   <cc:Work rdf:about="">
    <dc:format>image/svg+xml</dc:format>
    <dc:type rdf:resource="http://purl.org/dc/dcmitype/StillImage"/>
    <dc:title/>
   </cc:Work>
  </rdf:RDF>
 </metadata>
 <defs id="defs5797">
  <filter id="filter3212" height="1.3287" width="1.2969" color-interpolation-filters="sRGB" y="-.16434" x="-.14846">
   <feGaussianBlur id="feGaussianBlur3214" stdDeviation="0.77391625"/>
  </filter>
  <linearGradient id="linearGradient5060">
   <stop id="stop5062" offset="0"/>
   <stop id="stop5064" style="stop-opacity:0" offset="1"/>
  </linearGradient>
  <linearGradient id="linearGradient2946" y2="18.246" gradientUnits="userSpaceOnUse" x2="-22.57" gradientTransform="matrix(1.0224 0 0 .99211 45.495 17.898)" y1="14.214" x1="-22.607">
   <stop id="stop5200" style="stop-color:#b5d5e7" offset="0"/>
   <stop id="stop5202" style="stop-color:#498bb3" offset="1"/>
  </linearGradient>
  <linearGradient id="linearGradient2948" y2="14.214" gradientUnits="userSpaceOnUse" x2="-14.177" gradientTransform="matrix(1.0224 0 0 .99211 45.495 17.898)" y1="18.246" x1="-14.177">
   <stop id="stop5206" style="stop-color:#335264" offset="0"/>
   <stop id="stop5208" style="stop-color:#7a96a7" offset="1"/>
  </linearGradient>
  <linearGradient id="linearGradient2953" y2="18.246" gradientUnits="userSpaceOnUse" x2="-22.57" gradientTransform="matrix(1.0224 0 0 .99211 45.495 17.898)" y1="14.214" x1="-22.607">
   <stop id="stop2266-4-4" style="stop-color:#d7e866" offset="0"/>
   <stop id="stop2268-7-6" style="stop-color:#8cab2a" offset="1"/>
  </linearGradient>
  <linearGradient id="linearGradient2955" y2="14.214" gradientUnits="userSpaceOnUse" x2="-14.177" gradientTransform="matrix(1.0224 0 0 .99211 45.495 17.898)" y1="18.246" x1="-14.177">
   <stop id="stop3928-4-6" style="stop-color:#5d8430" offset="0"/>
   <stop id="stop3930-8-1" style="stop-color:#6d9a38" offset="1"/>
  </linearGradient>
  <linearGradient id="linearGradient2959" y2="18.246" gradientUnits="userSpaceOnUse" x2="-22.57" gradientTransform="matrix(1.0224 0 0 .99211 47.495 11.898)" y1="14.214" x1="-22.607">
   <stop id="stop4170" style="stop-color:#f8cd70" offset="0"/>
   <stop id="stop4172" style="stop-color:#d99a11" offset="1"/>
  </linearGradient>
  <linearGradient id="linearGradient2961" y2="14.214" gradientUnits="userSpaceOnUse" x2="-14.177" gradientTransform="matrix(1.0224 0 0 .99211 47.495 11.898)" y1="18.246" x1="-14.177">
   <stop id="stop4095" style="stop-color:#bb5e12" offset="0"/>
   <stop id="stop4097" style="stop-color:#cd8033" offset="1"/>
  </linearGradient>
  <linearGradient id="linearGradient2966" y2="18.246" gradientUnits="userSpaceOnUse" x2="-22.57" gradientTransform="matrix(1.0224 0 0 .99211 47.495 11.898)" y1="14.214" x1="-22.607">
   <stop id="stop2266-4-0" style="stop-color:#d7e866" offset="0"/>
   <stop id="stop2268-7-33" style="stop-color:#8cab2a" offset="1"/>
  </linearGradient>
  <linearGradient id="linearGradient2968" y2="14.214" gradientUnits="userSpaceOnUse" x2="-14.177" gradientTransform="matrix(1.0224 0 0 .99211 47.495 11.898)" y1="18.246" x1="-14.177">
   <stop id="stop3928-4-7" style="stop-color:#5d8430" offset="0"/>
   <stop id="stop3930-8-0" style="stop-color:#6d9a38" offset="1"/>
  </linearGradient>
  <linearGradient id="linearGradient2972" y2="18.246" gradientUnits="userSpaceOnUse" x2="-22.57" gradientTransform="matrix(1.0224 0 0 .99211 47.495 5.8982)" y1="14.214" x1="-22.607">
   <stop id="stop2266-4-8-7-4" style="stop-color:#d7e866" offset="0"/>
   <stop id="stop2268-7-3-4-0" style="stop-color:#8cab2a" offset="1"/>
  </linearGradient>
  <linearGradient id="linearGradient2974" y2="14.214" gradientUnits="userSpaceOnUse" x2="-14.177" gradientTransform="matrix(1.0224 0 0 .99211 47.495 5.8982)" y1="18.246" x1="-14.177">
   <stop id="stop3928-4-3-7-4" style="stop-color:#5d8430" offset="0"/>
   <stop id="stop3930-8-7-0-6" style="stop-color:#6d9a38" offset="1"/>
  </linearGradient>
  <linearGradient id="linearGradient2985" y2="18.246" gradientUnits="userSpaceOnUse" x2="-22.57" gradientTransform="matrix(1.0224 0 0 .99211 45.495 -.10179)" y1="14.214" x1="-22.607">
   <stop id="stop5212" style="stop-color:#b5d5e7" offset="0"/>
   <stop id="stop5214" style="stop-color:#498bb3" offset="1"/>
  </linearGradient>
  <linearGradient id="linearGradient2987" y2="14.214" gradientUnits="userSpaceOnUse" x2="-14.177" gradientTransform="matrix(1.0224 0 0 .99211 45.495 -.10179)" y1="18.246" x1="-14.177">
   <stop id="stop5218" style="stop-color:#335264" offset="0"/>
   <stop id="stop5220" style="stop-color:#7a96a7" offset="1"/>
  </linearGradient>
  <linearGradient id="linearGradient2992" y2="18.246" gradientUnits="userSpaceOnUse" x2="-22.57" gradientTransform="matrix(1.0224 0 0 .99211 45.495 -.10179)" y1="14.214" x1="-22.607">
   <stop id="stop2266-4" style="stop-color:#d7e866" offset="0"/>
   <stop id="stop2268-7" style="stop-color:#8cab2a" offset="1"/>
  </linearGradient>
  <linearGradient id="linearGradient2994" y2="14.214" gradientUnits="userSpaceOnUse" x2="-14.177" gradientTransform="matrix(1.0224 0 0 .99211 45.495 -.10179)" y1="18.246" x1="-14.177">
   <stop id="stop3928-4" style="stop-color:#5d8430" offset="0"/>
   <stop id="stop3930-8" style="stop-color:#6d9a38" offset="1"/>
  </linearGradient>
  <linearGradient id="linearGradient2997" y2="5.4565" gradientUnits="userSpaceOnUse" x2="36.358" gradientTransform="matrix(.99770 0 0 1.0407 .16380 -1.1058)" y1="8.059" x1="32.892">
   <stop id="stop8591" style="stop-color:#fefefe" offset="0"/>
   <stop id="stop8593" style="stop-color:#cbcbcb" offset="1"/>
  </linearGradient>
  <linearGradient id="linearGradient3001" y2="46.017" gradientUnits="userSpaceOnUse" x2="24" gradientTransform="matrix(1 0 0 .97778 0 -.96667)" y1="2" x1="24">
   <stop id="stop3213" style="stop-color:#fff" offset="0"/>
   <stop id="stop3215" style="stop-color:#fff;stop-opacity:0" offset="1"/>
  </linearGradient>
  <radialGradient id="radialGradient3004" gradientUnits="userSpaceOnUse" cy="112.3" cx="102" gradientTransform="matrix(.36170 0 0 -.39078 .85106 47.517)" r="139.56">
   <stop id="stop41" style="stop-color:#b7b8b9" offset="0"/>
   <stop id="stop47" style="stop-color:#ececec" offset=".18851"/>
   <stop id="stop49" style="stop-color:#fafafa;stop-opacity:0" offset=".25718"/>
   <stop id="stop51" style="stop-color:#fff;stop-opacity:0" offset=".30111"/>
   <stop id="stop53" style="stop-color:#fafafa;stop-opacity:0" offset=".53130"/>
   <stop id="stop55" style="stop-color:#ebecec;stop-opacity:0" offset=".84490"/>
   <stop id="stop57" style="stop-color:#e1e2e3;stop-opacity:0" offset="1"/>
  </radialGradient>
  <linearGradient id="linearGradient3007" y2="47.013" gradientUnits="userSpaceOnUse" x2="25.132" gradientTransform="matrix(1 0 0 .95617 -1e-7 -1.9149)" y1=".98521" x1="25.132">
   <stop id="stop3602" style="stop-color:#f4f4f4" offset="0"/>
   <stop id="stop3604" style="stop-color:#dbdbdb" offset="1"/>
  </linearGradient>
  <linearGradient id="linearGradient3009" y2="2.9062" gradientUnits="userSpaceOnUse" x2="-51.786" gradientTransform="matrix(.80750 0 0 .89483 59.41 -2.9806)" y1="50.786" x1="-51.786">
   <stop id="stop3106" style="stop-color:#aaa" offset="0"/>
   <stop id="stop3108" style="stop-color:#c8c8c8" offset="1"/>
  </linearGradient>
  <radialGradient id="radialGradient3012" xlink:href="#linearGradient5060" gradientUnits="userSpaceOnUse" cy="486.65" cx="605.71" gradientTransform="matrix(.023040 0 0 0.0147 26.361 37.04)" r="117.14"/>
  <radialGradient id="radialGradient3015" xlink:href="#linearGradient5060" gradientUnits="userSpaceOnUse" cy="486.65" cx="605.71" gradientTransform="matrix(-.023040 0 0 0.0147 21.623 37.04)" r="117.14"/>
  <linearGradient id="linearGradient3018" y2="609.51" gradientUnits="userSpaceOnUse" x2="302.86" gradientTransform="matrix(.067325 0 0 0.0147 -.34114 37.04)" y1="366.65" x1="302.86">
   <stop id="stop5050" style="stop-opacity:0" offset="0"/>
   <stop id="stop5056" offset=".5"/>
   <stop id="stop5052" style="stop-opacity:0" offset="1"/>
  </linearGradient>
 </defs>
 <rect id="rect2879" style="opacity:.3;fill:url(#linearGradient3018)" height="3.5701" width="32.508" y="42.43" x="7.7378"/>
 <path id="path2881" style="opacity:.3;fill:url(#radialGradient3015)" d="m7.7378 42.43v3.5699c-1.1865 0.0067-2.8684-0.79982-2.8684-1.7852 0-0.98533 1.324-1.7847 2.8684-1.7847z"/>
 <path id="path2883" style="opacity:.3;fill:url(#radialGradient3012)" d="m40.246 42.43v3.5699c1.1865 0.0067 2.8684-0.79982 2.8684-1.7852 0-0.98533-1.324-1.7847-2.8684-1.7847z"/>
 <path id="path4160" style="stroke-linejoin:round;stroke:url(#linearGradient3009);stroke-width:.99992;fill:url(#linearGradient3007)" d="m6.5 0.4972h24.061c1.4069 0.47465 8.9655 5.8822 10.939 9.6264v34.379h-35v-44.006z"/>
 <path id="path4191" style="fill:url(#radialGradient3004)" d="m7.3617 44c-0.1993 0-0.3617-0.17546-0.3617-0.39078v-42.204c0-0.21571 0.1624-0.39078 0.3617-0.39078 7.4833 0.1082 15.775-0.16138 23.249 0.0271l10.283 8.866 0.106 33.702c0 0.216-0.162 0.391-0.362 0.391h-33.276z"/>
 <path id="path2435" style="opacity:.6;stroke-linejoin:round;stroke:url(#linearGradient3001);stroke-width:.99992;fill:none" d="m40.5 10.259v33.263h-33v-42.045h22.866"/>
 <path id="path12038" style="opacity:.4;fill-rule:evenodd;filter:url(#filter3212)" d="m28.617 0.92126c4.2825 0 2.1532 8.4832 2.1532 8.4832s10.358-1.8023 10.358 2.8187c0-2.6097-11.302-10.729-12.511-11.302z"/>
 <path id="path4474" style="fill:url(#linearGradient2997);fill-rule:evenodd" d="m28.617 0.92126c3.1865 0 2.3358 7.6619 2.3358 7.6619s10.175-0.98105 10.175 3.64c0-1.1259 0.08591-1.9322-0.13378-2.2836-1.578-2.5243-8.395-8.1885-10.857-8.9309-0.184-0.05556-0.593-0.08754-1.52-0.08754z"/>
 <path id="path4098" style="color:#000000;stroke:url(#linearGradient2994);stroke-linecap:square;fill:url(#linearGradient2992)" d="m16.921 14.5c-0.22895 0.01557-0.42426 0.19346-0.42122 0.38367v2.2322c-0.0025 0.20143 0.22008 0.38567 0.46334 0.38367h17.073c0.24325 0.002 0.46575-0.18224 0.46334-0.38367v-2.2322c0.003-0.201-0.219-0.386-0.462-0.384h-17.073c-0.01403-0.000534-0.02809-0.000534-0.04212 0z"/>
 <path id="path4106" style="opacity:.15" d="m16.445 15.001c-0.24167 0.02075-0.44783 0.25795-0.44462 0.51156v2.9763c-0.0026 0.26857 0.23231 0.51422 0.48908 0.51156h18.022c0.25677 0.0026 0.49163-0.24299 0.48908-0.51156v-2.9763c0.0026-0.26857-0.23231-0.51422-0.48908-0.51156h-18.022c-0.01481-0.000712-0.02965-0.000712-0.04446 0zm-4.9795 0c-0.25281 0.02075-0.46846 0.25795-0.46511 0.51156v2.9763c-0.0027 0.26857 0.24302 0.51422 0.51162 0.51156h2.9767c0.2686 0.0026 0.51429-0.24299 0.51162-0.51156v-2.9763c0.0027-0.26857-0.24302-0.51422-0.51162-0.51156h-2.9767c-0.01549-0.000712-0.03101-0.000712-0.04651 0z"/>
 <path id="path4373" style="opacity:.4;stroke:#fff;stroke-width:1px;fill:none" d="m17 15.5h17"/>
 <path id="rect4432" style="color:#000000;stroke:url(#linearGradient2987);stroke-linecap:square;fill:url(#linearGradient2985)" d="m12 14.5h2c0.277 0 0.5 0.223 0.5 0.5v2c0 0.277-0.223 0.5-0.5 0.5h-2c-0.277 0-0.5-0.223-0.5-0.5v-2c0-0.277 0.223-0.5 0.5-0.5zm4.9213 0.000401c-0.22895 0.01557-0.42426 0.19346-0.42122 0.38367v2.2322c-0.0025 0.20143 0.22008 0.38567 0.46334 0.38367h17.073c0.24325 0.002 0.46575-0.18224 0.46334-0.38367v-2.2322c0.003-0.201-0.219-0.386-0.462-0.384h-17.073c-0.01403-0.000534-0.02809-0.000534-0.04212 0z"/>
 <path id="path4373-7-4" style="opacity:.4;stroke:#fff;stroke-width:1px;fill:none" d="m12 15.5h1.9995m3.0005 0h17"/>
 <path id="path4098-9" style="color:#000000;stroke:url(#linearGradient2974);stroke-linecap:square;fill:url(#linearGradient2972)" d="m18.921 20.5c-0.22895 0.01557-0.42426 0.19346-0.42122 0.38367v2.2322c-0.0025 0.20143 0.22008 0.38567 0.46334 0.38367h17.073c0.24325 0.002 0.46575-0.18224 0.46334-0.38367v-2.2322c0.003-0.201-0.219-0.386-0.462-0.384h-17.073c-0.01403-0.000534-0.02809-0.000534-0.04212 0z"/>
 <path id="path4106-1" style="opacity:.15" d="m18.445 21.001c-0.24167 0.02075-0.44783 0.25795-0.44462 0.51156v2.9763c-0.0026 0.26857 0.23231 0.51422 0.48908 0.51156h18.022c0.25677 0.0026 0.49163-0.24299 0.48908-0.51156v-2.9763c0.0026-0.26857-0.23231-0.51422-0.48908-0.51156h-18.022c-0.01481-0.000712-0.02965-0.000712-0.04446 0zm-4.9795 0c-0.25281 0.02075-0.46846 0.25795-0.46511 0.51156v2.9763c-0.0027 0.26857 0.24302 0.51422 0.51162 0.51156h2.9767c0.2686 0.0026 0.51429-0.24299 0.51162-0.51156v-2.9763c0.0027-0.26857-0.24302-0.51422-0.51162-0.51156h-2.9767c-0.01549-0.000712-0.03101-0.000712-0.04651 0z"/>
 <path id="path4373-3" style="opacity:.4;stroke:#fff;stroke-width:1px;fill:none" d="m19 21.5h17"/>
 <path id="rect4432-4" style="color:#000000;stroke:url(#linearGradient2974);stroke-linecap:square;fill:url(#linearGradient2972)" d="m14 20.5h2c0.277 0 0.5 0.223 0.5 0.5v2c0 0.277-0.223 0.5-0.5 0.5h-2c-0.277 0-0.5-0.223-0.5-0.5v-2c0-0.277 0.223-0.5 0.5-0.5zm4.9213 0.000401c-0.22895 0.01557-0.42426 0.19346-0.42122 0.38367v2.2322c-0.0025 0.20143 0.22008 0.38567 0.46334 0.38367h17.073c0.24325 0.002 0.46575-0.18224 0.46334-0.38367v-2.2322c0.003-0.201-0.219-0.386-0.462-0.384h-17.073c-0.01403-0.000534-0.02809-0.000534-0.04212 0z"/>
 <path id="path4373-7-4-5" style="opacity:.4;stroke:#fff;stroke-width:1px;fill:none" d="m14 21.5h1.9995m3.0005 0h17"/>
 <path id="path4098-1" style="color:#000000;stroke:url(#linearGradient2968);stroke-linecap:square;fill:url(#linearGradient2966)" d="m18.921 26.5c-0.22895 0.01557-0.42426 0.19346-0.42122 0.38367v2.2322c-0.0025 0.20143 0.22008 0.38567 0.46334 0.38367h17.073c0.24325 0.002 0.46575-0.18224 0.46334-0.38367v-2.2322c0.003-0.201-0.219-0.386-0.462-0.384h-17.073c-0.01403-0.000534-0.02809-0.000534-0.04212 0z"/>
 <path id="path4106-0" style="opacity:.15" d="m18.445 27.001c-0.24167 0.02075-0.44783 0.25795-0.44462 0.51156v2.9763c-0.0026 0.26857 0.23231 0.51422 0.48908 0.51156h18.022c0.25677 0.0026 0.49163-0.24299 0.48908-0.51156v-2.9763c0.0026-0.26857-0.23231-0.51422-0.48908-0.51156h-18.022c-0.01481-0.000712-0.02965-0.000712-0.04446 0zm-4.9795 0c-0.25281 0.02075-0.46846 0.25795-0.46511 0.51156v2.9763c-0.0027 0.26857 0.24302 0.51422 0.51162 0.51156h2.9767c0.2686 0.0026 0.51429-0.24299 0.51162-0.51156v-2.9763c0.0027-0.26857-0.24302-0.51422-0.51162-0.51156h-2.9767c-0.01549-0.000712-0.03101-0.000712-0.04651 0z"/>
 <path id="path4373-30" style="opacity:.4;stroke:#fff;stroke-width:1px;fill:none" d="m19 27.5h17"/>
 <path id="rect4432-0" style="color:#000000;stroke:url(#linearGradient2961);stroke-linecap:square;fill:url(#linearGradient2959)" d="m14 26.5h2c0.277 0 0.5 0.223 0.5 0.5v2c0 0.277-0.223 0.5-0.5 0.5h-2c-0.277 0-0.5-0.223-0.5-0.5v-2c0-0.277 0.223-0.5 0.5-0.5zm4.9213 0.000401c-0.22895 0.01557-0.42426 0.19346-0.42122 0.38367v2.2322c-0.0025 0.20143 0.22008 0.38567 0.46334 0.38367h17.073c0.24325 0.002 0.46575-0.18224 0.46334-0.38367v-2.2322c0.003-0.201-0.219-0.386-0.462-0.384h-17.073c-0.01403-0.000534-0.02809-0.000534-0.04212 0z"/>
 <path id="path4373-7-4-4" style="opacity:.4;stroke:#fff;stroke-width:1px;fill:none" d="m14 27.5h1.9995m3.0005 0h17"/>
 <path id="path4098-2" style="color:#000000;stroke:url(#linearGradient2955);stroke-linecap:square;fill:url(#linearGradient2953)" d="m16.921 32.5c-0.22895 0.01557-0.42426 0.19346-0.42122 0.38367v2.2322c-0.0025 0.20143 0.22008 0.38567 0.46334 0.38367h17.073c0.24325 0.002 0.46575-0.18224 0.46334-0.38367v-2.2322c0.003-0.201-0.219-0.386-0.462-0.384h-17.073c-0.01403-0.000534-0.02809-0.000534-0.04212 0z"/>
 <path id="path4106-9" style="opacity:.15" d="m16.445 33.001c-0.24167 0.02075-0.44783 0.25795-0.44462 0.51156v2.9763c-0.0026 0.26857 0.23231 0.51422 0.48908 0.51156h18.022c0.25677 0.0026 0.49163-0.24299 0.48908-0.51156v-2.9763c0.0026-0.26857-0.23231-0.51422-0.48908-0.51156h-18.022c-0.01481-0.000712-0.02965-0.000712-0.04446 0zm-4.9795 0c-0.25281 0.02075-0.46846 0.25795-0.46511 0.51156v2.9763c-0.0027 0.26857 0.24302 0.51422 0.51162 0.51156h2.9767c0.2686 0.0026 0.51429-0.24299 0.51162-0.51156v-2.9763c0.0027-0.26857-0.24302-0.51422-0.51162-0.51156h-2.9767c-0.01549-0.000712-0.03101-0.000712-0.04651 0z"/>
 <path id="path4373-2" style="opacity:.4;stroke:#fff;stroke-width:1px;fill:none" d="m17 33.5h17"/>
 <path id="rect4432-8" style="color:#000000;stroke:url(#linearGradient2948);stroke-linecap:square;fill:url(#linearGradient2946)" d="m12 32.5h2c0.277 0 0.5 0.223 0.5 0.5v2c0 0.277-0.223 0.5-0.5 0.5h-2c-0.277 0-0.5-0.223-0.5-0.5v-2c0-0.277 0.223-0.5 0.5-0.5zm4.9213 0.0004c-0.22895 0.01557-0.42426 0.19346-0.42122 0.38367v2.2322c-0.0025 0.20143 0.22008 0.38567 0.46334 0.38367h17.073c0.24325 0.002 0.46575-0.18224 0.46334-0.38367v-2.2322c0.003-0.201-0.219-0.386-0.462-0.384h-17.073c-0.01403-0.000533-0.02809-0.000533-0.04212 0z"/>
 <path id="path4373-7-4-1" style="opacity:.4;stroke:#fff;stroke-width:1px;fill:none" d="m12 33.5h1.9995m3.0005 0h17"/>
</svg>
