<?xml version="1.0" encoding="UTF-8" standalone="no"?>
<!-- Created with Inkscape (http://www.inkscape.org/) -->
<svg id="svg3865" xmlns:rdf="http://www.w3.org/1999/02/22-rdf-syntax-ns#" xmlns="http://www.w3.org/2000/svg" height="48px" width="48px" version="1.1" xmlns:cc="http://creativecommons.org/ns#" xmlns:xlink="http://www.w3.org/1999/xlink" xmlns:dc="http://purl.org/dc/elements/1.1/">
 <defs id="defs3867">
  <linearGradient id="linearGradient2979" y2="5.4565" gradientUnits="userSpaceOnUse" x2="36.358" gradientTransform="matrix(.99770 0 0 1.0407 .16380 -1.1058)" y1="8.059" x1="32.892">
   <stop id="stop8591" style="stop-color:#fefefe" offset="0"/>
   <stop id="stop8593" style="stop-color:#cbcbcb" offset="1"/>
  </linearGradient>
  <filter id="filter3248" height="1.3287" width="1.2969" y="-.16434" x="-.14846" color-interpolation-filters="sRGB">
   <feGaussianBlur id="feGaussianBlur3250" stdDeviation="0.77391625"/>
  </filter>
  <linearGradient id="linearGradient2983" y2="3.3639" xlink:href="#linearGradient3104" gradientUnits="userSpaceOnUse" x2="22.004" gradientTransform="translate(2.0179 -3.0471)" y1="47.813" x1="22.004"/>
  <linearGradient id="linearGradient3104">
   <stop id="stop3106" style="stop-color:#aaa" offset="0"/>
   <stop id="stop3108" style="stop-color:#c8c8c8" offset="1"/>
  </linearGradient>
  <linearGradient id="linearGradient2986" y2="46.017" gradientUnits="userSpaceOnUse" x2="24" gradientTransform="matrix(1 0 0 .97778 0 -.96667)" y1="2" x1="24">
   <stop id="stop3213" style="stop-color:#fff" offset="0"/>
   <stop id="stop3215" style="stop-color:#fff;stop-opacity:0" offset="1"/>
  </linearGradient>
  <linearGradient id="linearGradient2989" y2="46.264" gradientUnits="userSpaceOnUse" x2="-22.54" gradientTransform="matrix(.79932 0 0 1.0037 40.856 -1.5607)" y1="11.109" x1="-22.54">
   <stop id="stop3618" style="stop-color:#f0c178" offset="0"/>
   <stop id="stop3270" style="stop-color:#e18941" offset=".5"/>
   <stop id="stop3620" style="stop-color:#ec4f18" offset="1"/>
  </linearGradient>
  <linearGradient id="linearGradient2991" y2="1.7165" gradientUnits="userSpaceOnUse" x2="9.492" gradientTransform="matrix(.91101 0 0 0.977 .60274 -.94794)" y1="46.314" x1="9.492">
   <stop id="stop3624" style="stop-color:#c92e13" offset="0"/>
   <stop id="stop3626" style="stop-color:#dea176" offset="1"/>
  </linearGradient>
  <radialGradient id="radialGradient2994" gradientUnits="userSpaceOnUse" cy="112.3" cx="102" gradientTransform="matrix(.36170 0 0 -.39078 .85106 47.517)" r="139.56">
   <stop id="stop41" style="stop-color:#b7b8b9" offset="0"/>
   <stop id="stop47" style="stop-color:#ececec" offset=".18851"/>
   <stop id="stop49" style="stop-color:#fafafa;stop-opacity:0" offset=".25718"/>
   <stop id="stop51" style="stop-color:#fff;stop-opacity:0" offset=".30111"/>
   <stop id="stop53" style="stop-color:#fafafa;stop-opacity:0" offset=".53130"/>
   <stop id="stop55" style="stop-color:#ebecec;stop-opacity:0" offset=".84490"/>
   <stop id="stop57" style="stop-color:#e1e2e3;stop-opacity:0" offset="1"/>
  </radialGradient>
  <linearGradient id="linearGradient2997" y2="47.013" gradientUnits="userSpaceOnUse" x2="25.132" gradientTransform="matrix(1 0 0 .95617 -1e-7 -1.9149)" y1=".98521" x1="25.132">
   <stop id="stop3602" style="stop-color:#f4f4f4" offset="0"/>
   <stop id="stop3604" style="stop-color:#dbdbdb" offset="1"/>
  </linearGradient>
  <linearGradient id="linearGradient2999" y2="2.9062" xlink:href="#linearGradient3104" gradientUnits="userSpaceOnUse" x2="-51.786" gradientTransform="matrix(.80750 0 0 .89483 59.41 -2.9806)" y1="50.786" x1="-51.786"/>
  <radialGradient id="radialGradient3002" xlink:href="#linearGradient5060" gradientUnits="userSpaceOnUse" cy="486.65" cx="605.71" gradientTransform="matrix(.023040 0 0 0.0147 26.361 37.04)" r="117.14"/>
  <linearGradient id="linearGradient5060">
   <stop id="stop5062" offset="0"/>
   <stop id="stop5064" style="stop-opacity:0" offset="1"/>
  </linearGradient>
  <radialGradient id="radialGradient3005" xlink:href="#linearGradient5060" gradientUnits="userSpaceOnUse" cy="486.65" cx="605.71" gradientTransform="matrix(-.023040 0 0 0.0147 21.623 37.04)" r="117.14"/>
  <linearGradient id="linearGradient3863" y2="609.51" gradientUnits="userSpaceOnUse" y1="366.65" gradientTransform="matrix(.067325 0 0 0.0147 -.34114 37.04)" x2="302.86" x1="302.86">
   <stop id="stop5050" style="stop-opacity:0" offset="0"/>
   <stop id="stop5056" offset=".5"/>
   <stop id="stop5052" style="stop-opacity:0" offset="1"/>
  </linearGradient>
 </defs>
 <metadata id="metadata3870">
  <rdf:RDF>
   <cc:Work rdf:about="">
    <dc:format>image/svg+xml</dc:format>
    <dc:type rdf:resource="http://purl.org/dc/dcmitype/StillImage"/>
    <dc:title/>
   </cc:Work>
  </rdf:RDF>
 </metadata>
 <g id="layer1">
  <rect id="rect2879" style="opacity:.3;fill:url(#linearGradient3863)" height="3.5701" width="32.508" y="42.43" x="7.7378"/>
  <path id="path2881" style="opacity:.3;fill:url(#radialGradient3005)" d="m7.7378 42.43v3.5699c-1.1865 0.0067-2.8684-0.79982-2.8684-1.7852 0-0.98533 1.324-1.7847 2.8684-1.7847z"/>
  <path id="path2883" style="opacity:.3;fill:url(#radialGradient3002)" d="m40.246 42.43v3.5699c1.1865 0.0067 2.8684-0.79982 2.8684-1.7852 0-0.98533-1.324-1.7847-2.8684-1.7847z"/>
  <path id="path4160" style="stroke-linejoin:round;stroke:url(#linearGradient2999);stroke-width:.99992;fill:url(#linearGradient2997)" d="m6.5 0.4972h24.061c1.4069 0.47465 8.9655 5.8822 10.939 9.6264v34.379h-35v-44.006z"/>
  <path id="path4191" style="fill:url(#radialGradient2994)" d="m7.3617 44c-0.1993 0-0.3617-0.17546-0.3617-0.39078v-42.204c0-0.21571 0.1624-0.39078 0.3617-0.39078 7.4833 0.1082 15.775-0.16138 23.249 0.0271l10.283 8.866 0.106 33.702c0 0.216-0.162 0.391-0.362 0.391h-33.276z"/>
  <path id="path4530" style="stroke-linejoin:round;stroke:url(#linearGradient2991);stroke-width:1.0097;display:block;fill:url(#linearGradient2989)" d="m11.995 44.495h-5.2631c-0.4263-0.521-0.102-1.555-0.2033-2.292v-41.445l0.059468-0.1789 0.14401-0.073872h5.1915"/>
  <path id="path2435" style="opacity:.4;stroke-linejoin:round;stroke:url(#linearGradient2986);stroke-width:.99992;fill:none" d="m40.5 10.259v33.263h-33v-42.045h22.866"/>
  <path id="path3475" style="stroke:url(#linearGradient2983);stroke-width:1px;fill:none" d="m15 8.5h2.3438-2.3438zm2.6875 0h2.1875-2.1875zm2.5312 0h1.9375-1.9375zm2.25 0h0.84375-0.84375zm1.1875 0h1.875-1.875zm2.25 0h4.9375-4.9375zm5.25 0h3.7812-3.7812zm-16.156 2h3.6562-3.6562zm4.0625 0h1.75-1.75zm2.0625 0h0.875-0.875zm1.2188 0h1.5938-1.5938zm1.9375 0h1.625-1.625zm1.9375 0h2.5938-2.5938zm2.9375 0h3.375-3.375zm3.6875 0h2.25-2.25zm2.5625 0h0.5625-0.5625zm-20.406 1.969h3.0938-3.0938zm3.4062 0h5.0625-5.0625zm5.375 0h2.4688-2.4688zm2.7812 0h2.3125-2.3125zm2.625 0h1.9688-1.9688zm2.2812 0l3.094 0.031-3.093-0.031zm3.375 0.03125zm-19.843 2h4.281-4.281zm4.625 0h4.625-4.625zm4.9375 0h1.8438-1.8438zm2.1562 0h4.3438-4.3438zm4.625 0h2.9688-2.9688zm3.3125 0h1.1875-1.1875zm-19.656 2h1.594-1.594zm2.0938 0h5.9062-5.9062zm-2.094 3.969h3.0938-3.0938zm3.4062 0h5.0625-5.0625zm5.375 0h2.4688-2.4688zm2.7812 0h2.3125-2.3125zm2.625 0h1.9688-1.9688zm2.2812 0l3.094 0.031-3.093-0.031zm3.375 0.03125zm-19.843 2h2.344-2.344zm2.6875 0h2.1562-2.1562zm2.5312 0h1.9375-1.9375zm2.25 0h0.84375-0.84375zm1.1875 0h1.875-1.875zm2.25 0h4.9062-4.9062zm5.25 0h3.75-3.75zm4.0625 0h1.1875-1.1875zm-20.218 2h3.9375-3.9375zm4.25 0h4.2188-4.2188zm4.5312 0h1.625-1.625zm1.9375 0h3.9688-3.9688zm4.2812 0h5-5zm5.3438 0h1.8438-1.8438zm-20.343 2h4.281-4.281zm4.625 0h4.625-4.625zm4.9375 0h1.8438-1.8438zm2.1562 0h4.3438-4.3438zm4.625 0h2.9688-2.9688zm3.3125 0h1.1875-1.1875zm-19.656 2h3.656-3.656zm4.0625 0h1.75-1.75zm2.0625 0h0.875-0.875zm1.2188 0h1.5938-1.5938zm1.9375 0h1.625-1.625zm1.9375 0h2.5938-2.5938zm2.9375 0h3.375-3.375zm3.6875 0h2.25-2.25zm2.5625 0h0.5625-0.5625zm-20.406 3.969h3.0938-3.0938zm3.4062 0h5.0625-5.0625zm5.375 0h2.4688-2.4688zm2.7812 0h2.3125-2.3125zm2.625 0h1.9688-1.9688zm2.2812 0l3.094 0.031-3.093-0.031zm3.375 0.03125zm-19.843 2h3.656-3.656zm4.0625 0h1.75-1.75zm2.0625 0h0.875-0.875zm1.2188 0h1.5938-1.5938zm1.9375 0h1.625-1.625zm1.9375 0h2.5938-2.5938zm2.9375 0h3.375-3.375zm3.6875 0h2.25-2.25zm2.5625 0h0.5625-0.5625zm-20.406 2h3.875-3.875zm4.2188 0h1.2188-1.2188zm1.5312 0h2.7812-2.7812zm3.0938 0h4.0938-4.0938zm4.4375 0h2.7812-2.7812zm3.0625 0h0.59375-0.59375zm0.90625 0h3.5312-3.5312zm-17.25 2h3.875-3.875zm4.2188 0h1.75-1.75zm2.0625 0h2.75-2.75zm3.0625 0h2.9688-2.9688zm3.3125 0h1.1875-1.1875zm1.5 0h0.65625-0.65625zm1 0h1.8438-1.8438z"/>
  <path id="path12038" style="opacity:.4;fill-rule:evenodd;filter:url(#filter3248)" d="m28.617 0.92126c4.2825 0 2.1532 8.4832 2.1532 8.4832s10.358-1.8023 10.358 2.8187c0-2.6097-11.302-10.729-12.511-11.302z"/>
  <path id="path4474" style="fill:url(#linearGradient2979);fill-rule:evenodd" d="m28.617 0.92126c3.1865 0 2.3358 7.6619 2.3358 7.6619s10.175-0.98105 10.175 3.64c0-1.1259 0.08591-1.9322-0.13378-2.2836-1.5783-2.5242-8.3955-8.1884-10.857-8.9308-0.18422-0.055555-0.5927-0.087535-1.5198-0.087535z"/>
 </g>
</svg>
