<?xml version="1.0" encoding="UTF-8" standalone="no"?>
<!-- Created with Inkscape (http://www.inkscape.org/) -->
<svg id="svg2" xmlns="http://www.w3.org/2000/svg" height="24" width="24" version="1.0" xmlns:xlink="http://www.w3.org/1999/xlink">
 <defs id="defs4">
  <radialGradient id="radialGradient2670" gradientUnits="userSpaceOnUse" cy="46.87" cx="24.454" gradientTransform="matrix(.50982 0 0 .10274 -.46743 17.132)" r="19.614">
   <stop id="stop3439" offset="0"/>
   <stop id="stop3441" style="stop-opacity:0" offset="1"/>
  </radialGradient>
  <linearGradient id="linearGradient2667" y2="32.162" gradientUnits="userSpaceOnUse" x2="40.938" gradientTransform="matrix(.48580 0 0 .56676 .34231 -3.7558)" y1="32.162" x1="6.7268">
   <stop id="stop2413" style="stop-color:#fee7b1" offset="0"/>
   <stop id="stop2419" style="stop-color:#ebd4b4" offset=".25797"/>
   <stop id="stop2421" style="stop-color:#c8a775" offset=".50797"/>
   <stop id="stop2423" style="stop-color:#b0935b" offset=".74010"/>
   <stop id="stop2415" style="stop-color:#fcebbf" offset="1"/>
  </linearGradient>
  <linearGradient id="linearGradient2654" y2="36.127" gradientUnits="userSpaceOnUse" x2="30.875" gradientTransform="matrix(.45413 0 0 .50788 1.1076 -.99312)" y1="25.002" x1="10.907">
   <stop id="stop9847" style="stop-color:#fff" offset="0"/>
   <stop id="stop9849" style="stop-color:#fff;stop-opacity:.49485" offset="1"/>
  </linearGradient>
  <linearGradient id="linearGradient2651" y2="17" gradientUnits="userSpaceOnUse" x2="24.75" gradientTransform="matrix(.47059 0 0 .80748 .70588 -5.1887)" y1="21" x1="24.875">
   <stop id="stop5883" style="stop-color:#d6c8a7" offset="0"/>
   <stop id="stop5885" style="stop-color:#d0bd99" offset="1"/>
  </linearGradient>
  <linearGradient id="linearGradient2648" y2="18.038" gradientUnits="userSpaceOnUse" x2="21.942" gradientTransform="matrix(.45455 0 0 .25159 1.0909 6.0971)" y1="21.551" x1="21.942">
   <stop id="stop12073" style="stop-color:#fff" offset="0"/>
   <stop id="stop12075" style="stop-color:#fff;stop-opacity:0" offset="1"/>
  </linearGradient>
  <filter id="filter5957" height="1.1647" width="1.9882" color-interpolation-filters="sRGB" y="-.082353" x="-.49412">
   <feGaussianBlur id="feGaussianBlur5959" stdDeviation="0.69878785"/>
  </filter>
  <radialGradient id="radialGradient3446" xlink:href="#linearGradient6075" gradientUnits="userSpaceOnUse" cy="20.312" cx="15.938" gradientTransform="matrix(.75472 0 0 .37736 -4.5283 1.5849)" r="3.3125"/>
  <linearGradient id="linearGradient6075">
   <stop id="stop6077" offset="0"/>
   <stop id="stop6079" style="stop-opacity:0" offset="1"/>
  </linearGradient>
  <radialGradient id="radialGradient3444" xlink:href="#linearGradient6075" gradientUnits="userSpaceOnUse" cy="20.312" cx="15.938" gradientTransform="matrix(.75472 0 0 .37736 4.4717 1.5849)" r="3.3125"/>
  <linearGradient id="linearGradient2638" y2="17.47" gradientUnits="userSpaceOnUse" x2="27.192" gradientTransform="matrix(.40937 0 0 .47152 2.1465 -1.81)" y1="2.9137" x1="10.651">
   <stop id="stop10593" style="stop-color:#cad0c6" offset="0"/>
   <stop id="stop10599" style="stop-color:#eaece9" offset=".5"/>
   <stop id="stop10595" style="stop-color:#c5cbc0" offset="1"/>
  </linearGradient>
  <linearGradient id="linearGradient2623" y2="14.85" xlink:href="#linearGradient6075" gradientUnits="userSpaceOnUse" x2="33.004" gradientTransform="translate(1.6824 1.125)" y1="14.85" x1="35.005"/>
  <filter id="filter6251" height="1.0952" width="1.4849" color-interpolation-filters="sRGB" y="-.047579" x="-.24243">
   <feGaussianBlur id="feGaussianBlur6253" stdDeviation="0.24444548"/>
  </filter>
  <linearGradient id="linearGradient2625" y2="13.789" xlink:href="#linearGradient6075" gradientUnits="userSpaceOnUse" x2="35.021" gradientTransform="translate(-19.533 1.7437)" y1="13.789" x1="32.128"/>
  <filter id="filter5745" color-interpolation-filters="sRGB">
   <feGaussianBlur id="feGaussianBlur5747" stdDeviation="0.8362597"/>
  </filter>
 </defs>
 <g id="layer1">
  <path id="path3435" style="opacity:.4;fill:url(#radialGradient2670)" d="m22 21.947c0 1.113-4.4771 2.0152-9.9999 2.0152s-9.9999-0.90224-9.9999-2.0152 4.4771-2.0152 9.9999-2.0152 9.9999 0.90224 9.9999 2.0152z"/>
  <path id="rect1314" style="stroke-linejoin:round;fill-rule:evenodd;stroke:#a2824e;stroke-linecap:round;fill:url(#linearGradient2667)" d="m4.5857 8.0018c4.8977-0.72404 9.8475-0.61163 14.828 0 0.60151 0 1.0857 0.52347 1.0857 1.1737v11.698c0 0.65024-0.5155 1.0797-1.0857 1.1737-5.164 0.60626-9.5919 0.60147-14.828 0-0.6955-0.22-1.086-0.524-1.086-1.175v-11.698c0-0.65024 0.48424-1.1737 1.0857-1.1737z"/>
  <path id="rect6903" style="opacity:0.38;stroke-linejoin:round;stroke-opacity:.60109;stroke:url(#linearGradient2654);stroke-linecap:round;fill:none" d="m5.0857 9.5h13.829c0.32446 0 0.58567 0.26635 0.58567 0.5972v10.396c0 0.33085-0.23192 0.48359-0.58567 0.5972-4.5217 0.54696-8.9848 0.5457-13.829 0-0.32446-0.11361-0.58567-0.26635-0.58567-0.5972v-10.396c0-0.33085 0.26121-0.5972 0.58567-0.5972z"/>
  <path id="rect1460" style="fill-rule:evenodd;fill:url(#linearGradient2651)" d="m4.7794 8.5385c4.8137-0.78635 9.6274-0.64629 14.441 0 0.4318 0 0.77943 0.386 0.77943 0.86548v1.499c0 0.47947-0.34763 0.86548-0.77943 0.86548-5.0234 0.3715-9.6454 0.23891-14.441 0-0.4314 0-0.779-0.386-0.779-0.865v-1.499c0-0.4795 0.3476-0.8655 0.7794-0.8655z"/>
  <path id="rect1593" style="opacity:.6;stroke-linejoin:round;stroke:url(#linearGradient2648);stroke-linecap:round;fill:none" d="m5.0455 10.5h13.909c0.30223 0 0.54554 0.1293 0.54554 0.2899v0.17499c0 0.1606-0.24331 0.2899-0.54554 0.2899-4.593 0.31718-9.238 0.33659-13.909 0-0.30223 0-0.54554-0.1293-0.54554-0.2899v-0.17499c0-0.1606 0.24331-0.2899 0.54554-0.2899z"/>
  <rect id="rect5887" style="opacity:.2;fill-rule:evenodd;filter:url(#filter5957);fill:#fff" transform="matrix(.92340 0 0 .57774 -7.227 -2.3565)" rx="1.6077" ry="1.6077" height="16.971" width="2.8284" y="23.226" x="14.594"/>
  <path id="path6073" style="opacity:.3;fill-rule:evenodd;fill:url(#radialGradient3446)" d="m10 9.25c0 0.6904-1.1193 1.25-2.5 1.25s-2.5-0.5596-2.5-1.25 1.1193-1.25 2.5-1.25 2.5 0.5596 2.5 1.25z"/>
  <path id="path6083" style="opacity:.3;fill-rule:evenodd;fill:url(#radialGradient3444)" d="m19 9.25c0 0.6904-1.119 1.25-2.5 1.25s-2.5-0.5596-2.5-1.25 1.119-1.25 2.5-1.25 2.5 0.5596 2.5 1.25z"/>
  <path id="path2086" style="fill-rule:evenodd;stroke:#888a85;fill:url(#linearGradient2638)" d="m6.5022 8.6395v-2.7041c0-3.711 2.1522-5.4739 5.4773-5.4276 3.3431 0.046344 5.5183 1.673 5.5183 5.4276v2.822c0 0.92147-2.2477 1.0387-2.2477 0v-1.879c0-0.94305 0.2327-3.9947-3.2471-3.9947-3.4511 0-3.1997 3.0704-3.1863 3.9909v1.7807c0 1.1103-2.3144 1.1055-2.3144-0.01588z"/>
  <path id="rect1345" style="opacity:.18235;filter:url(#filter6251);fill:url(#linearGradient2623);fill-rule:evenodd" d="m34.687 10.837 1.2639 0.125c0.92724 2.8227 0.73605 9.5104 0.73605 9.5104-0.0625 1.125-2.0312 0.53125-2 0v-9.6354z" transform="matrix(.40937 0 0 .47152 2.1465 -.90174)"/>
  <path id="path6332" style="opacity:.14118;filter:url(#filter6251);fill:url(#linearGradient2625);fill-rule:evenodd" d="m12.927 11.544 0.37172 0.1692c1.7203 1.055 2.1735 9.3778 2.1735 9.3778-0.0625 1.125-2.0312 0.53125-2 0 0 0 0.37822-6.8706-0.54525-9.547z" transform="matrix(-.40937 0 0 .47152 14.042 -1.1935)"/>
  <path id="path5675" style="opacity:.62353;stroke-width:4.2983;filter:url(#filter5745);stroke:#fff;stroke-linecap:round;fill:none" d="m13.877 17.722 0.125-7.5c0-9.8764 18.688-10.676 18.688 0.875v6.875" transform="matrix(.45915 0 0 .47152 .97831 .22752)"/>
 </g>
</svg>
