<?xml version="1.0" encoding="UTF-8" standalone="no"?>
<!-- Created with Inkscape (http://www.inkscape.org/) -->
<svg id="svg2896" xmlns="http://www.w3.org/2000/svg" height="24" width="24" version="1.1">
 <g id="layer1" transform="translate(1 8)">
  <g id="layer1-3" transform="translate(-2 -5)">
   <path id="rect2196" style="stroke-linejoin:round;stroke:#606060;stroke-linecap:round;stroke-width:.97899;fill:none" d="m16.499 3.51v-1.01h-5.0313l-1.5264-1h-6.4418v11.011c-0.00224 0.88609 0.36634 2.1366 2.3359 1.9895"/>
   <path id="rect3086" style="stroke-linejoin:round;stroke:#606060;stroke-linecap:round;stroke-width:.99983;fill:none" d="m10.012 14.5h-4.7561l-0.95641-0.3c1.8591 0.207 1.1999-6.0333 1.1999-9.7h13v7.65"/>
   <path id="path3594" style="opacity:.4;stroke-linejoin:round;stroke:#606060;stroke-linecap:round;stroke-width:.99983;fill:none" d="m10.312 13.5-4.8126 0.000373c1.6268-1.605 1-5 1-8h11v6.0004"/>
  </g>
 </g>
 <path id="path3659" style="fill:#878787" d="m12 18h2v2h-2v-2zm0-8v5l0.5 2h1l0.5-2v-5h-2z"/>
</svg>
