<?xml version="1.0" encoding="UTF-8" standalone="no"?>
<!-- Created with Inkscape (http://www.inkscape.org/) -->
<svg id="svg3602" xmlns="http://www.w3.org/2000/svg" height="48" width="48" version="1.0" xmlns:xlink="http://www.w3.org/1999/xlink">
 <defs id="defs3604">
  <radialGradient id="radialGradient2810" gradientUnits="userSpaceOnUse" cy="5.0172" cx="3" gradientTransform="matrix(-1.2749e-8 1.7143 -2.1593 -1.46e-8 12.809 2.857)" r="21">
   <stop id="stop3486" style="stop-color:#bdbdbd" offset="0"/>
   <stop id="stop3488" style="stop-color:#d0d0d0" offset="1"/>
  </radialGradient>
  <linearGradient id="linearGradient2808" y2="16.19" gradientUnits="userSpaceOnUse" x2="62.989" gradientTransform="translate(-50.941)" y1="13.183" x1="62.989">
   <stop id="stop6406" style="stop-color:#f9f9f9" offset="0"/>
   <stop id="stop6408" style="stop-color:#c9c9c9" offset="1"/>
  </linearGradient>
  <radialGradient id="radialGradient7600-312" gradientUnits="userSpaceOnUse" cy="486.65" cx="605.71" gradientTransform="matrix(-.032130 0 0 .037059 23.363 25.412)" r="117.14">
   <stop id="stop2681" offset="0"/>
   <stop id="stop2683" style="stop-opacity:0" offset="1"/>
  </radialGradient>
  <radialGradient id="radialGradient7598-526" gradientUnits="userSpaceOnUse" cy="486.65" cx="605.71" gradientTransform="matrix(.032130 0 0 .037059 24.637 25.412)" r="117.14">
   <stop id="stop2675" offset="0"/>
   <stop id="stop2677" style="stop-opacity:0" offset="1"/>
  </radialGradient>
  <linearGradient id="linearGradient7596-975" y2="609.51" gradientUnits="userSpaceOnUse" x2="302.86" gradientTransform="matrix(.082840 0 0 .037059 -5.9408 25.412)" y1="366.65" x1="302.86">
   <stop id="stop2667" style="stop-opacity:0" offset="0"/>
   <stop id="stop2669" offset=".5"/>
   <stop id="stop2671" style="stop-opacity:0" offset="1"/>
  </linearGradient>
  <linearGradient id="linearGradient2801" y2="15.944" xlink:href="#linearGradient3390-178-986-453" gradientUnits="userSpaceOnUse" x2="65.34" gradientTransform="translate(-53.765 -.11419)" y1="45.114" x1="82.453"/>
  <radialGradient id="radialGradient2799" gradientUnits="userSpaceOnUse" cy="14.113" cx="63.969" gradientTransform="matrix(1.5647 -9.5143e-8 6.1772e-8 1.0159 -86.213 8.1461)" r="23.097">
   <stop id="stop3618" style="stop-color:#f0c178" offset="0"/>
   <stop id="stop3270" style="stop-color:#e18941" offset=".5"/>
   <stop id="stop3620" style="stop-color:#ec4f18" offset="1"/>
  </radialGradient>
  <linearGradient id="linearGradient2796" y2="36.658" gradientUnits="userSpaceOnUse" x2="22.809" gradientTransform="matrix(1.1447 0 0 .99775 -3.4661 1.0988)" y1="49.629" x1="22.935">
   <stop id="stop2661" style="stop-color:#0a0a0a;stop-opacity:.498" offset="0"/>
   <stop id="stop2663" style="stop-color:#0a0a0a;stop-opacity:0" offset="1"/>
  </linearGradient>
  <radialGradient id="radialGradient2793" gradientUnits="userSpaceOnUse" cy="8.3021" cx="7.2647" gradientTransform="matrix(0 1.208 -1.6272 0 26.372 8.2665)" r="20.98">
   <stop id="stop2693" style="stop-color:#fff;stop-opacity:0.4" offset="0"/>
   <stop id="stop2695" style="stop-color:#fff;stop-opacity:0" offset="1"/>
  </radialGradient>
  <linearGradient id="linearGradient2790" y2="33.955" gradientUnits="userSpaceOnUse" x2="15.215" y1="22.292" x1="11.566">
   <stop id="stop2687" style="stop-color:#fff;stop-opacity:.27451" offset="0"/>
   <stop id="stop2689" style="stop-color:#fff;stop-opacity:.078431" offset="1"/>
  </linearGradient>
  <linearGradient id="linearGradient3390-178-986-453">
   <stop id="stop3624" style="stop-color:#bb2b12" offset="0"/>
   <stop id="stop3626" style="stop-color:#cd7233" offset="1"/>
  </linearGradient>
  <linearGradient id="linearGradient3588" y2="23.614" xlink:href="#linearGradient3390-178-986-453" gradientUnits="userSpaceOnUse" x2="14.265" y1="44.916" x1="23.964"/>
 </defs>
 <g id="layer1">
  <path id="path3468" style="stroke-linejoin:round;stroke:url(#radialGradient2810);stroke-linecap:round;fill:url(#linearGradient2808)" d="m3.5062 8.5c-0.6902 0.0077-1.0004 0.3421-1.0004 1 0 5.514 0.0263 9.74-0.0058 14.75 1.4355 0 43-3.699 43-5.292v-6.451c0-0.658-0.554-1.008-1.244-1h-20.256c-2.047 0-3.499-3.007-5-3.007h-15.494 0.0002z"/>
  <g id="g7591" style="opacity:.4" transform="matrix(.95833 0 0 .66667 1 15)">
   <rect id="rect4173" style="fill:url(#linearGradient7596-975)" height="9" width="40" y="39" x="4"/>
   <path id="path5058" style="fill:url(#radialGradient7598-526)" d="m44 39v9c1.655 0.017 4-2.017 4-4.501s-1.846-4.499-4-4.499z"/>
   <path id="path5018" style="fill:url(#radialGradient7600-312)" d="m4 39v9c-1.6546 0.017-4-2.017-4-4.501s1.8464-4.499 4-4.499z"/>
  </g>
  <path id="path3388" style="stroke-linejoin:round;stroke:url(#linearGradient2801);stroke-linecap:round;fill:url(#radialGradient2799)" d="m2.1629 16.525c-1.0728 0.124-0.4998 1.402-0.5853 2.121 0.3925 8.47 0.7889 16.77 1.179 25.24 0.3418 0.966 1.5944 0.471 2.3881 0.594h39.58c1.09-0.107 0.637-1.408 0.79-2.153 0.393-8.47 0.789-16.769 1.179-25.239-0.251-0.955-1.519-0.424-2.263-0.563h-42.268-0.0001z"/>
  <path id="path6127" style="opacity:.4;fill:url(#linearGradient2796)" d="m2.0582 16.065l43.897 0.001c0.634 0 1.045 0.444 1.045 0.997l-1.244 26.939c0 0.553-0.511 0.998-1.145 0.998h-41.209c-0.6341 0-1.1447-0.445-1.1447-0.998l-1.2442-26.939c0-0.553 0.411-0.998 1.0451-0.998z"/>
  <path id="path2435" style="stroke-linejoin:round;stroke:url(#radialGradient2793);stroke-linecap:round;fill:none" d="m46.5 17.5h-44l1.1562 24.531"/>
  <path id="path3455" style="fill:url(#linearGradient2790)" d="m45.75 16c-14.55 0.073-29.105-0.021-43.656 0-1.807 0.411-0.8347 2.467-0.9727 3.772 0.2221 4.163 0.3231 8.344 0.6205 12.496 15-2.362 29.926-4.607 44.664-7.049 0.781-2.587 0.788-5.671 0.658-8.429-0.23-0.505-0.787-0.801-1.314-0.79z"/>
  <rect id="rect3562" style="display:block;fill:#eda374" rx="1" ry="1" height="2" width="13" y="10" x="5"/>
  <path id="path2812" style="opacity:.4;fill-rule:evenodd;fill:#fff" d="m29.611 21.024c-0.85 0.144-1.469 0.886-1.457 1.748 0 0.966 0.783 1.748 1.749 1.748s1.749-0.782 1.749-1.748c0.007-0.518-0.217-1.014-0.611-1.351-0.394-0.338-0.918-0.483-1.43-0.397zm-5.502 1.967c-0.755 0.002-1.503 0.173-2.368 0.583l1.494 2.986c2.848-0.804 5.334 1.022 6.303 3.969h3.462c-0.333-1.721-1.045-3.476-2.259-4.77-0.848 0.432-1.888 0.466-2.769-0.037s-1.376-1.425-1.422-2.367c-0.934-0.216-1.686-0.366-2.441-0.364zm-4.117 1.311c-1.475 1.022-2.924 2.989-3.316 4.843 1.088 0.566 1.636 1.44 1.676 2.913 0.037 1.384-0.804 2.283-1.567 2.841 0.676 1.309 2.148 3.187 3.425 3.787l1.421-3.423c-1.995-1.532-2.727-4.867 0-7.611l-1.639-3.35zm-5.357 6.009c-0.791 0.051-1.448 0.628-1.602 1.405-0.153 0.777 0.235 1.56 0.946 1.908 0.866 0.433 1.918 0.082 2.351-0.783 0.432-0.864 0.082-1.916-0.784-2.348-0.281-0.142-0.596-0.205-0.911-0.182zm14.903 2.221c-0.792 2.881-3.005 4.689-6.121 3.824l-1.385 3.241c1.659 0.541 2.614 0.601 4.446 0.109 0.052-0.944 0.571-1.82 1.457-2.331 0.887-0.511 1.925-0.535 2.769-0.109 1.083-1.392 2.02-2.958 2.296-4.734h-3.462zm0.255 5.972c-0.923 0.058-1.641 0.824-1.639 1.748 0 0.965 0.783 1.748 1.749 1.748s1.749-0.783 1.749-1.748c0.001-0.483-0.198-0.945-0.551-1.276-0.352-0.331-0.825-0.502-1.308-0.472z"/>
  <path id="path19" style="fill-rule:evenodd;fill:url(#linearGradient3588)" d="m29.611 20.024c-0.85 0.144-1.469 0.886-1.457 1.748 0 0.966 0.783 1.748 1.749 1.748s1.749-0.782 1.749-1.748c0.007-0.518-0.217-1.014-0.611-1.351-0.394-0.338-0.918-0.483-1.43-0.397zm-5.502 1.967c-0.755 0.002-1.503 0.173-2.368 0.583l1.494 2.986c2.848-0.804 5.334 1.022 6.303 3.969h3.462c-0.333-1.721-1.045-3.476-2.259-4.77-0.848 0.432-1.888 0.466-2.769-0.037s-1.376-1.425-1.422-2.367c-0.934-0.216-1.686-0.366-2.441-0.364zm-4.117 1.311c-1.475 1.022-2.924 2.989-3.316 4.843 1.088 0.566 1.636 1.44 1.676 2.913 0.037 1.384-0.804 2.283-1.567 2.841 0.676 1.309 2.148 3.187 3.425 3.787l1.421-3.423c-1.995-1.532-2.727-4.867 0-7.611l-1.639-3.35zm-5.357 6.009c-0.791 0.051-1.448 0.628-1.602 1.405-0.153 0.777 0.235 1.56 0.946 1.908 0.866 0.433 1.918 0.082 2.351-0.783 0.432-0.864 0.082-1.916-0.784-2.348-0.281-0.142-0.596-0.205-0.911-0.182zm14.903 2.221c-0.792 2.881-3.005 4.689-6.121 3.824l-1.385 3.241c1.659 0.541 2.614 0.601 4.446 0.109 0.052-0.944 0.571-1.82 1.457-2.331 0.887-0.511 1.925-0.535 2.769-0.109 1.083-1.392 2.02-2.958 2.296-4.734h-3.462zm0.255 5.972c-0.923 0.058-1.641 0.824-1.639 1.748 0 0.965 0.783 1.748 1.749 1.748s1.749-0.783 1.749-1.748c0.001-0.483-0.198-0.945-0.551-1.276-0.352-0.331-0.825-0.502-1.308-0.472z"/>
 </g>
</svg>
