<?xml version="1.0" encoding="UTF-8" standalone="no"?>
<!-- Created with Inkscape (http://www.inkscape.org/) -->
<svg id="svg3396" xmlns="http://www.w3.org/2000/svg" height="48" width="48" version="1.0" xmlns:xlink="http://www.w3.org/1999/xlink">
 <defs id="defs3398">
  <radialGradient id="radialGradient3051" gradientUnits="userSpaceOnUse" cy="34.786" cx="14.363" gradientTransform="matrix(-.60667 0 0 .40349 41 26.347)" r="8.7946">
   <stop id="stop7824" offset="0"/>
   <stop id="stop7826" style="stop-opacity:0" offset="1"/>
  </radialGradient>
  <linearGradient id="linearGradient3048" y2="-6.5684" gradientUnits="userSpaceOnUse" x2="-11.006" gradientTransform="matrix(1.1875 0 0 1.2 -16.299 21.893)" y1="25.357" x1="-7.9751">
   <stop id="stop6993" style="stop-color:#d3d7cf" offset="0"/>
   <stop id="stop6995" style="stop-color:#fff" offset="1"/>
  </linearGradient>
  <linearGradient id="linearGradient3044" y2="18.938" gradientUnits="userSpaceOnUse" x2="-5.5099" gradientTransform="matrix(-1.1975 0 0 1.2115 16.235 21.801)" y1="3.7546" x1="-7.8517">
   <stop id="stop7440" style="stop-color:#fff" offset="0"/>
   <stop id="stop7442" style="stop-color:#fff;stop-opacity:0" offset="1"/>
  </linearGradient>
  <linearGradient id="linearGradient3040" y2="54.416" gradientUnits="userSpaceOnUse" x2=".82207" gradientTransform="matrix(-.61227 0 0 .62977 31.734 4.0477)" y1="55.219" x1="1.6256">
   <stop id="stop7265" style="stop-color:#adb0a8" offset="0"/>
   <stop id="stop7267" style="stop-color:#fff" offset="1"/>
  </linearGradient>
  <linearGradient id="linearGradient3037" y2="54.708" xlink:href="#linearGradient7269" gradientUnits="userSpaceOnUse" x2="-4.2209" gradientTransform="matrix(-.59041 0 0 .61227 31.887 5.1148)" y1="59.879" x1="-4.2209"/>
  <linearGradient id="linearGradient3034" y2="54" gradientUnits="userSpaceOnUse" x2="-3.3588" gradientTransform="matrix(-.52481 0 0 .52481 31.822 10.45)" y1="51.138" x1="-1.9887">
   <stop id="stop7259" offset="0"/>
   <stop id="stop7261" style="stop-opacity:0" offset="1"/>
  </linearGradient>
  <linearGradient id="linearGradient3028" y2="50.563" gradientUnits="userSpaceOnUse" x2=".88388" gradientTransform="matrix(-.52481 0 0 .52481 31.822 10.45)" y1="52.64" x1="-4.6846">
   <stop id="stop7239" style="stop-color:#eeeeec" offset="0"/>
   <stop id="stop7241" style="stop-color:#babdb6" offset="1"/>
  </linearGradient>
  <linearGradient id="linearGradient3025" y2="49.458" gradientUnits="userSpaceOnUse" x2=".26517" gradientTransform="matrix(-.52481 0 0 .52481 31.822 10.45)" y1="50.519" x1="-5.0823">
   <stop id="stop7247" style="stop-color:#eeeeec" offset="0"/>
   <stop id="stop7249" style="stop-color:#fff" offset="1"/>
  </linearGradient>
  <linearGradient id="linearGradient3022" y2="51.812" gradientUnits="userSpaceOnUse" x2="-5.9688" gradientTransform="matrix(-.52481 0 0 .52481 31.822 10.45)" y1="52.875" x1="-5.9688">
   <stop id="stop7188" style="stop-color:#888a85" offset="0"/>
   <stop id="stop7190" style="stop-color:#fff" offset="1"/>
  </linearGradient>
  <linearGradient id="linearGradient3019" y2="59.445" gradientUnits="userSpaceOnUse" x2="-3.5355" gradientTransform="matrix(-.52481 0 0 .53980 31.822 9.8506)" y1="55.867" x1="-3.5355">
   <stop id="stop7279" style="stop-color:#555753" offset="0"/>
   <stop id="stop7281" style="stop-color:#d3d7cf" offset="1"/>
  </linearGradient>
  <linearGradient id="linearGradient3016" y2="26.205" gradientUnits="userSpaceOnUse" x2="32.812" gradientTransform="matrix(-.58643 0 0 .58583 41.324 17.812)" y1="21" x1="32.812">
   <stop id="stop7342" style="stop-color:#2e3436" offset="0"/>
   <stop id="stop7344" style="stop-color:#555753" offset="1"/>
  </linearGradient>
  <linearGradient id="linearGradient3013" y2="16" gradientUnits="userSpaceOnUse" x2="29" gradientTransform="matrix(-.53925 0 0 .53925 39.932 18.86)" y1="29" x1="28.875">
   <stop id="stop7432" style="stop-color:#fff" offset="0"/>
   <stop id="stop7434" style="stop-color:#fff;stop-opacity:0" offset="1"/>
  </linearGradient>
  <linearGradient id="linearGradient3010" y2="24.688" xlink:href="#linearGradient7422" gradientUnits="userSpaceOnUse" x2="30.312" gradientTransform="matrix(-.53925 0 0 .53925 39.932 18.32)" y1="27.313" x1="30.312"/>
  <linearGradient id="linearGradient7422">
   <stop id="stop7424" style="stop-color:#edd400" offset="0"/>
   <stop id="stop7426" style="stop-color:#edd400;stop-opacity:0" offset="1"/>
  </linearGradient>
  <linearGradient id="linearGradient2998" y2="46.562" gradientUnits="userSpaceOnUse" x2="40.125" gradientTransform="matrix(-.52481 0 0 .52481 40.218 23.046)" y1="40.625" x1="38.75">
   <stop id="stop3231" style="stop-color:#787878" offset="0"/>
   <stop id="stop3233" style="stop-color:#6c6c6c;stop-opacity:0" offset="1"/>
  </linearGradient>
  <linearGradient id="linearGradient2996" y2="45.062" gradientUnits="userSpaceOnUse" x2="38.875" gradientTransform="matrix(-.52481 0 0 .52481 40.218 23.046)" y1="40.312" x1="37.625">
   <stop id="stop3225" style="stop-color:#dbdbdb" offset="0"/>
   <stop id="stop3227" style="stop-color:#a0a0a0;stop-opacity:0" offset="1"/>
  </linearGradient>
  <linearGradient id="linearGradient2993" y2="42.938" gradientUnits="userSpaceOnUse" x2="42.124" gradientTransform="matrix(-.52481 0 0 .52481 40.218 23.046)" y1="38.312" x1="41.188">
   <stop id="stop7662" style="stop-color:#fff" offset="0"/>
   <stop id="stop7664" style="stop-color:#fff;stop-opacity:0" offset="1"/>
  </linearGradient>
  <linearGradient id="linearGradient7269">
   <stop id="stop7271" style="stop-color:#fff" offset="0"/>
   <stop id="stop7273" style="stop-color:#d3d7cf" offset="1"/>
  </linearGradient>
  <linearGradient id="linearGradient2990" y2="55" xlink:href="#linearGradient7269" gradientUnits="userSpaceOnUse" x2="-4.1098" gradientTransform="matrix(-.59041 0 0 .61227 31.887 5.1312)" y1="58.808" x1="-4.1098"/>
  <linearGradient id="linearGradient2987" y2="34.562" gradientUnits="userSpaceOnUse" x2="-7.7812" gradientTransform="matrix(-.52481 0 0 .52481 29.722 23.046)" y1="32.438" x1="-6.4062">
   <stop id="stop7814" offset="0"/>
   <stop id="stop7816" style="stop-opacity:0" offset="1"/>
  </linearGradient>
  <radialGradient id="radialGradient2455" gradientUnits="userSpaceOnUse" cy="5.0172" cx="3" gradientTransform="matrix(-1.2749e-8 1.7143 -2.1593 -1.46e-8 12.809 2.857)" r="21">
   <stop id="stop3486" style="stop-color:#bdbdbd" offset="0"/>
   <stop id="stop3488" style="stop-color:#d0d0d0" offset="1"/>
  </radialGradient>
  <linearGradient id="linearGradient2453" y2="16.19" gradientUnits="userSpaceOnUse" x2="62.989" gradientTransform="translate(-50.941)" y1="13.183" x1="62.989">
   <stop id="stop6406" style="stop-color:#f9f9f9" offset="0"/>
   <stop id="stop6408" style="stop-color:#c9c9c9" offset="1"/>
  </linearGradient>
  <radialGradient id="radialGradient7600-312" gradientUnits="userSpaceOnUse" cy="486.65" cx="605.71" gradientTransform="matrix(-.032130 0 0 .037059 23.363 25.412)" r="117.14">
   <stop id="stop2681" offset="0"/>
   <stop id="stop2683" style="stop-opacity:0" offset="1"/>
  </radialGradient>
  <radialGradient id="radialGradient7598-526" gradientUnits="userSpaceOnUse" cy="486.65" cx="605.71" gradientTransform="matrix(.032130 0 0 .037059 24.637 25.412)" r="117.14">
   <stop id="stop2675" offset="0"/>
   <stop id="stop2677" style="stop-opacity:0" offset="1"/>
  </radialGradient>
  <linearGradient id="linearGradient7596-975" y2="609.51" gradientUnits="userSpaceOnUse" x2="302.86" gradientTransform="matrix(.082840 0 0 .037059 -5.9408 25.412)" y1="366.65" x1="302.86">
   <stop id="stop2667" style="stop-opacity:0" offset="0"/>
   <stop id="stop2669" offset=".5"/>
   <stop id="stop2671" style="stop-opacity:0" offset="1"/>
  </linearGradient>
  <linearGradient id="linearGradient2446" y2="15.944" gradientUnits="userSpaceOnUse" x2="65.34" gradientTransform="translate(-53.765 -.11419)" y1="45.114" x1="82.453">
   <stop id="stop3624" style="stop-color:#bb2b12" offset="0"/>
   <stop id="stop3626" style="stop-color:#cd7233" offset="1"/>
  </linearGradient>
  <radialGradient id="radialGradient2444" gradientUnits="userSpaceOnUse" cy="14.113" cx="63.969" gradientTransform="matrix(1.5647 -9.5143e-8 6.1772e-8 1.0159 -86.213 8.1461)" r="23.097">
   <stop id="stop3618" style="stop-color:#f0c178" offset="0"/>
   <stop id="stop3270" style="stop-color:#e18941" offset=".5"/>
   <stop id="stop3620" style="stop-color:#ec4f18" offset="1"/>
  </radialGradient>
  <linearGradient id="linearGradient2441" y2="36.658" gradientUnits="userSpaceOnUse" x2="22.809" gradientTransform="matrix(1.1447 0 0 .99775 -3.4661 1.0988)" y1="49.629" x1="22.935">
   <stop id="stop2661" style="stop-color:#0a0a0a;stop-opacity:.498" offset="0"/>
   <stop id="stop2663" style="stop-color:#0a0a0a;stop-opacity:0" offset="1"/>
  </linearGradient>
  <radialGradient id="radialGradient2438" gradientUnits="userSpaceOnUse" cy="8.3021" cx="7.2647" gradientTransform="matrix(0 1.208 -1.6272 0 26.372 8.2665)" r="20.98">
   <stop id="stop2693" style="stop-color:#fff;stop-opacity:0.4" offset="0"/>
   <stop id="stop2695" style="stop-color:#fff;stop-opacity:0" offset="1"/>
  </radialGradient>
  <linearGradient id="linearGradient2435" y2="33.955" gradientUnits="userSpaceOnUse" x2="15.215" y1="22.292" x1="11.566">
   <stop id="stop2687" style="stop-color:#fff;stop-opacity:.27451" offset="0"/>
   <stop id="stop2689" style="stop-color:#fff;stop-opacity:.078431" offset="1"/>
  </linearGradient>
 </defs>
 <g id="layer1">
  <path id="path3468" style="stroke-linejoin:round;stroke:url(#radialGradient2455);stroke-linecap:round;fill:url(#linearGradient2453)" d="m3.5062 8.5c-0.6902 0.0077-1.0004 0.3421-1.0004 1 0 5.514 0.0263 9.74-0.0058 14.75 1.4355 0 43-3.699 43-5.292v-6.451c0-0.658-0.554-1.008-1.244-1h-20.256c-2.047 0-3.499-3.007-5-3.007h-15.494 0.0002z"/>
  <g id="g7591" style="opacity:.4" transform="matrix(.95833 0 0 .66667 1 15)">
   <rect id="rect4173" style="fill:url(#linearGradient7596-975)" height="9" width="40" y="39" x="4"/>
   <path id="path5058" style="fill:url(#radialGradient7598-526)" d="m44 39v9c1.655 0.017 4-2.017 4-4.501s-1.846-4.499-4-4.499z"/>
   <path id="path5018" style="fill:url(#radialGradient7600-312)" d="m4 39v9c-1.6546 0.017-4-2.017-4-4.501s1.8464-4.499 4-4.499z"/>
  </g>
  <path id="path3388" style="stroke-linejoin:round;stroke:url(#linearGradient2446);stroke-linecap:round;fill:url(#radialGradient2444)" d="m2.1629 16.525c-1.0728 0.124-0.4998 1.402-0.5853 2.121 0.3925 8.47 0.7889 16.77 1.179 25.24 0.3418 0.966 1.5944 0.471 2.3881 0.594h39.58c1.09-0.107 0.637-1.408 0.79-2.153 0.393-8.47 0.789-16.769 1.179-25.239-0.251-0.955-1.519-0.424-2.263-0.563h-42.268-0.0001z"/>
  <path id="path6127" style="opacity:.4;fill:url(#linearGradient2441)" d="m2.0582 16.065l43.897 0.001c0.634 0 1.045 0.444 1.045 0.997l-1.244 26.939c0 0.553-0.511 0.998-1.145 0.998h-41.209c-0.6341 0-1.1447-0.445-1.1447-0.998l-1.2442-26.939c0-0.553 0.411-0.998 1.0451-0.998z"/>
  <path id="path2435" style="stroke-linejoin:round;stroke:url(#radialGradient2438);stroke-linecap:round;fill:none" d="m46.5 17.5h-44l1.1562 24.531"/>
  <path id="path3455" style="fill:url(#linearGradient2435)" d="m45.75 16c-14.55 0.073-29.105-0.021-43.656 0-1.807 0.411-0.8347 2.467-0.9727 3.772 0.2221 4.163 0.3231 8.344 0.6205 12.496 15-2.362 29.926-4.607 44.664-7.049 0.781-2.587 0.788-5.671 0.658-8.429-0.23-0.505-0.787-0.801-1.314-0.79z"/>
  <rect id="rect3562" style="display:block;fill:#eda374" rx="1" ry="1" height="2" width="13" y="10" x="5"/>
 </g>
 <path id="path7013" style="fill:#fff;fill-rule:evenodd" d="m37.594 29.343h-1.574-1.05 1.575 1.049z"/>
 <path id="path7820" style="opacity:.45896;fill:url(#radialGradient3051);fill-rule:evenodd" d="m26.951 40.383c-0.001 1.96 2.388 3.549 5.335 3.549s5.336-1.589 5.336-3.549-2.389-3.549-5.336-3.549-5.336 1.589-5.335 3.549z"/>
 <rect id="rect5925" style="stroke-linejoin:round;stroke-opacity:.99237;fill-rule:evenodd;stroke-dashoffset:0.7;stroke:#999;stroke-linecap:round;fill:url(#linearGradient3048)" transform="scale(-1,1)" rx="2.2851" ry="2.3001" height="18" width="19" y="22.493" x="-33.518"/>
 <path id="path6964" style="stroke-linejoin:round;stroke-opacity:.99237;stroke-dashoffset:0.7;stroke:url(#linearGradient3044);stroke-linecap:round;fill:none" d="m31.203 23.618c0.686 0 1.198 0.517 1.198 1.212v13.326c0 0.695-0.512 1.212-1.198 1.212h-14.37c-0.686 0-1.197-0.517-1.197-1.212v-13.326c0-0.695 0.511-1.212 1.197-1.212h14.37z"/>
 <path id="rect6100" style="fill:url(#linearGradient3040);fill-rule:evenodd" d="m33.169 36.166c0.126 0 0.234 0.064 0.306 0.157l2.459 2.519c0.021 0.083 0.061 0.171 0.086 0.256v3.477c0 0.229-0.181 0.413-0.402 0.413h-4.094c-0.11 0-0.215-0.043-0.287-0.118l-2.449-2.519c-0.072-0.075-0.115-0.181-0.115-0.295v-3.477c0-0.114 0.043-0.22 0.115-0.295s0.176-0.118 0.287-0.118h4.094z"/>
 <path id="path6105" style="fill:url(#linearGradient3037);fill-rule:evenodd" d="m35.637 38.79h-3.957c-0.212 0-0.383 0.179-0.383 0.402v3.394c0 0.223 0.171 0.402 0.383 0.402h3.957c0.212 0 0.383-0.179 0.383-0.402v-3.394c0-0.223-0.171-0.402-0.383-0.402z"/>
 <path id="path7253" style="opacity:.12313;fill:url(#linearGradient3034);fill-rule:evenodd" d="m32.346 36.166l2.624 2.624h-2.099l-2.624-2.624h2.099"/>
 <path id="path6126" style="fill:#babdb6;fill-rule:evenodd" d="m30.247 36.166l4.986 2.099h-1.837l-2.624-1.574-0.525-0.525"/>
 <path id="path7235" style="opacity:.53358;stroke-linejoin:round;stroke-dashoffset:0.7;stroke:#fff;stroke-linecap:round;fill:none" d="m33.166 36.428c0.013 0 0.029 0.004 0.082 0.066 0.016 0.012 0.033 0.023 0.05 0.033 0.01 0.011 0.021 0.022 0.032 0.032 0.011 0.012 0.022 0.023 0.033 0.033h0.017c0.01 0.012 0.021 0.023 0.032 0.033l0.099 0.098c0.056 0.053 0.123 0.092 0.197 0.115l2.23 0.64c0.21 0.109 0.28 0.183 0.312 0.246 0 0.001-0.018 0.07 0 0.049-0.043 0.052-0.189 0.132-0.443 0.18-0.179 0.037-0.324 0.165-0.382 0.338-0.057 0.173-0.018 0.363 0.103 0.499l0.18 0.197c0.011 0.046 0.029 0.089 0.05 0.164 0.004 0.014-0.005 0.018 0 0.032v3.412c0 0.028-0.001 0.06-0.033 0.098-0.017 0.019-0.054 0.033-0.082 0.033h-4.117c-0.048 0-0.088-0.006-0.114-0.033v-0.016l-2.444-2.526c-0.027-0.028-0.033-0.041-0.033-0.098v-3.477c0-0.057 0.006-0.086 0.033-0.115 0.019-0.02 0.081-0.033 0.098-0.033h4.1z"/>
 <path id="path7229" style="stroke-linejoin:round;stroke-dashoffset:0.7;stroke:#787878;stroke-linecap:round;fill:none" d="m33.166 35.92c0.204 0 0.363 0.114 0.476 0.246l0.016-0.017 0.017 0.033 0.18 0.164 2.231 0.64c0.017 0.004 0.033 0.009 0.049 0.016 0.288 0.144 0.473 0.291 0.574 0.492 0.1 0.201 0.061 0.455-0.066 0.607-0.172 0.207-0.45 0.29-0.738 0.344l0.213 0.23c0.03 0.027 0.053 0.061 0.066 0.098 0.017 0.064 0.037 0.166 0.066 0.263 0.008 0.021 0.014 0.043 0.016 0.065v3.494c0 0.157-0.059 0.305-0.164 0.426s-0.268 0.213-0.459 0.213h-4.117c-0.169 0-0.344-0.06-0.475-0.196l-2.444-2.526c-0.118-0.123-0.18-0.283-0.18-0.459v-3.477c0-0.176 0.062-0.336 0.18-0.459 0.118-0.121 0.29-0.197 0.459-0.197h4.1z"/>
 <path id="path7184" style="fill:url(#linearGradient3028);fill-rule:evenodd" d="m30.247 36.166l5.773 1.312-1.05 0.787h-1.574l-2.624-1.574-0.525-0.525"/>
 <path id="path7171" style="fill:url(#linearGradient3025);fill-rule:evenodd" d="m32.346 36.166l3.674 1.049h-2.099l-3.674-1.049h2.099"/>
 <path id="rect7173" style="fill:url(#linearGradient3022);fill-rule:evenodd" d="m36.02 37.215h-1.949-0.15c1.049 0.525 0.262 1.05-0.525 1.05h2.099c0.787 0 1.575-0.525 0.525-1.05z"/>
 <path id="path7275" style="fill:url(#linearGradient3019);fill-rule:evenodd" d="m34.757 39.839h-2.198c-0.118 0-0.213 0.103-0.213 0.23v1.64c0 0.127 0.095 0.23 0.213 0.23h2.198c0.118 0 0.213-0.103 0.213-0.23v-1.64c0-0.127-0.095-0.23-0.213-0.23z"/>
 <path id="rect7327" style="fill:url(#linearGradient3016);fill-rule:evenodd" d="m24.574 28.064c0.345 0 0.623 0.278 0.623 0.622v0.155c0 0.158 0.124 0.293 0.294 0.293h0.843c0.344 0 0.623 0.379 0.623 0.724v3.475c0 0.344-0.279 0.623-0.623 0.623h-4.618c-0.345 0-0.624-0.279-0.624-0.623v-3.475c0-0.345 0.279-0.724 0.624-0.724h0.843c0.141 0.01 0.293-0.1 0.293-0.284v-0.164c0-0.344 0.278-0.622 0.623-0.622h1.099z"/>
 <path id="path2709" style="stroke-dashoffset:0.7;stroke:url(#linearGradient3013);stroke-linecap:round;fill:none" d="m23.504 27.493c-0.643 0-1.115 0.498-1.252 1.092h-0.353c-0.744 0-1.381 0.597-1.381 1.348v3.179c0 0.752 0.629 1.381 1.381 1.381h4.239c0.751 0 1.38-0.629 1.38-1.381v-3.179c0-0.751-0.636-1.348-1.38-1.348h-0.322c-0.143-0.599-0.64-1.092-1.284-1.092h-1.028z"/>
 <path id="path7352" style="stroke:url(#linearGradient3010);stroke-linecap:round;stroke-width:1px;fill:none" d="m25.642 32.61v-1.078"/>
 <path id="path7362" style="stroke:url(#linearGradient3010);stroke-linecap:round;stroke-width:1px;fill:none" d="m24.564 32.61v-1.078"/>
 <path id="path7364" style="stroke:url(#linearGradient3010);stroke-linecap:round;stroke-width:1px;fill:none" d="m23.485 32.61v-1.078"/>
 <path id="path7366" style="stroke:url(#linearGradient3010);stroke-linecap:round;stroke-width:1px;fill:none" d="m22.407 32.61v-1.078"/>
 <path id="path7506" style="stroke-linejoin:round;fill-rule:evenodd;stroke:url(#linearGradient2998);stroke-width:.5;fill:url(#linearGradient2996)" d="m32.51 39.085s2.199 1.715 4.248 3.411c1.025 0.848 1.941 1.691 2.476 2.51 0.268 0.409 0.519 0.851 0.345 1.459-0.087 0.304-0.321 0.589-0.574 0.738-0.253 0.15-0.503 0.213-0.787 0.246-1.115 0.129-2.483-0.206-4.117-0.672-1.633-0.466-3.5-1.093-5.379-1.706s-3.777-1.21-5.428-1.574c-1.652-0.364-3.063-0.465-3.871-0.263-0.382 0.096-0.391 0.158-0.394 0.164-0.002 0.006-0.033 0.176 0.115 0.492 0.298 0.632 1.179 1.636 2.198 2.592 2.039 1.911 4.641 3.739 4.641 3.739l-0.918 1.279s-2.646-1.846-4.806-3.87c-1.079-1.013-2.035-2.043-2.525-3.084-0.245-0.52-0.408-1.109-0.181-1.705 0.228-0.597 0.809-0.982 1.476-1.148 1.292-0.323 2.858-0.108 4.609 0.278 1.751 0.387 3.683 0.974 5.576 1.591 1.893 0.618 3.741 1.257 5.314 1.706 1.528 0.436 2.78 0.64 3.394 0.59-0.325-0.497-1.204-1.34-2.181-2.148-1.952-1.617-4.182-3.346-4.182-3.346l0.951-1.279z"/>
 <path id="path7502" style="opacity:.6;stroke:url(#linearGradient2993);stroke-width:.5;fill:none" d="m31.994 39.456s9.676 6.659 6.264 7.052c-3.411 0.394-14.694-5.248-18.893-4.198-4.198 1.049 6.298 8.397 6.298 8.397"/>
 <path id="path7512" style="fill:url(#linearGradient2990);fill-rule:evenodd" d="m34.924 38.806l-0.167 1.05h-2.197c-0.118 0-0.214 0.102-0.214 0.229v1.64l-1.049-0.164v-2.345c0-0.222 0.165-0.41 0.377-0.41h3.25z"/>
 <path id="path7810" style="opacity:.35448;fill:url(#linearGradient2987);fill-rule:evenodd" d="m34.757 39.839h-2.198c-0.118 0-0.213 0.103-0.213 0.23v1.64c0 0.127 0.095 0.23 0.213 0.23h2.198c0.118 0 0.213-0.103 0.213-0.23v-1.64c0-0.127-0.095-0.23-0.213-0.23z"/>
</svg>
