<?xml version="1.0" encoding="UTF-8" standalone="no"?>
<!-- Created with Inkscape (http://www.inkscape.org/) -->
<svg id="svg3396" xmlns="http://www.w3.org/2000/svg" height="48" width="48" version="1.0" xmlns:xlink="http://www.w3.org/1999/xlink">
 <defs id="defs3398">
  <filter id="filter10131" color-interpolation-filters="sRGB">
   <feGaussianBlur id="feGaussianBlur10133" stdDeviation="0.31195313"/>
  </filter>
  <linearGradient id="linearGradient2779-673" y2="15.944" gradientUnits="userSpaceOnUse" x2="65.34" gradientTransform="translate(-53.765 -.11419)" y1="45.114" x1="82.453">
   <stop id="stop3048" style="stop-color:#666" offset="0"/>
   <stop id="stop3050" style="stop-color:#808080" offset="1"/>
  </linearGradient>
  <linearGradient id="linearGradient2777-535" y2="4.5363" gradientUnits="userSpaceOnUse" x2="41.485" gradientTransform="matrix(.27229 0 0 .27229 -53.176 9.5833)" y1="68.292" x1="41.542">
   <stop id="stop3042" style="stop-color:#333" offset="0"/>
   <stop id="stop3044" style="stop-color:#333;stop-opacity:.61224" offset="1"/>
  </linearGradient>
  <linearGradient id="linearGradient2775-524" y2="11.949" gradientUnits="userSpaceOnUse" x2="173.1" gradientTransform="matrix(.27229 0 0 .27229 -88.495 7.5341)" y1="75.319" x1="173.1">
   <stop id="stop3036" style="stop-color:#343434;stop-opacity:.97647" offset="0"/>
   <stop id="stop3038" style="stop-color:#939393" offset="1"/>
  </linearGradient>
  <radialGradient id="radialGradient2773-3" gradientUnits="userSpaceOnUse" cy="13.078" cx="15.414" gradientTransform="matrix(2.071 0 0 1.6094 -75.801 -6.7778)" r="6.6562">
   <stop id="stop3030" style="stop-color:#fff" offset="0"/>
   <stop id="stop3032" style="stop-color:#fff;stop-opacity:.24762" offset="1"/>
  </radialGradient>
  <radialGradient id="radialGradient2771-882" gradientUnits="userSpaceOnUse" cy="8.3021" cx="7.2647" gradientTransform="matrix(0 1.208 -1.6272 0 26.372 8.2665)" r="20.98">
   <stop id="stop3024" style="stop-color:#fff;stop-opacity:0.4" offset="0"/>
   <stop id="stop3026" style="stop-color:#fff;stop-opacity:0" offset="1"/>
  </radialGradient>
  <filter id="filter13078" color-interpolation-filters="sRGB">
   <feGaussianBlur id="feGaussianBlur13080" stdDeviation="0.66072995"/>
  </filter>
  <linearGradient id="linearGradient2769-669" y2="67.35" gradientUnits="userSpaceOnUse" x2="201.87" gradientTransform="translate(-127.09 -2.6451)" y1="146.15" x1="277.57">
   <stop id="stop3018" style="stop-color:#fff" offset="0"/>
   <stop id="stop3020" style="stop-color:#fff;stop-opacity:0" offset="1"/>
  </linearGradient>
  <linearGradient id="linearGradient2767-168" y2="93.654" gradientUnits="userSpaceOnUse" x2="-166.64" gradientTransform="translate(258.94 -13.27)" y1="99.667" x1="-172.65">
   <stop id="stop3012" style="stop-color:#242424;stop-opacity:.99216" offset="0"/>
   <stop id="stop3014" style="stop-color:#656565" offset="1"/>
  </linearGradient>
  <radialGradient id="radialGradient2455" gradientUnits="userSpaceOnUse" cy="5.0172" cx="3" gradientTransform="matrix(-1.2749e-8 1.7143 -2.1593 -1.46e-8 12.809 2.857)" r="21">
   <stop id="stop3486" style="stop-color:#bdbdbd" offset="0"/>
   <stop id="stop3488" style="stop-color:#d0d0d0" offset="1"/>
  </radialGradient>
  <linearGradient id="linearGradient2453" y2="16.19" gradientUnits="userSpaceOnUse" x2="62.989" gradientTransform="translate(-50.941)" y1="13.183" x1="62.989">
   <stop id="stop6406" style="stop-color:#f9f9f9" offset="0"/>
   <stop id="stop6408" style="stop-color:#c9c9c9" offset="1"/>
  </linearGradient>
  <radialGradient id="radialGradient7600-312" gradientUnits="userSpaceOnUse" cy="486.65" cx="605.71" gradientTransform="matrix(-.032130 0 0 .037059 23.363 25.412)" r="117.14">
   <stop id="stop2681" offset="0"/>
   <stop id="stop2683" style="stop-opacity:0" offset="1"/>
  </radialGradient>
  <radialGradient id="radialGradient7598-526" gradientUnits="userSpaceOnUse" cy="486.65" cx="605.71" gradientTransform="matrix(.032130 0 0 .037059 24.637 25.412)" r="117.14">
   <stop id="stop2675" offset="0"/>
   <stop id="stop2677" style="stop-opacity:0" offset="1"/>
  </radialGradient>
  <linearGradient id="linearGradient7596-975" y2="609.51" gradientUnits="userSpaceOnUse" x2="302.86" gradientTransform="matrix(.082840 0 0 .037059 -5.9408 25.412)" y1="366.65" x1="302.86">
   <stop id="stop2667" style="stop-opacity:0" offset="0"/>
   <stop id="stop2669" offset=".5"/>
   <stop id="stop2671" style="stop-opacity:0" offset="1"/>
  </linearGradient>
  <linearGradient id="linearGradient2446" y2="15.944" gradientUnits="userSpaceOnUse" x2="65.34" gradientTransform="translate(-53.765 -.11419)" y1="45.114" x1="82.453">
   <stop id="stop3624" style="stop-color:#bb2b12" offset="0"/>
   <stop id="stop3626" style="stop-color:#cd7233" offset="1"/>
  </linearGradient>
  <radialGradient id="radialGradient2444" gradientUnits="userSpaceOnUse" cy="14.113" cx="63.969" gradientTransform="matrix(1.5647 -9.5143e-8 6.1772e-8 1.0159 -86.213 8.1461)" r="23.097">
   <stop id="stop3618" style="stop-color:#f0c178" offset="0"/>
   <stop id="stop3270" style="stop-color:#e18941" offset=".5"/>
   <stop id="stop3620" style="stop-color:#ec4f18" offset="1"/>
  </radialGradient>
  <linearGradient id="linearGradient2441" y2="36.658" gradientUnits="userSpaceOnUse" x2="22.809" gradientTransform="matrix(1.1447 0 0 .99775 -3.4661 1.0988)" y1="49.629" x1="22.935">
   <stop id="stop2661" style="stop-color:#0a0a0a;stop-opacity:.498" offset="0"/>
   <stop id="stop2663" style="stop-color:#0a0a0a;stop-opacity:0" offset="1"/>
  </linearGradient>
  <linearGradient id="linearGradient2435" y2="33.955" gradientUnits="userSpaceOnUse" x2="15.215" y1="22.292" x1="11.566">
   <stop id="stop2687" style="stop-color:#fff;stop-opacity:.27451" offset="0"/>
   <stop id="stop2689" style="stop-color:#fff;stop-opacity:.078431" offset="1"/>
  </linearGradient>
 </defs>
 <g id="layer1">
  <path id="path3468" style="stroke-linejoin:round;stroke:url(#radialGradient2455);stroke-linecap:round;fill:url(#linearGradient2453)" d="m3.5062 8.5c-0.6902 0.0077-1.0004 0.3421-1.0004 1 0 5.514 0.0263 9.74-0.0058 14.75 1.4355 0 43-3.699 43-5.292v-6.451c0-0.658-0.554-1.008-1.244-1h-20.256c-2.047 0-3.499-3.007-5-3.007h-15.494 0.0002z"/>
  <g id="g7591" style="opacity:.4" transform="matrix(.95833 0 0 .66667 1 15)">
   <rect id="rect4173" style="fill:url(#linearGradient7596-975)" height="9" width="40" y="39" x="4"/>
   <path id="path5058" style="fill:url(#radialGradient7598-526)" d="m44 39v9c1.655 0.017 4-2.017 4-4.501s-1.846-4.499-4-4.499z"/>
   <path id="path5018" style="fill:url(#radialGradient7600-312)" d="m4 39v9c-1.6546 0.017-4-2.017-4-4.501s1.8464-4.499 4-4.499z"/>
  </g>
  <path id="path3388" style="stroke-linejoin:round;stroke:url(#linearGradient2446);stroke-linecap:round;fill:url(#radialGradient2444)" d="m2.1629 16.525c-1.0728 0.124-0.4998 1.402-0.5853 2.121 0.3925 8.47 0.7889 16.77 1.179 25.24 0.3418 0.966 1.5944 0.471 2.3881 0.594h39.58c1.09-0.107 0.637-1.408 0.79-2.153 0.393-8.47 0.789-16.769 1.179-25.239-0.251-0.955-1.519-0.424-2.263-0.563h-42.268-0.0001z"/>
  <path id="path6127" style="opacity:.4;fill:url(#linearGradient2441)" d="m2.0582 16.065l43.897 0.001c0.634 0 1.045 0.444 1.045 0.997l-1.244 26.939c0 0.553-0.511 0.998-1.145 0.998h-41.209c-0.6341 0-1.1447-0.445-1.1447-0.998l-1.2442-26.939c0-0.553 0.411-0.998 1.0451-0.998z"/>
  <path id="path2435" style="stroke-linejoin:round;stroke:url(#radialGradient2771-882);stroke-linecap:round;fill:none" d="m46.5 17.5h-44l1.1562 24.531"/>
  <path id="path3455" style="fill:url(#linearGradient2435)" d="m45.75 16c-14.55 0.073-29.105-0.021-43.656 0-1.807 0.411-0.8347 2.467-0.9727 3.772 0.2221 4.163 0.3231 8.344 0.6205 12.496 15-2.362 29.926-4.607 44.664-7.049 0.781-2.587 0.788-5.671 0.658-8.429-0.23-0.505-0.787-0.801-1.314-0.79z"/>
  <rect id="rect3562" style="display:block;fill:#eda374" rx="1" ry="1" height="2" width="13" y="10" x="5"/>
 </g>
 <g id="g2664" transform="translate(69.543 8.4999)">
  <g id="g20913" transform="matrix(.27229 0 0 .27229 -54.19 8.0619)">
   <path id="path11112" style="stroke-linejoin:round;fill-rule:evenodd;stroke:#333;stroke-linecap:round;stroke-width:1px;fill:url(#linearGradient2767-168)" d="m73.007 61.163l44.713 41.617-6.2 8.41-44.549-45.017 6.036-5.01z"/>
   <path id="path11122" style="filter:url(#filter13078);fill:url(#linearGradient2769-669);fill-rule:evenodd" d="m110.64 109.42l-35.862-44.715 43.382 38.075-7.52 6.64z"/>
   <path id="path13082" style="fill:#3e3e3e" d="m248.35 110.29c0.01 1.47-2.37 2.66-5.31 2.66-2.93 0-5.31-1.19-5.31-2.66s2.38-2.66 5.31-2.66c2.94 0 5.32 1.19 5.31 2.66z" transform="matrix(.71270 -.79655 .79655 .71270 -146.22 222.14)"/>
  </g>
  <path id="path4452" style="fill:url(#radialGradient2771-882);fill-rule:evenodd" d="m25.898 18.478c0 4.589-3.72 8.31-8.309 8.31s-8.3089-3.721-8.3082-8.31c-0.0007-4.589 3.7192-8.31 8.3082-8.31s8.309 3.721 8.309 8.31z" transform="matrix(1.0041 0 0 .97968 -58.602 .94746)"/>
  <path id="path4462" style="opacity:.6;fill-rule:evenodd;fill:url(#radialGradient2773-3)" d="m-41.284 12.043c-4.159 0-7.528 3.014-7.528 6.735 0 1.075 0.336 2.064 0.837 2.966 1 0.329 2.063 0.554 3.19 0.554 4.929 0 8.865-3.474 9.169-7.816-1.382-1.462-3.362-2.439-5.668-2.439z"/>
  <path id="path2298" style="stroke-linejoin:round;stroke:url(#linearGradient2777-535);stroke-linecap:round;stroke-width:.27229;fill:url(#linearGradient2775-524)" d="m-41.124 10.922c-5.124 0-9.283 3.836-9.283 8.56s4.159 8.56 9.283 8.56 9.283-3.836 9.283-8.56-4.159-8.56-9.283-8.56zm0.111 0.562c4.585 0 8.313 3.43 8.313 7.658s-3.728 7.658-8.313 7.658c-4.586 0-8.305-3.43-8.305-7.658s3.719-7.658 8.305-7.658z"/>
  <path id="path4267" style="filter:url(#filter10131);fill:url(#linearGradient2779-673)" d="m48.577 9.9205c-17.92 0-32.437 13.414-32.437 29.938s14.517 29.938 32.437 29.938 32.469-13.414 32.469-29.938-14.549-29.938-32.469-29.938v0.0005zm0.188 1.1565c16.841 0 30.531 12.596 30.531 28.125 0 15.528-13.69 28.125-30.531 28.125s-30.5-12.597-30.5-28.125c0-15.529 13.659-28.125 30.5-28.125z" transform="matrix(.27229 0 0 .27229 -54.291 8.4676)"/>
 </g>
</svg>
