<?xml version="1.0" encoding="UTF-8" standalone="no"?>
<!-- Created with Inkscape (http://www.inkscape.org/) -->
<svg id="svg2" xmlns="http://www.w3.org/2000/svg" height="22" width="22" version="1.0" xmlns:xlink="http://www.w3.org/1999/xlink">
 <defs id="defs4">
  <linearGradient id="linearGradient3042" y2="17.5" spreadMethod="reflect" gradientUnits="userSpaceOnUse" x2="3.0052" gradientTransform="matrix(.51232 0 0 .49974 -1.2958 .75461)" y1="17.5" x1="44.995">
   <stop id="stop3277" style="stop-color:#fff;stop-opacity:0" offset="0"/>
   <stop id="stop3283" style="stop-color:#fff" offset=".245"/>
   <stop id="stop3285" style="stop-color:#fff" offset=".77350"/>
   <stop id="stop3279" style="stop-color:#fff;stop-opacity:0" offset="1"/>
  </linearGradient>
  <linearGradient id="linearGradient3045" y2="8" gradientUnits="userSpaceOnUse" x2="26" gradientTransform="matrix(0.5 0 0 .57143 -.99999 -.57131)" y1="22" x1="26">
   <stop id="stop2931" style="stop-color:#fff" offset="0"/>
   <stop id="stop2933" style="stop-color:#fff" offset=".27127"/>
   <stop id="stop2935" style="stop-color:#fff;stop-opacity:.69020" offset=".38989"/>
   <stop id="stop2937" style="stop-color:#fff;stop-opacity:0" offset="1"/>
  </linearGradient>
  <linearGradient id="linearGradient3048" y2="45.934" gradientUnits="userSpaceOnUse" x2="43.007" gradientTransform="matrix(.65684 0 0 .58704 -4.4029 -2.3874)" y1="30.555" x1="23.452">
   <stop id="stop4561" style="stop-color:#fff;stop-opacity:0" offset="0"/>
   <stop id="stop4563" style="stop-color:#fff;stop-opacity:0" offset="1"/>
  </linearGradient>
  <linearGradient id="linearGradient3051" y2="37.277" gradientUnits="userSpaceOnUse" x2="24.997" gradientTransform="matrix(.65684 0 0 .77823 -4.4039 -7.3786)" y1="15.378" x1="24.823">
   <stop id="stop2921" style="stop-color:#dac197" offset="0"/>
   <stop id="stop2923" style="stop-color:#c1a581" offset=".26124"/>
   <stop id="stop2925" style="stop-color:#dbc298" offset=".31580"/>
   <stop id="stop2927" style="stop-color:#a68b60" offset="1"/>
  </linearGradient>
  <linearGradient id="linearGradient3053" y2="45.042" gradientUnits="userSpaceOnUse" x2="15.464" gradientTransform="matrix(.51226 0 0 .49974 -1.2943 .26287)" y1="7.9757" x1="15.464">
   <stop id="stop2911" style="stop-color:#c9af8b" offset="0"/>
   <stop id="stop2913" style="stop-color:#ad8757" offset=".24941"/>
   <stop id="stop2915" style="stop-color:#c2a57f" offset=".31247"/>
   <stop id="stop2917" style="stop-color:#9d7d53" offset="1"/>
  </linearGradient>
  <linearGradient id="linearGradient5530" y2="39.268" gradientUnits="userSpaceOnUse" x2="24.139" gradientTransform="matrix(.28180 0 0 .28010 10.179 10.022)" y1="7.0479" x1="24.139">
   <stop id="stop3945" style="stop-color:#fff" offset="0"/>
   <stop id="stop3947" style="stop-color:#fff;stop-opacity:0" offset="1"/>
  </linearGradient>
  <radialGradient id="radialGradient3098" gradientUnits="userSpaceOnUse" cy="51.695" cx="69.448" gradientTransform="matrix(0 .35684 -.38820 0 35.349 -12.114)" r="31">
   <stop id="stop3244-5" style="stop-color:#eef87e" offset="0"/>
   <stop id="stop3246-9" style="stop-color:#cde34f" offset=".26238"/>
   <stop id="stop3248-7" style="stop-color:#93b723" offset=".66094"/>
   <stop id="stop3250-8" style="stop-color:#5a7e0d" offset="1"/>
  </radialGradient>
  <linearGradient id="linearGradient3100" y2="51.244" gradientUnits="userSpaceOnUse" x2="72.422" gradientTransform="matrix(.14823 0 0 .14944 3.4435 3.3567)" y1="124.76" x1="72.422">
   <stop id="stop2492-3" style="stop-color:#365f0e" offset="0"/>
   <stop id="stop2494-8" style="stop-color:#84a718" offset="1"/>
  </linearGradient>
 </defs>
 <g id="layer1" transform="translate(0,-2)">
  <path id="path2488" style="stroke:url(#linearGradient3053);stroke-linecap:round;stroke-width:.99420;display:block;fill:url(#linearGradient3051)" d="m3.3215 4.5107h15.111c0.88211 0 1.2791-0.1432 1.5325 0.49974l1.5377 4.4897v12.339c0 0.77625 0.05273 0.65765-0.82939 0.65765h-19.346c-0.88211 0-0.82939 0.1186-0.82939-0.65765v-12.339l1.5377-4.4897c0.24631-0.62996 0.40404-0.49974 1.2862-0.49974z"/>
  <path id="path2490" style="opacity:.50549;stroke:url(#linearGradient3048);stroke-width:.74212;display:block;fill:none" d="m3.8028 5.0169h14.166c0.82694 0 1.3387 0.27812 1.6851 1.0425l1.193 3.2082v11.566c0 0.72996-0.41942 1.0975-1.2464 1.0975h-17.28c-0.82694 0-1.1643-0.4042-1.1643-1.1342v-11.53l1.1545-3.277c0.2298-0.5908 0.6646-0.9721 1.4916-0.9721z"/>
  <path id="rect3326" style="opacity:.4;fill:url(#linearGradient3045)" d="m10 4.0001h2v8h-0.59059-0.60469-0.48679-0.31793v-8z"/>
  <path id="path3273" style="opacity:.4;stroke:url(#linearGradient3042);stroke-linecap:square;stroke-width:1px;fill:none" d="m0.5 9.5001h21"/>
 </g>
 <path id="path2262" style="stroke-linejoin:round;stroke-width:.98543;color:#000000;stroke:url(#linearGradient3100);stroke-linecap:round;fill:url(#radialGradient3098)" d="m14.482 14.507v-3h4v3h3v4h-3v3h-4v-3h-2.9895v-4h2.9895z"/>
 <path id="path2272" style="opacity:.4;stroke:url(#linearGradient5530);fill:none" d="m15.482 15.507v-3h2v3h3v2h-3v3h-2v-3h-3v-2h3z"/>
</svg>
