<?xml version="1.0" encoding="UTF-8" standalone="no"?>
<!-- Created with Inkscape (http://www.inkscape.org/) -->
<svg id="svg3196" xmlns="http://www.w3.org/2000/svg" height="22" width="22" version="1.0">
 <rect id="rect2388" style="stroke:#606060;stroke-linecap:square;fill:none" transform="rotate(-90)" rx="0" ry="0" height="6.9859" width="13.923" y="12.515" x="-18.423"/>
 <rect id="rect3162" style="fill:#878787" transform="rotate(-90)" height="3.9296" width="4" y="14.071" x="-17"/>
 <rect id="rect2819" style="fill:#878787" transform="rotate(-90)" ry="1.0278" width="5.0493" y="3.9722" x="-13.028" height="5.0141"/>
 <path id="rect3160" style="stroke:#606060;stroke-linecap:square;fill:none" d="m14.5 4v-1.5h3v1.5"/>
 <rect id="rect3645" style="fill:#878787" transform="rotate(-90)" height="1" width="1" y="4.0005" x="-15.063"/>
 <rect id="rect3647" style="fill:#878787" transform="rotate(-90)" height="1" width="1" y="6.0005" x="-15.063"/>
 <rect id="rect3649" style="fill:#878787" transform="rotate(-90)" height="1" width="1" y="8.0005" x="-15.063"/>
 <rect id="rect3651" style="fill:#878787" transform="rotate(-90)" height="1" width="1" y="4.0005" x="-17.063"/>
 <rect id="rect3653" style="fill:#878787" transform="rotate(-90)" height="1" width="1" y="6.0005" x="-17.063"/>
 <rect id="rect3655" style="fill:#878787" transform="rotate(-90)" height="1" width="1" y="8.0005" x="-17.063"/>
 <path id="path2900" style="stroke:#606060;stroke-linecap:square;fill:none" d="m2.5005 8v9c0.044601 1.9883 8.0347 1.9108 8 0v-9c-0.005-2.0012-7.9577-2.0634-7.9995 0z"/>
</svg>
