<?xml version="1.0" encoding="UTF-8" standalone="no"?>
<!-- Created with Inkscape (http://www.inkscape.org/) -->
<svg id="svg3196" xmlns="http://www.w3.org/2000/svg" height="22" width="22" version="1.0">
 <rect id="rect2388" style="stroke:#606060;stroke-linecap:square;fill:none" transform="rotate(-90)" rx="0" ry="0" height="5.9014" width="14" y="15.599" x="-18.5"/>
 <rect id="rect3162" style="fill:#ff0f0f" transform="rotate(-90)" height="3" width="2" y="17" x="-17"/>
 <path id="rect3160" style="stroke:#606060;stroke-linecap:square;fill:none" d="m17.5 4v-1.5h1.9999v1.5"/>
 <rect id="rect2832" style="stroke:#606060;stroke-linecap:square;fill:none" transform="rotate(-90)" rx="0" ry="0" height="12.951" width="7.9578" y="0.599" x="-18.5"/>
 <path id="path2834" style="stroke:#606060;stroke-linecap:square;fill:none" d="m10.5 12.5h1"/>
 <path id="path2836" style="stroke:#606060;stroke-linecap:square;fill:none" d="m10.5 14.5h1"/>
 <path id="path2838" style="stroke:#606060;stroke-linecap:square;fill:none" d="m3.5004 16.5h5.9996"/>
 <rect id="rect3645" style="fill:#606060" transform="rotate(-90)" height="1" width="1" y="2.0004" x="-13"/>
 <rect id="rect3647" style="fill:#606060" transform="rotate(-90)" height="1" width="1" y="4.0004" x="-13"/>
 <rect id="rect3649" style="fill:#606060" transform="rotate(-90)" height="1" width="1" y="6.0004" x="-13"/>
 <rect id="rect3651" style="fill:#606060" transform="rotate(-90)" height="1" width="1" y="2.0004" x="-15"/>
 <rect id="rect3653" style="fill:#606060" transform="rotate(-90)" height="1" width="1" y="4.0004" x="-15"/>
 <rect id="rect3655" style="fill:#606060" transform="rotate(-90)" height="1" width="1" y="6.0004" x="-15"/>
 <rect id="rect3657" style="fill:#606060" transform="rotate(-90)" height="1" width="1" y="8.0004" x="-13"/>
 <rect id="rect3659" style="fill:#606060" transform="rotate(-90)" height="1" width="1" y="8.0004" x="-15"/>
</svg>
