<?xml version="1.0" encoding="UTF-8" standalone="no"?>
<!-- Created with Inkscape (http://www.inkscape.org/) -->
<svg id="svg3745" xmlns="http://www.w3.org/2000/svg" height="22" width="22" version="1.1">
 <g id="layer1" transform="translate(0,6)">
  <path id="path3765" style="fill:#606060" d="m12.317 15.84c-1.569 1.556-4.1012 1.545-5.6569-0.023-1.5557-1.569-1.5454-4.101 0.023-5.657 0.0594-0.059 0.1207-0.116 0.1838-0.1711l2.6331 3.0111 2.817 2.84zm-4.817 0.16l-1-1-5 5 1 1 5-5z" transform="translate(.5 -7)"/>
  <path id="path3767" style="opacity:.5;fill:#606060" d="m12.317 15.84c-1.569 1.556-4.1012 1.545-5.6569-0.023-1.5557-1.569-1.5454-4.101 0.023-5.657 0.0594-0.059 0.1207-0.116 0.1838-0.1711l2.6331 3.0111 2.817 2.84zm-10.817 4.16l1 1 5-5-1-1-5 5z" transform="matrix(-1,0,0,-1,20.5,18)"/>
 </g>
</svg>
