<?xml version="1.0" encoding="UTF-8" standalone="no"?>
<!-- Created with Inkscape (http://www.inkscape.org/) -->

<svg
   xmlns:svg="http://www.w3.org/2000/svg"
   xmlns="http://www.w3.org/2000/svg"
   version="1.1"
   width="22"
   height="22"
   id="svg2906">
  <defs
     id="defs2908">
    <clipPath
       id="clipPath2915">
      <rect
         width="4.0000005"
         height="15.000033"
         x="-202.00041"
         y="21"
         transform="matrix(0,-1,1,0,0,0)"
         id="rect2917"
         style="color:#000000;fill:#000000;fill-opacity:1;stroke:none;stroke-width:2;marker:none;visibility:visible;display:inline;overflow:visible;enable-background:accumulate" />
    </clipPath>
    <clipPath
       id="clipPath2854">
      <rect
         width="1.1249844"
         height="4.1250067"
         x="27.375002"
         y="221.875"
         id="rect2856"
         style="color:#000000;fill:#000000;fill-opacity:1;stroke:none;stroke-width:2;marker:none;visibility:visible;display:inline;overflow:visible;enable-background:accumulate" />
    </clipPath>
    <clipPath
       id="clipPath2920">
      <path
         d="m 27.545458,222.48863 0,-0.57954 1.738637,0 0,4.05682 -1.738637,0 0,-0.57955 -0.579545,0 0,-2.89773 0.579545,0 z"
         id="path2922"
         style="color:#000000;fill:#000000;fill-opacity:1;fill-rule:nonzero;stroke:none;stroke-width:2;marker:none;visibility:visible;display:inline;overflow:visible;enable-background:accumulate" />
    </clipPath>
  </defs>
  <g
     transform="translate(-1,7)"
     id="layer1">
    <path
       d="m 27.125,221.09375 a 0.57960351,0.57960351 0 0 0 -0.34375,1 c 1.023324,1.02332 1.023323,2.66418 0,3.6875 a 0.57960351,0.57960351 0 1 0 0.8125,0.8125 c 1.466269,-1.46627 1.466269,-3.84623 0,-5.3125 a 0.57960351,0.57960351 0 0 0 -0.46875,-0.1875 z"
       transform="matrix(0,-1.7254899,1.7254899,0,-374.90189,54.52941)"
       clip-path="url(#clipPath2920)"
       id="path2935-3"
       style="font-size:medium;font-style:normal;font-variant:normal;font-weight:normal;font-stretch:normal;text-indent:0;text-align:start;text-decoration:none;line-height:normal;letter-spacing:normal;word-spacing:normal;text-transform:none;direction:ltr;block-progression:tb;writing-mode:lr-tb;text-anchor:start;opacity:0.23999999;color:#000000;fill:#606060;fill-opacity:1;stroke:none;stroke-width:1.15909111;marker:none;visibility:visible;display:inline;overflow:visible;enable-background:accumulate;font-family:Andale Mono;-inkscape-font-specification:Andale Mono" />
    <path
       d="m 27.0625,221.3125 a 0.37503771,0.37503771 0 0 0 -0.125,0.625 c 1.10149,1.10149 1.10149,2.89851 0,4 a 0.37565048,0.37565048 0 1 0 0.53125,0.53125 c 1.388102,-1.3881 1.388102,-3.6744 0,-5.0625 a 0.37503771,0.37503771 0 0 0 -0.40625,-0.0937 z"
       transform="matrix(0,-2.6666653,2.6666653,0,-585.66635,76.99997)"
       clip-path="url(#clipPath2854)"
       id="path2937-8"
       style="font-size:medium;font-style:normal;font-variant:normal;font-weight:normal;font-stretch:normal;text-indent:0;text-align:start;text-decoration:none;line-height:normal;letter-spacing:normal;word-spacing:normal;text-transform:none;direction:ltr;block-progression:tb;writing-mode:lr-tb;text-anchor:start;opacity:0.23999999;color:#000000;fill:#606060;fill-opacity:1;stroke:none;stroke-width:0.75000042;marker:none;visibility:visible;display:inline;overflow:visible;enable-background:accumulate;font-family:Andale Mono;-inkscape-font-specification:Andale Mono" />
    <path
       d="m 12.999997,10.5 a 1.5,1.5 0 0 1 -3,0 1.5,1.5 0 1 1 3,0 z"
       id="path2948-8"
       style="opacity:0.23999999;fill:#606060;fill-opacity:1;stroke:none;display:inline" />
    <path
       d="m 28.547839,198.01436 c -3.13281,-0.008 -6.265738,1.15283 -8.65625,3.53125 a 1.0054782,1.0054782 0 1 0 1.40625,1.4375 c 4.014791,-3.99449 10.47426,-3.98354 14.46875,0.0312 0.059,0.0593 0.129974,0.12677 0.1875,0.1875 a 1.0001,1.0001 0 1 0 1.4375,-1.375 c -0.06877,-0.0726 -0.116972,-0.14786 -0.1875,-0.21875 -2.378424,-2.39051 -5.52344,-3.58581 -8.65625,-3.59375 z"
       transform="translate(-17,-201.00042)"
       clip-path="url(#clipPath2915)"
       id="path22-3"
       style="font-size:medium;font-style:normal;font-variant:normal;font-weight:normal;font-stretch:normal;text-indent:0;text-align:start;text-decoration:none;line-height:normal;letter-spacing:normal;word-spacing:normal;text-transform:none;direction:ltr;block-progression:tb;writing-mode:lr-tb;text-anchor:start;opacity:0.23999999;color:#000000;fill:#606060;fill-opacity:1;stroke:none;stroke-width:2;marker:none;visibility:visible;display:inline;overflow:visible;enable-background:accumulate;font-family:Andale Mono;-inkscape-font-specification:Andale Mono" />
    <path
       d="m 17,10 2,0 0,2 -2,0 0,-2 z m 0,-8 0,5 0.5,2 1,0 0.5,-2 0,-5 -2,0 z"
       id="path3659"
       style="fill:#606060;fill-opacity:1;stroke:none" />
  </g>
</svg>
