<?xml version="1.0" encoding="UTF-8" standalone="no"?>
<!-- Created with Inkscape (http://www.inkscape.org/) -->
<svg id="svg2816" xmlns="http://www.w3.org/2000/svg" height="22" width="22" version="1.1">
 <path id="path3928" style="fill:#606060" d="m13.542 14.042c2 0 3.5-1.6241 3.5-3.5 0-2-1.761-3.5-3.5-3.5-2 0-3.5 1.5-3.5 3.5 0 1.9378 1.5 3.5 3.5 3.5m-5.542 1.958c-1.5278-0.031-4-1-4-4v-3c0-3 2.5-3.9167 4-4h7c1.5 0.11458 4 1 4 4v3c0 3-1.5139 4-3 4-2.3962-0.01417-0.51616 2.7243 0 4h-0.667l-4.333-4h-3z"/>
 <path id="path2817" style="stroke-linejoin:round;stroke:#606060;stroke-linecap:round;stroke-width:1px;fill:none" d="m15.25 10.5h-1.75v-2.6"/>
</svg>
