<?xml version="1.0" encoding="UTF-8" standalone="no"?>
<!-- Created with Inkscape (http://www.inkscape.org/) -->

<svg
   xmlns:dc="http://purl.org/dc/elements/1.1/"
   xmlns:cc="http://creativecommons.org/ns#"
   xmlns:rdf="http://www.w3.org/1999/02/22-rdf-syntax-ns#"
   xmlns:svg="http://www.w3.org/2000/svg"
   xmlns="http://www.w3.org/2000/svg"
   xmlns:xlink="http://www.w3.org/1999/xlink"
   xmlns:sodipodi="http://sodipodi.sourceforge.net/DTD/sodipodi-0.dtd"
   xmlns:inkscape="http://www.inkscape.org/namespaces/inkscape"
   width="22"
   height="22"
   id="svg5577"
   version="1.1"
   inkscape:version="0.48.3.1 r9886"
   sodipodi:docname="user-abailable.svg">
  <defs
     id="defs5579">
    <linearGradient
       inkscape:collect="always"
       xlink:href="#linearGradient5107"
       id="linearGradient4506"
       gradientUnits="userSpaceOnUse"
       x1="168"
       y1="1008.3622"
       x2="176"
       y2="1008.3622" />
    <linearGradient
       id="linearGradient5107">
      <stop
         style="stop-color:#277c33;stop-opacity:1;"
         offset="0"
         id="stop5109" />
      <stop
         style="stop-color:#5ecd6e;stop-opacity:1;"
         offset="1"
         id="stop5111" />
    </linearGradient>
    <linearGradient
       inkscape:collect="always"
       xlink:href="#linearGradient4241"
       id="linearGradient4508"
       gradientUnits="userSpaceOnUse"
       x1="492.76044"
       y1="1003.4911"
       x2="492.76044"
       y2="1010.4637" />
    <linearGradient
       inkscape:collect="always"
       id="linearGradient4241">
      <stop
         style="stop-color:#ffffff;stop-opacity:1;"
         offset="0"
         id="stop4243" />
      <stop
         style="stop-color:#ffffff;stop-opacity:0;"
         offset="1"
         id="stop4245" />
    </linearGradient>
    <linearGradient
       y2="1010.4637"
       x2="492.76044"
       y1="1003.4911"
       x1="492.76044"
       gradientUnits="userSpaceOnUse"
       id="linearGradient5575"
       xlink:href="#linearGradient4241"
       inkscape:collect="always" />
    <linearGradient
       inkscape:collect="always"
       xlink:href="#linearGradient5107"
       id="linearGradient3122"
       gradientUnits="userSpaceOnUse"
       x1="168"
       y1="1008.3622"
       x2="176"
       y2="1008.3622" />
    <linearGradient
       inkscape:collect="always"
       xlink:href="#linearGradient4241"
       id="linearGradient3124"
       gradientUnits="userSpaceOnUse"
       x1="492.76044"
       y1="1003.4911"
       x2="492.76044"
       y2="1010.4637" />
  </defs>
  <sodipodi:namedview
     id="base"
     pagecolor="#ffffff"
     bordercolor="#666666"
     borderopacity="1.0"
     inkscape:pageopacity="0.0"
     inkscape:pageshadow="2"
     inkscape:zoom="6.3664629"
     inkscape:cx="30.904131"
     inkscape:cy="29.490473"
     inkscape:document-units="px"
     inkscape:current-layer="layer1"
     showgrid="false"
     inkscape:window-width="1920"
     inkscape:window-height="1030"
     inkscape:window-x="0"
     inkscape:window-y="22"
     inkscape:window-maximized="1" />
  <metadata
     id="metadata5582">
    <rdf:RDF>
      <cc:Work
         rdf:about="">
        <dc:format>image/svg+xml</dc:format>
        <dc:type
           rdf:resource="http://purl.org/dc/dcmitype/StillImage" />
        <dc:title />
      </cc:Work>
    </rdf:RDF>
  </metadata>
  <g
     inkscape:label="Layer 1"
     inkscape:groupmode="layer"
     id="layer1"
     transform="translate(0,-1030.3622)">
    <g
       id="g3114"
       transform="translate(-1,1)">
      <path
         sodipodi:type="arc"
         style="opacity:0.05;color:#000000;fill:#000000;fill-opacity:1;fill-rule:nonzero;stroke:none;stroke-width:2;marker:none;visibility:visible;display:inline;overflow:visible;enable-background:accumulate"
         id="path5051"
         sodipodi:cx="172"
         sodipodi:cy="1008.3622"
         sodipodi:rx="4"
         sodipodi:ry="4"
         d="m 176,1008.3622 c 0,2.2091 -1.79086,4 -4,4 -2.20914,0 -4,-1.7909 -4,-4 0,-2.2092 1.79086,-4 4,-4 2.20914,0 4,1.7908 4,4 z"
         transform="matrix(1.75,0,0,1.75,-289,-724.27162)" />
      <path
         sodipodi:type="arc"
         style="opacity:0.2;color:#000000;fill:#000000;fill-opacity:1;fill-rule:nonzero;stroke:none;stroke-width:2;marker:none;visibility:visible;display:inline;overflow:visible;enable-background:accumulate"
         id="path5053"
         sodipodi:cx="172"
         sodipodi:cy="1008.3622"
         sodipodi:rx="4"
         sodipodi:ry="4"
         d="m 176,1008.3622 c 0,2.2091 -1.79086,4 -4,4 -2.20914,0 -4,-1.7909 -4,-4 0,-2.2092 1.79086,-4 4,-4 2.20914,0 4,1.7908 4,4 z"
         transform="matrix(0,-1.5,1.5,0,-1500.5433,1299.3622)" />
      <path
         transform="matrix(0,1.5,1.5,0,-1500.5433,782.36222)"
         d="m 176,1008.3622 c 0,2.2091 -1.79086,4 -4,4 -2.20914,0 -4,-1.7909 -4,-4 0,-2.2092 1.79086,-4 4,-4 2.20914,0 4,1.7908 4,4 z"
         sodipodi:ry="4"
         sodipodi:rx="4"
         sodipodi:cy="1008.3622"
         sodipodi:cx="172"
         id="path5055"
         style="color:#000000;fill:url(#linearGradient3122);fill-opacity:1;fill-rule:nonzero;stroke:none;stroke-width:2;marker:none;visibility:visible;display:inline;overflow:visible;enable-background:accumulate"
         sodipodi:type="arc" />
      <path
         inkscape:connector-curvature="0"
         style="opacity:0.3;color:#000000;fill:#000000;fill-opacity:1;fill-rule:nonzero;stroke:none;stroke-width:2;marker:none;visibility:visible;display:inline;overflow:visible;enable-background:accumulate"
         d="m 18,1040.375 c 0,3.3137 -2.6863,6 -6,6 -3.3137,0 -6,-2.6863 -6,-6 0,-3.3137 2.6863,-6 6,-6 3.3137,0 6,2.6863 6,6 z m -1,0.5 c 0.017,-0.1681 0,-0.3274 0,-0.5 0,-2.7614 -2.2386,-5 -5,-5 -2.7614,0 -5,2.2386 -5,5 0,2.7614 2.2386,5 5,5 2.5888,0 4.7439,-1.9787 5,-4.5 z"
         id="path5057" />
      <path
         style="opacity:0.2;color:#000000;fill:#ffffff;fill-opacity:1;fill-rule:nonzero;stroke:none;stroke-width:2;marker:none;visibility:visible;display:inline;overflow:visible;enable-background:accumulate"
         d="m 7.03125,1039.875 c -0.0152,0.1585 -0.0312,0.3375 -0.0312,0.5 0,2.7614 2.23858,5 5,5 2.76142,0 5,-2.2386 5,-5 0,-0.1625 -0.0161,-0.3415 -0.0312,-0.5 -0.25605,2.5213 -2.37992,4.5 -4.96875,4.5 -2.58883,0 -4.7127,-1.9787 -4.96875,-4.5 z"
         id="path5113"
         inkscape:connector-curvature="0" />
      <path
         sodipodi:type="arc"
         style="opacity:0.8;color:#000000;fill:url(#linearGradient3124);fill-opacity:1;fill-rule:nonzero;stroke:none;stroke-width:2;marker:none;visibility:visible;display:inline;overflow:visible;enable-background:accumulate"
         id="path5118"
         sodipodi:cx="492"
         sodipodi:cy="1006.3622"
         sodipodi:rx="5"
         sodipodi:ry="3"
         d="m 497,1006.3622 c 0,1.6568 -2.23858,3 -5,3 -2.76142,0 -5,-1.3432 -5,-3 0,-1.6569 2.23858,-3 5,-3 2.76142,0 5,1.3431 5,3 z"
         transform="matrix(0.70852063,0,0,0.83333333,-336.59215,199.22705)" />
    </g>
  </g>
</svg>
