<?xml version="1.0" encoding="UTF-8" standalone="no"?>
<!-- Created with Inkscape (http://www.inkscape.org/) -->
<svg id="svg4188" xmlns="http://www.w3.org/2000/svg" height="32" width="32" version="1.0" xmlns:xlink="http://www.w3.org/1999/xlink">
 <defs id="defs4190">
  <linearGradient id="linearGradient3297" y2="2.9062" gradientUnits="userSpaceOnUse" x2="-51.786" gradientTransform="matrix(.24637 0 0 .28076 30.643 16.216)" y1="50.786" x1="-51.786">
   <stop id="stop3106" style="stop-color:#9a9a9a" offset="0"/>
   <stop id="stop3108" style="stop-color:#afafaf" offset="1"/>
  </linearGradient>
  <linearGradient id="linearGradient3295" y2="47.013" gradientUnits="userSpaceOnUse" x2="25.132" gradientTransform="matrix(.30510 0 0 0.3 12.517 16.55)" y1="6.7287" x1="25.132">
   <stop id="stop3602" style="stop-color:#f4f4f4" offset="0"/>
   <stop id="stop3604" style="stop-color:#dbdbdb" offset="1"/>
  </linearGradient>
  <linearGradient id="linearGradient2457" y2="609.51" gradientUnits="userSpaceOnUse" x2="302.86" gradientTransform="matrix(.051143 0 0 .015916 -2.49 22.299)" y1="366.65" x1="302.86">
   <stop id="stop2667" style="stop-opacity:0" offset="0"/>
   <stop id="stop2669" offset=".5"/>
   <stop id="stop2671" style="stop-opacity:0" offset="1"/>
  </linearGradient>
  <radialGradient id="radialGradient2459" gradientUnits="userSpaceOnUse" cy="486.65" cx="605.71" gradientTransform="matrix(.019836 0 0 .015916 16.388 22.299)" r="117.14">
   <stop id="stop2675" offset="0"/>
   <stop id="stop2677" style="stop-opacity:0" offset="1"/>
  </radialGradient>
  <radialGradient id="radialGradient2461" gradientUnits="userSpaceOnUse" cy="486.65" cx="605.71" gradientTransform="matrix(-.019836 0 0 .015916 15.601 22.299)" r="117.14">
   <stop id="stop2681" offset="0"/>
   <stop id="stop2683" style="stop-opacity:0" offset="1"/>
  </radialGradient>
  <linearGradient id="linearGradient2479" y2="33.955" gradientUnits="userSpaceOnUse" x2="15.215" gradientTransform="matrix(.65153 0 0 .67605 .36035 .18497)" y1="22.292" x1="11.566">
   <stop id="stop2687" style="stop-color:#fff;stop-opacity:.27451" offset="0"/>
   <stop id="stop2689" style="stop-color:#fff;stop-opacity:.078431" offset="1"/>
  </linearGradient>
  <radialGradient id="radialGradient2482" gradientUnits="userSpaceOnUse" cy="8.3021" cx="7.2647" gradientTransform="matrix(0 .73863 -.99849 0 17.149 6.854)" r="20.98">
   <stop id="stop2693" style="stop-color:#fff;stop-opacity:0.4" offset="0"/>
   <stop id="stop2695" style="stop-color:#fff;stop-opacity:0" offset="1"/>
  </radialGradient>
  <linearGradient id="linearGradient2485" y2="36.658" gradientUnits="userSpaceOnUse" x2="22.809" gradientTransform="matrix(.74675 0 0 .65549 -1.9221 1.1676)" y1="49.629" x1="22.935">
   <stop id="stop2661" style="stop-color:#0a0a0a;stop-opacity:.498" offset="0"/>
   <stop id="stop2663" style="stop-color:#0a0a0a;stop-opacity:0" offset="1"/>
  </linearGradient>
  <radialGradient id="radialGradient2488" gradientUnits="userSpaceOnUse" cy="14.113" cx="63.969" gradientTransform="matrix(1.008 -6.1246e-8 3.9794e-8 .65396 -55.005 6.1062)" r="23.097">
   <stop id="stop3618" style="stop-color:#f0c178" offset="0"/>
   <stop id="stop3270" style="stop-color:#e18941" offset=".5"/>
   <stop id="stop3620" style="stop-color:#ec4f18" offset="1"/>
  </radialGradient>
  <linearGradient id="linearGradient2490" y2="10.826" gradientUnits="userSpaceOnUse" x2="82.453" gradientTransform="matrix(.64421 0 0 .64373 -34.103 .78876)" y1="45.114" x1="82.453">
   <stop id="stop3624" style="stop-color:#bb2b12" offset="0"/>
   <stop id="stop3626" style="stop-color:#cd7233" offset="1"/>
  </linearGradient>
  <linearGradient id="linearGradient2494" y2="16.19" gradientUnits="userSpaceOnUse" x2="62.989" gradientTransform="matrix(.64168 0 0 .64020 -32.15 1.0109)" y1="13.183" x1="62.989">
   <stop id="stop6406" style="stop-color:#f9f9f9" offset="0"/>
   <stop id="stop6408" style="stop-color:#c9c9c9" offset="1"/>
  </linearGradient>
  <radialGradient id="radialGradient2496" gradientUnits="userSpaceOnUse" cy="5.0172" cx="3" gradientTransform="matrix(0 1.0975 -1.3856 0 8.757 2.8399)" r="21">
   <stop id="stop3486" style="stop-color:#bdbdbd" offset="0"/>
   <stop id="stop3488" style="stop-color:#d0d0d0" offset="1"/>
  </radialGradient>
  <linearGradient id="linearGradient2732" y2="18.406" gradientUnits="userSpaceOnUse" x2="40.853" gradientTransform="matrix(-.5 0 0 -.5 36.145 40.841)" y1="32.281" x1="41.238">
   <stop id="stop3430-8" style="stop-color:#fff" offset="0"/>
   <stop id="stop3432-2" style="stop-color:#fff;stop-opacity:0" offset="1"/>
  </linearGradient>
  <linearGradient id="linearGradient2736" y2="17.88" gradientUnits="userSpaceOnUse" x2="29.109" y1="31.129" x1="42.359">
   <stop id="stop3414-9" style="stop-color:#fcfcfc" offset="0"/>
   <stop id="stop3416-9" style="stop-color:#cbcdd9" offset="1"/>
  </linearGradient>
 </defs>
 <g id="g2458" transform="translate(0 -1)">
  <rect id="rect2925" style="opacity:.3;fill:url(#linearGradient2457)" height="3.8653" width="24.695" y="28.135" x="3.6472"/>
  <path id="path2927" style="opacity:.3;fill:url(#radialGradient2459)" d="m28.342 28.135v3.865c1.021 0.007 2.469-0.866 2.469-1.933s-1.14-1.932-2.469-1.932z"/>
  <path id="path2929" style="opacity:.3;fill:url(#radialGradient2461)" d="m3.6472 28.135v3.865c-1.0215 0.007-2.4695-0.866-2.4695-1.933s1.1399-1.932 2.4695-1.932z"/>
 </g>
 <path id="path2882" style="stroke-linejoin:round;stroke:url(#radialGradient2496);stroke-linecap:round;fill:url(#linearGradient2494)" d="m3 6.5074c-0.4429 0.0049-0.5 0.2191-0.5 0.6402 0 3.5304 0.0206 6.1804 0 9.3884 0.9211 0 27.015-2.368 27.015-3.388v-3.9659c0-0.4212-0.356-0.6451-0.799-0.6402h-12.778c-1.314 0-2.245-2.0345-3.209-2.0345h-9.729z"/>
 <rect id="rect2892" style="display:block;fill:#eda374" rx=".61538" ry=".5" height="1" width="8" y="8" x="4"/>
 <path id="path2931" style="stroke-linejoin:round;stroke:url(#linearGradient2490);stroke-linecap:round;fill:url(#radialGradient2488)" d="m1.9268 11.5c-0.691 0.08-0.3219 0.903-0.377 1.365 0.0802 0.299 0.5977 15.718 0.5977 16.248 0 0.46 0.2267 0.382 0.801 0.382h26.398c0.619 0.014 0.488 0.007 0.488-0.389 0.045-0.203 0.64-16.979 0.663-17.244 0-0.279 0.058-0.362-0.305-0.362h-28.265z"/>
 <path id="path2933" style="opacity:.4;fill:url(#linearGradient2485)" d="m1.6818 11h28.636c0.414 0 0.682 0.292 0.682 0.656l-0.674 17.712c0.01 0.459-0.136 0.641-0.617 0.632l-27.256-0.012c-0.4134 0-0.8306-0.271-0.8306-0.634l-0.6224-17.699c0-0.363 0.2681-0.655 0.6818-0.655z"/>
 <path id="path2935" style="stroke-linejoin:round;stroke:url(#radialGradient2482);stroke-linecap:round;fill:none" d="m29.5 12.5h-27c0.2365 5 0.473 10 0.7095 15"/>
 <path id="path2937" style="fill:url(#linearGradient2479)" d="m30.406 11.017c-9.48 0.05-19.201-0.03-28.682-0.015-1.1767 0.278-0.5431 1.667-0.6331 2.549 0.1447 2.815 0.2105 5.642 0.4043 8.449 9.7738-1.597 19.498-3.115 29.101-4.766 0.508-1.749 0.372-4.905 0.398-5.544 0.051-0.457-0.245-0.68-0.588-0.673z"/>
 <path id="rect2594" style="stroke-linejoin:round;stroke:url(#linearGradient3297);fill:url(#linearGradient3295)" d="m14.5 15.5h10.162c0.429 0.146 2.236 1.304 2.838 2.453v12.547h-13v-15z"/>
 <path id="path3449" style="opacity:.8;stroke:#9a9eac;fill:none" d="m24.5 16.523v12.477"/>
 <path id="path3453" style="opacity:.8;stroke:#9a9eac;stroke-width:.99998;fill:none" d="m26 18.5h-10"/>
 <path id="path3447" style="opacity:.8;stroke:#9a9eac;fill:none" d="m17.5 17v12"/>
 <path id="path3451" style="opacity:.8;stroke:#9a9eac;fill:none" d="m25.98 27.5h-9.98"/>
 <text id="text3455" style="opacity:.8;font-size:8px;font-family:Bitstream Vera Sans;fill:#9a9eac" xml:space="preserve" transform="scale(1.0404 .96116)" y="26.329073" x="17.930893"><tspan id="tspan3457" y="26.329073" x="17.930893" style="font-size:8px">a</tspan></text>
 <g id="g3553" style="stroke-width:2" transform="matrix(-.5 0 0 -.5 36.25 40.75)">
  <path id="path3410" style="opacity:.8;stroke-linejoin:round;fill-rule:evenodd;stroke:#83899a;stroke-width:2;fill:url(#linearGradient2736)" d="m30.5 18.5l15 15v-15h-15zm9 4h2v2l-2-2z"/>
 </g>
 <path id="path3424" style="opacity:.4;stroke:url(#linearGradient2732);fill:none" d="m19.786 31.138l-5.938-5.938v5.938h5.938z"/>
</svg>
