<?xml version="1.0" encoding="UTF-8" standalone="no"?>
<!-- Created with Inkscape (http://www.inkscape.org/) -->
<svg id="svg4188" xmlns="http://www.w3.org/2000/svg" height="32" width="32" version="1.0" xmlns:xlink="http://www.w3.org/1999/xlink">
 <defs id="defs4190">
  <linearGradient id="linearGradient2546" y2="28.009" gradientUnits="userSpaceOnUse" x2="-15.198" gradientTransform="matrix(1 0 0 .92852 0 1.9661)" y1="13.005" x1="-15.198">
   <stop id="stop3570" style="stop-color:#999" offset="0"/>
   <stop id="stop3572" style="stop-color:#777" offset="1"/>
  </linearGradient>
  <linearGradient id="linearGradient2544" y2="-6.5684" gradientUnits="userSpaceOnUse" x2="-11.006" gradientTransform="matrix(1.192 0 0 1.101 -8.254 12.198)" y1="25.357" x1="-7.9751">
   <stop id="stop6993" style="stop-color:#d3d7cf" offset="0"/>
   <stop id="stop6995" style="stop-color:#fff" offset="1"/>
  </linearGradient>
  <linearGradient id="linearGradient2541" y2="18.938" gradientUnits="userSpaceOnUse" x2="-5.5099" gradientTransform="matrix(-1.2196 0 0 1.1342 6.036 13.871)" y1="3.7546" x1="-7.8517">
   <stop id="stop7440" style="stop-color:#fff" offset="0"/>
   <stop id="stop7442" style="stop-color:#fff;stop-opacity:0" offset="1"/>
  </linearGradient>
  <linearGradient id="linearGradient2537" y2="26.205" gradientUnits="userSpaceOnUse" x2="32.812" gradientTransform="matrix(-0.6 0 0 .59657 33.7 7.5601)" y1="21" x1="32.812">
   <stop id="stop7342" style="stop-color:#2e3436" offset="0"/>
   <stop id="stop7344" style="stop-color:#555753" offset="1"/>
  </linearGradient>
  <linearGradient id="linearGradient2534" y2="16" gradientUnits="userSpaceOnUse" x2="29" gradientTransform="matrix(-.53928 0 0 .53924 31.915 8.8669)" y1="29" x1="28.875">
   <stop id="stop7432" style="stop-color:#fff" offset="0"/>
   <stop id="stop7434" style="stop-color:#fff;stop-opacity:0" offset="1"/>
  </linearGradient>
  <linearGradient id="linearGradient3595" y2="24.688" xlink:href="#linearGradient7422" gradientUnits="userSpaceOnUse" x2="30.312" y1="27.313" x1="30.312"/>
  <linearGradient id="linearGradient7422">
   <stop id="stop7424" style="stop-color:#edd400" offset="0"/>
   <stop id="stop7426" style="stop-color:#edd400;stop-opacity:0" offset="1"/>
  </linearGradient>
  <linearGradient id="linearGradient2457" y2="609.51" gradientUnits="userSpaceOnUse" x2="302.86" gradientTransform="matrix(.051143 0 0 .015916 -2.49 22.299)" y1="366.65" x1="302.86">
   <stop id="stop2667" style="stop-opacity:0" offset="0"/>
   <stop id="stop2669" offset=".5"/>
   <stop id="stop2671" style="stop-opacity:0" offset="1"/>
  </linearGradient>
  <radialGradient id="radialGradient2459" gradientUnits="userSpaceOnUse" cy="486.65" cx="605.71" gradientTransform="matrix(.019836 0 0 .015916 16.388 22.299)" r="117.14">
   <stop id="stop2675" offset="0"/>
   <stop id="stop2677" style="stop-opacity:0" offset="1"/>
  </radialGradient>
  <radialGradient id="radialGradient2461" gradientUnits="userSpaceOnUse" cy="486.65" cx="605.71" gradientTransform="matrix(-.019836 0 0 .015916 15.601 22.299)" r="117.14">
   <stop id="stop2681" offset="0"/>
   <stop id="stop2683" style="stop-opacity:0" offset="1"/>
  </radialGradient>
  <linearGradient id="linearGradient2479" y2="33.955" gradientUnits="userSpaceOnUse" x2="15.215" gradientTransform="matrix(.65153 0 0 .67605 .36035 .18497)" y1="22.292" x1="11.566">
   <stop id="stop2687" style="stop-color:#fff;stop-opacity:.27451" offset="0"/>
   <stop id="stop2689" style="stop-color:#fff;stop-opacity:.078431" offset="1"/>
  </linearGradient>
  <radialGradient id="radialGradient2482" gradientUnits="userSpaceOnUse" cy="8.3021" cx="7.2647" gradientTransform="matrix(0 .73863 -.99849 0 17.149 6.854)" r="20.98">
   <stop id="stop2693" style="stop-color:#fff;stop-opacity:0.4" offset="0"/>
   <stop id="stop2695" style="stop-color:#fff;stop-opacity:0" offset="1"/>
  </radialGradient>
  <linearGradient id="linearGradient2485" y2="36.658" gradientUnits="userSpaceOnUse" x2="22.809" gradientTransform="matrix(.74675 0 0 .65549 -1.9221 1.1676)" y1="49.629" x1="22.935">
   <stop id="stop2661" style="stop-color:#0a0a0a;stop-opacity:.498" offset="0"/>
   <stop id="stop2663" style="stop-color:#0a0a0a;stop-opacity:0" offset="1"/>
  </linearGradient>
  <radialGradient id="radialGradient2488" gradientUnits="userSpaceOnUse" cy="14.113" cx="63.969" gradientTransform="matrix(1.008 -6.1246e-8 3.9794e-8 .65396 -55.005 6.1062)" r="23.097">
   <stop id="stop3618" style="stop-color:#f0c178" offset="0"/>
   <stop id="stop3270" style="stop-color:#e18941" offset=".5"/>
   <stop id="stop3620" style="stop-color:#ec4f18" offset="1"/>
  </radialGradient>
  <linearGradient id="linearGradient2490" y2="10.826" gradientUnits="userSpaceOnUse" x2="82.453" gradientTransform="matrix(.64421 0 0 .64373 -34.103 .78876)" y1="45.114" x1="82.453">
   <stop id="stop3624" style="stop-color:#bb2b12" offset="0"/>
   <stop id="stop3626" style="stop-color:#cd7233" offset="1"/>
  </linearGradient>
  <linearGradient id="linearGradient2494" y2="16.19" gradientUnits="userSpaceOnUse" x2="62.989" gradientTransform="matrix(.64168 0 0 .64020 -32.15 1.0109)" y1="13.183" x1="62.989">
   <stop id="stop6406" style="stop-color:#f9f9f9" offset="0"/>
   <stop id="stop6408" style="stop-color:#c9c9c9" offset="1"/>
  </linearGradient>
  <radialGradient id="radialGradient2496" gradientUnits="userSpaceOnUse" cy="5.0172" cx="3" gradientTransform="matrix(0 1.0975 -1.3856 0 8.757 2.8399)" r="21">
   <stop id="stop3486" style="stop-color:#bdbdbd" offset="0"/>
   <stop id="stop3488" style="stop-color:#d0d0d0" offset="1"/>
  </radialGradient>
 </defs>
 <g id="g2458" transform="translate(0 -1)">
  <rect id="rect2925" style="opacity:.3;fill:url(#linearGradient2457)" height="3.8653" width="24.695" y="28.135" x="3.6472"/>
  <path id="path2927" style="opacity:.3;fill:url(#radialGradient2459)" d="m28.342 28.135v3.865c1.021 0.007 2.469-0.866 2.469-1.933s-1.14-1.932-2.469-1.932z"/>
  <path id="path2929" style="opacity:.3;fill:url(#radialGradient2461)" d="m3.6472 28.135v3.865c-1.0215 0.007-2.4695-0.866-2.4695-1.933s1.1399-1.932 2.4695-1.932z"/>
 </g>
 <path id="path2882" style="stroke-linejoin:round;stroke:url(#radialGradient2496);stroke-linecap:round;fill:url(#linearGradient2494)" d="m3 6.5074c-0.4429 0.0049-0.5 0.2191-0.5 0.6402 0 3.5304 0.0206 6.1804 0 9.3884 0.9211 0 27.015-2.368 27.015-3.388v-3.9659c0-0.4212-0.356-0.6451-0.799-0.6402h-12.778c-1.314 0-2.245-2.0345-3.209-2.0345h-9.729z"/>
 <rect id="rect2892" style="display:block;fill:#eda374" rx=".61538" ry=".5" height="1" width="8" y="8" x="4"/>
 <path id="path2931" style="stroke-linejoin:round;stroke:url(#linearGradient2490);stroke-linecap:round;fill:url(#radialGradient2488)" d="m1.9268 11.5c-0.691 0.08-0.3219 0.903-0.377 1.365 0.0802 0.299 0.5977 15.718 0.5977 16.248 0 0.46 0.2267 0.382 0.801 0.382h26.398c0.619 0.014 0.488 0.007 0.488-0.389 0.045-0.203 0.64-16.979 0.663-17.244 0-0.279 0.058-0.362-0.305-0.362h-28.265z"/>
 <path id="path2933" style="opacity:.4;fill:url(#linearGradient2485)" d="m1.6818 11h28.636c0.414 0 0.682 0.292 0.682 0.656l-0.674 17.712c0.01 0.459-0.136 0.641-0.617 0.632l-27.256-0.012c-0.4134 0-0.8306-0.271-0.8306-0.634l-0.6224-17.699c0-0.363 0.2681-0.655 0.6818-0.655z"/>
 <path id="path2935" style="stroke-linejoin:round;stroke:url(#radialGradient2482);stroke-linecap:round;fill:none" d="m29.5 12.5h-27c0.2365 5 0.473 10 0.7095 15"/>
 <path id="path2937" style="fill:url(#linearGradient2479)" d="m30.406 11.017c-9.48 0.05-19.201-0.03-28.682-0.015-1.1767 0.278-0.5431 1.667-0.6331 2.549 0.1447 2.815 0.2105 5.642 0.4043 8.449 9.7738-1.597 19.498-3.115 29.101-4.766 0.508-1.749 0.372-4.905 0.398-5.544 0.051-0.457-0.245-0.68-0.588-0.673z"/>
 <rect id="rect5925" style="stroke-linejoin:round;stroke-opacity:.99237;fill-rule:evenodd;stroke-dashoffset:0.7;stroke:url(#linearGradient2546);stroke-linecap:round;fill:url(#linearGradient2544)" transform="scale(-1,1)" rx="2" ry="1.857" height="13" width="15" y="14.506" x="-23.502"/>
 <path id="path6964" style="stroke-linejoin:round;stroke-opacity:.99237;stroke-dashoffset:0.7;stroke:url(#linearGradient2541);stroke-linecap:round;fill:none" d="m21.28 15.572c0.699 0 1.22 0.484 1.22 1.134v8.732c0 0.65-0.521 1.134-1.22 1.134h-10.56c-0.699 0-1.22-0.484-1.22-1.134v-8.732c0-0.65 0.521-1.134 1.22-1.134h10.56z"/>
 <path id="rect7327" style="fill:url(#linearGradient2537);fill-rule:evenodd" d="m16.562 18c0.353 0 0.638 0.283 0.638 0.634v0.158c0 0.161 0.127 0.298 0.3 0.298h0.862c0.353 0 0.638 0.386 0.638 0.737v3.539c0 0.351-0.285 0.634-0.638 0.634h-4.725c-0.352 0-0.637-0.283-0.637-0.634v-3.539c0-0.351 0.285-0.737 0.637-0.737h0.863c0.144 0.01 0.3-0.102 0.3-0.289v-0.167c0-0.351 0.285-0.634 0.637-0.634h1.125z"/>
 <path id="path2709" style="stroke-dashoffset:0.7;stroke:url(#linearGradient2534);stroke-linecap:round;fill:none" d="m15.486 17.5c-0.643 0-1.115 0.498-1.252 1.092h-0.353c-0.744 0-1.381 0.597-1.381 1.348v3.179c0 0.752 0.629 1.381 1.381 1.381h4.239c0.751 0 1.38-0.629 1.38-1.381v-3.179c0-0.751-0.636-1.348-1.38-1.348h-0.322c-0.143-0.599-0.64-1.092-1.284-1.092h-1.028z"/>
 <g id="g7393" style="stroke:url(#linearGradient3595);stroke-width:1.8544" transform="matrix(-.53928 0 0 .53924 31.915 8.3277)">
  <path id="path7352" style="stroke:url(#linearGradient3595);stroke-linecap:round;stroke-width:1.8544px;fill:none" d="m26.5 26.5v-2"/>
  <path id="path7362" style="stroke:url(#linearGradient3595);stroke-linecap:round;stroke-width:1.8544px;fill:none" d="m28.5 26.5v-2"/>
  <path id="path7364" style="stroke:url(#linearGradient3595);stroke-linecap:round;stroke-width:1.8544px;fill:none" d="m30.5 26.5v-2"/>
  <path id="path7366" style="stroke:url(#linearGradient3595);stroke-linecap:round;stroke-width:1.8544px;fill:none" d="m32.5 26.5v-2"/>
 </g>
</svg>
