<?xml version="1.0" encoding="UTF-8" standalone="no"?>
<!-- Created with Inkscape (http://www.inkscape.org/) -->
<svg id="svg4188" xmlns="http://www.w3.org/2000/svg" height="32" width="32" version="1.0" xmlns:xlink="http://www.w3.org/1999/xlink">
 <defs id="defs4190">
  <linearGradient id="linearGradient3260" y2="20.895" gradientUnits="userSpaceOnUse" x2="84.639" gradientTransform="matrix(.096142 0 0 .096142 1.8469 1.943)" y1="105.1" x1="86.133">
   <stop id="stop5130" style="stop-color:#e5e5e5" offset="0"/>
   <stop id="stop5132" style="stop-color:#ababab" offset="1"/>
  </linearGradient>
  <linearGradient id="linearGradient3264" y2="16.005" gradientUnits="userSpaceOnUse" x2="21" gradientTransform="translate(-17.058)" x1="21">
   <stop id="stop3399" style="stop-color:#aaa" offset="0"/>
   <stop id="stop3401" style="stop-color:#8c8c8c" offset="1"/>
  </linearGradient>
  <linearGradient id="linearGradient3262" y2="16" gradientUnits="userSpaceOnUse" x2="25" gradientTransform="translate(-17.058)" x1="25">
   <stop id="stop3311" style="stop-color:#f6f6f6" offset="0"/>
   <stop id="stop3313" style="stop-color:#ccc" offset="1"/>
  </linearGradient>
  <linearGradient id="linearGradient2457" y2="609.51" gradientUnits="userSpaceOnUse" x2="302.86" gradientTransform="matrix(.051143 0 0 .015916 -2.49 22.299)" y1="366.65" x1="302.86">
   <stop id="stop2667" style="stop-opacity:0" offset="0"/>
   <stop id="stop2669" offset=".5"/>
   <stop id="stop2671" style="stop-opacity:0" offset="1"/>
  </linearGradient>
  <radialGradient id="radialGradient2459" gradientUnits="userSpaceOnUse" cy="486.65" cx="605.71" gradientTransform="matrix(.019836 0 0 .015916 16.388 22.299)" r="117.14">
   <stop id="stop2675" offset="0"/>
   <stop id="stop2677" style="stop-opacity:0" offset="1"/>
  </radialGradient>
  <radialGradient id="radialGradient2461" gradientUnits="userSpaceOnUse" cy="486.65" cx="605.71" gradientTransform="matrix(-.019836 0 0 .015916 15.601 22.299)" r="117.14">
   <stop id="stop2681" offset="0"/>
   <stop id="stop2683" style="stop-opacity:0" offset="1"/>
  </radialGradient>
  <linearGradient id="linearGradient2479" y2="33.955" gradientUnits="userSpaceOnUse" x2="15.215" gradientTransform="matrix(.65153 0 0 .67605 .36035 .18497)" y1="22.292" x1="11.566">
   <stop id="stop2687" style="stop-color:#fff;stop-opacity:.27451" offset="0"/>
   <stop id="stop2689" style="stop-color:#fff;stop-opacity:.078431" offset="1"/>
  </linearGradient>
  <radialGradient id="radialGradient2482" gradientUnits="userSpaceOnUse" cy="8.3021" cx="7.2647" gradientTransform="matrix(0 .73863 -.99849 0 17.149 6.854)" r="20.98">
   <stop id="stop2693" style="stop-color:#fff;stop-opacity:0.4" offset="0"/>
   <stop id="stop2695" style="stop-color:#fff;stop-opacity:0" offset="1"/>
  </radialGradient>
  <linearGradient id="linearGradient2485" y2="36.658" gradientUnits="userSpaceOnUse" x2="22.809" gradientTransform="matrix(.74675 0 0 .65549 -1.9221 1.1676)" y1="49.629" x1="22.935">
   <stop id="stop2661" style="stop-color:#0a0a0a;stop-opacity:.498" offset="0"/>
   <stop id="stop2663" style="stop-color:#0a0a0a;stop-opacity:0" offset="1"/>
  </linearGradient>
  <radialGradient id="radialGradient2488" gradientUnits="userSpaceOnUse" cy="14.113" cx="63.969" gradientTransform="matrix(1.008 -6.1246e-8 3.9794e-8 .65396 -55.005 6.1062)" r="23.097">
   <stop id="stop3618" style="stop-color:#f0c178" offset="0"/>
   <stop id="stop3270" style="stop-color:#e18941" offset=".5"/>
   <stop id="stop3620" style="stop-color:#ec4f18" offset="1"/>
  </radialGradient>
  <linearGradient id="linearGradient2490" y2="10.826" gradientUnits="userSpaceOnUse" x2="82.453" gradientTransform="matrix(.64421 0 0 .64373 -34.103 .78876)" y1="45.114" x1="82.453">
   <stop id="stop3624" style="stop-color:#bb2b12" offset="0"/>
   <stop id="stop3626" style="stop-color:#cd7233" offset="1"/>
  </linearGradient>
  <linearGradient id="linearGradient2494" y2="16.19" gradientUnits="userSpaceOnUse" x2="62.989" gradientTransform="matrix(.64168 0 0 .64020 -32.15 1.0109)" y1="13.183" x1="62.989">
   <stop id="stop6406" style="stop-color:#f9f9f9" offset="0"/>
   <stop id="stop6408" style="stop-color:#c9c9c9" offset="1"/>
  </linearGradient>
  <radialGradient id="radialGradient2496" gradientUnits="userSpaceOnUse" cy="5.0172" cx="3" gradientTransform="matrix(0 1.0975 -1.3856 0 8.757 2.8399)" r="21">
   <stop id="stop3486" style="stop-color:#bdbdbd" offset="0"/>
   <stop id="stop3488" style="stop-color:#d0d0d0" offset="1"/>
  </radialGradient>
 </defs>
 <g id="g2458" transform="translate(0 -1)">
  <rect id="rect2925" style="opacity:.3;fill:url(#linearGradient2457)" height="3.8653" width="24.695" y="28.135" x="3.6472"/>
  <path id="path2927" style="opacity:.3;fill:url(#radialGradient2459)" d="m28.342 28.135v3.865c1.021 0.007 2.469-0.866 2.469-1.933s-1.14-1.932-2.469-1.932z"/>
  <path id="path2929" style="opacity:.3;fill:url(#radialGradient2461)" d="m3.6472 28.135v3.865c-1.0215 0.007-2.4695-0.866-2.4695-1.933s1.1399-1.932 2.4695-1.932z"/>
 </g>
 <path id="path2882" style="stroke-linejoin:round;stroke:url(#radialGradient2496);stroke-linecap:round;fill:url(#linearGradient2494)" d="m3 6.5074c-0.4429 0.0049-0.5 0.2191-0.5 0.6402 0 3.5304 0.0206 6.1804 0 9.3884 0.9211 0 27.015-2.368 27.015-3.388v-3.9659c0-0.4212-0.356-0.6451-0.799-0.6402h-12.778c-1.314 0-2.245-2.0345-3.209-2.0345h-9.729z"/>
 <rect id="rect2892" style="display:block;fill:#eda374" rx=".61538" ry=".5" height="1" width="8" y="8" x="4"/>
 <path id="path2931" style="stroke-linejoin:round;stroke:url(#linearGradient2490);stroke-linecap:round;fill:url(#radialGradient2488)" d="m1.9268 11.5c-0.691 0.08-0.3219 0.903-0.377 1.365 0.0802 0.299 0.5977 15.718 0.5977 16.248 0 0.46 0.2267 0.382 0.801 0.382h26.398c0.619 0.014 0.488 0.007 0.488-0.389 0.045-0.203 0.64-16.979 0.663-17.244 0-0.279 0.058-0.362-0.305-0.362h-28.265z"/>
 <path id="path2933" style="opacity:.4;fill:url(#linearGradient2485)" d="m1.6818 11h28.636c0.414 0 0.682 0.292 0.682 0.656l-0.674 17.712c0.01 0.459-0.136 0.641-0.617 0.632l-27.256-0.012c-0.4134 0-0.8306-0.271-0.8306-0.634l-0.6224-17.699c0-0.363 0.2681-0.655 0.6818-0.655z"/>
 <path id="path2935" style="stroke-linejoin:round;stroke:url(#radialGradient2482);stroke-linecap:round;fill:none" d="m29.5 12.5h-27c0.2365 5 0.473 10 0.7095 15"/>
 <path id="path2937" style="fill:url(#linearGradient2479)" d="m30.406 11.017c-9.48 0.05-19.201-0.03-28.682-0.015-1.1767 0.278-0.5431 1.667-0.6331 2.549 0.1447 2.815 0.2105 5.642 0.4043 8.449 9.7738-1.597 19.498-3.115 29.101-4.766 0.508-1.749 0.372-4.905 0.398-5.544 0.051-0.457-0.245-0.68-0.588-0.673z"/>
 <g id="g2467" transform="translate(13,15)">
  <g id="g2479">
   <path id="path2426" style="stroke-linejoin:round;stroke:url(#linearGradient3264);display:block;fill:url(#linearGradient3262)" d="m6.9375 0.5c-0.2484 0-0.4375 0.18908-0.4375 0.4375v1.25c-0.5539 0.1422-1.0512 0.3719-1.5312 0.6563l-0.9063-0.9063c-0.1757-0.1757-0.4493-0.1757-0.625 0l-1.5 1.5c-0.1757 0.1757-0.1757 0.4493 0 0.625l0.9063 0.9063c-0.2844 0.48-0.5141 0.9773-0.6563 1.5312h-1.25c-0.24842 0-0.4375 0.1891-0.4375 0.4375v2.125c0 0.2484 0.18908 0.4375 0.4375 0.4375h1.25c0.1422 0.554 0.3719 1.051 0.6563 1.531l-0.9063 0.907c-0.1757 0.175-0.1757 0.449 0 0.624l1.5 1.5c0.1757 0.176 0.4493 0.176 0.625 0l0.9063-0.906c0.48 0.285 0.9773 0.514 1.5312 0.656v1.25c0 0.249 0.1891 0.438 0.4375 0.438h2.125c0.2484 0 0.4375-0.189 0.4375-0.438v-1.25c0.554-0.142 1.051-0.371 1.531-0.656l0.907 0.906c0.175 0.176 0.449 0.176 0.624 0l1.5-1.5c0.176-0.175 0.176-0.449 0-0.624l-0.906-0.907c0.285-0.48 0.514-0.977 0.656-1.531h1.25c0.249 0 0.438-0.1891 0.438-0.4375v-2.125c0-0.2484-0.189-0.4375-0.438-0.4375h-1.25c-0.142-0.5539-0.371-1.0512-0.656-1.5312l0.906-0.9063c0.176-0.1757 0.176-0.4493 0-0.625l-1.5-1.5c-0.175-0.1757-0.449-0.1757-0.624 0l-0.907 0.9063c-0.48-0.2844-0.977-0.5141-1.531-0.6563v-1.25c0-0.24842-0.1891-0.4375-0.4375-0.4375h-2.125zm1.0625 5.5c1.104 0 2 0.896 2 2s-0.896 2-2 2-2-0.896-2-2 0.896-2 2-2z"/>
   <path id="path3315" style="opacity:.05" d="m8 3.4651c-2.5006 0-4.5349 2.0343-4.5349 4.5349 0 2.501 2.0343 4.535 4.5349 4.535 2.501 0 4.535-2.034 4.535-4.535 0-2.5006-2.034-4.5349-4.535-4.5349zm0 2.093c1.3479 0 2.442 1.094 2.442 2.4419s-1.0941 2.442-2.442 2.442-2.4419-1.0941-2.4419-2.442 1.094-2.4419 2.4419-2.4419z"/>
   <path id="path28" style="stroke:url(#linearGradient3260);fill:none" d="m8 4c-2.2056 0-4 1.7944-4 4 0 2.206 1.7944 4 4 4 2.206 0 4-1.794 4-4 0-2.2056-1.794-4-4-4z"/>
  </g>
 </g>
</svg>
