<?xml version="1.0" encoding="UTF-8" standalone="no"?>
<!-- Created with Inkscape (http://www.inkscape.org/) -->
<svg id="svg4188" xmlns="http://www.w3.org/2000/svg" height="32" width="32" version="1.0" xmlns:xlink="http://www.w3.org/1999/xlink">
 <defs id="defs4190">
  <radialGradient id="radialGradient2739" gradientUnits="userSpaceOnUse" cy="41.5" cx="32" gradientTransform="matrix(.37849 0 0 .15099 8.5026 22.73)" r="21">
   <stop id="stop5062-9" offset="0"/>
   <stop id="stop5064-1" style="stop-opacity:0" offset="1"/>
  </radialGradient>
  <radialGradient id="radialGradient2713" xlink:href="#linearGradient6954" gradientUnits="userSpaceOnUse" cy="36.978" cx="70.716" gradientTransform="matrix(.62061 0 0 .18455 -24.895 18.332)" r="16"/>
  <linearGradient id="linearGradient2710" y2="43.309" xlink:href="#linearGradient3341" gradientUnits="userSpaceOnUse" x2="30" gradientTransform="matrix(.45161 0 0 .44529 7.9516 10.685)" y1="21.687" x1="29.968"/>
  <linearGradient id="linearGradient6954">
   <stop id="stop6960" style="stop-color:#f5f5f5" offset="0"/>
   <stop id="stop6962" style="stop-color:#d2d2d2" offset="1"/>
  </linearGradient>
  <radialGradient id="radialGradient2707" xlink:href="#linearGradient6954" gradientUnits="userSpaceOnUse" cy="20.644" cx="67.364" gradientTransform="matrix(.19927 .67272 -.71666 .20486 21.946 -35.063)" r="8"/>
  <linearGradient id="linearGradient2704" y2="37.438" xlink:href="#linearGradient5060-7" gradientUnits="userSpaceOnUse" x2="17" gradientTransform="matrix(.66722 0 0 .38098 4.09 13.299)" y1="39" x1="22"/>
  <linearGradient id="linearGradient3341">
   <stop id="stop3343" style="stop-color:#fff" offset="0"/>
   <stop id="stop3345" style="stop-color:#fff;stop-opacity:0" offset="1"/>
  </linearGradient>
  <linearGradient id="linearGradient2701" y2="26.283" xlink:href="#linearGradient3341" gradientUnits="userSpaceOnUse" x2="30" gradientTransform="matrix(.35899 0 0 .38414 10.73 11.387)" y1="6.7808" x1="29.998"/>
  <linearGradient id="linearGradient5060-7">
   <stop id="stop5062-5" offset="0"/>
   <stop id="stop5064-4" style="stop-opacity:0" offset="1"/>
  </linearGradient>
  <linearGradient id="linearGradient2698" y2="37.438" xlink:href="#linearGradient5060-7" gradientUnits="userSpaceOnUse" x2="17" gradientTransform="matrix(-.66722 0 0 .38098 38.396 13.396)" y1="39" x1="22"/>
  <linearGradient id="linearGradient2457" y2="609.51" gradientUnits="userSpaceOnUse" x2="302.86" gradientTransform="matrix(.051143 0 0 .015916 -2.49 22.299)" y1="366.65" x1="302.86">
   <stop id="stop2667" style="stop-opacity:0" offset="0"/>
   <stop id="stop2669" offset=".5"/>
   <stop id="stop2671" style="stop-opacity:0" offset="1"/>
  </linearGradient>
  <radialGradient id="radialGradient2459" gradientUnits="userSpaceOnUse" cy="486.65" cx="605.71" gradientTransform="matrix(.019836 0 0 .015916 16.388 22.299)" r="117.14">
   <stop id="stop2675" offset="0"/>
   <stop id="stop2677" style="stop-opacity:0" offset="1"/>
  </radialGradient>
  <radialGradient id="radialGradient2461" gradientUnits="userSpaceOnUse" cy="486.65" cx="605.71" gradientTransform="matrix(-.019836 0 0 .015916 15.601 22.299)" r="117.14">
   <stop id="stop2681" offset="0"/>
   <stop id="stop2683" style="stop-opacity:0" offset="1"/>
  </radialGradient>
  <linearGradient id="linearGradient2479" y2="33.955" gradientUnits="userSpaceOnUse" x2="15.215" gradientTransform="matrix(.65153 0 0 .67605 .36035 .18497)" y1="22.292" x1="11.566">
   <stop id="stop2687" style="stop-color:#fff;stop-opacity:.27451" offset="0"/>
   <stop id="stop2689" style="stop-color:#fff;stop-opacity:.078431" offset="1"/>
  </linearGradient>
  <radialGradient id="radialGradient2482" gradientUnits="userSpaceOnUse" cy="8.3021" cx="7.2647" gradientTransform="matrix(0 .73863 -.99849 0 17.149 6.854)" r="20.98">
   <stop id="stop2693" style="stop-color:#fff;stop-opacity:0.4" offset="0"/>
   <stop id="stop2695" style="stop-color:#fff;stop-opacity:0" offset="1"/>
  </radialGradient>
  <linearGradient id="linearGradient2485" y2="36.658" gradientUnits="userSpaceOnUse" x2="22.809" gradientTransform="matrix(.74675 0 0 .65549 -1.9221 1.1676)" y1="49.629" x1="22.935">
   <stop id="stop2661" style="stop-color:#0a0a0a;stop-opacity:.498" offset="0"/>
   <stop id="stop2663" style="stop-color:#0a0a0a;stop-opacity:0" offset="1"/>
  </linearGradient>
  <radialGradient id="radialGradient2488" gradientUnits="userSpaceOnUse" cy="14.113" cx="63.969" gradientTransform="matrix(1.008 -6.1246e-8 3.9794e-8 .65396 -55.005 6.1062)" r="23.097">
   <stop id="stop3618" style="stop-color:#f0c178" offset="0"/>
   <stop id="stop3270" style="stop-color:#e18941" offset=".5"/>
   <stop id="stop3620" style="stop-color:#ec4f18" offset="1"/>
  </radialGradient>
  <linearGradient id="linearGradient2490" y2="10.826" gradientUnits="userSpaceOnUse" x2="82.453" gradientTransform="matrix(.64421 0 0 .64373 -34.103 .78876)" y1="45.114" x1="82.453">
   <stop id="stop3624" style="stop-color:#bb2b12" offset="0"/>
   <stop id="stop3626" style="stop-color:#cd7233" offset="1"/>
  </linearGradient>
  <linearGradient id="linearGradient2494" y2="16.19" gradientUnits="userSpaceOnUse" x2="62.989" gradientTransform="matrix(.64168 0 0 .64020 -32.15 1.0109)" y1="13.183" x1="62.989">
   <stop id="stop6406" style="stop-color:#f9f9f9" offset="0"/>
   <stop id="stop6408" style="stop-color:#c9c9c9" offset="1"/>
  </linearGradient>
  <radialGradient id="radialGradient2496" gradientUnits="userSpaceOnUse" cy="5.0172" cx="3" gradientTransform="matrix(0 1.0975 -1.3856 0 8.757 2.8399)" r="21">
   <stop id="stop3486" style="stop-color:#bdbdbd" offset="0"/>
   <stop id="stop3488" style="stop-color:#d0d0d0" offset="1"/>
  </radialGradient>
 </defs>
 <g id="g2458" transform="translate(0 -1)">
  <rect id="rect2925" style="opacity:.3;fill:url(#linearGradient2457)" height="3.8653" width="24.695" y="28.135" x="3.6472"/>
  <path id="path2927" style="opacity:.3;fill:url(#radialGradient2459)" d="m28.342 28.135v3.865c1.021 0.007 2.469-0.866 2.469-1.933s-1.14-1.932-2.469-1.932z"/>
  <path id="path2929" style="opacity:.3;fill:url(#radialGradient2461)" d="m3.6472 28.135v3.865c-1.0215 0.007-2.4695-0.866-2.4695-1.933s1.1399-1.932 2.4695-1.932z"/>
 </g>
 <path id="path2882" style="stroke-linejoin:round;stroke:url(#radialGradient2496);stroke-linecap:round;fill:url(#linearGradient2494)" d="m3 6.5074c-0.4429 0.0049-0.5 0.2191-0.5 0.6402 0 3.5304 0.0206 6.1804 0 9.3884 0.9211 0 27.015-2.368 27.015-3.388v-3.9659c0-0.4212-0.356-0.6451-0.799-0.6402h-12.778c-1.314 0-2.245-2.0345-3.209-2.0345h-9.729z"/>
 <rect id="rect2892" style="display:block;fill:#eda374" rx=".61538" ry=".5" height="1" width="8" y="8" x="4"/>
 <path id="path2931" style="stroke-linejoin:round;stroke:url(#linearGradient2490);stroke-linecap:round;fill:url(#radialGradient2488)" d="m1.9268 11.5c-0.691 0.08-0.3219 0.903-0.377 1.365 0.0802 0.299 0.5977 15.718 0.5977 16.248 0 0.46 0.2267 0.382 0.801 0.382h26.398c0.619 0.014 0.488 0.007 0.488-0.389 0.045-0.203 0.64-16.979 0.663-17.244 0-0.279 0.058-0.362-0.305-0.362h-28.265z"/>
 <path id="path2933" style="opacity:.4;fill:url(#linearGradient2485)" d="m1.6818 11h28.636c0.414 0 0.682 0.292 0.682 0.656l-0.674 17.712c0.01 0.459-0.136 0.641-0.617 0.632l-27.256-0.012c-0.4134 0-0.8306-0.271-0.8306-0.634l-0.6224-17.699c0-0.363 0.2681-0.655 0.6818-0.655z"/>
 <path id="path2935" style="stroke-linejoin:round;stroke:url(#radialGradient2482);stroke-linecap:round;fill:none" d="m29.5 12.5h-27c0.2365 5 0.473 10 0.7095 15"/>
 <path id="path2937" style="fill:url(#linearGradient2479)" d="m30.406 11.017c-9.48 0.05-19.201-0.03-28.682-0.015-1.1767 0.278-0.5431 1.667-0.6331 2.549 0.1447 2.815 0.2105 5.642 0.4043 8.449 9.7738-1.597 19.498-3.115 29.101-4.766 0.508-1.749 0.372-4.905 0.398-5.544 0.051-0.457-0.245-0.68-0.588-0.673z"/>
 <path id="path3823-1" style="opacity:.8;fill:url(#radialGradient2739)" d="m28.563 28.996c-0.001 1.751-3.559 3.17-7.949 3.17-4.389 0-7.948-1.419-7.948-3.17 0-1.752 3.558-3.171 7.948-3.171s7.949 1.419 7.949 3.171z"/>
 <path id="path3766-9" style="stroke-width:.99997;stroke:#808080;fill:url(#radialGradient2713)" d="m19.899 19.813l-0.061 2.672c-1.314 1.075-4.891 1.558-4.886 2.672l-0.452 3.339c0 1.107 3.134 2.004 7 2.004s7-0.897 7-2.004l-0.452-3.339c-0.005-0.953-3.602-1.559-4.9-2.672l-0.047-2.672h-3.202z"/>
 <path id="path4094" style="opacity:.4;stroke:url(#linearGradient2710);fill:none" d="m20.962 20.887c-0.088 0.734 0.142 1.539-0.241 2.214-0.57 0.708-1.496 0.96-2.304 1.305-0.833 0.294-1.695 0.541-2.455 1.001 0.075 0.146-0.07 0.66-0.084 0.964-0.089 0.702-0.178 1.404-0.267 2.107 0.689 0.203 1.336 0.542 2.062 0.614 2.548 0.498 5.193 0.441 7.744-0.004 0.648-0.122 1.27-0.352 1.865-0.623 0.199-0.333-0.043-0.748-0.034-1.124-0.076-0.615-0.152-1.231-0.229-1.846-1.495-0.918-3.403-1.096-4.696-2.345-0.456-0.647-0.175-1.461-0.294-2.183-0.282-0.182-0.685-0.038-1.024-0.08h-0.032-0.011z"/>
 <path id="path3764-3" style="stroke-width:.99978;stroke:#999;fill:url(#radialGradient2707)" d="m21.5 13.5c-1.487 0-2.692 1.204-2.692 2.689 0.011 0.55 0.055 1.203 0.359 2.689 0.179 0.576 1.78 2.113 1.795 2.305 0.348 0.192 0.897 0.192 1.256 0 0-0.192 1.436-1.729 1.615-2.305 0.342-1.545 0.341-2.113 0.359-2.689 0-1.485-1.205-2.689-2.692-2.689z"/>
 <path id="path3848-9" style="opacity:.3;fill:url(#linearGradient2704)" d="m18.102 29.757c-1.577-0.755-0.825-2.431-0.668-3.505-0.667 0.762-0.331 2.892-1.665 2.892 0.889 0.312 1.498 0.524 2.333 0.613z"/>
 <path id="path4066" style="opacity:.4;stroke:url(#linearGradient2701);fill:none" d="m21.5 14.523c-0.86-0.024-1.646 0.732-1.643 1.58-0.013 0.69 0.133 1.37 0.249 2.047 0.03 0.265 0.107 0.511 0.303 0.704 0.36 0.477 0.761 0.923 1.158 1.37 0.408-0.527 0.825-1.048 1.212-1.591 0.164-0.898 0.422-1.799 0.352-2.719-0.107-0.771-0.833-1.413-1.631-1.391z"/>
 <path id="path2976" style="opacity:.3;fill:url(#linearGradient2698)" d="m24.384 29.854c1.576-0.755 0.825-2.432 0.667-3.505 0.667 0.762 0.331 2.892 1.666 2.892-0.89 0.311-1.499 0.524-2.333 0.613z"/>
</svg>
