<?xml version="1.0" encoding="UTF-8" standalone="no"?>
<!-- Created with Inkscape (http://www.inkscape.org/) -->

<svg
   xmlns:svg="http://www.w3.org/2000/svg"
   xmlns="http://www.w3.org/2000/svg"
   xmlns:xlink="http://www.w3.org/1999/xlink"
   version="1.1"
   width="32"
   height="32"
   id="svg2541">
  <defs
     id="defs2543">
    <linearGradient
       id="linearGradient4302">
      <stop
         id="stop4304"
         style="stop-color:#c0c0c0;stop-opacity:1"
         offset="0" />
      <stop
         id="stop4306"
         style="stop-color:#abacb0;stop-opacity:1"
         offset="1" />
    </linearGradient>
    <linearGradient
       id="linearGradient4294">
      <stop
         id="stop4296"
         style="stop-color:#e6e7e7;stop-opacity:1"
         offset="0" />
      <stop
         id="stop4298"
         style="stop-color:#676b73;stop-opacity:1"
         offset="1" />
    </linearGradient>
    <linearGradient
       id="linearGradient2338">
      <stop
         id="stop3317"
         style="stop-color:#f8f8f8;stop-opacity:0.15463917"
         offset="0" />
      <stop
         id="stop3322"
         style="stop-color:#b0b2b6;stop-opacity:0.17525773"
         offset="0.49817383" />
      <stop
         id="stop3319"
         style="stop-color:#5b5e62;stop-opacity:0.23529412"
         offset="0.73730659" />
      <stop
         id="stop2342"
         style="stop-color:#ffffff;stop-opacity:0.15463917"
         offset="1" />
    </linearGradient>
    <linearGradient
       id="linearGradient5176">
      <stop
         id="stop5178"
         style="stop-color:#000000;stop-opacity:1"
         offset="0" />
      <stop
         id="stop5180"
         style="stop-color:#000000;stop-opacity:0"
         offset="1" />
    </linearGradient>
    <linearGradient
       id="linearGradient5162">
      <stop
         id="stop5164"
         style="stop-color:#babdb6;stop-opacity:1"
         offset="0" />
      <stop
         id="stop5166"
         style="stop-color:#ffffff;stop-opacity:1"
         offset="1" />
    </linearGradient>
    <linearGradient
       id="linearGradient5196">
      <stop
         id="stop5198"
         style="stop-color:#dfe2dc;stop-opacity:1"
         offset="0" />
      <stop
         id="stop5200"
         style="stop-color:#86917a;stop-opacity:1"
         offset="1" />
    </linearGradient>
    <linearGradient
       id="linearGradient5188">
      <stop
         id="stop5190"
         style="stop-color:#ffffff;stop-opacity:1"
         offset="0" />
      <stop
         id="stop5192"
         style="stop-color:#aeaea3;stop-opacity:1"
         offset="1" />
    </linearGradient>
    <linearGradient
       id="linearGradient5150">
      <stop
         id="stop5152"
         style="stop-color:#000000;stop-opacity:1"
         offset="0" />
      <stop
         id="stop5154"
         style="stop-color:#000000;stop-opacity:0"
         offset="1" />
    </linearGradient>
    <linearGradient
       id="linearGradient2793">
      <stop
         id="stop2795"
         style="stop-color:#555753;stop-opacity:1"
         offset="0" />
      <stop
         id="stop2797"
         style="stop-color:#d3d7cf;stop-opacity:0"
         offset="1" />
    </linearGradient>
    <linearGradient
       id="linearGradient5060">
      <stop
         id="stop5062"
         style="stop-color:#000000;stop-opacity:1"
         offset="0" />
      <stop
         id="stop5064"
         style="stop-color:#000000;stop-opacity:0"
         offset="1" />
    </linearGradient>
    <linearGradient
       x1="92.004761"
       y1="47.258526"
       x2="55.992207"
       y2="10.900407"
       id="linearGradient3095"
       xlink:href="#linearGradient2793"
       gradientUnits="userSpaceOnUse"
       gradientTransform="matrix(0.24762159,0,0,0.24848907,0.7043315,0.84624012)"
       spreadMethod="reflect" />
    <linearGradient
       x1="63.999081"
       y1="6.4738212"
       x2="63.999081"
       y2="31.225994"
       id="linearGradient3098"
       xlink:href="#linearGradient4302"
       gradientUnits="userSpaceOnUse"
       gradientTransform="matrix(0.28368166,0,0,0.28467551,-1.6032547,-2.6306878)" />
    <linearGradient
       x1="32.626884"
       y1="37.21664"
       x2="63.999931"
       y2="37.21664"
       id="linearGradient3101"
       xlink:href="#linearGradient2793"
       gradientUnits="userSpaceOnUse"
       gradientTransform="matrix(0.29542411,0,0,0.26768751,-2.3547385,-1.4821775)"
       spreadMethod="reflect" />
    <linearGradient
       x1="97.717728"
       y1="17.833755"
       x2="62.373119"
       y2="17.833755"
       id="linearGradient3105"
       xlink:href="#linearGradient2793"
       gradientUnits="userSpaceOnUse"
       gradientTransform="matrix(0.30452095,0,0,0.29446665,-2.9369543,-2.0721264)"
       spreadMethod="reflect" />
    <linearGradient
       x1="4.8849959"
       y1="38.13002"
       x2="35.514687"
       y2="39.751118"
       id="linearGradient3109"
       xlink:href="#linearGradient2338"
       gradientUnits="userSpaceOnUse"
       gradientTransform="matrix(0.62460519,0,0,0.73345798,3.8589572,-8.7208244)" />
    <linearGradient
       x1="29.232975"
       y1="1.2616313"
       x2="29.232977"
       y2="57.745785"
       id="linearGradient3111"
       xlink:href="#linearGradient4294"
       gradientUnits="userSpaceOnUse"
       gradientTransform="matrix(0.51631811,0,0,0.51812698,1.4354097,0.52894614)" />
    <linearGradient
       x1="27.405413"
       y1="52.355087"
       x2="37.462498"
       y2="68.298302"
       id="linearGradient3165"
       xlink:href="#linearGradient2793"
       gradientUnits="userSpaceOnUse"
       gradientTransform="matrix(0.55749331,0,0,0.49894139,-0.20343719,1.5785819)"
       spreadMethod="reflect" />
    <radialGradient
       cx="62.71241"
       cy="108.02493"
       r="47.38271"
       fx="62.71241"
       fy="108.02493"
       id="radialGradient3169"
       xlink:href="#linearGradient5060"
       gradientUnits="userSpaceOnUse"
       gradientTransform="matrix(0.23027452,0,0,0.06445846,2.3643984,21.975491)" />
    <radialGradient
       cx="24.837126"
       cy="40.663769"
       r="21.478369"
       fx="24.837126"
       fy="40.663769"
       id="radialGradient3171"
       xlink:href="#linearGradient5150"
       gradientUnits="userSpaceOnUse"
       gradientTransform="matrix(1,0,0,0.325103,0,27.44386)" />
    <radialGradient
       cx="23.688078"
       cy="14.210698"
       r="22.597088"
       fx="23.688078"
       fy="14.210698"
       id="radialGradient3173"
       xlink:href="#linearGradient5188"
       gradientUnits="userSpaceOnUse"
       gradientTransform="matrix(1.0698453,0,0,1.0572917,103.49274,26.898224)" />
    <radialGradient
       cx="20.089987"
       cy="10.853651"
       r="22.597088"
       fx="20.089987"
       fy="10.853651"
       id="radialGradient3175"
       xlink:href="#linearGradient5196"
       gradientUnits="userSpaceOnUse"
       gradientTransform="matrix(0.8968209,0,0,0.8862981,109.0471,28.761313)" />
    <linearGradient
       x1="22.008699"
       y1="36.509514"
       x2="23.585091"
       y2="14.412428"
       id="linearGradient3177"
       xlink:href="#linearGradient5162"
       gradientUnits="userSpaceOnUse"
       gradientTransform="matrix(0.500942,0,0,0.500942,116.96896,34.747555)" />
    <linearGradient
       x1="24.365993"
       y1="20.246058"
       x2="32.600704"
       y2="28.554564"
       id="linearGradient3179"
       xlink:href="#linearGradient5162"
       gradientUnits="userSpaceOnUse"
       gradientTransform="matrix(0.500942,0,0,0.500942,116.96896,34.747555)" />
    <linearGradient
       x1="73.373505"
       y1="82.788712"
       x2="89.456299"
       y2="82.788712"
       id="linearGradient3181"
       xlink:href="#linearGradient2793"
       gradientUnits="userSpaceOnUse"
       gradientTransform="matrix(0.5120754,0,0,0.4900506,90.554105,0.02408511)" />
    <radialGradient
       cx="24.837126"
       cy="40.663769"
       r="21.478369"
       fx="24.837126"
       fy="40.663769"
       id="radialGradient3183"
       xlink:href="#linearGradient5150"
       gradientUnits="userSpaceOnUse"
       gradientTransform="matrix(1,0,0,0.325103,0,27.44386)" />
    <radialGradient
       cx="23.688078"
       cy="14.210698"
       r="22.597088"
       fx="23.688078"
       fy="14.210698"
       id="radialGradient3185"
       xlink:href="#linearGradient5188"
       gradientUnits="userSpaceOnUse"
       gradientTransform="matrix(-2.135667,0,0,2.110607,-137.81127,12.570337)" />
    <radialGradient
       cx="20.089987"
       cy="10.853651"
       r="22.597088"
       fx="20.089987"
       fy="10.853651"
       id="radialGradient3187"
       xlink:href="#linearGradient5196"
       gradientUnits="userSpaceOnUse"
       gradientTransform="matrix(-1.790269,0,0,1.769263,-148.89909,16.289507)" />
    <linearGradient
       x1="22.008699"
       y1="36.509514"
       x2="23.585091"
       y2="14.412428"
       id="linearGradient3189"
       xlink:href="#linearGradient5162"
       gradientUnits="userSpaceOnUse"
       gradientTransform="matrix(-1,0,0,1,-164.71303,28.239477)" />
    <linearGradient
       x1="24.365993"
       y1="20.246058"
       x2="32.600704"
       y2="28.554564"
       id="linearGradient3191"
       xlink:href="#linearGradient5162"
       gradientUnits="userSpaceOnUse"
       gradientTransform="matrix(-1,0,0,1,-164.71303,28.239477)" />
    <linearGradient
       x1="25.632622"
       y1="10.611729"
       x2="38.714096"
       y2="18.389904"
       id="linearGradient3193"
       xlink:href="#linearGradient5176"
       gradientUnits="userSpaceOnUse"
       gradientTransform="matrix(-1,0,0,1,-164.71303,28.239477)" />
    <radialGradient
       cx="24.837126"
       cy="40.663769"
       r="21.478369"
       fx="24.837126"
       fy="40.663769"
       id="radialGradient3195"
       xlink:href="#linearGradient5150"
       gradientUnits="userSpaceOnUse"
       gradientTransform="matrix(1,0,0,0.325103,0,27.44386)" />
    <radialGradient
       cx="23.688078"
       cy="14.210698"
       r="22.597088"
       fx="23.688078"
       fy="14.210698"
       id="radialGradient3197"
       xlink:href="#linearGradient5188"
       gradientUnits="userSpaceOnUse"
       gradientTransform="matrix(-1.0698453,0,0,1.0572917,141.27372,26.693628)" />
    <radialGradient
       cx="20.089987"
       cy="10.853651"
       r="22.597088"
       fx="20.089987"
       fy="10.853651"
       id="radialGradient3199"
       xlink:href="#linearGradient5196"
       gradientUnits="userSpaceOnUse"
       gradientTransform="matrix(-0.8968209,0,0,0.8862981,135.71936,28.556716)" />
    <linearGradient
       x1="22.008699"
       y1="36.509514"
       x2="23.585091"
       y2="14.412428"
       id="linearGradient3201"
       xlink:href="#linearGradient5162"
       gradientUnits="userSpaceOnUse"
       gradientTransform="matrix(-0.500942,0,0,0.500942,127.79749,34.542958)" />
    <linearGradient
       x1="24.365993"
       y1="20.246058"
       x2="32.600704"
       y2="28.554564"
       id="linearGradient3203"
       xlink:href="#linearGradient5162"
       gradientUnits="userSpaceOnUse"
       gradientTransform="matrix(-0.500942,0,0,0.500942,127.79749,34.542958)" />
    <linearGradient
       x1="25.632622"
       y1="10.611729"
       x2="38.714096"
       y2="18.389904"
       id="linearGradient3205"
       xlink:href="#linearGradient5176"
       gradientUnits="userSpaceOnUse"
       gradientTransform="matrix(-0.500942,0,0,0.500942,127.79749,34.542958)" />
    <radialGradient
       cx="23.688078"
       cy="14.210698"
       r="22.597088"
       fx="23.688078"
       fy="14.210698"
       id="radialGradient3207"
       xlink:href="#linearGradient5188"
       gradientUnits="userSpaceOnUse"
       gradientTransform="matrix(-2.135667,0,0,2.110607,-137.81127,12.570337)" />
    <radialGradient
       cx="20.089987"
       cy="10.853651"
       r="22.597088"
       fx="20.089987"
       fy="10.853651"
       id="radialGradient3209"
       xlink:href="#linearGradient5196"
       gradientUnits="userSpaceOnUse"
       gradientTransform="matrix(-1.790269,0,0,1.769263,-148.89909,16.289507)" />
    <linearGradient
       x1="22.008699"
       y1="36.509514"
       x2="23.585091"
       y2="14.412428"
       id="linearGradient3211"
       xlink:href="#linearGradient5162"
       gradientUnits="userSpaceOnUse"
       gradientTransform="matrix(-1,0,0,1,-164.71303,28.239477)" />
    <linearGradient
       x1="24.365993"
       y1="20.246058"
       x2="32.600704"
       y2="28.554564"
       id="linearGradient3213"
       xlink:href="#linearGradient5162"
       gradientUnits="userSpaceOnUse"
       gradientTransform="matrix(-1,0,0,1,-164.71303,28.239477)" />
    <linearGradient
       x1="25.632622"
       y1="10.611729"
       x2="38.714096"
       y2="18.389904"
       id="linearGradient3215"
       xlink:href="#linearGradient5176"
       gradientUnits="userSpaceOnUse"
       gradientTransform="matrix(-1,0,0,1,-164.71303,28.239477)" />
    <radialGradient
       cx="23.688078"
       cy="14.210698"
       r="22.597088"
       fx="23.688078"
       fy="14.210698"
       id="radialGradient3217"
       xlink:href="#linearGradient5188"
       gradientUnits="userSpaceOnUse"
       gradientTransform="matrix(-2.135667,0,0,2.110607,-137.81127,12.570337)" />
    <radialGradient
       cx="20.089987"
       cy="10.853651"
       r="22.597088"
       fx="20.089987"
       fy="10.853651"
       id="radialGradient3219"
       xlink:href="#linearGradient5196"
       gradientUnits="userSpaceOnUse"
       gradientTransform="matrix(-1.790269,0,0,1.769263,-148.89909,16.289507)" />
    <linearGradient
       x1="22.008699"
       y1="36.509514"
       x2="23.585091"
       y2="14.412428"
       id="linearGradient3221"
       xlink:href="#linearGradient5162"
       gradientUnits="userSpaceOnUse"
       gradientTransform="matrix(-1,0,0,1,-164.71303,28.239477)" />
    <linearGradient
       x1="24.365993"
       y1="20.246058"
       x2="32.600704"
       y2="28.554564"
       id="linearGradient3223"
       xlink:href="#linearGradient5162"
       gradientUnits="userSpaceOnUse"
       gradientTransform="matrix(-1,0,0,1,-164.71303,28.239477)" />
    <linearGradient
       x1="25.632622"
       y1="10.611729"
       x2="38.714096"
       y2="18.389904"
       id="linearGradient3225"
       xlink:href="#linearGradient5176"
       gradientUnits="userSpaceOnUse"
       gradientTransform="matrix(-1,0,0,1,-164.71303,28.239477)" />
    <radialGradient
       cx="23.688078"
       cy="14.210698"
       r="22.597088"
       fx="23.688078"
       fy="14.210698"
       id="radialGradient3227"
       xlink:href="#linearGradient5188"
       gradientUnits="userSpaceOnUse"
       gradientTransform="matrix(-2.135667,0,0,2.110607,-137.81127,12.570337)" />
    <radialGradient
       cx="20.089987"
       cy="10.853651"
       r="22.597088"
       fx="20.089987"
       fy="10.853651"
       id="radialGradient3229"
       xlink:href="#linearGradient5196"
       gradientUnits="userSpaceOnUse"
       gradientTransform="matrix(-1.790269,0,0,1.769263,-148.89909,16.289507)" />
    <linearGradient
       x1="22.008699"
       y1="36.509514"
       x2="23.585091"
       y2="14.412428"
       id="linearGradient3231"
       xlink:href="#linearGradient5162"
       gradientUnits="userSpaceOnUse"
       gradientTransform="matrix(-1,0,0,1,-164.71303,28.239477)" />
    <linearGradient
       x1="24.365993"
       y1="20.246058"
       x2="32.600704"
       y2="28.554564"
       id="linearGradient3233"
       xlink:href="#linearGradient5162"
       gradientUnits="userSpaceOnUse"
       gradientTransform="matrix(-1,0,0,1,-164.71303,28.239477)" />
    <linearGradient
       x1="25.632622"
       y1="10.611729"
       x2="38.714096"
       y2="18.389904"
       id="linearGradient3235"
       xlink:href="#linearGradient5176"
       gradientUnits="userSpaceOnUse"
       gradientTransform="matrix(-1,0,0,1,-164.71303,28.239477)" />
  </defs>
  <path
     d="m 27.716501,28.938623 a 10.911032,3.0542204 0 0 1 -21.8220634,0 10.911032,3.0542204 0 1 1 21.8220634,0 z"
     id="path12941"
     style="color:#000000;fill:url(#radialGradient3169);fill-opacity:1;fill-rule:evenodd;stroke:none;stroke-width:1.05496335;marker:none;visibility:visible;display:inline;overflow:visible" />
  <path
     d="m 25.62627,28.0879 a 9.0738968,2.130579 0 0 1 -18.1477911,0 9.0738968,2.130579 0 1 1 18.1477911,0 z"
     id="path5870"
     style="color:#000000;fill:#d9dcd5;fill-opacity:1;fill-rule:evenodd;stroke:#838383;stroke-width:0.40000001;stroke-linecap:round;stroke-linejoin:round;stroke-miterlimit:4;stroke-opacity:1;stroke-dasharray:none;stroke-dashoffset:0;marker:none;visibility:visible;display:inline;overflow:visible" />
  <path
     d="m 25.62627,28.0879 a 9.0738968,2.130579 0 0 1 -18.1477911,0 9.0738968,2.130579 0 1 1 18.1477911,0 z"
     id="path3037"
     style="opacity:0.5;color:#000000;fill:url(#linearGradient3165);fill-opacity:1;fill-rule:evenodd;stroke:none;stroke-width:0.40000001;marker:none;visibility:visible;display:inline;overflow:visible" />
  <g
     transform="matrix(0.49431188,0,0,0.49604362,-43.842863,0.51113466)"
     id="g16471">
    <path
       d="m 46.315495,40.663769 a 21.478369,6.9826794 0 1 1 -42.956738,0 21.478369,6.9826794 0 1 1 42.956738,0 z"
       transform="matrix(0.5545408,0,0,0.5545408,115.28351,32.036699)"
       id="path4275"
       style="opacity:0.3258427;color:#000000;fill:url(#radialGradient3171);fill-opacity:1;fill-rule:evenodd;stroke:none;stroke-width:1;marker:none;visibility:visible;display:inline;overflow:visible" />
    <path
       d="m 121.48526,53.568032 -0.88555,1.41688 1.85966,0.796993 1.32832,-1.062658 5.93318,0.442773 1.85965,2.479537 1.68254,-2.745202 2.12532,1.151215 2.83375,-0.354221 -0.70844,-1.505431 1.94821,-1.948209 -2.7452,-3.099419 2.65665,0.354219 1.15121,-1.062658 -1.50543,0.265664 -1.59399,-2.745201 -2.30243,-0.531329 1.85966,-0.619884 0.0885,-1.593988 -3.63075,-3.187975 -1.32832,-4.250634 -6.02173,1.771097 -1.50543,3.542195 -0.53133,-1.151213 -1.50544,0.08855 0,1.416878 -1.77109,-2.036762 -2.39099,2.568091 0,3.63075 4.16208,3.63075 -2.65665,1.505433 0.0886,1.505431 1.50543,1.328323 z"
       id="path4273"
       style="color:#000000;fill:url(#radialGradient3173);fill-opacity:1;fill-rule:evenodd;stroke:url(#radialGradient3175);stroke-width:0.50094199;stroke-linecap:butt;stroke-linejoin:miter;stroke-miterlimit:4;stroke-opacity:1;stroke-dasharray:none;stroke-dashoffset:0;marker:none;visibility:visible;display:inline;overflow:visible" />
    <path
       d="m 126.71,46.129424 -0.44278,3.27653 1.06266,1.682541 -2.30242,0.708442 -1.32832,2.656645 6.02173,0.442773 1.41687,2.036765 1.15122,-3.099423 -2.21387,-1.416875 -3.36509,0.974102 1.32832,-1.771095 -0.70844,-3.099424 -0.61988,-2.390981 z"
       id="path5158"
       style="opacity:0.76966289;color:#000000;fill:url(#linearGradient3177);fill-opacity:1;fill-rule:evenodd;stroke:none;stroke-width:1;marker:none;visibility:visible;display:inline;overflow:visible" />
    <path
       d="m 127.24133,46.660753 2.21387,3.45364 3.63075,-2.479536 2.21387,1.239768 1.7711,-1.505433 1.59399,1.416878 -1.50543,-2.479536 -3.45365,-0.796994 -4.33918,-2.125317 c 0,0 -6.19884,1.859652 -5.84462,1.859652 0.35421,0 5.13618,0.08855 5.13618,0.08855 l 0.79699,-1.151213 2.12532,0.974103 -4.33919,1.505433 z"
       id="path5160"
       style="opacity:0.61797755;color:#000000;fill:url(#linearGradient3179);fill-opacity:1;fill-rule:evenodd;stroke:none;stroke-width:1;marker:none;visibility:visible;display:inline;overflow:visible" />
    <path
       d="m 131.75763,36.476943 -5.22474,1.771098 -0.70844,1.948207 3.01087,2.125317 2.83375,-2.745202 0.0886,-3.09942 z"
       id="path5172"
       style="color:#000000;fill:#ffffff;fill-opacity:1;fill-rule:evenodd;stroke:none;stroke-width:1;marker:none;visibility:visible;display:inline;overflow:visible" />
    <path
       d="m 131.84618,36.654053 1.15122,3.719304 2.12531,1.859653 -4.33919,-0.974104 c 0,0 -1.23976,1.416878 -0.70843,1.416878 0.53132,0 6.28739,0.708439 6.28739,0.708439 l -0.0885,1.151213 -8.14705,-1.505433 3.54219,-3.27653 0.17711,-3.09942 z"
       id="path5174"
       style="opacity:0.13483145;color:#000000;fill:url(#linearGradient3181);fill-opacity:1;fill-rule:evenodd;stroke:none;stroke-width:1;marker:none;visibility:visible;display:inline;overflow:visible" />
    <path
       d="m 120.68827,41.87879 -0.44277,4.427744 0.9741,-3.010866 2.56809,0.796994 0.61988,-1.328323 3.09943,0.442774 0.70843,-0.619884 -4.51629,-0.17711 -0.44278,1.239769 -1.94821,-0.974104 -0.61988,-0.796994 z"
       id="path5184"
       style="color:#000000;fill:#ffffff;fill-opacity:1;fill-rule:evenodd;stroke:none;stroke-width:1;marker:none;visibility:visible;display:inline;overflow:visible" />
    <path
       d="m 128.21543,48.431851 1.50544,1.771098 3.45364,-2.302428 2.12531,1.151214 3.45364,3.276531 -3.80786,-2.922312 -1.85965,-0.531329 -3.63075,2.479539 -1.23977,-2.922313 z"
       id="path5186"
       style="color:#000000;fill:#ffffff;fill-opacity:1;fill-rule:evenodd;stroke:none;stroke-width:1;marker:none;visibility:visible;display:inline;overflow:visible" />
    <path
       d="m 46.315495,40.663769 a 21.478369,6.9826794 0 1 1 -42.956738,0 21.478369,6.9826794 0 1 1 42.956738,0 z"
       transform="matrix(-0.5545408,0,0,0.5545408,134.44323,32.717865)"
       id="path2423"
       style="opacity:0.3258427;color:#000000;fill:url(#radialGradient3183);fill-opacity:1;fill-rule:evenodd;stroke:none;stroke-width:1;marker:none;visibility:visible;display:inline;overflow:visible" />
    <g
       transform="matrix(-0.500942,0,0,0.500942,18.541824,6.4015722)"
       id="g2507">
      <path
         d="m -173.72864,65.809652 1.76777,2.828427 -3.71232,1.59099 -2.65165,-2.12132 -11.84403,0.883883 -3.71231,4.949748 -3.35876,-5.480078 -4.24264,2.298097 -5.65685,-0.707106 1.41421,-3.005204 -3.88909,-3.889088 5.48008,-6.187184 -5.3033,0.707107 -2.2981,-2.12132 3.00521,0.53033 3.18198,-5.480078 4.59619,-1.06066 -3.71231,-1.237437 -0.17678,-3.18198 7.24785,-6.363961 2.65165,-8.485282 12.02081,3.535534 3.0052,7.071068 1.06066,-2.298097 3.00521,0.176777 0,2.828427 3.53553,-4.065864 4.77297,5.126524 0,7.247844 -8.3085,7.247845 5.3033,3.005204 -0.17678,3.005203 -3.0052,2.651651 z"
         id="path2425"
         style="color:#000000;fill:url(#radialGradient3185);fill-opacity:1;fill-rule:evenodd;stroke:url(#radialGradient3187);stroke-width:1;stroke-linecap:butt;stroke-linejoin:miter;stroke-miterlimit:4;stroke-opacity:1;stroke-dasharray:none;stroke-dashoffset:0;marker:none;visibility:visible;display:inline;overflow:visible" />
      <path
         d="m -184.15847,50.96041 0.88389,6.540737 -2.12132,3.358757 4.59619,1.414214 2.65165,5.303301 -12.02081,0.883883 -2.82843,4.065864 -2.2981,-6.187184 4.41942,-2.828427 6.71751,1.944544 -2.65165,-3.535534 1.41422,-6.187185 1.23743,-4.77297 z"
         id="path2427"
         style="opacity:0.76966289;color:#000000;fill:url(#linearGradient3189);fill-opacity:1;fill-rule:evenodd;stroke:none;stroke-width:1;marker:none;visibility:visible;display:inline;overflow:visible" />
      <path
         d="m -185.21913,52.02107 -4.41941,6.894291 -7.24785,-4.949748 -4.41941,2.474874 -3.53554,-3.005204 -3.18198,2.828427 3.00521,-4.949747 6.89429,-1.59099 8.66205,-4.242641 c 0,0 12.37437,3.712311 11.66726,3.712311 -0.7071,0 -10.25304,0.176776 -10.25304,0.176776 l -1.59099,-2.298097 -4.24264,1.944544 8.66205,3.005204 z"
         id="path2429"
         style="opacity:0.61797755;color:#000000;fill:url(#linearGradient3191);fill-opacity:1;fill-rule:evenodd;stroke:none;stroke-width:1;marker:none;visibility:visible;display:inline;overflow:visible" />
      <path
         d="m -194.23474,31.69175 10.42983,3.535534 1.41421,3.889087 -6.01041,4.242641 -5.65685,-5.480078 -0.17678,-6.187184 z"
         id="path2431"
         style="color:#000000;fill:#ffffff;fill-opacity:1;fill-rule:evenodd;stroke:none;stroke-width:1;marker:none;visibility:visible;display:inline;overflow:visible" />
      <path
         d="m -194.41151,32.045303 -2.2981,7.424621 -4.24264,3.712311 8.66206,-1.944544 c 0,0 2.47487,2.828427 1.41421,2.828427 -1.06066,0 -12.55114,1.414214 -12.55114,1.414214 l 0.17677,2.298097 16.26346,-3.005204 -7.07107,-6.540738 -0.35355,-6.187184 z"
         id="path2433"
         style="opacity:0.13483145;color:#000000;fill:url(#linearGradient3193);fill-opacity:1;fill-rule:evenodd;stroke:none;stroke-width:1;marker:none;visibility:visible;display:inline;overflow:visible" />
      <path
         d="m -172.13765,42.475128 0.88388,8.838835 -1.94454,-6.010408 -5.12653,1.590991 -1.23743,-2.651651 -6.18719,0.883884 -1.41421,-1.237437 9.01561,-0.353554 0.88388,2.474874 3.88909,-1.944544 1.23744,-1.59099 z"
         id="path2435"
         style="color:#000000;fill:#ffffff;fill-opacity:1;fill-rule:evenodd;stroke:none;stroke-width:1;marker:none;visibility:visible;display:inline;overflow:visible" />
      <path
         d="m -187.16367,55.556604 -3.0052,3.535534 -6.89429,-4.596195 -4.24264,2.298097 -6.89429,6.540738 7.60139,-5.833631 3.71231,-1.06066 7.24785,4.949748 2.47487,-5.833631 z"
         id="path2437"
         style="color:#000000;fill:#ffffff;fill-opacity:1;fill-rule:evenodd;stroke:none;stroke-width:1;marker:none;visibility:visible;display:inline;overflow:visible" />
    </g>
    <path
       d="m 46.315495,40.663769 a 21.478369,6.9826794 0 1 1 -42.956738,0 21.478369,6.9826794 0 1 1 42.956738,0 z"
       transform="matrix(-0.5545408,0,0,0.5545408,129.48295,31.832103)"
       id="path2479"
       style="opacity:0.3258427;color:#000000;fill:url(#radialGradient3195);fill-opacity:1;fill-rule:evenodd;stroke:none;stroke-width:1;marker:none;visibility:visible;display:inline;overflow:visible" />
    <path
       d="m 123.28119,53.363437 0.88556,1.41688 -1.85966,0.796994 -1.32832,-1.062659 -5.93318,0.442773 -1.85965,2.479538 -1.68254,-2.745203 -2.12532,1.151215 -2.83375,-0.354221 0.70843,-1.505431 -1.9482,-1.948208 2.7452,-3.099422 -2.65665,0.35422 -1.15121,-1.062658 1.50543,0.265664 1.59399,-2.745201 2.30243,-0.531329 -1.85966,-0.619884 -0.0886,-1.593988 3.63075,-3.187975 1.32832,-4.250634 6.02173,1.771097 1.50543,3.542195 0.53133,-1.151213 1.50544,0.08855 0,1.416878 1.77109,-2.036762 2.39098,2.568091 0,3.630749 -4.16207,3.63075 2.65664,1.505431 -0.0885,1.505436 -1.50544,1.328322 z"
       id="path2481"
       style="color:#000000;fill:url(#radialGradient3197);fill-opacity:1;fill-rule:evenodd;stroke:url(#radialGradient3199);stroke-width:0.50094199;stroke-linecap:butt;stroke-linejoin:miter;stroke-miterlimit:4;stroke-opacity:1;stroke-dasharray:none;stroke-dashoffset:0;marker:none;visibility:visible;display:inline;overflow:visible" />
    <path
       d="m 118.05645,45.924828 0.44278,3.27653 -1.06266,1.682542 2.30243,0.708437 1.32832,2.656651 -6.02173,0.442772 -1.41688,2.03676 -1.15121,-3.099418 2.21387,-1.416879 3.36508,0.974106 -1.32832,-1.7711 0.70844,-3.09942 0.61988,-2.390981 z"
       id="path2483"
       style="opacity:0.76966289;color:#000000;fill:url(#linearGradient3201);fill-opacity:1;fill-rule:evenodd;stroke:none;stroke-width:1;marker:none;visibility:visible;display:inline;overflow:visible" />
    <path
       d="m 117.52513,46.456157 -2.21387,3.45364 -3.63075,-2.479537 -2.21387,1.239769 -1.7711,-1.505433 -1.59399,1.416878 1.50544,-2.479536 3.45363,-0.796994 4.33919,-2.125317 c 0,0 6.19884,1.859652 5.84462,1.859652 -0.35422,0 -5.13618,0.08855 -5.13618,0.08855 l -0.79699,-1.151214 -2.12532,0.974104 4.33919,1.505433 z"
       id="path2485"
       style="opacity:0.61797755;color:#000000;fill:url(#linearGradient3203);fill-opacity:1;fill-rule:evenodd;stroke:none;stroke-width:1;marker:none;visibility:visible;display:inline;overflow:visible" />
    <path
       d="m 113.00883,36.272347 5.22474,1.771097 0.70844,1.948207 -3.01087,2.125317 -2.83376,-2.745201 -0.0885,-3.09942 z"
       id="path2487"
       style="color:#000000;fill:#ffffff;fill-opacity:1;fill-rule:evenodd;stroke:none;stroke-width:1;marker:none;visibility:visible;display:inline;overflow:visible" />
    <path
       d="m 112.92028,36.449456 -1.15122,3.719305 -2.12531,1.859652 4.33918,-0.974103 c 0,0 1.23977,1.416878 0.70844,1.416878 -0.53133,0 -6.28739,0.708439 -6.28739,0.708439 l 0.0885,1.151213 8.14705,-1.505433 -3.5422,-3.27653 -0.1771,-3.099421 z"
       id="path2489"
       style="opacity:0.13483145;color:#000000;fill:url(#linearGradient3205);fill-opacity:1;fill-rule:evenodd;stroke:none;stroke-width:1;marker:none;visibility:visible;display:inline;overflow:visible" />
    <path
       d="m 124.07819,41.674194 0.44277,4.427744 -0.9741,-3.010866 -2.56809,0.796994 -0.61989,-1.328323 -3.09942,0.442774 -0.70844,-0.619884 4.5163,-0.17711 0.44277,1.239768 1.94821,-0.974103 0.61989,-0.796994 z"
       id="path2491"
       style="color:#000000;fill:#ffffff;fill-opacity:1;fill-rule:evenodd;stroke:none;stroke-width:1;marker:none;visibility:visible;display:inline;overflow:visible" />
    <path
       d="m 116.55102,48.227255 -1.50543,1.771097 -3.45364,-2.302427 -2.12531,1.151213 -3.45364,3.276528 3.80785,-2.922308 1.85966,-0.531329 3.63075,2.479535 1.23976,-2.922309 z"
       id="path2493"
       style="color:#000000;fill:#ffffff;fill-opacity:1;fill-rule:evenodd;stroke:none;stroke-width:1;marker:none;visibility:visible;display:inline;overflow:visible" />
    <g
       transform="matrix(0,-0.500942,-0.500942,0,143.56035,-60.06773)"
       id="g2586">
      <path
         d="m -173.72864,65.809652 1.76777,2.828427 -3.71232,1.59099 -2.65165,-2.12132 -11.84403,0.883883 -3.71231,4.949748 -3.35876,-5.480078 -4.24264,2.298097 -5.65685,-0.707106 1.41421,-3.005204 -3.88909,-3.889088 5.48008,-6.187184 -5.3033,0.707107 -2.2981,-2.12132 3.00521,0.53033 3.18198,-5.480078 4.59619,-1.06066 -3.71231,-1.237437 -0.17678,-3.18198 7.24785,-6.363961 2.65165,-8.485282 12.02081,3.535534 3.0052,7.071068 1.06066,-2.298097 3.00521,0.176777 0,2.828427 3.53553,-4.065864 4.77297,5.126524 0,7.247844 -8.3085,7.247845 5.3033,3.005204 -0.17678,3.005203 -3.0052,2.651651 z"
         id="path2588"
         style="color:#000000;fill:url(#radialGradient3207);fill-opacity:1;fill-rule:evenodd;stroke:url(#radialGradient3209);stroke-width:1;stroke-linecap:butt;stroke-linejoin:miter;stroke-miterlimit:4;stroke-opacity:1;stroke-dasharray:none;stroke-dashoffset:0;marker:none;visibility:visible;display:inline;overflow:visible" />
      <path
         d="m -184.15847,50.96041 0.88389,6.540737 -2.12132,3.358757 4.59619,1.414214 2.65165,5.303301 -12.02081,0.883883 -2.82843,4.065864 -2.2981,-6.187184 4.41942,-2.828427 6.71751,1.944544 -2.65165,-3.535534 1.41422,-6.187185 1.23743,-4.77297 z"
         id="path2590"
         style="opacity:0.76966289;color:#000000;fill:url(#linearGradient3211);fill-opacity:1;fill-rule:evenodd;stroke:none;stroke-width:1;marker:none;visibility:visible;display:inline;overflow:visible" />
      <path
         d="m -185.21913,52.02107 -4.41941,6.894291 -7.24785,-4.949748 -4.41941,2.474874 -3.53554,-3.005204 -3.18198,2.828427 3.00521,-4.949747 6.89429,-1.59099 8.66205,-4.242641 c 0,0 12.37437,3.712311 11.66726,3.712311 -0.7071,0 -10.25304,0.176776 -10.25304,0.176776 l -1.59099,-2.298097 -4.24264,1.944544 8.66205,3.005204 z"
         id="path2592"
         style="opacity:0.61797755;color:#000000;fill:url(#linearGradient3213);fill-opacity:1;fill-rule:evenodd;stroke:none;stroke-width:1;marker:none;visibility:visible;display:inline;overflow:visible" />
      <path
         d="m -194.23474,31.69175 10.42983,3.535534 1.41421,3.889087 -6.01041,4.242641 -5.65685,-5.480078 -0.17678,-6.187184 z"
         id="path2594"
         style="color:#000000;fill:#ffffff;fill-opacity:1;fill-rule:evenodd;stroke:none;stroke-width:1;marker:none;visibility:visible;display:inline;overflow:visible" />
      <path
         d="m -194.41151,32.045303 -2.2981,7.424621 -4.24264,3.712311 8.66206,-1.944544 c 0,0 2.47487,2.828427 1.41421,2.828427 -1.06066,0 -12.55114,1.414214 -12.55114,1.414214 l 0.17677,2.298097 16.26346,-3.005204 -7.07107,-6.540738 -0.35355,-6.187184 z"
         id="path2596"
         style="opacity:0.13483145;color:#000000;fill:url(#linearGradient3215);fill-opacity:1;fill-rule:evenodd;stroke:none;stroke-width:1;marker:none;visibility:visible;display:inline;overflow:visible" />
      <path
         d="m -172.13765,42.475128 0.88388,8.838835 -1.94454,-6.010408 -5.12653,1.590991 -1.23743,-2.651651 -6.18719,0.883884 -1.41421,-1.237437 9.01561,-0.353554 0.88388,2.474874 3.88909,-1.944544 1.23744,-1.59099 z"
         id="path2598"
         style="color:#000000;fill:#ffffff;fill-opacity:1;fill-rule:evenodd;stroke:none;stroke-width:1;marker:none;visibility:visible;display:inline;overflow:visible" />
      <path
         d="m -187.16367,55.556604 -3.0052,3.535534 -6.89429,-4.596195 -4.24264,2.298097 -6.89429,6.540738 7.60139,-5.833631 3.71231,-1.06066 7.24785,4.949748 2.47487,-5.833631 z"
         id="path2600"
         style="color:#000000;fill:#ffffff;fill-opacity:1;fill-rule:evenodd;stroke:none;stroke-width:1;marker:none;visibility:visible;display:inline;overflow:visible" />
    </g>
    <g
       transform="matrix(0.500942,0,0,0.500942,226.25289,6.2244201)"
       id="g2552">
      <path
         d="m -173.72864,65.809652 1.76777,2.828427 -3.71232,1.59099 -2.65165,-2.12132 -11.84403,0.883883 -3.71231,4.949748 -3.35876,-5.480078 -4.24264,2.298097 -5.65685,-0.707106 1.41421,-3.005204 -3.88909,-3.889088 5.48008,-6.187184 -5.3033,0.707107 -2.2981,-2.12132 3.00521,0.53033 3.18198,-5.480078 4.59619,-1.06066 -3.71231,-1.237437 -0.17678,-3.18198 7.24785,-6.363961 2.65165,-8.485282 12.02081,3.535534 3.0052,7.071068 1.06066,-2.298097 3.00521,0.176777 0,2.828427 3.53553,-4.065864 4.77297,5.126524 0,7.247844 -8.3085,7.247845 5.3033,3.005204 -0.17678,3.005203 -3.0052,2.651651 z"
         id="path2554"
         style="color:#000000;fill:url(#radialGradient3217);fill-opacity:1;fill-rule:evenodd;stroke:url(#radialGradient3219);stroke-width:1;stroke-linecap:butt;stroke-linejoin:miter;stroke-miterlimit:4;stroke-opacity:1;stroke-dasharray:none;stroke-dashoffset:0;marker:none;visibility:visible;display:inline;overflow:visible" />
      <path
         d="m -184.15847,50.96041 0.88389,6.540737 -2.12132,3.358757 4.59619,1.414214 2.65165,5.303301 -12.02081,0.883883 -2.82843,4.065864 -2.2981,-6.187184 4.41942,-2.828427 6.71751,1.944544 -2.65165,-3.535534 1.41422,-6.187185 1.23743,-4.77297 z"
         id="path2556"
         style="opacity:0.76966289;color:#000000;fill:url(#linearGradient3221);fill-opacity:1;fill-rule:evenodd;stroke:none;stroke-width:1;marker:none;visibility:visible;display:inline;overflow:visible" />
      <path
         d="m -185.21913,52.02107 -4.41941,6.894291 -7.24785,-4.949748 -4.41941,2.474874 -3.53554,-3.005204 -3.18198,2.828427 3.00521,-4.949747 6.89429,-1.59099 8.66205,-4.242641 c 0,0 12.37437,3.712311 11.66726,3.712311 -0.7071,0 -10.25304,0.176776 -10.25304,0.176776 l -1.59099,-2.298097 -4.24264,1.944544 8.66205,3.005204 z"
         id="path2558"
         style="opacity:0.61797755;color:#000000;fill:url(#linearGradient3223);fill-opacity:1;fill-rule:evenodd;stroke:none;stroke-width:1;marker:none;visibility:visible;display:inline;overflow:visible" />
      <path
         d="m -194.23474,31.69175 10.42983,3.535534 1.41421,3.889087 -6.01041,4.242641 -5.65685,-5.480078 -0.17678,-6.187184 z"
         id="path2560"
         style="color:#000000;fill:#ffffff;fill-opacity:1;fill-rule:evenodd;stroke:none;stroke-width:1;marker:none;visibility:visible;display:inline;overflow:visible" />
      <path
         d="m -194.41151,32.045303 -2.2981,7.424621 -4.24264,3.712311 8.66206,-1.944544 c 0,0 2.47487,2.828427 1.41421,2.828427 -1.06066,0 -12.55114,1.414214 -12.55114,1.414214 l 0.17677,2.298097 16.26346,-3.005204 -7.07107,-6.540738 -0.35355,-6.187184 z"
         id="path2562"
         style="opacity:0.13483145;color:#000000;fill:url(#linearGradient3225);fill-opacity:1;fill-rule:evenodd;stroke:none;stroke-width:1;marker:none;visibility:visible;display:inline;overflow:visible" />
      <path
         d="m -172.13765,42.475128 0.88388,8.838835 -1.94454,-6.010408 -5.12653,1.590991 -1.23743,-2.651651 -6.18719,0.883884 -1.41421,-1.237437 9.01561,-0.353554 0.88388,2.474874 3.88909,-1.944544 1.23744,-1.59099 z"
         id="path2564"
         style="color:#000000;fill:#ffffff;fill-opacity:1;fill-rule:evenodd;stroke:none;stroke-width:1;marker:none;visibility:visible;display:inline;overflow:visible" />
      <path
         d="m -187.16367,55.556604 -3.0052,3.535534 -6.89429,-4.596195 -4.24264,2.298097 -6.89429,6.540738 7.60139,-5.833631 3.71231,-1.06066 7.24785,4.949748 2.47487,-5.833631 z"
         id="path2566"
         style="color:#000000;fill:#ffffff;fill-opacity:1;fill-rule:evenodd;stroke:none;stroke-width:1;marker:none;visibility:visible;display:inline;overflow:visible" />
    </g>
    <g
       transform="matrix(0,0.500942,0.500942,0,97.571112,143.10433)"
       id="g2526">
      <path
         d="m -173.72864,65.809652 1.76777,2.828427 -3.71232,1.59099 -2.65165,-2.12132 -11.84403,0.883883 -3.71231,4.949748 -3.35876,-5.480078 -4.24264,2.298097 -5.65685,-0.707106 1.41421,-3.005204 -3.88909,-3.889088 5.48008,-6.187184 -5.3033,0.707107 -2.2981,-2.12132 3.00521,0.53033 3.18198,-5.480078 4.59619,-1.06066 -3.71231,-1.237437 -0.17678,-3.18198 7.24785,-6.363961 2.65165,-8.485282 12.02081,3.535534 3.0052,7.071068 1.06066,-2.298097 3.00521,0.176777 0,2.828427 3.53553,-4.065864 4.77297,5.126524 0,7.247844 -8.3085,7.247845 5.3033,3.005204 -0.17678,3.005203 -3.0052,2.651651 z"
         id="path2528"
         style="color:#000000;fill:url(#radialGradient3227);fill-opacity:1;fill-rule:evenodd;stroke:url(#radialGradient3229);stroke-width:1;stroke-linecap:butt;stroke-linejoin:miter;stroke-miterlimit:4;stroke-opacity:1;stroke-dasharray:none;stroke-dashoffset:0;marker:none;visibility:visible;display:inline;overflow:visible" />
      <path
         d="m -184.15847,50.96041 0.88389,6.540737 -2.12132,3.358757 4.59619,1.414214 2.65165,5.303301 -12.02081,0.883883 -2.82843,4.065864 -2.2981,-6.187184 4.41942,-2.828427 6.71751,1.944544 -2.65165,-3.535534 1.41422,-6.187185 1.23743,-4.77297 z"
         id="path2530"
         style="opacity:0.76966289;color:#000000;fill:url(#linearGradient3231);fill-opacity:1;fill-rule:evenodd;stroke:none;stroke-width:1;marker:none;visibility:visible;display:inline;overflow:visible" />
      <path
         d="m -185.21913,52.02107 -4.41941,6.894291 -7.24785,-4.949748 -4.41941,2.474874 -3.53554,-3.005204 -3.18198,2.828427 3.00521,-4.949747 6.89429,-1.59099 8.66205,-4.242641 c 0,0 12.37437,3.712311 11.66726,3.712311 -0.7071,0 -10.25304,0.176776 -10.25304,0.176776 l -1.59099,-2.298097 -4.24264,1.944544 8.66205,3.005204 z"
         id="path2532"
         style="opacity:0.61797755;color:#000000;fill:url(#linearGradient3233);fill-opacity:1;fill-rule:evenodd;stroke:none;stroke-width:1;marker:none;visibility:visible;display:inline;overflow:visible" />
      <path
         d="m -194.23474,31.69175 10.42983,3.535534 1.41421,3.889087 -6.01041,4.242641 -5.65685,-5.480078 -0.17678,-6.187184 z"
         id="path2534"
         style="color:#000000;fill:#ffffff;fill-opacity:1;fill-rule:evenodd;stroke:none;stroke-width:1;marker:none;visibility:visible;display:inline;overflow:visible" />
      <path
         d="m -194.41151,32.045303 -2.2981,7.424621 -4.24264,3.712311 8.66206,-1.944544 c 0,0 2.47487,2.828427 1.41421,2.828427 -1.06066,0 -12.55114,1.414214 -12.55114,1.414214 l 0.17677,2.298097 16.26346,-3.005204 -7.07107,-6.540738 -0.35355,-6.187184 z"
         id="path2536"
         style="opacity:0.13483145;color:#000000;fill:url(#linearGradient3235);fill-opacity:1;fill-rule:evenodd;stroke:none;stroke-width:1;marker:none;visibility:visible;display:inline;overflow:visible" />
      <path
         d="m -172.13765,42.475128 0.88388,8.838835 -1.94454,-6.010408 -5.12653,1.590991 -1.23743,-2.651651 -6.18719,0.883884 -1.41421,-1.237437 9.01561,-0.353554 0.88388,2.474874 3.88909,-1.944544 1.23744,-1.59099 z"
         id="path2538"
         style="color:#000000;fill:#ffffff;fill-opacity:1;fill-rule:evenodd;stroke:none;stroke-width:1;marker:none;visibility:visible;display:inline;overflow:visible" />
      <path
         d="m -187.16367,55.556604 -3.0052,3.535534 -6.89429,-4.596195 -4.24264,2.298097 -6.89429,6.540738 7.60139,-5.833631 3.71231,-1.06066 7.24785,4.949748 2.47487,-5.833631 z"
         id="path2540"
         style="color:#000000;fill:#ffffff;fill-opacity:1;fill-rule:evenodd;stroke:none;stroke-width:1;marker:none;visibility:visible;display:inline;overflow:visible" />
    </g>
  </g>
  <path
     d="m 27.126392,5.0232795 a 9.9918994,2.0341048 0 0 1 -19.9837988,0 9.9918994,2.0341048 0 1 1 19.9837988,0 z"
     id="path18342"
     style="opacity:0.77272728;color:#000000;fill:#585858;fill-opacity:0.51308899;fill-rule:evenodd;stroke:#636363;stroke-width:0.24805492;stroke-linecap:round;stroke-linejoin:round;stroke-miterlimit:4;stroke-opacity:1;stroke-dasharray:none;stroke-dashoffset:0;marker:none;visibility:visible;display:inline;overflow:visible" />
  <path
     d="m 5.3299997,5.7742809 c -0.023425,-0.030235 2.0549051,21.7500821 2.0551739,21.7566811 0.088521,2.17514 3.9437514,2.566557 9.2654844,2.737431 6.50274,-0.06728 8.942541,-1.16306 9.034683,-2.675592 0.0074,-0.02982 2.085231,-21.788698 2.09262,-21.8185201 1.228137,-4.81556099 -8.553945,-4.4615904 -11.979874,-4.4615904 -3.678481,0 -11.8519152,-0.1131929 -10.4680873,4.4615904 z"
     id="path1751"
     style="fill:url(#linearGradient3109);fill-opacity:1;fill-rule:evenodd;stroke:url(#linearGradient3111);stroke-width:0.40000001;stroke-linecap:round;stroke-linejoin:round;stroke-miterlimit:4;stroke-opacity:1;stroke-dasharray:none" />
  <path
     d="m 6.1198394,5.2340623 c 0,0 8.2975546,-2.5839061 20.4806576,-0.3802931 C 31.245856,1.378841 15.644471,1.1245778 15.644471,1.1245778 c 0,0 -13.3811538,0.7193102 -9.5246316,4.1094845 z"
     id="path18338"
     style="fill:#d9dcd5;fill-opacity:1;fill-rule:evenodd;stroke:none" />
  <path
     d="m 6.1198394,5.2340623 c 0,0 8.2975546,-2.5839061 20.4806576,-0.3802931 C 31.245856,1.378841 15.644471,1.1245778 15.644471,1.1245778 c 0,0 -13.3811538,0.7193102 -9.5246316,4.1094845 z"
     id="path13701"
     style="fill:url(#linearGradient3105);fill-opacity:1;fill-rule:evenodd;stroke:#636363;stroke-width:0.24805494;stroke-linecap:round;stroke-linejoin:round;stroke-miterlimit:4;stroke-opacity:1;stroke-dasharray:none" />
  <path
     d="m 25.088491,2.2528519 c 0.01217,0.00321 0.0259,0.006 0.03807,0.0092 0.05443,0.014388 0.107369,0.031015 0.161776,0.04601 0.01307,0.0036 0.02501,0.00559 0.03807,0.0092 0.03167,0.00882 0.06361,0.018555 0.09518,0.0276 0.0094,0.00266 0.0193,0.00653 0.02854,0.0092 0.006,0.00172 0.01297,-0.00172 0.01903,0 0.01665,0.00486 0.03097,0.013502 0.04759,0.018403 0.0195,0.00579 0.03768,0.012524 0.05711,0.018402 0.01347,0.00405 0.02465,0.00511 0.03806,0.0092 0.03116,0.00959 0.06426,0.017735 0.09517,0.027609 0.0082,0.0026 0.02038,0.00659 0.02854,0.0092 0.02595,0.00839 0.05042,0.018994 0.07615,0.027608 0.0093,0.00307 0.01938,0.00613 0.02854,0.0092 0.06077,0.020672 0.121805,0.042362 0.180807,0.064414 0.01563,0.00579 0.0321,0.012505 0.04759,0.018403 0.01815,0.00696 0.02964,0.011305 0.04759,0.018402 0.03698,0.014641 0.07822,0.030724 0.114196,0.04601 0.01213,0.00511 0.02605,0.013223 0.03806,0.018403 0.0027,0.0012 0.0068,-0.0012 0.0096,0 0.01802,0.00792 0.03935,0.0195 0.05711,0.027609 0.0097,0.00439 0.01909,0.0048 0.02855,0.0092 0.0034,0.00159 0.006,0.00758 0.0096,0.0092 0.03403,0.016032 0.07188,0.02926 0.104679,0.046011 0.0087,0.00445 0.01992,0.013895 0.02854,0.018402 0.01104,0.00572 0.02717,0.012565 0.03806,0.018402 0.0063,0.00339 0.01277,0.00579 0.01903,0.0092 0.0067,0.0036 0.01246,0.00553 0.01903,0.0092 0.0062,0.00346 0.0033,0.00572 0.0096,0.0092 0.0062,0.00346 0.01288,0.00565 0.01904,0.0092 0.0061,0.00352 0.013,0.00565 0.01903,0.0092 0.0031,0.0018 0.0063,0.00735 0.0096,0.0092 0.01501,0.00895 0.03294,0.018461 0.04759,0.027602 0.0062,0.00385 0.01288,0.00534 0.01903,0.0092 0.0081,0.00519 0.01103,0.013175 0.01903,0.018403 0.0092,0.006 0.01959,0.012343 0.02854,0.018402 0.03093,0.020772 0.06626,0.042608 0.09518,0.064414 0.0025,0.00201 0.007,0.00719 0.0096,0.0092 0.02915,0.022243 0.05877,0.041052 0.08565,0.064414 0.0019,0.00165 -0.0018,0.00752 0,0.0092 0.0082,0.00721 0.02056,0.011078 0.02854,0.018402 0.0046,0.00427 0.005,0.014089 0.0096,0.018402 0.0062,0.00592 0.01292,0.01241 0.01903,0.018404 0.0022,0.00219 0.0074,-0.00219 0.0096,0 0.0022,0.00226 0.0073,0.00694 0.0096,0.0092 0.0061,0.00618 0.01311,0.012152 0.01903,0.018403 0.0014,0.00152 -0.0014,0.00768 0,0.0092 0.0025,0.00266 0.0071,0.00653 0.0096,0.0092 0.02866,0.030878 0.05151,0.059253 0.07614,0.092021 0.005,0.00667 0.01419,0.011651 0.01903,0.018402 0.0014,0.00206 -0.0014,0.00712 0,0.0092 0.002,0.00293 0.0075,0.00625 0.0096,0.0092 0.0058,0.00838 0.01354,0.019108 0.01903,0.027609 0.0022,0.00439 0.0074,0.0048 0.0096,0.0092 0.0042,0.00871 0.0058,0.018902 0.0096,0.0276 0.0094,0.02219 0.01321,0.041818 0.01903,0.064414 0.0036,0.013136 0.0072,0.032721 0.0096,0.04601 7.29e-4,0.00452 -5.93e-4,0.00467 0,0.0092 0.001,0.00666 0.0088,0.011692 0.0096,0.018402 9.3e-4,0.011418 1.5e-5,0.025372 0,0.036809 -7.29e-4,0.00733 9.99e-4,0.020332 0,0.027609 -7.29e-4,0.00486 -0.0087,0.01361 -0.0096,0.018403 -0.0012,0.00719 0.0015,0.011285 0,0.018402 -0.0068,0.033346 -0.01622,0.060266 -0.02854,0.092021 -0.0018,0.00452 0.0018,0.00473 0,0.0092 -0.0028,0.00723 -0.0063,0.011252 -0.0096,0.018403 -0.0029,0.00672 -0.0063,0.01177 -0.0096,0.018402 -0.0041,0.00889 -0.005,0.00966 -0.0096,0.018403 -0.0022,0.00439 -0.0072,0.014054 -0.0096,0.018403 -0.0059,0.010867 -0.0124,0.026132 -0.01903,0.036809 -0.0013,0.00213 -0.0082,-0.00213 -0.0096,0 -0.0027,0.00427 0.0027,0.00498 0,0.0092 -0.014,0.021118 -0.03119,0.044048 -0.04757,0.064414 -0.0032,0.00405 -0.0061,0.00511 -0.0096,0.0092 -0.0033,0.00405 -0.006,0.014389 -0.0096,0.018403 -0.02767,0.03213 -0.06203,0.06171 -0.09515,0.09202 -0.0041,0.00379 -0.0053,0.00547 -0.0096,0.0092 -0.0068,0.006 -0.02159,0.012458 -0.02854,0.018402 -0.0043,0.00373 -0.005,0.014728 -0.0096,0.018403 -0.01604,0.013242 -0.04012,0.023915 -0.05711,0.036809 -0.0028,0.00213 -0.0066,0.00707 -0.0096,0.0092 -0.02962,0.022076 -0.06297,0.043336 -0.09516,0.064414 -0.0073,0.0048 -0.01166,0.013694 -0.01903,0.018402 -0.01327,0.00838 -0.03394,0.019388 -0.04759,0.027608 -0.111354,0.067119 -0.240573,0.126477 -0.371135,0.184041 -0.02567,0.01123 -0.04995,0.025912 -0.07614,0.036807 -0.0292,0.012229 -0.05593,0.024983 -0.08566,0.036807 -0.0266,0.01058 -0.0492,0.017338 -0.07614,0.027603 -0.01348,0.00512 -0.03403,0.013346 -0.04759,0.018406 -0.0025,9.652e-4 -0.007,-9.656e-4 -0.0096,0 -0.0244,0.00909 -0.04202,0.018768 -0.06663,0.027605 -0.04099,0.014721 -0.08243,0.031924 -0.123711,0.046009 -0.06883,0.023489 -0.140598,0.042558 -0.209358,0.064415 -0.04126,0.013113 -0.08283,0.024235 -0.123712,0.036806 -0.03136,0.00966 -0.06415,0.027462 -0.09517,0.036807 -0.04986,0.015021 -0.09418,0.022508 -0.142745,0.036808 -0.02295,0.00602 -0.05313,0.01247 -0.07614,0.018405 -0.03701,0.00955 -0.06757,0.018266 -0.104678,0.027606 -0.02307,0.00581 -0.05301,0.012677 -0.07614,0.018405 -0.03719,0.00921 -0.06738,0.018593 -0.10468,0.027604 -0.04033,0.00974 -0.08326,0.018095 -0.123711,0.027603 -0.121356,0.028536 -0.239164,0.056325 -0.361617,0.082817 -0.04083,0.00884 -0.08279,0.018996 -0.123712,0.027607 -0.06447,0.013562 -0.135088,0.023787 -0.199842,0.036807 -0.03228,0.0065 -0.06282,0.021249 -0.09517,0.027606 -0.0031,6.101e-4 -0.0064,-6.052e-4 -0.0096,0 -0.126507,0.024819 -0.253157,0.041564 -0.380651,0.064416 -0.04153,0.00744 -0.08207,0.020366 -0.12371,0.027603 -0.08326,0.014481 -0.163785,0.023124 -0.247424,0.036807 -0.06273,0.010262 -0.127394,0.026981 -0.190324,0.036807 -0.125862,0.019655 -0.254031,0.037244 -0.380653,0.055213 -0.04221,0.00602 -0.08144,0.012568 -0.12371,0.018406 -0.08457,0.011616 -0.172069,0.0167 -0.256942,0.027607 -0.04244,0.00549 -0.08119,0.013094 -0.123711,0.018405 -0.04571,0.00567 -0.09697,0.012927 -0.142745,0.018405 -0.07592,0.0091 -0.152276,0.01905 -0.228391,0.027605 -0.0031,3.62e-4 -0.0063,-3.617e-4 -0.0096,0 -0.344638,0.038639 -0.689308,0.072498 -1.037275,0.1012218 -0.08624,0.00718 -0.170553,0.011774 -0.25694,0.018405 -0.302314,0.02298 -0.609995,0.047574 -0.913562,0.064415 -0.08367,0.00469 -0.17323,0.00495 -0.256939,0.0092 -0.0434,0.00218 -0.08983,0.00713 -0.133228,0.0092 -0.08373,0.00402 -0.17319,0.00557 -0.256939,0.0092 -0.347315,0.014912 -0.690471,0.027654 -1.037276,0.036807 -0.08673,0.0023 -0.17032,0.0072 -0.256941,0.0092 -0.176314,0.00405 -0.347562,0.00625 -0.523393,0.0092 -0.09036,3.665e-4 -0.18548,-6.66e-5 -0.275973,0 -0.0031,1.9e-6 -0.0063,-1e-6 -0.0096,0 -0.04369,2.67e-5 -0.08953,4.62e-5 -0.133226,0 -0.0031,-4e-6 -0.0063,4.4e-6 -0.0096,0 -0.184228,-2.164e-4 -0.367355,0.00161 -0.551945,0 -0.0031,-2.88e-5 -0.0063,2.91e-5 -0.0096,0 -0.09077,-8.454e-4 -0.185152,-0.00798 -0.275971,-0.0092 -0.09395,-0.00123 -0.191524,0.00164 -0.285491,0 -0.09399,-0.00167 -0.181947,-0.00707 -0.275972,-0.0092 -0.0031,-7.13e-5 -0.0063,7.15e-5 -0.0096,0 -0.047,-0.00103 -0.08623,0.00116 -0.133227,0 -0.09403,-0.00235 -0.191453,-0.00637 -0.285479,-0.0092 -0.09403,-0.00282 -0.181969,-0.00588 -0.275971,-0.0092 -0.0031,-1.107e-4 -0.0063,1.116e-4 -0.0096,0 -0.09088,-0.00324 -0.185146,-0.0055 -0.275972,-0.0092 -0.137751,-0.00555 -0.28112,-0.011701 -0.418716,-0.018405 -0.0031,-1.543e-4 -0.0063,1.548e-4 -0.0096,0 -0.372097,-0.018202 -0.743316,-0.04604 -1.113405,-0.073616 -0.0031,-2.341e-4 -0.0064,2.342e-4 -0.0096,0 -0.276821,-0.020689 -0.552836,-0.047031 -0.827917,-0.073616 -0.003,-3.006e-4 -0.0064,3.007e-4 -0.0096,0 -0.1854,-0.017967 -0.367542,-0.034354 -0.551947,-0.055213 -0.04613,-0.00524 -0.08718,-0.012972 -0.133226,-0.018405 -0.06906,-0.00811 -0.140471,-0.00987 -0.20936,-0.018405 -0.206667,-0.025596 -0.413487,-0.053199 -0.618559,-0.082818 -0.06837,-0.00987 -0.141195,-0.026469 -0.209357,-0.036807 -0.09088,-0.013786 -0.1759367,-0.02218 -0.2664557,-0.036807 -0.045257,-0.00731 -0.088064,-0.020076 -0.1332277,-0.027606 -0.02536,-0.00424 -0.0508,-0.00491 -0.076131,-0.0092 -0.022562,-0.00382 -0.044075,-0.00533 -0.066615,-0.0092 -0.045064,-0.00775 -0.088259,-0.019637 -0.1332275,-0.027602 -0.022481,-0.00398 -0.044155,-0.00515 -0.066617,-0.0092 -0.044921,-0.00808 -0.088412,-0.019302 -0.1332282,-0.027604 -0.0224,-0.00417 -0.044227,-0.00498 -0.066617,-0.0092 -0.044515,-0.00832 -0.088331,-0.018852 -0.1329846,-0.027499 -0.1781041,-0.034659 -0.355588,-0.072157 -0.5323957,-0.1105013 -0.044205,-0.00959 -0.089145,-0.017778 -0.1332278,-0.027605 -0.04408,-0.00982 -0.089268,-0.017535 -0.1332281,-0.027607 -0.02198,-0.00503 -0.044663,-0.013306 -0.066614,-0.018404 -0.058297,-0.015578 -0.121006,-0.029853 -0.180809,-0.046011 -0.029901,-0.00808 -0.055471,-0.019358 -0.085648,-0.027606 -0.060347,-0.016496 -0.1197892,-0.028734 -0.1808096,-0.04601 -0.030512,-0.00864 -0.064587,-0.018748 -0.095162,-0.027606 -0.030591,-0.00885 -0.055099,-0.018507 -0.085665,-0.027601 -0.030571,-0.0091 -0.06467,-0.01826 -0.095163,-0.027606 -0.030492,-0.00934 -0.064814,-0.01799 -0.095162,-0.027606 C 7.3712376,4.5940853 7.3285293,4.5775763 7.2835304,4.562498 7.2535321,4.5524507 7.2275633,4.5452551 7.1978844,4.5348918 7.1830439,4.5297121 7.1650507,4.5217496 7.1503032,4.5164869 7.1208081,4.5059645 7.0937274,4.499741 7.064656,4.4888805 7.0065143,4.4671629 6.9493899,4.4384285 6.8933617,4.4152658 6.7953122,4.3747302 6.6971084,4.3319529 6.6078732,4.2864372 c -0.035693,-0.01821 -0.07073,-0.03613 -0.1046794,-0.055213 -0.00242,-0.00133 -0.00711,0.0014 -0.00951,0 -0.019624,-0.011113 -0.028596,-0.025386 -0.047581,-0.036809 -0.00585,-0.00352 -0.013248,-0.00565 -0.019029,-0.0092 -0.063732,-0.038901 -0.1254827,-0.076947 -0.1808105,-0.1196275 -0.00503,-0.00385 -0.00454,-0.00534 -0.00951,-0.0092 -0.00693,-0.00547 -0.012248,-0.012863 -0.01903,-0.018403 -0.0049,-0.00392 -0.00475,-0.00518 -0.00951,-0.0092 -0.040311,-0.033427 -0.079763,-0.06536 -0.1141952,-0.1012218 -0.00415,-0.00427 -0.00548,-0.00493 -0.00951,-0.0092 -0.00708,-0.00751 -0.012224,-0.019985 -0.019031,-0.027609 -0.00153,-0.00172 -0.00798,0.00172 -0.00951,0 -0.017012,-0.019201 -0.022854,-0.035298 -0.038067,-0.055213 -0.00352,-0.00452 -0.00612,-0.00467 -0.00951,-0.0092 -0.011562,-0.01546 -0.018121,-0.030107 -0.028551,-0.046009 -0.00311,-0.00467 -0.00652,-0.00452 -0.00951,-0.0092 -0.012032,-0.018801 -0.027677,-0.035784 -0.038067,-0.055212 -0.00259,-0.00486 -0.00702,-0.013509 -0.00951,-0.018402 -0.00873,-0.017138 -0.011633,-0.037574 -0.019031,-0.055213 -0.00318,-0.00756 -0.0066,-0.010754 -0.00951,-0.018402 -0.00135,-0.00709 0.00106,-0.020572 0,-0.027609 -0.00106,-0.00703 -0.00878,-0.011433 -0.00951,-0.018403 -0.001,-0.0093 4.74e-4,-0.018409 0,-0.02761 -2.385e-4,-0.00459 1.102e-4,-0.00459 0,-0.0092 -1.077e-4,-0.00459 -1.96e-5,-0.013855 0,-0.018402 1.77e-5,-0.00452 -1.432e-4,-0.00467 0,-0.0092 2.928e-4,-0.00906 -7.896e-4,-0.018655 0,-0.027603 3.922e-4,-0.00445 -5.144e-4,-0.00473 0,-0.0092 7.76e-4,-0.00669 0.00846,-0.011783 0.00951,-0.018403 0.00106,-0.00659 -0.00132,-0.021045 0,-0.027607 8.757e-4,-0.00439 -9.951e-4,-0.00486 0,-0.0092 0.001,-0.00433 0.0084,-0.014074 0.00951,-0.018402 0.00112,-0.00433 -0.00123,-0.00493 0,-0.0092 0.00123,-0.00433 -0.00135,-0.00493 0,-0.0092 0.00534,-0.017131 0.011923,-0.038461 0.019031,-0.055213 0.00178,-0.0042 0.00763,-0.00505 0.00951,-0.0092 0.00282,-0.00625 0.00645,-0.012225 0.00951,-0.018403 0.00306,-0.00618 0.00621,-0.012277 0.00951,-0.018403 0.00331,-0.00613 0.00598,-0.01233 0.00951,-0.018402 0.00119,-0.00201 -0.00119,-0.00718 0,-0.0092 0.0048,-0.0081 0.01383,-0.019614 0.019032,-0.027609 0.00782,-0.011971 0.010341,-0.015852 0.019031,-0.027608 0.00292,-0.00392 0.00653,-0.014506 0.00951,-0.018403 0.00296,-0.00392 0.00645,-0.00534 0.00951,-0.0092 0.00306,-0.00385 0.00635,-0.00534 0.00951,-0.0092 0.00634,-0.00772 0.012348,-0.019986 0.01903,-0.02761 0.0047,-0.00534 0.014167,-0.00392 0.019031,-0.0092 0.00686,-0.00758 0.011833,-0.01092 0.019031,-0.018403 0.00362,-0.00373 0.00583,-0.014694 0.00951,-0.018404 0.00735,-0.00744 0.011339,-0.011058 0.01903,-0.018402 0.00386,-0.00366 0.00558,-0.00559 0.00951,-0.0092 0.00785,-0.00729 0.020385,-0.020399 0.028552,-0.027609 0.0041,-0.0036 0.00535,-0.00565 0.00951,-0.0092 0.012468,-0.010747 0.02494,-0.017063 0.038068,-0.027608 0.00439,-0.00352 0.014572,-0.00572 0.019031,-0.0092 0.017785,-0.013968 0.028715,-0.032404 0.047582,-0.04601 0.014187,-0.010182 0.032827,-0.017629 0.047581,-0.027609 0.014721,-0.010012 0.032329,-0.017798 0.047583,-0.0276 0.010189,-0.00653 0.01813,-0.011978 0.02855,-0.018403 0.053512,-0.033402 0.1030455,-0.070128 0.1617765,-0.1012228 0.045472,-0.024074 0.094886,-0.041698 0.1427443,-0.064414 0.035892,-0.017036 0.067758,-0.03892 0.1046789,-0.055213 0.024614,-0.01086 0.051162,-0.017078 0.076131,-0.027601 0.012487,-0.00525 0.025506,-0.013223 0.038067,-0.018402 0.025115,-0.010365 0.050781,-0.017564 0.076131,-0.027609 0.012675,-0.00498 0.025349,-0.013462 0.038067,-0.018402 0.025438,-0.00987 0.050579,-0.018049 0.076131,-0.027606 0.025553,-0.00956 0.050548,-0.018363 0.076131,-0.02761 0.025581,-0.00924 0.050594,-0.018672 0.076131,-0.027602 0.025537,-0.00893 0.050724,-0.018988 0.076131,-0.027609 0.012709,-0.00433 0.025403,-0.00498 0.038067,-0.0092 0.02531,-0.00848 0.051069,-0.019447 0.076131,-0.027609 0.037592,-0.012244 0.077391,-0.025245 0.1141949,-0.036809 0.013858,-0.00399 0.024231,-0.00525 0.038069,-0.0092 0.041519,-0.011845 0.082177,-0.025364 0.1237114,-0.036809 0.00279,-7.99e-4 0.00675,7.322e-4 0.00951,0 0.052631,-0.014429 0.1084841,-0.031758 0.161776,-0.045973 -1.93624,0.2257236 -3.121342,0.601716 -3.121342,1.2698729 3e-7,0.1301168 0,2.1796057 0,2.309723 3e-7,1.4114394 5.2765929,2.558179 11.7811559,2.5581783 6.504563,7e-7 11.781155,-1.1467389 11.781155,-2.5581783 0,-0.1301173 0,-2.1796055 0,-2.309723 0,-0.682604 -1.234976,-1.0679351 -3.245051,-1.2974934 z"
     id="path18314"
     style="color:#000000;fill:#ffffff;fill-opacity:1;fill-rule:evenodd;stroke:#808389;stroke-width:0.12379424;stroke-linecap:round;stroke-linejoin:round;stroke-miterlimit:4;stroke-opacity:1;stroke-dasharray:none;stroke-dashoffset:0;marker:none;visibility:visible;display:inline;overflow:visible" />
  <path
     d="m 25.088491,2.2528519 c 0.01217,0.00321 0.0259,0.006 0.03807,0.0092 0.05443,0.014388 0.107369,0.031015 0.161776,0.04601 0.01307,0.0036 0.02501,0.00559 0.03807,0.0092 0.03167,0.00882 0.06361,0.018555 0.09518,0.0276 0.0094,0.00266 0.0193,0.00653 0.02854,0.0092 0.006,0.00172 0.01297,-0.00172 0.01903,0 0.01665,0.00486 0.03097,0.013502 0.04759,0.018403 0.0195,0.00579 0.03768,0.012524 0.05711,0.018402 0.01347,0.00405 0.02465,0.00511 0.03806,0.0092 0.03116,0.00959 0.06426,0.017735 0.09517,0.027609 0.0082,0.0026 0.02038,0.00659 0.02854,0.0092 0.02595,0.00839 0.05042,0.018994 0.07615,0.027608 0.0093,0.00307 0.01938,0.00613 0.02854,0.0092 0.06077,0.020672 0.121805,0.042362 0.180807,0.064414 0.01563,0.00579 0.0321,0.012505 0.04759,0.018403 0.01815,0.00696 0.02964,0.011305 0.04759,0.018402 0.03698,0.014641 0.07822,0.030724 0.114196,0.04601 0.01213,0.00511 0.02605,0.013223 0.03806,0.018403 0.0027,0.0012 0.0068,-0.0012 0.0096,0 0.01802,0.00792 0.03935,0.0195 0.05711,0.027609 0.0097,0.00439 0.01909,0.0048 0.02855,0.0092 0.0034,0.00159 0.006,0.00758 0.0096,0.0092 0.03403,0.016032 0.07188,0.02926 0.104679,0.046011 0.0087,0.00445 0.01992,0.013895 0.02854,0.018402 0.01104,0.00572 0.02717,0.012565 0.03806,0.018402 0.0063,0.00339 0.01277,0.00579 0.01903,0.0092 0.0067,0.0036 0.01246,0.00553 0.01903,0.0092 0.0062,0.00346 0.0033,0.00572 0.0096,0.0092 0.0062,0.00346 0.01288,0.00565 0.01904,0.0092 0.0061,0.00352 0.013,0.00565 0.01903,0.0092 0.0031,0.0018 0.0063,0.00735 0.0096,0.0092 0.01501,0.00895 0.03294,0.018461 0.04759,0.027602 0.0062,0.00385 0.01288,0.00534 0.01903,0.0092 0.0081,0.00519 0.01103,0.013175 0.01903,0.018403 0.0092,0.006 0.01959,0.012343 0.02854,0.018402 0.03093,0.020772 0.06626,0.042608 0.09518,0.064414 0.0025,0.00201 0.007,0.00719 0.0096,0.0092 0.02915,0.022243 0.05877,0.041052 0.08565,0.064414 0.0019,0.00165 -0.0018,0.00752 0,0.0092 0.0082,0.00721 0.02056,0.011078 0.02854,0.018402 0.0046,0.00427 0.005,0.014089 0.0096,0.018402 0.0062,0.00592 0.01292,0.01241 0.01903,0.018404 0.0022,0.00219 0.0074,-0.00219 0.0096,0 0.0022,0.00226 0.0073,0.00694 0.0096,0.0092 0.0061,0.00618 0.01311,0.012152 0.01903,0.018403 0.0014,0.00152 -0.0014,0.00768 0,0.0092 0.0025,0.00266 0.0071,0.00653 0.0096,0.0092 0.02866,0.030878 0.05151,0.059253 0.07614,0.092021 0.005,0.00667 0.01419,0.011651 0.01903,0.018402 0.0014,0.00206 -0.0014,0.00712 0,0.0092 0.002,0.00293 0.0075,0.00625 0.0096,0.0092 0.0058,0.00838 0.01354,0.019108 0.01903,0.027609 0.0022,0.00439 0.0074,0.0048 0.0096,0.0092 0.0042,0.00871 0.0058,0.018902 0.0096,0.0276 0.0094,0.02219 0.01321,0.041818 0.01903,0.064414 0.0036,0.013136 0.0072,0.032721 0.0096,0.04601 7.29e-4,0.00452 -5.93e-4,0.00467 0,0.0092 0.001,0.00666 0.0088,0.011692 0.0096,0.018402 9.3e-4,0.011418 1.5e-5,0.025372 0,0.036809 -7.29e-4,0.00733 9.99e-4,0.020332 0,0.027609 -7.29e-4,0.00486 -0.0087,0.01361 -0.0096,0.018403 -0.0012,0.00719 0.0015,0.011285 0,0.018402 -0.0068,0.033346 -0.01622,0.060266 -0.02854,0.092021 -0.0018,0.00452 0.0018,0.00473 0,0.0092 -0.0028,0.00723 -0.0063,0.011252 -0.0096,0.018403 -0.0029,0.00672 -0.0063,0.01177 -0.0096,0.018402 -0.0041,0.00889 -0.005,0.00966 -0.0096,0.018403 -0.0022,0.00439 -0.0072,0.014054 -0.0096,0.018403 -0.0059,0.010867 -0.0124,0.026132 -0.01903,0.036809 -0.0013,0.00213 -0.0082,-0.00213 -0.0096,0 -0.0027,0.00427 0.0027,0.00498 0,0.0092 -0.014,0.021118 -0.03119,0.044048 -0.04757,0.064414 -0.0032,0.00405 -0.0061,0.00511 -0.0096,0.0092 -0.0033,0.00405 -0.006,0.014389 -0.0096,0.018403 -0.02767,0.03213 -0.06203,0.06171 -0.09515,0.09202 -0.0041,0.00379 -0.0053,0.00547 -0.0096,0.0092 -0.0068,0.006 -0.02159,0.012458 -0.02854,0.018402 -0.0043,0.00373 -0.005,0.014728 -0.0096,0.018403 -0.01604,0.013242 -0.04012,0.023915 -0.05711,0.036809 -0.0028,0.00213 -0.0066,0.00707 -0.0096,0.0092 -0.02962,0.022076 -0.06297,0.043336 -0.09516,0.064414 -0.0073,0.00473 -0.01166,0.013694 -0.01903,0.018402 -0.01327,0.00838 -0.03394,0.019388 -0.04759,0.027608 -0.111354,0.067119 -0.240573,0.1264776 -0.371135,0.1840414 -0.02567,0.01123 -0.04995,0.025912 -0.07614,0.036807 -0.0292,0.012229 -0.05593,0.024983 -0.08566,0.036807 -0.0266,0.01058 -0.0492,0.017338 -0.07614,0.027604 -0.01348,0.00512 -0.03403,0.013347 -0.04759,0.018406 -0.0025,9.652e-4 -0.007,-9.656e-4 -0.0096,0 -0.0244,0.00909 -0.04202,0.018768 -0.06663,0.027605 -0.04099,0.014722 -0.08243,0.031922 -0.123711,0.04601 -0.06883,0.02349 -0.140598,0.042559 -0.209358,0.064415 -0.04126,0.013114 -0.08283,0.024235 -0.123712,0.036807 -0.03136,0.00965 -0.06415,0.027461 -0.09517,0.036807 -0.04986,0.015021 -0.09418,0.022507 -0.142745,0.036808 -0.02295,0.00602 -0.05313,0.01247 -0.07614,0.018405 -0.03701,0.00955 -0.06757,0.018265 -0.104678,0.027605 -0.02307,0.00581 -0.05301,0.012676 -0.07614,0.018405 -0.03719,0.00921 -0.06738,0.018593 -0.10468,0.027605 -0.04033,0.00974 -0.08326,0.018095 -0.123711,0.027604 -0.121356,0.028536 -0.239164,0.056325 -0.361617,0.082818 -0.04083,0.00884 -0.08279,0.018996 -0.123712,0.027603 -0.06447,0.013562 -0.135088,0.023788 -0.199842,0.036806 -0.03228,0.0065 -0.06282,0.021249 -0.09517,0.027605 -0.0031,6.101e-4 -0.0064,-6.051e-4 -0.0096,0 -0.126507,0.024819 -0.253157,0.041565 -0.380651,0.064416 -0.04153,0.00744 -0.08207,0.020366 -0.12371,0.027603 -0.08326,0.014481 -0.163785,0.023123 -0.247424,0.036807 -0.06273,0.010261 -0.127394,0.026981 -0.190324,0.036807 -0.125862,0.019655 -0.254031,0.037244 -0.380653,0.055213 -0.04221,0.00602 -0.08144,0.012568 -0.12371,0.018406 -0.08457,0.011616 -0.172069,0.0167 -0.256942,0.027606 -0.04244,0.00549 -0.08119,0.013095 -0.123711,0.018405 -0.04571,0.00567 -0.09697,0.012927 -0.142745,0.018405 -0.07592,0.0091 -0.152276,0.01905 -0.228391,0.027605 -0.0031,3.62e-4 -0.0063,-3.618e-4 -0.0096,0 -0.344638,0.03864 -0.689308,0.072498 -1.037275,0.1012218 -0.08624,0.00718 -0.170553,0.011774 -0.25694,0.018405 -0.302314,0.02298 -0.609995,0.047573 -0.913562,0.064415 -0.08367,0.00469 -0.17323,0.00495 -0.256939,0.0092 -0.0434,0.00218 -0.08983,0.00713 -0.133228,0.0092 -0.08373,0.00402 -0.17319,0.00557 -0.256939,0.0092 -0.347315,0.014913 -0.690471,0.027652 -1.037276,0.036807 -0.08673,0.0023 -0.17032,0.0072 -0.256941,0.0092 -0.176314,0.00405 -0.347562,0.00625 -0.523393,0.0092 -0.09036,3.666e-4 -0.18548,-6.63e-5 -0.275973,0 -0.0031,2e-6 -0.0063,-9e-7 -0.0096,0 -0.04369,2.68e-5 -0.08953,4.63e-5 -0.133226,0 -0.0031,-3.8e-6 -0.0063,4.7e-6 -0.0096,0 -0.184228,-2.161e-4 -0.367355,0.00161 -0.551945,0 -0.0031,-2.86e-5 -0.0063,2.94e-5 -0.0096,0 -0.09077,-8.453e-4 -0.185152,-0.00798 -0.275971,-0.0092 -0.09395,-0.00123 -0.191524,0.00164 -0.285491,0 -0.09399,-0.00167 -0.181947,-0.00707 -0.275972,-0.0092 -0.0031,-7.15e-5 -0.0063,7.14e-5 -0.0096,0 -0.047,-0.00103 -0.08623,0.00116 -0.133227,0 -0.09403,-0.00235 -0.191453,-0.00637 -0.285479,-0.0092 -0.09403,-0.00282 -0.181969,-0.00588 -0.275971,-0.0092 -0.0031,-1.107e-4 -0.0063,1.116e-4 -0.0096,0 -0.09088,-0.00324 -0.185146,-0.0055 -0.275972,-0.0092 -0.137751,-0.00555 -0.28112,-0.011701 -0.418716,-0.018405 -0.0031,-1.543e-4 -0.0063,1.549e-4 -0.0096,0 -0.372097,-0.018202 -0.743316,-0.046041 -1.113405,-0.073616 -0.0031,-2.34e-4 -0.0064,2.341e-4 -0.0096,0 -0.276821,-0.020689 -0.552836,-0.04703 -0.827917,-0.073616 -0.003,-3.008e-4 -0.0064,3.007e-4 -0.0096,0 -0.1854,-0.017967 -0.367542,-0.034351 -0.551947,-0.055214 -0.04613,-0.00524 -0.08718,-0.012972 -0.133226,-0.018405 -0.06906,-0.00811 -0.140471,-0.00987 -0.20936,-0.018405 -0.206667,-0.025596 -0.413487,-0.053199 -0.618559,-0.082818 -0.06837,-0.00987 -0.141195,-0.026469 -0.209357,-0.036807 -0.09088,-0.013786 -0.1759367,-0.02218 -0.2664557,-0.036807 -0.045257,-0.00731 -0.088064,-0.020076 -0.1332277,-0.027605 -0.02536,-0.00424 -0.0508,-0.00491 -0.076131,-0.0092 -0.022562,-0.00382 -0.044075,-0.00533 -0.066615,-0.0092 -0.045064,-0.00775 -0.088259,-0.019638 -0.1332275,-0.027604 -0.022481,-0.00398 -0.044155,-0.00515 -0.066617,-0.0092 -0.044921,-0.00808 -0.088412,-0.019302 -0.1332282,-0.027603 -0.0224,-0.00417 -0.044227,-0.00498 -0.066617,-0.0092 C 9.189818,5.0418362 9.1460021,5.0312966 9.1013486,5.0226499 8.9225387,4.9880182 8.7450548,4.9505207 8.5682471,4.9121763 c -0.044205,-0.00959 -0.089145,-0.017779 -0.1332278,-0.027605 -0.044079,-0.00983 -0.089268,-0.017535 -0.1332281,-0.027607 -0.02198,-0.00503 -0.044663,-0.013306 -0.066614,-0.018404 -0.058297,-0.015578 -0.121006,-0.029853 -0.1808089,-0.04601 -0.029902,-0.00808 -0.055471,-0.019358 -0.085647,-0.027606 -0.060347,-0.016497 -0.1197892,-0.028735 -0.1808096,-0.04601 -0.030505,-0.00863 -0.064588,-0.018749 -0.095162,-0.027604 -0.030591,-0.00886 -0.0551,-0.018509 -0.085666,-0.027602 -0.03057,-0.0091 -0.064669,-0.01826 -0.095162,-0.027607 -0.030494,-0.00934 -0.064815,-0.017989 -0.095164,-0.027604 -0.045519,-0.01443 -0.088227,-0.030938 -0.1332255,-0.046013 -0.03,-0.010053 -0.055968,-0.017243 -0.085646,-0.027605 -0.01484,-0.00517 -0.032832,-0.013142 -0.047582,-0.018404 C 7.1208107,4.5059699 7.0937293,4.4997479 7.0646587,4.4888871 7.0065165,4.4671653 6.9493926,4.4384319 6.8933645,4.4152678 6.7953152,4.374732 6.6971112,4.3319545 6.607876,4.2864394 6.572182,4.2682294 6.537147,4.2503084 6.5031966,4.2312274 c -0.00242,-0.00133 -0.00711,0.0014 -0.00951,0 -0.019624,-0.011113 -0.028596,-0.025386 -0.047581,-0.036809 -0.00585,-0.00352 -0.013248,-0.00565 -0.019032,-0.0092 C 6.3633412,4.1463154 6.301591,4.1082692 6.246263,4.065589 6.241233,4.061739 6.241723,4.060339 6.236753,4.056389 6.229823,4.050919 6.224505,4.043526 6.217723,4.037986 6.212823,4.034066 6.212973,4.032736 6.208213,4.028786 6.1679,3.995359 6.128452,3.963426 6.0940176,3.9275643 c -0.00415,-0.00427 -0.00548,-0.00493 -0.00951,-0.0092 -0.00708,-0.00751 -0.012224,-0.019985 -0.01903,-0.02761 -0.00153,-0.00172 -0.00798,0.00172 -0.00951,0 -0.017012,-0.019195 -0.022854,-0.035297 -0.038067,-0.055213 -0.00352,-0.00452 -0.00612,-0.00467 -0.00951,-0.0092 -0.011562,-0.015459 -0.018121,-0.030107 -0.028551,-0.04601 -0.00311,-0.00467 -0.00652,-0.00452 -0.00951,-0.0092 -0.012032,-0.018801 -0.027676,-0.035785 -0.038067,-0.055212 -0.00259,-0.00486 -0.00702,-0.013509 -0.00951,-0.018401 -0.00873,-0.017137 -0.011633,-0.037574 -0.019032,-0.055213 -0.00318,-0.00756 -0.0066,-0.010754 -0.00951,-0.018401 -0.00135,-0.00709 0.00106,-0.020571 0,-0.02761 -0.00106,-0.00703 -0.00878,-0.011432 -0.00951,-0.018403 -0.001,-0.0093 4.742e-4,-0.018409 0,-0.027608 -2.385e-4,-0.00459 1.103e-4,-0.00459 0,-0.0092 -1.078e-4,-0.00459 -1.95e-5,-0.013855 0,-0.018403 1.77e-5,-0.00452 -1.433e-4,-0.00467 0,-0.0092 2.931e-4,-0.00906 -7.897e-4,-0.018655 0,-0.027609 3.922e-4,-0.00445 -5.143e-4,-0.00473 0,-0.0092 7.763e-4,-0.00669 0.00846,-0.011785 0.00951,-0.018402 0.00106,-0.00659 -0.00132,-0.021046 0,-0.0276 8.756e-4,-0.0044 -9.953e-4,-0.00486 0,-0.0092 0.001,-0.00433 0.0084,-0.014074 0.00951,-0.018402 0.00112,-0.00433 -0.00123,-0.00493 0,-0.0092 0.00123,-0.00433 -0.00133,-0.00493 0,-0.0092 0.00534,-0.017132 0.011923,-0.038461 0.019032,-0.055213 0.00178,-0.0042 0.00763,-0.00505 0.00951,-0.0092 0.00282,-0.00625 0.00645,-0.012224 0.00951,-0.018403 0.00306,-0.00618 0.00621,-0.012278 0.00951,-0.018403 0.00331,-0.00613 0.00598,-0.01233 0.00951,-0.018403 0.00119,-0.00201 -0.00119,-0.00718 0,-0.0092 0.0048,-0.0081 0.013829,-0.019614 0.019031,-0.027603 0.00782,-0.011971 0.010342,-0.015852 0.019031,-0.027609 0.00292,-0.00392 0.00653,-0.014508 0.00951,-0.018403 0.00296,-0.00392 0.00645,-0.00534 0.00951,-0.0092 0.00306,-0.00385 0.00635,-0.00534 0.00951,-0.0092 0.00634,-0.00772 0.012348,-0.019987 0.019032,-0.0276 0.0047,-0.00534 0.014168,-0.00392 0.019031,-0.0092 0.00686,-0.00758 0.011833,-0.010919 0.019031,-0.018402 0.00362,-0.00373 0.00583,-0.014694 0.00951,-0.018404 0.00735,-0.00744 0.011339,-0.011058 0.01903,-0.018402 0.00386,-0.00366 0.00558,-0.00559 0.00951,-0.0092 0.00785,-0.00729 0.020385,-0.020399 0.02855,-0.027609 0.0041,-0.0036 0.00535,-0.00565 0.00951,-0.0092 0.012467,-0.010748 0.024937,-0.017064 0.038067,-0.027609 0.00439,-0.00352 0.014571,-0.00572 0.019031,-0.0092 0.017786,-0.013968 0.028714,-0.0324 0.047581,-0.046011 0.014187,-0.010182 0.032827,-0.017628 0.047581,-0.027609 0.014721,-0.010012 0.032328,-0.017796 0.047581,-0.027609 0.010189,-0.00653 0.01813,-0.011971 0.028551,-0.018403 0.053512,-0.033402 0.1030457,-0.070128 0.1617766,-0.1012228 0.045472,-0.024074 0.094886,-0.041697 0.1427443,-0.064414 0.035892,-0.017037 0.067758,-0.03892 0.1046791,-0.055213 0.024612,-0.01086 0.051162,-0.017078 0.076131,-0.027609 0.012487,-0.00525 0.025506,-0.013224 0.038067,-0.018403 0.025115,-0.010364 0.050781,-0.017563 0.07613,-0.027609 0.012675,-0.00498 0.025349,-0.013462 0.038067,-0.018403 0.025438,-0.00987 0.050579,-0.018048 0.076131,-0.027609 0.025553,-0.00956 0.050548,-0.018363 0.076131,-0.02761 0.025581,-0.00924 0.050594,-0.018674 0.076131,-0.027602 0.025537,-0.00893 0.050725,-0.018987 0.076131,-0.02761 0.012709,-0.00433 0.025403,-0.00498 0.038067,-0.0092 0.02531,-0.00847 0.051068,-0.019447 0.076131,-0.027609 0.037592,-0.012244 0.077391,-0.025245 0.1141948,-0.036809 0.013858,-0.00399 0.02423,-0.00525 0.038069,-0.0092 0.04152,-0.011845 0.082177,-0.025365 0.1237115,-0.036809 0.00279,-7.991e-4 0.00675,7.322e-4 0.00951,0 0.052628,-0.014442 0.1084843,-0.031772 0.1617762,-0.045986 -1.9362393,0.2257307 -3.1213412,0.6017231 -3.1213412,1.2698799 3e-7,0.1301169 0,2.1796056 0,2.3097231 3e-7,1.4114392 5.2765921,2.5581788 11.7811561,2.5581781 6.504563,7e-7 11.781153,-1.1467389 11.781153,-2.5581781 0,-0.1301175 0,-2.1796062 0,-2.3097231 0,-0.682604 -1.234974,-1.0679351 -3.24505,-1.2974934 z"
     id="path3959"
     style="color:#000000;fill:url(#linearGradient3101);fill-opacity:1;fill-rule:evenodd;stroke:#808389;stroke-width:0;stroke-linecap:round;stroke-linejoin:round;stroke-miterlimit:4;stroke-opacity:1;stroke-dasharray:none;stroke-dashoffset:0;marker:none;visibility:visible;display:inline;overflow:visible" />
  <path
     d="m 16.200284,1.0013685 c -0.384623,0.00206 -0.768488,0.010386 -1.15147,0.018402 C 12.181638,1.122106 9.2386404,1.3527782 6.626907,2.1792325 5.7601581,2.4773463 4.653424,2.9572574 4.7807484,3.6883736 c 0.2753283,0.7889535 1.5587371,1.1710817 2.5884287,1.4723332 3.1015519,0.7886403 6.4897879,0.9624716 9.7922539,0.9478141 3.051538,-0.055931 6.181426,-0.2583324 9.0024,-1.0674414 0.927916,-0.2990944 2.101952,-0.7237973 2.16971,-1.4815344 1.19e-4,-0.088454 -0.01736,-0.1823185 -0.0571,-0.2668607 C 27.825204,2.5271937 26.541887,2.1794621 25.459627,1.8847682 22.504892,1.1860818 19.332232,0.98433076 16.200284,1.0013685 z m -0.56146,0.4048913 c 3.029604,-0.040452 6.119049,0.1083329 8.98337,0.7269645 0.980347,0.2438176 2.141614,0.5353265 2.55036,1.1686642 0.03599,0.069947 0.05721,0.1384654 0.05711,0.2116484 -0.06138,0.6269216 -1.129331,0.9764173 -1.969872,1.2238767 -2.555336,0.6694245 -5.391271,0.846327 -8.155456,0.8926015 C 14.11285,5.6421415 11.044647,5.4911263 8.2351583,4.8386366 7.3024294,4.5893927 6.1435545,4.2767105 5.8941533,3.6239615 5.778818,3.0190648 6.7743731,2.6191259 7.5595022,2.3724788 9.9252963,1.6887029 12.594374,1.5001308 15.19156,1.4154622 c 0.148677,-0.00285 0.298266,-0.00721 0.447263,-0.0092 z"
     id="path18219"
     style="color:#000000;fill:#d9dcd5;fill-opacity:1;fill-rule:evenodd;stroke:url(#linearGradient3098);stroke-width:0.12379423;stroke-linecap:round;stroke-linejoin:round;stroke-miterlimit:4;stroke-opacity:1;stroke-dasharray:none;stroke-dashoffset:0;marker:none;visibility:visible;display:inline;overflow:visible" />
  <path
     d="m 16.200284,1.0013685 c -0.384623,0.00206 -0.768488,0.010386 -1.15147,0.018402 C 12.181638,1.122106 9.2386404,1.352778 6.6269071,2.1792323 5.7601581,2.4773461 4.653424,2.9572572 4.7807485,3.6883734 c 0.2753282,0.7889535 1.558737,1.1710818 2.5884288,1.472333 3.1015517,0.7886405 6.4897867,0.9624716 9.7922537,0.9478144 3.051538,-0.055931 6.181426,-0.2583325 9.0024,-1.0674413 0.927916,-0.2990948 2.101951,-0.7237975 2.16971,-1.4815346 1.2e-4,-0.088454 -0.01736,-0.1823185 -0.0571,-0.2668607 C 27.825204,2.5271937 26.541887,2.1794621 25.459627,1.8847682 22.504892,1.1860818 19.332232,0.98433076 16.200284,1.0013685 z m -0.56146,0.4048913 c 3.029604,-0.040452 6.119049,0.1083329 8.98337,0.7269645 0.980347,0.2438176 2.141614,0.5353265 2.550363,1.1686642 0.03599,0.069947 0.05721,0.1384654 0.05711,0.2116484 -0.06138,0.6269216 -1.129337,0.9764175 -1.969876,1.223877 C 22.704454,5.4068381 19.868519,5.5837407 17.104334,5.630015 14.11285,5.642142 11.044647,5.4911263 8.2351583,4.8386365 7.3024294,4.5893927 6.1435545,4.2767111 5.8941534,3.6239615 5.7788181,3.0190648 6.7743731,2.6191259 7.5595022,2.3724788 9.9252963,1.6887029 12.594374,1.5001308 15.19156,1.4154622 c 0.148677,-0.00285 0.298267,-0.00721 0.447263,-0.0092 z"
     id="path7867"
     style="color:#000000;fill:url(#linearGradient3095);fill-opacity:1;fill-rule:evenodd;stroke:none;stroke-width:0.49905977;marker:none;visibility:visible;display:inline;overflow:visible" />
</svg>
