<?xml version="1.0" encoding="UTF-8" standalone="no"?>
<!-- Created with Inkscape (http://www.inkscape.org/) -->

<svg
   xmlns:svg="http://www.w3.org/2000/svg"
   xmlns="http://www.w3.org/2000/svg"
   xmlns:xlink="http://www.w3.org/1999/xlink"
   version="1.1"
   width="32"
   height="32"
   id="svg2453">
  <defs
     id="defs2455">
    <linearGradient
       id="linearGradient5060">
      <stop
         id="stop5062"
         style="stop-color:#000000;stop-opacity:1"
         offset="0" />
      <stop
         id="stop5064"
         style="stop-color:#000000;stop-opacity:0"
         offset="1" />
    </linearGradient>
    <linearGradient
       id="linearGradient4294">
      <stop
         id="stop4296"
         style="stop-color:#e6e7e7;stop-opacity:1"
         offset="0" />
      <stop
         id="stop4298"
         style="stop-color:#676b73;stop-opacity:1"
         offset="1" />
    </linearGradient>
    <linearGradient
       id="linearGradient2338">
      <stop
         id="stop3317"
         style="stop-color:#f8f8f8;stop-opacity:0.15463917"
         offset="0" />
      <stop
         id="stop3322"
         style="stop-color:#b0b2b6;stop-opacity:0.17525773"
         offset="0.49817383" />
      <stop
         id="stop3319"
         style="stop-color:#5b5e62;stop-opacity:0.23529412"
         offset="0.7375508" />
      <stop
         id="stop2342"
         style="stop-color:#ffffff;stop-opacity:0.15463917"
         offset="1" />
    </linearGradient>
    <linearGradient
       id="linearGradient4302">
      <stop
         id="stop4304"
         style="stop-color:#c0c0c0;stop-opacity:1"
         offset="0" />
      <stop
         id="stop4306"
         style="stop-color:#abacb0;stop-opacity:1"
         offset="1" />
    </linearGradient>
    <linearGradient
       id="linearGradient2793">
      <stop
         id="stop2795"
         style="stop-color:#555753;stop-opacity:1"
         offset="0" />
      <stop
         id="stop2797"
         style="stop-color:#d3d7cf;stop-opacity:0"
         offset="1" />
    </linearGradient>
    <linearGradient
       x1="92.004761"
       y1="47.258526"
       x2="55.992207"
       y2="10.900407"
       id="linearGradient2852"
       xlink:href="#linearGradient2793"
       gradientUnits="userSpaceOnUse"
       gradientTransform="matrix(0.24781724,0,0,0.2491079,0.68908489,0.84448504)"
       spreadMethod="reflect" />
    <linearGradient
       x1="63.999081"
       y1="6.4738212"
       x2="63.999081"
       y2="31.225994"
       id="linearGradient2855"
       xlink:href="#linearGradient4302"
       gradientUnits="userSpaceOnUse"
       gradientTransform="matrix(0.28390586,0,0,0.28538447,-1.6203247,-2.6411008)" />
    <linearGradient
       x1="32.626884"
       y1="37.21664"
       x2="63.999931"
       y2="37.21664"
       id="linearGradient2858"
       xlink:href="#linearGradient2793"
       gradientUnits="userSpaceOnUse"
       gradientTransform="matrix(0.29565761,0,0,0.26835417,-2.3724025,-1.4897311)"
       spreadMethod="reflect" />
    <linearGradient
       x1="97.717728"
       y1="17.833755"
       x2="62.373119"
       y2="17.833755"
       id="linearGradient2862"
       xlink:href="#linearGradient2793"
       gradientUnits="userSpaceOnUse"
       gradientTransform="matrix(0.30476159,0,0,0.29519998,-2.9550782,-2.0811488)"
       spreadMethod="reflect" />
    <linearGradient
       x1="4.8849959"
       y1="38.13002"
       x2="35.514687"
       y2="39.751118"
       id="linearGradient2866"
       xlink:href="#linearGradient2338"
       gradientUnits="userSpaceOnUse"
       gradientTransform="matrix(0.62509881,0,0,0.73528448,3.8462036,-8.7464051)" />
    <linearGradient
       x1="29.232977"
       y1="1.2616314"
       x2="29.232977"
       y2="57.745785"
       id="linearGradient2868"
       xlink:href="#linearGradient4294"
       gradientUnits="userSpaceOnUse"
       gradientTransform="matrix(0.51672612,0,0,0.51941722,1.4207409,0.52640152)" />
    <linearGradient
       x1="27.405413"
       y1="52.355087"
       x2="37.462498"
       y2="68.298302"
       id="linearGradient2871"
       xlink:href="#linearGradient2793"
       gradientUnits="userSpaceOnUse"
       gradientTransform="matrix(0.55793381,0,0,0.50018393,-0.21940102,1.5786507)"
       spreadMethod="reflect" />
    <radialGradient
       cx="62.71241"
       cy="108.02493"
       r="47.38271"
       fx="62.71241"
       fy="108.02493"
       id="radialGradient2876"
       xlink:href="#linearGradient5060"
       gradientUnits="userSpaceOnUse"
       gradientTransform="matrix(0.22896899,0,0,0.06420189,2.4439466,21.99308)" />
  </defs>
  <path
     d="m 27.652318,28.928494 a 10.849173,3.0420653 0 0 1 -21.6983451,0 10.849173,3.0420653 0 1 1 21.6983451,0 z"
     id="path12941"
     style="fill:url(#radialGradient2876);fill-opacity:1;fill-rule:evenodd;stroke:none;stroke-width:1.05496335;marker:none;visibility:visible;display:inline;overflow:visible" />
  <path
     d="m 25.630716,28.153985 a 9.0810665,2.1358848 0 0 1 -18.1621309,0 9.0810665,2.1358848 0 1 1 18.1621309,0 z"
     id="path5870"
     style="fill:#d9dcd5;fill-opacity:1;fill-rule:evenodd;stroke:#838383;stroke-width:0.40000001;stroke-linecap:round;stroke-linejoin:round;stroke-miterlimit:4;stroke-opacity:1;stroke-dasharray:none;stroke-dashoffset:0;marker:none;visibility:visible;display:inline;overflow:visible" />
  <path
     d="m 27.132019,5.0319269 a 9.9997936,2.0391705 0 0 1 -19.9995855,0 9.9997936,2.0391705 0 1 1 19.9995855,0 z"
     id="path18342"
     style="opacity:0.77272728;fill:#585858;fill-opacity:0.51308899;fill-rule:evenodd;stroke:#636363;stroke-width:0.24846169;stroke-linecap:round;stroke-linejoin:round;stroke-miterlimit:4;stroke-opacity:1;stroke-dasharray:none;stroke-dashoffset:0;marker:none;visibility:visible;display:inline;overflow:visible" />
  <path
     d="m 25.630716,28.153985 a 9.0810665,2.1358848 0 0 1 -18.1621309,0 9.0810665,2.1358848 0 1 1 18.1621309,0 z"
     id="path3037"
     style="opacity:0.5;fill:url(#linearGradient2871);fill-opacity:1;fill-rule:evenodd;stroke:none;stroke-width:0.40000001;marker:none;visibility:visible;display:inline;overflow:visible" />
  <path
     d="m 5.3184079,5.7847986 c -0.023442,-0.03031 2.0565286,21.8042454 2.0567977,21.8108594 0.088592,2.180559 3.9468674,2.572952 9.2728054,2.74425 6.507878,-0.06746 8.949606,-1.165954 9.041822,-2.682254 0.0074,-0.0299 2.08688,-21.842959 2.094275,-21.8728554 1.229106,-4.82755333 -8.560703,-4.4727008 -11.98934,-4.4727008 -3.681389,0 -11.8612817,-0.1134755 -10.4763601,4.4727008 z"
     id="path1751"
     style="fill:url(#linearGradient2866);fill-opacity:1;fill-rule:evenodd;stroke:url(#linearGradient2868);stroke-width:0.40000001;stroke-linecap:round;stroke-linejoin:round;stroke-miterlimit:4;stroke-opacity:1;stroke-dasharray:none" />
  <path
     d="m 6.1088718,5.2432347 c 0,0 8.3041112,-2.590341 20.4968412,-0.38124 C 31.254742,1.3784129 15.641029,1.123516 15.641029,1.123516 c 0,0 -13.3917265,0.7211017 -9.5321572,4.1197187 z"
     id="path18338"
     style="fill:#d9dcd5;fill-opacity:1;fill-rule:evenodd;stroke:none" />
  <path
     d="m 6.1088718,5.2432347 c 0,0 8.3041112,-2.590341 20.4968412,-0.38124 C 31.254742,1.3784129 15.641029,1.123516 15.641029,1.123516 c 0,0 -13.3917265,0.7211017 -9.5321572,4.1197187 z"
     id="path13701"
     style="fill:url(#linearGradient2862);fill-opacity:1;fill-rule:evenodd;stroke:#636363;stroke-width:0.24846171;stroke-linecap:round;stroke-linejoin:round;stroke-miterlimit:4;stroke-opacity:1;stroke-dasharray:none" />
  <path
     d="m 25.092512,2.2545995 c 0.01218,0.00317 0.02591,0.00604 0.0381,0.00922 0.05446,0.014422 0.107453,0.0311 0.161903,0.046125 0.01307,0.00358 0.02503,0.00556 0.0381,0.00922 0.03168,0.00883 0.06365,0.018599 0.09523,0.027672 0.0093,0.00267 0.01932,0.00657 0.02857,0.00922 0.0062,0.00171 0.01299,-0.00179 0.01905,0 0.01669,0.00484 0.031,0.013534 0.04762,0.018446 0.01949,0.00578 0.03772,0.012553 0.05714,0.018446 0.01348,0.00405 0.02468,0.00511 0.0381,0.00922 0.0312,0.0096 0.06431,0.017784 0.09523,0.027671 0.0082,0.00258 0.0204,0.00663 0.02857,0.00922 0.02598,0.00842 0.05045,0.019043 0.0762,0.027671 0.0092,0.00304 0.01939,0.0061 0.02857,0.00922 0.06083,0.020722 0.121899,0.042466 0.180952,0.064575 0.01563,0.00585 0.03213,0.012535 0.04762,0.018446 0.01815,0.00697 0.02967,0.011332 0.04762,0.018446 0.037,0.014675 0.07827,0.030803 0.114286,0.046126 0.01215,0.00511 0.02606,0.013256 0.0381,0.018446 0.0027,0.0012 0.0068,-0.0012 0.0096,0 0.01804,0.00795 0.03939,0.01955 0.05714,0.027672 0.0096,0.00438 0.01911,0.00478 0.02858,0.00922 0.0034,0.00165 0.0062,0.00759 0.0096,0.00922 0.03406,0.016072 0.07193,0.029337 0.104764,0.046124 0.0087,0.00444 0.01993,0.013933 0.02858,0.018446 0.01104,0.00578 0.02719,0.0126 0.0381,0.018446 0.0064,0.00345 0.0128,0.00578 0.01905,0.00922 0.0068,0.00366 0.01247,0.00557 0.01905,0.00922 0.0064,0.00352 0.0033,0.0057 0.0096,0.00922 0.0064,0.00351 0.01288,0.0057 0.01906,0.00922 0.0062,0.00352 0.013,0.00564 0.01905,0.00922 0.0031,0.00186 0.0065,0.00738 0.0096,0.00922 0.01503,0.00896 0.03295,0.018507 0.04762,0.027671 0.0064,0.00385 0.0129,0.00529 0.01905,0.00922 0.0081,0.00517 0.01104,0.013208 0.01906,0.018446 0.0092,0.00597 0.01959,0.012375 0.02857,0.018446 0.03094,0.020828 0.06633,0.042718 0.09524,0.064573 0.0025,0.002 0.007,0.00722 0.0096,0.00922 0.02916,0.0223 0.05882,0.041154 0.08572,0.064575 0.0019,0.00165 -0.0019,0.00753 0,0.00922 0.0082,0.00724 0.02058,0.011108 0.02857,0.018446 0.0047,0.00432 0.005,0.014125 0.0096,0.018446 0.0064,0.00597 0.01291,0.01244 0.01905,0.018447 0.0022,0.00219 0.0073,-0.00219 0.0096,0 0.0023,0.00225 0.0073,0.00695 0.0096,0.00922 0.0062,0.00618 0.01311,0.012183 0.01905,0.018446 0.0014,0.00151 -0.0014,0.00768 0,0.00922 0.0024,0.00273 0.0071,0.0065 0.0096,0.00922 0.0287,0.030955 0.05157,0.059395 0.07618,0.09225 0.0051,0.00668 0.0142,0.011679 0.01905,0.018446 0.0014,0.00206 -0.0014,0.00715 0,0.00922 0.002,0.00291 0.0075,0.0063 0.0096,0.00922 0.0059,0.0084 0.01356,0.01915 0.01905,0.027672 0.0022,0.00438 0.0074,0.00484 0.0096,0.00922 0.0043,0.00874 0.0059,0.018951 0.0096,0.027671 0.0093,0.022249 0.01321,0.041923 0.01905,0.064575 0.0036,0.013162 0.0072,0.032805 0.0096,0.046125 7.27e-4,0.00458 -5.85e-4,0.00464 0,0.00922 9.94e-4,0.00666 0.0088,0.011719 0.0096,0.018446 9.24e-4,0.011446 1.4e-5,0.025436 0,0.036904 -7.23e-4,0.00736 9.95e-4,0.020383 0,0.027671 -7.23e-4,0.00484 -0.0086,0.013639 -0.0096,0.018446 -0.0012,0.00722 0.0014,0.011313 0,0.018446 -0.0068,0.033429 -0.01623,0.060419 -0.02857,0.09225 -0.0017,0.00458 0.0018,0.00473 0,0.00922 -0.0028,0.00725 -0.0064,0.011275 -0.0096,0.018446 -0.0029,0.00671 -0.0064,0.011799 -0.0096,0.018446 -0.0042,0.0089 -0.005,0.00967 -0.0096,0.018446 -0.0023,0.00438 -0.0072,0.014092 -0.0096,0.018447 -0.0062,0.010896 -0.01241,0.0262 -0.01905,0.036904 -0.0013,0.00212 -0.0082,-0.00212 -0.0096,0 -0.0026,0.00425 0.0028,0.00498 0,0.00922 -0.01401,0.021164 -0.03122,0.044157 -0.04762,0.064573 -0.0032,0.00413 -0.0063,0.00517 -0.0096,0.00922 -0.0033,0.00405 -0.0062,0.014422 -0.0096,0.018447 -0.0277,0.032216 -0.0621,0.061863 -0.09523,0.09225 -0.0042,0.00378 -0.0055,0.00544 -0.0096,0.00922 -0.0068,0.00604 -0.02161,0.012486 -0.02858,0.018446 -0.0043,0.00372 -0.0052,0.014759 -0.0096,0.018446 -0.01604,0.013275 -0.04013,0.023971 -0.05714,0.036903 -0.0028,0.00212 -0.0068,0.00708 -0.0096,0.00922 -0.02964,0.022136 -0.06303,0.04344 -0.09523,0.064574 -0.0073,0.00478 -0.01166,0.013727 -0.01905,0.018446 -0.01327,0.0084 -0.03396,0.019436 -0.04762,0.027671 -0.111445,0.067287 -0.240764,0.1267924 -0.37143,0.1844997 -0.02569,0.011258 -0.04999,0.025977 -0.07619,0.036901 -0.02922,0.012257 -0.05596,0.02505 -0.08572,0.0369 -0.02663,0.010606 -0.04922,0.01738 -0.0762,0.027677 -0.0135,0.00515 -0.03406,0.013378 -0.04762,0.018448 -0.0025,9.721e-4 -0.0069,-9.719e-4 -0.0096,0 -0.02443,0.0091 -0.04206,0.018814 -0.06666,0.027675 -0.04102,0.014758 -0.08248,0.032005 -0.123809,0.046125 -0.0689,0.023546 -0.140707,0.042667 -0.209524,0.064574 -0.04128,0.013147 -0.08288,0.024295 -0.123808,0.036898 -0.03139,0.00966 -0.0642,0.027532 -0.09524,0.036899 -0.04989,0.015056 -0.09425,0.022563 -0.142856,0.036901 -0.02298,0.00603 -0.05315,0.012501 -0.07621,0.018447 -0.03702,0.00957 -0.06762,0.018309 -0.10476,0.027673 -0.02308,0.00583 -0.05305,0.012707 -0.0762,0.018449 -0.03723,0.00923 -0.06744,0.018638 -0.104763,0.027675 -0.04035,0.00977 -0.08333,0.018138 -0.123809,0.027677 -0.121453,0.028608 -0.239353,0.056467 -0.361903,0.083025 -0.04086,0.00884 -0.08284,0.019042 -0.123811,0.027677 -0.06452,0.013593 -0.135195,0.023848 -0.2,0.036898 -0.03229,0.00651 -0.06287,0.021302 -0.09523,0.027675 -0.003,6.099e-4 -0.0065,-6.077e-4 -0.0096,0 -0.126606,0.024878 -0.253359,0.041668 -0.380951,0.064575 -0.04156,0.00745 -0.08215,0.020416 -0.123811,0.027674 -0.08333,0.014518 -0.163915,0.023184 -0.247617,0.036899 -0.06277,0.010289 -0.127499,0.027049 -0.190476,0.036901 -0.125962,0.019703 -0.25423,0.037336 -0.380952,0.05535 -0.04223,0.00604 -0.08149,0.0126 -0.123811,0.018449 -0.08462,0.011646 -0.172202,0.016742 -0.25714,0.027677 -0.04247,0.0055 -0.08127,0.013125 -0.123811,0.018448 -0.04574,0.00569 -0.09704,0.012959 -0.142858,0.018448 -0.07597,0.00909 -0.152394,0.019098 -0.228571,0.027676 -0.0032,3.632e-4 -0.0064,-3.625e-4 -0.0096,0 -0.344911,0.038736 -0.689851,0.072681 -1.038093,0.1014747 -0.0863,0.0072 -0.170688,0.011805 -0.257144,0.018448 -0.302553,0.023039 -0.610475,0.047692 -0.914283,0.064575 -0.08374,0.0047 -0.173366,0.00497 -0.257144,0.00922 -0.04343,0.00219 -0.0899,0.00715 -0.133333,0.00922 -0.08381,0.00404 -0.173327,0.00558 -0.257143,0.00922 -0.347588,0.014948 -0.691012,0.027724 -1.038094,0.036901 -0.08678,0.00231 -0.170455,0.00722 -0.257142,0.00922 -0.176453,0.00408 -0.347839,0.00628 -0.52381,0.00922 -0.09044,3.677e-4 -0.185627,-6.63e-5 -0.276188,0 -0.003,1.9e-6 -0.0065,-9e-7 -0.0096,0 -0.04372,2.72e-5 -0.08958,4.64e-5 -0.133334,0 -0.003,-3.8e-6 -0.0065,4.6e-6 -0.0096,0 -0.184376,-2.167e-4 -0.367647,0.00162 -0.552381,0 -0.003,-2.85e-5 -0.0065,2.96e-5 -0.0096,0 -0.09082,-8.486e-4 -0.185299,-0.00801 -0.276188,-0.00922 -0.09401,-0.00123 -0.191673,0.00165 -0.285716,0 -0.09408,-0.00169 -0.182091,-0.0071 -0.276189,-0.00922 -0.0031,-7.19e-5 -0.0065,7.14e-5 -0.0096,0 -0.04703,-0.00103 -0.08631,0.00116 -0.133333,0 -0.09411,-0.00236 -0.191613,-0.00638 -0.285713,-0.00922 -0.09411,-0.00286 -0.182114,-0.00589 -0.276191,-0.00922 -0.0031,-1.11e-4 -0.0065,1.118e-4 -0.0096,0 -0.09094,-0.00322 -0.185294,-0.0055 -0.276191,-0.00922 -0.137858,-0.00557 -0.281344,-0.01173 -0.419047,-0.018448 -0.003,-1.547e-4 -0.0065,1.551e-4 -0.0096,0 -0.37239,-0.018246 -0.7439,-0.046156 -1.114285,-0.0738 -0.003,-2.349e-4 -0.0065,2.345e-4 -0.0096,0 -0.277038,-0.020741 -0.553275,-0.047147 -0.828573,-0.073802 -0.003,-3.013e-4 -0.0067,3.013e-4 -0.0096,0 -0.185183,-0.017969 -0.367468,-0.034396 -0.552019,-0.055306 -0.04618,-0.00526 -0.08723,-0.013004 -0.13333,-0.018447 -0.06913,-0.00817 -0.140603,-0.00994 -0.209548,-0.018492 -0.20683,-0.025662 -0.413816,-0.05333 -0.619048,-0.083024 -0.06841,-0.0099 -0.141306,-0.026536 -0.209523,-0.036899 -0.09095,-0.013818 -0.1760734,-0.022234 -0.2666655,-0.036901 -0.045294,-0.00739 -0.088133,-0.020176 -0.1333336,-0.027725 -0.025386,-0.00424 -0.050842,-0.00492 -0.07619,-0.00922 -0.02258,-0.00385 -0.044107,-0.00533 -0.066667,-0.00922 -0.045103,-0.00776 -0.088331,-0.019685 -0.1333334,-0.027674 -0.022503,-0.004 -0.044191,-0.00518 -0.066667,-0.00922 -0.044951,-0.00811 -0.088482,-0.01935 -0.1333334,-0.027673 -0.022423,-0.00417 -0.044266,-0.00501 -0.066668,-0.00922 -0.045122,-0.0082 -0.088967,-0.01878 -0.133657,-0.027448 C 8.9134914,4.996615 8.7358673,4.9590248 8.55892,4.9205849 8.514681,4.9109754 8.469703,4.9027617 8.4255866,4.8929105 c -0.044119,-0.00986 -0.089338,-0.017579 -0.1333328,-0.027674 -0.022,-0.00504 -0.0447,-0.013339 -0.066667,-0.018449 -0.058343,-0.015624 -0.1211029,-0.029936 -0.1809529,-0.046134 -0.029924,-0.00809 -0.055518,-0.019407 -0.085715,-0.027675 -0.060393,-0.016538 -0.1198838,-0.028806 -0.1809522,-0.046126 -0.030536,-0.00865 -0.064635,-0.018795 -0.095238,-0.027674 -0.030596,-0.00889 -0.055123,-0.018557 -0.085713,-0.027677 -0.030592,-0.00911 -0.064722,-0.018304 -0.095237,-0.027675 -0.030492,-0.00937 -0.064839,-0.01803 -0.095211,-0.027674 -0.045592,-0.01452 -0.088335,-0.03107 -0.133368,-0.046182 -0.030023,-0.010076 -0.056011,-0.017287 -0.085713,-0.027674 -0.014852,-0.00519 -0.03286,-0.013175 -0.04762,-0.018451 -0.029232,-0.010535 -0.056336,-0.016774 -0.08543,-0.027659 C 6.9962511,4.474409 6.9390814,4.4456042 6.8830089,4.4223821 6.7848817,4.3817444 6.6866008,4.3388605 6.5972949,4.2932322 6.561573,4.2749831 6.5265087,4.2570125 6.492533,4.2378829 c -0.00241,-0.00139 -0.00712,0.00139 -0.00952,0 C 6.463371,4.2267405 6.454392,4.2124338 6.435394,4.20098 6.429534,4.1974685 6.422136,4.19528 6.416346,4.1917585 6.352563,4.1527587 6.2907637,4.1146173 6.2353922,4.0718312 c -0.00504,-0.00392 -0.00458,-0.00529 -0.00952,-0.00922 -0.00694,-0.0055 -0.01226,-0.012892 -0.019048,-0.018446 -0.00487,-0.00399 -0.00472,-0.00523 -0.00952,-0.00922 -0.040335,-0.033503 -0.079821,-0.065517 -0.1142808,-0.1014692 -0.00412,-0.00425 -0.00548,-0.00492 -0.00952,-0.00922 -0.00709,-0.00752 -0.012236,-0.020039 -0.019048,-0.027671 -0.00154,-0.00171 -0.00798,0.00171 -0.00952,0 -0.017029,-0.019243 -0.022869,-0.035389 -0.038095,-0.05535 -0.0035,-0.00451 -0.00612,-0.00464 -0.00952,-0.00922 -0.01157,-0.015497 -0.018135,-0.030186 -0.028573,-0.046126 -0.00311,-0.00464 -0.00653,-0.00451 -0.00952,-0.00922 -0.012039,-0.018845 -0.027699,-0.035875 -0.038095,-0.055351 -0.00258,-0.00484 -0.00703,-0.013541 -0.00952,-0.018446 -0.00873,-0.017182 -0.011642,-0.037673 -0.019047,-0.05535 -0.00318,-0.00758 -0.00661,-0.010783 -0.00952,-0.018446 -0.00135,-0.00712 0.00105,-0.020621 0,-0.027671 -0.00105,-0.00705 -0.00877,-0.01146 -0.00952,-0.018446 -9.945e-4,-0.00931 4.746e-4,-0.018453 0,-0.027677 -2.384e-4,-0.00464 1.108e-4,-0.00464 0,-0.00922 -1.077e-4,-0.00458 -1.95e-5,-0.013886 0,-0.018446 1.81e-5,-0.00458 -1.431e-4,-0.00473 0,-0.00922 2.932e-4,-0.00908 -7.914e-4,-0.018701 0,-0.027671 3.926e-4,-0.00451 -5.147e-4,-0.00478 0,-0.00922 7.785e-4,-0.00668 0.00847,-0.011816 0.00952,-0.018446 0.00105,-0.00664 -0.00132,-0.021094 0,-0.027672 8.774e-4,-0.00438 -9.856e-4,-0.00484 0,-0.00922 9.945e-4,-0.00438 0.00841,-0.014111 0.00952,-0.018446 0.00111,-0.00438 -0.00122,-0.00492 0,-0.00922 0.00123,-0.00432 -0.00135,-0.00492 0,-0.00922 0.00535,-0.017175 0.011933,-0.038561 0.019047,-0.055352 0.00179,-0.00419 0.00763,-0.00504 0.00952,-0.00922 0.00285,-0.00624 0.00644,-0.012256 0.00952,-0.018446 0.00308,-0.00618 0.00621,-0.012307 0.00952,-0.018447 0.00332,-0.00618 0.00599,-0.012361 0.00952,-0.018446 0.00119,-0.00206 -0.00121,-0.00721 0,-0.00922 0.00479,-0.00812 0.013844,-0.019661 0.019048,-0.027672 0.00782,-0.012003 0.010349,-0.015888 0.019049,-0.027672 0.00291,-0.00392 0.00654,-0.014543 0.00952,-0.018446 0.00299,-0.00392 0.00644,-0.0053 0.00952,-0.00922 0.00309,-0.00392 0.00635,-0.00537 0.00952,-0.00922 0.00634,-0.00774 0.012358,-0.020032 0.019048,-0.027672 0.0047,-0.0053 0.014179,-0.00392 0.019049,-0.00922 0.00686,-0.00759 0.011842,-0.010949 0.019048,-0.018446 0.00362,-0.00372 0.00583,-0.014734 0.00952,-0.018446 0.00739,-0.00744 0.01135,-0.011088 0.019048,-0.018446 0.00386,-0.00365 0.00557,-0.00557 0.00952,-0.00922 0.00785,-0.00731 0.020402,-0.02045 0.028573,-0.027672 0.0041,-0.00358 0.00535,-0.00564 0.00952,-0.00922 0.012479,-0.010769 0.024956,-0.017108 0.038095,-0.027671 0.0044,-0.00351 0.014586,-0.00578 0.01905,-0.00922 0.0178,-0.013997 0.028736,-0.032487 0.047619,-0.046126 0.014198,-0.010205 0.032853,-0.017671 0.047618,-0.027671 0.014732,-0.010027 0.032353,-0.017843 0.04762,-0.027672 0.010205,-0.00657 0.018144,-0.012004 0.028573,-0.018446 0.053556,-0.033488 0.1031267,-0.070303 0.1619044,-0.1014754 0.045505,-0.024131 0.09496,-0.041803 0.1428571,-0.064573 0.035922,-0.017081 0.067813,-0.03902 0.1047617,-0.055351 0.024631,-0.010887 0.051202,-0.017121 0.07619,-0.027671 0.012495,-0.00529 0.025528,-0.013257 0.038096,-0.018446 0.025135,-0.010392 0.050822,-0.017605 0.07619,-0.027671 0.012683,-0.00504 0.025368,-0.013494 0.038095,-0.018446 0.025458,-0.00991 0.050621,-0.018089 0.07619,-0.027672 0.025572,-0.00958 0.050591,-0.018408 0.076191,-0.027671 0.025603,-0.00927 0.050637,-0.01872 0.07619,-0.027672 0.025555,-0.00895 0.050767,-0.01903 0.07619,-0.027672 0.012721,-0.00432 0.025421,-0.00498 0.038097,-0.00922 0.02533,-0.00849 0.051108,-0.019496 0.07619,-0.027672 0.037621,-0.012273 0.077453,-0.025312 0.114285,-0.036904 0.013874,-0.00405 0.024244,-0.00523 0.038096,-0.00922 0.041552,-0.01187 0.082242,-0.025432 0.1238097,-0.036903 0.00278,-7.293e-4 0.00675,7.96e-4 0.00952,0 0.05267,-0.014508 0.1085718,-0.031875 0.1619054,-0.046126 C 5.94524,2.5086723 4.7592019,2.8856012 4.7592019,3.5554223 c 2e-7,0.1304402 0,2.1850335 0,2.3154749 2e-7,1.414954 5.2807601,2.5645492 11.7904611,2.5645492 6.509704,0 11.790464,-1.1495952 11.790464,-2.5645492 0,-0.1304414 0,-2.1850339 0,-2.3154749 0,-0.6843042 -1.235952,-1.0705951 -3.247612,-1.3007244 z"
     id="path18314"
     style="fill:#ffffff;fill-opacity:1;fill-rule:evenodd;stroke:#808389;stroke-width:0.12399726;stroke-linecap:round;stroke-linejoin:round;stroke-miterlimit:4;stroke-opacity:1;stroke-dasharray:none;stroke-dashoffset:0;marker:none;visibility:visible;display:inline;overflow:visible" />
  <path
     d="m 25.092512,2.2545995 c 0.01218,0.00317 0.02591,0.00604 0.0381,0.00922 0.05446,0.014422 0.107453,0.0311 0.161903,0.046125 0.01307,0.00358 0.02503,0.00556 0.0381,0.00922 0.03168,0.00883 0.06365,0.018599 0.09523,0.027672 0.0093,0.00267 0.01932,0.00657 0.02857,0.00922 0.0062,0.00171 0.01299,-0.00179 0.01905,0 0.01669,0.00484 0.031,0.013534 0.04762,0.018446 0.01949,0.00578 0.03772,0.012553 0.05714,0.018446 0.01348,0.00405 0.02468,0.00511 0.0381,0.00922 0.0312,0.0096 0.06431,0.017784 0.09523,0.027671 0.0082,0.00258 0.0204,0.00663 0.02857,0.00922 0.02598,0.00842 0.05045,0.019043 0.0762,0.027671 0.0092,0.00304 0.01939,0.0061 0.02857,0.00922 0.06083,0.020722 0.121899,0.042466 0.180952,0.064575 0.01563,0.00585 0.03213,0.012535 0.04762,0.018446 0.01815,0.00697 0.02967,0.011332 0.04762,0.018446 0.037,0.014675 0.07827,0.030803 0.114286,0.046126 0.01215,0.00511 0.02606,0.013256 0.0381,0.018446 0.0027,0.0012 0.0068,-0.0012 0.0096,0 0.01804,0.00795 0.03939,0.01955 0.05714,0.027672 0.0096,0.00438 0.01911,0.00478 0.02858,0.00922 0.0034,0.00165 0.0062,0.00759 0.0096,0.00922 0.03406,0.016072 0.07193,0.029337 0.104764,0.046124 0.0087,0.00444 0.01993,0.013933 0.02858,0.018446 0.01104,0.00578 0.02719,0.0126 0.0381,0.018446 0.0064,0.00345 0.0128,0.00578 0.01905,0.00922 0.0068,0.00366 0.01247,0.00557 0.01905,0.00922 0.0064,0.00352 0.0033,0.0057 0.0096,0.00922 0.0064,0.00351 0.01288,0.0057 0.01906,0.00922 0.0062,0.00352 0.013,0.00564 0.01905,0.00922 0.0031,0.00186 0.0065,0.00738 0.0096,0.00922 0.01503,0.00896 0.03295,0.018507 0.04762,0.027671 0.0064,0.00385 0.0129,0.00529 0.01905,0.00922 0.0081,0.00517 0.01104,0.013208 0.01906,0.018446 0.0092,0.00597 0.01959,0.012375 0.02857,0.018446 0.03094,0.020828 0.06633,0.042718 0.09524,0.064573 0.0025,0.002 0.007,0.00722 0.0096,0.00922 0.02916,0.0223 0.05882,0.041154 0.08572,0.064575 0.0019,0.00165 -0.0019,0.00753 0,0.00922 0.0082,0.00724 0.02058,0.011108 0.02857,0.018446 0.0047,0.00432 0.005,0.014125 0.0096,0.018446 0.0064,0.00597 0.01291,0.01244 0.01905,0.018447 0.0022,0.00219 0.0073,-0.00219 0.0096,0 0.0023,0.00225 0.0073,0.00695 0.0096,0.00922 0.0062,0.00618 0.01311,0.012183 0.01905,0.018446 0.0014,0.00151 -0.0014,0.00768 0,0.00922 0.0024,0.00273 0.0071,0.0065 0.0096,0.00922 0.0287,0.030955 0.05157,0.059395 0.07618,0.09225 0.0051,0.00668 0.0142,0.011679 0.01905,0.018446 0.0014,0.00206 -0.0014,0.00715 0,0.00922 0.002,0.00291 0.0075,0.0063 0.0096,0.00922 0.0059,0.0084 0.01356,0.01915 0.01905,0.027672 0.0022,0.00438 0.0074,0.00484 0.0096,0.00922 0.0043,0.00874 0.0059,0.018951 0.0096,0.027671 0.0093,0.022249 0.01321,0.041923 0.01905,0.064575 0.0036,0.013162 0.0072,0.032805 0.0096,0.046125 7.27e-4,0.00458 -5.85e-4,0.00464 0,0.00922 9.94e-4,0.00666 0.0088,0.011719 0.0096,0.018446 9.24e-4,0.011446 1.4e-5,0.025436 0,0.036904 -7.23e-4,0.00736 9.95e-4,0.020383 0,0.027671 -7.23e-4,0.00484 -0.0086,0.013639 -0.0096,0.018446 -0.0012,0.00722 0.0014,0.011313 0,0.018446 -0.0068,0.033429 -0.01623,0.060419 -0.02857,0.09225 -0.0017,0.00458 0.0018,0.00473 0,0.00922 -0.0028,0.00725 -0.0064,0.011275 -0.0096,0.018446 -0.0029,0.00671 -0.0064,0.011799 -0.0096,0.018446 -0.0042,0.0089 -0.005,0.00967 -0.0096,0.018446 -0.0023,0.00438 -0.0072,0.014092 -0.0096,0.018447 -0.0062,0.010896 -0.01241,0.0262 -0.01905,0.036904 -0.0013,0.00212 -0.0082,-0.00212 -0.0096,0 -0.0026,0.00425 0.0028,0.00498 0,0.00922 -0.01401,0.021164 -0.03122,0.044157 -0.04762,0.064573 -0.0032,0.00413 -0.0063,0.00517 -0.0096,0.00922 -0.0033,0.00405 -0.0062,0.014422 -0.0096,0.018447 -0.0277,0.032216 -0.0621,0.061863 -0.09523,0.09225 -0.0042,0.00378 -0.0055,0.00544 -0.0096,0.00922 -0.0068,0.00604 -0.02161,0.012486 -0.02858,0.018446 -0.0043,0.00372 -0.0052,0.014759 -0.0096,0.018446 -0.01604,0.013275 -0.04013,0.023971 -0.05714,0.036903 -0.0028,0.00212 -0.0068,0.00708 -0.0096,0.00922 -0.02964,0.022136 -0.06303,0.04344 -0.09523,0.064574 -0.0073,0.00478 -0.01166,0.013727 -0.01905,0.018446 -0.01327,0.0084 -0.03396,0.019436 -0.04762,0.027671 -0.111445,0.067287 -0.240764,0.1267929 -0.37143,0.1845 -0.02569,0.011257 -0.04999,0.025974 -0.07619,0.0369 -0.02922,0.012258 -0.05596,0.02505 -0.08572,0.0369 -0.02663,0.010606 -0.04922,0.01738 -0.0762,0.027674 -0.0135,0.00515 -0.03406,0.013378 -0.04762,0.018448 -0.0025,9.721e-4 -0.0069,-9.72e-4 -0.0096,0 -0.02443,0.0091 -0.04206,0.018814 -0.06666,0.027674 -0.04102,0.014758 -0.08248,0.032005 -0.123809,0.046123 -0.0689,0.023547 -0.140707,0.042667 -0.209524,0.064573 -0.04128,0.013147 -0.08288,0.024295 -0.123808,0.036899 -0.03139,0.00966 -0.0642,0.027531 -0.09524,0.0369 -0.04989,0.015057 -0.09425,0.022564 -0.142856,0.036902 -0.02298,0.00603 -0.05315,0.012501 -0.07621,0.018448 -0.03702,0.00957 -0.06762,0.018309 -0.10476,0.027674 -0.02308,0.00583 -0.05305,0.012707 -0.0762,0.018447 -0.03723,0.00923 -0.06744,0.018639 -0.104763,0.027674 -0.04035,0.00977 -0.08333,0.018138 -0.123809,0.027674 -0.121453,0.028608 -0.239353,0.056466 -0.361903,0.083024 -0.04086,0.00884 -0.08284,0.019042 -0.123811,0.027677 -0.06452,0.013592 -0.135195,0.023849 -0.2,0.036898 -0.03229,0.00651 -0.06287,0.021303 -0.09523,0.027675 -0.003,6.098e-4 -0.0065,-6.077e-4 -0.0096,0 -0.126606,0.024879 -0.253359,0.041668 -0.380951,0.064575 -0.04156,0.00745 -0.08215,0.020416 -0.123811,0.027674 -0.08333,0.014517 -0.163915,0.023183 -0.247617,0.036899 -0.06277,0.010289 -0.127499,0.027048 -0.190476,0.036901 -0.125962,0.019702 -0.25423,0.037337 -0.380952,0.05535 -0.04223,0.00604 -0.08149,0.0126 -0.123811,0.018448 -0.08462,0.011645 -0.172202,0.016742 -0.25714,0.027675 -0.04247,0.00549 -0.08127,0.013127 -0.123811,0.018447 -0.04574,0.00569 -0.09704,0.012958 -0.142858,0.018448 -0.07597,0.0091 -0.152394,0.019097 -0.228571,0.027677 -0.0032,3.631e-4 -0.0064,-3.626e-4 -0.0096,0 -0.344911,0.038736 -0.689851,0.07268 -1.038093,0.1014745 -0.0863,0.0072 -0.170688,0.011805 -0.257144,0.018448 -0.302553,0.023039 -0.610475,0.047692 -0.914283,0.064575 -0.08374,0.0047 -0.173366,0.00497 -0.257144,0.00922 -0.04343,0.00219 -0.0899,0.00715 -0.133333,0.00922 -0.08381,0.00404 -0.173327,0.00558 -0.257143,0.00922 -0.347588,0.014948 -0.691012,0.027723 -1.038094,0.036899 -0.08678,0.00231 -0.170455,0.00722 -0.257142,0.00922 -0.176453,0.00408 -0.347839,0.00628 -0.52381,0.00922 -0.09044,3.675e-4 -0.185627,-6.67e-5 -0.276188,0 -0.003,2.2e-6 -0.0065,-9e-7 -0.0096,0 -0.04372,2.7e-5 -0.08958,4.63e-5 -0.133334,0 -0.003,-3.8e-6 -0.0065,4.5e-6 -0.0096,0 -0.184376,-2.169e-4 -0.367647,0.00162 -0.552381,0 -0.003,-2.9e-5 -0.0065,2.95e-5 -0.0096,0 -0.09082,-8.486e-4 -0.185299,-0.00801 -0.276188,-0.00922 -0.09401,-0.00123 -0.191673,0.00165 -0.285716,0 -0.09408,-0.00169 -0.182091,-0.0071 -0.276189,-0.00922 -0.0031,-7.17e-5 -0.0065,7.17e-5 -0.0096,0 -0.04703,-0.00103 -0.08631,0.00116 -0.133333,0 -0.09411,-0.00236 -0.191613,-0.00639 -0.285713,-0.00922 -0.09411,-0.00285 -0.182114,-0.00589 -0.276191,-0.00922 -0.0031,-1.11e-4 -0.0065,1.117e-4 -0.0096,0 -0.09094,-0.00322 -0.185294,-0.0055 -0.276191,-0.00922 -0.137858,-0.00557 -0.281344,-0.011729 -0.419047,-0.018448 -0.003,-1.547e-4 -0.0065,1.55e-4 -0.0096,0 -0.37239,-0.018247 -0.7439,-0.046157 -1.114285,-0.073799 -0.003,-2.345e-4 -0.0065,2.349e-4 -0.0096,0 -0.277038,-0.02074 -0.553275,-0.047146 -0.828573,-0.073802 -0.003,-3.014e-4 -0.0067,3.013e-4 -0.0096,0 C 11.706778,5.409738 11.524493,5.39331 11.339942,5.372399 11.293762,5.367139 11.252712,5.359397 11.206612,5.353952 11.137502,5.345832 11.066032,5.344052 10.997086,5.335504 10.790234,5.309802 10.583248,5.282131 10.378016,5.252438 10.309606,5.242538 10.23671,5.225902 10.168493,5.215537 10.077543,5.201719 9.9924196,5.193303 9.9018275,5.178638 9.8565335,5.171298 9.8136945,5.158516 9.7684939,5.150965 9.7431079,5.146725 9.7176519,5.146045 9.6923039,5.141745 9.6697239,5.137895 9.6481969,5.136425 9.6256369,5.132525 9.5805339,5.124765 9.5373059,5.112841 9.4923035,5.10485 9.4698005,5.10085 9.4481125,5.09967 9.4256365,5.09563 9.3806855,5.08752 9.3371545,5.07628 9.2923031,5.067956 9.2698801,5.063776 9.2480371,5.062946 9.2256351,5.058736 9.1815426,5.0504605 9.137698,5.039897 9.093008,5.0312287 8.913741,4.9965681 8.736117,4.9589767 8.5591698,4.9205371 c -0.044239,-0.00961 -0.089216,-0.017823 -0.1333335,-0.027674 -0.04412,-0.00986 -0.089338,-0.017578 -0.1333329,-0.027675 -0.022,-0.00504 -0.0447,-0.01334 -0.066667,-0.018449 -0.058344,-0.015623 -0.121103,-0.029935 -0.1809528,-0.046131 -0.029924,-0.00809 -0.055519,-0.019406 -0.085714,-0.027674 -0.060394,-0.016538 -0.1198839,-0.028806 -0.180952,-0.046125 -0.030536,-0.00865 -0.064635,-0.018795 -0.095239,-0.027673 -0.030596,-0.00888 -0.055121,-0.018558 -0.085713,-0.027676 -0.030592,-0.00911 -0.064722,-0.018304 -0.095239,-0.027673 -0.03049,-0.00937 -0.064841,-0.018031 -0.095211,-0.027672 -0.045558,-0.014458 -0.0883,-0.03101 -0.1333341,-0.046125 -0.030023,-0.010076 -0.05601,-0.017287 -0.085714,-0.027675 -0.014853,-0.00519 -0.032859,-0.013173 -0.047621,-0.018447 -0.029518,-0.01055 -0.05662,-0.016788 -0.085714,-0.027675 -0.058185,-0.021775 -0.1153553,-0.05058 -0.1714277,-0.073802 -0.098127,-0.040637 -0.1964082,-0.083521 -0.285714,-0.1291492 -0.035723,-0.018248 -0.070786,-0.036219 -0.1047619,-0.055349 -0.00241,-0.00139 -0.00712,0.00139 -0.00952,0 -0.019642,-0.011142 -0.028621,-0.025449 -0.047619,-0.036903 -0.00586,-0.00351 -0.013258,-0.0057 -0.019047,-0.00922 -0.063787,-0.039002 -0.1255845,-0.077144 -0.1809562,-0.1199279 -0.00504,-0.00392 -0.00458,-0.00529 -0.00952,-0.00922 -0.00694,-0.0055 -0.01226,-0.012892 -0.019048,-0.018446 -0.00487,-0.00399 -0.00472,-0.00523 -0.00952,-0.00922 C 6.1569577,4.001449 6.1174737,3.969433 6.083013,3.9334805 c -0.00412,-0.00425 -0.00548,-0.00492 -0.00952,-0.00922 -0.00709,-0.00752 -0.012236,-0.020039 -0.019048,-0.027671 -0.00154,-0.00171 -0.00798,0.00171 -0.00952,0 C 6.027896,3.877335 6.022057,3.861189 6.00683,3.841228 6.00333,3.8367217 6.00071,3.8365924 5.99731,3.8320065 5.98574,3.81651 5.979175,3.8018193 5.968738,3.7858801 5.965628,3.7812445 5.962208,3.7813738 5.959218,3.7766586 5.947179,3.7578138 5.931519,3.7407834 5.921123,3.7213088 5.918543,3.7164643 5.914093,3.707768 5.911603,3.7028628 5.902883,3.6856812 5.899961,3.66519 5.892555,3.647512 5.889375,3.639942 5.885945,3.636731 5.883035,3.629066 c -0.00135,-0.00712 0.00105,-0.020621 0,-0.027671 -0.00105,-0.00705 -0.00877,-0.01146 -0.00952,-0.018446 -9.944e-4,-0.00931 4.746e-4,-0.018454 0,-0.02767 -2.387e-4,-0.00464 1.103e-4,-0.00464 0,-0.00922 -1.077e-4,-0.00458 -1.98e-5,-0.013885 0,-0.018446 1.78e-5,-0.00458 -1.434e-4,-0.00473 0,-0.00922 2.93e-4,-0.00908 -7.916e-4,-0.018701 0,-0.027671 3.923e-4,-0.00451 -5.148e-4,-0.00478 0,-0.00922 7.785e-4,-0.00668 0.00847,-0.011816 0.00952,-0.018446 0.00105,-0.00663 -0.00132,-0.021093 0,-0.027671 8.776e-4,-0.00438 -9.855e-4,-0.00484 0,-0.00922 9.945e-4,-0.00438 0.00841,-0.014111 0.00952,-0.018446 0.00111,-0.00432 -0.00122,-0.00492 0,-0.00922 0.00123,-0.00432 -0.00135,-0.00492 0,-0.00922 0.00535,-0.017172 0.011933,-0.03856 0.019048,-0.05535 0.00179,-0.00419 0.00763,-0.00504 0.00952,-0.00922 0.00285,-0.00624 0.00644,-0.012255 0.00952,-0.018446 0.00308,-0.00624 0.00621,-0.012309 0.00952,-0.018447 0.00332,-0.00618 0.00599,-0.012362 0.00952,-0.018446 0.00119,-0.00206 -0.00121,-0.00721 0,-0.00922 C 5.954473,3.25203 5.963527,3.240489 5.96873,3.232478 5.97655,3.220475 5.979079,3.216589 5.98778,3.204806 5.99069,3.200886 5.99432,3.190263 5.9973,3.18636 6.00029,3.18244 6.00374,3.18099 6.00682,3.17714 6.00991,3.17322 6.01317,3.17177 6.01634,3.16792 6.02268,3.16018 6.028698,3.147888 6.035388,3.140248 c 0.0047,-0.00537 0.01418,-0.00392 0.019048,-0.00922 0.00686,-0.00759 0.011842,-0.010949 0.019048,-0.018447 0.00362,-0.00372 0.00583,-0.014727 0.00952,-0.018446 0.00738,-0.00744 0.01135,-0.011088 0.019048,-0.018446 0.00386,-0.00365 0.00557,-0.00557 0.00952,-0.00922 0.00785,-0.00732 0.020402,-0.02045 0.028573,-0.027672 0.0041,-0.00358 0.00535,-0.00564 0.00952,-0.00922 C 6.162144,3.018808 6.174622,3.01247 6.18776,3.001908 6.19216,2.998398 6.202346,2.996208 6.20681,2.992688 6.224611,2.97869 6.235546,2.960201 6.254428,2.946562 6.268626,2.936357 6.28728,2.928892 6.302047,2.918891 6.316779,2.908864 6.334399,2.901047 6.349666,2.891219 6.359871,2.884649 6.36781,2.879215 6.378239,2.872773 6.431794,2.839285 6.4813658,2.802472 6.5401433,2.7712986 c 0.045505,-0.024132 0.09496,-0.041802 0.1428572,-0.064573 0.035922,-0.01708 0.067813,-0.039018 0.1047617,-0.055351 0.024631,-0.01089 0.051201,-0.017122 0.07619,-0.027671 0.012495,-0.0053 0.025528,-0.013257 0.038096,-0.018446 0.025135,-0.010392 0.050822,-0.017605 0.07619,-0.027672 0.012684,-0.00504 0.025368,-0.013493 0.038095,-0.018446 0.025458,-0.00991 0.050621,-0.018089 0.07619,-0.027672 0.025572,-0.00958 0.05059,-0.018407 0.076191,-0.027671 0.025603,-0.00927 0.050637,-0.01872 0.07619,-0.027672 0.025554,-0.00895 0.050766,-0.01903 0.07619,-0.027672 0.012721,-0.00432 0.025421,-0.00498 0.038097,-0.00922 0.025329,-0.00849 0.051108,-0.019494 0.07619,-0.027672 0.037621,-0.012274 0.077453,-0.02531 0.1142851,-0.036904 0.013874,-0.00405 0.024244,-0.00523 0.038096,-0.00922 0.041552,-0.01187 0.08224,-0.025431 0.1238096,-0.036903 0.00278,-7.292e-4 0.00675,7.961e-4 0.00952,0 0.05266,-0.014625 0.1085621,-0.031995 0.1618957,-0.046245 -1.9377547,0.2263281 -3.123793,0.6032569 -3.123793,1.2730783 2e-7,0.13044 0,2.185033 0,2.3154746 2e-7,1.4149536 5.2807604,2.5645492 11.7904604,2.5645492 6.509705,0 11.790467,-1.1495956 11.790467,-2.5645492 0,-0.1304416 0,-2.1850338 0,-2.3154746 0,-0.6843047 -1.235951,-1.0705953 -3.247614,-1.3007246 z"
     id="path3959"
     style="fill:url(#linearGradient2858);fill-opacity:1;fill-rule:evenodd;stroke:#808389;stroke-width:0;stroke-linecap:round;stroke-linejoin:round;stroke-miterlimit:4;stroke-opacity:1;stroke-dasharray:none;stroke-dashoffset:0;marker:none;visibility:visible;display:inline;overflow:visible" />
  <path
     d="M 16.197281,1 C 15.812353,1.00213 15.428185,1.010412 15.044904,1.018447 12.175459,1.1210386 9.230137,1.3522853 6.6163397,2.1807978 5.7489061,2.4796541 4.6412974,2.9607604 4.7687225,3.6936973 5.0442686,4.4846153 6.328691,4.8676951 7.3591964,5.1696968 10.463201,5.960301 13.85411,6.1345652 17.159184,6.1198715 20.213136,6.0638026 23.345498,5.8608957 26.168697,5.0497718 27.097348,4.7499323 28.272312,4.3241714 28.340126,3.5645472 28.340245,3.4758733 28.322753,3.3817749 28.282986,3.297022 27.831387,2.5296235 26.547057,2.181025 25.46394,1.8855978 22.506873,1.1851735 19.331705,0.98292004 16.197283,1 z m -0.561903,0.4058998 c 3.031996,-0.04055 6.123882,0.1086024 8.990466,0.7287745 0.981121,0.2444256 2.143304,0.5366594 2.552378,1.1715752 0.03601,0.070123 0.05725,0.1388097 0.05714,0.2121753 -0.06142,0.6284823 -1.130226,0.9788485 -1.971427,1.2269245 C 22.706584,5.4164406 19.86841,5.5937837 17.102038,5.6401736 14.108198,5.6523308 11.037573,5.5009386 8.2258626,4.846824 7.2923958,4.5969597 6.1326056,4.283499 5.8830071,3.629124 5.7675808,3.0227211 6.7639225,2.621786 7.5496719,2.3745243 9.9173356,1.6890455 12.588525,1.5000046 15.18776,1.4151251 c 0.148794,-0.00286 0.298503,-0.00723 0.447618,-0.00922 z"
     id="path18219"
     style="fill:#d9dcd5;fill-opacity:1;fill-rule:evenodd;stroke:url(#linearGradient2855);stroke-width:0.12399726;stroke-linecap:round;stroke-linejoin:round;stroke-miterlimit:4;stroke-opacity:1;stroke-dasharray:none;stroke-dashoffset:0;marker:none;visibility:visible;display:inline;overflow:visible" />
  <path
     d="M 16.197282,1 C 15.812354,1.00212 15.428185,1.010412 15.044904,1.018448 12.17546,1.1210388 9.230137,1.3522854 6.6163399,2.180798 5.7489062,2.4796541 4.6412975,2.9607604 4.7687225,3.6936973 5.0442688,4.4846157 6.3286912,4.8676953 7.3591967,5.1696968 10.463201,5.9603011 13.854111,6.1345651 17.159185,6.1198717 20.213136,6.0638026 23.345499,5.8608959 26.168698,5.049772 27.09735,4.7499322 28.272313,4.3241716 28.340127,3.5645472 28.340246,3.4758732 28.322739,3.3817757 28.282978,3.2970226 27.831388,2.5296235 26.547057,2.181025 25.463942,1.8855978 22.506871,1.1851735 19.331704,0.98292004 16.197282,1 z m -0.561904,0.4058998 c 3.031997,-0.04055 6.123883,0.1086024 8.990466,0.7287751 0.981122,0.244425 2.143306,0.5366588 2.552379,1.1715746 0.03601,0.070123 0.05725,0.1388097 0.05714,0.2121753 -0.06142,0.6284829 -1.130222,0.978849 -1.971424,1.2269248 -2.55735,0.6710911 -5.395524,0.8484342 -8.161895,0.894824 C 14.108198,5.6523311 11.037572,5.5009388 8.2258615,4.8468239 7.292396,4.5969598 6.1326056,4.283499 5.8830073,3.629124 5.767581,3.0227211 6.7639228,2.6217866 7.5496721,2.3745249 9.9173356,1.6890455 12.588525,1.5000046 15.18776,1.4151251 c 0.148795,-0.00286 0.298505,-0.00723 0.447618,-0.00922 z"
     id="path7867"
     style="fill:url(#linearGradient2852);fill-opacity:1;fill-rule:evenodd;stroke:none;stroke-width:0.49905977;marker:none;visibility:visible;display:inline;overflow:visible" />
</svg>
