<?xml version="1.0" encoding="UTF-8" standalone="no"?>
<!-- Created with Inkscape (http://www.inkscape.org/) -->
<svg id="svg3795" xmlns="http://www.w3.org/2000/svg" height="32" width="32" version="1.0" xmlns:xlink="http://www.w3.org/1999/xlink">
 <defs id="defs3797">
  <linearGradient id="linearGradient3519">
   <stop id="stop3521" style="stop-color:#fcd9cd" offset="0"/>
   <stop id="stop3523" style="stop-color:#fcd9cd;stop-opacity:0" offset="1"/>
  </linearGradient>
  <linearGradient id="linearGradient3511">
   <stop id="stop3513" style="stop-color:#ebeec7" offset="0"/>
   <stop id="stop3515" style="stop-color:#ebeec7;stop-opacity:0" offset="1"/>
  </linearGradient>
  <linearGradient id="linearGradient3503">
   <stop id="stop3505" style="stop-color:#c4ebdd" offset="0"/>
   <stop id="stop3507" style="stop-color:#c4ebdd;stop-opacity:0" offset="1"/>
  </linearGradient>
  <linearGradient id="linearGradient3495">
   <stop id="stop3497" style="stop-color:#c1cbe4" offset="0"/>
   <stop id="stop3499" style="stop-color:#c1cbe4;stop-opacity:0" offset="1"/>
  </linearGradient>
  <linearGradient id="linearGradient3487">
   <stop id="stop3489" style="stop-color:#e6cde2" offset="0"/>
   <stop id="stop3491" style="stop-color:#e6cde2;stop-opacity:0" offset="1"/>
  </linearGradient>
  <linearGradient id="linearGradient6036">
   <stop id="stop6038" style="stop-color:#fff" offset="0"/>
   <stop id="stop6040" style="stop-color:#fff;stop-opacity:0" offset="1"/>
  </linearGradient>
  <linearGradient id="linearGradient3406" y2="45.962" xlink:href="#linearGradient6036" gradientUnits="userSpaceOnUse" x2="18.203" gradientTransform="matrix(.32832 0 0 .32832 8.0063 7.7919)" y1="4.0378" x1="18.776"/>
  <linearGradient id="linearGradient3409" y2="45.176" gradientUnits="userSpaceOnUse" x2="20.019" gradientTransform="matrix(.65854 0 0 .65854 .19512 .19512)" y1="3" x1="20.019">
   <stop id="stop3774" style="stop-color:#b4b4b4" offset="0"/>
   <stop id="stop3776" style="stop-color:#969696" offset="1"/>
  </linearGradient>
  <linearGradient id="linearGradient3412" y2="54.698" xlink:href="#linearGradient6036" gradientUnits="userSpaceOnUse" x2="48.799" gradientTransform="matrix(.63139 0 0 .63139 .62758 .21529)" y1="3.61" x1="10.502"/>
  <linearGradient id="linearGradient3427" y2="32.509" gradientUnits="userSpaceOnUse" x2="21.448" gradientTransform="matrix(.6875 0 0 .6875 -0.5 -0.5)" y1="15.5" x1="21.448">
   <stop id="stop3430" style="stop-color:#aaa" offset="0"/>
   <stop id="stop3432" style="stop-color:#d4d4d4" offset="1"/>
  </linearGradient>
  <linearGradient id="linearGradient3431" y2="14.203" gradientUnits="userSpaceOnUse" x2="35.391" gradientTransform="matrix(0 .77144 -.77144 0 33.82 -2.5145)" y1="32.416" x1="12.274">
   <stop id="stop3265" style="stop-color:#dedbde" offset="0"/>
   <stop id="stop3267" style="stop-color:#e6e6e6" offset=".5"/>
   <stop id="stop3269" style="stop-color:#d2d2d2" offset="1"/>
  </linearGradient>
  <radialGradient id="radialGradient3434" gradientUnits="userSpaceOnUse" cy="41.636" cx="23.335" gradientTransform="matrix(.66291 0 0 .19886 .53125 18.22)" r="22.627">
   <stop id="stop23421" offset="0"/>
   <stop id="stop23423" style="stop-opacity:0" offset="1"/>
  </radialGradient>
  <linearGradient id="linearGradient3436" y2="9.8622" xlink:href="#linearGradient3487" spreadMethod="reflect" gradientUnits="userSpaceOnUse" x2="24.274" y1="10.775" x1="20.58"/>
  <linearGradient id="linearGradient3438" y2="9.7956" xlink:href="#linearGradient3495" spreadMethod="reflect" gradientUnits="userSpaceOnUse" x2="21.047" y1="11.2" x1="17.495"/>
  <linearGradient id="linearGradient3440" y2="10.732" xlink:href="#linearGradient3503" spreadMethod="reflect" gradientUnits="userSpaceOnUse" x2="16.994" y1="13.046" x1="14.085"/>
  <linearGradient id="linearGradient3442" y2="13.462" xlink:href="#linearGradient3511" spreadMethod="reflect" gradientUnits="userSpaceOnUse" x2="14.609" y1="16.188" x1="12.372"/>
  <linearGradient id="linearGradient3444" y2="20.613" xlink:href="#linearGradient3519" spreadMethod="reflect" gradientUnits="userSpaceOnUse" x2="9.7298" y1="17.886" x1="10.609"/>
 </defs>
 <path id="path23417" style="opacity:.3;fill-rule:evenodd;fill:url(#radialGradient3434)" d="m31 26.5c0.001 2.485-6.715 4.5-15 4.5-8.2848 0-15.001-2.015-15-4.5-0.00077-2.485 6.7152-4.5 15-4.5s15.001 2.0148 15 4.5z"/>
 <path id="path2781" style="fill:url(#linearGradient3431)" d="m29.5 16c0-7.4829-6.017-13.5-13.5-13.5-7.4829 0-13.5 6.0171-13.5 13.5-0.0000013 7.4829 6.0171 13.5 13.5 13.5 7.4829-0.000001 13.5-6.0171 13.5-13.5zm-8.2317 0c0 3.0444-2.2239 5.2683-5.2683 5.2683s-5.2683-2.2239-5.2683-5.2683 2.2239-5.2683 5.2683-5.2683 5.2683 2.2239 5.2683 5.2683z"/>
 <path id="path2474" style="opacity:.5;fill:#fff" d="m16 10.732c-2.9081 0-5.2683 2.3602-5.2683 5.2683s2.3602 5.2683 5.2683 5.2683 5.2683-2.3602 5.2683-5.2683-2.3602-5.2683-5.2683-5.2683zm0 2.6341c1.454 0 2.6341 1.1801 2.6341 2.6341s-1.1801 2.6341-2.6341 2.6341-2.6341-1.1801-2.6341-2.6341 1.1801-2.6341 2.6341-2.6341z"/>
 <g id="g3527" transform="matrix(.65854 0 0 .65854 .19512 .19512)">
  <path id="path3296" style="opacity:.8;fill:url(#linearGradient3436)" d="m24 3.5c-2.9758 0-5.7974 0.62082-8.3438 1.75l4.969 11.094c1.035-0.459 2.17-0.719 3.375-0.719 0.03206 0 0.06178-0.00036 0.09375 0v-12.125c-0.03127-0.0001386-0.06245 0-0.09375 0z" transform="matrix(.99960 .028243 -.028243 .99960 .69241 -.67083)"/>
  <path id="path3308" style="opacity:.8;fill:url(#linearGradient3438)" d="m19.597 3.9975c-2.9067 0.63758-5.5298 1.8485-7.775 3.4971l7.2303 9.7715c0.91311-0.66976 1.9659-1.1671 3.1426-1.4252 0.03132-0.0069 0.06026-0.01359 0.09157-0.02009l-2.597-11.844c-0.03058 0.00656-0.061 0.013379-0.09157 0.020086z"/>
  <path id="path3310" style="opacity:.8;fill:url(#linearGradient3440)" d="m14.558 5.8449c-2.642 1.3681-4.8627 3.2167-6.6048 5.3901l9.513 7.5673c0.70865-0.88326 1.5969-1.6361 2.6667-2.19 0.02847-0.01474 0.05469-0.02872 0.08325-0.0431l-5.575-10.767c-0.02783 0.014254-0.05545 0.02871-0.08325 0.043103z"/>
  <path id="path3312" style="opacity:.8;fill:url(#linearGradient3442)" d="m10.169 8.9335c-2.1986 2.0055-3.8648 4.3655-4.985 6.9165l11.147 4.847c0.4559-1.0366 1.119-1.9937 2.009-2.8055 0.02369-0.02161 0.0454-0.0419 0.06926-0.06318l-8.171-8.9577c-0.0232 0.020972-0.04613 0.042084-0.06926 0.063182z"/>
  <path id="path3314" style="opacity:.8;fill:url(#linearGradient3444)" d="m6.7812 12.969c-0.016978 0.02626-0.045621 0.06739-0.0625 0.09375-1.1482 1.7935-1.9617 3.6813-2.5 5.625l11.75 3.125c0.21551-0.763 0.51805-1.5148 0.96875-2.2188 0.01729-0.027 0.04496-0.06702 0.0625-0.09375l-10.219-6.531z"/>
 </g>
 <g id="g3642" style="opacity:.8" transform="matrix(-.65854 0 0 -.65854 31.805 31.805)">
  <path id="path3644" style="opacity:.8;fill:url(#linearGradient3436)" d="m24 3.5c-2.9758 0-5.7974 0.62082-8.3438 1.75l4.969 11.094c1.035-0.459 2.17-0.719 3.375-0.719 0.03206 0 0.06178-0.00036 0.09375 0v-12.125c-0.03127-0.0001386-0.06245 0-0.09375 0z" transform="matrix(.99960 .028243 -.028243 .99960 .69241 -.67083)"/>
  <path id="path3646" style="opacity:.8;fill:url(#linearGradient3438)" d="m19.597 3.9975c-2.9067 0.63758-5.5298 1.8485-7.775 3.4971l7.2303 9.7715c0.91311-0.66976 1.9659-1.1671 3.1426-1.4252 0.03132-0.0069 0.06026-0.01359 0.09157-0.02009l-2.597-11.844c-0.03058 0.00656-0.061 0.013379-0.09157 0.020086z"/>
  <path id="path3648" style="opacity:.8;fill:url(#linearGradient3440)" d="m14.558 5.8449c-2.642 1.3681-4.8627 3.2167-6.6048 5.3901l9.513 7.5673c0.70865-0.88326 1.5969-1.6361 2.6667-2.19 0.02847-0.01474 0.05469-0.02872 0.08325-0.0431l-5.575-10.767c-0.02783 0.014254-0.05545 0.02871-0.08325 0.043103z"/>
  <path id="path3650" style="opacity:.8;fill:url(#linearGradient3442)" d="m10.169 8.9335c-2.1986 2.0055-3.8648 4.3655-4.985 6.9165l11.147 4.847c0.4559-1.0366 1.119-1.9937 2.009-2.8055 0.02369-0.02161 0.0454-0.0419 0.06926-0.06318l-8.171-8.9577c-0.0232 0.020972-0.04613 0.042084-0.06926 0.063182z"/>
  <path id="path3652" style="opacity:.8;fill:url(#linearGradient3444)" d="m6.7812 12.969c-0.016978 0.02626-0.045621 0.06739-0.0625 0.09375-1.1482 1.7935-1.9617 3.6813-2.5 5.625l11.75 3.125c0.21551-0.763 0.51805-1.5148 0.96875-2.2188 0.01729-0.027 0.04496-0.06702 0.0625-0.09375l-10.219-6.531z"/>
 </g>
 <path id="path2787" style="opacity:.5;stroke:url(#linearGradient3412);fill:none" d="m16 3.5c-6.9286 0-12.5 5.5714-12.5 12.5s5.5714 12.5 12.5 12.5 12.5-5.5714 12.5-12.5-5.5714-12.5-12.5-12.5z"/>
 <path id="path3287" style="stroke:url(#linearGradient3409);fill:none" d="m16 2.5c-7.4829 0-13.5 6.0171-13.5 13.5 0 7.483 6.0171 13.5 13.5 13.5 7.483 0 13.5-6.017 13.5-13.5 0-7.4829-6.017-13.5-13.5-13.5z"/>
 <path id="path3281" style="opacity:.8;stroke:url(#linearGradient3406);fill:none" d="m16 9.5c-3.603 0-6.5 2.897-6.5 6.5s2.897 6.5 6.5 6.5c3.6029 0 6.5-2.8971 6.5-6.5s-2.8971-6.5-6.5-6.5z"/>
 <path id="path3418" style="stroke-linejoin:round;stroke:url(#linearGradient3427);fill:none" d="m16 10.5c-3.036 0-5.5 2.464-5.5 5.5s2.464 5.5 5.5 5.5 5.5-2.464 5.5-5.5-2.464-5.5-5.5-5.5zm0 2.75c1.518 0 2.75 1.232 2.75 2.75s-1.232 2.75-2.75 2.75-2.75-1.232-2.75-2.75 1.232-2.75 2.75-2.75z"/>
</svg>
