<?xml version="1.0" encoding="UTF-8" standalone="no"?>
<!-- Created with Inkscape (http://www.inkscape.org/) -->
<svg id="svg3809" xmlns="http://www.w3.org/2000/svg" height="16" width="16" version="1.1" xmlns:xlink="http://www.w3.org/1999/xlink">
 <defs id="defs3811">
  <linearGradient id="linearGradient2974" y2="125.39" xlink:href="#linearGradient2372" gradientUnits="userSpaceOnUse" x2="26.257" gradientTransform="matrix(.25452 0 0 .12876 6.085 -15.174)" y1="144.12" x1="28.739"/>
  <linearGradient id="linearGradient2372">
   <stop id="stop2374" style="stop-color:#fff" offset="0"/>
   <stop id="stop2376" style="stop-color:#fff;stop-opacity:.37931" offset="1"/>
  </linearGradient>
  <linearGradient id="linearGradient2977" y2="119.86" xlink:href="#linearGradient2372" gradientUnits="userSpaceOnUse" x2="25.4" gradientTransform="matrix(.12650 0 0 .12876 2.114 -14.057)" y1="144.12" x1="28.739"/>
  <radialGradient id="radialGradient2980" fx="15.97" fy="39.106" xlink:href="#linearGradient7067-814-120-245" gradientUnits="userSpaceOnUse" cy="41.059" cx="17.059" gradientTransform="matrix(.36986 -.062123 0 .35880 4.6705 -1.5148)" r="5.7385"/>
  <linearGradient id="linearGradient7067-814-120-245">
   <stop id="stop3877" style="stop-color:#aaa" offset="0"/>
   <stop id="stop3879" style="stop-color:#4d4d4d" offset="1"/>
  </linearGradient>
  <radialGradient id="radialGradient2983" fx="15.544" fy="39.027" xlink:href="#linearGradient7067-814-120-245" gradientUnits="userSpaceOnUse" cy="41.059" cx="17.059" gradientTransform="matrix(.37668 -.063113 0 .36451 -2.4462 -.69065)" r="5.7385"/>
 </defs>
 <g id="layer1">
  <path id="path2931" style="fill:none" d="m12.887 11.243-0.367-2.9554"/>
  <path id="path4031" style="stroke-linejoin:round;stroke:#333;stroke-linecap:round;fill:#4d4d4d" d="m12.862 0.50108c-2.357 0.37984-5.5114 0.77082-7.862 1.1719-0.6224 0.3037-0.4825 1.0857-0.51 1.6531v7.5958c-1.3117-0.24661-2.9114 0.83727-2.9807 2.5534-0.11325 1.0684 0.83421 1.9985 1.8645 2.0235 1.8447 0.04478 3.1063-1.1791 3.1263-2.7269-0.020145-2.5994 0.00566-5.1998 0-7.7996 0.28558-0.02115 4.611-0.8465 5-0.90146v5.8414c-1.1464-0.27464-2.6119 0.47872-2.9753 2.0173-0.15337 0.86238 0.1365 1.9448 1.0115 2.31 1.7082 0.78494 4.0533-0.80504 3.9579-2.6711-0.02646-3.4662 0.02169-6.9338 0-10.4-0.04486-0.32576-0.26561-0.69059-0.63203-0.66708z"/>
  <path id="path2937" style="fill:url(#radialGradient2983)" d="m5.9736 12.865a1.7167 2.0995 57.095 0 1 -3.9883 0.66825 1.7167 2.0995 57.095 0 1 3.9883 -0.66825z"/>
  <path id="path2941" style="fill:url(#radialGradient2980)" d="m12.938 11.828a1.6885 2.063 56.77 0 1 -3.9162 0.658 1.6885 2.063 56.77 1 1 3.9162 -0.658z"/>
  <path id="path2945" style="opacity:.4;fill:url(#linearGradient2977);fill-rule:evenodd" d="m5.0537 11.476-0.0537-8.6821s0.05877-0.66376 0.49472-0.66579c0.15461-0.027048 6.9317-1.1565 6.9317-1.1565s0.13298 0.70947-6.0695 1.6297c-0.51693 0.077068-0.76544 0.068481-0.76272 0.55837 0.00735 1.3216-0.030358 3.796-0.030358 8.6083 0 0.03443-0.32544-0.24394-0.51018-0.2915z"/>
  <path id="path2947" style="opacity:.4;fill:url(#linearGradient2974);fill-rule:evenodd" d="m12 10.271 0.03393-6.559c0.35749-0.0323 0.05489-0.00519 0.53695-0.053577 0.0066 1.2252 0.000274 2.2421 0.000274 6.8692 0 0.03443-0.19942-0.20903-0.57115-0.2566z"/>
 </g>
</svg>
