<?xml version="1.0" encoding="UTF-8" standalone="no"?>
<!-- Created with Inkscape (http://www.inkscape.org/) -->
<svg id="svg3334" xmlns="http://www.w3.org/2000/svg" height="16" width="16" version="1.0" xmlns:xlink="http://www.w3.org/1999/xlink">
 <defs id="defs3336">
  <linearGradient id="linearGradient2519" y2="2.9062" gradientUnits="userSpaceOnUse" x2="-51.786" gradientTransform="matrix(.25379 0 0 .30502 19.129 -.68549)" y1="50.786" x1="-51.786">
   <stop id="stop3106" style="stop-color:#aaa" offset="0"/>
   <stop id="stop3108" style="stop-color:#c8c8c8" offset="1"/>
  </linearGradient>
  <linearGradient id="linearGradient2517" y2="47.013" gradientUnits="userSpaceOnUse" x2="25.132" gradientTransform="matrix(.31429 0 0 .32593 .45711 -.32225)" y1=".98521" x1="25.132">
   <stop id="stop3602" style="stop-color:#f4f4f4" offset="0"/>
   <stop id="stop3604" style="stop-color:#dbdbdb" offset="1"/>
  </linearGradient>
  <linearGradient id="linearGradient2511" y2="46.017" gradientUnits="userSpaceOnUse" x2="24" gradientTransform="matrix(.27273 0 0 .30232 1.4546 .74420)" y1="2" x1="24">
   <stop id="stop3213" style="stop-color:#fff" offset="0"/>
   <stop id="stop3215" style="stop-color:#fff;stop-opacity:0" offset="1"/>
  </linearGradient>
  <linearGradient id="linearGradient2507" y2="5.4565" gradientUnits="userSpaceOnUse" x2="36.358" gradientTransform="matrix(.30920 0 0 .37669 .47615 .10718)" y1="8.059" x1="32.892">
   <stop id="stop8591" style="stop-color:#fefefe" offset="0"/>
   <stop id="stop8593" style="stop-color:#cbcbcb" offset="1"/>
  </linearGradient>
  <linearGradient id="linearGradient2580-0" y2="10.035" gradientUnits="userSpaceOnUse" x2="22.104" gradientTransform="matrix(.66556 0 0 1.4408 -1.8235 -35.849)" y1="40.124" x1="22.104">
   <stop id="stop5033-8" style="stop-color:#a3a3a3" offset="0"/>
   <stop id="stop5035-8" style="stop-color:#bababa" offset="1"/>
  </linearGradient>
 </defs>
 <g id="layer1">
  <path id="path4160" style="stroke-linejoin:round;stroke:url(#linearGradient2519);stroke-width:.99992;fill:url(#linearGradient2517)" d="m2.5 0.49997h7.4412c0.44218 0.16179 2.9385 2.1328 3.5588 3.4091 0 3.9062 0.000026 7.6847 0.000026 11.591h-11v-15z"/>
  <path id="path2435" style="opacity:.6;stroke:url(#linearGradient2511);fill:none" d="m12.5 4.2151v10.285h-9v-13h6.2363"/>
  <path id="path3330" style="fill:#b4b4b4;fill-rule:evenodd" d="m9.2941 0.8409c0.8479 2.8039-0.2941 4.1932-0.2941 4.1932s1.8928-1.2514 4.1714-0.1023c1.9429 0.97981 0.03608-1.008-0.04146-1.129-0.543-0.8475-2.423-2.6331-3.105-2.9302-0.0554-0.02424-0.4436-0.0317-0.7309-0.0317z"/>
  <path id="path4474" style="fill:url(#linearGradient2507);fill-rule:evenodd" d="m9.2941 0.8409c0.9879 0 0.7059 3.181 0.7059 3.181s2.2725-0.50073 3.1714 0.90989c0.16288 0.25561 0.03608-1.008-0.04146-1.129-0.543-0.8475-2.423-2.6331-3.105-2.9302-0.0554-0.02424-0.4436-0.0317-0.7309-0.0317z"/>
 </g>
 <path id="path3027" style="fill:#b78ed4" d="m4 7v1h3.0625v-1h-3.0625z"/>
 <path id="path3023" style="fill:#d48eb3" d="m8 7v1h4v-1h-4z"/>
 <path id="path2940" style="fill:#89adc2" d="m10 5v1h1.9062v-1h-1.906zm-3 0v1h2.1562v-1h-2.1562zm-3 0v1h2.3125v-1h-2.3125zm3-2v1h2v-1h-2zm-3 0v1h2v-1h-2z"/>
 <path id="path3066" style="fill:#94d48e" d="m4 9v1h2v-1h-2z"/>
 <path id="path4009" style="fill:#de6161" d="m4 13h3.0367v1h-3.0367v-1z"/>
 <path id="path4007" style="fill:url(#linearGradient2580-0)" d="m8 13v1h3.3438v-1h-3.344zm-4-2v1h2v-1h-2zm3-2v1h2v-1h-2z"/>
</svg>
