<?xml version="1.0" encoding="UTF-8" standalone="no"?>
<!-- Created with Inkscape (http://www.inkscape.org/) -->
<svg id="svg3506" xmlns:rdf="http://www.w3.org/1999/02/22-rdf-syntax-ns#" xmlns="http://www.w3.org/2000/svg" height="48" width="48" version="1.0" xmlns:cc="http://creativecommons.org/ns#" xmlns:xlink="http://www.w3.org/1999/xlink" xmlns:dc="http://purl.org/dc/elements/1.1/">
 <metadata id="metadata53">
  <rdf:RDF>
   <cc:Work rdf:about="">
    <dc:format>image/svg+xml</dc:format>
    <dc:type rdf:resource="http://purl.org/dc/dcmitype/StillImage"/>
   </cc:Work>
  </rdf:RDF>
 </metadata>
 <defs id="defs3508">
  <radialGradient id="radialGradient3873" xlink:href="#linearGradient5060" gradientUnits="userSpaceOnUse" cy="486.65" cx="605.71" gradientTransform="matrix(.024097 0 0 .015375 26.478 38.629)" r="117.14"/>
  <linearGradient id="linearGradient5060">
   <stop id="stop5062" offset="0"/>
   <stop id="stop5064" style="stop-opacity:0" offset="1"/>
  </linearGradient>
  <radialGradient id="radialGradient3586" xlink:href="#linearGradient5060" gradientUnits="userSpaceOnUse" cy="486.65" cx="605.71" gradientTransform="matrix(-.024097 0 0 .015375 21.522 38.629)" r="117.14"/>
  <linearGradient id="linearGradient3584" y2="609.51" gradientUnits="userSpaceOnUse" x2="302.86" gradientTransform="matrix(.070414 0 0 .015375 -1.4497 38.629)" y1="366.65" x1="302.86">
   <stop id="stop5050" style="stop-opacity:0" offset="0"/>
   <stop id="stop5056" offset=".5"/>
   <stop id="stop5052" style="stop-opacity:0" offset="1"/>
  </linearGradient>
  <linearGradient id="linearGradient2878" y2="61.22" gradientUnits="userSpaceOnUse" x2="53.453" gradientTransform="matrix(.70071 0 0 .75439 2.0789 -.16914)" y1="11.03" x1="22.334">
   <stop id="stop3321" style="stop-color:#af9b7f" offset="0"/>
   <stop id="stop3323" style="stop-color:#736148" offset="1"/>
  </linearGradient>
  <linearGradient id="linearGradient2876" y2="46" gradientUnits="userSpaceOnUse" x2="38.491" gradientTransform="matrix(.97391 0 0 1.0485 2.0472 -2.2169)" y1="9.8889" x1="16.102">
   <stop id="stop8969" style="stop-color:#ddcfbd" offset="0"/>
   <stop id="stop8971" style="stop-color:#856f50" offset="1"/>
  </linearGradient>
  <linearGradient id="linearGradient2873" y2="25.019" gradientUnits="userSpaceOnUse" x2="8.5001" gradientTransform="matrix(.83712 0 0 1.0428 1.9516 -2.0972)" y1="25.019" x1="5.4801">
   <stop id="stop8980" style="stop-color:#4d5459;stop-opacity:.99608" offset="0"/>
   <stop id="stop8982" style="stop-color:#141b1f" offset="1"/>
  </linearGradient>
  <linearGradient id="linearGradient2867" y2=".065302" gradientUnits="userSpaceOnUse" x2="55.495" gradientTransform="matrix(.71628 0 0 .74716 2.1542 -.051651)" y1="5.2438" x1="5.7542">
   <stop id="stop3915" style="stop-color:#4e555a" offset="0"/>
   <stop id="stop3917" style="stop-color:#151c20" offset=".15978"/>
   <stop id="stop3919" style="stop-color:#9b876c" offset=".16723"/>
   <stop id="stop3921" style="stop-color:#9b876c" offset=".75216"/>
   <stop id="stop3923" style="stop-color:#9b876c" offset=".93860"/>
   <stop id="stop3925" style="stop-color:#c2c2c2" offset=".94891"/>
   <stop id="stop3927" style="stop-color:#c2c2c2" offset="1"/>
  </linearGradient>
  <linearGradient id="linearGradient2865" y2="4.8826" gradientUnits="userSpaceOnUse" x2="24.64" gradientTransform="matrix(1.004 0 0 1.5381 1.2233 -4.04)" y1="3.1234" x1="24.627">
   <stop id="stop2348" style="stop-color:#eee" offset="0"/>
   <stop id="stop2350" style="stop-color:#d9d9da" offset="1"/>
  </linearGradient>
  <linearGradient id="linearGradient3204" y2="24.62" gradientUnits="userSpaceOnUse" x2="40.978" y1="4.0341" x1="28.252">
   <stop id="stop3200" style="stop-color:#fff" offset="0"/>
   <stop id="stop3202" style="stop-color:#fff;stop-opacity:0" offset="1"/>
  </linearGradient>
 </defs>
 <g id="layer1">
  <g id="g2877" transform="matrix(.95613 0 0 .95613 1.045 1.1059)">
   <rect id="rect2879" style="opacity:.40206;fill:url(#linearGradient3584)" height="3.7339" width="34" y="44.266" x="7"/>
   <path id="path2881" style="opacity:.40206;fill:url(#radialGradient3586)" d="m7 44.266v3.734c-1.2409 0.007-3-0.837-3-1.867 0-1.031 1.3848-1.867 3-1.867z"/>
   <path id="path2883" style="opacity:.40206;fill:url(#radialGradient3873)" d="m41 44.266v3.734c1.241 0.007 3-0.837 3-1.867 0-1.031-1.385-1.867-3-1.867z"/>
  </g>
  <rect id="rect2719" style="stroke-linejoin:round;stroke:url(#linearGradient2878);stroke-linecap:round;stroke-miterlimit:0;stroke-width:1.019;fill:url(#linearGradient2876)" rx=".30969" ry=".33013" height="41.941" width="33.978" y="3.5499" x="7.5129"/>
  <path id="path2721" style="fill:url(#linearGradient2873)" d="m6.1372 2.074c2.4185 1.5303 4.5838 0.8957 5.8598 1.0536v42.744h-4.6635s-1.1963 0-1.1963-1.226v-42.572z"/>
  <rect id="rect2725" style="fill:#4d4d4d" rx=".64036" ry=".79862" height="40.77" width="1.7801" y="4.275" x="10.112"/>
  <path id="path2781" style="opacity:.4;fill:#fff" d="m24.161 24.538c0 1.051 0.215 1.879 0.647 2.485 0.439 0.606 1.032 0.909 1.779 0.909 0.738 0 1.327-0.303 1.767-0.909 0.44-0.615 0.66-1.443 0.66-2.485 0-1.033-0.224-1.848-0.672-2.446-0.44-0.606-1.033-0.909-1.78-0.909-0.73 0-1.315 0.303-1.754 0.909-0.432 0.598-0.647 1.413-0.647 2.446m5.101 3.855c-0.248 0.606-0.651 1.08-1.207 1.422-0.547 0.333-1.19 0.499-1.928 0.499-1.427 0-2.589-0.529-3.484-1.588-0.888-1.067-1.332-2.454-1.332-4.162 0-1.707 0.448-3.095 1.344-4.162s2.053-1.601 3.472-1.601c0.738 0 1.381 0.171 1.928 0.512 0.556 0.342 0.959 0.816 1.207 1.422v-1.678h2.601v8.875c1.029-0.162 1.838-0.67 2.427-1.524 0.589-0.862 0.883-1.963 0.883-3.304 0-0.854-0.12-1.652-0.361-2.395-0.24-0.751-0.605-1.438-1.095-2.061-0.788-1.042-1.775-1.845-2.961-2.408-1.178-0.563-2.456-0.845-3.833-0.845-0.962 0-1.883 0.132-2.762 0.397-0.88 0.256-1.693 0.636-2.439 1.14-1.228 0.836-2.186 1.92-2.875 3.252-0.68 1.324-1.02 2.758-1.02 4.303 0 1.272 0.22 2.468 0.659 3.586 0.448 1.11 1.091 2.092 1.929 2.945 0.83 0.837 1.78 1.473 2.85 1.909 1.078 0.443 2.227 0.665 3.447 0.665 1.045 0 2.09-0.2 3.135-0.601 1.046-0.402 1.937-0.944 2.676-1.627l1.331 2.075c-1.037 0.828-2.169 1.46-3.397 1.895-1.219 0.444-2.46 0.666-3.721 0.666-1.534 0-2.982-0.282-4.342-0.845-1.361-0.555-2.572-1.366-3.634-2.433-1.062-1.068-1.87-2.301-2.426-3.701-0.556-1.409-0.834-2.92-0.834-4.534 0-1.554 0.282-3.035 0.846-4.444 0.564-1.408 1.369-2.646 2.414-3.713 1.045-1.059 2.261-1.879 3.646-2.459 1.394-0.581 2.837-0.871 4.33-0.871 1.859 0 3.547 0.367 5.065 1.101 1.518 0.726 2.787 1.776 3.808 3.151 0.622 0.836 1.09 1.746 1.406 2.727 0.323 0.974 0.485 1.998 0.485 3.074 0 2.314-0.676 4.111-2.028 5.391-1.352 1.281-3.26 1.921-5.724 1.921h-0.486v-1.972"/>
  <path id="path4743" style="opacity:.4;stroke-linejoin:round;stroke:url(#linearGradient3204);stroke-linecap:square;stroke-width:.96683;fill:none" d="m12.446 4.5505l28.048-0.033v40.206"/>
  <path id="path2723" style="stroke-linejoin:round;stroke:url(#linearGradient2867);stroke-miterlimit:0;stroke-width:1.0174;fill:url(#linearGradient2865)" d="m40.839 3.2172c-0.295-0.9913-0.111-1.7631-0.274-2.7085 0 0.00002-28.591 0.00002-30.24 0.00002-1.5705 0-3.122 0.23031-3.5598 1.1675-0.0247 0.0528-0.0519 0.106-0.0672 0.1634-0.4016 0.966 1.2619 1.7216 3.805 1.7216h1.515"/>
  <path id="path4494" style="fill-rule:evenodd;stroke:#a18d72;stroke-width:1px;fill:#a18d72" d="m41.308 3.5555h-29.319"/>
  <path id="path2779" style="fill:#746956" d="m24.161 23.538c0 1.051 0.215 1.879 0.647 2.485 0.439 0.606 1.032 0.909 1.779 0.909 0.738 0 1.327-0.303 1.767-0.909 0.44-0.615 0.66-1.443 0.66-2.485 0-1.033-0.224-1.848-0.672-2.446-0.44-0.606-1.033-0.909-1.78-0.909-0.73 0-1.315 0.303-1.754 0.909-0.432 0.598-0.647 1.413-0.647 2.446m5.101 3.855c-0.248 0.606-0.651 1.08-1.207 1.422-0.547 0.333-1.19 0.499-1.928 0.499-1.427 0-2.589-0.529-3.484-1.588-0.888-1.067-1.332-2.454-1.332-4.162 0-1.707 0.448-3.095 1.344-4.162s2.053-1.601 3.472-1.601c0.738 0 1.381 0.171 1.928 0.512 0.556 0.342 0.959 0.816 1.207 1.422v-1.678h2.601v8.875c1.029-0.162 1.838-0.67 2.427-1.524 0.589-0.862 0.883-1.963 0.883-3.304 0-0.854-0.12-1.652-0.361-2.395-0.24-0.751-0.605-1.438-1.095-2.061-0.788-1.042-1.775-1.845-2.961-2.408-1.178-0.563-2.456-0.845-3.833-0.845-0.962 0-1.883 0.132-2.762 0.397-0.88 0.256-1.693 0.636-2.439 1.14-1.228 0.836-2.186 1.92-2.875 3.252-0.68 1.324-1.02 2.758-1.02 4.303 0 1.272 0.22 2.468 0.659 3.586 0.448 1.11 1.091 2.092 1.929 2.945 0.83 0.837 1.78 1.473 2.85 1.909 1.078 0.443 2.227 0.665 3.447 0.665 1.045 0 2.09-0.2 3.135-0.601 1.046-0.402 1.937-0.944 2.676-1.627l1.331 2.075c-1.037 0.828-2.169 1.46-3.397 1.895-1.219 0.444-2.46 0.666-3.721 0.666-1.534 0-2.982-0.282-4.342-0.845-1.361-0.555-2.572-1.366-3.634-2.433-1.062-1.068-1.87-2.301-2.426-3.701-0.556-1.409-0.834-2.92-0.834-4.534 0-1.554 0.282-3.035 0.846-4.444 0.564-1.408 1.369-2.646 2.414-3.713 1.045-1.059 2.261-1.879 3.646-2.459 1.394-0.581 2.837-0.871 4.33-0.871 1.859 0 3.547 0.367 5.065 1.101 1.518 0.726 2.787 1.776 3.808 3.151 0.622 0.836 1.09 1.746 1.406 2.727 0.323 0.974 0.485 1.998 0.485 3.074 0 2.314-0.676 4.111-2.028 5.391-1.352 1.281-3.26 1.921-5.724 1.921h-0.486v-1.972"/>
 </g>
</svg>
