<?xml version="1.0" encoding="UTF-8" standalone="no"?>
<!-- Created with Inkscape (http://www.inkscape.org/) -->
<svg id="svg3082" xmlns="http://www.w3.org/2000/svg" height="48" width="48" version="1.1" xmlns:xlink="http://www.w3.org/1999/xlink">
 <defs id="defs3084">
  <linearGradient id="linearGradient5060">
   <stop id="stop5062" offset="0"/>
   <stop id="stop5064" style="stop-opacity:0" offset="1"/>
  </linearGradient>
  <linearGradient id="linearGradient4168">
   <stop id="stop4170" style="stop-color:#f8cd70" offset="0"/>
   <stop id="stop4172" style="stop-color:#cc9110" offset="1"/>
  </linearGradient>
  <radialGradient id="radialGradient5537" xlink:href="#linearGradient4168" gradientUnits="userSpaceOnUse" cy="9.9662" cx="40.128" gradientTransform="matrix(1.8725 .0000022096 -.0000022597 1.9134 -42.642 -9.5692)" r="1.0607"/>
  <radialGradient id="radialGradient5540" xlink:href="#linearGradient4168" gradientUnits="userSpaceOnUse" cy="9.9662" cx="40.128" gradientTransform="matrix(1.8725 .0000022587 -.0000022597 1.8717 -38.642 -9.1541)" r="1.0607"/>
  <radialGradient id="radialGradient5543" xlink:href="#linearGradient4168" gradientUnits="userSpaceOnUse" cy="9.9662" cx="40.128" gradientTransform="matrix(1.8725 -1.5971e-7 1.5267e-7 1.7884 -34.642 -8.3239)" r="1.0607"/>
  <linearGradient id="linearGradient5546" y2="40" gradientUnits="userSpaceOnUse" x2="24" gradientTransform="matrix(1.0526 0 0 1.0741 -1.2632 -.96296)" y1="13" x1="24">
   <stop id="stop6459" style="stop-color:#fff;stop-opacity:.94118" offset="0"/>
   <stop id="stop6461" style="stop-color:#fff;stop-opacity:.70588" offset="1"/>
  </linearGradient>
  <linearGradient id="linearGradient5549" y2="38.927" gradientUnits="userSpaceOnUse" x2="15.935" gradientTransform="matrix(1.3226 0 0 1.2414 -9.0645 -5.2931)" y1="9.0735" x1="16.034">
   <stop id="stop3317" style="stop-color:#fff" offset="0"/>
   <stop id="stop3319" style="stop-color:#fff;stop-opacity:0" offset="1"/>
  </linearGradient>
  <linearGradient id="linearGradient5552" y2="39.924" gradientUnits="userSpaceOnUse" x2="21.78" gradientTransform="matrix(1.303 0 0 1.2459 -8.5757 -5.7131)" y1="8.5763" x1="21.866">
   <stop id="stop2783" style="stop-color:#505050" offset="0"/>
   <stop id="stop6301" style="stop-color:#6e6e6e" offset=".13216"/>
   <stop id="stop2785" style="stop-color:#8c8c8c" offset="1"/>
  </linearGradient>
  <radialGradient id="radialGradient6367" xlink:href="#linearGradient5060" gradientUnits="userSpaceOnUse" cy="486.65" cx="605.71" gradientTransform="matrix(-.062854 0 0 .024706 46.705 31.442)" r="117.14"/>
  <radialGradient id="radialGradient6370" xlink:href="#linearGradient5060" gradientUnits="userSpaceOnUse" cy="486.65" cx="605.71" gradientTransform="matrix(.062854 0 0 .024706 1.295 31.442)" r="117.14"/>
  <linearGradient id="linearGradient6381" y2="609.51" gradientUnits="userSpaceOnUse" x2="302.86" gradientTransform="matrix(.062854 0 0 .024706 1.2826 31.442)" y1="366.65" x1="302.86">
   <stop id="stop5050" style="stop-opacity:0" offset="0"/>
   <stop id="stop5056" offset=".5"/>
   <stop id="stop5052" style="stop-opacity:0" offset="1"/>
  </linearGradient>
 </defs>
 <g id="g5519">
  <g id="g5514">
   <path id="rect4173" style="opacity:.23613;fill:url(#linearGradient6381)" d="m8.8125 40.5v6h19.5l-5.5938-6h-13.906zm19.406 0 5.5625 6h5.4062v-6h-10.969z"/>
   <path id="path5058" style="opacity:.23613;fill:url(#radialGradient6370)" d="m39.175 40.5v5.9997c3.2369 0.01129 7.8251-1.3442 7.8251-3.0002s-3.6121-2.9994-7.8251-2.9994z"/>
   <path id="path5018" style="opacity:.23613;fill:url(#radialGradient6367)" d="m8.8251 40.5v5.9997c-3.2368 0.011-7.8251-1.344-7.8251-3s3.6121-3 7.8251-3z"/>
  </g>
  <path id="rect1887" style="stroke:#565853;fill:url(#linearGradient5552)" d="m4.5 5.5c-1.108 0-2 0.892-2 2v34c0 1.108 0.892 2 2 2h21.031l-4.469-4.781 8.626-8.344-18.688-15.375 12.688-9.5h-19.188zm25.812 0-13.312 9.5 18.469 15.281-8.719 8.657 4.25 4.562h12.5c1.108 0 2-0.892 2-2v-34c0-1.108-0.892-2-2-2h-13.188z"/>
  <path id="rect2779" style="opacity:.2;stroke:url(#linearGradient5549);fill:none" d="m4.5 6.5c-0.554 0-1 0.446-1 1v34c0 0.554 0.446 1 1 1h20.094l-3.532-3.781 8.626-8.344-18.688-15.375 11.344-8.5h-17.844zm24.406 0-11.906 8.5 18.469 15.281-8.719 8.657 3.312 3.562h13.438c0.554 0 1-0.446 1-1v-34c0-0.554-0.446-1-1-1h-14.594z"/>
  <path id="rect6287" style="fill:url(#linearGradient5546)" d="m5.0625 13c-0.5832 0-1.0625 0.467-1.0625 1.062v26.875c0 0.596 0.4793 1.063 1.0625 1.063h19.062l-3.062-3.281 8.626-8.344-18.688-15.375 2.656-2h-8.5935zm14.75 0l-2.812 2 18.469 15.281-8.719 8.657 2.844 3.062h13.344c0.583 0 1.062-0.467 1.062-1.062v-26.875c0-0.596-0.479-1.063-1.062-1.063h-23.125z"/>
  <path id="path6289" style="fill:url(#radialGradient5543)" d="m42 9.5c0.000359 0.82832-0.67132 1.5-1.5 1.5s-1.5004-0.67168-1.5-1.5c-0.000359-0.82832 0.67132-1.5 1.5-1.5s1.5004 0.67168 1.5 1.5z"/>
  <path id="path6291" style="fill:url(#radialGradient5540)" d="m38 9.5c0.000359 0.82832-0.67132 1.5-1.5 1.5s-1.5004-0.67168-1.5-1.5c0-0.8283 0.671-1.5 1.5-1.5s1.5 0.6717 1.5 1.5z"/>
  <path id="path6293" style="fill:url(#radialGradient5537)" d="m34 9.5c0.000359 0.82832-0.67132 1.5-1.5 1.5s-1.5004-0.67168-1.5-1.5c0-0.8283 0.671-1.5 1.5-1.5s1.5 0.6717 1.5 1.5z"/>
 </g>
</svg>
