<?xml version="1.0" encoding="UTF-8" standalone="no"?>
<!-- Created with Inkscape (http://www.inkscape.org/) -->
<svg id="svg5555" xmlns="http://www.w3.org/2000/svg" height="48" width="48" version="1.0" xmlns:xlink="http://www.w3.org/1999/xlink">
 <defs id="defs5557">
  <linearGradient id="linearGradient13678">
   <stop id="stop13680" style="stop-color:#fff" offset="0"/>
   <stop id="stop13682" style="stop-color:#fff;stop-opacity:0" offset="1"/>
  </linearGradient>
  <radialGradient id="radialGradient3199" gradientUnits="userSpaceOnUse" cy="24" cx="24" r="17">
   <stop id="stop3303" style="stop-color:#fff;stop-opacity:0" offset="0"/>
   <stop id="stop3309" style="stop-color:#fff;stop-opacity:0" offset="0.7"/>
   <stop id="stop3305" offset="1"/>
  </radialGradient>
  <linearGradient id="linearGradient3201" y2="26.494" gradientUnits="userSpaceOnUse" x2="29.05" gradientTransform="matrix(1 0 0 -1 .000001 48)" y1="7.028" x1="29.05">
   <stop id="stop3710" offset="0"/>
   <stop id="stop3712" offset="1"/>
  </linearGradient>
  <linearGradient id="linearGradient3212" y2="26.091" gradientUnits="userSpaceOnUse" x2="24.398" gradientTransform="translate(-.39768 .39813)" y1="3.6019" x1="24.398">
   <stop id="stop3998" style="stop-color:#fff" offset="0"/>
   <stop id="stop4000" style="stop-color:#fff;stop-opacity:0" offset="1"/>
  </linearGradient>
  <radialGradient id="radialGradient3215" gradientUnits="userSpaceOnUse" cy="12.08" cx="27.412" gradientTransform="matrix(1.7638e-8 1.7731 -2.6591 2.6451e-8 59.48 -17.999)" r="18">
   <stop id="stop3270" style="stop-color:#fff" offset="0"/>
   <stop id="stop3272" style="stop-color:#d8d8d8" offset="1"/>
  </radialGradient>
  <linearGradient id="linearGradient3217" y2="40.32" gradientUnits="userSpaceOnUse" x2="29.05" gradientTransform="matrix(1.0606 0 0 1.0606 -1.4545 -1.4545)" y1="7.028" x1="29.05">
   <stop id="stop2482" style="stop-color:#636467" offset="0"/>
   <stop id="stop2484" style="stop-color:#4a4a4a" offset="1"/>
  </linearGradient>
  <radialGradient id="radialGradient3220" gradientUnits="userSpaceOnUse" cy="24.003" cx="24.012" gradientTransform="matrix(.95321 0 0 .95321 1.1236 1.1232)" r="21">
   <stop id="stop5026" style="stop-color:#808080" offset="0"/>
   <stop id="stop5028" style="stop-color:#6d6d6d" offset=".87327"/>
   <stop id="stop5030" style="stop-color:#4f5053" offset="1"/>
  </radialGradient>
  <linearGradient id="linearGradient3222" y2="45.184" gradientUnits="userSpaceOnUse" x2="7.5542" y1="3" x1="7.5542">
   <stop id="stop3229" style="stop-color:#4d4d4d" offset="0"/>
   <stop id="stop3231" style="stop-color:#333" offset="1"/>
  </linearGradient>
  <radialGradient id="radialGradient3225" gradientUnits="userSpaceOnUse" cy="4.625" cx="62.625" gradientTransform="matrix(2.1647 0 0 .75294 -111.56 36.518)" r="10.625">
   <stop id="stop8840" offset="0"/>
   <stop id="stop8842" style="stop-opacity:0" offset="1"/>
  </radialGradient>
  <linearGradient id="linearGradient2880" y2="37.75" xlink:href="#linearGradient13678" gradientUnits="userSpaceOnUse" x2="47.375" gradientTransform="matrix(.89428 0 0 .89428 5.0324 .026455)" y1="1.125" x1="40.547"/>
  <linearGradient id="linearGradient2885" y2="37.75" xlink:href="#linearGradient13678" gradientUnits="userSpaceOnUse" x2="47.375" gradientTransform="matrix(.50782 0 0 .50782 10.612 17.532)" y1="1.125" x1="40.547"/>
  <linearGradient id="linearGradient3689" y2="9" gradientUnits="userSpaceOnUse" x2="39" y1="25" x1="23">
   <stop id="stop3685" offset="0"/>
   <stop id="stop3687" style="stop-opacity:0" offset="1"/>
  </linearGradient>
  <linearGradient id="linearGradient3697" y2="23.228" gradientUnits="userSpaceOnUse" x2="45.001" y1="23.228" x1="22.758">
   <stop id="stop3693" style="stop-color:#f00" offset="0"/>
   <stop id="stop3695" style="stop-color:#f00;stop-opacity:0" offset="1"/>
  </linearGradient>
 </defs>
 <path id="path8836" style="opacity:.3;fill-rule:evenodd;fill:url(#radialGradient3225)" d="m47 40c0 4.4183-10.297 8-23 8s-23-3.5817-23-8 10.297-8 23-8 23 3.5817 23 8z"/>
 <path id="path6495" style="stroke:url(#linearGradient3222);fill:url(#radialGradient3220)" d="m44.5 23.999c0 11.322-9.179 20.501-20.5 20.501-11.322 0-20.5-9.179-20.5-20.501 0-11.321 9.178-20.499 20.5-20.499 11.321 0 20.5 9.178 20.5 20.499z"/>
 <path id="path3215" style="stroke:url(#linearGradient3217);fill:url(#radialGradient3215)" d="m41.5 23.999c0 9.6653-7.8356 17.501-17.5 17.501-9.6651 0-17.5-7.8354-17.5-17.501 0-9.6649 7.8352-17.499 17.5-17.499 9.6642 0 17.5 7.8345 17.5 17.499z"/>
 <path id="path3222" style="opacity:.4;stroke:url(#linearGradient3212);fill:none" d="m43.5 23.999c0 10.77-8.7311 19.501-19.5 19.501-10.77 0-19.5-8.7309-19.5-19.501 0-10.769 8.7306-19.499 19.5-19.499s19.5 8.73 19.5 19.499z"/>
 <path id="path2306" style="opacity:.6;stroke:#000;stroke-linecap:round;fill:none" d="m23.543 38.033c0-2.7663-0.07959-3.1166-0.07959-3.1166"/>
 <path id="path2312" style="stroke:url(#linearGradient3689);stroke-linecap:round;stroke-width:0.9;fill:none" d="m22.979 25.457 10.911-10.912"/>
 <path id="path3215-4" style="opacity:.2;stroke:url(#linearGradient3201);fill:url(#radialGradient3199)" d="m40.5 24.001c0-9.113-7.388-16.501-16.5-16.501-9.113 0-16.5 7.388-16.5 16.501 0 9.112 7.387 16.499 16.5 16.499 9.112 0 16.5-7.387 16.5-16.499z"/>
 <g id="g2872" transform="translate(-.93492 1.0068)">
  <path id="path13687" style="stroke:#356ca0;fill:#7ea6cb" d="m47.5 3.5034-6.738 7.9966h6.738v3h-12v-1l8.3438-9.9217h-8.3438v-3.0783h12v3.0034z"/>
  <path id="path13676" style="opacity:.21348;stroke:url(#linearGradient2880);stroke-width:.89428px;fill:#5c8ebd" d="m46.5 13.515v-1.0514h-7.0694m7.069-9.3082v-1.6558h-10m8.9141 1.6628-8.6773 10.384"/>
 </g>
 <path id="path2296" style="opacity:.3;stroke:#000;stroke-linecap:round;fill:none" d="m35.022 24.537c2.7663 0 3.1166-0.07959 3.1166-0.07959"/>
 <path id="path2291" style="opacity:.5;stroke:#000;stroke-linecap:round;fill:none" d="m9.8617 24.537c2.7663 0 3.1166-0.07959 3.1166-0.07959"/>
 <path id="path2308" style="opacity:.4;stroke:#000;stroke-linecap:round;fill:none" d="m23.495 13.084c0.08389-2.7651 0.01496-3.1176 0.01496-3.1176"/>
 <path id="path2314" style="stroke:#000;stroke-linecap:round;stroke-width:0.9;fill:none" d="m24.75 25.537-7.287-7.287"/>
 <path id="path2316" style="fill-rule:evenodd;stroke:url(#linearGradient3697);stroke-linecap:round;stroke-width:0.9;fill:#f00" d="m23.22 24.893 12.425-3.329"/>
 <g id="g2891">
  <path id="path13696" style="stroke:#356ca0;fill:#98b8d5" d="m35.565 19.506-4.6643 5.0006h4.6643v2h-8v-1.2443l5.3298-5.7139h-5.3298v-2.0418h8v1.9994z"/>
  <path id="path13700" style="opacity:.21348;stroke:url(#linearGradient2885);stroke-linecap:square;stroke-width:0.894;fill:none" d="m34.565 25.507c-1.8438 0.0419-4.0874-0.02313-5.881-0.02313l5.881-6.3163v-0.66058h-6"/>
 </g>
</svg>
