<?xml version="1.0" encoding="UTF-8" standalone="no"?>
<!-- Created with Inkscape (http://www.inkscape.org/) -->
<svg id="svg11300" xmlns="http://www.w3.org/2000/svg" height="48" width="48" version="1.1" xmlns:xlink="http://www.w3.org/1999/xlink">
 <defs id="defs3">
  <linearGradient id="linearGradient4909">
   <stop id="stop4911" style="stop-color:#747474" offset="0"/>
   <stop id="stop4913" style="stop-color:#b0b0b0" offset=".47842"/>
   <stop id="stop4915" style="stop-color:#3f3f3f" offset="1"/>
  </linearGradient>
  <linearGradient id="linearGradient4877">
   <stop id="stop4879" style="stop-color:#747474" offset="0"/>
   <stop id="stop4881" style="stop-color:#fff" offset=".45349"/>
   <stop id="stop4883" style="stop-color:#3f3f3f" offset="1"/>
  </linearGradient>
  <linearGradient id="linearGradient6215">
   <stop id="stop6217" style="stop-color:#cfb900" offset="0"/>
   <stop id="stop6219" style="stop-color:#e2d44d" offset="0.21"/>
   <stop id="stop6221" style="stop-color:#9a8b00" offset="0.84"/>
   <stop id="stop6223" style="stop-color:#cfb900" offset="1"/>
  </linearGradient>
  <linearGradient id="linearGradient3956" y2="11.5" xlink:href="#linearGradient6215" gradientUnits="userSpaceOnUse" x2="4.7127" gradientTransform="matrix(0 .66667 -1 0 29 16.667)" y1="11.5" x1="12.647"/>
  <linearGradient id="linearGradient3982" y2="19.5" xlink:href="#linearGradient6215" gradientUnits="userSpaceOnUse" x2="4.3284" gradientTransform="matrix(0 .66667 -1 0 29 7.6667)" y1="19.5" x1="8"/>
  <linearGradient id="linearGradient4002" y2="19.5" xlink:href="#linearGradient6215" gradientUnits="userSpaceOnUse" x2="4.3284" gradientTransform="matrix(.66667 0 0 1 2.6667 -5)" y1="19.5" x1="8"/>
  <linearGradient id="linearGradient4005" y2="31.347" gradientUnits="userSpaceOnUse" x2="18.968" gradientTransform="matrix(.93474 0 0 1.1494 .51875 -8.8596)" y1="20.166" x1="16.965">
   <stop id="stop14863" style="stop-color:#fff" offset="0"/>
   <stop id="stop14865" style="stop-color:#fff;stop-opacity:0" offset="1"/>
  </linearGradient>
  <linearGradient id="linearGradient4022" y2="39.267" gradientUnits="userSpaceOnUse" x2="6.2377" gradientTransform="matrix(1.9844 0 0 1 3.0938 -5.0136)" y1="42.891" x1="6.221">
   <stop id="stop14782-0" style="stop-color:#d3ba00" offset="0"/>
   <stop id="stop14784-4" style="stop-color:#d3ba00;stop-opacity:0" offset="1"/>
  </linearGradient>
  <radialGradient id="radialGradient4820" gradientUnits="userSpaceOnUse" cy="15.407" cx="9" gradientTransform="matrix(2.3161 .014304 -.010170 1.6466 -11.688 -8.4984)" r="20">
   <stop id="stop14983-1" style="stop-color:#628430" offset="0"/>
   <stop id="stop14985-7" style="stop-color:#364d17" offset="1"/>
  </radialGradient>
  <radialGradient id="radialGradient4830" gradientUnits="userSpaceOnUse" cy="9.1705" cx="4" gradientTransform="matrix(1.9989 .083289 -.052631 1.2631 -3.5131 .083257)" r="19">
   <stop id="stop7624" style="stop-color:#fff" offset="0"/>
   <stop id="stop7626" style="stop-color:#fff;stop-opacity:0" offset="1"/>
  </radialGradient>
  <linearGradient id="linearGradient4859" y2="19.5" xlink:href="#linearGradient6215" gradientUnits="userSpaceOnUse" x2="27" gradientTransform="matrix(-.66667 0 0 1 41 -5)" y1="19.5" x1="24"/>
  <linearGradient id="linearGradient4867" y2="22.75" xlink:href="#linearGradient4877" gradientUnits="userSpaceOnUse" x2="51.449" y1="22.75" x1="35.934"/>
  <linearGradient id="linearGradient4891" y2="22.75" gradientUnits="userSpaceOnUse" x2="47.5" y1="22.75" x1="39">
   <stop id="stop14975" style="stop-color:#747474" offset="0"/>
   <stop id="stop14977" style="stop-color:#b0b0b0" offset=".62069"/>
   <stop id="stop14979" style="stop-color:#3f3f3f" offset="1"/>
  </linearGradient>
  <linearGradient id="linearGradient4899" y2="20.018" xlink:href="#linearGradient4877" gradientUnits="userSpaceOnUse" x2="42.401" gradientTransform="matrix(1.1613 0 0 1.134 -5.8595 -2.3828)" y1="15.05" x1="42.366"/>
  <linearGradient id="linearGradient4907" y2="20.99" xlink:href="#linearGradient4909" gradientUnits="userSpaceOnUse" x2="43.064" gradientTransform="matrix(1.1613 0 0 1.134 -5.8595 -2.3828)" y1="13.901" x1="43.161"/>
  <linearGradient id="linearGradient4925" y2="20.018" xlink:href="#linearGradient4877" gradientUnits="userSpaceOnUse" x2="42.401" gradientTransform="matrix(1.1613 0 0 1.134 -5.8595 4.6172)" y1="15.05" x1="42.366"/>
  <linearGradient id="linearGradient4927" y2="20.99" xlink:href="#linearGradient4909" gradientUnits="userSpaceOnUse" x2="43.064" gradientTransform="matrix(1.1613 0 0 1.134 -5.8595 4.6172)" y1="13.901" x1="43.161"/>
  <radialGradient id="radialGradient3018" gradientUnits="userSpaceOnUse" cy="46.87" cx="24.454" gradientTransform="matrix(.81573 0 0 .12746 3.0519 34.526)" r="19.614">
   <stop id="stop3439" offset="0"/>
   <stop id="stop3441" style="stop-opacity:0" offset="1"/>
  </radialGradient>
  <radialGradient id="radialGradient2461" gradientUnits="userSpaceOnUse" cy="4.625" cx="62.625" gradientTransform="matrix(1.1294 0 0 .28235 -58.729 20.694)" r="10.625">
   <stop id="stop8840" offset="0"/>
   <stop id="stop8842" style="stop-opacity:0" offset="1"/>
  </radialGradient>
  <radialGradient id="radialGradient2456" gradientUnits="userSpaceOnUse" cy="3.99" cx="23.896" gradientTransform="matrix(0 1.2316 -1.6257 0 18.487 -28.721)" r="20.397">
   <stop id="stop2778" style="stop-color:#8badea" offset="0"/>
   <stop id="stop2780" style="stop-color:#6396cd" offset=".26238"/>
   <stop id="stop2782" style="stop-color:#3b7caf" offset=".66094"/>
   <stop id="stop2784" style="stop-color:#194c70" offset="1"/>
  </radialGradient>
  <linearGradient id="linearGradient2458" y2="3.0816" gradientUnits="userSpaceOnUse" x2="18.379" gradientTransform="matrix(.51604 0 0 .51604 -.38499 -.38499)" y1="44.98" x1="18.379">
   <stop id="stop2788" style="stop-color:#1f4b6a" offset="0"/>
   <stop id="stop2790" style="stop-color:#4083c2" offset="1"/>
  </linearGradient>
  <linearGradient id="linearGradient2453" y2="5.4676" gradientUnits="userSpaceOnUse" x2="63.397" gradientTransform="matrix(1.0863 0 0 1.0862 -55.567 15.814)" y1="-12.489" x1="63.397">
   <stop id="stop4875" style="stop-color:#fff" offset="0"/>
   <stop id="stop4877" style="stop-color:#fff;stop-opacity:0" offset="1"/>
  </linearGradient>
 </defs>
 <rect id="rect4923" style="stroke-linejoin:round;color:black;stroke:url(#linearGradient4927);stroke-linecap:round;stroke-width:.5;display:block;fill:url(#linearGradient4925)" rx="1" ry="1" height="4.5" width="5.5" y="22.25" x="39.25"/>
 <rect id="rect15011" style="stroke-linejoin:round;color:black;stroke:url(#linearGradient4907);stroke-linecap:round;stroke-width:.5;display:block;fill:url(#linearGradient4899)" rx="1" ry="1" height="4.5" width="5.5" y="15.25" x="39.25"/>
 <path id="rect14772" style="color:black;stroke:#28390d;display:block;fill:url(#radialGradient4820)" d="m1.501 8.6302 0.0039 26.72c0 0.07888 0.088802 0.15021 0.18678 0.15021l10.812 0.01563-0.0039 4.8533c0 0.07127 0.0224 0.12634 0.12428 0.12677l18.756-0.0078c0.09242-0.0037 0.12428-0.06374 0.12428-0.12677l0.0039-4.8689 8.9924 0.0078v-26.997h-38.875c-0.078447 0.0043-0.13209 0.05255-0.12428 0.12677z"/>
 <path id="path14957" style="color:black;stroke:#305526;stroke-width:.5;display:block;fill:none" d="m25 18.472 0.06435 0.53094 2.4244 1.8922v4.6038h-17.059v3.9333"/>
 <path id="path14826" style="color:black;stroke:#305526;stroke-width:.5;display:block;fill:none" d="m15.504 37.961 0.05485-5.645 1.901-2.7914h14.009l2.0442-2.0245 0.04419-3.0336-8.0431-5.9613 8.1101 0.04703-0.1875-3.9897h-8.9375"/>
 <path id="path14842" style="color:black;stroke:#305526;stroke-width:.5;display:block;fill:none" d="m19.5 37.961 0.05485-5.7807 1.901-2.6665"/>
 <path id="path14844" style="color:black;stroke:#305526;stroke-width:.5;display:block;fill:none" d="m22.5 37.961 0.05485-5.7807 1.901-2.6665"/>
 <path id="path14846" style="color:black;stroke:#305526;stroke-width:.5;display:block;fill:none" d="m25.544 37.961 0.055-5.781 1.901-2.666"/>
 <path id="path14796" style="color:black;display:block;fill:url(#linearGradient4022)" d="m15.719 34.594c-0.565 0.124-0.719 0.664-0.719 0.906v4.4062h2v-4.406c0-0.277-0.20033-0.90625-1-0.90625-0.09801 0-0.20052-0.01775-0.28125 0zm3 0c-0.565 0.124-0.719 0.664-0.719 0.906v4.4062h2v-4.406c0-0.277-0.20033-0.90625-1-0.90625-0.09801 0-0.20052-0.01775-0.28125 0zm3.0312 0c-0.565 0.124-0.75 0.664-0.75 0.906v4.4062h2v-4.406c0-0.277-0.20033-0.90625-1-0.90625-0.09801 0-0.16927-0.01775-0.25 0zm3 0c-0.565 0.124-0.75 0.664-0.75 0.906v4.4062h2v-4.406c0-0.277-0.20033-0.90625-1-0.90625-0.09801 0-0.16927-0.01775-0.25 0zm3 0c-0.565 0.124-0.75 0.664-0.75 0.906v4.4062h2v-4.406c0-0.277-0.20033-0.90625-1-0.90625-0.09801 0-0.16927-0.01775-0.25 0z"/>
 <path id="path15029" style="color:black;stroke:#305526;stroke-width:.5;display:block;fill:none" d="m6.5 14.5-2.9688 1.0625v1.875 10.062l7 0.0625"/>
 <rect id="rect14857" style="color:black;stroke:#2e3436;display:block;fill:#555753" rx=".94194" ry=".94194" height="7.9305" width="16.056" y="12.504" x="7.4722"/>
 <rect id="rect14859" style="opacity:.17045;color:black;stroke:url(#linearGradient4005);display:block;fill:none" rx="0" ry="0" height="5.8817" width="14.116" y="13.511" x="8.4166"/>
 <path id="path15031" style="color:black;stroke:#305526;stroke-width:.5;display:block;fill:none" d="m6.5 16.5-2.9844 1.062"/>
 <path id="path15033" style="color:black;stroke:#305526;stroke-width:.5;display:block;fill:#98a332" d="m6.5 18.5-3 1.5"/>
 <path id="rect14875" style="color:black;display:block;fill:url(#linearGradient4859)" d="m23 14v1h2v-1h-2zm0 2v1h2v-1h-2zm0 2v1h2v-1h-2z"/>
 <path id="rect14901" style="color:black;display:block;fill:url(#linearGradient3982)" d="m9 11v2h1v-2h-1zm2 0v2h1v-2h-1zm2 0v2h1v-2h-1zm2 0v2h1v-2h-1zm2 0v2h1v-2h-1zm2 0v2h1v-2h-1zm2 0v2h1v-2h-1z"/>
 <path id="path14959" style="color:black;stroke:#305526;stroke-width:.5;display:block;fill:none" d="m9.4576 21.86 1.0607 3.6391h1.9445l-1.06-3.639"/>
 <path id="path14961" style="color:black;stroke:#305526;stroke-width:.5;display:block;fill:none" d="m13.458 21.86 1.0607 3.6391h1.9445l-1.062-3.639"/>
 <path id="path14963" style="color:black;stroke:#305526;stroke-width:.5;display:block;fill:none" d="m17.458 21.76 1.0607 3.7391h1.9445l-1.062-3.739"/>
 <path id="path14965" style="color:black;stroke:#305526;stroke-width:.5;display:block;fill:none" d="m21.458 21.782 1.0607 3.7171"/>
 <path id="rect14929" style="color:black;display:block;fill:url(#linearGradient3956)" d="m9 20v2h1v-2h-1zm2 0v2h1v-2h-1zm2 0v2h1v-2h-1zm2 0v2h1v-2h-1zm2 0v2h1v-2h-1zm2 0v2h1v-2h-1zm2 0v2h1v-2h-1z"/>
 <path id="path14989" style="opacity:.4;color:black;stroke:url(#radialGradient4830);display:block;fill:none" d="m2.5012 34.502 10.998-0.000056 0.01105 4.9831 17.001-0.0024-0.0029-4.9873 8.9915 0.0027c0.004-0.000409 0-24.994 0-24.994l-36.995-0.0036c0.00404 8.3386-0.0035 25-0.0035 25l0.0000739-0.000009z"/>
 <path id="path15001" style="stroke-linejoin:round;color:black;stroke:url(#linearGradient4891);stroke-linecap:square;stroke-width:3;display:block;fill:none" d="m40.5 42v-38.5h5.5"/>
 <path id="path15003" style="stroke-linejoin:round;color:black;stroke:url(#linearGradient4867);stroke-linecap:square;stroke-width:2;display:block;fill:none" d="m40.5 42v-38.5h5.5"/>
 <path id="path15005" style="stroke-linejoin:round;color:black;stroke:#334560;stroke-linecap:round;stroke-width:.5;display:block;fill:#477ec5" d="m35.486 14a1.4857 1.4857 0 1 1 -2.9714 0 1.4857 1.4857 0 1 1 2.9714 0z"/>
 <path id="path15007" style="stroke-linejoin:round;color:black;stroke:#334560;stroke-linecap:round;stroke-width:.5;display:block;fill:#477ec5" d="m35.486 18.986a1.4857 1.4857 0 1 1 -2.9714 0 1.4857 1.4857 0 1 1 2.9714 0z"/>
 <path id="path15009" style="stroke-linejoin:round;color:black;stroke:#334560;stroke-linecap:round;stroke-width:.5;display:block;fill:#477ec5" d="m35.486 24.014a1.4857 1.4857 0 1 1 -2.9714 0 1.4857 1.4857 0 1 1 2.9714 0z"/>
 <path id="path2983" style="opacity:.45;fill:url(#radialGradient3018)" d="m39 40.5c0 1.381-7.163 2.5-16 2.5s-16-1.119-16-2.5 7.163-2.5 16-2.5c8.8366 0 16 1.1193 16 2.5z"/>
 <path id="path14848" style="color:black;stroke:#305526;stroke-width:.5;display:block;fill:none" d="m28.5 37.961 0.05485-5.7807 1.901-2.6665"/>
 <g id="layer1" transform="translate(25,23)">
  <path id="path8836" style="opacity:.3;fill-rule:evenodd;fill:url(#radialGradient2461)" d="m24 22c0 1.6569-5.3726 3-12 3s-12-1.343-12-3c-2.5e-7 -1.657 5.3726-3 12-3s12 1.3431 12 3z"/>
  <path id="path2555" style="stroke-linejoin:round;stroke:url(#linearGradient2458);stroke-linecap:round;stroke-width:1.0037;fill:url(#radialGradient2456)" d="m12 1.5018c-5.7926 0-10.498 4.7057-10.498 10.498 0 5.7926 4.7057 10.498 10.498 10.498 5.7926 0 10.498-4.7057 10.498-10.498 0-5.7926-4.7057-10.498-10.498-10.498z"/>
  <path id="path2463" style="opacity:.4;stroke:url(#linearGradient2453);fill:none" d="m21.5 12c0 5.2469-4.2536 9.5003-9.4999 9.5003-5.2468 0-9.5001-4.2535-9.5001-9.5003 0-5.2466 4.2534-9.4997 9.5001-9.4997 5.2463 0 9.4999 4.253 9.4999 9.4997z"/>
  <path id="text3482" style="opacity:.2" d="m9 10.851c0.13386 0.36388 0.28452 0.65884 0.60545 0.25553 0.39788-0.23673 1.731-1.2744 1.5976-0.25798-0.42688 1.8808-0.94648 3.7418-1.3438 5.6285-0.41543 1.033 0.52793 1.9674 1.5129 1.2956 1.0469-0.43158 1.9478-1.1346 2.8681-1.7794-0.12558-0.30796-0.20927-0.75035-0.55625-0.34761-0.4556 0.20679-1.4507 1.1817-1.6355 0.37762 0.3827-2.0366 1.0918-3.9978 1.545-6.0181 0.417-0.9285-0.265-2.1023-1.284-1.3339-1.222 0.5321-2.243 1.4009-3.31 2.1799zm4.534-6.8494c-1.247-0.0661-1.898 1.9431-0.714 2.4929 0.961 0.3941 2.007-0.5915 1.773-1.5763-0.073-0.5128-0.534-0.9339-1.059-0.9166h-0.000001z"/>
  <path id="path3536" style="fill:#fff" d="m9 11.851c0.13386 0.36388 0.28452 0.65884 0.60545 0.25553 0.39788-0.23673 1.731-1.2744 1.5976-0.25798-0.42688 1.8808-0.94648 3.7418-1.3438 5.6285-0.41543 1.033 0.52793 1.9674 1.5129 1.2956 1.0469-0.43158 1.9478-1.1346 2.8681-1.7794-0.12558-0.30796-0.20927-0.75035-0.55625-0.34761-0.4556 0.20679-1.4507 1.1817-1.6355 0.37762 0.3827-2.0366 1.0918-3.9978 1.545-6.0181 0.417-0.929-0.265-2.1023-1.284-1.3339-1.222 0.5319-2.243 1.4009-3.31 2.1799zm4.5338-6.8497c-1.2464-0.066145-1.8981 1.9431-0.71361 2.4929 0.96093 0.39409 2.0072-0.59147 1.7725-1.5763-0.073-0.5125-0.534-0.9336-1.059-0.9163h-0.000001z"/>
 </g>
 <path id="rect14869" style="color:black;display:block;fill:url(#linearGradient4002)" d="m6 14v1h2v-1h-2zm0 2v1h2v-1h-2zm0 2v1h2v-1h-2z"/>
</svg>
