<?xml version="1.0" encoding="UTF-8" standalone="no"?>
<!-- Created with Inkscape (http://www.inkscape.org/) -->
<svg id="svg4405" xmlns="http://www.w3.org/2000/svg" height="48" width="48" version="1.1" xmlns:xlink="http://www.w3.org/1999/xlink">
 <defs id="defs4407">
  <linearGradient id="linearGradient3688">
   <stop id="stop3690" offset="0"/>
   <stop id="stop3692" style="stop-opacity:0" offset="1"/>
  </linearGradient>
  <linearGradient id="linearGradient2855" y2="43" gradientUnits="userSpaceOnUse" x2="24" gradientTransform="translate(0 .96744)" y1="5" x1="24">
   <stop id="stop3310-1-4" style="stop-color:#fff" offset="0"/>
   <stop id="stop3312-5-3" style="stop-color:#fff;stop-opacity:0" offset="1"/>
  </linearGradient>
  <radialGradient id="radialGradient2863" gradientUnits="userSpaceOnUse" cy="13.195" cx="12.011" gradientTransform="matrix(5.6342e-8 1.6801 -2.4235 1.0381e-8 44.478 -5.9267)" r="20">
   <stop id="stop3673" style="stop-color:#e384c6" offset="0"/>
   <stop id="stop3675" style="stop-color:#c467be" offset=".26238"/>
   <stop id="stop3677" style="stop-color:#93399a" offset=".70495"/>
   <stop id="stop3679" style="stop-color:#48274f" offset="1"/>
  </radialGradient>
  <linearGradient id="linearGradient2865" y2="3.899" gradientUnits="userSpaceOnUse" x2="24" gradientTransform="translate(0 .96744)" y1="44" x1="24">
   <stop id="stop3709" style="stop-color:#4c2a4e" offset="0"/>
   <stop id="stop3711" style="stop-color:#a85394" offset="1"/>
  </linearGradient>
  <radialGradient id="radialGradient2873" xlink:href="#linearGradient3688" gradientUnits="userSpaceOnUse" cy="43.5" cx="4.993" gradientTransform="matrix(2.0038 0 0 1.4 27.988 -17.4)" r="2.5"/>
  <radialGradient id="radialGradient2875" xlink:href="#linearGradient3688" gradientUnits="userSpaceOnUse" cy="43.5" cx="4.993" gradientTransform="matrix(2.0038 0 0 1.4 -20.012 -104.4)" r="2.5"/>
  <linearGradient id="linearGradient2877" y2="39.999" gradientUnits="userSpaceOnUse" x2="25.058" y1="47.028" x1="25.058">
   <stop id="stop3704" style="stop-opacity:0" offset="0"/>
   <stop id="stop3710" offset=".5"/>
   <stop id="stop3706" style="stop-opacity:0" offset="1"/>
  </linearGradient>
  <radialGradient id="radialGradient3832" gradientUnits="userSpaceOnUse" cy="9.4885" cx="24" gradientTransform="matrix(0 1.3556 -4.0521 0 74.398 -14.127)" r="18.5">
   <stop id="stop3826" style="stop-color:#fff" offset="0"/>
   <stop id="stop3828" style="stop-color:#fff;stop-opacity:0" offset="1"/>
  </radialGradient>
  <linearGradient id="linearGradient3930" y2="6" spreadMethod="reflect" gradientUnits="userSpaceOnUse" x2="17" y1="25" x1="17">
   <stop id="stop3926" style="stop-color:#fff" offset="0"/>
   <stop id="stop3928" style="stop-color:#fff;stop-opacity:0" offset="1"/>
  </linearGradient>
 </defs>
 <g id="g2036" transform="matrix(1.1 0 0 .44444 -2.4 25.111)">
  <g id="g3712" style="opacity:.4" transform="matrix(1.0526 0 0 1.2857 -1.2632 -13.429)">
   <rect id="rect2801" style="fill:url(#radialGradient2873)" height="7" width="5" y="40" x="38"/>
   <rect id="rect3696" style="fill:url(#radialGradient2875)" transform="scale(-1)" height="7" width="5" y="-47" x="-10"/>
   <rect id="rect3700" style="fill:url(#linearGradient2877)" height="7" width="28" y="40" x="10"/>
  </g>
 </g>
 <rect id="rect5505" style="stroke-linejoin:round;stroke:url(#linearGradient2865);stroke-linecap:round;fill:url(#radialGradient2863)" rx="2.2322" ry="2.2322" height="39" width="39" y="5.4674" x="4.5"/>
 <path id="path10957" style="opacity:.8;block-progression:tb;text-indent:0;color:#000000;text-transform:none;fill:#fff" d="m32.989 12.218-7.9375 13.406-6.9688-7.1562-6 12.844-6.875-14.031v5l6.7812 14.219 6.7188-14.25 6.8438 7 8.149-14.67 9.299 3.7v-1.781l-10.011-4.2815z"/>
 <rect id="rect6741" style="opacity:.4;stroke-linejoin:round;stroke:url(#linearGradient2855);stroke-linecap:round;fill:none" rx="1.3652" ry="1.3652" height="37" width="37" y="6.4674" x="5.5"/>
 <path id="path3782" style="opacity:.4;fill:url(#radialGradient3832)" d="m12.312 33.406-6.812-12.094v20.781c0 0.75632 0.61868 1.375 1.375 1.375h34.25c0.75632 0 1.375-0.61868 1.375-1.375v-24.343l-9.562-3.625-7.813 15.063-5.569-8.2-7.244 12.418z"/>
 <path id="path3834-9-0" style="opacity:.3;stroke-width:1px;color:#000000;stroke:url(#linearGradient3930);stroke-linecap:square;fill:none" d="m17.5 6.5v37-37zm13 0v37-37z"/>
 <path id="text3934" style="opacity:.4;fill:#fff" d="m7.3565 40.948c0.4751 0.1111 0.75697-0.07106 0.84137-0.55289 0.12829-0.42882 0.74539-0.11582 1.0935-0.21111 0.27271 0.1955 0.1751 0.9449 0.69945 0.764 0.5641 0.108-0.0782-0.586-0.0925-0.863-0.2926-0.698-0.5853-1.395-0.8779-2.093-0.5318-0.18-0.5663 0.385-0.7407 0.741-0.3078 0.738-0.6155 1.477-0.9233 2.215zm1.132-1.288c0.13498-0.19158 0.26996-1.2328 0.40494-0.64381 0.21605 0.4401 0.32388 0.80362-0.30778 0.64381h-0.066855-0.030307zm2.0729-1.668c0.05632 0.8541-0.1394 1.7566 0.16 2.568 0.83113 1.1074 2.1809-0.06114 1.836-1.164v-1.404c-0.56843-0.16292-0.61926 0.19177-0.548 0.66855-0.02722 0.53631 0.06576 1.0913-0.072 1.6115-0.89872 0.66899-0.8684-0.69385-0.828-1.2771-0.10627-0.29488 0.23052-1.0328-0.20056-1.0029h-0.34744zm3.6305 1.96h1.224c-0.85626 1.5645-2.9128-0.68043-1.3-1.4085 0.5401-0.44656 1.6927 0.82844 1.7652 0.12423-0.66003-1.1674-2.6601-0.84557-2.8778 0.48732-0.32391 1.2699 1.2441 2.3009 2.331 1.6651 0.46392-0.12004 1.3027-1.5507 0.3885-1.3801h-1.5309v0.512zm6.5441 0.152c0.04622 1.5432 2.6306 0.78967 1.7658-0.53856-0.44807-0.16842-1.7539-1.1063-0.58281-1.0164 0.40564 0.72268 1.0764-0.22538 0.1745-0.526-1.3632-0.58059-1.6877 1.6705-0.2635 1.705 0.8218 0.5724-0.46602 1.0324-0.65571 0.376h-0.43829zm2.2941 0.844h1.588c0.17932-0.59912-0.27757-0.56203-0.7354-0.524-0.43763 0.23686-0.4455-0.79344-0.10403-0.688 0.41569-0.0055 0.9878 0.14552 0.79544-0.46798-0.18973-0.2278-1.0328 0.19774-0.996-0.25658-0.18764-0.59792 0.30244-0.51812 0.7354-0.49544 0.50442 0.18029 0.40775-0.79976-0.09653-0.524-0.37259 0.04532-0.92606-0.09025-1.1869 0.06686v2.8891zm2.0781 0c0.56844 0.16292 0.61926-0.19177 0.548-0.66855-0.24865-0.94574 1.6148-0.10336 1.34-1.3755 0.009-1.0563-1.154-0.91749-1.888-0.912v2.956zm0.548-1.648c-0.12553-0.5634 0.07752-1.144 0.72-0.6245 0.29418 0.54065-0.32521 0.67167-0.72 0.6245zm6.1629 1.648c0.56843 0.16292 0.61926-0.19177 0.548-0.66855v-1.4795c0.412 0.716 0.824 1.432 1.236 2.148 0.52234 0.11778 0.73681-0.07232 0.612-0.60169v-2.3543c-0.56844-0.16292-0.61926 0.19177-0.548 0.66855v1.4835c-0.408-0.71733-0.816-1.4347-1.224-2.152-0.52163-0.11306-0.75238 0.06475-0.624 0.60169v2.3543zm4.3689-3.008c-1.2616-0.08917-2.0625 1.5791-1.2075 2.5073 0.74405 0.9775 2.5201 0.57544 2.6973-0.66543 0.21123-0.91564-0.54418-1.8671-1.4898-1.8419zm-0.008 0.528c1.6788 0.0075 0.86097 2.8016-0.5625 1.8352-0.80922-0.50418-0.40867-1.8881 0.5625-1.8352zm2.8714 2.48c0.54088 0.18114 0.57583-0.37602 0.73755-0.74818 0.28482-0.73594 0.56963-1.4719 0.85445-2.2078-0.51608-0.14323-0.71665 0.15996-0.79915 0.63021l-0.57285 1.6178c-0.26533-0.74933-0.53067-1.4987-0.796-2.248-0.62196-0.14157-0.59839 0.15811-0.33324 0.62292l0.90924 2.3331z"/>
</svg>
