<?xml version="1.0" encoding="UTF-8" standalone="no"?>
<!-- Created with Inkscape (http://www.inkscape.org/) -->
<svg id="svg11300" style="enable-background:new" xmlns="http://www.w3.org/2000/svg" height="48" width="48" version="1.0" xmlns:xlink="http://www.w3.org/1999/xlink">
 <defs id="defs3">
  <linearGradient id="linearGradient12093-170">
   <stop id="stop3384" style="stop-color:#fff" offset="0"/>
   <stop id="stop3386" style="stop-color:#fff;stop-opacity:0" offset="1"/>
  </linearGradient>
  <linearGradient id="linearGradient3600">
   <stop id="stop3602" style="stop-color:#f4f4f4" offset="0"/>
   <stop id="stop3604" style="stop-color:#dbdbdb" offset="1"/>
  </linearGradient>
  <linearGradient id="linearGradient3931">
   <stop id="stop3933" style="stop-color:#8d8f8a" offset="0"/>
   <stop id="stop3935" style="stop-color:#cbcbcb" offset="1"/>
  </linearGradient>
  <linearGradient id="linearGradient5060">
   <stop id="stop5062" offset="0"/>
   <stop id="stop5064" style="stop-opacity:0" offset="1"/>
  </linearGradient>
  <linearGradient id="linearGradient5239" y2="609.51" gradientUnits="userSpaceOnUse" x2="302.86" gradientTransform="matrix(.070414 0 0 .015375 -1.4497 38.629)" y1="366.65" x1="302.86">
   <stop id="stop5050" style="stop-opacity:0" offset="0"/>
   <stop id="stop5056" offset=".5"/>
   <stop id="stop5052" style="stop-opacity:0" offset="1"/>
  </linearGradient>
  <radialGradient id="radialGradient5241" xlink:href="#linearGradient5060" gradientUnits="userSpaceOnUse" cy="486.65" cx="605.71" gradientTransform="matrix(-.024097 0 0 .015375 21.522 38.629)" r="117.14"/>
  <radialGradient id="radialGradient5243" xlink:href="#linearGradient5060" gradientUnits="userSpaceOnUse" cy="486.65" cx="605.71" gradientTransform="matrix(.024097 0 0 .015375 26.478 38.629)" r="117.14"/>
  <linearGradient id="linearGradient5257" y2="91.973" gradientUnits="userSpaceOnUse" x2="-164.72" gradientTransform="matrix(.39366 0 0 .38976 148.38 -5.4329)" y1="99.667" x1="-172.65">
   <stop id="stop3372" style="stop-color:#242424;stop-opacity:.99216" offset="0"/>
   <stop id="stop3374" style="stop-color:#656565" offset="1"/>
  </linearGradient>
  <linearGradient id="linearGradient5259" y2="29.484" gradientUnits="userSpaceOnUse" x2="31.364" gradientTransform="matrix(1.0113 0 0 1.0013 46.85 .62072)" y1="27.988" x1="32.893">
   <stop id="stop3378" style="stop-color:#575757" offset="0"/>
   <stop id="stop3380" style="stop-color:#333" offset="1"/>
  </linearGradient>
  <linearGradient id="linearGradient5261" y2="67.35" xlink:href="#linearGradient12093-170" gradientUnits="userSpaceOnUse" x2="201.87" gradientTransform="matrix(.39366 0 0 .38976 -3.2116 -1.6663)" y1="146.15" x1="277.57"/>
  <radialGradient id="radialGradient5263" gradientUnits="userSpaceOnUse" cy="21.818" cx="18.241" r="8.3085">
   <stop id="stop3408" style="stop-color:#a1a1a1;stop-opacity:.20784" offset="0"/>
   <stop id="stop3410" style="stop-color:#a1a1a1;stop-opacity:.67843" offset="1"/>
  </radialGradient>
  <radialGradient id="radialGradient5265" gradientUnits="userSpaceOnUse" cy="13.078" cx="15.414" gradientTransform="matrix(3.071 0 0 2.3629 13.987 -22.539)" r="6.6562">
   <stop id="stop3390" style="stop-color:#fff" offset="0"/>
   <stop id="stop3392" style="stop-color:#fff;stop-opacity:.24762" offset="1"/>
  </radialGradient>
  <linearGradient id="linearGradient5267" y2="11.949" gradientUnits="userSpaceOnUse" x2="173.1" gradientTransform="matrix(.40377 0 0 .39977 -4.8365 -1.5264)" y1="75.319" x1="173.1">
   <stop id="stop3396" style="stop-color:#343434;stop-opacity:.97647" offset="0"/>
   <stop id="stop3398" style="stop-color:#929292" offset="1"/>
  </linearGradient>
  <linearGradient id="linearGradient5269" y2="4.5363" gradientUnits="userSpaceOnUse" x2="41.485" gradientTransform="matrix(.40377 0 0 .39977 47.537 1.4823)" y1="68.292" x1="41.542">
   <stop id="stop3402" style="stop-color:#333" offset="0"/>
   <stop id="stop3404" style="stop-color:#333;stop-opacity:.61224" offset="1"/>
  </linearGradient>
  <linearGradient id="linearGradient5271" y2="11.949" gradientUnits="userSpaceOnUse" x2="173.1" gradientTransform="matrix(.38453 0 0 .38072 -1.3998 -.93513)" y1="75.319" x1="173.1">
   <stop id="stop3366" style="stop-color:#979797" offset="0"/>
   <stop id="stop3368" style="stop-opacity:.34118" offset="1"/>
  </linearGradient>
  <linearGradient id="linearGradient5283" y2="40.5" xlink:href="#linearGradient12093-170" gradientUnits="userSpaceOnUse" x2="13.683" gradientTransform="matrix(1.0051 0 0 1 -1.1273 1)" y1="38" x1="13.683"/>
  <linearGradient id="linearGradient5286" y2="41.437" xlink:href="#linearGradient3600" gradientUnits="userSpaceOnUse" x2="16.551" gradientTransform="translate(-1 1)" y1="37" x1="16.551"/>
  <linearGradient id="linearGradient5288" y2="38" xlink:href="#linearGradient3931" gradientUnits="userSpaceOnUse" x2="18.986" y1="45" x1="19.291"/>
  <linearGradient id="linearGradient5291" y2="34.331" xlink:href="#linearGradient12093-170" gradientUnits="userSpaceOnUse" x2="21" gradientTransform="translate(-1 1)" y1="5" x1="20.625"/>
  <linearGradient id="linearGradient5295" y2="44" xlink:href="#linearGradient3600" gradientUnits="userSpaceOnUse" x2="17.412" gradientTransform="translate(-1 1)" y1="4" x1="17.5"/>
  <linearGradient id="linearGradient5297" y2="2.2842" xlink:href="#linearGradient3931" gradientUnits="userSpaceOnUse" x2="24" y1="45" x1="23.059"/>
 </defs>
 <g id="g2877" transform="matrix(1.05 0 0 1.6069 -1.2 -30.132)">
  <rect id="rect2879" style="opacity:.40206;fill:url(#linearGradient5239)" height="3.7339" width="34" y="44.266" x="7"/>
  <path id="path2881" style="opacity:.40206;fill:url(#radialGradient5241)" d="m7 44.266v3.7337c-1.2409 0.007-3-0.83652-3-1.8671 0-1.0305 1.3848-1.8666 3-1.8666z"/>
  <path id="path2883" style="opacity:.40206;fill:url(#radialGradient5243)" d="m41 44.266v3.7337c1.2409 0.007 3-0.83652 3-1.8671 0-1.0305-1.3848-1.8666-3-1.8666z"/>
 </g>
 <path id="rect1869" style="stroke-linejoin:round;stroke:url(#linearGradient5297);stroke-linecap:round;fill:url(#linearGradient5295)" d="m8 5.5c-0.83536 0-1.5 3.5731-1.5 8v31h35v-31c0-4.4269-0.66464-8-1.5-8h-1.6875l0.4375 1h-2l-0.4375-1h-24.656l-0.4375 1h-2l0.4375-1h-1.6563zm0.75 3h2l-0.1875 2h-2l0.1875-2zm28.438 0h2l0.21875 2h-2l-0.21875-2zm-28.688 4h2v2h-2v-2zm29 0h2v2h-2v-2zm-29 4h2v2h-2v-2zm29 0h2v2h-2v-2zm-29 4h2v2h-2v-2zm29 0h2v2h-2v-2zm-29 4h2v2h-2v-2zm29 0h2v2h-2v-2zm-29 4h2v2h-2v-2zm29 0h2v2h-2v-2zm-29 4h2v2h-2v-2zm29 0h2v2h-2v-2zm-29 4h2v2h-2v-2zm29 0h2v2h-2v-2z"/>
 <path id="rect2981" style="opacity:0.03" d="m8.0625 6c-0.040437 0.043827-0.11144 0.17276-0.1875 0.34375-0.076063 0.17099-0.14477 0.38813-0.21875 0.65625h1.5625c-0.16717 0.00173-0.31207-0.08062-0.40625-0.21875s-0.12518-0.31376-0.0625-0.46875l0.125-0.3125h-0.8125zm3.9375 0-0.3125 0.6875c-0.07712 0.19065-0.2631 0.31464-0.46875 0.3125h25.531c-0.20564 0.00214-0.39163-0.12185-0.46875-0.3125l-0.3125-0.6875h-23.969zm27.094 0 0.125 0.3125c0.06268 0.15499 0.03168 0.33062-0.0625 0.46875s-0.23908 0.22048-0.40625 0.21875h1.5938c-0.07398-0.26812-0.14269-0.48526-0.21875-0.65625s-0.14706-0.29992-0.1875-0.34375h-0.84375zm-31.844 3c-0.0795 0.6014-0.1097 1.285-0.1562 2h1.4688c-0.1382 0.000255-0.28028-0.05561-0.375-0.15625-0.094717-0.10064-0.13362-0.23707-0.125-0.375l0.125-1.4688h-0.9375zm3.9688 0-0.15625 1.5313c-0.01655 0.26386-0.23562 0.46924-0.5 0.46875h26.844c-0.25346 0.002-0.4683-0.18602-0.5-0.4375l-0.15625-1.5625h-25.531zm28.531 0 0.15625 1.4375c0.01801 0.14305-0.02921 0.29849-0.125 0.40625s-0.23082 0.15736-0.375 0.15625h1.5c-0.04654-0.71479-0.07678-1.3986-0.15625-2h-1zm-32.75 4c-0.00211 0.16876 0 0.32842 0 0.5v1.5h1.5c-0.2761 0-0.5-0.224-0.5-0.5v-1.5h-1zm4 0v1.5c-0.000028 0.27613-0.22387 0.49997-0.5 0.5h27c-0.27613-0.000028-0.49997-0.22387-0.5-0.5v-1.5h-26zm29 0v1.5c-0.000028 0.27613-0.22387 0.49997-0.5 0.5h1.5v-1.5c0-0.17158 0.0021-0.33124 0-0.5h-1zm-33 4v2h1.5c-0.2761 0-0.5-0.224-0.5-0.5v-1.5h-1zm4 0v1.5c-0.000028 0.27613-0.22387 0.49997-0.5 0.5h27c-0.27613-0.000028-0.49997-0.22387-0.5-0.5v-1.5h-26zm29 0v1.5c-0.000028 0.27613-0.22387 0.49997-0.5 0.5h1.5v-2h-1zm-33 4v2h1.5c-0.2761 0-0.5-0.224-0.5-0.5v-1.5h-1zm4 0v1.5c-0.000028 0.27613-0.22387 0.49997-0.5 0.5h27c-0.27613-0.000028-0.49997-0.22387-0.5-0.5v-1.5h-26zm29 0v1.5c-0.000028 0.27613-0.22387 0.49997-0.5 0.5h1.5v-2h-1zm-33 4v2h1.5c-0.2761 0-0.5-0.224-0.5-0.5v-1.5h-1zm4 0v1.5c-0.000028 0.27613-0.22387 0.49997-0.5 0.5h27c-0.27613-0.000028-0.49997-0.22387-0.5-0.5v-1.5h-26zm29 0v1.5c-0.000028 0.27613-0.22387 0.49997-0.5 0.5h1.5v-2h-1zm-33 4v2h1.5c-0.2761 0-0.5-0.224-0.5-0.5v-1.5h-1zm4 0v1.5c-0.000028 0.27613-0.22387 0.49997-0.5 0.5h27c-0.27613-0.000028-0.49997-0.22387-0.5-0.5v-1.5h-26zm29 0v1.5c-0.000028 0.27613-0.22387 0.49997-0.5 0.5h1.5v-2h-1zm-33 4v2h1.5c-0.2761 0-0.5-0.224-0.5-0.5v-1.5h-1zm4 0v1.5c-0.000028 0.27613-0.22387 0.49997-0.5 0.5h27c-0.27613-0.000028-0.49997-0.22387-0.5-0.5v-1.5h-26zm29 0v1.5c-0.000028 0.27613-0.22387 0.49997-0.5 0.5h1.5v-2h-1zm-33 4v2h1.5c-0.2761 0-0.5-0.224-0.5-0.5v-1.5h-1zm4 0v1.5c-0.000028 0.27613-0.22387 0.49997-0.5 0.5h27c-0.27613-0.000028-0.49997-0.22387-0.5-0.5v-1.5h-26zm29 0v1.5c-0.000028 0.27613-0.22387 0.49997-0.5 0.5h1.5v-2h-1z"/>
 <path id="path3026" style="opacity:.5;stroke-linejoin:round;stroke:url(#linearGradient5291);stroke-linecap:round;fill:none" d="m12.313 6.5c-0.1694 0.73589-0.8742 1.1502-1.6037 1-0.83058-0.081708-2.1087 0.33545-2.4588-0.71875-1.0795 3.6984-0.66387 7.6034-0.75 11.41v25.309h33c-0.0175-10.525 0.03568-21.052-0.02782-31.577-0.09494-1.5488-0.16949-4.2185-0.81026-5.0445-0.45952 0.98018-1.6981 0.51256-2.5436 0.62107-0.69438 0.14063-1.2963-0.34121-1.4621-1h-23.344z"/>
 <path id="rect1871" style="stroke-linejoin:round;stroke:url(#linearGradient5288);stroke-linecap:round;fill:url(#linearGradient5286)" d="m4.5 38.5c0 3.324 0.5 6 2 6h35c1.5 0 2-2.676 2-6h-39zm2 2h2c-0.02747 1.0308 0.08505 1.6002 0.25 2h-2c-0.18132-0.37271-0.21437-0.98711-0.25-2zm33 0h2c-0.03563 1.0129-0.06868 1.6273-0.25 2h-2c0.16495-0.39982 0.27747-0.96918 0.25-2z"/>
 <path id="path3030" style="opacity:.5;stroke:url(#linearGradient5283);stroke-linecap:round;fill:none" d="m5.5 39.5c0.12626 1.3362-0.038535 2.8697 0.83115 3.9894 11.751 0.02471 23.506 0.0035 35.258 0.01059 0.88325-0.8042 0.75244-2.2471 0.88013-3.3671 0.36591-0.93862-0.65279-0.55987-1.1957-0.63293h-35.774z"/>
 <g id="g5931" style="enable-background:new" transform="matrix(.74413 0 0 .74413 -24.649 5.1049)">
  <path id="path11112" style="stroke-linejoin:round;fill-rule:evenodd;stroke:url(#linearGradient5259);stroke-linecap:round;stroke-width:1.2579;fill:url(#linearGradient5257)" d="m75.181 23.578 17.602 16.22-2.44 3.278-17.538-17.545 2.376-1.953z"/>
  <path id="path11122" style="fill:url(#linearGradient5261);fill-rule:evenodd" d="m90.372 42.011-14.116-17.427 17.079 14.839-2.963 2.588z"/>
  <path id="path13082" style="fill:#3e3e3e" d="m247.91 110.29a4.8668 2.6562 0 1 1 -9.7337 0 4.8668 2.6562 0 1 1 9.7337 0z" transform="matrix(.37019 -.41504 .47451 .30929 -50.505 108.38)"/>
  <path id="path4340" style="fill-rule:evenodd;fill:url(#radialGradient5263)" d="m25.898 18.478a8.3085 8.3085 0 1 1 -16.617 0 8.3085 8.3085 0 1 1 16.617 0z" transform="matrix(1.489 0 0 1.4384 39.491 -11.197)"/>
  <path id="path4342" style="opacity:.83422;fill-rule:evenodd;fill:url(#radialGradient5265)" d="m65.171 5.0939c-6.1677 0-11.162 4.4243-11.162 9.888 0 1.5779 0.13829 3.2078 0.88072 4.532 1.4833 0.48432 3.4184 0.63586 5.0908 0.63586 7.3086 0 13.595-5.3677 14.046-11.742-2.051-2.1462-5.436-3.314-8.856-3.314z"/>
  <path id="path2298" style="stroke-linejoin:round;stroke:url(#linearGradient5269);stroke-linecap:round;stroke-width:1.2902;fill:url(#linearGradient5267)" d="m65.408 3.4479c-7.5976 0-13.766 5.6317-13.766 12.568 0 6.9362 6.1685 12.568 13.766 12.568 7.5976 0 13.766-5.6317 13.766-12.568 0-6.9362-6.1685-12.568-13.766-12.568zm0.16403 0.82453c6.7999 0 12.328 5.0357 12.328 11.244 0 6.2079-5.5278 11.244-12.328 11.244-6.7999 0.000001-12.315-5.0357-12.315-11.244 0-6.2079 5.5151-11.244 12.315-11.244z"/>
  <path id="path4267" style="fill:url(#linearGradient5271)" d="m65.497 3.8102c-7.2355 0-13.097 5.3625-13.097 11.968 0 6.6057 5.8618 11.968 13.097 11.968 7.2355 0 13.11-5.3625 13.11-11.968 0-6.6057-5.8744-11.968-13.11-11.968zm0.07571 0.46224c6.7999 0 11.788 5.0357 11.788 11.244 0 6.2079-4.9885 10.71-11.788 10.71-6.7999 0.000001-11.866-4.5018-11.866-10.71 0-6.2079 5.0658-11.244 11.866-11.244z"/>
 </g>
</svg>
