<?xml version="1.0" encoding="UTF-8" standalone="no"?>
<!-- Created with Inkscape (http://www.inkscape.org/) -->
<svg id="svg2476" xmlns="http://www.w3.org/2000/svg" height="48" width="48" version="1.0" xmlns:xlink="http://www.w3.org/1999/xlink">
 <defs id="defs2478">
  <linearGradient id="linearGradient5060">
   <stop id="stop5062" offset="0"/>
   <stop id="stop5064" style="stop-opacity:0" offset="1"/>
  </linearGradient>
  <filter id="filter3212" height="1.3287" width="1.2969" color-interpolation-filters="sRGB" y="-.16434" x="-.14846">
   <feGaussianBlur id="feGaussianBlur3214" stdDeviation="0.77391625"/>
  </filter>
  <linearGradient id="linearGradient3858">
   <stop id="stop3860" style="stop-color:#a0a0a0" offset="0"/>
   <stop id="stop3862" style="stop-color:#4a4a4a" offset="1"/>
  </linearGradient>
  <linearGradient id="linearGradient2793">
   <stop id="stop2795" style="stop-color:#868688" offset="0"/>
   <stop id="stop2797" style="stop-color:#d9d9da" offset="1"/>
  </linearGradient>
  <linearGradient id="linearGradient2671" y2="43.254" gradientUnits="userSpaceOnUse" x2="21" y1="-1.2163" x1="21">
   <stop id="stop4546" style="stop-color:#fff" offset="0"/>
   <stop id="stop4548" style="stop-color:#fff;stop-opacity:0" offset="1"/>
  </linearGradient>
  <linearGradient id="linearGradient2674" y2="-24.582" spreadMethod="reflect" gradientUnits="userSpaceOnUse" x2="102.31" gradientTransform="matrix(.45813 0 0 .43889 -23.62 24.933)" y1="-2.3925" x1="102.31">
   <stop id="stop3846" style="stop-color:#a5a6a8" offset="0"/>
   <stop id="stop3848" style="stop-color:#e8e8e8" offset="1"/>
  </linearGradient>
  <linearGradient id="linearGradient2676" y2="-2.3758" gradientUnits="userSpaceOnUse" x2="109.96" gradientTransform="matrix(.45813 0 0 .43889 -23.62 24.933)" y1="-24.911" x1="109.96">
   <stop id="stop2511" style="stop-color:#b3b3b3" offset="0"/>
   <stop id="stop2513" style="stop-color:#dadada" offset="1"/>
  </linearGradient>
  <linearGradient id="linearGradient2679" y2="-7.6657" xlink:href="#linearGradient2793" spreadMethod="reflect" gradientUnits="userSpaceOnUse" x2="89.424" gradientTransform="matrix(.45783 0 0 .43229 -23.592 28.912)" y1="-7.6657" x1="103.95"/>
  <linearGradient id="linearGradient2681" y2="27.546" xlink:href="#linearGradient3858" gradientUnits="userSpaceOnUse" x2="89.018" gradientTransform="translate(-70.157 .45389)" y1="22.537" x1="89.018"/>
  <linearGradient id="linearGradient2685" y2="-7.6657" xlink:href="#linearGradient2793" spreadMethod="reflect" gradientUnits="userSpaceOnUse" x2="89.424" gradientTransform="matrix(.45783 0 0 .43229 -23.592 34.912)" y1="-7.6657" x1="103.95"/>
  <linearGradient id="linearGradient2687" y2="27.546" xlink:href="#linearGradient3858" gradientUnits="userSpaceOnUse" x2="89.018" gradientTransform="translate(-70.157 6.4539)" y1="22.537" x1="89.018"/>
  <linearGradient id="linearGradient2691" y2="-7.6657" xlink:href="#linearGradient2793" spreadMethod="reflect" gradientUnits="userSpaceOnUse" x2="89.424" gradientTransform="matrix(.45783 0 0 .43229 -23.592 40.912)" y1="-7.6657" x1="103.95"/>
  <linearGradient id="linearGradient2693" y2="27.546" xlink:href="#linearGradient3858" gradientUnits="userSpaceOnUse" x2="89.018" gradientTransform="translate(-70.157 12.454)" y1="22.537" x1="89.018"/>
  <linearGradient id="linearGradient2696" y2="5.4565" gradientUnits="userSpaceOnUse" x2="36.358" gradientTransform="matrix(.99770 0 0 1.0407 .16380 .89421)" y1="8.059" x1="32.892">
   <stop id="stop8591" style="stop-color:#fefefe" offset="0"/>
   <stop id="stop8593" style="stop-color:#cbcbcb" offset="1"/>
  </linearGradient>
  <linearGradient id="linearGradient2700" y2="46.017" gradientUnits="userSpaceOnUse" x2="24" gradientTransform="matrix(1 0 0 .97778 0 1.0333)" y1="2" x1="24">
   <stop id="stop3213" style="stop-color:#fff" offset="0"/>
   <stop id="stop3215" style="stop-color:#fff;stop-opacity:0" offset="1"/>
  </linearGradient>
  <radialGradient id="radialGradient2703" gradientUnits="userSpaceOnUse" cy="41.636" cx="23.335" gradientTransform="matrix(.57452 0 0 .22094 10.594 27.801)" r="22.627">
   <stop id="stop23421" offset="0"/>
   <stop id="stop23423" style="stop-opacity:0" offset="1"/>
  </radialGradient>
  <radialGradient id="radialGradient2706" gradientUnits="userSpaceOnUse" cy="112.3" cx="102" gradientTransform="matrix(.36170 0 0 -.39078 .85106 49.517)" r="139.56">
   <stop id="stop41" style="stop-color:#b7b8b9" offset="0"/>
   <stop id="stop47" style="stop-color:#ececec" offset=".18851"/>
   <stop id="stop49" style="stop-color:#fafafa;stop-opacity:0" offset=".25718"/>
   <stop id="stop51" style="stop-color:#fff;stop-opacity:0" offset=".30111"/>
   <stop id="stop53" style="stop-color:#fafafa;stop-opacity:0" offset=".53130"/>
   <stop id="stop55" style="stop-color:#ebecec;stop-opacity:0" offset=".84490"/>
   <stop id="stop57" style="stop-color:#e1e2e3;stop-opacity:0" offset="1"/>
  </radialGradient>
  <linearGradient id="linearGradient2709" y2="47.013" gradientUnits="userSpaceOnUse" x2="25.132" gradientTransform="matrix(1 0 0 .95617 -1.0065e-7 .085078)" y1=".98521" x1="25.132">
   <stop id="stop3602" style="stop-color:#f4f4f4" offset="0"/>
   <stop id="stop3604" style="stop-color:#dbdbdb" offset="1"/>
  </linearGradient>
  <linearGradient id="linearGradient2711" y2="2.9062" gradientUnits="userSpaceOnUse" x2="-51.786" gradientTransform="matrix(.80750 0 0 .89483 59.41 -.98055)" y1="50.786" x1="-51.786">
   <stop id="stop3106" style="stop-color:#aaa" offset="0"/>
   <stop id="stop3108" style="stop-color:#c8c8c8" offset="1"/>
  </linearGradient>
  <radialGradient id="radialGradient2714" xlink:href="#linearGradient5060" gradientUnits="userSpaceOnUse" cy="486.65" cx="605.71" gradientTransform="matrix(.023040 0 0 0.0147 26.361 39.04)" r="117.14"/>
  <radialGradient id="radialGradient2717" xlink:href="#linearGradient5060" gradientUnits="userSpaceOnUse" cy="486.65" cx="605.71" gradientTransform="matrix(-.023040 0 0 0.0147 21.623 39.04)" r="117.14"/>
  <linearGradient id="linearGradient2720" y2="609.51" gradientUnits="userSpaceOnUse" x2="302.86" gradientTransform="matrix(.067325 0 0 0.0147 -.34114 39.04)" y1="366.65" x1="302.86">
   <stop id="stop5050" style="stop-opacity:0" offset="0"/>
   <stop id="stop5056" offset=".5"/>
   <stop id="stop5052" style="stop-opacity:0" offset="1"/>
  </linearGradient>
  <radialGradient id="radialGradient3740" gradientUnits="userSpaceOnUse" cy="5.8834" cx="16.961" gradientTransform="matrix(0 2 -1.3459 0 28.919 -35.008)" r="22.105">
   <stop id="stop3722" style="stop-color:#8badea" offset="0"/>
   <stop id="stop3728" style="stop-color:#6396cd" offset=".5"/>
   <stop id="stop3730" style="stop-color:#3b7caf" offset=".84091"/>
   <stop id="stop3724" style="stop-color:#194c70" offset="1"/>
  </radialGradient>
  <linearGradient id="linearGradient3769" y2="-1.0863" gradientUnits="userSpaceOnUse" x2="10.55" y1="43.124" x1="10.148">
   <stop id="stop3765" style="stop-color:#1f4b6a" offset="0"/>
   <stop id="stop3767" style="stop-color:#4083c2" offset="1"/>
  </linearGradient>
 </defs>
 <rect id="rect2879" style="opacity:.3;fill:url(#linearGradient2720)" height="3.5701" width="32.508" y="44.43" x="7.7378"/>
 <path id="path2881" style="opacity:.3;fill:url(#radialGradient2717)" d="m7.7378 44.43v3.5699c-1.1865 0.0067-2.8684-0.79982-2.8684-1.7852 0-0.98533 1.324-1.7847 2.8684-1.7847z"/>
 <path id="path2883" style="opacity:.3;fill:url(#radialGradient2714)" d="m40.246 44.43v3.5699c1.1865 0.0067 2.8684-0.79982 2.8684-1.7852 0-0.98533-1.324-1.7847-2.8684-1.7847z"/>
 <path id="path4160" style="stroke-linejoin:round;stroke:url(#linearGradient2711);stroke-width:.99992;fill:url(#linearGradient2709)" d="m6.5 2.4972h24.061c1.4069 0.47465 8.9655 5.8822 10.939 9.6264v34.379h-35v-44.006z"/>
 <path id="path4191" style="fill:url(#radialGradient2706)" d="m7.3617 46c-0.1993 0-0.3617-0.17546-0.3617-0.39078v-42.204c0-0.21571 0.1624-0.39078 0.3617-0.39078 7.4831 0.10801 15.776-0.16158 23.25 0.026895l10.282 8.8659 0.106 33.702c0 0.216-0.162 0.391-0.362 0.391h-33.276z"/>
 <path id="path23417" style="opacity:.3;fill-rule:evenodd;fill:url(#radialGradient2703)" d="m37 37c0.0011 2.7613-5.8195 5-13 5s-13.001-2.2387-13-5c-0.0011-2.7613 5.8195-5 13-5s13.001 2.2387 13 5z"/>
 <path id="path2435" style="opacity:.6;stroke-linejoin:round;stroke:url(#linearGradient2700);stroke-width:.99992;fill:none" d="m40.5 12.259v33.263h-33v-42.045h22.866"/>
 <path id="path12038" style="opacity:.4;fill-rule:evenodd;filter:url(#filter3212)" d="m28.617 2.9213c4.2825 0 2.1532 8.4832 2.1532 8.4832s10.358-1.8023 10.358 2.8187c0-2.6097-11.302-10.729-12.511-11.302z"/>
 <path id="path4474" style="fill:url(#linearGradient2696);fill-rule:evenodd" d="m28.617 2.9213c3.1865 0 2.3358 7.6619 2.3358 7.6619s10.175-0.98105 10.175 3.64c0-1.1259 0.08591-1.9322-0.13378-2.2836-1.5783-2.5242-8.3955-8.1884-10.857-8.9308-0.18422-0.055555-0.5927-0.087535-1.5198-0.087535z"/>
 <path id="path4834" style="stroke:url(#linearGradient2693);fill:url(#linearGradient2691)" d="m35.49 35.068c0 2.4466-5.1487 4.4322-11.493 4.4322-6.344 0-11.493-1.9856-11.493-4.4322 0.11446-5.4694-1.4047-4.34 11.493-4.4322 13.193-0.0952 11.331-1.1267 11.493 4.4322z"/>
 <path id="path4838" style="stroke:#d8d8d8;fill:#868688" d="m35.5 31c0 2.4853-5.1487 4.5-11.5 4.5s-11.5-2.0147-11.5-4.5 5.1487-4.5 11.5-4.5 11.5 2.0147 11.5 4.5z"/>
 <path id="path3866" style="stroke:url(#linearGradient2687);fill:url(#linearGradient2685)" d="m35.49 29.068c0 2.4466-5.1487 4.4322-11.493 4.4322-6.344 0-11.493-1.9856-11.493-4.4322 0.11446-5.4694-1.4047-4.34 11.493-4.4322 13.193-0.0952 11.331-1.1267 11.493 4.4322z"/>
 <path id="path3868" style="stroke:#d8d8d8;fill:#868688" d="m35.5 25c0 2.4853-5.1487 4.5-11.5 4.5s-11.5-2.0147-11.5-4.5 5.1487-4.5 11.5-4.5 11.5 2.0147 11.5 4.5z"/>
 <path id="path3878" style="stroke:url(#linearGradient2681);fill:url(#linearGradient2679)" d="m35.49 23.068c0 2.4466-5.1487 4.4322-11.493 4.4322-6.344 0-11.493-1.9856-11.493-4.4322 0.11446-5.4694-1.4047-4.34 11.493-4.4322 13.193-0.0952 11.331-1.1267 11.493 4.4322z"/>
 <path id="path3880" style="stroke:url(#linearGradient2676);fill:url(#linearGradient2674)" d="m35.5 19c0 2.4853-5.1487 4.5-11.5 4.5s-11.5-2.0147-11.5-4.5 5.1487-4.5 11.5-4.5 11.5 2.0147 11.5 4.5z"/>
 <g id="g2663" transform="translate(76.808 -2.8916)">
  <circle id="circle51" style="stroke:url(#linearGradient3769);stroke-width:2.2105;fill:url(#radialGradient3740)" transform="matrix(.45238 0 0 .45238 -76.308 3.383)" cy="21.019" cx="21" r="21"/>
  <path id="path4552" style="fill:#173561" d="m-75.803 14.833c-0.08842 0.01047 6.6163-1.0729 9.0878 6.0584 1.5416-6.6175 8.9658-6.6789 8.9038-6.6759 0.17685 0-6.1141-1.6745-8.9465 2.5882-2.8747-3.7634-9.2488-1.9707-9.045-1.9707z"/>
  <path id="path53" style="fill:#fff" d="m-75.895 13.833c-0.08842 0.01047 6.6163-1.0729 9.0878 6.0584 1.5416-6.6175 8.9658-6.6789 8.9038-6.6759 0.17685 0-6.1141-1.6745-8.9465 2.5882-2.8747-3.7634-9.2488-1.9707-9.045-1.9707z"/>
  <path id="path4554" style="fill:#173561" d="m-70.808 9.4139s3.9913-0.86333 5.5564 3.4776c0.98054-4.0481 5.4436-3.7033 5.4436-3.7033s-3.6304-1.4157-5.4702 1.2462c-1.881-2.3686-5.5313-1.0205-5.5298-1.0205z"/>
  <path id="path55" style="fill:#fff" d="m-70.808 8.4139s3.9913-0.86333 5.5564 3.4776c0.98054-4.0481 5.4436-3.7033 5.4436-3.7033s-3.6304-1.4157-5.4702 1.2462c-1.881-2.3686-5.5313-1.0205-5.5298-1.0205z"/>
  <circle id="circle4534" style="opacity:.3;stroke:url(#linearGradient2671);stroke-width:2.4706;fill:none" transform="matrix(.40476 0 0 .40476 -75.308 4.3839)" cy="21.019" cx="21" r="21"/>
 </g>
</svg>
