<?xml version="1.0" encoding="UTF-8" standalone="no"?>
<!-- Created with Inkscape (http://www.inkscape.org/) -->
<svg id="svg6476" xmlns="http://www.w3.org/2000/svg" height="48" width="48" version="1.0" xmlns:xlink="http://www.w3.org/1999/xlink">
 <defs id="defs6478">
  <radialGradient id="radialGradient2484" gradientUnits="userSpaceOnUse" cy="36.863" cx="11.402" gradientTransform="matrix(1.5366 0 0 .79999 5.9135 7.954)" r="10.695">
   <stop id="stop17125" offset="0"/>
   <stop id="stop17127" style="stop-opacity:0" offset="1"/>
  </radialGradient>
  <linearGradient id="linearGradient2518" y2="46.259" gradientUnits="userSpaceOnUse" x2="29.694" gradientTransform="matrix(1.0594 -.28387 .28910 1.0789 -5.9282 2.528)" y1="21.27" x1="16.79">
   <stop id="stop6702" style="stop-color:#fff" offset="0"/>
   <stop id="stop6704" style="stop-color:#fff;stop-opacity:0" offset="1"/>
  </linearGradient>
  <linearGradient id="linearGradient2522" y2="26.354" gradientUnits="userSpaceOnUse" x2="29.893" gradientTransform="matrix(.87245 -.23377 .25784 .96228 .14853 4.3924)" y1="12.159" x1="23.238">
   <stop id="stop6630" offset="0"/>
   <stop id="stop6632" style="stop-opacity:0" offset="1"/>
  </linearGradient>
  <radialGradient id="radialGradient2525" gradientUnits="userSpaceOnUse" cy="42.261" cx="30.685" gradientTransform="matrix(3.8811 -.91880 -.65482 -2.4438 -70.445 144)" r="8.2279">
   <stop id="stop3846" style="stop-color:#e8e8e8" offset="0"/>
   <stop id="stop3848" style="stop-color:#a5a6a8" offset="1"/>
  </radialGradient>
  <radialGradient id="radialGradient2528" gradientUnits="userSpaceOnUse" cy="20.434" cx="20.884" gradientTransform="matrix(1.2648 -.33890 .40389 1.5073 -9.1989 .73460)" r="4">
   <stop id="stop5849" style="stop-color:#878a85" offset="0"/>
   <stop id="stop5851" style="stop-color:#3e3f3d" offset="1"/>
  </radialGradient>
  <radialGradient id="radialGradient2531" gradientUnits="userSpaceOnUse" cy="30.233" cx="23.165" gradientTransform="matrix(2.0486 -.44211 .77710 3.5969 -43.958 -67.861)" r="8.189">
   <stop id="stop4720" style="stop-color:#767973" offset="0"/>
   <stop id="stop4722" style="stop-color:#202120" offset="1"/>
  </radialGradient>
  <linearGradient id="linearGradient2533" y2=".31037" gradientUnits="userSpaceOnUse" x2="33.431" gradientTransform="matrix(1.184 -.31726 .30472 1.1372 -9.5118 1.7419)" y1="45.052" x1="33.431">
   <stop id="stop6645" style="stop-color:#4c4c4c" offset="0"/>
   <stop id="stop6647" style="stop-color:#d3d7cf" offset="1"/>
  </linearGradient>
  <linearGradient id="linearGradient2536" y2="35.458" gradientUnits="userSpaceOnUse" x2="11.324" gradientTransform="matrix(.87263 -.23382 .22542 .84129 5.441 11.951)" y1="4.8112" x1="19.24">
   <stop id="stop6575" style="stop-color:#fff" offset="0"/>
   <stop id="stop6577" style="stop-color:#fff;stop-opacity:0" offset="1"/>
  </linearGradient>
  <linearGradient id="linearGradient2539" y2="21.75" gradientUnits="userSpaceOnUse" x2="11.438" gradientTransform="matrix(.64395 -.17255 .25882 .96593 3.1094 6.531)" y1="20.334" x1="20.226">
   <stop id="stop6381" style="stop-color:#fff;stop-opacity:0" offset="0"/>
   <stop id="stop21606" style="stop-color:#fff" offset=".5"/>
   <stop id="stop6383" style="stop-color:#fff;stop-opacity:0" offset="1"/>
  </linearGradient>
  <radialGradient id="radialGradient2542" gradientUnits="userSpaceOnUse" cy="27.053" cx="23.987" gradientTransform="matrix(-.31081 .083282 -.33322 -1.2436 37.152 59.349)" r="7.75">
   <stop id="stop6653" style="stop-color:#fff" offset="0"/>
   <stop id="stop6655" style="stop-color:#fff;stop-opacity:0" offset="1"/>
  </radialGradient>
  <radialGradient id="radialGradient2545" gradientUnits="userSpaceOnUse" cy="18.817" cx="9.3204" gradientTransform="matrix(.82409 .31975 -.59144 1.3785 21.45 -4.293)" r="12.5">
   <stop id="stop6635" style="stop-color:#eeeeec" offset="0"/>
   <stop id="stop6637" style="stop-color:#61635f" offset="1"/>
  </radialGradient>
  <linearGradient id="linearGradient2547" y2="12.064" gradientUnits="userSpaceOnUse" x2="4.6432" gradientTransform="matrix(.88040 -.23590 .22745 .84884 5.2527 11.823)" y1="33.047" x1="7.75">
   <stop id="stop5294" style="stop-color:#4b4b4b" offset="0"/>
   <stop id="stop5296" style="stop-color:#babdb6" offset="1"/>
  </linearGradient>
  <linearGradient id="linearGradient2550" y2="14" gradientUnits="userSpaceOnUse" x2="77.125" gradientTransform="matrix(.96593 -.25882 .25882 .96593 -65.661 28.064)" y1="31.561" x1="80.693">
   <stop id="stop4870" style="stop-color:#383937" offset="0"/>
   <stop id="stop4872" style="stop-color:#595b57" offset="1"/>
  </linearGradient>
  <linearGradient id="linearGradient2553" y2="30.001" gradientUnits="userSpaceOnUse" x2="5.1012" gradientTransform="matrix(.86330 -.23132 .25882 .96593 3.1765 9.6188)" y1="14.051" x1="9.8832">
   <stop id="stop6533" style="stop-color:#fff" offset="0"/>
   <stop id="stop6535" style="stop-color:#fff;stop-opacity:0" offset="1"/>
  </linearGradient>
  <linearGradient id="linearGradient2556" y2="-41.092" spreadMethod="reflect" gradientUnits="userSpaceOnUse" x2="82.681" gradientTransform="matrix(.11850 .44223 -.41756 .11188 -16.291 -10.902)" y1="-41.092" x1="102.36">
   <stop id="stop5264" style="stop-color:#babdb6" offset="0"/>
   <stop id="stop5266" style="stop-color:#eeeeec" offset=".43739"/>
   <stop id="stop5268" style="stop-color:#555753" offset="1"/>
  </linearGradient>
  <linearGradient id="linearGradient2558" y2="8.2934" gradientUnits="userSpaceOnUse" x2="102.43" gradientTransform="matrix(.25882 .96593 -.96593 .25882 -.85460 -63.247)" y1="8.2934" x1="84.426">
   <stop id="stop3860" style="stop-color:#a0a0a0" offset="0"/>
   <stop id="stop3862" style="stop-color:#4a4a4a" offset="1"/>
  </linearGradient>
 </defs>
 <path id="path16236" style="opacity:.3;fill:url(#radialGradient2484)" d="m39.868 37.444c0 4.7253-7.3577 8.5559-16.434 8.5559-9.0762 0-16.434-3.8306-16.434-8.5559-1e-7 -4.7253 7.3577-8.5559 16.434-8.5559 9.0761 0 16.434 3.8306 16.434 8.5559z"/>
 <path id="path5330" style="stroke:#555753;stroke-linecap:round;fill:#2e3436" d="m14.892 29.256c0.78618 2.9341 0.12612 5.6602-1.4743 6.089-1.6004 0.42883-3.5351-1.6021-4.3213-4.5361-0.78618-2.9341-0.12613-5.6602 1.4743-6.089 1.6004-0.42882 3.5351 1.6021 4.3213 4.5361z"/>
 <path id="path6659" style="fill:#babdb6" d="m9.8443 27.923c0.10721 0.4001-0.13023 0.81135-0.53033 0.91856s-0.81135-0.13023-0.91856-0.53033 0.13023-0.81135 0.53033-0.91856 0.81135 0.13023 0.91856 0.53033z"/>
 <path id="path2766" style="stroke:url(#linearGradient2558);fill:url(#linearGradient2556)" d="m11.364 21.401c-1.9328 0.5179-2.5159 4.6165-1.3015 9.1486s3.7686 7.79 5.7014 7.2722l3.5015-0.93822c1.9328-0.5179 2.5159-4.6165 1.3015-9.1486s-3.7686-7.79-5.7014-7.2722l-3.5015 0.93822z"/>
 <path id="path5556" style="opacity:.4;stroke:url(#linearGradient2553);stroke-linecap:round;fill:none" d="m11.677 22.352c-0.45409 0.12167-0.95172 0.82016-1.1523 2.2822-0.20057 1.4621-0.07052 3.5137 0.50354 5.6562 0.57406 2.1424 1.4873 3.9842 2.392 5.1501 0.90474 1.1659 1.6849 1.522 2.139 1.4003l3.4532-0.92528c0.45409-0.12167 0.95172-0.82016 1.1523-2.2822 0.20057-1.4621 0.07052-3.5137-0.50354-5.6562-0.57406-2.1424-1.4873-3.9842-2.392-5.1501-0.90474-1.1659-1.6849-1.522-2.139-1.4003l-3.4532 0.92528z"/>
 <path id="path6556" style="fill:url(#linearGradient2550)" d="m14.944 20.96c-1.9712 0.52817-2.6452 4.412-1.5044 8.6691 1.1407 4.2572 3.6663 7.2837 5.6375 6.7555l0.61568-0.16497c1.9712-0.52817 2.6452-4.412 1.5044-8.6691-1.1407-4.2572-3.6663-7.2837-5.6375-6.7555l-0.61568 0.16497z"/>
 <path id="path1871" style="stroke:url(#linearGradient2547);stroke-linecap:round;fill:url(#radialGradient2545)" d="m15.979 28.964c2.3882 8.9129 12.627 11.628 18.121 10.156 3.8033-1.0191 5.0802-8.0864 3.0086-15.818-2.072-7.73-6.711-13.213-10.515-12.193-5.494 1.472-13.003 8.943-10.615 17.855z"/>
 <path id="path6649" style="fill:url(#radialGradient2542)" d="m38.075 23.044c2.43 9.0689-0.03279 17.608-5.5008 19.074-5.468 1.4652-11.871-4.6989-14.301-13.768-2.43-9.0689 0.03279-17.608 5.5008-19.074 5.468-1.4652 11.871 4.6989 14.301 13.768z"/>
 <path id="path6639" style="opacity:.73359;fill:url(#linearGradient2539);fill-rule:evenodd" d="m20.098 15.746c-2.1343 2.0158-3.9318 6.5125-5.3699 10.966 2.3161-1.7864 4.7968-3.3149 7.2745-3.7609l-1.9045-7.2046z"/>
 <path id="path6567" style="opacity:.4;stroke:url(#linearGradient2536);stroke-linecap:round;fill:none" d="m26.813 12.085c-2.4397 0.65371-5.5444 2.778-7.6671 5.7457-2.1226 2.9677-3.3114 6.7303-2.2009 10.875 1.1105 4.1444 4.0213 6.8085 7.3434 8.3173 3.3221 1.5087 7.0731 1.7961 9.5127 1.1424 1.3809-0.37002 2.4956-1.9705 2.996-4.635 0.50049-2.6645 0.34404-6.2424-0.65441-9.9687s-2.6519-6.9031-4.4176-8.9603c-1.7657-2.0573-3.5312-2.886-4.9121-2.516z"/>
 <path id="path1873" style="stroke:url(#linearGradient2533);stroke-linecap:round;fill:url(#radialGradient2531)" d="m38.075 23.044c2.787 10.403 0.938 19.936-4.13 21.294s-11.436-5.974-14.223-16.376c-2.787-10.403-0.939-19.937 4.129-21.295 5.068-1.3578 11.436 5.974 14.224 16.377z"/>
 <path id="path3672" style="stroke:#3e3f3d;stroke-linecap:round;fill:url(#radialGradient2528)" d="m28.528 25.602c0.6429 2.3994-1.1371 4.9634-2.7631 5.3991-1.6261 0.43571-3.4676-1.158-4.1105-3.5573-0.6429-2.3994 0.15504-4.7003 1.7811-5.136 1.6261-0.43571 4.4496 0.89486 5.0925 3.2942z"/>
 <path id="path6605" style="fill:url(#radialGradient2525)" d="m23.981 7.1502c-2.5427 0.68133-4.1102 3.4305-4.7461 7.1599-0.63592 3.7293-0.33753 8.5203 1.0005 13.514 1.3381 4.9937 3.4751 9.292 5.8905 12.204 2.4154 2.9117 5.1474 4.5089 7.6902 3.8276 2.5428-0.68133 4.1102-3.4305 4.7461-7.1598 0.39745-2.3308 0.43269-5.0969 0.07693-8.044-0.01122-0.09293-0.03061-0.18642-0.04261-0.27975-0.07294-0.5674-0.16175-1.1281-0.26373-1.7087-0.09228-0.54096-0.18858-1.0811-0.30793-1.6322-0.0066-0.03028-0.01756-0.06025-0.02426-0.09056-0.12768-0.58265-0.28059-1.1679-0.43892-1.7588-0.16677-0.6224-0.33197-1.2358-0.52356-1.8332-0.16903-0.53097-0.36314-1.0567-0.54941-1.5675-0.202-0.55385-0.40542-1.0838-0.62596-1.6117-0.03767-0.08845-0.06479-0.17597-0.10298-0.26358-1.165-2.729-2.578-5.106-4.088-6.926-2.415-2.912-5.147-4.5092-7.69-3.8278zm1.0006 1.8024c1.8568-0.49752 4.1085 0.72706 6.2644 3.3361 1.3474 1.6306 2.6452 3.7795 3.7215 6.2821 0.21525 0.50052 0.4125 1.0233 0.60978 1.5513 0.18183 0.49522 0.36835 0.99186 0.53323 1.5071 0.19138 0.5911 0.38031 1.1779 0.54566 1.7949 0.15419 0.57544 0.26931 1.1392 0.39256 1.7065 0.0088 0.04005 0.02366 0.08073 0.03235 0.12074 0.11229 0.52562 0.20535 1.0561 0.29175 1.5718 0.09314 0.55587 0.18371 1.1073 0.24756 1.6483 0.31923 2.7054 0.26973 5.2153-0.08185 7.3012-0.56252 3.3374-1.9003 5.5238-3.7571 6.0213-1.8568 0.49752-4.1085-0.72706-6.2644-3.3361-2.157-2.609-4.178-6.532-5.411-11.135-1.234-4.604-1.445-9.012-0.883-12.349 0.563-3.337 1.901-5.5239 3.757-6.0214z"/>
 <path id="path6615" style="opacity:.3;stroke:url(#linearGradient2522);stroke-linecap:round;fill:none" d="m36.143 23.562c2.3585 8.8022 1.2433 16.749-2.491 17.75-3.734 1-8.674-5.325-11.032-14.127-2.359-8.802-1.243-16.749 2.491-17.749 3.734-1.001 8.673 5.323 11.032 14.126z"/>
 <path id="path6661" style="fill:#fff" d="m11.618 24.763c0.14294 0.53347-0.17364 1.0818-0.70711 1.2247-0.53347 0.14294-1.0818-0.17364-1.2247-0.70711-0.14294-0.53347 0.17364-1.0818 0.70711-1.2247 0.53347-0.14294 1.0818 0.17364 1.2247 0.70711z"/>
 <path id="path6698" style="opacity:.4;stroke:url(#linearGradient2518);stroke-linecap:round;fill:none" d="m37.109 23.303c2.6444 9.8691 1.1122 18.855-3.4222 20.07-4.535 1.214-10.355-5.801-12.999-15.67s-1.112-18.855 3.422-20.07c4.535-1.2149 10.354 5.801 12.999 15.67z"/>
 <path id="path5501" style="opacity:.6;fill:#fff" d="m20.383 14.973c0.14294 0.53347-0.17364 1.0818-0.70711 1.2247-0.53347 0.14294-1.0818-0.17364-1.2247-0.70711-0.14294-0.53347 0.17364-1.0818 0.70711-1.2247 0.53347-0.14294 1.0818 0.17364 1.2247 0.70711z"/>
</svg>
