<?xml version="1.0" encoding="UTF-8" standalone="no"?>
<!-- Created with Inkscape (http://www.inkscape.org/) -->
<svg id="svg3366" xmlns="http://www.w3.org/2000/svg" height="48" width="48" version="1.0" xmlns:xlink="http://www.w3.org/1999/xlink">
 <defs id="defs3368">
  <radialGradient id="radialGradient2415" gradientUnits="userSpaceOnUse" cy="4.625" cx="62.625" gradientTransform="matrix(2.1647 0 0 .75294 -111.56 36.518)" r="10.625">
   <stop id="stop8840" offset="0"/>
   <stop id="stop8842" style="stop-opacity:0" offset="1"/>
  </radialGradient>
  <linearGradient id="linearGradient2412" y2="3.0816" gradientUnits="userSpaceOnUse" x2="18.379" gradientTransform="matrix(.95844 0 0 .95844 .99752 1.9975)" y1="44.98" x1="18.379">
   <stop id="stop2788" style="stop-color:#1f4b6a" offset="0"/>
   <stop id="stop2790" style="stop-color:#4083c2" offset="1"/>
  </linearGradient>
  <radialGradient id="radialGradient2410" gradientUnits="userSpaceOnUse" cy="3.99" cx="23.896" gradientTransform="matrix(0 2.2875 -3.0194 0 36.047 -50.63)" r="20.397">
   <stop id="stop2778" style="stop-color:#8badea" offset="0"/>
   <stop id="stop2780" style="stop-color:#6396cd" offset=".26238"/>
   <stop id="stop2782" style="stop-color:#3b7caf" offset=".66094"/>
   <stop id="stop2784" style="stop-color:#194c70" offset="1"/>
  </radialGradient>
  <linearGradient id="linearGradient2407" y2="5.4676" gradientUnits="userSpaceOnUse" x2="63.397" gradientTransform="matrix(2.1154 0 0 2.1153 -107.58 32.427)" y1="-12.489" x1="63.397">
   <stop id="stop4875" style="stop-color:#fff" offset="0"/>
   <stop id="stop4877" style="stop-color:#fff;stop-opacity:0" offset="1"/>
  </linearGradient>
 </defs>
 <g id="layer1">
  <path id="path8836" style="opacity:.3;fill-rule:evenodd;fill:url(#radialGradient2415)" d="m47 40c0 4.418-10.297 8-23 8s-23-3.582-23-8 10.297-8 23-8 23 3.582 23 8z"/>
  <path id="path2555" style="stroke-linejoin:round;stroke:url(#linearGradient2412);stroke-linecap:round;stroke-width:1.0037;fill:url(#radialGradient2410)" d="m24 5.5018c-10.758 0-19.498 8.7402-19.498 19.498-0.0002 10.758 8.74 19.498 19.498 19.498s19.498-8.74 19.498-19.498-8.74-19.498-19.498-19.498z"/>
  <path id="path8655" style="opacity:.4;stroke:url(#linearGradient2407);fill:none" d="m42.5 24.999c0 10.218-8.283 18.501-18.5 18.501s-18.5-8.283-18.5-18.501c0-10.217 8.283-18.499 18.5-18.499s18.5 8.282 18.5 18.499z"/>
  <path id="path3364" style="opacity:.2" d="m27.111 14.977c0 1.644-1.33 2.977-2.97 2.977s-2.971-1.333-2.971-2.977c0-1.643 1.331-2.977 2.971-2.977s2.97 1.334 2.97 2.977zm7.416 3.166c-0.138 0.022-0.268 0.077-0.379 0.158l-10.148 1.586-10.094-1.607c-0.261-0.19-0.628-0.247-0.919-0.106-0.292 0.141-0.483 0.474-0.487 0.792s0.199 0.591 0.487 0.739l7.909 2.515-0.054 5.772-2.791 8.645c-0.269 0.393-0.187 0.899 0.216 1.161 0.404 0.263 0.975 0.183 1.244-0.211l4.504-9.331 4.419 9.315c0.239 0.408 0.772 0.55 1.19 0.317 0.418-0.234 0.563-0.754 0.324-1.162l-2.739-8.682-0.108-5.434 8.02-2.936c0.324-0.222 0.465-0.642 0.325-1.003-0.141-0.361-0.526-0.572-0.92-0.528h0.001z"/>
  <path id="path6668" style="fill:#fff" d="m27.111 15.977c0 1.644-1.33 2.977-2.97 2.977s-2.971-1.333-2.971-2.977c0-1.643 1.331-2.977 2.971-2.977s2.97 1.334 2.97 2.977zm7.416 3.166c-0.138 0.022-0.268 0.077-0.379 0.158l-10.148 1.586-10.094-1.607c-0.261-0.19-0.628-0.247-0.919-0.106-0.292 0.141-0.483 0.474-0.487 0.792s0.199 0.591 0.487 0.739l7.909 2.515-0.054 5.772-2.791 8.645c-0.269 0.393-0.187 0.899 0.216 1.161 0.404 0.263 0.975 0.183 1.244-0.211l4.504-9.331 4.419 9.315c0.239 0.408 0.772 0.55 1.19 0.317 0.418-0.234 0.563-0.754 0.324-1.162l-2.739-8.682-0.108-5.434 8.02-2.936c0.324-0.222 0.465-0.642 0.325-1.003-0.141-0.361-0.526-0.572-0.92-0.528h0.001z"/>
 </g>
</svg>
