<?xml version="1.0" encoding="UTF-8" standalone="no"?>
<!-- Created with Inkscape (http://www.inkscape.org/) -->

<svg
   xmlns:svg="http://www.w3.org/2000/svg"
   xmlns="http://www.w3.org/2000/svg"
   xmlns:xlink="http://www.w3.org/1999/xlink"
   version="1.1"
   width="48"
   height="48"
   id="svg3082">
  <defs
     id="defs3084">
    <linearGradient
       id="linearGradient3315">
      <stop
         id="stop3317"
         style="stop-color:white;stop-opacity:1"
         offset="0" />
      <stop
         id="stop3319"
         style="stop-color:white;stop-opacity:0"
         offset="1" />
    </linearGradient>
    <linearGradient
       id="linearGradient6457">
      <stop
         id="stop6459"
         style="stop-color:white;stop-opacity:0.94117647"
         offset="0" />
      <stop
         id="stop6461"
         style="stop-color:white;stop-opacity:0.70588237"
         offset="1" />
    </linearGradient>
    <linearGradient
       id="linearGradient5060">
      <stop
         id="stop5062"
         style="stop-color:black;stop-opacity:1"
         offset="0" />
      <stop
         id="stop5064"
         style="stop-color:black;stop-opacity:0"
         offset="1" />
    </linearGradient>
    <linearGradient
       id="linearGradient5048">
      <stop
         id="stop5050"
         style="stop-color:black;stop-opacity:0"
         offset="0" />
      <stop
         id="stop5056"
         style="stop-color:black;stop-opacity:1"
         offset="0.5" />
      <stop
         id="stop5052"
         style="stop-color:black;stop-opacity:0"
         offset="1" />
    </linearGradient>
    <linearGradient
       id="linearGradient2781">
      <stop
         id="stop2783"
         style="stop-color:#505050;stop-opacity:1"
         offset="0" />
      <stop
         id="stop6301"
         style="stop-color:#6e6e6e;stop-opacity:1"
         offset="0.13216467" />
      <stop
         id="stop2785"
         style="stop-color:#8c8c8c;stop-opacity:1"
         offset="1" />
    </linearGradient>
    <linearGradient
       id="linearGradient4168">
      <stop
         id="stop4170"
         style="stop-color:#f8cd70;stop-opacity:1"
         offset="0" />
      <stop
         id="stop4172"
         style="stop-color:#cc9110;stop-opacity:1"
         offset="1" />
    </linearGradient>
    <radialGradient
       cx="40.128311"
       cy="9.9661751"
       r="1.0606601"
       fx="40.128311"
       fy="9.9661751"
       id="radialGradient5578"
       xlink:href="#linearGradient4168"
       gradientUnits="userSpaceOnUse"
       gradientTransform="matrix(1.2427992,1.4730438e-6,-1.4997581e-6,1.2755876,-25.875877,7.2872104)" />
    <radialGradient
       cx="40.128311"
       cy="9.9661751"
       r="1.0606601"
       fx="40.128311"
       fy="9.9661751"
       id="radialGradient5581"
       xlink:href="#linearGradient4168"
       gradientUnits="userSpaceOnUse"
       gradientTransform="matrix(1.2427981,1.5058212e-6,-1.4997568e-6,1.2478219,-22.87583,7.5639275)" />
    <radialGradient
       cx="40.128311"
       cy="9.9661751"
       r="1.0606601"
       fx="40.128311"
       fy="9.9661751"
       id="radialGradient5584"
       xlink:href="#linearGradient4168"
       gradientUnits="userSpaceOnUse"
       gradientTransform="matrix(1.2427981,-1.0647077e-7,1.0132283e-7,1.1922904,-19.875848,8.1174278)" />
    <linearGradient
       x1="24"
       y1="13"
       x2="24"
       y2="40"
       id="linearGradient5587"
       xlink:href="#linearGradient6457"
       gradientUnits="userSpaceOnUse"
       gradientTransform="matrix(0.7631579,0,0,0.7407408,-0.8157892,13.370372)" />
    <linearGradient
       x1="16.033964"
       y1="9.0734701"
       x2="15.934606"
       y2="38.926552"
       id="linearGradient5590"
       xlink:href="#linearGradient3315"
       gradientUnits="userSpaceOnUse"
       gradientTransform="matrix(0.96774,0,0,0.8965499,-6.6935107,8.982795)" />
    <linearGradient
       x1="21.866402"
       y1="8.5763302"
       x2="21.780495"
       y2="39.923653"
       id="linearGradient5593"
       xlink:href="#linearGradient2781"
       gradientUnits="userSpaceOnUse"
       gradientTransform="matrix(0.969695,0,0,0.9180321,-6.7423906,8.2377264)" />
    <linearGradient
       x1="302.85715"
       y1="366.64789"
       x2="302.85715"
       y2="609.50507"
       id="linearGradient5599"
       xlink:href="#linearGradient5048"
       gradientUnits="userSpaceOnUse"
       gradientTransform="matrix(2.774389,0,0,1.969706,-1892.179,-872.8854)" />
    <radialGradient
       cx="605.71429"
       cy="486.64789"
       r="117.14286"
       fx="605.71429"
       fy="486.64789"
       id="radialGradient5601"
       xlink:href="#linearGradient5060"
       gradientUnits="userSpaceOnUse"
       gradientTransform="matrix(2.774389,0,0,1.969706,-1891.633,-872.8854)" />
    <radialGradient
       cx="605.71429"
       cy="486.64789"
       r="117.14286"
       fx="605.71429"
       fy="486.64789"
       id="radialGradient5603"
       xlink:href="#linearGradient5060"
       gradientUnits="userSpaceOnUse"
       gradientTransform="matrix(-2.774389,0,0,1.969706,112.7623,-872.8854)" />
    <linearGradient
       x1="302.85715"
       y1="366.64789"
       x2="302.85715"
       y2="609.50507"
       id="linearGradient6411"
       xlink:href="#linearGradient5048"
       gradientUnits="userSpaceOnUse"
       gradientTransform="matrix(2.774389,0,0,1.969706,-1892.179,-872.8854)" />
    <radialGradient
       cx="605.71429"
       cy="486.64789"
       r="117.14286"
       fx="605.71429"
       fy="486.64789"
       id="radialGradient6413"
       xlink:href="#linearGradient5060"
       gradientUnits="userSpaceOnUse"
       gradientTransform="matrix(2.774389,0,0,1.969706,-1891.633,-872.8854)" />
    <radialGradient
       cx="605.71429"
       cy="486.64789"
       r="117.14286"
       fx="605.71429"
       fy="486.64789"
       id="radialGradient6415"
       xlink:href="#linearGradient5060"
       gradientUnits="userSpaceOnUse"
       gradientTransform="matrix(-2.774389,0,0,1.969706,112.7623,-872.8854)" />
    <linearGradient
       x1="21.866402"
       y1="8.5763302"
       x2="21.780495"
       y2="39.923653"
       id="linearGradient6417"
       xlink:href="#linearGradient2781"
       gradientUnits="userSpaceOnUse"
       gradientTransform="matrix(0.969695,0,0,0.9180321,-6.7423906,8.2377264)" />
    <linearGradient
       x1="16.033964"
       y1="9.0734701"
       x2="15.934606"
       y2="38.926552"
       id="linearGradient6419"
       xlink:href="#linearGradient3315"
       gradientUnits="userSpaceOnUse"
       gradientTransform="matrix(0.96774,0,0,0.8965499,-6.6935107,8.982795)" />
    <linearGradient
       x1="24"
       y1="13"
       x2="24"
       y2="40"
       id="linearGradient6421"
       xlink:href="#linearGradient6457"
       gradientUnits="userSpaceOnUse"
       gradientTransform="matrix(0.7631579,0,0,0.7407408,-0.8157892,13.370372)" />
    <radialGradient
       cx="40.128311"
       cy="9.9661751"
       r="1.0606601"
       fx="40.128311"
       fy="9.9661751"
       id="radialGradient6423"
       xlink:href="#linearGradient4168"
       gradientUnits="userSpaceOnUse"
       gradientTransform="matrix(1.2427981,-1.0647077e-7,1.0132283e-7,1.1922904,-19.875848,8.1174278)" />
    <radialGradient
       cx="40.128311"
       cy="9.9661751"
       r="1.0606601"
       fx="40.128311"
       fy="9.9661751"
       id="radialGradient6425"
       xlink:href="#linearGradient4168"
       gradientUnits="userSpaceOnUse"
       gradientTransform="matrix(1.2427981,1.5058212e-6,-1.4997568e-6,1.2478219,-22.87583,7.5639275)" />
    <radialGradient
       cx="40.128311"
       cy="9.9661751"
       r="1.0606601"
       fx="40.128311"
       fy="9.9661751"
       id="radialGradient6427"
       xlink:href="#linearGradient4168"
       gradientUnits="userSpaceOnUse"
       gradientTransform="matrix(1.2427992,1.4730438e-6,-1.4997581e-6,1.2755876,-25.875877,7.2872104)" />
  </defs>
  <g
     id="g6429">
    <g
       transform="translate(13,-15)"
       id="g6389">
      <g
         transform="matrix(0.0172377,0,0,0.01254292,32.831819,43.390183)"
         id="g6391"
         style="opacity:0.58730164;display:inline">
        <rect
           width="1339.6335"
           height="478.35718"
           x="-1559.2523"
           y="-150.69685"
           id="rect6393"
           style="opacity:0.40206185;fill:url(#linearGradient6411);fill-opacity:1;fill-rule:nonzero;stroke:none;stroke-width:1;marker:none;visibility:visible;display:inline;overflow:visible" />
        <path
           d="m -219.61876,-150.68038 c 0,0 0,478.33079 0,478.33079 142.874166,0.90045 345.40022,-107.16966 345.40014,-239.196175 0,-132.026537 -159.436816,-239.134595 -345.40014,-239.134615 z"
           id="path6395"
           style="opacity:0.40206185;fill:url(#radialGradient6413);fill-opacity:1;fill-rule:nonzero;stroke:none;stroke-width:1;marker:none;visibility:visible;display:inline;overflow:visible" />
        <path
           d="m -1559.2523,-150.68038 c 0,0 0,478.33079 0,478.33079 -142.8742,0.90045 -345.4002,-107.16966 -345.4002,-239.196175 0,-132.026537 159.4368,-239.134595 345.4002,-239.134615 z"
           id="path6397"
           style="opacity:0.40206185;fill:url(#radialGradient6415);fill-opacity:1;fill-rule:nonzero;stroke:none;stroke-width:1;marker:none;visibility:visible;display:inline;overflow:visible" />
      </g>
      <rect
         width="31.999964"
         height="27.999966"
         rx="2"
         ry="2"
         x="1.5000174"
         y="16.500017"
         id="rect6399"
         style="fill:url(#linearGradient6417);fill-opacity:1;stroke:#565853;stroke-width:1.00003481;stroke-miterlimit:4;stroke-opacity:1;stroke-dasharray:none" />
      <rect
         width="29.999958"
         height="25.999958"
         rx="1"
         ry="1"
         x="2.5000215"
         y="17.500021"
         id="rect6401"
         style="opacity:0.2;fill:none;stroke:url(#linearGradient6419);stroke-width:1.0000428;stroke-miterlimit:4;stroke-opacity:1;stroke-dasharray:none" />
      <rect
         width="29"
         height="20"
         rx="0.5"
         ry="0.5"
         x="3"
         y="23"
         id="rect6403"
         style="fill:url(#linearGradient6421);fill-opacity:1;stroke:none" />
      <path
         d="M 30.991081,20.000001 C 30.991319,20.552214 30.54553,21 29.995539,21 29.44555,21 28.999762,20.552214 29,20.000001 c -2.38e-4,-0.552213 0.44555,-1 0.995539,-1 0.549991,0 0.99578,0.447787 0.995542,1 l 0,0 z"
         id="path6405"
         style="fill:url(#radialGradient6423);fill-opacity:1;stroke:none" />
      <path
         d="M 27.991081,20.000001 C 27.99132,20.552213 27.545532,21 26.995542,21 26.445552,21 25.999762,20.552213 26,20.000001 25.999762,19.447788 26.445552,19 26.995542,19 c 0.54999,0 0.995778,0.447788 0.995539,1.000001 l 0,0 z"
         id="path6407"
         style="fill:url(#radialGradient6425);fill-opacity:1;stroke:none" />
      <path
         d="M 24.99108,20.000001 C 24.99132,20.552213 24.54553,21 23.99554,21 23.445549,21 22.999762,20.552213 23,20.000001 22.999762,19.447788 23.445549,19 23.99554,19 c 0.54999,0 0.99578,0.447788 0.99554,1.000001 l 0,0 z"
         id="path6409"
         style="fill:url(#radialGradient6427);fill-opacity:1;stroke:none" />
    </g>
    <g
       id="g6377">
      <g
         transform="matrix(0.0172377,0,0,0.01254292,32.831819,43.390183)"
         id="g5022"
         style="opacity:0.58730164;display:inline">
        <rect
           width="1339.6335"
           height="478.35718"
           x="-1559.2523"
           y="-150.69685"
           id="rect4173"
           style="opacity:0.40206185;fill:url(#linearGradient5599);fill-opacity:1;fill-rule:nonzero;stroke:none;stroke-width:1;marker:none;visibility:visible;display:inline;overflow:visible" />
        <path
           d="m -219.61876,-150.68038 c 0,0 0,478.33079 0,478.33079 142.874166,0.90045 345.40022,-107.16966 345.40014,-239.196175 0,-132.026537 -159.436816,-239.134595 -345.40014,-239.134615 z"
           id="path5058"
           style="opacity:0.40206185;fill:url(#radialGradient5601);fill-opacity:1;fill-rule:nonzero;stroke:none;stroke-width:1;marker:none;visibility:visible;display:inline;overflow:visible" />
        <path
           d="m -1559.2523,-150.68038 c 0,0 0,478.33079 0,478.33079 -142.8742,0.90045 -345.4002,-107.16966 -345.4002,-239.196175 0,-132.026537 159.4368,-239.134595 345.4002,-239.134615 z"
           id="path5018"
           style="opacity:0.40206185;fill:url(#radialGradient5603);fill-opacity:1;fill-rule:nonzero;stroke:none;stroke-width:1;marker:none;visibility:visible;display:inline;overflow:visible" />
      </g>
      <rect
         width="31.999964"
         height="27.999966"
         rx="2"
         ry="2"
         x="1.5000174"
         y="16.500017"
         id="rect1887"
         style="fill:url(#linearGradient5593);fill-opacity:1;stroke:#565853;stroke-width:1.00003481;stroke-miterlimit:4;stroke-opacity:1;stroke-dasharray:none" />
      <rect
         width="29.999958"
         height="25.999958"
         rx="1"
         ry="1"
         x="2.5000215"
         y="17.500021"
         id="rect2779"
         style="opacity:0.2;fill:none;stroke:url(#linearGradient5590);stroke-width:1.0000428;stroke-miterlimit:4;stroke-opacity:1;stroke-dasharray:none" />
      <rect
         width="29"
         height="20"
         rx="0.5"
         ry="0.5"
         x="3"
         y="23"
         id="rect6287"
         style="fill:url(#linearGradient5587);fill-opacity:1;stroke:none" />
      <path
         d="M 30.991081,20.000001 C 30.991319,20.552214 30.54553,21 29.995539,21 29.44555,21 28.999762,20.552214 29,20.000001 c -2.38e-4,-0.552213 0.44555,-1 0.995539,-1 0.549991,0 0.99578,0.447787 0.995542,1 l 0,0 z"
         id="path6289"
         style="fill:url(#radialGradient5584);fill-opacity:1;stroke:none" />
      <path
         d="M 27.991081,20.000001 C 27.99132,20.552213 27.545532,21 26.995542,21 26.445552,21 25.999762,20.552213 26,20.000001 25.999762,19.447788 26.445552,19 26.995542,19 c 0.54999,0 0.995778,0.447788 0.995539,1.000001 l 0,0 z"
         id="path6291"
         style="fill:url(#radialGradient5581);fill-opacity:1;stroke:none" />
      <path
         d="M 24.99108,20.000001 C 24.99132,20.552213 24.54553,21 23.99554,21 23.445549,21 22.999762,20.552213 23,20.000001 22.999762,19.447788 23.445549,19 23.99554,19 c 0.54999,0 0.99578,0.447788 0.99554,1.000001 l 0,0 z"
         id="path6293"
         style="fill:url(#radialGradient5578);fill-opacity:1;stroke:none" />
    </g>
  </g>
</svg>
