<?xml version="1.0" encoding="UTF-8" standalone="no"?>
<!-- Created with Inkscape (http://www.inkscape.org/) -->
<svg id="svg2" xmlns="http://www.w3.org/2000/svg" height="48" width="48" version="1.0" xmlns:xlink="http://www.w3.org/1999/xlink">
 <defs id="defs4">
  <linearGradient id="linearGradient3156">
   <stop id="stop3158" style="stop-color:#fff" offset="0"/>
   <stop id="stop3160" style="stop-color:#fff;stop-opacity:0" offset="1"/>
  </linearGradient>
  <linearGradient id="linearGradient6544">
   <stop id="stop6546" style="stop-color:#f0f0f0" offset="0"/>
   <stop id="stop6548" style="stop-color:#d2d2d2" offset="1"/>
  </linearGradient>
  <linearGradient id="linearGradient5547" y2="19.812" gradientUnits="userSpaceOnUse" x2="15.25" gradientTransform="matrix(.61956 0 0 .65031 14.141 16.076)" y1="8.4375" x1="12.938">
   <stop id="stop6594" style="stop-color:#fff;stop-opacity:.27451" offset="0"/>
   <stop id="stop6596" style="stop-color:#fff;stop-opacity:0" offset="1"/>
  </linearGradient>
  <linearGradient id="linearGradient5550" y2="99.961" gradientUnits="userSpaceOnUse" x2="316.97" gradientTransform="matrix(.56809 0 0 .68244 -152.86 -19.372)" y1="81.682" x1="310.59">
   <stop id="stop4576" style="stop-color:#787878" offset="0"/>
   <stop id="stop4578" style="stop-color:#abada9" offset="1"/>
  </linearGradient>
  <linearGradient id="linearGradient5553" y2="416.83" xlink:href="#linearGradient6544" gradientUnits="userSpaceOnUse" x2="145.44" gradientTransform="matrix(.12643 0 0 .10560 10.613 .81479)" y1="372.67" x1="145.44"/>
  <radialGradient id="radialGradient5556" gradientUnits="userSpaceOnUse" cy="4.8631" cx="12.244" gradientTransform="matrix(.84641 .010763 -.0078808 .60166 11.491 18.793)" r="21">
   <stop id="stop6707" style="stop-color:#5a5a5a" offset="0"/>
   <stop id="stop6709" style="stop-color:#1e1e1e" offset="1"/>
  </radialGradient>
  <linearGradient id="linearGradient5559" y2="31.983" xlink:href="#linearGradient6544" gradientUnits="userSpaceOnUse" x2="20.104" gradientTransform="matrix(.66064 0 0 .67812 13.144 15.15)" y1="-.00049710" x1="20.147"/>
  <linearGradient id="linearGradient5562" y2="93.38" gradientUnits="userSpaceOnUse" x2="320.28" gradientTransform="matrix(.70358 0 0 .65181 -196.17 -19.863)" y1="86.913" x1="320.28">
   <stop id="stop6534" style="stop-color:#787878" offset="0"/>
   <stop id="stop6536" style="stop-color:#bebebe" offset=".26105"/>
   <stop id="stop6538" style="stop-color:#c8c8c8" offset=".43423"/>
   <stop id="stop6540" style="stop-color:#e6e6e6" offset=".61838"/>
   <stop id="stop6542" style="stop-color:#8c8c8c" offset="1"/>
  </linearGradient>
  <linearGradient id="linearGradient5568" y2="24.654" xlink:href="#linearGradient3156" gradientUnits="userSpaceOnUse" x2="29.725" gradientTransform="matrix(-.16008 -1.1032 .48564 .016921 16.935 53.089)" y1="55.647" x1="30.502"/>
  <linearGradient id="linearGradient5571" y2="20.664" xlink:href="#linearGradient3156" gradientUnits="userSpaceOnUse" x2="28.29" gradientTransform="matrix(-.099401 -1.1198 .69461 -.039988 8.175 55.475)" y1="-2.3103" x1="28.221"/>
  <linearGradient id="linearGradient5574" y2="20.664" xlink:href="#linearGradient3156" gradientUnits="userSpaceOnUse" x2="28.29" gradientTransform="matrix(1.1247 -.0067908 .0011231 .74292 -7.8874 1.6777)" y1="-.81503" x1="27.889"/>
  <linearGradient id="linearGradient5577" y2="20.664" xlink:href="#linearGradient3156" gradientUnits="userSpaceOnUse" x2="28.29" gradientTransform="matrix(1.0762 -.29129 .19527 .71432 -11.183 13.979)" y1="61.853" x1="24.335"/>
  <radialGradient id="radialGradient5580" fy="4.7612" xlink:href="#linearGradient3156" gradientUnits="userSpaceOnUse" cy="11.223" cx="22.945" gradientTransform="matrix(1.3571 .010218 -.0063134 .83849 -10.875 .30580)" r="14"/>
  <radialGradient id="radialGradient5583" xlink:href="#linearGradient3156" gradientUnits="userSpaceOnUse" cy="10.875" cx="22.125" gradientTransform="matrix(1.01 -0.112 .056688 .51121 -5.8376 .79347)" r="20"/>
  <radialGradient id="radialGradient5586" gradientUnits="userSpaceOnUse" cy="12.61" cx="20.039" gradientTransform="matrix(1.9525 -.050181 .036509 1.4215 -20.408 -6.9089)" r="22.464">
   <stop id="stop8649" style="stop-color:#8fb1dc" offset="0"/>
   <stop id="stop8651" style="stop-color:#3465a4" offset="1"/>
  </radialGradient>
  <linearGradient id="linearGradient5588" y2="50" gradientUnits="userSpaceOnUse" x2="29.75" gradientTransform="translate(-5 -7)" y1="29" x1="29.013">
   <stop id="stop14112" style="stop-color:#557695" offset="0"/>
   <stop id="stop14114" style="stop-color:#15395c" offset="1"/>
  </linearGradient>
  <radialGradient id="radialGradient5591" gradientUnits="userSpaceOnUse" cy="4.625" cx="62.625" gradientTransform="matrix(1.8353 0 0 .56471 -91.435 36.388)" r="10.625">
   <stop id="stop10693" offset="0"/>
   <stop id="stop10695" style="stop-opacity:0" offset="1"/>
  </radialGradient>
  <radialGradient id="radialGradient2887" gradientUnits="userSpaceOnUse" cy="47.045" cx="20.914" gradientTransform="matrix(1.3826 .000035814 0 .17150 5.9578 35.097)" r="19.5">
   <stop id="stop3909" style="stop-color:#fff" offset="0"/>
   <stop id="stop3911" style="stop-color:#fff;stop-opacity:0" offset="1"/>
  </radialGradient>
 </defs>
 <g id="g5618">
  <path id="path8836" style="opacity:.4;fill-rule:evenodd;fill:url(#radialGradient5591)" d="m43 39c0 3.3137-8.7304 6-19.5 6s-19.5-2.686-19.5-6 8.73-6 19.5-6 19.5 2.686 19.5 6z"/>
  <path id="path1307" style="stroke-linejoin:round;stroke:url(#linearGradient5588);stroke-linecap:round;stroke-width:.99816;fill:url(#radialGradient5586)" d="m44.501 22c0 11.317-9.1784 20.501-20.487 20.501s-20.487-9.1844-20.487-20.501 9.1784-20.501 20.487-20.501 20.487 9.1844 20.487 20.501z"/>
  <path id="path3164" style="opacity:.7;stroke-linejoin:round;stroke:url(#radialGradient5583);stroke-linecap:round;stroke-width:.99647;fill:none" d="m43.502 22c0 10.765-8.7368 19.502-19.502 19.502s-19.502-8.737-19.502-19.502 8.7368-19.502 19.502-19.502 19.502 8.7368 19.502 19.502z"/>
  <path id="path3154" style="opacity:.4;fill:url(#radialGradient5580)" d="m43 15.747c0 7.1141-8.512 11.029-19 11.029s-19-3.915-19-11.029c0-7.1144 8.512-14.747 19-14.747s19 7.6326 19 14.747z"/>
  <path id="path2218" style="opacity:.6;stroke:url(#linearGradient5577);stroke-linecap:round;stroke-width:.99518;fill:none" d="m43.058 17.902c1.887 6.904-5.015 14.783-15.417 17.599-10.401 2.815-20.363-0.5-22.25-7.403-1.8876-6.904 5.014-14.783 15.416-17.599 10.401-2.8153 20.363 0.49917 22.251 7.403z"/>
  <path id="path2230" style="opacity:.6;stroke:url(#linearGradient5574);stroke-linecap:round;stroke-width:.99664;fill:none" d="m43.877 19.381c0.011 7.18-8.792 13.054-19.663 13.12-10.87 0.066-19.691-5.702-19.702-12.882s8.792-13.054 19.663-13.12c10.87-0.0658 19.691 5.702 19.702 12.882z"/>
  <path id="path2234" style="opacity:.6;stroke:url(#linearGradient5571);stroke-linecap:round;stroke-width:.99816;fill:none" d="m20.447 2.9958c6.7134-0.38648 12.934 8.0736 13.895 18.896 0.96071 10.823-3.7028 19.909-10.416 20.296-6.714 0.386-12.935-8.074-13.895-18.896-0.9611-10.823 3.702-19.91 10.416-20.296z"/>
  <path id="path2240" style="opacity:.6;stroke:url(#linearGradient5568);stroke-linecap:round;stroke-width:.99816;fill:none" d="m21.349 2.7503c4.6937 0.16354 9.7529 8.9401 11.3 19.603s-1.0036 19.174-5.6973 19.011c-4.694-0.164-9.754-8.94-11.301-19.603s1.004-19.174 5.698-19.011z"/>
  <path id="path2275" style="opacity:.4;fill:#fff" d="m15.092 35.382c0.20699 0.76184-0.15396 1.5234-0.80622 1.7011-0.65226 0.17763-1.3488-0.29597-1.5558-1.0578-0.20699-0.76184 0.15396-1.5234 0.80622-1.7011 0.65226-0.17763 1.3488 0.29597 1.5558 1.0578z"/>
  <path id="path2283" style="opacity:.4;fill:#fff" d="m28.615 6.514c0.31331 0.616-0.04959 1.2834-0.81055 1.4906-0.76097 0.20723-1.6318-0.12414-1.9451-0.74015-0.31331-0.616 0.04959-1.2834 0.81055-1.4906 0.76097-0.20723 1.6318 0.12414 1.9451 0.74015z"/>
  <path id="path2291" style="opacity:.4;fill:#fff" d="m13.495 9.1501c-0.01282 0.70482-0.64009 1.4442-1.4011 1.6514-0.76097 0.20723-1.3675-0.19614-1.3546-0.90096 0.01282-0.70482 0.64009-1.4442 1.4011-1.6514 0.76097-0.20723 1.3675 0.19614 1.3546 0.90096z"/>
  <g id="g5595">
   <path id="path4675" style="stroke-linejoin:round;stroke-dashoffset:0.5;stroke:#8c8c8c;stroke-linecap:round;enable-background:new;fill:url(#linearGradient5562)" d="m25.5 33.911v4.5626c-0.016 1.175-1.711 2.126-1.711 2.126-0.52864 0.05764 10.951 0.05764 10.422 0 0 0-1.6955-0.95149-1.7111-2.126v-4.5626h-7z"/>
   <rect id="rect2722" style="stroke-linejoin:round;stroke-dashoffset:0.5;stroke:#8c8c8c;stroke-linecap:round;stroke-width:1.0005;fill:url(#linearGradient5559)" height="21" width="31" y="15.5" x="13.5"/>
   <rect id="rect2716" style="stroke-width:.90803;fill-rule:evenodd;stroke:#141414;enable-background:new;fill:url(#radialGradient5556)" height="15.075" width="25.092" y="18.471" x="16.465"/>
   <path id="path3698" style="stroke-width:1.0001;stroke-dashoffset:.3612;stroke:#8c8c8c;stroke-linecap:square;enable-background:new;fill:url(#linearGradient5553)" d="m16.788 40.5c-0.17807 0.01522-0.33349 0.10286-0.41879 0.2343l-1.8056 2.7852c-0.04238 0.0668-0.06467 0.14294-0.06321 0.2178-0.000159-0.0082-0.000463-0.0059 0 0.0066v0.3102 0.033c-0.000514 0.04597 0.01605 0.09093 0.04741 0.1287 0.0096 0.02322 0.0093 0.04032 0.02765 0.066 0.09605 0.13414 0.27152 0.21693 0.46226 0.2178h27.921c0.19115 0.000367 0.3682-0.08287 0.4662-0.2211 0.04174-0.05886 0.0549-0.11356 0.06322-0.1551 0.01435-0.07167 0.01185-0.1221 0.01185-0.1221 0.000041-0.0022 0.000041-0.0044 0-0.0066v-0.2211c0-0.063-0.000742-0.16005-0.06716-0.2607l-1.8767-2.7852c-0.0013-0.000009-0.0026-0.000009-0.0039 0-0.09728-0.1422-0.27803-0.22931-0.4741-0.2277h-24.223c-0.0042-0.000179-0.0077 0.000098-0.01185 0-0.01398-0.000319-0.02547-0.000592-0.03951 0-0.0053-0.000132-0.01054-0.000132-0.0158 0z"/>
   <path id="path3704" style="enable-background:new;fill:url(#linearGradient5550);fill-rule:evenodd" d="m18.438 40-1.438 3h24l-1.544-3h-21.018z"/>
   <path id="rect6588" style="fill:url(#linearGradient5547)" d="m16 18.027h26.022v5.2025l-26.022 4.552v-9.755z"/>
   <path id="rect2312" style="fill:url(#radialGradient2887)" d="m19.938 40c-0.78836 0.4545 0.19552 1.5246 0.73489 0.814 0.138-0.657-0.091-0.907-0.735-0.814zm2 0c-0.78836 0.4545 0.19552 1.5246 0.73489 0.814 0.138-0.657-0.091-0.907-0.735-0.814zm2 0c-0.78836 0.4545 0.19552 1.5246 0.73489 0.814 0.138-0.657-0.091-0.907-0.735-0.814zm2 0c-0.78836 0.4545 0.19552 1.5246 0.73489 0.814 0.138-0.657-0.091-0.907-0.735-0.814zm2 0c-0.78836 0.4545 0.19552 1.5246 0.73489 0.814 0.138-0.657-0.091-0.907-0.735-0.814zm2 0c-0.78836 0.4545 0.19552 1.5246 0.73489 0.814 0.138-0.657-0.091-0.907-0.735-0.814zm2 0c-0.78836 0.4545 0.19552 1.5246 0.73489 0.814 0.182-0.616-0.162-0.929-0.735-0.814zm2 0c-0.78836 0.4545 0.19552 1.5246 0.73489 0.814 0.138-0.657-0.091-0.907-0.735-0.814zm2 0c-0.78836 0.4545 0.19552 1.5246 0.73489 0.814 0.138-0.657-0.091-0.907-0.735-0.814zm2 0c-0.78836 0.4545 0.19552 1.5246 0.73489 0.814 0.138-0.657-0.091-0.907-0.735-0.814zm-19 1c-0.78836 0.4545 0.19552 1.5246 0.73489 0.814 0.138-0.657-0.091-0.907-0.735-0.814zm2 0c-0.78836 0.4545 0.19552 1.5246 0.73489 0.814 0.138-0.657-0.091-0.907-0.735-0.814zm2 0c-0.78836 0.4545 0.19552 1.5246 0.73489 0.814 0.138-0.657-0.091-0.907-0.735-0.814zm2 0c-0.78836 0.4545 0.19552 1.5246 0.73489 0.814 0.138-0.657-0.091-0.907-0.735-0.814zm2 0c-0.78836 0.4545 0.19552 1.5246 0.73489 0.814 0.138-0.657-0.091-0.907-0.735-0.814zm2 0c-0.78836 0.4545 0.19552 1.5246 0.73489 0.814 0.138-0.657-0.091-0.907-0.735-0.814zm2 0c-0.78836 0.4545 0.19552 1.5246 0.73489 0.814 0.138-0.657-0.091-0.907-0.735-0.814zm2 0c-0.78836 0.4545 0.19552 1.5246 0.73489 0.814 0.138-0.657-0.091-0.907-0.735-0.814zm2 0c-0.78836 0.4545 0.19552 1.5246 0.73489 0.814 0.138-0.657-0.091-0.907-0.735-0.814zm2 0c-0.78836 0.4545 0.19552 1.5246 0.73489 0.814 0.138-0.657-0.091-0.907-0.735-0.814zm2 0c-0.78836 0.4545 0.19552 1.5246 0.73489 0.814 0.138-0.657-0.091-0.907-0.735-0.814zm-19 1c-0.78836 0.4545 0.19552 1.5246 0.73489 0.814 0.138-0.657-0.091-0.907-0.735-0.814zm2 0c-0.78836 0.4545 0.19552 1.5246 0.73489 0.814 0.138-0.657-0.091-0.907-0.735-0.814zm2 0c-0.78836 0.4545 0.19552 1.5246 0.73489 0.814 0.138-0.657-0.091-0.907-0.735-0.814zm2 0c-0.78836 0.4545 0.19552 1.5246 0.73489 0.814 0.138-0.657-0.091-0.907-0.735-0.814zm2 0c-0.78836 0.4545 0.19552 1.5246 0.73489 0.814 0.138-0.657-0.091-0.907-0.735-0.814zm2 0c-0.78836 0.4545 0.19552 1.5246 0.73489 0.814 0.138-0.657-0.091-0.907-0.735-0.814zm2 0c-0.78836 0.4545 0.19552 1.5246 0.73489 0.814 0.182-0.616-0.162-0.929-0.735-0.814zm2 0c-0.78836 0.4545 0.19552 1.5246 0.73489 0.814 0.138-0.657-0.091-0.907-0.735-0.814zm2 0c-0.78836 0.4545 0.19552 1.5246 0.73489 0.814 0.138-0.657-0.091-0.907-0.735-0.814zm2 0c-0.78836 0.4545 0.19552 1.5246 0.73489 0.814 0.138-0.657-0.091-0.907-0.735-0.814z"/>
  </g>
 </g>
</svg>
