<?xml version="1.0" encoding="UTF-8" standalone="no"?>
<!-- Created with Inkscape (http://www.inkscape.org/) -->
<svg id="svg15137" xmlns="http://www.w3.org/2000/svg" height="48" width="48" version="1.1" xmlns:xlink="http://www.w3.org/1999/xlink">
 <defs id="defs15139">
  <radialGradient id="radialGradient2612" gradientUnits="userSpaceOnUse" cy="4.625" cx="62.625" gradientTransform="matrix(1 0 0 .34118 0 3.0471)" r="10.625">
   <stop id="stop8840" offset="0"/>
   <stop id="stop8842" style="stop-opacity:0" offset="1"/>
  </radialGradient>
  <linearGradient id="linearGradient15133" y2=".24326" gradientUnits="userSpaceOnUse" x2="62.2" gradientTransform="matrix(2.1499 0 0 2.1499 -110.12 31.935)" y1="-12.489" x1="62.2">
   <stop id="stop4875" style="stop-color:#fff" offset="0"/>
   <stop id="stop4877" style="stop-color:#fff;stop-opacity:0" offset="1"/>
  </linearGradient>
  <radialGradient id="radialGradient15127" gradientUnits="userSpaceOnUse" cy="-8.7256" cx="62.2" gradientTransform="matrix(2.4129 0 0 2.413 -126.48 34.231)" r="9.7553">
   <stop id="stop8649" style="stop-color:#8fb1dc" offset="0"/>
   <stop id="stop8651" style="stop-color:#3465a4" offset="1"/>
  </radialGradient>
  <radialGradient id="radialGradient2418" gradientUnits="userSpaceOnUse" cy="24.149" cx="17.814" gradientTransform="matrix(-2.644 0 2.9365e-8 2.5344 78.725 -37.986)" r="9.125">
   <stop id="stop4847" style="stop-color:#fff" offset="0"/>
   <stop id="stop4849" style="stop-color:#b6b6b6" offset="1"/>
  </radialGradient>
  <radialGradient id="radialGradient5145" gradientUnits="userSpaceOnUse" cy="13.067" cx="23.86" gradientTransform="matrix(-1.5425 0 0 -.84553 60.718 23.829)" r="18.098">
   <stop id="stop14112" style="stop-color:#557695" offset="0"/>
   <stop id="stop14114" style="stop-color:#15395c" offset="1"/>
  </radialGradient>
  <radialGradient id="radialGradient5147" gradientUnits="userSpaceOnUse" cy="-3.442" cx="62.225" gradientTransform="matrix(1.1035 0 0 1.0265 -4.1555 -1.8158)" r="10.081">
   <stop id="stop14118" style="stop-color:#9e9e9e" offset="0"/>
   <stop id="stop14120" style="stop-color:#9e9e9e;stop-opacity:0" offset="1"/>
  </radialGradient>
 </defs>
 <g id="layer1">
  <path id="path8836" style="opacity:.4;fill-rule:evenodd;fill:url(#radialGradient2612)" d="m73.25 4.625a10.625 3.625 0 1 1 -21.25 0 10.625 3.625 0 1 1 21.25 0z" transform="matrix(2.1647 0 0 2.5637 -111.56 26.85)"/>
  <g id="g15122" transform="translate(.79042 -.78563)">
   <path id="path6495" style="stroke:#204a87;fill:url(#radialGradient15127)" d="m43.505 24.387c0 10.99-8.9091 19.899-19.897 19.899-10.989 0-19.898-8.9091-19.898-19.899 0-10.989 8.9086-19.897 19.898-19.897 10.988 0 19.897 8.9081 19.897 19.897z"/>
   <path id="path6534" style="stroke:url(#radialGradient5147);stroke-width:1.1035;fill:url(#radialGradient5145)" d="m23.726 5.3141c-1.5283 0.12067-3.0328 0.36544-4.4919 0.84567-1.23 0.48843 0.88689-0.42988-0.37486-0.60468-0.75942-0.12994-1.0776 0.65251-1.7561 0.67046-0.7741 0.023841-1.3048 0.71572-2.0319 0.79898-0.26187 1.4432-0.59924-0.56894-0.83949 0.13173 0.19047 0.7212-0.07796 1.1928-0.63582 1.6119-0.60156 0.68249-0.03584 1.2934 0.54212 0.69395 0.2775-0.83446 1.1825-1.7618 2.0655-1.2049 0.8837 0.48448 1.7582 1.6525 2.4938 0.40935-0.75488-0.090735-1.0462-0.73637-1.4079-1.2096-0.40023 0.031761-2.0794-0.32019-1.0059-0.24024 0.5284-0.17249 1.549-0.68558 1.9239-0.66537-0.94013 0.49026 0.35015 0.81268 0.73202 1.2035 0.68671 0.20357 0.99776 1.0757 0.37414 1.527-0.80181 0.4162 0.05573 1.1017 0.221 1.6748 0.12828 0.99827 0.99623 0.43282 1.2716-0.18046 0.39803-1.1153 1.6733-1.0767 2.5958-1.5522 1.008-0.51754 1.0248-0.53575 1.5034 0.20195 0.36764 0.21151 1.5947-0.55825 0.78901-0.929-0.68957 0.03713-1.142 0.46029-0.56364-0.60801 0.13915-0.57404 0.6791-1.3235 0.58092-1.7937-0.662-0.2603-1.324-0.5207-1.986-0.7811zm-9.3732 3.6945c0.35612 0.3643 1.5564 1.0234 1.4368 0.11255-0.14419-0.61744-1.0418-0.62308-1.4368-0.11255zm18.165-0.44471c-0.82412 0.16922-1.6412 0.35467-2.292 0.92363 0.19457 0.7853-0.8341 0.89786-1.2851 1.3281-0.12036 0.25242-0.02467 1.8403 0.51105 1.1573 0.58162-0.77246 0.83368 0.40868 1.4478 0.52687 0.4451-0.14324 0.5002-1.1438 0.33275-1.6043 0.28525-0.46984 0.75058-1.1195 1.3539-1.0659-0.37419 0.57099-0.80163 2.0315 0.3911 1.4345 0.34518-0.006-0.93958 0.75452-1.0166 1.273-0.48258 0.51284-0.9934 0.90587-1.6905 0.50847-0.33355-0.28162-0.50305-1.0992-0.71414-0.17566 0.43341 0.73252-1.089 0.04718-1.0514 1.0356-0.31972 0.61514-0.89623 0.8671-1.563 0.91149 0.24198 0.19141 1.1924 1.3314 0.24953 1.1701-0.60352 0.06628-1.4857 0.40701-1.2414 1.1653-0.27486 0.9444 0.4249 0.70654 0.85522 1.2977 0.70116-0.19916 1.1488-0.62908 1.2634-1.3621 0.65618-0.19273 0.73557-0.93195 1.456-0.91702 0.7182-0.40381 0.88559 0.73738 1.5587 0.82181 0.07058 0.4087-0.33464 1.281 0.45659 0.4693 0.76441-0.55387-0.79512-1.2716-0.30963-1.4066 0.69099 0.22071 0.94006 0.87671 1.051 1.519 0.56306 0.9634 0.70185 0.44404 0.74672-0.40362 0.87723-0.39439 1.1473 1.641 2.3881 1.1397 0.92678 0.19174 0.59949 0.8304-0.01904 1.2203-0.50066 0.47112-1.3382 0.17338-1.9265-0.01558-0.56472-0.27756-1.3196-0.24813-1.6214 0.38347-0.46529-0.21764-0.94642-0.91135-1.4178-1.3118-1.1647-0.5139-2.4314-0.07571-3.5919 0.23946-0.99563 1.1632-2.1949 2.219-2.6236 3.7359-0.62778 0.63853 0.54336 1.0082-0.24392 1.556-0.6428 0.51279 0.10805 1.1629 0.2458 1.7527 0.60445 0.74395 1.6306 3.0723 2.5708 2.1452 0.52705-0.80245 0.81963 0.61582 1.4399-0.30194 0.4952-0.39949 0.9695 0.45802 1.6897 0.14331 0.69372 0.4284 0.56095 1.0433 0.27484 1.6928 0.15583 0.54087 0.93098 0.9344 0.62978 1.6677-0.27366 0.68309 0.58312 1.201 0.41038 1.7987-0.5748 1.1512-0.43928 2.5747 0.09386 3.7157 0.42668 1.0325 0.67699 2.1484 0.64366 3.2692 0.74277 0.2222 1.1367-0.72912 1.8776-0.51313 0.72333 0.09324 0.99191-0.82974 1.5008-1.2158 0.56704-0.46747-0.07223-1.1873 0.82794-1.5185 0.87331-0.42523-1.106-1.0213 0.0152-1.4024 0.46515-0.51761 1.4132-0.69776 1.6008-1.3735-0.33834-1.0398-0.21797-2.1801-0.16738-3.2436 0.32552-0.84167 0.72975-1.6312 1.4262-2.2272 0.28082-0.92669 0.94924-1.7777 0.88942-2.7709-1.6476 0.50399-1.1482-0.21491-0.22962-0.87318 0.63508-0.42199 1.4051-0.84564 1.7006-1.5617 0.14435-0.81048-0.45227-2.1297-1.0079-0.90496-0.24511-0.4707-1.1542-0.71744-1.113-1.3307-0.17659-1.2625 0.34462-0.14427 0.86051 0.10789 1.1146-0.60521 1.6818 1.7766 2.3893 0.35503-0.618-4.471-3.052-8.528-6.34-11.567-0.571-1.0949-0.921 0.75-1.501 0.68-0.464-0.485-1.33-1.1394-0.122-0.914 1.034-0.3028 0.333-0.7027-0.425-0.6842-0.574-0.0697-1.101-0.2706-1.635-0.4789zm-20.56 0.4447c-0.275 1.3534-2.0109 1.1954-2.6162 2.5304-2.9783 3.153-4.8166 7.302-5.32 11.598 0.26584 1.0071 1.1105 1.4908 1.9601 1.9373 0.72184 0.41932 1.7801 0.2342 2.1848 1.1124 0.45187 0.36983 0.93948 1.0997 1.5856 0.87722 0.93664-0.09099 0.36019 0.85823 0.19973 1.3392-0.059277 0.607-0.80778 0.99372-0.52016 1.5778-0.24136 0.66166-0.43304 1.3177 0.10262 1.8906 0.45551 0.83988 0.82632 1.7478 1.6708 2.2751 0.59217 0.49728 1.2625 1.1553 1.0304 1.9974-0.12338 0.68167 0.04306 1.3099 0.3725 1.908-0.11816 0.67146-0.36073 1.3584-0.4105 2.0183 0.87949 0.62206 2.6705 2.0606 2.8031 0.49489 0.50176-0.45161 0.5321-1.1784 1.3743-1.1804 0.3909-0.47777 0.52549-1.2283 0.81706-1.8117-0.42572-0.5384 0.16631-1.3697 0.8046-1.3477 0.81594 0.06128 0.78593-0.89448 1.1111-1.4232-0.0073-0.77224-0.38892-1.6471 0.30542-2.227 0.52242-0.47344 0.46827-1.1675 0.5498-1.8097-1.171-0.7244-2.712-1.0911-3.6386-2.0687-0.18364-0.76504-0.7598-1.0229-1.4925-1.0784-0.30936-0.43256-0.25697-1.4628-0.79753-1.5131-0.69628 0.13369-1.3857 0.24089-1.8917-0.3644-0.573-0.776-1.069 0.2-1.593 0.546-0.492 0.856-1.8683-0.043-1.7038-1.007 0.4839-1.334-1.6425 0.148-0.7699-1.425 0.4151-1.715-0.7067-0.396-1.2952-0.011-0.71822 0.0081-0.98953-0.70747-0.86146-1.3625-0.091117-0.78733 0.48283-1.1877 1.0669-1.5822 0.78161 0.12038 0.97989-0.56085 1.5654-0.4722 0.73603-0.03767 1.0049 0.66782 1.4232 1.1357 0.17514-0.66797-0.18345-1.6152 0.55606-1.9879 0.56414-0.42781 1.137-0.84927 1.2721-1.5904 0.13304-0.77598 1.2893-0.46761 1.4837-1.2526 0.26877-0.8206 1.5114-0.15823 1.7899-0.96804 0.8733-0.82086-0.27242-0.57178-0.89854-0.59806-1.2353 0.12695 0.1228-0.32763 0.58598-0.58155 0.68608 0.09073 1.3195-0.13384 1.9499-0.37629 0.08445 0.85843 0.24597 1.3112 0.68417 0.30788-0.85421-0.20211-0.11618-1.0402-0.95973-1.2614-0.66764 0.04697 0.0066-1.4189-0.81571-1.2577-1.0697 0.70782-0.11401-0.50251-0.9854-0.66347-0.68736-0.74222-0.85436 0.47657-1.2276 0.9183 0.24207 0.84702-0.79095 0.66525-0.97976 1.3606-0.41814 1.2534-0.24143-0.08931-0.74055-0.41035-0.61653-0.24732-1.3592-0.3784-1.3637-1.1899 0.82658-0.60512 2.0667-0.96189 2.5994-1.9148 0.3095-0.74008-0.26215-1.1445-0.96618-1.0889l-0.000005-2e-7zm14.675 1.642c-0.12491 0.65746 0.5475 1.009 0.30788 1.7104-0.21487 0.76842-0.27728 1.3789 0.68289 0.93046 0.99668-0.51183 0.36052-0.90148-0.03867-1.5728-0.27187-0.44613-0.24574-1.275-0.9521-1.0681zm-0.75259 1.0947c-0.79414-0.24012-0.61745 1.4493-0.12164 1.0118 0.7276-0.17916 0.23703-0.5252 0.12164-1.0118zm10.023 8.9969c0.95184 0.84444 1.277 2.0946 1.8858 3.1596 0.90428 0.39972 0.0415 1.0795 0.44521 1.5712 0.84897 0.92228-1.1752 0.24516-0.90606-0.67899-0.1971-1.2139-1.0559-2.044-1.4678-3.1045-0.04294-0.3526-0.38552-0.71788 0.04284-0.94732z"/>
   <path id="path8655" style="opacity:.4;stroke:url(#linearGradient15133);fill:none" d="m42.409 24.387c0 10.384-8.4184 18.803-18.801 18.803-10.384 0-18.802-8.4184-18.802-18.803 0-10.384 8.418-18.801 18.802-18.801 10.383 0 18.801 8.4175 18.801 18.801z"/>
  </g>
  <g id="g2414" transform="matrix(.99991 -.013701 .013701 .99991 -.28870 .53585)">
   <path id="path3970" style="stroke-linejoin:round;fill-rule:evenodd;stroke:#666;fill:url(#radialGradient2418)" d="m30.5 20.937 17 16.5-7.75 0.25s3.25 6.75 3.25 6.75c1 3-3.5 4.125-4.25 1.875l-3-6.75-5.5 5.875 0.25-24.5z"/>
   <path id="path4853" style="opacity:.4;stroke:#fff;fill:none" d="m31.657 23.379 13.476 13.186-6.9219 0.27746l3.8721 7.7566c0.40273 1.6501-2.0283 2.4126-2.5071 1.1529l-3.6831-7.845-4.4247 4.7083 0.18907-19.236z"/>
  </g>
 </g>
</svg>
