<?xml version="1.0" encoding="UTF-8" standalone="no"?>
<!-- Created with Inkscape (http://www.inkscape.org/) -->
<svg id="svg3385" xmlns="http://www.w3.org/2000/svg" height="128" width="128" version="1.0" xmlns:xlink="http://www.w3.org/1999/xlink">
 <defs id="defs3387">
  <radialGradient id="radialGradient2587" xlink:href="#linearGradient5060" gradientUnits="userSpaceOnUse" cy="41.5" cx="32" gradientTransform="matrix(2.2857 0 0 .76190 -11.143 72.381)" r="21"/>
  <linearGradient id="linearGradient2584" y2="45" xlink:href="#linearGradient3785" gradientUnits="userSpaceOnUse" x2="30" gradientTransform="matrix(2.6774 0 0 2.6667 -18.323 -3.1666)" y1="25.085" x1="30"/>
  <radialGradient id="radialGradient2582" xlink:href="#linearGradient6954" gradientUnits="userSpaceOnUse" cy="28.66" cx="25" gradientTransform="matrix(3.5141 0 0 .99538 -39.24 50.973)" r="16"/>
  <linearGradient id="linearGradient3383" y2="5.7667" xlink:href="#linearGradient3341" gradientUnits="userSpaceOnUse" x2="30" gradientTransform="matrix(2.6774 0 0 2.6667 -24.323 -3.1666)" y1="44.324" x1="30"/>
  <linearGradient id="linearGradient3785">
   <stop id="stop3787" style="stop-color:#bdbdbd" offset="0"/>
   <stop id="stop3789" style="stop-color:#8c8c8c" offset="1"/>
  </linearGradient>
  <linearGradient id="linearGradient2576" y2="44.679" xlink:href="#linearGradient3785" gradientUnits="userSpaceOnUse" x2="30" gradientTransform="matrix(2.6667 0 0 2.6503 -18.5 -3.0766)" y1="5" x1="30"/>
  <linearGradient id="linearGradient6954">
   <stop id="stop6960" style="stop-color:#f5f5f5" offset="0"/>
   <stop id="stop6962" style="stop-color:#d2d2d2" offset="1"/>
  </linearGradient>
  <radialGradient id="radialGradient2574" xlink:href="#linearGradient6954" gradientUnits="userSpaceOnUse" cy="12.313" cx="26.376" gradientTransform="matrix(4.3738 -.35138 .34164 4.2004 -67.557 -16.931)" r="8"/>
  <linearGradient id="linearGradient2571" y2="37.438" xlink:href="#linearGradient5060" gradientUnits="userSpaceOnUse" x2="17" gradientTransform="matrix(2.6774 0 0 2.6667 -18.323 -3.1666)" y1="39" x1="22"/>
  <linearGradient id="linearGradient2568" y2="38.6" xlink:href="#linearGradient5060" gradientUnits="userSpaceOnUse" x2="43" gradientTransform="matrix(2.6774 0 0 2.6667 -18.323 -3.1666)" y1="39" x1="38"/>
  <linearGradient id="linearGradient5060">
   <stop id="stop5062" offset="0"/>
   <stop id="stop5064" style="stop-opacity:0" offset="1"/>
  </linearGradient>
  <radialGradient id="radialGradient2565" xlink:href="#linearGradient5060" gradientUnits="userSpaceOnUse" cy="33.188" cx="30" gradientTransform="matrix(4.091 -.0000018839 5.7052e-7 1.229 -60.731 36.047)" r="4.6875"/>
  <linearGradient id="linearGradient3371" y2="27.957" xlink:href="#linearGradient3341" gradientUnits="userSpaceOnUse" x2="30" gradientTransform="matrix(2.7846 0 0 2.7471 -28.039 -4.7059)" y1="3.0411" x1="30"/>
  <linearGradient id="linearGradient2559" y2="3.0816" xlink:href="#linearGradient2490-182-124" gradientUnits="userSpaceOnUse" x2="18.379" gradientTransform="matrix(1.3763 0 0 1.3763 63.468 62.468)" y1="44.98" x1="18.379"/>
  <radialGradient id="radialGradient2557" gradientUnits="userSpaceOnUse" cy="3.99" cx="23.896" gradientTransform="matrix(0 3.2849 -4.336 0 113.8 -13.107)" r="20.397">
   <stop id="stop2778" style="stop-color:#8badea" offset="0"/>
   <stop id="stop2780" style="stop-color:#6396cd" offset=".26238"/>
   <stop id="stop2782" style="stop-color:#3b7caf" offset=".66094"/>
   <stop id="stop2784" style="stop-color:#194c70" offset="1"/>
  </radialGradient>
  <linearGradient id="linearGradient3341">
   <stop id="stop3343" style="stop-color:#fff" offset="0"/>
   <stop id="stop3345" style="stop-color:#fff;stop-opacity:0" offset="1"/>
  </linearGradient>
  <linearGradient id="linearGradient2554" y2="5.4676" xlink:href="#linearGradient3341" gradientUnits="userSpaceOnUse" x2="63.397" gradientTransform="matrix(3.0873 0 0 3.0872 -95.531 106.34)" y1="-12.489" x1="63.397"/>
  <linearGradient id="linearGradient2490-182-124">
   <stop id="stop2788" style="stop-color:#1f4b6a" offset="0"/>
   <stop id="stop2790" style="stop-color:#4083c2" offset="1"/>
  </linearGradient>
  <linearGradient id="linearGradient3367" y2="67.015" xlink:href="#linearGradient2490-182-124" gradientUnits="userSpaceOnUse" x2="90.5" gradientTransform="translate(6)" y1="123.88" x1="90.5"/>
 </defs>
 <g id="layer1">
  <path id="path3823" style="opacity:.7;fill:url(#radialGradient2587)" d="m110 104c0 8.84-21.49 16-48 16s-48-7.16-48-16c0-8.836 21.49-16 48-16s48 7.164 48 16z"/>
  <path id="path3766" style="stroke:url(#linearGradient2584);fill:url(#radialGradient2582)" d="m49.952 51.5c1.232 5.805 1.92 10.195 0.92 16-7.793 6.44-27.724 9.333-27.695 16l-2.677 20c0 6.63 18.58 12 41.5 12s41.5-5.37 41.5-12l-2.68-20c-0.03-5.706-20.078-9.333-27.776-16-0.657-5.388-0.134-10.612 1.004-16h-24.096z"/>
  <path id="path3381" style="opacity:.4;stroke:url(#linearGradient3383);fill:none" d="m45.156 52.531c1.065 5.224 1.7 9.641 0.75 15.157-0.046 0.246-0.179 0.468-0.375 0.624-4.175 3.45-11.15 5.717-17.062 8.063-2.956 1.173-5.64 2.367-7.5 3.594-1.86 1.226-2.755 2.386-2.75 3.531 0.002 0.042 0.002 0.083 0 0.125l-2.688 19.875v0.03c0.013 1.16 0.874 2.46 2.813 3.78 1.953 1.34 4.907 2.59 8.594 3.66 7.373 2.13 17.684 3.5 29.062 3.5s21.689-1.37 29.062-3.5c3.687-1.07 6.641-2.32 8.594-3.66 1.939-1.32 2.8-2.62 2.813-3.78v-0.03l-2.688-19.875c-0.002-0.042-0.002-0.083 0-0.125-0.002-0.407-0.196-0.841-0.656-1.375s-1.177-1.129-2.125-1.719c-1.895-1.178-4.617-2.341-7.594-3.562-5.954-2.443-12.945-4.996-17.062-8.563-0.191-0.169-0.313-0.403-0.344-0.656-0.624-5.113-0.134-10.071 0.844-15.094h-21.688z" transform="translate(6)"/>
  <path id="path3764" style="stroke:url(#linearGradient2576);fill:url(#radialGradient2574)" d="m61.5 11.5c-11.046 0-20 8.306-20 18.552 0.087 3.792 0.412 8.297 2.667 18.552 1.333 3.976 13.226 14.577 13.333 15.902 2.586 1.325 6.667 1.325 9.333 0 0-1.325 10.667-11.926 12-15.902 2.537-10.658 2.531-14.576 2.667-18.552 0-10.246-8.954-18.552-20-18.552z"/>
  <path id="path3848" style="opacity:.3;fill:url(#linearGradient2571)" d="m37.903 112.03c-6.325-5.28-3.309-17.018-2.677-24.53-2.678 5.333-2.678 21.33-8.032 21.33 3.648 1.23 7.361 2.58 10.709 3.2z"/>
  <path id="path3850" style="opacity:.3;fill:url(#linearGradient2568)" d="m86.097 112.03c6.292-4.65 3.097-17.292 2.677-24.53 2.678 5.333 2.678 21.33 8.032 21.33-3.648 1.23-7.361 2.58-10.709 3.2z"/>
  <path id="path3833" style="opacity:.2;fill:url(#radialGradient2565)" d="m49.45 68.833c1.837 4.653 6.744 8 12.55 8s10.713-3.347 12.55-8h-25.1z"/>
  <path id="path3369" style="opacity:.7;stroke:url(#linearGradient3371);stroke-width:1.0069;fill:none" d="m55.5 12.469c-10.439 0-18.728 7.658-18.781 17.062v0.031c-0.001-0.047-0.002 0.012 0 0.094 0.089 3.806 0.45 8.297 2.719 18.594 0.005 0.053 0.015 0.105 0.031 0.156 0.141 0.331 0.359 0.645 0.75 1.219 0.39 0.574 0.922 1.295 1.562 2.063 1.301 1.557 2.894 3.292 4.531 5 1.635 1.704 3.297 3.395 4.532 4.718 0.607 0.651 1.101 1.245 1.531 1.782-0.083-0.103-0.095-0.077 0.063 0.124 0.089 0.114 0.208 0.201 0.343 0.25 1.897 0.736 4.716 0.725 6.719 0 0.151-0.052 0.282-0.151 0.375-0.281 0.398-0.57 0.818-1.177 1.344-1.812 1.097-1.325 2.526-2.915 4-4.625 1.472-1.709 3.027-3.559 4.219-5.125 1.14-1.5 1.832-2.594 2.093-3.219 0.014-0.041 0.025-0.083 0.031-0.125 0.01-0.04-0.003-0.054 0-0.094 2.579-10.778 2.579-14.504 2.719-18.625v-0.031-0.094c-0.053-9.404-8.342-17.062-18.781-17.062z" transform="translate(6)"/>
  <path id="path2555" style="stroke-linejoin:round;stroke:url(#linearGradient2559);stroke-linecap:round;fill:url(#radialGradient2557)" d="m96.5 67.5c-15.449 0-28 12.551-28 28 0 15.45 12.551 28 28 28 15.45 0 28-12.55 28-28 0-15.449-12.55-28-28-28z"/>
  <path id="path2463" style="opacity:.4;stroke:url(#linearGradient2554);fill:none" d="m123.5 95.499c0 14.911-12.09 27.001-27 27.001-14.911 0-27-12.09-27-27.001s12.089-26.999 27-26.999c14.91 0 27 12.088 27 26.999z"/>
  <path id="path2589" style="fill:url(#linearGradient3367)" d="m89 94.107c0.357 0.962 0.759 1.741 1.614 0.675 1.061-0.625 4.616-3.368 4.26-0.681-1.138 4.97-2.524 9.889-3.583 14.879-1.108 2.73 1.408 5.2 4.034 3.42 2.791-1.14 5.195-3 7.645-4.7-0.33-0.82-0.56-1.99-1.48-0.92-1.22 0.55-3.869 3.12-4.362 1 1.02-5.39 2.912-10.569 4.122-15.909 1.11-2.455-0.71-5.557-3.426-3.526-3.257 1.406-5.98 3.703-8.824 5.762zm12.09-18.103c-3.325-0.175-5.063 5.136-1.905 6.589 2.565 1.041 5.355-1.564 4.725-4.166-0.19-1.355-1.42-2.468-2.82-2.423z"/>
  <path id="path3536" style="fill:#fff" d="m89 95.107c0.357 0.962 0.759 1.741 1.614 0.675 1.061-0.625 4.616-3.368 4.26-0.681-1.138 4.969-2.524 9.889-3.583 14.879-1.108 2.73 1.408 5.2 4.034 3.42 2.791-1.14 5.195-3 7.645-4.7-0.33-0.82-0.56-1.99-1.48-0.92-1.22 0.55-3.869 3.12-4.362 1 1.02-5.39 2.912-10.569 4.122-15.909 1.11-2.455-0.71-5.557-3.426-3.526-3.257 1.406-5.98 3.703-8.824 5.762zm12.09-18.103c-3.325-0.175-5.063 5.136-1.905 6.589 2.565 1.041 5.355-1.564 4.725-4.166-0.19-1.355-1.42-2.468-2.82-2.423z"/>
 </g>
</svg>
