<?xml version="1.0" encoding="UTF-8" standalone="no"?>
<!-- Created with Inkscape (http://www.inkscape.org/) -->
<svg id="svg9481" xmlns="http://www.w3.org/2000/svg" height="64" width="64" version="1.0" xmlns:xlink="http://www.w3.org/1999/xlink">
 <defs id="defs9483">
  <linearGradient id="linearGradient5060-6">
   <stop id="stop5062-3" offset="0"/>
   <stop id="stop5064-1" style="stop-opacity:0" offset="1"/>
  </linearGradient>
  <linearGradient id="linearGradient2432" y2="43.811" gradientUnits="userSpaceOnUse" x2="12.579" gradientTransform="matrix(1.31 0 0 1.2297 .55913 6.2253)" y1="2.9137" x1="12.579">
   <stop id="stop2240" style="stop-color:#fff" offset="0"/>
   <stop id="stop2242" style="stop-color:#fff;stop-opacity:0" offset="1"/>
  </linearGradient>
  <linearGradient id="linearGradient2435" y2="16.323" gradientUnits="userSpaceOnUse" x2="33.579" gradientTransform="matrix(1.1046 0 0 .87959 -3.5962 3.8105)" y1="5.7086" x1="33.579">
   <stop id="stop2547" style="stop-color:#fdfdf8" offset="0"/>
   <stop id="stop2549" style="stop-color:#d6d3b4" offset="1"/>
  </linearGradient>
  <linearGradient id="linearGradient2437" y2="14" gradientUnits="userSpaceOnUse" x2="16.916" gradientTransform="matrix(1.3556 0 0 1.3335 -.53335 -.50193)" y1="7.0006" x1="16.916">
   <stop id="stop2540" style="stop-color:#aeae94" offset="0"/>
   <stop id="stop2542" style="stop-color:#626337" offset="1"/>
  </linearGradient>
  <linearGradient id="linearGradient2440" y2="13.523" gradientUnits="userSpaceOnUse" x2="24.683" gradientTransform="matrix(1.3041 0 0 .70201 .71142 11.512)" y1="9.2417" x1="24.683">
   <stop id="stop3284" offset="0"/>
   <stop id="stop3286" style="stop-opacity:0" offset="1"/>
  </linearGradient>
  <linearGradient id="linearGradient2443" y2="24.628" gradientUnits="userSpaceOnUse" x2="20.055" gradientTransform="matrix(1.3061 0 0 1.3934 .65306 1.6829)" y1="15.298" x1="16.626">
   <stop id="stop2687" style="stop-color:#fff" offset="0"/>
   <stop id="stop2689" style="stop-color:#fff;stop-opacity:0" offset="1"/>
  </linearGradient>
  <radialGradient id="radialGradient2446" gradientUnits="userSpaceOnUse" cy="-2.0645" cx="26.617" gradientTransform="matrix(-2.4655e-8 -1.4401 1.8933 0 48.22 78.499)" r="23">
   <stop id="stop2749" style="stop-color:#d78ec1" offset="0"/>
   <stop id="stop2751" style="stop-color:#c564be" offset=".26238"/>
   <stop id="stop2753" style="stop-color:#9d3ea4" offset=".66094"/>
   <stop id="stop2755" style="stop-color:#5e2c73" offset="1"/>
  </radialGradient>
  <linearGradient id="linearGradient2448" y2="2.8765" gradientUnits="userSpaceOnUse" x2="10.014" gradientTransform="matrix(1.2979 0 0 1.2209 .85054 5.1829)" y1="44.96" x1="10.014">
   <stop id="stop2759" style="stop-color:#650d5c" offset="0"/>
   <stop id="stop2761" style="stop-color:#ad53a5" offset="1"/>
  </linearGradient>
  <radialGradient id="radialGradient2451" xlink:href="#linearGradient5060-6" gradientUnits="userSpaceOnUse" cy="486.65" cx="605.71" gradientTransform="matrix(-.087450 0 0 .024706 63.59 47.942)" r="117.14"/>
  <radialGradient id="radialGradient2454" xlink:href="#linearGradient5060-6" gradientUnits="userSpaceOnUse" cy="486.65" cx="605.71" gradientTransform="matrix(.087450 0 0 .024706 .41038 47.942)" r="117.14"/>
  <linearGradient id="linearGradient2457" y2="609.51" gradientUnits="userSpaceOnUse" x2="302.86" gradientTransform="matrix(.087450 0 0 .024706 .39317 47.942)" y1="366.65" x1="302.86">
   <stop id="stop5050-5" style="stop-opacity:0" offset="0"/>
   <stop id="stop5056-9" offset=".5"/>
   <stop id="stop5052-6" style="stop-opacity:0" offset="1"/>
  </linearGradient>
 </defs>
 <rect id="rect2512" style="opacity:.3;fill:url(#linearGradient2457)" height="6" width="42.226" y="57" x="10.887"/>
 <path id="path2514" style="opacity:.3;fill:url(#radialGradient2454)" d="m53.113 57v6c4.503 0.011 10.887-1.344 10.887-3s-5.026-3-10.887-3z"/>
 <path id="path2516" style="opacity:.3;fill:url(#radialGradient2451)" d="m10.887 57v6c-4.5033 0.011-10.887-1.344-10.887-3s5.0255-3 10.887-3z"/>
 <rect id="rect2573" style="stroke-linejoin:round;fill-rule:evenodd;stroke:url(#linearGradient2448);stroke-linecap:round;stroke-width:1.0021;fill:url(#radialGradient2446)" rx="3" ry="3" height="49.997" width="60.998" y="9.5011" x="1.5011"/>
 <path id="path2603" style="opacity:.2;fill:url(#linearGradient2443);fill-rule:evenodd" d="m4.8571 10c-1.5781 0-2.8571 1.364-2.8571 3.048v22.295c0.0036 0.188 0.0807 0.365 0.2126 0.489 0.1318 0.124 0.3064 0.184 0.4813 0.164l58.775-9.928c0.303-0.051 0.527-0.327 0.531-0.653v-12.367c0-1.684-1.279-3.048-2.857-3.048h-54.286z"/>
 <rect id="rect1436" style="opacity:.2;fill-rule:evenodd;fill:url(#linearGradient2440)" rx="0" ry="0" height="3" width="60" y="18" x="2"/>
 <path id="rect2311" style="fill-rule:evenodd;stroke:url(#linearGradient2437);fill:url(#linearGradient2435)" d="m5.083 9.5l54.18 0.0115c2.121 0 3.237 1.3075 3.237 3.1685v4.82h-61v-4.908c0-1.983 1.1549-3.092 3.583-3.092z"/>
 <rect id="rect2601" style="opacity:.4;stroke-linejoin:round;stroke:url(#linearGradient2432);stroke-linecap:round;fill:none" rx="2" ry="2" height="48" width="59" y="10.5" x="2.5"/>
 <path id="path4160" style="stroke-linejoin:round;stroke:#ccc;stroke-width:.99992;fill:#f2f2f2" d="m6.5 22.5h4.924c0.258 0.108 1.714 1.422 2.076 2.273v7.727h-7v-10z"/>
 <path id="path4156" style="stroke-linejoin:round;stroke:#ccc;stroke-width:.99992;fill:#f2f2f2" d="m6.5 37.5h4.924c0.258 0.108 1.714 1.422 2.076 2.273v7.727h-7v-10z"/>
</svg>
