<?xml version="1.0" encoding="UTF-8" standalone="no"?>
<!-- Created with Inkscape (http://www.inkscape.org/) -->
<svg id="svg2636" xmlns="http://www.w3.org/2000/svg" height="32" width="32" version="1.0" xmlns:xlink="http://www.w3.org/1999/xlink">
 <defs id="defs2638">
  <linearGradient id="linearGradient2487" y2="39.999" gradientUnits="userSpaceOnUse" x2="25.058" y1="47.028" x1="25.058">
   <stop id="stop2895" style="stop-color:#181818;stop-opacity:0" offset="0"/>
   <stop id="stop2897" style="stop-color:#181818" offset=".5"/>
   <stop id="stop2899" style="stop-color:#181818;stop-opacity:0" offset="1"/>
  </linearGradient>
  <radialGradient id="radialGradient2485" gradientUnits="userSpaceOnUse" cy="43.5" cx="4.993" gradientTransform="matrix(2.0038 0 0 1.4 -20.012 -104.4)" r="2.5">
   <stop id="stop2889" style="stop-color:#181818" offset="0"/>
   <stop id="stop2891" style="stop-color:#181818;stop-opacity:0" offset="1"/>
  </radialGradient>
  <radialGradient id="radialGradient2483" gradientUnits="userSpaceOnUse" cy="43.5" cx="4.993" gradientTransform="matrix(2.0038 0 0 1.4 27.988 -17.4)" r="2.5">
   <stop id="stop2883" style="stop-color:#181818" offset="0"/>
   <stop id="stop2885" style="stop-color:#181818;stop-opacity:0" offset="1"/>
  </radialGradient>
  <radialGradient id="radialGradient6265" gradientUnits="userSpaceOnUse" cy="11.405" cx="11.083" gradientTransform="matrix(-3.4422e-8 1.2408 -1.8113 -9.4314e-8 30.827 -3.5902)" r="20">
   <stop id="stop7211" style="stop-color:#e384c6" offset="0"/>
   <stop id="stop7213" style="stop-color:#c467be" offset=".26238"/>
   <stop id="stop7215" style="stop-color:#93399a" offset=".70495"/>
   <stop id="stop7217" style="stop-color:#48274f" offset="1"/>
  </radialGradient>
  <linearGradient id="linearGradient6267" y2="3.72" gradientUnits="userSpaceOnUse" x2="24" gradientTransform="matrix(.64103 0 0 .64103 .61538 1.6154)" y1="44" x1="24">
   <stop id="stop3709" style="stop-color:#4c2a4e" offset="0"/>
   <stop id="stop3711" style="stop-color:#a85394" offset="1"/>
  </linearGradient>
  <linearGradient id="linearGradient7271" y2="6" spreadMethod="reflect" gradientUnits="userSpaceOnUse" x2="17" gradientTransform="matrix(.62162 0 0 .62162 .62162 1.4696)" y1="25" x1="17">
   <stop id="stop3926" style="stop-color:#fff" offset="0"/>
   <stop id="stop3928" style="stop-color:#fff;stop-opacity:0" offset="1"/>
  </linearGradient>
  <radialGradient id="radialGradient7274" gradientUnits="userSpaceOnUse" cy="9.4885" cx="24" gradientTransform="matrix(0 .84264 -2.5189 0 47.326 -7.3122)" r="18.5">
   <stop id="stop3826" style="stop-color:#fff" offset="0"/>
   <stop id="stop3828" style="stop-color:#fff;stop-opacity:0" offset="1"/>
  </radialGradient>
  <linearGradient id="linearGradient7279" y2="43" gradientUnits="userSpaceOnUse" x2="24" gradientTransform="matrix(.62162 0 0 .62162 1.0811 2.0709)" y1="5" x1="24">
   <stop id="stop3310-1-4" style="stop-color:#fff" offset="0"/>
   <stop id="stop3312-5-3" style="stop-color:#fff;stop-opacity:0" offset="1"/>
  </linearGradient>
 </defs>
 <g id="g2036" transform="matrix(0.7 0 0 .27961 -.79998 17.858)">
  <g id="g3712" style="opacity:.4" transform="matrix(1.0526 0 0 1.2857 -1.2632 -13.429)">
   <rect id="rect2801" style="fill:url(#radialGradient2483)" height="7" width="5" y="40" x="38"/>
   <rect id="rect3696" style="fill:url(#radialGradient2485)" transform="scale(-1)" height="7" width="5" y="-47" x="-10"/>
   <rect id="rect3700" style="fill:url(#linearGradient2487)" height="7" width="28" y="40" x="10"/>
  </g>
 </g>
 <rect id="rect5505" style="stroke-linejoin:round;stroke:url(#linearGradient6267);stroke-linecap:round;fill:url(#radialGradient6265)" rx="1.8164" ry="1.8164" height="25" width="25" y="4.5" x="3.5"/>
 <rect id="rect6741-3" style="opacity:.4;stroke-linejoin:round;stroke:url(#linearGradient7279);stroke-linecap:round;fill:none" rx=".84863" ry=".84863" height="23" width="23" y="5.4899" x="4.5"/>
 <path id="path3782" style="opacity:.4;fill:url(#radialGradient7274)" d="m13 15-5 8-4-8 0.4972 12.636c0 0.47014 0.38459 0.85473 0.85473 0.85473h21.291c0.47 0 0.357-1.021 0.357-1.491v-15l-4-3-6 11-4-5z"/>
 <path id="path3834-9-0" style="opacity:.3;stroke-width:1px;color:#000000;stroke:url(#linearGradient7271);stroke-linecap:square;fill:none" d="m11.5 5.5101v23-23zm8.5 0v23-23z"/>
 <path id="text3934" style="opacity:.4;fill:#fff" d="m5.654 26.924c0.29534 0.06905 0.47055-0.04417 0.52301-0.34369 0.07975-0.26656 0.46335-0.07199 0.67972-0.13123 0.16952 0.12153 0.10885 0.58737 0.43479 0.47492 0.35095 0.06724-0.0485-0.36449-0.0574-0.53653-0.1819-0.433-0.3638-0.867-0.5457-1.301-0.3305-0.112-0.352 0.24-0.4604 0.461-0.1913 0.459-0.3827 0.918-0.574 1.377zm0.70368-0.80065c0.08391-0.11909 0.16782-0.76636 0.25172-0.4002 0.1343 0.27358 0.20133 0.49955-0.19132 0.4002h-0.04155-0.01884zm1.2886-1.0369c0.03501 0.53093-0.08666 1.092 0.09946 1.5963 0.51665 0.68837 1.3557-0.038 1.1413-0.72356v-0.87277c-0.35335-0.10127-0.38494 0.11921-0.34065 0.41558-0.01692 0.33338 0.04087 0.6784-0.04475 1.0017-0.55867 0.41586-0.53981-0.43131-0.5147-0.79388-0.06606-0.1833 0.14329-0.64202-0.12468-0.62342h-0.21597zm2.2568 1.2184h0.76086c-0.53227 0.97254-1.8107-0.42297-0.80811-0.87556 0.33574-0.27759 1.0522 0.51498 1.0973 0.07722-0.41029-0.72568-1.6536-0.52562-1.7889 0.30293-0.20135 0.78938 0.77336 1.4303 1.449 1.035 0.28838-0.07462 0.80977-0.96397 0.2415-0.85791h-0.95162v0.31827zm4.068 0.09449c0.02873 0.95931 1.6353 0.49087 1.0977-0.33478-0.27853-0.10469-1.0903-0.68769-0.36229-0.63184 0.25216 0.44924 0.66912-0.1401 0.10847-0.32697-0.84738-0.36091-1.0491 1.0384-0.1638 1.0599 0.51085 0.35582-0.28969 0.64174-0.4076 0.23373h-0.27245zm1.4261 0.52465h0.98714c0.11147-0.37243-0.17254-0.34937-0.45714-0.32573-0.27204 0.14724-0.27693-0.49322-0.06467-0.42768 0.2584-0.0034 0.61404 0.09046 0.49446-0.29091-0.11794-0.1416-0.642 0.12292-0.61914-0.1595-0.11664-0.37168 0.188-0.32207 0.45714-0.30797 0.31356 0.11207 0.25347-0.49715-0.06001-0.32573-0.23161 0.02817-0.57566-0.0561-0.73778 0.04156v1.796zm1.2918 0c0.35335 0.10127 0.38495-0.11921 0.34065-0.41558-0.15456-0.58789 1.0038-0.06425 0.83297-0.85501 0.0056-0.65663-0.71732-0.57033-1.1736-0.56692v1.8375zm0.34065-1.0244c-0.07803-0.35022 0.04819-0.71114 0.44757-0.3882 0.18287 0.33608-0.20216 0.41753-0.44757 0.3882zm3.831 1.0244c0.35335 0.10127 0.38494-0.11921 0.34065-0.41558v-0.91966c0.25611 0.44508 0.51222 0.89016 0.76832 1.3352 0.3247 0.07322 0.45802-0.04496 0.38043-0.37403v-1.4635c-0.35335-0.10127-0.38495 0.11921-0.34065 0.41558v0.92215c-0.25362-0.44591-0.50724-0.89182-0.76086-1.3377-0.32426-0.07029-0.4677 0.04025-0.38789 0.37403v1.4635zm2.7158-1.8698c-0.78423-0.05543-1.2821 0.9816-0.75059 1.5586 0.46252 0.60764 1.5665 0.35771 1.6767-0.41364 0.1313-0.56918-0.33827-1.1606-0.92608-1.145zm-0.005 0.32822c1.0436 0.0047 0.5352 1.7416-0.34966 1.1408-0.50303-0.31341-0.25404-1.1737 0.34966-1.1408zm1.7849 1.5416c0.33622 0.1126 0.35795-0.23374 0.45848-0.46509 0.17705-0.45748 0.35409-0.91495 0.53114-1.3724-0.3208-0.08903-0.44548 0.09943-0.49677 0.39175-0.1187 0.33522-0.2374 0.67044-0.3561 1.0057-0.16494-0.4658-0.32987-0.9316-0.49481-1.3974-0.38663-0.088-0.37198 0.09828-0.20715 0.38722 0.1884 0.48343 0.3768 0.96686 0.5652 1.4503z"/>
 <path id="path10957" style="opacity:.8;block-progression:tb;text-indent:0;color:#000000;text-transform:none;fill:#fff" d="m22.058 7.6492-5.16 9.9658-4.529-5.923-3.9002 8.308-4.4688-9.076v4.528l4.4078 9.197 4.3672-9.217 4.448 5.821 5.688-10.976 4.089 2.169v-2.446l-4.942-2.3508z"/>
</svg>
