<?xml version="1.0" encoding="UTF-8" standalone="no"?>
<!-- Created with Inkscape (http://www.inkscape.org/) -->
<svg id="svg5490" xmlns="http://www.w3.org/2000/svg" height="22" width="22" version="1.1" xmlns:xlink="http://www.w3.org/1999/xlink">
 <defs id="defs5492">
  <linearGradient id="linearGradient3640">
   <stop id="stop3642" style="stop-color:#b3b3b3" offset="0"/>
   <stop id="stop3650" style="stop-color:#fff" offset=".5"/>
   <stop id="stop3644" style="stop-color:#f0f0f0" offset="1"/>
  </linearGradient>
  <linearGradient id="linearGradient2882" y2="19.812" gradientUnits="userSpaceOnUse" x2="15.25" gradientTransform="matrix(.23810 0 0 0.4 3.2857 2.8)" y1="8.4375" x1="12.938">
   <stop id="stop6594-0-2" style="stop-color:#fff;stop-opacity:.27451" offset="0"/>
   <stop id="stop6596-2-5" style="stop-color:#fff;stop-opacity:0" offset="1"/>
  </linearGradient>
  <radialGradient id="radialGradient2885" gradientUnits="userSpaceOnUse" cy="10.237" cx="25.147" gradientTransform="matrix(.44602 -.0022568 .0021418 .42329 -.70409 3.8139)" r="11">
   <stop id="stop9938" style="stop-color:#575757" offset="0"/>
   <stop id="stop9940" style="stop-color:#333" offset="1"/>
  </radialGradient>
  <linearGradient id="linearGradient3646" y2="19" xlink:href="#linearGradient3640" gradientUnits="userSpaceOnUse" x2="17" gradientTransform="translate(-1 -1)" y1="20" x1="17"/>
  <linearGradient id="linearGradient3648" y2="19" xlink:href="#linearGradient3640" gradientUnits="userSpaceOnUse" x2="8" gradientTransform="translate(-1 -1)" y1="20" x1="8"/>
  <linearGradient id="linearGradient3652" y2="19" xlink:href="#linearGradient3640" gradientUnits="userSpaceOnUse" x2="12" gradientTransform="translate(-1 -1)" y1="22" x1="12"/>
  <linearGradient id="linearGradient3674" y2="13" spreadMethod="reflect" gradientUnits="userSpaceOnUse" x2="24" gradientTransform="matrix(.45344 0 0 1.5281 .11736 -17.01)" y1="13" x1="13">
   <stop id="stop3698" style="stop-color:#121214" offset="0"/>
   <stop id="stop3700" style="stop-color:#2f3134" offset=".20650"/>
   <stop id="stop3702" style="stop-color:#5a5a5a" offset="1"/>
  </linearGradient>
  <linearGradient id="linearGradient3712" y2="26.158" gradientUnits="userSpaceOnUse" x2="11.159" gradientTransform="translate(-1 -1)" y1="-6.4135" x1="10.947">
   <stop id="stop3708" style="stop-color:#fff" offset="0"/>
   <stop id="stop3710" style="stop-color:#fff;stop-opacity:0" offset="1"/>
  </linearGradient>
  <linearGradient id="linearGradient3716" y2="3.4529" gradientUnits="userSpaceOnUse" x2="18.5" gradientTransform="matrix(0.5 0 0 .52473 -1.25 -.81183)" y1="43.473" x1="18.5">
   <stop id="stop3145" style="stop-color:#1e1e1e" offset="0"/>
   <stop id="stop3147" style="stop-color:#606060" offset="1"/>
  </linearGradient>
 </defs>
 <path id="rect5508" style="stroke:#000;stroke-linecap:round;fill:url(#linearGradient3716)" d="m5.5 0.5h11c0.39571 0 1 1.0741 1 1.5v18c0 0.42593-0.60429 1.5-1 1.5h-11c-0.3957 0-1-1.074-1-1.5v-18c0-0.42593 0.60428-1.5 1-1.5z"/>
 <path id="path6724" style="fill:url(#linearGradient3652)" d="m12.75 19a1.75 1.7498 0 0 1 -3.5 0 1.75 1.7498 0 1 1 3.5 0z"/>
 <rect id="rect4140" style="fill-rule:evenodd;fill:url(#radialGradient2885)" rx="0" ry="0" height="12" width="10" y="4" x="6"/>
 <path id="rect6588" style="fill:url(#linearGradient2882)" d="m6 4h10v3.2l-10 2.8v-6z"/>
 <rect id="rect3675" style="fill:url(#linearGradient3648)" rx="1.7764e-15" ry="0" height=".99999" width="2" y="18" x="6"/>
 <rect id="rect3677" style="fill:url(#linearGradient3646)" rx="3.5527e-15" ry="0" height="1" width="2" y="18" x="14"/>
 <rect id="rect4157" style="fill-rule:evenodd;fill:#323232" rx=".18535" ry=".27802" height="1" width="4" y="2" x="9"/>
 <path id="path3890" style="stroke-linejoin:round;stroke:url(#linearGradient3674);stroke-miterlimit:3.4286;fill:none" d="m6.2273 15.5h9.5455"/>
 <rect id="rect3704" style="opacity:.15;stroke-width:.94886;stroke:url(#linearGradient3712);fill:none" rx="0" ry="0" height="11.008" width="9.0075" y="4.4511" x="6.5414"/>
 <path id="path3714" style="opacity:.1;stroke:#fff;stroke-linecap:round;fill:none" d="m5.5625 1.5c-0.0397 0.1295-0.0625 0.3095-0.0625 0.2812v18.469c0-0.02743 0.026628 0.13222 0.0625 0.25h10.875c0.035-0.118 0.062-0.277 0.062-0.25v-18.469c0 0.028269-0.02283-0.15178-0.0625-0.28125h-10.875z"/>
</svg>
