<?xml version="1.0" encoding="UTF-8" standalone="no"?>
<!-- Created with Inkscape (http://www.inkscape.org/) -->
<svg id="svg5069" xmlns:rdf="http://www.w3.org/1999/02/22-rdf-syntax-ns#" xmlns="http://www.w3.org/2000/svg" height="22" width="22" version="1.0" xmlns:cc="http://creativecommons.org/ns#" xmlns:xlink="http://www.w3.org/1999/xlink" xmlns:dc="http://purl.org/dc/elements/1.1/">
 <defs id="defs5071">
  <linearGradient id="linearGradient5060">
   <stop id="stop5062" offset="0"/>
   <stop id="stop5064" style="stop-opacity:0" offset="1"/>
  </linearGradient>
  <linearGradient id="linearGradient5470" y2="609.51" gradientUnits="userSpaceOnUse" x2="302.86" gradientTransform="matrix(3.2949 0 0 2.5953 -2121.9 -1254.2)" y1="366.65" x1="302.86">
   <stop id="stop5050" style="stop-opacity:0" offset="0"/>
   <stop id="stop5056" offset=".5"/>
   <stop id="stop5052" style="stop-opacity:0" offset="1"/>
  </linearGradient>
  <radialGradient id="radialGradient5472" xlink:href="#linearGradient5060" gradientUnits="userSpaceOnUse" cy="486.65" cx="605.71" gradientTransform="matrix(3.2949 0 0 2.5953 -2121.2 -1254.2)" r="117.14"/>
  <radialGradient id="radialGradient5474" xlink:href="#linearGradient5060" gradientUnits="userSpaceOnUse" cy="486.65" cx="605.71" gradientTransform="matrix(-3.2949 0 0 2.5953 259.22 -1254.2)" r="117.14"/>
  <linearGradient id="linearGradient5476" y2="68.025" gradientUnits="userSpaceOnUse" x2="-221.41" y1="67.439" x1="-393.43">
   <stop id="stop3795" style="stop-color:#3f3f3f" offset="0"/>
   <stop id="stop5268" style="stop-color:#3c3c3c" offset=".36093"/>
   <stop id="stop5266" style="stop-color:#2e2e2e" offset=".66032"/>
   <stop id="stop3797" style="stop-color:#202020" offset="1"/>
  </linearGradient>
  <linearGradient id="linearGradient5478" y2="72.438" gradientUnits="userSpaceOnUse" x2="-212.12" y1="72.438" x1="-397.06">
   <stop id="stop3711" style="stop-color:#adadad" offset="0"/>
   <stop id="stop3713" style="stop-color:#434343" offset="1"/>
  </linearGradient>
  <linearGradient id="linearGradient2450" y2="11.719" gradientUnits="userSpaceOnUse" x2="-362.78" gradientTransform="matrix(.053751 0 0 .056635 27.6 6.5483)" y1="4.703" x1="-282.75">
   <stop id="stop3969" style="stop-color:#fff" offset="0"/>
   <stop id="stop3971" style="stop-color:#fff;stop-opacity:0" offset="1"/>
  </linearGradient>
  <linearGradient id="linearGradient2456" y2="65.211" gradientUnits="userSpaceOnUse" x2="-134.4" gradientTransform="matrix(.064941 0 0 .052735 30.811 6.5675)" y1="65.211" x1="-396.4">
   <stop id="stop3733-3" style="stop-color:#cdcdcd" offset="0"/>
   <stop id="stop3735-2" style="stop-color:#303030" offset="1"/>
  </linearGradient>
 </defs>
 <metadata id="metadata5074">
  <rdf:RDF>
   <cc:Work rdf:about="">
    <dc:format>image/svg+xml</dc:format>
    <dc:type rdf:resource="http://purl.org/dc/dcmitype/StillImage"/>
   </cc:Work>
  </rdf:RDF>
 </metadata>
 <g id="layer1">
  <g id="g3240">
   <g id="g3661" transform="matrix(.0056376 0 0 .0032550 16.249 20.933)">
    <rect id="rect3663" style="opacity:.40206;fill:url(#linearGradient5470)" height="630.29" width="1591" y="-302.63" x="-1726.5"/>
    <path id="path3665" style="opacity:.40206;fill:url(#radialGradient5472)" d="m-135.53-302.61v630.26c169.68 1.18 410.21-141.21 410.21-315.17s-189.35-315.09-410.21-315.09z"/>
    <path id="path3667" style="opacity:.40206;fill:url(#radialGradient5474)" d="m-1726.5-302.61v630.26c-169.7 1.18-410.2-141.21-410.2-315.17s189.3-315.09 410.2-315.09z"/>
   </g>
   <g id="g3672" style="stroke-width:.10076" transform="matrix(.065631 0 0 .055274 31.013 6.3706)">
    <rect id="rect3674" style="stroke-width:7.7591;stroke:#000;fill:url(#linearGradient5476)" ry="12.769" height="364.93" width="187.69" y="-110.02" x="-398.44"/>
    <path id="path3676" style="stroke-width:.18979;stroke:url(#linearGradient5478);fill:none" d="m-385.66-108.31c-6.15 0-11.06 4.91-11.06 11.06v339.37c0 6.16 4.91 11.07 11.06 11.07h162.16c6.15 0 11.03-4.91 11.03-11.07v-339.37c0-6.16-4.88-11.06-11.03-11.06h-162.16z"/>
   </g>
   <path id="path3686" style="stroke:url(#linearGradient2456);stroke-linecap:square;fill:#030303" d="m5.8761 1.4665h10.309c0.172 0 0.311 0.1507 0.311 0.3378v16.405c0 0.187-0.139 0.337-0.311 0.337h-10.309c-0.1723 0-0.311-0.15-0.311-0.337v-0.119-16.286c0-0.1868 0.1387-0.3375 0.3111-0.3375z"/>
   <path id="path3688" style="enable-background:new;fill:#fff" d="m12.171 2.3154c-0.177-0.0013-0.354 0.079-0.394 0.1992-0.038 0.1147 0.045 0.2061 0.211 0.2315 0.115 0.0176 0.265-0.0087 0.353-0.0623 0.169-0.104 0.17-0.2747 0.001-0.3383-0.054-0.0201-0.112-0.0297-0.171-0.0301zm-2.7332 0.0007c-0.1145 0.0002-0.2322 0.0327-0.3068 0.0919-0.1628 0.129-0.0961 0.3041 0.1288 0.3381 0.0667 0.01 0.1763 0.0028 0.2469-0.0164 0.2439-0.0661 0.3186-0.2944 0.1237-0.3781-0.0563-0.0241-0.1239-0.0356-0.1926-0.0355zm1.3032 0c-0.023 0.0002-0.047 0.0015-0.072 0.0044-0.184 0.0216-0.32 0.1244-0.32 0.2416 0 0.0967 0.084 0.1659 0.225 0.185 0.153 0.0206 0.316-0.0242 0.407-0.1113 0.051-0.0494 0.071-0.097 0.064-0.1587-0.011-0.0969-0.139-0.1618-0.304-0.161zm2.778 0.0138l-0.111 0.0023-0.111 0.0023-0.152 0.196c-0.084 0.1077-0.152 0.1987-0.153 0.202 0 0.0034 0.035 0.0062 0.079 0.0062h0.078l0.029-0.0368 0.029-0.0367h0.105 0.106l0.008 0.0347 0.008 0.0347 0.097 0.0023 0.096 0.0023-0.005-0.0187c-0.003-0.0102-0.028-0.1023-0.054-0.2046l-0.049-0.186zm-5.0698 0.0005c-0.1052 0-0.1194 0.0017-0.1236 0.0143-0.0027 0.0079-0.0238 0.0716-0.0472 0.1416-0.0339 0.1021-0.0424 0.1398-0.0424 0.1898v0.0626h0.0555 0.0553l0.0291-0.0837c0.0159-0.0461 0.032-0.0926 0.0358-0.1034 0.0054-0.0154 0.0133 0.0027 0.0375 0.0837l0.0311 0.1034h0.0477 0.0477l0.0922-0.0899c0.0508-0.0493 0.094-0.0884 0.096-0.0867 0.003 0.0027-0.0376 0.1354-0.0509 0.1664-0.0049 0.0114 0.095 0.0136 0.16 0.0035l0.0363-0.0056 0.0404-0.1265c0.0222-0.0696 0.0505-0.1587 0.0629-0.198l0.0227-0.0715h-0.1277-0.1274l-0.0786 0.0824-0.0785 0.0822-0.0276-0.0822-0.0274-0.0824h-0.1189zm1.3603 0l-0.0099 0.0347c-0.0055 0.0191-0.0143 0.0454-0.0192 0.0585-0.0169 0.0454-0.0163 0.0456 0.085 0.0456 0.0849 0 0.0932 0.0014 0.0887 0.0143-0.0028 0.0079-0.0178 0.0621-0.0335 0.1204-0.0156 0.0584-0.0306 0.1127-0.0334 0.1207-0.0047 0.0135 0.0021 0.0144 0.0905 0.0123l0.0963-0.0023 0.03-0.1021c0.016-0.0561 0.034-0.1158 0.04-0.1327l0.01-0.0306h0.096 0.095l0.016-0.0592c0.009-0.0325 0.016-0.0638 0.016-0.0694 0-0.0079-0.063-0.0102-0.284-0.0102h-0.2835zm1.3615 0l-0.062 0.195c-0.034 0.1071-0.062 0.199-0.062 0.2041 0 0.0062 0.028 0.0092 0.087 0.0092h0.087l0.018-0.0592 0.018-0.0592 0.076-0.0023c0.092-0.0029 0.11 0.0072 0.101 0.0576-0.009 0.0502 0 0.055 0.114 0.0549l0.099-0.0003 0.003-0.0548c0.002-0.0697-0.003-0.0895-0.026-0.096-0.021-0.0057-0.025-0.0204-0.007-0.0204 0.021 0 0.083-0.051 0.097-0.0788 0.016-0.0356 0.016-0.0803-0.002-0.1044-0.03-0.0396-0.069-0.0454-0.315-0.0454h-0.226zm1.542 0.0013c-0.011 0-0.023 0.0002-0.035 0.0005l-0.091 0.0023-0.057 0.1919c-0.032 0.1055-0.058 0.1964-0.059 0.2021 0 0.0079 0.052 0.0102 0.232 0.0102h0.233l0.01-0.0347c0.006-0.0191 0.014-0.0467 0.018-0.0613l0.008-0.0265h-0.139c-0.09 0-0.139-0.0029-0.139-0.0084 0-0.0047 0.017-0.0671 0.038-0.1386 0.02-0.0714 0.037-0.1321 0.037-0.1347 0-0.0019-0.023-0.0029-0.056-0.0028zm-1.386 0.0967h0.081c0.045 0.0001 0.09 0.0024 0.102 0.0051 0.028 0.0065 0.028 0.0387 0 0.0556-0.015 0.0094-0.044 0.0128-0.111 0.0128-0.051 0-0.092-0.0028-0.092-0.0061 0-0.0034 0.005-0.0199 0.01-0.0368l0.01-0.0306zm-1.8979 0.0005c0.0335 0.001 0.0653 0.0101 0.0878 0.0271 0.0534 0.0402 0.0181 0.1329-0.0634 0.1666-0.0515 0.0213-0.0877 0.0265-0.1282 0.0181-0.0906-0.0189-0.0992-0.1131-0.016-0.1771 0.0312-0.024 0.0767-0.036 0.1198-0.0347zm2.7059 0.0003c0.012-0.0005 0.026 0.0001 0.04 0.0018 0.06 0.007 0.086 0.0286 0.089 0.0747 0.004 0.0505-0.027 0.0937-0.083 0.1169-0.077 0.0313-0.137 0.0287-0.181-0.0074-0.041-0.0339-0.024-0.1052 0.037-0.1518 0.028-0.0218 0.059-0.0328 0.098-0.0342zm-1.4 0.0005c0.024 0.0002 0.047 0.0037 0.065 0.0115 0.081 0.0337 0.058 0.1391-0.041 0.1824-0.091 0.0402-0.188 0.0191-0.201-0.0439-0.006-0.0282 0.013-0.0782 0.04-0.1051 0.029-0.0286 0.085-0.0453 0.137-0.0449zm2.625 0.037l0.011 0.0319c0.006 0.0175 0.011 0.0401 0.011 0.0502 0.001 0.0167-0.003 0.0184-0.045 0.0184-0.026 0-0.047-0.0018-0.047-0.0041s0.016-0.0249 0.035-0.0502l0.035-0.0462z"/>
   <path id="path3690" style="stroke-width:16.045;stroke:#000;fill:none" d="m-385.66-108.31c-6.15 0-11.06 4.91-11.06 11.06v339.37c0 6.16 4.91 11.07 11.06 11.07h162.16c6.15 0 11.03-4.91 11.03-11.07v-339.37c0-6.16-4.88-11.06-11.03-11.06h-162.16z" transform="matrix(.070258 0 0 .055290 32.378 6.5313)"/>
   <rect id="rect3694" style="fill:#2d2d2d" ry="0" height="11" width="7.9708" y="4" x="7.0292"/>
   <path id="path3698" style="opacity:.1;fill:url(#linearGradient2450)" d="m6.9614 1.0707c-0.1427 0-0.257 0.1578-0.257 0.3557v17.221 0.126c0 0.198 0.1143 0.357 0.257 0.357h2.2659c0.8567-6.02 1.4607-12.04 1.8297-18.059l-4.0956-0.0003z"/>
   <rect id="rect3766" style="fill:#c7c7c9" height=".91657" width="1.3462" y="16.1" x="9.1525"/>
   <rect id="rect3768" style="fill:#c7c7c9" height=".91657" width="1.3462" y="16.1" x="7.3194"/>
   <rect id="rect3770" style="fill:#c7c7c9" height=".91657" width="1.3462" y="16.1" x="11.473"/>
   <rect id="rect3772" style="fill:#c7c7c9" height=".91657" width="1.3462" y="16.1" x="13.306"/>
  </g>
 </g>
</svg>
