<?xml version="1.0" encoding="UTF-8" standalone="no"?>
<!-- Created with Inkscape (http://www.inkscape.org/) -->
<svg id="svg6826" xmlns="http://www.w3.org/2000/svg" height="16" width="16" version="1.0" xmlns:xlink="http://www.w3.org/1999/xlink">
 <defs id="defs6828">
  <linearGradient id="linearGradient2669" y2="46.259" gradientUnits="userSpaceOnUse" x2="29.694" gradientTransform="matrix(.44996 -.11207 .12279 .42595 -4.7408 -1.0702)" y1="21.27" x1="16.79">
   <stop id="stop6702" style="stop-color:#fff" offset="0"/>
   <stop id="stop6704" style="stop-color:#fff;stop-opacity:0" offset="1"/>
  </linearGradient>
  <linearGradient id="linearGradient2673" y2="26.354" gradientUnits="userSpaceOnUse" x2="29.893" gradientTransform="matrix(.37056 -.092291 .10951 .37990 -2.1599 -.33415)" y1="12.159" x1="23.238">
   <stop id="stop6630" offset="0"/>
   <stop id="stop6632" style="stop-opacity:0" offset="1"/>
  </linearGradient>
  <radialGradient id="radialGradient2676" gradientUnits="userSpaceOnUse" cy="42.261" cx="30.685" gradientTransform="matrix(1.6484 -.36273 -.27812 -.96480 -32.143 54.78)" r="8.2279">
   <stop id="stop3846" style="stop-color:#e8e8e8" offset="0"/>
   <stop id="stop3848" style="stop-color:#a5a6a8" offset="1"/>
  </radialGradient>
  <radialGradient id="radialGradient2679" gradientUnits="userSpaceOnUse" cy="20.434" cx="20.884" gradientTransform="matrix(.53719 -.13379 .17154 .59507 -6.13 -1.7782)" r="4">
   <stop id="stop5849" style="stop-color:#878a85" offset="0"/>
   <stop id="stop5851" style="stop-color:#3e3f3d" offset="1"/>
  </radialGradient>
  <radialGradient id="radialGradient2682" gradientUnits="userSpaceOnUse" cy="30.233" cx="23.165" gradientTransform="matrix(.87011 -.17454 .33006 1.42 -20.893 -28.859)" r="8.189">
   <stop id="stop4720" style="stop-color:#767973" offset="0"/>
   <stop id="stop4722" style="stop-color:#202120" offset="1"/>
  </radialGradient>
  <linearGradient id="linearGradient2684" y2=".31037" gradientUnits="userSpaceOnUse" x2="33.431" gradientTransform="matrix(.50290 -.12525 .12943 .44897 -6.2629 -1.3805)" y1="45.052" x1="33.431">
   <stop id="stop6645" style="stop-color:#4c4c4c" offset="0"/>
   <stop id="stop6647" style="stop-color:#d3d7cf" offset="1"/>
  </linearGradient>
  <linearGradient id="linearGradient2687" y2="35.458" gradientUnits="userSpaceOnUse" x2="11.324" gradientTransform="matrix(.33149 -.082737 .085633 .29769 1.046 3.1943)" y1="4.8112" x1="19.24">
   <stop id="stop6575" style="stop-color:#fff" offset="0"/>
   <stop id="stop6577" style="stop-color:#fff;stop-opacity:0" offset="1"/>
  </linearGradient>
  <linearGradient id="linearGradient2690" y2="21.75" gradientUnits="userSpaceOnUse" x2="11.438" gradientTransform="matrix(.27351 -.068119 .10993 .38134 -.90229 .51016)" y1="20.334" x1="20.226">
   <stop id="stop6381" style="stop-color:#fff;stop-opacity:0" offset="0"/>
   <stop id="stop21606" style="stop-color:#fff" offset=".5"/>
   <stop id="stop6383" style="stop-color:#fff;stop-opacity:0" offset="1"/>
  </linearGradient>
  <radialGradient id="radialGradient2693" gradientUnits="userSpaceOnUse" cy="27.053" cx="23.987" gradientTransform="matrix(-.13201 .032879 -.14153 -.49095 13.557 21.362)" r="7.75">
   <stop id="stop6653" style="stop-color:#fff" offset="0"/>
   <stop id="stop6655" style="stop-color:#fff;stop-opacity:0" offset="1"/>
  </radialGradient>
  <radialGradient id="radialGradient2696" gradientUnits="userSpaceOnUse" cy="18.817" cx="9.3204" gradientTransform="matrix(.35002 .12624 -.25120 .54423 6.8876 -3.763)" r="12.5">
   <stop id="stop6635" style="stop-color:#eeeeec" offset="0"/>
   <stop id="stop6637" style="stop-color:#61635f" offset="1"/>
  </radialGradient>
  <linearGradient id="linearGradient2698" y2="12.064" gradientUnits="userSpaceOnUse" x2="4.6432" gradientTransform="matrix(.37393 -.093132 .096604 .33511 .0080282 2.5995)" y1="33.047" x1="7.75">
   <stop id="stop5294" style="stop-color:#4b4b4b" offset="0"/>
   <stop id="stop5296" style="stop-color:#babdb6" offset="1"/>
  </linearGradient>
  <linearGradient id="linearGradient2701" y2="14" gradientUnits="userSpaceOnUse" x2="77.125" gradientTransform="matrix(.41026 -.10218 .10993 .38134 -30.111 9.011)" y1="31.561" x1="80.693">
   <stop id="stop4870" style="stop-color:#383937" offset="0"/>
   <stop id="stop4872" style="stop-color:#595b57" offset="1"/>
  </linearGradient>
  <linearGradient id="linearGradient2707" y2="-41.092" spreadMethod="reflect" gradientUnits="userSpaceOnUse" x2="82.681" gradientTransform="matrix(.050329 .17459 -.17735 .044170 -9.1421 -6.3724)" y1="-41.092" x1="102.36">
   <stop id="stop5264" style="stop-color:#babdb6" offset="0"/>
   <stop id="stop5266" style="stop-color:#eeeeec" offset=".43739"/>
   <stop id="stop5268" style="stop-color:#555753" offset="1"/>
  </linearGradient>
  <linearGradient id="linearGradient2709" y2="8.2934" gradientUnits="userSpaceOnUse" x2="102.43" gradientTransform="matrix(.10993 .38134 -.41026 .10218 -2.5859 -27.037)" y1="8.2934" x1="84.426">
   <stop id="stop3860" style="stop-color:#a0a0a0" offset="0"/>
   <stop id="stop3862" style="stop-color:#4a4a4a" offset="1"/>
  </linearGradient>
  <linearGradient id="linearGradient2718" y2="30.001" gradientUnits="userSpaceOnUse" x2="5.1012" gradientTransform="matrix(.35227 -.087906 .10561 .36707 -.67087 2.0174)" y1="14.051" x1="9.8832">
   <stop id="stop6533" style="stop-color:#fff" offset="0"/>
   <stop id="stop6535" style="stop-color:#fff;stop-opacity:0" offset="1"/>
  </linearGradient>
 </defs>
 <path id="path5330" style="stroke:#555753;stroke-linecap:round;fill:#2e3436" d="m4.1024 9.4816c0.3339 1.1584 0.0535 2.2344-0.6262 2.4034-0.6798 0.17-1.5015-0.632-1.8354-1.79-0.3339-1.1587-0.0536-2.2349 0.6262-2.4042 0.6797-0.1693 1.5014 0.6325 1.8354 1.7908z"/>
 <path id="path6659" style="fill:#babdb6" d="m1.9582 8.9555c0.0456 0.158-0.0553 0.3203-0.2252 0.3626-0.17 0.0424-0.3446-0.0514-0.3902-0.2093-0.0455-0.158 0.0554-0.3203 0.2253-0.3627 0.1699-0.0423 0.3446 0.0514 0.3901 0.2094z"/>
 <path id="path2766" style="stroke:url(#linearGradient2709);fill:url(#linearGradient2707)" d="m2.6038 6.3807c-0.8209 0.2045-1.0685 1.8226-0.5527 3.6118 0.51578 1.7892 1.6007 3.0754 2.4216 2.871l1.4871-0.371c0.821-0.204 1.0686-1.822 0.5528-3.6117-0.5158-1.7892-1.6006-3.0754-2.4216-2.871l-1.4872 0.3704z"/>
 <path id="path2713" style="opacity:.4;stroke:url(#linearGradient2718);stroke-linecap:round;fill:none" d="m4.3438 7.0625c-0.4688 0.1146-0.9376 0.2292-1.4063 0.3437 0.20836-0.05307-0.12875 0.30129-0.068111 0.44781-0.06611 0.77217 0.1054 1.5468 0.35678 2.2733 0.21383 0.56078 0.46778 1.1356 0.91458 1.5514 0.1351 0.07558 0.18383 0.15627 0.14936 0.12276 0.445-0.122 0.8899-0.243 1.3349-0.364 0.085825 0.0011-0.14773 0.05904-0.02248-0.0492 0.1734-0.488 0.1194-1.021 0.0533-1.5241-0.1375-0.8341-0.4298-1.6555-0.9157-2.3515-0.0722-0.1693-0.4278-0.399-0.4318-0.4433l0.0355-0.0076z"/>
 <path id="path6556" style="fill:url(#linearGradient2701)" d="m4.1242 6.2064c-0.8372 0.2085-1.1235 1.7418-0.639 3.4225 0.4845 1.6811 1.5572 2.8751 2.3945 2.6671l0.2615-0.06513c0.8372-0.209 1.1234-1.742 0.6389-3.4227s-1.5572-2.8755-2.3944-2.667l-0.2615 0.065129z"/>
 <path id="path1871" style="stroke:url(#linearGradient2698);stroke-linecap:round;fill:url(#radialGradient2696)" d="m4.5639 9.3666c1.0143 3.5187 5.363 4.5907 7.6966 4.0095 1.6154-0.40233 2.1577-3.1924 1.2779-6.2446-0.88-3.0522-2.85-5.2165-4.4655-4.8142-2.3335 0.5812-5.523 3.5306-4.5086 7.0493z"/>
 <path id="path6649" style="fill:url(#radialGradient2693)" d="m13.949 7.0293c1.032 3.5807-0.014 6.9517-2.337 7.5297-2.3222 0.579-5.0416-1.855-6.0737-5.435-1.0321-3.5803 0.0139-6.9517 2.3363-7.5301s5.0414 1.8551 6.0744 5.4354z"/>
 <path id="path6639" style="opacity:.73359;fill:url(#linearGradient2690);fill-rule:evenodd" d="m6.3134 4.1481c-0.9065 0.7958-1.6699 2.5711-2.2807 4.3291 0.9837-0.7053 2.0373-1.3087 3.0897-1.4848l-0.809-2.8443z"/>
 <path id="path6567" style="opacity:.4;stroke:url(#linearGradient2687);stroke-linecap:round;fill:none" d="m6.3435 5.3219c-0.7923 1.0318-1.2371 2.3382-0.8238 3.7751 0.4134 1.437 1.4999 2.361 2.7398 2.886 6.7305 1.789 5.7455-8.1899-1.916-6.6611z"/>
 <path id="path1873" style="stroke:url(#linearGradient2684);stroke-linecap:round;fill:url(#radialGradient2682)" d="m13.949 7.0293c1.183 4.1067 0.398 7.8707-1.754 8.4067-2.153 0.536-4.8575-2.358-6.0414-6.4653-1.1838-4.1068-0.3986-7.8707 1.7539-8.4068s4.8572 2.3585 6.0411 6.4654z"/>
 <path id="path3672" style="stroke:#3e3f3d;stroke-linecap:round;fill:url(#radialGradient2679)" d="m9.8936 8.0392c0.2734 0.9473-0.4829 1.9595-1.1736 2.1318-0.6906 0.172-1.4728-0.4574-1.7458-1.4047-0.2731-0.9472 0.0658-1.8556 0.7565-2.0276 0.69065-0.17201 1.8899 0.35328 2.163 1.3005z"/>
 <path id="path6605" style="fill:url(#radialGradient2676)" d="m7.9625 0.7546c-1.08 0.269-1.7458 1.3543-2.0159 2.8266s-0.1433 3.3638 0.425 5.3352c0.56832 1.9715 1.476 3.6684 2.5019 4.8179s2.1863 1.7801 3.2663 1.5111c1.08-0.26898 1.7457-1.3543 2.0158-2.8266 0.16881-0.92019 0.18378-2.0122 0.03267-3.1757-0.0048-0.036689-0.013-0.073595-0.0181-0.11044-0.03098-0.22401-0.0687-0.44535-0.11202-0.67458-0.0392-0.21357-0.0801-0.42679-0.13078-0.64436-0.0028-0.011955-0.0075-0.023786-0.01031-0.03575-0.054-0.2301-0.119-0.4611-0.186-0.6944-0.071-0.2457-0.141-0.4879-0.223-0.7237-0.072-0.2097-0.154-0.4172-0.233-0.6189-0.0858-0.21865-0.17219-0.42787-0.26586-0.63626-0.016-0.034919-0.02752-0.06947-0.04374-0.10406-0.495-1.0778-1.095-2.0166-1.736-2.735-1.026-1.1495-2.1865-1.7801-3.2665-1.5111zm0.425 0.7116c0.78863-0.19642 1.745 0.28703 2.6607 1.317 0.57229 0.64376 1.1235 1.4921 1.5806 2.4801 0.09142 0.1976 0.1752 0.40399 0.25899 0.61243 0.07723 0.19551 0.15645 0.39158 0.22648 0.59498 0.08129 0.23336 0.16153 0.46501 0.23176 0.70862 0.06549 0.22718 0.11438 0.44975 0.16673 0.67373 0.0038 0.015813 0.01005 0.031872 0.01374 0.047668 0.04769 0.20751 0.08722 0.41695 0.12392 0.62053 0.03956 0.21945 0.07803 0.43713 0.10515 0.65075 0.13558 1.0681 0.11456 2.059-0.03476 2.8824-0.23892 1.3176-0.80712 2.1807-1.5958 2.3772-0.789 0.197-1.745-0.286-2.6607-1.316-0.9156-1.03-1.7739-2.579-2.2978-4.3966-0.5239-1.8174-0.6137-3.5575-0.3748-4.8751 0.2389-1.3175 0.8071-2.1807 1.5958-2.3771z"/>
 <path id="path6615" style="opacity:.3;stroke:url(#linearGradient2673);stroke-linecap:round;fill:none" d="m13.128 7.2337c1.002 3.4753 0.528 6.6123-1.058 7.0073s-3.6838-2.102-4.6856-5.5768c-1.0017-3.475-0.528-6.6123 1.058-7.0073 1.5856-0.3951 3.6836 2.1018 4.6856 5.5768z"/>
 <path id="path6661" style="fill:#fff" d="m2.7116 7.7078c0.0607 0.2106-0.0738 0.427-0.3004 0.4835-0.2265 0.0564-0.4594-0.0686-0.5201-0.2792-0.0608-0.2106 0.0737-0.4271 0.3003-0.4835 0.22658-0.056432 0.45948 0.068551 0.52019 0.27916z"/>
 <path id="path6822" style="opacity:.4;stroke:url(#linearGradient2669);stroke-linecap:round;fill:none" d="m8.0481 1.0518c-0.8949 0.2228-1.5238 1.1861-1.7829 2.5982-0.25906 1.4122-0.1461 3.2574 0.41116 5.1905s1.452 3.5836 2.436 4.6862c0.98399 1.1026 2.0468 1.6445 2.9417 1.4216 0.89494-0.22289 1.5238-1.1861 1.7829-2.5983 0.259-1.412 0.146-3.2574-0.411-5.1905s-1.452-3.5836-2.436-4.6862c-0.984-1.1025-2.0469-1.6444-2.9419-1.4215z"/>
 <path id="path5501" style="opacity:.6;fill:#fff" d="m6.4343 3.8429c0.0607 0.2106-0.0737 0.4271-0.3003 0.4836-0.2266 0.0564-0.4595-0.0686-0.5202-0.2792s0.0737-0.4271 0.3003-0.4835c0.22658-0.056432 0.45948 0.068551 0.52019 0.27916z"/>
</svg>
