<?xml version="1.0" encoding="UTF-8" standalone="no"?>
<!-- Created with Inkscape (http://www.inkscape.org/) -->
<svg id="svg3265" xmlns="http://www.w3.org/2000/svg" height="24" width="24" version="1.0" xmlns:xlink="http://www.w3.org/1999/xlink">
 <defs id="defs3267">
  <linearGradient id="linearGradient3390" gradientUnits="userSpaceOnUse" x2="10" y1="29.485" x1="10">
   <stop id="stop2492" style="stop-color:#455f0e" offset="0"/>
   <stop id="stop2494" style="stop-color:#84a718" offset="1"/>
  </linearGradient>
  <linearGradient id="linearGradient3253" y2="30.318" gradientUnits="userSpaceOnUse" x2="17.49" y1="-7.9937e-8" x1="17.49">
   <stop id="stop3257" style="stop-color:#eef87e" offset="0"/>
   <stop id="stop3259" style="stop-color:#cde34f" offset=".31738"/>
   <stop id="stop3261" style="stop-color:#93b723" offset=".79345"/>
   <stop id="stop3263" style="stop-color:#5a7e0d" offset="1"/>
  </linearGradient>
  <linearGradient id="linearGradient3236" y2="19.168" gradientUnits="userSpaceOnUse" x2="14" x1="14">
   <stop id="stop4224" style="stop-color:#fff" offset="0"/>
   <stop id="stop4226" style="stop-color:#fff;stop-opacity:0" offset="1"/>
  </linearGradient>
 </defs>
 <g id="layer1">
  <path id="path1542" style="stroke-linejoin:round;stroke:url(#linearGradient3390);stroke-linecap:round;stroke-width:1.0028;fill:url(#linearGradient3253)" d="m19.197 0.5061c-0.364-0.03627-0.726 0.13873-0.913 0.47471l-7.97 14.312-5.1239-3.999c-0.4564-0.245-1.0259-0.087-1.2753 0.36l-2.2979 2.896c-0.2494 0.448-0.0816 1.007 0.3748 1.251 0 0 9.3563 7.584 9.3673 7.59 0.107 0.057 0.219 0.086 0.333 0.1 0.371 0.046 0.752-0.125 0.943-0.468l10.748-19.301c0.249-0.4481 0.082-1.0068-0.375-1.2516l-3.449-1.8574c-0.114-0.06124-0.24-0.09482-0.362-0.1069z"/>
  <path id="path3231" style="opacity:.4;stroke-linejoin:round;stroke:url(#linearGradient3236);stroke-linecap:round;stroke-width:1.0028;fill:none" d="m19.125 1.5312c-2.646 4.75-5.292 9.4998-7.937 14.25-0.478 0.871-1.4902 0.458-2.0247-0.099-1.4711-1.154-2.9422-2.309-4.4133-3.463-0.7445 0.903-1.4558 1.835-2.1875 2.75 3.0766 2.494 6.1664 4.975 9.2185 7.5 3.552-6.386 7.104-12.771 10.657-19.156-1.105-0.5942-2.209-1.188-3.313-1.7818z"/>
 </g>
</svg>
