<?xml version="1.0" encoding="UTF-8" standalone="no"?>
<!-- Created with Inkscape (http://www.inkscape.org/) -->
<svg id="svg3521" xmlns="http://www.w3.org/2000/svg" height="32" width="32" version="1.0" xmlns:xlink="http://www.w3.org/1999/xlink">
 <defs id="defs3523">
  <linearGradient id="linearGradient3487" y2="609.51" gradientUnits="userSpaceOnUse" x2="302.86" gradientTransform="matrix(.045769 0 0 .0082353 -.54232 26.981)" y1="366.65" x1="302.86">
   <stop id="stop5050" style="stop-opacity:0" offset="0"/>
   <stop id="stop5056" offset=".5"/>
   <stop id="stop5052" style="stop-opacity:0" offset="1"/>
  </linearGradient>
  <radialGradient id="radialGradient3484" xlink:href="#linearGradient5060" gradientUnits="userSpaceOnUse" cy="486.65" cx="605.71" gradientTransform="matrix(-.015663 0 0 .0082353 14.39 26.981)" r="117.14"/>
  <linearGradient id="linearGradient5060">
   <stop id="stop5062" offset="0"/>
   <stop id="stop5064" style="stop-opacity:0" offset="1"/>
  </linearGradient>
  <radialGradient id="radialGradient3481" xlink:href="#linearGradient5060" gradientUnits="userSpaceOnUse" cy="486.65" cx="605.71" gradientTransform="matrix(.015663 0 0 .0082353 17.61 26.981)" r="117.14"/>
  <linearGradient id="linearGradient3478" y2="2.9062" gradientUnits="userSpaceOnUse" x2="-51.786" gradientTransform="matrix(.53064 0 0 .58970 39.27 -.79191)" y1="53.624" x1="-51.786">
   <stop id="stop2510" style="stop-color:#2e4a5a" offset="0"/>
   <stop id="stop2512" style="stop-color:#6e8796" offset="1"/>
  </linearGradient>
  <radialGradient id="radialGradient3476" gradientUnits="userSpaceOnUse" cy="11.49" cx="14.239" gradientTransform="matrix(0 2.0947 -3.4819 0 48.983 -24.861)" r="18">
   <stop id="stop8022" style="stop-color:#85c2cf" offset="0"/>
   <stop id="stop8024" style="stop-color:#74a4be" offset=".26238"/>
   <stop id="stop8026" style="stop-color:#5177a0" offset=".70495"/>
   <stop id="stop8028" style="stop-color:#2c5889" offset="1"/>
  </radialGradient>
  <linearGradient id="linearGradient3473" y2="46.017" gradientUnits="userSpaceOnUse" x2="24" gradientTransform="matrix(.63636 0 0 .62791 .72725 .93022)" y1="2" x1="24">
   <stop id="stop3213" style="stop-color:#fff" offset="0"/>
   <stop id="stop3215" style="stop-color:#fff;stop-opacity:0" offset="1"/>
  </linearGradient>
  <filter id="filter3212" y="-.16434" width="1.2969" x="-.14846" height="1.3287">
   <feGaussianBlur id="feGaussianBlur3214" stdDeviation="0.77391625"/>
  </filter>
  <linearGradient id="linearGradient3469" y2="5.4565" gradientUnits="userSpaceOnUse" x2="36.358" gradientTransform="matrix(.63713 0 0 .64456 .82968 .74452)" y1="8.059" x1="32.892">
   <stop id="stop8591" style="stop-color:#fefefe" offset="0"/>
   <stop id="stop8593" style="stop-color:#cbcbcb" offset="1"/>
  </linearGradient>
  <linearGradient id="linearGradient3466" y2="24.628" gradientUnits="userSpaceOnUse" x2="20.055" gradientTransform="matrix(.47891 0 0 .91110 4.5061 -3.4381)" y1="15.298" x1="16.626">
   <stop id="stop2687" style="stop-color:#fff" offset="0"/>
   <stop id="stop2689" style="stop-color:#fff;stop-opacity:0" offset="1"/>
  </linearGradient>
  <linearGradient id="linearGradient3515" y2="12" spreadMethod="reflect" gradientUnits="userSpaceOnUse" x2="91" gradientTransform="matrix(.76817 0 0 0.593 -40.68 5.212)" y1="28" x1="75.854">
   <stop id="stop4002" offset="0"/>
   <stop id="stop4004" style="stop-opacity:0" offset="1"/>
  </linearGradient>
  <linearGradient id="linearGradient3512" y2="12" spreadMethod="reflect" gradientUnits="userSpaceOnUse" x2="91" gradientTransform="matrix(.76817 0 0 0.593 -40.597 4.1403)" y1="28" x1="75.854">
   <stop id="stop5295" style="stop-color:#fff" offset="0"/>
   <stop id="stop5297" style="stop-color:#fff;stop-opacity:0" offset="1"/>
  </linearGradient>
  <linearGradient id="linearGradient3509" y2="16.135" spreadMethod="reflect" gradientUnits="userSpaceOnUse" x2="44.25" gradientTransform="matrix(.63807 0 0 .64324 .66070 1.8586)" y1="30.455" x1="26.189">
   <stop id="stop3761" offset="0"/>
   <stop id="stop3763" style="stop-opacity:0" offset="1"/>
  </linearGradient>
  <linearGradient id="linearGradient3463" y2="6.5436" gradientUnits="userSpaceOnUse" x2="34.103" gradientTransform="matrix(.63768 0 0 .66015 1.0364 1.1699)" y1="4.8577" x1="35.517">
   <stop id="stop4269" style="stop-color:#c4c4c4" offset="0"/>
   <stop id="stop4271" style="stop-color:#c4c4c4;stop-opacity:0" offset="1"/>
  </linearGradient>
  <linearGradient id="linearGradient2640" y2=".19081" gradientUnits="userSpaceOnUse" x2="24.239" gradientTransform="matrix(.63651 0 0 .64210 .57143 1.7483)" y1="44.11" x1="24.239">
   <stop id="stop3686" style="stop-color:#294351" offset="0"/>
   <stop id="stop3688" style="stop-color:#637a87" offset="1"/>
  </linearGradient>
 </defs>
 <g id="layer1">
  <rect id="rect2879" style="opacity:.15;fill:url(#linearGradient3487)" height="2" width="22.1" y="30" x="4.95"/>
  <path id="path2881" style="opacity:.15;fill:url(#radialGradient3484)" d="m4.95 30v2c-0.8066 0.004-1.95-0.448-1.95-1s0.9001-1 1.95-1z"/>
  <path id="path2883" style="opacity:.15;fill:url(#radialGradient3481)" d="m27.05 30v2c0.807 0.004 1.95-0.448 1.95-1s-0.9-1-1.95-1z"/>
  <path id="path4160" style="stroke-linejoin:round;stroke-width:.99992;stroke:url(#linearGradient3478);fill:url(#radialGradient3476)" d="m4.5 1.5h15.811c0.925 0.3128 5.892 3.8764 7.189 6.3438v22.656h-23v-29z"/>
  <path id="path2435" style="opacity:.4;stroke:url(#linearGradient3473);fill:none" d="m26.5 8.139v21.361h-21v-27h14.551"/>
  <path id="path12038" style="opacity:.4;fill-rule:evenodd;filter:url(#filter3212)" d="m28.617 0.92126c4.283 0 2.154 8.4831 2.154 8.4831s10.357-1.8023 10.357 2.8186c0-2.6095-11.302-10.728-12.511-11.302z" transform="matrix(.63860 0 0 .61936 .72508 1.4294)"/>
  <path id="path4474" style="fill:url(#linearGradient3469);fill-rule:evenodd" d="m19 2c2.035 0 1.492 4.7455 1.492 4.7455s6.497-0.6076 6.497 2.2545c0-0.6974 0.055-1.1968-0.085-1.4144-1.008-1.5634-5.361-5.0716-6.933-5.5314-0.118-0.0344-0.379-0.0542-0.971-0.0542z"/>
  <path id="path3879" style="opacity:.2;fill:url(#linearGradient3466);fill-rule:evenodd" d="m6.0476 2c-0.5786 0-1.0476 0.8922-1.0476 1.993v14.578c0.0013 0.122 0.0296 0.238 0.0779 0.319 0.0484 0.081 0.1124 0.12 0.1765 0.108l21.551-6.492c0.111-0.033 0.193-0.214 0.195-0.427v-3.9233l-7.01-6.1557h-13.942z"/>
  <path id="path3743" style="opacity:.1;fill:url(#linearGradient3515)" d="m12.708 11c-2.569 3.302-5.1382 6.608-7.708 9.91v10.09h18.312c1.689-2.17 1.95-2.501 3.688-4.734v-9.148c-5.044-2.16-11.016-4.715-14.292-6.118z"/>
  <path id="path3697" style="opacity:.4;fill:url(#linearGradient3512)" d="m12.708 10c-2.569 3.302-5.1382 6.608-7.708 9.91v10.09h18.312c1.689-2.17 1.95-2.501 3.688-4.734v-9.148c-5.044-2.16-11.016-4.715-14.292-6.118z"/>
  <path id="path3475" style="opacity:.1;stroke:url(#linearGradient3509);stroke-width:1px;fill:none" d="m12.964 13.606l11.881 5.327-11.881-5.327zm-1.266 1.703l13.815 6.194-13.815-6.194zm-1.286 1.73l4.421 1.982-4.421-1.982zm-1.266 1.703l13.815 6.195-13.815-6.195zm-1.2861 1.73l12.433 5.575-12.433-5.575zm-1.2761 1.717l11.328 5.079-11.328-5.079zm-1.2662 1.703l13.538 6.071-13.538-6.071z"/>
  <path id="path3883" style="stroke-linejoin:round;stroke:url(#linearGradient3463);stroke-width:.99992;fill:none" d="m20.287 1.4703c0.898 0.3134 5.954 3.911 7.213 6.3827v8.11c-25.791 10.384-22.706-14.493-7.213-14.493z"/>
  <path id="path3517" style="opacity:.4;fill:#fff" d="m21.662 25h-3.339c-0.613-2.526-1.272-5.041-1.854-7.575-0.185-0.797-0.381-2.163-0.49-2.654-0.355 2.733-1.127 5.381-1.76 8.056-0.177 0.724-0.355 1.449-0.533 2.173h-3.348c-1.1125-4.662-2.2252-9.325-3.338-13.987h2.8925c0.7735 3.842 1.6475 7.665 2.2575 11.538 0.258-1.829 0.584-3.649 1.06-5.434 0.5-2.034 1-4.069 1.5-6.104h2.58c0.656 2.699 1.338 5.392 1.978 8.094 0.228 1.142 0.409 2.293 0.592 3.444 0.575-3.808 1.452-7.561 2.206-11.335-0.016-0.367 0.446-0.141 0.676-0.203h2.258c-1.113 4.662-2.226 9.325-3.338 13.987z"/>
  <path id="text2612" style="fill:url(#linearGradient2640)" d="m21.662 24h-3.339c-0.613-2.526-1.272-5.041-1.854-7.575-0.185-0.797-0.381-2.163-0.49-2.654-0.355 2.733-1.127 5.381-1.76 8.056-0.177 0.724-0.355 1.449-0.533 2.173h-3.348c-1.1125-4.662-2.2252-9.325-3.338-13.987h2.8925c0.7735 3.842 1.6475 7.665 2.2575 11.538 0.258-1.829 0.584-3.649 1.06-5.434 0.5-2.034 1-4.069 1.5-6.104h2.58c0.656 2.699 1.338 5.392 1.978 8.094 0.228 1.142 0.409 2.293 0.592 3.444 0.575-3.808 1.452-7.561 2.206-11.335-0.016-0.3671 0.446-0.141 0.676-0.203h2.258c-1.113 4.662-2.226 9.325-3.338 13.987z"/>
 </g>
</svg>
