<?xml version="1.0" encoding="UTF-8" standalone="no"?>
<!-- Created with Inkscape (http://www.inkscape.org/) -->
<svg id="svg3498" xmlns="http://www.w3.org/2000/svg" height="32" width="32" version="1.0" xmlns:xlink="http://www.w3.org/1999/xlink">
 <defs id="defs3500">
  <linearGradient id="linearGradient2679" y2="609.51" gradientUnits="userSpaceOnUse" x2="302.86" gradientTransform="matrix(.045769 0 0 .0082353 -.54232 26.981)" y1="366.65" x1="302.86">
   <stop id="stop5050" style="stop-opacity:0" offset="0"/>
   <stop id="stop5056" offset=".5"/>
   <stop id="stop5052" style="stop-opacity:0" offset="1"/>
  </linearGradient>
  <radialGradient id="radialGradient2676" xlink:href="#linearGradient5060" gradientUnits="userSpaceOnUse" cy="486.65" cx="605.71" gradientTransform="matrix(-.015663 0 0 .0082353 14.39 26.981)" r="117.14"/>
  <linearGradient id="linearGradient5060">
   <stop id="stop5062" offset="0"/>
   <stop id="stop5064" style="stop-opacity:0" offset="1"/>
  </linearGradient>
  <radialGradient id="radialGradient2673" xlink:href="#linearGradient5060" gradientUnits="userSpaceOnUse" cy="486.65" cx="605.71" gradientTransform="matrix(.015663 0 0 .0082353 17.61 26.981)" r="117.14"/>
  <linearGradient id="linearGradient2685" y2="2.9062" gradientUnits="userSpaceOnUse" x2="-51.786" gradientTransform="matrix(.53064 0 0 .58970 39.27 -.79191)" y1="53.624" x1="-51.786">
   <stop id="stop4963" style="stop-color:#643340" offset="0"/>
   <stop id="stop4965" style="stop-color:#a77a86" offset="1"/>
  </linearGradient>
  <radialGradient id="radialGradient2683" gradientUnits="userSpaceOnUse" cy="11.49" cx="14.239" gradientTransform="matrix(0 2.0947 -3.4819 0 48.983 -24.861)" r="18">
   <stop id="stop4953" style="stop-color:#e694bb" offset="0"/>
   <stop id="stop4955" style="stop-color:#d3819a" offset=".26238"/>
   <stop id="stop4957" style="stop-color:#b25a64" offset=".70495"/>
   <stop id="stop4959" style="stop-color:#98313d" offset="1"/>
  </radialGradient>
  <linearGradient id="linearGradient2662" y2="46.017" gradientUnits="userSpaceOnUse" x2="24" gradientTransform="matrix(.63636 0 0 .62791 .72725 .93022)" y1="2" x1="24">
   <stop id="stop3213" style="stop-color:#fff" offset="0"/>
   <stop id="stop3215" style="stop-color:#fff;stop-opacity:0" offset="1"/>
  </linearGradient>
  <filter id="filter3212" y="-.16434" x="-.14846" height="1.3287" width="1.2969">
   <feGaussianBlur id="feGaussianBlur3214" stdDeviation="0.77391625"/>
  </filter>
  <linearGradient id="linearGradient2658" y2="5.4565" gradientUnits="userSpaceOnUse" x2="36.358" gradientTransform="matrix(.63713 0 0 .64456 .82968 .74452)" y1="8.059" x1="32.892">
   <stop id="stop8591" style="stop-color:#fefefe" offset="0"/>
   <stop id="stop8593" style="stop-color:#cbcbcb" offset="1"/>
  </linearGradient>
  <linearGradient id="linearGradient2632" y2="24.628" gradientUnits="userSpaceOnUse" x2="20.055" gradientTransform="matrix(.47891 0 0 .91110 4.5061 -3.4381)" y1="15.298" x1="16.626">
   <stop id="stop2687" style="stop-color:#fff" offset="0"/>
   <stop id="stop2689" style="stop-color:#fff;stop-opacity:0" offset="1"/>
  </linearGradient>
  <linearGradient id="linearGradient2626" y2="6.5436" gradientUnits="userSpaceOnUse" x2="34.103" gradientTransform="matrix(.63768 0 0 .66015 1.0364 1.1699)" y1="4.8577" x1="35.517">
   <stop id="stop4269" style="stop-color:#c4c4c4" offset="0"/>
   <stop id="stop4271" style="stop-color:#c4c4c4;stop-opacity:0" offset="1"/>
  </linearGradient>
  <linearGradient id="linearGradient3490" y2="12" spreadMethod="reflect" gradientUnits="userSpaceOnUse" x2="91" gradientTransform="matrix(.77094 0 0 .60220 -40.765 4.5056)" y1="28" x1="75.854">
   <stop id="stop4002" offset="0"/>
   <stop id="stop4004" style="stop-opacity:0" offset="1"/>
  </linearGradient>
  <linearGradient id="linearGradient3488" y2="12" spreadMethod="reflect" gradientUnits="userSpaceOnUse" x2="91" gradientTransform="matrix(.77094 0 0 .60220 -40.765 3.7776)" y1="28" x1="75.854">
   <stop id="stop5295" style="stop-color:#fff" offset="0"/>
   <stop id="stop5297" style="stop-color:#fff;stop-opacity:0" offset="1"/>
  </linearGradient>
  <linearGradient id="linearGradient3492" y2=".19081" gradientUnits="userSpaceOnUse" x2="24.239" gradientTransform="matrix(.60511 0 0 .64008 3.8886 1.8183)" y1="44.11" x1="24.239">
   <stop id="stop4108" style="stop-color:#51293c" offset="0"/>
   <stop id="stop4110" style="stop-color:#876374" offset="1"/>
  </linearGradient>
 </defs>
 <g id="layer1">
  <rect id="rect2879" style="opacity:.15;fill:url(#linearGradient2679)" height="2" width="22.1" y="30" x="4.95"/>
  <path id="path2881" style="opacity:.15;fill:url(#radialGradient2676)" d="m4.95 30v2c-0.8066 0.004-1.95-0.448-1.95-1s0.9001-1 1.95-1z"/>
  <path id="path2883" style="opacity:.15;fill:url(#radialGradient2673)" d="m27.05 30v2c0.807 0.004 1.95-0.448 1.95-1s-0.9-1-1.95-1z"/>
  <path id="path4160" style="stroke-linejoin:round;stroke-width:.99992;stroke:url(#linearGradient2685);fill:url(#radialGradient2683)" d="m4.5 1.5h15.811c0.925 0.3128 5.892 3.8764 7.189 6.3438v22.656h-23v-29z"/>
  <path id="path2435" style="opacity:.4;stroke:url(#linearGradient2662);fill:none" d="m26.5 8.139v21.361h-21v-27h14.551"/>
  <path id="path12038" style="opacity:.4;fill-rule:evenodd;filter:url(#filter3212)" d="m28.617 0.92126c4.283 0 2.154 8.4831 2.154 8.4831s10.357-1.8023 10.357 2.8186c0-2.6095-11.302-10.728-12.511-11.302z" transform="matrix(.63860 0 0 .61936 .72508 1.4294)"/>
  <path id="path4474" style="fill:url(#linearGradient2658);fill-rule:evenodd" d="m19 2c2.035 0 1.492 4.7455 1.492 4.7455s6.497-0.6076 6.497 2.2545c0-0.6974 0.055-1.1968-0.085-1.4144-1.008-1.5634-5.361-5.0716-6.933-5.5314-0.118-0.0344-0.379-0.0542-0.971-0.0542z"/>
  <path id="path3879" style="opacity:.2;fill:url(#linearGradient2632);fill-rule:evenodd" d="m6.0476 2c-0.5786 0-1.0476 0.8922-1.0476 1.993v14.578c0.0013 0.122 0.0296 0.238 0.0779 0.319 0.0484 0.081 0.1124 0.12 0.1765 0.108l21.551-6.492c0.111-0.033 0.193-0.214 0.195-0.427v-3.9233l-7.01-6.1557h-13.942z"/>
  <path id="path3883" style="stroke-linejoin:round;stroke:url(#linearGradient2626);stroke-width:.99992;fill:none" d="m20.287 1.4703c0.898 0.3134 5.954 3.911 7.213 6.3827v8.11c-25.791 10.384-22.706-14.493-7.213-14.493z"/>
  <path id="path5316" style="opacity:.1;fill:url(#linearGradient3490)" d="m21.975 11.732c-0.284-0.011-0.566 0.002-0.842 0.023-2.428 0.191-4.528 1.629-5.335 3.915-0.498 1.408-0.398 2.9 0.133 4.284l-10.931 9.391v0.655h6.466l-0.14-1.8 3.564 0.695 0.421-3.22 3.343 0.695 2.191-1.83c2.239 0.712 4.51 0.349 6.155-0.833v-7.713c-0.272 0.067-0.587 0.05-0.886-0.07-0.729-0.292-1.141-1.074-0.907-1.737 0.175-0.497 0.679-0.819 1.217-0.81 0.18 0.002 0.371 0.042 0.554 0.115 0.01 0.004 0.012 0.019 0.022 0.024v-1.205c-0.713-0.188-1.43-0.111-1.992 0.209-0.153-0.073-0.284-0.168-0.443-0.232-0.859-0.344-1.741-0.523-2.59-0.556z"/>
  <path id="path5283" style="opacity:.4;fill:url(#linearGradient3488)" d="m21.975 11.004c-0.284-0.011-0.566 0.002-0.842 0.023-2.428 0.191-4.528 1.629-5.335 3.915-0.498 1.408-0.398 2.9 0.133 4.284l-10.931 9.464 0.0299 1.31h6.4951l-0.199-2.528 3.564 0.695 0.421-3.22 3.343 0.695 2.191-1.829c2.239 0.711 4.51 0.348 6.155-0.834v-7.713c-0.272 0.067-0.587 0.05-0.886-0.07-0.729-0.292-1.141-1.074-0.907-1.737 0.175-0.496 0.679-0.818 1.217-0.81 0.18 0.002 0.371 0.042 0.554 0.115 0.01 0.004 0.012 0.019 0.022 0.024v-1.205c-0.713-0.188-1.43-0.111-1.992 0.209-0.153-0.073-0.284-0.168-0.443-0.232-0.859-0.344-1.741-0.523-2.59-0.556z"/>
  <path id="path3496" style="opacity:.4;fill:#fff" d="m19.178 25c-0.3-1.106-0.601-1.894-0.902-3h-4.543c-0.304 1.106-0.608 1.894-0.911 3h-2.822c1.427-4.667 2.855-9.333 4.282-14h3.417c1.434 4.667 2.867 9.333 4.301 14h-2.822zm-1.551-6c-0.495-1.849-1.065-3.474-1.495-5.342-0.083-0.281-0.12-1.029-0.197-0.336-0.42 1.985-0.998 3.724-1.526 5.678h3.218z"/>
  <path id="text3893" style="fill:url(#linearGradient3492)" d="m19.178 24c-0.3-1.106-0.601-1.894-0.902-3h-4.543c-0.304 1.106-0.608 1.894-0.911 3h-2.822c1.427-4.667 2.855-9.333 4.282-14h3.417c1.434 4.667 2.867 9.333 4.301 14h-2.822zm-1.551-6c-0.495-1.849-1.065-3.474-1.495-5.342-0.083-0.281-0.12-1.029-0.197-0.336-0.42 1.985-0.998 3.724-1.526 5.678h3.218z"/>
 </g>
</svg>
