<?xml version="1.0" encoding="UTF-8" standalone="no"?>
<!-- Created with Inkscape (http://www.inkscape.org/) -->

<svg
   xmlns:dc="http://purl.org/dc/elements/1.1/"
   xmlns:cc="http://creativecommons.org/ns#"
   xmlns:rdf="http://www.w3.org/1999/02/22-rdf-syntax-ns#"
   xmlns:svg="http://www.w3.org/2000/svg"
   xmlns="http://www.w3.org/2000/svg"
   xmlns:xlink="http://www.w3.org/1999/xlink"
   version="1.1"
   width="32"
   height="32"
   id="svg21483">
  <defs
     id="defs21485">
    <linearGradient
       x1="520.58502"
       y1="735.05206"
       x2="516.15179"
       y2="720.86298"
       id="linearGradient9342"
       xlink:href="#linearGradient14494-5"
       gradientUnits="userSpaceOnUse" />
    <linearGradient
       id="linearGradient14494-5">
      <stop
         id="stop14496-5"
         style="stop-color:#dc85e9;stop-opacity:1"
         offset="0" />
      <stop
         id="stop14498-1"
         style="stop-color:#f2cbf8;stop-opacity:1"
         offset="1" />
    </linearGradient>
    <linearGradient
       x1="520.58502"
       y1="735.05206"
       x2="516.15179"
       y2="720.86298"
       id="linearGradient54969"
       xlink:href="#linearGradient14494-5"
       gradientUnits="userSpaceOnUse"
       gradientTransform="matrix(0.334262,0,0,0.351648,-157.71196,-238.81587)" />
    <linearGradient
       x1="520.58502"
       y1="735.05206"
       x2="516.15179"
       y2="720.86298"
       id="linearGradient54972"
       xlink:href="#linearGradient14494-5"
       gradientUnits="userSpaceOnUse"
       gradientTransform="matrix(0.334262,0,0,0.351648,-157.71196,-234.31587)" />
    <linearGradient
       x1="209.0625"
       y1="-765.46082"
       x2="209.0625"
       y2="-781.62268"
       id="linearGradient44021"
       xlink:href="#linearGradient15606-1"
       gradientUnits="userSpaceOnUse"
       gradientTransform="translate(-203.00196,784.63414)" />
    <linearGradient
       id="linearGradient15606-1">
      <stop
         id="stop15608-0"
         style="stop-color:#ffffff;stop-opacity:0.58823502"
         offset="0" />
      <stop
         id="stop15610-5"
         style="stop-color:#ffffff;stop-opacity:0.86274499"
         offset="1" />
    </linearGradient>
    <linearGradient
       x1="294.3429"
       y1="256.58133"
       x2="294.41818"
       y2="243.13852"
       id="linearGradient44024"
       xlink:href="#linearGradient10286-3"
       gradientUnits="userSpaceOnUse"
       gradientTransform="matrix(1.99475,0,0,2.0031,-580.14296,-484.96587)" />
    <linearGradient
       id="linearGradient10286-3">
      <stop
         id="stop10288-8"
         style="stop-color:#b3b3b3;stop-opacity:1"
         offset="0" />
      <stop
         id="stop10290-7"
         style="stop-color:#e6e6e6;stop-opacity:1"
         offset="1" />
    </linearGradient>
    <linearGradient
       x1="110.96875"
       y1="976.29968"
       x2="110.96875"
       y2="992.375"
       id="linearGradient43244"
       xlink:href="#linearGradient4145-42"
       gradientUnits="userSpaceOnUse" />
    <linearGradient
       id="linearGradient4145-42">
      <stop
         id="stop4953"
         style="stop-color:#e694bb;stop-opacity:1"
         offset="0" />
      <stop
         id="stop4955"
         style="stop-color:#d3819a;stop-opacity:1"
         offset="0.26238" />
      <stop
         id="stop4957"
         style="stop-color:#b25a64;stop-opacity:1"
         offset="0.704952" />
      <stop
         id="stop4959"
         style="stop-color:#98313d;stop-opacity:1"
         offset="1" />
    </linearGradient>
    <linearGradient
       x1="110.96875"
       y1="976.29968"
       x2="110.99982"
       y2="991.87488"
       id="linearGradient15046-9"
       xlink:href="#linearGradient4145-42"
       gradientUnits="userSpaceOnUse"
       gradientTransform="matrix(1,0,0,1.00011,0,-0.10551)" />
    <linearGradient
       x1="110.96875"
       y1="976.29968"
       x2="110.96875"
       y2="992.375"
       id="linearGradient21481"
       xlink:href="#linearGradient4145-42"
       gradientUnits="userSpaceOnUse"
       gradientTransform="matrix(1.00399,0,0,1.00959,-1.49914,-9.36636)" />
  </defs>
  <metadata
     id="metadata21488">
    <rdf:RDF>
      <cc:Work
         rdf:about="">
        <dc:format>image/svg+xml</dc:format>
        <dc:type
           rdf:resource="http://purl.org/dc/dcmitype/StillImage" />
        <dc:title></dc:title>
      </cc:Work>
    </rdf:RDF>
  </metadata>
  <g
     id="layer1">
    <g
       transform="matrix(1.99993,0,0,1.99923,-218.99196,-1951.9859)"
       id="g15014"
       style="fill:url(#linearGradient43244);fill-opacity:1;display:inline">
      <path
         d="m 111.8125,976.3733 c -0.4584,0.0875 -0.82072,0.53346 -0.8125,1.00011 l 0,14.00148 c 5e-5,0.52364 0.47642,1.00006 1,1.00011 l 10.99999,0 c 0.52358,-5e-5 0.99995,-0.47647 1,-1.00011 l 0,-8.73078 c 0.006,-0.26409 -0.0975,-0.52903 -0.28125,-0.71883 l -5.27042,-5.2707 c -0.18978,-0.18372 -0.45469,-0.2874 -0.71875,-0.28128 l -5.72957,0 c -0.0623,-0.006 -0.12518,-0.006 -0.1875,0 z"
         id="path15016"
         style="font-size:medium;font-style:normal;font-variant:normal;font-weight:normal;font-stretch:normal;text-indent:0pt;text-align:start;text-decoration:none;line-height:normal;letter-spacing:normal;word-spacing:normal;text-transform:none;direction:ltr;text-anchor:start;color:#000000;fill:url(#linearGradient15046-9);fill-opacity:1;stroke:none;stroke-width:2;marker:none;visibility:visible;display:inline;overflow:visible;font-family:Andale Mono" />
      <path
         d="m 120.32938,976.3765 c -0.33282,0.10664 -0.44483,0.61349 -0.18825,0.85184 l 3.01199,3.02879 c 0.27825,0.26531 0.83246,0.0383 0.84712,-0.34705 l 0,-3.02878 c -3e-5,-0.26431 -0.23916,-0.50477 -0.502,-0.5048 l -3.01199,0 c -0.0519,-0.008 -0.105,-0.008 -0.15687,0 z"
         id="path15018"
         style="font-size:medium;font-style:normal;font-variant:normal;font-weight:normal;font-stretch:normal;text-indent:0pt;text-align:start;text-decoration:none;line-height:normal;letter-spacing:normal;word-spacing:normal;text-transform:none;direction:ltr;text-anchor:start;color:#000000;fill:url(#linearGradient21481);fill-opacity:1;fill-rule:nonzero;stroke:none;stroke-width:1;marker:none;visibility:visible;display:inline;overflow:visible;font-family:Andale Mono" />
    </g>
    <path
       d="m 4.9981529,2.0115268 0,0.5 0,27.0000002 0,0.5 0.4999,0 20.9995991,0 0.5,0 0,-0.5 0,-17 0,-0.2188 -0.1562,-0.1562 -9.9373,-10.0000002 -0.125,-0.125 -0.2188,0 -11.0622991,0 -0.4999,0 z"
       id="path15020"
       style="font-size:medium;font-style:normal;font-variant:normal;font-weight:normal;font-stretch:normal;text-indent:0pt;text-align:start;text-decoration:none;line-height:normal;letter-spacing:normal;word-spacing:normal;text-transform:none;direction:ltr;text-anchor:start;color:#000000;fill:url(#linearGradient44024);fill-opacity:1;fill-rule:nonzero;stroke:none;stroke-width:1;marker:none;visibility:visible;display:inline;overflow:visible;font-family:Andale Mono" />
    <path
       d="m 5.9980529,3.0115268 10.0583991,0 9.941,10.0000002 0,16 -19.9993991,0 0,-26.0000002 z"
       id="path15022"
       style="fill:url(#linearGradient44021);fill-opacity:1;stroke:none;display:inline" />
    <path
       d="m 8.4968529,19.496347 0,4 c 0,1.10457 3.3579001,2 7.4999991,2 4.1421,0 7.5,-0.89543 7.5,-2 l 0,-4 -14.9999991,0 z"
       id="path9344"
       style="color:#000000;fill:url(#linearGradient54972);fill-opacity:1;fill-rule:nonzero;stroke:#8e03a3;stroke-width:1;marker:none;visibility:visible;display:inline;overflow:visible" />
    <path
       d="m 8.4968529,14.996347 0,4 c 0,1.10457 3.3579001,2 7.4999991,2 4.1421,0 7.5,-0.89543 7.5,-2 l 0,-4 -14.9999991,0 z"
       id="path9335"
       style="color:#000000;fill:url(#linearGradient54969);fill-opacity:1;fill-rule:nonzero;stroke:#8e03a3;stroke-width:1;marker:none;visibility:visible;display:inline;overflow:visible" />
    <path
       d="m 542.125,730.3125 a 22.4375,5.6875 0 1 1 -44.875,0 22.4375,5.6875 0 1 1 44.875,0 z"
       transform="matrix(0.334262,0,0,0.351648,-157.71196,-242.31587)"
       id="path9337"
       style="color:#000000;fill:url(#linearGradient9342);fill-opacity:1;fill-rule:nonzero;stroke:#8e03a3;stroke-width:2.91676998;marker:none;visibility:visible;display:inline;overflow:visible" />
  </g>
</svg>
