<?xml version="1.0" encoding="UTF-8" standalone="no"?>
<!-- Created with Inkscape (http://www.inkscape.org/) -->

<svg
   xmlns:dc="http://purl.org/dc/elements/1.1/"
   xmlns:cc="http://creativecommons.org/ns#"
   xmlns:rdf="http://www.w3.org/1999/02/22-rdf-syntax-ns#"
   xmlns:svg="http://www.w3.org/2000/svg"
   xmlns="http://www.w3.org/2000/svg"
   xmlns:xlink="http://www.w3.org/1999/xlink"
   version="1.1"
   width="32"
   height="32"
   id="svg21220">
  <defs
     id="defs21222">
    <linearGradient
       x1="592.2019"
       y1="968.76935"
       x2="592.64386"
       y2="1000.1472"
       id="linearGradient54088"
       xlink:href="#linearGradient13214-3"
       gradientUnits="userSpaceOnUse"
       gradientTransform="translate(-123,-1753.64)" />
    <linearGradient
       id="linearGradient13214-3">
      <stop
         id="stop13216-0"
         style="stop-color:#18a303;stop-opacity:1"
         offset="0" />
      <stop
         id="stop13218-4"
         style="stop-color:#106802;stop-opacity:1"
         offset="1" />
    </linearGradient>
    <linearGradient
       x1="481"
       y1="-759.63782"
       x2="481"
       y2="-764.63782"
       id="linearGradient54090"
       xlink:href="#linearGradient15606-6"
       gradientUnits="userSpaceOnUse"
       gradientTransform="matrix(1,0,0,1.2,0,151.925)" />
    <linearGradient
       id="linearGradient15606-6">
      <stop
         id="stop15608-8"
         style="stop-color:#ffffff;stop-opacity:0.58823502"
         offset="0" />
      <stop
         id="stop15610-7"
         style="stop-color:#ffffff;stop-opacity:0.86274499"
         offset="1" />
    </linearGradient>
    <linearGradient
       x1="209.0625"
       y1="-765.46082"
       x2="209.0625"
       y2="-781.62268"
       id="linearGradient44012"
       xlink:href="#linearGradient15606-1"
       gradientUnits="userSpaceOnUse"
       gradientTransform="translate(-202.99996,784.63414)" />
    <linearGradient
       id="linearGradient15606-1">
      <stop
         id="stop15608-0"
         style="stop-color:#ffffff;stop-opacity:0.58823502"
         offset="0" />
      <stop
         id="stop15610-5"
         style="stop-color:#ffffff;stop-opacity:0.86274499"
         offset="1" />
    </linearGradient>
    <linearGradient
       x1="294.3429"
       y1="256.58133"
       x2="294.41818"
       y2="243.13852"
       id="linearGradient44015"
       xlink:href="#linearGradient10286-3"
       gradientUnits="userSpaceOnUse"
       gradientTransform="matrix(1.99475,0,0,2.0031,-580.14096,-484.96587)" />
    <linearGradient
       id="linearGradient10286-3">
      <stop
         id="stop10288-8"
         style="stop-color:#b3b3b3;stop-opacity:1"
         offset="0" />
      <stop
         id="stop10290-7"
         style="stop-color:#e6e6e6;stop-opacity:1"
         offset="1" />
    </linearGradient>
    <linearGradient
       x1="110.96875"
       y1="976.29968"
       x2="110.96875"
       y2="992.375"
       id="linearGradient15110-3"
       xlink:href="#linearGradient4145-42-322-778-541-32-432-871-622"
       gradientUnits="userSpaceOnUse" />
    <linearGradient
       id="linearGradient4145-42-322-778-541-32-432-871-622">
      <stop
         id="stop5641"
         style="stop-color:#b5cc85;stop-opacity:1"
         offset="0" />
      <stop
         id="stop5643"
         style="stop-color:#9abe74;stop-opacity:1"
         offset="0.26238" />
      <stop
         id="stop5645"
         style="stop-color:#669f4d;stop-opacity:1"
         offset="0.704952" />
      <stop
         id="stop5647"
         style="stop-color:#47892b;stop-opacity:1"
         offset="1" />
    </linearGradient>
    <linearGradient
       x1="110.96875"
       y1="976.29968"
       x2="110.99982"
       y2="991.87488"
       id="linearGradient15105-2"
       xlink:href="#linearGradient4145-42-322-778-541-32-432-871-622"
       gradientUnits="userSpaceOnUse"
       gradientTransform="matrix(1,0,0,1.00011,0,-0.10551)" />
    <linearGradient
       x1="110.96875"
       y1="976.29968"
       x2="110.96875"
       y2="992.375"
       id="linearGradient21218"
       xlink:href="#linearGradient4145-42-322-778-541-32-432-871-622"
       gradientUnits="userSpaceOnUse"
       gradientTransform="matrix(1.00399,0,0,1.00959,-1.49914,-9.36636)" />
  </defs>
  <metadata
     id="metadata21225">
    <rdf:RDF>
      <cc:Work
         rdf:about="">
        <dc:format>image/svg+xml</dc:format>
        <dc:type
           rdf:resource="http://purl.org/dc/dcmitype/StillImage" />
        <dc:title></dc:title>
      </cc:Work>
    </rdf:RDF>
  </metadata>
  <g
     id="layer1">
    <g
       transform="matrix(1.99993,0,0,1.99923,-218.99196,-1951.9859)"
       id="g15073"
       style="fill:url(#linearGradient15110-3);fill-opacity:1;display:inline">
      <path
         d="m 111.8125,976.3733 c -0.4584,0.0875 -0.82072,0.53346 -0.8125,1.00011 l 0,14.00148 c 5e-5,0.52364 0.47642,1.00006 1,1.00011 l 10.99999,0 c 0.52358,-5e-5 0.99995,-0.47647 1,-1.00011 l 0,-8.73078 c 0.006,-0.26409 -0.0975,-0.52903 -0.28125,-0.71883 l -5.27042,-5.2707 c -0.18978,-0.18372 -0.45469,-0.2874 -0.71875,-0.28128 l -5.72957,0 c -0.0623,-0.006 -0.12518,-0.006 -0.1875,0 z"
         id="path15075"
         style="font-size:medium;font-style:normal;font-variant:normal;font-weight:normal;font-stretch:normal;text-indent:0pt;text-align:start;text-decoration:none;line-height:normal;letter-spacing:normal;word-spacing:normal;text-transform:none;direction:ltr;text-anchor:start;color:#000000;fill:url(#linearGradient15105-2);fill-opacity:1;stroke:none;stroke-width:2;marker:none;visibility:visible;display:inline;overflow:visible;font-family:Andale Mono" />
      <path
         d="m 120.32938,976.3765 c -0.33282,0.10664 -0.44483,0.61349 -0.18825,0.85184 l 3.01199,3.02879 c 0.27825,0.26531 0.83246,0.0383 0.84712,-0.34705 l 0,-3.02878 c -3e-5,-0.26431 -0.23916,-0.50477 -0.502,-0.5048 l -3.01199,0 c -0.0519,-0.008 -0.105,-0.008 -0.15687,0 z"
         id="path15077"
         style="font-size:medium;font-style:normal;font-variant:normal;font-weight:normal;font-stretch:normal;text-indent:0pt;text-align:start;text-decoration:none;line-height:normal;letter-spacing:normal;word-spacing:normal;text-transform:none;direction:ltr;text-anchor:start;color:#000000;fill:url(#linearGradient21218);fill-opacity:1;fill-rule:nonzero;stroke:none;stroke-width:1;marker:none;visibility:visible;display:inline;overflow:visible;font-family:Andale Mono" />
    </g>
    <path
       d="m 5.0001129,2.0115267 0,0.5 0,27.0000003 0,0.5 0.49999,0 20.9995991,0 0.49999,0 0,-0.5 0,-17 0,-0.2188 -0.15624,-0.1562 -9.93731,-10.0000003 -0.12499,-0.125 -0.21875,0 -11.0622991,0 -0.49999,0 z"
       id="path15079"
       style="font-size:medium;font-style:normal;font-variant:normal;font-weight:normal;font-stretch:normal;text-indent:0pt;text-align:start;text-decoration:none;line-height:normal;letter-spacing:normal;word-spacing:normal;text-transform:none;direction:ltr;text-anchor:start;color:#000000;fill:url(#linearGradient44015);fill-opacity:1;fill-rule:nonzero;stroke:none;stroke-width:1;marker:none;visibility:visible;display:inline;overflow:visible;font-family:Andale Mono" />
    <path
       d="m 6.0000929,3.0115268 10.0584091,0 9.9409,10.0000002 0,16 -19.9993091,0 0,-26.0000002 z"
       id="path15081"
       style="fill:url(#linearGradient44012);fill-opacity:1;stroke:none;display:inline" />
    <g
       transform="translate(-464.00117,784.63413)"
       id="g28878"
       style="display:inline">
      <g
         id="g15626">
        <rect
           width="16"
           height="13.000028"
           x="472"
           y="-772.63782"
           id="rect15558-5"
           style="color:#000000;fill:#ccf4c6;fill-opacity:1;fill-rule:nonzero;stroke:none;stroke-width:1;marker:none;visibility:visible;display:inline;overflow:visible" />
        <rect
           width="15.999989"
           height="3.9999993"
           x="472"
           y="-772.63782"
           id="rect7360"
           style="color:#000000;fill:#92e285;fill-opacity:1;fill-rule:nonzero;stroke:none;stroke-width:1;marker:none;visibility:visible;display:inline;overflow:visible" />
        <path
           d="m 472,-772.6378 0,1 0,2 0,1 0,2 0,1 0,2 0,1 0,2 0,1 16,0 0,-1 0,-11 0,-1 -1,0 -4,0 -1,0 -4,0 -1,0 -4,0 -1,0 z m 1,1 4,0 0,2 -4,0 0,-2 z m 5,0 4,0 0,2 -4,0 0,-2 z m 5,0 4,0 0,2 -4,0 0,-2 z m -10,3 4,0 0,2 -4,0 0,-2 z m 5,0 4,0 0,2 -4,0 0,-2 z m 5,0 4,0 0,2 -4,0 0,-2 z m -10,3 4,0 0,2 -4,0 0,-2 z m 5,0 4,0 0,2 -4,0 0,-2 z m 5,0 4,0 0,2 -4,0 0,-2 z m -10,3 4,0 0,2 -4,0 0,-2 z m 5,0 4,0 0,2 -4,0 0,-2 z m 5,0 4,0 0,2 -4,0 0,-2 z"
           id="rect6547"
           style="color:#000000;fill:url(#linearGradient54088);fill-opacity:1;fill-rule:nonzero;stroke:none;stroke-width:1;marker:none;visibility:visible;display:inline;overflow:visible" />
        <rect
           width="8"
           height="7.9999647"
           x="480"
           y="-766.63782"
           id="rect7336"
           style="color:#000000;fill:#808080;fill-opacity:1;fill-rule:nonzero;stroke:none;stroke-width:1;marker:none;visibility:visible;display:inline;overflow:visible" />
        <rect
           width="6"
           height="5.9999619"
           x="481"
           y="-765.63782"
           id="rect7362"
           style="color:#000000;fill:#cccccc;fill-opacity:1;fill-rule:nonzero;stroke:none;stroke-width:1;marker:none;visibility:visible;display:inline;overflow:visible" />
        <rect
           width="6"
           height="5.9999619"
           x="481"
           y="-765.63782"
           id="rect6567"
           style="color:#000000;fill:url(#linearGradient54090);fill-opacity:1;fill-rule:nonzero;stroke:none;stroke-width:1;marker:none;visibility:visible;display:inline;overflow:visible" />
        <rect
           width="2"
           height="2.9999723"
           x="482"
           y="-762.63782"
           id="rect6585"
           style="color:#000000;fill:#1c99e0;fill-opacity:1;fill-rule:nonzero;stroke:none;stroke-width:1;marker:none;visibility:visible;display:inline;overflow:visible" />
        <rect
           width="2"
           height="4.9999609"
           x="484"
           y="-764.63782"
           id="rect6587"
           style="color:#000000;fill:#d36118;fill-opacity:1;fill-rule:nonzero;stroke:none;stroke-width:1;marker:none;visibility:visible;display:inline;overflow:visible" />
        <rect
           width="1"
           height="1.9999989"
           x="482"
           y="-762.63782"
           id="rect7350"
           style="color:#000000;fill:#63bbee;fill-opacity:1;fill-rule:nonzero;stroke:none;stroke-width:1;marker:none;visibility:visible;display:inline;overflow:visible" />
        <rect
           width="1"
           height="3.9999883"
           x="484"
           y="-764.63782"
           id="rect7352"
           style="color:#000000;fill:#f09e6f;fill-opacity:1;fill-rule:nonzero;stroke:none;stroke-width:1;marker:none;visibility:visible;display:inline;overflow:visible" />
      </g>
    </g>
  </g>
</svg>
