<?xml version="1.0" encoding="UTF-8" standalone="no"?>
<!-- Created with Inkscape (http://www.inkscape.org/) -->
<svg id="svg4079" xmlns:rdf="http://www.w3.org/1999/02/22-rdf-syntax-ns#" xmlns="http://www.w3.org/2000/svg" height="32px" width="32px" version="1.1" xmlns:cc="http://creativecommons.org/ns#" xmlns:xlink="http://www.w3.org/1999/xlink" xmlns:dc="http://purl.org/dc/elements/1.1/">
 <defs id="defs4081">
  <linearGradient id="linearGradient2981" y2="6.4426" gradientUnits="userSpaceOnUse" x2="25.076" y1="45.915" x1="25.076">
   <stop id="stop2492-3-0" style="stop-color:#365f0e" offset="0"/>
   <stop id="stop2494-8-4" style="stop-color:#84a718" offset="1"/>
  </linearGradient>
  <linearGradient id="linearGradient3758" y2="5.4565" gradientUnits="userSpaceOnUse" x2="36.358" gradientTransform="matrix(.63713 0 0 .64456 .82968 .74452)" y1="8.059" x1="32.892">
   <stop id="stop8591" style="stop-color:#fefefe" offset="0"/>
   <stop id="stop8593" style="stop-color:#cbcbcb" offset="1"/>
  </linearGradient>
  <filter id="filter3212" color-interpolation-filters="sRGB" width="1.2969" y="-.16434" x="-.14846" height="1.3287">
   <feGaussianBlur id="feGaussianBlur3214" stdDeviation="0.77391625"/>
  </filter>
  <linearGradient id="linearGradient3762" y2="46.017" gradientUnits="userSpaceOnUse" x2="24" gradientTransform="matrix(.63636 0 0 .62791 .72725 .93022)" y1="2" x1="24">
   <stop id="stop3213" style="stop-color:#fff" offset="0"/>
   <stop id="stop3215" style="stop-color:#fff;stop-opacity:0" offset="1"/>
  </linearGradient>
  <radialGradient id="radialGradient3765" gradientUnits="userSpaceOnUse" cy="112.3" cx="102" gradientTransform="matrix(.23404 0 0 -.25430 1.0213 32.289)" r="139.56">
   <stop id="stop3783" style="stop-color:#181818" offset="0"/>
   <stop id="stop3789" style="stop-color:#181818;stop-opacity:0" offset=".25"/>
   <stop id="stop3785" style="stop-color:#181818;stop-opacity:0" offset="1"/>
  </radialGradient>
  <radialGradient id="radialGradient3932-6" gradientUnits="userSpaceOnUse" cy="4.5" cx="24" gradientTransform="matrix(0 2.0164 -2.1588 0 25.715 -47.222)" r="18">
   <stop id="stop3244-5-2" style="stop-color:#eef87e" offset="0"/>
   <stop id="stop3246-9-1" style="stop-color:#cde34f" offset=".26238"/>
   <stop id="stop3248-7-7" style="stop-color:#93b723" offset=".66094"/>
   <stop id="stop3250-8-7" style="stop-color:#5a7e0d" offset="1"/>
  </radialGradient>
  <linearGradient id="linearGradient3934-9" y2="2.9062" gradientUnits="userSpaceOnUse" x2="-51.786" gradientTransform="matrix(.53064 0 0 .58970 39.27 -.79191)" y1="50.786" x1="-51.786">
   <stop id="stop2492-3-2" style="stop-color:#365f0e" offset="0"/>
   <stop id="stop2494-8-7" style="stop-color:#84a718" offset="1"/>
  </linearGradient>
  <radialGradient id="radialGradient3773" xlink:href="#linearGradient5060" gradientUnits="userSpaceOnUse" cy="486.65" cx="605.71" gradientTransform="matrix(.015663 0 0 .0082353 17.61 26.981)" r="117.14"/>
  <linearGradient id="linearGradient5060">
   <stop id="stop5062" offset="0"/>
   <stop id="stop5064" style="stop-opacity:0" offset="1"/>
  </linearGradient>
  <radialGradient id="radialGradient3776" xlink:href="#linearGradient5060" gradientUnits="userSpaceOnUse" cy="486.65" cx="605.71" gradientTransform="matrix(-.015663 0 0 .0082353 14.39 26.981)" r="117.14"/>
  <linearGradient id="linearGradient4077" y2="609.51" gradientUnits="userSpaceOnUse" y1="366.65" gradientTransform="matrix(.045769 0 0 .0082353 -.54232 26.981)" x2="302.86" x1="302.86">
   <stop id="stop5050" style="stop-opacity:0" offset="0"/>
   <stop id="stop5056" offset=".5"/>
   <stop id="stop5052" style="stop-opacity:0" offset="1"/>
  </linearGradient>
 </defs>
 <metadata id="metadata4084">
  <rdf:RDF>
   <cc:Work rdf:about="">
    <dc:format>image/svg+xml</dc:format>
    <dc:type rdf:resource="http://purl.org/dc/dcmitype/StillImage"/>
    <dc:title/>
   </cc:Work>
  </rdf:RDF>
 </metadata>
 <g id="layer1">
  <rect id="rect2879" style="opacity:.15;fill:url(#linearGradient4077)" height="2" width="22.1" y="30" x="4.95"/>
  <path id="path2881" style="opacity:.15;fill:url(#radialGradient3776)" d="m4.95 30v1.9999c-0.80662 0.0038-1.95-0.44807-1.95-1.0001 0-0.552 0.90012-0.99982 1.95-0.99982z"/>
  <path id="path2883" style="opacity:.15;fill:url(#radialGradient3773)" d="m27.05 30v1.9999c0.80661 0.0038 1.95-0.44807 1.95-1.0001 0-0.552-0.90012-0.99982-1.95-0.99982z"/>
  <path id="path4160" style="stroke-linejoin:round;stroke-width:.99992;color:#000000;stroke:url(#linearGradient3934-9);fill:url(#radialGradient3932-6)" d="m4.5 1.5h15.811c0.92456 0.3128 5.8916 3.8764 7.1886 6.3439v22.656h-23v-29z"/>
  <path id="path4191" style="opacity:.3;fill:url(#radialGradient3765)" d="m5.234 30c-0.1289 0-0.234-0.114-0.234-0.254v-27.464c0-0.1407 0.1051-0.2546 0.234-0.2546 4.842 0.0703 10.208-0.1052 15.044 0.0175l6.6535 5.7695 0.06857 21.931c0 0.14012-0.10485 0.2543-0.23404 0.2543h-21.532z"/>
  <path id="path2435" style="opacity:.4;stroke:url(#linearGradient3762);fill:none" d="m26.5 8.139v21.361h-21v-27h14.551"/>
  <path id="path12038" d="m28.617 0.92126c4.2825 0 2.1532 8.4832 2.1532 8.4832s10.358-1.8023 10.358 2.8187c0-2.6097-11.302-10.729-12.511-11.302z" style="opacity:.4;fill-rule:evenodd;filter:url(#filter3212)" transform="matrix(.63860 0 0 .61936 .72508 1.4294)"/>
  <path id="path4474" style="fill:url(#linearGradient3758);fill-rule:evenodd" d="m19 2c2.0349 0 1.4916 4.7455 1.4916 4.7455s6.4978-0.60763 6.4978 2.2545c0-0.69737 0.05487-1.1968-0.08543-1.4144-1.0079-1.5634-5.3614-5.0716-6.9334-5.5314-0.11764-0.034408-0.3785-0.054215-0.97055-0.054215z"/>
  <path id="path3877-4" style="opacity:.1;color:#000000;fill:url(#linearGradient2981)" d="m12.812 9.0312a1.9649 1.9649 0 0 0 -1.781 1.9688v3.0312h-1.125a1.9649 1.9649 0 0 0 -1.531 3.219l6.0938 7.4062a1.9649 1.9649 0 0 0 3.0625 0l6.093-7.406a1.9649 1.9649 0 0 0 -1.5312 -3.2188h-1.125v-3.0312a1.9649 1.9649 0 0 0 -1.969 -1.9688h-6a1.9649 1.9649 0 0 0 -0.1875 0z" transform="translate(0 .00013577)"/>
  <path id="path3877" style="opacity:.3;color:#000000;fill:url(#linearGradient2981)" d="m12.812 10a1.0102 1.0102 0 0 0 -0.812 1v4h-2.0938a1.0102 1.0102 0 0 0 -0.7812 1.656l6.0938 7.4062a1.0102 1.0102 0 0 0 1.5625 0l6.093-7.406a1.0102 1.0102 0 0 0 -0.781 -1.656h-2.094v-4a1.0102 1.0102 0 0 0 -1 -1h-6a1.0102 1.0102 0 0 0 -0.1875 0z" transform="translate(0 .00013577)"/>
  <path id="path3288" style="fill:#f2f2f2" d="m22.094 16-6.094 7.415-6.0944-7.415h3.0944v-5h6v5h3.0944z"/>
  <path id="path3288-2" style="stroke:#fff;stroke-width:.98543;fill:none" d="m21.5 16.5-5.5 6-5.5-6h3v-5h5v5h3z"/>
 </g>
</svg>
