<svg width="16" height="16" xmlns="http://www.w3.org/2000/svg"><path style="fill:#47a1d2;fill-opacity:1;stroke:#48a0d2;stroke-width:1.37953;stroke-linecap:round;stroke-linejoin:round;stroke-miterlimit:4;stroke-dasharray:none;stroke-opacity:1;paint-order:normal" d="M2 8v7h12V8zm4.483 1.338h3.034v5.324H6.483z"/><path style="color:#000;fill:#48a0d2;stroke-width:1.00002;stroke-linecap:round;stroke-linejoin:round;-inkscape-stroke:none" d="M2.835 7.482c0-1.694.53-3.243 1.441-4.405.91-1.161 2.243-1.943 3.737-1.943 1.493 0 2.826.782 3.736 1.943.91 1.162 1.442 2.795 1.442 4.489h-1.933c-.027-1.865-.347-2.54-.974-3.34-.627-.8-1.42-1.23-2.271-1.23-.853 0-1.645.43-2.272 1.23-.627.8-.866 2.04-.866 3.34"/></svg>