<?xml version="1.0" encoding="UTF-8" standalone="no"?>
<!-- Created with Inkscape (http://www.inkscape.org/) -->

<svg
   xmlns:dc="http://purl.org/dc/elements/1.1/"
   xmlns:cc="http://creativecommons.org/ns#"
   xmlns:rdf="http://www.w3.org/1999/02/22-rdf-syntax-ns#"
   xmlns:svg="http://www.w3.org/2000/svg"
   xmlns="http://www.w3.org/2000/svg"
   xmlns:sodipodi="http://sodipodi.sourceforge.net/DTD/sodipodi-0.dtd"
   xmlns:inkscape="http://www.inkscape.org/namespaces/inkscape"
   width="170.50278"
   height="51.799294"
   id="svg2"
   version="1.1"
   inkscape:version="0.48.4 r9939"
   sodipodi:docname="Masks and Overlays.svg">
  <defs
     id="defs4" />
  <sodipodi:namedview
     id="base"
     pagecolor="#ffffff"
     bordercolor="#666666"
     borderopacity="1.0"
     inkscape:pageopacity="0.0"
     inkscape:pageshadow="2"
     inkscape:zoom="4"
     inkscape:cx="162.09224"
     inkscape:cy="30.366318"
     inkscape:document-units="px"
     inkscape:current-layer="layer1"
     showgrid="false"
     inkscape:window-width="1855"
     inkscape:window-height="1056"
     inkscape:window-x="65"
     inkscape:window-y="24"
     inkscape:window-maximized="1"
     fit-margin-top="0"
     fit-margin-left="0"
     fit-margin-right="0"
     fit-margin-bottom="0" />
  <metadata
     id="metadata7">
    <rdf:RDF>
      <cc:Work
         rdf:about="">
        <dc:format>image/svg+xml</dc:format>
        <dc:type
           rdf:resource="http://purl.org/dc/dcmitype/StillImage" />
        <dc:title></dc:title>
      </cc:Work>
    </rdf:RDF>
  </metadata>
  <g
     inkscape:label="Layer 1"
     inkscape:groupmode="layer"
     id="layer1"
     transform="translate(-22,-54.575706)">
    <g
       id="g4111"
       transform="matrix(0.72941498,0,0,0.72941498,5.9528704,28.783482)">
      <rect
         inkscape:export-ydpi="111.50923"
         inkscape:export-xdpi="111.50923"
         inkscape:export-filename="/home/jonathan/Downloads/mask.png"
         y="35.362183"
         x="22"
         height="71"
         width="108"
         id="rect2985"
         style="fill:#000000;fill-opacity:1;stroke:none" />
      <rect
         inkscape:export-ydpi="111.50923"
         inkscape:export-xdpi="111.50923"
         inkscape:export-filename="/home/jonathan/Downloads/mask.png"
         ry="11.034356"
         rx="11.021077"
         y="35.362183"
         x="22"
         height="70.97097"
         width="107.95644"
         id="rect3755"
         style="fill:#ffffff;fill-opacity:1;stroke:none" />
    </g>
    <path
       style="fill:#000000;fill-opacity:1;stroke:none"
       d="m 113.72394,54.586536 0,51.788464 4.92355,0 0,-51.788464 -4.92355,0 z m 1.07132,0.569856 2.7809,0 c 0.30307,0 0.54706,0.258048 0.54706,0.569855 l 0,2.849277 c 0,0.311807 -0.24399,0.569856 -0.54706,0.569856 l -2.7809,0 c -0.30307,0 -0.54706,-0.258049 -0.54706,-0.569856 l 0,-2.849277 c 0,-0.311807 0.24399,-0.569855 0.54706,-0.569855 z m 0,4.672815 2.7809,0 c 0.30307,0 0.54706,0.235254 0.54706,0.547061 l 0,2.872071 c 0,0.311806 -0.24399,0.569856 -0.54706,0.569856 l -2.7809,0 c -0.30307,0 -0.54706,-0.25805 -0.54706,-0.569856 l 0,-2.872071 c 0,-0.311807 0.24399,-0.547061 0.54706,-0.547061 z m 0,4.65002 2.7809,0 c 0.30307,0 0.54706,0.258049 0.54706,0.569856 l 0,2.849276 c 0,0.311808 -0.24399,0.569856 -0.54706,0.569856 l -2.7809,0 c -0.30307,0 -0.54706,-0.258048 -0.54706,-0.569856 l 0,-2.849276 c 0,-0.311807 0.24399,-0.569856 0.54706,-0.569856 z m 0,4.672815 2.7809,0 c 0.30307,0 0.54706,0.258049 0.54706,0.569855 l 0,2.849278 c 0,0.311806 -0.24399,0.569855 -0.54706,0.569855 l -2.7809,0 c -0.30307,0 -0.54706,-0.258049 -0.54706,-0.569855 l 0,-2.849278 c 0,-0.311806 0.24399,-0.569855 0.54706,-0.569855 z m 0,4.65002 2.7809,0 c 0.30307,0 0.54706,0.258049 0.54706,0.569856 l 0,2.872072 c 0,0.311806 -0.24399,0.547061 -0.54706,0.547061 l -2.7809,0 c -0.30307,0 -0.54706,-0.235255 -0.54706,-0.547061 l 0,-2.872072 c 0,-0.311807 0.24399,-0.569856 0.54706,-0.569856 z m 0,4.672814 2.7809,0 c 0.30307,0 0.54706,0.25805 0.54706,0.569856 l 0,2.849278 c 0,0.311806 -0.24399,0.569856 -0.54706,0.569856 l -2.7809,0 c -0.30307,0 -0.54706,-0.25805 -0.54706,-0.569856 l 0,-2.849278 c 0,-0.311806 0.24399,-0.569856 0.54706,-0.569856 z m 0,4.672816 2.7809,0 c 0.30307,0 0.54706,0.235254 0.54706,0.54706 l 0,2.872072 c 0,0.311807 -0.24399,0.569856 -0.54706,0.569856 l -2.7809,0 c -0.30307,0 -0.54706,-0.258049 -0.54706,-0.569856 l 0,-2.872072 c 0,-0.311806 0.24399,-0.54706 0.54706,-0.54706 z m 0,4.65002 2.7809,0 c 0.30307,0 0.54706,0.258049 0.54706,0.569856 l 0,2.872071 c 0,0.311806 -0.24399,0.547061 -0.54706,0.547061 l -2.7809,0 c -0.30307,0 -0.54706,-0.235255 -0.54706,-0.547061 l 0,-2.872071 c 0,-0.311807 0.24399,-0.569856 0.54706,-0.569856 z m 0,4.672815 2.7809,0 c 0.30307,0 0.54706,0.258048 0.54706,0.569856 l 0,2.849276 c 0,0.311808 -0.24399,0.569856 -0.54706,0.569856 l -2.7809,0 c -0.30307,0 -0.54706,-0.258048 -0.54706,-0.569856 l 0,-2.849276 c 0,-0.311808 0.24399,-0.569856 0.54706,-0.569856 z m 0,4.672815 2.7809,0 c 0.30307,0 0.54706,0.235255 0.54706,0.547061 l 0,2.872067 c 0,0.31181 -0.24399,0.56986 -0.54706,0.56986 l -2.7809,0 c -0.30307,0 -0.54706,-0.25805 -0.54706,-0.56986 l 0,-2.872067 c 0,-0.311806 0.24399,-0.547061 0.54706,-0.547061 z m 0,4.650028 2.7809,0 c 0.30307,0 0.54706,0.25804 0.54706,0.56985 l 0,2.87207 c 0,0.31181 -0.24399,0.54706 -0.54706,0.54706 l -2.7809,0 c -0.30307,0 -0.54706,-0.23525 -0.54706,-0.54706 l 0,-2.87207 c 0,-0.31181 0.24399,-0.56985 0.54706,-0.56985 z"
       id="rect3797"
       inkscape:export-filename="/home/jonathan/Downloads/overlay.png"
       inkscape:export-xdpi="111.50923"
       inkscape:export-ydpi="111.50923"
       inkscape:connector-curvature="0" />
    <path
       inkscape:connector-curvature="0"
       style="fill:#000000;fill-opacity:1;stroke:none"
       d="m 187.57923,54.575706 0,51.788464 4.92355,0 0,-51.788464 -4.92355,0 z m 1.07133,0.569856 2.78089,0 c 0.30308,0 0.54706,0.258048 0.54706,0.569854 l 0,2.849278 c 0,0.311806 -0.24398,0.569856 -0.54706,0.569856 l -2.78089,0 c -0.30308,0 -0.54706,-0.25805 -0.54706,-0.569856 l 0,-2.849278 c 0,-0.311806 0.24398,-0.569854 0.54706,-0.569854 z m 0,4.672814 2.78089,0 c 0.30308,0 0.54706,0.235254 0.54706,0.547062 l 0,2.872071 c 0,0.311806 -0.24398,0.569855 -0.54706,0.569855 l -2.78089,0 c -0.30308,0 -0.54706,-0.258049 -0.54706,-0.569855 l 0,-2.872071 c 0,-0.311808 0.24398,-0.547062 0.54706,-0.547062 z m 0,4.650021 2.78089,0 c 0.30308,0 0.54706,0.258049 0.54706,0.569855 l 0,2.849277 c 0,0.311807 -0.24398,0.569856 -0.54706,0.569856 l -2.78089,0 c -0.30308,0 -0.54706,-0.258049 -0.54706,-0.569856 l 0,-2.849277 c 0,-0.311806 0.24398,-0.569855 0.54706,-0.569855 z m 0,4.672814 2.78089,0 c 0.30308,0 0.54706,0.25805 0.54706,0.569856 l 0,2.849278 c 0,0.311806 -0.24398,0.569854 -0.54706,0.569854 l -2.78089,0 c -0.30308,0 -0.54706,-0.258048 -0.54706,-0.569854 l 0,-2.849278 c 0,-0.311806 0.24398,-0.569856 0.54706,-0.569856 z m 0,4.65002 2.78089,0 c 0.30308,0 0.54706,0.25805 0.54706,0.569856 l 0,2.872072 c 0,0.311807 -0.24398,0.547062 -0.54706,0.547062 l -2.78089,0 c -0.30308,0 -0.54706,-0.235255 -0.54706,-0.547062 l 0,-2.872072 c 0,-0.311806 0.24398,-0.569856 0.54706,-0.569856 z m 0,4.672815 2.78089,0 c 0.30308,0 0.54706,0.258049 0.54706,0.569856 l 0,2.849277 c 0,0.311807 -0.24398,0.569856 -0.54706,0.569856 l -2.78089,0 c -0.30308,0 -0.54706,-0.258049 -0.54706,-0.569856 l 0,-2.849277 c 0,-0.311807 0.24398,-0.569856 0.54706,-0.569856 z m 0,4.672816 2.78089,0 c 0.30308,0 0.54706,0.235254 0.54706,0.54706 l 0,2.872072 c 0,0.311806 -0.24398,0.569856 -0.54706,0.569856 l -2.78089,0 c -0.30308,0 -0.54706,-0.25805 -0.54706,-0.569856 l 0,-2.872072 c 0,-0.311806 0.24398,-0.54706 0.54706,-0.54706 z m 0,4.65002 2.78089,0 c 0.30308,0 0.54706,0.258048 0.54706,0.569856 l 0,2.872071 c 0,0.311806 -0.24398,0.547061 -0.54706,0.547061 l -2.78089,0 c -0.30308,0 -0.54706,-0.235255 -0.54706,-0.547061 l 0,-2.872071 c 0,-0.311808 0.24398,-0.569856 0.54706,-0.569856 z m 0,4.672815 2.78089,0 c 0.30308,0 0.54706,0.258048 0.54706,0.569855 l 0,2.849277 c 0,0.311807 -0.24398,0.569856 -0.54706,0.569856 l -2.78089,0 c -0.30308,0 -0.54706,-0.258049 -0.54706,-0.569856 l 0,-2.849277 c 0,-0.311807 0.24398,-0.569855 0.54706,-0.569855 z m 0,4.672814 2.78089,0 c 0.30308,0 0.54706,0.235255 0.54706,0.547062 l 0,2.872077 c 0,0.31181 -0.24398,0.56985 -0.54706,0.56985 l -2.78089,0 c -0.30308,0 -0.54706,-0.25804 -0.54706,-0.56985 l 0,-2.872077 c 0,-0.311807 0.24398,-0.547062 0.54706,-0.547062 z m 0,4.650019 2.78089,0 c 0.30308,0 0.54706,0.25804 0.54706,0.56985 l 0,2.87208 c 0,0.3118 -0.24398,0.54706 -0.54706,0.54706 l -2.78089,0 c -0.30308,0 -0.54706,-0.23526 -0.54706,-0.54706 l 0,-2.87208 c 0,-0.31181 0.24398,-0.56985 0.54706,-0.56985 z"
       id="rect3797-6"
       inkscape:export-filename="/home/jonathan/Downloads/overlay.png"
       inkscape:export-xdpi="111.50923"
       inkscape:export-ydpi="111.50923" />
  </g>
</svg>
