<?xml version="1.0" encoding="UTF-8" standalone="no"?>
<!-- Created with Inkscape (http://www.inkscape.org/) -->

<svg
   xmlns:dc="http://purl.org/dc/elements/1.1/"
   xmlns:cc="http://creativecommons.org/ns#"
   xmlns:rdf="http://www.w3.org/1999/02/22-rdf-syntax-ns#"
   xmlns:svg="http://www.w3.org/2000/svg"
   xmlns="http://www.w3.org/2000/svg"
   xmlns:xlink="http://www.w3.org/1999/xlink"
   xmlns:sodipodi="http://sodipodi.sourceforge.net/DTD/sodipodi-0.dtd"
   xmlns:inkscape="http://www.inkscape.org/namespaces/inkscape"
   width="48"
   height="48"
   id="svg4230"
   version="1.1"
   inkscape:version="0.48+devel r12481"
   sodipodi:docname="folder-publicshare.svg">
  <defs
     id="defs4232">
    <linearGradient
       inkscape:collect="always"
       xlink:href="#linearGradient5459-3"
       id="linearGradient4181"
       x1="2.9250314"
       y1="1029.4803"
       x2="44.956501"
       y2="1029.4803"
       gradientUnits="userSpaceOnUse"
       gradientTransform="translate(-1052.3622,-1004.3622)" />
    <linearGradient
       id="linearGradient5459-3"
       inkscape:collect="always">
      <stop
         id="stop5461-5"
         offset="0"
         style="stop-color:#8796a4;stop-opacity:1" />
      <stop
         id="stop5463-3"
         offset="1"
         style="stop-color:#b0b7c5;stop-opacity:1" />
    </linearGradient>
    <linearGradient
       gradientTransform="matrix(0,-1,1,0,-1004.3621,1052.3622)"
       inkscape:collect="always"
       xlink:href="#linearGradient7161"
       id="linearGradient7167"
       x1="2.9281611"
       y1="1031.2874"
       x2="41.929218"
       y2="1031.2874"
       gradientUnits="userSpaceOnUse" />
    <linearGradient
       inkscape:collect="always"
       id="linearGradient7161">
      <stop
         style="stop-color:#dedede;stop-opacity:1"
         offset="0"
         id="stop7163" />
      <stop
         style="stop-color:#f0f0f0;stop-opacity:1"
         offset="1"
         id="stop7165" />
    </linearGradient>
  </defs>
  <sodipodi:namedview
     id="base"
     pagecolor="#ffffff"
     bordercolor="#666666"
     borderopacity="1.0"
     inkscape:pageopacity="0.0"
     inkscape:pageshadow="2"
     inkscape:zoom="4.7590942"
     inkscape:cx="-1.168301"
     inkscape:cy="19.536311"
     inkscape:document-units="px"
     inkscape:current-layer="layer1"
     showgrid="false"
     inkscape:showpageshadow="false"
     borderlayer="true"
     inkscape:window-width="1366"
     inkscape:window-height="715"
     inkscape:window-x="0"
     inkscape:window-y="30"
     inkscape:window-maximized="1"
     showguides="false"
     inkscape:guide-bbox="true">
    <sodipodi:guide
       orientation="0,1"
       position="44.847656,45.304688"
       id="guide7743" />
    <sodipodi:guide
       orientation="0,1"
       position="45.050781,45.597656"
       id="guide7745" />
    <sodipodi:guide
       orientation="0,1"
       position="44.953125,46.199219"
       id="guide7747" />
    <sodipodi:guide
       orientation="0,1"
       position="44.910156,45.894531"
       id="guide7749" />
    <sodipodi:guide
       orientation="0,1"
       position="44.426193,45.011766"
       id="guide7751" />
    <sodipodi:guide
       orientation="0,1"
       position="59.363824,1.8009126"
       id="guide7760" />
    <sodipodi:guide
       orientation="0,1"
       position="59.351563,2.1015625"
       id="guide7762" />
    <sodipodi:guide
       orientation="0,1"
       position="59.582031,2.4023438"
       id="guide7764" />
    <sodipodi:guide
       orientation="0,1"
       position="59.539063,2.703125"
       id="guide7766" />
    <sodipodi:guide
       orientation="0,1"
       position="61.269698,2.9996795"
       id="guide7768" />
    <sodipodi:guide
       orientation="0,1"
       position="64.265625,5.4921875"
       id="guide7782" />
  </sodipodi:namedview>
  <metadata
     id="metadata4235">
    <rdf:RDF>
      <cc:Work
         rdf:about="">
        <dc:format>image/svg+xml</dc:format>
        <dc:type
           rdf:resource="http://purl.org/dc/dcmitype/StillImage" />
        <dc:title />
      </cc:Work>
    </rdf:RDF>
  </metadata>
  <g
     inkscape:label="Capa 1"
     inkscape:groupmode="layer"
     id="layer1"
     transform="translate(0,-1004.3622)">
    <g
       id="layer1-5"
       inkscape:label="Capa 1">
      <g
         id="g4116"
         transform="translate(0,4.7900391e-5)">
        <rect
           style="fill:#000000;fill-opacity:0.01960784;stroke:none"
           id="rect5263"
           width="44.399963"
           height="44.399963"
           x="1.8000183"
           y="1006.1622"
           ry="6.2786646" />
        <rect
           ry="6.1938181"
           y="1006.4623"
           x="2.1000061"
           height="43.799973"
           width="43.799973"
           id="rect5261"
           style="fill:#000000;fill-opacity:0.03921569;stroke:none" />
        <rect
           style="fill:#000000;fill-opacity:0.07843137;stroke:none"
           id="rect5259"
           width="43.199982"
           height="43.199982"
           x="2.3999939"
           y="1006.7626"
           ry="6.1089716" />
        <rect
           ry="6.0241251"
           y="1007.0624"
           x="2.7000122"
           height="42.599991"
           width="42.599991"
           id="rect5257"
           style="fill:#000000;fill-opacity:0.15686275;stroke:none" />
        <rect
           style="fill:url(#linearGradient4181);fill-opacity:1;stroke:none"
           id="rect4173"
           width="42"
           height="42"
           x="-1049.3622"
           y="3.0000219"
           ry="5.9392796"
           transform="matrix(0,-1,1,0,0,0)" />
        <path
           inkscape:connector-curvature="0"
           style="fill:url(#linearGradient7167);fill-opacity:1;stroke:none"
           d="m 2.9999782,1043.4228 c 0,3.2903 2.6491,5.9394 5.9395,5.9394 l 30.1209998,0 c 3.2904,0 5.9395,-2.6491 5.9395,-5.9394 l 0,-13.0606 0,-10 0,-2 c 0,-0.1385 -0.014,-0.2738 -0.041,-0.4043 -0.1859,-0.913 -0.9895,-1.5957 -1.959,-1.5957 l -18.7129,0 -2.4863,-4.9023 c -0.1007,-0.1985 -0.2352,-0.3657 -0.3848,-0.5137 -0.089,-0.088 -0.1836,-0.1658 -0.2851,-0.2344 -0.01,0 -0.014,-0.011 -0.021,-0.016 -0.092,-0.06 -0.1887,-0.112 -0.2891,-0.1562 -0.025,-0.011 -0.049,-0.021 -0.074,-0.031 -0.089,-0.035 -0.1787,-0.062 -0.2715,-0.084 -0.039,-0.01 -0.077,-0.018 -0.1172,-0.025 -0.083,-0.014 -0.1656,-0.022 -0.25,-0.025 -0.036,0 -0.071,-0.012 -0.1074,-0.012 l -14.9999998,0 c -1.108,0 -2,0.892 -2,2 l 0,2 0,10 0,19.0606 z"
           id="rect5237" />
        <path
           inkscape:connector-curvature="0"
           style="fill:#000000;fill-opacity:0.11764706;stroke:none"
           d="m 3.0000004,1040.9247 0,2.5 c 0,3.2904 2.64714,5.9375 5.9375,5.9375 l 30.1249996,0 c 3.29036,0 5.9375,-2.6471 5.9375,-5.9375 l 0,-2.5 c 0,3.2904 -2.64714,5.9375 -5.9375,5.9375 l -30.1249996,0 c -3.29036,0 -5.9375,-2.6471 -5.9375,-5.9375 z"
           id="rect5265" />
        <path
           inkscape:connector-curvature="0"
           style="fill:#000000;fill-opacity:0.09803922;stroke:none"
           d="m 3.0000004,1042.9247 0,0.5 c 0,3.2904 2.64714,5.9375 5.9375,5.9375 l 30.1249996,0 c 3.29036,0 5.9375,-2.6471 5.9375,-5.9375 l 0,-0.5 c 0,3.2904 -2.64714,5.9375 -5.9375,5.9375 l -30.1249996,0 c -3.29036,0 -5.9375,-2.6471 -5.9375,-5.9375 z"
           id="path5252" />
        <path
           style="fill:#000000"
           d=""
           id="path906"
           inkscape:connector-curvature="0" />
      </g>
    </g>
    <path
       inkscape:connector-curvature="0"
       id="path98"
       style="fill:#38a2ec;fill-opacity:1;fill-rule:nonzero;stroke:none"
       d="m 17.600415,1036.9167 c 0.938335,-0.3831 2.80917,-1.0502 4.03792,-1.4131 0.71458,-0.2256 0.71458,-0.8277 0.71458,-1.3109 0,-0.401 -0.0275,-0.9918 -0.26208,-1.4912 -0.160835,-0.3421 -0.345,-0.9288 -0.38542,-1.3885 -0.0092,-0.1073 -0.05958,-0.2065 -0.14083,-0.2773 -0.118335,-0.1035 -0.358335,-0.482 -0.51125,-1.245 -0.12125,-0.6042 -0.07,-0.737 -0.02043,-0.8642 0.02125,-0.055 0.04165,-0.1085 0.05792,-0.1693 0.1,-0.3657 -0.01125,-1.5671 -0.1325,-2.2336 -0.05292,-0.2899 0.01376,-1.1129 0.555835,-1.8064 0.485835,-0.6214 1.22125,-0.9675 2.159585,-1.0275 l 0.790415,0 c 0.963335,0.061 1.699165,0.407 2.185835,1.0283 0.54208,0.6935 0.607915,1.5167 0.555,1.8067 -0.12042,0.6662 -0.23292,1.8675 -0.13292,2.233 0.01708,0.062 0.03666,0.115 0.05792,0.1695 0.04958,0.1275 0.100832,0.26 -0.01957,0.8643 -0.152917,0.7632 -0.39375,1.1415 -0.511667,1.245 -0.08084,0.071 -0.13125,0.17 -0.140833,0.2772 -0.04,0.4599 -0.22375,1.0464 -0.385,1.3885 -0.184584,0.3925 -0.397084,0.9155 -0.397084,1.4743 0,0.4832 0,1.0852 0.721667,1.3129 1.17625,0.3473 3.055833,0.9928 4.04875,1.3833 -1.6575,1.6417 -3.935417,2.657 -6.44625,2.657 -2.487508,-10e-4 -4.745843,-0.9982 -6.399593,-2.613 z M 24,1021.1957 c 5.054585,0 9.166665,4.112 9.166665,9.1665 0,2.2237 -0.796665,4.2645 -2.119165,5.8537 -0.91375,-0.3815 -3.07125,-1.1302 -4.406665,-1.5244 -0.11375,-0.035 -0.13167,-0.042 -0.13167,-0.5158 0,-0.3913 0.16125,-0.786 0.318335,-1.1192 0.17,-0.3628 0.371665,-0.9721 0.444165,-1.5193 0.2025,-0.235 0.478335,-0.6992 0.655835,-1.5835 0.155415,-0.779 0.08292,-1.0622 -0.02042,-1.3286 -0.01043,-0.027 -0.02166,-0.055 -0.03,-0.084 -0.03916,-0.1829 0.01458,-1.132 0.148333,-1.8687 0.09167,-0.5053 -0.02376,-1.58 -0.719583,-2.4686 -0.439583,-0.5622 -1.28,-1.2516 -2.815833,-1.3479 l -0.842084,0 c -1.509583,0.095 -2.35125,0.785 -2.790833,1.3471 -0.695417,0.8886 -0.81125,1.9631 -0.719167,2.4681 0.134167,0.7371 0.187084,1.6863 0.14875,1.8655 -0.0079,0.032 -0.01957,0.059 -0.03085,0.087 -0.1025,0.2663 -0.175833,0.5494 -0.01958,1.3286 0.176668,0.8842 0.4525,1.3485 0.655834,1.5835 0.07166,0.5471 0.27375,1.1565 0.444584,1.5192 0.124582,0.265 0.182916,0.626 0.182916,1.136 0,0.4742 -0.01792,0.48 -0.124584,0.514 -1.380832,0.4073 -3.57875,1.2015 -4.398332,1.5607 -1.34875,-1.5955 -2.163334,-3.6563 -2.163334,-5.9042 1.8e-5,-5.0537 4.112518,-9.1657 9.166683,-9.1657 z m 0,-0.8335 c -5.522915,0 -10,4.4765 -10,10 0,5.5235 4.477085,10 10,10 5.523335,0 10,-4.4765 10,-10 0,-5.5235 -4.476665,-10 -10,-10" />
  </g>
</svg>
