<?xml version="1.0" encoding="UTF-8" standalone="no"?>
<!-- Created with Inkscape (http://www.inkscape.org/) -->

<svg
   xmlns:dc="http://purl.org/dc/elements/1.1/"
   xmlns:cc="http://creativecommons.org/ns#"
   xmlns:rdf="http://www.w3.org/1999/02/22-rdf-syntax-ns#"
   xmlns:svg="http://www.w3.org/2000/svg"
   xmlns="http://www.w3.org/2000/svg"
   xmlns:sodipodi="http://sodipodi.sourceforge.net/DTD/sodipodi-0.dtd"
   xmlns:inkscape="http://www.inkscape.org/namespaces/inkscape"
   width="48"
   height="48"
   id="svg4230"
   version="1.1"
   inkscape:version="0.48+devel r12504"
   sodipodi:docname="user-trash-full.svg">
  <defs
     id="defs4232" />
  <sodipodi:namedview
     id="base"
     pagecolor="#ffffff"
     bordercolor="#666666"
     borderopacity="1.0"
     inkscape:pageopacity="0.0"
     inkscape:pageshadow="2"
     inkscape:zoom="5.1162429"
     inkscape:cx="5.109147"
     inkscape:cy="35.46508"
     inkscape:document-units="px"
     inkscape:current-layer="layer1"
     showgrid="false"
     inkscape:showpageshadow="false"
     borderlayer="true"
     inkscape:window-width="1366"
     inkscape:window-height="718"
     inkscape:window-x="0"
     inkscape:window-y="30"
     inkscape:window-maximized="1" />
  <metadata
     id="metadata4235">
    <rdf:RDF>
      <cc:Work
         rdf:about="">
        <dc:format>image/svg+xml</dc:format>
        <dc:type
           rdf:resource="http://purl.org/dc/dcmitype/StillImage" />
        <dc:title />
      </cc:Work>
    </rdf:RDF>
  </metadata>
  <g
     inkscape:label="Capa 1"
     inkscape:groupmode="layer"
     id="layer1"
     transform="translate(0,-1004.3622)">
    <path
       style="fill:#38a2ec;fill-opacity:1;fill-rule:nonzero;stroke:none"
       d="m 19.211539,1004.3622 c -2.12064,0 -3.865388,1.7469 -3.865388,3.8658 l 0,1.9036 -9.5769175,0 0,1.9035 1.96153,0 1.903847,36.4612 c 0,2.1189 1.7447475,3.8659 3.8653875,3.8659 l 21.115384,0 c 2.12064,0 3.865385,-1.747 3.865385,-3.8659 l 1.846154,-36.4612 1.903846,0 0,-1.9035 -9.576923,0 0,-1.9036 c 0,-2.1189 -1.744745,-3.8658 -3.865385,-3.8658 l -9.57692,0 z m 0,1.9035 9.57692,0 c 1.05984,0 1.903846,0.904 1.903846,1.9623 l 0,1.9036 -13.442307,0 0,-1.9036 c 0,-1.0583 0.904581,-1.9623 1.961541,-1.9623 z m -9.5769285,5.7694 28.7884635,0 -1.903846,36.4036 0,0.053 c 0,1.0576 -0.844966,1.9041 -1.903846,1.9041 l -21.115384,0 c -1.05792,0 -1.903847,-0.8465 -1.903847,-1.9041 l 0,-0.053 -1.9615405,-36.4036 z m 21.1153875,3.8082 -1.961539,30.7495 1.903846,0.053 1.961539,-30.6922 -1.903846,-0.1164 z m -13.5,0.053 -1.903847,0.053 1.961541,30.6923 1.903847,-0.1165 -1.961541,-30.6344 z m 5.769235,0 0,30.6927 1.961534,0 0,-30.6927 -1.961534,9e-4 z"
       id="path178"
       inkscape:connector-curvature="0" />
  </g>
</svg>
