<?xml version="1.0" encoding="UTF-8" standalone="no"?>
<!-- Created with Inkscape (http://www.inkscape.org/) -->

<svg
   xmlns:dc="http://purl.org/dc/elements/1.1/"
   xmlns:cc="http://creativecommons.org/ns#"
   xmlns:rdf="http://www.w3.org/1999/02/22-rdf-syntax-ns#"
   xmlns:svg="http://www.w3.org/2000/svg"
   xmlns="http://www.w3.org/2000/svg"
   xmlns:xlink="http://www.w3.org/1999/xlink"
   xmlns:sodipodi="http://sodipodi.sourceforge.net/DTD/sodipodi-0.dtd"
   xmlns:inkscape="http://www.inkscape.org/namespaces/inkscape"
   width="48"
   height="48"
   id="svg2"
   version="1.1"
   inkscape:version="0.48+devel r12503"
   sodipodi:docname="deja-dup.svg">
  <defs
     id="defs4">
    <linearGradient
       id="linearGradient4678"
       inkscape:collect="always">
      <stop
         id="stop4680"
         offset="0"
         style="stop-color:#0a7fe7;stop-opacity:1" />
      <stop
         id="stop4682"
         offset="1"
         style="stop-color:#50bffc;stop-opacity:1" />
    </linearGradient>
    <linearGradient
       gradientTransform="translate(-2.5195313e-6,8.0509766e-5)"
       inkscape:collect="always"
       xlink:href="#linearGradient4678"
       id="linearGradient4101"
       x1="29.109528"
       y1="1049.3851"
       x2="29.109528"
       y2="1007.3748"
       gradientUnits="userSpaceOnUse" />
  </defs>
  <sodipodi:namedview
     id="base"
     pagecolor="#ffffff"
     bordercolor="#666666"
     borderopacity="1.0"
     inkscape:pageopacity="0.0"
     inkscape:pageshadow="2"
     inkscape:zoom="5.785908"
     inkscape:cx="31.996751"
     inkscape:cy="22.423738"
     inkscape:document-units="px"
     inkscape:current-layer="layer1"
     showgrid="false"
     inkscape:window-width="1366"
     inkscape:window-height="715"
     inkscape:window-x="0"
     inkscape:window-y="30"
     inkscape:window-maximized="1">
    <inkscape:grid
       type="xygrid"
       id="grid3850" />
  </sodipodi:namedview>
  <metadata
     id="metadata7">
    <rdf:RDF>
      <cc:Work
         rdf:about="">
        <dc:format>image/svg+xml</dc:format>
        <dc:type
           rdf:resource="http://purl.org/dc/dcmitype/StillImage" />
        <dc:title />
      </cc:Work>
    </rdf:RDF>
  </metadata>
  <g
     inkscape:label="Capa 1"
     inkscape:groupmode="layer"
     id="layer1"
     transform="translate(0,-1004.3622)">
    <path
       style="fill:#000000"
       d=""
       id="path906"
       inkscape:connector-curvature="0" />
    <rect
       style="fill:#000000;fill-opacity:0.01960784;stroke:none"
       id="rect5263-0"
       width="44.399963"
       height="44.399963"
       x="1.8000183"
       y="1006.1622"
       ry="6.2786646" />
    <rect
       ry="6.1938181"
       y="1006.4625"
       x="2.1000061"
       height="43.799973"
       width="43.799973"
       id="rect5261-1"
       style="fill:#000000;fill-opacity:0.03921569;stroke:none" />
    <rect
       style="fill:#000000;fill-opacity:0.07843137;stroke:none"
       id="rect5259-9"
       width="43.199982"
       height="43.199982"
       x="2.3999939"
       y="1006.7626"
       ry="6.1089716" />
    <rect
       ry="6.0241251"
       y="1007.0626"
       x="2.7000122"
       height="42.599991"
       width="42.599991"
       id="rect5257-6"
       style="fill:#000000;fill-opacity:0.15686275;stroke:none" />
    <rect
       style="fill:url(#linearGradient4101);fill-opacity:1;stroke:none"
       id="rect5237-3"
       width="42"
       height="42"
       x="3"
       y="1007.3624"
       ry="5.9392786" />
    <path
       inkscape:connector-curvature="0"
       style="fill:#000000;fill-opacity:0.11764706;stroke:none"
       d="m 2.9999965,1040.9248 0,2.5 c 0,3.2904 2.64714,5.9375 5.937501,5.9375 l 30.1249985,0 c 3.290358,0 5.937498,-2.6471 5.937498,-5.9375 l 0,-2.5 c 0,3.2904 -2.64714,5.9375 -5.937498,5.9375 l -30.1249985,0 c -3.29036,0 -5.9375,-2.6471 -5.9375,-5.9375 z"
       id="rect5265-8" />
    <path
       inkscape:connector-curvature="0"
       style="fill:#000000;fill-opacity:0.09803922;stroke:none"
       d="m 2.9999965,1042.9248 0,0.5 c 0,3.2904 2.64714,5.9375 5.937501,5.9375 l 30.1249985,0 c 3.290358,0 5.937498,-2.6471 5.937498,-5.9375 l 0,-0.5 c 0,3.2904 -2.64714,5.9375 -5.937498,5.9375 l -30.1249985,0 c -3.29036,0 -5.9375,-2.6471 -5.9375,-5.9375 z"
       id="path5252-0" />
    <path
       style="fill:#000000;fill-opacity:0.49803922"
       d="m 24,1015.3622 c -7.167643,0 -13.000024,5.8324 -13,13 l -1.857143,0 3.714286,3.7143 3.714285,-3.7143 -1.857142,0 c -2e-6,-5.122 4.163714,-9.2857 9.285714,-9.2857 2.484857,0 4.820238,0.9727 6.576171,2.7277 l 2.629743,-2.6189 C 30.74704,1016.719 27.478428,1015.3622 24,1015.3622 Z m 11.142857,9.2857 -3.714286,3.7143 1.857143,0 c 2e-6,5.122 -4.163714,9.2857 -9.285714,9.2857 -2.484857,0 -4.820237,-0.9726 -6.576172,-2.7276 l -2.629743,2.6188 c 2.458873,2.4663 5.727486,3.8231 9.205915,3.8231 7.167643,0 13.000023,-5.8324 13,-13 l 1.857143,0 -3.714286,-3.7143 z"
       id="path4139"
       inkscape:connector-curvature="0" />
  </g>
</svg>
