<?xml version="1.0" encoding="UTF-8" standalone="no"?>
<!-- Created with Inkscape (http://www.inkscape.org/) -->

<svg
   xmlns:dc="http://purl.org/dc/elements/1.1/"
   xmlns:cc="http://creativecommons.org/ns#"
   xmlns:rdf="http://www.w3.org/1999/02/22-rdf-syntax-ns#"
   xmlns:svg="http://www.w3.org/2000/svg"
   xmlns="http://www.w3.org/2000/svg"
   xmlns:xlink="http://www.w3.org/1999/xlink"
   xmlns:sodipodi="http://sodipodi.sourceforge.net/DTD/sodipodi-0.dtd"
   xmlns:inkscape="http://www.inkscape.org/namespaces/inkscape"
   width="48"
   height="48"
   id="svg2"
   version="1.1"
   inkscape:version="0.48+devel r12503"
   sodipodi:docname="glade.svg">
  <defs
     id="defs4">
    <linearGradient
       gradientTransform="translate(326,-495.99997)"
       inkscape:collect="always"
       xlink:href="#linearGradient4678"
       id="linearGradient5353"
       x1="28.728134"
       y1="1049.4073"
       x2="28.728134"
       y2="1007.5463"
       gradientUnits="userSpaceOnUse" />
    <clipPath
       clipPathUnits="userSpaceOnUse"
       id="clipPath4050">
      <path
         inkscape:connector-curvature="0"
         d="m 205,114 22,0 0,14 -22,0 0,-14 z"
         id="path4052" />
    </clipPath>
    <clipPath
       clipPathUnits="userSpaceOnUse"
       id="clipPath4054">
      <path
         inkscape:connector-curvature="0"
         d="m 205,114 22,0 0,14 -22,0 0,-14 z"
         id="path4056" />
    </clipPath>
    <linearGradient
       inkscape:collect="always"
       id="linearGradient4678">
      <stop
         style="stop-color:#0a7fe7;stop-opacity:1"
         offset="0"
         id="stop4680" />
      <stop
         style="stop-color:#50bffc;stop-opacity:1"
         offset="1"
         id="stop4682" />
    </linearGradient>
  </defs>
  <sodipodi:namedview
     id="base"
     pagecolor="#ffffff"
     bordercolor="#666666"
     borderopacity="1.0"
     inkscape:pageopacity="0.0"
     inkscape:pageshadow="2"
     inkscape:zoom="2.0456274"
     inkscape:cx="-108.81847"
     inkscape:cy="-6.0269882"
     inkscape:document-units="px"
     inkscape:current-layer="layer1"
     showgrid="false"
     inkscape:window-width="1366"
     inkscape:window-height="715"
     inkscape:window-x="0"
     inkscape:window-y="30"
     inkscape:window-maximized="1">
    <inkscape:grid
       type="xygrid"
       id="grid3850" />
  </sodipodi:namedview>
  <metadata
     id="metadata7">
    <rdf:RDF>
      <cc:Work
         rdf:about="">
        <dc:format>image/svg+xml</dc:format>
        <dc:type
           rdf:resource="http://purl.org/dc/dcmitype/StillImage" />
        <dc:title />
      </cc:Work>
    </rdf:RDF>
  </metadata>
  <g
     inkscape:label="Capa 1"
     inkscape:groupmode="layer"
     id="layer1"
     transform="translate(0,-1004.3622)">
    <flowRoot
       xml:space="preserve"
       id="flowRoot1042"
       style="font-size:40px;font-style:normal;font-variant:normal;font-weight:bold;font-stretch:normal;line-height:125%;letter-spacing:0px;word-spacing:0px;fill:#000000;fill-opacity:1;stroke:none;font-family:Impact;-inkscape-font-specification:Impact Bold"
       transform="translate(-73.72922,1001.5273)"><flowRegion
         id="flowRegion1044"><rect
           id="rect1046"
           width="70.178574"
           height="63.57143"
           x="-79.821426"
           y="2.1071429" /></flowRegion><flowPara
         id="flowPara1048">\documentclass[12pt]{article}</flowPara><flowPara
         id="flowPara1050" /></flowRoot>    <g
       transform="translate(-326,496.00002)"
       id="layer1-1"
       inkscape:label="Capa 1">
      <flowRoot
         transform="translate(252.27078,505.52724)"
         style="font-size:40px;font-style:normal;font-variant:normal;font-weight:bold;font-stretch:normal;line-height:125%;letter-spacing:0px;word-spacing:0px;fill:#000000;fill-opacity:1;stroke:none;font-family:Impact;-inkscape-font-specification:Impact Bold"
         id="flowRoot1042-1"
         xml:space="preserve"><flowRegion
           id="flowRegion1044-4"><rect
             y="2.1071429"
             x="-79.821426"
             height="63.57143"
             width="70.178574"
             id="rect1046-9" /></flowRegion><flowPara
           id="flowPara1048-0">\documentclass[12pt]{article}</flowPara><flowPara
           id="flowPara1050-8" /></flowRoot>      <rect
         ry="6.2786646"
         y="510.1622"
         x="327.80002"
         height="44.399963"
         width="44.399963"
         id="rect5263"
         style="fill:#000000;fill-opacity:0.01960784;stroke:none" />
      <rect
         style="fill:#000000;fill-opacity:0.03921569;stroke:none"
         id="rect5261"
         width="43.799973"
         height="43.799973"
         x="328.10001"
         y="510.46231"
         ry="6.1938181" />
      <rect
         ry="6.1089716"
         y="510.76236"
         x="328.39999"
         height="43.199982"
         width="43.199982"
         id="rect5259"
         style="fill:#000000;fill-opacity:0.07843137;stroke:none" />
      <rect
         style="fill:#000000;fill-opacity:0.15686275;stroke:none"
         id="rect5257"
         width="42.599991"
         height="42.599991"
         x="328.70001"
         y="511.06235"
         ry="6.0241251" />
      <rect
         ry="5.9392786"
         y="511.36221"
         x="329"
         height="42"
         width="42"
         id="rect5237"
         style="fill:url(#linearGradient5353);fill-opacity:1;stroke:none" />
      <path
         id="rect5265"
         d="m 329,544.92473 0,2.5 c 0,3.2904 2.64714,5.9375 5.9375,5.9375 l 30.125,0 c 3.29036,0 5.9375,-2.6471 5.9375,-5.9375 l 0,-2.5 c 0,3.2904 -2.64714,5.9375 -5.9375,5.9375 l -30.125,0 c -3.29036,0 -5.9375,-2.6471 -5.9375,-5.9375 z"
         style="fill:#000000;fill-opacity:0.11764706;stroke:none"
         inkscape:connector-curvature="0" />
      <path
         id="path5252"
         d="m 329,546.92473 0,0.5 c 0,3.2904 2.64714,5.9375 5.9375,5.9375 l 30.125,0 c 3.29036,0 5.9375,-2.6471 5.9375,-5.9375 l 0,-0.5 c 0,3.2904 -2.64714,5.9375 -5.9375,5.9375 l -30.125,0 c -3.29036,0 -5.9375,-2.6471 -5.9375,-5.9375 z"
         style="fill:#000000;fill-opacity:0.09803922;stroke:none"
         inkscape:connector-curvature="0" />
      <g
         id="g4058"
         transform="matrix(1.25,0,0,-1.25,80.53777,680.39563)">
        <g
           style="opacity:0.25"
           id="g4060"
           clip-path="url(#clipPath4050)">
          <g
             id="g4062" />
          <g
             id="g4064">
            <g
               id="g4066"
               clip-path="url(#clipPath4054)" />
          </g>
        </g>
      </g>
      <rect
         y="539.86877"
         x="340.30389"
         height="2.1697817"
         width="6.0573077"
         id="rect1260-3"
         style="fill:#000000;fill-opacity:0.49803922;fill-rule:nonzero;stroke:none" />
      <path
         inkscape:connector-curvature="0"
         id="rect1264-6"
         d="m 340.21172,528.17054 0,2.47445 2.44968,0 0,-2.47445 -2.44968,0 z m 1.75684,0.61862 0.24745,0.24744 -0.74234,0.76709 -0.24744,0.24743 -0.29693,-0.29693 -0.2722,-0.27219 0.24744,-0.24745 0.29694,0.29693 0.76708,-0.74232 z"
         style="fill:#000000;fill-opacity:0.49803922;fill-rule:nonzero;stroke:none" />
      <path
         inkscape:connector-curvature="0"
         style="fill:#000000;fill-opacity:0.49803922;fill-rule:nonzero;stroke:none"
         d="m 340.21172,532.59872 0,2.47443 2.44968,0 0,-2.47443 -2.44968,0 z m 1.75684,0.61861 0.24745,0.24744 -0.74234,0.76708 -0.24744,0.24744 -0.29693,-0.29693 -0.2722,-0.27219 0.24744,-0.24744 0.29694,0.29694 0.76708,-0.74234 z"
         id="path879-7" />
      <rect
         style="fill:#000000;fill-opacity:0.49803922;fill-rule:nonzero;stroke:none"
         id="rect881-0"
         width="6.0573077"
         height="2.1697817"
         x="353.36777"
         y="539.86877" />
      <rect
         style="fill:#000000;fill-opacity:0.49803922"
         id="rect1070-7"
         width="19.576553"
         height="2.4895639"
         x="340.21173"
         y="522.68579"
         ry="0" />
      <path
         inkscape:connector-curvature="0"
         id="rect4152"
         d="m 337,519.36218 0,26 26,0 0,-26 -26,0 z m 2,2 22,0 0,22 -22,0 0,-22 z"
         style="fill:#000000;fill-opacity:0.49803922;fill-rule:evenodd;stroke:none" />
    </g>
  </g>
</svg>
