<?xml version="1.0" encoding="UTF-8" standalone="no"?>
<!-- Created with Inkscape (http://www.inkscape.org/) -->

<svg
   xmlns:dc="http://purl.org/dc/elements/1.1/"
   xmlns:cc="http://creativecommons.org/ns#"
   xmlns:rdf="http://www.w3.org/1999/02/22-rdf-syntax-ns#"
   xmlns:svg="http://www.w3.org/2000/svg"
   xmlns="http://www.w3.org/2000/svg"
   xmlns:xlink="http://www.w3.org/1999/xlink"
   xmlns:sodipodi="http://sodipodi.sourceforge.net/DTD/sodipodi-0.dtd"
   xmlns:inkscape="http://www.inkscape.org/namespaces/inkscape"
   width="48"
   height="48"
   id="svg2"
   version="1.1"
   inkscape:version="0.48+devel r12501"
   sodipodi:docname="gmusicbrowser.svg">
  <defs
     id="defs4">
    <linearGradient
       gradientUnits="userSpaceOnUse"
       y2="1007.3218"
       x2="40.915409"
       y1="1049.3521"
       x1="40.915409"
       id="linearGradient6778"
       xlink:href="#linearGradient6075"
       inkscape:collect="always" />
    <linearGradient
       id="linearGradient6075"
       inkscape:collect="always">
      <stop
         id="stop6077"
         offset="0"
         style="stop-color:#ec7928;stop-opacity:1" />
      <stop
         id="stop6079"
         offset="1"
         style="stop-color:#f29e34;stop-opacity:1" />
    </linearGradient>
  </defs>
  <sodipodi:namedview
     id="base"
     pagecolor="#ffffff"
     bordercolor="#666666"
     borderopacity="1.0"
     inkscape:pageopacity="0.0"
     inkscape:pageshadow="2"
     inkscape:zoom="6.3735392"
     inkscape:cx="16.261657"
     inkscape:cy="23.042013"
     inkscape:document-units="px"
     inkscape:current-layer="layer1"
     showgrid="false"
     inkscape:window-width="1366"
     inkscape:window-height="718"
     inkscape:window-x="0"
     inkscape:window-y="30"
     inkscape:window-maximized="1" />
  <metadata
     id="metadata7">
    <rdf:RDF>
      <cc:Work
         rdf:about="">
        <dc:format>image/svg+xml</dc:format>
        <dc:type
           rdf:resource="http://purl.org/dc/dcmitype/StillImage" />
        <dc:title />
      </cc:Work>
    </rdf:RDF>
  </metadata>
  <g
     inkscape:label="Capa 1"
     inkscape:groupmode="layer"
     id="layer1"
     transform="translate(0,-1004.3622)">
    <g
       id="layer1-5"
       inkscape:label="Capa 1"
       transform="translate(0,4.7900391e-5)">
      <rect
         ry="6.2786646"
         y="1006.1622"
         x="1.8000183"
         height="44.399963"
         width="44.399963"
         id="rect5263"
         style="fill:#000000;fill-opacity:0.01960784;stroke:none" />
      <rect
         style="fill:#000000;fill-opacity:0.03921569;stroke:none"
         id="rect5261"
         width="43.799973"
         height="43.799973"
         x="2.1000061"
         y="1006.4623"
         ry="6.1938181" />
      <rect
         ry="6.1089716"
         y="1006.7623"
         x="2.3999939"
         height="43.199982"
         width="43.199982"
         id="rect5259"
         style="fill:#000000;fill-opacity:0.07843137;stroke:none" />
      <rect
         style="fill:#000000;fill-opacity:0.15686275;stroke:none"
         id="rect5257"
         width="42.599991"
         height="42.599991"
         x="2.7000122"
         y="1007.0623"
         ry="6.0241251" />
      <rect
         ry="5.9392786"
         y="1007.3622"
         x="3"
         height="42"
         width="42"
         id="rect5237"
         style="fill:url(#linearGradient6778);fill-opacity:1;stroke:none" />
      <path
         id="rect5265"
         d="m 2.9999991,1040.9247 0,2.5 c 0,3.2904 2.64714,5.9375 5.9375,5.9375 l 30.1249999,0 c 3.29036,0 5.9375,-2.6471 5.9375,-5.9375 l 0,-2.5 c 0,3.2904 -2.64714,5.9375 -5.9375,5.9375 l -30.1249999,0 c -3.29036,0 -5.9375,-2.6471 -5.9375,-5.9375 z"
         style="fill:#000000;fill-opacity:0.11764706;stroke:none"
         inkscape:connector-curvature="0" />
      <path
         id="path5252"
         d="m 2.9999991,1042.9247 0,0.5 c 0,3.2904 2.64714,5.9375 5.9375,5.9375 l 30.1249999,0 c 3.29036,0 5.9375,-2.6471 5.9375,-5.9375 l 0,-0.5 c 0,3.2904 -2.64714,5.9375 -5.9375,5.9375 l -30.1249999,0 c -3.29036,0 -5.9375,-2.6471 -5.9375,-5.9375 z"
         style="fill:#000000;fill-opacity:0.09803922;stroke:none"
         inkscape:connector-curvature="0" />
      <path
         d="m 24.52,1021.7062 7.28,0.936 c 0,-5.2 -4.16,-6.24 -8.32,-7.28 l 0,19.76 c -0.62244,0 -1.61252,0 -3.20424,0 -3.05656,0 -4.07576,1.6171 -4.07576,3.0992 0,1.2531 0.93808,3.1408 4.16,3.1408 4.6072,0 4.16,-3.6973 4.16,-6.24 l 0,-13.416"
         style="fill:#000000;fill-opacity:0.49795257;fill-rule:nonzero;stroke:none;display:inline"
         id="path280"
         inkscape:connector-curvature="0" />
    </g>
  </g>
  <g
     inkscape:groupmode="layer"
     id="layer2"
     inkscape:label=" Capa 2" />
</svg>
