<?xml version="1.0" encoding="UTF-8" standalone="no"?>
<!-- Created with Inkscape (http://www.inkscape.org/) -->

<svg
   xmlns:dc="http://purl.org/dc/elements/1.1/"
   xmlns:cc="http://creativecommons.org/ns#"
   xmlns:rdf="http://www.w3.org/1999/02/22-rdf-syntax-ns#"
   xmlns:svg="http://www.w3.org/2000/svg"
   xmlns="http://www.w3.org/2000/svg"
   xmlns:xlink="http://www.w3.org/1999/xlink"
   xmlns:sodipodi="http://sodipodi.sourceforge.net/DTD/sodipodi-0.dtd"
   xmlns:inkscape="http://www.inkscape.org/namespaces/inkscape"
   width="48"
   height="48"
   id="svg2"
   version="1.1"
   inkscape:version="0.48+devel r12669"
   sodipodi:docname="gnash.svg"
   inkscape:export-filename="/home/uri/workspace/NitruxforAndroid/res/drawable-xhdpi/flash_settings.png"
   inkscape:export-xdpi="180"
   inkscape:export-ydpi="180">
  <defs
     id="defs4">
    <linearGradient
       inkscape:collect="always"
       id="linearGradient6125">
      <stop
         style="stop-color:#f81654;stop-opacity:1"
         offset="0"
         id="stop6127" />
      <stop
         style="stop-color:#fd668f;stop-opacity:1"
         offset="1"
         id="stop6129" />
    </linearGradient>
    <linearGradient
       gradientTransform="translate(-1.9570313e-6,3.9458203e-5)"
       inkscape:collect="always"
       xlink:href="#linearGradient6125"
       id="linearGradient6131"
       x1="28.399813"
       y1="1049.3252"
       x2="28.399813"
       y2="1007.3821"
       gradientUnits="userSpaceOnUse" />
  </defs>
  <sodipodi:namedview
     id="base"
     pagecolor="#ffffff"
     bordercolor="#666666"
     borderopacity="1.0"
     inkscape:pageopacity="0.0"
     inkscape:pageshadow="2"
     inkscape:zoom="4.5727112"
     inkscape:cx="27.837532"
     inkscape:cy="22.801569"
     inkscape:document-units="px"
     inkscape:current-layer="layer1"
     showgrid="false"
     inkscape:window-width="1366"
     inkscape:window-height="718"
     inkscape:window-x="0"
     inkscape:window-y="30"
     inkscape:window-maximized="1" />
  <metadata
     id="metadata7">
    <rdf:RDF>
      <cc:Work
         rdf:about="">
        <dc:format>image/svg+xml</dc:format>
        <dc:type
           rdf:resource="http://purl.org/dc/dcmitype/StillImage" />
        <dc:title></dc:title>
      </cc:Work>
    </rdf:RDF>
  </metadata>
  <g
     inkscape:label="Capa 1"
     inkscape:groupmode="layer"
     id="layer1"
     transform="translate(0,-1004.3622)">
    <rect
       style="fill:#000000;fill-opacity:0.01960784;stroke:none"
       id="rect5263"
       width="44.399963"
       height="44.399963"
       x="1.8000183"
       y="1006.1622"
       ry="6.2786646" />
    <rect
       ry="6.1938181"
       y="1006.4623"
       x="2.1000061"
       height="43.799973"
       width="43.799973"
       id="rect5261"
       style="fill:#000000;fill-opacity:0.03921569;stroke:none" />
    <rect
       style="fill:#000000;fill-opacity:0.07843137;stroke:none"
       id="rect5259"
       width="43.199982"
       height="43.199982"
       x="2.3999939"
       y="1006.7625"
       ry="6.1089716" />
    <rect
       ry="6.0241251"
       y="1007.0623"
       x="2.7000122"
       height="42.599991"
       width="42.599991"
       id="rect5257"
       style="fill:#000000;fill-opacity:0.15686275;stroke:none" />
    <rect
       style="fill:url(#linearGradient6131);fill-opacity:1;stroke:none"
       id="rect5237"
       width="42"
       height="42"
       x="3"
       y="1007.3622"
       ry="5.9392786" />
    <path
       inkscape:connector-curvature="0"
       style="fill:#000000;fill-opacity:0.11764706;stroke:none"
       d="m 2.999997,1040.9247 0,2.5 c 0,3.2904 2.64714,5.9375 5.9375,5.9375 l 30.125005,0 c 3.29036,0 5.9375,-2.6471 5.9375,-5.9375 l 0,-2.5 c 0,3.2904 -2.64714,5.9375 -5.9375,5.9375 l -30.125005,0 c -3.29036,0 -5.9375,-2.6471 -5.9375,-5.9375 z"
       id="rect5265" />
    <path
       inkscape:connector-curvature="0"
       style="fill:#000000;fill-opacity:0.09803922;stroke:none"
       d="m 2.999997,1042.9247 0,0.5 c 0,3.2904 2.64714,5.9375 5.9375,5.9375 l 30.125005,0 c 3.29036,0 5.9375,-2.6471 5.9375,-5.9375 l 0,-0.5 c 0,3.2904 -2.64714,5.9375 -5.9375,5.9375 l -30.125005,0 c -3.29036,0 -5.9375,-2.6471 -5.9375,-5.9375 z"
       id="path5252" />
    <path
       inkscape:connector-curvature="0"
       id="path4083-1"
       style="font-size:47.60432816px;font-style:normal;font-variant:normal;font-weight:normal;font-stretch:normal;text-align:start;line-height:125%;letter-spacing:0px;word-spacing:0px;writing-mode:lr-tb;text-anchor:start;fill:#000000;fill-opacity:0.49803922;stroke:none;font-family:Black Rose;-inkscape-font-specification:Black Rose"
       d="m 34.825966,1024.6852 q -2.210201,2.371 -7.554869,5.0634 -3.295209,11.6136 -9.684699,11.6136 -4.299845,0 -3.938176,-3.898 0.200928,-2.2504 2.973725,-4.2597 1.969088,-1.4065 6.268934,-3.3354 0.482226,-1.4466 0.763524,-2.6924 -3.214838,3.4157 -6.670789,3.3755 -2.370942,-0.041 -3.295209,-1.8887 -0.642967,-1.3663 -0.482225,-3.3354 0.361669,-4.2194 3.37558,-7.0726 3.01391,-2.8933 7.233384,-2.8933 1.928903,0 3.697064,0.5223 1.768161,0.4823 2.12983,1.1253 -0.562596,3.7774 -1.848531,10.6491 4.540958,-2.17 6.389489,-4.0185 l 0.642968,1.0448 z m -10.970635,-4.099 q 0.04019,-0.7233 -0.281297,-1.1251 -0.281298,-0.442 -1.044822,-0.4018 -1.607419,0.08 -3.054096,2.3307 -1.205564,1.9288 -1.285936,3.3756 -0.08037,1.4868 1.326121,1.4868 1.406492,0 2.853168,-2.1298 1.366306,-1.9691 1.486862,-3.5364 z m -2.170014,11.8548 q -3.536322,1.728 -3.616693,2.7728 -0.04018,0.5626 0.602782,0.5626 1.165379,0 3.013911,-3.3354 z" />
  </g>
</svg>
