<?xml version="1.0" encoding="UTF-8" standalone="no"?>
<!-- Created with Inkscape (http://www.inkscape.org/) -->

<svg
   xmlns:dc="http://purl.org/dc/elements/1.1/"
   xmlns:cc="http://creativecommons.org/ns#"
   xmlns:rdf="http://www.w3.org/1999/02/22-rdf-syntax-ns#"
   xmlns:svg="http://www.w3.org/2000/svg"
   xmlns="http://www.w3.org/2000/svg"
   xmlns:xlink="http://www.w3.org/1999/xlink"
   xmlns:sodipodi="http://sodipodi.sourceforge.net/DTD/sodipodi-0.dtd"
   xmlns:inkscape="http://www.inkscape.org/namespaces/inkscape"
   width="48"
   height="48"
   id="svg4230"
   version="1.1"
   inkscape:version="0.48+devel r12392"
   sodipodi:docname="gnome-display-properties.svg">
  <defs
     id="defs4232">
    <linearGradient
       inkscape:collect="always"
       xlink:href="#linearGradient4678"
       id="linearGradient4047"
       x1="26.056679"
       y1="1049.3649"
       x2="26.056679"
       y2="1007.3625"
       gradientUnits="userSpaceOnUse" />
    <linearGradient
       inkscape:collect="always"
       id="linearGradient4678">
      <stop
         style="stop-color:#0a7fe7;stop-opacity:1"
         offset="0"
         id="stop4680" />
      <stop
         style="stop-color:#50bffc;stop-opacity:1"
         offset="1"
         id="stop4682" />
    </linearGradient>
  </defs>
  <sodipodi:namedview
     id="base"
     pagecolor="#ffffff"
     bordercolor="#666666"
     borderopacity="1.0"
     inkscape:pageopacity="0.0"
     inkscape:pageshadow="2"
     inkscape:zoom="4.3203127"
     inkscape:cx="-30.382499"
     inkscape:cy="8.6552148"
     inkscape:document-units="px"
     inkscape:current-layer="layer1"
     showgrid="false"
     inkscape:showpageshadow="false"
     borderlayer="true"
     inkscape:window-width="1366"
     inkscape:window-height="715"
     inkscape:window-x="0"
     inkscape:window-y="30"
     inkscape:window-maximized="1" />
  <metadata
     id="metadata4235">
    <rdf:RDF>
      <cc:Work
         rdf:about="">
        <dc:format>image/svg+xml</dc:format>
        <dc:type
           rdf:resource="http://purl.org/dc/dcmitype/StillImage" />
        <dc:title></dc:title>
      </cc:Work>
    </rdf:RDF>
  </metadata>
  <g
     inkscape:label="Capa 1"
     inkscape:groupmode="layer"
     id="layer1"
     transform="translate(0,-1004.3622)">
    <rect
       style="fill:#000000;fill-opacity:0.01960784;stroke:none"
       id="rect5263"
       width="44.399963"
       height="44.399963"
       x="1.8000183"
       y="1006.1622"
       ry="6.2786646" />
    <rect
       ry="6.1938181"
       y="1006.4623"
       x="2.1000061"
       height="43.799973"
       width="43.799973"
       id="rect5261"
       style="fill:#000000;fill-opacity:0.03921569;stroke:none" />
    <rect
       style="fill:#000000;fill-opacity:0.07843137;stroke:none"
       id="rect5259"
       width="43.199982"
       height="43.199982"
       x="2.3999939"
       y="1006.7623"
       ry="6.1089716" />
    <rect
       ry="6.0241251"
       y="1007.0623"
       x="2.7000122"
       height="42.599991"
       width="42.599991"
       id="rect5257"
       style="fill:#000000;fill-opacity:0.15686275;stroke:none" />
    <rect
       style="fill:url(#linearGradient4047);fill-opacity:1.0;stroke:none"
       id="rect5237"
       width="42"
       height="42"
       x="3"
       y="1007.3622"
       ry="5.9392786" />
    <path
       inkscape:connector-curvature="0"
       style="fill:#000000;fill-opacity:0.11764706;stroke:none"
       d="m 2.9999991,1040.9247 0,2.5 c 0,3.2904 2.64714,5.9375 5.9375,5.9375 l 30.1249999,0 c 3.29036,0 5.9375,-2.6471 5.9375,-5.9375 l 0,-2.5 c 0,3.2904 -2.64714,5.9375 -5.9375,5.9375 l -30.1249999,0 C 5.6471391,1046.8622 2.9999991,1044.2151 2.9999991,1040.9247 Z"
       id="rect5265" />
    <path
       inkscape:connector-curvature="0"
       style="fill:#000000;fill-opacity:0.09803922;stroke:none"
       d="m 2.9999991,1042.9247 0,0.5 c 0,3.2904 2.64714,5.9375 5.9375,5.9375 l 30.1249999,0 c 3.29036,0 5.9375,-2.6471 5.9375,-5.9375 l 0,-0.5 c 0,3.2904 -2.64714,5.9375 -5.9375,5.9375 l -30.1249999,0 C 5.6471391,1048.8622 2.9999991,1046.2151 2.9999991,1042.9247 Z"
       id="path5252" />
    <g
       transform="matrix(0.36107049,0,0,-0.36107049,24.938366,1037.2761)"
       id="g312"
       style="fill:#000000;fill-opacity:0.49803922" />
    <g
       transform="matrix(0.36107049,0,0,-0.36107049,36.293746,1025.92)"
       id="g316"
       style="fill:#000000;fill-opacity:0.49803922" />
    <path
       inkscape:connector-curvature="0"
       id="path266"
       style="fill:#000000;fill-opacity:0.49723756;fill-rule:nonzero;stroke:none;display:inline"
       d="m 37.619047,1032.6955 -9.905381,0 -3.714285,-4.3333 -3.714286,4.3333 -9.904143,0 0,-16.0952 27.238095,0 L 37.619047,1032.6955 z m 1.238096,-17.3333 -29.7142861,0 0,18.5714 10.0818091,0 -6.367523,7.4286 22.285714,0 -6.367524,-7.4286 10.08181,0 0,-18.5714" />
  </g>
</svg>
