<?xml version="1.0" encoding="UTF-8" standalone="no"?>
<!-- Created with Inkscape (http://www.inkscape.org/) -->

<svg
   xmlns:dc="http://purl.org/dc/elements/1.1/"
   xmlns:cc="http://creativecommons.org/ns#"
   xmlns:rdf="http://www.w3.org/1999/02/22-rdf-syntax-ns#"
   xmlns:svg="http://www.w3.org/2000/svg"
   xmlns="http://www.w3.org/2000/svg"
   xmlns:xlink="http://www.w3.org/1999/xlink"
   xmlns:sodipodi="http://sodipodi.sourceforge.net/DTD/sodipodi-0.dtd"
   xmlns:inkscape="http://www.inkscape.org/namespaces/inkscape"
   width="48"
   height="48"
   id="svg2"
   version="1.1"
   inkscape:version="0.48+devel r12503"
   sodipodi:docname="wine-winecfg.svg">
  <defs
     id="defs4">
    <linearGradient
       gradientUnits="userSpaceOnUse"
       y2="1007.4396"
       x2="29.135878"
       y1="1049.4602"
       x1="29.135878"
       id="linearGradient7167"
       xlink:href="#linearGradient4708"
       inkscape:collect="always"
       gradientTransform="translate(4.7314452e-7,1.6767383e-4)" />
    <linearGradient
       id="linearGradient4708"
       inkscape:collect="always">
      <stop
         id="stop4710"
         offset="0"
         style="stop-color:#47b73d;stop-opacity:1" />
      <stop
         id="stop4712"
         offset="1"
         style="stop-color:#ade355;stop-opacity:1" />
    </linearGradient>
  </defs>
  <sodipodi:namedview
     id="base"
     pagecolor="#ffffff"
     bordercolor="#666666"
     borderopacity="1.0"
     inkscape:pageopacity="0.0"
     inkscape:pageshadow="2"
     inkscape:zoom="5.7859082"
     inkscape:cx="-14.704771"
     inkscape:cy="35.085538"
     inkscape:document-units="px"
     inkscape:current-layer="layer1"
     showgrid="false"
     inkscape:window-width="1366"
     inkscape:window-height="716"
     inkscape:window-x="0"
     inkscape:window-y="28"
     inkscape:window-maximized="1">
    <inkscape:grid
       type="xygrid"
       id="grid3850" />
  </sodipodi:namedview>
  <metadata
     id="metadata7">
    <rdf:RDF>
      <cc:Work
         rdf:about="">
        <dc:format>image/svg+xml</dc:format>
        <dc:type
           rdf:resource="http://purl.org/dc/dcmitype/StillImage" />
        <dc:title />
      </cc:Work>
    </rdf:RDF>
  </metadata>
  <g
     inkscape:label="Capa 1"
     inkscape:groupmode="layer"
     id="layer1"
     transform="translate(0,-1004.3622)">
    <rect
       style="fill:#000000;fill-opacity:0.01960784;stroke:none"
       id="rect5263"
       width="44.399963"
       height="44.399963"
       x="1.8000183"
       y="1006.1622"
       ry="6.2786646" />
    <rect
       ry="6.1938181"
       y="1006.4623"
       x="2.1000061"
       height="43.799973"
       width="43.799973"
       id="rect5261"
       style="fill:#000000;fill-opacity:0.03921569;stroke:none" />
    <rect
       style="fill:#000000;fill-opacity:0.07843137;stroke:none"
       id="rect5259"
       width="43.199982"
       height="43.199982"
       x="2.3999939"
       y="1006.7626"
       ry="6.1089716" />
    <rect
       ry="6.0241251"
       y="1007.0624"
       x="2.700016"
       height="42.599991"
       width="42.599991"
       id="rect5257"
       style="fill:#000000;fill-opacity:0.15686275;stroke:none" />
    <rect
       style="fill:url(#linearGradient7167);fill-opacity:1;stroke:none"
       id="rect5237"
       width="42"
       height="42"
       x="3.0000038"
       y="1007.3622"
       ry="5.9392786" />
    <path
       inkscape:connector-curvature="0"
       style="fill:#000000;fill-opacity:0.11764706;stroke:none"
       d="m 2.9999995,1040.9248 0,2.5 c 0,3.2904 2.64714,5.9375 5.9375,5.9375 l 30.1249995,0 c 3.29036,0 5.9375,-2.6471 5.9375,-5.9375 l 0,-2.5 c 0,3.2904 -2.64714,5.9375 -5.9375,5.9375 l -30.1249995,0 c -3.29036,0 -5.9375,-2.6471 -5.9375,-5.9375 z"
       id="rect5265" />
    <path
       inkscape:connector-curvature="0"
       style="fill:#000000;fill-opacity:0.09803922;stroke:none"
       d="m 2.9999995,1042.9248 0,0.5 c 0,3.2904 2.64714,5.9375 5.9375,5.9375 l 30.1249995,0 c 3.29036,0 5.9375,-2.6471 5.9375,-5.9375 l 0,-0.5 c 0,3.2904 -2.64714,5.9375 -5.9375,5.9375 l -30.1249995,0 c -3.29036,0 -5.9375,-2.6471 -5.9375,-5.9375 z"
       id="path5252" />
    <g
       transform="matrix(0.58039693,0,0,0.58039693,-63.033424,703.75227)"
       id="Settings"
       style="fill:#000000;fill-opacity:0.49803922">
      <g
         id="g1208"
         style="fill:#000000;fill-opacity:0.49803922">
        <path
           style="fill:#000000;fill-opacity:0.49803922"
           inkscape:connector-curvature="0"
           d="m 169.92,548.999 c -0.181,-0.441 -0.497,-0.633 -0.703,-0.426 -0.206,0.205 -0.575,0.451 -0.819,0.543 -0.244,0.094 -1.056,-0.443 -1.392,-0.779 l -0.001,0 c -0.336,-0.338 -0.688,-0.813 -0.78,-1.057 -0.092,-0.244 0.444,-1.055 0.78,-1.393 l 0.011,-0.01 c 0.337,-0.338 0.348,-0.898 0.023,-1.248 l -3.978,-3.666 c -0.374,-0.295 -0.851,-0.248 -1.059,0.104 -0.209,0.35 -0.555,0.76 -0.769,0.91 -0.214,0.148 -1.133,-0.17 -1.541,-0.414 -0.409,-0.242 -0.866,-0.617 -1.017,-0.83 -0.149,-0.215 0.132,-1.066 0.326,-1.393 0.194,-0.328 -0.013,-0.729 -0.461,-0.889 l -5.998,-1.547 c -0.47,-0.078 -0.854,0.205 -0.854,0.631 0,0.426 -0.088,0.969 -0.194,1.207 -0.107,0.238 -1.061,0.434 -1.536,0.434 -0.475,0 -1.06,-0.088 -1.298,-0.195 -0.238,-0.107 -0.433,-1.02 -0.433,-1.445 0,-0.425 -0.384,-0.709 -0.854,-0.631 l -5.998,1.547 c -0.448,0.16 -0.655,0.561 -0.461,0.889 0.195,0.326 0.379,0.807 0.408,1.066 0.03,0.258 -0.689,0.914 -1.099,1.156 -0.408,0.244 -0.955,0.467 -1.215,0.496 -0.26,0.029 -0.885,-0.643 -1.095,-0.992 -0.208,-0.352 -0.686,-0.398 -1.06,-0.104 l -3.978,3.666 c -0.324,0.35 -0.313,0.91 0.024,1.248 l 0.011,0.01 c 0.336,0.338 0.688,0.813 0.78,1.057 0.092,0.244 -0.444,1.055 -0.781,1.393 -0.336,0.336 -0.812,0.688 -1.056,0.779 -0.244,0.091 -0.949,-0.338 -1.155,-0.543 -0.206,-0.207 -0.522,-0.016 -0.703,0.426 0,0 -2.54,6.197 -2.54,10.189 0,12.428 10.073,22.5 22.5,22.5 12.427,0 22.5,-10.072 22.5,-22.5 0.005,-3.992 -2.535,-10.189 -2.535,-10.189 z m -19.96,21.541 c -6.213,0 -11.25,-5.037 -11.25,-11.25 0,-5.076 3.363,-9.363 7.981,-10.764 l 2.882,-5.764 c 0.213,-0.426 0.561,-0.426 0.773,0 l 2.882,5.764 c 4.619,1.4 7.981,5.688 7.981,10.764 0.001,6.213 -5.036,11.25 -11.249,11.25 z"
           id="path1210" />
        <path
           style="fill:#000000;fill-opacity:0.49803922"
           inkscape:connector-curvature="0"
           d="m 149.96,551.501 c -4.295,0 -7.788,3.494 -7.788,7.789 0,4.295 3.493,7.787 7.788,7.787 4.295,0 7.788,-3.492 7.788,-7.787 0,-4.295 -3.493,-7.789 -7.788,-7.789 z"
           id="path1212" />
      </g>
    </g>
  </g>
</svg>
