<?xml version="1.0" encoding="UTF-8" standalone="no"?>
<!-- Created with Inkscape (http://www.inkscape.org/) -->

<svg
   xmlns:dc="http://purl.org/dc/elements/1.1/"
   xmlns:cc="http://creativecommons.org/ns#"
   xmlns:rdf="http://www.w3.org/1999/02/22-rdf-syntax-ns#"
   xmlns:svg="http://www.w3.org/2000/svg"
   xmlns="http://www.w3.org/2000/svg"
   xmlns:xlink="http://www.w3.org/1999/xlink"
   xmlns:sodipodi="http://sodipodi.sourceforge.net/DTD/sodipodi-0.dtd"
   xmlns:inkscape="http://www.inkscape.org/namespaces/inkscape"
   width="48"
   height="48"
   id="svg2"
   version="1.1"
   inkscape:version="0.48+devel r12501"
   sodipodi:docname="xnoise.svg">
  <defs
     id="defs4">
    <filter
       x="-0.071800567"
       y="-0.15538733"
       width="1.1436011"
       height="1.3107746"
       color-interpolation-filters="sRGB"
       id="filter3985">
      <feGaussianBlur
         stdDeviation="6.7803529"
         id="feGaussianBlur3987" />
    </filter>
    <filter
       color-interpolation-filters="sRGB"
       id="filter3989">
      <feGaussianBlur
         stdDeviation="6.7803529"
         id="feGaussianBlur3991" />
    </filter>
    <filter
       x="-0.1490933"
       y="-0.072374105"
       width="1.2981865"
       height="1.1447482"
       color-interpolation-filters="sRGB"
       id="filter3993">
      <feGaussianBlur
         stdDeviation="6.7803529"
         id="feGaussianBlur3995" />
    </filter>
    <filter
       x="-0.081570871"
       y="-0.11038305"
       width="1.1631417"
       height="1.2207661"
       color-interpolation-filters="sRGB"
       id="filter3997">
      <feGaussianBlur
         stdDeviation="6.7803529"
         id="feGaussianBlur3999" />
    </filter>
    <filter
       x="-0.07492853"
       y="-0.12866202"
       width="1.149857"
       height="1.257324"
       color-interpolation-filters="sRGB"
       id="filter4001">
      <feGaussianBlur
         stdDeviation="6.7803529"
         id="feGaussianBlur4003" />
    </filter>
    <filter
       x="-0.12232576"
       y="-0.076450996"
       width="1.2446516"
       height="1.152902"
       color-interpolation-filters="sRGB"
       id="filter4005">
      <feGaussianBlur
         stdDeviation="6.7803529"
         id="feGaussianBlur4007" />
    </filter>
    <filter
       x="-0.11224329"
       y="-0.079873785"
       width="1.2244866"
       height="1.1597476"
       color-interpolation-filters="sRGB"
       id="filter4009">
      <feGaussianBlur
         stdDeviation="6.7803529"
         id="feGaussianBlur4011" />
    </filter>
    <filter
       x="-0.071800567"
       y="-0.15538733"
       width="1.1436011"
       height="1.3107746"
       color-interpolation-filters="sRGB"
       id="filter3985-9">
      <feGaussianBlur
         stdDeviation="6.7803529"
         id="feGaussianBlur3987-0" />
    </filter>
    <filter
       color-interpolation-filters="sRGB"
       id="filter3989-9">
      <feGaussianBlur
         stdDeviation="6.7803529"
         id="feGaussianBlur3991-1" />
    </filter>
    <filter
       x="-0.1490933"
       y="-0.072374105"
       width="1.2981865"
       height="1.1447482"
       color-interpolation-filters="sRGB"
       id="filter3993-8">
      <feGaussianBlur
         stdDeviation="6.7803529"
         id="feGaussianBlur3995-4" />
    </filter>
    <filter
       x="-0.081570871"
       y="-0.11038305"
       width="1.1631417"
       height="1.2207661"
       color-interpolation-filters="sRGB"
       id="filter3997-0">
      <feGaussianBlur
         stdDeviation="6.7803529"
         id="feGaussianBlur3999-7" />
    </filter>
    <filter
       x="-0.07492853"
       y="-0.12866202"
       width="1.149857"
       height="1.257324"
       color-interpolation-filters="sRGB"
       id="filter4001-9">
      <feGaussianBlur
         stdDeviation="6.7803529"
         id="feGaussianBlur4003-7" />
    </filter>
    <filter
       x="-0.12232576"
       y="-0.076450996"
       width="1.2446516"
       height="1.152902"
       color-interpolation-filters="sRGB"
       id="filter4005-7">
      <feGaussianBlur
         stdDeviation="6.7803529"
         id="feGaussianBlur4007-7" />
    </filter>
    <filter
       x="-0.11224329"
       y="-0.079873785"
       width="1.2244866"
       height="1.1597476"
       color-interpolation-filters="sRGB"
       id="filter4009-8">
      <feGaussianBlur
         stdDeviation="6.7803529"
         id="feGaussianBlur4011-6" />
    </filter>
    <linearGradient
       id="linearGradient6125"
       inkscape:collect="always">
      <stop
         id="stop6127"
         offset="0"
         style="stop-color:#f81654;stop-opacity:1" />
      <stop
         id="stop6129"
         offset="1"
         style="stop-color:#fd668f;stop-opacity:1" />
    </linearGradient>
    <linearGradient
       gradientUnits="userSpaceOnUse"
       y2="1007.3821"
       x2="28.399813"
       y1="1049.3252"
       x1="28.399813"
       id="linearGradient6131"
       xlink:href="#linearGradient6125"
       inkscape:collect="always"
       gradientTransform="translate(0,4.7900391e-5)" />
  </defs>
  <sodipodi:namedview
     id="base"
     pagecolor="#ffffff"
     bordercolor="#666666"
     borderopacity="1.0"
     inkscape:pageopacity="0.0"
     inkscape:pageshadow="2"
     inkscape:zoom="5.6568543"
     inkscape:cx="0.2007802"
     inkscape:cy="39.401109"
     inkscape:document-units="px"
     inkscape:current-layer="layer1"
     showgrid="false"
     inkscape:window-width="1366"
     inkscape:window-height="718"
     inkscape:window-x="0"
     inkscape:window-y="30"
     inkscape:window-maximized="1"
     showguides="true">
    <inkscape:grid
       type="xygrid"
       id="grid3850" />
  </sodipodi:namedview>
  <metadata
     id="metadata7">
    <rdf:RDF>
      <cc:Work
         rdf:about="">
        <dc:format>image/svg+xml</dc:format>
        <dc:type
           rdf:resource="http://purl.org/dc/dcmitype/StillImage" />
        <dc:title />
      </cc:Work>
    </rdf:RDF>
  </metadata>
  <g
     inkscape:label="Capa 1"
     inkscape:groupmode="layer"
     id="layer1"
     transform="translate(0,-1004.3622)">
    <path
       style="fill:#dbdbdb;fill-opacity:1;fill-rule:nonzero;stroke:none;stroke-width:25;marker-mid:none;display:none;filter:url(#filter3985);enable-background:new"
       id="path3095"
       transform="matrix(0.08878086,0,0,0.08881664,-181.39955,1008.8293)"
       inkscape:connector-curvature="0"
       d="m 324.38759,135.62452 c -45.38059,3.2742 -125.14974,80.45343 -113.93317,80.06244 92.77726,-3.23392 150.72813,2.10512 223.11793,24.5811 C 444.29098,243.59605 422.00588,143.15814 324.38759,135.62452 Z" />
    <path
       style="fill:#dbdbdb;fill-opacity:1;fill-rule:nonzero;stroke:#000000;stroke-width:0;stroke-linecap:butt;stroke-linejoin:round;stroke-miterlimit:4;stroke-opacity:1;stroke-dasharray:none;stroke-dashoffset:1;marker-mid:none;display:none;filter:url(#filter3989);enable-background:new"
       id="path3097"
       transform="matrix(0.08878086,0,0,0.08881664,-181.39955,1008.8293)"
       inkscape:connector-curvature="0"
       d="M 186.37822,72.150309 C 160.57833,109.62675 157.33905,256.29261 163.99898,247.2588 218.88951,172.80293 350.45207,80.852043 428.9148,43.825512 525.90264,-1.943011 243.81268,3.6410539 186.37822,72.150309 Z" />
    <path
       style="fill:#dbdbdb;fill-opacity:1;fill-rule:nonzero;stroke:none;stroke-width:25;marker-mid:none;display:none;filter:url(#filter3993);enable-background:new"
       id="path3099"
       transform="matrix(0.08878086,0,0,0.08881664,-181.39955,1008.8293)"
       inkscape:connector-curvature="0"
       d="M 69.5521,231.67976 C 84.41923,274.68075 179.56014,331.84683 176.28962,321.11052 149.23774,232.30583 139.45061,174.93843 142.49683,99.2009 142.94789,87.986573 51.65499,135.42084 69.5521,231.67976 Z" />
    <path
       style="fill:#dbdbdb;fill-opacity:1;fill-rule:nonzero;stroke:none;stroke-width:25;marker-mid:none;display:none;filter:url(#filter3997);enable-background:new"
       id="path3101"
       transform="matrix(0.08878086,0,0,0.08881664,-181.39955,1008.8293)"
       inkscape:connector-curvature="0"
       d="m 81.97729,372.8505 c 42.13653,17.1648 147.83895,-16.69886 137.60948,-21.31646 -84.61255,-38.1942 -134.204,-68.649 -189.1504,-120.86343 C 22.30057,222.93932 -2.20627,322.85836 81.97729,372.8505 Z" />
    <path
       style="fill:#dbdbdb;fill-opacity:1;fill-rule:nonzero;stroke:none;stroke-width:25;marker-mid:none;display:none;filter:url(#filter4001);enable-background:new"
       id="path3103"
       transform="matrix(0.08878086,0,0,0.08881664,-181.39955,1008.8293)"
       inkscape:connector-curvature="0"
       d="M 203.88504,453.62703 C 244.17168,432.48219 286.43063,329.84726 276.30588,334.69014 192.55947,374.74786 137.30727,393.02355 61.96881,401.3645 50.8136,402.59953 111.39638,485.75077 203.88504,453.62703 Z" />
    <path
       style="fill:#dbdbdb;fill-opacity:1;fill-rule:nonzero;stroke:none;stroke-width:25;marker-mid:none;display:none;filter:url(#filter4005);enable-background:new"
       id="path3105"
       transform="matrix(0.08878086,0,0,0.08881664,-181.39955,1008.8293)"
       inkscape:connector-curvature="0"
       d="M 345.96158,410.03296 C 355.80284,365.6115 304.66105,267.10125 301.82779,277.96113 278.39266,367.78804 256.70286,421.79138 214.46246,484.72945 208.208,494.04859 310.82416,501.41921 345.96158,410.03296 Z" />
    <path
       style="fill:#dbdbdb;fill-opacity:1;fill-rule:nonzero;stroke:none;stroke-width:25;marker-mid:none;display:none;filter:url(#filter4009);enable-background:new"
       id="path3107"
       transform="matrix(0.08878086,0,0,0.08881664,-181.39955,1008.8293)"
       inkscape:connector-curvature="0"
       d="M 401.89383,270.24178 C 374.5208,233.89852 266.4087,208.76833 272.82303,217.97814 325.87887,294.15661 352.83718,345.73234 373.23475,418.73503 376.25499,429.54441 448.53158,356.32899 401.89383,270.24178 Z" />
    <path
       style="fill:#dbdbdb;fill-opacity:1;fill-rule:nonzero;stroke:none;stroke-width:25;marker-mid:none;display:none;filter:url(#filter3985-9);enable-background:new"
       id="path3095-7"
       transform="matrix(0.08878086,0,0,0.08881664,-420.52455,986.07932)"
       inkscape:connector-curvature="0"
       d="m 324.38759,135.62452 c -45.38059,3.2742 -125.14974,80.45343 -113.93317,80.06244 92.77726,-3.23392 150.72813,2.10512 223.11793,24.5811 C 444.29098,243.59605 422.00588,143.15814 324.38759,135.62452 Z" />
    <path
       style="fill:#dbdbdb;fill-opacity:1;fill-rule:nonzero;stroke:#000000;stroke-width:0;stroke-linecap:butt;stroke-linejoin:round;stroke-miterlimit:4;stroke-opacity:1;stroke-dasharray:none;stroke-dashoffset:1;marker-mid:none;display:none;filter:url(#filter3989-9);enable-background:new"
       id="path3097-4"
       transform="matrix(0.08878086,0,0,0.08881664,-420.52455,986.07932)"
       inkscape:connector-curvature="0"
       d="M 186.37822,72.150309 C 160.57833,109.62675 157.33905,256.29261 163.99898,247.2588 218.88951,172.80293 350.45207,80.852043 428.9148,43.825512 525.90264,-1.943011 243.81268,3.6410539 186.37822,72.150309 Z" />
    <path
       style="fill:#dbdbdb;fill-opacity:1;fill-rule:nonzero;stroke:none;stroke-width:25;marker-mid:none;display:none;filter:url(#filter3993-8);enable-background:new"
       id="path3099-9"
       transform="matrix(0.08878086,0,0,0.08881664,-420.52455,986.07932)"
       inkscape:connector-curvature="0"
       d="M 69.5521,231.67976 C 84.41923,274.68075 179.56014,331.84683 176.28962,321.11052 149.23774,232.30583 139.45061,174.93843 142.49683,99.2009 142.94789,87.986573 51.65499,135.42084 69.5521,231.67976 Z" />
    <path
       style="fill:#dbdbdb;fill-opacity:1;fill-rule:nonzero;stroke:none;stroke-width:25;marker-mid:none;display:none;filter:url(#filter3997-0);enable-background:new"
       id="path3101-4"
       transform="matrix(0.08878086,0,0,0.08881664,-420.52455,986.07932)"
       inkscape:connector-curvature="0"
       d="m 81.97729,372.8505 c 42.13653,17.1648 147.83895,-16.69886 137.60948,-21.31646 -84.61255,-38.1942 -134.204,-68.649 -189.1504,-120.86343 C 22.30057,222.93932 -2.20627,322.85836 81.97729,372.8505 Z" />
    <path
       style="fill:#dbdbdb;fill-opacity:1;fill-rule:nonzero;stroke:none;stroke-width:25;marker-mid:none;display:none;filter:url(#filter4001-9);enable-background:new"
       id="path3103-3"
       transform="matrix(0.08878086,0,0,0.08881664,-420.52455,986.07932)"
       inkscape:connector-curvature="0"
       d="M 203.88504,453.62703 C 244.17168,432.48219 286.43063,329.84726 276.30588,334.69014 192.55947,374.74786 137.30727,393.02355 61.96881,401.3645 50.8136,402.59953 111.39638,485.75077 203.88504,453.62703 Z" />
    <path
       style="fill:#dbdbdb;fill-opacity:1;fill-rule:nonzero;stroke:none;stroke-width:25;marker-mid:none;display:none;filter:url(#filter4005-7);enable-background:new"
       id="path3105-1"
       transform="matrix(0.08878086,0,0,0.08881664,-420.52455,986.07932)"
       inkscape:connector-curvature="0"
       d="M 345.96158,410.03296 C 355.80284,365.6115 304.66105,267.10125 301.82779,277.96113 278.39266,367.78804 256.70286,421.79138 214.46246,484.72945 208.208,494.04859 310.82416,501.41921 345.96158,410.03296 Z" />
    <path
       style="fill:#dbdbdb;fill-opacity:1;fill-rule:nonzero;stroke:none;stroke-width:25;marker-mid:none;display:none;filter:url(#filter4009-8);enable-background:new"
       id="path3107-0"
       transform="matrix(0.08878086,0,0,0.08881664,-420.52455,986.07932)"
       inkscape:connector-curvature="0"
       d="M 401.89383,270.24178 C 374.5208,233.89852 266.4087,208.76833 272.82303,217.97814 325.87887,294.15661 352.83718,345.73234 373.23475,418.73503 376.25499,429.54441 448.53158,356.32899 401.89383,270.24178 Z" />
    <rect
       style="fill:#000000;fill-opacity:0.01960784;stroke:none"
       id="rect5263"
       width="44.399963"
       height="44.399963"
       x="1.8000183"
       y="1006.1622"
       ry="6.2786646" />
    <rect
       ry="6.1938181"
       y="1006.4623"
       x="2.1000061"
       height="43.799973"
       width="43.799973"
       id="rect5261"
       style="fill:#000000;fill-opacity:0.03921569;stroke:none" />
    <rect
       style="fill:#000000;fill-opacity:0.07843137;stroke:none"
       id="rect5259"
       width="43.199982"
       height="43.199982"
       x="2.3999939"
       y="1006.7624"
       ry="6.1089716" />
    <rect
       ry="6.0241251"
       y="1007.0624"
       x="2.7000122"
       height="42.599991"
       width="42.599991"
       id="rect5257"
       style="fill:#000000;fill-opacity:0.15686275;stroke:none" />
    <rect
       style="fill:url(#linearGradient6131);fill-opacity:1;stroke:none"
       id="rect5237"
       width="42"
       height="42"
       x="3"
       y="1007.3622"
       ry="5.9392786" />
    <path
       inkscape:connector-curvature="0"
       style="fill:#000000;fill-opacity:0.11764706;stroke:none"
       d="m 2.9999991,1040.9247 0,2.5 c 0,3.2904 2.64714,5.9375 5.9375,5.9375 l 30.1249999,0 c 3.29036,0 5.9375,-2.6471 5.9375,-5.9375 l 0,-2.5 c 0,3.2904 -2.64714,5.9375 -5.9375,5.9375 l -30.1249999,0 c -3.29036,0 -5.9375,-2.6471 -5.9375,-5.9375 z"
       id="rect5265" />
    <path
       inkscape:connector-curvature="0"
       style="fill:#000000;fill-opacity:0.09803922;stroke:none"
       d="m 2.9999991,1042.9247 0,0.5 c 0,3.2904 2.64714,5.9375 5.9375,5.9375 l 30.1249999,0 c 3.29036,0 5.9375,-2.6471 5.9375,-5.9375 l 0,-0.5 c 0,3.2904 -2.64714,5.9375 -5.9375,5.9375 l -30.1249999,0 c -3.29036,0 -5.9375,-2.6471 -5.9375,-5.9375 z"
       id="path5252" />
    <path
       sodipodi:nodetypes="csscscscssscsssccssscscscc"
       inkscape:connector-curvature="0"
       id="path861-9"
       d="m 16.278614,1040.0779 c 1.460387,-0.9729 2.116664,-1.7631 5.020874,-6.0476 2.40927,-3.5545 3.276511,-3.3694 6.263655,1.3328 2.547177,4.0101 4.01595,5.2258 7.002278,5.7966 2.909523,0.5563 4.630373,-0.1648 5.091779,-2.134 0.582024,-2.4832 -0.943318,-4.2738 -3.651576,-4.286 -1.73438,-0.012 -1.907721,-0.1591 -4.077434,-3.5443 l -1.848911,-2.8847 1.2577,-2.0054 c 2.390031,-3.8108 3.266014,-4.614 5.032227,-4.614 1.826716,0 3.155498,-1.0923 3.51104,-2.8861 0.175712,-0.8864 0.01508,-1.3379 -0.808865,-2.2745 -0.919819,-1.0457 -1.257629,-1.1685 -3.207431,-1.1685 -3.612341,0 -5.384023,1.3368 -8.90863,6.7205 -2.576926,3.9364 -3.69001,3.8062 -6.506029,-0.761 -2.69466,-4.3705 -4.405683,-5.6512 -7.846355,-5.873 -2.310807,-0.1485 -2.7497533,-0.062 -3.5899036,0.6921 -0.6994484,0.6291 -0.9571885,1.2144 -0.9571885,2.173 0,2.06 0.9488342,3.046 3.2770341,3.4051 2.290443,0.3532 2.784811,0.7739 4.935171,4.1986 l 1.554057,2.475 -1.935352,2.9744 c -1.941637,2.9835 -2.128096,3.12 -4.835223,3.535 -1.6497524,0.2527 -2.9956871,1.5957 -2.9956871,2.9889 0,1.2483 0.8509348,2.7135 1.8646033,3.2112 1.2687018,0.6229 4.7194308,0.067 6.3581668,-1.0241 z"
       style="fill:#000000;fill-opacity:0.49803922" />
  </g>
</svg>
