<?xml version="1.0" encoding="UTF-8" standalone="no"?>
<!-- Created with Inkscape (http://www.inkscape.org/) -->

<svg
   xmlns:dc="http://purl.org/dc/elements/1.1/"
   xmlns:cc="http://creativecommons.org/ns#"
   xmlns:rdf="http://www.w3.org/1999/02/22-rdf-syntax-ns#"
   xmlns:svg="http://www.w3.org/2000/svg"
   xmlns="http://www.w3.org/2000/svg"
   xmlns:xlink="http://www.w3.org/1999/xlink"
   xmlns:sodipodi="http://sodipodi.sourceforge.net/DTD/sodipodi-0.dtd"
   xmlns:inkscape="http://www.inkscape.org/namespaces/inkscape"
   width="48"
   height="48"
   id="svg4230"
   version="1.1"
   inkscape:version="0.48+devel r12392"
   sodipodi:docname="dassault-systems.draftsight.svg">
  <defs
     id="defs4232">
    <linearGradient
       id="linearGradient7161"
       inkscape:collect="always">
      <stop
         id="stop7163"
         offset="0"
         style="stop-color:#dedede;stop-opacity:1" />
      <stop
         id="stop7165"
         offset="1"
         style="stop-color:#f0f0f0;stop-opacity:1" />
    </linearGradient>
    <linearGradient
       gradientUnits="userSpaceOnUse"
       y2="1007.4396"
       x2="29.135878"
       y1="1049.4602"
       x1="29.135878"
       id="linearGradient7167"
       xlink:href="#linearGradient7161"
       inkscape:collect="always"
       gradientTransform="translate(0,4.7900391e-5)" />
  </defs>
  <sodipodi:namedview
     id="base"
     pagecolor="#ffffff"
     bordercolor="#666666"
     borderopacity="1.0"
     inkscape:pageopacity="0.0"
     inkscape:pageshadow="2"
     inkscape:zoom="3.4313873"
     inkscape:cx="0.49988575"
     inkscape:cy="15.125045"
     inkscape:document-units="px"
     inkscape:current-layer="layer1"
     showgrid="false"
     inkscape:showpageshadow="false"
     borderlayer="true"
     inkscape:window-width="1366"
     inkscape:window-height="715"
     inkscape:window-x="0"
     inkscape:window-y="30"
     inkscape:window-maximized="1" />
  <metadata
     id="metadata4235">
    <rdf:RDF>
      <cc:Work
         rdf:about="">
        <dc:format>image/svg+xml</dc:format>
        <dc:type
           rdf:resource="http://purl.org/dc/dcmitype/StillImage" />
        <dc:title></dc:title>
      </cc:Work>
    </rdf:RDF>
  </metadata>
  <g
     inkscape:label="Capa 1"
     inkscape:groupmode="layer"
     id="layer1"
     transform="translate(0,-1004.3622)">
    <rect
       style="fill:#000000;fill-opacity:0.01960784;stroke:none"
       id="rect5263"
       width="44.399963"
       height="44.399963"
       x="1.8000183"
       y="1006.1622"
       ry="6.2786646" />
    <rect
       ry="6.1938181"
       y="1006.4623"
       x="2.1000061"
       height="43.799973"
       width="43.799973"
       id="rect5261"
       style="fill:#000000;fill-opacity:0.03921569;stroke:none" />
    <rect
       style="fill:#000000;fill-opacity:0.07843137;stroke:none"
       id="rect5259"
       width="43.199982"
       height="43.199982"
       x="2.3999939"
       y="1006.7624"
       ry="6.1089716" />
    <rect
       ry="6.0241251"
       y="1007.0624"
       x="2.7000122"
       height="42.599991"
       width="42.599991"
       id="rect5257"
       style="fill:#000000;fill-opacity:0.15686275;stroke:none" />
    <rect
       style="fill:url(#linearGradient7167);fill-opacity:1;stroke:none"
       id="rect5237"
       width="42"
       height="42"
       x="3"
       y="1007.3622"
       ry="5.9392786" />
    <path
       inkscape:connector-curvature="0"
       style="fill:#000000;fill-opacity:0.11764706;stroke:none"
       d="m 2.9999991,1040.9247 0,2.5 c 0,3.2904 2.64714,5.9375 5.9375,5.9375 l 30.1249999,0 c 3.29036,0 5.9375,-2.6471 5.9375,-5.9375 l 0,-2.5 c 0,3.2904 -2.64714,5.9375 -5.9375,5.9375 l -30.1249999,0 C 5.6471391,1046.8622 2.9999991,1044.2151 2.9999991,1040.9247 Z"
       id="rect5265" />
    <path
       inkscape:connector-curvature="0"
       style="fill:#000000;fill-opacity:0.09803922;stroke:none"
       d="m 2.9999991,1042.9247 0,0.5 c 0,3.2904 2.64714,5.9375 5.9375,5.9375 l 30.1249999,0 c 3.29036,0 5.9375,-2.6471 5.9375,-5.9375 l 0,-0.5 c 0,3.2904 -2.64714,5.9375 -5.9375,5.9375 l -30.1249999,0 C 5.6471391,1048.8622 2.9999991,1046.2151 2.9999991,1042.9247 Z"
       id="path5252" />
    <path
       style="fill:#000000;fill-opacity:0.49812592"
       d="m 24.676601,1015.362 c -0.643054,-10e-5 -1.32528,0.047 -2.329737,0.1435 l -1.613921,0.1536 -2.337154,1.5468 c -1.28542,0.8505 -2.524177,1.6716 -2.752799,1.8243 -0.346613,0.2317 -0.663107,0.6307 -1.904741,2.4019 l -1.489056,2.124 -0.564973,2.4594 -0.564965,2.4593 0.415936,2.3763 0.415928,2.376 1.279846,1.957 1.279844,1.9572 1.344188,0.9311 c 0.739287,0.5121 2.013721,1.3578 2.832033,1.8795 l 1.487837,0.9484 1.567113,0.2271 -4.8e-5,10e-5 c 0.861903,0.1248 1.750405,0.2303 1.974487,0.2343 0.224021,0.01 1.082934,-0.099 1.908697,-0.2302 l 1.501373,-0.2384 1.818274,-0.797 1.818243,-0.7969 1.376402,-1.6868 c 0.757025,-0.9279 1.808931,-2.2905 2.337569,-3.0279 l 0.96119,-1.3414 0.722299,-2.2985 c 0.456244,-1.4519 0.721477,-2.4294 0.720275,-2.6539 -8.13e-4,-0.1958 -0.09775,-1.3558 -0.214916,-2.5784 l -0.212924,-2.2225 -1.214422,-2.1361 -1.214422,-2.1361 -1.993329,-1.4243 c -1.879642,-1.3432 -2.048122,-1.4448 -2.954249,-1.7797 -0.836374,-0.3092 -1.135163,-0.3752 -2.305109,-0.5077 C 25.923555,1015.4101 25.319655,1015.3621 24.676601,1015.362 z m -0.139742,0.4921 c 0.194538,-0.073 0.292728,0.081 0.433314,0.5448 0.09348,0.3093 0.179101,0.646 0.191223,0.7482 l 0,3e-4 c 0.01218,0.1023 -0.01536,0.1931 -0.06013,0.2015 -0.149752,0.029 -1.249108,-0.079 -1.296363,-0.1267 -0.097,-0.098 0.297294,-1.0612 0.500176,-1.2213 C 24.396466,1015.9285 24.47202,1015.8787 24.536859,1015.8541 z m 0.700019,0.024 c 0.03477,-0.034 2.664552,1.067 2.749109,1.152 0.0824,0.084 -0.09969,0.1214 -0.936401,0.1994 l 0,3e-4 c -0.489093,0.045 -0.986865,0.099 -1.106172,0.1191 -0.119284,0.019 -0.253371,-0.01 -0.297953,-0.062 C 25.541923,1017.1601 25.185024,1015.9302 25.236878,1015.8781 z m -1.973577,0.1449 c 0.151402,0.014 -0.0048,0.1306 -0.658792,0.4892 l 0,3e-4 c -0.471617,0.2589 -0.945955,0.4685 -1.05406,0.4659 -0.251663,-0.01 -0.931297,-0.2808 -0.925236,-0.3744 C 20.630778,1016.5163 22.987824,1015.9973 23.263301,1016.0231 z m 3.966783,0.1182 c 0.243718,0.016 0.753538,0.1383 0.932768,0.2446 0.115757,0.069 0.253574,0.1944 0.306265,0.2793 l 0,10e-5 c 0.05272,0.085 0.06801,0.1531 0.03404,0.1514 -0.134892,-0.01 -1.405971,-0.5942 -1.405971,-0.6509 C 27.097183,1016.1427 27.14885,1016.136 27.230084,1016.1412 z m -3.681366,0.3594 c 0.02535,0.025 -0.0033,0.1905 -0.06378,0.3666 l 0,4e-4 c -0.09226,0.269 -0.147656,0.3217 -0.346541,0.3299 -0.340113,0.015 -0.684785,-0.05 -0.684785,-0.1293 C 22.45366,1016.9784 23.489723,1016.4414 23.548718,1016.5007 z m 5.451223,0.017 c 0.06702,-0.068 0.296807,0.037 0.296807,0.1359 l 0,3e-4 c 0,0.046 -0.05282,0.085 -0.117456,0.085 C 29.049617,1016.7373 28.928587,1016.5887 28.999941,1016.5171 z m 0.849779,0.2613 c 0.04648,-0.01 0.08983,-0.01 0.122436,0.012 0.260554,0.1538 2.263339,1.6099 2.303062,1.6744 l 0,10e-5 c 0.07913,0.1287 -0.142724,0.071 -1.142305,-0.3014 -0.735094,-0.2732 -1.050224,-0.4365 -1.283095,-0.6651 -0.169772,-0.1665 -0.30867,-0.3601 -0.30867,-0.4302 C 29.541148,1016.9471 29.710141,1016.8079 29.84972,1016.7784 z m -9.933326,0.032 c 0.120616,0.022 0.289219,0.081 0.550868,0.1817 1.070676,0.4131 1.041474,0.4781 -0.277583,0.6179 l 0,2e-4 c -0.937059,0.099 -1.809312,0.1386 -1.809312,0.082 0,-0.033 1.022607,-0.7214 1.272224,-0.8549 C 19.722848,1016.798 19.795697,1016.7864 19.916394,1016.8096 z m 8.375744,0.6395 c 0.449589,-0.045 0.760217,0.032 0.760217,0.1916 l 0,2e-4 c 0,0.044 -0.137483,0.072 -0.305501,0.065 C 27.753254,1017.6611 27.519635,1017.5292 28.292138,1017.4492 z m -4.386863,0.2204 c 0.441093,-0.011 1.278749,0.072 1.370709,0.1624 0.07872,0.078 0.354819,2.3325 0.354819,2.8978 l 0,10e-5 c 0,0.1644 -0.03787,0.1812 -0.386963,0.1708 -0.72159,-0.02 -2.015995,-0.162 -2.081053,-0.2265 -0.06305,-0.062 0.376896,-2.7995 0.475882,-2.9604 C 23.655268,1017.6867 23.758245,1017.6728 23.905275,1017.6694 z m -0.975188,0.021 c 0.156106,0 0.245693,0.011 0.261503,0.036 0.04088,0.067 -0.353991,2.6243 -0.448607,2.9057 -0.01683,0.049 -0.440969,0.1315 -0.958777,0.1842 l 0,0 c -0.510779,0.052 -1.109829,0.088 -1.331235,0.08 -0.788193,-0.03 -1.218258,-0.078 -1.287548,-0.1468 -0.03917,-0.039 0.438832,-0.7015 1.080335,-1.4974 l 1.150665,-1.4277 0.873083,-0.089 C 22.551363,1017.7077 22.773988,1017.6926 22.930087,1017.6911 z m 2.799915,0.1472 c 0.02299,-0.022 0.879436,0.021 1.903286,0.1 l 1.861565,0.142 0.345117,0.3722 c 0.278551,0.3004 0.410005,0.559 0.681585,1.3408 0.184998,0.5328 0.313406,0.9918 0.285423,1.0199 -0.02795,0.029 -0.626772,0.115 -1.330489,0.1929 l 0,1e-4 c -1.24754,0.1382 -1.640766,0.1602 -1.890513,0.1054 -0.06719,-0.015 -0.441506,-0.05 -0.831759,-0.08 -0.561983,-0.042 -0.717935,-0.082 -0.749557,-0.1889 C 25.935337,1020.6072 25.686273,1017.8821 25.730002,1017.8382 z m -5.08888,0.072 c 0.07208,0.01 0.09932,0.032 0.0981,0.072 -0.0024,0.058 -0.469423,0.6746 -1.03867,1.3692 l 0,2e-4 c -0.569264,0.6946 -1.071674,1.2716 -1.116483,1.2821 -0.10236,0.024 -1.676046,-0.6819 -1.809475,-0.812 -0.07677,-0.074 0.0024,-0.2596 0.356501,-0.8328 0.250356,-0.4052 0.467246,-0.7504 0.482033,-0.7672 0.01471,-0.018 0.514201,-0.08 1.109887,-0.1395 0.595669,-0.059 1.293828,-0.131 1.551464,-0.1576 C 20.452312,1017.9055 20.569102,1017.8997 20.641122,1017.9086 z m 9.867164,0.4591 c 0.08043,-0.031 0.330753,0.06 1.35462,0.431 0.627292,0.227 1.241333,0.4489 1.364556,0.4933 0.123241,0.046 0.224024,0.1186 0.224024,0.1648 0,0.046 -0.229134,0.2989 -0.509155,0.5613 l 0,2e-4 c -0.280045,0.2624 -0.552192,0.4788 -0.604794,0.4806 -0.142212,0.01 -1.917748,-1.9507 -1.875466,-2.0662 C 30.473511,1018.4015 30.481457,1018.3778 30.508286,1018.3677 z m -13.773553,0.4541 c 0.01983,0.02 -0.06158,0.2038 -0.180871,0.4083 l 0,2e-4 c -0.119405,0.2047 -0.263429,0.3721 -0.320191,0.3719 -0.128285,0 -0.433957,-0.2183 -0.378585,-0.2704 C 15.986841,1019.2078 16.704573,1018.7916 16.734733,1018.822 z m -1.302327,0.9087 c 0.13893,-0.057 0.586521,0.1736 0.5841,0.3036 -7.56e-4,0.056 -0.196626,0.4133 -0.435274,0.796 -0.396785,0.6361 -0.506465,0.7462 -1.281722,1.2859 l 0,10e-5 c -0.466286,0.3248 -0.878899,0.5918 -0.916893,0.5934 -0.08654,0 0.02819,-0.176 1.087421,-1.7015 C 14.940501,1020.3302 15.373646,1019.7554 15.432406,1019.7307 z m 18.45953,0.035 c 0.02593,0.019 0.04786,0.053 0.07702,0.099 0.354811,0.5663 1.763617,3.0995 1.763617,3.1711 l -4.8e-5,5e-4 c 0,0.1238 -0.01098,0.1204 -1.384879,-0.4319 l -1.262717,-0.5072 -0.219286,-0.4501 c -0.339975,-0.6979 -0.31738,-0.7824 0.378894,-1.4159 C 33.699909,1019.8178 33.814097,1019.7141 33.891936,1019.7668 z m -2.965878,0.012 c 0,-0.082 0.1697,0.038 0.448055,0.3144 0.24644,0.2445 0.448078,0.4877 0.448078,0.5404 l 0,2e-4 c 0,0.131 -0.472876,0.1913 -0.570725,0.072 C 31.149115,1020.5827 30.926058,1019.9467 30.926058,1019.7788 z m -14.421588,0.3963 c 0.113442,0 1.737674,0.7292 1.829738,0.8215 0.137484,0.1378 -0.01618,0.1797 -1.070454,0.2917 l 0,10e-5 c -1.106718,0.1178 -1.571737,0.1398 -1.571737,0.073 C 15.692017,1021.2595 16.433726,1020.1753 16.50447,1020.1753 z m 15.341081,0.9163 c 0.375993,-0.024 0.392365,-0.016 0.508423,0.2633 0.06582,0.1587 0.119893,0.3265 0.119893,0.3729 l 0,10e-5 c 0,0.1266 -0.157301,0.096 -0.637668,-0.1231 -0.319614,-0.1459 -0.426824,-0.2362 -0.406601,-0.3432 C 31.45048,1021.1514 31.550409,1021.1104 31.845551,1021.0915 z m -0.987385,0.1151 c 0.05232,-0.01 0.110272,0.037 0.128984,0.094 l 0,10e-5 c 0.04062,0.1225 -0.289031,0.1369 -0.468375,0.02 -0.09981,-0.065 -0.08848,-0.083 0.0611,-0.093 C 30.680642,1021.2209 30.805841,1021.2114 30.858166,1021.2065 z m -10.316438,0.1074 c 0.917405,-0.02 1.900996,0.054 2.03024,0.1781 0.107599,0.1036 -0.179294,3.3602 -0.306639,3.4814 -0.05323,0.05 -1.141564,0.2092 -2.418526,0.3523 l -4.8e-5,3e-4 c -1.27697,0.1432 -2.459241,0.2815 -2.627218,0.307 -0.216207,0.033 -0.305484,0.017 -0.305484,-0.058 0,-0.113 1.617902,-3.9283 1.711064,-4.0351 0.03152,-0.036 0.506497,-0.1154 1.055375,-0.1761 C 19.937487,1021.3371 20.235935,1021.3205 20.541728,1021.314 z m 7.673596,0.2076 c 0.351293,0.01 0.75756,0.034 1.366564,0.089 0.806497,0.072 1.493143,0.1581 1.525732,0.1895 0.03274,0.032 0.08423,0.9434 0.114417,2.0268 l -4.9e-5,5e-4 c 0.03226,1.1539 0.02463,1.9859 -0.01852,2.0087 -0.04054,0.02 -1.191819,-0.073 -2.558399,-0.2126 l -2.484696,-0.2515 -0.06866,-1.7494 c -0.05597,-1.426 -0.04843,-1.7681 0.04062,-1.8511 0.06013,-0.057 0.530953,-0.1449 1.046218,-0.1977 C 27.567727,1021.5346 27.864038,1021.5162 28.215324,1021.5216 z m -4.779342,0.01 c 0.699509,0.01 2.066835,0.1203 2.197112,0.2012 0.05713,0.035 0.09275,0.6634 0.1037,1.8067 l -4.9e-5,4e-4 0.01633,1.7522 -0.244401,0.011 c -0.353544,0.017 -2.707526,-0.247 -2.768943,-0.3096 -0.06183,-0.063 0.212128,-3.3085 0.289909,-3.435 C 23.043861,1021.5339 23.20282,1021.5266 23.435982,1021.5301 z m -5.772218,0.058 c 0.248724,-0.016 0.422348,-0.017 0.445098,0.01 0.03127,0.033 -0.310791,0.9129 -0.760194,1.9589 l -4.9e-5,3e-4 c -0.465693,1.0839 -0.866224,1.9091 -0.931298,1.9187 -0.171462,0.026 -1.539894,-0.6993 -1.539968,-0.8162 -9.7e-5,-0.1916 0.508562,-2.6613 0.568045,-2.7579 C 15.495862,1021.8155 16.917652,1021.6341 17.663764,1021.5871 z m 13.888262,0.3644 c 0.06467,-0.039 1.104353,0.3436 1.203811,0.4436 0.135388,0.1361 1.337615,3.1425 1.279821,3.2006 -0.03672,0.036 -0.502645,0.1216 -1.035233,0.1879 l -4.9e-5,4e-4 c -1.179501,0.1471 -1.337394,0.149 -1.378084,0.018 C 31.554456,1025.585 31.489033,1021.99 31.552026,1021.9515 z m -16.675494,0.2853 c 0.04129,-0.01 0.06281,0 0.06753,0.019 0.02153,0.103 -0.204206,1.3776 -0.367038,2.0727 l -5e-5,5e-4 c -0.02372,0.1012 -0.06671,0.1828 -0.09531,0.1807 -0.142285,-0.01 -1.644765,-0.8443 -1.624054,-0.9043 0.01317,-0.038 0.482196,-0.3853 1.04227,-0.7716 C 14.452179,1022.453 14.752813,1022.2679 14.876532,1022.2371 z m 18.511172,0.4259 c 0.05817,-0.035 0.30646,0.065 1.362388,0.4847 0.602178,0.2396 1.107993,0.475 1.124104,0.5236 0.01608,0.048 -0.267963,0.4325 -0.631215,0.8536 l -5.1e-5,5e-4 c -0.694159,0.8048 -0.766928,0.8673 -0.850932,0.7301 -0.126165,-0.2051 -1.021925,-2.4127 -1.021925,-2.5184 C 33.370073,1022.7015 33.368327,1022.6746 33.387704,1022.6627 z m -20.812469,1.381 c 0.103952,-0.04 1.503737,0.6442 1.741573,0.8513 0.116359,0.1014 0.119771,0.1727 0.02884,0.6109 -0.05662,0.2728 -0.134298,0.524 -0.172584,0.5582 -0.03818,0.033 -0.590664,0.4544 -1.227576,0.9334 l -4.9e-5,5e-4 c -0.636896,0.479 -1.200244,0.8711 -1.251813,0.8706 -0.05769,0 -0.07499,-0.072 -0.0455,-0.184 0.02657,-0.1013 0.223202,-0.9532 0.436963,-1.8929 C 12.304517,1024.8268 12.517937,1024.0662 12.575235,1024.044 z m 23.565844,0.1162 c 0.03308,0.036 0.121714,0.748 0.196707,1.5807 0.07499,0.8328 0.157618,1.6893 0.183423,1.903 l -5e-5,4e-4 c 0.0598,0.4942 0.0048,0.4955 -1.033022,0.023 -0.751947,-0.3415 -0.775453,-0.3605 -0.830337,-0.6688 -0.03103,-0.1743 -0.05867,-0.5082 -0.0611,-0.7414 -0.0048,-0.4192 0.0048,-0.4353 0.739676,-1.2944 C 35.745838,1024.4849 36.108002,1024.1235 36.141079,1024.1599 z m -21.344415,1.0628 c 0.03332,-0.037 0.289649,0.048 0.569531,0.1906 0.279899,0.142 0.476874,0.2877 0.437744,0.3238 l -4.9e-5,3e-4 c -0.09299,0.086 -1.04218,0.1874 -1.110316,0.1185 C 14.631694,1025.794 14.708711,1025.321 14.796664,1025.223 z m 7.331759,0.1905 c 0.153701,0 0.168732,0.041 0.146437,0.3888 l -4.8e-5,4e-4 c -0.02348,0.3687 -0.03746,0.3894 -0.269085,0.4004 -0.134412,0.01 -0.849267,-0.056 -1.58858,-0.1378 -0.739287,-0.083 -1.397365,-0.1529 -1.4623,-0.1553 -0.0728,0 -0.08849,-0.033 -0.04078,-0.078 C 18.983065,1025.7669 21.699674,1025.4132 22.128423,1025.4132 z m 0.614512,0.029 c 0.133551,-0.051 2.86186,0.1917 2.98107,0.2658 0.03835,0.023 0.06972,0.2252 0.06972,0.4476 l -4.8e-5,5e-4 6.5e-5,0.4035 -0.4277,-0.01 c -0.494628,-0.012 -2.49669,-0.2196 -2.647636,-0.2749 C 22.5636,1026.2177 22.584619,1025.5024 22.742935,1025.4414 z m 3.49016,0.3323 c 0.106624,-0.042 2.474467,0.1572 3.185894,0.267 0.513493,0.079 0.181399,0.1606 -1.429135,0.3503 l -4.8e-5,2e-4 c -1.562629,0.1842 -1.735188,0.1949 -1.815837,0.1136 C 26.069668,1026.3998 26.116671,1025.8186 26.233095,1025.7737 z m 7.957971,0.2715 c 0.03315,0.034 0.07256,0.2655 0.088,0.5121 l -5e-5,3e-4 c 0.02177,0.3504 0.0017,0.4523 -0.09421,0.4664 -0.175142,0.027 -1.811554,-0.7245 -1.734391,-0.7962 C 32.547853,1026.1372 34.122255,1025.9721 34.191066,1026.0452 z m -17.435248,0.068 c 0.05549,-0.057 0.951106,0.01 2.745014,0.1883 1.464494,0.149 2.690381,0.2882 2.724181,0.3091 0.08606,0.054 -0.01957,2.9184 -0.11137,3.0187 l -4.8e-5,4e-4 c -0.04112,0.045 -1.414899,0.2501 -3.052717,0.4554 -2.54717,0.3199 -2.984588,0.3567 -3.023718,0.2542 C 15.976482,1030.1797 16.649932,1026.219 16.755818,1026.1125 z m -0.482163,0.019 c 0.09093,0.094 -0.641926,4.2936 -0.762583,4.3706 l -4.8e-5,2e-4 c -0.135631,0.086 -0.36838,0.087 -0.421152,8e-4 -0.09433,-0.1534 -0.483122,-4.113 -0.41068,-4.1829 C 14.780722,1026.2217 16.199156,1026.0535 16.273655,1026.1306 z m 14.871616,0.2903 c 0.05737,0.093 -0.709793,3.9099 -0.813379,4.0468 l -4.9e-5,2e-4 c -0.04257,0.057 -0.118795,0.098 -0.169236,0.093 -0.05053,-0.01 -0.971696,-0.1137 -2.047042,-0.241 -1.075339,-0.1272 -1.988413,-0.2334 -2.029127,-0.2358 -0.103212,-0.01 0.01098,-2.9615 0.11843,-3.0701 C 26.318578,1026.8988 31.087373,1026.3268 31.145271,1026.4207 z m 0.483618,4e-4 c 0.08533,-0.032 2.514101,0.9908 2.664227,1.1229 0.03722,0.032 0.117578,0.7731 0.178459,1.645 0.08569,1.226 0.08885,1.6066 0.01372,1.6791 -0.0533,0.051 -0.538974,0.1528 -1.079174,0.225 l -5.8e-5,3e-4 c -0.540191,0.072 -1.108407,0.1296 -1.262635,0.1271 -0.319607,-0.01 -1.3788,-0.5191 -1.38366,-0.6723 C 30.750208,1030.2542 31.550994,1026.4514 31.628889,1026.4213 z m -17.410783,0.138 c 0.04892,0 0.0891,0.055 0.0891,0.1212 0,0.067 0.07547,0.7869 0.167725,1.6008 l -4.9e-5,5e-4 c 0.09226,0.8139 0.156399,1.588 0.142546,1.7197 l -0.02511,0.2403 -1.45121,-0.8638 c -0.798178,-0.4752 -1.439713,-0.8957 -1.425657,-0.9345 C 11.7539,1028.3371 14.115381,1026.5593 14.218106,1026.5593 z m 8.42069,0.114 c 0.06028,-0.059 2.952901,0.2204 3.079522,0.299 0.06948,0.044 0.07572,0.4384 0.02364,1.521 l -7.3e-5,4e-4 -0.06996,1.4624 -0.366601,0.011 c -0.201623,0.01 -0.898148,-0.049 -1.547841,-0.1227 l -1.18124,-0.1339 0.0072,-1.4947 C 22.587796,1027.3937 22.612626,1026.6996 22.638796,1026.6732 z m 12.125474,1.1626 c 0.07581,-0.086 1.533866,0.5181 1.592878,0.6607 0.02177,0.053 -0.279338,0.5223 -0.669079,1.0436 l -5e-5,4e-4 c -0.648611,0.8675 -0.750191,0.9883 -0.780196,0.927 C 34.850272,1030.3509 34.71617,1027.8909 34.76427,1027.8359 z m -23.143555,1.1369 c 0.06922,-0.044 2.642233,1.4568 2.872154,1.6742 0.137435,0.13 0.08605,0.1869 -0.988572,1.0941 l -4.8e-5,3e-4 c -0.623473,0.5264 -1.170645,0.957 -1.2159,0.9568 -0.04526,0 -0.140604,-0.3223 -0.211715,-0.7162 C 11.695222,1029.8698 11.564498,1029.0077 11.620715,1028.9726 z m 24.482397,0.7156 c 0.02535,-0.01 0.03671,0 0.03671,0.037 0,0.036 -0.207879,0.7382 -0.461932,1.5599 l -4.9e-5,2e-4 c -0.484811,1.5681 -0.498868,1.5898 -0.902502,1.394 -0.225242,-0.1091 -0.228541,-0.2621 -0.0208,-0.9628 0.118673,-0.4002 0.304875,-0.738 0.689684,-1.2505 C 35.827827,1029.9559 36.027329,1029.7178 36.103112,1029.6883 z m -13.523214,0.4186 c 0.130529,-0.05 2.598406,0.1784 2.91126,0.2698 0.128254,0.037 0.142798,0.1327 0.1222,0.834 l -4.8e-5,2e-4 -0.02316,0.7909 -0.407324,0.012 c -0.421526,0.012 -2.530457,-0.2324 -2.592125,-0.3006 -0.01909,-0.02 -0.06062,-0.3794 -0.09201,-0.7959 C 22.448054,1030.2479 22.45747,1030.1543 22.579898,1030.107 z m -0.49609,3e-4 c 0.09921,0.038 0.125491,0.1924 0.125491,0.7366 l -7.2e-5,3e-4 c 0,0.4544 -0.03452,0.7146 -0.100775,0.7659 -0.09823,0.074 -6.060689,-0.5745 -6.156394,-0.6706 -0.02388,-0.023 -0.02292,-0.061 0.0017,-0.086 C 16.0291,1030.777 21.951761,1030.0564 22.083808,1030.1073 z m 3.939043,0.3672 c 0.06281,-0.06 4.068004,0.375 4.143713,0.451 0.05566,0.057 -0.124541,0.5278 -0.225453,0.5904 -0.03722,0.023 -0.866461,0.1512 -1.842731,0.2845 l -4.8e-5,2e-4 c -1.885404,0.2575 -2.138408,0.279 -2.147192,0.1813 C 25.92375,1031.6801 25.979123,1030.517 26.022851,1030.4745 z m 4.684953,0.5943 c 0.07605,0 0.171528,0.043 0.299659,0.1324 l 0.199096,0.1402 -0.201339,0.057 -3.2e-5,3e-4 c -0.452377,0.1266 -0.61326,0.065 -0.480668,-0.184 C 30.575074,1031.119 30.631746,1031.0708 30.707804,1031.0688 z m -15.901097,0.1152 c 0.04793,0 0.265696,0.4263 0.483861,0.9474 0.391625,0.9352 0.492498,1.4187 0.578152,2.7706 l -4.9e-5,2e-4 c 0.01267,0.1992 -0.01519,0.375 -0.06182,0.3903 -0.113921,0.038 -3.287513,-2.0379 -3.289935,-2.1523 C 12.51454,1033.0337 14.679631,1031.1839 14.806707,1031.1839 z m 0.628892,0.034 c 0.01731,0 0.0377,0.01 0.05997,0.027 l -5.6e-5,2e-4 c 0.02641,0.027 0.03202,0.1155 0.01267,0.1968 -0.03388,0.1438 -0.03811,0.1439 -0.09872,0 C 15.361556,1031.3355 15.383876,1031.2277 15.435599,1031.2185 z m 18.976248,0.1253 c 0.02398,0.024 -0.0048,0.2466 -0.06411,0.4944 l -4.8e-5,3e-4 c -0.07547,0.3159 -0.146323,0.4494 -0.237089,0.4462 -0.217596,-0.01 -1.41745,-0.6584 -1.341367,-0.7285 C 32.856523,1031.4762 34.351161,1031.2828 34.411847,1031.3438 z m -18.494068,0.032 c 0.06589,-0.066 6.054677,0.6137 6.199374,0.7034 0.1356,0.084 0.126166,2.0049 -0.0097,2.0527 -0.05597,0.019 -1.18327,0.1842 -2.505049,0.3657 l -6.5e-5,3e-4 c -1.321778,0.1814 -2.48442,0.33 -2.584,0.3297 -0.20883,-10e-5 -0.224251,-0.025 -0.661873,-1.0826 -0.246245,-0.595 -0.350741,-0.9874 -0.413621,-1.5532 C 15.896702,1031.7741 15.885303,1031.4069 15.917779,1031.3743 z m 15.945176,0.2585 1.079425,0.5298 c 0.822187,0.4037 1.079402,0.5671 1.079402,0.6858 0,0.1668 -0.412103,1.6343 -0.615805,2.1929 -0.194276,0.5324 -0.336465,0.6115 -1.400144,0.7781 l -4.9e-5,3e-4 c -0.526631,0.083 -1.049176,0.15 -1.16113,0.1498 -0.199949,0 -1.783077,-0.8403 -1.884843,-1.0005 -0.05882,-0.093 1.185636,-3.0094 1.319236,-3.0923 0.04769,-0.03 0.423549,-0.097 0.835284,-0.1488 L 31.862955,1031.6328 z m -2.389147,0.3422 c 0.236308,-0.016 0.230312,0.016 0.230312,0.077 0,0.049 -0.261601,0.6944 -0.581345,1.4323 l -4.9e-5,3e-4 -0.581305,1.3414 -0.335124,-0.01 c -0.539908,-0.016 -2.394168,-0.2719 -2.461898,-0.3399 -0.0947,-0.095 0.11332,-1.879 0.231498,-1.9868 0.05663,-0.051 0.872855,-0.1924 1.813781,-0.3132 C 28.758887,1032.0523 29.237508,1031.9904 29.473808,1031.975 z m -6.943618,0.1499 0.267272,0 c 0.392528,0.01 2.660587,0.2868 2.710141,0.3364 0.02323,0.023 -0.0041,0.4629 -0.06004,0.9768 l -4.9e-5,3e-4 -0.102237,0.9338 -0.407187,0.012 c -0.223932,0.01 -0.847066,-0.048 -1.384739,-0.1227 l -0.977586,-0.1352 -0.02275,-1.0027 L 22.53019,1032.1251 z m 12.002071,0.8605 c 0.149206,0.021 0.385637,0.1422 0.385637,0.2237 0,0.042 -0.170366,0.2935 -0.378603,0.5599 l -4.8e-5,10e-5 c -0.208228,0.2664 -0.391529,0.4843 -0.407275,0.4841 -0.103586,0 0.154627,-1.1066 0.292167,-1.2522 C 34.442494,1032.9818 34.482526,1032.9781 34.532261,1032.9857 z m -21.583658,1.0196 c 0.01592,0 0.05347,0.017 0.09884,0.033 0.288943,0.1114 2.561512,1.6476 2.562121,1.7322 5.61e-4,0.046 -0.174371,0.2584 -0.388741,0.4706 l -4.9e-5,2e-4 c -0.214363,0.2122 -0.429838,0.3857 -0.478775,0.3854 -0.118309,0 -0.141156,-0.032 -0.980829,-1.3095 C 13.047833,1034.2307 12.900878,1034.0153 12.948603,1034.0049 z m 9.757614,0.4925 c 0.407577,0 2.411824,0.2866 2.486574,0.3607 0.09847,0.098 -0.03517,1.6299 -0.159648,1.83 l -3.3e-5,2e-4 c -0.03503,0.057 -0.08898,0.098 -0.119892,0.092 -0.03088,-0.01 -0.503906,-0.071 -1.05098,-0.1431 -0.547074,-0.072 -1.031642,-0.1704 -1.076834,-0.2161 -0.04518,-0.045 -0.10699,-0.497 -0.137703,-1.0026 C 22.601796,1034.6583 22.611967,1034.4982 22.706217,1034.4976 z m -6.502901,0.027 c 0.01618,-0.019 0.04615,0.019 0.102367,0.092 0.06582,0.087 0.119527,0.2439 0.119527,0.3479 l -4.8e-5,10e-5 c 0,0.1851 -0.08204,0.2431 -0.189996,0.1343 -0.02983,-0.031 -0.05297,-0.1866 -0.05176,-0.3479 C 16.184686,1034.6133 16.187131,1034.5424 16.203316,1034.5247 z m 5.806019,0.035 c 0.310659,0.026 0.278891,0.175 0.280109,0.4787 7.15e-4,0.1847 0.02487,0.5622 0.05371,0.8388 l -4.8e-5,3e-4 0.05232,0.5028 -0.357842,-0.01 c -0.196804,-0.01 -1.26709,-0.1296 -2.378388,-0.2776 -1.591945,-0.2121 -2.055826,-0.3013 -2.186753,-0.4203 -0.176589,-0.1606 -0.346199,-0.4344 -0.298709,-0.482 0.01567,-0.016 1.14116,-0.1827 2.501062,-0.3708 C 21.04561,1034.6325 21.698683,1034.535 22.009335,1034.5607 z m 3.898206,0.3474 c 0.439458,0 2.191912,0.2374 2.260487,0.3063 0.03568,0.035 -0.14621,0.3406 -0.404066,0.6771 l -0.468805,0.612 -0.648864,0.096 -4.9e-5,2e-4 c -0.356867,0.053 -0.77303,0.099 -0.924757,0.1024 l -0.275975,0.01 0.05672,-0.7163 C 25.584498,1034.9531 25.601358,1034.9081 25.907541,1034.9081 z m 2.79838,0.4092 c 0.10127,0 1.2426,0.6733 1.2426,0.733 0,0.036 -0.284116,0.1079 -0.631363,0.1581 l -4.9e-5,2e-4 c -1.428574,0.2068 -1.435789,0.2072 -1.362013,0.083 C 28.092612,1036.0614 28.665824,1035.3173 28.705921,1035.3173 z m -11.997756,0.084 c 0.06524,-0.011 0.124434,0 0.124434,0.032 0,0.02 0.02227,0.093 0.0494,0.1638 l -4.8e-5,10e-5 c 0.03517,0.092 8.12e-4,0.1295 -0.117342,0.1293 -0.186526,0 -0.293752,-0.1211 -0.217174,-0.2456 C 16.571648,1035.4417 16.642921,1035.4122 16.708165,1035.4012 z m -0.01348,0.6526 c 0.589925,0 0.693275,0.075 1.649736,1.2048 0.512657,0.6052 0.932095,1.1258 0.932095,1.157 0,0.032 -0.11271,0.1938 -0.250332,0.3615 l -4.9e-5,3e-4 c -0.19392,0.2364 -0.308637,0.3049 -0.509106,0.3038 -0.510633,0 -0.633638,-0.1392 -1.28732,-1.4312 C 16.453437,1036.1157 16.432767,1036.0539 16.694717,1036.0539 z m -0.680398,0.038 c 0.08446,0.053 1.062656,2.0619 1.062656,2.1831 l -4.9e-5,2e-4 c 0,0.1229 -0.104317,0.069 -0.976685,-0.5121 -1.229146,-0.8172 -1.187334,-0.7334 -0.633517,-1.2692 C 15.723631,1036.2461 15.970096,1036.0652 16.014312,1036.0927 z m 16.512944,0.071 c 0.02535,0.025 -0.03397,0.1588 -0.13143,0.2964 l -4.9e-5,3e-4 c -0.09761,0.1376 -0.239029,0.2496 -0.314349,0.2486 -0.161306,-8e-4 -0.666535,-0.3119 -0.666535,-0.4094 C 31.4149,1036.2202 32.458324,1036.0928 32.527265,1036.1621 z m -14.459735,0.097 c 0.05128,-0.051 4.168299,0.4879 4.287144,0.5617 0.125027,0.077 0.136077,1.0339 0.01218,1.0339 -0.04786,0 -0.570199,0.072 -1.160879,0.1628 l -4.9e-5,10e-5 c -0.590705,0.089 -1.174342,0.1807 -1.297103,0.2021 -0.197015,0.034 -0.29558,-0.045 -0.845392,-0.6741 C 18.308306,1036.6792 18.019909,1036.3067 18.067529,1036.2591 z m 12.520179,0.1068 0.510585,0.2737 c 0.280817,0.1508 0.524112,0.3172 0.540598,0.3702 0.01657,0.054 -0.795732,0.5924 -1.818916,1.2073 l -4.1e-5,2e-4 c -1.016903,0.611 -1.871395,1.1102 -1.898834,1.109 -0.100538,0 -1.35553,-0.8177 -1.426038,-0.9249 -0.05087,-0.077 0.08288,-0.3218 0.448055,-0.8178 0.605338,-0.8221 0.506415,-0.7787 2.367793,-1.0391 L 30.587708,1036.3658 z m -7.384149,0.5156 c 0.146534,0.013 0.343655,0.039 0.6088,0.073 1.279049,0.1663 1.187358,0.1241 1.122909,0.5154 -0.03103,0.1886 -0.09019,0.4075 -0.131397,0.4862 l -5e-5,2e-4 c -0.04112,0.079 -0.101025,0.1389 -0.133096,0.1335 -0.03202,-0.01 -0.419503,-0.058 -0.861031,-0.1199 -0.441555,-0.06 -0.85399,-0.1529 -0.916495,-0.205 -0.06873,-0.058 -0.113686,-0.2523 -0.113686,-0.494 C 22.779562,1036.9247 22.763947,1036.8427 23.20355,1036.8815 z m 3.573052,0.087 c 0.162134,0.025 0.154236,0.051 -0.132576,0.4356 -0.167741,0.2251 -0.397883,0.5106 -0.511399,0.6344 l -4.8e-5,10e-5 c -0.113562,0.1239 -0.227038,0.2196 -0.25221,0.2127 -0.02518,-0.01 -0.155836,-0.029 -0.290249,-0.047 -0.403376,-0.058 -0.445585,-0.1385 -0.322807,-0.6061 0.05987,-0.228 0.121916,-0.4276 0.137776,-0.4436 C 25.461396,1037.0974 26.606708,1036.9429 26.776602,1036.969 z m 4.539789,0.8414 c 0.07232,0.072 -0.735216,1.1198 -0.917087,1.1893 l -4.9e-5,10e-5 c -0.290948,0.1112 -1.402329,0.1989 -1.306129,0.1029 C 29.238069,1038.9581 31.278465,1037.7722 31.316392,1037.8101 z m -8.190598,0.3985 c 0.100783,0.024 0.444706,0.071 0.764215,0.1004 0.781693,0.075 0.81004,0.098 0.717001,0.5826 -0.06695,0.3483 -0.123069,0.427 -0.472105,0.6612 l -4.8e-5,3e-4 c -0.420267,0.2822 -0.479994,0.2967 -0.756879,0.1843 -0.134851,-0.055 -0.20566,-0.2041 -0.305492,-0.6452 C 22.89003,1038.2863 22.898049,1038.1535 23.125802,1038.2089 z m -0.871116,0.026 c 0.144138,0 0.21359,0.015 0.249032,0.054 0.08897,0.097 0.275844,0.9219 0.275844,1.2176 l -4.9e-5,2e-4 c 0,0.162 -0.165896,0.1816 -0.617241,0.072 -0.32379,-0.078 -1.826667,-0.8932 -1.826667,-0.9911 0,-0.092 0.13468,-0.1218 1.221979,-0.2768 C 21.891733,1038.2628 22.11054,1038.2378 22.254678,1038.2343 z m 3.019078,0.2752 c 0.234302,0 0.253315,0.1261 0.03664,0.2426 l -4.9e-5,3e-4 c -0.236657,0.1272 -0.320719,0.103 -0.27331,-0.08 C 25.064563,1038.5672 25.148112,1038.5095 25.273757,1038.5095 z m 0.842282,0.1469 0.572059,0.3546 c 0.314624,0.1951 0.572058,0.3801 0.572058,0.4112 0,0.067 -0.176752,0.1052 -1.241462,0.2724 l -5.1e-5,10e-5 c -0.993251,0.156 -1.202494,0.1573 -1.202445,0.01 0,-0.1603 0.135127,-0.2834 0.761362,-0.6933 L 26.116046,1038.6564 z m -6.439908,0.1 c 0.132843,9e-4 0.985312,0.4618 0.985312,0.5329 l -3.2e-5,2e-4 c 0,0.098 -1.228048,-0.02 -1.338143,-0.1286 C 19.227084,1039.0659 19.4985,1038.7546 19.676129,1038.7558 z m 9.254066,0.8935 -0.366601,0.1971 -4.9e-5,3e-4 c -0.664496,0.3573 -0.875797,0.3635 -0.624611,0.019 0.07507,-0.1032 0.244596,-0.1595 0.549885,-0.1825 L 28.930196,1039.6493 z m -1.63503,0.2645 c 0.107835,0.022 0.08557,0.085 -0.120137,0.335 l -4.9e-5,2e-4 c -0.269386,0.3274 -0.244011,0.3221 -1.218184,0.2516 -0.73985,-0.054 -1.096553,-0.122 -0.974322,-0.1877 C 25.15063,1040.2225 27.135281,1039.8799 27.295165,1039.9137 z m -7.540679,0.085 c 0.177678,-0.01 0.622457,0.076 1.423991,0.2459 0.21719,0.046 0.363774,0.1122 0.325862,0.1472 l -4.8e-5,2e-4 c -0.03794,0.034 -0.325586,0.085 -0.639164,0.1122 -0.545489,0.045 -0.585976,0.037 -0.931997,-0.2102 C 19.666265,1040.102 19.576833,1040.0046 19.754495,1039.9977 z m 2.891597,0.6521 c 0.34247,-0.024 0.622264,0.072 0.622264,0.2498 l -5e-5,2e-4 c 0,0.1002 -0.384938,0.072 -0.977537,-0.071 l -0.20367,-0.049 0.20367,-0.061 C 22.410816,1040.6792 22.531935,1040.6578 22.646085,1040.6496 z m 1.168573,0.02 c 0.01471,0.01 0.02398,0.022 0.02398,0.045 l -4.9e-5,3e-4 c 0,0.047 -0.03664,0.086 -0.08144,0.086 -0.04492,0 -0.08156,-0.017 -0.08156,-0.035 0,-0.02 0.03664,-0.059 0.08156,-0.086 C 23.779493,1040.6647 23.799879,1040.6617 23.814658,1040.6683 z m 0.783554,0.07 c 0.125351,-0.02 0.270116,-0.014 0.367413,0.028 0.112466,0.048 0.100782,0.07 -0.06793,0.1207 l -4.9e-5,3e-4 c -0.329973,0.101 -0.587553,0.09 -0.55038,-0.023 C 24.366898,1040.8026 24.472858,1040.7572 24.59821,1040.7377 Z"
       id="path2919-5"
       inkscape:connector-curvature="0" />
  </g>
</svg>
