<?xml version="1.0" encoding="UTF-8" standalone="no"?>
<!-- Created with Inkscape (http://www.inkscape.org/) -->

<svg
   xmlns:dc="http://purl.org/dc/elements/1.1/"
   xmlns:cc="http://creativecommons.org/ns#"
   xmlns:rdf="http://www.w3.org/1999/02/22-rdf-syntax-ns#"
   xmlns:svg="http://www.w3.org/2000/svg"
   xmlns="http://www.w3.org/2000/svg"
   xmlns:xlink="http://www.w3.org/1999/xlink"
   xmlns:sodipodi="http://sodipodi.sourceforge.net/DTD/sodipodi-0.dtd"
   xmlns:inkscape="http://www.inkscape.org/namespaces/inkscape"
   width="48"
   height="48"
   id="svg2"
   version="1.1"
   inkscape:version="0.48+devel r12503"
   sodipodi:docname="ccsm.svg">
  <defs
     id="defs4">
    <linearGradient
       id="linearGradient4708"
       inkscape:collect="always">
      <stop
         id="stop4710"
         offset="0"
         style="stop-color:#47b73d;stop-opacity:1" />
      <stop
         id="stop4712"
         offset="1"
         style="stop-color:#ade355;stop-opacity:1" />
    </linearGradient>
    <linearGradient
       gradientUnits="userSpaceOnUse"
       y2="1007.4026"
       x2="27.568569"
       y1="1049.1152"
       x1="27.568569"
       id="linearGradient7156"
       xlink:href="#linearGradient4708"
       inkscape:collect="always"
       gradientTransform="translate(0,5.4819922e-5)" />
  </defs>
  <sodipodi:namedview
     id="base"
     pagecolor="#ffffff"
     bordercolor="#666666"
     borderopacity="1.0"
     inkscape:pageopacity="0.0"
     inkscape:pageshadow="2"
     inkscape:zoom="3.1698186"
     inkscape:cx="39.125153"
     inkscape:cy="34.061154"
     inkscape:document-units="px"
     inkscape:current-layer="layer1"
     showgrid="false"
     inkscape:window-width="1366"
     inkscape:window-height="715"
     inkscape:window-x="0"
     inkscape:window-y="30"
     inkscape:window-maximized="1">
    <inkscape:grid
       type="xygrid"
       id="grid3850" />
  </sodipodi:namedview>
  <metadata
     id="metadata7">
    <rdf:RDF>
      <cc:Work
         rdf:about="">
        <dc:format>image/svg+xml</dc:format>
        <dc:type
           rdf:resource="http://purl.org/dc/dcmitype/StillImage" />
        <dc:title />
      </cc:Work>
    </rdf:RDF>
  </metadata>
  <g
     inkscape:label="Capa 1"
     inkscape:groupmode="layer"
     id="layer1"
     transform="translate(0,-1004.3622)">
    <rect
       style="fill:#000000;fill-opacity:0.01960784;stroke:none"
       id="rect5263-7"
       width="44.399963"
       height="44.399963"
       x="1.8000183"
       y="1006.1622"
       ry="6.2786646" />
    <rect
       ry="6.1938181"
       y="1006.4623"
       x="2.1000061"
       height="43.799973"
       width="43.799973"
       id="rect5261-4"
       style="fill:#000000;fill-opacity:0.03921569;stroke:none" />
    <rect
       style="fill:#000000;fill-opacity:0.07843137;stroke:none"
       id="rect5259-5"
       width="43.199982"
       height="43.199982"
       x="2.3999939"
       y="1006.7625"
       ry="6.1089716" />
    <rect
       ry="6.0241251"
       y="1007.0623"
       x="2.700012"
       height="42.599991"
       width="42.599991"
       id="rect5257-2"
       style="fill:#000000;fill-opacity:0.15686275;stroke:none" />
    <rect
       style="fill:url(#linearGradient7156);fill-opacity:1;stroke:none"
       id="rect5237-6"
       width="42"
       height="42"
       x="2.9999998"
       y="1007.3622"
       ry="5.9392786" />
    <path
       inkscape:connector-curvature="0"
       style="fill:#000000;fill-opacity:0.11764706;stroke:none"
       d="m 2.9999991,1040.9247 0,2.5 c 0,3.2904 2.64714,5.9375 5.9374997,5.9375 l 30.1250002,0 c 3.29036,0 5.9375,-2.6471 5.9375,-5.9375 l 0,-2.5 c 0,3.2904 -2.64714,5.9375 -5.9375,5.9375 l -30.1250002,0 c -3.2903597,0 -5.9374997,-2.6471 -5.9374997,-5.9375 z"
       id="rect5265-8" />
    <path
       inkscape:connector-curvature="0"
       style="fill:#000000;fill-opacity:0.09803922;stroke:none"
       d="m 2.9999991,1042.9247 0,0.5 c 0,3.2904 2.64714,5.9375 5.9374997,5.9375 l 30.1250002,0 c 3.29036,0 5.9375,-2.6471 5.9375,-5.9375 l 0,-0.5 c 0,3.2904 -2.64714,5.9375 -5.9375,5.9375 l -30.1250002,0 c -3.2903597,0 -5.9374997,-2.6471 -5.9374997,-5.9375 z"
       id="path5252-8" />
    <g
       transform="matrix(0.36107049,0,0,-0.36107049,-94.767574,1006.746)"
       id="g312"
       style="fill:#000000;fill-opacity:0.49803922" />
    <g
       transform="matrix(0.36107049,0,0,-0.36107049,-83.412194,995.38997)"
       id="g316"
       style="fill:#000000;fill-opacity:0.49803922" />
    <path
       inkscape:connector-curvature="0"
       id="path334"
       style="fill:#000000;fill-opacity:0.49803922;fill-rule:nonzero;stroke:none;display:inline"
       d="m 24,1032.0022 c -2.01084,0 -3.64,-1.6276 -3.64,-3.64 0,-2.0124 1.62916,-3.64 3.64,-3.64 2.01136,0 3.64,1.6276 3.64,3.64 0,2.0124 -1.62864,3.64 -3.64,3.64 z m 13,-1.04 0,-5.2 -2.8964,0 c -0.23348,-0.9724 -0.6006,-1.8928 -1.0868,-2.7404 l 2.01396,-2.0124 -3.6764,-3.6764 -1.97236,1.9708 c -0.8554,-0.52 -1.78828,-0.9152 -2.782,-1.17 l 0,-2.7716 -5.2,0 0,2.7716 c -0.9932,0.2548 -1.9266,0.65 -2.78148,1.17 l -1.97236,-1.9708 -3.6764,3.6764 2.01396,2.0124 c -0.4862,0.8476 -0.85332,1.768 -1.0868,2.7404 l -2.89692,0 0,5.2 2.98532,0 c 0.25688,0.9308 0.63856,1.8044 1.12788,2.6104 l -2.14344,2.1424 3.6764,3.6764 2.18556,-2.184 c 0.79612,0.4576 1.65776,0.806 2.56828,1.0452 l 0,3.1096 5.2,0 0,-3.1096 c 0.91052,-0.2392 1.77268,-0.5876 2.5688,-1.0452 l 2.18556,2.184 3.6764,-3.6764 -2.14344,-2.1424 c 0.48932,-0.806 0.871,-1.6796 1.12788,-2.6104 l 2.9848,0" />
  </g>
</svg>
