<?xml version="1.0" encoding="UTF-8" standalone="no"?>
<!-- Created with Inkscape (http://www.inkscape.org/) -->

<svg
   xmlns:dc="http://purl.org/dc/elements/1.1/"
   xmlns:cc="http://creativecommons.org/ns#"
   xmlns:rdf="http://www.w3.org/1999/02/22-rdf-syntax-ns#"
   xmlns:svg="http://www.w3.org/2000/svg"
   xmlns="http://www.w3.org/2000/svg"
   xmlns:xlink="http://www.w3.org/1999/xlink"
   xmlns:sodipodi="http://sodipodi.sourceforge.net/DTD/sodipodi-0.dtd"
   xmlns:inkscape="http://www.inkscape.org/namespaces/inkscape"
   width="48"
   height="48"
   id="svg4230"
   version="1.1"
   inkscape:version="0.48+devel r12392"
   sodipodi:docname="firefox-trunk.svg">
  <defs
     id="defs4232">
    <linearGradient
       inkscape:collect="always"
       id="linearGradient5347">
      <stop
         style="stop-color:#8e3fd0;stop-opacity:1"
         offset="0"
         id="stop5349" />
      <stop
         style="stop-color:#cf7ae6;stop-opacity:1"
         offset="1"
         id="stop5351" />
    </linearGradient>
    <linearGradient
       gradientTransform="translate(-7.1054687e-7,1.8863945e-4)"
       inkscape:collect="always"
       xlink:href="#linearGradient5347"
       id="linearGradient5353"
       x1="28.728134"
       y1="1049.4073"
       x2="28.728134"
       y2="1007.5463"
       gradientUnits="userSpaceOnUse" />
  </defs>
  <sodipodi:namedview
     id="base"
     pagecolor="#ffffff"
     bordercolor="#666666"
     borderopacity="1.0"
     inkscape:pageopacity="0.0"
     inkscape:pageshadow="2"
     inkscape:zoom="3.8479083"
     inkscape:cx="28.709446"
     inkscape:cy="12.646864"
     inkscape:document-units="px"
     inkscape:current-layer="layer1"
     showgrid="false"
     inkscape:showpageshadow="false"
     borderlayer="true"
     inkscape:window-width="1366"
     inkscape:window-height="715"
     inkscape:window-x="0"
     inkscape:window-y="30"
     inkscape:window-maximized="1" />
  <metadata
     id="metadata4235">
    <rdf:RDF>
      <cc:Work
         rdf:about="">
        <dc:format>image/svg+xml</dc:format>
        <dc:type
           rdf:resource="http://purl.org/dc/dcmitype/StillImage" />
        <dc:title />
      </cc:Work>
    </rdf:RDF>
  </metadata>
  <g
     inkscape:label="Capa 1"
     inkscape:groupmode="layer"
     id="layer1"
     transform="translate(0,-1004.3622)">
    <rect
       style="fill:#000000;fill-opacity:0.01960784;stroke:none"
       id="rect5263-0"
       width="44.399963"
       height="44.399963"
       x="1.8000183"
       y="1006.1622"
       ry="6.2786646" />
    <rect
       ry="6.1938181"
       y="1006.4623"
       x="2.1000061"
       height="43.799973"
       width="43.799973"
       id="rect5261-6"
       style="fill:#000000;fill-opacity:0.03921569;stroke:none" />
    <rect
       style="fill:#000000;fill-opacity:0.07843137;stroke:none"
       id="rect5259-9"
       width="43.199982"
       height="43.199982"
       x="2.3999939"
       y="1006.7626"
       ry="6.1089716" />
    <rect
       ry="6.0241251"
       y="1007.0624"
       x="2.7000122"
       height="42.599991"
       width="42.599991"
       id="rect5257-5"
       style="fill:#000000;fill-opacity:0.15686275;stroke:none" />
    <rect
       style="fill:url(#linearGradient5353);fill-opacity:1;stroke:none"
       id="rect5237-8"
       width="42"
       height="42"
       x="3"
       y="1007.3622"
       ry="5.9392786" />
    <path
       inkscape:connector-curvature="0"
       style="fill:#000000;fill-opacity:0.11764706;stroke:none"
       d="m 2.9999983,1040.9248 0,2.5 c 0,3.2904 2.64714,5.9375 5.9375004,5.9375 l 30.1250003,0 c 3.29036,0 5.9375,-2.6471 5.9375,-5.9375 l 0,-2.5 c 0,3.2904 -2.64714,5.9375 -5.9375,5.9375 l -30.1250003,0 C 5.6471383,1046.8623 2.9999983,1044.2152 2.9999983,1040.9248 Z"
       id="rect5265-0" />
    <path
       inkscape:connector-curvature="0"
       style="fill:#000000;fill-opacity:0.09803922;stroke:none"
       d="m 2.9999983,1042.9248 0,0.5 c 0,3.2904 2.64714,5.9375 5.9375004,5.9375 l 30.1250003,0 c 3.29036,0 5.9375,-2.6471 5.9375,-5.9375 l 0,-0.5 c 0,3.2904 -2.64714,5.9375 -5.9375,5.9375 l -30.1250003,0 C 5.6471383,1048.8623 2.9999983,1046.2152 2.9999983,1042.9248 Z"
       id="path5252-0" />
    <path
       style="fill:#000000;fill-opacity:0.49803922;stroke:none"
       d="m 24.001161,1015.3623 c -3.904828,0 -7.387852,1.8349 -9.650032,4.6888 -0.2281,-0.4785 -0.382569,-1.0883 -0.496464,-1.8443 -0.935289,0.9236 -1.395821,2.5871 -1.365278,4.9701 -0.06417,0.09 -0.155413,0.2293 -0.248232,0.3751 -0.03008,0.023 -0.06376,0.041 -0.09308,0.062 -0.0066,0 0,0.024 0,0.031 l -0.03103,0 c -0.142834,0.2224 -0.311541,0.5795 -0.558523,1.0315 -0.389995,0.7007 -0.539077,1.2843 -0.558522,1.7817 0.0066,-0.013 0.02369,-0.052 0.03103,-0.062 0.0023,0.1147 7.74e-4,0.2413 0.03103,0.3438 l 0.713668,-0.5939 c -0.007,0.053 -0.02465,0.1027 -0.03103,0.1563 -0.235944,0.6414 -0.38191,1.3187 -0.465436,2.0318 -0.281206,2.5678 0.417206,5.1211 2.141004,7.627 2.585759,3.3687 5.83093,5.1367 9.743119,5.3764 3.912609,0.2341 7.265392,-1.2163 10.02238,-4.3449 1.864148,-2.3031 3.016143,-4.7025 3.444223,-7.2206 0.428243,-1.7305 0.49121,-3.2136 0.155146,-4.4699 -0.116198,0.899 -0.275181,1.3445 -0.403378,1.3753 -0.03658,-1.4964 -0.242387,-2.825 -0.65161,-4.001 0,-0.01 -0.02542,-0.019 -0.03103,-0.031 -0.318525,-0.9177 -0.728205,-1.7426 -1.27219,-2.4694 0.137747,0.5453 0.215617,1.0212 0.279261,1.4379 C 32.57614,1017.879 28.581478,1015.3623 24.001161,1015.3623 z m 0,1.7818 c 1.515786,0 2.965861,0.2936 4.282007,0.8439 -0.451567,-0.048 -0.925817,-0.079 -1.427335,-0.094 0.641516,0.1291 1.173744,0.2655 1.61351,0.4688 0.678589,0.3017 1.126007,0.6947 1.334248,1.1566 -0.629992,-0.1169 -1.205245,-0.072 -1.706596,0.125 3.594391,1.4286 5.315572,3.1308 5.119791,5.0951 -0.26292,-0.4125 -0.608752,-0.6774 -1.054988,-0.8127 0.5504,2.1553 0.601381,3.941 0.155146,5.3452 -0.305499,-0.9361 -0.586897,-1.4908 -0.837784,-1.688 0.349036,2.8884 -0.137683,5.0163 -1.427336,6.408 0.244377,-0.8498 0.365845,-1.546 0.31029,-2.0943 -1.515501,2.2849 -3.249674,3.4579 -5.18185,3.5321 -0.763756,-0.01 -1.493684,-0.1216 -2.172032,-0.3438 -0.994984,-0.3359 -1.897328,-0.9045 -2.699527,-1.7192 1.251099,0.1037 2.408213,-0.1129 3.413194,-0.6252 l 1.64454,-1.094 c 0.213874,-0.08 0.393725,-0.062 0.589551,0.031 0.403204,-0.055 0.56862,-0.2932 0.434407,-0.6564 -0.195405,-0.2709 -0.489673,-0.5035 -0.868813,-0.7189 -0.825342,-0.4313 -1.70796,-0.354 -2.606439,0.2188 -0.85592,0.4868 -1.681533,0.4538 -2.482324,-0.062 -0.525875,-0.3628 -1.031358,-0.8597 -1.520422,-1.4692 l -0.186175,-0.2813 c 0.02424,-0.6033 0.267935,-0.9262 0.744697,-1.0003 0.537925,0.049 1.165092,0.1718 1.861742,0.3751 0.116209,-0.6712 -0.04378,-1.3738 -0.465436,-2.0943 l 0,-0.031 c 0.654073,-0.6098 1.242593,-1.0297 1.737627,-1.3129 0.220114,-0.117 0.360553,-0.2912 0.403378,-0.5314 0.0066,-0.01 -0.0062,-0.031 0,-0.031 0.0066,-0.011 0.02475,-0.025 0.03103,-0.031 0.128226,-0.1909 0.0959,-0.3335 -0.124116,-0.4688 -0.458461,0.025 -0.937847,-0.033 -1.396307,-0.1251 l 0,0.031 c -0.189604,-0.055 -0.42016,-0.2168 -0.713668,-0.5001 l -0.744697,-0.7502 -0.248232,-0.1876 -0.03103,-0.031 c 0.02447,-0.012 0.04377,-0.021 0.06206,-0.031 0.103872,-0.5606 0.283088,-1.0565 0.527494,-1.4692 l 0.06206,-0.031 c 0.244653,-0.4064 0.705446,-0.8449 1.396307,-1.3129 -1.28383,0.16 -2.442354,0.7215 -3.475253,1.7192 -0.783851,-0.2877 -1.71547,-0.2299 -2.761584,0.1251 C 17.633302,1018.653 20.638089,1017.1441 24.001161,1017.1441 Z"
       id="path4145-8"
       inkscape:connector-curvature="0" />
  </g>
</svg>
