<?xml version="1.0" encoding="UTF-8" standalone="no"?>
<!-- Created with Inkscape (http://www.inkscape.org/) -->

<svg
   xmlns:dc="http://purl.org/dc/elements/1.1/"
   xmlns:cc="http://creativecommons.org/ns#"
   xmlns:rdf="http://www.w3.org/1999/02/22-rdf-syntax-ns#"
   xmlns:svg="http://www.w3.org/2000/svg"
   xmlns="http://www.w3.org/2000/svg"
   xmlns:xlink="http://www.w3.org/1999/xlink"
   xmlns:sodipodi="http://sodipodi.sourceforge.net/DTD/sodipodi-0.dtd"
   xmlns:inkscape="http://www.inkscape.org/namespaces/inkscape"
   width="48"
   height="48"
   id="svg4230"
   version="1.1"
   inkscape:version="0.48+devel r12392"
   sodipodi:docname="gnome-aisleriot.svg">
  <defs
     id="defs4232">
    <linearGradient
       id="linearGradient6772"
       inkscape:collect="always">
      <stop
         id="stop6774"
         offset="0"
         style="stop-color:#efe963;stop-opacity:1" />
      <stop
         id="stop6776"
         offset="1"
         style="stop-color:#fcf982;stop-opacity:1" />
    </linearGradient>
    <linearGradient
       gradientUnits="userSpaceOnUse"
       y2="1007.3218"
       x2="40.915409"
       y1="1049.3521"
       x1="40.915409"
       id="linearGradient6778"
       xlink:href="#linearGradient6772"
       inkscape:collect="always"
       gradientTransform="translate(7.7392578e-7,4.2609766e-5)" />
    <linearGradient
       gradientTransform="translate(-0.0416311,0.21835584)"
       y2="1004.5619"
       x2="23.673292"
       y1="1046.1796"
       x1="23.673292"
       gradientUnits="userSpaceOnUse"
       id="linearGradient3770"
       xlink:href="#linearGradient3754"
       inkscape:collect="always" />
    <linearGradient
       id="linearGradient3754">
      <stop
         id="stop3756"
         offset="0"
         style="stop-color:#b1731b;stop-opacity:1;" />
      <stop
         id="stop3758"
         offset="1"
         style="stop-color:#e6ac59;stop-opacity:1;" />
    </linearGradient>
    <linearGradient
       gradientTransform="translate(-0.0416311,0.21835584)"
       y2="1004.5619"
       x2="23.673292"
       y1="1046.1796"
       x1="23.673292"
       gradientUnits="userSpaceOnUse"
       id="linearGradient3767"
       xlink:href="#linearGradient3754"
       inkscape:collect="always" />
    <linearGradient
       id="linearGradient3919">
      <stop
         id="stop3921"
         offset="0"
         style="stop-color:#b1731b;stop-opacity:1;" />
      <stop
         id="stop3923"
         offset="1"
         style="stop-color:#e6ac59;stop-opacity:1;" />
    </linearGradient>
    <linearGradient
       inkscape:collect="always"
       xlink:href="#linearGradient3754"
       id="linearGradient3928"
       gradientUnits="userSpaceOnUse"
       gradientTransform="translate(-0.0416311,0.21835584)"
       x1="23.673292"
       y1="1046.1796"
       x2="23.673292"
       y2="1004.5619" />
    <linearGradient
       id="linearGradient3754-0">
      <stop
         id="stop3756-7"
         offset="0"
         style="stop-color:#b1731b;stop-opacity:1;" />
      <stop
         id="stop3758-3"
         offset="1"
         style="stop-color:#e6ac59;stop-opacity:1;" />
    </linearGradient>
    <clipPath
       clipPathUnits="userSpaceOnUse"
       id="clipPath3076">
      <path
         inkscape:connector-curvature="0"
         d="m 307,18 10,0 0,13 -10,0 L 307,18 Z"
         id="path3078" />
    </clipPath>
    <clipPath
       clipPathUnits="userSpaceOnUse"
       id="clipPath3080">
      <path
         inkscape:connector-curvature="0"
         d="m 307.6,18 8.801,0 0,12.0098 -8.801,0 L 307.6,18 Z"
         id="path3082" />
    </clipPath>
  </defs>
  <sodipodi:namedview
     id="base"
     pagecolor="#ffffff"
     bordercolor="#666666"
     borderopacity="1.0"
     inkscape:pageopacity="0.0"
     inkscape:pageshadow="2"
     inkscape:zoom="9.7054287"
     inkscape:cx="35.757028"
     inkscape:cy="24.200583"
     inkscape:document-units="px"
     inkscape:current-layer="layer1"
     showgrid="false"
     inkscape:showpageshadow="false"
     borderlayer="true"
     inkscape:window-width="1366"
     inkscape:window-height="715"
     inkscape:window-x="0"
     inkscape:window-y="30"
     inkscape:window-maximized="1" />
  <metadata
     id="metadata4235">
    <rdf:RDF>
      <cc:Work
         rdf:about="">
        <dc:format>image/svg+xml</dc:format>
        <dc:type
           rdf:resource="http://purl.org/dc/dcmitype/StillImage" />
        <dc:title></dc:title>
      </cc:Work>
    </rdf:RDF>
  </metadata>
  <g
     inkscape:label="Capa 1"
     inkscape:groupmode="layer"
     id="layer1"
     transform="translate(0,-1004.3622)">
    <rect
       style="fill:#000000;fill-opacity:0.01960784;stroke:none"
       id="rect5263-6"
       width="44.399963"
       height="44.399963"
       x="1.8000183"
       y="1006.1622"
       ry="6.2786646" />
    <rect
       ry="6.1938181"
       y="1006.4623"
       x="2.1000061"
       height="43.799973"
       width="43.799973"
       id="rect5261-3"
       style="fill:#000000;fill-opacity:0.03921569;stroke:none" />
    <rect
       style="fill:#000000;fill-opacity:0.07843137;stroke:none"
       id="rect5259-9"
       width="43.199982"
       height="43.199982"
       x="2.3999939"
       y="1006.7624"
       ry="6.1089716" />
    <rect
       ry="6.0241251"
       y="1007.0624"
       x="2.7000122"
       height="42.599991"
       width="42.599991"
       id="rect5257-0"
       style="fill:#000000;fill-opacity:0.15686275;stroke:none" />
    <rect
       style="fill:url(#linearGradient6778);fill-opacity:1;stroke:none"
       id="rect5237-0"
       width="42"
       height="42"
       x="3"
       y="1007.3622"
       ry="5.9392786" />
    <path
       inkscape:connector-curvature="0"
       style="fill:#000000;fill-opacity:0.11764706;stroke:none"
       d="m 2.9999998,1040.9248 0,2.5 c 0,3.2904 2.64714,5.9375 5.9375,5.9375 l 30.1250002,0 c 3.29036,0 5.9375,-2.6471 5.9375,-5.9375 l 0,-2.5 c 0,3.2904 -2.64714,5.9375 -5.9375,5.9375 l -30.1250002,0 C 5.6471398,1046.8623 2.9999998,1044.2152 2.9999998,1040.9248 Z"
       id="rect5265-2" />
    <path
       inkscape:connector-curvature="0"
       style="fill:#000000;fill-opacity:0.09803922;stroke:none"
       d="m 2.9999998,1042.9248 0,0.5 c 0,3.2904 2.64714,5.9375 5.9375,5.9375 l 30.1250002,0 c 3.29036,0 5.9375,-2.6471 5.9375,-5.9375 l 0,-0.5 c 0,3.2904 -2.64714,5.9375 -5.9375,5.9375 l -30.1250002,0 C 5.6471398,1048.8623 2.9999998,1046.2152 2.9999998,1042.9248 Z"
       id="path5252-9" />
    <path
       d="m 24.099666,1034.8622 c -1.56975,-2.2045 -3.023582,-4.524 -4.866332,-6.4556 1.6315,-2.1439 3.300916,-4.2466 4.766666,-6.5553 1.480916,2.2914 3.169834,4.3779 4.76775,6.5553 -1.704084,2.0041 -3.381084,4.0344 -4.668084,6.4556 m 6.400334,-19.5 -13,0 c -1.194916,0 -2.166666,0.9706 -2.166666,2.1666 l 0,21.6668 c 0,1.196 0.97175,2.1666 2.166666,2.1666 l 13,0 c 1.198166,0 2.166666,-0.9706 2.166666,-2.1666 l 0,-21.6668 c 0,-1.196 -0.9685,-2.1666 -2.166666,-2.1666"
       style="fill:#000000;fill-opacity:0.49803922;fill-rule:nonzero;stroke:none"
       id="path3064"
       inkscape:connector-curvature="0" />
  </g>
</svg>
