<?xml version="1.0" encoding="UTF-8" standalone="no"?>
<!-- Created with Inkscape (http://www.inkscape.org/) -->

<svg
   xmlns:dc="http://purl.org/dc/elements/1.1/"
   xmlns:cc="http://creativecommons.org/ns#"
   xmlns:rdf="http://www.w3.org/1999/02/22-rdf-syntax-ns#"
   xmlns:svg="http://www.w3.org/2000/svg"
   xmlns="http://www.w3.org/2000/svg"
   xmlns:xlink="http://www.w3.org/1999/xlink"
   xmlns:sodipodi="http://sodipodi.sourceforge.net/DTD/sodipodi-0.dtd"
   xmlns:inkscape="http://www.inkscape.org/namespaces/inkscape"
   width="48"
   height="48"
   id="svg2"
   version="1.1"
   inkscape:version="0.48+devel r12392"
   sodipodi:docname="gnome-contacts.svg">
  <defs
     id="defs4">
    <linearGradient
       inkscape:collect="always"
       id="linearGradient4887">
      <stop
         style="stop-color:#e0a269;stop-opacity:1"
         offset="0"
         id="stop4889" />
      <stop
         style="stop-color:#f0d3a9;stop-opacity:1"
         offset="1"
         id="stop4891" />
    </linearGradient>
    <linearGradient
       inkscape:collect="always"
       xlink:href="#linearGradient4887"
       id="linearGradient4047"
       x1="26.509884"
       y1="1049.3497"
       x2="26.509884"
       y2="1007.4331"
       gradientUnits="userSpaceOnUse" />
  </defs>
  <sodipodi:namedview
     id="base"
     pagecolor="#ffffff"
     bordercolor="#666666"
     borderopacity="1.0"
     inkscape:pageopacity="0.0"
     inkscape:pageshadow="2"
     inkscape:zoom="7.6983147"
     inkscape:cx="49.950381"
     inkscape:cy="32.261432"
     inkscape:document-units="px"
     inkscape:current-layer="layer1"
     showgrid="false"
     inkscape:window-width="1366"
     inkscape:window-height="715"
     inkscape:window-x="0"
     inkscape:window-y="30"
     inkscape:window-maximized="1"
     showguides="false"
     borderlayer="true"
     inkscape:showpageshadow="false" />
  <metadata
     id="metadata7">
    <rdf:RDF>
      <cc:Work
         rdf:about="">
        <dc:format>image/svg+xml</dc:format>
        <dc:type
           rdf:resource="http://purl.org/dc/dcmitype/StillImage" />
        <dc:title></dc:title>
      </cc:Work>
    </rdf:RDF>
  </metadata>
  <g
     inkscape:label="Capa 1"
     inkscape:groupmode="layer"
     id="layer1"
     transform="translate(0,-1004.3622)">
    <rect
       style="fill:#000000;fill-opacity:0.01960784;stroke:none"
       id="rect5263"
       width="44.399963"
       height="44.399963"
       x="1.8000183"
       y="1006.1622"
       ry="6.2786646" />
    <rect
       ry="6.1938181"
       y="1006.4622"
       x="2.1000137"
       height="43.799973"
       width="43.799973"
       id="rect5261"
       style="fill:#000000;fill-opacity:0.03921569;stroke:none" />
    <rect
       style="fill:#000000;fill-opacity:0.07843138;stroke:none"
       id="rect5259"
       width="43.199982"
       height="43.199982"
       x="2.4000092"
       y="1006.7622"
       ry="6.1089716" />
    <rect
       ry="6.0241251"
       y="1007.0622"
       x="2.7000046"
       height="42.599991"
       width="42.599991"
       id="rect5257"
       style="fill:#000000;fill-opacity:0.15686275;stroke:none" />
    <rect
       style="fill:url(#linearGradient4047);fill-opacity:1.0;stroke:none"
       id="rect5237"
       width="42"
       height="42"
       x="3"
       y="1007.3622"
       ry="5.9392786" />
    <path
       style="fill:#000000;fill-opacity:0.11764706;stroke:none"
       d="M 3 36.5625 L 3 39.0625 C 3 42.35286 5.6471397 45 8.9375 45 L 39.0625 45 C 42.35286 45 45 42.35286 45 39.0625 L 45 36.5625 C 45 39.85286 42.35286 42.5 39.0625 42.5 L 8.9375 42.5 C 5.6471397 42.5 3 39.85286 3 36.5625 z "
       id="rect5265"
       transform="translate(0,1004.3622)" />
    <path
       style="fill:#000000;fill-opacity:0.09803922;stroke:none"
       d="M 3 38.5625 L 3 39.0625 C 3 42.35286 5.6471397 45 8.9375 45 L 39.0625 45 C 42.35286 45 45 42.35286 45 39.0625 L 45 38.5625 C 45 41.8529 42.35286 44.5 39.0625 44.5 L 8.9375 44.5 C 5.6471397 44.5 3 41.8529 3 38.5625 z "
       transform="translate(0,1004.3622)"
       id="path5252" />
    <path
       d="m 35.870656,1015.3626 -10.173453,0 c -0.417112,0 -0.798051,0.1255 -1.131514,0.3245 l 0,22.2929 -1.130384,0 0,-22.2929 c -0.332921,-0.1989 -0.71499,-0.3244 -1.13269,-0.3244 l -10.173453,0 c -1.248486,0 -2.2607665,1.0123 -2.2607665,2.2608 l 0,19.2239 c 0,1.2485 1.0122805,2.2608 2.2607665,2.2608 l 10.173453,0 c 0.0113,0 0.02261,-0.01 0.03346,-0.01 0.601952,0.014 1.086298,0.4985 1.100451,1.0993 l 0,1.1643 1.130385,0 0,-0.6268 0.0113,0 0,-0.5098 c 0,-0.6104 0.487738,-1.1072 1.094754,-1.127 0.0077,0 0.01673,0.01 0.02442,0.01 l 10.173453,0 c 1.248486,0 2.260767,-1.0123 2.260767,-2.2608 l 0,-19.2239 c 0,-1.2485 -1.012281,-2.2608 -2.260767,-2.2608"
       style="fill:#000000;fill-opacity:0.49803922;fill-rule:nonzero;stroke:none"
       id="path292-8"
       inkscape:connector-curvature="0" />
  </g>
</svg>
