<?xml version="1.0" encoding="UTF-8" standalone="no"?>
<!-- Created with Inkscape (http://www.inkscape.org/) -->

<svg
   xmlns:dc="http://purl.org/dc/elements/1.1/"
   xmlns:cc="http://creativecommons.org/ns#"
   xmlns:rdf="http://www.w3.org/1999/02/22-rdf-syntax-ns#"
   xmlns:svg="http://www.w3.org/2000/svg"
   xmlns="http://www.w3.org/2000/svg"
   xmlns:xlink="http://www.w3.org/1999/xlink"
   xmlns:sodipodi="http://sodipodi.sourceforge.net/DTD/sodipodi-0.dtd"
   xmlns:inkscape="http://www.inkscape.org/namespaces/inkscape"
   width="48"
   height="48"
   id="svg4230"
   version="1.1"
   inkscape:version="0.48+devel r12392"
   sodipodi:docname="kazam.svg">
  <defs
     id="defs4232">
    <linearGradient
       id="linearGradient5347"
       inkscape:collect="always">
      <stop
         id="stop5349"
         offset="0"
         style="stop-color:#8e3fd0;stop-opacity:1" />
      <stop
         id="stop5351"
         offset="1"
         style="stop-color:#cf7ae6;stop-opacity:1" />
    </linearGradient>
    <linearGradient
       gradientUnits="userSpaceOnUse"
       y2="1007.5463"
       x2="28.728134"
       y1="1049.4073"
       x1="28.728134"
       id="linearGradient5353"
       xlink:href="#linearGradient5347"
       inkscape:collect="always"
       gradientTransform="translate(-7.1054687e-7,1.4073906e-4)" />
  </defs>
  <sodipodi:namedview
     id="base"
     pagecolor="#ffffff"
     bordercolor="#666666"
     borderopacity="1.0"
     inkscape:pageopacity="0.0"
     inkscape:pageshadow="2"
     inkscape:zoom="2"
     inkscape:cx="-126.56006"
     inkscape:cy="1.0344907"
     inkscape:document-units="px"
     inkscape:current-layer="layer1"
     showgrid="false"
     inkscape:showpageshadow="false"
     borderlayer="true"
     inkscape:window-width="1366"
     inkscape:window-height="715"
     inkscape:window-x="0"
     inkscape:window-y="30"
     inkscape:window-maximized="1" />
  <metadata
     id="metadata4235">
    <rdf:RDF>
      <cc:Work
         rdf:about="">
        <dc:format>image/svg+xml</dc:format>
        <dc:type
           rdf:resource="http://purl.org/dc/dcmitype/StillImage" />
        <dc:title></dc:title>
      </cc:Work>
    </rdf:RDF>
  </metadata>
  <g
     inkscape:label="Capa 1"
     inkscape:groupmode="layer"
     id="layer1"
     transform="translate(0,-1004.3622)">
    <rect
       style="fill:#000000;fill-opacity:0.01960784;stroke:none"
       id="rect5263-0"
       width="44.399963"
       height="44.399963"
       x="1.8000183"
       y="1006.1622"
       ry="6.2786646" />
    <rect
       ry="6.1938181"
       y="1006.4623"
       x="2.1000061"
       height="43.799973"
       width="43.799973"
       id="rect5261-6"
       style="fill:#000000;fill-opacity:0.03921569;stroke:none" />
    <rect
       style="fill:#000000;fill-opacity:0.07843137;stroke:none"
       id="rect5259-9"
       width="43.199982"
       height="43.199982"
       x="2.3999939"
       y="1006.7626"
       ry="6.1089716" />
    <rect
       ry="6.0241251"
       y="1007.0624"
       x="2.7000122"
       height="42.599991"
       width="42.599991"
       id="rect5257-5"
       style="fill:#000000;fill-opacity:0.15686275;stroke:none" />
    <rect
       style="fill:url(#linearGradient5353);fill-opacity:1;stroke:none"
       id="rect5237-8"
       width="42"
       height="42"
       x="3"
       y="1007.3622"
       ry="5.9392786" />
    <path
       inkscape:connector-curvature="0"
       style="fill:#000000;fill-opacity:0.11764706;stroke:none"
       d="m 2.9999983,1040.9248 0,2.5 c 0,3.2904 2.64714,5.9375 5.9375004,5.9375 l 30.1250003,0 c 3.29036,0 5.9375,-2.6471 5.9375,-5.9375 l 0,-2.5 c 0,3.2904 -2.64714,5.9375 -5.9375,5.9375 l -30.1250003,0 C 5.6471383,1046.8623 2.9999983,1044.2152 2.9999983,1040.9248 Z"
       id="rect5265-0" />
    <path
       inkscape:connector-curvature="0"
       style="fill:#000000;fill-opacity:0.09803922;stroke:none"
       d="m 2.9999983,1042.9248 0,0.5 c 0,3.2904 2.64714,5.9375 5.9375004,5.9375 l 30.1250003,0 c 3.29036,0 5.9375,-2.6471 5.9375,-5.9375 l 0,-0.5 c 0,3.2904 -2.64714,5.9375 -5.9375,5.9375 l -30.1250003,0 C 5.6471383,1048.8623 2.9999983,1046.2152 2.9999983,1042.9248 Z"
       id="path5252-0" />
    <path
       style="fill:#000000;fill-opacity:0.49803922;stroke:none"
       d="M 24 11 C 16.820298 11 11 16.820298 11 24 C 11 31.179702 16.820298 37 24 37 C 31.179702 37 37 31.179702 37 24 C 37 16.820298 31.179702 11 24 11 z M 24 12.4375 C 30.37889 12.4375 35.5625 17.62111 35.5625 24 C 35.5625 30.37889 30.37889 35.5625 24 35.5625 C 17.62111 35.5625 12.4375 30.37889 12.4375 24 C 12.4375 17.62111 17.62111 12.4375 24 12.4375 z "
       transform="translate(0,1004.3622)"
       id="path4041" />
    <path
       style="fill:#000000;fill-opacity:0.49803922;stroke:none"
       d="M 24 14.4375 C 24.383148 14.4375 24.763708 14.477331 25.125 14.53125 C 24.753658 14.487382 24.383137 14.4375 24 14.4375 z M 24 14.4375 C 23.616863 14.4375 23.246342 14.487382 22.875 14.53125 C 23.236292 14.477331 23.616852 14.4375 24 14.4375 z M 22.875 14.53125 C 18.1344 15.091277 14.4375 19.108816 14.4375 24 C 14.4375 29.274321 18.725679 33.5625 24 33.5625 C 29.274321 33.5625 33.5625 29.274321 33.5625 24 C 33.5625 19.108816 29.8656 15.091277 25.125 14.53125 C 27.654042 14.908684 29.5625 16.543948 29.5625 18.5 C 29.5625 20.735488 27.065182 22.53125 24 22.53125 C 20.934818 22.53125 18.4375 20.735488 18.4375 18.5 C 18.4375 16.543948 20.345958 14.908684 22.875 14.53125 z "
       transform="translate(0,1004.3622)"
       id="path4045" />
    <path
       sodipodi:type="arc"
       style="fill:#000000;fill-opacity:0.49803922;stroke:none"
       id="path4059"
       sodipodi:cx="23.689089"
       sodipodi:cy="20.594975"
       sodipodi:rx="11.715519"
       sodipodi:ry="11.715519"
       d="m 35.404608,20.594975 a 11.715519,11.715519 0 1 1 -23.431038,0 A 11.715519,11.715519 0 1 1 35.404608,20.594975 Z"
       transform="matrix(0.36169993,0,0,0.25567163,15.431657,1016.5295)" />
    <path
       style="fill:#000000;fill-opacity:0.49803922;stroke:none"
       d="m 38.825003,1011.9122 c -0.897463,0 -1.625,0.7276 -1.625,1.625 0,0.8975 0.727537,1.625 1.625,1.625 0.897462,0 1.625,-0.7275 1.625,-1.625 C 40.450003,1012.6398 39.722465,1011.9122 38.825003,1011.9122 Z"
       id="path4066"
       inkscape:connector-curvature="0" />
  </g>
</svg>
