<?xml version="1.0" encoding="UTF-8" standalone="no"?>
<!-- Created with Inkscape (http://www.inkscape.org/) -->

<svg
   xmlns:dc="http://purl.org/dc/elements/1.1/"
   xmlns:cc="http://creativecommons.org/ns#"
   xmlns:rdf="http://www.w3.org/1999/02/22-rdf-syntax-ns#"
   xmlns:svg="http://www.w3.org/2000/svg"
   xmlns="http://www.w3.org/2000/svg"
   xmlns:xlink="http://www.w3.org/1999/xlink"
   xmlns:sodipodi="http://sodipodi.sourceforge.net/DTD/sodipodi-0.dtd"
   xmlns:inkscape="http://www.inkscape.org/namespaces/inkscape"
   width="48"
   height="48.000004"
   id="svg4340"
   version="1.1"
   inkscape:version="0.48+devel r12503"
   sodipodi:docname="as-icon.svg">
  <defs
     id="defs4342">
    <linearGradient
       inkscape:collect="always"
       xlink:href="#linearGradient6125"
       id="linearGradient6778"
       x1="40.915409"
       y1="1049.3521"
       x2="40.915409"
       y2="1007.3218"
       gradientUnits="userSpaceOnUse"
       gradientTransform="translate(224.57144,-450.28565)" />
    <linearGradient
       inkscape:collect="always"
       id="linearGradient6125">
      <stop
         style="stop-color:#f81654;stop-opacity:1"
         offset="0"
         id="stop6127" />
      <stop
         style="stop-color:#fd668f;stop-opacity:1"
         offset="1"
         id="stop6129" />
    </linearGradient>
  </defs>
  <sodipodi:namedview
     id="base"
     pagecolor="#ffffff"
     bordercolor="#666666"
     borderopacity="1.0"
     inkscape:pageopacity="0.0"
     inkscape:pageshadow="2"
     inkscape:zoom="3.1379605"
     inkscape:cx="-7.9839371"
     inkscape:cy="26.721555"
     inkscape:document-units="px"
     inkscape:current-layer="layer1"
     showgrid="false"
     width="0px"
     height="0px"
     fit-margin-top="0"
     fit-margin-left="0"
     fit-margin-right="0"
     fit-margin-bottom="0"
     inkscape:window-width="1366"
     inkscape:window-height="715"
     inkscape:window-x="0"
     inkscape:window-y="30"
     inkscape:window-maximized="1" />
  <metadata
     id="metadata4345">
    <rdf:RDF>
      <cc:Work
         rdf:about="">
        <dc:format>image/svg+xml</dc:format>
        <dc:type
           rdf:resource="http://purl.org/dc/dcmitype/StillImage" />
        <cc:license
           rdf:resource="" />
        <dc:title />
      </cc:Work>
    </rdf:RDF>
  </metadata>
  <g
     inkscape:label="Capa 1"
     inkscape:groupmode="layer"
     id="layer1"
     transform="translate(-224.57143,-554.07648)">
    <rect
       style="fill:#000000;fill-opacity:0.01960784;stroke:none"
       id="rect5263"
       width="44.399963"
       height="44.399963"
       x="226.37144"
       y="555.87653"
       ry="6.2786646" />
    <rect
       ry="6.1938181"
       y="556.17664"
       x="226.67143"
       height="43.799973"
       width="43.799973"
       id="rect5261"
       style="fill:#000000;fill-opacity:0.03921569;stroke:none" />
    <rect
       style="fill:#000000;fill-opacity:0.07843137;stroke:none"
       id="rect5259"
       width="43.199982"
       height="43.199982"
       x="226.97142"
       y="556.47668"
       ry="6.1089716" />
    <rect
       ry="6.0241251"
       y="556.77667"
       x="227.27144"
       height="42.599991"
       width="42.599991"
       id="rect5257"
       style="fill:#000000;fill-opacity:0.15686275;stroke:none" />
    <rect
       style="fill:url(#linearGradient6778);fill-opacity:1;stroke:none"
       id="rect5237"
       width="42"
       height="42"
       x="227.57143"
       y="557.07654"
       ry="5.9392786" />
    <path
       inkscape:connector-curvature="0"
       style="fill:#000000;fill-opacity:0.11764706;stroke:none"
       d="m 227.57144,590.63905 0,2.5 c 0,3.2904 2.64714,5.9375 5.9375,5.9375 l 30.125,0 c 3.29036,0 5.9375,-2.6471 5.9375,-5.9375 l 0,-2.5 c 0,3.2904 -2.64714,5.9375 -5.9375,5.9375 l -30.125,0 c -3.29036,0 -5.9375,-2.6471 -5.9375,-5.9375 z"
       id="rect5265" />
    <path
       inkscape:connector-curvature="0"
       style="fill:#000000;fill-opacity:0.09803922;stroke:none"
       d="m 227.57144,592.63905 0,0.5 c 0,3.2904 2.64714,5.9375 5.9375,5.9375 l 30.125,0 c 3.29036,0 5.9375,-2.6471 5.9375,-5.9375 l 0,-0.5 c 0,3.2904 -2.64714,5.9375 -5.9375,5.9375 l -30.125,0 c -3.29036,0 -5.9375,-2.6471 -5.9375,-5.9375 z"
       id="path5252" />
    <path
       inkscape:connector-curvature="0"
       id="path5"
       d="m 246.63066,585.2179 -1.20613,-3.27849 c 0,0 -1.95989,2.18586 -4.89897,2.18586 -2.60063,0 -4.44707,-2.26122 -4.44707,-5.87915 0,-4.63534 2.33629,-6.2935 4.63548,-6.2935 3.31617,0 4.37127,2.14804 5.27595,4.89927 l 1.2061,3.76863 c 1.20569,3.65533 3.4669,6.59482 9.9865,6.59482 4.67346,0 7.83891,-1.43191 7.83891,-5.20042 0,-3.05256 -1.73382,-4.63548 -4.97491,-5.38928 l -2.41181,-0.52756 c -1.658,-0.37679 -2.14787,-1.05525 -2.14787,-2.18584 0,-1.28134 1.01726,-2.03512 2.67571,-2.03512 1.80889,0 2.78864,0.67841 2.93949,2.29889 l 3.76851,-0.45232 c -0.30146,-3.39169 -2.63789,-4.78606 -6.48191,-4.78606 -3.39152,0 -6.708,1.28132 -6.708,5.3891 0,2.56269 1.24366,4.18332 4.37127,4.93696 l 2.56296,0.60276 c 1.92195,0.45234 2.5624,1.24365 2.5624,2.33673 0,1.39411 -1.35655,1.95947 -3.91923,1.95947 -3.80634,0 -5.38885,-1.9973 -6.29351,-4.74851 l -1.24365,-3.76837 c -1.58251,-4.89927 -4.1078,-6.70814 -9.12009,-6.70814 -5.53971,0 -8.47936,3.50472 -8.47936,9.45908 0,5.7284 2.93965,8.81848 8.21586,8.81848 4.25795,0 6.29337,-1.99729 6.29337,-1.99729 l 0,0 z"
       style="fill:#000000;fill-opacity:0.49803922" />
    <rect
       id="rect6284"
       style="fill:#eeeeec;display:none;enable-background:accumulate"
       height="8.3631706"
       width="8.3799486"
       y="578.86151"
       x="337.71387" />
    <rect
       id="rect6592"
       style="fill:#eeeeec;display:none;enable-background:accumulate"
       height="5.5754471"
       width="5.5866323"
       y="592.10388"
       x="338.92548" />
    <rect
       id="rect8104"
       style="fill:#ffffff;display:none;enable-background:accumulate"
       height="4.1815853"
       width="4.1899743"
       y="600.81555"
       x="338.75089" />
    <rect
       id="rect6749"
       style="fill:#eeeeec;display:none;enable-background:accumulate"
       height="3.8331199"
       width="3.8408098"
       y="601.00024"
       x="338.92548" />
    <rect
       id="rect6833"
       style="fill:#eeeeec;display:none;enable-background:accumulate"
       height="2.7877235"
       width="2.7933161"
       y="608.3075"
       x="338.92548" />
    <rect
       id="rect3068"
       style="fill:#eeeeec;display:none;enable-background:accumulate"
       height="44.603577"
       width="44.693058"
       y="575.72528"
       x="288.83121" />
    <text
       id="context"
       style="font-size:3.19182992px;fill:#000000;display:none;enable-background:new;font-family:Bitstream Vera Sans"
       xml:space="preserve"
       y="574.47437"
       x="289.39801"
       transform="scale(1.0010026,0.99899841)"><tspan
         id="tspan2716"
         x="289.39801"
         y="574.47437">apps</tspan></text>
    <text
       sodipodi:linespacing="125%"
       id="text3021"
       style="font-size:3.19182992px;font-weight:bold;line-height:125%;fill:#000000;display:none;enable-background:new;font-family:Droid Sans"
       xml:space="preserve"
       y="574.47437"
       x="319.22168"
       transform="scale(1.0010026,0.99899841)"><tspan
         id="tspan3023"
         y="574.47437"
         x="319.22168">preferences-color</tspan></text>
  </g>
</svg>
