<?xml version="1.0" encoding="UTF-8" standalone="no"?>
<!-- Created with Inkscape (http://www.inkscape.org/) -->

<svg
   xmlns:dc="http://purl.org/dc/elements/1.1/"
   xmlns:cc="http://creativecommons.org/ns#"
   xmlns:rdf="http://www.w3.org/1999/02/22-rdf-syntax-ns#"
   xmlns:svg="http://www.w3.org/2000/svg"
   xmlns="http://www.w3.org/2000/svg"
   xmlns:xlink="http://www.w3.org/1999/xlink"
   xmlns:sodipodi="http://sodipodi.sourceforge.net/DTD/sodipodi-0.dtd"
   xmlns:inkscape="http://www.inkscape.org/namespaces/inkscape"
   width="48"
   height="48"
   id="svg4230"
   version="1.1"
   inkscape:version="0.48+devel r12392"
   sodipodi:docname="omgwords.svg">
  <defs
     id="defs4232">
    <linearGradient
       inkscape:collect="always"
       id="linearGradient6075">
      <stop
         style="stop-color:#ec7928;stop-opacity:1"
         offset="0"
         id="stop6077" />
      <stop
         style="stop-color:#f29e34;stop-opacity:1"
         offset="1"
         id="stop6079" />
    </linearGradient>
    <linearGradient
       inkscape:collect="always"
       xlink:href="#linearGradient6075"
       id="linearGradient6081"
       x1="37.957897"
       y1="1049.3441"
       x2="37.957897"
       y2="1007.4396"
       gradientUnits="userSpaceOnUse" />
  </defs>
  <sodipodi:namedview
     id="base"
     pagecolor="#ffffff"
     bordercolor="#666666"
     borderopacity="1.0"
     inkscape:pageopacity="0.0"
     inkscape:pageshadow="2"
     inkscape:zoom="7.6958165"
     inkscape:cx="28.910796"
     inkscape:cy="25.843402"
     inkscape:document-units="px"
     inkscape:current-layer="layer1"
     showgrid="false"
     inkscape:showpageshadow="false"
     borderlayer="true"
     inkscape:window-width="1366"
     inkscape:window-height="715"
     inkscape:window-x="0"
     inkscape:window-y="30"
     inkscape:window-maximized="1" />
  <metadata
     id="metadata4235">
    <rdf:RDF>
      <cc:Work
         rdf:about="">
        <dc:format>image/svg+xml</dc:format>
        <dc:type
           rdf:resource="http://purl.org/dc/dcmitype/StillImage" />
        <dc:title></dc:title>
      </cc:Work>
    </rdf:RDF>
  </metadata>
  <g
     inkscape:label="Capa 1"
     inkscape:groupmode="layer"
     id="layer1"
     transform="translate(0,-1004.3622)">
    <rect
       style="fill:#000000;fill-opacity:0.01960784;stroke:none"
       id="rect5263"
       width="44.399963"
       height="44.399963"
       x="1.8000183"
       y="1006.1622"
       ry="6.2786646" />
    <rect
       ry="6.1938181"
       y="1006.4623"
       x="2.1000061"
       height="43.799973"
       width="43.799973"
       id="rect5261"
       style="fill:#000000;fill-opacity:0.03921569;stroke:none" />
    <rect
       style="fill:#000000;fill-opacity:0.07843137;stroke:none"
       id="rect5259"
       width="43.199982"
       height="43.199982"
       x="2.3999939"
       y="1006.7623"
       ry="6.1089716" />
    <rect
       ry="6.0241251"
       y="1007.0623"
       x="2.7000122"
       height="42.599991"
       width="42.599991"
       id="rect5257"
       style="fill:#000000;fill-opacity:0.15686275;stroke:none" />
    <rect
       style="fill:url(#linearGradient6081);fill-opacity:1;stroke:none"
       id="rect5237"
       width="42"
       height="42"
       x="3"
       y="1007.3622"
       ry="5.9392786" />
    <path
       inkscape:connector-curvature="0"
       style="fill:#000000;fill-opacity:0.11764706;stroke:none"
       d="m 2.9999991,1040.9247 0,2.5 c 0,3.2904 2.64714,5.9375 5.9375,5.9375 l 30.1249999,0 c 3.29036,0 5.9375,-2.6471 5.9375,-5.9375 l 0,-2.5 c 0,3.2904 -2.64714,5.9375 -5.9375,5.9375 l -30.1249999,0 C 5.6471391,1046.8622 2.9999991,1044.2151 2.9999991,1040.9247 Z"
       id="rect5265" />
    <path
       inkscape:connector-curvature="0"
       style="fill:#000000;fill-opacity:0.09803922;stroke:none"
       d="m 2.9999991,1042.9247 0,0.5 c 0,3.2904 2.64714,5.9375 5.9375,5.9375 l 30.1249999,0 c 3.29036,0 5.9375,-2.6471 5.9375,-5.9375 l 0,-0.5 c 0,3.2904 -2.64714,5.9375 -5.9375,5.9375 l -30.1249999,0 C 5.6471391,1048.8622 2.9999991,1046.2151 2.9999991,1042.9247 Z"
       id="path5252" />
    <path
       style="fill:#000000;fill-opacity:0.49803922;stroke:none"
       d="m 24.000001,1015.3622 c -7.201161,0 -13.026477,5.6476 -13.026477,12.6028 0,6.9553 5.825317,12.5764 13.026477,12.5764 2.061498,0 4.012365,-0.448 5.745417,-1.2709 l 5.692464,2.0917 -1.959266,-4.7394 c 2.213472,-2.2569 3.54786,-5.3037 3.54786,-8.6578 C 37.026476,1021.0098 31.201161,1015.3622 24.000001,1015.3622 z m 10.008146,7.4399 0.05295,1.2973 -0.185337,2.5682 -1.059062,0.026 -0.450102,-2.5152 -0.105907,-1.2709 L 34.008147,1022.8021 z m -3.733197,0.1324 c 0.243682,0.015 0.447794,0.057 0.608961,0.1059 0.324948,0.095 0.599203,0.2513 0.820774,0.4765 0.224046,0.2227 0.403451,0.5449 0.529531,0.9002 l -1.720978,0.3707 c -0.08323,-0.2072 -0.219608,-0.3739 -0.397149,-0.4766 -0.174914,-0.1025 -0.372205,-0.1468 -0.635438,-0.1323 -0.392225,0.021 -0.734096,0.1731 -0.953157,0.4501 -0.21658,0.2743 -0.297545,0.7014 -0.264765,1.2708 0.03483,0.6052 0.174416,1.0242 0.423625,1.2709 0.251836,0.2466 0.584929,0.3671 1.00611,0.3442 0.200057,-0.011 0.404067,-0.04 0.582485,-0.1059 0.178408,-0.065 0.382432,-0.1704 0.608961,-0.3177 l -0.02648,-0.556 -1.217922,0.079 -0.05295,-1.165 2.78004,-0.1324 0.132383,2.3565 c -0.509063,0.3766 -0.976087,0.6452 -1.376782,0.7943 -0.398219,0.1463 -0.898154,0.2615 -1.456212,0.2912 -0.68705,0.037 -1.220662,-0.062 -1.668024,-0.2648 -0.444732,-0.203 -0.82024,-0.5185 -1.08554,-0.9531 -0.262668,-0.4347 -0.416737,-0.9296 -0.450102,-1.5092 -0.03512,-0.6103 0.08301,-1.151 0.317719,-1.6151 0.234557,-0.4665 0.596221,-0.8511 1.08554,-1.112 0.381831,-0.2016 0.898759,-0.3086 1.562118,-0.3442 C 29.747529,1022.9438 30.031268,1022.9197 30.27495,1022.9345 z m -4.130347,0.2912 0.317719,5.5866 -1.456211,0.079 -0.23829,-4.2627 -0.900203,4.3156 -1.323829,0.08 -1.376782,-4.1833 0.238289,4.2627 -1.456212,0.053 -0.317719,-5.56 2.356416,-0.1324 1.112016,3.336 0.714868,-3.4419 L 26.144603,1023.2257 z m -9.584521,0.4236 c 0.963439,-0.052 1.726945,0.1361 2.276985,0.609 0.549884,0.4704 0.848394,1.1916 0.900203,2.0916 0.0376,0.6535 -0.0599,1.1833 -0.264765,1.6151 -0.202392,0.429 -0.50844,0.7755 -0.92668,1.0326 -0.415763,0.2543 -0.919825,0.3889 -1.562118,0.4236 -0.65283,0.035 -1.227392,-0.034 -1.668024,-0.2118 -0.438006,-0.1781 -0.794649,-0.4798 -1.08554,-0.9002 -0.290891,-0.4206 -0.438969,-0.9617 -0.476578,-1.6151 -0.05253,-0.9127 0.164707,-1.6343 0.661914,-2.1711 C 14.912684,1023.9862 15.620324,1023.6993 16.560082,1023.6493 z m 0.07943,1.2974 c -0.360635,0.02 -0.642951,0.1653 -0.84725,0.4236 -0.204294,0.2583 -0.297546,0.6749 -0.264766,1.2444 0.03248,0.5645 0.167098,0.9564 0.397149,1.1914 0.232677,0.2346 0.55288,0.3646 0.926679,0.3442 0.384322,-0.021 0.650561,-0.1708 0.847251,-0.4236 0.196681,-0.2529 0.300766,-0.6984 0.264766,-1.3238 -0.0303,-0.5263 -0.188608,-0.9089 -0.423625,-1.1385 C 17.307178,1025.0321 17.015938,1024.9263 16.639512,1024.9467 z m 17.527495,2.0651 0.105907,1.4033 -1.615071,0.053 -0.07943,-1.3503 L 34.167006,1027.0118 z m 0.07943,1.6151 0.05295,0.7943 -0.132383,1.6416 -0.661915,0.026 -0.317719,-1.5886 -0.02648,-0.7943 L 34.246436,1028.6269 z m -2.674135,0.1059 c 0.465716,-0.025 0.80568,0.03 1.059063,0.1854 0.254967,0.1531 0.408951,0.4053 0.47658,0.7678 l -1.032588,0.1324 c -0.03739,-0.1569 -0.116473,-0.2773 -0.211813,-0.3442 -0.09368,-0.066 -0.238043,-0.088 -0.397148,-0.08 -0.130934,0.01 -0.228114,0.023 -0.291243,0.08 -0.06323,0.057 -0.08392,0.1347 -0.07943,0.2118 0.0033,0.056 0.04861,0.091 0.105906,0.1324 0.05573,0.044 0.16946,0.077 0.370672,0.1059 0.498191,0.076 0.867255,0.1705 1.085541,0.2647 0.219847,0.092 0.371421,0.2207 0.476577,0.3707 0.106814,0.15 0.174162,0.3109 0.185336,0.5031 0.01312,0.2256 -0.04067,0.4379 -0.158859,0.6354 -0.118202,0.1975 -0.303273,0.3647 -0.529531,0.4766 -0.226358,0.1103 -0.520712,0.1667 -0.873727,0.1853 -0.619855,0.034 -1.045291,-0.047 -1.297353,-0.2648 -0.252061,-0.2176 -0.397953,-0.52 -0.450102,-0.8737 l 1.085541,-0.1059 c 0.03297,0.1668 0.08247,0.2868 0.158859,0.3707 0.1243,0.1354 0.26112,0.1972 0.476578,0.1853 0.160762,-0.01 0.288675,-0.055 0.370672,-0.1324 0.08355,-0.078 0.137974,-0.1687 0.132383,-0.2647 -0.0052,-0.091 -0.07181,-0.1705 -0.15886,-0.2383 -0.08706,-0.068 -0.277124,-0.1114 -0.582484,-0.1589 -0.500131,-0.081 -0.838248,-0.2044 -1.059063,-0.3706 -0.222474,-0.1664 -0.354667,-0.3867 -0.370672,-0.662 -0.01052,-0.1808 0.03396,-0.3636 0.132383,-0.5295 0.09998,-0.1676 0.238292,-0.2941 0.450102,-0.3971 C 30.858995,1028.8133 31.192764,1028.7532 31.572302,1028.7328 z m -3.468432,0.2383 c 0.329813,-0.017 0.587085,0 0.794298,0.079 0.208878,0.075 0.387541,0.2163 0.529531,0.3707 0.141985,0.1546 0.245576,0.3182 0.317719,0.5295 0.07213,0.2113 0.11842,0.4484 0.132383,0.6884 0.02186,0.3763 -0.002,0.6608 -0.07943,0.8738 -0.07584,0.2112 -0.19494,0.3801 -0.344195,0.5295 -0.149356,0.1478 -0.298629,0.2618 -0.476579,0.3177 -0.243228,0.078 -0.461377,0.1214 -0.661914,0.1324 l -1.694501,0.079 -0.211813,-3.4949 L 28.10387,1028.9711 z m -3.468432,0.1853 c 0.348044,-0.019 0.63347,0 0.820774,0.053 0.187316,0.048 0.328278,0.1404 0.450102,0.2912 0.121722,0.1492 0.172306,0.3585 0.185336,0.5825 0.01135,0.1954 -0.0015,0.3294 -0.07943,0.4766 -0.078,0.1456 -0.198497,0.2745 -0.344196,0.3707 -0.09287,0.061 -0.205422,0.1122 -0.370672,0.1588 0.136755,0.036 0.227402,0.066 0.291242,0.1059 0.0431,0.026 0.10195,0.095 0.185336,0.1854 0.08504,0.09 0.129366,0.1618 0.15886,0.2118 l 0.635438,1.0061 -1.270876,0.053 -0.661915,-1.0326 c -0.08434,-0.1351 -0.176202,-0.2267 -0.23829,-0.2648 -0.08438,-0.05 -0.162009,-0.088 -0.264766,-0.079 L 24,1031.301 l 0.105906,1.4297 -1.138493,0.053 L 22.7556,1029.2624 24.635438,1029.1564 z m -3.94501,0.1589 c 0.606592,-0.033 1.083256,0.1 1.429736,0.3972 0.346394,0.2959 0.549535,0.7307 0.582484,1.2973 0.02392,0.4114 -0.03002,0.7342 -0.158859,1.0061 -0.127274,0.2702 -0.34572,0.4999 -0.608962,0.6619 -0.261683,0.1603 -0.601716,0.2692 -1.00611,0.2913 -0.411027,0.022 -0.728608,-0.047 -1.006108,-0.1589 -0.275847,-0.112 -0.505085,-0.2915 -0.688392,-0.556 -0.183307,-0.2647 -0.293801,-0.6211 -0.317718,-1.0326 -0.03342,-0.5746 0.08429,-1.0121 0.397148,-1.3503 C 19.626505,1029.5333 20.098748,1029.3475 20.690428,1029.3153 z m -1.668024,0.1324 -0.582484,3.5743 -1.112016,0.08 -0.767822,-2.1976 -0.503054,2.2505 -1.112016,0.053 -1.00611,-3.4685 1.059063,-0.053 0.503055,1.9328 0.450102,-1.9858 1.085539,-0.053 0.661915,1.9328 0.264766,-1.9858 L 19.022404,1029.4477 z m 8.843177,0.3177 -0.264766,0.026 0.105907,1.9328 0.291242,-0.027 c 0.235343,-0.013 0.406495,-0.051 0.503055,-0.1059 0.09647,-0.056 0.136238,-0.1368 0.185336,-0.2648 0.04906,-0.1294 0.06933,-0.3272 0.05295,-0.6089 -0.02169,-0.3731 -0.07785,-0.637 -0.211813,-0.7679 C 28.39353,1029.8196 28.157274,1029.7502 27.865581,1029.7654 z m -3.441955,0.1324 -0.476579,0.026 0.05295,0.6884 0.450101,-0.026 c 0.05138,0 0.145596,0.013 0.291243,-0.027 0.07374,-0.018 0.142373,-0.097 0.185336,-0.1589 0.04462,-0.062 0.05744,-0.1082 0.05295,-0.1853 -0.0066,-0.1136 -0.05427,-0.208 -0.132383,-0.2648 C 24.769131,1029.8948 24.629137,1029.8868 24.423626,1029.8978 z m -3.680244,0.2383 c -0.22706,0.012 -0.427462,0.1021 -0.556008,0.2647 -0.128531,0.1628 -0.179702,0.4357 -0.158859,0.7943 0.02066,0.3555 0.119834,0.5934 0.264766,0.7414 0.146587,0.1471 0.347137,0.2245 0.582484,0.2118 0.241973,-0.013 0.405781,-0.1055 0.529532,-0.2648 0.123739,-0.1592 0.181744,-0.4533 0.158859,-0.8472 -0.01927,-0.3313 -0.116709,-0.5439 -0.264765,-0.6884 C 21.152891,1030.2017 20.980382,1030.1234 20.74338,1030.1361 z m 13.608962,1.165 0.05295,0.8737 -1.006109,0.026 -0.05295,-0.8473 L 34.352343,1031.3011 Z"
       id="path3194-0"
       inkscape:connector-curvature="0" />
    <g
       transform="matrix(1.9350978,-0.10494996,0.10866101,1.8690084,7.095837,918.25566)"
       style="font-size:2.16666675px;font-style:normal;font-weight:normal;fill:#ffffff;fill-opacity:1;stroke:none;font-family:monospace;-inkscape-font-specification:monospace"
       id="text3204" />
  </g>
</svg>
