<?xml version="1.0" encoding="UTF-8" standalone="no"?>
<!-- Created with Inkscape (http://www.inkscape.org/) -->

<svg
   xmlns:dc="http://purl.org/dc/elements/1.1/"
   xmlns:cc="http://creativecommons.org/ns#"
   xmlns:rdf="http://www.w3.org/1999/02/22-rdf-syntax-ns#"
   xmlns:svg="http://www.w3.org/2000/svg"
   xmlns="http://www.w3.org/2000/svg"
   xmlns:xlink="http://www.w3.org/1999/xlink"
   xmlns:sodipodi="http://sodipodi.sourceforge.net/DTD/sodipodi-0.dtd"
   xmlns:inkscape="http://www.inkscape.org/namespaces/inkscape"
   width="48"
   height="48"
   id="svg2"
   version="1.1"
   inkscape:version="0.48+devel r12503"
   sodipodi:docname="qreator.svg"
   inkscape:export-filename="/home/uri/workspace/NitruxforAndroid/res/drawable-xhdpi/qr_droid.png"
   inkscape:export-xdpi="180"
   inkscape:export-ydpi="180">
  <defs
     id="defs4">
    <linearGradient
       id="linearGradient6125"
       inkscape:collect="always">
      <stop
         id="stop6127"
         offset="0"
         style="stop-color:#f81654;stop-opacity:1" />
      <stop
         id="stop6129"
         offset="1"
         style="stop-color:#fd668f;stop-opacity:1" />
    </linearGradient>
    <linearGradient
       gradientUnits="userSpaceOnUse"
       y2="1007.3821"
       x2="28.399813"
       y1="1049.3252"
       x1="28.399813"
       id="linearGradient6131"
       xlink:href="#linearGradient6125"
       inkscape:collect="always"
       gradientTransform="translate(0,4.7900391e-5)" />
  </defs>
  <sodipodi:namedview
     id="base"
     pagecolor="#ffffff"
     bordercolor="#666666"
     borderopacity="1.0"
     inkscape:pageopacity="0.0"
     inkscape:pageshadow="2"
     inkscape:zoom="2.0646671"
     inkscape:cx="33.896972"
     inkscape:cy="-4.0735164"
     inkscape:document-units="px"
     inkscape:current-layer="layer1"
     showgrid="false"
     inkscape:window-width="1366"
     inkscape:window-height="716"
     inkscape:window-x="0"
     inkscape:window-y="28"
     inkscape:window-maximized="1" />
  <metadata
     id="metadata7">
    <rdf:RDF>
      <cc:Work
         rdf:about="">
        <dc:format>image/svg+xml</dc:format>
        <dc:type
           rdf:resource="http://purl.org/dc/dcmitype/StillImage" />
        <dc:title />
      </cc:Work>
    </rdf:RDF>
  </metadata>
  <g
     inkscape:label="Capa 1"
     inkscape:groupmode="layer"
     id="layer1"
     transform="translate(0,-1004.3622)">
    <g
       id="text6110-1-8-2"
       style="font-size:220.81851196px;font-style:normal;font-weight:normal;line-height:125%;letter-spacing:0px;word-spacing:0px;fill:#fff8c1;fill-opacity:1;stroke:none;font-family:Sans"
       transform="matrix(0.04171372,0,0,0.04113493,-48.809893,998.2314)" />
    <rect
       style="fill:#000000;fill-opacity:0.01960784;stroke:none"
       id="rect5263"
       width="44.399963"
       height="44.399963"
       x="1.8000183"
       y="1006.1622"
       ry="6.2786646" />
    <rect
       ry="6.1938181"
       y="1006.4623"
       x="2.1000061"
       height="43.799973"
       width="43.799973"
       id="rect5261"
       style="fill:#000000;fill-opacity:0.03921569;stroke:none" />
    <rect
       style="fill:#000000;fill-opacity:0.07843137;stroke:none"
       id="rect5259"
       width="43.199982"
       height="43.199982"
       x="2.3999939"
       y="1006.7624"
       ry="6.1089716" />
    <rect
       ry="6.0241251"
       y="1007.0624"
       x="2.7000122"
       height="42.599991"
       width="42.599991"
       id="rect5257"
       style="fill:#000000;fill-opacity:0.15686275;stroke:none" />
    <rect
       style="fill:url(#linearGradient6131);fill-opacity:1;stroke:none"
       id="rect5237"
       width="42"
       height="42"
       x="3"
       y="1007.3622"
       ry="5.9392786" />
    <path
       inkscape:connector-curvature="0"
       style="fill:#000000;fill-opacity:0.11764706;stroke:none"
       d="m 2.9999991,1040.9247 0,2.5 c 0,3.2904 2.64714,5.9375 5.9375,5.9375 l 30.1249999,0 c 3.29036,0 5.9375,-2.6471 5.9375,-5.9375 l 0,-2.5 c 0,3.2904 -2.64714,5.9375 -5.9375,5.9375 l -30.1249999,0 c -3.29036,0 -5.9375,-2.6471 -5.9375,-5.9375 z"
       id="rect5265" />
    <path
       inkscape:connector-curvature="0"
       style="fill:#000000;fill-opacity:0.09803922;stroke:none"
       d="m 2.9999991,1042.9247 0,0.5 c 0,3.2904 2.64714,5.9375 5.9375,5.9375 l 30.1249999,0 c 3.29036,0 5.9375,-2.6471 5.9375,-5.9375 l 0,-0.5 c 0,3.2904 -2.64714,5.9375 -5.9375,5.9375 l -30.1249999,0 c -3.29036,0 -5.9375,-2.6471 -5.9375,-5.9375 z"
       id="path5252" />
    <rect
       ry="0"
       y="1027.6122"
       x="11"
       height="1.5000008"
       width="26"
       id="rect4130"
       style="fill:#000000;fill-opacity:0.49803922;stroke:none" />
    <path
       style="fill:#000000;fill-opacity:0.49803922"
       d="M 11 11 L 11 14.138672 L 11 17.275391 L 14.138672 17.275391 L 17.275391 17.275391 L 17.275391 14.138672 L 17.275391 11 L 14.138672 11 L 11 11 z M 20.861328 11 L 20.861328 11.447266 L 20.861328 11.896484 L 20.414062 11.896484 L 19.964844 11.896484 L 19.964844 12.345703 L 19.964844 12.792969 L 19.517578 12.792969 L 19.068359 12.792969 L 19.068359 12.345703 L 19.068359 11.896484 L 18.621094 11.896484 L 18.171875 11.896484 L 18.171875 13.242188 L 18.171875 14.585938 L 18.621094 14.585938 L 19.068359 14.585938 L 19.068359 15.482422 L 19.068359 16.378906 L 19.517578 16.378906 L 19.964844 16.378906 L 19.964844 16.828125 L 19.964844 17.275391 L 20.414062 17.275391 L 20.861328 17.275391 L 20.861328 16.828125 L 20.861328 16.378906 L 21.310547 16.378906 L 21.757812 16.378906 L 21.757812 16.828125 L 21.757812 17.275391 L 21.310547 17.275391 L 20.861328 17.275391 L 20.861328 17.724609 L 20.861328 18.171875 L 21.310547 18.171875 L 21.757812 18.171875 L 21.757812 18.621094 L 21.757812 19.068359 L 22.207031 19.068359 L 22.654297 19.068359 L 22.654297 16.378906 L 22.654297 13.689453 L 23.103516 13.689453 L 23.550781 13.689453 L 23.550781 13.242188 L 23.550781 12.792969 L 24 12.792969 L 24.449219 12.792969 L 24.449219 12.345703 L 24.449219 11.896484 L 23.103516 11.896484 L 21.757812 11.896484 L 21.757812 11.447266 L 21.757812 11 L 21.310547 11 L 20.861328 11 z M 24.449219 11.896484 L 24.896484 11.896484 L 25.345703 11.896484 L 25.345703 12.345703 L 25.345703 12.792969 L 25.792969 12.792969 L 26.242188 12.792969 L 26.242188 11.896484 L 26.242188 11 L 25.345703 11 L 24.449219 11 L 24.449219 11.447266 L 24.449219 11.896484 z M 25.345703 12.792969 L 24.896484 12.792969 L 24.449219 12.792969 L 24.449219 13.242188 L 24.449219 13.689453 L 24.896484 13.689453 L 25.345703 13.689453 L 25.345703 13.242188 L 25.345703 12.792969 z M 25.345703 13.689453 L 25.345703 14.138672 L 25.345703 14.585938 L 24.896484 14.585938 L 24.449219 14.585938 L 24.449219 15.482422 L 24.449219 16.378906 L 24.896484 16.378906 L 25.345703 16.378906 L 25.345703 15.931641 L 25.345703 15.482422 L 25.792969 15.482422 L 26.242188 15.482422 L 26.242188 15.035156 L 26.242188 14.585938 L 26.689453 14.585938 L 27.138672 14.585938 L 27.138672 14.138672 L 27.138672 13.689453 L 26.242188 13.689453 L 25.345703 13.689453 z M 27.138672 14.585938 L 27.138672 15.931641 L 27.138672 17.275391 L 27.585938 17.275391 L 28.035156 17.275391 L 28.035156 16.378906 L 28.035156 15.482422 L 28.482422 15.482422 L 28.931641 15.482422 L 28.931641 16.828125 L 28.931641 18.171875 L 29.378906 18.171875 L 29.828125 18.171875 L 29.828125 16.378906 L 29.828125 14.585938 L 28.482422 14.585938 L 27.138672 14.585938 z M 29.828125 18.171875 L 29.828125 18.621094 L 29.828125 19.068359 L 30.724609 19.068359 L 31.621094 19.068359 L 31.621094 18.621094 L 31.621094 18.171875 L 30.724609 18.171875 L 29.828125 18.171875 z M 31.621094 19.068359 L 31.621094 19.517578 L 31.621094 19.964844 L 31.171875 19.964844 L 30.724609 19.964844 L 30.724609 21.310547 L 30.724609 22.5 L 32.517578 22.5 L 32.517578 22.207031 L 32.517578 21.757812 L 32.068359 21.757812 L 31.621094 21.757812 L 31.621094 21.310547 L 31.621094 20.861328 L 32.068359 20.861328 L 32.517578 20.861328 L 32.517578 21.310547 L 32.517578 21.757812 L 32.964844 21.757812 L 33.414062 21.757812 L 33.414062 20.414062 L 33.414062 19.068359 L 32.517578 19.068359 L 31.621094 19.068359 z M 33.414062 19.068359 L 33.861328 19.068359 L 34.310547 19.068359 L 34.310547 19.517578 L 34.310547 19.964844 L 35.207031 19.964844 L 36.103516 19.964844 L 36.103516 19.068359 L 36.103516 18.171875 L 34.757812 18.171875 L 33.414062 18.171875 L 33.414062 18.621094 L 33.414062 19.068359 z M 25.345703 16.378906 L 25.345703 16.828125 L 25.345703 17.275391 L 24.896484 17.275391 L 24.449219 17.275391 L 24.449219 16.828125 L 24.449219 16.378906 L 24 16.378906 L 23.550781 16.378906 L 23.550781 17.275391 L 23.550781 18.171875 L 24.896484 18.171875 L 26.242188 18.171875 L 26.242188 17.275391 L 26.242188 16.378906 L 25.792969 16.378906 L 25.345703 16.378906 z M 26.242188 18.171875 L 26.242188 18.621094 L 26.242188 19.068359 L 25.792969 19.068359 L 25.345703 19.068359 L 25.345703 19.517578 L 25.345703 19.964844 L 24.449219 19.964844 L 23.550781 19.964844 L 23.550781 19.517578 L 23.550781 19.068359 L 23.103516 19.068359 L 22.654297 19.068359 L 22.654297 19.517578 L 22.654297 19.964844 L 22.207031 19.964844 L 21.757812 19.964844 L 21.757812 20.414062 L 21.757812 20.861328 L 22.207031 20.861328 L 22.654297 20.861328 L 22.654297 21.310547 L 22.654297 21.757812 L 22.207031 21.757812 L 21.757812 21.757812 L 21.757812 22.207031 L 21.757812 22.5 L 23.550781 22.5 L 23.550781 21.757812 L 23.550781 20.861328 L 24 20.861328 L 24.449219 20.861328 L 24.449219 21.310547 L 24.449219 21.757812 L 24.896484 21.757812 L 25.345703 21.757812 L 25.345703 22.207031 L 25.345703 22.5 L 26.242188 22.5 L 26.242188 21.757812 L 26.242188 20.861328 L 26.689453 20.861328 L 27.138672 20.861328 L 27.138672 20.414062 L 27.138672 19.964844 L 28.035156 19.964844 L 28.931641 19.964844 L 28.931641 19.517578 L 28.931641 19.068359 L 28.035156 19.068359 L 27.138672 19.068359 L 27.138672 18.621094 L 27.138672 18.171875 L 26.689453 18.171875 L 26.242188 18.171875 z M 27.138672 20.861328 L 27.138672 21.310547 L 27.138672 21.757812 L 27.585938 21.757812 L 28.035156 21.757812 L 28.035156 21.310547 L 28.035156 20.861328 L 27.585938 20.861328 L 27.138672 20.861328 z M 28.035156 21.757812 L 28.035156 22.5 L 29.828125 22.5 L 29.828125 21.757812 L 29.828125 20.861328 L 29.378906 20.861328 L 28.931641 20.861328 L 28.931641 21.310547 L 28.931641 21.757812 L 28.482422 21.757812 L 28.035156 21.757812 z M 21.757812 21.757812 L 21.757812 21.310547 L 21.757812 20.861328 L 20.861328 20.861328 L 19.964844 20.861328 L 19.964844 20.414062 L 19.964844 19.964844 L 18.171875 19.964844 L 16.378906 19.964844 L 16.378906 19.517578 L 16.378906 19.068359 L 15.931641 19.068359 L 15.482422 19.068359 L 15.482422 19.964844 L 15.482422 20.861328 L 16.378906 20.861328 L 17.275391 20.861328 L 17.275391 21.310547 L 17.275391 21.757812 L 17.724609 21.757812 L 18.171875 21.757812 L 18.171875 21.310547 L 18.171875 20.861328 L 18.621094 20.861328 L 19.068359 20.861328 L 19.068359 21.310547 L 19.068359 21.757812 L 19.517578 21.757812 L 19.964844 21.757812 L 19.964844 22.207031 L 19.964844 22.5 L 20.861328 22.5 L 20.861328 22.207031 L 20.861328 21.757812 L 21.310547 21.757812 L 21.757812 21.757812 z M 19.068359 21.757812 L 18.621094 21.757812 L 18.171875 21.757812 L 18.171875 22.5 L 19.068359 22.5 L 19.068359 22.207031 L 19.068359 21.757812 z M 17.275391 21.757812 L 16.378906 21.757812 L 15.482422 21.757812 L 15.482422 22.207031 L 15.482422 22.5 L 17.275391 22.5 L 17.275391 22.207031 L 17.275391 21.757812 z M 15.482422 21.757812 L 15.482422 21.310547 L 15.482422 20.861328 L 15.035156 20.861328 L 14.585938 20.861328 L 14.585938 21.310547 L 14.585938 21.757812 L 15.035156 21.757812 L 15.482422 21.757812 z M 14.585938 21.757812 L 14.138672 21.757812 L 13.689453 21.757812 L 13.689453 22.207031 L 13.689453 22.5 L 14.585938 22.5 L 14.585938 22.207031 L 14.585938 21.757812 z M 14.585938 20.861328 L 14.585938 19.964844 L 14.585938 19.068359 L 13.689453 19.068359 L 12.792969 19.068359 L 12.792969 19.517578 L 12.792969 19.964844 L 13.242188 19.964844 L 13.689453 19.964844 L 13.689453 20.414062 L 13.689453 20.861328 L 14.138672 20.861328 L 14.585938 20.861328 z M 12.792969 19.964844 L 11.896484 19.964844 L 11 19.964844 L 11 20.861328 L 11 21.757812 L 11.449219 21.757812 L 11.896484 21.757812 L 11.896484 21.310547 L 11.896484 20.861328 L 12.345703 20.861328 L 12.792969 20.861328 L 12.792969 20.414062 L 12.792969 19.964844 z M 11.896484 21.757812 L 11.896484 22.207031 L 11.896484 22.5 L 12.792969 22.5 L 12.792969 22.207031 L 12.792969 21.757812 L 12.345703 21.757812 L 11.896484 21.757812 z M 16.378906 19.068359 L 16.828125 19.068359 L 17.275391 19.068359 L 17.275391 18.621094 L 17.275391 18.171875 L 16.828125 18.171875 L 16.378906 18.171875 L 16.378906 18.621094 L 16.378906 19.068359 z M 19.964844 19.964844 L 20.861328 19.964844 L 21.757812 19.964844 L 21.757812 19.517578 L 21.757812 19.068359 L 20.861328 19.068359 L 19.964844 19.068359 L 19.964844 19.517578 L 19.964844 19.964844 z M 19.964844 19.068359 L 19.964844 18.171875 L 19.964844 17.275391 L 19.517578 17.275391 L 19.068359 17.275391 L 19.068359 16.828125 L 19.068359 16.378906 L 18.621094 16.378906 L 18.171875 16.378906 L 18.171875 17.724609 L 18.171875 19.068359 L 19.068359 19.068359 L 19.964844 19.068359 z M 27.138672 11 L 27.138672 11.896484 L 27.138672 12.792969 L 27.585938 12.792969 L 28.035156 12.792969 L 28.035156 11.896484 L 28.035156 11 L 27.585938 11 L 27.138672 11 z M 28.035156 12.792969 L 28.035156 13.242188 L 28.035156 13.689453 L 28.931641 13.689453 L 29.828125 13.689453 L 29.828125 13.242188 L 29.828125 12.792969 L 28.931641 12.792969 L 28.035156 12.792969 z M 30.724609 11 L 30.724609 14.138672 L 30.724609 17.275391 L 33.861328 17.275391 L 37 17.275391 L 37 14.138672 L 37 11 L 33.861328 11 L 30.724609 11 z M 11.896484 11.896484 L 14.138672 11.896484 L 16.378906 11.896484 L 16.378906 14.138672 L 16.378906 16.378906 L 14.138672 16.378906 L 11.896484 16.378906 L 11.896484 14.138672 L 11.896484 11.896484 z M 31.621094 11.896484 L 33.861328 11.896484 L 36.103516 11.896484 L 36.103516 14.138672 L 36.103516 16.378906 L 33.861328 16.378906 L 31.621094 16.378906 L 31.621094 14.138672 L 31.621094 11.896484 z M 12.792969 12.792969 L 12.792969 14.138672 L 12.792969 15.482422 L 14.138672 15.482422 L 15.482422 15.482422 L 15.482422 14.138672 L 15.482422 12.792969 L 14.138672 12.792969 L 12.792969 12.792969 z M 32.517578 12.792969 L 32.517578 14.138672 L 32.517578 15.482422 L 33.861328 15.482422 L 35.207031 15.482422 L 35.207031 14.138672 L 35.207031 12.792969 L 33.861328 12.792969 L 32.517578 12.792969 z M 20.861328 13.689453 L 21.310547 13.689453 L 21.757812 13.689453 L 21.757812 14.138672 L 21.757812 14.585938 L 21.310547 14.585938 L 20.861328 14.585938 L 20.861328 15.035156 L 20.861328 15.482422 L 20.414062 15.482422 L 19.964844 15.482422 L 19.964844 15.035156 L 19.964844 14.585938 L 20.414062 14.585938 L 20.861328 14.585938 L 20.861328 14.138672 L 20.861328 13.689453 z M 11 18.171875 L 11 18.621094 L 11 19.068359 L 11.449219 19.068359 L 11.896484 19.068359 L 11.896484 18.621094 L 11.896484 18.171875 L 11.449219 18.171875 L 11 18.171875 z M 36.103516 21.757812 L 36.103516 22.207031 L 36.103516 22.5 L 37 22.5 L 37 21.757812 L 36.550781 21.757812 L 36.103516 21.757812 z M 11 25.5 L 11 26.242188 L 11.449219 26.242188 L 11.896484 26.242188 L 11.896484 25.5 L 11 25.5 z M 12.792969 25.5 L 12.792969 26.242188 L 12.792969 27.138672 L 13.242188 27.138672 L 13.689453 27.138672 L 13.689453 26.689453 L 13.689453 26.242188 L 14.138672 26.242188 L 14.585938 26.242188 L 14.585938 25.792969 L 14.585938 25.5 L 12.792969 25.5 z M 14.585938 26.242188 L 14.585938 26.689453 L 14.585938 27.138672 L 14.138672 27.138672 L 13.689453 27.138672 L 13.689453 27.585938 L 13.689453 28.035156 L 14.138672 28.035156 L 14.585938 28.035156 L 14.585938 28.482422 L 14.585938 28.931641 L 15.035156 28.931641 L 15.482422 28.931641 L 15.482422 28.482422 L 15.482422 28.035156 L 16.378906 28.035156 L 17.275391 28.035156 L 17.275391 27.585938 L 17.275391 27.138672 L 16.828125 27.138672 L 16.378906 27.138672 L 16.378906 26.689453 L 16.378906 26.242188 L 15.482422 26.242188 L 14.585938 26.242188 z M 16.378906 26.242188 L 16.828125 26.242188 L 17.275391 26.242188 L 17.275391 25.792969 L 17.275391 25.5 L 16.378906 25.5 L 16.378906 25.792969 L 16.378906 26.242188 z M 17.275391 28.035156 L 17.275391 28.482422 L 17.275391 28.931641 L 16.378906 28.931641 L 15.482422 28.931641 L 15.482422 29.378906 L 15.482422 29.828125 L 16.828125 29.828125 L 18.171875 29.828125 L 18.171875 28.931641 L 18.171875 28.035156 L 17.724609 28.035156 L 17.275391 28.035156 z M 18.171875 28.035156 L 18.621094 28.035156 L 19.068359 28.035156 L 19.068359 28.931641 L 19.068359 29.828125 L 19.517578 29.828125 L 19.964844 29.828125 L 19.964844 30.275391 L 19.964844 30.724609 L 20.414062 30.724609 L 20.861328 30.724609 L 20.861328 29.828125 L 20.861328 28.931641 L 20.414062 28.931641 L 19.964844 28.931641 L 19.964844 28.482422 L 19.964844 28.035156 L 20.414062 28.035156 L 20.861328 28.035156 L 20.861328 26.689453 L 20.861328 25.5 L 19.964844 25.5 L 19.964844 26.242188 L 19.964844 27.138672 L 19.068359 27.138672 L 18.171875 27.138672 L 18.171875 27.585938 L 18.171875 28.035156 z M 20.861328 28.035156 L 20.861328 28.482422 L 20.861328 28.931641 L 21.310547 28.931641 L 21.757812 28.931641 L 21.757812 28.482422 L 21.757812 28.035156 L 21.310547 28.035156 L 20.861328 28.035156 z M 21.757812 28.035156 L 22.207031 28.035156 L 22.654297 28.035156 L 22.654297 27.585938 L 22.654297 27.138672 L 22.207031 27.138672 L 21.757812 27.138672 L 21.757812 27.585938 L 21.757812 28.035156 z M 22.654297 27.138672 L 23.550781 27.138672 L 24.449219 27.138672 L 24.449219 28.035156 L 24.449219 28.931641 L 25.345703 28.931641 L 26.242188 28.931641 L 26.242188 28.482422 L 26.242188 28.035156 L 25.792969 28.035156 L 25.345703 28.035156 L 25.345703 27.585938 L 25.345703 27.138672 L 25.792969 27.138672 L 26.242188 27.138672 L 26.242188 26.689453 L 26.242188 26.242188 L 24.449219 26.242188 L 22.654297 26.242188 L 22.654297 26.689453 L 22.654297 27.138672 z M 22.654297 26.242188 L 22.654297 25.5 L 21.757812 25.5 L 21.757812 26.242188 L 22.207031 26.242188 L 22.654297 26.242188 z M 26.242188 26.242188 L 26.689453 26.242188 L 27.138672 26.242188 L 27.138672 25.792969 L 27.138672 25.5 L 26.242188 25.5 L 26.242188 25.792969 L 26.242188 26.242188 z M 27.138672 26.242188 L 27.138672 26.689453 L 27.138672 27.138672 L 26.689453 27.138672 L 26.242188 27.138672 L 26.242188 27.585938 L 26.242188 28.035156 L 27.585938 28.035156 L 28.931641 28.035156 L 28.931641 26.242188 L 28.931641 25.5 L 28.035156 25.5 L 28.035156 25.792969 L 28.035156 26.242188 L 27.585938 26.242188 L 27.138672 26.242188 z M 26.242188 28.931641 L 26.242188 29.378906 L 26.242188 29.828125 L 26.689453 29.828125 L 27.138672 29.828125 L 27.138672 29.378906 L 27.138672 28.931641 L 26.689453 28.931641 L 26.242188 28.931641 z M 24.449219 28.931641 L 24 28.931641 L 23.550781 28.931641 L 23.550781 29.828125 L 23.550781 30.724609 L 24 30.724609 L 24.449219 30.724609 L 24.449219 31.171875 L 24.449219 31.621094 L 24 31.621094 L 23.550781 31.621094 L 23.550781 32.068359 L 23.550781 32.517578 L 23.103516 32.517578 L 22.654297 32.517578 L 22.654297 32.964844 L 22.654297 33.414062 L 23.103516 33.414062 L 23.550781 33.414062 L 23.550781 33.861328 L 23.550781 34.310547 L 23.103516 34.310547 L 22.654297 34.310547 L 22.654297 33.861328 L 22.654297 33.414062 L 22.207031 33.414062 L 21.757812 33.414062 L 21.757812 34.310547 L 21.757812 35.207031 L 21.310547 35.207031 L 20.861328 35.207031 L 20.861328 35.654297 L 20.861328 36.103516 L 20.414062 36.103516 L 19.964844 36.103516 L 19.964844 36.552734 L 19.964844 37 L 20.861328 37 L 21.757812 37 L 21.757812 36.552734 L 21.757812 36.103516 L 23.550781 36.103516 L 25.345703 36.103516 L 25.345703 35.207031 L 25.345703 34.310547 L 25.792969 34.310547 L 26.242188 34.310547 L 26.242188 33.414062 L 26.242188 32.517578 L 25.792969 32.517578 L 25.345703 32.517578 L 25.345703 32.068359 L 25.345703 31.621094 L 26.242188 31.621094 L 27.138672 31.621094 L 27.138672 32.068359 L 27.138672 32.517578 L 27.585938 32.517578 L 28.035156 32.517578 L 28.035156 32.068359 L 28.035156 31.621094 L 28.482422 31.621094 L 28.931641 31.621094 L 28.931641 32.068359 L 28.931641 32.517578 L 28.482422 32.517578 L 28.035156 32.517578 L 28.035156 33.414062 L 28.035156 34.310547 L 28.482422 34.310547 L 28.931641 34.310547 L 28.931641 34.757812 L 28.931641 35.207031 L 29.378906 35.207031 L 29.828125 35.207031 L 29.828125 34.310547 L 29.828125 33.414062 L 30.724609 33.414062 L 31.621094 33.414062 L 31.621094 33.861328 L 31.621094 34.310547 L 31.171875 34.310547 L 30.724609 34.310547 L 30.724609 34.757812 L 30.724609 35.207031 L 30.275391 35.207031 L 29.828125 35.207031 L 29.828125 35.654297 L 29.828125 36.103516 L 30.275391 36.103516 L 30.724609 36.103516 L 30.724609 36.552734 L 30.724609 37 L 32.068359 37 L 33.414062 37 L 33.414062 36.552734 L 33.414062 36.103516 L 33.861328 36.103516 L 34.310547 36.103516 L 34.310547 36.552734 L 34.310547 37 L 34.757812 37 L 35.207031 37 L 35.207031 36.103516 L 35.207031 35.207031 L 34.310547 35.207031 L 33.414062 35.207031 L 33.414062 34.757812 L 33.414062 34.310547 L 32.964844 34.310547 L 32.517578 34.310547 L 32.517578 33.861328 L 32.517578 33.414062 L 32.964844 33.414062 L 33.414062 33.414062 L 33.414062 33.861328 L 33.414062 34.310547 L 33.861328 34.310547 L 34.310547 34.310547 L 34.310547 32.964844 L 34.310547 31.621094 L 34.757812 31.621094 L 35.207031 31.621094 L 35.207031 31.171875 L 35.207031 30.724609 L 34.757812 30.724609 L 34.310547 30.724609 L 34.310547 30.275391 L 34.310547 29.828125 L 33.861328 29.828125 L 33.414062 29.828125 L 33.414062 28.931641 L 33.414062 28.035156 L 32.964844 28.035156 L 32.517578 28.035156 L 32.517578 27.585938 L 32.517578 27.138672 L 34.310547 27.138672 L 36.103516 27.138672 L 36.103516 27.585938 L 36.103516 28.035156 L 36.550781 28.035156 L 37 28.035156 L 37 27.138672 L 37 26.242188 L 36.103516 26.242188 L 35.207031 26.242188 L 35.207031 25.5 L 34.310547 25.5 L 34.310547 26.242188 L 32.517578 26.242188 L 30.724609 26.242188 L 30.724609 26.689453 L 30.724609 27.138672 L 31.171875 27.138672 L 31.621094 27.138672 L 31.621094 27.585938 L 31.621094 28.035156 L 31.171875 28.035156 L 30.724609 28.035156 L 30.724609 28.482422 L 30.724609 28.931641 L 29.828125 28.931641 L 28.931641 28.931641 L 28.931641 29.378906 L 28.931641 29.828125 L 28.482422 29.828125 L 28.035156 29.828125 L 28.035156 30.275391 L 28.035156 30.724609 L 26.689453 30.724609 L 25.345703 30.724609 L 25.345703 30.275391 L 25.345703 29.828125 L 24.896484 29.828125 L 24.449219 29.828125 L 24.449219 29.378906 L 24.449219 28.931641 z M 34.310547 29.828125 L 35.654297 29.828125 L 37 29.828125 L 37 29.378906 L 37 28.931641 L 35.654297 28.931641 L 34.310547 28.931641 L 34.310547 29.378906 L 34.310547 29.828125 z M 35.207031 35.207031 L 35.654297 35.207031 L 36.103516 35.207031 L 36.103516 34.757812 L 36.103516 34.310547 L 35.654297 34.310547 L 35.207031 34.310547 L 35.207031 34.757812 L 35.207031 35.207031 z M 36.103516 34.310547 L 36.550781 34.310547 L 37 34.310547 L 37 32.964844 L 37 31.621094 L 36.550781 31.621094 L 36.103516 31.621094 L 36.103516 32.068359 L 36.103516 32.517578 L 35.654297 32.517578 L 35.207031 32.517578 L 35.207031 32.964844 L 35.207031 33.414062 L 35.654297 33.414062 L 36.103516 33.414062 L 36.103516 33.861328 L 36.103516 34.310547 z M 36.103516 35.207031 L 36.103516 35.654297 L 36.103516 36.103516 L 36.550781 36.103516 L 37 36.103516 L 37 35.654297 L 37 35.207031 L 36.550781 35.207031 L 36.103516 35.207031 z M 19.964844 36.103516 L 19.964844 35.654297 L 19.964844 35.207031 L 19.517578 35.207031 L 19.068359 35.207031 L 19.068359 35.654297 L 19.068359 36.103516 L 19.517578 36.103516 L 19.964844 36.103516 z M 19.068359 36.103516 L 18.621094 36.103516 L 18.171875 36.103516 L 18.171875 36.552734 L 18.171875 37 L 18.621094 37 L 19.068359 37 L 19.068359 36.552734 L 19.068359 36.103516 z M 19.964844 35.207031 L 20.414062 35.207031 L 20.861328 35.207031 L 20.861328 34.757812 L 20.861328 34.310547 L 20.414062 34.310547 L 19.964844 34.310547 L 19.964844 34.757812 L 19.964844 35.207031 z M 22.654297 32.517578 L 22.654297 32.068359 L 22.654297 31.621094 L 22.207031 31.621094 L 21.757812 31.621094 L 21.757812 31.171875 L 21.757812 30.724609 L 21.310547 30.724609 L 20.861328 30.724609 L 20.861328 31.621094 L 20.861328 32.517578 L 21.757812 32.517578 L 22.654297 32.517578 z M 23.550781 28.931641 L 23.550781 28.482422 L 23.550781 28.035156 L 23.103516 28.035156 L 22.654297 28.035156 L 22.654297 28.482422 L 22.654297 28.931641 L 23.103516 28.931641 L 23.550781 28.931641 z M 19.068359 29.828125 L 18.621094 29.828125 L 18.171875 29.828125 L 18.171875 30.275391 L 18.171875 30.724609 L 18.621094 30.724609 L 19.068359 30.724609 L 19.068359 30.275391 L 19.068359 29.828125 z M 18.171875 25.5 L 18.171875 25.792969 L 18.171875 26.242188 L 18.621094 26.242188 L 19.068359 26.242188 L 19.068359 25.792969 L 19.068359 25.5 L 18.171875 25.5 z M 11.896484 28.035156 L 11.896484 28.931641 L 11.896484 29.828125 L 12.345703 29.828125 L 12.792969 29.828125 L 12.792969 28.931641 L 12.792969 28.035156 L 12.345703 28.035156 L 11.896484 28.035156 z M 29.828125 29.828125 L 31.171875 29.828125 L 32.517578 29.828125 L 32.517578 31.171875 L 32.517578 32.517578 L 31.171875 32.517578 L 29.828125 32.517578 L 29.828125 31.171875 L 29.828125 29.828125 z M 11 30.724609 L 11 33.861328 L 11 37 L 14.138672 37 L 17.275391 37 L 17.275391 33.861328 L 17.275391 30.724609 L 14.138672 30.724609 L 11 30.724609 z M 30.724609 30.724609 L 30.724609 31.171875 L 30.724609 31.621094 L 31.171875 31.621094 L 31.621094 31.621094 L 31.621094 31.171875 L 31.621094 30.724609 L 31.171875 30.724609 L 30.724609 30.724609 z M 11.896484 31.621094 L 14.138672 31.621094 L 16.378906 31.621094 L 16.378906 33.861328 L 16.378906 36.103516 L 14.138672 36.103516 L 11.896484 36.103516 L 11.896484 33.861328 L 11.896484 31.621094 z M 12.792969 32.517578 L 12.792969 33.861328 L 12.792969 35.207031 L 14.138672 35.207031 L 15.482422 35.207031 L 15.482422 33.861328 L 15.482422 32.517578 L 14.138672 32.517578 L 12.792969 32.517578 z M 19.068359 32.517578 L 19.068359 32.964844 L 19.068359 33.414062 L 19.517578 33.414062 L 19.964844 33.414062 L 19.964844 32.964844 L 19.964844 32.517578 L 19.517578 32.517578 L 19.068359 32.517578 z M 27.138672 35.207031 L 27.138672 35.654297 L 27.138672 36.103516 L 26.689453 36.103516 L 26.242188 36.103516 L 26.242188 36.552734 L 26.242188 37 L 27.585938 37 L 28.931641 37 L 28.931641 36.552734 L 28.931641 36.103516 L 28.482422 36.103516 L 28.035156 36.103516 L 28.035156 35.654297 L 28.035156 35.207031 L 27.585938 35.207031 L 27.138672 35.207031 z "
       transform="translate(0,1004.3622)"
       id="path849" />
  </g>
</svg>
