<?xml version="1.0" encoding="UTF-8" standalone="no"?>
<!-- Created with Inkscape (http://www.inkscape.org/) -->

<svg
   xmlns:dc="http://purl.org/dc/elements/1.1/"
   xmlns:cc="http://creativecommons.org/ns#"
   xmlns:rdf="http://www.w3.org/1999/02/22-rdf-syntax-ns#"
   xmlns:svg="http://www.w3.org/2000/svg"
   xmlns="http://www.w3.org/2000/svg"
   xmlns:xlink="http://www.w3.org/1999/xlink"
   xmlns:sodipodi="http://sodipodi.sourceforge.net/DTD/sodipodi-0.dtd"
   xmlns:inkscape="http://www.inkscape.org/namespaces/inkscape"
   width="48"
   height="48"
   id="svg4230"
   version="1.1"
   inkscape:version="0.48+devel r12392"
   sodipodi:docname="scanner.svg">
  <defs
     id="defs4232">
    <linearGradient
       inkscape:collect="always"
       id="linearGradient5347">
      <stop
         style="stop-color:#8e3fd0;stop-opacity:1"
         offset="0"
         id="stop5349" />
      <stop
         style="stop-color:#cf7ae6;stop-opacity:1"
         offset="1"
         id="stop5351" />
    </linearGradient>
    <linearGradient
       inkscape:collect="always"
       xlink:href="#linearGradient5347"
       id="linearGradient5353"
       x1="28.728134"
       y1="1049.4073"
       x2="28.728134"
       y2="1007.5463"
       gradientUnits="userSpaceOnUse" />
    <clipPath
       clipPathUnits="userSpaceOnUse"
       id="clipPath4050">
      <path
         inkscape:connector-curvature="0"
         d="m 205,114 22,0 0,14 -22,0 L 205,114 Z"
         id="path4052" />
    </clipPath>
    <clipPath
       clipPathUnits="userSpaceOnUse"
       id="clipPath4054">
      <path
         inkscape:connector-curvature="0"
         d="m 205,114 22,0 0,14 -22,0 L 205,114 Z"
         id="path4056" />
    </clipPath>
  </defs>
  <sodipodi:namedview
     id="base"
     pagecolor="#ffffff"
     bordercolor="#666666"
     borderopacity="1.0"
     inkscape:pageopacity="0.0"
     inkscape:pageshadow="2"
     inkscape:zoom="6.5991097"
     inkscape:cx="5.3572179"
     inkscape:cy="39.078214"
     inkscape:document-units="px"
     inkscape:current-layer="layer1"
     showgrid="false"
     inkscape:showpageshadow="false"
     borderlayer="true"
     inkscape:window-width="1366"
     inkscape:window-height="715"
     inkscape:window-x="0"
     inkscape:window-y="30"
     inkscape:window-maximized="1" />
  <metadata
     id="metadata4235">
    <rdf:RDF>
      <cc:Work
         rdf:about="">
        <dc:format>image/svg+xml</dc:format>
        <dc:type
           rdf:resource="http://purl.org/dc/dcmitype/StillImage" />
        <dc:title></dc:title>
      </cc:Work>
    </rdf:RDF>
  </metadata>
  <g
     inkscape:label="Capa 1"
     inkscape:groupmode="layer"
     id="layer1"
     transform="translate(0,-1004.3622)">
    <rect
       style="fill:#000000;fill-opacity:0.01960784;stroke:none"
       id="rect5263"
       width="44.399963"
       height="44.399963"
       x="1.8000183"
       y="1006.1622"
       ry="6.2786646" />
    <rect
       ry="6.1938181"
       y="1006.4623"
       x="2.1000061"
       height="43.799973"
       width="43.799973"
       id="rect5261"
       style="fill:#000000;fill-opacity:0.03921569;stroke:none" />
    <rect
       style="fill:#000000;fill-opacity:0.07843137;stroke:none"
       id="rect5259"
       width="43.199982"
       height="43.199982"
       x="2.3999939"
       y="1006.7623"
       ry="6.1089716" />
    <rect
       ry="6.0241251"
       y="1007.0623"
       x="2.7000122"
       height="42.599991"
       width="42.599991"
       id="rect5257"
       style="fill:#000000;fill-opacity:0.15686275;stroke:none" />
    <rect
       style="fill:url(#linearGradient5353);fill-opacity:1;stroke:none"
       id="rect5237"
       width="42"
       height="42"
       x="3"
       y="1007.3622"
       ry="5.9392786" />
    <path
       inkscape:connector-curvature="0"
       style="fill:#000000;fill-opacity:0.11764706;stroke:none"
       d="m 2.9999991,1040.9247 0,2.5 c 0,3.2904 2.64714,5.9375 5.9375,5.9375 l 30.1249999,0 c 3.29036,0 5.9375,-2.6471 5.9375,-5.9375 l 0,-2.5 c 0,3.2904 -2.64714,5.9375 -5.9375,5.9375 l -30.1249999,0 C 5.6471391,1046.8622 2.9999991,1044.2151 2.9999991,1040.9247 Z"
       id="rect5265" />
    <path
       inkscape:connector-curvature="0"
       style="fill:#000000;fill-opacity:0.09803922;stroke:none"
       d="m 2.9999991,1042.9247 0,0.5 c 0,3.2904 2.64714,5.9375 5.9375,5.9375 l 30.1249999,0 c 3.29036,0 5.9375,-2.6471 5.9375,-5.9375 l 0,-0.5 c 0,3.2904 -2.64714,5.9375 -5.9375,5.9375 l -30.1249999,0 C 5.6471391,1048.8622 2.9999991,1046.2151 2.9999991,1042.9247 Z"
       id="path5252" />
    <path
       style="fill:#000000;fill-opacity:0.49803922;fill-rule:nonzero;stroke:none"
       d="M 15.5 9.75 C 13.43875 9.75 11.75 11.4375 11.75 13.5 L 11.75 21.4375 L 14.25 21.4375 L 14.25 12.25 L 33.75 12.25 L 33.75 21.4375 L 36.25 21.4375 L 36.25 13.5 C 36.25 11.4375 34.56375 9.75 32.5 9.75 L 15.5 9.75 z M 11.75 26.5625 L 11.75 34.5 C 11.75 36.5625 13.43875 38.25 15.5 38.25 L 32.5 38.25 C 34.56375 38.25 36.25 36.5625 36.25 34.5 L 36.25 26.5625 L 33.75 26.5625 L 33.75 35.75 L 14.25 35.75 L 14.25 26.5625 L 11.75 26.5625 z "
       transform="translate(0,1004.3622)"
       id="path4036" />
    <g
       transform="matrix(1.25,0,0,-1.25,-245.46223,1176.3956)"
       id="g4058">
      <g
         clip-path="url(#clipPath4050)"
         id="g4060"
         style="opacity:0.25">
        <g
           id="g4062" />
        <g
           id="g4064">
          <g
             clip-path="url(#clipPath4054)"
             id="g4066" />
        </g>
      </g>
    </g>
    <path
       style="fill:#000000;fill-opacity:0.49803922;fill-rule:nonzero;stroke:none"
       d="M 16.25 13.96875 L 16.25 21.4375 L 31.75 21.4375 L 31.75 13.96875 L 16.25 13.96875 z M 16.25 26.5625 L 16.25 34.03125 L 31.75 34.03125 L 31.75 26.5625 L 16.25 26.5625 z "
       transform="translate(0,1004.3622)"
       id="path4072" />
    <rect
       ry="0"
       y="1026.8622"
       x="11.75"
       height="3"
       width="24.5"
       id="rect4080"
       style="fill:#000000;fill-opacity:0.49803922;stroke:none" />
  </g>
</svg>
