<?xml version="1.0" encoding="UTF-8" standalone="no"?>
<!-- Created with Inkscape (http://www.inkscape.org/) -->

<svg
   xmlns:dc="http://purl.org/dc/elements/1.1/"
   xmlns:cc="http://creativecommons.org/ns#"
   xmlns:rdf="http://www.w3.org/1999/02/22-rdf-syntax-ns#"
   xmlns:svg="http://www.w3.org/2000/svg"
   xmlns="http://www.w3.org/2000/svg"
   xmlns:xlink="http://www.w3.org/1999/xlink"
   xmlns:sodipodi="http://sodipodi.sourceforge.net/DTD/sodipodi-0.dtd"
   xmlns:inkscape="http://www.inkscape.org/namespaces/inkscape"
   width="48"
   height="48"
   id="svg2"
   version="1.1"
   inkscape:version="0.48+devel r12392"
   sodipodi:docname="skype.svg">
  <defs
     id="defs4">
    <linearGradient
       inkscape:collect="always"
       id="linearGradient7855">
      <stop
         style="stop-color:#46a8fb;stop-opacity:1"
         offset="0"
         id="stop7857" />
      <stop
         style="stop-color:#54f3fd;stop-opacity:1"
         offset="1"
         id="stop7859" />
    </linearGradient>
    <linearGradient
       gradientTransform="translate(-2.8891602e-6,8.7017188e-5)"
       inkscape:collect="always"
       xlink:href="#linearGradient7855"
       id="linearGradient7861"
       x1="30.296669"
       y1="1049.4602"
       x2="30.296669"
       y2="1007.3235"
       gradientUnits="userSpaceOnUse" />
  </defs>
  <sodipodi:namedview
     id="base"
     pagecolor="#ffffff"
     bordercolor="#666666"
     borderopacity="1.0"
     inkscape:pageopacity="0.0"
     inkscape:pageshadow="2"
     inkscape:zoom="3.8491578"
     inkscape:cx="45.554744"
     inkscape:cy="32.312883"
     inkscape:document-units="px"
     inkscape:current-layer="layer1"
     showgrid="false"
     inkscape:window-width="1366"
     inkscape:window-height="715"
     inkscape:window-x="0"
     inkscape:window-y="30"
     inkscape:window-maximized="1"
     showguides="true"
     inkscape:guide-bbox="true" />
  <metadata
     id="metadata7">
    <rdf:RDF>
      <cc:Work
         rdf:about="">
        <dc:format>image/svg+xml</dc:format>
        <dc:type
           rdf:resource="http://purl.org/dc/dcmitype/StillImage" />
        <dc:title></dc:title>
      </cc:Work>
    </rdf:RDF>
  </metadata>
  <g
     inkscape:label="Capa 1"
     inkscape:groupmode="layer"
     id="layer1"
     transform="translate(0,-1004.3622)">
    <rect
       style="fill:#000000;fill-opacity:0.01960784;stroke:none"
       id="rect5263-5"
       width="44.399963"
       height="44.399963"
       x="1.8000183"
       y="1006.1622"
       ry="6.2786646" />
    <rect
       ry="6.1938181"
       y="1006.4623"
       x="2.1000061"
       height="43.799973"
       width="43.799973"
       id="rect5261-9"
       style="fill:#000000;fill-opacity:0.03921569;stroke:none" />
    <rect
       style="fill:#000000;fill-opacity:0.07843137;stroke:none"
       id="rect5259-3"
       width="43.199982"
       height="43.199982"
       x="2.3999939"
       y="1006.7625"
       ry="6.1089716" />
    <rect
       ry="6.0241251"
       y="1007.0624"
       x="2.7000122"
       height="42.599991"
       width="42.599991"
       id="rect5257-8"
       style="fill:#000000;fill-opacity:0.15686275;stroke:none" />
    <rect
       style="fill:url(#linearGradient7861);fill-opacity:1;stroke:none"
       id="rect5237-1"
       width="42"
       height="42"
       x="3"
       y="1007.3622"
       ry="5.9392786" />
    <path
       inkscape:connector-curvature="0"
       style="fill:#000000;fill-opacity:0.11764706;stroke:none"
       d="m 2.9999961,1040.9247 0,2.5 c 0,3.2904 2.64714,5.9375 5.9375,5.9375 l 30.1249999,0 c 3.29036,0 5.9375,-2.6471 5.9375,-5.9375 l 0,-2.5 c 0,3.2904 -2.64714,5.9375 -5.9375,5.9375 l -30.1249999,0 C 5.6471361,1046.8622 2.9999961,1044.2151 2.9999961,1040.9247 Z"
       id="rect5265-2" />
    <path
       inkscape:connector-curvature="0"
       style="fill:#000000;fill-opacity:0.09803922;stroke:none"
       d="m 2.9999961,1042.9247 0,0.5 c 0,3.2904 2.64714,5.9375 5.9375,5.9375 l 30.1249999,0 c 3.29036,0 5.9375,-2.6471 5.9375,-5.9375 l 0,-0.5 c 0,3.2904 -2.64714,5.9375 -5.9375,5.9375 l -30.1249999,0 C 5.6471361,1048.8622 2.9999961,1046.2151 2.9999961,1042.9247 Z"
       id="path5252-0" />
    <path
       inkscape:connector-curvature="0"
       style="fill:#000000;fill-opacity:0.49803922;display:inline"
       d="m 36.080586,1031.1222 c 0.18474,-0.8455 0.28305,-1.7228 0.28305,-2.6235 0,-6.7533 -5.474149,-12.2275 -12.227453,-12.2275 -0.712789,0 -1.411023,0.063 -2.090891,0.179 -1.093122,-0.6881 -2.386153,-1.088 -3.77311,-1.088 -3.91588,0 -7.090328,3.1751 -7.090328,7.091 0,1.3089 0.356114,2.534 0.975027,3.5865 -0.162514,0.794 -0.248196,1.6167 -0.248196,2.459 0,6.7534 5.474204,12.2275 12.227448,12.2275 0.765598,0 1.513295,-0.071 2.239463,-0.2056 0.99792,0.537 2.13918,0.8416 3.351561,0.8416 3.91655,0 7.09099,-3.1745 7.09099,-7.0909 C 36.818146,1033.1401 36.552196,1032.0713 36.080586,1031.1222 z m -5.67361,3.2195 c -0.56498,0.8012 -1.400899,1.4352 -2.4838,1.8853 -1.072149,0.4457 -2.357498,0.6716 -3.820676,0.6716 -1.756402,0 -3.229043,-0.3085 -4.377929,-0.9179 -0.821417,-0.4443 -1.499302,-1.0447 -2.013502,-1.7868 -0.519237,-0.7496 -0.782647,-1.4924 -0.782647,-2.2097 0,-0.4481 0.172027,-0.8365 0.510333,-1.154 0.335151,-0.3154 0.764279,-0.4748 1.275885,-0.4748 0.420224,0 0.782647,0.1258 1.077195,0.3745 0.281218,0.2387 0.523055,0.5917 0.716656,1.0474 0.217107,0.4964 0.453245,0.9153 0.702713,1.2453 0.239954,0.3176 0.584619,0.5842 1.025145,0.7929 0.44373,0.2102 1.041019,0.3161 1.776093,0.3161 1.011205,0 1.840205,-0.2158 2.463535,-0.6417 0.608689,-0.4151 0.904409,-0.9141 0.904409,-1.5254 0,-0.483 -0.15483,-0.862 -0.472229,-1.1596 -0.33321,-0.311 -0.771142,-0.5536 -1.305033,-0.7198 -0.555362,-0.1727 -1.310127,-0.36 -2.242617,-0.5555 -1.268864,-0.2716 -2.347382,-0.5941 -3.204925,-0.9592 -0.876623,-0.3725 -1.583713,-0.8898 -2.100457,-1.5374 -0.524936,-0.6562 -0.790891,-1.4808 -0.790891,-2.4501 0,-0.9237 0.279285,-1.7564 0.830271,-2.4744 0.546511,-0.7134 1.345083,-1.2676 2.373383,-1.6478 1.014968,-0.3752 2.221705,-0.5656 3.58709,-0.5656 1.092356,0 2.052121,0.1263 2.853899,0.3758 0.805449,0.2507 1.48536,0.5897 2.01915,1.0067 0.53771,0.4202 0.937629,0.8696 1.188929,1.3362 0.253901,0.4723 0.382221,0.9407 0.382221,1.3951 0,0.4367 -0.168271,0.8341 -0.50143,1.1794 -0.33521,0.3486 -0.757361,0.5257 -1.25564,0.5257 -0.45263,0 -0.80742,-0.1111 -1.05308,-0.3288 -0.22917,-0.2018 -0.46657,-0.518 -0.73004,-0.9711 -0.30528,-0.5797 -0.67406,-1.0361 -1.097436,-1.3579 -0.410708,-0.3129 -1.097546,-0.4716 -2.041438,-0.4716 -0.876625,0 -1.588801,0.1764 -2.118216,0.523 -0.510334,0.3346 -0.757919,0.7186 -0.757919,1.1724 0,0.2787 0.07937,0.511 0.243769,0.7116 0.173911,0.212 0.418953,0.3986 0.728714,0.5535 0.321209,0.1619 0.652545,0.29 0.98388,0.3815 0.340239,0.095 0.910867,0.2341 1.692241,0.4151 0.989628,0.2121 1.899224,0.4501 2.703494,0.7072 0.81379,0.2608 1.51767,0.5819 2.091,0.9553 0.58583,0.3815 1.04992,0.8709 1.37866,1.4561 0.33011,0.5864 0.497,1.3114 0.497,2.153 C 31.262586,1032.6203 30.975116,1033.5388 30.406976,1034.3417 Z"
       id="path857" />
  </g>
</svg>
