<?xml version="1.0" encoding="UTF-8" standalone="no"?>
<!-- Created with Inkscape (http://www.inkscape.org/) -->

<svg
   xmlns:dc="http://purl.org/dc/elements/1.1/"
   xmlns:cc="http://creativecommons.org/ns#"
   xmlns:rdf="http://www.w3.org/1999/02/22-rdf-syntax-ns#"
   xmlns:svg="http://www.w3.org/2000/svg"
   xmlns="http://www.w3.org/2000/svg"
   xmlns:xlink="http://www.w3.org/1999/xlink"
   xmlns:sodipodi="http://sodipodi.sourceforge.net/DTD/sodipodi-0.dtd"
   xmlns:inkscape="http://www.inkscape.org/namespaces/inkscape"
   width="48"
   height="48"
   id="svg4230"
   version="1.1"
   inkscape:version="0.48+devel r12392"
   sodipodi:docname="stellarium.svg">
  <defs
     id="defs4232">
    <linearGradient
       id="linearGradient4678"
       inkscape:collect="always">
      <stop
         id="stop4680"
         offset="0"
         style="stop-color:#0a7fe7;stop-opacity:1" />
      <stop
         id="stop4682"
         offset="1"
         style="stop-color:#50bffc;stop-opacity:1" />
    </linearGradient>
    <linearGradient
       inkscape:collect="always"
       xlink:href="#linearGradient4678"
       id="linearGradient4101"
       x1="29.109528"
       y1="1049.3851"
       x2="29.109528"
       y2="1007.3748"
       gradientUnits="userSpaceOnUse" />
    <linearGradient
       id="linearGradient857">
      <stop
         style="stop-color:#000000;stop-opacity:1"
         offset="0"
         id="stop859" />
      <stop
         style="stop-color:#333333;stop-opacity:1"
         offset="1"
         id="stop861" />
    </linearGradient>
    <linearGradient
       gradientTransform="matrix(0.74115056,0,0,0.74165808,6.2175952,1010.6783)"
       gradientUnits="userSpaceOnUse"
       xlink:href="#linearGradient3176"
       id="linearGradient3241"
       y2="7.429738"
       x2="20.56768"
       y1="42.956509"
       x1="23.999987" />
    <linearGradient
       id="linearGradient3176">
      <stop
         offset="0"
         style="stop-color:#005693;stop-opacity:1"
         id="stop3178" />
      <stop
         offset="0.64838707"
         style="stop-color:#1d96dc;stop-opacity:1"
         id="stop3365" />
      <stop
         offset="1"
         style="stop-color:#3cc1ff;stop-opacity:0.75539571"
         id="stop3180" />
    </linearGradient>
    <linearGradient
       gradientTransform="matrix(0.84463189,0,0,0.81542729,-4.9465678,1000.8158)"
       gradientUnits="userSpaceOnUse"
       xlink:href="#linearGradient3172"
       id="linearGradient3761"
       y2="15.582076"
       x2="32.368599"
       y1="50.015823"
       x1="32.792847" />
    <linearGradient
       id="linearGradient3172">
      <stop
         offset="0"
         style="stop-color:#005c9b;stop-opacity:1"
         id="stop3174" />
      <stop
         offset="1"
         style="stop-color:#55baff;stop-opacity:1"
         id="stop3176" />
    </linearGradient>
    <linearGradient
       gradientTransform="matrix(0.51896835,0,0,0.51932369,6.3226852,1011.3803)"
       gradientUnits="userSpaceOnUse"
       xlink:href="#linearGradient3172"
       id="linearGradient3178"
       y2="51.406189"
       x2="37.437656"
       y1="18.172169"
       x1="25.726885" />
    <linearGradient
       gradientTransform="matrix(0.52066906,0,0,0.51205918,6.2781802,1011.5407)"
       gradientUnits="userSpaceOnUse"
       xlink:href="#linearGradient3223"
       id="linearGradient3221"
       y2="20.249283"
       x2="34.100719"
       y1="45.622128"
       x1="34.100719" />
    <linearGradient
       id="linearGradient3223">
      <stop
         offset="0"
         style="stop-color:#003e69;stop-opacity:1"
         id="stop3225" />
      <stop
         offset="1"
         style="stop-color:#17a3ff;stop-opacity:1"
         id="stop3227" />
    </linearGradient>
  </defs>
  <sodipodi:namedview
     id="base"
     pagecolor="#ffffff"
     bordercolor="#666666"
     borderopacity="1.0"
     inkscape:pageopacity="0.0"
     inkscape:pageshadow="2"
     inkscape:zoom="3.8479083"
     inkscape:cx="-31.447745"
     inkscape:cy="6.6799668"
     inkscape:document-units="px"
     inkscape:current-layer="layer1"
     showgrid="false"
     inkscape:showpageshadow="false"
     borderlayer="true"
     inkscape:window-width="1366"
     inkscape:window-height="715"
     inkscape:window-x="0"
     inkscape:window-y="30"
     inkscape:window-maximized="1" />
  <metadata
     id="metadata4235">
    <rdf:RDF>
      <cc:Work
         rdf:about="">
        <dc:format>image/svg+xml</dc:format>
        <dc:type
           rdf:resource="http://purl.org/dc/dcmitype/StillImage" />
        <dc:title></dc:title>
      </cc:Work>
    </rdf:RDF>
  </metadata>
  <g
     inkscape:label="Capa 1"
     inkscape:groupmode="layer"
     id="layer1"
     transform="translate(0,-1004.3622)">
    <path
       style="fill:#000000"
       d=""
       id="path906"
       inkscape:connector-curvature="0" />
    <rect
       style="fill:#000000;fill-opacity:0.01960784;stroke:none"
       id="rect5263-0"
       width="44.399963"
       height="44.399963"
       x="1.8000183"
       y="1006.1622"
       ry="6.2786646" />
    <rect
       ry="6.1938181"
       y="1006.4623"
       x="2.1000061"
       height="43.799973"
       width="43.799973"
       id="rect5261-1"
       style="fill:#000000;fill-opacity:0.03921569;stroke:none" />
    <rect
       style="fill:#000000;fill-opacity:0.07843137;stroke:none"
       id="rect5259-9"
       width="43.199982"
       height="43.199982"
       x="2.3999939"
       y="1006.7624"
       ry="6.1089716" />
    <rect
       ry="6.0241251"
       y="1007.0624"
       x="2.7000122"
       height="42.599991"
       width="42.599991"
       id="rect5257-6"
       style="fill:#000000;fill-opacity:0.15686275;stroke:none" />
    <rect
       style="fill:url(#linearGradient4101);fill-opacity:1.0;stroke:none"
       id="rect5237-3"
       width="42"
       height="42"
       x="3"
       y="1007.3622"
       ry="5.9392786" />
    <path
       inkscape:connector-curvature="0"
       style="fill:#000000;fill-opacity:0.11764706;stroke:none"
       d="m 2.9999991,1040.9247 0,2.5 c 0,3.2904 2.64714,5.9375 5.9375,5.9375 l 30.1249999,0 c 3.29036,0 5.9375,-2.6471 5.9375,-5.9375 l 0,-2.5 c 0,3.2904 -2.64714,5.9375 -5.9375,5.9375 l -30.1249999,0 C 5.6471391,1046.8622 2.9999991,1044.2151 2.9999991,1040.9247 Z"
       id="rect5265-8" />
    <path
       inkscape:connector-curvature="0"
       style="fill:#000000;fill-opacity:0.09803922;stroke:none"
       d="m 2.9999991,1042.9247 0,0.5 c 0,3.2904 2.64714,5.9375 5.9375,5.9375 l 30.1249999,0 c 3.29036,0 5.9375,-2.6471 5.9375,-5.9375 l 0,-0.5 c 0,3.2904 -2.64714,5.9375 -5.9375,5.9375 l -30.1249999,0 C 5.6471391,1048.8622 2.9999991,1046.2151 2.9999991,1042.9247 Z"
       id="path5252-0" />
    <path
       style="fill:#000000;fill-opacity:0.49803922;stroke:none"
       id="path2417"
       inkscape:connector-curvature="0"
       d="m 27.701009,1011.9585 -0.640841,5.2191" />
    <path
       style="fill:#000000;fill-opacity:0.49803922;stroke:none"
       id="path3191"
       inkscape:connector-curvature="0"
       d="m 26.413319,1022.1788 -0.69552,6.3232" />
    <path
       style="fill:#000000;fill-opacity:0.49803922;stroke:none"
       id="path3189"
       inkscape:connector-curvature="0"
       d="m 27.052298,1017.0869 -0.585119,4.7969" />
    <path
       style="fill:#000000;fill-opacity:0.49803922;fill-rule:nonzero;stroke:none"
       d="m 33.681723,1015.3624 -2.485294,1.2563 2.67647,6.5273 2.512605,-0.6282 L 33.681723,1015.3624 z m -3.468488,1.7478 -18.598739,9.2858 0.792017,2.0483 7.455882,-1.8298 -3.086134,13.4096 c -0.135462,0.5877 0.231596,1.1744 0.819327,1.3109 0.08303,0.018 0.163866,0.027 0.245799,0.027 0.497059,0 0.948235,-0.342 1.065126,-0.8467 l 2.212185,-9.5861 0,9.3403 c 0,0.6041 0.489411,1.0925 1.092437,1.0925 0.603025,0 1.092437,-0.4884 1.092437,-1.0925 l 0,-9.3403 2.212185,9.5861 c 0.11689,0.5047 0.568067,0.8467 1.065126,0.8467 0.08193,0 0.162773,-0.01 0.245798,-0.027 0.587731,-0.1365 0.95479,-0.7232 0.819328,-1.3109 l -3.277311,-14.2017 c -0.02652,-0.1146 -0.05177,-0.2048 -0.109244,-0.3004 l 8.548319,-2.1029 L 30.213235,1017.1102 Z"
       id="path3208"
       inkscape:connector-curvature="0" />
  </g>
</svg>
