<?xml version="1.0" encoding="UTF-8" standalone="no"?>
<!-- Created with Inkscape (http://www.inkscape.org/) -->

<svg
   xmlns:dc="http://purl.org/dc/elements/1.1/"
   xmlns:cc="http://creativecommons.org/ns#"
   xmlns:rdf="http://www.w3.org/1999/02/22-rdf-syntax-ns#"
   xmlns:svg="http://www.w3.org/2000/svg"
   xmlns="http://www.w3.org/2000/svg"
   xmlns:xlink="http://www.w3.org/1999/xlink"
   xmlns:sodipodi="http://sodipodi.sourceforge.net/DTD/sodipodi-0.dtd"
   xmlns:inkscape="http://www.inkscape.org/namespaces/inkscape"
   width="48"
   height="48"
   id="svg2"
   version="1.1"
   inkscape:version="0.48+devel r12503"
   sodipodi:docname="avidemux.svg">
  <defs
     id="defs4">
    <linearGradient
       x1="45.447727"
       y1="92.539597"
       x2="45.447727"
       y2="7.0165396"
       id="ButtonShadow"
       gradientUnits="userSpaceOnUse"
       gradientTransform="scale(1.0058652,0.994169)">
      <stop
         id="stop3750"
         style="stop-color:#000000;stop-opacity:1"
         offset="0" />
      <stop
         id="stop3752"
         style="stop-color:#000000;stop-opacity:0.58823532"
         offset="1" />
    </linearGradient>
    <filter
       color-interpolation-filters="sRGB"
       id="filter3174">
      <feGaussianBlur
         id="feGaussianBlur3176"
         stdDeviation="1.71" />
    </filter>
    <linearGradient
       inkscape:collect="always"
       id="linearGradient7150">
      <stop
         style="stop-color:#8796a4;stop-opacity:1"
         offset="0"
         id="stop7152" />
      <stop
         style="stop-color:#b0b7c5;stop-opacity:1"
         offset="1"
         id="stop7154" />
    </linearGradient>
    <linearGradient
       gradientTransform="translate(-8.4790039e-7,7.8421094e-5)"
       inkscape:collect="always"
       xlink:href="#linearGradient7150"
       id="linearGradient7156"
       x1="27.568569"
       y1="1049.1152"
       x2="27.568569"
       y2="1007.4026"
       gradientUnits="userSpaceOnUse" />
  </defs>
  <sodipodi:namedview
     id="base"
     pagecolor="#ffffff"
     bordercolor="#666666"
     borderopacity="1.0"
     inkscape:pageopacity="0.0"
     inkscape:pageshadow="2"
     inkscape:zoom="2.0456274"
     inkscape:cx="-14.146427"
     inkscape:cy="-7.0774384"
     inkscape:document-units="px"
     inkscape:current-layer="layer1"
     showgrid="false"
     inkscape:window-width="1366"
     inkscape:window-height="716"
     inkscape:window-x="0"
     inkscape:window-y="28"
     inkscape:window-maximized="1" />
  <metadata
     id="metadata7">
    <rdf:RDF>
      <cc:Work
         rdf:about="">
        <dc:format>image/svg+xml</dc:format>
        <dc:type
           rdf:resource="http://purl.org/dc/dcmitype/StillImage" />
        <dc:title />
      </cc:Work>
    </rdf:RDF>
  </metadata>
  <g
     inkscape:label="Capa 1"
     inkscape:groupmode="layer"
     id="layer1"
     transform="translate(0,-1004.3622)">
    <g
       inkscape:label="Capa 1"
       id="g1004"
       style="fill:none;stroke:#ff0000" />
    <g
       style="fill:none;stroke:#ff0000"
       id="g1008"
       inkscape:label="Capa 1" />
    <g
       id="layer2"
       style="display:none"
       transform="matrix(0.25,0,0,0.25,-100.55791,1025.0116)">
      <rect
         width="86"
         height="85"
         rx="6"
         ry="6"
         x="5"
         y="7"
         id="rect3745"
         style="opacity:0.9;fill:url(#ButtonShadow);fill-opacity:1;fill-rule:nonzero;stroke:none;filter:url(#filter3174)" />
    </g>
    <rect
       style="fill:#000000;fill-opacity:0.01960784;stroke:none"
       id="rect5263"
       width="44.399963"
       height="44.399963"
       x="1.8000183"
       y="1006.1622"
       ry="6.2786646" />
    <rect
       ry="6.1938181"
       y="1006.4623"
       x="2.1000061"
       height="43.799973"
       width="43.799973"
       id="rect5261"
       style="fill:#000000;fill-opacity:0.03921569;stroke:none" />
    <rect
       style="fill:#000000;fill-opacity:0.07843137;stroke:none"
       id="rect5259"
       width="43.199982"
       height="43.199982"
       x="2.3999939"
       y="1006.7626"
       ry="6.1089716" />
    <rect
       ry="6.0241251"
       y="1007.0624"
       x="2.7000122"
       height="42.599991"
       width="42.599991"
       id="rect5257"
       style="fill:#000000;fill-opacity:0.15686275;stroke:none" />
    <rect
       style="fill:url(#linearGradient7156);fill-opacity:1;stroke:none"
       id="rect5237"
       width="42"
       height="42"
       x="3"
       y="1007.3622"
       ry="5.9392786" />
    <path
       inkscape:connector-curvature="0"
       style="fill:#000000;fill-opacity:0.11764706;stroke:none"
       d="m 2.9999982,1040.9247 0,2.5 c 0,3.2904 2.64714,5.9375 5.9375,5.9375 l 30.1249998,0 c 3.29036,0 5.9375,-2.6471 5.9375,-5.9375 l 0,-2.5 c 0,3.2904 -2.64714,5.9375 -5.9375,5.9375 l -30.1249998,0 c -3.29036,0 -5.9375,-2.6471 -5.9375,-5.9375 z"
       id="rect5265" />
    <path
       inkscape:connector-curvature="0"
       style="fill:#000000;fill-opacity:0.09803922;stroke:none"
       d="m 2.9999982,1042.9247 0,0.5 c 0,3.2904 2.64714,5.9375 5.9375,5.9375 l 30.1249998,0 c 3.29036,0 5.9375,-2.6471 5.9375,-5.9375 l 0,-0.5 c 0,3.2904 -2.64714,5.9375 -5.9375,5.9375 l -30.1249998,0 c -3.29036,0 -5.9375,-2.6471 -5.9375,-5.9375 z"
       id="path5252" />
    <g
       transform="matrix(0.36107049,0,0,-0.36107049,-156.54269,1004.906)"
       id="g312"
       style="fill:#000000;fill-opacity:0.49803922" />
    <g
       transform="matrix(0.36107049,0,0,-0.36107049,-145.18731,993.54999)"
       id="g316"
       style="fill:#000000;fill-opacity:0.49803922" />
    <path
       d="m 34.203759,1019.2723 -2.150113,0 0,-2.4673 2.150113,0 0,2.4673 z m 0,4.1502 -2.150113,0 0,-2.4679 2.150113,0 0,2.4679 z m 0,4.1497 -2.150113,0 0,-2.4674 2.150113,0 0,2.4674 z m 0,4.1501 -2.150113,0 0,-2.4678 2.150113,0 0,2.4678 z m 0,4.1502 -2.150113,0 0,-2.4673 2.150113,0 0,2.4673 z m 0,4.1507 -2.150113,0 0,-2.4683 2.150113,0 0,2.4683 z m -3.199867,-12.495 -13.981307,0 0,-10.5003 13.981307,0 0,10.5003 z m 0,12.2919 -13.981307,0 0,-10.5007 13.981307,0 0,10.5007 z m -15.109168,-20.5478 -2.148712,0 0,-2.4673 2.148712,0 3.8e-5,2.4673 z m 0,4.1502 -2.148712,0 0,-2.4679 2.148712,0 3.8e-5,2.4679 z m 0,4.1497 -2.148712,0 0,-2.4674 2.148712,0 3.8e-5,2.4674 z m 0,4.1501 -2.148712,0 0,-2.4678 2.148712,0 3.8e-5,2.4678 z m 0,4.1502 -2.148712,0 0,-2.4673 2.148712,0 3.8e-5,2.4673 z m 0,4.1507 -2.148712,0 0,-2.4683 2.148712,0 3.8e-5,2.4683 z m 18.450629,-24.661 -20.691199,0 c -0.696489,0 -1.26184,0.5654 -1.26184,1.2619 l 0,23.4758 c 0,0.6969 0.565351,1.2623 1.26184,1.2623 l 20.691199,0 c 0.697436,0 1.262333,-0.5654 1.262333,-1.2623 l 0,-23.4758 c 0,-0.6965 -0.564897,-1.2619 -1.262333,-1.2619"
       style="fill:#000000;fill-opacity:0.49803922;fill-rule:nonzero;stroke:none"
       id="path1670"
       inkscape:connector-curvature="0" />
  </g>
</svg>
