<?xml version="1.0" encoding="UTF-8" standalone="no"?>
<!-- Created with Inkscape (http://www.inkscape.org/) -->

<svg
   xmlns:dc="http://purl.org/dc/elements/1.1/"
   xmlns:cc="http://creativecommons.org/ns#"
   xmlns:rdf="http://www.w3.org/1999/02/22-rdf-syntax-ns#"
   xmlns:svg="http://www.w3.org/2000/svg"
   xmlns="http://www.w3.org/2000/svg"
   xmlns:xlink="http://www.w3.org/1999/xlink"
   xmlns:sodipodi="http://sodipodi.sourceforge.net/DTD/sodipodi-0.dtd"
   xmlns:inkscape="http://www.inkscape.org/namespaces/inkscape"
   width="48"
   height="48"
   id="svg2"
   version="1.1"
   inkscape:version="0.48+devel r12503"
   sodipodi:docname="xfce4-workspaces.svg">
  <defs
     id="defs4">
    <linearGradient
       gradientTransform="translate(10e-6,3e-5)"
       inkscape:collect="always"
       xlink:href="#linearGradient4678"
       id="linearGradient4047"
       x1="26.509884"
       y1="1049.3497"
       x2="26.509884"
       y2="1007.4331"
       gradientUnits="userSpaceOnUse" />
    <linearGradient
       inkscape:collect="always"
       id="linearGradient4678">
      <stop
         style="stop-color:#0a7fe7;stop-opacity:1"
         offset="0"
         id="stop4680" />
      <stop
         style="stop-color:#50bffc;stop-opacity:1"
         offset="1"
         id="stop4682" />
    </linearGradient>
  </defs>
  <sodipodi:namedview
     id="base"
     pagecolor="#ffffff"
     bordercolor="#666666"
     borderopacity="1.0"
     inkscape:pageopacity="0.0"
     inkscape:pageshadow="2"
     inkscape:zoom="4.0912548"
     inkscape:cx="-1.8467112"
     inkscape:cy="10.804588"
     inkscape:document-units="px"
     inkscape:current-layer="layer1"
     showgrid="false"
     inkscape:window-width="1366"
     inkscape:window-height="716"
     inkscape:window-x="0"
     inkscape:window-y="28"
     inkscape:window-maximized="1">
    <inkscape:grid
       type="xygrid"
       id="grid3850" />
  </sodipodi:namedview>
  <metadata
     id="metadata7">
    <rdf:RDF>
      <cc:Work
         rdf:about="">
        <dc:format>image/svg+xml</dc:format>
        <dc:type
           rdf:resource="http://purl.org/dc/dcmitype/StillImage" />
        <dc:title />
      </cc:Work>
    </rdf:RDF>
  </metadata>
  <g
     inkscape:label="Capa 1"
     inkscape:groupmode="layer"
     id="layer1"
     transform="translate(0,-1004.3622)">
    <text
       xml:space="preserve"
       style="font-size:40px;font-style:normal;font-weight:normal;line-height:125%;letter-spacing:0px;word-spacing:0px;fill:#000000;fill-opacity:1;stroke:none;font-family:sans-serif"
       x="-49.999996"
       y="1043.8623"
       id="text959"
       sodipodi:linespacing="125%"><tspan
         y="1043.8623"
         x="-49.999996"
         sodipodi:role="line"
         id="tspan961" /></text>
    <text
       xml:space="preserve"
       style="font-size:40px;font-style:italic;font-variant:normal;font-weight:bold;font-stretch:normal;line-height:125%;letter-spacing:0px;word-spacing:0px;fill:#000000;fill-opacity:1;stroke:none;font-family:URW Chancery L;-inkscape-font-specification:URW Chancery L Bold Italic"
       x="70.300995"
       y="1037.2073"
       id="text3025"
       sodipodi:linespacing="125%"><tspan
         sodipodi:role="line"
         id="tspan3027"
         x="70.300995"
         y="1037.2073" /></text>
    <rect
       style="fill:#000000;fill-opacity:0.01960784;stroke:none"
       id="rect5263"
       width="44.399963"
       height="44.399963"
       x="1.8000211"
       y="1006.1622"
       ry="6.2786646" />
    <rect
       ry="6.1938181"
       y="1006.4623"
       x="2.100009"
       height="43.799973"
       width="43.799973"
       id="rect5261"
       style="fill:#000000;fill-opacity:0.03921569;stroke:none" />
    <rect
       style="fill:#000000;fill-opacity:0.07843137;stroke:none"
       id="rect5259"
       width="43.199982"
       height="43.199982"
       x="2.4000273"
       y="1006.7623"
       ry="6.1089716" />
    <rect
       ry="6.0241251"
       y="1007.0623"
       x="2.7000151"
       height="42.599991"
       width="42.599991"
       id="rect5257"
       style="fill:#000000;fill-opacity:0.15686275;stroke:none" />
    <rect
       style="fill:url(#linearGradient4047);fill-opacity:1;stroke:none"
       id="rect5237"
       width="42"
       height="42"
       x="3.0000029"
       y="1007.3622"
       ry="5.9392786" />
    <path
       inkscape:connector-curvature="0"
       style="fill:#000000;fill-opacity:0.11764706;stroke:none"
       d="m 3.00001,1040.9248 0,2.5 c 0,3.2904 2.64714,5.9375 5.9375,5.9375 l 30.125,0 c 3.29036,0 5.9375,-2.6471 5.9375,-5.9375 l 0,-2.5 c 0,3.2904 -2.64714,5.9375 -5.9375,5.9375 l -30.125,0 c -3.29036,0 -5.9375,-2.6471 -5.9375,-5.9375 z"
       id="rect5265" />
    <path
       inkscape:connector-curvature="0"
       style="fill:#000000;fill-opacity:0.09803922;stroke:none"
       d="m 3.00001,1042.9248 0,0.5 c 0,3.2904 2.64714,5.9375 5.9375,5.9375 l 30.125,0 c 3.29036,0 5.9375,-2.6471 5.9375,-5.9375 l 0,-0.5 c 0,3.2904 -2.64714,5.9375 -5.9375,5.9375 l -30.125,0 c -3.29036,0 -5.9375,-2.6471 -5.9375,-5.9375 z"
       id="path5252" />
    <path
       style="fill:#000000;fill-opacity:0.49803922;fill-rule:evenodd;stroke:none"
       d="M 11 11 L 11 37 L 37 37 L 37 11 L 11 11 z M 12 12 L 36 12 L 36 36 L 12 36 L 12 12 z "
       transform="translate(0,1004.3622)"
       id="rect3331" />
    <path
       style="fill:#000000;fill-opacity:0.49803922;fill-rule:evenodd;stroke:none"
       d="M 13 13 L 13 35 L 35 35 L 35 13 L 13 13 z M 14 14 L 34 14 L 34 34 L 14 34 L 14 14 z "
       transform="translate(0,1004.3622)"
       id="path3340" />
    <path
       id="path3343"
       d="m 15,1019.3622 0,7 7,0 0,-7 -7,0 z"
       style="fill:#000000;fill-opacity:0.49803922;fill-rule:evenodd;stroke:none"
       inkscape:connector-curvature="0" />
    <path
       inkscape:connector-curvature="0"
       style="fill:#000000;fill-opacity:0.49803922;fill-rule:evenodd;stroke:none"
       d="m 26,1030.3622 0,7 7,0 0,-7 -7,0 z"
       id="path3345" />
    <path
       style="fill:#000000;fill-opacity:0.49803922;fill-rule:evenodd;stroke:none"
       d="M 23.5 14 L 23.5 23.5 L 14 23.5 L 14 24.5 L 23.5 24.5 L 23.5 34 L 24.5 34 L 24.5 24.5 L 34 24.5 L 34 23.5 L 24.5 23.5 L 24.5 14 L 23.5 14 z "
       transform="translate(0,1004.3622)"
       id="path3347" />
  </g>
</svg>
