<?xml version="1.0" encoding="UTF-8" standalone="no"?>
<!-- Created with Inkscape (http://www.inkscape.org/) -->

<svg
   xmlns:dc="http://purl.org/dc/elements/1.1/"
   xmlns:cc="http://creativecommons.org/ns#"
   xmlns:rdf="http://www.w3.org/1999/02/22-rdf-syntax-ns#"
   xmlns:svg="http://www.w3.org/2000/svg"
   xmlns="http://www.w3.org/2000/svg"
   xmlns:xlink="http://www.w3.org/1999/xlink"
   xmlns:sodipodi="http://sodipodi.sourceforge.net/DTD/sodipodi-0.dtd"
   xmlns:inkscape="http://www.inkscape.org/namespaces/inkscape"
   width="48"
   height="48"
   id="svg4230"
   version="1.1"
   inkscape:version="0.48+devel r12392"
   sodipodi:docname="xbmc.svg">
  <defs
     id="defs4232">
    <linearGradient
       inkscape:collect="always"
       xlink:href="#linearGradient4708"
       id="linearGradient4047"
       x1="26.056679"
       y1="1049.3649"
       x2="26.056679"
       y2="1007.3625"
       gradientUnits="userSpaceOnUse" />
    <linearGradient
       id="linearGradient4708"
       inkscape:collect="always">
      <stop
         id="stop4710"
         offset="0"
         style="stop-color:#47b73d;stop-opacity:1" />
      <stop
         id="stop4712"
         offset="1"
         style="stop-color:#ade355;stop-opacity:1" />
    </linearGradient>
  </defs>
  <sodipodi:namedview
     id="base"
     pagecolor="#ffffff"
     bordercolor="#666666"
     borderopacity="1.0"
     inkscape:pageopacity="0.0"
     inkscape:pageshadow="2"
     inkscape:zoom="4.3203127"
     inkscape:cx="29.70074"
     inkscape:cy="31.004016"
     inkscape:document-units="px"
     inkscape:current-layer="layer1"
     showgrid="false"
     inkscape:showpageshadow="false"
     borderlayer="true"
     inkscape:window-width="1366"
     inkscape:window-height="715"
     inkscape:window-x="0"
     inkscape:window-y="30"
     inkscape:window-maximized="1"
     showguides="false" />
  <metadata
     id="metadata4235">
    <rdf:RDF>
      <cc:Work
         rdf:about="">
        <dc:format>image/svg+xml</dc:format>
        <dc:type
           rdf:resource="http://purl.org/dc/dcmitype/StillImage" />
        <dc:title></dc:title>
      </cc:Work>
    </rdf:RDF>
  </metadata>
  <g
     inkscape:label="Capa 1"
     inkscape:groupmode="layer"
     id="layer1"
     transform="translate(0,-1004.3622)">
    <rect
       style="fill:#000000;fill-opacity:0.01960784;stroke:none"
       id="rect5263"
       width="44.399963"
       height="44.399963"
       x="1.8000183"
       y="1006.1622"
       ry="6.2786646" />
    <rect
       ry="6.1938181"
       y="1006.4623"
       x="2.1000061"
       height="43.799973"
       width="43.799973"
       id="rect5261"
       style="fill:#000000;fill-opacity:0.03921569;stroke:none" />
    <rect
       style="fill:#000000;fill-opacity:0.07843137;stroke:none"
       id="rect5259"
       width="43.199982"
       height="43.199982"
       x="2.3999939"
       y="1006.7623"
       ry="6.1089716" />
    <rect
       ry="6.0241251"
       y="1007.0623"
       x="2.7000122"
       height="42.599991"
       width="42.599991"
       id="rect5257"
       style="fill:#000000;fill-opacity:0.15686275;stroke:none" />
    <rect
       style="fill:url(#linearGradient4047);fill-opacity:1.0;stroke:none"
       id="rect5237"
       width="42"
       height="42"
       x="3"
       y="1007.3622"
       ry="5.9392786" />
    <path
       inkscape:connector-curvature="0"
       style="fill:#000000;fill-opacity:0.11764706;stroke:none"
       d="m 2.9999991,1040.9247 0,2.5 c 0,3.2904 2.64714,5.9375 5.9375,5.9375 l 30.1249999,0 c 3.29036,0 5.9375,-2.6471 5.9375,-5.9375 l 0,-2.5 c 0,3.2904 -2.64714,5.9375 -5.9375,5.9375 l -30.1249999,0 C 5.6471391,1046.8622 2.9999991,1044.2151 2.9999991,1040.9247 Z"
       id="rect5265" />
    <path
       inkscape:connector-curvature="0"
       style="fill:#000000;fill-opacity:0.09803922;stroke:none"
       d="m 2.9999991,1042.9247 0,0.5 c 0,3.2904 2.64714,5.9375 5.9375,5.9375 l 30.1249999,0 c 3.29036,0 5.9375,-2.6471 5.9375,-5.9375 l 0,-0.5 c 0,3.2904 -2.64714,5.9375 -5.9375,5.9375 l -30.1249999,0 C 5.6471391,1048.8622 2.9999991,1046.2151 2.9999991,1042.9247 Z"
       id="path5252" />
    <g
       transform="matrix(0.36107049,0,0,-0.36107049,24.938366,1037.2761)"
       id="g312"
       style="fill:#000000;fill-opacity:0.49803922" />
    <g
       transform="matrix(0.36107049,0,0,-0.36107049,36.293746,1025.92)"
       id="g316"
       style="fill:#000000;fill-opacity:0.49803922" />
    <path
       style="fill:#000000;fill-opacity:0.49803922"
       id="path3672"
       inkscape:connector-curvature="0"
       d="m 31.71798,1024.3299 c -0.254612,0 -0.51553,0.03 -0.766224,0.093 -0.599881,0.1505 -1.157191,0.4575 -1.620682,0.8962 -0.0841,0.08 -0.15699,0.144 -0.162533,0.144 -0.0056,0 -0.05237,-0.058 -0.106807,-0.1301 -0.132025,-0.1743 -0.366152,-0.4031 -0.543323,-0.5293 -0.28456,-0.2027 -0.686178,-0.371 -1.040208,-0.4366 -0.212364,-0.039 -0.784705,-0.04 -0.989127,-0.01 -0.740756,0.1291 -1.375195,0.4627 -1.941103,1.0263 -0.322565,0.3212 -0.535152,0.6281 -0.729075,1.0494 -0.08097,0.1861 -0.08233,0.1885 -0.102164,0.483 -0.02792,0.4147 -0.07472,0.6567 -0.199682,1.0031 -0.03114,0.086 -0.06636,0.2493 -0.106808,0.5108 -0.0351,0.2418 -0.09175,0.6351 -0.181107,1.2446 -0.04577,0.3121 -0.06325,0.4754 -0.05108,0.4829 0.03145,0.02 0.178026,0.01 0.315777,-0.032 0.106061,-0.029 0.205227,-0.072 0.301846,-0.1254 0.03368,-0.019 0.06534,-0.039 0.09752,-0.06 0.01395,-0.01 0.02814,-0.019 0.04179,-0.027 0.03165,-0.023 0.06301,-0.045 0.09288,-0.07 0.207206,-0.1716 0.369337,-0.3979 0.45509,-0.6502 0.01198,-0.04 0.02489,-0.087 0.03715,-0.1439 0.006,-0.028 0.01471,-0.074 0.02322,-0.1207 0.01489,-0.082 0.02634,-0.1508 0.04644,-0.2741 0.028,-0.1717 0.05783,-0.3582 0.08823,-0.5665 0.07473,-0.512 0.151769,-0.9948 0.17182,-1.0727 0.02005,-0.078 0.08101,-0.2286 0.13467,-0.339 0.272792,-0.5609 0.789042,-0.9949 1.365274,-1.147 0.12434,-0.033 0.199198,-0.042 0.455091,-0.042 0.355277,0 0.486763,0.028 0.738362,0.1578 0.290533,0.1504 0.575688,0.4944 0.682637,0.822 0.116005,0.3554 0.114319,0.4612 -0.05108,1.5928 -0.143114,0.9792 -0.156857,1.1639 -0.106807,1.356 0.07889,0.3029 0.332674,0.5801 0.631555,0.6919 0.102373,0.038 0.337293,0.074 0.366859,0.056 0.0096,-0.01 0.112603,-0.6776 0.23219,-1.4954 0.211523,-1.4464 0.250202,-1.6675 0.325065,-1.8575 0.212328,-0.5386 0.711812,-1.0286 1.249178,-1.2259 0.231236,-0.085 0.319644,-0.097 0.636199,-0.097 0.358474,0 0.451659,0.017 0.710499,0.144 0.273243,0.1341 0.515653,0.3921 0.659418,0.6965 0.106831,0.2262 0.125988,0.3296 0.125383,0.6548 -4.69e-4,0.2648 -0.0093,0.3583 -0.130026,1.1609 -0.149537,0.9944 -0.15519,1.1255 -0.06965,1.356 0.11352,0.306 0.383736,0.5585 0.687281,0.6362 0.114622,0.029 0.274921,0.041 0.292559,0.023 0.0058,-0.01 0.04867,-0.282 0.09752,-0.6177 0.09876,-0.6785 0.102283,-0.6919 0.125381,-0.6919 0.009,0 0.03852,0.043 0.06965,0.097 0.145964,0.2551 0.457156,0.5953 0.710501,0.7755 0.276673,0.1968 0.630247,0.3406 0.993768,0.4087 0.180566,0.034 0.289128,0.039 1.18881,0.046 0.543485,0.01 1.006725,0 1.030922,-0.01 0.04246,-0.011 0.04222,-0.016 0.04175,-0.1672 -2.98e-4,-0.087 -0.0084,-0.1925 -0.01856,-0.2368 -0.05562,-0.2415 -0.25731,-0.5037 -0.482957,-0.6223 -0.190287,-0.1 -0.309965,-0.1158 -0.780153,-0.1161 -0.430794,-3e-4 -0.618332,-0.022 -0.831242,-0.093 -0.334342,-0.1111 -0.670063,-0.4233 -0.831234,-0.7755 -0.237515,-0.519 -0.153674,-1.1905 0.21826,-1.7507 0.111163,-0.1674 0.406887,-0.463 0.585111,-0.5851 0.176516,-0.1209 0.397283,-0.2269 0.603691,-0.288 0.153549,-0.045 0.190147,-0.047 0.710507,-0.06 0.594707,-0.015 0.665215,-0.029 0.882316,-0.13 0.238775,-0.1112 0.502101,-0.3439 0.631554,-0.5619 0.07073,-0.1191 0.139755,-0.3006 0.148607,-0.3901 l 0.0047,-0.065 -0.938042,-0.01 c -0.975391,-0.01 -1.149699,0.01 -1.467442,0.074 -0.833522,0.179 -1.666691,0.7605 -2.182578,1.5278 -0.126113,0.1875 -0.1329,0.1898 -0.199682,0 -0.190985,-0.5429 -0.664107,-1.0709 -1.198095,-1.3375 C 32.552973,1024.4226 32.142325,1024.332 31.717969,1024.3299 Z" />
    <path
       style="fill:#000000;fill-opacity:0.49803922"
       id="path3670-6"
       inkscape:connector-curvature="0"
       d="m 18.469255,1022.8671 c -0.08047,0 -0.09442,0.01 -0.102163,0.042 -0.0049,0.023 -0.05185,0.3527 -0.106808,0.7337 -0.05496,0.3811 -0.105813,0.6956 -0.111451,0.7012 -0.0056,0.01 -0.400049,0.017 -0.877676,0.023 -0.849526,0.011 -0.873781,0.01 -1.086646,0.056 -0.688328,0.1497 -1.282807,0.4845 -1.857514,1.0449 l -0.204327,0.195 -0.03251,-0.051 c -0.213191,-0.3443 -0.373287,-0.537 -0.594405,-0.7198 -0.33004,-0.2728 -0.694898,-0.4328 -1.151659,-0.5015 -0.143453,-0.021 -0.379613,-0.027 -1.156304,-0.027 -0.873532,-10e-5 -0.97469,0 -0.984482,0.027 -0.02044,0.053 -0.01158,0.3407 0.01393,0.4365 0.07471,0.2806 0.285002,0.5082 0.566541,0.6176 0.09463,0.037 0.142773,0.044 0.61298,0.056 0.56163,0.015 0.684175,0.033 0.905539,0.1255 0.363179,0.1522 0.671053,0.5193 0.775513,0.9287 0.06911,0.2708 0.04205,0.665 -0.06501,0.9798 -0.223699,0.6577 -0.830317,1.2232 -1.504588,1.4024 -0.157014,0.042 -0.21931,0.048 -0.715143,0.06 -0.57199,0.014 -0.635318,0.023 -0.8451691,0.1161 -0.2227981,0.099 -0.4732564,0.308 -0.6222683,0.5201 -0.095648,0.1361 -0.1968446,0.3523 -0.204327,0.4458 l -0.00462,0.06 0.8869634,0.01 c 0.921308,0.01 1.158518,-0.01 1.472081,-0.07 0.657337,-0.1336 1.299325,-0.4954 1.862159,-1.0495 0.09856,-0.097 0.178705,-0.1765 0.181108,-0.1765 0.0024,0 0.0451,0.063 0.09288,0.144 0.288539,0.4862 0.725625,0.8423 1.253822,1.017 0.358411,0.1185 0.417499,0.1221 1.541738,0.13 l 1.012344,0.01 0.01857,-0.046 c 0.02673,-0.07 0.02149,-0.2952 -0.0093,-0.4133 -0.08029,-0.3082 -0.303408,-0.5501 -0.599048,-0.6455 -0.106396,-0.034 -0.182792,-0.039 -0.654774,-0.051 -0.600091,-0.016 -0.678737,-0.027 -0.938045,-0.1625 -0.426299,-0.2219 -0.719136,-0.717 -0.719787,-1.2167 -2.97e-4,-0.2615 0.09028,-0.6406 0.20897,-0.8777 0.21251,-0.4245 0.639783,-0.8419 1.077359,-1.0495 0.308382,-0.1464 0.582539,-0.1904 1.184166,-0.1904 0.287913,0 0.378694,-0.01 0.487597,-0.038 0.164322,-0.042 0.300631,-0.1 0.427229,-0.1858 0.05306,-0.036 0.102845,-0.065 0.106806,-0.065 0.01889,0 -0.0051,0.1727 -0.130025,1.0263 -0.173946,1.1886 -0.172471,1.1891 -0.17182,1.486 0.0015,0.6772 0.235072,1.2368 0.729074,1.7321 0.279364,0.2801 0.554591,0.4581 0.914826,0.5852 0.142481,0.05 0.450495,0.1129 0.61298,0.13 0.140281,0.015 0.520583,0.013 0.664062,-0.01 0.654418,-0.079 1.220057,-0.3196 1.769284,-0.757 0.411674,-0.3279 0.736578,-0.716 0.975194,-1.1656 0.04319,-0.081 0.08095,-0.1466 0.08359,-0.144 -0.09118,0.5169 -0.0045,0.1335 0.06037,-0.1764 0.124964,-0.3464 0.171759,-0.5883 0.199683,-1.0031 l 0.0093,-0.2786 -0.03251,-0.2183 c -0.06932,-0.4659 -0.24779,-0.8548 -0.561898,-1.2259 -0.279525,-0.3302 -0.642238,-0.5824 -1.044852,-0.7244 -0.396979,-0.1401 -0.676495,-0.1618 -1.880734,-0.1626 l -0.808019,-0.01 0.01393,-0.093 c 0.06458,-0.505 -0.0069,-0.7672 -0.278627,-1.0402 -0.197433,-0.1984 -0.429997,-0.3065 -0.664061,-0.3065 L 18.469256,1022.8671 z m 0.770869,2.6098 0.998414,0.01 c 1.124579,0.01 1.117693,0.01 1.411711,0.1486 0.550741,0.2655 0.876618,0.881 0.803375,1.5139 -0.05524,0.4773 -0.244318,0.8783 -0.561897,1.2073 -0.333007,0.3451 -0.663426,0.5393 -1.054141,0.6223 -0.192634,0.041 -0.566558,0.046 -0.752293,0.01 -0.552923,-0.1101 -1.009702,-0.5923 -1.114509,-1.1702 -0.04214,-0.2324 -0.02745,-0.4366 0.106807,-1.3653 0.07075,-0.4894 0.139167,-0.9105 0.148601,-0.9334 L 19.240124,1025.4769 Z" />
    <path
       style="fill:#000000;fill-opacity:0.49803922"
       id="path3666"
       inkscape:connector-curvature="0"
       d="m 40.449998,1032.521 c -7.244504,0.1034 -14.670683,0.1034 -21.933333,0.1103 -5.716153,0 -9.5740204,0 -10.9666665,0 l 0,0.2447 c 4.2287935,-0.013 13.4572095,0.023 16.5723965,0.074 5.266811,0.1198 11.17211,0.1832 16.229686,0.9057 0.0031,0 -0.0063,0.01 -0.01222,0.012 0.02828,-0.013 0.07481,-0.018 0.09792,-0.012 0.0023,0 0.0091,0 0.01222,0 L 40.449998,1032.521 Z" />
  </g>
</svg>
