<?xml version="1.0" encoding="UTF-8" standalone="no"?>
<!-- Created with Inkscape (http://www.inkscape.org/) -->
<svg id="svg3397" xmlns="http://www.w3.org/2000/svg" height="48" width="48" version="1.1" xmlns:xlink="http://www.w3.org/1999/xlink">
 <defs id="defs3399">
  <linearGradient id="linearGradient2707">
   <stop id="stop2709" style="stop-color:#eeeeec" offset="0"/>
   <stop id="stop2711" style="stop-color:#eeeeec;stop-opacity:0" offset="1"/>
  </linearGradient>
  <linearGradient id="linearGradient3780" y2="45.78" xlink:href="#linearGradient2707" gradientUnits="userSpaceOnUse" x2="18" gradientTransform="matrix(1 0 0 .83333 9.7317e-7 6.4899)" y1="39" x1="18"/>
  <radialGradient id="radialGradient4275" gradientUnits="userSpaceOnUse" cy="10.047" cx="12.047" gradientTransform="matrix(2.4092 0 0 .78560 -5.0229 32.608)" r="9.5469">
   <stop id="stop3736" offset="0"/>
   <stop id="stop3738" style="stop-opacity:0" offset="1"/>
  </radialGradient>
 </defs>
 <path id="path6446" style="opacity:.4;fill:url(#radialGradient4275)" d="m47 40.501a23 7.5 0 0 1 -46 0 23 7.5 0 1 1 46 0z"/>
 <g id="g3838" transform="translate(-9.0126 -9.0002)">
  <path id="path3840" style="fill-rule:evenodd;stroke:#7d6c0f;fill:#ddca10" d="m46.529 39.003a5.0034 2.4983 0 1 1 -10.007 0 5.0034 2.4983 0 1 1 10.007 0z"/>
  <path id="path3842" style="fill-rule:evenodd;stroke:#7d6c0f;fill:#ddca10" d="m46.539 37.01a5.0034 2.4983 0 1 1 -10.007 0 5.0034 2.4983 0 1 1 10.007 0z"/>
  <path id="path3844" style="fill-rule:evenodd;stroke:#7d6c0f;fill:#ddca10" d="m46.539 35.01a5.0034 2.4983 0 1 1 -10.007 0 5.0034 2.4983 0 1 1 10.007 0z"/>
  <path id="path3846" style="fill-rule:evenodd;stroke:#7d6c0f;fill:#ddca10" d="m46.526 33.005a5.0034 2.4983 0 1 1 -10.007 0 5.0034 2.4983 0 1 1 10.007 0z"/>
  <path id="path3848" style="fill-rule:evenodd;stroke:#7d6c0f;fill:#ddca10" d="m46.539 31.003a5.0034 2.4983 0 1 1 -10.007 0 5.0034 2.4983 0 1 1 10.007 0z"/>
  <path id="path3850" style="fill-rule:evenodd;stroke:#7d6c0f;fill:#ddca10" d="m46.539 29.008a5.0034 2.4983 0 1 1 -10.007 0 5.0034 2.4983 0 1 1 10.007 0z"/>
  <path id="path3852" style="fill-rule:evenodd;stroke:#7d6c0f;fill:#ddca10" d="m46.526 27.003a5.0034 2.4983 0 1 1 -10.007 0 5.0034 2.4983 0 1 1 10.007 0z"/>
  <path id="path3854" style="fill-rule:evenodd;stroke:#7d6c0f;fill:#ddca10" d="m46.539 25.002a5.0034 2.4983 0 1 1 -10.007 0 5.0034 2.4983 0 1 1 10.007 0z"/>
  <path id="path3856" style="fill-rule:evenodd;stroke:#7d6c0f;fill:#ddc910" d="m46.539 23.002a5.0034 2.4983 0 1 1 -10.007 0 5.0034 2.4983 0 1 1 10.007 0z"/>
  <path id="path3858" style="fill-rule:evenodd;stroke:#8c7200;fill:#fce94f" d="m46.519 20.998a5.0034 2.4983 0 1 1 -10.007 0 5.0034 2.4983 0 1 1 10.007 0z"/>
  <path id="path3860" style="opacity:.3;stroke:#fff;fill:none" d="m45.51 20.997a4.0039 1.4968 0 1 1 -8.0078 0 4.0039 1.4968 0 1 1 8.0078 0z"/>
 </g>
 <g id="g2986" transform="translate(-2.0126 -1.0002)">
  <path id="path2773" style="fill-rule:evenodd;stroke:#7d6c0f;fill:#ddca10" d="m46.529 39.003a5.0034 2.4983 0 1 1 -10.007 0 5.0034 2.4983 0 1 1 10.007 0z"/>
  <path id="path2777" style="fill-rule:evenodd;stroke:#7d6c0f;fill:#ddca10" d="m46.539 37.01a5.0034 2.4983 0 1 1 -10.007 0 5.0034 2.4983 0 1 1 10.007 0z"/>
  <path id="path2781" style="fill-rule:evenodd;stroke:#7d6c0f;fill:#ddca10" d="m46.539 35.01a5.0034 2.4983 0 1 1 -10.007 0 5.0034 2.4983 0 1 1 10.007 0z"/>
  <path id="path2785" style="fill-rule:evenodd;stroke:#7d6c0f;fill:#ddca10" d="m46.526 33.005a5.0034 2.4983 0 1 1 -10.007 0 5.0034 2.4983 0 1 1 10.007 0z"/>
  <path id="path2789" style="fill-rule:evenodd;stroke:#7d6c0f;fill:#ddca10" d="m46.539 31.003a5.0034 2.4983 0 1 1 -10.007 0 5.0034 2.4983 0 1 1 10.007 0z"/>
  <path id="path2797" style="fill-rule:evenodd;stroke:#7d6c0f;fill:#ddca10" d="m46.539 29.008a5.0034 2.4983 0 1 1 -10.007 0 5.0034 2.4983 0 1 1 10.007 0z"/>
  <path id="path2799" style="fill-rule:evenodd;stroke:#7d6c0f;fill:#ddca10" d="m46.526 27.003a5.0034 2.4983 0 1 1 -10.007 0 5.0034 2.4983 0 1 1 10.007 0z"/>
  <path id="path2801" style="fill-rule:evenodd;stroke:#7d6c0f;fill:#ddca10" d="m46.539 25.002a5.0034 2.4983 0 1 1 -10.007 0 5.0034 2.4983 0 1 1 10.007 0z"/>
  <path id="path2809" style="fill-rule:evenodd;stroke:#7d6c0f;fill:#ddc910" d="m46.539 23.002a5.0034 2.4983 0 1 1 -10.007 0 5.0034 2.4983 0 1 1 10.007 0z"/>
  <path id="path2793" style="fill-rule:evenodd;stroke:#8c7200;fill:#fce94f" d="m46.519 20.998a5.0034 2.4983 0 1 1 -10.007 0 5.0034 2.4983 0 1 1 10.007 0z"/>
  <path id="path2795" style="opacity:.3;stroke:#fff;fill:none" d="m45.51 20.997a4.0039 1.4968 0 1 1 -8.0078 0 4.0039 1.4968 0 1 1 8.0078 0z"/>
 </g>
 <g id="g2955" transform="translate(2.0002 -1)">
  <path id="path2321" style="stroke-linejoin:round;fill-rule:evenodd;stroke:#2e5c02;fill:#4f7f21" d="m1.4998 33.479h24v6.0252h-24v-6.0252z"/>
  <path id="path2323" style="stroke-linejoin:round;fill-rule:evenodd;stroke:#2e5c02;fill:#59af05" d="m4.3259 27.491h20.272l0.90243 6.0095h-24l2.8259-6.0095z"/>
  <rect id="rect2325" style="fill:#2e5c02;fill-rule:evenodd" height="1" width="23" y="37.027" x="2.0001"/>
  <rect id="rect2327" style="fill:#2e5c02;fill-rule:evenodd" height="1" width="23" y="35.027" x="2.0001"/>
  <path id="path2329" style="opacity:.25;stroke:#fff;fill:none" d="m4.9376 28.542-1.9688 3.9375h21.344l-0.59375-3.9375h-18.781z"/>
  <rect id="rect2341" style="fill-rule:evenodd;stroke:#555753;fill:#eeeeec" height="6.1094" width="4.9373" y="33.464" x="11.531"/>
  <path id="path2746" style="fill:#2e5c02;fill-rule:evenodd" d="m19 30.49a5 1.5 0 1 1 -10 0 5 1.5 0 1 1 10 0z"/>
  <path id="path2715" style="fill-rule:evenodd;stroke:#555753;fill:#d3d7cf" d="m12.5 27.486-1 5.6372v6.3714h5v-6.4254l-1.0938-5.5832h-2.9062z"/>
  <path id="path2748" style="fill:#2e5c02;fill-rule:evenodd" d="m7 31.49a1.5156 0.5 0 1 1 -3.0312 0 1.5156 0.5 0 1 1 3.0312 0z"/>
  <path id="path2750" style="fill:#2e5c02;fill-rule:evenodd" d="m24 31.49a1.5 0.5 0 1 1 -3 0 1.5 0.5 0 1 1 3 0z"/>
  <path id="path2752" style="fill:#2e5c02;fill-rule:evenodd" d="m23 29.49a1.5 0.5 0 1 1 -3 0 1.5 0.5 0 1 1 3 0z"/>
  <path id="path2754" style="fill:#2e5c02;fill-rule:evenodd" d="m8 29.49a1.5 0.5 0 1 1 -3 0 1.5 0.5 0 1 1 3 0z"/>
 </g>
 <g id="g2999" transform="translate(0,-1)">
  <path id="path2413" style="fill-rule:evenodd;stroke:#7d6c0f;fill:#dcc610" d="m41.519 41.997a5.0034 2.4983 0 1 1 -10.007 0 5.0034 2.4983 0 1 1 10.007 0z"/>
  <path id="path2417" style="fill-rule:evenodd;stroke:#7d6c0f;fill:#dcc610" d="m41.529 40.003a5.0034 2.4983 0 1 1 -10.007 0 5.0034 2.4983 0 1 1 10.007 0z"/>
  <path id="path2421" style="fill-rule:evenodd;stroke:#7d6c0f;fill:#dcc610" d="m41.529 38.003a5.0034 2.4983 0 1 1 -10.007 0 5.0034 2.4983 0 1 1 10.007 0z"/>
  <path id="path2425" style="fill-rule:evenodd;stroke:#7d6c0f;fill:#dcc610" d="m41.516 35.998a5.0034 2.4983 0 1 1 -10.007 0 5.0034 2.4983 0 1 1 10.007 0z"/>
  <path id="path2429" style="fill-rule:evenodd;stroke:#7d6c0f;fill:#dcc610" d="m41.529 33.997a5.0034 2.4983 0 1 1 -10.007 0 5.0034 2.4983 0 1 1 10.007 0z"/>
  <path id="path2761" style="fill-rule:evenodd;stroke:#8c7200;fill:#fce94f" d="m41.51 31.997a5.0034 2.4983 0 1 1 -10.007 0 5.0034 2.4983 0 1 1 10.007 0z"/>
  <path id="path2763" style="opacity:.3;stroke:#fff;fill:none" d="m40.508 31.997a4.0039 1.4968 0 1 1 -8.0078 0 4.0039 1.4968 0 1 1 8.0078 0z"/>
 </g>
 <g id="g2969" transform="translate(2.0002 -1)">
  <path id="rect2271" style="stroke-linejoin:round;fill-rule:evenodd;stroke:#2e5c02;fill:#4f7f21" d="m5.4915 38.461h24.009v6.0391h-24.009v-6.0391z"/>
  <path id="path3816" style="stroke-linejoin:round;fill-rule:evenodd;stroke:#2e5c02;fill:#57ae06" d="m7.4508 32.495h20.209l1.8399 5.994h-23.999l1.9508-5.994z"/>
  <rect id="rect2441" style="fill:#2e5c02;fill-rule:evenodd" height="1" width="23" y="41.99" x="6"/>
  <rect id="rect2443" style="fill:#2e5c02;fill-rule:evenodd" height="1" width="23" y="39.99" x="6"/>
  <path id="path2269" style="opacity:.25;stroke:#fff;fill:none" d="m8.2188 33.521-1.2812 3.9375h21.156l-1.2188-3.9375h-18.656z"/>
  <path id="path3837" style="fill:#2e5c02;fill-rule:evenodd" d="m23 35.49a5 1.5 0 1 1 -10 0 5 1.5 0 1 1 10 0z"/>
  <path id="path3839" style="fill:#2e5c02;fill-rule:evenodd" d="m11 36.474a1.5156 0.5 0 0 1 -3.0312 0 1.5156 0.5 0 1 1 3.0312 0z"/>
  <path id="path3841" style="fill:#2e5c02;fill-rule:evenodd" d="m27 36.49a1.5 0.5 0 1 1 -3 0 1.5 0.5 0 1 1 3 0z"/>
  <path id="rect1372" style="fill-rule:evenodd;stroke:#555753;fill:#d3d7cf" d="m16.5 32.511-1 5.6252v6.3579h5v-6.4118l-1.0938-5.5714h-2.9062z"/>
  <rect id="rect2721" style="fill:#888a85;fill-rule:evenodd" height="5" width="4" y="38.99" x="16"/>
  <rect id="rect2673" style="fill:url(#linearGradient3780);fill-rule:evenodd" height="5" width="4" y="38.99" x="16"/>
  <path id="path2691" style="fill:#2e5c02;fill-rule:evenodd" d="m26 34.49a1.5 0.5 0 1 1 -3 0 1.5 0.5 0 1 1 3 0z"/>
  <path id="path2693" style="fill:#2e5c02;fill-rule:evenodd" d="m12 34.49a1.5 0.5 0 1 1 -3 0 1.5 0.5 0 1 1 3 0z"/>
 </g>
 <g id="g3782" transform="translate(2.0002 -9)">
  <path id="path3784" style="stroke-linejoin:round;fill-rule:evenodd;stroke:#2e5c02;fill:#4f7f21" d="m1.4998 33.479h24v6.0252h-24v-6.0252z"/>
  <path id="path3786" style="stroke-linejoin:round;fill-rule:evenodd;stroke:#2e5c02;fill:#59af05" d="m4.3259 27.491h20.272l0.90243 6.0095h-24l2.8259-6.0095z"/>
  <rect id="rect3788" style="fill:#2e5c02;fill-rule:evenodd" height="1" width="23" y="37.027" x="2.0001"/>
  <rect id="rect3790" style="fill:#2e5c02;fill-rule:evenodd" height="1" width="23" y="35.027" x="2.0001"/>
  <path id="path3792" style="opacity:.25;stroke:#fff;fill:none" d="m4.9376 28.542-1.9688 3.9375h21.344l-0.59375-3.9375h-18.781z"/>
  <rect id="rect3794" style="fill-rule:evenodd;stroke:#555753;fill:#eeeeec" height="6.1094" width="4.9373" y="33.464" x="11.531"/>
  <path id="path3796" style="fill:#2e5c02;fill-rule:evenodd" d="m19 30.49a5 1.5 0 1 1 -10 0 5 1.5 0 1 1 10 0z"/>
  <path id="path3798" style="fill-rule:evenodd;stroke:#555753;fill:#d3d7cf" d="m12.5 27.486-1 5.6372v6.3714h5v-6.4254l-1.0938-5.5832h-2.9062z"/>
  <path id="path3800" style="fill:#2e5c02;fill-rule:evenodd" d="m7 31.49a1.5156 0.5 0 1 1 -3.0312 0 1.5156 0.5 0 1 1 3.0312 0z"/>
  <path id="path3802" style="fill:#2e5c02;fill-rule:evenodd" d="m24 31.49a1.5 0.5 0 1 1 -3 0 1.5 0.5 0 1 1 3 0z"/>
  <path id="path3804" style="fill:#2e5c02;fill-rule:evenodd" d="m23 29.49a1.5 0.5 0 1 1 -3 0 1.5 0.5 0 1 1 3 0z"/>
  <path id="path3806" style="fill:#2e5c02;fill-rule:evenodd" d="m8 29.49a1.5 0.5 0 1 1 -3 0 1.5 0.5 0 1 1 3 0z"/>
 </g>
 <g id="g3808" transform="translate(2.0002 -9)">
  <path id="path3810" style="stroke-linejoin:round;fill-rule:evenodd;stroke:#2e5c02;fill:#4f7f21" d="m5.4915 38.461h24.009v6.0391h-24.009v-6.0391z"/>
  <path id="path3812" style="stroke-linejoin:round;fill-rule:evenodd;stroke:#2e5c02;fill:#57ae06" d="m7.4508 32.495h20.209l1.8399 5.994h-23.999l1.9508-5.994z"/>
  <rect id="rect3814" style="fill:#2e5c02;fill-rule:evenodd" height="1" width="23" y="41.99" x="6"/>
  <rect id="rect3816" style="fill:#2e5c02;fill-rule:evenodd" height="1" width="23" y="39.99" x="6"/>
  <path id="path3818" style="opacity:.25;stroke:#fff;fill:none" d="m8.2188 33.521-1.2812 3.9375h21.156l-1.2188-3.9375h-18.656z"/>
  <path id="path3820" style="fill:#2e5c02;fill-rule:evenodd" d="m23 35.49a5 1.5 0 1 1 -10 0 5 1.5 0 1 1 10 0z"/>
  <path id="path3822" style="fill:#2e5c02;fill-rule:evenodd" d="m11 36.474a1.5156 0.5 0 0 1 -3.0312 0 1.5156 0.5 0 1 1 3.0312 0z"/>
  <path id="path3824" style="fill:#2e5c02;fill-rule:evenodd" d="m27 36.49a1.5 0.5 0 1 1 -3 0 1.5 0.5 0 1 1 3 0z"/>
  <path id="path3826" style="fill-rule:evenodd;stroke:#555753;fill:#d3d7cf" d="m16.5 32.511-1 5.6252v6.3579h5v-6.4118l-1.0938-5.5714h-2.9062z"/>
  <rect id="rect3828" style="fill:#888a85;fill-rule:evenodd" height="5" width="4" y="38.99" x="16"/>
  <rect id="rect3830" style="fill-rule:evenodd;fill:url(#linearGradient3780)" height="5" width="4" y="38.99" x="16"/>
  <path id="path3832" style="fill:#2e5c02;fill-rule:evenodd" d="m26 34.49a1.5 0.5 0 1 1 -3 0 1.5 0.5 0 1 1 3 0z"/>
  <path id="path3834" style="fill:#2e5c02;fill-rule:evenodd" d="m12 34.49a1.5 0.5 0 1 1 -3 0 1.5 0.5 0 1 1 3 0z"/>
 </g>
</svg>
