<?xml version="1.0" encoding="UTF-8" standalone="no"?>
<!-- Created with Inkscape (http://www.inkscape.org/) -->
<svg id="svg2" xmlns="http://www.w3.org/2000/svg" height="32" width="32" version="1.0" xmlns:xlink="http://www.w3.org/1999/xlink">
 <defs id="defs4">
  <linearGradient id="linearGradient3156">
   <stop id="stop3158" style="stop-color:#fff" offset="0"/>
   <stop id="stop3160" style="stop-color:#fff;stop-opacity:0" offset="1"/>
  </linearGradient>
  <radialGradient id="radialGradient6203" gradientUnits="userSpaceOnUse" cy="4.625" cx="62.625" gradientTransform="matrix(1 0 0 .34118 0 3.0471)" r="10.625">
   <stop id="stop8840" offset="0"/>
   <stop id="stop8842" style="stop-opacity:0" offset="1"/>
  </radialGradient>
  <linearGradient id="linearGradient6223" y2="20.664" xlink:href="#linearGradient3156" gradientUnits="userSpaceOnUse" x2="28.29" y1="61.853" x1="24.335"/>
  <linearGradient id="linearGradient6225" y2="20.664" xlink:href="#linearGradient3156" gradientUnits="userSpaceOnUse" x2="28.29" y1="-.81503" x1="27.889"/>
  <linearGradient id="linearGradient6227" y2="20.664" xlink:href="#linearGradient3156" gradientUnits="userSpaceOnUse" x2="28.29" y1="-2.3103" x1="28.221"/>
  <linearGradient id="linearGradient6229" y2="24.654" xlink:href="#linearGradient3156" gradientUnits="userSpaceOnUse" x2="29.725" y1="55.647" x1="30.502"/>
  <radialGradient id="radialGradient5550" fy="3.6817" xlink:href="#linearGradient3156" gradientUnits="userSpaceOnUse" cy="10.143" cx="21.8" gradientTransform="matrix(1.117 -.029228 .017775 .77129 -11.972 .055783)" r="14"/>
  <radialGradient id="radialGradient5553" xlink:href="#linearGradient3156" gradientUnits="userSpaceOnUse" cy="25.946" cx="68.432" gradientTransform="matrix(1.3261 -.024670 .013598 .73096 -80.67 -12.369)" r="13"/>
  <radialGradient id="radialGradient5563" gradientUnits="userSpaceOnUse" cy="12.904" cx="19.126" gradientTransform="matrix(1.1062 -.0037037 .0029629 .89853 -9.1962 -3.0978)" r="22.464">
   <stop id="stop4105" style="stop-color:#70adfb" offset="0"/>
   <stop id="stop4107" style="stop-color:#3465a4" offset="1"/>
  </radialGradient>
  <linearGradient id="linearGradient5565" y2="51.096" gradientUnits="userSpaceOnUse" x2="74" gradientTransform="translate(-58 -21.006)" y1="37.048" x1="74">
   <stop id="stop6495" style="stop-color:#4580d4" offset="0"/>
   <stop id="stop6497" style="stop-color:#114796" offset="1"/>
  </linearGradient>
  <radialGradient id="radialGradient6347" gradientUnits="userSpaceOnUse" cy="11.715" cx="16.311" gradientTransform="matrix(1.5861 .027993 -.032215 1.8253 -9.182 -10.697)" r="9.7989">
   <stop id="stop8920" style="stop-color:#debc8c" offset="0"/>
   <stop id="stop8922" style="stop-color:#f4ac72" offset="1"/>
  </radialGradient>
 </defs>
 <g id="layer1">
  <g id="g6349">
   <path id="path6401" style="opacity:.56044;fill-rule:evenodd;enable-background:new;fill:url(#radialGradient6203)" d="m73.25 4.625c0 2.002-4.757 3.625-10.625 3.625s-10.625-1.623-10.625-3.625 4.757-3.625 10.625-3.625 10.625 1.623 10.625 3.625z" transform="matrix(1.0353 0 0 .99388 -48.835 23)"/>
   <path id="path6453" style="stroke-linejoin:round;stroke:url(#linearGradient5565);stroke-linecap:round;stroke-width:.99742;fill:url(#radialGradient5563)" d="m29.501 16.042c0 7.4792-6.0486 13.549-13.501 13.549-7.4527 0-13.501-6.0701-13.501-13.549 0-7.4792 6.0486-13.549 13.501-13.549 7.4527 0 13.501 6.0701 13.501 13.549z"/>
   <path id="path3630" style="opacity:.5" d="m28.509 13.979-0.12145 0.45799c-0.35941-0.29207-0.76293-0.53768-1.1727-0.7942l-0.89948 0.09127-0.82179-0.6406v0.7928l0.70407 0.36738 0.46863 0.36597 0.62627-0.48841c0.15764 0.20362 0.31314 0.40723 0.4697 0.61085v0.61018l-0.70515 0.54926-1.2904 0.61085-0.97729 0.67251-0.62627-0.48989 0.31314-0.54926-0.6253-0.48841-1.0561-1.5566-0.89948-0.70145-0.23544 0.18262 0.35306 0.88555 0.66415 0.51883c0.37931 0.7551 0.75454 1.4768 1.2527 2.1986 0.7724 0 1.5006-0.05654 2.2677-0.12318v0.42756l-0.93844 1.5874-0.86064 0.67103-0.70407 1.0392v1.7087l0.23544 0.67251-0.39094 0.30438-0.86172 0.36664-0.89948 0.51883 0.74399 0.57976-1.0172 0.61159 0.19541 0.39566-1.5259 1.1913h-1.0161l-0.86064 0.36664h-0.54858v-0.48841l-0.23329-0.9783c-0.3027-0.61307-0.61788-1.2218-0.93844-1.8305 0-0.4493 0.03885-0.89423 0.0778-1.3435l0.39201-0.61018-0.54858-0.73336 0.03992-1.0072-0.74399-0.57976 0.372-0.83917-0.60529-0.47357h-1.0571l-0.35198-0.27463-1.0561 0.45836-0.42978-0.33659-0.97836 0.58005c-0.665-0.519-1.33-1.038-1.9949-1.557l-0.7818-1.282 0.704-0.732-0.3909-0.305 0.8596-1.405c0.70622-0.6058 1.4439-1.187 2.19-1.7703l1.3303-0.2442 1.4859-0.12177 1.0172 0.18336 1.447 1.0065 0.50866-0.3964 0.703-0.06085 1.3303 0.30505h1.0172l0.70407-0.42756 0.31314-0.30505-0.70515-0.30505-1.1738-0.06085c-0.32573-0.31158-0.62842-0.63911-1.0152-0.91597l-0.39201 0.12177-0.15657 0.7942-0.70407-0.54926-0.15549-0.61159-0.78187-0.42608h-0.31421l0.78284 0.61018-0.31314 0.54926-0.6253 0.12177 0.39094-0.54926-0.70515-0.24346-0.62423-0.48841-1.1749 0.18262-0.15549 0.24346-0.70407 0.30579-0.39094 0.67177-0.97729 0.33548-0.43086-0.33548h-0.46863v-1.0993l1.0172-0.36664h0.78187l-0.15764-0.42682-0.62423-0.42756 1.0551-0.15293 0.58635-0.45724 0.46863-0.55h0.86172l-0.23544-0.42682 0.54858-0.24421v0.48841l1.1727 0.18262 1.1727-0.67103 0.07877-0.30579 1.0161-0.48804c-0.3678 0.031537-0.7356 0.054688-1.095 0.12214v-0.54993l0.39094-0.61055h-0.39094l-0.85913 0.54926-0.23544 0.30542 0.23544 0.42793-0.39201 0.73187-0.6253-0.24421-0.54643-0.42682-0.86172 0.42682-0.31314-0.97645 1.4859-0.6714v-0.36664l0.93941-0.42719 1.4859-0.24458 1.0172 0.24458 1.4081 0.61018h-1.0172l1.0172 0.73262 0.78187-0.61018s3.1112 1.5275 4.7181 3.64c1.5636 2.0555 2.218 4.3917 2.2864 4.8773z"/>
   <path id="path6457" style="fill:url(#radialGradient6347)" d="m28.509 12.98-0.12145 0.45799c-0.35941-0.29207-0.76293-0.53768-1.1727-0.7942l-0.89948 0.09127-0.82179-0.6406v0.7928l0.70407 0.36738 0.46863 0.36597 0.62627-0.48841c0.15764 0.20362 0.31314 0.40723 0.4697 0.61085v0.61018l-0.70515 0.54926-1.2904 0.61085-0.97729 0.67251-0.62627-0.48989 0.31314-0.54926-0.6253-0.48841-1.0561-1.5566-0.89948-0.70145-0.23544 0.18262 0.35306 0.88555 0.66415 0.51883c0.37931 0.7551 0.75454 1.4768 1.2527 2.1986 0.7724 0 1.5006-0.05654 2.2677-0.12318v0.42756l-0.93844 1.5874-0.86064 0.67103-0.70407 1.0392v1.7087l0.23544 0.67251-0.39094 0.30438-0.86172 0.36664-0.89948 0.51883 0.74399 0.57976-1.0172 0.61159 0.19541 0.39566-1.5259 1.1913h-1.0161l-0.86064 0.36664h-0.54858v-0.48841l-0.23329-0.9783c-0.3027-0.61307-0.61788-1.2218-0.93844-1.8305 0-0.4493 0.03885-0.89423 0.0778-1.3435l0.39201-0.61018-0.54858-0.73336 0.03992-1.0072-0.74399-0.57976 0.372-0.83917-0.60529-0.47357h-1.0571l-0.35198-0.27463-1.0561 0.45836-0.42978-0.33659-0.97836 0.58005c-0.665-0.519-1.33-1.038-1.9949-1.557l-0.7818-1.283 0.704-0.732-0.3909-0.305 0.8596-1.405c0.70622-0.6058 1.4439-1.187 2.19-1.7703l1.3303-0.2442 1.4859-0.12177 1.0172 0.18336 1.447 1.0065 0.50866-0.3964 0.703-0.06085 1.3303 0.30505h1.0172l0.70407-0.42756 0.31314-0.30505-0.70515-0.30505-1.1738-0.06085c-0.326-0.312-0.628-0.639-1.015-0.9159l-0.39201 0.12177-0.15657 0.7942-0.70407-0.54926-0.15549-0.61159-0.78187-0.42608h-0.31421l0.78284 0.61018-0.31314 0.54926-0.6253 0.12177 0.391-0.5489-0.705-0.2435-0.624-0.4884-1.175 0.1826-0.156 0.2435-0.70407 0.30579-0.39094 0.67177-0.97729 0.33548-0.43086-0.33548h-0.46863v-1.0993l1.0172-0.36664h0.78187l-0.15764-0.42682-0.62423-0.42756 1.0551-0.15293 0.58635-0.45724 0.46863-0.55h0.86172l-0.23544-0.42682 0.54858-0.24421v0.48841l1.1727 0.18262 1.1727-0.67103 0.07877-0.30579 1.0161-0.48804c-0.3678 0.031537-0.7356 0.054688-1.095 0.12214v-0.54993l0.39094-0.61055h-0.39094l-0.85913 0.54926-0.23544 0.30542 0.23544 0.42793-0.39201 0.73187-0.6253-0.24421-0.54643-0.42682-0.86172 0.42682-0.31314-0.97645 1.4859-0.6714v-0.36664l0.93941-0.42719 1.4859-0.24458 1.0172 0.24458 1.4081 0.61018h-1.0172l1.0172 0.73262 0.78187-0.61018s3.1112 1.5275 4.7181 3.64c1.5636 2.0555 2.218 4.3917 2.2864 4.8773z"/>
   <path id="path6461" style="opacity:.3;stroke-linejoin:round;stroke:url(#radialGradient5553);stroke-linecap:round;stroke-width:.99113;fill:none" d="m28.504 15.956c0 6.9234-5.602 12.542-12.504 12.542-6.9025 0-12.504-5.619-12.504-12.542 0-6.9234 5.602-12.542 12.504-12.542 6.9024 0 12.504 5.619 12.504 12.542z"/>
   <path id="path6463" style="opacity:.4;fill:url(#radialGradient5550)" d="m28.2 11.72c0 4.692-5.4656 7.274-12.2 7.274s-12.2-2.582-12.2-7.274 5.4656-9.7259 12.2-9.7259 12.2 5.0339 12.2 9.7259z"/>
   <path id="path6465" style="opacity:.5;stroke:url(#linearGradient6223);stroke-linecap:round;stroke-width:1.6632;fill:none" d="m46 24.25c0 9.665-7.835 17.5-17.5 17.5s-17.5-7.835-17.5-17.5 7.835-17.5 17.5-17.5 17.5 7.835 17.5 17.5z" transform="matrix(.70278 -.19419 .12752 .47620 -7.1217 10.481)"/>
   <path id="path6467" style="opacity:.5;stroke:url(#linearGradient6225);stroke-linecap:round;stroke-width:1.6557;fill:none" d="m46 24.25c0 9.665-7.835 17.5-17.5 17.5s-17.5-7.835-17.5-17.5 7.835-17.5 17.5-17.5 17.5 7.835 17.5 17.5z" transform="matrix(.71575 -.0041918 .00071473 .45859 -4.4163 3.4929)"/>
   <path id="path6469" style="opacity:.5;stroke:url(#linearGradient6227);stroke-linecap:round;stroke-width:1.7143;fill:none" d="m46 24.25c0 9.665-7.835 17.5-17.5 17.5s-17.5-7.835-17.5-17.5 7.835-17.5 17.5-17.5 17.5 7.835 17.5 17.5z" transform="matrix(-.064839 -.71519 .45309 -.025540 5.3604 36.984)"/>
   <path id="path6471" style="stroke:url(#linearGradient6229);stroke-linecap:round;stroke-width:2.0761;fill:none" d="m46 24.25c0 9.665-7.835 17.5-17.5 17.5s-17.5-7.835-17.5-17.5 7.835-17.5 17.5-17.5 17.5 7.835 17.5 17.5z" transform="matrix(-.10550 -.72482 .32007 .011117 11.335 36.386)"/>
   <g id="g6473" style="stroke-width:1.5914" transform="matrix(.64316 -.17495 .17495 .64316 -3.5337 4.0368)">
    <path id="path6475" style="opacity:.5;fill:#fff" d="m31.375 37.875c0 0.9665-0.7835 1.75-1.75 1.75s-1.75-0.7835-1.75-1.75 0.7835-1.75 1.75-1.75 1.75 0.7835 1.75 1.75z" transform="matrix(.85714 0 0 .85714 4.1071 5.0357)"/>
   </g>
   <g id="g6477" style="opacity:.4;stroke-width:1.7189" transform="matrix(.63530 -.15135 .20161 .64913 -16.302 5.1167)">
    <path id="path6479" style="opacity:.5;fill:#fff" d="m31.375 37.875c0 0.9665-0.7835 1.75-1.75 1.75s-1.75-0.7835-1.75-1.75 0.7835-1.75 1.75-1.75 1.75 0.7835 1.75 1.75z" transform="matrix(.85714 0 0 .85714 4.1071 5.0357)"/>
   </g>
   <g id="g6481" style="stroke-width:1.7189" transform="matrix(.61635 -.21252 .25377 .63174 -9.6985 -11.426)">
    <path id="path6483" style="opacity:.5;fill:#fff" d="m31.375 37.875c0 0.9665-0.7835 1.75-1.75 1.75s-1.75-0.7835-1.75-1.75 0.7835-1.75 1.75-1.75 1.75 0.7835 1.75 1.75z" transform="matrix(.85714 0 0 .85714 4.1071 5.0357)"/>
   </g>
   <g id="g6485" style="opacity:.4;stroke-width:1.7189" transform="matrix(.66657 -.18801 -.011228 .63946 -11.243 -10.439)">
    <path id="path6487" style="opacity:.5;fill:#fff" d="m31.375 37.875c0 0.9665-0.7835 1.75-1.75 1.75s-1.75-0.7835-1.75-1.75 0.7835-1.75 1.75-1.75 1.75 0.7835 1.75 1.75z" transform="matrix(.85714 0 0 .85714 4.1071 5.0357)"/>
   </g>
  </g>
 </g>
</svg>
