<?xml version="1.0" encoding="UTF-8" standalone="no"?>
<!-- Created with Inkscape (http://www.inkscape.org/) -->
<svg id="svg3486" xmlns="http://www.w3.org/2000/svg" height="32" width="32" version="1.0" xmlns:xlink="http://www.w3.org/1999/xlink">
 <defs id="defs3488">
  <linearGradient id="linearGradient3434">
   <stop id="stop3436" style="stop-color:#fff;stop-opacity:0" offset="0"/>
   <stop id="stop3438" style="stop-color:#fff" offset="1"/>
  </linearGradient>
  <linearGradient id="linearGradient3463">
   <stop id="stop3465" offset="0"/>
   <stop id="stop3467" style="stop-opacity:0" offset="1"/>
  </linearGradient>
  <linearGradient id="linearGradient3275" y2="33.434" xlink:href="#linearGradient3434" gradientUnits="userSpaceOnUse" x2="15" gradientTransform="matrix(.875 0 0 .86207 .1875 -8.8621)" y1="17" x1="15"/>
  <linearGradient id="linearGradient3278" y2="15.875" xlink:href="#linearGradient3434" gradientUnits="userSpaceOnUse" x2="14.499" gradientTransform="matrix(.93333 0 0 .86676 -.55625 -8.8889)" y1="44.179" x1="14.499"/>
  <linearGradient id="linearGradient3281" y2="45.497" gradientUnits="userSpaceOnUse" x2="22.056" gradientTransform="matrix(.86361 0 0 .87193 -.13264 -9.7371)" y1="15.834" x1="22.056">
   <stop id="stop9938" style="stop-color:#575757" offset="0"/>
   <stop id="stop9940" style="stop-color:#333" offset="1"/>
  </linearGradient>
  <radialGradient id="radialGradient3287" xlink:href="#linearGradient3463" gradientUnits="userSpaceOnUse" cy="36.686" cx="-6.1603" gradientTransform="matrix(.25444 0 0 .17730 6.1544 21.996)" r="14.098"/>
  <radialGradient id="radialGradient3290" xlink:href="#linearGradient3463" gradientUnits="userSpaceOnUse" cy="36.686" cx="-6.1603" gradientTransform="matrix(.83270 0 0 .17519 17.869 22.103)" r="14.098"/>
  <radialGradient id="radialGradient3293" xlink:href="#linearGradient3463" gradientUnits="userSpaceOnUse" cy="36.686" cx="-6.1603" gradientTransform="matrix(.69391 0 0 .17730 25.492 21.996)" r="14.098"/>
  <linearGradient id="linearGradient3296" y2="103.13" gradientUnits="userSpaceOnUse" x2="143.92" gradientTransform="matrix(1.0007 0 0 .95682 -122.51 -61.951)" y1="75.221" x1="143.92">
   <stop id="stop3244" style="stop-color:#f8b17e" offset="0"/>
   <stop id="stop3246" style="stop-color:#e35d4f" offset=".31210"/>
   <stop id="stop3248" style="stop-color:#c6262e" offset=".57054"/>
   <stop id="stop3250" style="stop-color:#690b54" offset="1"/>
  </linearGradient>
  <linearGradient id="linearGradient3298" y2="75.221" gradientUnits="userSpaceOnUse" x2="153.41" gradientTransform="matrix(1.0007 0 0 .95682 -122.51 -61.951)" y1="98.785" x1="153.41">
   <stop id="stop2492" style="stop-color:#791235" offset="0"/>
   <stop id="stop2494" style="stop-color:#dd3b27" offset="1"/>
  </linearGradient>
  <radialGradient id="radialGradient3301" xlink:href="#linearGradient3463" gradientUnits="userSpaceOnUse" cy="36.686" cx="-6.1603" gradientTransform="matrix(.25444 0 0 .17730 22.459 21.996)" r="14.098"/>
  <linearGradient id="linearGradient3310" y2="75.221" gradientUnits="userSpaceOnUse" x2="153.41" gradientTransform="matrix(1.0007 0 0 .95682 -122.51 -61.951)" y1="98.785" x1="153.41">
   <stop id="stop3344" style="stop-color:#fff;stop-opacity:0" offset="0"/>
   <stop id="stop3346" style="stop-color:#fff" offset="1"/>
  </linearGradient>
 </defs>
 <path id="path3205" style="opacity:.2;fill-rule:evenodd;fill:url(#radialGradient3301)" d="m24.478 28.5c0.001 1.381-1.605 2.5-3.587 2.5-1.981 0-3.587-1.119-3.587-2.5s1.606-2.5 3.587-2.5c1.982 0 3.588 1.119 3.587 2.5z"/>
 <path id="path3207" style="fill-rule:evenodd;stroke:url(#linearGradient3298);fill:url(#linearGradient3296)" d="m29.563 11.732c-0.487-1.086-1.678-0.973-2.495-1.145-2.704-0.306-5.403 0.182-7.67 1.678-2.187 1.456-4.167 3.427-5.557 5.97-1.209 2.265-1.751 5.291-0.989 8.173 0.6 1.941 2.407 3.14 3.93 2.816 2.333-0.382 3.995-2.51 5.366-4.585 0.62-0.856 1.001-1.99 1.733-2.709-0.104 1.844-0.151 3.76 0.276 5.634 0.242 1.104 1.129 1.975 2.028 1.935 0.915-0.103 1.611-0.884 2.369-1.393 0.682-0.593 1.463-1.104 1.946-1.962-0.083-1.421-1.376-0.529-1.828-0.041-0.631 0.976-1.935 0.201-1.656-1.128 0.146-3.033 0.866-5.882 1.475-8.742 0.342-1.508 0.702-3.007 1.072-4.501zm-3.777 1.893c-1.159 3.596-2.41 7.256-4.551 10.044-1.01 1.272-2.491 2.426-4.124 1.814-1.129-0.492-1.39-2.109-1.414-3.325-0.146-3.592 1.619-6.566 3.825-8.361 1.537-1.203 3.525-1.747 5.466-1.16 0.367 0.134 0.764 0.482 0.798 0.988z"/>
 <path id="path3209" style="opacity:.2;fill-rule:evenodd;fill:url(#radialGradient3293)" d="m31 28.5c0.001 1.381-4.379 2.5-9.783 2.5-5.403 0-9.783-1.119-9.782-2.5-0.001-1.381 4.379-2.5 9.782-2.5 5.404 0 9.784 1.119 9.783 2.5z"/>
 <path id="path3211" style="opacity:.05;fill-rule:evenodd;fill:url(#radialGradient3290)" d="m24.478 28.53c0.001 1.364-5.255 2.47-11.739 2.47-6.4841 0-11.74-1.106-11.739-2.47-0.00122-1.364 5.2549-2.471 11.739-2.471 6.484 0 11.74 1.107 11.739 2.471z"/>
 <path id="path3213" style="opacity:.2;fill-rule:evenodd;fill:url(#radialGradient3287)" d="m8.1739 28.5c0.0004 1.381-1.6057 2.5-3.5869 2.5-1.9813 0-3.5874-1.119-3.587-2.5-0.00037-1.381 1.6057-2.5 3.587-2.5 1.9812 0 3.5873 1.119 3.5869 2.5z"/>
 <path id="path3305" style="opacity:.4;stroke:url(#linearGradient3310);fill:none" d="m25.531 11.562c-1.072 0.001 0.451 0.199 0.662 0.644 0.676 0.573 0.801 1.55 0.407 2.318-0.722 2.188-1.538 4.35-2.569 6.414 1.264 0.179 0.769 1.71 0.824 2.582 0.018 1.438 0.05 2.926 0.537 4.292 0.385 1.041 1.395 0.324 1.963-0.116 0.558-0.281-0.685-0.299-0.794-0.729-0.621-0.593-0.741-1.786-0.53-2.342 0.218-3.432 1.042-6.785 1.792-10.128 0.202-0.833 0.41-1.665 0.615-2.497-0.694-0.526-1.745-0.301-2.584-0.44l-0.162-0.001-0.161 0.003zm-10 5.938c-1.838 2.474-2.47 5.825-1.641 8.794 0.441 1.269 1.913 2.341 3.264 1.796 0.987-0.349 1.78-1.078 2.471-1.84-1.342 0.665-3.254 0.561-4.126-0.803-0.953-1.467-0.917-3.323-0.773-5.002 0.125-1.014 0.403-2.007 0.805-2.945z"/>
 <path id="path3217" style="stroke:#333;stroke-width:1px;fill:url(#linearGradient3281)" d="m19.295 29.5c-0.796-2.277-1.593-4.723-2.389-7h-9.7862c-0.8162 2.304-1.6325 4.696-2.4487 7h-3.1711c3.0193-8.333 6.0386-16.667 9.058-25h2.867c3.025 8.333 6.05 16.667 9.075 25h-3.205zm-3.358-10l-3.937-11.121c0 0.0003-3.9375 11.121-3.9375 11.121h7.8745z"/>
 <path id="path3219" style="opacity:.3;stroke:url(#linearGradient3278);stroke-width:1px;fill:none" d="m21.246 29l-8.512-23.5h-1.462l-8.5202 23.5"/>
 <path id="path3221" style="opacity:.2;stroke-linejoin:round;stroke:url(#linearGradient3275);stroke-width:1px;fill:none" d="m12 5.5585l5.454 14.942h-10.908l5.454-14.942z"/>
</svg>
