<?xml version="1.0" encoding="UTF-8" standalone="no"?>
<!-- Created with Inkscape (http://www.inkscape.org/) -->

<svg
   xmlns:svg="http://www.w3.org/2000/svg"
   xmlns="http://www.w3.org/2000/svg"
   xmlns:xlink="http://www.w3.org/1999/xlink"
   version="1.0"
   width="24"
   height="24"
   id="svg4138">
  <defs
     id="defs4140">
    <linearGradient
       id="linearGradient8838">
      <stop
         id="stop8840"
         style="stop-color:#000000;stop-opacity:1"
         offset="0" />
      <stop
         id="stop8842"
         style="stop-color:#000000;stop-opacity:0"
         offset="1" />
    </linearGradient>
    <radialGradient
       cx="62.625"
       cy="4.625"
       r="10.625"
       fx="62.625"
       fy="4.625"
       id="radialGradient5323"
       xlink:href="#linearGradient8838"
       gradientUnits="userSpaceOnUse"
       gradientTransform="matrix(1,0,0,0.341176,0,3.047059)" />
    <linearGradient
       id="linearGradient5354">
      <stop
         id="stop5356"
         style="stop-color:#3f3f3f;stop-opacity:1"
         offset="0" />
      <stop
         id="stop5358"
         style="stop-color:#000000;stop-opacity:1"
         offset="1" />
    </linearGradient>
    <linearGradient
       x1="19.176617"
       y1="13.479795"
       x2="19.176617"
       y2="45.358662"
       id="linearGradient5130"
       xlink:href="#linearGradient5354"
       gradientUnits="userSpaceOnUse"
       gradientTransform="matrix(0.4916775,0,0,0.4916774,0.6986745,-0.3018277)" />
    <linearGradient
       id="linearGradient37935">
      <stop
         id="stop37937"
         style="stop-color:#929292;stop-opacity:1"
         offset="0" />
      <stop
         id="stop37939"
         style="stop-color:#4a4a4a;stop-opacity:1"
         offset="1" />
    </linearGradient>
    <linearGradient
       x1="28.771276"
       y1="12.91806"
       x2="28.771276"
       y2="45.347591"
       id="linearGradient5128"
       xlink:href="#linearGradient37935"
       gradientUnits="userSpaceOnUse"
       gradientTransform="matrix(0.4916775,0,0,0.4916774,0.6986745,-0.3018277)" />
    <linearGradient
       id="linearGradient2145">
      <stop
         id="stop2147"
         style="stop-color:#fffffd;stop-opacity:1"
         offset="0" />
      <stop
         id="stop2149"
         style="stop-color:#cbcbc9;stop-opacity:1"
         offset="1" />
    </linearGradient>
    <radialGradient
       cx="11.901996"
       cy="10.045444"
       r="29.292715"
       fx="11.901996"
       fy="10.045444"
       id="radialGradient5350"
       xlink:href="#linearGradient2145"
       gradientUnits="userSpaceOnUse" />
  </defs>
  <g
     transform="translate(-0.9999996,0.99999987)"
     id="layer1">
    <path
       d="m 73.25,4.625 a 10.625,3.625 0 1 1 -21.25,0 10.625,3.625 0 1 1 21.25,0 z"
       transform="matrix(1.0823528,0,0,1.2906765,-55.282346,13.351919)"
       id="path2774"
       style="opacity:0.56043958;fill:url(#radialGradient5323);fill-opacity:1;fill-rule:evenodd;stroke:none;stroke-width:0.99999988;marker:none;visibility:visible;display:inline;overflow:visible" />
    <path
       d="m 12.492145,1.4999735 c -5.5190685,0 -9.9921705,4.473101 -9.9921705,9.9921715 0,5.519069 4.473102,10.007882 9.9921705,10.007881 5.519068,0 10.007887,-4.488812 10.007882,-10.007881 0,-5.5190705 -4.488814,-9.9921715 -10.007882,-9.9921715 z"
       id="path2555"
       style="fill:url(#linearGradient5128);fill-opacity:1;stroke:url(#linearGradient5130);stroke-width:0.99994898;stroke-linecap:round;stroke-linejoin:round;stroke-miterlimit:4;stroke-opacity:1;stroke-dasharray:none;stroke-dashoffset:0" />
    <path
       d="m 31.160714,16.910715 a 14.910714,14.910714 0 1 1 -29.8214281,0 14.910714,14.910714 0 1 1 29.8214281,0 z"
       transform="matrix(0.5700599,0,0,0.5700599,3.2365269,1.8598792)"
       id="path35549"
       style="fill:url(#radialGradient5350);fill-opacity:1;fill-rule:evenodd;stroke:none" />
    <path
       d="m 12.5,6.4999999 c 0,-1.3926725 0,-1.5690116 0,-1.5690116"
       id="path2308"
       style="fill:#1f1f1f;fill-opacity:1;fill-rule:evenodd;stroke:#727272;stroke-width:1.00000012;stroke-linecap:round;stroke-linejoin:miter;stroke-miterlimit:4;stroke-opacity:1;stroke-dasharray:none" />
    <path
       d="M 12.194529,11.713855 17.596253,6.3122524"
       id="path2312"
       style="fill:none;stroke:#000000;stroke-width:0.5;stroke-linecap:round;stroke-linejoin:miter;stroke-miterlimit:4;stroke-opacity:1;stroke-dasharray:none" />
    <path
       d="M 13.071561,11.753718 9.4637681,8.1460064"
       id="path2314"
       style="fill:none;stroke:#000000;stroke-width:0.5;stroke-linecap:round;stroke-linejoin:miter;stroke-miterlimit:4;stroke-opacity:1;stroke-dasharray:none" />
    <path
       d="M 12.314125,11.434805 18.465311,9.7866365"
       id="path2316"
       style="fill:#ff0000;fill-rule:evenodd;stroke:#ff0000;stroke-width:0.5;stroke-linecap:round;stroke-linejoin:miter;stroke-miterlimit:4;stroke-opacity:1;stroke-dasharray:none" />
    <path
       d="m 12.5,18.284507 c 0,-1.392673 0,-1.569012 0,-1.569012"
       id="path5368"
       style="fill:#121212;fill-opacity:1;fill-rule:evenodd;stroke:#121212;stroke-width:1.00000012;stroke-linecap:round;stroke-linejoin:miter;stroke-miterlimit:4;stroke-opacity:1;stroke-dasharray:none" />
    <path
       d="m 17.5,11.5 c 1.392673,0 1.569013,0 1.569013,0"
       id="path5370"
       style="fill:#1f1f1f;fill-opacity:1;fill-rule:evenodd;stroke:#1f1f1f;stroke-width:1.00000012;stroke-linecap:round;stroke-linejoin:miter;stroke-miterlimit:4;stroke-opacity:1;stroke-dasharray:none" />
    <path
       d="m 5.7331351,11.5 c 1.3613563,0 1.5337301,0 1.5337301,0"
       id="path5372"
       style="fill:#1f1f1f;fill-opacity:1;fill-rule:evenodd;stroke:#5f5f5f;stroke-width:1.00000012;stroke-linecap:round;stroke-linejoin:miter;stroke-miterlimit:4;stroke-opacity:1;stroke-dasharray:none" />
    <path
       d="m 23.499726,2.5080278 -3.368576,3.0278443 3.368576,0 0,1.9638547 -5.999454,0 0,-2.1871311 3.11703,-2.7671632 -3.11703,0 0,-2.04515927 5.999454,0 0,2.00775457 z"
       id="path13687"
       style="font-size:10px;font-style:normal;font-variant:normal;font-weight:normal;font-stretch:normal;line-height:100%;writing-mode:lr-tb;text-anchor:start;fill:#7da5ca;fill-opacity:1;stroke:#356ca0;stroke-width:1;stroke-linecap:butt;stroke-linejoin:miter;stroke-miterlimit:4;stroke-opacity:1;stroke-dasharray:none;font-family:Segoe" />
    <path
       d="m 20.499999,11.671256 -2.326359,1.856163 2.326359,0 0,1.960278 -4.999999,0 0,-2.130028 2.194321,-1.873657 -2.194321,0 0,-1.9840125 4.999999,0 0,2.1712565 z"
       id="path13696"
       style="font-size:10px;font-style:normal;font-variant:normal;font-weight:normal;font-stretch:normal;line-height:100%;writing-mode:lr-tb;text-anchor:start;fill:#7da5ca;fill-opacity:1;stroke:#356ca0;stroke-width:0.99999988;stroke-linecap:butt;stroke-linejoin:miter;stroke-miterlimit:4;stroke-opacity:1;stroke-dasharray:none;font-family:Segoe" />
  </g>
</svg>
