<?xml version="1.0" encoding="UTF-8" standalone="no"?>
<!-- Created with Inkscape (http://www.inkscape.org/) -->
<svg id="svg3082" xmlns="http://www.w3.org/2000/svg" height="24" width="24" version="1.0" xmlns:xlink="http://www.w3.org/1999/xlink">
 <defs id="defs3084">
  <linearGradient id="linearGradient6457">
   <stop id="stop6459" style="stop-color:#fff;stop-opacity:.94118" offset="0"/>
   <stop id="stop6461" style="stop-color:#fff;stop-opacity:.70588" offset="1"/>
  </linearGradient>
  <linearGradient id="linearGradient5060">
   <stop id="stop5062" offset="0"/>
   <stop id="stop5064" style="stop-opacity:0" offset="1"/>
  </linearGradient>
  <linearGradient id="linearGradient5048">
   <stop id="stop5050" style="stop-opacity:0" offset="0"/>
   <stop id="stop5056" offset=".5"/>
   <stop id="stop5052" style="stop-opacity:0" offset="1"/>
  </linearGradient>
  <linearGradient id="linearGradient2781">
   <stop id="stop2783" style="stop-color:#505050" offset="0"/>
   <stop id="stop6301" style="stop-color:#6e6e6e" offset=".13216"/>
   <stop id="stop2785" style="stop-color:#8c8c8c" offset="1"/>
  </linearGradient>
  <linearGradient id="linearGradient3690">
   <stop id="stop3692" style="stop-color:#fff" offset="0"/>
   <stop id="stop3694" style="stop-color:#fff;stop-opacity:.46875" offset="1"/>
  </linearGradient>
  <linearGradient id="linearGradient6460" y2="609.51" xlink:href="#linearGradient5048" gradientUnits="userSpaceOnUse" x2="302.86" gradientTransform="matrix(2.7744 0 0 1.9697 -1892.2 -872.89)" y1="366.65" x1="302.86"/>
  <radialGradient id="radialGradient6462" xlink:href="#linearGradient5060" gradientUnits="userSpaceOnUse" cy="486.65" cx="605.71" gradientTransform="matrix(2.7744 0 0 1.9697 -1891.6 -872.89)" r="117.14"/>
  <radialGradient id="radialGradient6464" xlink:href="#linearGradient5060" gradientUnits="userSpaceOnUse" cy="486.65" cx="605.71" gradientTransform="matrix(-2.7744 0 0 1.9697 112.76 -872.89)" r="117.14"/>
  <linearGradient id="linearGradient6466" y2="39.924" xlink:href="#linearGradient2781" gradientUnits="userSpaceOnUse" x2="21.78" gradientTransform="matrix(.42425 0 0 .42624 -2.1063 4.6637)" y1="8.5763" x1="21.866"/>
  <linearGradient id="linearGradient6468" y2="15.044" xlink:href="#linearGradient3690" gradientUnits="userSpaceOnUse" x2="16.075" gradientTransform="matrix(.38711 0 0 .37933 -1.1778 5.8962)" y1="9.0735" x1="16.034"/>
  <linearGradient id="linearGradient6470" y2="40" xlink:href="#linearGradient6457" gradientUnits="userSpaceOnUse" x2="24" gradientTransform="matrix(.34211 0 0 .29630 .28947 9.1481)" y1="13" x1="24"/>
 </defs>
 <g id="g6528">
  <g id="g6436" transform="translate(7 -6.9999)">
   <g id="g6438" style="stroke-width:1.8826" transform="matrix(.38670 0 0 .42212 -.68406 2.9265)">
    <g id="g6440" style="stroke-width:104.96" transform="matrix(.021652 0 0 .014857 43.008 42.685)">
     <rect id="rect6442" style="opacity:.40206;fill:url(#linearGradient6460)" height="478.36" width="1339.6" y="-150.7" x="-1559.3"/>
     <path id="path6444" style="opacity:.40206;fill:url(#radialGradient6462)" d="m-219.62-150.68v478.33c142.87 0.90045 345.4-107.17 345.4-239.2s-159.44-239.13-345.4-239.13z"/>
     <path id="path6446" style="opacity:.40206;fill:url(#radialGradient6464)" d="m-1559.3-150.68v478.33c-142.87 0.90045-345.4-107.17-345.4-239.2s159.44-239.13 345.4-239.13z"/>
    </g>
   </g>
   <rect id="rect6448" style="stroke-linejoin:round;stroke:#565853;stroke-width:.99969;fill:url(#linearGradient6466)" height="13" width="14" y="8.4998" x="1.4998"/>
   <rect id="rect6450" style="opacity:.2;stroke:url(#linearGradient6468);stroke-width:.99953;fill:none" height="11" width="12" y="9.4998" x="2.4998"/>
   <rect id="rect6452" style="fill:url(#linearGradient6470)" height="8" width="13" y="13" x="2"/>
   <path id="path6454" style="fill:#ffc24c" d="m14 11.25c0.000178 0.41416-0.33566 0.75-0.75 0.75s-0.75018-0.33584-0.75-0.75c-0.000181-0.41416 0.33566-0.75 0.75-0.75s0.75018 0.33584 0.75 0.75z"/>
   <path id="path6456" style="fill:#ffc24c" d="m12 11.25c0.000178 0.41416-0.33566 0.75-0.75 0.75s-0.75018-0.33584-0.75-0.75c-0.000181-0.41416 0.33566-0.75 0.75-0.75s0.75018 0.33584 0.75 0.75z"/>
   <path id="path6458" style="fill:#ffc24c" d="m10 11.25c0.0001781 0.41416-0.33566 0.75-0.75 0.75s-0.75018-0.33584-0.75-0.75c-0.000181-0.41416 0.33566-0.75 0.75-0.75s0.75018 0.33584 0.75 0.75z"/>
  </g>
  <g id="g6514">
   <g id="g3490" style="stroke-width:1.8826" transform="matrix(.38670 0 0 .42212 -.68406 2.9265)">
    <g id="g5022" style="stroke-width:104.96" transform="matrix(.021652 0 0 .014857 43.008 42.685)">
     <rect id="rect4173" style="opacity:.40206;fill:url(#linearGradient6460)" height="478.36" width="1339.6" y="-150.7" x="-1559.3"/>
     <path id="path5058" style="opacity:.40206;fill:url(#radialGradient6462)" d="m-219.62-150.68v478.33c142.87 0.90045 345.4-107.17 345.4-239.2s-159.44-239.13-345.4-239.13z"/>
     <path id="path5018" style="opacity:.40206;fill:url(#radialGradient6464)" d="m-1559.3-150.68v478.33c-142.87 0.90045-345.4-107.17-345.4-239.2s159.44-239.13 345.4-239.13z"/>
    </g>
   </g>
   <rect id="rect1887" style="stroke-linejoin:round;stroke:#565853;stroke-width:.99969;fill:url(#linearGradient6466)" height="13" width="14" y="8.4998" x="1.4998"/>
   <rect id="rect2779" style="opacity:.2;stroke:url(#linearGradient6468);stroke-width:.99953;fill:none" height="11" width="12" y="9.4998" x="2.4998"/>
   <rect id="rect6287" style="fill:url(#linearGradient6470)" height="8" width="13" y="13" x="2"/>
   <path id="path6293" style="fill:#ffc24c" d="m14 11.25c0.000178 0.41416-0.33566 0.75-0.75 0.75s-0.75018-0.33584-0.75-0.75c-0.000181-0.41416 0.33566-0.75 0.75-0.75s0.75018 0.33584 0.75 0.75z"/>
   <path id="path6302" style="fill:#ffc24c" d="m12 11.25c0.000178 0.41416-0.33566 0.75-0.75 0.75s-0.75018-0.33584-0.75-0.75c-0.000181-0.41416 0.33566-0.75 0.75-0.75s0.75018 0.33584 0.75 0.75z"/>
   <path id="path6304" style="fill:#ffc24c" d="m10 11.25c0.0001781 0.41416-0.33566 0.75-0.75 0.75s-0.75018-0.33584-0.75-0.75c-0.000181-0.41416 0.33566-0.75 0.75-0.75s0.75018 0.33584 0.75 0.75z"/>
   <path id="path3298" style="fill:#5a5a5a" d="m8.7845 18.192c-0.02065-0.54433 0.14449-1.0728 0.8409-1.4471 0.73558-0.42332 1.444-0.95294 1.3691-1.5773-0.01635-0.60209-0.96632-1.0739-1.9899-1.1417-1.1513-0.11778-2.5444 0.17348-2.9302 0.83745-0.19567 0.32293-0.014219 0.90231 0.64244 0.90231 0.38408 0 0.56049-0.18321 0.58947-0.35082 0.021928-0.12681-0.048573-0.24005-0.090207-0.3448-0.047441-0.11935 0.15508-0.35067 0.37565-0.44492 0.18431-0.07876 0.37715-0.10516 0.40558-0.11021 0.66192-0.11747 1.3218 0.14201 1.5971 0.45783s-0.027722 0.79485-0.46339 1.2607c-0.43567 0.46584-0.90322 0.99495-0.90136 1.5569 0 0.21395-0.025816 0.28664-0.00747 0.3732 0.014654 0.06916 0.32476 0.0608 0.56224 0.02836zm-0.30208 0.73264c-0.6329-0.02537-1.071 0.50446-0.69074 0.84204 0.33955 0.37272 1.2916 0.28071 1.4547-0.14136 0.16964-0.32821-0.23861-0.70616-0.76401-0.70068v0.000001z"/>
  </g>
 </g>
</svg>
