<?xml version="1.0" encoding="UTF-8" standalone="no"?>
<!-- Created with Inkscape (http://www.inkscape.org/) -->
<svg id="svg3315" xmlns="http://www.w3.org/2000/svg" height="24" width="24" version="1.0">
 <path id="path3279" style="opacity:.2;stroke:#878787;stroke-linecap:round;stroke-width:1px;fill:none" d="m14.509 15.963 2.5002 4.3305"/>
 <path id="path3281" style="stroke:#878787;stroke-linecap:round;stroke-width:1px;fill:none" d="m8.0031 4.6941 2.5009 4.3325"/>
 <path id="path2629" style="opacity:.175;stroke:#878787;stroke-linecap:round;stroke-width:1px;fill:none" d="m15.339 15.326 3.5359 3.5359"/>
 <path id="path2631" style="opacity:.875;stroke:#878787;stroke-linecap:round;stroke-width:1px;fill:none" d="m6.1379 6.1254 3.5375 3.5375"/>
 <path id="path3403" style="opacity:.15;stroke:#878787;stroke-linecap:round;stroke-width:1px;fill:none" d="m15.975 14.497 4.3305 2.5002"/>
 <path id="path3405" style="opacity:.75;stroke:#878787;stroke-linecap:round;stroke-width:1px;fill:none" d="m4.7066 7.9906 4.3325 2.5014"/>
 <path id="path3407" style="opacity:.125;stroke:#878787;stroke-linecap:round;stroke-width:1px;fill:none" d="m16.376 13.531 4.8301 1.2942"/>
 <path id="path3409" style="opacity:.675;stroke:#878787;stroke-linecap:round;stroke-width:1px;fill:none" d="m3.8069 10.163 4.8323 1.2948"/>
 <path id="path3415" style="opacity:.1;stroke:#878787;stroke-linecap:round;stroke-width:1px;fill:none" d="m16.512 12.494 5.0005 0.000001"/>
 <path id="path3417" style="opacity:.6;stroke:#878787;stroke-linecap:round;stroke-width:1px;fill:none" d="m3.5 12.494 5.0027-0.000001"/>
 <path id="path3419" style="opacity:.075;stroke:#878787;stroke-linecap:round;stroke-width:1px;fill:none" d="m16.376 11.457 4.8301-1.2942"/>
 <path id="path3421" style="opacity:.55;stroke:#878787;stroke-linecap:round;stroke-width:1px;fill:none" d="m3.8069 14.825 4.8322-1.295"/>
 <path id="path3423" style="opacity:.05;stroke:#878787;stroke-linecap:round;stroke-width:1px;fill:none" d="m15.975 10.491 4.331-2.5004"/>
 <path id="path3425" style="opacity:.5;stroke:#878787;stroke-linecap:round;stroke-width:1px;fill:none" d="m4.7066 16.997 4.3325-2.501"/>
 <path id="path3427" style="opacity:.025;stroke:#878787;stroke-linecap:round;stroke-width:1px;fill:none" d="m15.339 9.6612 3.536-3.5358"/>
 <path id="path3429" style="opacity:.45;stroke:#878787;stroke-linecap:round;stroke-width:1px;fill:none" d="m6.1379 18.862 3.5374-3.537"/>
 <path id="path3433" style="opacity:.4;stroke:#878787;stroke-linecap:round;stroke-width:1px;fill:none" d="m8.0031 20.293 2.5009-4.332"/>
 <path id="path3437" style="opacity:.35;stroke:#878787;stroke-linecap:round;stroke-width:1px;fill:none" d="m10.175 21.193 1.2948-4.8323"/>
 <path id="path2407" style="opacity:.3;stroke:#878787;stroke-linecap:round;stroke-width:1px;fill:none" d="m12.506 21.5v-5.0027"/>
 <path id="path2413" style="opacity:.25;stroke:#878787;stroke-linecap:round;stroke-width:1px;fill:none" d="m14.837 21.193-1.295-4.832"/>
 <path id="path2401" style="opacity:0;stroke-width:1px" d="m10.175 3.7944 1.295 4.8323"/>
 <path id="path2405" style="opacity:0;stroke-width:1px" d="m14.837 3.7944-1.295 4.8323"/>
 <path id="path2410" style="opacity:0;stroke-width:1px" d="m12.506 3.4875 0.000001 5.0027"/>
 <path id="path2414" style="opacity:0;stroke-width:1px" d="m17.009 4.6941-2.501 4.3325"/>
</svg>
