<?xml version="1.0" encoding="UTF-8" standalone="no"?>
<!-- Created with Inkscape (http://www.inkscape.org/) -->
<svg id="svg2476" xmlns="http://www.w3.org/2000/svg" height="24" width="24" version="1.0" xmlns:xlink="http://www.w3.org/1999/xlink">
 <defs id="defs2478">
  <linearGradient id="linearGradient3858">
   <stop id="stop3860" style="stop-color:#a0a0a0" offset="0"/>
   <stop id="stop3862" style="stop-color:#4a4a4a" offset="1"/>
  </linearGradient>
  <linearGradient id="linearGradient2793">
   <stop id="stop2795" style="stop-color:#868688" offset="0"/>
   <stop id="stop2797" style="stop-color:#d9d9da" offset="1"/>
  </linearGradient>
  <linearGradient id="linearGradient2674" y2="-24.582" spreadMethod="reflect" gradientUnits="userSpaceOnUse" x2="102.31" gradientTransform="matrix(.33861 0 0 .34136 -23.197 10.615)" y1="-2.3925" x1="102.31">
   <stop id="stop3846" style="stop-color:#a5a6a8" offset="0"/>
   <stop id="stop3848" style="stop-color:#e8e8e8" offset="1"/>
  </linearGradient>
  <linearGradient id="linearGradient2676" y2="-2.3758" gradientUnits="userSpaceOnUse" x2="109.96" gradientTransform="matrix(.33861 0 0 .34136 -23.197 10.615)" y1="-24.911" x1="109.96">
   <stop id="stop2511" style="stop-color:#b3b3b3" offset="0"/>
   <stop id="stop2513" style="stop-color:#dadada" offset="1"/>
  </linearGradient>
  <linearGradient id="linearGradient2679" y2="-7.6657" xlink:href="#linearGradient2793" spreadMethod="reflect" gradientUnits="userSpaceOnUse" x2="89.424" gradientTransform="matrix(.33840 0 0 .34583 -23.177 13.629)" y1="-7.6657" x1="103.95"/>
  <linearGradient id="linearGradient2681" y2="27.546" xlink:href="#linearGradient3858" gradientUnits="userSpaceOnUse" x2="89.018" gradientTransform="matrix(.73913 0 0 0.8 -57.595 -9.1369)" y1="22.537" x1="89.018"/>
  <linearGradient id="linearGradient2685" y2="-7.6657" xlink:href="#linearGradient2793" spreadMethod="reflect" gradientUnits="userSpaceOnUse" x2="89.424" gradientTransform="matrix(.33840 0 0 .34583 -23.177 18.629)" y1="-7.6657" x1="103.95"/>
  <linearGradient id="linearGradient2687" y2="27.546" xlink:href="#linearGradient3858" gradientUnits="userSpaceOnUse" x2="89.018" gradientTransform="matrix(.73913 0 0 0.8 -57.595 -4.1369)" y1="22.537" x1="89.018"/>
  <linearGradient id="linearGradient2691" y2="-7.6657" xlink:href="#linearGradient2793" spreadMethod="reflect" gradientUnits="userSpaceOnUse" x2="89.424" gradientTransform="matrix(.33840 0 0 .34583 -23.177 23.629)" y1="-7.6657" x1="103.95"/>
  <linearGradient id="linearGradient2693" y2="27.546" xlink:href="#linearGradient3858" gradientUnits="userSpaceOnUse" x2="89.018" gradientTransform="matrix(.73913 0 0 0.8 -57.595 .86311)" y1="22.537" x1="89.018"/>
  <radialGradient id="radialGradient2703" gradientUnits="userSpaceOnUse" cy="41.636" cx="23.335" gradientTransform="matrix(.53033 0 0 .13256 -0.375 15.481)" r="22.627">
   <stop id="stop23421" offset="0"/>
   <stop id="stop23423" style="stop-opacity:0" offset="1"/>
  </radialGradient>
  <radialGradient id="radialGradient3270" gradientUnits="userSpaceOnUse" cy="5.8834" cx="16.961" gradientTransform="matrix(0 2 -1.3459 0 28.919 -35.008)" r="22.105">
   <stop id="stop3722-8" style="stop-color:#8badea" offset="0"/>
   <stop id="stop3728-0" style="stop-color:#6396cd" offset=".5"/>
   <stop id="stop3730-3" style="stop-color:#3b7caf" offset=".84091"/>
   <stop id="stop3724-7" style="stop-color:#194c70" offset="1"/>
  </radialGradient>
  <linearGradient id="linearGradient3272" y2="-1.0863" gradientUnits="userSpaceOnUse" x2="10.55" y1="43.124" x1="10.148">
   <stop id="stop3765-0" style="stop-color:#1f4b6a" offset="0"/>
   <stop id="stop3767-3" style="stop-color:#4083c2" offset="1"/>
  </linearGradient>
 </defs>
 <path id="path23417" style="opacity:.5;fill-rule:evenodd;fill:url(#radialGradient2703)" d="m24 21c0.001 1.6568-5.3719 3-12 3s-12.001-1.343-12-3c-0.0010152-1.657 5.3719-3 12-3s12.001 1.3432 12 3z"/>
 <path id="path4834" style="stroke:url(#linearGradient2693);fill:url(#linearGradient2691)" d="m20.493 18.954c0 1.9573-3.8056 3.5458-8.4946 3.5458s-8.4946-1.5885-8.4946-3.5458c0.084603-4.3755-1.0383-3.472 8.4946-3.5458 9.7512-0.07616 8.375-0.90136 8.4946 3.5458z"/>
 <path id="path4838" style="stroke:#d8d4e0;fill:#868688" d="m20.5 15.9c0 1.9882-3.8056 3.6-8.5 3.6s-8.5-1.6118-8.5-3.6 3.8056-3.6 8.5-3.6 8.5 1.6118 8.5 3.6z"/>
 <path id="path3866" style="stroke:url(#linearGradient2687);fill:url(#linearGradient2685)" d="m20.493 13.954c0 1.9573-3.8056 3.5458-8.4946 3.5458s-8.4946-1.5885-8.4946-3.5458c0.084603-4.3755-1.0383-3.472 8.4946-3.5458 9.7512-0.07616 8.375-0.90136 8.4946 3.5458z"/>
 <path id="path3868" style="stroke:#d8d4e0;fill:#868688" d="m20.5 10.9c0 1.9882-3.8056 3.6-8.5 3.6s-8.5-1.6118-8.5-3.6 3.8056-3.6 8.5-3.6 8.5 1.6118 8.5 3.6z"/>
 <path id="path3878" style="stroke:url(#linearGradient2681);fill:url(#linearGradient2679)" d="m20.493 8.9542c0 1.9568-3.806 3.5458-8.495 3.5458s-8.4946-1.5885-8.4946-3.5458c0.084603-4.3755-1.0383-3.472 8.4946-3.5458 9.7512-0.07616 8.375-0.90136 8.4946 3.5458z"/>
 <path id="path3880" style="stroke:url(#linearGradient2676);fill:url(#linearGradient2674)" d="m20.5 6c0 1.933-3.806 3.5-8.5 3.5-4.6944 0-8.5-1.567-8.5-3.5s3.8056-3.5 8.5-3.5 8.5 1.567 8.5 3.5z"/>
 <circle id="circle51" style="stroke:url(#linearGradient3272);stroke-width:4.2;fill:url(#radialGradient3270)" transform="matrix(.23810 0 0 .23810 0.5 .49548)" cy="21.019" cx="21" r="21"/>
 <path id="path4552" style="fill:#173561" d="m0.76567 6.0706c-0.04654 0.0058 3.4823-0.59156 4.7831 3.3404 0.81138-3.6487 4.7188-3.6825 4.6862-3.6808 0.09308 0-3.218-0.92324-4.7087 1.4271-1.5131-2.0751-4.8679-1.0867-4.7606-1.0867z"/>
 <path id="path53" style="fill:#fff" d="m0.71732 5.636c-0.04654 0.0058 3.4823-0.59156 4.7831 3.3404 0.81138-3.6487 4.7188-3.6825 4.6862-3.6808 0.09308 0-3.218-1.1565-4.7087 1.1938-1.513-2.0751-4.8678-0.8534-4.7606-0.8534z"/>
 <path id="path4554" style="fill:#173561" d="m3.572 3.0367s2.1007-0.45439 2.9244 1.8303c0.51607-2.1306 2.8651-1.9491 2.8651-1.9491s-1.9107-0.74511-2.879 0.65589c-0.9901-1.2466-2.9112-0.5371-2.9105-0.5371z"/>
 <path id="path55" style="fill:#fff" d="m3.572 2.5104s2.1007-0.45439 2.9244 1.8303c0.51607-2.1306 2.8651-1.9491 2.8651-1.9491s-1.9107-0.74511-2.879 0.65589c-0.9901-1.2467-2.9112-0.5371-2.9105-0.5371z"/>
</svg>
