<?xml version="1.0" encoding="UTF-8" standalone="no"?>
<!-- Created with Inkscape (http://www.inkscape.org/) -->
<svg id="svg3309" xmlns="http://www.w3.org/2000/svg" height="24" width="24" version="1.1" xmlns:xlink="http://www.w3.org/1999/xlink">
 <defs id="defs3311">
  <linearGradient id="linearGradient4599" y2="24" gradientUnits="userSpaceOnUse" x2="25" gradientTransform="matrix(0.8 0 0 .66667 -7.5 -9.1667)" y1="20.875" x1="25">
   <stop id="stop4101" style="stop-color:#edd563" offset="0"/>
   <stop id="stop4103" style="stop-color:#e08223" offset="1"/>
  </linearGradient>
  <linearGradient id="linearGradient5013" y2="59.877" gradientUnits="userSpaceOnUse" x2="61.338" gradientTransform="matrix(.31249 0 0 .26973 -10.625 -8.7235)" y1="72.834" x1="79.236">
   <stop id="stop3707" style="stop-color:#85b6d1" offset="0"/>
   <stop id="stop3709" style="stop-color:#7ab1d0" offset=".1707"/>
   <stop id="stop3711" style="stop-color:#5ea5cd" offset=".4684"/>
   <stop id="stop3713" style="stop-color:#2f92c9" offset=".85530"/>
   <stop id="stop3715" style="stop-color:#1c8ac7" offset="1"/>
  </linearGradient>
  <linearGradient id="linearGradient5016" y2="74.042" gradientUnits="userSpaceOnUse" x2="80.393" gradientTransform="matrix(.31249 0 0 .26973 -10.625 -8.7235)" y1="74.042" x1="72.138">
   <stop id="stop3689" style="stop-color:#1773a6" offset="0"/>
   <stop id="stop3691" style="stop-color:#1773a6" offset="1"/>
  </linearGradient>
  <linearGradient id="linearGradient5019" y2="67.132" gradientUnits="userSpaceOnUse" x2="65.277" gradientTransform="matrix(.31249 0 0 .26973 -10.625 -8.7235)" y1="74.939" x1="65.277">
   <stop id="stop3695" style="stop-color:#f5f2b0" offset="0"/>
   <stop id="stop3697" style="stop-color:#f5efa5" offset=".1374"/>
   <stop id="stop3699" style="stop-color:#f4e988" offset=".377"/>
   <stop id="stop3701" style="stop-color:#f3de5a" offset=".6886"/>
   <stop id="stop3703" style="stop-color:#f2d125" offset="1"/>
  </linearGradient>
  <linearGradient id="linearGradient5022" y2="73.962" gradientUnits="userSpaceOnUse" x2="73.087" gradientTransform="matrix(.31249 0 0 .26973 -10.625 -8.7235)" y1="73.962" x1="57.16">
   <stop id="stop3679" style="stop-color:#e1da1a" offset="0"/>
   <stop id="stop3681" style="stop-color:#d6cf14" offset=".31280"/>
   <stop id="stop3683" style="stop-color:#bab305" offset=".85680"/>
   <stop id="stop3685" style="stop-color:#b2aa00" offset="1"/>
  </linearGradient>
  <linearGradient id="linearGradient5026" y2="73.065" gradientUnits="userSpaceOnUse" x2="82" gradientTransform="matrix(.31249 0 0 .26973 -10.625 -8.7551)" y1="73.065" x1="50">
   <stop id="stop3669" style="stop-color:#bb2f2f" offset="0"/>
   <stop id="stop3671" style="stop-color:#d53c3c" offset=".3087"/>
   <stop id="stop3673" style="stop-color:#e04242" offset=".5"/>
   <stop id="stop3675" style="stop-color:#bb2f2f" offset="1"/>
  </linearGradient>
  <linearGradient id="linearGradient5220" y2="75.497" gradientUnits="userSpaceOnUse" x2="66" y1="61.889" x1="66">
   <stop id="stop3660" style="stop-color:#ef3b3b" offset="0"/>
   <stop id="stop3662" style="stop-color:#f14646" offset=".3827"/>
   <stop id="stop3664" style="stop-color:#f76060" offset="1"/>
  </linearGradient>
  <radialGradient id="radialGradient3260" gradientUnits="userSpaceOnUse" cy="5.8834" cx="16.961" gradientTransform="matrix(0 2 -1.3459 0 28.919 -35.008)" r="22.105">
   <stop id="stop3722-1" style="stop-color:#8badea" offset="0"/>
   <stop id="stop3728-0" style="stop-color:#6396cd" offset=".5"/>
   <stop id="stop3730-9" style="stop-color:#3b7caf" offset=".84091"/>
   <stop id="stop3724-3" style="stop-color:#194c70" offset="1"/>
  </radialGradient>
  <linearGradient id="linearGradient3262" y2="-1.0863" gradientUnits="userSpaceOnUse" x2="10.55" y1="43.124" x1="10.148">
   <stop id="stop3765-2" style="stop-color:#1f4b6a" offset="0"/>
   <stop id="stop3767-6" style="stop-color:#4083c2" offset="1"/>
  </linearGradient>
  <linearGradient id="linearGradient4342" y2="3" gradientUnits="userSpaceOnUse" x2="18" gradientTransform="matrix(.95238 0 0 1 1.0714 1)" y1="6" x1="18">
   <stop id="stop4095" style="stop-color:#bb5e12" offset="0"/>
   <stop id="stop4097" style="stop-color:#cd8033" offset="1"/>
  </linearGradient>
  <radialGradient id="radialGradient5137" gradientUnits="userSpaceOnUse" cy="22.5" cx="13" gradientTransform="matrix(1.2143 0 0 .21429 -3.2857 17.679)" r="7">
   <stop id="stop5133" offset="0"/>
   <stop id="stop5135" style="stop-opacity:0" offset="1"/>
  </radialGradient>
 </defs>
 <g id="g5539" transform="matrix(.67095 0 0 .73169 -18.135 -20.724)">
  <path id="path7081" style="stroke:#555753;stroke-linecap:round;stroke-width:1.1185;fill:none" d="m33.026 37.039v2.552l-5.8909 2.9979" transform="matrix(1.276 0 0 1.276 3.5192 5.1386)"/>
  <path id="path4607" style="stroke:#555753;stroke-linecap:round;stroke-width:1.4272;fill:none" d="m45.66 52.401v3.2564l7.5169 3.8254"/>
 </g>
 <path id="path5290" style="stroke:#a0a0a0;fill:#ededed" d="m3.5 18.5 0.0733-14 17.853 0.0399 0.074 13.92-18 0.04z"/>
 <rect id="rect9278" style="opacity:.8;color:black;stroke:#fff;fill:none" height="13" width="16" y="4.5" x="4.5"/>
 <path id="path5315" style="opacity:0.16" d="m21 7.0033h-18v1.9967c1.0142-2.1698 18-1.9967 18-1.9967z"/>
 <path id="path4607-0" style="stroke:#555753;stroke-linecap:round;fill:none" d="m12.5 2.5173v2.3827"/>
 <rect id="rect3819" style="stroke-linejoin:round;stroke:url(#linearGradient4342);fill:url(#linearGradient4599)" height="2" width="20" y="4.5" x="2.5"/>
 <path id="path4609" style="fill-opacity:.18713" d="m20 9h-4v-1h4v1z"/>
 <path id="path4611" style="fill-opacity:.18713" d="m20 15h-15v-1h15v1z"/>
 <path id="path4344" style="opacity:.3" d="m5 9.8228v1.8053h0.00105c0.0235 0.759 2.2522 1.372 4.999 1.372 2.7471 0 4.9755-0.61311 4.9986-1.3719h0.0014v-1.8053h-9.9998z"/>
 <path id="path3652" style="fill:url(#linearGradient5026)" d="m5 9.3646v1.8053h0.00105c0.02344 0.75876 2.2521 1.3719 4.999 1.3719 2.7471 0 4.9755-0.61311 4.9986-1.3719h0.0014v-1.8053h-9.9998z"/>
 <ellipse id="ellipse3654" style="fill:url(#linearGradient5220)" rx="16" ry="5.131" transform="matrix(.31249 0 0 .26973 -10.625 -8.7235)" cy="67.131" cx="66"/>
 <path id="path3656" style="fill:url(#linearGradient5022)" d="m7.3346 10.567v1.8053c0.77155 0.13487 1.685 0.21309 2.6653 0.21309 0.79467 0 1.5453-0.05149 2.2124-0.14269l0.0015-1.8053-2.4421-0.76982-2.4371 0.69942z"/>
 <path id="path3658" style="fill:url(#linearGradient5019)" d="m9.9999 10.768c0.7953 0 1.5465-0.05124 2.214-0.14269l-2.2141-1.241-2.6653 1.171c0.77155 0.13487 1.685 0.21282 2.6653 0.21282z"/>
 <path id="path3660" style="fill:url(#linearGradient5016)" d="m12.214 10.637-0.0019 1.8053c0.93028-0.12759 1.6965-0.33231 2.1884-0.58478v-1.8043l-1.5928 0.13487-0.59405 0.44884z"/>
 <path id="path3662" style="fill:url(#linearGradient5013)" d="m12.214 10.625c0.92904-0.12758 1.695-0.33177 2.1868-0.5837l-4.4008-0.65734 2.214 1.241z"/>
 <path id="path2932" style="fill-opacity:.18713" d="m20 11h-4v-1h4v1z"/>
 <path id="path2934" style="fill-opacity:.18713" d="m20 13h-4v-1h4v1z"/>
 <path id="path2936" style="fill-opacity:.18713" d="m20 17h-15v-1h15v1z"/>
 <circle id="circle51" style="stroke:url(#linearGradient3262);stroke-width:4.2;fill:url(#radialGradient3260)" transform="matrix(.23810 0 0 .23810 0.5 .49548)" cy="21.019" cx="21" r="21"/>
 <path id="path4552" style="fill:#173561" d="m0.76567 6.0706c-0.04654 0.0058 3.4823-0.59156 4.7831 3.3404 0.81138-3.6487 4.7188-3.6825 4.6862-3.6808 0.09308 0-3.218-0.92324-4.7087 1.4271-1.5131-2.0751-4.8679-1.0867-4.7606-1.0867z"/>
 <path id="path53" style="fill:#fff" d="m0.71732 5.636c-0.04654 0.0058 3.4823-0.59156 4.7831 3.3404 0.81138-3.6487 4.7188-3.6825 4.6862-3.6808 0.09308 0-3.218-1.1565-4.7087 1.1938-1.513-2.0751-4.8678-0.8534-4.7606-0.8534z"/>
 <path id="path4554" style="fill:#173561" d="m3.572 3.0367s2.1007-0.45439 2.9244 1.8303c0.51607-2.1306 2.8651-1.9491 2.8651-1.9491s-1.9107-0.74511-2.879 0.65589c-0.9901-1.2466-2.9112-0.5371-2.9105-0.5371z"/>
 <path id="path55" style="fill:#fff" d="m3.572 2.5104s2.1007-0.45439 2.9244 1.8303c0.51607-2.1306 2.8651-1.9491 2.8651-1.9491s-1.9107-0.74511-2.879 0.65589c-0.9901-1.2467-2.9112-0.5371-2.9105-0.5371z"/>
 <path id="path2919" style="opacity:.2;fill:url(#radialGradient5137)" d="m21 22.5a8.5 1.5 0 0 1 -17 0 8.5 1.5 0 1 1 17 0z"/>
</svg>
