<?xml version="1.0" encoding="UTF-8" standalone="no"?>
<!-- Created with Inkscape (http://www.inkscape.org/) -->
<svg id="svg3309" xmlns="http://www.w3.org/2000/svg" height="24" width="24" version="1.1" xmlns:xlink="http://www.w3.org/1999/xlink">
 <defs id="defs3311">
  <linearGradient id="linearGradient5060-3">
   <stop id="stop5062-2" offset="0"/>
   <stop id="stop5064-1" style="stop-opacity:0" offset="1"/>
  </linearGradient>
  <linearGradient id="linearGradient3455" y2="5.4565" gradientUnits="userSpaceOnUse" x2="36.358" gradientTransform="matrix(.45136 0 0 .41624 1.7998 .85852)" y1="8.059" x1="32.892">
   <stop id="stop8591-7" style="stop-color:#fefefe" offset="0"/>
   <stop id="stop8593-5" style="stop-color:#cbcbcb" offset="1"/>
  </linearGradient>
  <linearGradient id="linearGradient3457" y2="5.8215" gradientUnits="userSpaceOnUse" x2="15.18" gradientTransform="matrix(.83333 0 0 .8 2.5833 1.1)" y1="2.1849" x1="17.289">
   <stop id="stop4561" style="stop-color:#cacaca" offset="0"/>
   <stop id="stop4563" style="stop-color:#949492" offset="1"/>
  </linearGradient>
  <linearGradient id="linearGradient3460" y2="47.013" gradientUnits="userSpaceOnUse" x2="25.132" gradientTransform="matrix(.54288 0 0 .48891 -1.0291 -.23377)" y1="6.7287" x1="25.132">
   <stop id="stop3602-9" style="stop-color:#f4f4f4" offset="0"/>
   <stop id="stop3604-1" style="stop-color:#dbdbdb" offset="1"/>
  </linearGradient>
  <linearGradient id="linearGradient3462" y2="2.9062" gradientUnits="userSpaceOnUse" x2="-51.786" gradientTransform="matrix(.43837 0 0 .45754 31.224 -.77865)" y1="50.786" x1="-51.786">
   <stop id="stop3933" style="stop-color:#8d8f8a" offset="0"/>
   <stop id="stop3935" style="stop-color:#cbcbcb" offset="1"/>
  </linearGradient>
  <linearGradient id="linearGradient3469" y2="609.51" gradientUnits="userSpaceOnUse" x2="302.86" gradientTransform="matrix(2.7744 0 0 1.9697 -1892.2 -872.89)" y1="366.65" x1="302.86">
   <stop id="stop5050-9" style="stop-opacity:0" offset="0"/>
   <stop id="stop5056-9" offset=".5"/>
   <stop id="stop5052-1" style="stop-opacity:0" offset="1"/>
  </linearGradient>
  <radialGradient id="radialGradient3471" xlink:href="#linearGradient5060-3" gradientUnits="userSpaceOnUse" cy="486.65" cx="605.71" gradientTransform="matrix(2.7744 0 0 1.9697 -1891.6 -872.89)" r="117.14"/>
  <radialGradient id="radialGradient3473" xlink:href="#linearGradient5060-3" gradientUnits="userSpaceOnUse" cy="486.65" cx="605.71" gradientTransform="matrix(-2.7744 0 0 1.9697 112.76 -872.89)" r="117.14"/>
  <radialGradient id="radialGradient3494" gradientUnits="userSpaceOnUse" cy="5.8834" cx="16.961" gradientTransform="matrix(0 2 -1.3459 0 28.919 -35.008)" r="22.105">
   <stop id="stop3722" style="stop-color:#8badea" offset="0"/>
   <stop id="stop3728" style="stop-color:#6396cd" offset=".5"/>
   <stop id="stop3730" style="stop-color:#3b7caf" offset=".84091"/>
   <stop id="stop3724" style="stop-color:#194c70" offset="1"/>
  </radialGradient>
  <linearGradient id="linearGradient3496" y2="-1.0863" gradientUnits="userSpaceOnUse" x2="10.55" y1="43.124" x1="10.148">
   <stop id="stop3765" style="stop-color:#1f4b6a" offset="0"/>
   <stop id="stop3767" style="stop-color:#4083c2" offset="1"/>
  </linearGradient>
 </defs>
 <g id="g3490" style="stroke-width:1.8826" transform="matrix(.50043 0 0 .51685 .11475 -.57818)">
  <g id="g5022" style="stroke-width:104.96" transform="matrix(.021652 0 0 .014857 43.008 42.685)">
   <rect id="rect4173" style="opacity:.40206;fill:url(#linearGradient3469)" height="478.36" width="1339.6" y="-150.7" x="-1559.3"/>
   <path id="path5058" style="opacity:.40206;fill:url(#radialGradient3471)" d="m-219.62-150.68v478.33c142.87 0.90045 345.4-107.17 345.4-239.2s-159.44-239.13-345.4-239.13z"/>
   <path id="path5018" style="opacity:.40206;fill:url(#radialGradient3473)" d="m-1559.3-150.68v478.33c-142.87 0.90045-345.4-107.17-345.4-239.2s159.44-239.13 345.4-239.13z"/>
  </g>
 </g>
 <path id="rect2594" style="stroke-linejoin:round;stroke:url(#linearGradient3462);stroke-width:.99914;fill:url(#linearGradient3460)" d="m3.5 1.5h12.062c0.7638 0.23731 3.8667 1.9404 4.9382 3.8124v17.188h-17v-21z"/>
 <path id="path12038" style="stroke-linejoin:round;fill-rule:evenodd;stroke:url(#linearGradient3457);fill:url(#linearGradient3455)" d="m15.5 1.5v4h5c0-0.66927-4.0171-3.9886-5-4z"/>
 <path id="path6017" style="opacity:.7;fill:#666" d="m6 7v1h1.75v-1h-1.75zm1.9062 0v1h0.84375v-1h-0.84375zm1 0v1h0.375v-1h-0.375zm0.53125 0v1h0.78125v-1h-0.78125zm0.9375 0v1h0.75v-1h-0.75zm0.90625 0v1h1.2188v-1h-1.2188zm1.375 0v1h1.625v-1h-1.625zm1.7812 0v1h1.0625v-1h-1.0625zm1.2188 0v1h0.25v-1h-0.25zm-9.656 2v1h2v-1h-2zm2.1562 0v1h2.125v-1h-2.125zm2.2812 0v1h0.875v-1h-0.875zm1.0312 0v1h2v-1h-2zm2.1562 0v1h1.375v-1h-1.375zm1.5312 0v1h0.53125v-1h-0.53125zm0.6875 0v1h0.34375v-1h-0.34375zm0.5 0v1h0.84375v-1h-0.84375zm-10.342 2v1h1.125v-1h-1.125zm1.2812 0v1h1.0625v-1h-1.0625zm1.2188 0v1h0.9375v-1h-0.9375zm1.0625 0v1h0.4375v-1h-0.4375zm0.59375 0v1h0.90625v-1h-0.90625zm1.0625 0v1h2.375v-1h-2.375zm2.5312 0v1h1.8125v-1h-1.8125zm1.9375 0v1h0.5625v-1h-0.5625zm0.71875 0v1h1.0938v-1h-1.0938zm-5.405 2v1h1.5312v-1h-1.531zm1.6875 0v1h0.90625v-1h-0.90625zm1.0625 0v1h1.4688v-1h-1.4688zm1.625 0v1h2.4062v-1h-2.4062zm-4.375 2v1h1.0312v-1h-1.031zm1.1875 0v1h1.2812v-1h-1.2812zm1.4375 0v1h0.28125v-1h-0.28125zm0.40625 0v1h1.6875v-1h-1.6875zm1.8125 0v1h0.90625v-1h-0.90625zm-9.844 2v1h2v-1h-2zm2.1562 0v1h2.125v-1h-2.125zm2.2812 0v1h0.875v-1h-0.875zm1.0312 0v1h2v-1h-2zm2.1562 0v1h1.375v-1h-1.375zm1.5312 0v1h0.53125v-1h-0.53125zm0.6875 0v1h0.34375v-1h-0.34375zm0.5 0v1h0.84375v-1h-0.84375zm-10.342 2v1h0.71875v-1h-0.7188zm0.90625 0v1h2.6562v-1h-2.6562zm2.8125 0v1h2.6562v-1h-2.6562zm2.8438 0v1h0.71875v-1h-0.71875z"/>
 <circle id="circle51" style="stroke:url(#linearGradient3496);stroke-width:4.2;fill:url(#radialGradient3494)" transform="matrix(.23810 0 0 .23810 0.5 .49548)" cy="21.019" cx="21" r="21"/>
 <path id="path4552" style="fill:#173561" d="m0.76567 6.0706c-0.04654 0.0058 3.4822-0.5915 4.783 3.3404 0.8114-3.6487 4.7193-3.6825 4.6863-3.6808 0.09308 0-3.218-0.92324-4.7087 1.4271-1.5131-2.0751-4.8679-1.0867-4.7606-1.0867z"/>
 <path id="path53" style="fill:#fff" d="m0.71732 5.636c-0.04654 0.0057 3.4823-0.5916 4.7831 3.3403 0.8114-3.6486 4.7186-3.6824 4.6866-3.6808 0.09308 0-3.218-1.1565-4.7087 1.1938-1.5134-2.075-4.8682-0.8533-4.761-0.8533z"/>
 <path id="path4554" style="fill:#173561" d="m3.572 3.0367s2.1007-0.45439 2.9244 1.8303c0.51607-2.1306 2.8651-1.9491 2.8651-1.9491s-1.9107-0.74511-2.879 0.65589c-0.9901-1.2466-2.9112-0.5371-2.9105-0.5371z"/>
 <path id="path55" style="fill:#fff" d="m3.572 2.5104s2.1007-0.45439 2.9244 1.8303c0.51607-2.1306 2.8651-1.9491 2.8651-1.9491s-1.9107-0.74511-2.879 0.65589c-0.9901-1.2467-2.9112-0.5371-2.9105-0.5371z"/>
 <path id="path2675" style="opacity:.15;fill:#0c0c0c;fill-rule:evenodd" d="m19.241 16.012c-0.05981-0.02112-0.12048-0.01159-0.16592 0.0043l-6.045 2.1078-1.1131 0.38888-0.03227 0.0084-1.885 1.479 2.6847-0.09629 0.02734-0.0099 1.118-0.3874 6.0526-2.1236c0.18174-0.06365 0.14863-0.42002-0.07348-0.80088-0.16658-0.28564-0.38908-0.50643-0.56852-0.56978z"/>
 <g id="g3299" transform="matrix(.35738 0 0 .37605 28.336 -3.0377)">
  <path id="path2677" style="stroke-linejoin:round;stroke:#0e2c42;stroke-width:2.7278;fill:#f9e06f" d="m-46.145 52.21c0.54613-0.45022 1.1487 0.25112 2.3183 1.3953 0.54029 0.77521 1.1274 1.5621 1.3929 2.4689 5.2111-4.4756 10.454-9.631 14.653-14.352 4.2651-4.2304 11.091-13.296 9.1053-14.338-1.6644-1.3662-10.192 5.9561-14.322 9.9451-5.0449 5.3184-9.0812 9.682-13.148 14.88z"/>
  <path id="path2679" style="fill:#5083b2" d="m-45.564 52.127c1.8397 0.1601 1.9005 2.5893 2.6056 3.6722 4.6844-4.1581 9.7995-9.1405 13.967-13.527 0.17201-2.1783-2.6094-3.9603-4.3323-3.7224-4.3685 4.7805-8.6298 9.3691-12.24 13.577z"/>
  <path id="path2681" style="stroke-linejoin:round;fill-rule:evenodd;stroke:#6f6431;stroke-linecap:round;stroke-width:1.9095;fill:#ffeb91" d="m-42.593 56.768c0.92781-3.0528-1.965-4.9169-4.2876-4.4771-1.5824 2.373-1.483 2.7993-3.7283 7.726 0.08336 0.17231 0.24502 0.33745 0.48793 0.58123l7.528-3.8301z"/>
  <path id="path3413" style="fill:#5083b2" d="m-31.44 36.807c2.0501-0.59046 4.3083 1.4173 4.3151 3.2591 3.6987-3.7383 8.8637-11.206 8.257-12.417-1.1997-0.0976-4.8133 1.5562-12.572 9.1581z"/>
 </g>
 <rect id="rect6155" style="fill:#5083b2" height="3" width="4" y="13" x="6"/>
</svg>
