<?xml version="1.0" encoding="UTF-8" standalone="no"?>
<!-- Created with Inkscape (http://www.inkscape.org/) -->
<svg id="svg3275" xmlns:rdf="http://www.w3.org/1999/02/22-rdf-syntax-ns#" xmlns="http://www.w3.org/2000/svg" height="24" width="24" version="1.0" xmlns:cc="http://creativecommons.org/ns#" xmlns:xlink="http://www.w3.org/1999/xlink" xmlns:dc="http://purl.org/dc/elements/1.1/">
 <metadata id="metadata29">
  <rdf:RDF>
   <cc:Work rdf:about="">
    <dc:format>image/svg+xml</dc:format>
    <dc:type rdf:resource="http://purl.org/dc/dcmitype/StillImage"/>
   </cc:Work>
  </rdf:RDF>
 </metadata>
 <defs id="defs3277">
  <linearGradient id="linearGradient2407" y2="5.4676" gradientUnits="userSpaceOnUse" x2="63.397" gradientTransform="matrix(1.0863 0 0 1.0862 -55.567 15.814)" y1="-12.489" x1="63.397">
   <stop id="stop4875" style="stop-color:#fff" offset="0"/>
   <stop id="stop4877" style="stop-color:#fff;stop-opacity:0" offset="1"/>
  </linearGradient>
  <radialGradient id="radialGradient2410" gradientUnits="userSpaceOnUse" cy="3.99" cx="23.896" gradientTransform="matrix(0 1.2316 -1.6257 0 18.487 -28.721)" r="20.397">
   <stop id="stop2778" style="stop-color:#8badea" offset="0"/>
   <stop id="stop2780" style="stop-color:#6396cd" offset=".26238"/>
   <stop id="stop2782" style="stop-color:#3b7caf" offset=".66094"/>
   <stop id="stop2784" style="stop-color:#194c70" offset="1"/>
  </radialGradient>
  <linearGradient id="linearGradient2412" y2="3.0816" gradientUnits="userSpaceOnUse" x2="18.379" gradientTransform="matrix(.51604 0 0 .51604 -.38499 -.38499)" y1="44.98" x1="18.379">
   <stop id="stop2788" style="stop-color:#1f4b6a" offset="0"/>
   <stop id="stop2790" style="stop-color:#4083c2" offset="1"/>
  </linearGradient>
  <radialGradient id="radialGradient2415" gradientUnits="userSpaceOnUse" cy="4.625" cx="62.625" gradientTransform="matrix(1.1294 0 0 .28235 -58.729 19.694)" r="10.625">
   <stop id="stop8840" offset="0"/>
   <stop id="stop8842" style="stop-opacity:0" offset="1"/>
  </radialGradient>
 </defs>
 <path id="path8836" style="opacity:.3;fill-rule:evenodd;fill:url(#radialGradient2415)" d="m24 21c0 1.657-5.373 3-12 3-6.6274 0-12-1.343-12-3-2.5e-7 -1.657 5.3726-3 12-3 6.627 0 12 1.343 12 3z"/>
 <path id="path2555" style="stroke-linejoin:round;stroke:url(#linearGradient2412);stroke-linecap:round;stroke-width:1.0037;fill:url(#radialGradient2410)" d="m12 1.5018c-5.7926 0-10.498 4.7056-10.498 10.498-0.0002 5.793 4.7054 10.498 10.498 10.498 5.793 0 10.498-4.705 10.498-10.498 0-5.7926-4.705-10.498-10.498-10.498z"/>
 <path id="path2463" style="opacity:.4;stroke:url(#linearGradient2407);fill:none" d="m21.5 12c0 5.247-4.254 9.5-9.5 9.5-5.2466 0-9.5-4.254-9.5-9.5 0-5.247 4.2534-9.5 9.5-9.5 5.246 0 9.5 4.253 9.5 9.5z"/>
 <path id="path2503" style="color:#000000;fill:#1f4b6a" d="m13.623 6.4886c0 0.8217-0.694 1.4886-1.55 1.4886-0.855 0-1.55-0.6669-1.55-1.4886s0.695-1.4886 1.55-1.4886c0.856 0 1.55 0.6669 1.55 1.4886zm3.869 1.5829c-0.072 0.0111-0.139 0.0383-0.197 0.0792l-5.295 0.7929-5.2664-0.8038c-0.1361-0.0949-0.3275-0.1233-0.4796-0.0529-0.1522 0.0704-0.2519 0.2373-0.254 0.3961-0.0019 0.1588 0.1037 0.2957 0.254 0.3696l4.127 1.2574-0.029 2.886-1.4558 4.322c-0.1402 0.197-0.0975 0.45 0.1129 0.581s0.5087 0.091 0.6489-0.106l2.35-4.665 2.305 4.657c0.125 0.205 0.403 0.275 0.621 0.159 0.218-0.117 0.294-0.377 0.169-0.581l-1.429-4.341-0.056-2.717 4.184-1.4679c0.17-0.1109 0.243-0.321 0.17-0.5016-0.074-0.1807-0.275-0.2859-0.48-0.264z"/>
 <path id="path6668" style="fill:#fff" d="m13.623 7.4886c0 0.8217-0.694 1.4886-1.55 1.4886-0.855 0-1.55-0.6669-1.55-1.4886s0.695-1.4886 1.55-1.4886c0.856 0 1.55 0.6669 1.55 1.4886zm3.869 1.5829c-0.072 0.0111-0.139 0.0383-0.197 0.0792l-5.295 0.7929-5.2664-0.8038c-0.1361-0.0949-0.3275-0.1233-0.4796-0.0529-0.1522 0.0704-0.2519 0.2373-0.254 0.3961-0.0019 0.1588 0.1037 0.2957 0.254 0.3696l4.127 1.2574-0.029 2.886-1.4558 4.322c-0.1402 0.197-0.0975 0.45 0.1129 0.581s0.5087 0.091 0.6489-0.106l2.35-4.665 2.305 4.657c0.125 0.205 0.403 0.275 0.621 0.159 0.218-0.117 0.294-0.377 0.169-0.581l-1.429-4.341-0.056-2.717 4.184-1.4679c0.17-0.1109 0.243-0.321 0.17-0.5016-0.074-0.1807-0.275-0.2859-0.48-0.264z"/>
</svg>
