<?xml version="1.0" encoding="UTF-8" standalone="no"?>
<!-- Created with Inkscape (http://www.inkscape.org/) -->

<svg
   xmlns:dc="http://purl.org/dc/elements/1.1/"
   xmlns:cc="http://creativecommons.org/ns#"
   xmlns:rdf="http://www.w3.org/1999/02/22-rdf-syntax-ns#"
   xmlns:svg="http://www.w3.org/2000/svg"
   xmlns="http://www.w3.org/2000/svg"
   xmlns:xlink="http://www.w3.org/1999/xlink"
   xmlns:sodipodi="http://sodipodi.sourceforge.net/DTD/sodipodi-0.dtd"
   xmlns:inkscape="http://www.inkscape.org/namespaces/inkscape"
   width="24"
   height="23.999998"
   id="svg5302"
   version="1.1"
   inkscape:version="0.48.3.1 r9886"
   sodipodi:docname="New document 12">
  <defs
     id="defs5304">
    <radialGradient
       inkscape:collect="always"
       xlink:href="#linearGradient4147"
       id="radialGradient4986"
       gradientUnits="userSpaceOnUse"
       gradientTransform="matrix(1,0,0,0.14285714,0,116.57143)"
       cx="88"
       cy="136"
       fx="88"
       fy="136"
       r="56" />
    <linearGradient
       inkscape:collect="always"
       id="linearGradient4147">
      <stop
         style="stop-color:#000000;stop-opacity:1;"
         offset="0"
         id="stop4149" />
      <stop
         style="stop-color:#000000;stop-opacity:0;"
         offset="1"
         id="stop4151" />
    </linearGradient>
    <filter
       color-interpolation-filters="sRGB"
       inkscape:collect="always"
       id="filter4705"
       x="-0.081854984"
       width="1.16371"
       y="-0.57298487"
       height="2.1459699">
      <feGaussianBlur
         inkscape:collect="always"
         stdDeviation="3.8198993"
         id="feGaussianBlur4707" />
    </filter>
    <linearGradient
       inkscape:collect="always"
       xlink:href="#linearGradient5081"
       id="linearGradient4992"
       gradientUnits="userSpaceOnUse"
       gradientTransform="matrix(1.0526268,0,0,1.0526265,-15.577625,-117.06982)"
       x1="298"
       y1="970.36218"
       x2="298"
       y2="1008.2684" />
    <linearGradient
       id="linearGradient5081">
      <stop
         id="stop5083"
         offset="0"
         style="stop-color:#c3c1bf;stop-opacity:1;" />
      <stop
         id="stop5085"
         offset="1"
         style="stop-color:#a39f9b;stop-opacity:1;" />
    </linearGradient>
    <radialGradient
       inkscape:collect="always"
       xlink:href="#linearGradient7958"
       id="radialGradient4990"
       gradientUnits="userSpaceOnUse"
       gradientTransform="matrix(1.5395201,-8e-7,7.8264654e-7,1.5061251,-159.69831,-223.20093)"
       cx="296"
       cy="441"
       fx="296"
       fy="441"
       r="19" />
    <linearGradient
       id="linearGradient7958">
      <stop
         id="stop7960"
         offset="0"
         style="stop-color:#5d5d57;stop-opacity:1;" />
      <stop
         id="stop7962"
         offset="1"
         style="stop-color:#2d2c2b;stop-opacity:1;" />
    </linearGradient>
    <clipPath
       clipPathUnits="userSpaceOnUse"
       id="clipPath5101">
      <path
         sodipodi:type="arc"
         style="fill:#ff00ff;fill-opacity:1;stroke:none"
         id="path5103"
         sodipodi:cx="296"
         sodipodi:cy="448"
         sodipodi:rx="19"
         sodipodi:ry="19"
         d="m 315,448 a 19,19 0 1 1 -38,0 19,19 0 1 1 38,0 z"
         transform="translate(0,-0.44665647)" />
    </clipPath>
    <filter
       inkscape:collect="always"
       id="filter5113"
       color-interpolation-filters="sRGB">
      <feGaussianBlur
         inkscape:collect="always"
         stdDeviation="0.57"
         id="feGaussianBlur5115" />
    </filter>
    <linearGradient
       inkscape:collect="always"
       xlink:href="#linearGradient3934"
       id="linearGradient4998"
       gradientUnits="userSpaceOnUse"
       gradientTransform="matrix(0.95237657,0,0,0.95237629,14.096417,-16.933768)"
       x1="275.5"
       y1="975.67468"
       x2="294"
       y2="975.67468" />
    <linearGradient
       inkscape:collect="always"
       id="linearGradient3934">
      <stop
         style="stop-color:#000000;stop-opacity:1;"
         offset="0"
         id="stop3936" />
      <stop
         style="stop-color:#000000;stop-opacity:0;"
         offset="1"
         id="stop3938" />
    </linearGradient>
    <linearGradient
       inkscape:collect="always"
       xlink:href="#linearGradient5063"
       id="linearGradient5073"
       gradientUnits="userSpaceOnUse"
       x1="185.5"
       y1="142.04688"
       x2="192.62411"
       y2="140.13797" />
    <linearGradient
       inkscape:collect="always"
       id="linearGradient5063">
      <stop
         style="stop-color:#000000;stop-opacity:1;"
         offset="0"
         id="stop5065" />
      <stop
         style="stop-color:#000000;stop-opacity:0;"
         offset="1"
         id="stop5067" />
    </linearGradient>
    <linearGradient
       inkscape:collect="always"
       xlink:href="#linearGradient5010"
       id="linearGradient5000"
       gradientUnits="userSpaceOnUse"
       gradientTransform="matrix(0.52631335,0,0,0.5263132,40.211202,-372.71595)"
       x1="288.7619"
       y1="973.9812"
       x2="296"
       y2="972.17169" />
    <linearGradient
       id="linearGradient5010">
      <stop
         id="stop5012"
         offset="0"
         style="stop-color:#ebebeb;stop-opacity:1;" />
      <stop
         id="stop5014"
         offset="1"
         style="stop-color:#ebebeb;stop-opacity:0;" />
    </linearGradient>
    <linearGradient
       inkscape:collect="always"
       xlink:href="#linearGradient5048"
       id="linearGradient5054"
       x1="196.12102"
       y1="152.75"
       x2="206.00005"
       y2="152.75"
       gradientUnits="userSpaceOnUse"
       spreadMethod="reflect" />
    <linearGradient
       inkscape:collect="always"
       id="linearGradient5048">
      <stop
         style="stop-color:#ffffff;stop-opacity:1;"
         offset="0"
         id="stop5050" />
      <stop
         style="stop-color:#ffffff;stop-opacity:0;"
         offset="1"
         id="stop5052" />
    </linearGradient>
    <linearGradient
       inkscape:collect="always"
       xlink:href="#linearGradient8054"
       id="linearGradient5478"
       gradientUnits="userSpaceOnUse"
       gradientTransform="matrix(1.3605443,0,0,1.3333333,-17.972811,-319.32067)"
       x1="223"
       y1="934.11218"
       x2="235"
       y2="934.11218" />
    <linearGradient
       id="linearGradient8054">
      <stop
         style="stop-color:#de4814;stop-opacity:1;"
         offset="0"
         id="stop8056" />
      <stop
         style="stop-color:#ff6000;stop-opacity:1;"
         offset="1"
         id="stop8058" />
    </linearGradient>
    <linearGradient
       inkscape:collect="always"
       xlink:href="#linearGradient5048"
       id="linearGradient5230"
       x1="196.12102"
       y1="152.75"
       x2="206.00005"
       y2="152.75"
       gradientUnits="userSpaceOnUse"
       spreadMethod="reflect" />
    <linearGradient
       inkscape:collect="always"
       xlink:href="#linearGradient5048"
       id="linearGradient5082"
       gradientUnits="userSpaceOnUse"
       spreadMethod="reflect"
       x1="196.12102"
       y1="152.75"
       x2="206.00005"
       y2="152.75"
       gradientTransform="matrix(-1.9318518,-0.51763814,0.51763814,-1.9318518,598.03271,1311.7334)" />
    <linearGradient
       inkscape:collect="always"
       xlink:href="#linearGradient3934"
       id="linearGradient5110"
       gradientUnits="userSpaceOnUse"
       gradientTransform="matrix(-0.95237657,0,0,-0.95237629,577.90359,1865.6582)"
       x1="275.5"
       y1="975.67468"
       x2="294"
       y2="975.67468" />
    <linearGradient
       inkscape:collect="always"
       xlink:href="#linearGradient5063"
       id="linearGradient5112"
       gradientUnits="userSpaceOnUse"
       x1="185.5"
       y1="142.04688"
       x2="192.62411"
       y2="140.13797" />
    <linearGradient
       inkscape:collect="always"
       xlink:href="#linearGradient5010"
       id="linearGradient5114"
       gradientUnits="userSpaceOnUse"
       gradientTransform="matrix(-1.0526268,0,0,-1.0526265,607.57763,1965.7942)"
       x1="288.7619"
       y1="973.9812"
       x2="296"
       y2="972.17169" />
    <linearGradient
       id="linearGradient5260">
      <stop
         id="stop5262"
         offset="0"
         style="stop-color:#ebebeb;stop-opacity:1;" />
      <stop
         id="stop5264"
         offset="1"
         style="stop-color:#ebebeb;stop-opacity:0;" />
    </linearGradient>
    <linearGradient
       inkscape:collect="always"
       xlink:href="#linearGradient5048"
       id="linearGradient5116"
       gradientUnits="userSpaceOnUse"
       gradientTransform="matrix(1.9318518,0.51763814,-0.51763814,1.9318518,-6.0327068,536.99098)"
       spreadMethod="reflect"
       x1="196.12102"
       y1="152.75"
       x2="206.00005"
       y2="152.75" />
    <linearGradient
       y2="152.75"
       x2="206.00005"
       y1="152.75"
       x1="196.12102"
       spreadMethod="reflect"
       gradientUnits="userSpaceOnUse"
       id="linearGradient5298"
       xlink:href="#linearGradient5048"
       inkscape:collect="always" />
    <linearGradient
       y2="152.75"
       x2="206.00005"
       y1="152.75"
       x1="196.12102"
       spreadMethod="reflect"
       gradientTransform="matrix(1.9318518,0.51763814,-0.51763814,1.9318518,-6.0327068,536.99098)"
       gradientUnits="userSpaceOnUse"
       id="linearGradient5300"
       xlink:href="#linearGradient5048"
       inkscape:collect="always" />
  </defs>
  <sodipodi:namedview
     id="base"
     pagecolor="#ffffff"
     bordercolor="#666666"
     borderopacity="1.0"
     inkscape:pageopacity="0.0"
     inkscape:pageshadow="2"
     inkscape:zoom="0.35"
     inkscape:cx="-150.14286"
     inkscape:cy="592"
     inkscape:document-units="px"
     inkscape:current-layer="layer1"
     showgrid="false"
     fit-margin-top="0"
     fit-margin-left="0"
     fit-margin-right="0"
     fit-margin-bottom="0"
     inkscape:window-width="1855"
     inkscape:window-height="1056"
     inkscape:window-x="65"
     inkscape:window-y="24"
     inkscape:window-maximized="1" />
  <metadata
     id="metadata5307">
    <rdf:RDF>
      <cc:Work
         rdf:about="">
        <dc:format>image/svg+xml</dc:format>
        <dc:type
           rdf:resource="http://purl.org/dc/dcmitype/StillImage" />
        <dc:title></dc:title>
      </cc:Work>
    </rdf:RDF>
  </metadata>
  <g
     inkscape:label="Layer 1"
     inkscape:groupmode="layer"
     id="layer1"
     transform="translate(-525.14286,-1100.3622)">
    <g
       transform="matrix(0.49999995,0,0,0.49999995,389.14287,650.18114)"
       id="24px"
       inkscape:export-filename="software-updater.png"
       inkscape:export-xdpi="180"
       inkscape:export-ydpi="180"
       style="display:inline"
       inkscape:label="#g4889">
      <path
         sodipodi:type="arc"
         style="opacity:0.3;color:#000000;fill:url(#radialGradient4986);fill-opacity:1;fill-rule:nonzero;stroke:none;stroke-width:1;marker:none;visibility:visible;display:inline;overflow:visible;enable-background:accumulate"
         id="path4891"
         sodipodi:cx="88"
         sodipodi:cy="136"
         sodipodi:rx="56"
         sodipodi:ry="8"
         d="m 144,136 c 0,4.41828 -25.07205,8 -56,8 -30.927946,0 -56,-3.58172 -56,-8 0,-4.41828 25.072054,-8 56,-8 30.92795,0 56,3.58172 56,8 z"
         transform="matrix(0.42857135,0,0,0.50671101,258.28573,875.39577)" />
      <path
         transform="matrix(0.27441453,0,0,0.13905402,271.85152,925.86545)"
         d="m 144,136 c 0,4.41828 -25.07205,8 -56,8 -30.927946,0 -56,-3.58172 -56,-8 0,-4.41828 25.072054,-8 56,-8 30.92795,0 56,3.58172 56,8 z"
         sodipodi:ry="8"
         sodipodi:rx="56"
         sodipodi:cy="136"
         sodipodi:cx="88"
         id="path4893"
         style="opacity:0.15;color:#000000;fill:#000000;fill-opacity:1;fill-rule:nonzero;stroke:none;stroke-width:1;marker:none;visibility:visible;display:inline;overflow:visible;filter:url(#filter4705);enable-background:accumulate"
         sodipodi:type="arc" />
      <path
         transform="matrix(1.0526317,0,0,1.0526317,-15.578981,450.78319)"
         d="m 315,448 c 0,10.49341 -8.50659,19 -19,19 -10.49341,0 -19,-8.50659 -19,-19 0,-10.49341 8.50659,-19 19,-19 10.49341,0 19,8.50659 19,19 z"
         sodipodi:ry="19"
         sodipodi:rx="19"
         sodipodi:cy="448"
         sodipodi:cx="296"
         id="path4895"
         style="fill:#b3b3b3;fill-opacity:1;stroke:none"
         sodipodi:type="arc" />
      <path
         style="fill:url(#linearGradient4992);fill-opacity:1;stroke:none"
         d="m 295.9999,904.35909 c -11.04564,0 -19.9999,8.95426 -19.9999,19.9999 0,11.04566 8.95426,19.99991 19.9999,19.99991 11.04566,0 19.99991,-8.95425 19.99991,-19.99991 0,-11.04564 -8.95425,-19.9999 -19.99991,-19.9999 z m 0,3.8095 c 8.94173,0 16.1904,7.24868 16.1904,16.1904 0,8.94169 -7.24867,16.19039 -16.1904,16.19039 -8.94171,0 -16.1904,-7.2487 -16.1904,-16.19039 0,-8.94172 7.24869,-16.1904 16.1904,-16.1904 z"
         id="path4900"
         inkscape:connector-curvature="0" />
      <path
         sodipodi:type="arc"
         style="fill:url(#radialGradient4990);fill-opacity:1;stroke:none"
         id="path4898"
         sodipodi:cx="296"
         sodipodi:cy="448"
         sodipodi:rx="19"
         sodipodi:ry="19"
         d="m 315,448 c 0,10.49341 -8.50659,19 -19,19 -10.49341,0 -19,-8.50659 -19,-19 0,-10.49341 8.50659,-19 19,-19 10.49341,0 19,8.50659 19,19 z"
         transform="matrix(0.86523818,0,0,0.86523789,39.889395,536.73241)" />
      <path
         transform="matrix(0.86523818,0,0,0.86523789,39.889395,537.11886)"
         d="m 315,448 c 0,10.49341 -8.50659,19 -19,19 -10.49341,0 -19,-8.50659 -19,-19 0,-10.49341 8.50659,-19 19,-19 10.49341,0 19,8.50659 19,19 z"
         sodipodi:ry="19"
         sodipodi:rx="19"
         sodipodi:cy="448"
         sodipodi:cx="296"
         id="path4902"
         style="opacity:0.3;fill:none;stroke:#000000;stroke-width:2.068187;filter:url(#filter5113)"
         sodipodi:type="arc"
         clip-path="url(#clipPath5101)" />
      <path
         style="opacity:0.2;fill:url(#linearGradient4998);fill-opacity:1;stroke:none"
         d="m 295.9999,905.31145 c -5.5286,0 -10.52522,2.23724 -14.13684,5.86307 l -2.70831,-2.70831 -2.67857,10.77376 10.77374,-2.67857 -2.67853,-2.67857 c 2.92556,-2.93738 6.95738,-4.76186 11.42851,-4.76186 l 0,-3.80952 z"
         id="path4930"
         inkscape:connector-curvature="0"
         inkscape:transform-center-x="4.8809803"
         inkscape:transform-center-y="-6.0432406" />
      <path
         sodipodi:type="inkscape:offset"
         inkscape:radius="0.47195503"
         inkscape:original="M 196 138 C 193.13329 138 190.56925 139.22371 188.75 141.15625 L 187.125 139.53125 L 185.5 146.09375 L 192.0625 144.4375 L 190.09375 142.46875 C 191.56806 140.89437 193.6738 139.90625 196 139.90625 L 196 138 z "
         style="opacity:0.3;fill:url(#linearGradient5073);fill-opacity:1;stroke:none"
         id="path5071"
         d="m 196,137.53125 c -2.81768,0 -5.34358,1.1575 -7.21875,2.96875 l -1.3125,-1.3125 a 0.47200223,0.47200223 0 0 0 -0.8125,0.21875 l -1.625,6.5625 a 0.47200223,0.47200223 0 0 0 0.59375,0.59375 l 6.5625,-1.65625 a 0.47200223,0.47200223 0 0 0 0.21875,-0.8125 l -1.625,-1.625 C 192.14532,141.17824 193.97398,140.375 196,140.375 a 0.47200223,0.47200223 0 0 0 0.46875,-0.46875 l 0,-1.90625 A 0.47200223,0.47200223 0 0 0 196,137.53125 z"
         transform="matrix(2.0000002,0,0,2.0000002,-96.000038,628.36216)"
         inkscape:transform-center-x="5.2613105"
         inkscape:transform-center-y="-5.9418161" />
      <path
         style="fill:url(#linearGradient5000);fill-opacity:1;stroke:none"
         d="m 196,138 c -3.36526,0 -6.3148,1.67106 -8.125,4.21875 l 1.53125,0.90625 c 1.49759,-2.02021 3.88585,-3.34375 6.59375,-3.34375 L 196,138 z"
         transform="matrix(2.0000002,0,0,2.0000002,-96.000038,628.36216)"
         id="path4934"
         inkscape:connector-curvature="0"
         inkscape:transform-center-x="4.0625002"
         inkscape:transform-center-y="-7.4375014" />
      <path
         inkscape:connector-curvature="0"
         style="opacity:0.5;fill:#000000;fill-opacity:1;stroke:none"
         d="m 196,139.78125 c -4.53965,0 -8.21875,3.6791 -8.21875,8.21875 0,0.16829 0.0213,0.33421 0.0312,0.5 0.25901,-4.30625 3.81614,-7.71875 8.1875,-7.71875 4.37136,0 7.92849,3.4125 8.1875,7.71875 0.01,-0.16579 0.0312,-0.33171 0.0312,-0.5 0,-4.53965 -3.6791,-8.21875 -8.21875,-8.21875 z"
         transform="matrix(2.0000002,0,0,2.0000002,-96.000038,628.36216)"
         id="path5118" />
      <path
         style="opacity:0.4;fill:url(#linearGradient5298);fill-opacity:1;stroke:none"
         d="m 186.03125,147.5 c -0.008,0.16536 -0.0312,0.33262 -0.0312,0.5 0,5.52283 4.47718,10 10,10 5.52283,0 10,-4.47717 10,-10 0,-0.16738 -0.0231,-0.33464 -0.0312,-0.5 -0.26009,5.29093 -4.6133,9.5 -9.96875,9.5 -5.35544,0 -9.70866,-4.20907 -9.96875,-9.5 z"
         transform="matrix(2.0000002,0,0,2.0000002,-96.000038,628.36216)"
         id="path5039"
         inkscape:connector-curvature="0"
         sodipodi:nodetypes="cssscsc" />
      <rect
         style="opacity:0.2;fill:none;stroke:none"
         id="rect4944"
         width="48"
         height="48"
         x="272"
         y="208"
         transform="translate(0,692.36218)" />
      <path
         style="fill:#ebebeb;fill-opacity:1;stroke:none"
         d="m 288.13027,917.2641 -9.85798,-9.85799 -3.28603,13.14399 z"
         id="path4932"
         inkscape:connector-curvature="0"
         sodipodi:nodetypes="cccc"
         inkscape:transform-center-x="7.2208676"
         inkscape:transform-center-y="-5.1920432" />
      <path
         d="m 301.34625,932.36219 c -0.21351,-0.6927 -0.45611,-1.40459 -0.72782,-2.13568 -0.25232,-0.73108 -0.50466,-1.46225 -0.75692,-2.19332 l -7.86047,0 c -0.25233,0.73107 -0.51432,1.46224 -0.78604,2.19332 -0.25233,0.73121 -0.48523,1.44298 -0.69871,2.13568 l -4.71629,0 c 0.75693,-2.15487 1.47506,-4.14624 2.15436,-5.97405 0.67929,-1.82781 1.33917,-3.54984 1.97967,-5.16599 0.65987,-1.61613 1.30037,-3.14566 1.92145,-4.58865 0.64047,-1.46226 1.30036,-2.88603 1.97965,-4.27131 l 4.33781,0 c 0.65992,1.38528 1.31007,2.80905 1.95057,4.27131 0.64046,1.44299 1.28094,2.97252 1.92145,4.58865 0.65987,1.61615 1.32947,3.33818 2.00878,5.16599 0.67929,1.82781 1.39741,3.81918 2.15434,5.97405 l -4.86183,0 m -5.4441,-15.46902 c -0.0969,0.28865 -0.24262,0.68309 -0.43667,1.18332 -0.19413,0.5002 -0.41729,1.0774 -0.66962,1.73161 -0.25231,0.65409 -0.53374,1.37556 -0.84427,2.16444 -0.29114,0.78887 -0.59196,1.61614 -0.9025,2.482 l 5.73524,0 c -0.31055,-0.86586 -0.61139,-1.69313 -0.90252,-2.482 -0.29112,-0.78888 -0.57254,-1.51035 -0.84427,-2.16444 -0.25231,-0.65421 -0.47551,-1.23141 -0.66958,-1.73161 -0.19408,-0.50035 -0.34935,-0.89467 -0.46581,-1.18332"
         id="path5420"
         inkscape:connector-curvature="0"
         style="font-size:18px;font-style:normal;font-variant:normal;font-weight:bold;font-stretch:normal;text-align:start;line-height:125%;letter-spacing:0px;word-spacing:0px;writing-mode:lr-tb;text-anchor:start;fill:#ffffff;fill-opacity:1;stroke:none;display:inline;font-family:Ubuntu;-inkscape-font-specification:Ubuntu Bold" />
      <rect
         style="color:#000000;fill:#383534;fill-opacity:1;fill-rule:nonzero;stroke:none;stroke-width:1;marker:none;visibility:visible;display:inline;overflow:visible;enable-background:accumulate"
         id="rect3413"
         width="24.000002"
         height="6.0000005"
         x="284"
         y="922.36224"
         ry="3.0000002" />
      <rect
         ry="0.99998343"
         y="924.36224"
         x="286"
         height="1.9999669"
         width="20.000004"
         id="rect5424"
         style="fill:#ffffff;fill-opacity:1;stroke:none;display:inline" />
      <rect
         ry="1.0000139"
         y="924.36218"
         x="286"
         height="2.0000279"
         width="12.000002"
         id="rect5444"
         style="color:#000000;fill:url(#linearGradient5478);fill-opacity:1;fill-rule:nonzero;stroke:none;stroke-width:1;marker:none;visibility:visible;display:inline;overflow:visible;enable-background:accumulate" />
      <path
         sodipodi:nodetypes="cssscsc"
         inkscape:connector-curvature="0"
         id="path5075"
         d="m 186.03125,147.5 c -0.008,0.16536 -0.0312,0.33262 -0.0312,0.5 0,5.52283 4.47718,10 10,10 5.52283,0 10,-4.47717 10,-10 0,-0.16738 -0.0231,-0.33464 -0.0312,-0.5 -0.26009,5.29093 -4.6133,9.5 -9.96875,9.5 -5.35544,0 -9.70866,-4.20907 -9.96875,-9.5 z"
         style="opacity:0.4;fill:url(#linearGradient5054);fill-opacity:1;stroke:none"
         inkscape:transform-center-y="4.7499986"
         transform="matrix(2.0000002,0,0,2.0000002,-96.000038,628.36216)" />
      <path
         inkscape:transform-center-y="-3.4696992"
         style="opacity:0.8;fill:url(#linearGradient5082);fill-opacity:1;stroke:none"
         d="m 314.99953,930.48835 c 0.10105,-0.31531 0.23245,-0.62642 0.31909,-0.94977 2.85883,-10.66929 -3.47287,-21.63608 -14.14214,-24.4949 -10.66929,-2.85883 -21.63607,3.47284 -24.4949,14.14213 -0.0866,0.32336 -0.12859,0.65844 -0.19854,0.98208 3.24124,-10.08666 13.82977,-15.96457 24.17571,-13.19239 10.34591,2.77218 16.57691,13.15687 14.34058,23.5128 z"
         id="path5079"
         inkscape:connector-curvature="0"
         sodipodi:nodetypes="cssscsc"
         inkscape:transform-center-x="-0.12202455" />
      <path
         inkscape:transform-center-y="6.0432382"
         inkscape:transform-center-x="-4.8809787"
         inkscape:connector-curvature="0"
         id="path5099"
         d="m 296.0001,943.41293 c 5.5286,0 10.52522,-2.23724 14.13684,-5.86307 l 2.70831,2.70831 2.67857,-10.77376 -10.77374,2.67857 2.67853,2.67857 c -2.92556,2.93738 -6.95738,4.76186 -11.42851,4.76186 l 0,3.80952 z"
         style="opacity:0.2;fill:url(#linearGradient5110);fill-opacity:1;stroke:none" />
      <path
         inkscape:transform-center-y="5.9418037"
         inkscape:transform-center-x="-5.2613099"
         transform="matrix(-2.0000002,0,0,-2.0000002,688.00004,1220.3622)"
         d="m 196,137.53125 c -2.81768,0 -5.34358,1.1575 -7.21875,2.96875 l -1.3125,-1.3125 a 0.47200223,0.47200223 0 0 0 -0.8125,0.21875 l -1.625,6.5625 a 0.47200223,0.47200223 0 0 0 0.59375,0.59375 l 6.5625,-1.65625 a 0.47200223,0.47200223 0 0 0 0.21875,-0.8125 l -1.625,-1.625 C 192.14532,141.17824 193.97398,140.375 196,140.375 a 0.47200223,0.47200223 0 0 0 0.46875,-0.46875 l 0,-1.90625 A 0.47200223,0.47200223 0 0 0 196,137.53125 z"
         id="path5101"
         style="opacity:0.3;fill:url(#linearGradient5112);fill-opacity:1;stroke:none"
         inkscape:original="M 196 138 C 193.13329 138 190.56925 139.22371 188.75 141.15625 L 187.125 139.53125 L 185.5 146.09375 L 192.0625 144.4375 L 190.09375 142.46875 C 191.56806 140.89437 193.6738 139.90625 196 139.90625 L 196 138 z "
         inkscape:radius="0.47195503"
         sodipodi:type="inkscape:offset" />
      <path
         inkscape:transform-center-y="7.4375031"
         inkscape:transform-center-x="-4.0624988"
         inkscape:connector-curvature="0"
         id="path5104"
         d="m 296,944.3622 c 6.73052,0 12.6296,-3.34212 16.25,-8.4375 l -3.0625,-1.8125 c -2.99518,4.04042 -7.7717,6.6875 -13.1875,6.6875 l 0,3.5625 z"
         style="fill:url(#linearGradient5114);fill-opacity:1;stroke:none" />
      <path
         inkscape:transform-center-y="5.1920408"
         inkscape:transform-center-x="-7.220866"
         sodipodi:nodetypes="cccc"
         inkscape:connector-curvature="0"
         id="path5106"
         d="m 303.86973,931.46028 9.85798,9.85799 3.28603,-13.14399 z"
         style="fill:#ebebeb;fill-opacity:1;stroke:none" />
      <path
         inkscape:transform-center-x="0.12202615"
         sodipodi:nodetypes="cssscsc"
         inkscape:connector-curvature="0"
         id="path5108"
         d="m 277.00047,918.23603 c -0.10105,0.31531 -0.23245,0.62642 -0.31909,0.94977 -2.85883,10.66929 3.47287,21.63608 14.14214,24.4949 10.66929,2.85883 21.63607,-3.47284 24.4949,-14.14213 0.0866,-0.32336 0.12859,-0.65844 0.19854,-0.98208 -3.24124,10.08666 -13.82977,15.96457 -24.17571,13.19239 -10.34591,-2.77218 -16.57691,-13.15687 -14.34058,-23.5128 z"
         style="opacity:0.3;fill:url(#linearGradient5300);fill-opacity:1;stroke:none"
         inkscape:transform-center-y="3.4696968" />
    </g>
  </g>
</svg>
