<?xml version="1.0" encoding="UTF-8" standalone="no"?>
<!-- Created with Inkscape (http://www.inkscape.org/) -->
<svg id="svg2" xmlns="http://www.w3.org/2000/svg" height="24" width="24" version="1.0" xmlns:xlink="http://www.w3.org/1999/xlink">
 <defs id="defs4">
  <radialGradient id="radialGradient3868" gradientUnits="userSpaceOnUse" cy="4.625" cx="62.625" gradientTransform="matrix(1 0 0 .34118 0 3.0471)" r="10.625">
   <stop id="stop8840" offset="0"/>
   <stop id="stop8842" style="stop-opacity:0" offset="1"/>
  </radialGradient>
  <radialGradient id="radialGradient6407" gradientUnits="userSpaceOnUse" cy="5.3052" cx="12.466" gradientTransform="matrix(1.2145 0 0 1 -2.6744 -.0000015333)" r="10.5">
   <stop id="stop8649" style="stop-color:#8fb1dc" offset="0"/>
   <stop id="stop8651" style="stop-color:#3465a4" offset="1"/>
  </radialGradient>
  <linearGradient id="linearGradient5158" y2="-.62970" gradientUnits="userSpaceOnUse" x2="63.397" gradientTransform="matrix(1.0299 0 0 1.0299 -51.596 15.116)" y1="-12.742" x1="63.397">
   <stop id="stop4875" style="stop-color:#fff" offset="0"/>
   <stop id="stop4877" style="stop-color:#fff;stop-opacity:0" offset="1"/>
  </linearGradient>
  <radialGradient id="radialGradient2414" gradientUnits="userSpaceOnUse" cy="24.149" cx="17.814" gradientTransform="matrix(-1.4145 0 1.571e-8 1.3559 39.434 -22.854)" r="9.125">
   <stop id="stop4847" style="stop-color:#fff" offset="0"/>
   <stop id="stop4849" style="stop-color:#b6b6b6" offset="1"/>
  </radialGradient>
  <radialGradient id="radialGradient5163" fx="24.652" gradientUnits="userSpaceOnUse" cy="18.944" cx="24.653" gradientTransform="matrix(.036890 1.3299 -.94885 .026323 29.159 -26.64)" r="8.6174">
   <stop id="stop14112" style="stop-color:#557695" offset="0"/>
   <stop id="stop14114" style="stop-color:#15395c" offset="1"/>
  </radialGradient>
 </defs>
 <g id="layer1">
  <path id="path2774" style="opacity:.56044;fill-rule:evenodd;fill:url(#radialGradient3868)" d="m73.25 4.625a10.625 3.625 0 1 1 -21.25 0 10.625 3.625 0 1 1 21.25 0z" transform="matrix(1.0824 0 0 1.2907 -55.817 13.352)"/>
  <path id="path2555" style="stroke-linejoin:round;stroke:#204a87;stroke-linecap:round;stroke-width:.99995;fill:url(#radialGradient6407)" d="m12.458 1.5c-5.5191 0-9.9922 4.4731-9.9922 9.9922s4.4731 10.008 9.9922 10.008 10.008-4.4888 10.008-10.008c0-5.5191-4.4888-9.9922-10.008-9.9922z"/>
  <path id="path6566" style="fill:url(#radialGradient5163)" d="m9.0535 13.69c-0.2266-0.579-1.0573-0.93-1.2515-1.343-0.6698 0-1.2207-0.674-1.65 0.067-0.8286 0.339-0.7894-0.853-1.2289-0.939 0.0293-0.497 0.0046-1.021-0.4918-0.389-1.0077 0.127-0.5185-1.5969 0.3515-1.5028 0.5378-0.3553 1.2408 0.7808 1.1219-0.0813 0.4967-0.7752 1.0756-1.5175 1.8756-1.9921 0.4036-0.0478 1.1534-0.6478 0.294-0.6107-0.8995-0.1767 1.0982-0.1228 1.1355-0.6513-0.1624-0.4749-0.4051-0.8712-0.9024-0.9236-0.361-0.9234-0.7881 0.4423-1.1154 0.7414-0.3053 0.6631-0.5961-0.445-1.0382-0.4206-0.1961-0.7341 1.9728-1.0249 0.8614-1.7064-0.6959 0.4921-1.4057 0.9954-1.9175 1.7227-1.165 1.4821-1.9506 3.2794-2.1498 5.1597 0.43387 1.0881 1.8949 1.0688 2.6089 1.8809 1.0964 0.34388-0.55444 1.5213 0.03335 2.3338 0.31933 0.90777 1.5512 1.3854 1.4257 2.4603 0.15948 0.7432-0.31848 2.0746 0.8533 2.1742 0.63269-0.0983 0.89205-0.97658 1.3461-1.3048-0.019237-0.7502 0.52889-1.1601 0.99558-1.5056 0.076-0.74435 0.29829-1.4952 0.48748-2.147-0.277-0.657-1.1721-0.583-1.6446-1.023m4.5716-11.192c-1.0697-0.67251-2.3649-0.23549-3.475 0.065324-1.0612 0.54764 1.006 0.69958 0.2827 1.4785-0.43808 0.6543 0.60808 1.4834 0.9043 0.53908 0.4165-0.76128 1.5517-0.32371 1.9383-1.1726 0.1485-0.28907 0.21055-0.61423 0.34977-0.9104m8.2048 7.538c-0.42053 0.5417-1.4735-0.79659-1.5848-0.2529 0.06333 0.3651 0.59773 0.93049 0.85669 0.39083 0.65716 0.87425-0.82484 1.6783-1.2619 1.9175-0.29852-0.66601-0.4622-1.3932-0.87973-1.9982-0.36291-0.65491-0.70415-0.06728-0.20194 0.3022 0.31039 0.84504 0.53744 1.9414 1.6609 1.8327 0.34213 1.0768-1.2636 1.7075-1.0301 2.8083 0.27898 0.82428-0.11257 1.493-0.78004 1.8992 0.26142 0.63957-0.36715 1.7017-1.099 1.9096-0.4532 0.28555-1.0205 0.25001-0.94861-0.47189-0.31058-1.0412-0.54722-2.0699-0.37045-3.1745-0.17761-0.65827-0.32264-1.4663-0.53084-1.9563-0.79399-0.69432-1.7884 0.67564-2.2817-0.34049-0.7147-0.61326-0.86359-1.4896-0.5133-2.3298 0.24393-0.97109 1.0411-1.9032 2.0629-2.0738 0.90089-0.39887 1.4187 1.0408 2.2236 0.51194 0.41927 0.38423 1.9218-0.026037 1.1677-0.46992-0.616-0.0943-1.017-1.0212-1.301-0.2476-0.231-0.0773-0.592-1.2567-0.665-0.6937 0.521 0.3033-0.395 0.9054-0.144 0.2091-0.695-0.9479-1.513 0.1388-1.947 0.6599-0.937-0.0726-0.606-1.3432 0.213-1.2144-0.639-0.7151 0.402-0.5732 0.64-1.1653 0.369-0.5635 0.614-0.3753 1.123-0.1152 0.41392-0.32957 1.1252-0.96125 0.52822-1.1925 0.31631-0.99185-0.65813 0.099168-0.53481 0.57173-0.24749 0.50815-0.63136-0.26679-1.003 0.00201-0.30032-0.72894 0.63639-1.1416 1.0847-1.5387 0.512-0.14572 1.6779-0.043438 1.802 0.32333-0.80285 0.00494-0.25026 0.8275 0.18362 0.31671 0.61603-0.42688 1.2474 0.93817 1.7301 1.3736 0.94575 1.2178 1.569 2.6833 1.8003 4.2071z"/>
  <path id="path8655" style="opacity:.4;stroke:url(#linearGradient5158);fill:none" d="m21.473 11.5c0 4.9748-4.033 9.0077-9.0071 9.0077-4.9746 0-9.0073-4.033-9.0073-9.0077 0-4.9746 4.0327-9.0071 9.0073-9.0071 4.9741 0 9.0071 4.0325 9.0071 9.0071z"/>
  <path id="path3970" style="stroke-linejoin:round;fill-rule:evenodd;stroke:#666;fill:url(#radialGradient2414)" d="m13.634 8.6693 9.095 8.8273-4.1462 0.13375s1.7387 3.6112 1.7387 3.6112c0.535 1.605-1.8725 2.2068-2.2737 1.0031l-1.605-3.6112-2.943 3.143 0.134-13.108z"/>
  <path id="path4853" style="opacity:.4;stroke:#fff;fill:none" d="m14.64 11.059 5.731 5.5253-3.3036 0.09366s2.1174 4.5352 2.1174 4.5352c0.34733 0.61278-0.08254 0.97744-0.29127 0.42224 0 0-2.2067-4.6887-2.2067-4.6887l-2.1292 2.247 0.08242-8.1347z"/>
 </g>
</svg>
