<svg width="30" height="6" viewBox="0 0 30 6" fill="none" xmlns="http://www.w3.org/2000/svg">
    <path opacity="0.2" fill-rule="evenodd" clip-rule="evenodd" d="M30 2L30 0L28 -8.74228e-08L28 2L30 2ZM22 2L22 -3.4969e-07L20 -4.37114e-07L20 2L22 2ZM14 -6.99382e-07L14 2L12 2L12 -7.86805e-07L14 -6.99382e-07ZM6 2L6 -1.04907e-06L4 -1.1365e-06L4 2L6 2ZM26 -1.74846e-07L26 2L24 2L24 -2.62268e-07L26 -1.74846e-07ZM18 2L18 -5.24537e-07L16 -6.11959e-07L16 2L18 2ZM10 -8.74228e-07L10 2L8 2L8 -9.61651e-07L10 -8.74228e-07ZM2 2L2 -1.22392e-06L0 -1.31134e-06L-8.74228e-08 2L2 2ZM30 4L30 6L28 6L28 4L30 4ZM22 6L22 4L20 4L20 6L22 6ZM14 4L14 6L12 6L12 4L14 4ZM6 6L6 4L4 4L4 6L6 6ZM26 4L26 6L24 6L24 4L26 4ZM18 6L18 4L16 4L16 6L18 6ZM10 4L10 6L8 6L8 4L10 4ZM2 6L2 4L-1.74846e-07 4L-2.62268e-07 6L2 6Z" fill="white"/>
</svg>
