<svg width="2500" height="2500" viewBox="0 0 256 256" xmlns="http://www.w3.org/2000/svg" preserveAspectRatio="xMidYMid"><path d="M240.67 256H15.33C6.862 256 0 249.136 0 240.67V15.33C0 6.862 6.863 0 15.33 0h225.34C249.137 0 256 6.863 256 15.33v225.34c0 8.466-6.864 15.33-15.33 15.33" fill="#161D15"/><path d="M116.89 105.512l25.602-37.09c4.84-6.989 11.088-10.483 18.749-10.483 6.25 0 11.655 2.217 16.228 6.652 4.568 4.434 6.852 9.743 6.852 15.925 0 4.57-1.207 8.602-3.627 12.096l-23.083 33.563 28.223 35.782c2.822 3.561 4.233 7.728 4.233 12.498 0 6.318-2.215 11.741-6.652 16.277-4.435 4.537-9.813 6.803-16.127 6.803-6.922 0-12.195-2.249-15.825-6.752l-34.572-43.139v23.788c0 6.788-1.175 12.061-3.528 15.824-4.3 6.852-10.55 10.28-18.746 10.28-7.459 0-13.24-2.52-17.337-7.56-3.83-4.636-5.744-10.786-5.744-18.443V83.338c0-7.257 1.946-13.236 5.845-17.94 4.098-4.971 9.742-7.459 16.932-7.459 6.855 0 12.565 2.488 17.135 7.46 2.553 2.753 4.166 5.542 4.837 8.364.404 1.749.606 5.006.606 9.777v21.972" fill="#2CDF72"/></svg>
