<?xml version="1.0" encoding="UTF-8" standalone="no"?>
<!-- Created with Inkscape (http://www.inkscape.org/) -->
<svg id="svg3272" xmlns="http://www.w3.org/2000/svg" height="48" width="48" version="1.0" xmlns:xlink="http://www.w3.org/1999/xlink">
 <defs id="defs3274">
  <linearGradient id="linearGradient2535" y2="27.532" gradientUnits="userSpaceOnUse" x2="-11.267" gradientTransform="matrix(0 -.66961 .66810 .017108 6.6789 29.023)" y1="27.532" x1="40.924">
   <stop id="stop4224" style="stop-color:#fff" offset="0"/>
   <stop id="stop4226" style="stop-color:#fff;stop-opacity:0" offset="1"/>
  </linearGradient>
  <linearGradient id="linearGradient2538" y2="23.891" gradientUnits="userSpaceOnUse" x2="47.572" gradientTransform="matrix(0 .55679 .55811 .0036 10.666 -.11006)" y1="23.891" x1="8.2449">
   <stop id="stop3706" style="stop-color:#fff" offset="0"/>
   <stop id="stop3708" style="stop-color:#a2a2a2" offset="1"/>
  </linearGradient>
  <radialGradient id="radialGradient2603" gradientUnits="userSpaceOnUse" cy="8.3021" cx="7.2647" gradientTransform="matrix(0 .98627 -1.6272 0 -25.127 13.601)" r="20.98">
   <stop id="stop4655" style="stop-color:#fff" offset="0"/>
   <stop id="stop4657" style="stop-color:#fff;stop-opacity:0" offset="1"/>
  </radialGradient>
  <linearGradient id="linearGradient2601" y2="32.979" gradientUnits="userSpaceOnUse" x2="16.362" gradientTransform="matrix(1.1447 0 0 .80409 -54.965 7.9066)" y1="20.73" x1="13.08">
   <stop id="stop4667" style="stop-color:#fff" offset="0"/>
   <stop id="stop4669" style="stop-color:#fff;stop-opacity:0" offset="1"/>
  </linearGradient>
  <linearGradient id="linearGradient2599" y2="36.658" gradientUnits="userSpaceOnUse" x2="22.809" gradientTransform="matrix(1.1447 0 0 .81463 -54.965 7.7486)" y1="49.629" x1="22.935">
   <stop id="stop4661" style="stop-opacity:.498" offset="0"/>
   <stop id="stop4663" style="stop-opacity:0" offset="1"/>
  </linearGradient>
  <linearGradient id="linearGradient2597" y2="20.981" gradientUnits="userSpaceOnUse" x2="25.474" gradientTransform="translate(-51.502 -1.3368)" y1="45.114" x1="34.954">
   <stop id="stop3624" style="stop-color:#bb2b12" offset="0"/>
   <stop id="stop3626" style="stop-color:#cd7233" offset="1"/>
  </linearGradient>
  <radialGradient id="radialGradient2595" gradientUnits="userSpaceOnUse" cy="19.544" cx="13.857" gradientTransform="matrix(1.488 0 0 .79126 -58.265 9.4843)" r="24.097">
   <stop id="stop3618" style="stop-color:#edb763" offset="0"/>
   <stop id="stop3270" style="stop-color:#de7f32" offset=".5"/>
   <stop id="stop3620" style="stop-color:#d24413" offset="1"/>
  </radialGradient>
  <radialGradient id="radialGradient7600-312" gradientUnits="userSpaceOnUse" cy="486.65" cx="605.71" gradientTransform="matrix(-.032130 0 0 .037059 23.363 25.412)" r="117.14">
   <stop id="stop2681" offset="0"/>
   <stop id="stop2683" style="stop-opacity:0" offset="1"/>
  </radialGradient>
  <radialGradient id="radialGradient7598-526" gradientUnits="userSpaceOnUse" cy="486.65" cx="605.71" gradientTransform="matrix(.032130 0 0 .037059 24.637 25.412)" r="117.14">
   <stop id="stop2675" offset="0"/>
   <stop id="stop2677" style="stop-opacity:0" offset="1"/>
  </radialGradient>
  <linearGradient id="linearGradient7596-975" y2="609.51" gradientUnits="userSpaceOnUse" x2="302.86" gradientTransform="matrix(.082840 0 0 .037059 -5.9408 25.412)" y1="366.65" x1="302.86">
   <stop id="stop2667" style="stop-opacity:0" offset="0"/>
   <stop id="stop2669" offset=".5"/>
   <stop id="stop2671" style="stop-opacity:0" offset="1"/>
  </linearGradient>
  <linearGradient id="linearGradient2561" y2="21.352" gradientUnits="userSpaceOnUse" x2="63.49" gradientTransform="translate(-50.941)" y1="18.344" x1="63.49">
   <stop id="stop6406" style="stop-color:#f9f9f9" offset="0"/>
   <stop id="stop6408" style="stop-color:#c9c9c9" offset="1"/>
  </linearGradient>
  <radialGradient id="radialGradient2563" gradientUnits="userSpaceOnUse" cy="5.0172" cx="3" gradientTransform="matrix(-1.2749e-8 1.7143 -2.1593 -1.46e-8 12.809 2.857)" r="21">
   <stop id="stop3486" style="stop-color:#bdbdbd" offset="0"/>
   <stop id="stop3488" style="stop-color:#d0d0d0" offset="1"/>
  </radialGradient>
 </defs>
 <path id="path2756" style="stroke-linejoin:round;stroke:url(#radialGradient2563);stroke-linecap:round;fill:url(#linearGradient2561)" d="m3.5062 8.5c-0.6902 0.0077-1.0004 0.3421-1.0004 1 0 5.514 0.0263 9.74-0.0058 14.75 1.4355 0 42.5 0.343 42.5-1.25l0.5-10.493c0-0.658-0.554-1.008-1.244-1h-20.256c-2.047 0-3.499-3.007-5-3.007h-15.494 0.0002z"/>
 <g id="g2758" style="opacity:.4" transform="matrix(.95833 0 0 .66667 1 15)">
  <rect id="rect2760" style="fill:url(#linearGradient7596-975)" height="9" width="40" y="39" x="4"/>
  <path id="path2762" style="fill:url(#radialGradient7598-526)" d="m44 39v9c1.655 0.017 4-2.017 4-4.501s-1.846-4.499-4-4.499z"/>
  <path id="path2764" style="fill:url(#radialGradient7600-312)" d="m4 39v9c-1.6546 0.017-4-2.017-4-4.501s1.8464-4.499 4-4.499z"/>
 </g>
 <rect id="rect2766" style="display:block;fill:#eda374" rx="1" ry="1" height="2" width="13" y="10" x="5"/>
 <path id="path5656" style="stroke-linejoin:round;stroke:#7f7f7f;stroke-width:.99993;fill:url(#linearGradient2538)" d="m13 13.496l11.028-12.5 10.972 12.5h-5.5v23.5l-11-0.074v-23.426h-5.5z"/>
 <path id="path4360" style="opacity:.4;stroke:url(#linearGradient2535);stroke-width:.99993;fill:none" d="m15.234 12.496l8.766-9.9781 8.782 9.9781h-4.282v24.04l-9-0.256v-23.784h-4.266z"/>
 <g id="g2629" transform="translate(51.502 1.2227)">
  <path id="path7314" style="stroke-linejoin:round;stroke:url(#linearGradient2597);stroke-linecap:round;fill:url(#radialGradient2595)" d="m-50.437 20.163c-1.072 0.101-0.499 1.279-0.585 1.866 0.301 1.217 1.977 19.434 2.179 20.747 0.342 0.788 1.595 0.385 2.389 0.485h39.58c1.0896-0.087 0.6367-1.15 0.7899-1.758 0.0621-0.884 1.7066-14.739 2.1793-20.746-0.2512-0.779-1.4877-0.594-2.263-0.594h-44.269z"/>
  <path id="path2541" style="opacity:.4;fill:url(#linearGradient2599)" d="m-50.441 19.968h45.897c0.6344 0 1.0452 0.363 1.0452 0.815l-2.2444 21.995c0 0.451-0.5105 0.814-1.1446 0.814h-41.209c-0.634 0-1.144-0.363-1.144-0.814l-2.245-21.995c0-0.452 0.411-0.815 1.045-0.815z"/>
  <path id="path8263" style="opacity:.2;fill:url(#linearGradient2601)" d="m-50.441 19.663h45.897c0.6344 0 1.0452 0.664 1.0452 1.11l-0.46 6.002-46.843 5.829-0.684-11.832c0-0.445 0.411-1.109 1.045-1.109z"/>
  <path id="path2544" style="opacity:.4;stroke-linejoin:round;stroke:url(#radialGradient2603);stroke-linecap:round;fill:none" d="m-4.9988 21.163h-45c0.22 0.893 1.927 19.691 2.23 21.162"/>
 </g>
</svg>
