<?xml version="1.0" encoding="UTF-8" standalone="no"?>
<!-- Created with Inkscape (http://www.inkscape.org/) -->
<svg id="svg2" xmlns="http://www.w3.org/2000/svg" height="48" width="48" version="1.0" xmlns:xlink="http://www.w3.org/1999/xlink">
 <defs id="defs4">
  <linearGradient id="linearGradient4545" y2="47.013" xlink:href="#linearGradient3600" gradientUnits="userSpaceOnUse" x2="25.132" gradientTransform="matrix(.54289 0 0 .48891 -.029196 -21.233)" y1="6.7287" x1="25.132"/>
  <linearGradient id="linearGradient3600">
   <stop id="stop3602" style="stop-color:#f4f4f4" offset="0"/>
   <stop id="stop3604" style="stop-color:#dbdbdb" offset="1"/>
  </linearGradient>
  <linearGradient id="linearGradient4547" y2="1.7018" xlink:href="#linearGradient3931" gradientUnits="userSpaceOnUse" x2="-8.8879" gradientTransform="matrix(.43838 0 0 .45754 32.224 -21.778)" y1="50.786" x1="-51.786"/>
  <linearGradient id="linearGradient3931">
   <stop id="stop3933" style="stop-color:#747671" offset="0"/>
   <stop id="stop3935" style="stop-color:#cbcbcb" offset="1"/>
  </linearGradient>
  <linearGradient id="linearGradient3192" y2="47.013" xlink:href="#linearGradient3600" gradientUnits="userSpaceOnUse" x2="25.132" gradientTransform="matrix(.54288 0 0 .48891 18.971 -7.2333)" y1="6.7287" x1="25.132"/>
  <linearGradient id="linearGradient3194" y2="-19.798" xlink:href="#linearGradient3931" gradientUnits="userSpaceOnUse" x2="-22.574" gradientTransform="matrix(.43837 0 0 .45754 51.224 -7.7782)" y1="14.969" x1="-64.248"/>
 </defs>
 <g id="layer1" transform="translate(0,24)">
  <path id="rect2594" style="stroke-linejoin:round;stroke:url(#linearGradient4547);stroke-width:.99915;fill:url(#linearGradient4545)" d="m3.4996-20.5 22.001 0.00043v27h-22.001v-27z"/>
  <path id="path3064" style="stroke-linejoin:round;stroke:url(#linearGradient3194);stroke-width:.99914;fill:url(#linearGradient3192)" d="m22.5-6.5 22 0.00043v27h-22v-27z"/>
  <path id="path3186" style="opacity:.7;fill:#666" d="m32.459 14h-3.097v1h3.097v-1zm1.0713 0h-0.85103v1h0.85103v-1zm-7.4587 0h3.097v1h-3.097v-1zm-1.0713 0h0.85103v1h-0.85103v-1zm11.527-4h1.0367v1h-1.0367v-1zm-2.1207 0h1.9462v1h-1.9462v-1zm-0.48725 0h0.31275v1h-0.31275v-1zm-1.6752 0h1.5007v1h-1.5007v-1zm-1.2112 0h1.0366v1h-1.0366v-1zm-1.2112 0h1.0367v1h-1.0367v-1zm-1.6938 0h1.5193v1h-1.5193v-1zm-0.83991 0h0.66542v1h-0.66542v-1zm-2.2877 0h2.1132v1h-2.1132v-1zm6.3759-3h1.2594v1h-1.2594v-1zm4.594 0h2.8v1h-2.8v-1zm-1.9026 0h1.7234v1h-1.7234v-1zm-1.2529 0h1.0738v1h-1.0738v-1zm-2.9699 0h1.3522v1h-1.3522v-1zm-2.9792 0h2.8v1h-2.8v-1zm-1.8655 0h1.6863v1h-1.6863v-1zm12.084 5h0.99953v1h-0.99953v-1zm-0.55155 0h0.36843v1h-0.36843v-1zm-2.6066 0h1.6121v1h-1.6121v-1zm1.7952 0h0.62829v1h-0.62829v-1zm-4.3328 0h2.3545v1h-2.3545v-1zm-1.1826 0h0.99953v1h-0.99953v-1zm-2.6861 0h2.503v1h-2.503v-1zm-2.5191 0h2.336v1h-2.336v-1zm12.084-11h0.99953v1h-0.99953v-1zm-0.55155 0h0.36843v1h-0.36843v-1zm-2.6066 0h1.6121v1h-1.6121v-1zm1.7952 0h0.62829v1h-0.62829v-1zm-4.3328 0h2.3545v1h-2.3545v-1zm-1.1826 0h0.99953v1h-0.99953v-1zm-2.6861 0h2.503v1h-2.503v-1zm-2.5191 0h2.336v1h-2.336v-1zm11.304-2h0.29418v1h-0.29418v-1zm-1.4455 0h1.2594v1h-1.2594v-1zm-2.058 0h1.8719v1h-1.8719v-1zm-1.6125 0h1.4264v1h-1.4264v-1zm-1.0743 0h0.88816v1h-0.88816v-1zm-1.0743 0h0.88816v1h-0.88816v-1zm-0.64734 0h0.46124v1h-0.46124v-1zm-1.1671 0h0.98097v1h-0.98097v-1zm-2.2251 0h2.039v1h-2.039v-1zm12.176 4h1.278v1h-1.278v-1zm-0.82599 0h0.64685v1h-0.64685v-1zm-2.2924 0h2.1132v1h-2.1132v-1zm-2.9606 0h2.7814v1h-2.7814v-1zm-1.2529 0h1.0738v1h-1.0738v-1zm-0.65894 0h0.4798v1h-0.4798v-1zm-1.2715 0h1.0923v1h-1.0923v-1zm-1.42 0h1.2408v1h-1.2408v-1zm-1.4942 0h1.3151v1h-1.3151v-1zm9.3643-6h2.1847v1h-2.1847v-1zm-3.0607 0h2.8755v1h-2.8755v-1zm-1.2953 0h1.1101v1h-1.1101v-1zm-0.68122 0h0.49602v1h-0.49602v-1zm-1.3145 0h1.1293v1h-1.1293v-1zm-1.468 0h1.2828v1h-1.2828v-1zm-1.5447 0h1.3595v1h-1.3595v-1zm-11.541 3h-3.0971v1h3.0971v-1zm1.0713 0h-0.85105v1h0.85105v-1zm-7.4589 0h3.0971v1h-3.0971v-1zm-1.0713 0h0.85105v1h-0.85105v-1zm11.527-4h1.0367v1h-1.0367v-1zm-2.1207 0h1.9462v1h-1.9462v-1zm-0.48726 0h0.31276v1h-0.31276v-1zm-1.6752 0h1.5007v1h-1.5007v-1zm-1.2112 0h1.0367v1h-1.0367v-1zm-1.2112 0h1.0367v1h-1.0367v-1zm-1.6938 0h1.5193v1h-1.5193v-1zm-0.83993 0h0.66543v1h-0.66543v-1zm-2.2878 0h2.1133v1h-2.1133v-1zm6.3761-3h1.2594v1h-1.2594v-1zm4.5941 0h2.8001v1h-2.8001v-1zm-1.9026 0h1.7235v1h-1.7235v-1zm-1.2529 0h1.0738v1h-1.0738v-1zm-2.9699 0h1.3522v1h-1.3522v-1zm-2.9792 0h2.8001v1h-2.8001v-1zm-1.8655 0h1.6863v1h-1.6863v-1zm12.084 5h0.99955v1h-0.99955v-1zm-0.55156 0h0.36844v1h-0.36844v-1zm-2.6066 0h1.6121v1h-1.6121v-1zm1.7952 0h0.6283v1h-0.6283v-1zm-4.3329 0h2.3546v1h-2.3546v-1zm-1.1827 0h0.99955v1h-0.99955v-1zm-2.6862 0h2.5031v1h-2.5031v-1zm-2.5191 0h2.336v1h-2.336v-1zm12.084-11h0.99955v1h-0.99955v-1zm-0.55156 0h0.36844v1h-0.36844v-1zm-2.6066 0h1.6121v1h-1.6121v-1zm1.7952 0h0.6283v1h-0.6283v-1zm-4.3329 0h2.3546v1h-2.3546v-1zm-1.1827 0h0.99955v1h-0.99955v-1zm-2.6862 0h2.5031v1h-2.5031v-1zm-2.5191 0h2.336v1h-2.336v-1zm11.304-2h0.29419v1h-0.29419v-1zm-1.4455 0h1.2594v1h-1.2594v-1zm-2.0581 0h1.872v1h-1.872v-1zm-1.6126 0h1.4265v1h-1.4265v-1zm-1.0743 0h0.88818v1h-0.88818v-1zm-1.0743 0h0.88818v1h-0.88818v-1zm-0.64735 0h0.46125v1h-0.46125v-1zm-1.1671 0h0.98098v1h-0.98098v-1zm-2.2251 0h2.039v1h-2.039v-1zm12.177 4h1.278v1h-1.278v-1zm-0.82601 0h0.64686v1h-0.64686v-1zm-2.2924 0h2.1133v1h-2.1133v-1zm-2.9606 0h2.7815v1h-2.7815v-1zm-1.2529 0h1.0738v1h-1.0738v-1zm-0.65896 0h0.47981v1h-0.47981v-1zm-1.2715 0h1.0924v1h-1.0924v-1zm-1.42 0h1.2409v1h-1.2409v-1zm-1.4942 0h1.3151v1h-1.3151v-1zm9.3645-6h2.1847v1h-2.1847v-1zm-3.0607 0h2.8755v1h-2.8755v-1zm-1.2953 0h1.1101v1h-1.1101v-1zm-0.68123 0h0.49603v1h-0.49603v-1zm-1.3145 0h1.1293v1h-1.1293v-1zm-1.468 0h1.2828v1h-1.2828v-1zm-1.5448 0h1.3596v1h-1.3596v-1z"/>
 </g>
</svg>
