<?xml version="1.0" encoding="UTF-8" standalone="no"?>
<!-- Created with Inkscape (http://www.inkscape.org/) -->
<svg id="svg3178" xmlns:rdf="http://www.w3.org/1999/02/22-rdf-syntax-ns#" xmlns="http://www.w3.org/2000/svg" height="48px" width="48px" version="1.1" xmlns:cc="http://creativecommons.org/ns#" xmlns:xlink="http://www.w3.org/1999/xlink" xmlns:dc="http://purl.org/dc/elements/1.1/">
 <defs id="defs3180">
  <linearGradient id="linearGradient2922" y2="5.4676" gradientUnits="userSpaceOnUse" x2="63.397" gradientTransform="matrix(2.1154 0 0 2.1153 -107.58 32.427)" y1="-12.489" x1="63.397">
   <stop id="stop4875" style="stop-color:#fff" offset="0"/>
   <stop id="stop4877" style="stop-color:#fff;stop-opacity:0" offset="1"/>
  </linearGradient>
  <linearGradient id="linearGradient2945-2" y2="16.723" gradientUnits="userSpaceOnUse" x2="19.821" gradientTransform="matrix(0 2.561 -2.4726 0 55.264 -5.1152)" y1="16.723" x1="3.6967">
   <stop id="stop3358-8-5" style="stop-color:#808080" offset="0"/>
   <stop id="stop3360-9-9" style="stop-color:#6d6d6d" offset=".54610"/>
   <stop id="stop3362-6-9" style="stop-color:#4f5053" offset="1"/>
  </linearGradient>
  <linearGradient id="linearGradient2947-1" y2="25.883" gradientUnits="userSpaceOnUse" x2="72.452" gradientTransform="matrix(0 2.561 -2.4726 0 84.712 -139.89)" y1="25.883" x1="56.323">
   <stop id="stop3229-0-9" style="stop-color:#4d4d4d" offset="0"/>
   <stop id="stop3231-1-1" style="stop-color:#333" offset="1"/>
  </linearGradient>
  <linearGradient id="linearGradient2950-8" y2="23.063" gradientUnits="userSpaceOnUse" x2="17.61" gradientTransform="matrix(1.8573 0 0 1.8572 1.7133 2.7133)" y1=".99996" x1="17.61">
   <stop id="stop3270-6-3" style="stop-color:#fff" offset="0"/>
   <stop id="stop3272-2-6" style="stop-color:#cdcdcd" offset="1"/>
  </linearGradient>
  <linearGradient id="linearGradient2952-8" y2="45.326" gradientUnits="userSpaceOnUse" x2="12.963" gradientTransform="matrix(.95842 0 0 .95840 .99826 1.9983)" y1="2.6838" x1="12.963">
   <stop id="stop5026-6-2" style="stop-color:#808080" offset="0"/>
   <stop id="stop5028-2-1" style="stop-color:#6d6d6d" offset=".87327"/>
   <stop id="stop5030-8-0" style="stop-color:#4f5053" offset="1"/>
  </linearGradient>
  <radialGradient id="radialGradient3176" gradientUnits="userSpaceOnUse" cx="62.625" cy="4.625" r="10.625" gradientTransform="matrix(2.1647 0 0 .75294 -111.56 36.518)">
   <stop id="stop8840" offset="0"/>
   <stop id="stop8842" style="stop-opacity:0" offset="1"/>
  </radialGradient>
 </defs>
 <metadata id="metadata3183">
  <rdf:RDF>
   <cc:Work rdf:about="">
    <dc:format>image/svg+xml</dc:format>
    <dc:type rdf:resource="http://purl.org/dc/dcmitype/StillImage"/>
    <dc:title/>
   </cc:Work>
  </rdf:RDF>
 </metadata>
 <g id="layer1">
  <path id="path8836" style="opacity:.3;fill-rule:evenodd;fill:url(#radialGradient3176)" d="m47 40c0 4.4183-10.297 8-23 8s-23-3.5817-23-8 10.297-8 23-8 23 3.5817 23 8z"/>
  <path id="path2555" style="stroke-linejoin:round;stroke-width:1.0037;color:#000000;stroke:url(#linearGradient2952-8);stroke-linecap:round;fill:url(#linearGradient2950-8)" d="m24 5.5018c-10.758 0-19.498 8.7402-19.498 19.498s8.7398 19.498 19.498 19.498 19.498-8.7398 19.498-19.498-8.7398-19.498-19.498-19.498z"/>
  <path id="path2555-99" style="color:#000000;stroke:url(#linearGradient2947-1);fill:url(#linearGradient2945-2)" d="m23.5 5.5c-10.527 0.267-19 8.91-19 19.5s8.4732 19.233 19 19.5v-39z"/>
  <path id="path8655" style="opacity:.4;stroke:url(#linearGradient2922);fill:none" d="m42.5 24.999c0 10.218-8.283 18.501-18.5 18.501s-18.5-8.283-18.5-18.501c0-10.217 8.2829-18.499 18.5-18.499 10.216 0 18.5 8.2822 18.5 18.499z"/>
 </g>
</svg>
