<?xml version="1.0" encoding="UTF-8" standalone="no"?>
<!-- Created with Inkscape (http://www.inkscape.org/) -->
<svg id="svg4486" xmlns="http://www.w3.org/2000/svg" height="48" width="48" version="1.0" xmlns:xlink="http://www.w3.org/1999/xlink">
 <defs id="defs4488">
  <radialGradient id="radialGradient5828" gradientUnits="userSpaceOnUse" cy="21.818" cx="18.241" r="8.3085">
   <stop id="stop3408" style="stop-color:#a1a1a1;stop-opacity:.20784" offset="0"/>
   <stop id="stop3410" style="stop-color:#a1a1a1;stop-opacity:.67843" offset="1"/>
  </radialGradient>
  <linearGradient id="linearGradient5060">
   <stop id="stop5062" offset="0"/>
   <stop id="stop5064" style="stop-opacity:0" offset="1"/>
  </linearGradient>
  <linearGradient id="linearGradient3312" y2="5.4565" gradientUnits="userSpaceOnUse" x2="36.358" gradientTransform="matrix(.99770 0 0 1.0407 .16380 -1.1058)" y1="8.059" x1="32.892">
   <stop id="stop8591" style="stop-color:#fefefe" offset="0"/>
   <stop id="stop8593" style="stop-color:#cbcbcb" offset="1"/>
  </linearGradient>
  <linearGradient id="linearGradient3316" y2="46.017" gradientUnits="userSpaceOnUse" x2="24" gradientTransform="matrix(1 0 0 .97778 0 -.96667)" y1="2" x1="24">
   <stop id="stop3213" style="stop-color:#fff" offset="0"/>
   <stop id="stop3215" style="stop-color:#fff;stop-opacity:0" offset="1"/>
  </linearGradient>
  <radialGradient id="radialGradient3319" gradientUnits="userSpaceOnUse" cy="112.3" cx="102" gradientTransform="matrix(.36170 0 0 -.39078 .85106 47.517)" r="139.56">
   <stop id="stop41" style="stop-color:#b7b8b9" offset="0"/>
   <stop id="stop47" style="stop-color:#ececec" offset=".18851"/>
   <stop id="stop49" style="stop-color:#fafafa;stop-opacity:0" offset=".25718"/>
   <stop id="stop51" style="stop-color:#fff;stop-opacity:0" offset=".30111"/>
   <stop id="stop53" style="stop-color:#fafafa;stop-opacity:0" offset=".53130"/>
   <stop id="stop55" style="stop-color:#ebecec;stop-opacity:0" offset=".84490"/>
   <stop id="stop57" style="stop-color:#e1e2e3;stop-opacity:0" offset="1"/>
  </radialGradient>
  <linearGradient id="linearGradient3322" y2="47.013" gradientUnits="userSpaceOnUse" x2="25.132" gradientTransform="matrix(1 0 0 .95617 -1.0065e-7 -1.9149)" y1=".98521" x1="25.132">
   <stop id="stop3602" style="stop-color:#f4f4f4" offset="0"/>
   <stop id="stop3604" style="stop-color:#dbdbdb" offset="1"/>
  </linearGradient>
  <linearGradient id="linearGradient3324" y2="2.9062" gradientUnits="userSpaceOnUse" x2="-51.786" gradientTransform="matrix(.80750 0 0 .89483 59.41 -2.9806)" y1="50.786" x1="-51.786">
   <stop id="stop3106" style="stop-color:#aaa" offset="0"/>
   <stop id="stop3108" style="stop-color:#c8c8c8" offset="1"/>
  </linearGradient>
  <radialGradient id="radialGradient3327" xlink:href="#linearGradient5060" gradientUnits="userSpaceOnUse" cy="486.65" cx="605.71" gradientTransform="matrix(.023040 0 0 0.0147 26.361 37.04)" r="117.14"/>
  <radialGradient id="radialGradient3330" xlink:href="#linearGradient5060" gradientUnits="userSpaceOnUse" cy="486.65" cx="605.71" gradientTransform="matrix(-.023040 0 0 0.0147 21.623 37.04)" r="117.14"/>
  <linearGradient id="linearGradient3333" y2="609.51" gradientUnits="userSpaceOnUse" x2="302.86" gradientTransform="matrix(.067325 0 0 0.0147 -.34114 37.04)" y1="366.65" x1="302.86">
   <stop id="stop5050" style="stop-opacity:0" offset="0"/>
   <stop id="stop5056" offset=".5"/>
   <stop id="stop5052" style="stop-opacity:0" offset="1"/>
  </linearGradient>
  <filter id="filter3212" y="-.16434" width="1.2969" x="-.14846" height="1.3287">
   <feGaussianBlur id="feGaussianBlur3214" stdDeviation="0.77391625"/>
  </filter>
  <linearGradient id="linearGradient2818" y2="11.949" gradientUnits="userSpaceOnUse" x2="173.1" gradientTransform="matrix(.28614 0 0 .28331 -22.847 14.709)" y1="75.319" x1="173.1">
   <stop id="stop3366" style="stop-color:#979797" offset="0"/>
   <stop id="stop3368" style="stop-opacity:.34118" offset="1"/>
  </linearGradient>
  <linearGradient id="linearGradient2821" y2="11.949" gradientUnits="userSpaceOnUse" x2="173.1" gradientTransform="matrix(.30046 0 0 .29748 -25.405 14.269)" y1="75.319" x1="173.1">
   <stop id="stop3396" style="stop-color:#343434;stop-opacity:.97647" offset="0"/>
   <stop id="stop3398" style="stop-color:#929292" offset="1"/>
  </linearGradient>
  <linearGradient id="linearGradient2823" y2="4.5363" gradientUnits="userSpaceOnUse" x2="41.485" gradientTransform="matrix(.30046 0 0 .29748 13.568 16.508)" y1="68.292" x1="41.542">
   <stop id="stop3402" style="stop-color:#333" offset="0"/>
   <stop id="stop3404" style="stop-color:#333;stop-opacity:.61224" offset="1"/>
  </linearGradient>
  <radialGradient id="radialGradient2826" gradientUnits="userSpaceOnUse" cy="13.078" cx="15.414" gradientTransform="matrix(2.2852 0 0 1.7583 -11.398 -1.3674)" r="6.6562">
   <stop id="stop3390" style="stop-color:#fff" offset="0"/>
   <stop id="stop3392" style="stop-color:#fff;stop-opacity:.24762" offset="1"/>
  </radialGradient>
  <linearGradient id="linearGradient2831" y2="67.35" gradientUnits="userSpaceOnUse" x2="201.87" gradientTransform="matrix(.29293 0 0 .29003 -24.196 14.165)" y1="146.15" x1="277.57">
   <stop id="stop3384" style="stop-color:#fff" offset="0"/>
   <stop id="stop3386" style="stop-color:#fff;stop-opacity:0" offset="1"/>
  </linearGradient>
  <linearGradient id="linearGradient2834" y2="91.973" gradientUnits="userSpaceOnUse" x2="-164.72" gradientTransform="matrix(.29293 0 0 .29003 88.605 11.362)" y1="99.667" x1="-172.65">
   <stop id="stop3372" style="stop-color:#242424;stop-opacity:.99216" offset="0"/>
   <stop id="stop3374" style="stop-color:#656565" offset="1"/>
  </linearGradient>
  <linearGradient id="linearGradient2836" y2="29.484" gradientUnits="userSpaceOnUse" x2="31.364" gradientTransform="matrix(.75257 0 0 .74512 13.056 15.867)" y1="27.988" x1="32.893">
   <stop id="stop3378" style="stop-color:#575757" offset="0"/>
   <stop id="stop3380" style="stop-color:#333" offset="1"/>
  </linearGradient>
 </defs>
 <rect id="rect2879" style="opacity:.3;fill:url(#linearGradient3333)" height="3.5701" width="32.508" y="42.43" x="7.7378"/>
 <path id="path2881" style="opacity:.3;fill:url(#radialGradient3330)" d="m7.7378 42.43v3.57c-1.1865 0.007-2.8683-0.8-2.8683-1.785 0-0.986 1.324-1.785 2.8683-1.785z"/>
 <path id="path2883" style="opacity:.3;fill:url(#radialGradient3327)" d="m40.246 42.43v3.57c1.187 0.007 2.869-0.8 2.869-1.785 0-0.986-1.325-1.785-2.869-1.785z"/>
 <path id="path4160" style="stroke-linejoin:round;stroke:url(#linearGradient3324);stroke-width:.99992;fill:url(#linearGradient3322)" d="m6.5 0.4972h24.061c1.407 0.47465 8.965 5.8822 10.939 9.6268v34.379h-35v-44.006z"/>
 <path id="path4191" style="fill:url(#radialGradient3319)" d="m7.3617 44c-0.1993 0-0.3617-0.175-0.3617-0.391v-42.204c0-0.2155 0.1624-0.3906 0.3617-0.3906 7.4833 0.108 15.775-0.16158 23.249 0.0269l10.283 8.866 0.106 33.702c0 0.216-0.162 0.391-0.362 0.391h-33.276z"/>
 <path id="path2435" style="opacity:.6;stroke-linejoin:round;stroke:url(#linearGradient3316);stroke-width:.99992;fill:none" d="m40.5 10.259v33.263h-33v-42.044c7.562-0.0003 15.304-0.0003 22.866-0.0003"/>
 <path id="path12038" style="opacity:.4;fill-rule:evenodd;filter:url(#filter3212)" d="m28.617 0.92126c4.283 0 2.154 8.4831 2.154 8.4831s10.357-1.8023 10.357 2.8186c0-2.6095-11.302-10.728-12.511-11.302z"/>
 <path id="path4474" style="fill:url(#linearGradient3312);fill-rule:evenodd" d="m28.617 0.92126c3.187 0 2.336 7.6618 2.336 7.6618s10.175-0.981 10.175 3.6399c0-1.126 0.086-1.932-0.134-2.2834-1.578-2.5242-8.395-8.1884-10.857-8.9308-0.184-0.05556-0.593-0.08754-1.52-0.08754z"/>
 <path id="path11112" style="stroke-linejoin:round;fill-rule:evenodd;stroke:url(#linearGradient2836);stroke-linecap:round;stroke-width:.93605;fill:url(#linearGradient2834)" d="m34.139 32.95l13.098 12.069-1.816 2.44-13.05-13.056 1.768-1.453z"/>
 <path id="path11122" style="fill:url(#linearGradient2831);fill-rule:evenodd" d="m45.443 46.667l-10.504-12.969 12.709 11.043-2.205 1.926z"/>
 <path id="path13082" style="fill:#3e3e3e" d="m247.91 110.29a4.8668 2.6562 0 1 1 -9.73 0 4.8668 2.6562 0 1 1 9.73 0z" transform="matrix(.27547 -.30884 .35310 .23015 -59.388 96.055)"/>
 <path id="path4340" style="fill-rule:evenodd;fill:url(#radialGradient5828)" d="m25.898 18.478a8.3085 8.3085 0 1 1 -16.617 0 8.3085 8.3085 0 1 1 16.617 0z" transform="matrix(1.108 0 0 1.0703 7.5805 7.0727)"/>
 <path id="path4342" style="opacity:.83422;fill-rule:evenodd;fill:url(#radialGradient2826)" d="m26.69 19.195c-4.59 0-8.306 3.292-8.306 7.358 0 1.174 0.103 2.387 0.655 3.373 1.104 0.36 2.544 0.473 3.788 0.473 5.439 0 10.117-3.995 10.452-8.738-1.525-1.597-4.044-2.466-6.589-2.466z"/>
 <path id="path2298" style="stroke-linejoin:round;stroke:url(#linearGradient2823);stroke-linecap:round;stroke-width:.96010;fill:url(#linearGradient2821)" d="m26.867 17.97c-5.654 0-10.244 4.191-10.244 9.352 0 5.162 4.59 9.353 10.244 9.353 5.653 0 10.243-4.191 10.243-9.353 0-5.161-4.59-9.352-10.243-9.352zm0.122 0.614c5.06 0 9.173 3.747 9.173 8.367 0 4.619-4.113 8.366-9.173 8.366s-9.164-3.747-9.164-8.366c0-4.62 4.104-8.367 9.164-8.367z"/>
 <path id="path4267" style="fill:url(#linearGradient2818)" d="m26.932 18.24c-5.384 0-9.746 3.99-9.746 8.906 0 4.915 4.362 8.906 9.746 8.906 5.385 0 9.756-3.991 9.756-8.906 0-4.916-4.371-8.906-9.756-8.906zm0.057 0.344c5.06 0 8.772 3.747 8.772 8.367 0 4.619-3.712 7.969-8.772 7.969s-8.83-3.35-8.83-7.969c0-4.62 3.77-8.367 8.83-8.367z"/>
</svg>
