<?xml version="1.0" encoding="UTF-8" standalone="no"?>
<!-- Created with Inkscape (http://www.inkscape.org/) -->
<svg id="svg3674" xmlns="http://www.w3.org/2000/svg" height="48" width="48" version="1.1" xmlns:xlink="http://www.w3.org/1999/xlink">
 <defs id="defs3676">
  <radialGradient id="radialGradient9565" xlink:href="#linearGradient5060" gradientUnits="userSpaceOnUse" cy="486.65" cx="605.71" gradientTransform="matrix(.024097 0 0 .015375 26.478 38.629)" r="117.14"/>
  <linearGradient id="linearGradient5060">
   <stop id="stop5062" offset="0"/>
   <stop id="stop5064" style="stop-opacity:0" offset="1"/>
  </linearGradient>
  <radialGradient id="radialGradient9563" xlink:href="#linearGradient5060" gradientUnits="userSpaceOnUse" cy="486.65" cx="605.71" gradientTransform="matrix(-.024097 0 0 .015375 21.522 38.629)" r="117.14"/>
  <linearGradient id="linearGradient9561" y2="609.51" gradientUnits="userSpaceOnUse" x2="302.86" gradientTransform="matrix(.070414 0 0 .015375 -1.4497 38.629)" y1="366.65" x1="302.86">
   <stop id="stop5050" style="stop-opacity:0" offset="0"/>
   <stop id="stop5056" offset=".5"/>
   <stop id="stop5052" style="stop-opacity:0" offset="1"/>
  </linearGradient>
  <radialGradient id="radialGradient2224" gradientUnits="userSpaceOnUse" cy="39.625" cx="24.5" gradientTransform="matrix(1 0 0 .34416 0 25.988)" r="19.25">
   <stop id="stop2220" offset="0"/>
   <stop id="stop2222" style="stop-opacity:0" offset="1"/>
  </radialGradient>
  <linearGradient id="linearGradient6025" y2="45.015" gradientUnits="userSpaceOnUse" x2="29.268" gradientTransform="translate(0,-4)" y1="22.765" x1="26.538">
   <stop id="stop2202" style="stop-color:#fff" offset="0"/>
   <stop id="stop2204" style="stop-color:#fff;stop-opacity:0" offset="1"/>
  </linearGradient>
  <linearGradient id="linearGradient6023" y2="13.816" gradientUnits="userSpaceOnUse" x2="20.909" gradientTransform="translate(0,-4)" y1="42.125" x1="20.909">
   <stop id="stop260" style="stop-color:#fafafa" offset="0"/>
   <stop id="stop261" style="stop-color:#bbb" offset="1"/>
  </linearGradient>
  <linearGradient id="linearGradient6017" y2="47.273" gradientUnits="userSpaceOnUse" x2="24.139" gradientTransform="matrix(.53643 0 0 .53320 -15.688 50.169)" y1="-9.8009" x1="24.139">
   <stop id="stop4224" style="stop-color:#fff" offset="0"/>
   <stop id="stop4226" style="stop-color:#fff;stop-opacity:0" offset="1"/>
  </linearGradient>
  <linearGradient id="linearGradient6015" y2="32.485" gradientUnits="userSpaceOnUse" x2="24.104" gradientTransform="matrix(.89305 0 0 .88766 -24.247 42.161)" y1="15.169" x1="24.104">
   <stop id="stop2266" style="stop-color:#d7e866" offset="0"/>
   <stop id="stop2268" style="stop-color:#8cab2a" offset="1"/>
  </linearGradient>
 </defs>
 <g id="layer1">
  <g id="g2877" transform="matrix(1.2013 0 0 1.2013 -4.8309 -14.135)">
   <rect id="rect2879" style="opacity:.40206;fill:url(#linearGradient9561)" height="3.7339" width="34" y="44.266" x="7"/>
   <path id="path2881" style="opacity:.40206;fill:url(#radialGradient9563)" d="m7 44.266v3.7337c-1.2409 0.007-3-0.83652-3-1.8671 0-1.0305 1.3848-1.8666 3-1.8666z"/>
   <path id="path2883" style="opacity:.40206;fill:url(#radialGradient9565)" d="m41 44.266v3.7337c1.2409 0.007 3-0.83652 3-1.8671 0-1.0305-1.3848-1.8666-3-1.8666z"/>
  </g>
  <path id="path2208" style="opacity:.32955;color:black;fill-rule:evenodd;fill:url(#radialGradient2224)" d="m43.75 39.625a19.25 6.625 0 1 1 -38.5 0 19.25 6.625 0 1 1 38.5 0z" transform="matrix(1 0 0 .50943 -.5 17.439)"/>
  <g id="g6019" transform="translate(0,4)">
   <path id="rect1316" style="stroke-linejoin:round;fill-rule:evenodd;stroke:#888a85;fill:url(#linearGradient6023)" d="m8.9931 10.471c-1.9204 0-3.4931 1.599-3.4931 3.54v15.493h-3.4375c-0.30246 0-0.53125 0.25986-0.53125 0.5625v6.8705c0 0.30265 0.22879 0.5625 0.53125 0.5625h43.875c0.30246 0 0.5625-0.25985 0.5625-0.5625v-6.8705c0-0.30265-0.26004-0.5625-0.5625-0.5625h-4.4062v-14.548c-0.04201-1.9411-1.545-4.5152-3.4439-4.5152l-29.094 0.02971z"/>
   <path id="path1331" style="opacity:.6;stroke-linejoin:round;stroke:url(#linearGradient6025);stroke-linecap:round;fill:none" d="m8.8782 11.497c-1.1571 0-2.3632 0.96357-2.3632 2.5375l-0.059414 16.582-3.9176-0.06919 0.092597 5.9862h42.887l-0.11515-5.9268-4.9342-0.05983v-14.858c-0.041-1.81-1.239-4.161-3.057-4.161l-28.534-0.03z"/>
  </g>
  <g id="g5278" transform="translate(40.867 -25.532)">
   <path id="path2262" style="stroke-linejoin:round;fill-rule:evenodd;stroke:#42770c;fill:url(#linearGradient6015)" d="m-6.3336 60.032v-5.0014h6.9665v5.0014h5.0014v7h-5.0014v5h-6.9726l-0.027688-5h-4.9997v-7h5.0335z"/>
   <path id="path2272" style="opacity:.6;stroke:url(#linearGradient6017);fill:none" d="m-5.3671 61.032v-5h5.0014v5h4.9986v4.9259l-4.9986-0.01562v5.0897h-5.0014v-5h-5v-5h5z"/>
  </g>
 </g>
</svg>
