<?xml version="1.0" encoding="UTF-8" standalone="no"?>
<!-- Created with Inkscape (http://www.inkscape.org/) -->
<svg id="svg3027" xmlns:rdf="http://www.w3.org/1999/02/22-rdf-syntax-ns#" xmlns="http://www.w3.org/2000/svg" height="48px" width="48px" version="1.1" xmlns:cc="http://creativecommons.org/ns#" xmlns:xlink="http://www.w3.org/1999/xlink" xmlns:dc="http://purl.org/dc/elements/1.1/">
 <defs id="defs3029">
  <linearGradient id="linearGradient2865" y2="-.024518" xlink:href="#linearGradient3251" gradientUnits="userSpaceOnUse" x2="17.592" gradientTransform="matrix(2 0 0 2 -2 1.9989)" y1="7" x1="17.592"/>
  <linearGradient id="linearGradient3251">
   <stop id="stop3253" style="stop-color:#917f6e" offset="0"/>
   <stop id="stop3255" style="stop-color:#cbbaa9" offset="1"/>
  </linearGradient>
  <linearGradient id="linearGradient2979" y2="22.698" gradientUnits="userSpaceOnUse" x2="38.382" gradientTransform="matrix(2 0 0 2 -50 -4.0011)" y1="5.4849" x1="38.382">
   <stop id="stop4224-8" style="stop-color:#fff" offset="0"/>
   <stop id="stop4226-7" style="stop-color:#fff;stop-opacity:0" offset="1"/>
  </linearGradient>
  <linearGradient id="linearGradient2868" y2="7.0925" gradientUnits="userSpaceOnUse" x2="40.007" gradientTransform="matrix(1.6599 0 0 1.6599 -35.909 -1.1011)" y1="12.911" x1="40.007">
   <stop id="stop4224" style="stop-color:#fff" offset="0"/>
   <stop id="stop4226" style="stop-color:#fff;stop-opacity:0" offset="1"/>
  </linearGradient>
  <linearGradient id="linearGradient2874" y2="24.034" gradientUnits="userSpaceOnUse" x2="39.906" gradientTransform="matrix(2 0 0 2 -49.5 -4.5)" y1="6.123" x1="39.906">
   <stop id="stop3245" style="stop-color:#fff4e9" offset="0"/>
   <stop id="stop3247" style="stop-color:#e7d6c5" offset="1"/>
  </linearGradient>
  <linearGradient id="linearGradient2876" y2="5" xlink:href="#linearGradient3251" gradientUnits="userSpaceOnUse" x2="32.016" gradientTransform="matrix(2 0 0 2 -49.5 -4.5)" y1="24.011" x1="32.016"/>
  <radialGradient id="radialGradient3025" gradientUnits="userSpaceOnUse" cx="10.471" cy="20.147" r="9.2147" gradientTransform="matrix(1.9534 0 0 .65114 -2.4545 24.881)">
   <stop id="stop3285" offset="0"/>
   <stop id="stop3287" style="stop-opacity:0" offset="1"/>
  </radialGradient>
  <linearGradient id="linearGradient5530" y2="38.274" gradientUnits="userSpaceOnUse" x2="22.369" gradientTransform="matrix(.59882 0 0 .59520 23.605 21.219)" y1="8.0323" x1="22.369">
   <stop id="stop3945" style="stop-color:#fff" offset="0"/>
   <stop id="stop3947" style="stop-color:#fff;stop-opacity:0" offset="1"/>
  </linearGradient>
  <radialGradient id="radialGradient3419" gradientUnits="userSpaceOnUse" cx="69.448" cy="51.695" r="31" gradientTransform="matrix(0 .67924 -.73892 0 72.903 -19.49)">
   <stop id="stop3244-5" style="stop-color:#eef87e" offset="0"/>
   <stop id="stop3246-9" style="stop-color:#cde34f" offset=".26238"/>
   <stop id="stop3248-7" style="stop-color:#93b723" offset=".66094"/>
   <stop id="stop3250-8" style="stop-color:#5a7e0d" offset="1"/>
  </radialGradient>
  <linearGradient id="linearGradient3421" y2="52.809" gradientUnits="userSpaceOnUse" y1="123.19" gradientTransform="matrix(.28214 0 0 .28445 12.171 9.9582)" x2="72.422" x1="72.422">
   <stop id="stop2492-3" style="stop-color:#365f0e" offset="0"/>
   <stop id="stop2494-8" style="stop-color:#84a718" offset="1"/>
  </linearGradient>
 </defs>
 <metadata id="metadata3032">
  <rdf:RDF>
   <cc:Work rdf:about="">
    <dc:format>image/svg+xml</dc:format>
    <dc:type rdf:resource="http://purl.org/dc/dcmitype/StillImage"/>
    <dc:title/>
   </cc:Work>
  </rdf:RDF>
 </metadata>
 <g id="layer1">
  <path id="path3281" style="opacity:.3;fill-rule:evenodd;fill:url(#radialGradient3025)" d="m36 37.999a18 6 0 1 1 -36 0 18 6 0 1 1 36 0z"/>
  <path id="path2463" style="fill-rule:evenodd;stroke:url(#linearGradient2876);stroke-width:1px;fill:url(#linearGradient2874)" d="m22.5 6.5-19 19.688 16.5 16.312l19.5-19v-17h-17zm8 6c1.656 0 3 1.344 3 3s-1.344 3-3 3-3-1.344-3-3 1.344-3 3-3z"/>
  <path id="path3294" style="opacity:.6;stroke:url(#linearGradient2868);stroke-width:1px;fill:none" d="m30.489 11.504c2.512-0.08856 4.5832 2.5792 3.8682 4.9911-0.53091 2.3668-3.4452 3.7307-5.5982 2.6028-2.216-0.97884-2.9885-4.0952-1.4696-5.9878 0.73783-0.99843 1.9565-1.6157 3.1996-1.6061z"/>
  <path id="path2935" style="opacity:.6;stroke-width:1px;color:#000000;stroke:url(#linearGradient2979);fill:none" d="m22.938 7.4688c-6.021 6.2392-12.042 12.479-18.063 18.719 5.0417 4.979 10.083 9.958 15.125 14.937l18.531-18.063v-15.594h-15.594z"/>
  <path id="path3298" style="stroke:url(#linearGradient2865);stroke-width:1px;fill:none" d="m31 14.999c2.218-1.1744 5.108-1.5342 7.8537-1.5955 1.2343-0.02752 2.4819 0.2238 3.6931-0.06428 1.5415-0.36666 2.592-1.496 2.4383-2.5285-0.206-1.3863-2.068-2.4094-3.814-3.1416-1.549-0.6494-2.741-1.8067-3.371-3.0292-0.318-0.6176 0.238-1.2662 1.129-1.4653 0.80999-0.18087 1.6584-0.25237 2.4826-0.068712 1.2545 0.27952 2.7354 0.62054 3.3189 1.5093"/>
  <path id="path2262" style="stroke-linejoin:round;stroke-width:.98543;color:#000000;stroke:url(#linearGradient3421);stroke-linecap:round;fill:url(#radialGradient3419)" d="m33.5 31.5v-6.0274h7v6.0274h6.0073v7h-6.0073v6.0073h-7v-6.0073h-6.0073v-7h6.0073z"/>
  <path id="path2272" style="opacity:.4;stroke:url(#linearGradient5530);fill:none" d="m34.5 32.5v-6h5v6h6v5h-6v6h-5v-6h-6v-5h6z"/>
 </g>
</svg>
