<?xml version="1.0" encoding="UTF-8" standalone="no"?>
<!-- Created with Inkscape (http://www.inkscape.org/) -->
<svg id="svg3082" xmlns="http://www.w3.org/2000/svg" height="48" width="48" version="1.1" xmlns:xlink="http://www.w3.org/1999/xlink">
 <defs id="defs3084">
  <linearGradient id="linearGradient5060">
   <stop id="stop5062" offset="0"/>
   <stop id="stop5064" style="stop-opacity:0" offset="1"/>
  </linearGradient>
  <linearGradient id="linearGradient6388">
   <stop id="stop6390" style="stop-color:#73a300" offset="0"/>
   <stop id="stop6392" style="stop-color:#428300;stop-opacity:0" offset="1"/>
  </linearGradient>
  <linearGradient id="linearGradient4168">
   <stop id="stop4170" style="stop-color:#f8cd70" offset="0"/>
   <stop id="stop4172" style="stop-color:#cc9110" offset="1"/>
  </linearGradient>
  <linearGradient id="linearGradient6658" y2="609.51" gradientUnits="userSpaceOnUse" x2="302.86" gradientTransform="matrix(2.7744 0 0 1.9697 -1892.2 -872.89)" y1="366.65" x1="302.86">
   <stop id="stop5050" style="stop-opacity:0" offset="0"/>
   <stop id="stop5056" offset=".5"/>
   <stop id="stop5052" style="stop-opacity:0" offset="1"/>
  </linearGradient>
  <radialGradient id="radialGradient6660" xlink:href="#linearGradient5060" gradientUnits="userSpaceOnUse" cy="486.65" cx="605.71" gradientTransform="matrix(2.7744 0 0 1.9697 -1891.6 -872.89)" r="117.14"/>
  <radialGradient id="radialGradient6662" xlink:href="#linearGradient5060" gradientUnits="userSpaceOnUse" cy="486.65" cx="605.71" gradientTransform="matrix(-2.7744 0 0 1.9697 112.76 -872.89)" r="117.14"/>
  <linearGradient id="linearGradient5528" y2="29.933" xlink:href="#linearGradient6388" gradientUnits="userSpaceOnUse" x2="15.089" gradientTransform="matrix(-1,0,0,-1,26,67)" y1="37.25" x1="7.5"/>
  <linearGradient id="linearGradient5531" y2="29.786" xlink:href="#linearGradient6388" gradientUnits="userSpaceOnUse" x2="32.734" gradientTransform="matrix(-1,0,0,-1,70,67)" y1="37.5" x1="40.5"/>
  <linearGradient id="linearGradient5534" y2="23.156" xlink:href="#linearGradient6388" gradientUnits="userSpaceOnUse" x2="14.979" gradientTransform="matrix(-1 0 0 -1 26 39)" y1="15" x1="7.375"/>
  <linearGradient id="linearGradient5537" y2="22.964" xlink:href="#linearGradient6388" gradientUnits="userSpaceOnUse" x2="33" gradientTransform="matrix(-1,0,0,-1,70,39)" y1="15.125" x1="40.875"/>
  <radialGradient id="radialGradient5540" xlink:href="#linearGradient4168" gradientUnits="userSpaceOnUse" cy="9.9662" cx="40.128" gradientTransform="matrix(1.8725 .0000022105 -.0000022597 1.9142 -42.642 -9.5775)" r="1.0607"/>
  <radialGradient id="radialGradient5543" xlink:href="#linearGradient4168" gradientUnits="userSpaceOnUse" cy="9.9662" cx="40.128" gradientTransform="matrix(1.8725 .0000022597 -.0000022597 1.8725 -38.642 -9.1622)" r="1.0607"/>
  <radialGradient id="radialGradient5546" xlink:href="#linearGradient4168" gradientUnits="userSpaceOnUse" cy="9.9662" cx="40.128" gradientTransform="matrix(1.8725 -1.5978e-7 1.5267e-7 1.7892 -34.642 -8.3316)" r="1.0607"/>
  <linearGradient id="linearGradient5549" y2="40" gradientUnits="userSpaceOnUse" x2="24" y1="13" x1="24">
   <stop id="stop6459" style="stop-color:#fff;stop-opacity:.94118" offset="0"/>
   <stop id="stop6461" style="stop-color:#fff;stop-opacity:.70588" offset="1"/>
  </linearGradient>
  <linearGradient id="linearGradient5552" y2="15.044" gradientUnits="userSpaceOnUse" x2="16.075" gradientTransform="matrix(1.2581 0 0 1.1724 -7.4515 -4.6378)" y1="9.0735" x1="16.034">
   <stop id="stop3692" style="stop-color:#fff" offset="0"/>
   <stop id="stop3694" style="stop-color:#fff;stop-opacity:.46875" offset="1"/>
  </linearGradient>
  <linearGradient id="linearGradient5555" y2="39.924" gradientUnits="userSpaceOnUse" x2="21.78" gradientTransform="matrix(1.2424 0 0 1.1803 -7.0605 -5.1228)" y1="8.5763" x1="21.866">
   <stop id="stop2783" style="stop-color:#505050" offset="0"/>
   <stop id="stop6301" style="stop-color:#6e6e6e" offset=".13216"/>
   <stop id="stop2785" style="stop-color:#8c8c8c" offset="1"/>
  </linearGradient>
 </defs>
 <g id="g6304">
  <g id="g5022" style="opacity:.58730" transform="matrix(.021670 0 0 .012543 43.274 39.39)">
   <rect id="rect4173" style="opacity:.40206;fill:url(#linearGradient6658)" height="478.36" width="1339.6" y="-150.7" x="-1559.3"/>
   <path id="path5058" style="opacity:.40206;fill:url(#radialGradient6660)" d="m-219.62-150.68v478.33c142.87 0.90045 345.4-107.17 345.4-239.2s-159.44-239.13-345.4-239.13z"/>
   <path id="path5018" style="opacity:.40206;fill:url(#radialGradient6662)" d="m-1559.3-150.68v478.33c-142.87 0.90045-345.4-107.17-345.4-239.2s159.44-239.13 345.4-239.13z"/>
  </g>
  <rect id="rect1887" style="stroke:#565853;stroke-width:1.0001;fill:url(#linearGradient5555)" rx="2" ry="2" height="36" width="41" y="5.5001" x="3.5001"/>
  <rect id="rect2779" style="opacity:.2;stroke:url(#linearGradient5552);stroke-width:1.0001;fill:none" rx="1" ry="1" height="34" width="39" y="6.5001" x="4.5001"/>
  <rect id="rect6287" style="fill:url(#linearGradient5549)" rx="1" ry="1" height="27" width="38" y="13" x="5"/>
  <path id="path6289" style="fill:url(#radialGradient5546)" d="m42 9.5c0.000359 0.82868-0.67132 1.5007-1.5 1.5007s-1.5004-0.67197-1.5-1.5007c-0.000359-0.82868 0.67132-1.5007 1.5-1.5007s1.5004 0.67197 1.5 1.5007z"/>
  <path id="path6291" style="fill:url(#radialGradient5543)" d="m38 9.5c0.000359 0.82868-0.67132 1.5007-1.5 1.5007s-1.5004-0.67197-1.5-1.5007c-0.000359-0.82868 0.67132-1.5007 1.5-1.5007s1.5004 0.67197 1.5 1.5007z"/>
  <path id="path6293" style="fill:url(#radialGradient5540)" d="m34 9.5c0.000359 0.82868-0.67132 1.5007-1.5 1.5007s-1.5004-0.67197-1.5-1.5007c-0.000359-0.82868 0.67132-1.5007 1.5-1.5007s1.5004 0.67197 1.5 1.5007z"/>
  <path id="rect5590" style="fill:url(#linearGradient5537)" d="m35.071 23.586-1.414-1.414 4.95-4.95-2.829-2.829-4.95 4.95-1.414-1.414-1.414 7.071 7.071-1.414z"/>
  <path id="path6366" style="fill:url(#linearGradient5534)" d="m12.929 23.586 1.4142-1.4142-4.9497-4.9497 2.8284-2.8284 4.9497 4.9497 1.4142-1.4142l1.414 7.07-7.071-1.414z"/>
  <path id="path6368" style="fill:url(#linearGradient5531)" d="m35.071 29.414-1.4142 1.4142 4.9497 4.9497-2.8284 2.8284-4.9497-4.9497-1.4142 1.4142l-1.415-7.07 7.0711 1.4142z"/>
  <path id="path6370" style="fill:url(#linearGradient5528)" d="m12.929 29.414 1.4142 1.4142-4.9497 4.9497 2.8284 2.8284 4.9497-4.9497 1.4142 1.4142l1.414-7.07-7.071 1.414z"/>
 </g>
</svg>
