<?xml version="1.0" encoding="UTF-8" standalone="no"?>
<!-- Created with Inkscape (http://www.inkscape.org/) -->

<svg
   xmlns:dc="http://purl.org/dc/elements/1.1/"
   xmlns:cc="http://creativecommons.org/ns#"
   xmlns:rdf="http://www.w3.org/1999/02/22-rdf-syntax-ns#"
   xmlns:svg="http://www.w3.org/2000/svg"
   xmlns="http://www.w3.org/2000/svg"
   xmlns:xlink="http://www.w3.org/1999/xlink"
   version="1.1"
   width="48"
   height="48"
   id="svg2474">
  <metadata
     id="metadata33">
    <rdf:RDF>
      <cc:Work
         rdf:about="">
        <dc:format>image/svg+xml</dc:format>
        <dc:type
           rdf:resource="http://purl.org/dc/dcmitype/StillImage" />
        <dc:title></dc:title>
      </cc:Work>
    </rdf:RDF>
  </metadata>
  <defs
     id="defs2476">
    <linearGradient
       id="linearGradient3533">
      <stop
         id="stop3535"
         style="stop-color:#93b9dd;stop-opacity:1"
         offset="0" />
      <stop
         id="stop3545"
         style="stop-color:#6396cd;stop-opacity:1"
         offset="1" />
    </linearGradient>
    <linearGradient
       id="linearGradient3266">
      <stop
         id="stop3268"
         style="stop-color:#387ab8;stop-opacity:1"
         offset="0" />
      <stop
         id="stop3270"
         style="stop-color:#387ab8;stop-opacity:0"
         offset="1" />
    </linearGradient>
    <linearGradient
       id="linearGradient3276">
      <stop
         id="stop3278"
         style="stop-color:#6396cd;stop-opacity:1"
         offset="0" />
      <stop
         id="stop3280"
         style="stop-color:#83acd5;stop-opacity:0"
         offset="1" />
    </linearGradient>
    <linearGradient
       x1="108.5625"
       y1="102.78125"
       x2="108.5625"
       y2="71.78125"
       id="linearGradient5497"
       xlink:href="#linearGradient5491"
       gradientUnits="userSpaceOnUse"
       gradientTransform="translate(-95.99949,-49.00038)" />
    <linearGradient
       id="linearGradient5491">
      <stop
         id="stop5493"
         style="stop-color:#ffffff;stop-opacity:1"
         offset="0" />
      <stop
         id="stop5495"
         style="stop-color:#ffffff;stop-opacity:0"
         offset="1" />
    </linearGradient>
    <linearGradient
       x1="102.5625"
       y1="49.78125"
       x2="103.5625"
       y2="72.78125"
       id="linearGradient5480"
       xlink:href="#linearGradient5474"
       gradientUnits="userSpaceOnUse"
       gradientTransform="translate(-95.99949,-49.00038)" />
    <linearGradient
       id="linearGradient5474">
      <stop
         id="stop5476"
         style="stop-color:#ffffff;stop-opacity:1"
         offset="0" />
      <stop
         id="stop5478"
         style="stop-color:#ffffff;stop-opacity:0"
         offset="1" />
    </linearGradient>
    <linearGradient
       x1="118.47968"
       y1="55.060318"
       x2="118.47968"
       y2="91.941895"
       id="linearGradient4593-5-8-1-5-2"
       xlink:href="#linearGradient3533"
       gradientUnits="userSpaceOnUse"
       gradientTransform="translate(-100.99949,-49.00038)" />
    <linearGradient
       x1="34.980953"
       y1="53.837799"
       x2="35.996098"
       y2="83.57618"
       id="linearGradient4593-5-8-1-5-2-3"
       xlink:href="#linearGradient3533"
       gradientUnits="userSpaceOnUse"
       gradientTransform="translate(-5,0)" />
    <radialGradient
       cx="33.875"
       cy="197.29688"
       r="4.84375"
       fx="33.875"
       fy="197.29688"
       id="radialGradient5147-5"
       xlink:href="#linearGradient6462-6-8-548-9-2-7"
       gradientUnits="userSpaceOnUse"
       gradientTransform="matrix(1,0,0,0.33870968,0,130.47051)" />
    <linearGradient
       id="linearGradient6462-6-8-548-9-2-7">
      <stop
         id="stop6464-5-9-94-5-4-4"
         style="stop-color:#000000;stop-opacity:1"
         offset="0" />
      <stop
         id="stop6466-3-6-1-7-2-8"
         style="stop-color:#000000;stop-opacity:0"
         offset="1" />
    </linearGradient>
    <linearGradient
       id="linearGradient6462-6-8-548-9-5">
      <stop
         id="stop6464-5-9-94-5-8"
         style="stop-color:#000000;stop-opacity:1"
         offset="0" />
      <stop
         id="stop6466-3-6-1-7-5"
         style="stop-color:#000000;stop-opacity:0"
         offset="1" />
    </linearGradient>
    <radialGradient
       cx="33.875"
       cy="197.29688"
       r="4.84375"
       fx="33.875"
       fy="197.29688"
       id="radialGradient6081"
       xlink:href="#linearGradient6462-6-8-548-9-5"
       gradientUnits="userSpaceOnUse"
       gradientTransform="matrix(1,0,0,0.33870968,0,130.47051)" />
    <linearGradient
       x1="42.030777"
       y1="84.719109"
       x2="53.808601"
       y2="73.263672"
       id="linearGradient4008"
       xlink:href="#linearGradient3276"
       gradientUnits="userSpaceOnUse"
       gradientTransform="translate(-5,0)" />
    <linearGradient
       x1="39.843277"
       y1="83.781609"
       x2="50.683601"
       y2="75.138672"
       id="linearGradient4018"
       xlink:href="#linearGradient3266"
       gradientUnits="userSpaceOnUse" />
  </defs>
  <path
     d="m 38.71875,197.29687 a 4.84375,1.640625 0 1 1 -9.6875,0 4.84375,1.640625 0 1 1 9.6875,0 z"
     transform="matrix(3.3032251,0,0,1.6761866,-89.458749,-288.73764)"
     id="path6460-6-4-4-3-3"
     style="opacity:0.2;color:#000000;fill:url(#radialGradient5147-5);fill-opacity:1;fill-rule:nonzero;stroke:none;stroke-width:3;marker:none;visibility:visible;display:inline;overflow:visible;enable-background:new" />
  <path
     d="M 46.405989,78.610714 A 13.125,13.125 0 0 1 33.62701,84.097034"
     transform="matrix(1.0666665,0,0,1.0666665,-14.49949,-51.367037)"
     id="path4010"
     style="color:#000000;fill:none;stroke:url(#linearGradient4018);stroke-width:8.43750095;stroke-linecap:round;stroke-linejoin:miter;stroke-miterlimit:4;stroke-opacity:1;stroke-dasharray:none;stroke-dashoffset:0;marker:none;visibility:visible;display:inline;overflow:visible;enable-background:new" />
  <path
     d="m 38.71875,197.29687 a 4.84375,1.640625 0 1 1 -9.6875,0 4.84375,1.640625 0 1 1 9.6875,0 z"
     transform="matrix(4.541935,0,0,1.9809503,-131.42005,-348.86656)"
     id="path6460-6-4-4-4"
     style="opacity:0.1;color:#000000;fill:url(#radialGradient6081);fill-opacity:1;fill-rule:nonzero;stroke:none;stroke-width:3;marker:none;visibility:visible;display:inline;overflow:visible;enable-background:new" />
  <path
     d="M 35.542313,84.24974 A 13.125,13.125 0 1 1 47.171703,64.884866"
     transform="matrix(1.0666665,0,0,1.0666665,-14.49949,-51.367037)"
     id="path4788-6"
     style="color:#000000;fill:none;stroke:#387ab8;stroke-width:8.43750095;stroke-linecap:round;stroke-linejoin:miter;stroke-miterlimit:4;stroke-opacity:1;stroke-dasharray:none;stroke-dashoffset:0;marker:none;visibility:visible;display:inline;overflow:visible;enable-background:new" />
  <path
     d="m 38.50051,9.4996196 0,11.0000004 -11,0"
     id="path4847"
     style="color:#000000;fill:none;stroke:#387ab8;stroke-width:7;stroke-linecap:round;stroke-linejoin:round;stroke-miterlimit:4;stroke-opacity:1;stroke-dasharray:none;stroke-dashoffset:0;marker:none;visibility:visible;display:inline;overflow:visible;enable-background:new" />
  <path
     d="m 46.386659,78.638476 a 13.125,13.125 0 0 1 -13.412517,5.34104"
     transform="matrix(1.0666665,0,0,1.0666665,-14.49949,-51.367037)"
     id="path4006"
     style="color:#000000;fill:none;stroke:url(#linearGradient4008);stroke-width:6.56250095;stroke-linecap:round;stroke-linejoin:miter;stroke-miterlimit:4;stroke-opacity:1;stroke-dasharray:none;stroke-dashoffset:0;marker:none;visibility:visible;display:inline;overflow:visible;enable-background:new" />
  <path
     d="m 37.320778,84.13999 a 13.125,13.125 0 1 1 9.33779,-20.123155"
     transform="matrix(1.0666665,0,0,1.0666665,-14.49949,-51.367037)"
     id="path4788"
     style="color:#000000;fill:none;stroke:url(#linearGradient4593-5-8-1-5-2-3);stroke-width:6.56250095;stroke-linecap:round;stroke-linejoin:miter;stroke-miterlimit:4;stroke-opacity:1;stroke-dasharray:none;stroke-dashoffset:0;marker:none;visibility:visible;display:inline;overflow:visible;enable-background:new" />
  <path
     d="m 38.50051,9.4996196 0,11.0000004 -11,0"
     id="path4847-1"
     style="color:#000000;fill:none;stroke:url(#linearGradient4593-5-8-1-5-2);stroke-width:5;stroke-linecap:round;stroke-linejoin:round;stroke-miterlimit:4;stroke-opacity:1;stroke-dasharray:none;stroke-dashoffset:0;marker:none;visibility:visible;display:inline;overflow:visible;enable-background:new" />
  <path
     d="m 29.740794,33.593555 c -3.674085,2.533277 -8.663315,2.652831 -12.552784,-0.06269 -5.010358,-3.498088 -6.216831,-10.333397 -2.718751,-15.34375 3.498091,-5.010353 10.3334,-6.216833 15.343751,-2.71875 1.16116,0.810688 2.10377,1.843969 2.875,3.03125 l -5.1875,0 c -1.056625,-0.01494 -2.028484,0.943269 -2.028484,2 0,1.056731 0.971859,2.014943 2.028484,2 l 11,0 c 1.062499,0.28125 2.062499,-0.71875 2,-2 l 0,-11.0000004 c 0.01671,-1.0680358 -0.963214,-2.0479629 -2.03125,-2.0312505 -0.06245,-0.00293 -0.125046,-0.00293 -0.1875,0 -0.982752,0.107995 -1.802514,1.0428108 -1.78125,2.0312505 l 0,4.0625004 c -0.9534,-1.127853 -2.06667,-2.152011 -3.28125,-3 l -0.09375,-0.0625 c -2.85203,-1.9610889 -6.0733,-2.9220479 -9.312501,-2.9687509 -5.46224,-0.07875 -10.90353,2.4568065 -14.2500005,7.2500009 -5.354351,7.669111 -3.450361,18.3019 4.2187505,23.65625 6.255407,4.367344 14.482569,3.905673 20.208772,-0.574695"
     id="path4788-2"
     style="font-size:medium;font-style:normal;font-variant:normal;font-weight:normal;font-stretch:normal;text-indent:0;text-align:start;text-decoration:none;line-height:normal;letter-spacing:normal;word-spacing:normal;text-transform:none;direction:ltr;block-progression:tb;writing-mode:lr-tb;text-anchor:start;opacity:0.23999999;color:#000000;fill:none;stroke:#ffffff;stroke-width:1;stroke-miterlimit:4;stroke-dasharray:none;marker:none;visibility:visible;display:inline;overflow:visible;enable-background:new;font-family:Bitstream Vera Sans;-inkscape-font-specification:Bitstream Vera Sans" />
  <path
     d="m 36.50052,13.562118 c -0.9534,-1.127853 -2.06667,-2.152011 -3.28125,-3 l -0.0937,-0.0625 c -2.85203,-1.9610889 -6.0733,-2.9220479 -9.312501,-2.9687509 -5.46224,-0.07875 -10.90354,2.4568065 -14.2500105,7.2500009 -5.354351,7.669111 -3.450361,18.3019 4.2187505,23.65625"
     id="path4788-2-3"
     style="font-size:medium;font-style:normal;font-variant:normal;font-weight:normal;font-stretch:normal;text-indent:0;text-align:start;text-decoration:none;line-height:normal;letter-spacing:normal;word-spacing:normal;text-transform:none;direction:ltr;block-progression:tb;writing-mode:lr-tb;text-anchor:start;opacity:0.3;color:#000000;fill:none;stroke:url(#linearGradient5480);stroke-width:1;stroke-miterlimit:4;stroke-dasharray:none;marker:none;visibility:visible;display:inline;overflow:visible;enable-background:new;font-family:Bitstream Vera Sans;-inkscape-font-specification:Bitstream Vera Sans" />
  <path
     d="M 32.53183,30.81212 C 29.03374,35.822473 22.198429,37.028952 17.18808,33.53087 12.177699,30.032787 10.971229,23.197473 14.469309,18.18712 17.96742,13.176767 24.802729,11.970287 29.81308,15.46837"
     id="path4788-2-3-4"
     style="font-size:medium;font-style:normal;font-variant:normal;font-weight:normal;font-stretch:normal;text-indent:0;text-align:start;text-decoration:none;line-height:normal;letter-spacing:normal;word-spacing:normal;text-transform:none;direction:ltr;block-progression:tb;writing-mode:lr-tb;text-anchor:start;opacity:0.3;color:#000000;fill:none;stroke:url(#linearGradient5497);stroke-width:1;stroke-linecap:round;stroke-miterlimit:4;stroke-dasharray:none;marker:none;visibility:visible;display:inline;overflow:visible;enable-background:new;font-family:Bitstream Vera Sans;-inkscape-font-specification:Bitstream Vera Sans" />
</svg>
