<?xml version="1.0" encoding="UTF-8" standalone="no"?>
<!-- Created with Inkscape (http://www.inkscape.org/) -->
<svg id="svg3082" xmlns="http://www.w3.org/2000/svg" height="48" width="48" version="1.1" xmlns:xlink="http://www.w3.org/1999/xlink">
 <defs id="defs3084">
  <radialGradient id="radialGradient3847" xlink:href="#linearGradient5060" gradientUnits="userSpaceOnUse" cy="486.65" cx="605.71" gradientTransform="matrix(-2.7744 0 0 1.9697 112.76 -872.89)" r="117.14"/>
  <linearGradient id="linearGradient5060">
   <stop id="stop5062" offset="0"/>
   <stop id="stop5064" style="stop-opacity:0" offset="1"/>
  </linearGradient>
  <radialGradient id="radialGradient3845" xlink:href="#linearGradient5060" gradientUnits="userSpaceOnUse" cy="486.65" cx="605.71" gradientTransform="matrix(2.7744 0 0 1.9697 -1891.6 -872.89)" r="117.14"/>
  <linearGradient id="linearGradient3843" y2="609.51" gradientUnits="userSpaceOnUse" x2="302.86" gradientTransform="matrix(2.7744 0 0 1.9697 -1892.2 -872.89)" y1="366.65" x1="302.86">
   <stop id="stop5050" style="stop-opacity:0" offset="0"/>
   <stop id="stop5056" offset=".5"/>
   <stop id="stop5052" style="stop-opacity:0" offset="1"/>
  </linearGradient>
  <linearGradient id="linearGradient2787" y2="39.924" gradientUnits="userSpaceOnUse" x2="21.78" gradientTransform="matrix(1.2424 0 0 1.1803 -7.0605 -5.1228)" y1="8.5763" x1="21.866">
   <stop id="stop2783" style="stop-color:#505050" offset="0"/>
   <stop id="stop6301" style="stop-color:#6e6e6e" offset=".13216"/>
   <stop id="stop2785" style="stop-color:#8c8c8c" offset="1"/>
  </linearGradient>
  <linearGradient id="linearGradient3696" y2="15.044" gradientUnits="userSpaceOnUse" x2="16.075" gradientTransform="matrix(1.2581 0 0 1.1724 -7.4515 -4.6378)" y1="9.0735" x1="16.034">
   <stop id="stop3692" style="stop-color:#fff" offset="0"/>
   <stop id="stop3694" style="stop-color:#fff;stop-opacity:.46875" offset="1"/>
  </linearGradient>
  <linearGradient id="linearGradient5220" y2="47.273" gradientUnits="userSpaceOnUse" x2="24.139" gradientTransform="matrix(.53643 0 0 .53320 -15.688 50.169)" y1="-9.8009" x1="24.139">
   <stop id="stop4224" style="stop-color:#fff" offset="0"/>
   <stop id="stop4226" style="stop-color:#fff;stop-opacity:0" offset="1"/>
  </linearGradient>
  <linearGradient id="linearGradient5218" y2="32.485" gradientUnits="userSpaceOnUse" x2="24.104" gradientTransform="matrix(.89305 0 0 .88766 -24.247 42.161)" y1="15.169" x1="24.104">
   <stop id="stop2266" style="stop-color:#d7e866" offset="0"/>
   <stop id="stop2268" style="stop-color:#8cab2a" offset="1"/>
  </linearGradient>
  <linearGradient id="linearGradient4168">
   <stop id="stop4170" style="stop-color:#f8cd70" offset="0"/>
   <stop id="stop4172" style="stop-color:#cc9110" offset="1"/>
  </linearGradient>
  <radialGradient id="radialGradient6431" xlink:href="#linearGradient4168" gradientUnits="userSpaceOnUse" cy="9.9662" cx="40.128" gradientTransform="matrix(1.3241 .0000015235 -.0000015979 1.3193 -13.005 -3.1823)" r="1.0607"/>
  <radialGradient id="radialGradient6439" xlink:href="#linearGradient4168" gradientUnits="userSpaceOnUse" cy="9.9662" cx="40.128" gradientTransform="matrix(1.3241 .0000015574 -.0000015979 1.2906 -13.005 -2.8961)" r="1.0607"/>
  <radialGradient id="radialGradient6447" xlink:href="#linearGradient4168" gradientUnits="userSpaceOnUse" cy="9.9662" cx="40.128" gradientTransform="matrix(1.3241 -1.1012e-7 1.0795e-7 1.2332 -13.005 -2.3237)" r="1.0607"/>
  <linearGradient id="linearGradient6463" y2="40" gradientUnits="userSpaceOnUse" x2="24" y1="13" x1="24">
   <stop id="stop6459" style="stop-color:#fff;stop-opacity:.94118" offset="0"/>
   <stop id="stop6461" style="stop-color:#fff;stop-opacity:.70588" offset="1"/>
  </linearGradient>
 </defs>
 <g id="layer1">
  <g id="g5526">
   <g id="g5022" style="opacity:.58730" transform="matrix(.021670 0 0 .012543 43.274 39.39)">
    <rect id="rect4173" style="opacity:.40206;fill:url(#linearGradient3843)" height="478.36" width="1339.6" y="-150.7" x="-1559.3"/>
    <path id="path5058" style="opacity:.40206;fill:url(#radialGradient3845)" d="m-219.62-150.68v478.33c142.87 0.90045 345.4-107.17 345.4-239.2s-159.44-239.13-345.4-239.13z"/>
    <path id="path5018" style="opacity:.40206;fill:url(#radialGradient3847)" d="m-1559.3-150.68v478.33c-142.87 0.90045-345.4-107.17-345.4-239.2s159.44-239.13 345.4-239.13z"/>
   </g>
   <rect id="rect1887" style="stroke:#565853;stroke-width:1.0001;fill:url(#linearGradient2787)" rx="2" ry="2" height="36" width="41" y="5.5001" x="3.5001"/>
   <rect id="rect2779" style="opacity:.2;stroke:url(#linearGradient3696);stroke-width:1.0001;fill:none" rx="1" ry="1" height="34" width="39" y="6.5001" x="4.5001"/>
   <rect id="rect6287" style="fill:url(#linearGradient6463)" rx="1" ry="1" height="27" width="38" y="13" x="5"/>
   <g id="g5278" transform="translate(40.867 -25.532)">
    <path id="path2262" style="stroke-linejoin:round;fill-rule:evenodd;stroke:#42770c;fill:url(#linearGradient5218)" d="m-6.3336 60.032v-5.0014h6.9665v5.0014h5.0014v7h-5.0014v5h-6.9726l-0.027688-5h-4.9997v-7h5.0335z"/>
    <path id="path2272" style="opacity:.6;stroke:url(#linearGradient5220);fill:none" d="m-5.3671 61.032v-5h5.0014v5h4.9986v4.9259l-4.9986-0.01562v5.0897h-5.0014v-5h-5v-5h5z"/>
   </g>
   <path id="path6289" style="fill:url(#radialGradient6447)" d="m41.189 9.9662a1.0607 1.0338 0 1 1 -2.1213 0 1.0607 1.0338 0 1 1 2.1213 0z" transform="matrix(1.4142 0 0 1.4509 -16.25 -4.9601)"/>
   <path id="path6291" style="fill:url(#radialGradient6439)" d="m41.189 9.9662a1.0607 1.0338 0 1 1 -2.1213 0 1.0607 1.0338 0 1 1 2.1213 0z" transform="matrix(1.4142 0 0 1.4509 -20.25 -4.9601)"/>
   <path id="path6293" style="fill:url(#radialGradient6431)" d="m41.189 9.9662a1.0607 1.0338 0 1 1 -2.1213 0 1.0607 1.0338 0 1 1 2.1213 0z" transform="matrix(1.4142 0 0 1.4509 -24.25 -4.9601)"/>
  </g>
 </g>
</svg>
