<?xml version="1.0" encoding="UTF-8" standalone="no"?>
<!-- Created with Inkscape (http://www.inkscape.org/) -->
<svg id="svg4135" xmlns="http://www.w3.org/2000/svg" height="16" width="16" version="1.1" xmlns:xlink="http://www.w3.org/1999/xlink">
 <defs id="defs4137">
  <linearGradient id="linearGradient9796" y2="185.24" gradientUnits="userSpaceOnUse" x2="321" gradientTransform="matrix(.75 0 0 .77778 75.125 78.667)" y1="169" x1="318.06">
   <stop id="stop9730" style="stop-color:#babdb6" offset="0"/>
   <stop id="stop9732" style="stop-color:#555753" offset="1"/>
  </linearGradient>
  <linearGradient id="linearGradient9860" y2="174.98" gradientUnits="userSpaceOnUse" x2="311.14" gradientTransform="matrix(.73333 0 0 .8 79.6 75.8)" y1="182.35" x1="313.5">
   <stop id="stop9304" style="stop-color:#fff" offset="0"/>
   <stop id="stop9306" style="stop-color:#eeeeec" offset="1"/>
  </linearGradient>
  <linearGradient id="linearGradient9858" y2="226.2" gradientUnits="userSpaceOnUse" x2="304.54" y1="218.95" x1="304.54">
   <stop id="stop9854" style="stop-color:#fff" offset="0"/>
   <stop id="stop9856" style="stop-color:#fff;stop-opacity:0" offset="1"/>
  </linearGradient>
  <linearGradient id="linearGradient4300" y2="171.16" gradientUnits="userSpaceOnUse" x2="308.43" gradientTransform="matrix(1 0 0 .75 0 41.875)" y1="169.16" x1="308.43">
   <stop id="stop9392" style="stop-color:#d3d7cf" offset="0"/>
   <stop id="stop9394" style="stop-color:#eeeeec" offset="1"/>
  </linearGradient>
  <linearGradient id="linearGradient4302" y2="167.34" gradientUnits="userSpaceOnUse" x2="309.56" gradientTransform="matrix(1 0 0 .75 0 41.875)" y1="171.28" x1="309.56">
   <stop id="stop9608" style="stop-color:#555753" offset="0"/>
   <stop id="stop9610" style="stop-color:#d3d7cf" offset=".66795"/>
   <stop id="stop9612" style="stop-color:#888a85" offset="1"/>
  </linearGradient>
 </defs>
 <g id="layer1">
  <g id="g9840" style="enable-background:new" transform="translate(-302,-209)">
   <rect id="rect9736" style="stroke:url(#linearGradient9796);enable-background:new;fill:#babdb6" rx=".79167" ry=".79167" height="14" width="12" y="210.5" x="303.5"/>
   <rect id="rect9738" style="enable-background:new;fill:url(#linearGradient9860)" rx="0" ry="0" height="12" width="11" y="211" x="304"/>
   <rect id="rect9740" style="enable-background:new;fill:#2e3436" rx="0" ry="0" height="1" width="13" y="224" x="303"/>
   <rect id="rect9742" style="opacity:.5;stroke:url(#linearGradient9858);enable-background:new;fill:none" rx="0" ry="0" height="12" width="10" y="211.5" x="304.5"/>
   <path id="path9862" style="opacity:.1;enable-background:new" d="m306.5 211c-0.828 0-1.5 0.672-1.5 1.5s0.67201 1.5 1.5 1.5c0.38234 0 0.73499-0.13923 1-0.375 0.26501 0.23577 0.61766 0.375 1 0.375s0.73499-0.13923 1-0.375c0.26501 0.23577 0.61766 0.375 1 0.375s0.73499-0.13923 1-0.375c0.26501 0.23577 0.61766 0.375 1 0.375 0.828 0 1.5-0.672 1.5-1.5s-0.67199-1.5-1.5-1.5c-0.38234 0-0.73499 0.13923-1 0.375-0.26501-0.23577-0.61766-0.375-1-0.375s-0.73499 0.13923-1 0.375c-0.26501-0.23577-0.61766-0.375-1-0.375s-0.73499 0.13923-1 0.375c-0.26501-0.23577-0.61766-0.375-1-0.375z"/>
   <g id="g9746" style="enable-background:new" transform="translate(-2,42)">
    <rect id="rect9748" style="stroke-linejoin:round;stroke:url(#linearGradient4302);fill:url(#linearGradient4300)" rx="1" ry="1" height="3" width="2" y="167.5" x="307.5"/>
    <rect id="rect9750" style="fill:#fff" rx="1.5926" ry="1.3438" height="1.3438" width="1.3438" y="167.69" x="307.5"/>
   </g>
   <use id="use9834" xlink:href="#g9746" transform="translate(2)" height="300" width="400" y="0" x="0"/>
   <use id="use9836" style="enable-background:new" xlink:href="#g9746" transform="translate(4)" height="300" width="400" y="0" x="0"/>
   <use id="use9838" style="enable-background:new" xlink:href="#g9746" transform="translate(6)" height="300" width="400" y="0" x="0"/>
  </g>
  <g id="g9871" style="enable-background:new" transform="translate(-302,-209)">
   <rect id="rect9762" style="opacity:0.48;enable-background:new;fill:#888a85" rx="0" ry="0" height="1" width="1" y="215" x="306"/>
   <rect id="rect9764" style="opacity:0.48;enable-background:new;fill:#888a85" rx="0" ry="0" height="1" width="4" y="215" x="308"/>
   <rect id="rect9766" style="opacity:0.48;enable-background:new;fill:#888a85" rx="0" ry="0" height="1" width="4" y="221" x="308"/>
   <rect id="rect9770" style="opacity:0.48;enable-background:new;fill:#888a85" rx="0" ry="0" height="1" width="1" y="217" x="306"/>
   <rect id="rect9772" style="opacity:0.48;enable-background:new;fill:#888a85" rx="0" ry="0" height="1" width="4" y="217" x="308"/>
   <rect id="rect9776" style="opacity:0.48;enable-background:new;fill:#888a85" rx="0" ry="0" height="1" width="1" y="219" x="306"/>
   <rect id="rect9780" style="opacity:0.48;enable-background:new;fill:#888a85" rx="0" ry="0" height="1.0002" width="5.0001" y="219" x="308"/>
   <rect id="rect9784" style="opacity:0.48;enable-background:new;fill:#888a85" rx="0" ry="0" height="1" width="1" y="221" x="306"/>
  </g>
 </g>
</svg>
