<svg id="emoji" viewBox="0 0 72 72" xmlns="http://www.w3.org/2000/svg">
  <g id="color">
    <polygon fill="#ea5a47" stroke="none" points="22,27 50,27 47,60 25,60"/>
    <path fill="#fcea2b" stroke="none" d="M50.6719,27.2432l2.8594-1.5469l-0.5284-0.8711C54.167,24.4131,55.001,23.3037,55,21.999 c-0.001-1.4336-1.0107-2.6308-2.3574-2.9258c0.5947-1.1328,0.4306-2.5586-0.5205-3.5078 c-0.8487-0.8496-2.0791-1.0732-3.1397-0.6914c-0.0849-0.9385-0.6035-1.8232-1.4804-2.3291c-0.7989-0.4609-1.7178-0.5-2.5225-0.207 c-0.0859-1.2432-0.9326-2.3516-2.2002-2.6904c-0.9639-0.2588-1.9395-0.0098-2.6602,0.5732C39.7725,10.0811,39.3965,10,39,10 c-0.2432,0-0.4766,0.0371-0.7031,0.0918C37.7461,9.4297,36.9277,9,36,9c-0.9277,0-1.7471,0.4297-2.2969,1.0918 C33.4766,10.0371,33.2432,10,33,10c-0.3955,0-0.7705,0.0811-1.1162,0.2197c-0.7207-0.582-1.6963-0.831-2.6592-0.5722 c-1.4824,0.3974-2.3916,1.8388-2.1797,3.3213c-0.9385-0.8829-2.3711-1.1006-3.5439-0.4239 c-0.8203,0.4737-1.3194,1.2774-1.4531,2.1465c-0.7842-0.0137-1.5713,0.2754-2.169,0.8731 c-0.9512,0.9511-1.1172,2.3779-0.5244,3.5087C18.0088,19.3701,17,20.5654,17.001,21.999c0.001,1.3106,0.8408,2.4239,2.0127,2.833 l-0.2949,0.9424l3.0937,1.9375"/>
  </g>
  <g id="hair"/>
  <g id="skin"/>
  <g id="skin-shadow"/>
  <g id="line">
    <path fill="none" stroke="#000000" stroke-linecap="round" stroke-linejoin="round" stroke-miterlimit="10" stroke-width="2" d="M53.0029,24.8252C54.167,24.4131,55.001,23.3037,55,21.999c-0.001-1.4336-1.0107-2.6308-2.3574-2.9258 c0.5947-1.1328,0.4306-2.5586-0.5205-3.5078c-0.8487-0.8496-2.0791-1.0732-3.1397-0.6914 c-0.0849-0.9385-0.6035-1.8232-1.4804-2.3291c-0.7989-0.4609-1.7178-0.5-2.5225-0.207c-0.0859-1.2432-0.9326-2.3516-2.2002-2.6904 c-0.9639-0.2588-1.9395-0.0098-2.6602,0.5732C39.7725,10.0811,39.3965,10,39,10c-0.2432,0-0.4766,0.0371-0.7031,0.0918 C37.7461,9.4297,36.9277,9,36,9c-0.9277,0-1.7471,0.4297-2.2969,1.0918C33.4766,10.0371,33.2432,10,33,10 c-0.3955,0-0.7705,0.0811-1.1162,0.2197c-0.7207-0.582-1.6963-0.831-2.6592-0.5722c-1.4824,0.3974-2.3916,1.8388-2.1797,3.3213 c-0.9385-0.8829-2.3711-1.1006-3.5439-0.4239c-0.8203,0.4737-1.3194,1.2774-1.4531,2.1465 c-0.7842-0.0137-1.5713,0.2754-2.169,0.8731c-0.9512,0.9511-1.1172,2.3779-0.5244,3.5087C18.0088,19.3701,17,20.5654,17.001,21.999 c0.001,1.3106,0.8408,2.4239,2.0127,2.833"/>
    <polygon fill="none" stroke="#000000" stroke-linecap="round" stroke-linejoin="round" stroke-miterlimit="10" stroke-width="2" points="22,27 50,27 47,60 25,60"/>
    <path fill="none" stroke="#000000" stroke-linecap="round" stroke-linejoin="round" stroke-miterlimit="10" stroke-width="2" d="M26,21c0-1.6572,1.3438-3,3-3"/>
    <path fill="none" stroke="#000000" stroke-linecap="round" stroke-linejoin="round" stroke-miterlimit="10" stroke-width="2" d="M34,18c0-1.6572,1.3428-3,3-3"/>
  </g>
</svg>
