<svg id="emoji" viewBox="0 0 72 72" xmlns="http://www.w3.org/2000/svg">
  <g id="color">
    <polygon fill="#fcea2b" stroke="none" stroke-linecap="round" stroke-linejoin="round" stroke-miterlimit="10" stroke-width="2" points="36,27.7371 41.2478,43.888 58.2299,43.888 44.4911,53.8699 49.7388,70.0208 36,60.039 22.2612,70.0208 27.5089,53.8699 13.7701,43.888 30.7522,43.888"/>
    <polygon fill="#ea5a47" stroke="none" stroke-linecap="round" stroke-linejoin="round" stroke-miterlimit="10" stroke-width="2" points="56,8.9792 56,2.0208 16,2.0208 16,8.9792 36,23.737"/>
  </g>
  <g id="hair"/>
  <g id="skin"/>
  <g id="skin-shadow"/>
  <g id="line">
    <polygon fill="none" stroke="#000000" stroke-linecap="round" stroke-linejoin="round" stroke-miterlimit="10" stroke-width="2" points="36,27.7371 41.2478,43.888 58.2299,43.888 44.4911,53.8699 49.7388,70.0208 36,60.039 22.2612,70.0208 27.5089,53.8699 13.7701,43.888 30.7522,43.888"/>
    <line x1="36" x2="36" y1="19.0643" y2="2.0208" fill="none" stroke="#000000" stroke-linecap="round" stroke-linejoin="round" stroke-miterlimit="10" stroke-width="2"/>
    <polygon fill="none" stroke="#000000" stroke-linecap="round" stroke-linejoin="round" stroke-miterlimit="10" stroke-width="2" points="56,8.9792 56,2.0208 16,2.0208 16,8.9792 36,23.737"/>
    <polygon fill="none" stroke="#000000" stroke-linecap="round" stroke-linejoin="round" stroke-miterlimit="10" stroke-width="2" points="36,27.7371 41.2478,43.888 58.2299,43.888 44.4911,53.8699 49.7388,70.0208 36,60.039 22.2612,70.0208 27.5089,53.8699 13.7701,43.888 30.7522,43.888"/>
    <line x1="36" x2="36" y1="19.0643" y2="2.0208" fill="none" stroke="#000000" stroke-linecap="round" stroke-linejoin="round" stroke-miterlimit="10" stroke-width="2"/>
    <polygon fill="none" stroke="#000000" stroke-linecap="round" stroke-linejoin="round" stroke-miterlimit="10" stroke-width="2" points="56,8.9792 56,2.0208 16,2.0208 16,8.9792 36,23.737"/>
  </g>
</svg>
