<svg id="emoji" viewBox="0 0 72 72" xmlns="http://www.w3.org/2000/svg">
  <g id="color">
    <path fill="#9B9B9A" stroke="none" d="M61.8676,35c0,0,1-18-20-14c0,0-4-6-16-3c0,0,5,2,5,5c0,0-14,7-17,21l-7,12c0,0,6,0,8-2c0,0,4,2,8,2 c0,0-6-6-4-10s15-8,15-8"/>
    <path fill="#9B9B9A" stroke="none" d="M43.7623,36.8067c0,0,21.3682,7.4053,22.2207,3.7012c0.8525-3.7041-4.4548-5.0491-4.5056-5.8595"/>
    <path fill="#9B9B9A" stroke="none" d="M48.3121,36.3084c0,0-2.7949,5.6927-5.2891,5.6685c-3.2046-0.0311-4.0417-6.8626-2.2091-8.0293"/>
    <path fill="#D0CFCE" stroke="none" d="M45.7843,32.8519c0,0-4.9167,8.1481-7.9167,8.1481s1-10,1-10"/>
  </g>
  <g id="hair"/>
  <g id="skin"/>
  <g id="skin-shadow"/>
  <g id="line">
    <path fill="none" stroke="#000000" stroke-linecap="round" stroke-linejoin="round" stroke-miterlimit="10" stroke-width="2" d="M61.8676,35c0,0,1-18-20-14c0,0-4-6-16-3c0,0,5,2,5,5c0,0-14,7-17,21l-7,12c0,0,6,0,8-2c0,0,4,2,8,2c0,0-6-6-4-10s15-8,15-8"/>
    <path fill="none" stroke="#000000" stroke-linecap="round" stroke-linejoin="round" stroke-miterlimit="10" stroke-width="2" d="M50.8676,38c0,0,14,5,15,2s-3.9924-4.3333-4-5"/>
    <path fill="none" stroke="#000000" stroke-linecap="round" stroke-linejoin="round" stroke-miterlimit="10" stroke-width="2" d="M47.8676,37c0,0-2.7141,3.9146-4.8282,4.9059c-0.9609,0.4506-1.6778,0.0867-1.7301-1.9251"/>
    <path fill="none" stroke="#000000" stroke-linecap="round" stroke-linejoin="round" stroke-miterlimit="10" stroke-width="2" d="M45.7843,33.6667c0,0-4.9167,7.3333-7.9167,7.3333s1-9,1-9"/>
  </g>
</svg>
