<svg id="emoji" viewBox="0 0 72 72" xmlns="http://www.w3.org/2000/svg">
  <g id="color">
    <path fill="#B1CC33" stroke="none" stroke-linecap="round" stroke-linejoin="round" stroke-miterlimit="10" stroke-width="2" d="M39.3855,22.3566c0.4635,0,0.8719-0.305,0.9938-0.7522c0.5599-2.0537,2.5904-6.9293,7.6535-7.6044 c7.8343-1.0446,10.968,4.1783,10.968,8.3565c0,5.0604-2.0891,5.2228-3.4152,7.597c-0.2637,0.4721-0.4077,1.0587-0.0342,1.4497 c5.4428,5.697,8.1892,29.6023-19.5311,29.6023C10.9508,61.0057,9,41,16.4762,31.384c0.333-0.4283,0.391-1.0013,0.0259-1.4026 c-1.4705-1.6157-4.5595-5.6648-2.9399-9.7139c2.0891-5.2228,6.2674-6.2674,9.4011-6.2674c3.0031,0,7.9249,1.9186,9.2492,7.5947 c0.1057,0.4531,0.5276,0.7619,0.9928,0.7619L39.3855,22.3566z"/>
  </g>
  <g id="hair"/>
  <g id="skin"/>
  <g id="skin-shadow"/>
  <g id="line">
    <path fill="none" stroke="#000000" stroke-linecap="round" stroke-linejoin="round" stroke-miterlimit="10" stroke-width="2" d="M39.3855,22.3566c0.4635,0,0.8719-0.305,0.9938-0.7522c0.5599-2.0537,2.5904-6.9293,7.6535-7.6044 c7.8343-1.0446,10.968,4.1783,10.968,8.3565c0,5.0604-2.0891,5.2228-3.4152,7.597c-0.2637,0.4721-0.4077,1.0587-0.0342,1.4497 c5.4428,5.697,8.1892,29.6023-19.5311,29.6023C10.9508,61.0057,9,41,16.4762,31.384c0.333-0.4283,0.391-1.0013,0.0259-1.4026 c-1.4705-1.6157-4.5595-5.6648-2.9399-9.7139c2.0891-5.2228,6.2674-6.2674,9.4011-6.2674c3.0031,0,7.9249,1.9186,9.2492,7.5947 c0.1057,0.4531,0.5276,0.7619,0.9928,0.7619L39.3855,22.3566z"/>
    <path fill="none" stroke="#000000" stroke-linecap="round" stroke-linejoin="round" stroke-miterlimit="10" stroke-width="2" d="M22.441,48.4708c0,0,13.5794,12.5348,28.2033,0"/>
    <circle cx="22.441" cy="23.4012" r="3.1337" fill="#000000" stroke="none"/>
    <circle cx="49.5997" cy="23.4012" r="3.1337" fill="#000000" stroke="none"/>
    <circle cx="31.8421" cy="43.248" r="2.0891" fill="#000000" stroke="none"/>
    <circle cx="40.1986" cy="43.248" r="2.0891" fill="#000000" stroke="none"/>
  </g>
</svg>
