<svg id="emoji" viewBox="0 0 72 72" xmlns="http://www.w3.org/2000/svg">
  <g id="color">
    <path fill="#EA5A47" stroke="none" stroke-linecap="round" stroke-miterlimit="10" stroke-width="2" d="M29.5067,22.4308h1.5889 c0.5519,0,0.9994-0.4474,0.9994-0.9994v-4.4112c0-0.5519,0.4474-0.9994,0.9994-0.9994h4.3313c0.5519,0,0.9994,0.4474,0.9994,0.9994 v4.4112c0,0.5519,0.4474,0.9994,0.9994,0.9994h1.5788c0.8109,0,1.2842,0.9149,0.8157,1.5768l-5.7482,8.1208 c-0.3983,0.5626-1.2331,0.5626-1.6314,0l-5.7482-8.1208C28.2225,23.3457,28.6958,22.4308,29.5067,22.4308z"/>
    <path fill="#d0cfce" stroke="none" stroke-linecap="round" stroke-linejoin="round" stroke-miterlimit="10" stroke-width="2" d="M60.736,42.1886v10.7401c0,1.711-1.3914,3.0922-3.0922,3.0922h-43.908c-1.6569,0-3-1.3431-3-3V42.0964c0-1.6569,1.3431-3,3-3 h5.4067c1.1204,0,2.2273,0.523,2.7865,1.4938c0.5049,0.8765,1.4431,1.4643,2.5154,1.4643l11.2863,0.0103l11.2864-0.0103 c1.0722,0,2.0104-0.5878,2.5154-1.4643c0.5593-0.9708,1.6662-1.4938,2.7865-1.4938h5.3248 C59.3446,39.0964,60.736,40.4776,60.736,42.1886z"/>
  </g>
  <g id="hair"/>
  <g id="skin"/>
  <g id="skin-shadow"/>
  <g id="line">
    <path fill="none" stroke="#000000" stroke-linecap="round" stroke-miterlimit="10" stroke-width="2" d="M29.5067,22.4308h1.5889 c0.5519,0,0.9994-0.4474,0.9994-0.9994v-4.4112c0-0.5519,0.4474-0.9994,0.9994-0.9994h4.3313c0.5519,0,0.9994,0.4474,0.9994,0.9994 v4.4112c0,0.5519,0.4474,0.9994,0.9994,0.9994h1.5788c0.8109,0,1.2842,0.9149,0.8157,1.5768l-5.7482,8.1208 c-0.3983,0.5626-1.2331,0.5626-1.6314,0l-5.7482-8.1208C28.2225,23.3457,28.6958,22.4308,29.5067,22.4308z"/>
    <path fill="none" stroke="#000000" stroke-linecap="round" stroke-linejoin="round" stroke-miterlimit="10" stroke-width="2" d="M60.736,42.1886v10.7401c0,1.711-1.3914,3.0922-3.0922,3.0922h-43.908c-1.6569,0-3-1.3431-3-3V42.0964c0-1.6569,1.3431-3,3-3 h5.4067c1.1204,0,2.2273,0.523,2.7865,1.4938c0.5049,0.8765,1.4431,1.4643,2.5154,1.4643l11.2863,0.0103l11.2864-0.0103 c1.0722,0,2.0104-0.5878,2.5154-1.4643c0.5593-0.9708,1.6662-1.4938,2.7865-1.4938h5.3248 C59.3446,39.0964,60.736,40.4776,60.736,42.1886z"/>
  </g>
</svg>
