<svg id="emoji" viewBox="0 0 72 72" xmlns="http://www.w3.org/2000/svg">
  <g id="color">
    <path fill="#FCEA2B" d="M36,13c-12.6823,0-23,10.3177-23,23c0,12.6822,10.3177,23,23,23c12.6822,0,23-10.3178,23-23 C59,23.3177,48.6822,13,36,13z"/>
  </g>
  <g id="hair"/>
  <g id="skin"/>
  <g id="skin-shadow"/>
  <g id="line">
    <circle cx="36" cy="36" r="23" fill="none" stroke="#000000" stroke-miterlimit="10" stroke-width="2"/>
    <path fill="none" stroke="#000000" stroke-linecap="round" stroke-linejoin="round" stroke-miterlimit="10" stroke-width="2" d="M30.09,43.09c3.126-0.7889,4.815-1.229,8.332-1.098c3.229,0.1204,6.141,0.5955,7.579,2.936"/>
    <path fill="none" stroke="#000000" stroke-linecap="round" stroke-linejoin="round" stroke-miterlimit="10" stroke-width="2" d="M23.29,26.7c0.3266-0.4271,1.792-2.245,4.424-2.685c2.135-0.3566,3.794,0.4017,4.352,0.688"/>
    <path fill="none" stroke="#000000" stroke-linecap="round" stroke-linejoin="round" stroke-miterlimit="10" stroke-width="2" d="M42.93,25c0.4667-0.25,2.52-1.1,5.042-0.5743c2.118,0.3921,2.421,0.8283,3.73,1.725"/>
    <path d="M32,31c0,1.6568-1.3448,3-3,3c-1.6553,0-3-1.3433-3-3c0-1.6552,1.3447-3,3-3C30.6552,28,32,29.3448,32,31"/>
    <path d="M50,31c0,1.6568-1.3447,3-3,3s-3-1.3433-3-3c0-1.6552,1.3447-3,3-3S50,29.3448,50,31"/>
  </g>
</svg>
