<svg id="emoji" viewBox="0 0 72 72" xmlns="http://www.w3.org/2000/svg">
  <g id="color">
    <path fill="#F4AA41" d="M58.6655,48.8322c-3.5976,9.1169-12.6313,15.1546-23.2072,15.1546c-9.1173,0-19.256-5.8476-22.8536-14.9645 l-0.1262-0.3127c-1.1415-2.8597-0.9573-6.3599-0.9573-9.6324L15.1881,6.706l10.2281,10.0799 c2.9226-1.2477,6.137-1.9388,9.5103-1.9388H35.99c3.3733,0,6.5877,0.6911,9.5103,1.9388L56.7285,5.706l3.7223,33.8758 c0,3.2725-0.6283,6.3969-1.7707,9.2566"/>
    <path fill="#E27022" d="M35.4583,63.9868c10.6088,0.3425,20.3541-6.004,23.9517-15.1208l0.1109-0.231 c1.1415-2.8597,0.9579-6.8965,0.9579-10.169l-3.7503-32.76"/>
  </g>
  <g id="hair"/>
  <g id="skin"/>
  <g id="skin-shadow"/>
  <g id="line">
    <path fill="none" stroke="#000000" stroke-linecap="round" stroke-linejoin="round" stroke-miterlimit="10" stroke-width="2" d="M64,55.1726"/>
    <line x1="62" x2="52.64" y1="54.16" y2="48.96" fill="none" stroke="#000000" stroke-linecap="round" stroke-linejoin="round" stroke-miterlimit="10" stroke-width="2"/>
    <path fill="none" stroke="#000000" stroke-linecap="round" stroke-linejoin="round" stroke-miterlimit="10" stroke-width="2" d="M52.64,46.8801"/>
    <path fill="none" stroke="#000000" stroke-linecap="round" stroke-linejoin="round" stroke-miterlimit="10" stroke-width="2" d="M62,52.08"/>
    <line x1="57.84" x2="48.48" y1="59.36" y2="54.16" fill="none" stroke="#000000" stroke-linecap="round" stroke-linejoin="round" stroke-miterlimit="10" stroke-width="2"/>
    <path fill="none" stroke="#000000" stroke-linecap="round" stroke-linejoin="round" stroke-miterlimit="10" stroke-width="2" d="M46.4,55.2"/>
    <path fill="none" stroke="#000000" stroke-linecap="round" stroke-linejoin="round" stroke-miterlimit="10" stroke-width="2" d="M55.76,60.4"/>
    <path fill="none" stroke="#000000" stroke-linecap="round" stroke-linejoin="round" stroke-miterlimit="10" stroke-width="2" d="M13.2916,48.0317c-1.1172-2.7655-1.7316-5.787-1.7316-8.9517L15.2,6.32l10.9799,10.7149c2.858-1.2066,6.0013-1.8749,9.3001-1.8749 h1.04c3.2988,0,6.4421,0.6683,9.3001,1.8749L56.8,6.3201l3.64,32.76c0,3.1647-0.6144,6.1862-1.7316,8.9517"/>
    <path fill="none" stroke="#000000" stroke-linecap="round" stroke-linejoin="round" stroke-miterlimit="10" stroke-width="2" d="M22.8253,59.3824C26.4968,61.6757,30.8335,63,35.48,63h1.04c4.6465,0,8.9852-1.3243,12.6547-3.6176"/>
    <line x1="10" x2="19.36" y1="54.16" y2="48.96" fill="none" stroke="#000000" stroke-linecap="round" stroke-linejoin="round" stroke-miterlimit="10" stroke-width="2"/>
    <path fill="none" stroke="#000000" stroke-linecap="round" stroke-linejoin="round" stroke-miterlimit="10" stroke-width="2" d="M19.36,46.8801"/>
    <line x1="14.16" x2="23.52" y1="59.36" y2="54.16" fill="none" stroke="#000000" stroke-linecap="round" stroke-linejoin="round" stroke-miterlimit="10" stroke-width="2"/>
    <path fill="none" stroke="#000000" stroke-linecap="round" stroke-linejoin="round" stroke-miterlimit="10" stroke-width="2" d="M25.6,55.2"/>
    <path fill="none" stroke="#000000" stroke-linecap="round" stroke-linejoin="round" stroke-miterlimit="10" stroke-width="2" d="M16.24,60.4"/>
    <path fill="none" stroke="#000000" stroke-linecap="round" stroke-linejoin="round" stroke-miterlimit="10" stroke-width="2" d="M55.24,38.9292c-3.12-4.16-9.36-4.16-11.44,0"/>
    <path fill="none" stroke="#000000" stroke-linecap="round" stroke-linejoin="round" stroke-miterlimit="10" stroke-width="2" d="M16.76,38.9292c3.12-4.16,9.36-4.16,11.44,0"/>
    <path fill="none" stroke="#000000" stroke-linecap="round" stroke-linejoin="round" stroke-miterlimit="10" stroke-width="2" d="M35.6476,47.6836c0,0,10.9458,3.3234,0,5.7862c0,0,10.876,3.1078,0,5.109"/>
  </g>
</svg>
