<svg id="emoji" viewBox="0 0 72 72" xmlns="http://www.w3.org/2000/svg">
  <g id="color">
    <path fill="#3f3f3f" stroke="none" d="M11.0288,51.4687h-2.195c-0.5725,0-1.0366-0.3616-1.0366-0.8078v-3.29 c0-0.4461,0.4641-0.8078,1.0366-0.8078h55.3491c0.5725,0,1.0366,0.3617,1.0366,0.8078v3.29c0,0.4462-0.4641,0.8079-1.0366,0.8079 l-0.8658-0.0001"/>
    <path fill="#FFFFFF" stroke="none" d="M65.2195,33.1724H7.7972V22.2509c0-1.0281,0.8334-1.8616,1.8616-1.8616h53.6991 c1.0282,0,1.8616,0.8335,1.8616,1.8616V33.1724z"/>
    <path fill="#ea5a47" stroke="none" d="M7.7972,30.915h57.4223v13.5884c0,1.1376-0.9221,2.0597-2.0597,2.0597H9.8568 c-1.1375,0-2.0596-0.9221-2.0596-2.0597V30.915z"/>
    <path fill="#3f3f3f" stroke="none" stroke-linecap="round" stroke-linejoin="round" stroke-miterlimit="10" stroke-width="2" d="M11.0288,50.7107"/>
    <path fill="#3f3f3f" stroke="none" stroke-linecap="round" stroke-linejoin="round" stroke-miterlimit="10" stroke-width="2" d="M48.7985,50.7107"/>
    <path fill="#92d3f5" stroke="none" stroke-linecap="round" stroke-linejoin="round" stroke-miterlimit="10" stroke-width="2" d="M14.9881,40.1697H7.8313V26.5303h7.1568c0.5725,0,1.0366,0.4641,1.0366,1.0366v11.5662 C16.0247,39.7056,15.5606,40.1697,14.9881,40.1697z"/>
    <path fill="#92d3f5" stroke="none" stroke-linecap="round" stroke-linejoin="round" stroke-miterlimit="10" stroke-width="2" d="M31.375,40.1697h-6.1202c-0.5725,0-1.0366-0.4641-1.0366-1.0366V27.5669c0-0.5725,0.4641-1.0366,1.0366-1.0366h6.1202 c0.5725,0,1.0366,0.4641,1.0366,1.0366v11.5662C32.4116,39.7056,31.9475,40.1697,31.375,40.1697z"/>
    <path fill="#92d3f5" stroke="none" stroke-linecap="round" stroke-linejoin="round" stroke-miterlimit="10" stroke-width="2" d="M65.1854,40.1697h-7.1568c-0.5725,0-1.0367-0.4641-1.0367-1.0366V27.5669c0-0.5725,0.4642-1.0366,1.0367-1.0366h7.1568V40.1697z"/>
    <path fill="#92d3f5" stroke="none" stroke-linecap="round" stroke-linejoin="round" stroke-miterlimit="10" stroke-width="2" d="M47.7619,40.1697h-6.1202c-0.5725,0-1.0366-0.4641-1.0366-1.0366V27.5669c0-0.5725,0.4641-1.0366,1.0366-1.0366h6.1202 c0.5725,0,1.0366,0.4641,1.0366,1.0366v11.5662C48.7985,39.7056,48.3344,40.1697,47.7619,40.1697z"/>
    <line x1="46.7985" x2="26.2182" y1="50.4706" y2="50.4706" fill="#3f3f3f" stroke="none" stroke-linecap="round" stroke-linejoin="round" stroke-miterlimit="10" stroke-width="2"/>
    <circle cx="18.0818" cy="51.5632" r="5.0001" fill="#d0cfce" stroke="none" stroke-linecap="round" stroke-linejoin="round" stroke-miterlimit="10" stroke-width="2"/>
    <circle cx="55.6092" cy="51.5632" r="5.0001" fill="#d0cfce" stroke="none" stroke-linecap="round" stroke-linejoin="round" stroke-miterlimit="10" stroke-width="2"/>
  </g>
  <g id="hair"/>
  <g id="skin"/>
  <g id="skin-shadow"/>
  <g id="line">
    <path fill="#000000" stroke="none" d="M5.6329,46.5631L5.6329,46.5631c0-0.5794,0.4698-1.0492,1.0492-1.0492h4.1967 c0.5795,0,1.0492,0.4698,1.0492,1.0492l0,0c0,0.5795-0.4697,1.0492-1.0492,1.0492H6.6821 C6.1027,47.6123,5.6329,47.1426,5.6329,46.5631z"/>
    <path fill="#000000" stroke="none" d="M61.072,46.5631L61.072,46.5631c0-0.5794,0.4697-1.0492,1.0492-1.0492h4.1967 c0.5794,0,1.0492,0.4698,1.0492,1.0492l0,0c0,0.5795-0.4698,1.0492-1.0492,1.0492h-4.1967 C61.5417,47.6123,61.072,47.1426,61.072,46.5631z"/>
    <path fill="none" stroke="#000000" stroke-linecap="round" stroke-linejoin="round" stroke-miterlimit="10" stroke-width="2.0875" d="M65.2195,46.5631H7.7972v-23.51c0-1.4712,1.1926-2.6638,2.6638-2.6638h52.0947c1.4712,0,2.6638,1.1926,2.6638,2.6638V46.5631z"/>
    <path fill="none" stroke="#000000" stroke-linecap="round" stroke-linejoin="round" stroke-miterlimit="10" stroke-width="2" d="M11.0288,50.7107"/>
    <path fill="none" stroke="#000000" stroke-linecap="round" stroke-linejoin="round" stroke-miterlimit="10" stroke-width="2" d="M48.7985,50.7107"/>
    <path fill="none" stroke="#000000" stroke-linecap="round" stroke-linejoin="round" stroke-miterlimit="10" stroke-width="1.6234" d="M10.0288,50.7107h-1.195c-0.5725,0-1.0366-0.3058-1.0366-0.683v-2.7816c0-0.3772,0.4641-0.683,1.0366-0.683h55.3491 c0.5725,0,1.0366,0.3058,1.0366,0.683v2.7816c0,0.3772-0.4641,0.683-1.0366,0.683h-0.8658"/>
    <path fill="none" stroke="#000000" stroke-linecap="round" stroke-linejoin="round" stroke-miterlimit="10" stroke-width="2" d="M14.9881,40.1697H7.8313V26.5303h7.1568c0.5725,0,1.0366,0.4641,1.0366,1.0366v11.5662 C16.0247,39.7056,15.5606,40.1697,14.9881,40.1697z"/>
    <path fill="none" stroke="#000000" stroke-linecap="round" stroke-linejoin="round" stroke-miterlimit="10" stroke-width="2" d="M31.375,40.1697h-6.1202c-0.5725,0-1.0366-0.4641-1.0366-1.0366V27.5669c0-0.5725,0.4641-1.0366,1.0366-1.0366h6.1202 c0.5725,0,1.0366,0.4641,1.0366,1.0366v11.5662C32.4116,39.7056,31.9475,40.1697,31.375,40.1697z"/>
    <path fill="none" stroke="#000000" stroke-linecap="round" stroke-linejoin="round" stroke-miterlimit="10" stroke-width="2" d="M65.1854,40.1697h-7.1568c-0.5725,0-1.0367-0.4641-1.0367-1.0366V27.5669c0-0.5725,0.4642-1.0366,1.0367-1.0366h7.1568V40.1697z"/>
    <path fill="none" stroke="#000000" stroke-linecap="round" stroke-linejoin="round" stroke-miterlimit="10" stroke-width="2" d="M47.7619,40.1697h-6.1202c-0.5725,0-1.0366-0.4641-1.0366-1.0366V27.5669c0-0.5725,0.4641-1.0366,1.0366-1.0366h6.1202 c0.5725,0,1.0366,0.4641,1.0366,1.0366v11.5662C48.7985,39.7056,48.3344,40.1697,47.7619,40.1697z"/>
    <line x1="46.7985" x2="26.2182" y1="50.4706" y2="50.4706" fill="none" stroke="#000000" stroke-linecap="round" stroke-linejoin="round" stroke-miterlimit="10" stroke-width="2"/>
    <circle cx="18.0818" cy="51.5632" r="5.0001" fill="none" stroke="#000000" stroke-linecap="round" stroke-linejoin="round" stroke-miterlimit="10" stroke-width="2"/>
    <circle cx="55.6092" cy="51.5632" r="5.0001" fill="none" stroke="#000000" stroke-linecap="round" stroke-linejoin="round" stroke-miterlimit="10" stroke-width="2"/>
  </g>
</svg>
