<svg id="emoji" viewBox="0 0 72 72" xmlns="http://www.w3.org/2000/svg">
  <g id="color">
    <path fill="#3f3f3f" d="M33.429,22.5141c.0563.261-.4737.8975-.1653.5925a1.5438,1.5438,0,0,0,.4295-.9446,1.6034,1.6034,0,0,0-.8064-1.61,1.5,1.5,0,1,0-1.5142,2.59l.0649.0374-.6893-.8964.0254.078v-.7976l-.017.0834.3858-.6619a2.5641,2.5641,0,0,0-.64,1.0319,2.8242,2.8242,0,0,0,.0336,1.2944,1.5,1.5,0,1,0,2.8928-.7975Z"/>
    <path fill="#3f3f3f" d="M41.997,25.426a1.5009,1.5009,0,0,0,0-3,1.5009,1.5009,0,0,0,0,3Z"/>
    <path fill="#3f3f3f" d="M37.1958,24.4221a1.5009,1.5009,0,0,0,0-3,1.5009,1.5009,0,0,0,0,3Z"/>
    <path fill="#3f3f3f" d="M26.2273,20.0344a1.61,1.61,0,0,0,1.5666,2.701A1.515,1.515,0,0,0,28.8416,20.89a2.7206,2.7206,0,0,0-1.0805-1.438,1.5105,1.5105,0,0,0-2.0523.5381,1.5349,1.5349,0,0,0,.5381,2.0523.632.632,0,0,1-.2982-.3549l1.0477-1.8452-.0942.0243,1.1558.1512-.0807-.0542.7429,1.2952-.0029-.0972-.4393,1.0607.0706-.0669a1.5,1.5,0,1,0-2.1213-2.1213Z"/>
    <rect x="27" y="30" width="15" height="23" fill="#fcea2b" stroke="#000" stroke-linejoin="round" stroke-width="2"/>
    <line x1="28" x2="42" y1="50" y2="50" fill="none" stroke="#61b2e4" stroke-linejoin="round" stroke-width="2"/>
    <rect x="27" y="42" width="6" height="4" fill="#d0cfce" stroke="#d0cfce" stroke-linejoin="round" stroke-width="1.633"/>
    <rect x="27" y="34" width="6" height="6.5" fill="#3f3f3f" stroke="#3f3f3f" stroke-linejoin="round" stroke-width="1.472"/>
    <rect x="36" y="34" width="6" height="11" fill="#d0cfce" stroke="#d0cfce" stroke-linejoin="round" stroke-width="2"/>
  </g>
  <g id="line">
    <rect x="30" y="20" rx="1.732" width="4" height="4" transform="translate(4.1507 -5.0632) rotate(9.6714)" fill="none" stroke="#000" stroke-miterlimit="10" stroke-width="2"/>
    <rect x="35" y="21" rx="1.732" width="4" height="4" transform="translate(4.3898 -5.889) rotate(9.6714)" fill="none" stroke="#000" stroke-miterlimit="10" stroke-width="2"/>
    <rect x="40" y="22" rx="1.732" width="4" height="4" transform="matrix(0.9858, 0.168, -0.168, 0.9858, 4.6289, -6.7148)" fill="none" stroke="#000" stroke-miterlimit="10" stroke-width="2"/>
    <rect x="25" y="19" rx="1.732" width="4" height="4" transform="matrix(0.9858, 0.168, -0.168, 0.9858, 3.9117, -4.2375)" fill="none" stroke="#000" stroke-miterlimit="10" stroke-width="2"/>
    <line x1="12" x2="60" y1="18" y2="28" fill="none" stroke="#000" stroke-miterlimit="10" stroke-width="2"/>
    <line x1="35" x2="35" y1="23" y2="31" fill="none" stroke="#000" stroke-miterlimit="10" stroke-width="2"/>
    <rect x="36" y="34" width="6" height="11" fill="none" stroke="#000" stroke-linejoin="round" stroke-width="2"/>
    <rect x="27" y="34" width="6" height="13" fill="none" stroke="#000" stroke-linejoin="round" stroke-width="2"/>
    <rect x="27" y="30" width="15" height="23" fill="none" stroke="#000" stroke-linejoin="round" stroke-width="2"/>
  </g>
</svg>
