<svg id="emoji" viewBox="0 0 72 72" xmlns="http://www.w3.org/2000/svg">
  <g id="color">
    <path fill="#6a462f" d="M53.6341,32.0606q-.0411-.14-.0927-.2838c-1.486-4.1605-5.3651-6.7606-9.3642-8.2A27.9746,27.9746,0,0,0,34.7221,22c-.6264,0-1.2563.0221-1.887.06a27.3835,27.3835,0,0,1,7.9135,1.5169c3.999,1.4394,7.8782,4.04,9.3642,8.2q.0515.1441.0926.2838a3.0466,3.0466,0,0,1-1.0761,3.4635,11.9781,11.9781,0,0,1-3.7763,2.0407,38.8613,38.8613,0,0,1-12.3243,2.0613q.8487.0221,1.6934.0221a41.1278,41.1278,0,0,0,14.06-2.0834,11.977,11.977,0,0,0,3.7763-2.0407A3.0468,3.0468,0,0,0,53.6341,32.0606Z"/>
    <path fill="#a57939" d="M16.9578,41.7547q.0412.1613.0929.3275c1.49,4.8005,5.3785,7.8005,9.3875,9.4614a24.745,24.745,0,0,0,9.4788,1.8193,23.0388,23.0388,0,0,0,13.4742-4.02,13.96,13.96,0,0,0,5.2523-6.8216,6.0934,6.0934,0,0,0,.3239-2.5781,3.7968,3.7968,0,0,0-1.4346-2.4354,13.4367,13.4367,0,0,0-4.4409-2.4667A38.1178,38.1178,0,0,0,35.917,33a36.2833,36.2833,0,0,0-14.0947,2.4039,15.0781,15.0781,0,0,0-2.36,1.2136,8.7061,8.7061,0,0,0-1.4252,1.141A3.8342,3.8342,0,0,0,16.9578,41.7547Z"/>
    <path fill="#b1cc33" d="M16.3583,34.4057a2.9786,2.9786,0,0,0,.6191,2.8525,2.5706,2.5706,0,0,0,2.2448.8669,5.0444,5.0444,0,0,0,1.9847,5.2462,4.3291,4.3291,0,0,0,5.5845-.6624A2.9447,2.9447,0,0,0,28.62,44.9252a2.9646,2.9646,0,0,0,2.3846-.3957,4.5529,4.5529,0,0,0,4.1491,3.4764,4.4884,4.4884,0,0,0,4.5105-3.5325,2.4456,2.4456,0,0,0,2.6088.8809,2.8724,2.8724,0,0,0,1.8837-1.5855,4.2985,4.2985,0,0,0,5.2552.7879,5.1273,5.1273,0,0,0,2.307-5.4707C52.6173,39.4132,53.242,38.7511,54,38c.6633-.6572-.9428-3.12-1-4"/>
    <path fill="#a57939" d="M54.777,32.0607q-.0413-.14-.0927-.2839c-1.486-4.1605-5.3651-6.7606-9.3642-8.2A27.9752,27.9752,0,0,0,35.8649,22a25.53,25.53,0,0,0-13.4406,3.4838,12.557,12.557,0,0,0-5.3707,6.2491,3.2193,3.2193,0,0,0,1.2393,4.0081,14.09,14.09,0,0,0,4.43,2.1379A43.3056,43.3056,0,0,0,35.865,39.6483a41.1283,41.1283,0,0,0,14.06-2.0835,11.9787,11.9787,0,0,0,3.7763-2.0406A3.0469,3.0469,0,0,0,54.777,32.0607Z"/>
    <ellipse cx="35.865" cy="26.6802" rx="7.7191" ry="1.5438" fill="#6a462f"/>
  </g>
  <g id="line">
    <path fill="none" stroke="#000" stroke-linecap="round" stroke-linejoin="round" stroke-width="2" d="M18.313,38.4649q-.1426.112-.2795.2309a3.0469,3.0469,0,0,0-1.0761,3.4635q.0411.14.0926.2839c1.486,4.1605,5.3652,6.7606,9.3642,8.2A27.9756,27.9756,0,0,0,35.8694,52.22,25.53,25.53,0,0,0,49.31,48.7362a12.5575,12.5575,0,0,0,5.3707-6.2491,3.0869,3.0869,0,0,0-.5978-3.4214"/>
    <ellipse cx="35.865" cy="26.6802" rx="7.7191" ry="1.5438" fill="none" stroke="#000" stroke-miterlimit="10" stroke-width="2"/>
    <path fill="none" stroke="#000" stroke-miterlimit="10" stroke-width="2" d="M54.777,32.0607q-.0413-.14-.0927-.2839c-1.486-4.1605-5.3651-6.7606-9.3642-8.2A27.9752,27.9752,0,0,0,35.8649,22a25.53,25.53,0,0,0-13.4406,3.4838,12.557,12.557,0,0,0-5.3707,6.2491,3.2193,3.2193,0,0,0,1.2393,4.0081,14.09,14.09,0,0,0,4.43,2.1379A43.3056,43.3056,0,0,0,35.865,39.6483a41.1283,41.1283,0,0,0,14.06-2.0835,11.9787,11.9787,0,0,0,3.7763-2.0406A3.0469,3.0469,0,0,0,54.777,32.0607Z"/>
    <circle cx="27.0076" cy="31.8048" r="0.5714"/>
    <circle cx="32.722" cy="31.8048" r="0.5714"/>
    <circle cx="24.7218" cy="28.3761" r="0.5714"/>
    <circle cx="31.5791" cy="35.2334" r="0.5714"/>
    <circle cx="21.2932" cy="31.8048" r="0.5714"/>
    <circle cx="38.4364" cy="34.0906" r="0.5714"/>
    <circle cx="38.4364" cy="30.6619" r="0.5714"/>
    <circle cx="41.8651" cy="36.3763" r="0.5714"/>
    <circle cx="44.1509" cy="30.6619" r="0.5714"/>
    <circle cx="46.4366" cy="32.9477" r="0.5714"/>
    <circle cx="47.5795" cy="27.2332" r="0.5714"/>
    <circle cx="49.8653" cy="30.6619" r="0.5714"/>
    <path fill="none" stroke="#000" stroke-linecap="round" stroke-linejoin="round" stroke-width="2" d="M22.0477,42.9323a4.3084,4.3084,0,0,0,5.2925-.5734,2.6782,2.6782,0,0,0,1.7385,1.9678,2.97,2.97,0,0,0,2.26-.3448,4.279,4.279,0,0,0,3.9417,3.09,4.1836,4.1836,0,0,0,4.2675-3.1187,2.42,2.42,0,0,0,2.4753.7867,2.6652,2.6652,0,0,0,1.782-1.4,4.294,4.294,0,0,0,4.9838.7107"/>
    <circle cx="26.5791" cy="35.2334" r="0.5714"/>
  </g>
</svg>
