<svg id="emoji" viewBox="0 0 72 72" xmlns="http://www.w3.org/2000/svg">
  <g id="color">
    <path fill="#D22F27" stroke="none" stroke-linecap="round" stroke-linejoin="round" stroke-miterlimit="10" stroke-width="2" d="M53.7603,58.9583L18.829,20.2998c-0.781-0.781-2.0474-0.781-2.8284,0c-0.781,0.781-0.781,2.0474,0,2.8284L53.7603,58.9583"/>
    <path fill="#D22F27" stroke="none" stroke-linecap="round" stroke-linejoin="round" stroke-miterlimit="10" stroke-width="2" d="M56.5852,57.4276L30.512,12.3181c-0.6004-0.9271-1.8388-1.192-2.7659-0.5916s-1.192,1.8388-0.5916,2.7659L56.5852,57.4276"/>
  </g>
  <g id="hair"/>
  <g id="skin"/>
  <g id="skin-shadow"/>
  <g id="line">
    <path fill="none" stroke="#000000" stroke-linecap="round" stroke-linejoin="round" stroke-miterlimit="10" stroke-width="2" d="M53.7603,58.9583L18.829,20.2998c-0.781-0.781-2.0474-0.781-2.8284,0c-0.781,0.781-0.781,2.0474,0,2.8284L53.7603,58.9583"/>
    <path fill="none" stroke="#000000" stroke-linecap="round" stroke-linejoin="round" stroke-miterlimit="10" stroke-width="2" d="M56.5852,57.4276L30.512,12.3181c-0.6004-0.9271-1.8388-1.192-2.7659-0.5916s-1.192,1.8388-0.5916,2.7659L56.5852,57.4276"/>
  </g>
</svg>
