<svg id="emoji" viewBox="0 0 72 72" xmlns="http://www.w3.org/2000/svg">
  <g id="color">
    <rect x="11.6742" y="11.6325" width="48.6516" height="24.3664" fill="#d22f27"/>
    <rect x="11.6742" y="35.9989" width="48.6516" height="24.2852" fill="#ea5a47"/>
    <polygon fill="#a57939" points="44.407 29.061 44.368 35.999 41.809 35.999 41.848 29.061 44.407 29.061"/>
    <path fill="#9b9b9a" d="M38.5888,22.0886V29.11h9.0071V25.0673s6.0283,0,8.0141,1.9858a10.6528,10.6528,0,0,0-8.0141-5.0354A39.6255,39.6255,0,0,0,38.5888,22.0886Z"/>
    <path fill="#d0cfce" d="M36.2832,22.7269v5.6737h0a2.2354,2.2354,0,0,1-2.6241,0h0V22.7269h0a1.8842,1.8842,0,0,1,2.6241,0Z"/>
    <path fill="#d0cfce" d="M27.8655,23.9041a7.3568,7.3568,0,0,1-.0681.9049,4.9929,4.9929,0,0,1-3.1527,3.98l-.5838.2044v7.0058H20.3342V28.9931l-.4962-.1654a5.05,5.05,0,0,1-3.23-3.98V24.809a4.6961,4.6961,0,0,1,1.2454-4.184,6.12,6.12,0,0,1,1.4888-1.0411.4248.4248,0,0,1,.5838.3794v3.1429l.8271,1.2455h2.9l.8271-1.2455V19.9633a.4125.4125,0,0,1,.5838-.3794,6.3726,6.3726,0,0,1,1.4887,1.0411A4.4486,4.4486,0,0,1,27.8655,23.9041Z"/>
    <rect x="32.4231" y="40.4229" width="7.1539" height="3.6129" fill="#d0cfce"/>
  </g>
  <g id="line">
    <rect x="11.6742" y="11.6325" width="48.6516" height="24.3664" fill="none" stroke="#000" stroke-linecap="round" stroke-linejoin="round" stroke-width="2"/>
    <g id="_">
      <path fill="none" stroke="#000" stroke-linecap="round" stroke-linejoin="round" stroke-width="2.0013" d="M20.3342,35.9989V28.74l-.4963-.1654a5.0391,5.0391,0,0,1-3.23-3.9311V24.595A4.5741,4.5741,0,0,1,17.853,20.46a5.4741,5.4741,0,0,1,1.4887-1.0022.429.429,0,0,1,.5838.3794v3.104l.8271,1.2455h2.9l.8271-1.2455v-3.104a.416.416,0,0,1,.5838-.3794A5.6789,5.6789,0,0,1,26.5519,20.46a4.4289,4.4289,0,0,1,1.3136,3.25,7.0368,7.0368,0,0,1-.0682.8855,4.9093,4.9093,0,0,1-3.1526,3.9407l-.5838.2044v7.2588"/>
    </g>
    <polyline fill="none" stroke="#000" stroke-linecap="round" stroke-linejoin="round" stroke-width="2" points="44.368 35.999 60.326 35.999 60.326 60.286 11.674 60.286 11.674 35.999 20.334 35.999"/>
    <line x1="41.809" x2="24.0609" y1="35.9989" y2="35.9989" fill="none" stroke="#000" stroke-miterlimit="10" stroke-width="2"/>
    <rect x="32.4231" y="40.4229" width="7.1539" height="3.6129" fill="none" stroke="#000" stroke-miterlimit="10" stroke-width="2"/>
    <g id="_2">
      <g>
        <polyline fill="none" stroke="#000" stroke-linecap="round" stroke-linejoin="round" stroke-width="2.0013" points="44.368 35.999 44.407 29.061 41.848 29.061 41.809 35.999"/>
        <path fill="none" stroke="#000" stroke-linecap="round" stroke-linejoin="round" stroke-width="2.0013" d="M38.5888,22.04v7.0212h9.0071V25.0187s6.0283,0,8.0141,1.9858a10.6531,10.6531,0,0,0-8.0141-5.0355A39.6283,39.6283,0,0,0,38.5888,22.04Z"/>
        <path fill="none" stroke="#000" stroke-linecap="round" stroke-linejoin="round" stroke-width="2.0013" d="M36.2832,22.6783V28.352h0a2.2357,2.2357,0,0,1-2.6241,0h0V22.6783h0a1.884,1.884,0,0,1,2.6241,0Z"/>
      </g>
    </g>
  </g>
</svg>
