<svg id="emoji" viewBox="0 0 72 72" xmlns="http://www.w3.org/2000/svg">
  <g id="color">
    <path fill="#fcea2b" d="M37.2373,61.8457a8.756,8.756,0,0,1-5.542-1.7978c-3.4931-2.73-3.9316-7.544-3.9482-7.7471L24.2305,30.4c-.9248-7.2568.1211-12.7666,3.1054-16.4063a10.9052,10.9052,0,0,1,7.0889-4.0214,10.1811,10.1811,0,0,1,7.5059,2.7441c2.1816,2.2275,3.0615,5.5879,2.6142,9.9883-.7744,7.626,1.0547,24.3271,1.169,25.3554.1435.6836,1.2959,6.6407-1.3223,10.5059a7.2109,7.2109,0,0,1-5.0283,3.1A13.2293,13.2293,0,0,1,37.2373,61.8457ZM34.502,10.97h0Z"/>
  </g>
  <g id="line">
    <path fill="none" stroke="#000" stroke-linecap="round" stroke-linejoin="round" stroke-width="2" d="M43.55,22.6038C44.816,10.1385,34.5016,10.97,34.5016,10.97s-8.1434.5758-9.4276,11.5684"/>
    <path fill="none" stroke="#000" stroke-linecap="round" stroke-linejoin="round" stroke-width="2" d="M26.3811,37.4927l2.3622,14.7248s.8348,10.0291,10.4589,8.4611c8-1.3034,5.5232-12.4566,5.5232-12.4566S44.1129,42.81,43.7066,36.62"/>
    <path fill="none" stroke="#000" stroke-linecap="round" stroke-linejoin="round" stroke-width="2" d="M28.1894,35.1471s-11.22-3.6806,5.464-15.1572l.3479-2.83"/>
    <path fill="none" stroke="#000" stroke-linecap="round" stroke-linejoin="round" stroke-width="2" d="M40.6653,34.1658S51.3068,29.504,33.6534,19.99"/>
  </g>
</svg>
