<svg id="emoji" viewBox="0 0 72 72" xmlns="http://www.w3.org/2000/svg">
  <g id="color">
    <path fill="#5C9E31" stroke="none" d="M35.7502,38.8606c0.7918-0.8555,2.1446-0.8553,2.9361,0.0005l5.0691,5.4806 c1.9827,2.2387,4.4923,3.2216,6.9032,1.7652c2.3429-1.4154,3.0291-4.517,1.6577-6.886l-0.7615-1.3154l-0.4165-0.7194 l1.9671-1.1388c2.3997-1.3893,3.3965-4.5861,1.9817-6.9709c-1.3879-2.3396-4.0753-2.4334-6.7882-1.772l-1.5258,0.4466 c-1.592,0.466-3.0266-1.097-2.4262-2.6433l0.8157-2.1008c0.4085-1.0521,0.8731-2.0807,1.3203-3.1169 c0.9172-2.1253,1.1047-4.2003-0.4735-5.8473c-1.9632-2.0487-5.3008-1.904-7.3073,0.1024l-1.5842,1.5841l-0.5878-0.5878 l-0.9963-0.9962c-2.0104-2.0102-5.3553-2.1497-7.3173-0.0922c-1.5682,1.6446-1.386,3.6828-0.4662,5.8231 c0.4505,1.0482,0.9183,2.0889,1.3313,3.1525l0.7883,2.0303c0.6038,1.5551-0.8495,3.1223-2.4456,2.6375l-1.2905-0.392 c-2.7129-0.6613-5.4003-0.5676-6.7882,1.772c-1.4148,2.3847-0.4179,5.5816,1.9817,6.9709l1.9671,1.1388l-0.4165,0.7194 l-0.7615,1.3154c-1.3714,2.3689-0.6852,5.4706,1.6577,6.886c2.4109,1.4565,4.9205,0.4735,6.9032-1.7652L35.7502,38.8606z"/>
  </g>
  <g id="hair"/>
  <g id="skin"/>
  <g id="skin-shadow"/>
  <g id="line">
    <path fill="none" stroke="#000000" stroke-linecap="round" stroke-linejoin="round" stroke-miterlimit="10" stroke-width="2" d="M35.7598,38.9396c0.7918-0.8555,2.1446-0.8553,2.9361,0.0005l5.0691,5.4806c1.9827,2.2387,4.4923,3.2216,6.9032,1.7652 c2.3429-1.4154,3.0291-4.517,1.6577-6.886l-0.7615-1.3154l-0.4165-0.7194l1.9671-1.1388 c2.3997-1.3893,3.3965-4.5861,1.9817-6.9709c-1.388-2.3396-4.0753-2.4334-6.7882-1.772L46.7828,27.83 c-1.592,0.466-3.0266-1.097-2.4262-2.6433l0.8157-2.1008c0.4085-1.0521,0.8731-2.0807,1.3203-3.1169 c0.9172-2.1253,1.1047-4.2003-0.4735-5.8473c-1.9632-2.0487-5.3008-1.904-7.3073,0.1024l-1.5842,1.5841l-0.5878-0.5878 l-0.9963-0.9962c-2.0104-2.0102-5.3553-2.1497-7.3173-0.0922c-1.5682,1.6446-1.386,3.6828-0.4662,5.8231 c0.4505,1.0482,0.9183,2.0889,1.3313,3.1525l0.7883,2.0303c0.6038,1.5551-0.8495,3.1223-2.4456,2.6375l-1.2905-0.392 c-2.7129-0.6613-5.4003-0.5676-6.7882,1.772c-1.4148,2.3847-0.4179,5.5816,1.9817,6.9709l1.9671,1.1388l-0.4165,0.7194 l-0.7615,1.3154c-1.3714,2.3689-0.6852,5.4706,1.6577,6.886c2.4109,1.4565,4.9205,0.4735,6.9032-1.7652L35.7598,38.9396z"/>
    <path fill="none" stroke="#000000" stroke-linecap="round" stroke-linejoin="round" stroke-width="2" d="M37.1374,44.0518 c-3.438,3.548-7.676,10.246-5.829,20.735"/>
  </g>
</svg>
