<?xml version="1.0" encoding="UTF-8" standalone="no"?>
<!-- Created with Inkscape (http://www.inkscape.org/) -->
<svg id="svg7324" xmlns="http://www.w3.org/2000/svg" height="16" width="16" version="1.1" xmlns:xlink="http://www.w3.org/1999/xlink">
 <defs id="defs7326">
  <linearGradient id="linearGradient3637" y2="18" xlink:href="#linearGradient3607" gradientUnits="userSpaceOnUse" x2="9.0002" gradientTransform="matrix(1.0001 0 0 1 -2.0101 1.988)" y1="15" x1="9.0002"/>
  <linearGradient id="linearGradient3607">
   <stop id="stop3609" style="stop-color:#3b7caf" offset="0"/>
   <stop id="stop3611" style="stop-color:#194c70" offset="1"/>
  </linearGradient>
  <linearGradient id="linearGradient3629" y2="18" xlink:href="#linearGradient3607" gradientUnits="userSpaceOnUse" x2="13" gradientTransform="translate(-3.0117 1.988)" y1="11" x1="13"/>
  <linearGradient id="linearGradient3621" y2="18" xlink:href="#linearGradient3607" gradientUnits="userSpaceOnUse" x2="17" gradientTransform="translate(-4.014 1.988)" y1="7" x1="17"/>
  <linearGradient id="linearGradient3613" y2="18" xlink:href="#linearGradient3607" gradientUnits="userSpaceOnUse" x2="21" gradientTransform="matrix(.99373 0 0 .93671 -4.8794 3.128)" y1="2" x1="21"/>
 </defs>
 <g id="layer3" transform="translate(-1.0002 -5)">
  <path id="path3694" style="fill:url(#linearGradient3637)" d="m6.0002 16.998h2.043v3.0017h-2.043v-3.0017z"/>
  <path id="path3696" style="fill:url(#linearGradient3629)" d="m9.0287 12.996h2.0143v7.004h-2.0428l0.02852-7.004z"/>
  <path id="path3698" style="fill:url(#linearGradient3621)" d="m12 8.9937h2.0163l-0.015 11.006h-2.0011l-0.000008-11.006z"/>
  <path id="path3700" style="fill:url(#linearGradient3613)" d="m17 5v15h-2l0.026-15h1.974z"/>
  <path id="path2830" style="stroke-linejoin:round;stroke:#454545;stroke-linecap:round;stroke-width:.99996px;fill:none" d="m4.5002 19.5-1.4412-1.059-1.5589 1.059 1.6411-7.051 1.359 7.051z"/>
  <path id="path3601" style="stroke-linejoin:round;stroke:#454545;stroke-linecap:round;stroke-width:.99996;fill:#454545" d="m4.6072 11.493c-1.4558 0.09791-0.019838 1.6115-1.4 1-1.5944 0.78557 0.028052-1.3065-1.6997-1 1.6689 0.40945 0.43007-1.1419 1.6997-1 1.1813-0.10078 0.18686 1.2256 1.4 1z"/>
 </g>
</svg>
