<?xml version="1.0" encoding="UTF-8" standalone="no"?>
<!-- Created with Inkscape (http://www.inkscape.org/) -->
<svg id="svg2932" xmlns:rdf="http://www.w3.org/1999/02/22-rdf-syntax-ns#" xmlns="http://www.w3.org/2000/svg" height="32px" width="32px" version="1.1" xmlns:cc="http://creativecommons.org/ns#" xmlns:xlink="http://www.w3.org/1999/xlink" xmlns:dc="http://purl.org/dc/elements/1.1/">
 <defs id="defs2934">
  <linearGradient id="linearGradient2865" y2="-.024518" xlink:href="#linearGradient3251" gradientUnits="userSpaceOnUse" x2="17.592" gradientTransform="matrix(1.3333 0 0 1.3333 -1.3333 1.3326)" y1="7" x1="17.592"/>
  <linearGradient id="linearGradient3251">
   <stop id="stop3253" style="stop-color:#917f6e" offset="0"/>
   <stop id="stop3255" style="stop-color:#cbbaa9" offset="1"/>
  </linearGradient>
  <linearGradient id="linearGradient2868" y2="7.0925" xlink:href="#linearGradient4222" gradientUnits="userSpaceOnUse" x2="40.007" gradientTransform="matrix(1.245 0 0 1.2452 -29.306 -1.9543)" y1="12.911" x1="40.007"/>
  <linearGradient id="linearGradient4222">
   <stop id="stop4224" style="stop-color:#fff" offset="0"/>
   <stop id="stop4226" style="stop-color:#fff;stop-opacity:0" offset="1"/>
  </linearGradient>
  <linearGradient id="linearGradient2871" y2="22.698" xlink:href="#linearGradient4222" gradientUnits="userSpaceOnUse" x2="38.382" gradientTransform="matrix(1.3913 0 0 1.3913 -34.652 -3.9537)" y1="5.9062" x1="38.382"/>
  <linearGradient id="linearGradient2874" y2="24.034" gradientUnits="userSpaceOnUse" x2="39.906" gradientTransform="matrix(1.3333 0 0 1.3333 -32.833 -2.8333)" y1="6.123" x1="39.906">
   <stop id="stop3245" style="stop-color:#fff4e9" offset="0"/>
   <stop id="stop3247" style="stop-color:#e7d6c5" offset="1"/>
  </linearGradient>
  <linearGradient id="linearGradient2876" y2="5" xlink:href="#linearGradient3251" gradientUnits="userSpaceOnUse" x2="32.016" gradientTransform="matrix(1.3333 0 0 1.3333 -32.833 -2.8333)" y1="24.011" x1="32.016"/>
  <radialGradient id="radialGradient2930" gradientUnits="userSpaceOnUse" cx="10.471" cy="20.147" r="9.2147" gradientTransform="matrix(1.3023 0 0 .43409 -1.6364 16.587)">
   <stop id="stop3285" offset="0"/>
   <stop id="stop3287" style="stop-opacity:0" offset="1"/>
  </radialGradient>
  <linearGradient id="linearGradient3287" y2="39.268" gradientUnits="userSpaceOnUse" x2="24.139" gradientTransform="matrix(.37573 0 0 .37346 16.248 14.686)" y1="7.0479" x1="24.139">
   <stop id="stop3945" style="stop-color:#fff" offset="0"/>
   <stop id="stop3947" style="stop-color:#fff;stop-opacity:0" offset="1"/>
  </linearGradient>
  <radialGradient id="radialGradient3338" gradientUnits="userSpaceOnUse" cx="69.448" cy="51.695" r="31" gradientTransform="matrix(0 .46490 -.50576 0 49.574 -14.296)">
   <stop id="stop3244-5" style="stop-color:#eef87e" offset="0"/>
   <stop id="stop3246-9" style="stop-color:#cde34f" offset=".26238"/>
   <stop id="stop3248-7" style="stop-color:#93b723" offset=".66094"/>
   <stop id="stop3250-8" style="stop-color:#5a7e0d" offset="1"/>
  </radialGradient>
  <linearGradient id="linearGradient3340" y2="51.244" gradientUnits="userSpaceOnUse" y1="124.76" gradientTransform="matrix(.19311 0 0 .19469 8.006 5.8601)" x2="72.422" x1="72.422">
   <stop id="stop2492-3" style="stop-color:#365f0e" offset="0"/>
   <stop id="stop2494-8" style="stop-color:#84a718" offset="1"/>
  </linearGradient>
 </defs>
 <metadata id="metadata2937">
  <rdf:RDF>
   <cc:Work rdf:about="">
    <dc:format>image/svg+xml</dc:format>
    <dc:type rdf:resource="http://purl.org/dc/dcmitype/StillImage"/>
    <dc:title/>
   </cc:Work>
  </rdf:RDF>
 </metadata>
 <g id="layer1">
  <path id="path3281" style="opacity:.3;fill-rule:evenodd;fill:url(#radialGradient2930)" d="m24 25.333a12 4 0 1 1 -24 0 12 4 0 1 1 24 0z"/>
  <path id="path2463" style="fill-rule:evenodd;stroke:url(#linearGradient2876);stroke-width:1px;fill:url(#linearGradient2874)" d="m15.167 4.5-12.667 13.125 11 10.875 13-12.667v-11.333h-11.333zm5.333 4c1.104 0 2 0.896 2 2s-0.896 2-2 2-2-0.896-2-2 0.896-2 2-2z"/>
  <path id="path3265" style="opacity:.6;stroke:url(#linearGradient2871);stroke-width:1px;fill:none" d="m15.606 5.5l-11.606 12.091s9.5 9.5251 9.5 9.5251l12-11.789v-9.8278h-9.8938z"/>
  <path id="path3294" style="opacity:.6;stroke:url(#linearGradient2868);stroke-width:1px;fill:none" d="m20.492 7.5016c1.884-0.066433 3.4374 1.9348 2.9012 3.7442-0.39818 1.7755-2.5839 2.7987-4.1986 1.9525-1.662-0.73429-2.2413-3.0721-1.1022-4.4918 0.55337-0.74899 1.4674-1.212 2.3997-1.2048z"/>
  <path id="path3298" style="stroke:url(#linearGradient2865);stroke-width:1px;fill:none" d="m20.667 9.9993c1.4787-0.78296 3.4054-1.0228 5.2358-1.0637 0.82286-0.018347 1.6546 0.1492 2.462-0.042853 1.0277-0.24444 1.728-0.99735 1.6255-1.6857-0.137-0.9239-1.379-1.6059-2.543-2.094-1.032-0.433-1.827-1.2045-2.247-2.0195-0.212-0.4118 0.158-0.8442 0.753-0.9769 0.54-0.12058 1.1056-0.16824 1.6551-0.045808 0.83632 0.18635 1.8236 0.41369 2.2126 1.0062"/>
  <path id="path2262" style="stroke-linejoin:round;stroke-width:.98543;color:#000000;stroke:url(#linearGradient3340);stroke-linecap:round;fill:url(#radialGradient3338)" d="m22.5 20.5v-4.021h5v4.021h4.0073v5h-4.0073v4.0073h-5v-4.0073h-4.0073v-5h4.0073z"/>
  <path id="path2272" style="opacity:.4;stroke:url(#linearGradient3287);fill:none" d="m23.5 21.5v-4h3v4h4.02v3h-4.02v4h-3v-4h-4v-3h4z"/>
 </g>
</svg>
