<?xml version="1.0" encoding="UTF-8" standalone="no"?>
<!-- Created with Inkscape (http://www.inkscape.org/) -->
<svg id="svg2842" xmlns:rdf="http://www.w3.org/1999/02/22-rdf-syntax-ns#" xmlns="http://www.w3.org/2000/svg" height="48" width="48" version="1.0" xmlns:cc="http://creativecommons.org/ns#" xmlns:xlink="http://www.w3.org/1999/xlink" xmlns:dc="http://purl.org/dc/elements/1.1/">
 <metadata id="metadata98">
  <rdf:RDF>
   <cc:Work rdf:about="">
    <dc:format>image/svg+xml</dc:format>
    <dc:type rdf:resource="http://purl.org/dc/dcmitype/StillImage"/>
   </cc:Work>
  </rdf:RDF>
 </metadata>
 <defs id="defs2844">
  <radialGradient id="radialGradient2742" gradientUnits="userSpaceOnUse" cy="15.28" cx="11.537" gradientTransform="matrix(1 0 0 .38462 0 18.615)" r="13">
   <stop id="stop2465" style="stop-color:#fff" offset="0"/>
   <stop id="stop2467" style="stop-color:#fff;stop-opacity:0" offset="1"/>
  </radialGradient>
  <linearGradient id="linearGradient2762" y2="8.9372" xlink:href="#linearGradient2366" gradientUnits="userSpaceOnUse" x2="7.4375" gradientTransform="matrix(.87891 0 0 1.1284 2.9061 .90641)" y1="14.105" x1="7.4375"/>
  <linearGradient id="linearGradient2760" y2="18.92" xlink:href="#linearGradient6828" gradientUnits="userSpaceOnUse" x2="21.687" gradientTransform="matrix(.87891 0 0 1.1284 2.9061 .90641)" y1="9.5516" x1="21.586"/>
  <linearGradient id="linearGradient2827" y2="5.4565" xlink:href="#linearGradient8589" gradientUnits="userSpaceOnUse" x2="36.358" gradientTransform="matrix(.63713 0 0 .64456 7.7694 1.6903)" y1="8.059" x1="32.892"/>
  <filter id="filter3212" y="-.16434" x="-.14846" height="1.3287" width="1.2969">
   <feGaussianBlur id="feGaussianBlur3214" stdDeviation="0.77391625"/>
  </filter>
  <linearGradient id="linearGradient2825" y2="46.017" gradientUnits="userSpaceOnUse" x2="24" gradientTransform="matrix(.63636 0 0 .62791 7.667 1.876)" y1="2" x1="24">
   <stop id="stop3213" style="stop-color:#fff" offset="0"/>
   <stop id="stop3215" style="stop-color:#fff;stop-opacity:0" offset="1"/>
  </linearGradient>
  <radialGradient id="radialGradient2823" gradientUnits="userSpaceOnUse" cy="112.3" cx="102" gradientTransform="matrix(.23404 0 0 -.25430 7.961 33.234)" r="139.56">
   <stop id="stop41" style="stop-color:#b7b8b9" offset="0"/>
   <stop id="stop47" style="stop-color:#ececec" offset=".18851"/>
   <stop id="stop49" style="stop-color:#fafafa;stop-opacity:0" offset=".25718"/>
   <stop id="stop51" style="stop-color:#fff;stop-opacity:0" offset=".30111"/>
   <stop id="stop53" style="stop-color:#fafafa;stop-opacity:0" offset=".53130"/>
   <stop id="stop55" style="stop-color:#ebecec;stop-opacity:0" offset=".84490"/>
   <stop id="stop57" style="stop-color:#e1e2e3;stop-opacity:0" offset="1"/>
  </radialGradient>
  <linearGradient id="linearGradient2821" y2="2.9062" gradientUnits="userSpaceOnUse" x2="-51.786" gradientTransform="matrix(.53064 0 0 .58970 46.209 .15387)" y1="50.786" x1="-51.786">
   <stop id="stop3106" style="stop-color:#969696" offset="0"/>
   <stop id="stop3108" style="stop-color:#bebebe" offset="1"/>
  </linearGradient>
  <linearGradient id="linearGradient2819" y2="47.013" gradientUnits="userSpaceOnUse" x2="25.132" gradientTransform="matrix(.65714 0 0 .63012 7.1683 .85614)" y1=".98521" x1="25.132">
   <stop id="stop3602" style="stop-color:#f4f4f4" offset="0"/>
   <stop id="stop3604" style="stop-color:#dbdbdb" offset="1"/>
  </linearGradient>
  <radialGradient id="radialGradient2765" gradientUnits="userSpaceOnUse" cy="41.875" cx="24" gradientTransform="matrix(1.2549 0 0 .33987 -6.1176 27.268)" r="19.125">
   <stop id="stop7614" offset="0"/>
   <stop id="stop7616" style="stop-opacity:0" offset="1"/>
  </radialGradient>
  <linearGradient id="linearGradient2757" y2="20" gradientUnits="userSpaceOnUse" x2="20.279" gradientTransform="translate(0,2)" y1="37" x1="20.562">
   <stop id="stop6868" style="stop-color:#828282" offset="0"/>
   <stop id="stop6870" style="stop-color:#aaa" offset="1"/>
  </linearGradient>
  <linearGradient id="linearGradient2755" y2="37" xlink:href="#linearGradient8589" gradientUnits="userSpaceOnUse" x2="11.506" gradientTransform="translate(-2.5e-7 2)" y1="20" x1="11.519"/>
  <radialGradient id="radialGradient2752" gradientUnits="userSpaceOnUse" cy="11.918" cx="3.7591" gradientTransform="matrix(.99982 .018764 -.012627 .67282 .15115 16.489)" r="21">
   <stop id="stop6844" style="stop-color:#fff" offset="0"/>
   <stop id="stop6846" style="stop-color:#fff;stop-opacity:0" offset="1"/>
  </radialGradient>
  <linearGradient id="linearGradient2740" y2="21" xlink:href="#linearGradient2366" gradientUnits="userSpaceOnUse" x2="15.335" gradientTransform="translate(-2.5e-7 2)" y1="33" x1="15.601"/>
  <linearGradient id="linearGradient2738" y2="33" xlink:href="#linearGradient6828" gradientUnits="userSpaceOnUse" x2="22.008" gradientTransform="translate(-2.5e-7 2)" y1="21" x1="21.919"/>
  <linearGradient id="linearGradient2366">
   <stop id="stop2368" style="stop-color:#2e3436" offset="0"/>
   <stop id="stop2370" style="stop-color:#555753" offset="1"/>
  </linearGradient>
  <linearGradient id="linearGradient2735" y2="33.5" xlink:href="#linearGradient2366" gradientUnits="userSpaceOnUse" x2="9.5" gradientTransform="translate(.5 1.5)" y1="41.375" x1="9.5625"/>
  <linearGradient id="linearGradient2733" y2="40.875" xlink:href="#linearGradient6828" gradientUnits="userSpaceOnUse" x2="7.4545" gradientTransform="matrix(.97059 0 0 .8 .70588 10.1)" y1="31.156" x1="7.517"/>
  <linearGradient id="linearGradient8589">
   <stop id="stop8591" style="stop-color:#fefefe" offset="0"/>
   <stop id="stop8593" style="stop-color:#bebebe" offset="1"/>
  </linearGradient>
  <linearGradient id="linearGradient2721" y2="43.38" xlink:href="#linearGradient8589" gradientUnits="userSpaceOnUse" x2="21.062" gradientTransform="translate(0,2)" y1="38" x1="21.062"/>
  <linearGradient id="linearGradient6828">
   <stop id="stop6830" style="stop-color:#6e6e6e" offset="0"/>
   <stop id="stop6832" style="stop-color:#1e1e1e" offset="1"/>
  </linearGradient>
  <linearGradient id="linearGradient2718" y2="38" xlink:href="#linearGradient6828" gradientUnits="userSpaceOnUse" x2="24.875" gradientTransform="translate(0,2)" y1="41" x1="24.875"/>
  <linearGradient id="linearGradient2491" y2="5.4676" gradientUnits="userSpaceOnUse" x2="63.397" gradientTransform="matrix(1.0863 0 0 1.0862 -55.567 15.814)" y1="-12.489" x1="63.397">
   <stop id="stop4875" style="stop-color:#fff" offset="0"/>
   <stop id="stop4877" style="stop-color:#fff;stop-opacity:0" offset="1"/>
  </linearGradient>
  <linearGradient id="linearGradient2496" y2="3.0816" gradientUnits="userSpaceOnUse" x2="18.379" gradientTransform="matrix(.51604 0 0 .51604 -.38499 -.38499)" y1="44.98" x1="18.379">
   <stop id="stop2492" style="stop-color:#791235" offset="0"/>
   <stop id="stop2494" style="stop-color:#dd3b27" offset="1"/>
  </linearGradient>
  <radialGradient id="radialGradient2494" gradientUnits="userSpaceOnUse" cy="3.99" cx="23.896" gradientTransform="matrix(0 1.2316 -1.6257 0 18.487 -28.721)" r="20.397">
   <stop id="stop3244" style="stop-color:#f8b17e" offset="0"/>
   <stop id="stop3246" style="stop-color:#e35d4f" offset=".26238"/>
   <stop id="stop3248" style="stop-color:#c6262e" offset=".66094"/>
   <stop id="stop3250" style="stop-color:#690b54" offset="1"/>
  </radialGradient>
  <radialGradient id="radialGradient2499" gradientUnits="userSpaceOnUse" cy="4.625" cx="62.625" gradientTransform="matrix(1.1294 0 0 .28235 -58.729 19.694)" r="10.625">
   <stop id="stop8840" offset="0"/>
   <stop id="stop8842" style="stop-opacity:0" offset="1"/>
  </radialGradient>
 </defs>
 <g id="layer1">
  <rect id="rect2315" style="stroke-linejoin:round;stroke:url(#linearGradient2762);stroke-linecap:round;stroke-width:.99603;fill:url(#linearGradient2760)" rx=".56379" ry=".72384" height="22.004" width="29.004" y="10.498" x="9.4979"/>
  <g id="g2812" transform="translate(1.0602 1.0542)">
   <path id="path4160" style="stroke-linejoin:round;stroke:url(#linearGradient2821);stroke-width:.99992;fill:url(#linearGradient2819)" d="m11.44 2.4457h15.811c0.925 0.3128 5.892 3.8765 7.189 6.3439v22.656h-23v-29z"/>
   <path id="path4191" style="fill:url(#radialGradient2823)" d="m12.174 30.946c-0.129 0-0.234-0.114-0.234-0.255v-27.464c0-0.1399 0.105-0.2539 0.234-0.2539 4.842 0.0703 10.208-0.1051 15.044 0.0175l6.653 5.7696 0.069 21.931c0 0.141-0.105 0.255-0.234 0.255h-21.532z"/>
   <path id="path2435" style="opacity:.6;stroke:url(#linearGradient2825);fill:none" d="m33.44 9.0848v21.361h-21v-27c4.812-0.0003 9.739-0.0003 14.551-0.0003"/>
   <path id="path2714" style="opacity:.4;fill-rule:evenodd;filter:url(#filter3212)" d="m28.617 0.92126c4.283 0 2.154 8.4831 2.154 8.4831s10.357-1.8023 10.357 2.8186c0-2.6095-11.302-10.728-12.511-11.302z" transform="matrix(.63860 0 0 .61936 7.6648 2.3752)"/>
   <path id="path4474" style="fill:url(#linearGradient2827);fill-rule:evenodd" d="m25.94 2.9458c2.035 0 1.491 4.7455 1.491 4.7455s6.498-0.6077 6.498 2.2545c0-0.6974 0.055-1.1968-0.085-1.4144-1.008-1.5634-5.362-5.0716-6.934-5.5314-0.117-0.0344-0.378-0.0542-0.97-0.0542z"/>
  </g>
  <path id="path3087" style="opacity:.5;fill:url(#radialGradient2765)" d="m48 41.5c0 3.59-10.745 6.5-24 6.5s-24-2.91-24-6.5c5e-8 -3.59 10.745-6.5 24-6.5s24 2.91 24 6.5z"/>
  <path id="rect2313" style="stroke-linejoin:round;stroke:url(#linearGradient2757);stroke-linecap:round;fill:url(#linearGradient2755)" d="m4.579 22.5h4.921l1 1h27l1-1h4.921c1.152 0 2.079 0.927 2.079 2.079v13.921h-43v-13.921c0-1.152 0.9272-2.079 2.079-2.079z"/>
  <path id="rect2374" style="opacity:.9;stroke:url(#radialGradient2752);stroke-linecap:round;fill:none" d="m4.5 23.5h39c0.519 0 1 0.481 1 1v13h-41v-13c0-0.519 0.4812-1 1-1z"/>
  <rect id="rect2319" style="stroke:url(#linearGradient2740);stroke-linecap:round;fill:url(#linearGradient2738)" height="11" width="27" y="23.5" x="10.5"/>
  <path id="rect6333" style="stroke:url(#linearGradient2735);stroke-linecap:square;fill:url(#linearGradient2733)" d="m3.5 38.5c0.0801 1.037-0.2074 2.152 0.2536 3.112 0.8648 1.219 2.4701 0.818 3.7464 0.888 0.023 0.719-0.2135 1.83 0.7727 1.983 10.418 0.039 20.839 0.006 31.258 0.017 1.075 0.032 1.004-1.162 0.969-1.92 0.351-0.186 1.048-0.027 1.533-0.08 1.2 0.163 2.667-0.66 2.467-2.028v-1.972h-41z"/>
  <path id="rect6331" style="fill:url(#linearGradient2721)" d="m40 40v3.5c0 0.277-0.223 0.5-0.5 0.5h-31c-0.277 0-0.5-0.223-0.5-0.5v-3.5h32z"/>
  <rect id="rect6329" style="fill:url(#linearGradient2718)" height="2" width="28" y="40" x="10"/>
  <g id="g2938" transform="translate(24,24)">
   <path id="path8836" style="opacity:.3;fill-rule:evenodd;fill:url(#radialGradient2499)" d="m24 21c0 1.657-5.373 3-12 3-6.6274 0-12-1.343-12-3-2.5e-7 -1.657 5.3726-3 12-3 6.627 0 12 1.343 12 3z"/>
   <path id="path2555" style="stroke-linejoin:round;stroke:url(#linearGradient2496);stroke-linecap:round;stroke-width:1.0037;fill:url(#radialGradient2494)" d="m12 1.5018c-5.7926 0-10.498 4.7056-10.498 10.498-0.0002 5.793 4.7054 10.498 10.498 10.498 5.793 0 10.498-4.705 10.498-10.498 0-5.7926-4.705-10.498-10.498-10.498z"/>
   <path id="path2463" style="opacity:.4;stroke:url(#linearGradient2491);fill:none" d="m21.5 12c0 5.247-4.254 9.5-9.5 9.5-5.2466 0-9.5-4.254-9.5-9.5 0-5.247 4.2534-9.5 9.5-9.5 5.246 0 9.5 4.253 9.5 9.5z"/>
   <path id="path3360" style="opacity:.2" d="m4 13h16v-3h-16v3z"/>
   <path id="path3271" style="fill:#fff" d="m4 14h16v-3h-16v3z"/>
  </g>
 </g>
 <rect id="rect2459" style="opacity:.3;stroke:url(#radialGradient2742);stroke-linecap:round;fill:none" height="9" width="25" y="24.5" x="11.5"/>
</svg>
