<?xml version="1.0" encoding="UTF-8" standalone="no"?>
<!-- Created with Inkscape (http://www.inkscape.org/) -->
<svg id="svg2862" xmlns="http://www.w3.org/2000/svg" height="48" width="48" version="1.1" xmlns:xlink="http://www.w3.org/1999/xlink">
 <defs id="defs2864">
  <radialGradient id="radialGradient2894" fx="33.626" xlink:href="#linearGradient3837" gradientUnits="userSpaceOnUse" cy="41.297" cx="33.249" gradientTransform="matrix(3.6594 -3.0216e-7 3.0216e-7 3.6594 -93.12 -143.36)" r="2.674"/>
  <linearGradient id="linearGradient3837">
   <stop id="stop3839" style="stop-color:#e3e3e2;stop-opacity:0" offset="0"/>
   <stop id="stop3845" style="stop-color:#d4d4d3" offset=".61194"/>
   <stop id="stop3841" style="stop-color:#fff" offset="1"/>
  </linearGradient>
  <radialGradient id="radialGradient2890" fx="33.626" xlink:href="#linearGradient3837" gradientUnits="userSpaceOnUse" cy="41.297" cx="33.249" gradientTransform="matrix(3.6594 -3.0216e-7 3.0216e-7 3.6594 -86.673 -143.12)" r="2.674"/>
  <radialGradient id="radialGradient2886" fx="33.626" xlink:href="#linearGradient3837" gradientUnits="userSpaceOnUse" cy="41.297" cx="33.249" gradientTransform="matrix(3.6594 -3.0216e-7 3.0216e-7 3.6594 -94.8 -149.29)" r="2.674"/>
  <radialGradient id="radialGradient2882" fx="33.626" xlink:href="#linearGradient3837" gradientUnits="userSpaceOnUse" cy="41.297" cx="33.249" gradientTransform="matrix(3.6594 -3.0216e-7 3.0216e-7 3.6594 -88.473 -154.69)" r="2.674"/>
  <radialGradient id="radialGradient2878" fx="33.626" xlink:href="#linearGradient3837" gradientUnits="userSpaceOnUse" cy="41.297" cx="33.249" gradientTransform="matrix(3.6594 -3.0216e-7 3.0216e-7 3.6594 -83.367 -149.02)" r="2.674"/>
  <radialGradient id="radialGradient2874" fx="33.626" xlink:href="#linearGradient3837" gradientUnits="userSpaceOnUse" cy="41.297" cx="33.249" gradientTransform="matrix(3.6594 -3.0216e-7 3.0216e-7 3.6594 -78.889 -145.29)" r="2.674"/>
  <radialGradient id="radialGradient2411" fx="33.626" xlink:href="#linearGradient3837" gradientUnits="userSpaceOnUse" cy="41.297" cx="33.249" gradientTransform="matrix(4.3444 -3.5871e-7 3.5871e-7 4.3444 -124.09 -172.07)" r="2.674"/>
  <radialGradient id="radialGradient2414" fx="33.626" xlink:href="#linearGradient3837" gradientUnits="userSpaceOnUse" cy="41.297" cx="33.249" gradientTransform="matrix(3.6594 -3.0216e-7 3.0216e-7 3.6594 -94.195 -154.88)" r="2.674"/>
  <radialGradient id="radialGradient2417" fx="33.626" xlink:href="#linearGradient3837" gradientUnits="userSpaceOnUse" cy="41.297" cx="33.249" gradientTransform="matrix(3.6594 -3.0216e-7 3.0216e-7 3.6594 -108.67 -143.12)" r="2.674"/>
  <radialGradient id="radialGradient2420" fx="33.626" xlink:href="#linearGradient3837" gradientUnits="userSpaceOnUse" cy="41.297" cx="33.249" gradientTransform="matrix(3.6594 -3.0216e-7 3.0216e-7 3.6594 -104.63 -150.88)" r="2.674"/>
  <radialGradient id="radialGradient2423" fx="33.626" xlink:href="#linearGradient3837" gradientUnits="userSpaceOnUse" cy="41.297" cx="33.249" gradientTransform="matrix(3.6594 -3.0216e-7 3.0216e-7 3.6594 -99.195 -153.65)" r="2.674"/>
  <filter id="filter3636" height="1.3377" width="1.1861" color-interpolation-filters="sRGB" y="-.16885" x="-.093072">
   <feGaussianBlur id="feGaussianBlur3638" stdDeviation="1.5126458"/>
  </filter>
  <linearGradient id="linearGradient3417" y2="89.516" xlink:href="#linearGradient3907" gradientUnits="userSpaceOnUse" x2="28.016" gradientTransform="matrix(.92030 .39122 -.39122 .92030 26.895 -14.527)" y1="89.516" x1="23.119"/>
  <linearGradient id="linearGradient3907">
   <stop id="stop3909" style="stop-color:#8badea" offset="0"/>
   <stop id="stop3911" style="stop-color:#3b7caf" offset="1"/>
  </linearGradient>
  <linearGradient id="linearGradient3420" y2="150.61" xlink:href="#linearGradient3419" gradientUnits="userSpaceOnUse" x2="24.308" gradientTransform="matrix(.92030 .39122 -.39122 .92030 54.852 -77.075)" y1="165.42" x1="24.308"/>
  <linearGradient id="linearGradient3419">
   <stop id="stop3421" style="stop-color:#4083c2" offset="0"/>
   <stop id="stop3423" style="stop-color:#4083c2;stop-opacity:0" offset="1"/>
  </linearGradient>
  <linearGradient id="linearGradient3429">
   <stop id="stop3431" style="stop-color:#fff" offset="0"/>
   <stop id="stop3433" style="stop-color:#fff;stop-opacity:0" offset="1"/>
  </linearGradient>
  <radialGradient id="radialGradient3676" xlink:href="#linearGradient3429" gradientUnits="userSpaceOnUse" cy="158.02" cx="24.308" gradientTransform="matrix(.92030 .39122 -1.3867 3.262 212.15 -447.1)" r="1.9484"/>
  <linearGradient id="linearGradient3703" y2="89.516" xlink:href="#linearGradient3907" gradientUnits="userSpaceOnUse" x2="28.016" gradientTransform="matrix(.92030 .39122 -.39122 .92030 51.51 -14.527)" y1="89.516" x1="23.119"/>
  <linearGradient id="linearGradient3705" y2="150.61" xlink:href="#linearGradient3419" gradientUnits="userSpaceOnUse" x2="24.308" gradientTransform="matrix(.92030 .39122 -.39122 .92030 79.468 -77.075)" y1="165.42" x1="24.308"/>
  <radialGradient id="radialGradient3707" xlink:href="#linearGradient3429" gradientUnits="userSpaceOnUse" cy="158.02" cx="24.308" gradientTransform="matrix(.92030 .39122 -1.3867 3.262 236.76 -447.1)" r="1.9484"/>
  <linearGradient id="linearGradient3713" y2="89.516" xlink:href="#linearGradient3907" gradientUnits="userSpaceOnUse" x2="28.016" gradientTransform="matrix(.92030 .39122 -.39122 .92030 76.125 -14.527)" y1="89.516" x1="23.119"/>
  <linearGradient id="linearGradient3715" y2="150.61" xlink:href="#linearGradient3419" gradientUnits="userSpaceOnUse" x2="24.308" gradientTransform="matrix(.92030 .39122 -.39122 .92030 104.08 -77.075)" y1="165.42" x1="24.308"/>
  <radialGradient id="radialGradient3717" xlink:href="#linearGradient3429" gradientUnits="userSpaceOnUse" cy="158.02" cx="24.308" gradientTransform="matrix(.92030 .39122 -1.3867 3.262 261.38 -447.1)" r="1.9484"/>
  <linearGradient id="linearGradient3731" y2="89.516" xlink:href="#linearGradient3907" gradientUnits="userSpaceOnUse" x2="28.016" gradientTransform="matrix(.92030 .39122 -.39122 .92030 17.049 5.1651)" y1="89.516" x1="23.119"/>
  <linearGradient id="linearGradient3733" y2="150.61" xlink:href="#linearGradient3419" gradientUnits="userSpaceOnUse" x2="24.308" gradientTransform="matrix(.92030 .39122 -.39122 .92030 45.006 -57.382)" y1="165.42" x1="24.308"/>
  <radialGradient id="radialGradient3735" xlink:href="#linearGradient3429" gradientUnits="userSpaceOnUse" cy="158.02" cx="24.308" gradientTransform="matrix(.92030 .39122 -1.3867 3.262 202.3 -427.41)" r="1.9484"/>
  <linearGradient id="linearGradient3737" y2="89.516" xlink:href="#linearGradient3907" gradientUnits="userSpaceOnUse" x2="28.016" gradientTransform="matrix(.92030 .39122 -.39122 .92030 41.664 5.1651)" y1="89.516" x1="23.119"/>
  <linearGradient id="linearGradient3739" y2="150.61" xlink:href="#linearGradient3419" gradientUnits="userSpaceOnUse" x2="24.308" gradientTransform="matrix(.92030 .39122 -.39122 .92030 69.621 -57.382)" y1="165.42" x1="24.308"/>
  <radialGradient id="radialGradient3741" xlink:href="#linearGradient3429" gradientUnits="userSpaceOnUse" cy="158.02" cx="24.308" gradientTransform="matrix(.92030 .39122 -1.3867 3.262 226.92 -427.41)" r="1.9484"/>
  <linearGradient id="linearGradient3743" y2="89.516" xlink:href="#linearGradient3907" gradientUnits="userSpaceOnUse" x2="28.016" gradientTransform="matrix(.92030 .39122 -.39122 .92030 66.279 5.1651)" y1="89.516" x1="23.119"/>
  <linearGradient id="linearGradient3745" y2="150.61" xlink:href="#linearGradient3419" gradientUnits="userSpaceOnUse" x2="24.308" gradientTransform="matrix(.92030 .39122 -.39122 .92030 94.237 -57.382)" y1="165.42" x1="24.308"/>
  <radialGradient id="radialGradient3747" xlink:href="#linearGradient3429" gradientUnits="userSpaceOnUse" cy="158.02" cx="24.308" gradientTransform="matrix(.92030 .39122 -1.3867 3.262 251.53 -427.41)" r="1.9484"/>
 </defs>
 <g id="layer1" transform="translate(0,16)">
  <path id="path2862" style="opacity:.3;filter:url(#filter3636)" d="m26-12.5c-2.2053 0-6.0219-0.0067-6.4062 2.088-2.5938-0.1875-4.5938 1.287-4.5938 3.412-3.2611-0.85573-5.8584-0.14713-6.3584 2.4779-0.27376 1.4372 0.3584 2.5221 0.1204 2.8034-3.762 1.7188-4.262 4.164-4.262 5.75 0 2.4726 3.9962 2.4688 6.4688 2.4688 4.6349 2.2674 8.3327 0.54154 13.031 0 2.1719 0 5 2.5 8 2.5 2.1719 0 4.8594-2.5 7.0312-2.5 2.4726 0 4.6008-1.9997 4.4688-4.4688-0.11947-2.234-4.1875-3.8125-4.1875-3.8125s-1.2816-6.0085-6.8125-4.2608c1.7699-1.5664 1.1477-3.9359-0.5-3.458-0.24629 0.07143-1.5052 0.02123-1.75 0.0625-0.60278-1.7752-2.2719-3.0625-4.25-3.0625z"/>
  <path id="rect3758" style="stroke-linejoin:round;stroke:#b4b5b3;stroke-linecap:square;fill:#e3e3e2" d="m26-12.5c-2.2053 0-6.0219-0.0067-6.4062 2.088-2.5938-0.1875-4.5938 1.287-4.5938 3.412-3.2611-0.85573-5.8584-0.14713-6.3584 2.4779-0.27376 1.4372 0.3584 2.5221 0.1204 2.8034-3.762 1.7188-4.262 4.164-4.262 5.75 0 2.4726 3.9962 2.4688 6.4688 2.4688 4.6349 2.2674 8.3327 0.54154 13.031 0 2.1719 0 5 2.5 8 2.5 2.1719 0 4.8594-2.5 7.0312-2.5 2.4726 0 4.6008-1.9997 4.4688-4.4688-0.11947-2.234-4.1875-3.8125-4.1875-3.8125s-1.2816-6.0085-6.8125-4.2608c1.7699-1.5664 1.1477-3.9359-0.5-3.458-0.24629 0.07143-1.5052 0.02123-1.75 0.0625-0.60278-1.7752-2.2719-3.0625-4.25-3.0625z"/>
  <path id="path3835" style="fill:url(#radialGradient2423)" d="m22.478-6.5221c0 2.2091-1.7909 4-4 4s-3-1.7909-3-4 1-3 3-3c2.2091 0 4 0.79086 4 3z"/>
  <path id="path3847" style="fill:url(#radialGradient2420)" d="m17.045-3.7611c0 2.2091-1.7909 3-4 3-3 0-4-0.79086-4-3s1.7909-3 4-3 4 0.79086 4 3z"/>
  <path id="path3851" style="fill:url(#radialGradient2417)" d="m13 4c0 2.2091-1.7909 2-4 2s-4-1-4-2c0.044269-1.8805 2-4 4-5 1.9759-0.98796 4 2.7909 4 5z"/>
  <path id="path3855" style="fill:url(#radialGradient2414)" d="m27.478-7.7611c0 2.2091-1.7909 4-4 4s-4-1.7909-4-4 1.7909-4 4-4 4 1.7909 4 4z"/>
  <path id="path3859" style="fill:url(#radialGradient2411)" d="m20.359 2.5973c0 2.6227-2.1261 4.7487-4.7487 4.7487-2.6227 0-4.7487-2.1261-4.7487-4.7487 0-2.6227 2.1261-4.7487 4.7487-4.7487 2.6227 0 4.7487 2.1261 4.7487 4.7487z"/>
  <path id="path2872" style="fill:url(#radialGradient2874)" d="m42.785 1.8381c0 2.2091-1.7909 4-4 4s-4-1.7909-4-4 1.9181-2.9576 4.1272-2.9576c1 0 4 2 3.8728 2.9576z"/>
  <path id="path2876" style="fill:url(#radialGradient2878)" d="m38.307-1.892c0 2.2091-1.7909 4-4 4s-4-1.7909-4-4 1.7909-4 4-4 4 1.7909 4 4z"/>
  <path id="path2880" style="fill:url(#radialGradient2882)" d="m33.001-7.5645c-1.9115 1.7313-2.1884 3.8805-3.8002 4-2.2031 0.16329-4-1.7909-4-4s2.5154-5.0195 4.1272-0.95759c1.1272 0.04241 3.673-1.2515 3.673 0.95759z"/>
  <path id="path2884" style="fill:url(#radialGradient2886)" d="m26.873-2.1619c0 2.2091-1.7909 4-4 4s-4-1.7909-4-4 1.7909-2 4-2c1.1272-0.95759 4-0.20914 4 2z"/>
  <path id="path2888" style="fill:url(#radialGradient2890)" d="m35 4c0 2.2091-1.7909 4-4 4s-4-1.7909-4-4 1.9181-2.9576 4.1272-2.9576c1 0 3.8728 0.74845 3.8728 2.9576z"/>
  <path id="path2892" style="fill:url(#radialGradient2894)" d="m28.553 3.7611c0 2.2091-1.7909 2-4 2s-4-1-4-2c1-2 2-4 4-5 1.9759-0.98796 4 2.7909 4 5z"/>
  <g id="g3174" style="enable-background:new" transform="matrix(.40625 0 0 .40625 7.2195 -16.165)">
   <g id="g3770">
    <path id="path3176" style="fill-rule:evenodd;stroke:url(#linearGradient3420);fill:url(#linearGradient3417)" d="m18.414 71.632s-6.9795 7.7035-6.8134 11.184c0.06146 1.2876 1.7921 1.975 2.7748 1.1796 2.6087-2.1116 4.0386-12.363 4.0386-12.363z"/>
    <path id="path3178" style="enable-background:new;fill:url(#radialGradient3676);fill-rule:evenodd" d="m18.414 71.632s-6.9795 7.7035-6.8134 11.184c0.06146 1.2876 1.7921 1.975 2.7748 1.1796 2.6087-2.1116 4.0386-12.363 4.0386-12.363z"/>
    <path id="path3699" style="fill-rule:evenodd;stroke:url(#linearGradient3705);fill:url(#linearGradient3703)" d="m43.029 71.632s-6.9795 7.7035-6.8134 11.184c0.06146 1.2876 1.7921 1.975 2.7748 1.1796 2.6087-2.1116 4.0386-12.363 4.0386-12.363z"/>
    <path id="path3701" style="enable-background:new;fill:url(#radialGradient3707);fill-rule:evenodd" d="m43.029 71.632s-6.9795 7.7035-6.8134 11.184c0.06146 1.2876 1.7921 1.975 2.7748 1.1796 2.6087-2.1116 4.0386-12.363 4.0386-12.363z"/>
    <path id="path3709" style="fill-rule:evenodd;stroke:url(#linearGradient3715);fill:url(#linearGradient3713)" d="m67.644 71.632s-6.9795 7.7035-6.8134 11.184c0.06146 1.2876 1.7921 1.975 2.7748 1.1796 2.6087-2.1116 4.0386-12.363 4.0386-12.363z"/>
    <path id="path3711" style="enable-background:new;fill:url(#radialGradient3717);fill-rule:evenodd" d="m67.644 71.632s-6.9795 7.7035-6.8134 11.184c0.06146 1.2876 1.7921 1.975 2.7748 1.1796 2.6087-2.1116 4.0386-12.363 4.0386-12.363z"/>
    <path id="path3719" style="fill-rule:evenodd;stroke:url(#linearGradient3733);fill:url(#linearGradient3731)" d="m8.5679 91.325s-6.9795 7.7035-6.8134 11.184c0.06146 1.2876 1.7921 1.975 2.7748 1.1796 2.6087-2.1116 4.0386-12.363 4.0386-12.363z"/>
    <path id="path3721" style="enable-background:new;fill:url(#radialGradient3735);fill-rule:evenodd" d="m8.5679 91.325s-6.9795 7.7035-6.8134 11.184c0.06146 1.2876 1.7921 1.975 2.7748 1.1796 2.6087-2.1116 4.0386-12.363 4.0386-12.363z"/>
    <path id="path3723" style="fill-rule:evenodd;stroke:url(#linearGradient3739);fill:url(#linearGradient3737)" d="m33.183 91.325s-6.9795 7.7035-6.8134 11.184c0.06146 1.2876 1.7921 1.975 2.7748 1.1796 2.6087-2.1116 4.0386-12.363 4.0386-12.363z"/>
    <path id="path3725" style="enable-background:new;fill:url(#radialGradient3741);fill-rule:evenodd" d="m33.183 91.325s-6.9795 7.7035-6.8134 11.184c0.06146 1.2876 1.7921 1.975 2.7748 1.1796 2.6087-2.1116 4.0386-12.363 4.0386-12.363z"/>
    <path id="path3727" style="fill-rule:evenodd;stroke:url(#linearGradient3745);fill:url(#linearGradient3743)" d="m57.798 91.325s-6.9795 7.7035-6.8134 11.184c0.06146 1.2876 1.7921 1.975 2.7748 1.1796 2.6087-2.1116 4.0386-12.363 4.0386-12.363z"/>
    <path id="path3729" style="enable-background:new;fill:url(#radialGradient3747);fill-rule:evenodd" d="m57.798 91.325s-6.9795 7.7035-6.8134 11.184c0.06146 1.2876 1.7921 1.975 2.7748 1.1796 2.6087-2.1116 4.0386-12.363 4.0386-12.363z"/>
   </g>
  </g>
 </g>
</svg>
