<?xml version="1.0" encoding="UTF-8" standalone="no"?>
<!-- Created with Inkscape (http://www.inkscape.org/) -->

<svg
   xmlns:dc="http://purl.org/dc/elements/1.1/"
   xmlns:cc="http://creativecommons.org/ns#"
   xmlns:rdf="http://www.w3.org/1999/02/22-rdf-syntax-ns#"
   xmlns:svg="http://www.w3.org/2000/svg"
   xmlns="http://www.w3.org/2000/svg"
   xmlns:sodipodi="http://sodipodi.sourceforge.net/DTD/sodipodi-0.dtd"
   xmlns:inkscape="http://www.inkscape.org/namespaces/inkscape"
   width="48"
   height="48"
   id="svg3979"
   version="1.1"
   inkscape:version="0.48+devel r12392"
   sodipodi:docname="archive-insert-directory.svg">
  <defs
     id="defs3981" />
  <sodipodi:namedview
     id="base"
     pagecolor="#ffffff"
     bordercolor="#666666"
     borderopacity="1.0"
     inkscape:pageopacity="0.0"
     inkscape:pageshadow="2"
     inkscape:zoom="12.28598"
     inkscape:cx="24.365031"
     inkscape:cy="26.096437"
     inkscape:document-units="px"
     inkscape:current-layer="layer1"
     showgrid="false"
     fit-margin-top="0"
     fit-margin-left="0"
     fit-margin-right="0"
     fit-margin-bottom="0"
     inkscape:window-width="1366"
     inkscape:window-height="718"
     inkscape:window-x="0"
     inkscape:window-y="30"
     inkscape:window-maximized="1" />
  <metadata
     id="metadata3984">
    <rdf:RDF>
      <cc:Work
         rdf:about="">
        <dc:format>image/svg+xml</dc:format>
        <dc:type
           rdf:resource="http://purl.org/dc/dcmitype/StillImage" />
        <dc:title></dc:title>
      </cc:Work>
    </rdf:RDF>
  </metadata>
  <g
     inkscape:label="Capa 1"
     inkscape:groupmode="layer"
     id="layer1"
     transform="translate(-601.71428,-491.21933)">
    <path
       inkscape:connector-curvature="0"
       id="path262"
       style="fill:#38a2ec;fill-opacity:1;fill-rule:nonzero;stroke:none"
       d="m 644.47428,518.84108 -1.32,0 0,5.24 -5.19578,0 0,1.32 5.19578,0 0,5.19644 1.32,0 0,-5.19644 5.24,0 0,-1.32 -5.24,0 0,-5.24"
       sodipodi:nodetypes="ccccccccccccc" />
    <g
       transform="translate(597.28129,-513.14287)"
       id="layer1-0"
       inkscape:label="Capa 1">
      <path
         sodipodi:nodetypes="sssccsssssscssccsccsssssssssc"
         d="m 33.847637,1043.2524 -26.195133,0 c -0.886976,0 -1.609757,-0.7227 -1.609757,-1.6097 l 0,-15.3171 29.414647,0 0,15.3171 C 35.457394,1042.5297 34.735418,1043.2524 33.847637,1043.2524 z m -27.80489,-28.1707 c 0,-0.8877 0.722781,-1.6097 1.609757,-1.6097 l 6.048783,0 c 0.887781,0 1.0435,0.9261 1.609756,1.6097 l 0,2.4146 18.536594,0 c 0.887781,0 1.311606,0.7735 1.609757,1.6098 l 0,5.6097 L 6.042747,1024.7158 z m 27.80489,0.8049 -16.926837,0 0,-0.8049 c 0,-1.778 -1.441537,-3.2195 -3.219513,-3.2195 l -6.048783,0 c -1.777977,0 -3.219514,1.4415 -3.219514,3.2195 l 0,26.561 c 0,1.778 1.441537,3.2195 3.219514,3.2195 l 26.195133,0 c 1.777976,0 3.219513,-1.4415 3.219513,-3.2195 l 0,-22.5366 c 0,-1.778 -1.441537,-3.2195 -3.219513,-3.2195"
         style="fill:#38a2ec;fill-opacity:1;fill-rule:nonzero;stroke:none"
         id="path228"
         inkscape:connector-curvature="0" />
    </g>
  </g>
</svg>
