<?xml version="1.0" encoding="UTF-8" standalone="no"?>
<!-- Created with Inkscape (http://www.inkscape.org/) -->
<svg id="svg4135" xmlns="http://www.w3.org/2000/svg" height="16" width="16" version="1.1" xmlns:xlink="http://www.w3.org/1999/xlink">
 <defs id="defs4137">
  <linearGradient id="linearGradient9796" y2="185.24" gradientUnits="userSpaceOnUse" x2="321" gradientTransform="matrix(.75 0 0 .77778 75.125 78.667)" y1="169" x1="318.06">
   <stop id="stop9730" style="stop-color:#babdb6" offset="0"/>
   <stop id="stop9732" style="stop-color:#555753" offset="1"/>
  </linearGradient>
  <linearGradient id="linearGradient9860" y2="174.98" gradientUnits="userSpaceOnUse" x2="311.14" gradientTransform="matrix(.73333 0 0 .8 79.6 75.8)" y1="182.35" x1="313.5">
   <stop id="stop9304" style="stop-color:#fff" offset="0"/>
   <stop id="stop9306" style="stop-color:#eeeeec" offset="1"/>
  </linearGradient>
  <linearGradient id="linearGradient9858" y2="226.2" gradientUnits="userSpaceOnUse" x2="304.54" y1="218.95" x1="304.54">
   <stop id="stop9854" style="stop-color:#fff" offset="0"/>
   <stop id="stop9856" style="stop-color:#fff;stop-opacity:0" offset="1"/>
  </linearGradient>
  <linearGradient id="linearGradient4300" y2="171.16" gradientUnits="userSpaceOnUse" x2="308.43" gradientTransform="matrix(1 0 0 .75 0 41.875)" y1="169.16" x1="308.43">
   <stop id="stop9392" style="stop-color:#d3d7cf" offset="0"/>
   <stop id="stop9394" style="stop-color:#eeeeec" offset="1"/>
  </linearGradient>
  <linearGradient id="linearGradient4302" y2="167.34" gradientUnits="userSpaceOnUse" x2="309.56" gradientTransform="matrix(1 0 0 .75 0 41.875)" y1="171.28" x1="309.56">
   <stop id="stop9608" style="stop-color:#555753" offset="0"/>
   <stop id="stop9610" style="stop-color:#d3d7cf" offset=".66795"/>
   <stop id="stop9612" style="stop-color:#888a85" offset="1"/>
  </linearGradient>
  <linearGradient id="linearGradient2427" y2="31.138" gradientUnits="userSpaceOnUse" x2="-93.088" gradientTransform="matrix(.40329 -.097565 .096555 .40751 40.869 -4.5802)" y1="2.0691" x1="-86.129">
   <stop id="stop2266" style="stop-color:#d7e866" offset="0"/>
   <stop id="stop2268" style="stop-color:#8cab2a" offset="1"/>
  </linearGradient>
  <linearGradient id="linearGradient2899" y2="39.78" gradientUnits="userSpaceOnUse" x2="20.494" gradientTransform="matrix(.41388 0 0 .41629 -3.3898 -1.7776)" y1="7.044" x1="20.494">
   <stop id="stop3402" style="stop-color:#fff" offset="0"/>
   <stop id="stop3404" style="stop-color:#fff;stop-opacity:0" offset="1"/>
  </linearGradient>
 </defs>
 <g id="layer1">
  <g id="g9840" style="enable-background:new" transform="translate(-302,-209)">
   <rect id="rect9736" style="stroke:url(#linearGradient9796);enable-background:new;fill:#babdb6" rx=".79167" ry=".79167" height="14" width="12" y="210.5" x="303.5"/>
   <rect id="rect9738" style="enable-background:new;fill:url(#linearGradient9860)" rx="0" ry="0" height="12" width="11" y="211" x="304"/>
   <rect id="rect9740" style="enable-background:new;fill:#2e3436" rx="0" ry="0" height="1" width="13" y="224" x="303"/>
   <rect id="rect9742" style="opacity:.5;stroke:url(#linearGradient9858);enable-background:new;fill:none" rx="0" ry="0" height="12" width="10" y="211.5" x="304.5"/>
   <path id="path9862" style="opacity:.1;enable-background:new" d="m306.5 211c-0.828 0-1.5 0.672-1.5 1.5s0.67201 1.5 1.5 1.5c0.38234 0 0.73499-0.13923 1-0.375 0.26501 0.23577 0.61766 0.375 1 0.375s0.73499-0.13923 1-0.375c0.26501 0.23577 0.61766 0.375 1 0.375s0.73499-0.13923 1-0.375c0.26501 0.23577 0.61766 0.375 1 0.375 0.828 0 1.5-0.672 1.5-1.5s-0.67199-1.5-1.5-1.5c-0.38234 0-0.73499 0.13923-1 0.375-0.26501-0.23577-0.61766-0.375-1-0.375s-0.73499 0.13923-1 0.375c-0.26501-0.23577-0.61766-0.375-1-0.375s-0.73499 0.13923-1 0.375c-0.26501-0.23577-0.61766-0.375-1-0.375z"/>
   <g id="g9746" style="enable-background:new" transform="translate(-2,42)">
    <rect id="rect9748" style="stroke-linejoin:round;stroke:url(#linearGradient4302);fill:url(#linearGradient4300)" rx="1" ry="1" height="3" width="2" y="167.5" x="307.5"/>
    <rect id="rect9750" style="fill:#fff" rx="1.5926" ry="1.3438" height="1.3438" width="1.3438" y="167.69" x="307.5"/>
   </g>
   <use id="use9834" xlink:href="#g9746" transform="translate(2)" height="300" width="400" y="0" x="0"/>
   <use id="use9836" style="enable-background:new" xlink:href="#g9746" transform="translate(4)" height="300" width="400" y="0" x="0"/>
   <use id="use9838" style="enable-background:new" xlink:href="#g9746" transform="translate(6)" height="300" width="400" y="0" x="0"/>
  </g>
  <g id="g9871" style="enable-background:new" transform="translate(-302,-209)">
   <rect id="rect9762" style="opacity:0.48;enable-background:new;fill:#888a85" rx="0" ry="0" height="1" width="1" y="215" x="306"/>
   <rect id="rect9764" style="opacity:0.48;enable-background:new;fill:#888a85" rx="0" ry="0" height="1" width="4" y="215" x="308"/>
   <rect id="rect9766" style="opacity:0.48;enable-background:new;fill:#888a85" rx="0" ry="0" height="1" width="4" y="221" x="308"/>
   <rect id="rect9770" style="opacity:0.48;enable-background:new;fill:#888a85" rx="0" ry="0" height="1" width="1" y="217" x="306"/>
   <rect id="rect9772" style="opacity:0.48;enable-background:new;fill:#888a85" rx="0" ry="0" height="1" width="4" y="217" x="308"/>
   <rect id="rect9776" style="opacity:0.48;enable-background:new;fill:#888a85" rx="0" ry="0" height="1" width="1" y="219" x="306"/>
   <rect id="rect9780" style="opacity:0.48;enable-background:new;fill:#888a85" rx="0" ry="0" height="1.0002" width="5.0001" y="219" x="308"/>
   <rect id="rect9784" style="opacity:0.48;enable-background:new;fill:#888a85" rx="0" ry="0" height="1" width="1" y="221" x="306"/>
  </g>
 </g>
 <g id="layer1-1" transform="matrix(.59968 0 0 .62642 7.8023 5.7962)">
  <path id="path1542" style="stroke-linejoin:round;stroke:#699536;stroke-linecap:round;stroke-width:1.5664;fill:url(#linearGradient2427)" d="m10.416 0.80249c-0.222-0.02276-0.4424 0.08706-0.5564 0.29791l-4.8576 8.9806-3.1231-2.509c-0.2782-0.1536-0.6253-0.0548-0.7773 0.2263l-1.4005 1.8169c-0.15201 0.2811-0.049748 0.63172 0.22845 0.78533 0 0 5.7025 4.759 5.7095 4.7626 0.065201 0.036 0.13339 0.05411 0.20269 0.06297 0.22641 0.02891 0.45812-0.07858 0.5745-0.2938l6.5507-12.112c0.152-0.2807 0.05-0.6313-0.228-0.7849l-2.102-1.1656c-0.06955-0.038402-0.14671-0.059471-0.22068-0.067056z"/>
  <path id="path2429" style="opacity:.4;stroke:url(#linearGradient2899);stroke-linecap:round;stroke-width:1.0028;fill:none" d="m10.645 1.6562-5.3125 9.8125a0.15035 0.15035 0 0 1 0 0.03125 0.15035 0.15035 0 0 1 -0.03125 0.03125 0.15035 0.15035 0 0 1 -0.03125 0 0.15035 0.15035 0 0 1 -0.03125 0.03125 0.15035 0.15035 0 0 1 -0.03125 0 0.15035 0.15035 0 0 1 -0.03125 0 0.15035 0.15035 0 0 1 -0.03125 -0.03125 0.15035 0.15035 0 0 1 -0.03125 0l-3.6564-2.907c-0.32388 0.40246-0.60092 0.77792-0.96875 1.25 0.1123 0.093077 1.303 1.09 2.625 2.1875 0.6912 0.57379 1.3815 1.1568 1.9062 1.5938 0.26235 0.21848 0.4994 0.39983 0.65625 0.53125 0.050142 0.04201 0.088455 0.06296 0.125 0.09375 0.052555-0.09355 0.10901-0.18055 0.25-0.4375 0.19196-0.34986 0.43971-0.83698 0.75-1.4062 0.62059-1.1385 1.4445-2.6103 2.25-4.0938 0.8057-1.4836 1.581-2.9752 2.188-4.0939 0.30316-0.55933 0.56868-1.0087 0.75-1.3438 0.14198-0.26236 0.21072-0.36449 0.25-0.4375-0.05507-0.031347-0.09995-0.061486-0.21875-0.125-0.17189-0.091893-0.37888-0.19988-0.59375-0.3125s-0.43193-0.22715-0.59375-0.3125c-0.06696-0.035318-0.14091-0.037473-0.1875-0.0625z"/>
 </g>
</svg>
