<?xml version="1.0" encoding="UTF-8" standalone="no"?>
<!-- Created with Inkscape (http://www.inkscape.org/) -->

<svg
   xmlns:dc="http://purl.org/dc/elements/1.1/"
   xmlns:cc="http://creativecommons.org/ns#"
   xmlns:rdf="http://www.w3.org/1999/02/22-rdf-syntax-ns#"
   xmlns:svg="http://www.w3.org/2000/svg"
   xmlns="http://www.w3.org/2000/svg"
   xmlns:sodipodi="http://sodipodi.sourceforge.net/DTD/sodipodi-0.dtd"
   xmlns:inkscape="http://www.inkscape.org/namespaces/inkscape"
   width="48"
   height="48"
   id="svg4196"
   version="1.1"
   inkscape:version="0.48+devel r12392"
   sodipodi:docname="mail.svg">
  <defs
     id="defs4198" />
  <sodipodi:namedview
     id="base"
     pagecolor="#ffffff"
     bordercolor="#666666"
     borderopacity="1.0"
     inkscape:pageopacity="0.0"
     inkscape:pageshadow="2"
     inkscape:zoom="3.0679688"
     inkscape:cx="26.404786"
     inkscape:cy="-9.5589117"
     inkscape:document-units="px"
     inkscape:current-layer="layer1"
     showgrid="false"
     inkscape:window-width="1366"
     inkscape:window-height="715"
     inkscape:window-x="0"
     inkscape:window-y="30"
     inkscape:window-maximized="1" />
  <metadata
     id="metadata4201">
    <rdf:RDF>
      <cc:Work
         rdf:about="">
        <dc:format>image/svg+xml</dc:format>
        <dc:type
           rdf:resource="http://purl.org/dc/dcmitype/StillImage" />
        <dc:title />
      </cc:Work>
    </rdf:RDF>
  </metadata>
  <g
     inkscape:label="Capa 1"
     inkscape:groupmode="layer"
     id="layer1"
     transform="translate(0,-1004.3622)">
    <path
       d="M 39.18,1036.7891 30.60924,1028.2177 39.18,1019.6462 39.18,1036.7891 z m -29.30664,0.8131 8.45196,-8.4506 3.653126,3.6524 c 0.539194,0.5406 1.25796,0.8382 2.021554,0.8382 0.76428,0 1.48236,-0.2976 2.02224,-0.8382 l 3.653126,-3.6531 8.451274,8.4513 L 9.87336,1037.6022 Z M 8.82,1019.6482 17.391446,1028.2177 8.82,1036.7884 8.82,1019.6482 z m 29.01756,-0.526 -12.74856,12.7486 c -0.581434,0.5814 -1.59588,0.5814 -2.177314,0 L 10.16112,1019.1222 37.83756,1019.1222 z m 1.32,-1.32 -31.65756,0 0,21.12 33,0 0,-21.12 -1.34244,0"
       style="fill:#38a2ec;fill-opacity:1;fill-rule:nonzero;stroke:none"
       id="path234-9"
       inkscape:connector-curvature="0" />
  </g>
</svg>
