<?xml version="1.0" encoding="UTF-8" standalone="no"?>
<!-- Created with Inkscape (http://www.inkscape.org/) -->
<svg id="svg2" xmlns="http://www.w3.org/2000/svg" height="48" width="48" version="1.0" xmlns:xlink="http://www.w3.org/1999/xlink">
 <defs id="defs4">
  <linearGradient id="linearGradient4190">
   <stop id="stop4192" offset="0"/>
   <stop id="stop4194" style="stop-opacity:0" offset="1"/>
  </linearGradient>
  <linearGradient id="linearGradient7603">
   <stop id="stop7605" style="stop-color:#afafaf" offset="0"/>
   <stop id="stop7607" style="stop-color:#5a5a5a" offset="1"/>
  </linearGradient>
  <linearGradient id="linearGradient4135" y2="44.5" xlink:href="#linearGradient7603" gradientUnits="userSpaceOnUse" x2="24.5" y1="3" x1="24.5"/>
  <radialGradient id="radialGradient4143" gradientUnits="userSpaceOnUse" cy="10.895" cx="23.528" gradientTransform="matrix(1.3889 -2.8719e-7 4.4279e-7 2.1414 -9.1501 -13.541)" r="2.5">
   <stop id="stop4576" style="stop-color:#828282" offset="0"/>
   <stop id="stop4578" style="stop-color:#646662" offset="1"/>
  </radialGradient>
  <radialGradient id="radialGradient4172" gradientUnits="userSpaceOnUse" cy="16.539" cx="16.184" gradientTransform="matrix(4.3195 -.085864 .060478 3.0424 -54.725 -36.555)" r="13.477">
   <stop id="stop6546" style="stop-color:#fafafa" offset="0"/>
   <stop id="stop6548" style="stop-color:#c8c8c8" offset="1"/>
  </radialGradient>
  <linearGradient id="linearGradient4174" y2="45" xlink:href="#linearGradient7603" gradientUnits="userSpaceOnUse" x2="24.5" y1="3" x1="24.559"/>
  <linearGradient id="linearGradient4188" y2="44" gradientUnits="userSpaceOnUse" x2="24.559" y1="4.1102" x1="23.823">
   <stop id="stop6969" style="stop-color:#fff" offset="0"/>
   <stop id="stop6971" style="stop-color:#fff;stop-opacity:0" offset="1"/>
  </linearGradient>
  <linearGradient id="linearGradient4198" y2="34" xlink:href="#linearGradient4190" gradientUnits="userSpaceOnUse" x2="13" y1="33" x1="16"/>
  <linearGradient id="linearGradient4206" y2="34" xlink:href="#linearGradient4190" gradientUnits="userSpaceOnUse" x2="36" y1="33.05" x1="32.99"/>
  <radialGradient id="radialGradient3626" xlink:href="#linearGradient4190" gradientUnits="userSpaceOnUse" cy="34.157" cx="4.6022" gradientTransform="matrix(1 0 0 .74569 0 8.6866)" r="8.3415"/>
 </defs>
 <path id="path3616" style="opacity:.5;fill:url(#radialGradient3626)" d="m12.944 34.157a8.3415 6.2201 0 1 1 -16.683 0 8.3415 6.2201 0 1 1 16.683 0z" transform="matrix(1.7383 0 0 1.045 16.5 4.8057)"/>
 <path id="path3068" style="stroke:url(#linearGradient4174);fill:url(#radialGradient4172)" d="m24.594 3.5c-4.369 0-8.757 0.9973-10.813 2.9688-3.12 6.5812-2.395 12.749-1.031 19.031-0.17356 4.5886-0.48988 4.5 0 9h0.03125c0.4244 5.5842 5.5348 10 11.75 10s11.294-4.4158 11.719-10c0.50992-4.4085 0.10564-4.5483 0.03125-8.7812 1.4-6.358 2.25-12.592-0.906-19.25-2.056-1.9717-6.412-2.969-10.781-2.969z"/>
 <rect id="rect4176" style="opacity:.6;fill:#fff" height="20.5" width="2" y="4" x="23.5"/>
 <path id="path4184" style="opacity:.7;stroke:url(#linearGradient4188);fill:none" d="m24.594 4.5c-4.1229 0-8.2249 1.0522-9.9688 2.5938-2.8896 6.2401-2.244 12.029-0.90625 18.188a0.98841 0.98841 0 0 1 0.03125 0.25c-0.17154 4.5353-0.47291 4.5188-0.03125 8.6875a0.98841 0.98841 0 0 1 0 0.03125 0.98841 0.98841 0 0 1 0.0625 0.1875c0.38196 5.0257 5.0029 9.0625 10.75 9.0625s10.337-4.0331 10.719-9.0625a0.98841 0.98841 0 0 1 0.03125 -0.0625c0.50279-4.3469 0.07549-4.3295 0-8.625a0.98841 0.98841 0 0 1 0.03 -0.251c1.376-6.245 2.139-12.098-0.781-18.406-1.745-1.5448-5.814-2.594-9.937-2.594z"/>
 <rect id="rect3847" style="fill:url(#linearGradient4135)" height="21" width="1" y="3" x="24"/>
 <rect id="rect3845" style="stroke-linejoin:round;stroke:#5a5a5a;stroke-linecap:round;fill:url(#radialGradient4143)" rx="2" ry="2" height="9" width="4" y="7.5" x="22.5"/>
 <path id="path4161" style="opacity:.5;fill:url(#linearGradient4206)" d="m35.8 25.6c-1.031 4.459-2.8 9.4-2.8 14.9 0.978-1.191 3.155-2.5 3-10.5l-0.2-4.4z"/>
 <path id="path4164" style="opacity:.5;fill:url(#linearGradient4198)" d="m13.198 25.3c1.0312 4.4592 2.8025 9.7 2.8 15.2-0.9779-1.1906-3.1547-2.5-3-10.5l0.2-4.7z"/>
</svg>
