<?xml version="1.0" encoding="UTF-8" standalone="no"?>
<!-- Created with Inkscape (http://www.inkscape.org/) -->
<svg id="svg3795" xmlns="http://www.w3.org/2000/svg" height="48" width="48" version="1.0" xmlns:xlink="http://www.w3.org/1999/xlink">
 <defs id="defs3797">
  <radialGradient id="radialGradient2464" gradientUnits="userSpaceOnUse" cy="41.636" cx="23.335" gradientTransform="matrix(.97227 0 0 .28724 1.3125 27.541)" r="22.627">
   <stop id="stop23421" offset="0"/>
   <stop id="stop23423" style="stop-opacity:0" offset="1"/>
  </radialGradient>
  <linearGradient id="linearGradient3258" y2="14.203" gradientUnits="userSpaceOnUse" x2="35.391" gradientTransform="matrix(0 1.1714 -1.1714 0 51.06 -4.1145)" y1="32.416" x1="12.274">
   <stop id="stop3265" style="stop-color:#dedbde" offset="0"/>
   <stop id="stop3267" style="stop-color:#e6e6e6" offset=".5"/>
   <stop id="stop3269" style="stop-color:#d2d2d2" offset="1"/>
  </linearGradient>
  <linearGradient id="linearGradient3434" y2="32.509" gradientUnits="userSpaceOnUse" x2="21.448" gradientTransform="matrix(.9375 0 0 .9375 1.5 1.5)" y1="15.5" x1="21.448">
   <stop id="stop3430" style="stop-color:#aaa" offset="0"/>
   <stop id="stop3432" style="stop-color:#d4d4d4" offset="1"/>
  </linearGradient>
  <linearGradient id="linearGradient3717" y2="20.613" xlink:href="#linearGradient3519" spreadMethod="reflect" gradientUnits="userSpaceOnUse" x2="9.7298" y1="17.886" x1="10.609"/>
  <linearGradient id="linearGradient3715" y2="13.462" xlink:href="#linearGradient3511" spreadMethod="reflect" gradientUnits="userSpaceOnUse" x2="14.609" y1="16.188" x1="12.372"/>
  <linearGradient id="linearGradient3713" y2="10.732" xlink:href="#linearGradient3503" spreadMethod="reflect" gradientUnits="userSpaceOnUse" x2="16.994" y1="13.046" x1="14.085"/>
  <linearGradient id="linearGradient3711" y2="9.7956" xlink:href="#linearGradient3495" spreadMethod="reflect" gradientUnits="userSpaceOnUse" x2="21.047" y1="11.2" x1="17.495"/>
  <linearGradient id="linearGradient3709" y2="9.8622" xlink:href="#linearGradient3487" spreadMethod="reflect" gradientUnits="userSpaceOnUse" x2="24.274" y1="10.775" x1="20.58"/>
  <linearGradient id="linearGradient3519">
   <stop id="stop3521" style="stop-color:#fcd9cd" offset="0"/>
   <stop id="stop3523" style="stop-color:#fcd9cd;stop-opacity:0" offset="1"/>
  </linearGradient>
  <linearGradient id="linearGradient3511">
   <stop id="stop3513" style="stop-color:#ebeec7" offset="0"/>
   <stop id="stop3515" style="stop-color:#ebeec7;stop-opacity:0" offset="1"/>
  </linearGradient>
  <linearGradient id="linearGradient3503">
   <stop id="stop3505" style="stop-color:#c4ebdd" offset="0"/>
   <stop id="stop3507" style="stop-color:#c4ebdd;stop-opacity:0" offset="1"/>
  </linearGradient>
  <linearGradient id="linearGradient3495">
   <stop id="stop3497" style="stop-color:#c1cbe4" offset="0"/>
   <stop id="stop3499" style="stop-color:#c1cbe4;stop-opacity:0" offset="1"/>
  </linearGradient>
  <linearGradient id="linearGradient3487">
   <stop id="stop3489" style="stop-color:#e6cde2" offset="0"/>
   <stop id="stop3491" style="stop-color:#e6cde2;stop-opacity:0" offset="1"/>
  </linearGradient>
  <linearGradient id="linearGradient3766" y2="54.698" xlink:href="#linearGradient6036" gradientUnits="userSpaceOnUse" x2="48.799" gradientTransform="matrix(.98497 0 0 .98497 .019022 -.62415)" y1="3.61" x1="10.502"/>
  <linearGradient id="linearGradient3778" y2="45.176" gradientUnits="userSpaceOnUse" x2="20.019" y1="3" x1="20.019">
   <stop id="stop3774" style="stop-color:#b4b4b4" offset="0"/>
   <stop id="stop3776" style="stop-color:#969696" offset="1"/>
  </linearGradient>
  <linearGradient id="linearGradient6036">
   <stop id="stop6038" style="stop-color:#fff" offset="0"/>
   <stop id="stop6040" style="stop-color:#fff;stop-opacity:0" offset="1"/>
  </linearGradient>
  <linearGradient id="linearGradient3294" y2="45.962" xlink:href="#linearGradient6036" gradientUnits="userSpaceOnUse" x2="18.203" gradientTransform="matrix(.42934 0 0 .42934 13.547 13.266)" y1="4.0378" x1="18.776"/>
 </defs>
 <g id="layer1">
  <path id="path23417" style="opacity:.3;fill-rule:evenodd;fill:url(#radialGradient2464)" d="m46 39.5c0.0011 3.5898-9.8489 6.5-22 6.5s-22.001-2.9102-22-6.5c-0.0011-3.59 9.849-6.5 22-6.5s22.001 2.9102 22 6.5z"/>
  <path id="path2781" style="fill:url(#linearGradient3258)" d="m44.5 24c0-11.363-9.137-20.5-20.5-20.5s-20.5 9.137-20.5 20.5c-0.000002 11.363 9.137 20.5 20.5 20.5 11.363-0.000002 20.5-9.137 20.5-20.5zm-12.5 0c0 4.623-3.377 8-8 8s-8-3.377-8-8 3.377-8 8-8 8 3.377 8 8z"/>
  <path id="path2474" style="opacity:.5;fill:#fff" d="m24 16c-4.416 0-8 3.584-8 8s3.584 8 8 8 8-3.584 8-8-3.584-8-8-8zm0 4c2.208 0 4 1.792 4 4s-1.792 4-4 4-4-1.792-4-4 1.792-4 4-4z"/>
  <path id="path3418" style="stroke-linejoin:round;stroke:url(#linearGradient3434);fill:none" d="m24 16.5c-4.14 0-7.5 3.36-7.5 7.5s3.36 7.5 7.5 7.5 7.5-3.36 7.5-7.5-3.36-7.5-7.5-7.5zm0 3.75c2.07 0 3.75 1.68 3.75 3.75s-1.68 3.75-3.75 3.75-3.75-1.68-3.75-3.75 1.68-3.75 3.75-3.75z"/>
  <g id="g3527">
   <path id="path3296" style="opacity:.8;fill:url(#linearGradient3709)" d="m24 3.5c-2.9758 0-5.7974 0.62082-8.3438 1.75l4.969 11.094c1.035-0.459 2.17-0.719 3.375-0.719 0.03206 0 0.06178-0.00036 0.09375 0v-12.125c-0.03127-0.0001386-0.06245 0-0.09375 0z" transform="matrix(.99960 .028243 -.028243 .99960 .69241 -.67083)"/>
   <path id="path3308" style="opacity:.8;fill:url(#linearGradient3711)" d="m19.597 3.9975c-2.9067 0.63758-5.5298 1.8485-7.775 3.4971l7.2303 9.7715c0.91311-0.66976 1.9659-1.1671 3.1426-1.4252 0.03132-0.0069 0.06026-0.01359 0.09157-0.02009l-2.597-11.844c-0.03058 0.00656-0.061 0.013379-0.09157 0.020086z"/>
   <path id="path3310" style="opacity:.8;fill:url(#linearGradient3713)" d="m14.558 5.8449c-2.642 1.3681-4.8627 3.2167-6.6048 5.3901l9.513 7.5673c0.70865-0.88326 1.5969-1.6361 2.6667-2.19 0.02847-0.01474 0.05469-0.02872 0.08325-0.0431l-5.575-10.767c-0.02783 0.014254-0.05545 0.02871-0.08325 0.043103z"/>
   <path id="path3312" style="opacity:.8;fill:url(#linearGradient3715)" d="m10.169 8.9335c-2.1986 2.0055-3.8648 4.3655-4.985 6.9165l11.147 4.847c0.4559-1.0366 1.119-1.9937 2.009-2.8055 0.02369-0.02161 0.0454-0.0419 0.06926-0.06318l-8.171-8.9577c-0.0232 0.020972-0.04613 0.042084-0.06926 0.063182z"/>
   <path id="path3314" style="opacity:.8;fill:url(#linearGradient3717)" d="m6.7812 12.969c-0.016978 0.02626-0.045621 0.06739-0.0625 0.09375-1.1482 1.7935-1.9617 3.6813-2.5 5.625l11.75 3.125c0.21551-0.763 0.51805-1.5148 0.96875-2.2188 0.01729-0.027 0.04496-0.06702 0.0625-0.09375l-10.219-6.531z"/>
  </g>
  <g id="g3642" style="opacity:.8" transform="matrix(-1,0,0,-1,48,48)">
   <path id="path3644" style="opacity:.8;fill:url(#linearGradient3709)" d="m24 3.5c-2.9758 0-5.7974 0.62082-8.3438 1.75l4.969 11.094c1.035-0.459 2.17-0.719 3.375-0.719 0.03206 0 0.06178-0.00036 0.09375 0v-12.125c-0.03127-0.0001386-0.06245 0-0.09375 0z" transform="matrix(.99960 .028243 -.028243 .99960 .69241 -.67083)"/>
   <path id="path3646" style="opacity:.8;fill:url(#linearGradient3711)" d="m19.597 3.9975c-2.9067 0.63758-5.5298 1.8485-7.775 3.4971l7.2303 9.7715c0.91311-0.66976 1.9659-1.1671 3.1426-1.4252 0.03132-0.0069 0.06026-0.01359 0.09157-0.02009l-2.597-11.844c-0.03058 0.00656-0.061 0.013379-0.09157 0.020086z"/>
   <path id="path3648" style="opacity:.8;fill:url(#linearGradient3713)" d="m14.558 5.8449c-2.642 1.3681-4.8627 3.2167-6.6048 5.3901l9.513 7.5673c0.70865-0.88326 1.5969-1.6361 2.6667-2.19 0.02847-0.01474 0.05469-0.02872 0.08325-0.0431l-5.575-10.767c-0.02783 0.014254-0.05545 0.02871-0.08325 0.043103z"/>
   <path id="path3650" style="opacity:.8;fill:url(#linearGradient3715)" d="m10.169 8.9335c-2.1986 2.0055-3.8648 4.3655-4.985 6.9165l11.147 4.847c0.4559-1.0366 1.119-1.9937 2.009-2.8055 0.02369-0.02161 0.0454-0.0419 0.06926-0.06318l-8.171-8.9577c-0.0232 0.020972-0.04613 0.042084-0.06926 0.063182z"/>
   <path id="path3652" style="opacity:.8;fill:url(#linearGradient3717)" d="m6.7812 12.969c-0.016978 0.02626-0.045621 0.06739-0.0625 0.09375-1.1482 1.7935-1.9617 3.6813-2.5 5.625l11.75 3.125c0.21551-0.763 0.51805-1.5148 0.96875-2.2188 0.01729-0.027 0.04496-0.06702 0.0625-0.09375l-10.219-6.531z"/>
  </g>
  <path id="path2787" style="opacity:.5;stroke:url(#linearGradient3766);fill:none" d="m24 4.5c-10.809 0-19.5 8.6914-19.5 19.5s8.6914 19.5 19.5 19.5 19.5-8.691 19.5-19.5-8.691-19.5-19.5-19.5z"/>
  <path id="path3287" style="stroke:url(#linearGradient3778);fill:none" d="m24 3.5c-11.363 0-20.5 9.137-20.5 20.5s9.137 20.5 20.5 20.5 20.5-9.137 20.5-20.5-9.137-20.5-20.5-20.5z"/>
  <path id="path3281" style="opacity:.8;stroke:url(#linearGradient3294);fill:none" d="m24 15.5c-4.7114 0-8.5 3.7886-8.5 8.5s3.7886 8.5 8.5 8.5 8.5-3.7886 8.5-8.5-3.7886-8.5-8.5-8.5z"/>
 </g>
 <path id="text3476" style="opacity:.3;stroke:#666;stroke-width:2.5" d="m13.658 38.277c0.68015 0.09583 1.3603 0.19166 2.0404 0.2875-0.65133 1.9088-2.7048 3.3457-4.8785 3.171-1.7432 0.0451-3.3139-1.2161-3.4783-2.832-0.44932-2.4826 0.76663-5.5082 3.5236-6.3766 1.83-0.63646 4.3343-0.20667 5.117 1.6083 0.45704 0.7394 0.32321 1.3167-0.65008 1.1764-0.88622 0.2646-1.1634-0.09699-1.4032-0.8599-1.1321-1.1697-3.3109-0.39341-3.9547 0.92147-0.70628 1.2968-1.1932 3.1554-0.034518 4.3257 1.3038 1.1338 3.3563 0.02306 3.7183-1.4219v0.000001zm2.7903 3.3c0.73995-3.0541 1.4799-6.1083 2.2199-9.1624 1.6385 0.0513 3.31-0.13924 4.9167 0.18242 2.019 0.54946 2.5996 2.7741 2.2644 4.511-0.29819 2.2278-2.241 4.3888-4.78 4.4346-1.5395 0.06488-3.0809 0.02197-4.621 0.03438zm2.3864-1.475c1.3947-0.02115 3.0941 0.21682 4.0058-1.0334 0.9959-1.2097 1.4051-2.9771 0.72756-4.3728-0.67391-1.0646-2.1251-0.70313-3.2434-0.76874l-1.49 6.1749zm7.9641-2.6937h3.7474c-0.1398 0.57708-0.27959 1.1542-0.41939 1.7312h-3.7474c0.1398-0.57708 0.27959-1.1542 0.41939-1.7312zm6.2473 4.1687h-2.0318c0.73995-3.0541 1.4799-6.1083 2.2199-9.1624 1.8642 0.0332 3.7399-0.07949 5.5942 0.08545 1.7986 0.17102 2.3497 2.295 1.5911 3.6168-0.22358 1.1747-2.4484 1.3233-2.5771 1.7419 0.95121 1.0798 1.4253 2.4419 1.9923 3.7183h-2.1798c-0.46907-1.1632-0.81842-2.4205-1.6277-3.423-0.458-0.41918-1.6598-0.53664-2.0972-0.22771l-0.88376 3.6507zm1.251-5.1687c1.2438-0.05531 2.6004 0.1933 3.7292-0.41405 1.4295-0.85072 0.3284-2.4944-1.1382-2.0484-0.66593 0-1.3319 0-1.9978-0.000001-0.19773 0.82083-0.39545 1.6417-0.59318 2.4625z"/>
 <path id="text3482" style="stroke:#666;stroke-width:2.5" d="m13.657 37.28c0.68002 0.09597 1.36 0.19195 2.0401 0.28792-0.63454 1.8352-2.5521 3.2653-4.6545 3.1797-1.7258 0.10843-3.4143-1.0168-3.6604-2.6384-0.53382-2.4831 0.5917-5.5627 3.3211-6.5313 1.8552-0.71448 4.4675-0.31749 5.2776 1.5542 0.42575 0.7074 0.36155 1.3195-0.60276 1.1739-0.64447 0.079-1.3075 0.26719-1.2793-0.59521-0.71067-1.2963-2.836-0.93614-3.6922 0.07726-1.03 1.2704-1.5893 3.1706-0.74182 4.6171 0.87556 1.2821 3.0578 0.79099 3.6921-0.48988 0.12251-0.20202 0.22056-0.41607 0.30015-0.63521zm2.7898 3.3048c0.73981-3.0586 1.4796-6.1173 2.2194-9.1759 1.5501 0.03925 3.1192-0.09949 4.6528 0.11737 1.9539 0.35036 2.7955 2.3704 2.586 4.0539-0.0944 2.3358-1.9443 4.7827-4.6055 4.9509-1.6156 0.09804-3.2357 0.03651-4.8528 0.05379zm2.3859-1.4772c1.3949-0.0205 3.0931 0.21679 4.005-1.0349 0.99722-1.2118 1.3995-2.9802 0.72742-4.3793-0.67287-1.0635-2.1246-0.70566-3.2427-0.76988l-1.4897 6.184zm7.9626-2.6977h3.7467l-0.41931 1.7338h-3.7467l0.41931-1.7338zm6.2461 4.1749h-2.0314c0.73981-3.0586 1.4796-6.1173 2.2194-9.1759 1.8639 0.03299 3.7392-0.07923 5.5931 0.08558 1.5828 0.14029 2.2306 1.8649 1.7872 3.1386-0.01951 1.4538-2.4639 1.8266-2.7731 2.228 0.95342 1.0793 1.4232 2.447 1.9919 3.7238h-2.1794c-0.49625-1.2024-0.82276-2.5434-1.7408-3.532-0.51254-0.33394-1.4404-0.33657-1.9652-0.19928l-0.90176 3.7313zm1.2508-5.1763c1.244-0.05464 2.5997 0.19305 3.7285-0.41466 1.4223-0.84453 0.33915-2.496-1.1262-2.0514h-2.0092c-0.19769 0.82204-0.39538 1.6441-0.59307 2.4661z"/>
 <path id="text3486" style="fill:#fff" d="m13.657 37.28c0.68002 0.09597 1.36 0.19195 2.0401 0.28792-0.63454 1.8352-2.5521 3.2653-4.6545 3.1797-1.7258 0.10843-3.4143-1.0168-3.6604-2.6384-0.53382-2.4831 0.5917-5.5627 3.3211-6.5313 1.8552-0.71448 4.4675-0.31749 5.2776 1.5542 0.42575 0.7074 0.36155 1.3195-0.60276 1.1739-0.64447 0.079-1.3075 0.26719-1.2793-0.59521-0.71067-1.2963-2.836-0.93614-3.6922 0.07726-1.03 1.2704-1.5893 3.1706-0.74182 4.6171 0.87556 1.2821 3.0578 0.79099 3.6921-0.48988 0.12251-0.20202 0.22056-0.41607 0.30015-0.63521zm2.7898 3.3048c0.73981-3.0586 1.4796-6.1173 2.2194-9.1759 1.5501 0.03925 3.1192-0.09949 4.6528 0.11737 1.9539 0.35036 2.7955 2.3704 2.586 4.0539-0.0944 2.3358-1.9443 4.7827-4.6055 4.9509-1.6156 0.09804-3.2357 0.03651-4.8528 0.05379zm2.3859-1.4772c1.3949-0.0205 3.0931 0.21679 4.005-1.0349 0.99722-1.2118 1.3995-2.9802 0.72742-4.3793-0.67287-1.0635-2.1246-0.70566-3.2427-0.76988l-1.4897 6.184zm7.9626-2.6977h3.7467l-0.41931 1.7338h-3.7467l0.41931-1.7338zm6.2461 4.1749h-2.0314c0.73981-3.0586 1.4796-6.1173 2.2194-9.1759 1.8639 0.03299 3.7392-0.07923 5.5931 0.08558 1.5828 0.14029 2.2306 1.8649 1.7872 3.1386-0.01951 1.4538-2.4639 1.8266-2.7731 2.228 0.95342 1.0793 1.4232 2.447 1.9919 3.7238h-2.1794c-0.49625-1.2024-0.82276-2.5434-1.7408-3.532-0.51254-0.33394-1.4404-0.33657-1.9652-0.19928l-0.90176 3.7313zm1.2508-5.1763c1.244-0.05464 2.5997 0.19305 3.7285-0.41466 1.4223-0.84453 0.33915-2.496-1.1262-2.0514h-2.0092c-0.19769 0.82204-0.39538 1.6441-0.59307 2.4661z"/>
</svg>
