<?xml version="1.0" encoding="UTF-8" standalone="no"?>
<!-- Created with Inkscape (http://www.inkscape.org/) -->
<svg id="svg3900" xmlns="http://www.w3.org/2000/svg" height="48" width="48" version="1.0" xmlns:xlink="http://www.w3.org/1999/xlink">
 <defs id="defs3902">
  <linearGradient id="linearGradient2925" y2="19.812" gradientUnits="userSpaceOnUse" x2="15.25" gradientTransform="matrix(.47619 0 0 0.6 12.571 4.2)" y1="8.4375" x1="12.938">
   <stop id="stop6594-0-2" style="stop-color:#fff;stop-opacity:.27451" offset="0"/>
   <stop id="stop6596-2-5" style="stop-color:#fff;stop-opacity:0" offset="1"/>
  </linearGradient>
  <radialGradient id="radialGradient3735" gradientUnits="userSpaceOnUse" cy="8.4179" cx="19.063" gradientTransform="matrix(1.1459 0 0 1.0872 -2.7816 .51522)" r="11">
   <stop id="stop9938" style="stop-color:#575757" offset="0"/>
   <stop id="stop9940" style="stop-color:#333" offset="1"/>
  </radialGradient>
  <linearGradient id="linearGradient2947" y2="13" gradientUnits="userSpaceOnUse" x2="35" y1="13" x1="13">
   <stop id="stop3739" style="stop-color:#121214" offset="0"/>
   <stop id="stop3741" style="stop-color:#393e44" offset=".093291"/>
   <stop id="stop3743" style="stop-color:#50555b" offset=".50236"/>
   <stop id="stop3745" style="stop-color:#22272d" offset=".91142"/>
   <stop id="stop3747" style="stop-color:#303438" offset="1"/>
  </linearGradient>
  <filter id="filter3817" color-interpolation-filters="sRGB">
   <feGaussianBlur id="feGaussianBlur3819" stdDeviation="0.67"/>
  </filter>
  <linearGradient id="linearGradient2950" y2="107.02" gradientUnits="userSpaceOnUse" x2="-74.342" gradientTransform="matrix(.41509 0 0 .39921 55.189 .89351)" y1="5.4862" x1="-74.836">
   <stop id="stop3145" style="stop-color:#e6e6e6" offset="0"/>
   <stop id="stop3147" style="stop-color:#afafaf" offset="1"/>
  </linearGradient>
  <linearGradient id="linearGradient2952" y2="340.79" gradientUnits="userSpaceOnUse" x2="-497" gradientTransform="matrix(1.8023 0 0 1.9109 910.75 -647.78)" y1="361.81" x1="-497">
   <stop id="stop3823" style="stop-color:gray" offset="0"/>
   <stop id="stop3825" style="stop-color:#999" offset="1"/>
  </linearGradient>
  <radialGradient id="radialGradient2955" xlink:href="#linearGradient51765" gradientUnits="userSpaceOnUse" cy="-12.203" cx="51.438" gradientTransform="matrix(-1.8417 -5.8451e-8 -1.2126e-7 .92001 107.73 55.225)" r="2.1719"/>
  <linearGradient id="linearGradient51765">
   <stop id="stop51767" offset="0"/>
   <stop id="stop51769" style="stop-opacity:0" offset="1"/>
  </linearGradient>
  <radialGradient id="radialGradient2958" xlink:href="#linearGradient51765" gradientUnits="userSpaceOnUse" cy="-12.203" cx="51.438" gradientTransform="matrix(1.8417 -5.1455e-7 6.267e-7 .92001 -59.734 55.225)" r="2.1719"/>
  <linearGradient id="linearGradient3898" y2="-5.5633" gradientUnits="userSpaceOnUse" x2="32.085" gradientTransform="matrix(.66551 0 0 .45188 .88235 48.514)" y1="-14.402" x1="32.085">
   <stop id="stop47872" style="stop-opacity:0" offset="0"/>
   <stop id="stop47878" offset=".5"/>
   <stop id="stop47874" style="stop-opacity:0" offset="1"/>
  </linearGradient>
 </defs>
 <g id="layer1">
  <rect id="rect46899" style="opacity:.3;fill:url(#linearGradient3898);fill-rule:evenodd" height="3.9941" width="22" y="42.006" x="13"/>
  <path id="path48849" style="opacity:.3;fill:url(#radialGradient2958);fill-rule:evenodd" d="m35 42v3.9963c2.205-0.01509 4-0.89779 4-1.9911s-1.795-1.9901-4-2.0052z"/>
  <path id="path52742" style="opacity:.3;fill:url(#radialGradient2955);fill-rule:evenodd" d="m13 42v3.9963c-2.205-0.01509-4-0.89779-4-1.9911s1.795-1.9901 4-2.0052z"/>
  <rect id="rect2459" style="stroke-linejoin:round;stroke-width:1.0436;fill-rule:evenodd;stroke:url(#linearGradient2952);stroke-linecap:round;stroke-miterlimit:3.4286;fill:url(#linearGradient2950)" rx="1.7865" ry="1.7865" height="41.956" width="26.956" y="2.5218" x="10.522"/>
  <rect id="rect2459-5" style="opacity:.3;fill-rule:evenodd;filter:url(#filter3817);fill:#fff" transform="matrix(.88992 0 0 .92727 1.2108 3.2003)" rx="2.0075" ry="1.9267" height="41" width="26" y="1.392" x="12.608"/>
  <rect id="rect4140" style="stroke-linejoin:round;stroke-width:.94886;fill-rule:evenodd;stroke:url(#linearGradient2947);stroke-linecap:round;stroke-miterlimit:3.4286;fill:url(#radialGradient3735)" rx="0" ry="0" height="15.051" width="21.051" y="5.4744" x="13.474"/>
  <path id="path2462" style="stroke-linejoin:round;stroke-width:1.019;fill-rule:evenodd;stroke:#ccc;stroke-linecap:round;stroke-miterlimit:3.4286;fill:#fff" d="m24 23.509c-4.69 0-8.4905 3.7973-8.4905 8.4834 0 4.686 3.8005 8.4976 8.4905 8.4976s8.4905-3.8116 8.4905-8.4976c0-4.6861-3.8005-8.4834-8.4905-8.4834h-0.000001zm0 4.5976c2.1458 0 3.8892 1.7419 3.8892 3.8858s-1.7434 3.8858-3.8892 3.8858c-2.1457 0.000021-3.8891-1.7419-3.8891-3.8858 0.00002-2.144 1.7434-3.8858 3.8891-3.8858z"/>
  <path id="rect6588" style="fill:url(#linearGradient2925)" d="m14 6h20v4.8l-20 4.2v-9z"/>
 </g>
</svg>
