<?xml version="1.0" encoding="UTF-8" standalone="no"?>
<!-- Created with Inkscape (http://www.inkscape.org/) -->
<svg id="svg2896" xmlns="http://www.w3.org/2000/svg" height="16" width="16" version="1.1">
 <g id="layer1" transform="translate(-5 4)">
  <g id="layer1-3" transform="translate(-2 -5)">
   <path id="path2805-4-1" style="stroke:#606060;stroke-linecap:round;stroke-width:.99999;fill:none" d="m20.391 5.2783a1.1956 1.1956 0 0 0 -1.519 -1.6725"/>
   <path id="path2818-0-7" style="stroke:#606060;stroke-linecap:round;stroke-width:.99999;fill:none" d="m18.551 3.6525a3.0947 3.0948 0 0 0 -6.051 0.9425"/>
   <path id="path2820-3-5" style="stroke:#606060;stroke-linecap:round;stroke-width:.99999;fill:none" d="m12.683 5.529a2.3886 2.3886 0 1 0 -1.895 3.9637"/>
   <path id="path2822-7-7" style="stroke:#606060;stroke-linecap:round;stroke-width:.99999;fill:none" d="m20.328 9.48a1.9882 1.9883 0 1 0 0.119 -3.9503"/>
   <path id="path16154-1" style="stroke-width:.99999;color:#000000;stroke:#606060;stroke-linecap:round;fill:none" d="m19.009 9.5h1.5127"/>
   <path id="path2805-4-1-8" style="stroke:#606060;stroke-linecap:round;stroke-width:.99999;fill:none" d="m19.391 12.278a1.1956 1.1956 0 0 0 -1.519 -1.672"/>
   <path id="path2818-0-7-0" style="stroke:#606060;stroke-linecap:round;stroke-width:.99999;fill:none" d="m17.551 10.653a3.0947 3.0948 0 0 0 -6.0509 0.94249"/>
   <path id="path2820-3-5-4" style="stroke:#606060;stroke-linecap:round;stroke-width:.99999;fill:none" d="m11.683 12.529a2.3886 2.3886 0 1 0 -1.8949 3.9637"/>
   <path id="path2822-7-7-1" style="stroke:#606060;stroke-linecap:round;stroke-width:.99999;fill:none" d="m19.328 16.48a1.9882 1.9883 0 1 0 0.11882 -3.9503"/>
   <path id="path16154-1-1" style="stroke-width:.99999;color:#000000;stroke:#606060;stroke-linecap:round;fill:none" d="m10.009 16.5h9.5127"/>
  </g>
 </g>
</svg>
