<?xml version="1.0" encoding="UTF-8" standalone="no"?>
<!-- Created with Inkscape (http://www.inkscape.org/) -->

<svg
   xmlns:dc="http://purl.org/dc/elements/1.1/"
   xmlns:cc="http://creativecommons.org/ns#"
   xmlns:rdf="http://www.w3.org/1999/02/22-rdf-syntax-ns#"
   xmlns:svg="http://www.w3.org/2000/svg"
   xmlns="http://www.w3.org/2000/svg"
   xmlns:xlink="http://www.w3.org/1999/xlink"
   xmlns:sodipodi="http://sodipodi.sourceforge.net/DTD/sodipodi-0.dtd"
   xmlns:inkscape="http://www.inkscape.org/namespaces/inkscape"
   width="16"
   height="16"
   id="svg3049"
   version="1.1"
   inkscape:version="0.48+devel r12392"
   sodipodi:docname="view-list-details-symbolic.svg">
  <defs
     id="defs3051">
    <linearGradient
       gradientTransform="translate(-0.0416311,0.21835584)"
       y2="1004.5619"
       x2="23.673292"
       y1="1046.1796"
       x1="23.673292"
       gradientUnits="userSpaceOnUse"
       id="linearGradient3770"
       xlink:href="#linearGradient3754"
       inkscape:collect="always" />
    <linearGradient
       id="linearGradient3754">
      <stop
         id="stop3756"
         offset="0"
         style="stop-color:#b1731b;stop-opacity:1;" />
      <stop
         id="stop3758"
         offset="1"
         style="stop-color:#e6ac59;stop-opacity:1;" />
    </linearGradient>
    <linearGradient
       gradientTransform="translate(-0.0416311,0.21835584)"
       y2="1004.5619"
       x2="23.673292"
       y1="1046.1796"
       x1="23.673292"
       gradientUnits="userSpaceOnUse"
       id="linearGradient3767"
       xlink:href="#linearGradient3754"
       inkscape:collect="always" />
    <linearGradient
       id="linearGradient3919">
      <stop
         id="stop3921"
         offset="0"
         style="stop-color:#b1731b;stop-opacity:1;" />
      <stop
         id="stop3923"
         offset="1"
         style="stop-color:#e6ac59;stop-opacity:1;" />
    </linearGradient>
    <linearGradient
       inkscape:collect="always"
       xlink:href="#linearGradient3754"
       id="linearGradient3928"
       gradientUnits="userSpaceOnUse"
       gradientTransform="translate(-0.0416311,0.21835584)"
       x1="23.673292"
       y1="1046.1796"
       x2="23.673292"
       y2="1004.5619" />
    <linearGradient
       id="linearGradient3754-0">
      <stop
         id="stop3756-7"
         offset="0"
         style="stop-color:#b1731b;stop-opacity:1;" />
      <stop
         id="stop3758-3"
         offset="1"
         style="stop-color:#e6ac59;stop-opacity:1;" />
    </linearGradient>
  </defs>
  <sodipodi:namedview
     id="base"
     pagecolor="#ffffff"
     bordercolor="#666666"
     borderopacity="1.0"
     inkscape:pageopacity="0.0"
     inkscape:pageshadow="2"
     inkscape:zoom="18.609071"
     inkscape:cx="18.272744"
     inkscape:cy="11.434871"
     inkscape:document-units="px"
     inkscape:current-layer="layer1"
     showgrid="false"
     fit-margin-top="0"
     fit-margin-left="0"
     fit-margin-right="0"
     fit-margin-bottom="0"
     inkscape:window-width="1366"
     inkscape:window-height="715"
     inkscape:window-x="0"
     inkscape:window-y="30"
     inkscape:window-maximized="1" />
  <metadata
     id="metadata3054">
    <rdf:RDF>
      <cc:Work
         rdf:about="">
        <dc:format>image/svg+xml</dc:format>
        <dc:type
           rdf:resource="http://purl.org/dc/dcmitype/StillImage" />
        <dc:title />
      </cc:Work>
    </rdf:RDF>
  </metadata>
  <g
     inkscape:label="Capa 1"
     inkscape:groupmode="layer"
     id="layer1"
     transform="translate(-421.71429,-531.79074)">
    <g
       transform="matrix(0.36363989,0,0,0.36363989,267.63493,349.31953)"
       id="layer1-9"
       inkscape:label="Capa 1"
       style="fill:#bebebe;fill-opacity:1">
      <path
         d="m 435.51823,538.18909 c -2.31789,0 -4.20288,-1.88503 -4.20288,-4.20295 0,-2.31688 1.88499,-4.20191 4.20288,-4.20191 2.31789,0 4.20288,1.88503 4.20288,4.20191 C 439.72111,536.30406 437.83612,538.18909 435.51823,538.18909 z m 0,-10.50636 c -3.48103,0 -6.3043,2.82124 -6.3043,6.30341 0,3.48109 2.82327,6.30444 6.3043,6.30444 3.48104,0 6.3043,-2.82335 6.3043,-6.30444 0,-3.48217 -2.82326,-6.30341 -6.3043,-6.30341"
         style="fill:#bebebe;fill-opacity:1;fill-rule:nonzero;stroke:none;display:inline"
         id="path60"
         inkscape:connector-curvature="0" />
      <path
         d="m 435.51823,517.79725 c -2.31789,0 -4.20288,-1.88503 -4.20288,-4.20295 0,-2.31688 1.88499,-4.20191 4.20288,-4.20191 2.31789,0 4.20288,1.88503 4.20288,4.20191 C 439.72111,515.91222 437.83612,517.79725 435.51823,517.79725 z m 0,-10.50635 c -3.48103,0 -6.3043,2.82124 -6.3043,6.3034 0,3.48109 2.82327,6.30445 6.3043,6.30445 3.48104,0 6.3043,-2.82336 6.3043,-6.30445 0,-3.48216 -2.82326,-6.3034 -6.3043,-6.3034"
         style="fill:#bebebe;fill-opacity:1;fill-rule:nonzero;stroke:none;display:inline"
         id="path62"
         inkscape:connector-curvature="0" />
      <path
         sodipodi:nodetypes="ccccc"
         d="m 447.71393,514.84482 14.5,0 0,-2.5 L 447.71393,512.34482 Z"
         style="fill:#bebebe;fill-opacity:1;fill-rule:nonzero;stroke:none;display:inline"
         id="path124"
         inkscape:connector-curvature="0" />
      <path
         sodipodi:nodetypes="ccccc"
         d="m 447.71393,535.23665 14.5,0 0,-2.5 L 447.71393,532.73665 Z"
         style="fill:#bebebe;fill-opacity:1;fill-rule:nonzero;stroke:none;display:inline"
         id="path128"
         inkscape:connector-curvature="0" />
    </g>
  </g>
</svg>
