<?xml version="1.0" encoding="UTF-8" standalone="no"?>
<!-- Created with Inkscape (http://www.inkscape.org/) -->
<svg id="svg3299" xmlns="http://www.w3.org/2000/svg" height="24" width="24" version="1.0" xmlns:xlink="http://www.w3.org/1999/xlink">
 <defs id="defs3301">
  <linearGradient id="linearGradient2558-342" y2="24.628" gradientUnits="userSpaceOnUse" x2="20.055" y1="16.408" x1="18.031">
   <stop id="stop2662" style="stop-color:#fff" offset="0"/>
   <stop id="stop2664" style="stop-color:#fff;stop-opacity:0" offset="1"/>
  </linearGradient>
  <linearGradient id="linearGradient2556-839" y2="4.0514" gradientUnits="userSpaceOnUse" x2="4.176" gradientTransform="matrix(1.0083 0 0 1.0006 -10.5 -26.478)" y1="14.993" x1="10.318">
   <stop id="stop2656" style="stop-color:#5e5e5e" offset="0"/>
   <stop id="stop2658" style="stop-color:#909090" offset="1"/>
  </linearGradient>
  <linearGradient id="linearGradient2554-641" y2="238.4" gradientUnits="userSpaceOnUse" x2="169.23" gradientTransform="matrix(.054893 .013851 .0025726 .052482 -11.212 -26.738)" y1="58.583" x1="126.7">
   <stop id="stop2650" style="stop-color:#bababa" offset="0"/>
   <stop id="stop2652" style="stop-color:#838383" offset="1"/>
  </linearGradient>
  <radialGradient id="radialGradient2552-332" gradientUnits="userSpaceOnUse" cy="486.65" cx="605.71" gradientTransform="matrix(-2.7744 0 0 1.9697 112.76 -872.89)" r="117.14">
   <stop id="stop2644" offset="0"/>
   <stop id="stop2646" style="stop-opacity:0" offset="1"/>
  </radialGradient>
  <radialGradient id="radialGradient2550-690" gradientUnits="userSpaceOnUse" cy="486.65" cx="605.71" gradientTransform="matrix(2.7744 0 0 1.9697 -1891.6 -872.89)" r="117.14">
   <stop id="stop2638" offset="0"/>
   <stop id="stop2640" style="stop-opacity:0" offset="1"/>
  </radialGradient>
  <linearGradient id="linearGradient2548-464" y2="609.51" gradientUnits="userSpaceOnUse" x2="302.86" gradientTransform="matrix(2.7744 0 0 1.9697 -1892.2 -872.89)" y1="366.65" x1="302.86">
   <stop id="stop2630" style="stop-opacity:0" offset="0"/>
   <stop id="stop2632" offset=".5"/>
   <stop id="stop2634" style="stop-opacity:0" offset="1"/>
  </linearGradient>
  <radialGradient id="radialGradient2574" xlink:href="#linearGradient5060" gradientUnits="userSpaceOnUse" cy="486.65" cx="605.71" gradientTransform="matrix(-2.7744 0 0 1.9697 112.76 -872.89)" r="117.14"/>
  <linearGradient id="linearGradient5060">
   <stop id="stop5062" offset="0"/>
   <stop id="stop5064" style="stop-opacity:0" offset="1"/>
  </linearGradient>
  <radialGradient id="radialGradient2572" xlink:href="#linearGradient5060" gradientUnits="userSpaceOnUse" cy="486.65" cx="605.71" gradientTransform="matrix(2.7744 0 0 1.9697 -1891.6 -872.89)" r="117.14"/>
  <linearGradient id="linearGradient2526" y2="4.0514" gradientUnits="userSpaceOnUse" x2="4.176" gradientTransform="matrix(1.0083 0 0 1.0006 -.001856 -.00662)" y1="14.993" x1="10.318">
   <stop id="stop2605" style="stop-color:#bb2b12" offset="0"/>
   <stop id="stop2607" style="stop-color:#cd7233" offset="1"/>
  </linearGradient>
  <linearGradient id="linearGradient2524" y2="238.4" gradientUnits="userSpaceOnUse" x2="169.23" gradientTransform="matrix(.054893 .013851 .0025726 .052482 -.71383 -.26741)" y1="58.583" x1="126.7">
   <stop id="stop2612" style="stop-color:#f0c178" offset="0"/>
   <stop id="stop2614" style="stop-color:#e18941" offset=".5"/>
   <stop id="stop2616" style="stop-color:#ec4f18" offset="1"/>
  </linearGradient>
 </defs>
 <g id="layer1">
  <g id="g2526" style="opacity:.4" transform="translate(.0020617 -1.0044)">
   <g id="g2528" transform="matrix(.36395 0 0 .34457 -.64588 -.38545)">
    <g id="g2530" transform="matrix(.021652 0 0 .014857 43.008 42.685)">
     <rect id="rect2532" style="opacity:.40206;fill:url(#linearGradient2548-464)" height="478.36" width="1339.6" y="-150.7" x="-1559.3"/>
     <path id="path2534" style="opacity:.40206;fill:url(#radialGradient2550-690)" d="m-219.62-150.68v478.33c142.88 0.9 345.4-107.17 345.4-239.2 0-132.02-159.44-239.13-345.4-239.13z"/>
     <path id="path2536" style="opacity:.40206;fill:url(#radialGradient2552-332)" d="m-1559.3-150.68v478.33c-142.8 0.9-345.4-107.17-345.4-239.2 0-132.02 159.5-239.13 345.4-239.13z"/>
    </g>
   </g>
   <g id="g2538" transform="translate(10.498 26.471)">
    <path id="path2540" style="stroke-linejoin:round;stroke:#a8a8a8;stroke-linecap:round;stroke-width:0.979;fill:#fff" d="m-8.8387-24.977c-0.0562 0-0.1044 0.06-0.1044 0.123v1.063h-0.5167-0.397c-0.0702 0-0.1254 0.061-0.1254 0.122v0.246 2.842c-0.0071 2.573-0.0208 6.242-0.0208 8.611 4.7062-0.024 9.415-0.048 14.122-0.065-0.4167 0-1.1119-0.07-1.102-0.941 0.0036-3.597 0.023-7.243 0.0108-10.815h-6.0308v-1.063c0-0.063-0.0482-0.123-0.1045-0.123h-5.7312z"/>
    <path id="path2542" style="stroke-linejoin:round;stroke:url(#linearGradient2556-839);stroke-linecap:round;stroke-width:.95339;fill:url(#linearGradient2554-641)" d="m-7.9741-21.947c0.6564 0 12.48 0.031 12.989 0.031 0 0.616-0.0247 9.958-0.054 9.958-4.5589 0.018-11.659-0.013-12.987-0.013 0.0001-1.162 0.052-7.586 0.052-9.976z"/>
   </g>
   <path id="path2544" style="opacity:.2;fill:url(#linearGradient2558-342);fill-rule:evenodd" d="m3.2188 5.3438c-1.539 0-2.8126 1.2735-2.8126 2.8124l0.00005 16c0.00589 0.286 0.14842 0.613 0.375 0.813 0.22655 0.2 0.51615 0.284 0.84375 0.25h0.0312l45-7.125c0.522-0.083 0.93-0.535 0.938-1.063v-8.8748c0-1.5389-1.274-2.8124-2.813-2.8124h-41.562-0.0002z" transform="matrix(.29669 0 0 .35207 1.8795 2.1186)"/>
   <path id="path2546" style="opacity:.35;stroke:#fff;stroke-width:1px;fill:none" d="m3.4979 14v-8.5h11.5"/>
  </g>
  <g id="g2511" transform="matrix(.36395 0 0 .34457 7.3541 7.6145)">
   <g id="g2488" transform="matrix(.021652 0 0 .014857 43.008 42.685)">
    <rect id="rect2490" style="opacity:.40206;fill:url(#linearGradient2548-464)" height="478.36" width="1339.6" y="-150.7" x="-1559.3"/>
    <path id="path2492" style="opacity:.40206;fill:url(#radialGradient2572)" d="m-219.62-150.68v478.33c142.88 0.9 345.4-107.17 345.4-239.2 0-132.02-159.44-239.13-345.4-239.13z"/>
    <path id="path2494" style="opacity:.40206;fill:url(#radialGradient2574)" d="m-1559.3-150.68v478.33c-142.8 0.9-345.4-107.17-345.4-239.2 0-132.02 159.5-239.13 345.4-239.13z"/>
   </g>
  </g>
  <path id="path2519" style="stroke-linejoin:round;stroke:#a8a8a8;stroke-linecap:round;stroke-width:0.979;fill:#fff" d="m1.6598 1.4939c-0.0563 0-0.1045 0.0604-0.1045 0.1227v1.0631h-0.5166-0.3971c-0.0702 0-0.12538 0.0618-0.12538 0.1227v0.2454 2.8419c-0.00709 2.5729-0.0209 6.2423-0.0209 8.6113 4.7063-0.024 9.4151-0.048 14.123-0.065-0.417 0-1.112-0.07-1.103-0.941 0.004-3.5967 0.023-7.2427 0.011-10.815l-6.0306-0.0002v-1.0632c0-0.0623-0.0482-0.1227-0.1045-0.1227h-5.7311z" transform="translate(8 8)"/>
  <path id="path2521" style="stroke-linejoin:round;stroke:url(#linearGradient2526);stroke-linecap:round;stroke-width:.95339;fill:url(#linearGradient2524)" d="m2.5244 4.524c0.6563 0 12.48 0.0314 12.989 0.0314 0 0.6154-0.024 9.9576-0.054 9.9576-4.559 0.018-11.659-0.013-12.986-0.013-0.0005-1.162 0.0514-7.5857 0.0514-9.976z" transform="translate(8 8)"/>
  <path id="path2608" style="opacity:.2;fill-rule:evenodd;fill:url(#linearGradient2558-342)" d="m3.2188 5.3438c-1.539 0-2.8126 1.2735-2.8126 2.8124l0.00005 16c0.00589 0.286 0.14842 0.613 0.375 0.813 0.22655 0.2 0.51615 0.284 0.84375 0.25h0.0312l45-7.125c0.522-0.083 0.93-0.535 0.938-1.063v-8.8748c0-1.5389-1.274-2.8124-2.813-2.8124h-41.562-0.0002z" transform="matrix(.29669 0 0 .35207 9.8795 10.119)"/>
  <path id="path2524" style="opacity:.35;stroke:#fff;stroke-width:1px;fill:none" d="m3.4979 14v-8.5h11.5" transform="translate(8 8)"/>
 </g>
</svg>
