<?xml version="1.0" encoding="UTF-8" standalone="no"?>
<!-- Created with Inkscape (http://www.inkscape.org/) -->
<svg id="svg3068" xmlns:rdf="http://www.w3.org/1999/02/22-rdf-syntax-ns#" xmlns="http://www.w3.org/2000/svg" height="16px" width="16px" version="1.1" xmlns:cc="http://creativecommons.org/ns#" xmlns:xlink="http://www.w3.org/1999/xlink" xmlns:dc="http://purl.org/dc/elements/1.1/">
 <defs id="defs3070">
  <linearGradient id="linearGradient2990" y2="5.4676" gradientUnits="userSpaceOnUse" x2="63.397" gradientTransform="matrix(.74324 0 0 .74322 -38.23 10.609)" y1="-12.489" x1="63.397">
   <stop id="stop4875" style="stop-color:#fff" offset="0"/>
   <stop id="stop4877" style="stop-color:#fff;stop-opacity:0" offset="1"/>
  </linearGradient>
  <linearGradient id="linearGradient2916" y2="16.723" gradientUnits="userSpaceOnUse" x2="19.821" gradientTransform="matrix(0 .98490 -.91917 0 19.373 -3.5809)" y1="16.723" x1="3.6967">
   <stop id="stop3358" style="stop-color:#808080" offset="0"/>
   <stop id="stop3360" style="stop-color:#6d6d6d" offset=".54610"/>
   <stop id="stop3362" style="stop-color:#4f5053" offset="1"/>
  </linearGradient>
  <linearGradient id="linearGradient2918" y2="25.883" gradientUnits="userSpaceOnUse" x2="72.452" gradientTransform="matrix(0 .98490 -.91917 0 30.32 -55.412)" y1="25.883" x1="56.323">
   <stop id="stop3229" style="stop-color:#4d4d4d" offset="0"/>
   <stop id="stop3231" style="stop-color:#333" offset="1"/>
  </linearGradient>
  <linearGradient id="linearGradient3064" y2="23.063" gradientUnits="userSpaceOnUse" y1=".99996" gradientTransform="matrix(.71417 0 0 .71423 -.56941 -.57080)" x2="17.61" x1="17.61">
   <stop id="stop3270-6" style="stop-color:#fff" offset="0"/>
   <stop id="stop3272-6" style="stop-color:#cdcdcd" offset="1"/>
  </linearGradient>
  <linearGradient id="linearGradient3066" y2="45.326" gradientUnits="userSpaceOnUse" y1="2.6838" gradientTransform="matrix(.36854 0 0 .36857 -.84436 -.84577)" x2="12.963" x1="12.963">
   <stop id="stop5026-7" style="stop-color:#808080" offset="0"/>
   <stop id="stop5028-4" style="stop-color:#6d6d6d" offset=".87327"/>
   <stop id="stop5030-1" style="stop-color:#4f5053" offset="1"/>
  </linearGradient>
 </defs>
 <metadata id="metadata3073">
  <rdf:RDF>
   <cc:Work rdf:about="">
    <dc:format>image/svg+xml</dc:format>
    <dc:type rdf:resource="http://purl.org/dc/dcmitype/StillImage"/>
    <dc:title/>
   </cc:Work>
  </rdf:RDF>
 </metadata>
 <g id="layer1">
  <path id="path2555" style="stroke-linejoin:round;stroke-width:1.0037;color:#000000;stroke:url(#linearGradient3066);stroke-linecap:round;fill:url(#linearGradient3064)" d="m8 0.50183c-4.1372 0-7.4982 3.3609-7.4982 7.4982 0 4.1372 3.3609 7.4982 7.4982 7.4982 4.1372 0 7.4982-3.3609 7.4982-7.4982 0-4.1372-3.3609-7.4982-7.4982-7.4982z"/>
  <path id="path3314" style="stroke:url(#linearGradient2918);fill:url(#linearGradient2916)" d="m7.5008 15.5a6.999 7.4994 0 1 1 0 -14.999v7.4994z"/>
  <path id="path2463" style="opacity:.4;stroke:url(#linearGradient2990);fill:none" d="m14.5 7.9998c0 3.5902-2.91 6.5002-6.4999 6.5002s-6.5001-2.91-6.5001-6.5002c0-3.5898 2.9102-6.4998 6.5001-6.4998 3.5896 0 6.4999 2.91 6.4999 6.4998z"/>
 </g>
</svg>
