<?xml version="1.0" encoding="UTF-8" standalone="no"?>
<!-- Created with Inkscape (http://www.inkscape.org/) -->
<svg id="svg3786" xmlns="http://www.w3.org/2000/svg" height="24" width="24" version="1.0" xmlns:xlink="http://www.w3.org/1999/xlink">
 <defs id="defs3788">
  <linearGradient id="linearGradient5060-8">
   <stop id="stop5062-3" offset="0"/>
   <stop id="stop5064-0" style="stop-opacity:0" offset="1"/>
  </linearGradient>
  <radialGradient id="radialGradient3653" gradientUnits="userSpaceOnUse" cy="5.1186" cx="7.8305" gradientTransform="matrix(1.7773 -.00072163 .00060703 1.4951 -6.0894 -1.7152)" r="12">
   <stop id="stop7064" style="stop-color:#f0f0f1" offset="0"/>
   <stop id="stop7060" style="stop-color:#ddddde" offset="1"/>
  </radialGradient>
  <linearGradient id="linearGradient3655" y2="7.0527" gradientUnits="userSpaceOnUse" x2="8.4682" gradientTransform="matrix(.98924 0 0 1.5513 .12906 -10.941)" y1="17.608" x1="13.953">
   <stop id="stop3486" style="stop-color:#aaa" offset="0"/>
   <stop id="stop3488" style="stop-color:#c8c8c8" offset="1"/>
  </linearGradient>
  <radialGradient id="radialGradient3658" gradientUnits="userSpaceOnUse" cy="42" cx="24" gradientTransform="matrix(.47392 5.0952e-8 -1.4047e-8 .11905 .62585 16)" r="21">
   <stop id="stop6312-7" style="stop-color:#fff" offset="0"/>
   <stop id="stop6314-8" style="stop-color:#fff;stop-opacity:0" offset="1"/>
  </radialGradient>
  <linearGradient id="linearGradient3661" y2="86.135" gradientUnits="userSpaceOnUse" x2="52.073" gradientTransform="matrix(.19129 0 0 .19263 .038870 2.4077)" y1="106.9" x1="52.073">
   <stop id="stop2223" style="stop-color:#aaa" offset="0"/>
   <stop id="stop2219" style="stop-color:#646464" offset="1"/>
  </linearGradient>
  <radialGradient id="radialGradient3664" xlink:href="#linearGradient5060-8" gradientUnits="userSpaceOnUse" cy="486.65" cx="605.71" gradientTransform="matrix(-.022183 0 0 .010860 16.259 17.381)" r="117.14"/>
  <radialGradient id="radialGradient3667" xlink:href="#linearGradient5060-8" gradientUnits="userSpaceOnUse" cy="486.65" cx="605.71" gradientTransform="matrix(.022183 0 0 .010860 7.7407 17.381)" r="117.14"/>
  <linearGradient id="linearGradient3670" y2="609.51" gradientUnits="userSpaceOnUse" x2="302.86" gradientTransform="matrix(.037768 0 0 .010860 -1.6503 17.381)" y1="366.65" x1="302.86">
   <stop id="stop5050-3" style="stop-opacity:0" offset="0"/>
   <stop id="stop5056-9" offset=".5"/>
   <stop id="stop5052-2" style="stop-opacity:0" offset="1"/>
  </linearGradient>
 </defs>
 <rect id="rect2723-5" style="opacity:.40206;fill:url(#linearGradient3670)" height="2.6374" width="18.236" y="21.363" x="2.8818"/>
 <path id="path2725-7" style="opacity:.40206;fill:url(#radialGradient3667)" d="m21.109 21.363v2.6373c1.1423 0.005 2.7616-0.59088 2.7616-1.3188 0-0.72793-1.2748-1.3185-2.7616-1.3185z"/>
 <path id="path2727-4" style="opacity:.40206;fill:url(#radialGradient3664)" d="m2.8907 21.363v2.6373c-1.1424 0.005-2.7616-0.59088-2.7616-1.3188 0-0.72793 1.2748-1.3185 2.7616-1.3185z"/>
 <path id="rect2992" style="stroke-width:.89970;stroke:#59595b;fill:url(#linearGradient3661)" d="m0.47694 19.566h23.042c0.06188 0.12169 0.01004 0.17628 0.02708 0.32374-0.46842 2.6198-0.34865 2.6435-1.1969 2.6435-0.33223 0.03738-13.396 0-20.744 0-0.92114 0-0.68839 0.05096-1.1549-3.0837l0.027089 0.11643z"/>
 <rect id="rect6300-2" style="opacity:.3;fill:url(#radialGradient3658)" height="2" width="22" y="20" x="1"/>
 <path id="rect2990" style="stroke-linejoin:round;stroke-width:1.0001;stroke:url(#linearGradient3655);stroke-linecap:round;fill:url(#radialGradient3653)" d="m2.5243 2.0291-2.0017 17.453c-0.014949 0-0.022616 0.0046-0.022616 0.01759h23c0-0.01301-0.0077-0.01759-0.02261-0.01759l-1.966-17.493c-0.079-0.7006-0.797-1.489-1.502-1.489h-16.016c-0.70677 0-1.3887 0.82678-1.4692 1.5291z"/>
 <path id="path2215" style="opacity:.7;stroke-linejoin:round;stroke:#fff;stroke-linecap:round;fill:none" d="m1.4991 19.5h21.002"/>
 <rect id="rect3867" style="opacity:.5;fill:#fff" rx=".5" ry=".5" height="1.5" width="20" y="20" x="2"/>
 <rect id="rect6287-6" style="fill:#282828" rx="0.3" ry="0.3" height="1" width="20" y="20" x="2"/>
 <rect id="rect3909" style="opacity:.5;fill:#fff" rx=".5" ry=".5" height="1" width="21.4" y="16.5" x="1.3"/>
 <rect id="rect3907" style="fill:#adadad" height=".5" width="22" y="16.5" x="1"/>
</svg>
