<?xml version="1.0" encoding="UTF-8" standalone="no"?>
<!-- Created with Inkscape (http://www.inkscape.org/) -->
<svg id="svg2" xmlns="http://www.w3.org/2000/svg" height="24" width="24" version="1.0" xmlns:xlink="http://www.w3.org/1999/xlink">
 <defs id="defs4">
  <linearGradient id="linearGradient3075" y2="19.812" gradientUnits="userSpaceOnUse" x2="15.25" gradientTransform="matrix(.23810 0 0 .33333 6.2857 2)" y1="8.4375" x1="12.938">
   <stop id="stop6594-0-2" style="stop-color:#fff;stop-opacity:.27451" offset="0"/>
   <stop id="stop6596-2-5" style="stop-color:#fff;stop-opacity:0" offset="1"/>
  </linearGradient>
  <radialGradient id="radialGradient3127" gradientUnits="userSpaceOnUse" cy="8.4179" cx="19.063" gradientTransform="matrix(.60157 0 0 .58159 -2.0595 -.17835)" r="11">
   <stop id="stop9938" style="stop-color:#575757" offset="0"/>
   <stop id="stop9940" style="stop-color:#333" offset="1"/>
  </radialGradient>
  <linearGradient id="linearGradient4490" y2="107.02" gradientUnits="userSpaceOnUse" x2="-74.342" gradientTransform="matrix(.23031 0 0 .20891 29.305 -.33027)" y1="5.4862" x1="-74.836">
   <stop id="stop3145" style="stop-color:#f2f2f2" offset="0"/>
   <stop id="stop3147" style="stop-color:#b3b3b3" offset="1"/>
  </linearGradient>
  <linearGradient id="linearGradient4492" y2="340.79" gradientUnits="userSpaceOnUse" x2="-497" gradientTransform="translate(504 -339.79)" y1="361.81" x1="-497">
   <stop id="stop3208" style="stop-color:gray" offset="0"/>
   <stop id="stop3210" style="stop-color:#999" offset="1"/>
  </linearGradient>
 </defs>
 <g id="layer1">
  <rect id="rect2170" style="stroke-linejoin:round;stroke-width:1.0436;fill-rule:evenodd;stroke:url(#linearGradient4492);stroke-linecap:round;stroke-miterlimit:3.4286;fill:url(#linearGradient4490)" rx=".73899" ry=".74515" height="21.956" width="14.956" y=".52184" x="4.5218"/>
  <path id="path5133" style="stroke-linejoin:round;stroke-width:1.019;fill-rule:evenodd;stroke:#ccc;stroke-linecap:round;stroke-miterlimit:3.4286;fill:#fff" d="m12 12.509c-2.2043 0-3.9905 1.7847-3.9905 3.9872 0 2.2024 1.7862 3.9939 3.9905 3.9939s3.9905-1.7914 3.9905-3.9939c0-2.2024-1.7862-3.9872-3.9905-3.9872zm0 2.1608c1.0085 0 1.8279 0.81868 1.8279 1.8263s-0.81939 1.8263-1.8279 1.8263c-1.0085 0.00001-1.8279-0.81868-1.8279-1.8263 0.00001-1.0076 0.81939-1.8263 1.8279-1.8263z"/>
  <rect id="rect4140-0" style="stroke-linejoin:round;stroke-width:.94886;fill-rule:evenodd;stroke:#333;stroke-linecap:round;stroke-miterlimit:3.4286;fill:url(#radialGradient3127)" rx="0" ry="0" height="8.0511" width="11.051" y="2.4744" x="6.4744"/>
  <path id="rect6588" style="fill:url(#linearGradient3075)" d="m7 3h10v2.6667l-10 2.3333v-5z"/>
 </g>
</svg>
