<?xml version="1.0" encoding="UTF-8" standalone="no"?>
<!-- Created with Inkscape (http://www.inkscape.org/) -->

<svg
   xmlns:dc="http://purl.org/dc/elements/1.1/"
   xmlns:cc="http://creativecommons.org/ns#"
   xmlns:rdf="http://www.w3.org/1999/02/22-rdf-syntax-ns#"
   xmlns:svg="http://www.w3.org/2000/svg"
   xmlns="http://www.w3.org/2000/svg"
   xmlns:sodipodi="http://sodipodi.sourceforge.net/DTD/sodipodi-0.dtd"
   xmlns:inkscape="http://www.inkscape.org/namespaces/inkscape"
   width="48"
   height="48"
   id="svg2"
   version="1.1"
   inkscape:version="0.48+devel r12479"
   sodipodi:docname="audio-volume-blocking-panel.svg">
  <defs
     id="defs4" />
  <sodipodi:namedview
     id="base"
     pagecolor="#ffffff"
     bordercolor="#666666"
     borderopacity="1.0"
     inkscape:pageopacity="0.0"
     inkscape:pageshadow="2"
     inkscape:zoom="9.7700128"
     inkscape:cx="23.198501"
     inkscape:cy="18.573572"
     inkscape:document-units="px"
     inkscape:current-layer="layer1"
     showgrid="false"
     showguides="false"
     inkscape:window-width="1366"
     inkscape:window-height="715"
     inkscape:window-x="0"
     inkscape:window-y="30"
     inkscape:window-maximized="1" />
  <metadata
     id="metadata7">
    <rdf:RDF>
      <cc:Work
         rdf:about="">
        <dc:format>image/svg+xml</dc:format>
        <dc:type
           rdf:resource="http://purl.org/dc/dcmitype/StillImage" />
        <dc:title />
      </cc:Work>
    </rdf:RDF>
  </metadata>
  <g
     inkscape:label="Capa 1"
     inkscape:groupmode="layer"
     id="layer1"
     transform="translate(0,-1004.3622)">
    <g
       id="layer1-2"
       inkscape:label="Capa 1"
       style="fill:#ff2c54;fill-opacity:1">
      <path
         inkscape:connector-curvature="0"
         id="path4058"
         d="m 24,1013.3622 c -8.284271,0 -15,6.7157 -15,15 0,8.2843 6.715729,15 15,15 8.284271,0 15,-6.7157 15,-15 C 39,1020.0779 32.284271,1013.3622 24,1013.3622 z m 0,3 c 6.627417,0 12,5.3726 12,12 0,6.6274 -5.372583,12 -12,12 -6.627417,0 -12,-5.3726 -12,-12 C 12,1021.7348 17.372583,1016.3622 24,1016.3622 Z"
         style="fill:#ff2c54;fill-opacity:1;stroke:none" />
      <path
         inkscape:connector-curvature="0"
         id="path4072"
         d="m 28.46568,1019.7908 -4.938616,4.9407 -5.955635,0 0,7.2635 5.955635,0 4.938616,4.9386 L 28.46568,1019.7908 Z"
         style="fill:#ff2c54;fill-opacity:1;fill-rule:nonzero;stroke:none;display:inline" />
    </g>
  </g>
</svg>
