<?xml version="1.0" encoding="UTF-8" standalone="no"?>
<!-- Created with Inkscape (http://www.inkscape.org/) -->

<svg
   xmlns:dc="http://purl.org/dc/elements/1.1/"
   xmlns:cc="http://creativecommons.org/ns#"
   xmlns:rdf="http://www.w3.org/1999/02/22-rdf-syntax-ns#"
   xmlns:svg="http://www.w3.org/2000/svg"
   xmlns="http://www.w3.org/2000/svg"
   xmlns:sodipodi="http://sodipodi.sourceforge.net/DTD/sodipodi-0.dtd"
   xmlns:inkscape="http://www.inkscape.org/namespaces/inkscape"
   version="1.1"
   width="48"
   height="48"
   id="svg3014"
   inkscape:version="0.48+devel r12503"
   sodipodi:docname="indicator-cpufreq-50.svg">
  <sodipodi:namedview
     pagecolor="#ffffff"
     bordercolor="#666666"
     borderopacity="1"
     objecttolerance="10"
     gridtolerance="10"
     guidetolerance="10"
     inkscape:pageopacity="0"
     inkscape:pageshadow="2"
     inkscape:window-width="1366"
     inkscape:window-height="718"
     id="namedview11"
     showgrid="false"
     inkscape:zoom="4.02974"
     inkscape:cx="14.694858"
     inkscape:cy="23.87603"
     inkscape:window-x="0"
     inkscape:window-y="28"
     inkscape:window-maximized="1"
     inkscape:current-layer="svg3014" />
  <defs
     id="defs11" />
  <metadata
     id="metadata3019">
    <rdf:RDF>
      <cc:Work
         rdf:about="">
        <dc:format>image/svg+xml</dc:format>
        <dc:type
           rdf:resource="http://purl.org/dc/dcmitype/StillImage" />
        <dc:title></dc:title>
      </cc:Work>
    </rdf:RDF>
  </metadata>
  <path
     style="fill:#000000"
     d=""
     id="path906"
     inkscape:connector-curvature="0" />
  <line
     style="fill:none;stroke:#377abc;stroke-width:0.25;stroke-miterlimit:10;display:none"
     display="inline"
     stroke-miterlimit="10"
     x1="115.12846"
     y1="-2.3468087"
     x2="461.9675"
     y2="-2.3468087"
     id="line4070" />
  <line
     style="fill:none;stroke:#377abc;stroke-width:0.25;stroke-miterlimit:10;display:none"
     display="inline"
     stroke-miterlimit="10"
     x1="115.12846"
     y1="49.774189"
     x2="461.9675"
     y2="49.774189"
     id="line4072" />
  <path
     style="fill:#383838;fill-opacity:1;stroke:none"
     d="M 15.244141 9 L 15.244141 11.099609 L 14.595703 11.099609 L 14.595703 13.621094 L 14.486328 13.621094 C 14.00011 13.621094 13.621094 14.000062 13.621094 14.486328 L 13.621094 14.595703 L 11.027344 14.595703 L 11.027344 15.244141 L 9 15.244141 L 9 16.396484 L 11.027344 16.396484 L 11.027344 17.224609 L 13.621094 17.224609 L 13.621094 22.666016 L 11.027344 22.666016 L 11.027344 23.314453 L 9 23.314453 L 9 24.46875 L 11.027344 24.46875 L 11.027344 25.333984 L 13.621094 25.333984 L 13.621094 30.775391 L 11.027344 30.775391 L 11.027344 31.423828 L 9 31.423828 L 9 32.576172 L 11.027344 32.576172 L 11.027344 33.404297 L 13.621094 33.404297 L 13.621094 33.513672 C 13.621094 33.999824 14.00011 34.378906 14.486328 34.378906 L 14.595703 34.378906 L 14.595703 36.900391 L 15.244141 36.900391 L 15.244141 39 L 16.396484 39 L 16.396484 36.900391 L 17.224609 36.900391 L 17.224609 34.378906 L 22.703125 34.378906 L 22.703125 36.900391 L 23.351562 36.900391 L 23.351562 39 L 24.503906 39 L 24.503906 36.900391 L 25.296875 36.900391 L 25.296875 34.378906 L 30.775391 34.378906 L 30.775391 36.900391 L 31.423828 36.900391 L 31.423828 39 L 32.576172 39 L 32.576172 36.900391 L 33.404297 36.900391 L 33.404297 34.378906 L 33.513672 34.378906 C 33.99989 34.378906 34.378906 33.999824 34.378906 33.513672 L 34.378906 33.404297 L 36.972656 33.404297 L 36.972656 32.576172 L 39 32.576172 L 39 31.423828 L 36.972656 31.423828 L 36.972656 30.775391 L 34.378906 30.775391 L 34.378906 25.333984 L 36.972656 25.333984 L 36.972656 24.46875 L 39 24.46875 L 39 23.314453 L 36.972656 23.314453 L 36.972656 22.666016 L 34.378906 22.666016 L 34.378906 17.224609 L 36.972656 17.224609 L 36.972656 16.396484 L 39 16.396484 L 39 15.244141 L 36.972656 15.244141 L 36.972656 14.595703 L 34.378906 14.595703 L 34.378906 14.486328 C 34.378906 14.000062 33.99989 13.621094 33.513672 13.621094 L 33.404297 13.621094 L 33.404297 11.099609 L 32.576172 11.099609 L 32.576172 9 L 31.423828 9 L 31.423828 11.099609 L 30.775391 11.099609 L 30.775391 13.621094 L 25.296875 13.621094 L 25.296875 11.099609 L 24.503906 11.099609 L 24.503906 9 L 23.351562 9 L 23.351562 11.099609 L 22.703125 11.099609 L 22.703125 13.621094 L 17.224609 13.621094 L 17.224609 11.099609 L 16.396484 11.099609 L 16.396484 9 L 15.244141 9 z M 16.433594 15.927734 L 31.566406 15.927734 C 31.854368 15.927734 32.072266 16.145632 32.072266 16.433594 L 32.072266 31.566406 C 32.072266 31.854368 31.854368 32.072266 31.566406 32.072266 L 16.433594 32.072266 C 16.145632 32.072266 15.927734 31.854368 15.927734 31.566406 L 15.927734 16.433594 C 15.927734 16.145632 16.145632 15.927734 16.433594 15.927734 z "
     id="rect4054" />
  <rect
     ry="0.4507685"
     y="17"
     x="17"
     height="14"
     width="14"
     id="rect4109"
     style="fill:#383838;fill-opacity:1;stroke:none" />
  <rect
     ry="0"
     y="27.500008"
     x="18.5"
     height="2.000001"
     width="11"
     id="rect4110"
     style="fill:#ffffff;fill-opacity:1;stroke:none" />
  <rect
     style="fill:#00aad4;fill-opacity:1;stroke:none"
     id="rect4114"
     width="11"
     height="2"
     x="18.5"
     y="24.500006"
     ry="0" />
</svg>
