<?xml version="1.0" encoding="UTF-8" standalone="no"?>
<!-- Created with Inkscape (http://www.inkscape.org/) -->
<svg id="svg3925" xmlns:rdf="http://www.w3.org/1999/02/22-rdf-syntax-ns#" xmlns="http://www.w3.org/2000/svg" height="24" width="24" version="1.1" xmlns:cc="http://creativecommons.org/ns#" xmlns:xlink="http://www.w3.org/1999/xlink" xmlns:dc="http://purl.org/dc/elements/1.1/">
 <defs id="defs3927">
  <linearGradient id="linearGradient3005" y2="125.39" gradientUnits="userSpaceOnUse" x2="26.257" gradientTransform="matrix(.33893 0 0 .16642 14.124 -24.768)" y1="144.12" x1="28.739">
   <stop id="stop3245" style="stop-color:#fff" offset="0"/>
   <stop id="stop3247" style="stop-color:#fff;stop-opacity:.37931" offset="1"/>
  </linearGradient>
  <linearGradient id="linearGradient3008" y2="119.86" gradientUnits="userSpaceOnUse" x2="25.4" gradientTransform="matrix(.16844 0 0 .16642 9.157 -23.591)" y1="144.12" x1="28.739">
   <stop id="stop3239" style="stop-color:#fff" offset="0"/>
   <stop id="stop3241" style="stop-color:#fff;stop-opacity:.37931" offset="1"/>
  </linearGradient>
  <radialGradient id="radialGradient3011" fx="14.109" fy="38.981" gradientUnits="userSpaceOnUse" cy="41.059" cx="17.059" gradientTransform="matrix(.50449 0 -.082590 .47423 14.689 -8.989)" r="5.7385">
   <stop id="stop3871" style="stop-color:#aaa" offset="0"/>
   <stop id="stop3873" style="stop-color:#4d4d4d" offset="1"/>
  </radialGradient>
  <radialGradient id="radialGradient3014" fx="14.638" fy="38.175" gradientUnits="userSpaceOnUse" cy="41.059" cx="17.059" gradientTransform="matrix(.50576 0 -.082797 .47542 5.735 -7.7245)" r="5.7385">
   <stop id="stop3877" style="stop-color:#aaa" offset="0"/>
   <stop id="stop3879" style="stop-color:#4d4d4d" offset="1"/>
  </radialGradient>
  <radialGradient id="radialGradient3018" gradientUnits="userSpaceOnUse" cy="45.867" cx="22.902" gradientTransform="matrix(.57707 0 0 .24304 -2.6542 2.9315)" r="7.9059">
   <stop id="stop3203" offset="0"/>
   <stop id="stop3205" style="stop-opacity:0" offset="1"/>
  </radialGradient>
  <radialGradient id="radialGradient3021" gradientUnits="userSpaceOnUse" cy="45.867" cx="22.902" gradientTransform="matrix(.53060 0 0 .22347 7.4709 2.492)" r="7.9059">
   <stop id="stop3197" offset="0"/>
   <stop id="stop3199" style="stop-opacity:0" offset="1"/>
  </radialGradient>
  <linearGradient id="linearGradient3038" y2="21.468" gradientUnits="userSpaceOnUse" x2="12.872" gradientTransform="matrix(.80742 0 0 .75464 -.44696 -7.2198)" y1="5.0561" x1="12.872">
   <stop id="stop3618" style="stop-color:#f0c178" offset="0"/>
   <stop id="stop3270" style="stop-color:#e18941" offset=".5"/>
   <stop id="stop3620" style="stop-color:#ec4f18" offset="1"/>
  </linearGradient>
  <linearGradient id="linearGradient3040" y2="1" xlink:href="#linearGradient3582" gradientUnits="userSpaceOnUse" x2="5.6598" gradientTransform="matrix(1.0274 0 0 .96886 -.33737 -7.7448)" y1="18.3" x1="5.6598"/>
  <linearGradient id="linearGradient3582">
   <stop id="stop3584" style="stop-color:#333" offset="0"/>
   <stop id="stop3586" style="stop-color:#5a5a5a" offset="1"/>
  </linearGradient>
  <linearGradient id="linearGradient3043" y2="18.154" gradientUnits="userSpaceOnUse" x2="5.0678" gradientTransform="matrix(.98464 0 0 .97010 .093169 -7.7566)" y1="4.5037" x1="5.0678">
   <stop id="stop3934" style="stop-color:#828282" offset="0"/>
   <stop id="stop3936" style="stop-color:#434343" offset="1"/>
  </linearGradient>
  <linearGradient id="linearGradient3045" y2=".78105" xlink:href="#linearGradient3582" gradientUnits="userSpaceOnUse" x2="2.6708" gradientTransform="matrix(.98464 0 0 .97010 .093169 -7.7566)" y1="18.3" x1="2.6708"/>
  <radialGradient id="radialGradient4327" xlink:href="#linearGradient5060" gradientUnits="userSpaceOnUse" cy="486.65" cx="605.71" gradientTransform="matrix(.024288 0 0 .011812 .31291 11.794)" r="117.14"/>
  <linearGradient id="linearGradient5060">
   <stop id="stop5062" offset="0"/>
   <stop id="stop5064" style="stop-opacity:0" offset="1"/>
  </linearGradient>
  <linearGradient id="linearGradient4329" y2="609.51" gradientUnits="userSpaceOnUse" x2="302.86" gradientTransform="matrix(.022747 0 0 .011804 1.2868 11.799)" y1="366.65" x1="302.86">
   <stop id="stop5050" style="stop-opacity:0" offset="0"/>
   <stop id="stop5056" offset=".5"/>
   <stop id="stop5052" style="stop-opacity:0" offset="1"/>
  </linearGradient>
  <radialGradient id="radialGradient3923" gradientUnits="userSpaceOnUse" xlink:href="#linearGradient5060" cx="605.71" cy="486.65" r="117.14" gradientTransform="matrix(-.024229 0 0 .011804 18.619 11.799)"/>
 </defs>
 <metadata id="metadata3930">
  <rdf:RDF>
   <cc:Work rdf:about="">
    <dc:format>image/svg+xml</dc:format>
    <dc:type rdf:resource="http://purl.org/dc/dcmitype/StillImage"/>
    <dc:title/>
   </cc:Work>
  </rdf:RDF>
 </metadata>
 <g id="layer1" transform="translate(0,8)">
  <g id="g4322" transform="translate(.012834 -8)">
   <path id="path5058" style="opacity:.40206;fill:url(#radialGradient4327)" d="m14.951 16.125v2.8686c1.2508 0.0054 3.0238-0.6427 3.0238-1.4345 0-0.79177-1.3958-1.4341-3.0238-1.4341z"/>
   <rect id="rect4173" style="opacity:.40206;fill:url(#linearGradient4329)" height="2.8667" width="10.984" y="16.127" x="4.0165"/>
   <path id="path5018" style="opacity:.40206;fill:url(#radialGradient3923)" d="m4.0165 16.127v2.8666c-1.2478 0.0054-3.0165-0.64225-3.0165-1.4335 0-0.79121 1.3924-1.4331 3.0165-1.4331z"/>
  </g>
  <path id="path3385" style="stroke-linejoin:round;stroke:url(#linearGradient3045);stroke-width:.97734;display:block;fill:url(#linearGradient3043)" d="m5.0375 9.5111h-2.443c-0.19794-0.18971-0.047423-0.56637-0.094453-0.83494v-15.095l0.027604-0.065158 0.066849-0.026906h2.4098m8.9835-0.0002197h2.4281c0.11416 0 0.09446 0.50298 0.09446 0.8344 0 5.0285 0.000001 10.057 0.000001 15.086-0.19465 0.1928-0.5811 0.04619-0.85666 0.09201h-1.6455"/>
  <rect id="rect3457" style="stroke:url(#linearGradient3040);stroke-width:.99772;fill:url(#linearGradient3038)" rx="0" ry="0" height="16.001" width="10.002" y="-6.5007" x="4.4989"/>
  <path id="rect15660" style="opacity:.36638;stroke-linejoin:round;stroke:#fff;stroke-linecap:square;stroke-width:.97318;display:block;fill:none" d="m5.4814-5.4919h8.0373"/>
  <g id="g2693" transform="matrix(1.2528 0 0 .99033 .16028 -7.985)">
   <rect id="rect3464" style="fill:#fff" height=".69871" width=".78592" y="2.1897" x="2.2666"/>
   <rect id="rect3466" style="fill:#fff" height=".69871" width=".78592" y="3.7447" x="2.2666"/>
   <rect id="rect3468" style="fill:#fff" height=".69871" width=".78592" y="5.2996" x="2.2666"/>
   <rect id="rect3470" style="fill:#fff" height=".69871" width=".78592" y="6.8546" x="2.2666"/>
   <rect id="rect3472" style="fill:#fff" height=".69871" width=".78592" y="8.4096" x="2.2666"/>
   <rect id="rect3474" style="fill:#fff" height=".69871" width=".78592" y="9.9646" x="2.2666"/>
   <rect id="rect3476" style="fill:#fff" height=".69871" width=".78592" y="11.52" x="2.2666"/>
   <rect id="rect3478" style="fill:#fff" height=".69871" width=".78592" y="13.075" x="2.2666"/>
   <rect id="rect3480" style="fill:#fff" height=".69871" width=".78592" y="14.629" x="2.2666"/>
   <rect id="rect3482" style="fill:#fff" height=".69871" width=".78592" y="16.184" x="2.2666"/>
  </g>
  <path id="path4318" style="opacity:.36638;stroke-linejoin:round;stroke:#fff;stroke-linecap:square;stroke-width:.97318;display:block;fill:none" d="m5.4866 2.5134h8.0373"/>
  <path id="path4320" style="stroke-linejoin:round;stroke:#464646;stroke-linecap:square;stroke-width:.97318;display:block;fill:none" d="m5.4866 1.5134h8.0373"/>
  <path id="path2704" style="opacity:.3;fill:url(#radialGradient3021)" d="m23.818 12.742c-0.0025 0.97502-1.8799 1.7649-4.1949 1.7649s-4.1924-0.78985-4.1949-1.7649c-0.0016-0.63165 0.79758-1.2156 2.0961-1.5316 1.2986-0.31602 2.8989-0.31602 4.1975 0s2.0977 0.89998 2.0961 1.5316z"/>
  <path id="path4121" style="opacity:.3;fill:url(#radialGradient3018)" d="m15.124 14.079c0 1.0612-2.0426 1.9215-4.5622 1.9215s-4.5622-0.86027-4.5622-1.9215 2.0426-1.9215 4.5622-1.9215 4.5622 0.86027 4.5622 1.9215z"/>
  <path id="path4031" style="stroke-linejoin:round;stroke:#333;stroke-linecap:round;fill:#4d4d4d" d="m22.651-4.5087c-3.1387 0.49093-6.2603 0.99631-9.3904 1.5147-0.82885 0.39252-0.64251 1.4033-0.67918 2.1367v9.8176c-2.1302-0.47826-4.9558 1.0822-5.0482 3.3003-0.15081 1.3809 1.1108 2.583 2.4828 2.6153 2.4564 0.05787 4.4577-1.5239 4.4843-3.5244-0.02683-3.3597 0.0075-6.7208 0-10.081 0.38028-0.027337 6.482-1.0941 7-1.1651v7.55c-1.9648-0.56766-4.2182 0.61874-4.702 2.6073-0.35802 1.1519 0.18176 2.5137 1.347 2.9856 2.2747 1.0145 5.4743-1.0405 5.3473-3.4523-0.03523-4.48 0.02888-8.9618 0-13.442-0.05974-0.42104-0.35368-0.89259-0.84161-0.86219z"/>
  <path id="path2937" style="fill:url(#radialGradient3014)" d="m13.926 11.299c-0.000092 1.4826-1.3267 2.9067-2.963 3.1808-1.6363 0.274-2.9629-0.706-2.963-2.188 0.0000919-1.4826 1.3267-2.9067 2.963-3.1808 1.6364-0.2741 2.963 0.70556 2.963 2.1882z"/>
  <path id="path2941" style="fill:url(#radialGradient3011)" d="m22.867 9.986c0.0012 0.95964-0.56334 1.9416-1.4806 2.5754-0.91724 0.63386-2.0477 0.82321-2.9649 0.49663-0.91724-0.32658-1.4817-1.1194-1.4806-2.0794 0.0018-1.4818 1.3279-2.9041 2.963-3.178 1.6352-0.2739 2.9612 0.70414 2.963 2.1854z"/>
  <path id="path2945" style="opacity:.3;fill:url(#linearGradient3008);fill-rule:evenodd" d="m13.071 9.4109-0.07149-11.222s0.07826-0.85791 0.65877-0.86053c0.20589-0.03496 9.2304-1.4948 9.2304-1.4948s1.1652 0.54294-8.3777 2.0644c-0.97891 0.18456-0.76056 0.5452-0.76056 1.1785 0 1.7082 0.000002 4.4913 0.000002 10.711 0 0.0445-0.43336-0.31529-0.67936-0.37677h0.000004z"/>
  <path id="path2947" style="opacity:.3;fill:url(#linearGradient3005);fill-rule:evenodd" d="m22 8.1193 0.04518-8.4775c0.47604-0.041747 0.07309-0.00671 0.71501-0.069248 0.0088 1.5835 0.000365 2.8979 0.000365 8.8784 0 0.0445-0.26556-0.27017-0.76055-0.33165h-0.000003z"/>
 </g>
</svg>
