<?xml version="1.0" encoding="UTF-8" standalone="no"?>
<!-- Created with Inkscape (http://www.inkscape.org/) -->
<svg id="svg11300" xmlns="http://www.w3.org/2000/svg" height="24" width="24" version="1.0" xmlns:xlink="http://www.w3.org/1999/xlink">
 <defs id="defs3">
  <radialGradient id="radialGradient6075" xlink:href="#linearGradient6975" gradientUnits="userSpaceOnUse" cy="42.343" cx="26.782" gradientTransform="matrix(1 0 0 .28221 0 30.394)" r="14.407"/>
  <linearGradient id="linearGradient6975">
   <stop id="stop6977" offset="0"/>
   <stop id="stop6979" style="stop-opacity:0" offset="1"/>
  </linearGradient>
  <linearGradient id="linearGradient6651">
   <stop id="stop6653" style="stop-color:#f2f2f2" offset="0"/>
   <stop id="stop6655" style="stop-color:#c3c3c3" offset="1"/>
  </linearGradient>
  <linearGradient id="linearGradient4103">
   <stop id="stop4105" style="stop-color:#edd563" offset="0"/>
   <stop id="stop4107" style="stop-color:#e08223" offset="1"/>
  </linearGradient>
  <linearGradient id="linearGradient5532" y2="74.5" gradientUnits="userSpaceOnUse" x2="48.25" gradientTransform="matrix(.22223 0 0 .26667 4.7775 -3.8667)" y1="52" x1="48.25">
   <stop id="stop6837" style="stop-color:#fff" offset="0"/>
   <stop id="stop6839" style="stop-color:#fff;stop-opacity:0" offset="1"/>
  </linearGradient>
  <radialGradient id="radialGradient5535" gradientUnits="userSpaceOnUse" cy="11.209" cx="12.995" gradientTransform="matrix(1 0 0 1.625 1 -8.0625)" r="4">
   <stop id="stop5115" style="stop-color:#fff" offset="0"/>
   <stop id="stop5117" style="stop-color:#fff;stop-opacity:0" offset="1"/>
  </radialGradient>
  <linearGradient id="linearGradient5539" y2="43.87" xlink:href="#linearGradient6651" gradientUnits="userSpaceOnUse" x2="60.441" gradientTransform="matrix(.40588 0 0 .39166 -7.7895 5.0489)" y1="40.12" x1="60.169"/>
  <linearGradient id="linearGradient5542" y2="64.52" xlink:href="#linearGradient4103" gradientUnits="userSpaceOnUse" x2="54.065" gradientTransform="matrix(.44295 0 0 .41355 -6.2383 -12.649)" y1="64.564" x1="42.816"/>
  <linearGradient id="linearGradient5545" y2="41.459" gradientUnits="userSpaceOnUse" x2="61.872" gradientTransform="matrix(.47513 0 0 .29010 -12.277 8.9729)" y1="29.615" x1="61.872">
   <stop id="stop6631" style="stop-color:#aeaeae" offset="0"/>
   <stop id="stop6633" style="stop-color:#c4c4c4;stop-opacity:0" offset="1"/>
  </linearGradient>
  <linearGradient id="linearGradient5548" y2="24.245" xlink:href="#linearGradient6651" gradientUnits="userSpaceOnUse" x2="69.691" gradientTransform="matrix(.54268 0 0 .33737 -15.798 7.3327)" y1="24.245" x1="53.169"/>
  <linearGradient id="linearGradient5551" y2="2.3162" xlink:href="#linearGradient4103" gradientUnits="userSpaceOnUse" x2="67.466" gradientTransform="matrix(.65461 0 0 .43439 -22.337 6.2419)" y1="2.3162" x1="52.718"/>
  <linearGradient id="linearGradient5553" y2="36" gradientUnits="userSpaceOnUse" x2="115" gradientTransform="matrix(1.3157 0 0 1.2396 -129.05 -38.126)" y1="36" x1="107">
   <stop id="stop6470" style="stop-color:#cd8033" offset="0"/>
   <stop id="stop6472" style="stop-color:#bb5e12" offset="1"/>
  </linearGradient>
  <radialGradient id="radialGradient5556" gradientUnits="userSpaceOnUse" cy="35.357" cx="15.415" gradientTransform="matrix(.47209 0 0 .47512 -2.0095 2.0966)" r="7.5792">
   <stop id="stop6965" style="stop-color:#696969" offset="0"/>
   <stop id="stop6967" offset="1"/>
  </radialGradient>
  <linearGradient id="linearGradient5559" y2="31.724" xlink:href="#linearGradient6651" gradientUnits="userSpaceOnUse" x2="22.012" gradientTransform="matrix(.49251 0 0 .52721 -1.7832 -.31891)" y1="29.811" x1="20.251"/>
  <linearGradient id="linearGradient5562" y2="23.743" gradientUnits="userSpaceOnUse" x2="33.437" gradientTransform="matrix(.49294 0 0 .51865 -1.7924 -.028504)" y1="18.868" x1="28.059">
   <stop id="stop6953" style="stop-color:#6e3d09" offset="0"/>
   <stop id="stop6959" style="stop-color:#ea8113" offset=".24242"/>
   <stop id="stop6961" style="stop-color:#5c3307" offset=".62121"/>
   <stop id="stop6955" style="stop-color:#e07c12" offset="1"/>
  </linearGradient>
 </defs>
 <g id="g6084">
  <path id="path8424" style="opacity:.3;enable-background:new;fill:url(#radialGradient6075)" d="m41.189 42.343c0 2.2455-6.4504 4.0659-14.407 4.0659-7.9569 0-14.407-1.8203-14.407-4.0659 0-2.2455 6.4504-4.0659 14.407-4.0659 7.9569 0 14.407 1.8203 14.407 4.0659z" transform="matrix(.48586 0 0 .24595 3.9877 12.586)"/>
  <path id="path8625" style="stroke:#673907;stroke-linecap:round;stroke-width:.74304;fill:url(#linearGradient5562)" d="m9.8207 12.621 2.0043 1.971c3.543-3.663 8.766-12.435 8.766-12.435 0.212-0.6355-0.536-1.0356-0.91-0.6075 0 0-6.7484 7.3114-9.8601 11.072z"/>
  <path id="path8627" style="stroke:#787a75;stroke-linecap:round;stroke-width:.74882;fill:url(#linearGradient5559)" d="m5.4134 18.464 1.272 1.1616 5.3542-4.9402c-0.21548-0.82376-1.4487-2.311-2.3722-2.311l-4.2539 6.0896z"/>
  <path id="path8629" style="fill:url(#radialGradient5556)" d="m1 21.977c3.135 0 5.5143 0.38556 5.9647-1.97 0.36297-1.8982-2.1644-2.8078-3.4169-1.1132-1.2065 1.6325-2.5478 3.0832-2.5478 3.0832z"/>
  <path id="path8641" style="stroke:url(#linearGradient5553);stroke-linecap:round;stroke-width:1.0004;fill:url(#linearGradient5551)" d="m16.663 3.5016c-2.3209 0.065293-4.1626 0.78997-4.1626 1.6638v2.6705c0 0.91685 2.0272 1.6638 4.5095 1.6638s4.4902-0.74699 4.4902-1.6638v-2.6705c0-0.91685-2.0079-1.6638-4.4902-1.6638-0.11638 0-0.23276-0.00321-0.34688 0z"/>
  <path id="path8645" style="stroke:#828282;stroke-linecap:round;stroke-width:1.0002;fill:url(#linearGradient5548)" d="m12.575 21.263-0.07526-10.897 1.2381-1.6422c1.4869-0.2982 5.0737-0.2982 6.4168 0l1.313 1.6422 0.03189 11.134-8.9245-0.23714z"/>
  <path id="path8647" style="fill:url(#linearGradient5545)" d="m12.921 20.846s1.3852-3.8462 4.0316-3.8462c2.7305 0 4.3676 4 4.3676 4l-8.3993-0.15385z"/>
  <path id="path8649" style="fill:url(#linearGradient5542)" d="m13 11.469 0.06084 4.3856c1.0243-0.62032 6.4707-0.80494 7.9193 0.14543l0.02-4.531c-0.86131-0.54829-6.2974-0.69786-8 0z"/>
  <rect id="rect8653" style="stroke:#828282;stroke-linecap:round;stroke-width:1.0044;fill:url(#linearGradient5539)" rx=".48657" ry=".44909" height="1.9956" width="10.996" y="20.502" x="11.502"/>
  <path id="path8655" style="fill:#f0f0f0" d="m13.002 10.77c1.2507-0.60341 5.6663-0.46281 8.083 0.000275l-1.192-1.5231c-1.6417-0.34264-3.8147-0.44579-5.7743 0l-1.1165 1.5228z"/>
  <path id="path8651" style="opacity:.6;stroke:url(#radialGradient5535);stroke-linecap:round;stroke-width:1.0009;fill:none" d="m13.709 21.5-0.209-10.641 0.896-1.1593c1.0247-0.26575 4.1895-0.26575 5.115 0l0.98807 1.1594-0.08174 10.628-6.7086 0.01276z"/>
  <path id="path8657" style="opacity:.6;fill:url(#linearGradient5532)" d="m15 10.267v5.7333l1-1.3333-0.11109-4.6667-0.88891 0.26667z"/>
  <g id="g8659" style="opacity:.57778;stroke-width:2.1923" transform="matrix(0.534 0 0 .58632 -1.885 -.083848)">
   <path id="path8663" style="fill:#e6e7e6" d="m29.747 8.8418v3.24s1.3862-0.08252 2.2467-0.09616v-3.3149c-1.1603 0.025805-2.2467 0.17105-2.2467 0.17105z"/>
   <path id="path8665" style="opacity:.44444;fill:#e6e7e6" d="m34.241 8.7722v3.2953s1.261-0.0052 2.2469 0.01433v-3.337c-1.1353-0.051535-2.2469 0.02742-2.2469 0.02742z"/>
  </g>
  <path id="path8430" style="opacity:.2;enable-background:new;fill:url(#radialGradient6075)" d="m41.189 42.343c0 2.2455-6.4504 4.0659-14.407 4.0659-7.9569 0-14.407-1.8203-14.407-4.0659 0-2.2455 6.4504-4.0659 14.407-4.0659 7.9569 0 14.407 1.8203 14.407 4.0659z" transform="matrix(.52057 0 0 .49190 -6.4417 .17139)"/>
 </g>
</svg>
