<?xml version="1.0" encoding="UTF-8" standalone="no"?>
<!-- Created with Inkscape (http://www.inkscape.org/) -->
<svg id="svg11300" xmlns="http://www.w3.org/2000/svg" height="24" width="24" version="1.0" xmlns:xlink="http://www.w3.org/1999/xlink">
 <defs id="defs3">
  <linearGradient id="linearGradient5560" y2="23.252" gradientUnits="userSpaceOnUse" x2="21.08" gradientTransform="matrix(.54694 0 0 .55472 -4.3173 -5.7938)" y1="47.686" x1="10.866">
   <stop id="stop6763" style="stop-color:#f0f0f0" offset="0"/>
   <stop id="stop6765" style="stop-color:#c8c8c8" offset=".62007"/>
   <stop id="stop6767" style="stop-color:#a0a0a0" offset=".81297"/>
   <stop id="stop6769" style="stop-color:#a0a0a0" offset=".91870"/>
   <stop id="stop6771" style="stop-color:#c8c8c8" offset=".98263"/>
   <stop id="stop6773" style="stop-color:#dcdcdc" offset="1"/>
  </linearGradient>
  <linearGradient id="linearGradient5562" y2="20.627" gradientUnits="userSpaceOnUse" x2="22.517" gradientTransform="matrix(.54694 0 0 .55472 -4.3173 -5.7938)" y1="48.039" x1="13.34">
   <stop id="stop6371" style="stop-color:#8e8e8e" offset="0"/>
   <stop id="stop6373" style="stop-color:#737373" offset=".51945"/>
   <stop id="stop6375" style="stop-color:#5a5a5a" offset=".68466"/>
   <stop id="stop6377" style="stop-color:#5a5a5a" offset=".76485"/>
   <stop id="stop6379" style="stop-color:#595959" offset=".91405"/>
   <stop id="stop6381" style="stop-color:#555" offset="1"/>
  </linearGradient>
  <linearGradient id="linearGradient5566" y2="16.181" gradientUnits="userSpaceOnUse" x2="43.349" gradientTransform="matrix(.57350 0 0 .56107 -6.9092 -4.2377)" y1="12.288" x1="39.788">
   <stop id="stop2266" style="stop-color:#d7e866" offset="0"/>
   <stop id="stop2268" style="stop-color:#8cab2a" offset="1"/>
  </linearGradient>
  <radialGradient id="radialGradient5572" gradientUnits="userSpaceOnUse" cy="48.86" cx="15.459" gradientTransform="matrix(1.6462 .016042 -.0039663 .16469 74.184 41.296)" r="10.625">
   <stop id="stop6674" offset="0"/>
   <stop id="stop6676" style="stop-opacity:0" offset="1"/>
  </radialGradient>
  <radialGradient id="radialGradient6350" gradientUnits="userSpaceOnUse" cy="4.731" cx="15.393" gradientTransform="matrix(1 0 0 .85002 0 .54580)" r="3.1048">
   <stop id="stop6346" style="stop-color:#fff" offset="0"/>
   <stop id="stop6348" style="stop-color:#fff;stop-opacity:0" offset="1"/>
  </radialGradient>
  <radialGradient id="radialGradient6352" gradientUnits="userSpaceOnUse" cy="10.832" cx="7.0351" gradientTransform="matrix(.65436 0 0 .78723 2.4317 3.2842)" r="6.9044">
   <stop id="stop4224" style="stop-color:#fff" offset="0"/>
   <stop id="stop4226" style="stop-color:#fff;stop-opacity:0" offset="1"/>
  </radialGradient>
 </defs>
 <g id="g6354" transform="matrix(.99982 0 0 1 1.0039 .99991)">
  <path id="path6726" style="opacity:.3;fill-rule:evenodd;enable-background:new;fill:url(#radialGradient5572)" d="m96 51h23.18l-11.86-3.767-11.32 3.767z" transform="matrix(.46659 0 0 .73338 -44.797 -15.403)"/>
  <path id="path5540" style="fill:url(#XMLID_8_)" d="m14.963 13.386c-0.08347-0.48239-0.25522-0.97898-0.45603-1.3985-0.01006-0.02547-0.02329-0.05267-0.04063-0.08178-0.07207-0.14382-0.14681-0.27793-0.22283-0.39697-0.11738-0.25142-0.20155-0.54563-0.20155-0.92215 0-1.7467 0.15367-2.1645 0.42215-2.414 0.484-0.4496 0.716-1.1445 0.224-1.6022-0.193-0.1799-0.414-0.271-0.655-0.271-0.3102 0-0.64238 0.15646-0.96021 0.45224-0.69416 0.54927-0.45362 1.7336-0.45362 2.7949 0 0.48568-1.0316 0.82945-1.4453 0.92509-1.2067 0.0047-4.6376 0.1783-5.7531 1.6972-1.0053 1.3682-5.1479 8.1313-5.1479 9.2085 0 0.09565 0.083463 0.17327 0.1863 0.17327 1.744 0 13.616-5.9687 14.093-6.4015 0.40536-0.36803 0.54791-0.9776 0.4117-1.7629z"/>
  <path id="path5542" style="stroke-width:1.0033;stroke:#3d7406;enable-background:new;fill:url(#linearGradient5566)" d="m18.039 0.85874c-1.576 0.91466-4.811 3.9339-5.16 4.7829-0.263 0.2398-0.125 1.7349 0.241 1.9744l0.63875 0.60592c0.54532 0.49658 1.9608 0.22729 2.3248-0.056056 1.3029-0.94677 4.5944-3.8766 4.9356-4.4396 0.5453-0.70981 0.6741-1.9821 0.12861-2.4787l-0.449-0.40933c-0.54508-0.49619-1.7511-0.40474-2.6591 0.020569z"/>
  <path id="path6730" style="opacity:.6;stroke:url(#radialGradient6350);stroke-linecap:round;fill:none" d="m14.29 5.7783c1.761-1.7031 3.473-3.316 5.21-4.2783"/>
  <path id="path5548" style="stroke-linejoin:round;stroke:url(#linearGradient5562);stroke-width:.70513;fill:url(#linearGradient5560)" d="m14.894 5.3526c-0.30009-0.00222-0.60313 0.17823-0.85459 0.43338-0.53692 0.54431-0.39311 1.1806-0.39311 3.0856 0 0.55821-1.4367 1.1614-1.7946 1.1614-0.01776-0.000213-0.0334 0-0.05129 0-1.1451 0-4.8711 0.16294-6.0164 1.7508s-5.4352 8.8048-5.4352 9.8636c1.7178 0 14.196-6.2904 14.836-6.882 0.77421-0.71578 0.39779-2.159-0.10259-3.1203 0.0034-0.0045-0.0021-0.01199 0-0.01734 0.0139-0.03475 0.01027-0.08088-0.03417-0.15601-0.26818-0.4534-0.41018-0.9076-0.41018-1.5428 0-1.6034 0.16641-2.4226 0.56402-2.8256 0.358-0.3632 0.674-1.0495 0.222-1.5083-0.17-0.1721-0.35-0.2414-0.53-0.2427z"/>
  <path id="path5550" style="fill:url(#XMLID_12_)" d="m14.206 7.9221c-0.38918 0.36179-0.68186 1.1803-0.68186 2.6197 0 0.57024 0.50674 1.0223 0.76925 1.4295 0.53541 0.83014-3.7445-1.3418-3.2312-1.3418 0.35042 0 1.7426-0.49521 1.7426-0.99631 0-1.7102-0.12647-2.2704 0.39908-2.759 0.3938-0.36647 0.9095-0.59293 1.3522-0.18107 0.44264 0.41187 0.000187 0.90309-0.35007 1.229z"/>
  <path id="path5552" style="fill:url(#XMLID_13_)" d="m11.105 10.645c-1.0768 0-4.4537 0.15595-5.5307 1.6218-1.0304 1.4026-4.7721 7.5524-5.0933 8.9521 0.032229 0.3053 3.9773-1.4602 7.1116-2.9435 3.264-1.5447 6.4555-3.0783 6.7627-3.3571 1.077-0.97725-0.09577-3.3674-0.634-3.6117-0.53839-0.24414-1.5353-0.83985-2.6164-0.66155z"/>
  <path id="path5554" style="fill:url(#XMLID_14_)" d="m11.278 10.607c0.56766-0.10171 1.5275-0.53558 1.5275-0.97413l0.80016 0.38102c0 0.88299 0.19694 1.3245 0.51419 1.7031 0.04828 0.07901-2.9229-1.0956-2.8418-1.11z"/>
  <path id="path6385" style="opacity:.6;stroke-width:0.821;stroke:url(#radialGradient6352);enable-background:new;fill:none" d="m12.376 10.41c0.02783 0.7511-4.7745 0.15178-5.831 1.6475-1.8269 2.8122-3.4239 5.0919-4.9432 8.4023 4.3735-1.6318 8.5861-3.863 12.988-6.343"/>
  <path id="path6361" style="opacity:.6;stroke:#fff;stroke-linecap:square;stroke-width:.699;fill:none" d="m109.19 37.25c0 0.22437-0.1539 0.40625-0.34375 0.40625s-0.34375-0.18188-0.34375-0.40625 0.1539-0.40625 0.34375-0.40625 0.34375 0.18188 0.34375 0.40625z" transform="matrix(.73995 0 0 .64485 -65.744 -17.756)"/>
  <path id="rect6775" style="opacity:.6;fill:#fff;fill-rule:evenodd" d="m14.095 6.631c0.171-0.5386 0.962 0.1593 0.62 0.4641-0.554 0.5252-0.599 1.6635-0.517 2.9049l-0.602-0.2406c0.66915-0.39734 0.34035-1.9875 0.4992-3.1283z"/>
 </g>
</svg>
