<?xml version="1.0" encoding="UTF-8" standalone="no"?>
<!-- Created with Inkscape (http://www.inkscape.org/) -->
<svg id="svg2945" xmlns="http://www.w3.org/2000/svg" height="24" width="24" version="1.1" xmlns:xlink="http://www.w3.org/1999/xlink">
 <defs id="defs2947">
  <linearGradient id="linearGradient4364">
   <stop id="stop4366" style="stop-color:#4083c2" offset="0"/>
   <stop id="stop4368" style="stop-color:#1f4b6a" offset="1"/>
  </linearGradient>
  <linearGradient id="linearGradient3926">
   <stop id="stop3928" style="stop-color:#cd8033" offset="0"/>
   <stop id="stop3930" style="stop-color:#bb5e12" offset="1"/>
  </linearGradient>
  <linearGradient id="linearGradient4281">
   <stop id="stop4283" style="stop-color:#69aa28" offset="0"/>
   <stop id="stop4285" style="stop-color:#548820" offset="1"/>
  </linearGradient>
  <linearGradient id="linearGradient4253">
   <stop id="stop4255" style="stop-opacity:.35088" offset="0"/>
   <stop id="stop4257" style="stop-opacity:0" offset=".5"/>
   <stop id="stop4259" style="stop-opacity:.10588" offset="1"/>
  </linearGradient>
  <linearGradient id="linearGradient4241">
   <stop id="stop4243" style="stop-opacity:.27059" offset="0"/>
   <stop id="stop4249" style="stop-opacity:0" offset=".5"/>
   <stop id="stop4245" style="stop-opacity:.27059" offset="1"/>
  </linearGradient>
  <linearGradient id="linearGradient3280">
   <stop id="stop3282" offset="0"/>
   <stop id="stop3284" style="stop-opacity:0" offset="1"/>
  </linearGradient>
  <linearGradient id="linearGradient9421">
   <stop id="stop9423" style="stop-color:#fff" offset="0"/>
   <stop id="stop9425" style="stop-color:#fff;stop-opacity:0" offset="1"/>
  </linearGradient>
  <filter id="filter9752" height="1.1294" width="2.6593" color-interpolation-filters="sRGB" y="-.064677" x="-.82964">
   <feGaussianBlur id="feGaussianBlur9754" stdDeviation="1.0370543"/>
  </filter>
  <filter id="filter9752-2" height="1.1294" width="2.6593" color-interpolation-filters="sRGB" y="-.064677" x="-.82964">
   <feGaussianBlur id="feGaussianBlur9754-7" stdDeviation="1.0370543"/>
  </filter>
  <linearGradient id="linearGradient10367">
   <stop id="stop10369" style="stop-color:#fff" offset="0"/>
   <stop id="stop10371" style="stop-color:#204a87" offset="1"/>
  </linearGradient>
  <radialGradient id="radialGradient7311" xlink:href="#linearGradient10367" gradientUnits="userSpaceOnUse" cy="221.12" cx="550.62" gradientTransform="matrix(.13840 0 0 .13775 -67.758 -14.061)" r="2.75"/>
  <radialGradient id="radialGradient7314" xlink:href="#linearGradient10367" gradientUnits="userSpaceOnUse" cy="221.12" cx="550.62" gradientTransform="matrix(.13840 0 0 .13775 -67.637 -15.571)" r="2.75"/>
  <radialGradient id="radialGradient7317" xlink:href="#linearGradient10367" gradientUnits="userSpaceOnUse" cy="221.12" cx="550.62" gradientTransform="matrix(.13840 0 0 .13775 -58.051 -10.196)" r="2.75"/>
  <radialGradient id="radialGradient7320" xlink:href="#linearGradient10367" gradientUnits="userSpaceOnUse" cy="221.12" cx="550.62" gradientTransform="matrix(.13840 0 0 .13775 -57.347 -10.74)" r="2.75"/>
  <radialGradient id="radialGradient7323" xlink:href="#linearGradient10367" gradientUnits="userSpaceOnUse" cy="221.12" cx="550.62" gradientTransform="matrix(.13840 0 0 .13775 -61.934 -10.196)" r="2.75"/>
  <radialGradient id="radialGradient7326" xlink:href="#linearGradient10367" gradientUnits="userSpaceOnUse" cy="221.12" cx="550.62" gradientTransform="matrix(.13840 0 0 .13775 -70.088 -15.994)" r="2.75"/>
  <radialGradient id="radialGradient7329" xlink:href="#linearGradient10367" gradientUnits="userSpaceOnUse" cy="221.12" cx="550.62" gradientTransform="matrix(.13840 0 0 .13775 -59.41 -10.196)" r="2.75"/>
  <radialGradient id="radialGradient7332" xlink:href="#linearGradient10367" gradientUnits="userSpaceOnUse" cy="221.12" cx="550.62" gradientTransform="matrix(.13840 0 0 .13775 -62.201 -10.74)" r="2.75"/>
  <linearGradient id="linearGradient7338" y2="47.798" xlink:href="#linearGradient4364" gradientUnits="userSpaceOnUse" x2="23.5" gradientTransform="matrix(.39831 0 0 .34533 7.4279 3.496)" y1="20.094" x1="20.007"/>
  <linearGradient id="linearGradient7342" y2="43.446" gradientUnits="userSpaceOnUse" x2="32.697" gradientTransform="matrix(.30868 0 0 .45290 9.4408 -1.8247)" y1="44.446" x1="13.776">
   <stop id="stop4386" style="stop-color:#8badea" offset="0"/>
   <stop id="stop4388" style="stop-color:#fbfbfb;stop-opacity:0" offset="1"/>
  </linearGradient>
  <linearGradient id="linearGradient7345" y2="23" xlink:href="#linearGradient4253" gradientUnits="userSpaceOnUse" x2="32" gradientTransform="matrix(.42341 0 0 .40620 6.4972 4.1711)" y1="23" x1="15"/>
  <linearGradient id="linearGradient7348" y2="23" gradientUnits="userSpaceOnUse" x2="32" gradientTransform="matrix(.40099 0 0 .34752 7.1857 5.4006)" y1="23" x1="15">
   <stop id="stop4378" style="stop-color:#2a648f" offset="0"/>
   <stop id="stop4380" style="stop-color:#8badea" offset=".37918"/>
   <stop id="stop4382" style="stop-color:#2a648f" offset="1"/>
  </linearGradient>
  <linearGradient id="linearGradient7350" y2="43.218" xlink:href="#linearGradient4364" gradientUnits="userSpaceOnUse" x2="26.856" gradientTransform="matrix(.40099 0 0 .34752 7.1857 5.4006)" y1="5.8" x1="18.805"/>
  <linearGradient id="linearGradient7354" y2="23" xlink:href="#linearGradient4241" gradientUnits="userSpaceOnUse" x2="32" gradientTransform="matrix(.45617 0 0 .42356 5.7799 2.7985)" y1="23" x1="15"/>
  <radialGradient id="radialGradient7357" xlink:href="#linearGradient3280" gradientUnits="userSpaceOnUse" cy="14.125" cx="21.344" gradientTransform="matrix(.54308 0 0 .24559 -4.0914 17.031)" r="11.969"/>
  <radialGradient id="radialGradient7360" xlink:href="#linearGradient10367" gradientUnits="userSpaceOnUse" cy="221.12" cx="550.62" gradientTransform="matrix(.13840 0 0 .13775 -69.7 -12.129)" r="2.75"/>
  <radialGradient id="radialGradient7364" xlink:href="#linearGradient10367" gradientUnits="userSpaceOnUse" cy="221.12" cx="550.62" gradientTransform="matrix(.13840 0 0 .13775 -69.578 -13.638)" r="2.75"/>
  <linearGradient id="linearGradient7367" y2="110.92" gradientUnits="userSpaceOnUse" x2="718.5" gradientTransform="translate(-696.97 -54.5)" y1="56.875" x1="718.5">
   <stop id="stop9423-1" style="stop-color:#fff" offset="0"/>
   <stop id="stop9425-3" style="stop-color:#fff;stop-opacity:0" offset="1"/>
  </linearGradient>
  <linearGradient id="linearGradient7371" y2="61.085" xlink:href="#linearGradient3926" gradientUnits="userSpaceOnUse" x2="29.624" gradientTransform="matrix(.46905 0 0 .34530 -2.3192 -4.5028)" y1="27.732" x1="22"/>
  <linearGradient id="linearGradient7375" y2="43.446" gradientUnits="userSpaceOnUse" x2="32.697" gradientTransform="matrix(.39171 0 0 .45290 -1.0482 -9.8161)" y1="44.446" x1="13.776">
   <stop id="stop3938" style="stop-color:#cd8033" offset="0"/>
   <stop id="stop3940" style="stop-color:#fbfbfb;stop-opacity:0" offset="1"/>
  </linearGradient>
  <linearGradient id="linearGradient7378" y2="23" gradientUnits="userSpaceOnUse" x2="32" gradientTransform="matrix(.42105 0 0 .43883 -1.0526 .80587)" y1="23" x1="15">
   <stop id="stop4255-7" style="stop-opacity:.10588" offset="0"/>
   <stop id="stop4257-5" style="stop-opacity:0" offset=".5"/>
   <stop id="stop4259-1" style="stop-opacity:.10588" offset="1"/>
  </linearGradient>
  <radialGradient id="radialGradient7381" xlink:href="#linearGradient10367" gradientUnits="userSpaceOnUse" cy="221.12" cx="550.62" gradientTransform="matrix(.27679 0 0 .27550 -144.24 -48.279)" r="2.75"/>
  <linearGradient id="linearGradient7384" y2="23" gradientUnits="userSpaceOnUse" x2="32" gradientTransform="matrix(.46904 0 0 .42467 -2.3189 1.0447)" y1="23" x1="15">
   <stop id="stop3958" style="stop-color:#e08223" offset="0"/>
   <stop id="stop3960" style="stop-color:#edd563" offset=".37918"/>
   <stop id="stop3962" style="stop-color:#e08223" offset="1"/>
  </linearGradient>
  <linearGradient id="linearGradient7386" y2="43.218" xlink:href="#linearGradient3926" gradientUnits="userSpaceOnUse" x2="26.856" gradientTransform="matrix(.46904 0 0 .42467 -2.3189 1.0447)" y1="5.8" x1="18.805"/>
  <linearGradient id="linearGradient7390" y2="23" gradientUnits="userSpaceOnUse" x2="32" gradientTransform="matrix(.47459 0 0 .44348 -2.4316 .87087)" y1="23" x1="15">
   <stop id="stop4243-0" style="stop-opacity:.27059" offset="0"/>
   <stop id="stop4249-3" style="stop-opacity:0" offset=".5"/>
   <stop id="stop4245-2" style="stop-opacity:.27059" offset="1"/>
  </linearGradient>
  <linearGradient id="linearGradient7397" y2="110.92" xlink:href="#linearGradient9421" gradientUnits="userSpaceOnUse" x2="718.5" gradientTransform="translate(-679.66 -63.585)" y1="65.346" x1="718.25"/>
  <linearGradient id="linearGradient7401" y2="61.085" xlink:href="#linearGradient4281" gradientUnits="userSpaceOnUse" x2="29.624" gradientTransform="matrix(.44806 0 0 .17405 5.9852 1.033)" y1="27.732" x1="22"/>
  <linearGradient id="linearGradient7405" y2="43.446" gradientUnits="userSpaceOnUse" x2="32.697" gradientTransform="matrix(.48832 0 0 .45290 4.8403 -11.487)" y1="44.446" x1="13.776">
   <stop id="stop4301" style="stop-color:#d7e866" offset="0"/>
   <stop id="stop4303" style="stop-color:#fbfbfb;stop-opacity:0" offset="1"/>
  </linearGradient>
  <linearGradient id="linearGradient7408" y2="23" xlink:href="#linearGradient4253" gradientUnits="userSpaceOnUse" x2="32" gradientTransform="matrix(.39130 0 0 .42673 7.3044 -2.7239)" y1="23" x1="15"/>
  <linearGradient id="linearGradient7411" y2="23" gradientUnits="userSpaceOnUse" x2="32" gradientTransform="matrix(.44805 0 0 .38193 5.9853 -2.096)" y1="23" x1="15">
   <stop id="stop4293" style="stop-color:#8cab2a" offset="0"/>
   <stop id="stop4295" style="stop-color:#d7e866" offset=".37918"/>
   <stop id="stop4297" style="stop-color:#8cab2a" offset="1"/>
  </linearGradient>
  <linearGradient id="linearGradient7413" y2="43.218" xlink:href="#linearGradient4281" gradientUnits="userSpaceOnUse" x2="26.856" gradientTransform="matrix(.44805 0 0 .38193 5.9853 -2.096)" y1="5.8" x1="18.805"/>
  <linearGradient id="linearGradient7417" y2="23" xlink:href="#linearGradient4241" gradientUnits="userSpaceOnUse" x2="32" gradientTransform="matrix(.45351 0 0 .43490 5.8717 -3.7294)" y1="23" x1="15"/>
  <linearGradient id="linearGradient7422" y2="110.92" xlink:href="#linearGradient9421" gradientUnits="userSpaceOnUse" x2="718.5" gradientTransform="translate(-629.66 -79.585)" y1="65.346" x1="718.25"/>
  <radialGradient id="radialGradient7428" xlink:href="#linearGradient3280" gradientUnits="userSpaceOnUse" cy="14.125" cx="21.344" gradientTransform="matrix(.58486 0 0 .17543 4.517 19.022)" r="11.969"/>
  <radialGradient id="radialGradient7432" xlink:href="#linearGradient3280" gradientUnits="userSpaceOnUse" cy="14.125" cx="21.344" gradientTransform="matrix(.62663 0 0 .24560 3.1253 12.031)" r="11.969"/>
 </defs>
 <path id="path7430" style="opacity:.5;color:black;fill:url(#radialGradient7432)" d="m24 15.5c-1.039 3.206-4.905 3.402-7.5 3.5-2.653-0.134-6.389-0.287-7.5-3.5 1.038-3.206 4.906-3.402 7.5-3.5 2.6531 0.13362 6.39 0.28699 7.5 3.5003z"/>
 <path id="path7426" style="opacity:.5;color:black;fill:url(#radialGradient7428)" d="m24 21.5c-0.969 2.29-4.578 2.43-7 2.5-2.476-0.095-5.963-0.205-7-2.5 0.969-2.29 4.578-2.43 7-2.5 2.4762 0.09544 5.964 0.20499 7 2.5002z"/>
 <path id="path4302" style="opacity:.5;color:black;fill:url(#radialGradient7357)" d="m14 20.5c-0.9 3.205-4.2514 3.401-6.5 3.5-2.2994-0.134-5.5373-0.288-6.5-3.5 0.8995-3.206 4.2515-3.402 6.5-3.5 2.2993 0.13361 5.538 0.28697 6.5 3.5z"/>
 <path id="path7434" style="opacity:.9;fill:#fff" d="m13 20a5 2 0 0 1 -10 0 5 2 0 1 1 10 0z"/>
 <path id="path8212" style="opacity:.9;fill:#fff" d="m22 14.5a5.5 2.5002 0 0 1 -11 0 5.5 2.5002 0 1 1 11 0z"/>
 <path id="path2957" style="opacity:.6;stroke-linejoin:round;stroke:#454545;stroke-width:.96418px;fill:url(#linearGradient7417)" d="m11.541 4.121v10.633c-0.0085 1.0563 2.8101 1.7641 4.9886 1.7641 2.219 0 4.9971-0.74666 4.9886-1.7641v-10.633c-0.032-0.8232-1.518-1.6149-4.989-1.6373-4.529-0.0291-8.0379 1.5163-4.988 1.6373z"/>
 <path id="path4265" style="stroke:url(#linearGradient7413);stroke-width:.96418px;fill:url(#linearGradient7411)" d="m12.482 7.9723v5.3998c-0.0084 0.92765 2.2403 1.1458 4.0325 1.1458s4.0408-0.25224 4.0325-1.1458v-5.3998c-0.032-0.7229-2.24-0.9144-4.032-0.9144-1.7922 0-4.0408 0.1574-4.0325 0.91451z"/>
 <path id="path4251" style="fill:url(#linearGradient7408)" d="m12 4v10.281c-0.0074 1.2651 2.9348 1.7149 4.5 1.7149s4.5073-0.37352 4.5-1.7149v-10.281c0.0074 0.83085-3.1444 1.3493-4.7097 1.3493-1.565 0-4.297-0.4803-4.29-1.3493z"/>
 <path id="path4271" style="fill:url(#linearGradient7405)" d="m20.304 8.1893a4.1258 0.97069 0 0 1 -8.2516 0 4.1258 0.97069 0 1 1 8.2516 0z"/>
 <path id="path4417" style="stroke:url(#linearGradient7401);stroke-linecap:round;stroke-width:0.964;fill:none" d="m12.482 8.0819c-0.008 0.4227 2.24 0.5221 4.033 0.5221 1.7922 0 4.0409-0.11501 4.0325-0.52214"/>
 <path id="path4440" style="opacity:.6;stroke-linejoin:round;stroke:#585858;stroke-linecap:round;stroke-width:.96418px;fill:none" d="m21.218 3.4821c-0.032 1.0236-1.218 2.0358-4.718 2.0358s-5.026-0.9639-5.018-2.0358"/>
 <rect id="rect9419" style="filter:url(#filter9752);enable-background:new;fill:url(#linearGradient7397)" transform="matrix(.48539 0 0 .48313 -.081847 1.0187)" rx="1.1632" ry="1.921" height="19.72" width="3.2468" y="10.695" x="37.096"/>
 <path id="path2957-3" style="opacity:.6;stroke-linejoin:round;stroke:#454545;stroke-width:.96418px;fill:url(#linearGradient7390)" d="m3.5009 3.1517v16.567c-0.00886 1.0772 1.9913 1.799 4.2711 1.799 2.3222 0 4.7547-0.7614 4.7459-1.799v-16.567c-0.034-0.8398-1.518-1.6699-4.746-1.6699-3.772 0-6.772 1.5179-4.2711 1.6696z"/>
 <path id="path4265-3" style="stroke:url(#linearGradient7386);stroke-width:.96418px;fill:url(#linearGradient7384)" d="m4.4821 9.4989v8.7449c-0.00876 1.0315 1.4071 1.274 3.2833 1.274s3.7612-0.28048 3.7525-1.274v-8.7449c-0.518-0.4991-1.518-1.017-3.7526-1.017-1.7654 0-2.7654 0.5179-3.2833 1.0168z"/>
 <path id="path10450" style="opacity:.6;enable-background:new;fill:url(#radialGradient7381)" d="m8.6983 12.379a0.72808 0.72469 0 0 1 -1.4562 0 0.72808 0.72469 0 1 1 1.4562 0z"/>
 <path id="path4251-8" style="fill:url(#linearGradient7378)" d="m4 3v16.237c-0.0079 1.301 3.1579 1.763 4.8421 1.763 1.6839 0 3.1659-0.384 3.1579-1.763v-16.237c0.008 0.8544-1.699 1.3875-3.3835 1.3875-1.6842 0-4.6244-0.4939-4.6165-1.3875z"/>
 <path id="path4271-6" style="fill:url(#linearGradient7375)" d="m11.356 9.8605a3.3095 0.97069 0 0 1 -6.619 0 3.3095 0.97069 0 1 1 6.619 0z"/>
 <path id="path4417-6" style="stroke:url(#linearGradient7371);stroke-linecap:round;stroke-width:0.964;fill:none" d="m4.482 9.482c0.518 0.518 1.518 0.992 3.5181 1.036 1.9994 0.043 2.9999-0.518 3.5179-1.0359"/>
 <path id="path4440-0" style="opacity:.6;stroke-linejoin:round;stroke:#686868;stroke-linecap:round;stroke-width:.96418px;fill:none" d="m12.518 3.4821c-0.03361 0.5208-2.8535 1.0358-4.7558 1.0358s-4.2889-0.49044-4.28-1.0358"/>
 <rect id="rect9419-9" style="filter:url(#filter9752-2);enable-background:new;fill:url(#linearGradient7367)" transform="matrix(.48539 0 0 .48313 -.081847 1.0187)" rx="2.4464" ry="1.921" height="30.557" width="3.8697" y="8.9427" x="19.16"/>
 <path id="path10456" style="opacity:.7;enable-background:new;fill:url(#radialGradient7364)" d="m6.8902 16.69a0.36404 0.36235 0 0 1 -0.72808 0 0.36404 0.36235 0 1 1 0.72808 0z"/>
 <path id="path10458" style="opacity:.7;enable-background:new;fill:url(#radialGradient7360)" d="m6.7689 18.2a0.36404 0.36235 0 0 1 -0.72808 0 0.36404 0.36235 0 1 1 0.72808 0z"/>
 <path id="path8210" style="opacity:.9;fill:#fff" d="m22 20.5a5.5 2.5002 0 0 1 -11 0 5.5 2.5002 0 1 1 11 0z"/>
 <path id="path4304" style="opacity:.6;stroke-linejoin:round;stroke:#454545;stroke-width:.96418px;fill:url(#linearGradient7354)" d="m15.131 8.6218-0.0015 2.0953-3.6478 10.083c-0.0086 1.0288 2.8266 1.7181 5.0179 1.7181 2.2321 0 5.0264-0.72719 5.0179-1.7181l-3.6478-10.083-0.0015-2.0953c0.213-0.5182 0.131-1.1164-1.369-1.1392s-3.5 0.4851-1.368 1.139h-0.000119z"/>
 <path id="path4308" style="stroke:url(#linearGradient7350);stroke-width:.96418px;fill:url(#linearGradient7348)" d="m13.802 17.553-0.802 1.922c-0.0076 0.84408 2.0049 1.0426 3.6089 1.0426 1.6039 0 3.6164-0.22952 3.6089-1.0426l-0.80198-1.9228c-0.02834-0.65787-1.203-0.83213-2.8069-0.83213-1.604 0-2.8144 0.14322-2.8069 0.83213z"/>
 <path id="path4310" style="fill:url(#linearGradient7345)" d="m15.443 11.225-3.4429 9.7318c1 1.043 2.754 1.033 4.447 1.033 1.694 0 3.553 0.01 4.553-1.088l-3.3345-9.623c0.06063-0.89645-0.23699-1.1138-1.3396-1.2738-0.37503-0.054426-0.99632 0.30479-0.88294 1.2194z"/>
 <path id="path4312" style="fill:url(#linearGradient7342)" d="m19.216 17.852c-0.61006 1.018-1.7511 0.9448-2.608 0.97069-0.89072-0.05119-1.9565 0.03088-2.608-0.97069 0.61006-1.018 1.7511-0.9448 2.608-0.97069 0.89072 0.05119 1.9565-0.03088 2.608 0.97069z"/>
 <path id="path4316" style="stroke:url(#linearGradient7338);stroke-linecap:round;stroke-width:0.964;fill:none" d="m14 17.482c0 0.518 1.195 1.036 2.788 1.036s2.212-0.518 2.688-1.036"/>
 <path id="path4318" style="opacity:.6;stroke-linejoin:round;stroke:#585858;stroke-width:.96418px;fill:none" d="m17.918 8.5821c-0.024 0.9092-1.033 1.0157-1.418 1.0334-0.469 0.0215-1.424-0.0813-1.418-1.0334"/>
 <rect id="rect4320" style="filter:url(#filter9752);enable-background:new;fill:url(#linearGradient7422)" transform="matrix(.33233 -.12049 .085587 .46786 -11.986 25.24)" rx="1.5791" ry="1.9425" height="19.334" width="5.3396" y="-4.9192" x="85.003"/>
 <path id="path4326" style="opacity:.7;enable-background:new;fill:url(#radialGradient7332)" d="m14.268 19.589a0.36404 0.36235 0 0 1 -0.72808 0 0.36404 0.36235 0 1 1 0.72808 0z"/>
 <path id="path4328" style="opacity:.7;enable-background:new;fill:url(#radialGradient7329)" d="m17.059 20.133a0.36404 0.36235 0 0 1 -0.72808 0 0.36404 0.36235 0 1 1 0.72808 0z"/>
 <path id="path4360" style="opacity:.7;enable-background:new;fill:url(#radialGradient7326)" d="m6.3804 14.335a0.36404 0.36235 0 0 1 -0.72808 0 0.36404 0.36235 0 1 1 0.72808 0z"/>
 <path id="path4390" style="opacity:.7;enable-background:new;fill:url(#radialGradient7323)" d="m14.535 20.133a0.36404 0.36235 0 0 1 -0.72808 0 0.36404 0.36235 0 1 1 0.72808 0z"/>
 <path id="path4394" style="opacity:.7;enable-background:new;fill:url(#radialGradient7320)" d="m19.122 19.589a0.36404 0.36235 0 0 1 -0.72808 0 0.36404 0.36235 0 1 1 0.72808 0z"/>
 <path id="path4396" style="opacity:.7;enable-background:new;fill:url(#radialGradient7317)" d="m18.418 20.133a0.36404 0.36235 0 0 1 -0.72808 0 0.36404 0.36235 0 1 1 0.72808 0z"/>
 <path id="path2961" style="opacity:.7;enable-background:new;fill:url(#radialGradient7314)" d="m8.8318 14.758a0.36404 0.36235 0 0 1 -0.72808 0 0.36404 0.36235 0 1 1 0.72808 0z"/>
 <path id="path2963" style="opacity:.7;enable-background:new;fill:url(#radialGradient7311)" d="m8.7104 16.268a0.36404 0.36235 0 0 1 -0.72808 0 0.36404 0.36235 0 1 1 0.72808 0z"/>
</svg>
