<?xml version="1.0" encoding="UTF-8" standalone="no"?>
<!-- Created with Inkscape (http://www.inkscape.org/) -->
<svg id="svg3138" xmlns="http://www.w3.org/2000/svg" height="24" width="24" version="1.1" xmlns:xlink="http://www.w3.org/1999/xlink">
 <defs id="defs3140">
  <linearGradient id="linearGradient6945" y2="41.976" xlink:href="#linearGradient6939" gradientUnits="userSpaceOnUse" x2="18" gradientTransform="translate(10)" y1="2.5681" x1="6.3602"/>
  <linearGradient id="linearGradient6939">
   <stop id="stop6941" style="stop-color:#babdb6" offset="0"/>
   <stop id="stop7051" style="stop-color:#ededed" offset=".24743"/>
   <stop id="stop7053" style="stop-color:#b6b9b1" offset=".53371"/>
   <stop id="stop7049" style="stop-color:#e9eae8" offset=".83192"/>
   <stop id="stop6943" style="stop-color:#b5b9b2" offset="1"/>
  </linearGradient>
  <linearGradient id="linearGradient6937" y2="22.003" xlink:href="#linearGradient6931" gradientUnits="userSpaceOnUse" x2="15.562" gradientTransform="translate(1)" y1="18.873" x1="15.562"/>
  <linearGradient id="linearGradient6931">
   <stop id="stop6933" style="stop-color:#a1a29e" offset="0"/>
   <stop id="stop6935" style="stop-color:#888a85;stop-opacity:0" offset="1"/>
  </linearGradient>
  <linearGradient id="linearGradient7039" y2="23.322" gradientUnits="userSpaceOnUse" x2="12.688" gradientTransform="translate(10,-1)" y1="17.55" x1="12.688">
   <stop id="stop6960" style="stop-color:#fff" offset="0"/>
   <stop id="stop6962" style="stop-color:#fff;stop-opacity:0" offset="1"/>
  </linearGradient>
  <linearGradient id="linearGradient6961" y2="34.39" gradientUnits="userSpaceOnUse" x2="22.226" gradientTransform="translate(10)" y1="8.1773" x1="9.0156">
   <stop id="stop6957" style="stop-color:#fff" offset="0"/>
   <stop id="stop6959" style="stop-color:#fff;stop-opacity:0" offset="1"/>
  </linearGradient>
  <linearGradient id="linearGradient6976" y2="7.9975" gradientUnits="userSpaceOnUse" x2="3.8007" gradientTransform="translate(-1,-2)" y1="9.5814" x1="3.8007">
   <stop id="stop6972" style="stop-color:#fff" offset="0"/>
   <stop id="stop6974" style="stop-color:#eeeeec;stop-opacity:0" offset="1"/>
  </linearGradient>
  <linearGradient id="linearGradient6984" y2="5.0106" gradientUnits="userSpaceOnUse" x2="3.7123" gradientTransform="translate(-1)" y1="3.5268" x1="3.7123">
   <stop id="stop6980" style="stop-color:#babdb6" offset="0"/>
   <stop id="stop6982" style="stop-color:#555753;stop-opacity:0" offset="1"/>
  </linearGradient>
  <linearGradient id="linearGradient7071" y2="11.747" gradientUnits="userSpaceOnUse" x2="20.462" gradientTransform="matrix(1 0 0 .75 7 2.875)" y1="15.327" x1="20.462">
   <stop id="stop7067" style="stop-color:#888a85" offset="0"/>
   <stop id="stop7073" style="stop-color:#cfd0ce" offset=".70408"/>
   <stop id="stop7069" style="stop-color:#888a85" offset="1"/>
  </linearGradient>
  <linearGradient id="linearGradient7043" y2="21.501" xlink:href="#linearGradient7033" gradientUnits="userSpaceOnUse" x2="12.688" gradientTransform="matrix(.5 0 0 1 14.5 -4)" y1="17.55" x1="12.688"/>
  <linearGradient id="linearGradient7033">
   <stop id="stop7035" offset="0"/>
   <stop id="stop7037" style="stop-opacity:0" offset="1"/>
  </linearGradient>
  <linearGradient id="linearGradient7047" y2="21.501" xlink:href="#linearGradient7033" gradientUnits="userSpaceOnUse" x2="12.688" gradientTransform="matrix(.5 0 0 1 18.5 -4)" y1="17.55" x1="12.688"/>
  <linearGradient id="linearGradient3136" y2="17.562" gradientUnits="userSpaceOnUse" x2="11.157" gradientTransform="translate(0,-1)" y1="17.562" x1="9.5312">
   <stop id="stop6969" style="stop-color:#fff" offset="0"/>
   <stop id="stop6971" style="stop-color:#fff;stop-opacity:0" offset="1"/>
  </linearGradient>
 </defs>
 <g id="layer1" transform="translate(0,-8)">
  <g id="g22" style="enable-background:new" transform="translate(1,8)">
   <path id="path6950" style="fill-rule:evenodd;stroke:url(#linearGradient6937);stroke-width:1px;fill:url(#linearGradient6945)" d="m16.5 0.5h-6c-2.0349 0-9.0277 1.0277-9.0277 1.0277-0.86883 0.5016-0.9723 1.4131-0.9723 2.9723h11l5 1.0312c2.2574 0 5-1.498 5-3.0312h-5v-2z"/>
   <path id="path5979" style="fill-rule:evenodd;stroke:#888a85;stroke-linecap:round;stroke-miterlimit:10;fill:#babdb6" d="m0.5 6.5c0 1.5592 0.099948 2.4671 0.96875 2.9688l8.5312 1.0312c0.37316 0.18584 0.5 0.5 0.5 1v6h2v-11h-12zm15 0v11h2v-11h-2z"/>
   <path id="path206" style="fill-rule:evenodd;stroke:#888a85;stroke-width:1px;fill:#babdb6" d="m17.5 6.5h4c0-1.3096-2.2224-2.6534-4-3v3z"/>
   <rect id="rect208" style="fill-rule:evenodd;stroke:#babdb6;stroke-linecap:round;stroke-miterlimit:10;fill:#eeeeec" rx="0" ry="0" height="2" width="4" y="11.5" x="16.5"/>
   <path id="path210" style="fill-rule:evenodd;stroke:url(#linearGradient6937);stroke-width:1px;fill:url(#linearGradient6945)" d="m16.5 0.5h-6c-2.0349 0-9.0277 1.0277-9.0277 1.0277-0.86883 0.5016-0.9723 1.4131-0.9723 2.9723h11v19h5v-17.969c2.2574 0 5-1.498 5-3.0312h-5v-2z"/>
   <path id="path212" style="opacity:.69403;fill:url(#linearGradient7039);fill-rule:evenodd" d="m12 8v1h3v-1h-3zm0 2v1h2v-1h-2zm0 2v1h3v-1h-3zm0 2v1h2v-1h-2zm0 2v1h3v-1h-3zm0 2v1h2v-1h-2zm0 2v1h3v-1h-3z"/>
   <path id="path214" style="opacity:.77985;stroke:url(#linearGradient6961);stroke-width:1px;fill:none" d="m10.5 1.4688c-1.9658 0.20588-6.328 0.72947-8.5312 1.0625-0.47879 0.24987-0.4039 0.45252-0.4375 1h9.9688c0.534 0.0019 0.967 0.4345 0.969 0.9687v19.031l3.0625-1v-17c0.001-0.534 0.434-0.9665 0.968-0.9685 0.91362 0 2.0296-0.33622 2.8438-0.8125 0.18777-0.10984 0.14081-0.1658 0.28125-0.28125h-3.125c-0.534-0.0019-0.967-0.4345-0.969-0.9687v-1.0312h-5.0312z"/>
   <path id="path216" style="fill-rule:evenodd;stroke:#888a85;stroke-linecap:round;stroke-miterlimit:10;fill:#babdb6" d="m0.5 6.5c0 1.5592 0.099948 2.4671 0.96875 2.9688l8.5312 1.0312c0.37316 0.18584 0.5 0.5 0.5 1v4h-1c-0.554 0-1 0.446-1 1s0.446 1 1 1h1 2v-11h-12zm15 0v11h2v-11h-2z"/>
   <g id="g218" style="opacity:.62687" transform="translate(1,-1)">
    <path id="path220" style="stroke:#fff;stroke-width:1px;fill:none" d="m0.51562 8.5c0 0.50731 0.16499 0.8023 0.54688 1 3.2723 0.57304 9.3261 0.61348 9.2188 1.9375 0.172 0.359 0.219 1.727 0.219 2.062v-5h-9.9844z"/>
    <path id="path222" style="stroke:#fff;stroke-width:1px;fill:none" d="m10.5 18v-5.5"/>
    <path id="path224" style="stroke:#fff;stroke-width:1px;fill:none" d="m15.5 18v-9"/>
   </g>
   <path id="path226" style="fill:url(#linearGradient6976);fill-rule:evenodd" d="m5 6v1.0312c0 0.5367-0.4321 0.9688-0.9688 0.9688h-2.3895s-0.6417-0.46-0.6417-0.9688v-1.0312h4z"/>
   <path id="path228" style="fill:url(#linearGradient6984);fill-rule:evenodd" d="m5 5v-1.0312c0-0.5367-0.4321-0.9688-0.9688-0.9688h-2.4207s-0.6105 0.46-0.6105 0.9688v1.0312h4z"/>
   <rect id="rect230" style="fill-rule:evenodd;stroke:url(#linearGradient7071);stroke-linecap:round;stroke-miterlimit:10;fill:#eeeeec" rx=".48261" ry=".48261" height="4" width="2" y="10.5" x="19.5"/>
   <rect id="rect232" style="opacity:.21269;fill-rule:evenodd" height="1" width="1" y="12" x="20"/>
   <path id="path234" style="opacity:.15672;fill:url(#linearGradient7043);fill-rule:evenodd" d="m11 9v1h1v-1h-1zm0 2v1h1v-1h-1zm0 2v1h1v-1h-1zm0 2v1h1v-1h-1z"/>
   <path id="path236" style="opacity:.1;fill:url(#linearGradient7047);fill-rule:evenodd" d="m16 9v1h1v-1h-1zm0 2v1h1v-1h-1zm0 2v1h1v-1h-1zm0 2v1h1v-1h-1z"/>
   <path id="path238" style="opacity:.53731;stroke:url(#linearGradient3136);stroke-linecap:round;stroke-width:1px;fill:none" d="m9.5 16.5h2"/>
  </g>
 </g>
</svg>
