<?xml version="1.0" encoding="UTF-8" standalone="no"?>
<!-- Created with Inkscape (http://www.inkscape.org/) -->
<svg id="svg2963" xmlns="http://www.w3.org/2000/svg" height="24" width="24" version="1.1" xmlns:xlink="http://www.w3.org/1999/xlink">
 <defs id="defs3">
  <linearGradient id="linearGradient3251">
   <stop id="stop3253" style="stop-color:#695337" offset="0"/>
   <stop id="stop3255" style="stop-color:#695337;stop-opacity:0" offset="1"/>
  </linearGradient>
  <linearGradient id="linearGradient3199">
   <stop id="stop3201" style="stop-color:#dac197" offset="0"/>
   <stop id="stop3203" style="stop-color:#c1a581" offset=".23942"/>
   <stop id="stop3205" style="stop-color:#dbc298" offset=".27582"/>
   <stop id="stop3207" style="stop-color:#a68b60" offset="1"/>
  </linearGradient>
  <linearGradient id="linearGradient3681-3">
   <stop id="stop3683-8" offset="0"/>
   <stop id="stop3685-0" style="stop-opacity:0" offset="1"/>
  </linearGradient>
  <radialGradient id="radialGradient3351" xlink:href="#linearGradient3681-3" gradientUnits="userSpaceOnUse" cy="41.5" cx="5" gradientTransform="matrix(.59382 0 0 1.5367 -6.6595 -103.94)" r="5"/>
  <linearGradient id="linearGradient3353" y2="35" gradientUnits="userSpaceOnUse" x2="17.554" gradientTransform="matrix(1.757 0 0 1.397 -17.394 -16.412)" y1="46" x1="17.554">
   <stop id="stop3705-0" style="stop-opacity:0" offset="0"/>
   <stop id="stop3711-2" offset=".5"/>
   <stop id="stop3707-8" style="stop-opacity:0" offset="1"/>
  </linearGradient>
  <radialGradient id="radialGradient3355" xlink:href="#linearGradient3681-3" gradientUnits="userSpaceOnUse" cy="41.5" cx="5" gradientTransform="matrix(.59382 0 0 1.5367 41.141 -103.94)" r="5"/>
  <linearGradient id="linearGradient3086" y2="17.5" spreadMethod="reflect" gradientUnits="userSpaceOnUse" x2="3.0052" gradientTransform="matrix(.36670 0 0 .48831 3.1991 4.9546)" y1="17.5" x1="44.995">
   <stop id="stop3277" style="stop-color:#fff;stop-opacity:0" offset="0"/>
   <stop id="stop3283" style="stop-color:#fff" offset=".245"/>
   <stop id="stop3285" style="stop-color:#fff" offset=".77350"/>
   <stop id="stop3279" style="stop-color:#fff;stop-opacity:0" offset="1"/>
  </linearGradient>
  <linearGradient id="linearGradient3090" y2="23.531" gradientUnits="userSpaceOnUse" x2="20.812" gradientTransform="matrix(.46499 0 0 0.4 1.0373 2.7)" y1="24.594" x1="20.781">
   <stop id="stop3245" offset="0"/>
   <stop id="stop3247" style="stop-opacity:0" offset="1"/>
  </linearGradient>
  <linearGradient id="linearGradient3142" y2="21.562" xlink:href="#linearGradient3251" gradientUnits="userSpaceOnUse" x2="13.168" gradientTransform="matrix(-.60037 0 0 -.48831 24.405 24.211)" y1="21.562" x1="11.124"/>
  <linearGradient id="linearGradient3154" y2="21.5" xlink:href="#linearGradient3251" gradientUnits="userSpaceOnUse" x2="12.11" gradientTransform="matrix(.59307 0 0 -.48831 -.57089 24.211)" y1="21.5" x1="10.749"/>
  <linearGradient id="linearGradient3157" y2="24.08" xlink:href="#linearGradient3251" gradientUnits="userSpaceOnUse" x2="22.188" gradientTransform="matrix(.48802 0 0 0.5 .54684 .47945)" y1="20" x1="22.188"/>
  <linearGradient id="linearGradient3160" y2="44" gradientUnits="userSpaceOnUse" x2="23" gradientTransform="matrix(.46802 0 0 .45773 1.0016 1.5771)" y1="19" x1="23">
   <stop id="stop3921" style="stop-color:#fff" offset="0"/>
   <stop id="stop3923" style="stop-color:#fff;stop-opacity:0" offset="1"/>
  </linearGradient>
  <linearGradient id="linearGradient3163" y2="37.277" xlink:href="#linearGradient3199" gradientUnits="userSpaceOnUse" x2="24.997" gradientTransform="matrix(.53176 0 0 .56213 -.47064 .91917)" y1="15.378" x1="24.823"/>
  <linearGradient id="linearGradient3165" y2="45.042" gradientUnits="userSpaceOnUse" x2="15.464" gradientTransform="matrix(.41472 0 0 .36097 2.0468 6.4387)" y1="7.9757" x1="15.464">
   <stop id="stop3297" style="stop-color:#c3a67d" offset="0"/>
   <stop id="stop3299" style="stop-color:#a17d4f" offset=".23942"/>
   <stop id="stop3301" style="stop-color:#bb9b71" offset=".27582"/>
   <stop id="stop3303" style="stop-color:#836945" offset="1"/>
  </linearGradient>
  <linearGradient id="linearGradient3943" y2="37.277" xlink:href="#linearGradient3199" gradientUnits="userSpaceOnUse" x2="24.997" gradientTransform="matrix(.46529 0 0 .56213 1.0882 .91917)" y1="15.378" x1="24.823"/>
  <linearGradient id="linearGradient3262" y2="16" gradientUnits="userSpaceOnUse" x2="25" gradientTransform="matrix(1.0555 0 0 1.0555 -18.45 -.44413)" x1="25">
   <stop id="stop3311" style="stop-color:#f6f6f6" offset="0"/>
   <stop id="stop3313" style="stop-color:#ccc" offset="1"/>
  </linearGradient>
  <linearGradient id="linearGradient3264" y2="16.005" gradientUnits="userSpaceOnUse" x2="21" gradientTransform="matrix(1.0555 0 0 1.0555 -18.45 -.44413)" x1="21">
   <stop id="stop3399" style="stop-color:#aaa" offset="0"/>
   <stop id="stop3401" style="stop-color:#8c8c8c" offset="1"/>
  </linearGradient>
  <linearGradient id="linearGradient5443">
   <stop id="stop5445" style="stop-color:#fff" offset="0"/>
   <stop id="stop5447" style="stop-color:#fff;stop-opacity:0" offset="1"/>
  </linearGradient>
  <linearGradient id="linearGradient3513" y2="40.949" gradientUnits="userSpaceOnUse" x2="-10.566" gradientTransform="matrix(.30070 -1.0669e-8 0 .59926 -29.484 -49.116)" y1="40.972" x1="-2.1966">
   <stop id="stop4101" style="stop-color:#edd563" offset="0"/>
   <stop id="stop4103" style="stop-color:#e08223" offset="1"/>
  </linearGradient>
  <linearGradient id="linearGradient3515" y2="12.324" gradientUnits="userSpaceOnUse" x2="-36.083" gradientTransform="matrix(.37258 0 0 .37260 -16.628 -28.788)" y1="7.714" x1="-45.569">
   <stop id="stop4095" style="stop-color:#bb5e12" offset="0"/>
   <stop id="stop4097" style="stop-color:#cd8033" offset="1"/>
  </linearGradient>
  <radialGradient id="radialGradient3517" xlink:href="#linearGradient5443" gradientUnits="userSpaceOnUse" cy="11.84" cx="-39.458" gradientTransform="matrix(.76416 -.053053 .093133 1.9396 -1.6116 -49.773)" r="3.906"/>
  <linearGradient id="linearGradient3519" y2="22.476" gradientUnits="userSpaceOnUse" x2="27.368" gradientTransform="matrix(-.32995 0 0 -.32761 8.3442 52.753)" y1="20.762" x1="25.572">
   <stop id="stop7383" style="stop-color:#babdb6" offset="0"/>
   <stop id="stop7385" style="stop-color:#fff" offset="1"/>
  </linearGradient>
  <linearGradient id="linearGradient3521" y2="24.412" gradientUnits="userSpaceOnUse" x2="32.447" gradientTransform="matrix(.33136 0 0 .33046 -7.7671 33.877)" y1="35.624" x1="22.376">
   <stop id="stop7446" style="stop-color:#888a85" offset="0"/>
   <stop id="stop7448" style="stop-color:#555753" offset="1"/>
  </linearGradient>
  <linearGradient id="linearGradient3523" y2="12.585" xlink:href="#linearGradient5443" gradientUnits="userSpaceOnUse" x2="54.721" gradientTransform="matrix(-.30644 -.29977 .30644 -.29977 11.939 66.804)" y1="1" x1="54.765"/>
  <linearGradient id="linearGradient3543" y2="229.86" gradientUnits="userSpaceOnUse" x2="315.01" y1="230.78" x1="314.09">
   <stop id="stop3952" style="stop-color:#eeeeec" offset="0"/>
   <stop id="stop3954" style="stop-color:#fff" offset="1"/>
  </linearGradient>
  <linearGradient id="linearGradient3545" y2="220.6" gradientUnits="userSpaceOnUse" x2="311" y1="234.93" x1="312.96">
   <stop id="stop3960" style="stop-color:#555753" offset="0"/>
   <stop id="stop3962" style="stop-color:#888a85" offset="1"/>
  </linearGradient>
  <radialGradient id="radialGradient3547" gradientUnits="userSpaceOnUse" cy="223.93" cx="307.66" gradientTransform="matrix(1.9522 -1.9522 1.4893 1.4893 -626.27 490.96)" r="2.2701">
   <stop id="stop3971" style="stop-color:#fff" offset="0"/>
   <stop id="stop3973" style="stop-color:#fff;stop-opacity:0" offset="1"/>
  </radialGradient>
 </defs>
 <g id="g3305" style="opacity:.4" transform="matrix(.43159 0 0 .26031 1.6849 11.545)">
  <rect id="rect2484" style="fill:url(#radialGradient3351)" transform="scale(-1)" height="15.367" width="2.9602" y="-47.848" x="-3.6904"/>
  <rect id="rect2486" style="fill:url(#linearGradient3353)" height="15.367" width="40.412" y="32.482" x="3.6904"/>
  <rect id="rect3444" style="fill:url(#radialGradient3355)" transform="scale(1,-1)" height="15.367" width="2.9602" y="-47.848" x="44.11"/>
 </g>
 <path id="path2488" style="stroke:url(#linearGradient3165);stroke-linecap:round;stroke-width:.99420;display:block;fill:url(#linearGradient3163)" d="m5.7837 9.5069h12.233c0.71414 0 1.0355-0.10344 1.2407 0.36097l1.2449 2.8878v9.2675c0 0.5607 0.04269 0.47503-0.67146 0.47503h-15.662c-0.71414 0-0.67146 0.08567-0.67146-0.47503v-9.2675l1.2449-2.8878c0.1985-0.4551 0.3262-0.3611 1.0403-0.3611z"/>
 <path id="path3772" style="opacity:.3;stroke:url(#linearGradient3160);stroke-linecap:round;stroke-width:.99420;display:block;fill:none" d="m5.6818 10.503c-0.41434 0.86753-0.78663 1.7562-1.1847 2.632v8.368h15.006v-8.368c-0.38449-0.87479-0.78711-1.743-1.1603-2.6219-0.30487-0.03493-0.74031-0.000072-1.1-0.01009-3.8536-0.000006-7.7073 0.00001-11.561 0z"/>
 <path id="path3692" style="opacity:.6;color:black;display:block;fill:url(#linearGradient3157)" d="m6.2963 9.9794c-0.20216 0-0.26692 0.035203-0.32026 0.078127-0.053342 0.04292-0.12255 0.13351-0.18301 0.3125l-0.793 2.609h14l-0.80828-2.5156c-0.10182-0.25934-0.1747-0.34294-0.24401-0.39062-0.06931-0.0477-0.17512-0.093752-0.41177-0.093752h-11.24z"/>
 <path id="path3694" style="opacity:.6;color:black;display:block;fill:url(#linearGradient3154)" d="m6.4162 10.05c-0.24568 0-0.32438 0.03438-0.3892 0.0763-0.064825 0.04192-0.14894 0.13039-0.2224 0.30519l-0.96374 2.5484h2.8912v-2.9299h-1.3159z"/>
 <path id="path3696" style="opacity:.67050;color:black;display:block;fill:url(#linearGradient3142)" d="m17.332 10.05c0.2487 0 0.32837 0.03438 0.39399 0.0763s0.15077 0.13039 0.22514 0.30519l0.9756 2.5484h-2.9268v-2.9299h1.3321z"/>
 <g id="g3507" transform="matrix(.93552 -.35326 .35326 .93552 -1.7682 -28.715)">
  <rect id="rect5288" style="stroke-linejoin:round;stroke:url(#linearGradient3515);stroke-linecap:round;stroke-width:1.0002;fill:url(#linearGradient3513)" transform="matrix(-.70745 -.70676 .70394 -.71026 0 0)" rx="1.7938" ry="1.7944" height="10.684" width="3.294" y="-29.537" x="-33.543"/>
  <rect id="rect5292" style="opacity:.6;stroke-linejoin:round;stroke:url(#radialGradient3517);stroke-linecap:round;fill:none" transform="matrix(-.70546 -.70875 .70052 -.71364 0 0)" rx="2.1155" ry="2.1163" height="9.073" width="2.3307" y="-28.916" x="-32.966"/>
  <path id="path3822" style="stroke-linejoin:round;stroke:url(#linearGradient3521);stroke-linecap:round;stroke-width:0.7;fill:url(#linearGradient3519)" d="m1.935 42.566c-0.19592-0.0317-0.39383 0.01257-0.5768 0.15887a0.35805 0.35749 0 0 0 -0.039779 0.01985l-4.7735 4.7661-0.53702 0.15887a0.35805 0.35749 0 0 0 -0.1989 0.138l-1.0541 1.549a0.35805 0.35749 0 0 0 0.039779 0.45675l0.67624 0.6752a0.35805 0.35749 0 0 0 0.45746 0.03972l1.5514-1.0724a0.35805 0.35749 0 0 0 0.13923 -0.19859l0.13923-0.51633 4.7934-4.786a0.35805 0.35749 0 0 0 0 -0.01986c0.4647-0.523-0.0288-1.275-0.6166-1.37z"/>
  <path id="path5450" style="fill:url(#linearGradient3523)" d="m-4.3268 50.293 1.8298-1.1982 0.20485-0.76246c0.16851-0.19021-0.4922-0.79083-0.67033-0.65574l-0.76984 0.20976-1.2248 1.79c0.24047 0.23524 0.38987 0.38138 0.63034 0.61662z"/>
 </g>
 <g id="g7817" style="enable-background:new" transform="matrix(.89268 .45068 -.45068 .89268 -165.55 -291.93)">
  <g id="g3539" transform="translate(-19.119 -34.907)">
   <path id="path3935" style="stroke-linejoin:round;stroke-width:0.9;fill-rule:evenodd;stroke-dashoffset:.3612;stroke:url(#linearGradient3545);stroke-linecap:round;enable-background:new;fill:url(#linearGradient3543)" d="m306.75 219.5c-0.37511 0.0471-0.77839 0.25308-1.1875 0.65625l1.7188 1.6875c0.3584 0.36046 0.34912 0.93023 0 1.2812l-0.125 0.125c-0.34912 0.35106-0.92283 0.36044-1.2812 0l-1.6875-1.6875c-1.1566 1.1398-0.64599 2.0684 0.125 2.8438l0.46875 0.46875c0.73274 0.7369 1.867 0.81164 2.6875 0.21875l5.4375 5.4375 1.625-1.625-5.4375-5.4375c0.59284-0.82529 0.54644-1.9806-0.1875-2.7188l-0.46875-0.5c-0.48639-0.48917-1.0623-0.82854-1.6875-0.75v0.00005z"/>
   <path id="path3967" style="stroke-width:1px;stroke:url(#radialGradient3547);enable-background:new;fill:none" d="m305.22 224c1.7483 1.5234 4.4891-1.0013 2.724-2.9244"/>
  </g>
 </g>
 <g id="layer1" transform="matrix(.60001 0 0 .60001 7.1999 6.1998)">
  <g id="g2479">
   <path id="path2426" style="stroke-linejoin:round;stroke-width:1.1666;stroke:url(#linearGradient3264);display:block;fill:url(#linearGradient3262)" d="m6.8785 0.083641c-0.26221 0-0.4618 0.19958-0.4618 0.4618v1.3194c-0.5847 0.1502-1.1095 0.3926-1.6163 0.6928l-0.9566-0.9566c-0.18541-0.18541-0.4743-0.18541-0.65971 0l-1.5833 1.5833c-0.18541 0.18541-0.18541 0.4743 0 0.65971l0.9566 0.9566c-0.3002 0.5067-0.5426 1.0316-0.6927 1.6162h-1.3194c-0.26221 0-0.4618 0.19958-0.4618 0.4618v2.243c1e-8 0.26221 0.19958 0.4618 0.4618 0.4618h1.3194c0.1501 0.58466 0.39253 1.1095 0.69269 1.6163l-0.95658 0.95658c-0.18541 0.18541-0.18541 0.4743 0 0.65971l1.5833 1.5833c0.18541 0.18541 0.4743 0.18541 0.65971 0l0.95658-0.95658c0.50675 0.30016 1.0316 0.5426 1.6163 0.6927v1.3194c1e-7 0.26221 0.19958 0.4618 0.4618 0.4618h2.243c0.26221 0 0.4618-0.19958 0.4618-0.4618v-1.3194c0.58466-0.1501 1.1095-0.39253 1.6163-0.6927l0.95658 0.95658c0.18541 0.18541 0.4743 0.18541 0.65971 0l1.5833-1.5833c0.18541-0.18541 0.18541-0.4743 0-0.65971l-0.95658-0.95658c0.30016-0.50675 0.5426-1.0316 0.6927-1.6163h1.3194c0.26221 0 0.4618-0.19958 0.4618-0.4618v-2.243c0-0.26221-0.19958-0.4618-0.4618-0.4618h-1.3194c-0.151-0.5849-0.393-1.1098-0.693-1.6165l0.95658-0.95658c0.18541-0.18541 0.18541-0.4743 0-0.65971l-1.584-1.5833c-0.18541-0.18541-0.4743-0.18541-0.65971 0l-0.956 0.9566c-0.507-0.3002-1.032-0.5426-1.6167-0.6927v-1.3194c0-0.26228-0.1996-0.46186-0.4618-0.46186h-2.243zm1.1215 5.8055c1.1653 0 2.1111 0.94576 2.1111 2.1111s-0.94576 2.1111-2.1111 2.1111-2.1111-0.94576-2.1111-2.1111 0.94576-2.1111 2.1111-2.1111z"/>
  </g>
 </g>
 <path id="path3167" style="display:block;fill:url(#linearGradient3943)" d="m20 13v2h-1v6h-14v-6h-1v-2h16z"/>
 <path id="path3730" style="opacity:.15;color:black;stroke:url(#linearGradient3090);display:block;fill:none" d="m6.5154 10.5c-0.083138 0-0.12971 0.0086-0.14531 0.0125-0.015605 0.0038-0.0008153 0.0032-0.014537 0.0125-0.00271 0.0018-0.054122 0.03168-0.10172 0.15l-0.6538 1.825h12.7l-0.66842-1.7375v-0.0125c-0.08087-0.16867-0.12208-0.19908-0.14531-0.2125-0.03263-0.01886-0.0655-0.0375-0.26156-0.0375h-10.709z"/>
 <path id="path3357" style="opacity:.4;stroke:url(#linearGradient3086);stroke-linecap:square;stroke-width:1px;fill:none" d="m4.4845 13.5h15.031"/>
</svg>
