<?xml version="1.0" encoding="UTF-8" standalone="no"?>
<!-- Created with Inkscape (http://www.inkscape.org/) -->

<svg
   xmlns:dc="http://purl.org/dc/elements/1.1/"
   xmlns:cc="http://creativecommons.org/ns#"
   xmlns:rdf="http://www.w3.org/1999/02/22-rdf-syntax-ns#"
   xmlns:svg="http://www.w3.org/2000/svg"
   xmlns="http://www.w3.org/2000/svg"
   xmlns:sodipodi="http://sodipodi.sourceforge.net/DTD/sodipodi-0.dtd"
   xmlns:inkscape="http://www.inkscape.org/namespaces/inkscape"
   width="48"
   height="48"
   id="svg3404"
   version="1.1"
   inkscape:version="0.48+devel r12392"
   sodipodi:docname="document-print.svg">
  <defs
     id="defs3406">
    <linearGradient
       id="linearGradient3257">
      <stop
         offset="0"
         style="stop-color:#a50000;stop-opacity:1"
         id="stop3259" />
      <stop
         offset="1"
         style="stop-color:#e73800;stop-opacity:1"
         id="stop3261" />
    </linearGradient>
  </defs>
  <sodipodi:namedview
     id="base"
     pagecolor="#ffffff"
     bordercolor="#666666"
     borderopacity="1.0"
     inkscape:pageopacity="0.0"
     inkscape:pageshadow="2"
     inkscape:zoom="8.5537823"
     inkscape:cx="13.404128"
     inkscape:cy="24.787788"
     inkscape:document-units="px"
     inkscape:current-layer="layer1"
     showgrid="false"
     fit-margin-top="0"
     fit-margin-left="0"
     fit-margin-right="0"
     fit-margin-bottom="0"
     inkscape:window-width="1366"
     inkscape:window-height="715"
     inkscape:window-x="0"
     inkscape:window-y="30"
     inkscape:window-maximized="1" />
  <metadata
     id="metadata3409">
    <rdf:RDF>
      <cc:Work
         rdf:about="">
        <dc:format>image/svg+xml</dc:format>
        <dc:type
           rdf:resource="http://purl.org/dc/dcmitype/StillImage" />
        <dc:title />
      </cc:Work>
    </rdf:RDF>
  </metadata>
  <g
     inkscape:label="Capa 1"
     inkscape:groupmode="layer"
     id="layer1"
     transform="translate(-384.57143,-456.93361)">
    <path
       inkscape:connector-curvature="0"
       id="path64"
       style="fill:#38a2ec;fill-opacity:1;fill-rule:nonzero;stroke:none"
       d="m 402.98583,474.58174 0,1.41276 -9.18094,0 0,13.73899 29.53308,0 0,-13.73899 -9.18094,0 0,-1.41276 10.59339,0 0,16.56451 -32.35798,0 0,-16.56451 10.59339,0"
       sodipodi:nodetypes="ccccccccccccc" />
    <path
       style="fill:#38a2ec;fill-opacity:1;fill-rule:nonzero;stroke:none"
       d="m 397.52557,491.14178 0,6.29183 22.0856,0 0,-6.29183 -1.41245,0 0,4.87938 -19.2607,0 L 398.93802,491.14178 Z"
       id="path31"
       inkscape:connector-curvature="0"
       sodipodi:nodetypes="ccccccccc" />
    <path
       sodipodi:nodetypes="ccccccccc"
       inkscape:connector-curvature="0"
       id="path36"
       d="m 397.52557,474.83439 0,-10.40078 22.0856,0 0,10.40078 -1.41245,0 0,-8.98833 -19.2607,0 L 398.93802,474.83439 Z"
       style="fill:#38a2ec;fill-opacity:1;fill-rule:nonzero;stroke:none" />
    <path
       sodipodi:nodetypes="ccccccccc"
       inkscape:connector-curvature="0"
       id="path38"
       d="m 397.52557,480.09335 0,6.29183 22.0856,0 0,-6.29183 -1.41245,0 0,4.87938 -19.2607,0 L 398.93802,480.09335 Z"
       style="fill:#38a2ec;fill-opacity:1;fill-rule:nonzero;stroke:none" />
    <path
       style="fill:#38a2ec;fill-opacity:1;fill-rule:nonzero;stroke:none"
       d="m 397.52557,486.38518 0,-6.29183 22.0856,0 0,6.29183 -1.41245,0 0,-4.87938 -19.2607,0 L 398.93802,486.38518 Z"
       id="path40"
       inkscape:connector-curvature="0"
       sodipodi:nodetypes="ccccccccc" />
  </g>
</svg>
