<?xml version="1.0" encoding="UTF-8" standalone="no"?>
<!-- Created with Inkscape (http://www.inkscape.org/) -->
<svg id="svg2985" xmlns:rdf="http://www.w3.org/1999/02/22-rdf-syntax-ns#" xmlns="http://www.w3.org/2000/svg" height="32" width="32" version="1.1" xmlns:cc="http://creativecommons.org/ns#" xmlns:xlink="http://www.w3.org/1999/xlink" xmlns:dc="http://purl.org/dc/elements/1.1/">
 <metadata id="metadata53">
  <rdf:RDF>
   <cc:Work rdf:about="">
    <dc:format>image/svg+xml</dc:format>
    <dc:type rdf:resource="http://purl.org/dc/dcmitype/StillImage"/>
    <dc:title/>
   </cc:Work>
  </rdf:RDF>
 </metadata>
 <defs id="defs2987">
  <linearGradient id="linearGradient2886" y2="17.5" spreadMethod="reflect" gradientUnits="userSpaceOnUse" x2="3.0052" gradientTransform="matrix(.70749 0 0 .69403 -.97980 -1.6455)" y1="17.5" x1="44.995">
   <stop id="stop3277" style="stop-color:#fff;stop-opacity:0" offset="0"/>
   <stop id="stop3283" style="stop-color:#fff" offset=".245"/>
   <stop id="stop3285" style="stop-color:#fff" offset=".77350"/>
   <stop id="stop3279" style="stop-color:#fff;stop-opacity:0" offset="1"/>
  </linearGradient>
  <linearGradient id="linearGradient2889" y2="8" gradientUnits="userSpaceOnUse" x2="26" gradientTransform="matrix(1 0 0 .71429 -8 -1.7143)" y1="22" x1="26">
   <stop id="stop2911" style="stop-color:#fff" offset="0"/>
   <stop id="stop2913" style="stop-color:#fff" offset=".30213"/>
   <stop id="stop2915" style="stop-color:#fff;stop-opacity:.69020" offset=".39747"/>
   <stop id="stop2917" style="stop-color:#fff;stop-opacity:0" offset="1"/>
  </linearGradient>
  <linearGradient id="linearGradient2892" y2="45.934" gradientUnits="userSpaceOnUse" x2="43.007" gradientTransform="matrix(.90695 0 0 .81527 -5.2694 -5.0638)" y1="30.555" x1="23.452">
   <stop id="stop4561" style="stop-color:#fff;stop-opacity:0" offset="0"/>
   <stop id="stop4563" style="stop-color:#fff;stop-opacity:0" offset="1"/>
  </linearGradient>
  <linearGradient id="linearGradient2895" y2="37.277" gradientUnits="userSpaceOnUse" x2="24.997" gradientTransform="matrix(.90695 0 0 1.0808 -5.2694 -11.995)" y1="15.378" x1="24.823">
   <stop id="stop3201" style="stop-color:#dac197" offset="0"/>
   <stop id="stop3203" style="stop-color:#c1a581" offset=".23942"/>
   <stop id="stop3205" style="stop-color:#dbc298" offset=".27582"/>
   <stop id="stop3207" style="stop-color:#a68b60" offset="1"/>
  </linearGradient>
  <linearGradient id="linearGradient2897" y2="45.042" gradientUnits="userSpaceOnUse" x2="15.464" gradientTransform="matrix(.70732 0 0 .69403 -.97579 -1.3833)" y1="7.9757" x1="15.464">
   <stop id="stop3297" style="stop-color:#c9af8b" offset="0"/>
   <stop id="stop3299" style="stop-color:#ad8757" offset=".23942"/>
   <stop id="stop3301" style="stop-color:#c2a57f" offset=".27582"/>
   <stop id="stop3303" style="stop-color:#9d7d53" offset="1"/>
  </linearGradient>
  <radialGradient id="radialGradient2903" xlink:href="#linearGradient3681" gradientUnits="userSpaceOnUse" cy="41.5" cx="5" gradientTransform="matrix(.59382 0 0 1.5367 -6.6595 -103.94)" r="5"/>
  <linearGradient id="linearGradient3681">
   <stop id="stop3683" offset="0"/>
   <stop id="stop3685" style="stop-opacity:0" offset="1"/>
  </linearGradient>
  <linearGradient id="linearGradient2905" y2="35" gradientUnits="userSpaceOnUse" x2="17.554" gradientTransform="matrix(1.757 0 0 1.397 -17.394 -16.412)" y1="46" x1="17.554">
   <stop id="stop3705" style="stop-opacity:0" offset="0"/>
   <stop id="stop3711" offset=".5"/>
   <stop id="stop3707" style="stop-opacity:0" offset="1"/>
  </linearGradient>
  <radialGradient id="radialGradient2983" xlink:href="#linearGradient3681" gradientUnits="userSpaceOnUse" cy="41.5" cx="5" gradientTransform="matrix(.59382 0 0 1.5367 41.141 -103.94)" r="5"/>
  <linearGradient id="linearGradient3059" y2="39.268" gradientUnits="userSpaceOnUse" x2="24.139" gradientTransform="matrix(.37573 0 0 .37346 16.248 16.686)" y1="7.0479" x1="24.139">
   <stop id="stop3945" style="stop-color:#fff" offset="0"/>
   <stop id="stop3947" style="stop-color:#fff;stop-opacity:0" offset="1"/>
  </linearGradient>
  <radialGradient id="radialGradient3167" gradientUnits="userSpaceOnUse" cx="69.448" cy="51.695" r="31" gradientTransform="matrix(0 .46490 -.50576 0 49.574 -12.296)">
   <stop id="stop3244-5" style="stop-color:#eef87e" offset="0"/>
   <stop id="stop3246-9" style="stop-color:#cde34f" offset=".26238"/>
   <stop id="stop3248-7" style="stop-color:#93b723" offset=".66094"/>
   <stop id="stop3250-8" style="stop-color:#5a7e0d" offset="1"/>
  </radialGradient>
  <linearGradient id="linearGradient3169" y2="51.244" gradientUnits="userSpaceOnUse" y1="124.76" gradientTransform="matrix(.19311 0 0 .19469 8.006 7.8601)" x2="72.422" x1="72.422">
   <stop id="stop2492-3" style="stop-color:#365f0e" offset="0"/>
   <stop id="stop2494-8" style="stop-color:#84a718" offset="1"/>
  </linearGradient>
 </defs>
 <g id="layer1">
  <g id="g3305" style="opacity:.4" transform="matrix(.69054 0 0 .67815 -.50409 -.44851)">
   <rect id="rect2484" style="fill:url(#radialGradient2903)" transform="scale(-1)" height="15.367" width="2.9602" y="-47.848" x="-3.6904"/>
   <rect id="rect2486" style="fill:url(#linearGradient2905)" height="15.367" width="40.412" y="32.482" x="3.6904"/>
   <rect id="rect3444" style="fill:url(#radialGradient2983)" transform="scale(1,-1)" height="15.367" width="2.9602" y="-47.848" x="44.11"/>
  </g>
  <path id="path2488" style="stroke:url(#linearGradient2897);stroke-linecap:round;stroke-width:.99420;display:block;fill:url(#linearGradient2895)" d="m5.3977 4.5159h20.864c1.218 0 1.7661-0.19887 2.116 0.69403l2.1232 5.29v18.081c0 1.078 0.0728 0.91332-1.1452 0.91332h-26.712c-1.218 0-1.1452 0.16471-1.1452-0.91332v-18.081l2.1232-5.29c0.3401-0.87486 0.55789-0.69403 1.7759-0.69403z"/>
  <path id="path2490" style="opacity:.50549;stroke:url(#linearGradient2892);stroke-width:.74212;display:block;fill:none" d="m6.0608 5.219h19.56c1.1418 0 1.8485 0.38625 2.3268 1.4478l1.6473 4.4555v16.063c0 1.0137-0.57913 1.5241-1.721 1.5241h-23.86c-1.1418 0-1.6076-0.56135-1.6076-1.5751v-16.012l1.5942-4.551c0.31884-0.82269 0.91924-1.3522 2.0611-1.3522z"/>
  <path id="rect3326" style="opacity:.4;fill:url(#linearGradient2889)" d="m14 4h4v10h-1.1812-1.2094-0.97359-0.63585v-10z"/>
  <path id="path3273" style="opacity:.4;stroke:url(#linearGradient2886);stroke-linecap:square;stroke-width:1px;fill:none" d="m1.5001 10.5h29"/>
 </g>
 <path id="path2262" style="stroke-linejoin:round;stroke-width:.98543;color:#000000;stroke:url(#linearGradient3169);stroke-linecap:round;fill:url(#radialGradient3167)" d="m22.5 22.5v-4.021h5v4.021h4.0073v5h-4.0073v4.0073h-5v-4.0073h-4.0073v-5h4.0073z"/>
 <path id="path2272" style="opacity:.4;stroke:url(#linearGradient3059);fill:none" d="m23.5 23.5v-4h3v4h4.02v3h-4.02v4h-3v-4h-4v-3h4z"/>
</svg>
