<?xml version="1.0" encoding="UTF-8" standalone="no"?>
<!-- Created with Inkscape (http://www.inkscape.org/) -->
<svg id="svg2526" xmlns="http://www.w3.org/2000/svg" height="32" width="32" version="1.0" xmlns:xlink="http://www.w3.org/1999/xlink">
 <defs id="defs2528">
  <radialGradient id="radialGradient2517" gradientUnits="userSpaceOnUse" cy="4.625" cx="62.625" gradientTransform="matrix(1.5059 0 0 .37647 -78.306 26.259)" r="10.625">
   <stop id="stop8840" offset="0"/>
   <stop id="stop8842" style="stop-opacity:0" offset="1"/>
  </radialGradient>
  <linearGradient id="linearGradient2503" y2="3.0816" gradientUnits="userSpaceOnUse" x2="18.379" gradientTransform="matrix(.71267 0 0 .71267 -1.1039 -1.1043)" y1="44.98" x1="18.379">
   <stop id="stop2492" style="stop-color:#791235" offset="0"/>
   <stop id="stop2494" style="stop-color:#dd3b27" offset="1"/>
  </linearGradient>
  <radialGradient id="radialGradient2501" gradientUnits="userSpaceOnUse" cy="3.99" cx="23.896" gradientTransform="matrix(0 1.7009 -2.2452 0 24.958 -40.237)" r="20.397">
   <stop id="stop3244" style="stop-color:#f8b17e" offset="0"/>
   <stop id="stop3246" style="stop-color:#e35d4f" offset=".26238"/>
   <stop id="stop3248" style="stop-color:#c6262e" offset=".66094"/>
   <stop id="stop3250" style="stop-color:#690b54" offset="1"/>
  </radialGradient>
  <linearGradient id="linearGradient2509" y2="5.4676" gradientUnits="userSpaceOnUse" x2="63.397" gradientTransform="matrix(1.5437 0 0 1.5436 -80.016 21.419)" y1="-12.489" x1="63.397">
   <stop id="stop4875" style="stop-color:#fff" offset="0"/>
   <stop id="stop4877" style="stop-color:#fff;stop-opacity:0" offset="1"/>
  </linearGradient>
 </defs>
 <g id="layer1">
  <path id="path8836" style="opacity:.3;fill-rule:evenodd;fill:url(#radialGradient2517)" d="m32 28c0 2.209-7.163 4-16 4-8.8366 0-16-1.791-16-4-0.0000032-2.209 7.1634-4 16-4 8.837 0 16 1.791 16 4z"/>
  <path id="path2473" style="stroke-linejoin:round;stroke:url(#linearGradient2503);stroke-linecap:round;stroke-width:1.0037;fill:url(#radialGradient2501)" d="m16 1.5014c-7.9995 0-14.498 6.4986-14.498 14.499-0.0002 7.999 6.4985 14.498 14.498 14.498 8 0 14.499-6.499 14.499-14.498 0-8-6.499-14.499-14.499-14.499z"/>
  <path id="path3295" style="opacity:.2" d="m14.132 6.5023c0.443 4.0887 0.95 8.1497 1.327 12.256h1.202c0.312-3.943 0.817-7.861 1.18-11.798 0.186-0.9328-0.321-2.0398-1.361-2.2663-1.029-0.2844-2.178 0.4199-2.315 1.426-0.023 0.1263-0.033 0.2545-0.033 0.3826zm-0.131 16.626c-0.047 1.217 1.369 2.171 2.578 1.785 1.171-0.283 1.788-1.675 1.188-2.664-0.537-1.023-2.113-1.36-3.019-0.577-0.458 0.356-0.762 0.887-0.747 1.456z"/>
  <path id="text2315" style="fill:#fff" d="m14.132 7.5023c0.443 4.0887 0.95 8.1497 1.327 12.256h1.202c0.312-3.943 0.817-7.861 1.18-11.798 0.186-0.9328-0.321-2.0398-1.361-2.2663-1.029-0.2844-2.178 0.4199-2.315 1.426-0.023 0.1263-0.033 0.2545-0.033 0.3826zm-0.131 16.626c-0.047 1.217 1.369 2.171 2.578 1.785 1.171-0.283 1.788-1.675 1.188-2.664-0.537-1.023-2.113-1.36-3.019-0.577-0.458 0.356-0.762 0.887-0.747 1.456z"/>
  <path id="path8655" style="opacity:.4;stroke:url(#linearGradient2509);fill:none" d="m29.5 16c0 7.456-6.045 13.5-13.5 13.5-7.4557 0-13.5-6.044-13.5-13.5 0-7.4562 6.0443-13.5 13.5-13.5 7.455 0 13.5 6.0438 13.5 13.5z"/>
 </g>
</svg>
