<?xml version="1.0" encoding="UTF-8" standalone="no"?>
<!-- Created with Inkscape (http://www.inkscape.org/) -->
<svg id="svg2613" xmlns:rdf="http://www.w3.org/1999/02/22-rdf-syntax-ns#" xmlns="http://www.w3.org/2000/svg" height="22" width="22" version="1.0" xmlns:cc="http://creativecommons.org/ns#" xmlns:xlink="http://www.w3.org/1999/xlink" xmlns:dc="http://purl.org/dc/elements/1.1/">
 <metadata id="metadata40">
  <rdf:RDF>
   <cc:Work rdf:about="">
    <dc:format>image/svg+xml</dc:format>
    <dc:type rdf:resource="http://purl.org/dc/dcmitype/StillImage"/>
    <dc:title/>
   </cc:Work>
  </rdf:RDF>
 </metadata>
 <defs id="defs2615">
  <linearGradient id="linearGradient2448" y2="61.22" gradientUnits="userSpaceOnUse" x2="53.453" gradientTransform="matrix(.34204 0 0 .35996 .26855 -.28053)" y1="11.03" x1="22.334">
   <stop id="stop3321" style="stop-color:#af9b7f" offset="0"/>
   <stop id="stop3323" style="stop-color:#736148" offset="1"/>
  </linearGradient>
  <linearGradient id="linearGradient2446" y2="46" gradientUnits="userSpaceOnUse" x2="38.491" gradientTransform="matrix(.47539 0 0 .50030 .25307 -1.2576)" y1="9.8889" x1="16.102">
   <stop id="stop8969" style="stop-color:#ddcfbd" offset="0"/>
   <stop id="stop8971" style="stop-color:#856f50" offset="1"/>
  </linearGradient>
  <linearGradient id="linearGradient2443" y2="25.019" gradientUnits="userSpaceOnUse" x2="8.5001" gradientTransform="matrix(.42857 0 0 .51190 -.14286 -1.5476)" y1="25.019" x1="5.4801">
   <stop id="stop8980" style="stop-color:#4d5459;stop-opacity:.99608" offset="0"/>
   <stop id="stop8982" style="stop-color:#141b1f" offset="1"/>
  </linearGradient>
  <linearGradient id="linearGradient2430" y2="4.7322" gradientUnits="userSpaceOnUse" x2="55.455" gradientTransform="matrix(.35544 0 0 .48251 .28922 .15289)" y1="5.2438" x1="5.7542">
   <stop id="stop3915" style="stop-color:#4e555a" offset="0"/>
   <stop id="stop3917" style="stop-color:#151c20" offset=".14853"/>
   <stop id="stop3919" style="stop-color:#9b876c" offset=".15142"/>
   <stop id="stop3921" style="stop-color:#9b876c" offset=".75216"/>
   <stop id="stop3923" style="stop-color:#9b876c" offset=".92958"/>
   <stop id="stop3925" style="stop-color:#c2c2c2" offset=".93989"/>
   <stop id="stop3927" style="stop-color:#c2c2c2" offset="1"/>
  </linearGradient>
  <linearGradient id="linearGradient2428" y2="4.8826" gradientUnits="userSpaceOnUse" x2="24.64" gradientTransform="matrix(.49823 0 0 .99327 -.17271 -2.4228)" y1="3.1234" x1="24.627">
   <stop id="stop2348" style="stop-color:#eee" offset="0"/>
   <stop id="stop2350" style="stop-color:#d9d9da" offset="1"/>
  </linearGradient>
  <linearGradient id="linearGradient5530" y2="39.268" gradientUnits="userSpaceOnUse" x2="24.139" gradientTransform="matrix(.28180 0 0 .28010 10.179 10.022)" y1="7.0479" x1="24.139">
   <stop id="stop3945" style="stop-color:#fff" offset="0"/>
   <stop id="stop3947" style="stop-color:#fff;stop-opacity:0" offset="1"/>
  </linearGradient>
  <radialGradient id="radialGradient3115" gradientUnits="userSpaceOnUse" cx="69.448" cy="51.695" r="31" gradientTransform="matrix(0 .35684 -.38820 0 35.349 -12.114)">
   <stop id="stop3244-5" style="stop-color:#eef87e" offset="0"/>
   <stop id="stop3246-9" style="stop-color:#cde34f" offset=".26238"/>
   <stop id="stop3248-7" style="stop-color:#93b723" offset=".66094"/>
   <stop id="stop3250-8" style="stop-color:#5a7e0d" offset="1"/>
  </radialGradient>
  <linearGradient id="linearGradient3117" y2="51.244" gradientUnits="userSpaceOnUse" y1="124.76" gradientTransform="matrix(.14823 0 0 .14944 3.4435 3.3567)" x2="72.422" x1="72.422">
   <stop id="stop2492-3" style="stop-color:#365f0e" offset="0"/>
   <stop id="stop2494-8" style="stop-color:#84a718" offset="1"/>
  </linearGradient>
 </defs>
 <g id="layer1">
  <rect id="rect2719" style="stroke-linejoin:round;stroke:url(#linearGradient2448);stroke-linecap:round;stroke-miterlimit:2;stroke-width:.98802;fill:url(#linearGradient2446)" rx=".15117" ry=".15752" height="19.506" width="16.506" y="2" x="3"/>
  <path id="path2721" style="fill:url(#linearGradient2443)" d="m2 1.5c1.2382 0.7512 2.3466 0.4395 3 0.517v19.983h-2.3876s-0.6124 0-0.6124-0.602v-19.898z"/>
  <path id="path4743" style="opacity:.2;stroke-linejoin:round;fill-rule:evenodd;stroke:#fff;stroke-linecap:square;stroke-miterlimit:2;stroke-width:.99994;fill:#fff" d="m5.3331 1.4768l13.681-0.0162"/>
  <path id="path2723" style="stroke-linejoin:round;stroke:url(#linearGradient2430);stroke-miterlimit:2;stroke-width:1.0287;fill:url(#linearGradient2428)" d="m19.486 2.064c-0.147-0.6401-0.056-0.9387-0.137-1.5492 0-0.00003-14.187-0.00003-15.005-0.00003-0.7795 0-1.5494 0.14873-1.7667 0.75393-0.0122 0.0341-0.0257 0.0684-0.0333 0.1055-0.1993 0.6239 0.6262 1.1118 1.8883 1.1118h0.7517"/>
  <path id="path4494" style="fill-rule:evenodd;stroke:#a18d72;stroke-miterlimit:2;stroke-width:1.0071;fill:#a18d72" d="m19.504 2.4964h-14.508"/>
  <path id="path2781" style="opacity:.4;fill:#fff" d="m10.724 13.055c0 0.545 0.118 0.974 0.353 1.289 0.24 0.314 0.563 0.471 0.971 0.471 0.402 0 0.723-0.157 0.963-0.471 0.24-0.319 0.36-0.749 0.36-1.289 0-0.536-0.122-0.959-0.366-1.268-0.24-0.315-0.564-0.472-0.971-0.472-0.398 0-0.717 0.157-0.957 0.472-0.235 0.309-0.353 0.732-0.353 1.268m2.783 1.999c-0.136 0.315-0.355 0.561-0.659 0.738-0.298 0.172-0.649 0.259-1.052 0.259-0.778 0-1.411-0.275-1.9001-0.824-0.4841-0.553-0.7262-1.273-0.7262-2.159 0-0.885 0.2443-1.605 0.733-2.158 0.4883-0.554 1.1203-0.831 1.8933-0.831 0.403 0 0.754 0.089 1.052 0.266 0.304 0.177 0.523 0.423 0.659 0.737v-0.87h1.418v4.603c0.561-0.084 1.003-0.347 1.324-0.79 0.321-0.447 0.482-1.019 0.482-1.714 0-0.443-0.066-0.857-0.197-1.242-0.131-0.39-0.33-0.746-0.597-1.0693-0.43-0.5402-0.969-0.9564-1.616-1.2487-0.642-0.2923-1.339-0.4384-2.09-0.4384-0.525 0-1.027 0.0686-1.507 0.2059-0.48 0.1329-0.9231 0.3299-1.3303 0.5912-0.6697 0.4339-1.1923 0.9963-1.5679 1.6873-0.371 0.686-0.5566 1.43-0.5566 2.232 0 0.659 0.1199 1.279 0.3598 1.859 0.2443 0.576 0.595 1.085 1.052 1.528 0.4525 0.434 0.9706 0.764 1.554 0.99 0.589 0.23 1.215 0.345 1.88 0.345 0.571 0 1.141-0.104 1.711-0.312s1.056-0.489 1.459-0.843l0.726 1.076c-0.565 0.429-1.183 0.757-1.853 0.983-0.665 0.23-1.341 0.345-2.029 0.345-0.837 0-1.627-0.146-2.3688-0.438-0.7421-0.288-1.4027-0.709-1.9819-1.262-0.5792-0.554-1.0204-1.194-1.3235-1.92-0.3032-0.731-0.4548-1.514-0.4548-2.351 0-0.806 0.1538-1.575 0.4615-2.305 0.3077-0.7309 0.7466-1.373 1.3168-1.9265 0.5701-0.5491 1.233-0.9742 1.9887-1.2753 0.76-0.3011 1.547-0.4517 2.362-0.4517 1.014 0 1.934 0.1904 2.762 0.5712 0.828 0.3764 1.521 0.9211 2.077 1.634 0.34 0.434 0.595 0.9053 0.767 1.4153 0.177 0.504 0.265 1.036 0.265 1.594 0 1.2-0.369 2.132-1.106 2.796-0.738 0.664-1.779 0.996-3.123 0.996h-0.264v-1.023"/>
  <path id="path2779" style="fill:#746956" d="m10.724 11.985c0 0.544 0.118 0.974 0.353 1.288 0.24 0.315 0.563 0.472 0.971 0.472 0.402 0 0.723-0.157 0.963-0.472 0.24-0.319 0.36-0.748 0.36-1.288 0-0.536-0.122-0.959-0.366-1.269-0.24-0.314-0.564-0.472-0.971-0.472-0.398 0-0.717 0.158-0.957 0.472-0.235 0.31-0.353 0.733-0.353 1.269m2.783 1.999c-0.136 0.314-0.355 0.56-0.659 0.737-0.298 0.173-0.649 0.259-1.052 0.259-0.778 0-1.411-0.274-1.9001-0.823-0.4841-0.554-0.7262-1.273-0.7262-2.159s0.2443-1.605 0.733-2.1588c0.4883-0.5535 1.1203-0.8302 1.8933-0.8303 0.403 0.0001 0.754 0.0886 1.052 0.2657 0.304 0.1772 0.523 0.4229 0.659 0.7374v-0.8702h1.418v4.6032c0.561-0.084 1.003-0.348 1.324-0.791 0.321-0.447 0.482-1.018 0.482-1.713 0-0.443-0.066-0.857-0.197-1.2424-0.131-0.3896-0.33-0.7461-0.597-1.0694-0.43-0.5402-0.969-0.9564-1.616-1.2487-0.642-0.2923-1.339-0.4384-2.09-0.4384-0.525 0-1.027 0.0686-1.507 0.2059-0.48 0.1329-0.9231 0.3299-1.3303 0.5912-0.6697 0.4339-1.1923 0.9963-1.5679 1.6871-0.371 0.6867-0.5566 1.4307-0.5566 2.2317 0 0.66 0.1199 1.28 0.3598 1.86 0.2443 0.576 0.595 1.085 1.052 1.528 0.4525 0.434 0.9706 0.764 1.554 0.989 0.589 0.231 1.215 0.346 1.88 0.346 0.571 0 1.141-0.104 1.711-0.312 0.57-0.209 1.056-0.49 1.459-0.844l0.726 1.076c-0.565 0.43-1.183 0.757-1.853 0.983-0.665 0.23-1.341 0.346-2.029 0.346-0.837 0-1.627-0.147-2.3688-0.439-0.7421-0.288-1.4027-0.708-1.9819-1.262-0.5792-0.553-1.0204-1.193-1.3235-1.92-0.3032-0.73-0.4548-1.514-0.4548-2.351 0-0.806 0.1538-1.574 0.4615-2.3048 0.3077-0.7306 0.7466-1.3727 1.3168-1.9262 0.5701-0.5491 1.233-0.9742 1.9887-1.2753 0.76-0.3011 1.547-0.4517 2.362-0.4517 1.014 0 1.934 0.1904 2.762 0.5712 0.828 0.3764 1.521 0.9211 2.077 1.634 0.34 0.434 0.595 0.9056 0.767 1.4148 0.177 0.505 0.265 1.036 0.265 1.594 0 1.2-0.369 2.132-1.106 2.797-0.738 0.664-1.779 0.996-3.123 0.996h-0.264v-1.023"/>
  <path id="path3427" style="opacity:.4;stroke:#fff;stroke-miterlimit:2;stroke-width:1.0071;fill:none" d="m18.981 3.4964h-13.995"/>
 </g>
 <path id="path2262" style="stroke-linejoin:round;stroke-width:.98543;color:#000000;stroke:url(#linearGradient3117);stroke-linecap:round;fill:url(#radialGradient3115)" d="m14.482 14.507v-3h4v3h3v4h-3v3h-4v-3h-2.9895v-4h2.9895z"/>
 <path id="path2272" style="opacity:.4;stroke:url(#linearGradient5530);fill:none" d="m15.482 15.507v-3h2v3h3v2h-3v3h-2v-3h-3v-2h3z"/>
</svg>
