<?xml version="1.0" encoding="UTF-8" standalone="no"?>
<!-- Created with Inkscape (http://www.inkscape.org/) -->
<svg id="svg3474" xmlns="http://www.w3.org/2000/svg" height="22" width="22" version="1.0" xmlns:xlink="http://www.w3.org/1999/xlink">
 <defs id="defs3476">
  <linearGradient id="linearGradient6241" y2="2.9062" gradientUnits="userSpaceOnUse" x2="-51.786" gradientTransform="matrix(.43837 0 0 .45754 31.224 -.77865)" y1="50.786" x1="-51.786">
   <stop id="stop3933" style="stop-color:#8d8f8a" offset="0"/>
   <stop id="stop3935" style="stop-color:#cbcbcb" offset="1"/>
  </linearGradient>
  <linearGradient id="linearGradient6239" y2="47.013" gradientUnits="userSpaceOnUse" x2="25.132" gradientTransform="matrix(.54288 0 0 .48891 -1.0291 -.23377)" y1="6.7287" x1="25.132">
   <stop id="stop3602" style="stop-color:#f4f4f4" offset="0"/>
   <stop id="stop3604" style="stop-color:#dbdbdb" offset="1"/>
  </linearGradient>
  <linearGradient id="linearGradient6236" y2="5.8215" gradientUnits="userSpaceOnUse" x2="15.18" gradientTransform="translate(0 1)" y1="2.1849" x1="17.289">
   <stop id="stop4561" style="stop-color:#cacaca" offset="0"/>
   <stop id="stop4563" style="stop-color:#949492" offset="1"/>
  </linearGradient>
  <linearGradient id="linearGradient6234" y2="5.4565" gradientUnits="userSpaceOnUse" x2="36.358" gradientTransform="matrix(.54163 0 0 .52030 -.94021 .69814)" y1="8.059" x1="32.892">
   <stop id="stop8591" style="stop-color:#fefefe" offset="0"/>
   <stop id="stop8593" style="stop-color:#cbcbcb" offset="1"/>
  </linearGradient>
  <linearGradient id="linearGradient6304" y2="41.181" gradientUnits="userSpaceOnUse" x2="25.208" gradientTransform="matrix(.5 0 0 .5 0.25 -2.25)" y1="28.5" x1="13.63">
   <stop id="stop7027" style="stop-color:#ecd869" offset="0"/>
   <stop id="stop7029" style="stop-color:#e5cb35" offset="1"/>
  </linearGradient>
 </defs>
 <g id="layer1" transform="translate(-1 -1)">
  <path id="path4703" style="stroke-linejoin:round;stroke:url(#linearGradient6241);fill:url(#linearGradient6239)" d="m3.5 1.5h12.062c0.7638 0.2373 4.8672 2.9401 5.9387 4.812v16.188h-18v-21z"/>
  <path id="path4705" style="stroke-linejoin:round;fill-rule:evenodd;stroke:url(#linearGradient6236);fill:url(#linearGradient6234)" d="m15.5 1.5v5h6c0-0.83659-4.8205-4.9857-6-5z"/>
  <path id="path15577" style="opacity:.1;fill-rule:evenodd;stroke:#000" d="m3.5 4.5v14.986c5.3329-0.0394 10.667 0.06136 16-0.01561v-2.7318l-16-12.239zm3 6.4938 7.5 5.4948h-7.5v-5.4948z"/>
  <path id="path4319" style="fill-rule:evenodd;stroke:#a38503;fill:url(#linearGradient6304)" d="m2.5 4.5v15h19.5l-19.5-15zm3 6l8 6h-8v-6z"/>
 </g>
</svg>
