<?xml version="1.0" encoding="UTF-8" standalone="no"?>
<!-- Created with Inkscape (http://www.inkscape.org/) -->
<svg id="svg2405" xmlns="http://www.w3.org/2000/svg" height="22" width="22" version="1.1" xmlns:xlink="http://www.w3.org/1999/xlink">
 <defs id="defs2407">
  <radialGradient id="radialGradient2977" gradientUnits="userSpaceOnUse" cy="19.554" cx="11.681" gradientTransform="matrix(2.0087 0 0 -1.9116 -3.5414 48.212)" r="8.2452">
   <stop id="stop2343" offset="0"/>
   <stop id="stop2345" style="stop-opacity:0" offset="1"/>
  </radialGradient>
  <radialGradient id="radialGradient2980" gradientUnits="userSpaceOnUse" cy="24.203" cx="7.5327" gradientTransform="matrix(1.9045 0 0 1.8606 -12.125 -34.328)" r="8.2452">
   <stop id="stop2301" style="stop-color:#fff" offset="0"/>
   <stop id="stop2303" style="stop-color:#fff;stop-opacity:0" offset="1"/>
  </radialGradient>
  <linearGradient id="linearGradient2984" y2="35.569" gradientUnits="userSpaceOnUse" x2="64.388" gradientTransform="matrix(.17289 0 0 .16955 .15232 -.41224)" y1="65.124" x1="64.388">
   <stop id="stop336" style="stop-color:#fff" offset="0"/>
   <stop id="stop338" style="stop-color:#ff6200" offset=".85390"/>
   <stop id="stop340" style="stop-color:#f25d00" offset="1"/>
  </linearGradient>
  <radialGradient id="radialGradient2987" gradientUnits="userSpaceOnUse" cy="30.443" cx="29.913" gradientTransform="matrix(1.2629 0 0 1.1551 -23.727 -20.754)" r="4.0019">
   <stop id="stop2370" style="stop-color:#fff" offset="0"/>
   <stop id="stop2372" style="stop-color:#fff;stop-opacity:0" offset="1"/>
  </radialGradient>
  <radialGradient id="radialGradient2992" gradientUnits="userSpaceOnUse" cy="37.426" cx="20.444" gradientTransform="matrix(.55242 0 0 .46777 -1.7957 1.1872)" r="1.0821">
   <stop id="stop2321" offset="0"/>
   <stop id="stop2323" style="stop-opacity:0" offset="1"/>
  </radialGradient>
  <linearGradient id="linearGradient2995" y2="45.898" gradientUnits="userSpaceOnUse" x2="20.598" gradientTransform="matrix(.35892 0 0 .55281 2.1701 -2.1491)" y1="30.945" x1="19.645">
   <stop id="stop3658" style="stop-color:#c17d11" offset="0"/>
   <stop id="stop3660" style="stop-color:#e9b96e" offset="1"/>
  </linearGradient>
  <linearGradient id="linearGradient2998" y2="39.408" gradientUnits="userSpaceOnUse" x2="17" gradientTransform="matrix(0.5 0 0 .53333 -0.5 -3)" y1="47.098" x1="19.641">
   <stop id="stop3664" style="stop-color:#c17d11" offset="0"/>
   <stop id="stop3666" style="stop-color:#8f5902" offset="1"/>
  </linearGradient>
  <linearGradient id="linearGradient3001" y2="47.866" gradientUnits="userSpaceOnUse" x2="24.067" gradientTransform="matrix(.44140 0 0 .43367 .18202 .46429)" y1="25.746" x1="24.067">
   <stop id="stop4875" style="stop-color:#fff" offset="0"/>
   <stop id="stop4877" style="stop-color:#fff;stop-opacity:0" offset="1"/>
  </linearGradient>
  <linearGradient id="linearGradient3004" y2="5.5" gradientUnits="userSpaceOnUse" x2="29.816" gradientTransform="matrix(.47204 0 0 .46117 -.56177 -.26699)" y1="46.024" x1="29.816">
   <stop id="stop17" style="stop-color:#ccc" offset="0"/>
   <stop id="stop19" style="stop-color:#fff" offset=".9831"/>
  </linearGradient>
 </defs>
 <path id="rect5117" style="stroke-linejoin:round;stroke:#757575;fill:url(#linearGradient3004)" d="m2.5 11.262 0.0295 10.238h16.97v-10.238l-8.733-8.762-8.267 8.762z"/>
 <path id="path7391" style="opacity:.4;stroke:url(#linearGradient3001);fill:none" d="m3.5 11.306v9.1939h15v-9.1939l-7.724-7.806-7.276 7.806z"/>
 <path id="path3438" style="fill:url(#linearGradient2998);fill-rule:evenodd" d="m11 13v8h-6v-8h6z"/>
 <path id="path3440" style="fill:url(#linearGradient2995);fill-rule:evenodd" d="m10 14v7h-4v-7h4z"/>
 <path id="path3442" style="opacity:.40909;fill:url(#radialGradient2992);fill-rule:evenodd" d="m9.4983 18.188c0.33029 0 0.59727 0.2259 0.59727 0.50383 0 0.28-0.2674 0.508-0.5977 0.508-0.3301 0-0.5983-0.228-0.5983-0.509 0.000253-0.27793 0.26825-0.50383 0.59828-0.50383z"/>
 <path id="path3444" style="fill:#fce94f;fill-rule:evenodd" d="m9.496 18.029c0.27173 0 0.49137 0.21285 0.49137 0.47472 0 0.26452-0.21964 0.47914-0.49137 0.47914-0.27152 0-0.4922-0.21462-0.4922-0.47914 0.000208-0.26187 0.22069-0.47472 0.4922-0.47472z"/>
 <rect id="rect3464" style="stroke:#757575;stroke-width:1.0012;fill:#a9c3c8" rx=".38118" ry=".38233" height="3.9988" width="3.9988" y="13.501" x="12.501"/>
 <path id="path3466" style="opacity:.39773;fill:url(#radialGradient2987)" d="m13.006 15.985c1.218 0.12153 1.8608-0.53052 2.9854-0.5698l0.009-1.412-3-0.0022 0.0063 1.9846z"/>
 <path id="path3472" style="fill:url(#linearGradient2984)" d="m11.289 5.1628 9.2413 8.2215 0.24153 0.1877 0.1971-0.08207-0.18206-0.36471-0.13555-0.10699-9.3623-7.4565-9.4671 7.5384-0.11601 0.06901-0.10581 0.33843 0.21162 0.06189 0.18776-0.14768 9.2896-8.2589z"/>
 <path id="path3474" style="stroke:#973137;stroke-width:0.998;fill:#d1524c" d="m0.5 9.3829v3.4313l2 0.989s8.3942-8.0716 8.5-8.1533l8.5 8.1603 2-1.017v-3.4052l-10.5-9.688-10.5 9.6831z"/>
 <path id="path3476" style="opacity:.40909;fill:url(#radialGradient2980)" d="m1 9.5832 0.0375 3.0168 9.9625-9.5001-0.033-2.6-9.967 9.0833z"/>
 <path id="path3478" style="opacity:.13636;fill:url(#radialGradient2977)" d="m11 3.0999v-2.6l10 9.1316v2.9683l-10-9.5z"/>
 <path id="path3670" style="fill:#fff" d="m9.6269 18.411a0.24589 0.23847 0 0 1 -0.49178 0 0.24589 0.23847 0 1 1 0.49178 0z"/>
</svg>
