<?xml version="1.0" encoding="UTF-8" standalone="no"?>
<!-- Created with Inkscape (http://www.inkscape.org/) -->
<svg id="svg3734" xmlns:rdf="http://www.w3.org/1999/02/22-rdf-syntax-ns#" xmlns="http://www.w3.org/2000/svg" height="22" width="22" version="1.1" xmlns:cc="http://creativecommons.org/ns#" xmlns:xlink="http://www.w3.org/1999/xlink" xmlns:dc="http://purl.org/dc/elements/1.1/">
 <metadata id="metadata29">
  <rdf:RDF>
   <cc:Work rdf:about="">
    <dc:format>image/svg+xml</dc:format>
    <dc:type rdf:resource="http://purl.org/dc/dcmitype/StillImage"/>
    <dc:title/>
   </cc:Work>
  </rdf:RDF>
 </metadata>
 <defs id="defs3736">
  <linearGradient id="linearGradient4456">
   <stop id="stop4458" style="stop-color:#f6daae" offset="0"/>
   <stop id="stop4460" style="stop-color:#f0c178;stop-opacity:0" offset="1"/>
  </linearGradient>
  <linearGradient id="linearGradient3390-178-986-453-4-5">
   <stop id="stop3624-8-6" style="stop-color:#bb2b12" offset="0"/>
   <stop id="stop3626-1-1" style="stop-color:#cd7233" offset="1"/>
  </linearGradient>
  <linearGradient id="linearGradient3732" y2="182.48" xlink:href="#linearGradient3390-178-986-453-4-5" gradientUnits="userSpaceOnUse" x2="-55.189" gradientTransform="matrix(.92957 0 0 .99594 51.302 -181.74)" y1="190.51" x1="-31.523"/>
  <linearGradient id="linearGradient7012-661-145-733-759-865-745-661-970-94-1-0">
   <stop id="stop3618-1-9" style="stop-color:#f0c178" offset="0"/>
   <stop id="stop3270-5-6" style="stop-color:#e18941" offset=".5"/>
   <stop id="stop3620-9-3" style="stop-color:#ec4f18" offset="1"/>
  </linearGradient>
  <linearGradient id="linearGradient4322" y2="191.52" xlink:href="#linearGradient7012-661-145-733-759-865-745-661-970-94-1-0" gradientUnits="userSpaceOnUse" x2="-31.523" gradientTransform="matrix(.92957 0 0 .99594 51.302 -181.74)" y1="182.48" x1="-55.189"/>
  <linearGradient id="linearGradient4324" y2="191.52" xlink:href="#linearGradient7012-661-145-733-759-865-745-661-970-94-1-0" gradientUnits="userSpaceOnUse" x2="-31.523" gradientTransform="matrix(.92957 0 0 .99594 51.302 -181.74)" y1="183.48" x1="-55.189"/>
  <linearGradient id="linearGradient4452" y2="182.48" xlink:href="#linearGradient3390-178-986-453-4-5" gradientUnits="userSpaceOnUse" x2="-55.189" gradientTransform="matrix(.92957 0 0 .99594 51.302 -181.74)" y1="191.52" x1="-31.523"/>
  <linearGradient id="linearGradient4462" y2="9" xlink:href="#linearGradient4456" gradientUnits="userSpaceOnUse" x2="22" y1="-8.8818e-16"/>
 </defs>
 <g id="layer1" transform="matrix(0,1,1,0,6,0)">
  <path id="path3169-2-3" style="stroke-linejoin:round;stroke-width:5;stroke:url(#linearGradient3732);stroke-linecap:round;enable-background:new;fill:none" d="m8.475-1.4875-5.975 6.4874 5.975 6.4881"/>
  <path id="path3765" style="stroke-linejoin:round;stroke-width:6;stroke:url(#linearGradient4452);stroke-linecap:round;enable-background:new;fill:none" d="m19 5-12.5-0.0001"/>
  <path id="path4277" style="stroke-linejoin:round;stroke-width:3;stroke:url(#linearGradient4322);stroke-linecap:round;enable-background:new;fill:none" d="m8.4376-1.4502-5.9376 6.4501 5.9377 6.4501"/>
  <path id="path4279" style="stroke-linejoin:round;stroke-width:4;stroke:url(#linearGradient4324);stroke-linecap:round;enable-background:new;fill:none" d="m19 5-12.5-0.0001"/>
  <path id="path4454" style="opacity:.4;stroke-linejoin:round;enable-background:new;stroke:url(#linearGradient4462);stroke-linecap:round;fill:none" d="m8.9 10.469-2.4-2.469c-0.9858-1.014 0-1.5 1.5-1.5h10.5c3 0 2.5-3 0-3h-10c-1.5 0-3 0-2-1.5l2.3312-2.1937c1.5-2-0.5-2.5-1.5-1.5l-5.3312 5.6937c-0.5 0.5-0.5276 1.3333 0 2l5.4 5.9688c1 1 2.9787 0.02103 1.5-1.5z"/>
  <path id="path4464" style="opacity:.4;stroke-linejoin:round;stroke:url(#linearGradient4462);stroke-linecap:round;enable-background:new;fill:none" d="m6.5 2 2.4-2.3312c1.5-2-0.5-2.5-1.5-1.5l-5.4 5.8312c-0.5 0.5-0.5276 1.3333 0 2l5.4 5.9c1 1 2.7957 0.13265 1.3625-1.4312l-2.2625-2.469"/>
  <path id="path4466" style="opacity:0.51;stroke-linejoin:round;stroke:#f6daae;stroke-linecap:round;enable-background:new;fill:none" d="m7.2625-1.65-5.2625 5.65"/>
 </g>
</svg>
