<?xml version="1.0" encoding="UTF-8" standalone="no"?>
<!-- Created with Inkscape (http://www.inkscape.org/) -->
<svg id="svg2" xmlns="http://www.w3.org/2000/svg" height="22" width="22" version="1.0" xmlns:xlink="http://www.w3.org/1999/xlink">
 <defs id="defs4">
  <linearGradient id="linearGradient2412" y2="3.0816" gradientUnits="userSpaceOnUse" x2="18.379" gradientTransform="matrix(.51604 0 0 .51604 -1.3849 -1.385)" y1="44.98" x1="18.379">
   <stop id="stop2788" style="stop-color:#1f4b6a" offset="0"/>
   <stop id="stop2790" style="stop-color:#4083c2" offset="1"/>
  </linearGradient>
  <radialGradient id="radialGradient2410" gradientUnits="userSpaceOnUse" cy="3.99" cx="23.896" gradientTransform="matrix(0 1.2316 -1.6257 0 17.487 -29.721)" r="20.397">
   <stop id="stop2778" style="stop-color:#8badea" offset="0"/>
   <stop id="stop2780" style="stop-color:#6396cd" offset=".26238"/>
   <stop id="stop2782" style="stop-color:#3b7caf" offset=".66094"/>
   <stop id="stop2784" style="stop-color:#194c70" offset="1"/>
  </radialGradient>
  <linearGradient id="linearGradient2407" y2="5.4676" gradientUnits="userSpaceOnUse" x2="63.397" gradientTransform="matrix(1.0863 0 0 1.0862 -56.567 14.814)" y1="-12.489" x1="63.397">
   <stop id="stop4875" style="stop-color:#fff" offset="0"/>
   <stop id="stop4877" style="stop-color:#fff;stop-opacity:0" offset="1"/>
  </linearGradient>
 </defs>
 <g id="layer1">
  <path id="path2555" style="stroke-linejoin:round;stroke:url(#linearGradient2412);stroke-linecap:round;stroke-width:1.0037;fill:url(#radialGradient2410)" d="m11 0.50174c-5.7925 0-10.498 4.7057-10.498 10.498-0.00017 5.793 4.7055 10.498 10.498 10.498 5.793 0 10.498-4.705 10.498-10.498 0-5.7926-4.705-10.498-10.498-10.498z"/>
  <path id="path2463" style="opacity:.4;stroke:url(#linearGradient2407);fill:none" d="m20.5 11c0 5.246-4.254 9.5-9.5 9.5-5.2466 0-9.5-4.254-9.5-9.5 0-5.247 4.2534-9.5 9.5-9.5 5.246 0 9.5 4.253 9.5 9.5z"/>
  <path id="path3295" style="opacity:.2" d="m9.5993 4.2866c0.3319 2.8105 0.7117 5.6016 0.9947 8.4234h0.902c0.234-2.71 0.612-5.403 0.885-8.1091 0.139-0.6408-0.241-1.4016-1.021-1.5572-0.772-0.1955-1.6336 0.2886-1.7361 0.98-0.017 0.0868-0.0246 0.1749-0.0246 0.2629zm-0.0984 11.426c-0.0351 0.837 1.0271 1.492 1.9341 1.227 0.878-0.194 1.34-1.151 0.89-1.831-0.403-0.703-1.584-0.935-2.264-0.396-0.3435 0.244-0.5712 0.609-0.5601 1z"/>
  <path id="text2315" style="fill:#fff" d="m9.5993 5.2866c0.3319 2.8105 0.7117 5.6014 0.9947 8.4234h0.902c0.234-2.71 0.612-5.403 0.885-8.1091 0.139-0.6408-0.241-1.4016-1.021-1.5572-0.772-0.1955-1.6336 0.2886-1.7361 0.98-0.017 0.0868-0.0246 0.1749-0.0246 0.2629zm-0.0984 11.426c-0.0351 0.837 1.0271 1.492 1.9341 1.227 0.878-0.194 1.34-1.151 0.89-1.831-0.403-0.703-1.584-0.935-2.264-0.396-0.3435 0.244-0.5712 0.609-0.5601 1z"/>
 </g>
</svg>
