<?xml version="1.0" encoding="UTF-8" standalone="no"?>
<!-- Created with Inkscape (http://www.inkscape.org/) -->
<svg id="svg2562" xmlns="http://www.w3.org/2000/svg" height="22" width="22" version="1.0" xmlns:xlink="http://www.w3.org/1999/xlink">
 <defs id="defs2564">
  <radialGradient id="radialGradient2724-226-535-494" gradientUnits="userSpaceOnUse" cy="486.65" cx="605.71" gradientTransform="matrix(-.065534 0 0 .024706 -21.829 10.577)" r="117.14">
   <stop id="stop4080" style="stop-color:#1e1e1e" offset="0"/>
   <stop id="stop4082" style="stop-color:#1e1e1e;stop-opacity:0" offset="1"/>
  </radialGradient>
  <radialGradient id="radialGradient2722-303-187-273" gradientUnits="userSpaceOnUse" cy="486.65" cx="605.71" gradientTransform="matrix(.065534 0 0 .024706 -69.175 10.577)" r="117.14">
   <stop id="stop4074" style="stop-color:#1e1e1e" offset="0"/>
   <stop id="stop4076" style="stop-color:#1e1e1e;stop-opacity:0" offset="1"/>
  </radialGradient>
  <linearGradient id="linearGradient2720-766-26-906" y2="609.51" gradientUnits="userSpaceOnUse" x2="302.86" gradientTransform="matrix(.065534 0 0 .024706 -69.188 10.577)" y1="366.65" x1="302.86">
   <stop id="stop4066" style="stop-color:#1e1e1e;stop-opacity:0" offset="0"/>
   <stop id="stop4068" style="stop-color:#1e1e1e" offset=".5"/>
   <stop id="stop4070" style="stop-color:#1e1e1e;stop-opacity:0" offset="1"/>
  </linearGradient>
  <linearGradient id="linearGradient2477" y2="14.038" gradientUnits="userSpaceOnUse" x2="28.103" gradientTransform="matrix(.46667 0 0 .50064 0.8 -3.7786)" y1="45" x1="28.103">
   <stop id="stop4108" style="stop-color:#727272" offset="0"/>
   <stop id="stop4110" style="stop-color:#bebebe" offset="1"/>
  </linearGradient>
  <linearGradient id="linearGradient2475" y2="45.6" gradientUnits="userSpaceOnUse" x2="19.875" gradientTransform="matrix(.46667 0 0 .45455 0.8 -1.7273)" y1="8.1634" x1="20.053">
   <stop id="stop4498" style="stop-color:#fff" offset="0"/>
   <stop id="stop4502" style="stop-color:#cfcfcf" offset=".87427"/>
   <stop id="stop4504" style="stop-color:#999" offset="1"/>
  </linearGradient>
  <linearGradient id="linearGradient2472" y2="44.001" gradientUnits="userSpaceOnUse" x2="25.577" gradientTransform="matrix(.44186 0 0 .46429 1.3953 -2.6964)" y1="15" x1="25.577">
   <stop id="stop4102" style="stop-color:#fff" offset="0"/>
   <stop id="stop4104" style="stop-color:#fff;stop-opacity:0" offset="1"/>
  </linearGradient>
  <linearGradient id="linearGradient2469" y2="45.531" xlink:href="#linearGradient3495-841-851-719" gradientUnits="userSpaceOnUse" x2="23.929" gradientTransform="matrix(.46574 0 0 .48509 .82234 -3.1022)" y1="30.773" x1="23.929"/>
  <linearGradient id="linearGradient3495-841-851-719">
   <stop id="stop4120" style="stop-color:#1e1e1e" offset="0"/>
   <stop id="stop4122" style="stop-color:#1e1e1e;stop-opacity:0" offset="1"/>
  </linearGradient>
  <linearGradient id="linearGradient2466" y2="16.007" xlink:href="#linearGradient3495-841-851-719" gradientUnits="userSpaceOnUse" x2="23.904" gradientTransform="matrix(.46574 0 0 .48509 .82234 -1.4684)" y1="35.75" x1="23.904"/>
  <linearGradient id="linearGradient3706" y2="22.839" gradientUnits="userSpaceOnUse" x2="23.673" gradientTransform="matrix(.51158 0 0 .56818 -22.31 10.767)" y1="9.5958" x1="24.097">
   <stop id="stop3232" style="stop-color:#ffefa7" offset="0"/>
   <stop id="stop3234" style="stop-color:#ffc64c" offset="1"/>
  </linearGradient>
  <linearGradient id="linearGradient2877" y2="13.749" gradientUnits="userSpaceOnUse" x2="15.938" gradientTransform="translate(-26.089 10.376)" y1="9.9464" x1="15.837">
   <stop id="stop2252" style="stop-color:#ffc349" offset="0"/>
   <stop id="stop2256" style="stop-color:#ff921a" offset="1"/>
  </linearGradient>
 </defs>
 <g id="layer1" transform="translate(-.99998 -1)">
  <g id="g3511" style="stroke-width:1.0304" transform="matrix(.50040 0 0 .5 34.77 7.5821)">
   <rect id="rect2512" style="opacity:.40206;fill:url(#linearGradient2720-766-26-906)" height="6" width="31.644" y="19.636" x="-61.324"/>
   <path id="path2514" style="opacity:.40206;fill:url(#radialGradient2722-303-187-273)" d="m-29.68 19.636v5.9997c3.3749 0.01129 8.1588-1.3442 8.1588-3.0002s-3.7661-2.9994-8.1588-2.9994z"/>
   <path id="path2516" style="opacity:.40206;fill:url(#radialGradient2724-226-535-494)" d="m-61.324 19.636v5.9997c-3.3749 0.01129-8.1588-1.3442-8.1588-3.0002s3.7661-2.9994 8.1588-2.9994z"/>
  </g>
  <rect id="rect2396" style="stroke-linejoin:round;fill-rule:evenodd;stroke:url(#linearGradient2477);stroke-linecap:square;fill:url(#linearGradient2475)" rx=".46667" ry=".45455" height="12.993" width="20.993" y="5.507" x="1.507"/>
  <rect id="rect3331" style="opacity:.4;stroke:url(#linearGradient2472);stroke-linecap:square;fill:none" rx=".036476" ry=".035005" height="11.141" width="19" y="6.3592" x="2.5"/>
  <path id="path3341" style="opacity:.5;stroke:url(#linearGradient2469);fill:none" d="m8.6224 13.013-6.5002 5.4556m13.348-5.6359 6.3414 5.6359"/>
  <path id="path3493" style="opacity:.5;stroke:url(#linearGradient2466);fill:none" d="m1.8492 6.1459 10.151 9.1361 9.937-9.1361"/>
  <g id="g2554" transform="translate(27.255 -14.876)">
   <path id="path3660" style="stroke-linejoin:round;stroke:#c08607;fill:url(#linearGradient2877)" d="m-10.202 15.7c0.39035 0 1.1776 3.3771 1.4934 3.6065 0.3158 0.22944 3.7709-0.06545 3.8915 0.30579 0.12062 0.37124-2.8479 2.1635-2.9685 2.5348-0.12062 0.37124 1.2275 3.5661 0.91171 3.7955-0.3158 0.22944-2.9377-2.04-3.328-2.04-0.39035 0-3.0122 2.2694-3.328 2.04-0.3158-0.22944 1.0323-3.4243 0.91171-3.7955-0.12062-0.37124-3.0892-2.1635-2.9685-2.5348 0.12062-0.37124 3.5757-0.07635 3.8915-0.30579s1.103-3.6065 1.4934-3.6065z"/>
   <path id="path1322" style="fill:url(#linearGradient3706)" d="m-10.117 16.383-1.2169 3.4944-3.0115 0.13152 2.2688 1.8637c1.0803-0.78479 2.5865-1.2341 3.6212 0.20322l2.7769-2.1797-3.2929 0.1099-1.1456-3.623z"/>
  </g>
 </g>
</svg>
