<?xml version="1.0" encoding="UTF-8" standalone="no"?>
<!-- Created with Inkscape (http://www.inkscape.org/) -->
<svg id="svg2935" xmlns="http://www.w3.org/2000/svg" height="22" width="22" version="1.0" xmlns:xlink="http://www.w3.org/1999/xlink">
 <defs id="defs2937">
  <linearGradient id="linearGradient5060">
   <stop id="stop5062" offset="0"/>
   <stop id="stop5064" style="stop-opacity:0" offset="1"/>
  </linearGradient>
  <linearGradient id="linearGradient5162">
   <stop id="stop5164" style="stop-color:#babdb6" offset="0"/>
   <stop id="stop5166" style="stop-color:#fff" offset="1"/>
  </linearGradient>
  <linearGradient id="linearGradient5196">
   <stop id="stop5198" style="stop-color:#dfe2dc" offset="0"/>
   <stop id="stop5200" style="stop-color:#67715d" offset="1"/>
  </linearGradient>
  <linearGradient id="linearGradient5188">
   <stop id="stop5190" style="stop-color:#fff" offset="0"/>
   <stop id="stop5192" style="stop-color:#aeaea3" offset="1"/>
  </linearGradient>
  <linearGradient id="linearGradient3096" y2="18.39" xlink:href="#linearGradient5060" gradientUnits="userSpaceOnUse" x2="38.714" gradientTransform="matrix(.34439 0 0 .35651 -1.393 5.0246)" y1="10.612" x1="25.633"/>
  <linearGradient id="linearGradient3100" y2="28.555" xlink:href="#linearGradient5162" gradientUnits="userSpaceOnUse" x2="32.601" gradientTransform="matrix(.34439 0 0 .35651 -1.393 5.0246)" y1="20.246" x1="24.366"/>
  <linearGradient id="linearGradient3103" y2="14.412" xlink:href="#linearGradient5162" gradientUnits="userSpaceOnUse" x2="23.585" gradientTransform="matrix(.34439 0 0 .35651 9.191 -2.3921)" y1="36.51" x1="22.009"/>
  <radialGradient id="radialGradient3106" xlink:href="#linearGradient5188" gradientUnits="userSpaceOnUse" cy="14.211" cx="23.688" gradientTransform="matrix(.69674 0 0 .75325 -9.31 -.57459)" r="22.597"/>
  <linearGradient id="linearGradient3127" y2="28.555" xlink:href="#linearGradient5162" gradientUnits="userSpaceOnUse" x2="32.601" gradientTransform="matrix(0 .35651 .34439 0 2.6149 .19164)" y1="20.246" x1="24.366"/>
  <radialGradient id="radialGradient3133" xlink:href="#linearGradient5188" gradientUnits="userSpaceOnUse" cy="14.211" cx="23.688" gradientTransform="matrix(0 .76138 .72687 0 -2.7813 -9.3991)" r="22.597"/>
  <linearGradient id="linearGradient3150" y2="18.39" xlink:href="#linearGradient5060" gradientUnits="userSpaceOnUse" x2="38.714" gradientTransform="matrix(-.34439 0 0 .35651 22.614 7.7778)" y1="10.612" x1="25.633"/>
  <linearGradient id="linearGradient3154" y2="28.555" xlink:href="#linearGradient5162" gradientUnits="userSpaceOnUse" x2="32.601" gradientTransform="matrix(-.34439 0 0 .35651 22.614 7.7778)" y1="20.246" x1="24.366"/>
  <radialGradient id="radialGradient3160" xlink:href="#linearGradient5188" gradientUnits="userSpaceOnUse" cy="14.211" cx="23.688" gradientTransform="matrix(-.73550 0 0 .75245 31.879 2.1916)" r="22.597"/>
  <linearGradient id="linearGradient3177" y2="18.39" xlink:href="#linearGradient5060" gradientUnits="userSpaceOnUse" x2="38.714" gradientTransform="matrix(0 -.35651 .34439 0 6.2608 22.515)" y1="10.612" x1="25.633"/>
  <linearGradient id="linearGradient3181" y2="28.555" xlink:href="#linearGradient5162" gradientUnits="userSpaceOnUse" x2="32.601" gradientTransform="matrix(0 -.35651 .34439 0 6.2608 22.515)" y1="20.246" x1="24.366"/>
  <linearGradient id="linearGradient3184" y2="14.412" xlink:href="#linearGradient5162" gradientUnits="userSpaceOnUse" x2="23.585" gradientTransform="matrix(0 -.35651 .34439 0 6.2608 22.515)" y1="36.51" x1="22.009"/>
  <radialGradient id="radialGradient3187" xlink:href="#linearGradient5188" gradientUnits="userSpaceOnUse" cy="14.211" cx="23.688" gradientTransform="matrix(0 -.76138 .72687 0 .86459 32.106)" r="22.597"/>
  <radialGradient id="radialGradient3189" xlink:href="#linearGradient5196" gradientUnits="userSpaceOnUse" cy="10.854" cx="20.09" gradientTransform="matrix(0 -.63825 .60931 0 2.1454 28.153)" r="22.597"/>
  <radialGradient id="radialGradient3198" xlink:href="#linearGradient5060" gradientUnits="userSpaceOnUse" cy="486.65" cx="605.71" gradientTransform="matrix(-.030259 0 0 .041298 22.033 -2.9711)" r="117.14"/>
  <radialGradient id="radialGradient3201" xlink:href="#linearGradient5060" gradientUnits="userSpaceOnUse" cy="486.65" cx="605.71" gradientTransform="matrix(.030259 0 0 .041298 .17208 -2.9711)" r="117.14"/>
  <linearGradient id="linearGradient3204" y2="609.51" gradientUnits="userSpaceOnUse" x2="302.86" gradientTransform="matrix(.030259 0 0 .041298 .16612 -2.9711)" y1="366.65" x1="302.86">
   <stop id="stop5050" style="stop-opacity:0" offset="0"/>
   <stop id="stop5056" offset=".5"/>
   <stop id="stop5052" style="stop-opacity:0" offset="1"/>
  </linearGradient>
  <linearGradient id="linearGradient3652" y2="21" xlink:href="#linearGradient5196" gradientUnits="userSpaceOnUse" x2="15" gradientTransform="matrix(.92271 0 0 .95518 .030080 -.72442)" y1="15.37" x1="6.6751"/>
  <linearGradient id="linearGradient3654" y2="19" xlink:href="#linearGradient5196" gradientUnits="userSpaceOnUse" x2="7" gradientTransform="matrix(.92271 0 0 .95518 .030080 -.72442)" y1="-1" x1="23"/>
  <linearGradient id="linearGradient3656" y2="9.8003" xlink:href="#linearGradient5196" gradientUnits="userSpaceOnUse" x2="8.1476" gradientTransform="matrix(.92271 0 0 .95518 .030080 -.72442)" y1="-5" x1="24"/>
 </defs>
 <rect id="rect13073" style="opacity:0.302;fill:url(#linearGradient3204)" height="10.029" width="14.611" y="12.171" x="3.7972"/>
 <path id="path13075" style="opacity:0.302;fill:url(#radialGradient3201)" d="m18.408 12.171v10.029c1.5583 0.01887 3.7671-2.247 3.7671-5.0151s-1.7389-5.0138-3.7671-5.0138z"/>
 <path id="path13077" style="opacity:0.302;fill:url(#radialGradient3198)" d="m3.7972 12.171v10.029c-1.5583 0.01887-3.7671-2.247-3.7671-5.0151s1.7389-5.0138 3.7671-5.0138z"/>
 <path id="path2588" style="fill-rule:evenodd;stroke:url(#radialGradient3189);stroke-width:.46940;fill:url(#radialGradient3187)" d="m19.991 17.662 0.304-4.222 1.705-1.324-1.887-1.197 0.791-1.5125-0.243-2.0167-1.035 0.5041-1.34-1.3865-2.13 1.9537 0.243-1.8906-0.73-0.8193l0.18264 1.0714-1.8873 1.1344-0.36528 1.6386-0.42616-1.3235-1.0958-0.06302-2.1917 2.5839-2.9222 0.94534 1.2176 4.2855 11.811 1.6386z"/>
 <path id="path2590" style="opacity:.76966;fill-rule:evenodd;fill:url(#linearGradient3184)" d="m14.086 15.583 2.2525 0.31511 1.1567-0.75627 0.48704 1.6386 1.8264 0.94534 0.3044-4.2855 1.4002-1.0084-2.1308-0.81929-0.97408 1.5756 0.66968 2.3949-1.2176-0.94534-2.1308 0.50418-1.6438 0.44116z"/>
 <path id="path2592" style="opacity:.61798;fill-rule:evenodd;fill:url(#linearGradient3181)" d="m14.451 15.205 2.3743-1.5756-1.7046-2.5839 0.85232-1.5756-1.035-1.2605 0.97408-1.1344-1.7046 1.0714-0.54792 2.4579-1.4611 3.0881s1.2785 4.4116 1.2785 4.1595c0-0.25209 0.06088-3.6553 0.06088-3.6553l-0.79144-0.5672 0.66968-1.5125 1.035 3.0881z"/>
 <path id="path2594" style="fill-rule:evenodd;fill:#fff" d="m7.4498 11.99 1.2176 3.719 1.3396 0.504 1.461-2.143-1.8874-2.017-2.1308-0.063z"/>
 <path id="path2596" style="opacity:.13483;fill-rule:evenodd;fill:url(#linearGradient3177)" d="m7.5715 11.927 2.5569-0.81929 1.2785-1.5125-0.66968 3.0881s0.97408 0.88231 0.97408 0.50418 0.48704-4.4746 0.48704-4.4746l0.79144 0.06302-1.035 5.7981-2.2507-2.522-2.1308-0.126z"/>
 <path id="path2600" style="fill-rule:evenodd;fill:#fff" d="m8.6668 15.354 1.2176-1.071-1.5829-2.458 0.7915-1.513 2.252-2.4576l-2.009 2.71-0.36528 1.3235 1.7046 2.5839-2.009 0.88231z"/>
 <path id="path2554" style="fill-rule:evenodd;stroke:url(#linearGradient3652);stroke-width:.46940;fill:url(#radialGradient3160)" d="m6.42 17.517 1.035 0.18907 1.0958-1.9537 1.5829-0.37813-1.2785-0.44116-0.06088-1.1344 2.4961-2.2688 0.9132-3.0251 4.1398 1.2604 1.035 2.5209 0.36528-0.81929 1.035 0.06302v1.0084l1.2176-1.4495 1.6438 1.8277v2.5839l-2.8613 2.5839c-4.745 3.201-8.241-0.378-12.36-0.567z"/>
 <path id="path2558" style="opacity:.61798;fill-rule:evenodd;fill:url(#linearGradient3154)" d="m15.552 16.256-4.0181 0.69325-2.7396-0.18907-0.06088-0.75627 2.3743-0.5672 2.9831-1.5125s4.2616 1.3235 4.0181 1.3235c-0.24352 0-3.531 0.06302-3.531 0.06302l-0.54792-0.81929-1.4611 0.69325 2.9831 1.0714z"/>
 <path id="path2560" style="fill-rule:evenodd;fill:#fff" d="m12.447 9.0085 3.5919 1.2604 0.48704 1.3865-2.0699 1.5125-1.9481-1.9537-0.06088-2.2058z"/>
 <path id="path2562" style="opacity:.13483;fill-rule:evenodd;fill:url(#linearGradient3150)" d="m12.386 9.1346-0.79144 2.6469-1.4611 1.3235 2.9831-0.69325s0.85231 1.0084 0.48704 1.0084c-0.36528 0-4.3225 0.50418-4.3225 0.50418l0.06088 0.81929 5.6009-1.0714-2.4352-2.3318-0.12176-2.2058z"/>
 <path id="path2564" style="fill-rule:evenodd;fill:#fff" d="m20.057 12.853 0.3044 3.1511-0.66967-2.1428-1.7655 0.5672-0.42616-0.94534-2.1308 0.31511-0.48704-0.44116 3.1049-0.12604 0.3044 0.88231 1.3394-0.69325 0.42616-0.5672z"/>
 <path id="path2528" style="fill-rule:evenodd;stroke:url(#linearGradient3656);stroke-width:.46940;fill:url(#radialGradient3133)" d="m15.554 3.4058 0.974-0.6302 0.548 1.3234-0.731 0.9454 0.304 4.2225-12.19 1.7011 0.2385-4.1584 1.2341-1.1682-0.3141-0.7668 1.1054-1.1006 1.1002-1.8986 2.2509-0.6754 2.497 2.9621 1.034-1.8907l1.035 0.063023 0.9132 1.0714z"/>
 <path id="path2532" style="opacity:.61798;fill-rule:evenodd;fill:url(#linearGradient3127)" d="m10.805 7.5022 2.374 1.5756-4.6265-0.063s1.2785-4.4116 1.2785-4.1595c0 0.25209 0.06088 3.6553 0.06088 3.6553l-0.7915 0.5672 1.7046-1.5756z"/>
 <path id="path2534" style="fill-rule:evenodd;fill:#fff" d="m3.8039 10.716 1.2175-3.7179 1.3394-0.5042 1.4611 2.1427-4.018 2.0794z"/>
 <path id="path2538" style="fill-rule:evenodd;fill:#fff" d="m7.5175 2.8386 3.0435-0.3151-2.0694 0.6932 0.5479 1.8277-0.9132 0.4411 0.3044 2.2058-0.4261 0.5042-0.1218-3.2142 0.8523-0.3151-0.6697-1.3865-0.5479-0.4411z"/>
 <path id="path2425" style="fill-rule:evenodd;stroke:url(#linearGradient3654);stroke-width:.45711;fill:url(#radialGradient3106)" d="m14.115 17.48-1.7878-2.2081 1.7301 0.25236 0.74973-0.75708-0.98042 0.18927-1.0381-1.9558-1.4995-0.37854 1.2111-0.44163 0.05767-1.1356l-2.366-2.2698-0.8648-3.0283-3.9216 1.2618-0.9804 2.5236-0.3461-0.8202-0.98042 0.06309v1.0094l-1.1534-1.4511-1.5571 1.8296v2.5867l2.7106 2.5867-1.7301 1.0725c-0.81994 1.5683 13.097 2.9752 12.745 1.0725z"/>
 <path id="path2427" style="opacity:.76966;fill-rule:evenodd;fill:url(#linearGradient3103)" d="m15.888 5.7081-0.305 2.3318l0.73056 1.1974v-1.8277l-0.42616-1.7016z"/>
 <path id="path2429" style="opacity:.61798;fill-rule:evenodd;fill:url(#linearGradient3100)" d="m5.669 13.503 1.522 2.4579 2.4961-1.7646 1.522 0.88231 1.2176-1.0714 1.0958 1.0084-1.035-1.7646-2.3743-0.5672-2.9831-1.5125s-4.2616 1.3235-4.0181 1.3235c0.24352 0 3.531 0.06302 3.531 0.06302l0.54792-0.81929 1.4611 0.69325-2.9831 1.0714z"/>
 <path id="path2431" style="fill-rule:evenodd;fill:#fff" d="m8.7739 6.2553-3.5919 1.2605-0.487 1.3865 2.0699 1.5127 1.9481-1.9539 0.0609-2.2058z"/>
 <path id="path2433" style="opacity:.13483;fill-rule:evenodd;fill:url(#linearGradient3096)" d="m8.8348 6.3814 0.7914 2.6469 1.4608 1.3237-2.9828-0.6934s-0.85231 1.0084-0.48704 1.0084c0.36528 0 4.3225 0.50418 4.3225 0.50418l-0.06088 0.81929-5.6009-1.0714 2.4352-2.3318 0.12176-2.2058z"/>
 <path id="path2435" style="fill-rule:evenodd;fill:#fff" d="m1.1639 10.1-0.30436 3.151 0.66966-2.143 1.7655 0.567 0.4262-0.945 2.1308 0.315 0.487-0.441-3.1049-0.126-0.3044 0.882-1.3393-0.693-0.4262-0.567z"/>
 <path id="path2437" style="fill-rule:evenodd;fill:#fff" d="m6.3387 14.763 1.035 1.2604 2.3743-1.6386 1.4611 0.81929 2.3743 2.3318-2.6178-2.0797-1.2785-0.37814-2.4961 1.7646-0.85231-2.0797z"/>
</svg>
