<?xml version="1.0" encoding="UTF-8" standalone="no"?>
<!-- Created with Inkscape (http://www.inkscape.org/) -->
<svg id="svg2890" xmlns="http://www.w3.org/2000/svg" height="22" width="22" version="1.0" xmlns:xlink="http://www.w3.org/1999/xlink">
 <defs id="defs2892">
  <linearGradient id="linearGradient3714" y2="33.332" gradientUnits="userSpaceOnUse" x2="57.411" gradientTransform="matrix(0 .39055 -.38724 0 -30.08 -6.1113)" y1="33.332" x1="8.5273">
   <stop id="stop4224" style="stop-color:#fff" offset="0"/>
   <stop id="stop4226" style="stop-color:#fff;stop-opacity:0" offset="1"/>
  </linearGradient>
  <linearGradient id="linearGradient3712" y2="23.891" gradientUnits="userSpaceOnUse" x2="1.31" gradientTransform="matrix(0 -.33674 -.33543 0 -32.289 11.195)" y1="23.891" x1="28.671">
   <stop id="stop2266" style="stop-color:#d7e866" offset="0"/>
   <stop id="stop2268" style="stop-color:#8cab2a" offset="1"/>
  </linearGradient>
  <linearGradient id="linearGradient6036">
   <stop id="stop6038" style="stop-color:#fff" offset="0"/>
   <stop id="stop6040" style="stop-color:#fff;stop-opacity:0" offset="1"/>
  </linearGradient>
  <linearGradient id="linearGradient3519">
   <stop id="stop3521" style="stop-color:#fcd9cd" offset="0"/>
   <stop id="stop3523" style="stop-color:#fcd9cd;stop-opacity:0" offset="1"/>
  </linearGradient>
  <linearGradient id="linearGradient3511">
   <stop id="stop3513" style="stop-color:#ebeec7" offset="0"/>
   <stop id="stop3515" style="stop-color:#ebeec7;stop-opacity:0" offset="1"/>
  </linearGradient>
  <linearGradient id="linearGradient3503">
   <stop id="stop3505" style="stop-color:#c4ebdd" offset="0"/>
   <stop id="stop3507" style="stop-color:#c4ebdd;stop-opacity:0" offset="1"/>
  </linearGradient>
  <linearGradient id="linearGradient3495">
   <stop id="stop3497" style="stop-color:#c1cbe4" offset="0"/>
   <stop id="stop3499" style="stop-color:#c1cbe4;stop-opacity:0" offset="1"/>
  </linearGradient>
  <linearGradient id="linearGradient3487">
   <stop id="stop3489" style="stop-color:#e6cde2" offset="0"/>
   <stop id="stop3491" style="stop-color:#e6cde2;stop-opacity:0" offset="1"/>
  </linearGradient>
  <linearGradient id="linearGradient3456" y2="14.203" gradientUnits="userSpaceOnUse" x2="35.391" gradientTransform="matrix(0 .60001 -.60001 0 25.86 -2.4001)" y1="32.416" x1="12.274">
   <stop id="stop3265" style="stop-color:#dedbde" offset="0"/>
   <stop id="stop3267" style="stop-color:#e6e6e6" offset=".5"/>
   <stop id="stop3269" style="stop-color:#d2d2d2" offset="1"/>
  </linearGradient>
  <linearGradient id="linearGradient3458" y2="45.033" gradientUnits="userSpaceOnUse" x2="-21.916" gradientTransform="matrix(.51220 0 0 .51220 25.453 -.29268)" y1="3" x1="-21.916">
   <stop id="stop3774" style="stop-color:#b4b4b4" offset="0"/>
   <stop id="stop3776" style="stop-color:#969696" offset="1"/>
  </linearGradient>
  <linearGradient id="linearGradient3460" y2="32.509" gradientUnits="userSpaceOnUse" x2="21.448" gradientTransform="matrix(.43750 0 0 .43750 1.5 1.5)" y1="15.5" x1="21.448">
   <stop id="stop3430" style="stop-color:#aaa" offset="0"/>
   <stop id="stop3432" style="stop-color:#d4d4d4" offset="1"/>
  </linearGradient>
  <linearGradient id="linearGradient3462" y2="45.962" xlink:href="#linearGradient6036" gradientUnits="userSpaceOnUse" x2="18.203" gradientTransform="matrix(.22730 0 0 .22730 6.4659 6.3175)" y1="4.0378" x1="18.776"/>
  <linearGradient id="linearGradient3464" y2="9.8622" xlink:href="#linearGradient3487" spreadMethod="reflect" gradientUnits="userSpaceOnUse" x2="24.274" y1="10.775" x1="20.58"/>
  <linearGradient id="linearGradient3466" y2="9.7956" xlink:href="#linearGradient3495" spreadMethod="reflect" gradientUnits="userSpaceOnUse" x2="21.047" y1="11.2" x1="17.495"/>
  <linearGradient id="linearGradient3468" y2="10.732" xlink:href="#linearGradient3503" spreadMethod="reflect" gradientUnits="userSpaceOnUse" x2="16.994" y1="13.046" x1="14.085"/>
  <linearGradient id="linearGradient3470" y2="13.462" xlink:href="#linearGradient3511" spreadMethod="reflect" gradientUnits="userSpaceOnUse" x2="14.609" y1="16.188" x1="12.372"/>
  <linearGradient id="linearGradient3472" y2="20.613" xlink:href="#linearGradient3519" spreadMethod="reflect" gradientUnits="userSpaceOnUse" x2="9.7298" y1="17.886" x1="10.609"/>
  <linearGradient id="linearGradient3474" y2="54.698" xlink:href="#linearGradient6036" gradientUnits="userSpaceOnUse" x2="48.799" gradientTransform="matrix(.48201 0 0 .48201 .26461 -.050137)" y1="3.61" x1="10.502"/>
 </defs>
 <g id="layer1">
  <g id="g3437" transform="translate(-1 -1)">
   <path id="path2781" style="stroke:url(#linearGradient3458);fill:url(#linearGradient3456)" d="m22.5 12c0-5.8201-4.68-10.5-10.5-10.5-5.8201 0-10.5 4.6799-10.5 10.5 0 5.82 4.6799 10.5 10.5 10.5 5.82 0 10.5-4.68 10.5-10.5zm-7 0c0 1.971-1.57 3.5-3.5 3.5-1.971 0-3.5-1.655-3.5-3.5 0-1.886 1.4638-3.5 3.5-3.5 2.078 0 3.5 1.4877 3.5 3.5z"/>
   <path id="path2474" style="opacity:.5;fill:#fff" d="m12 8.0851c-2.161 0-3.9149 1.7539-3.9149 3.9149s1.7539 3.915 3.9149 3.915 3.915-1.754 3.915-3.915-1.754-3.9149-3.915-3.9149zm0 1.9579c1.081 0 1.957 0.876 1.957 1.957s-0.876 1.957-1.957 1.957-1.957-0.876-1.957-1.957 0.876-1.957 1.957-1.957z"/>
   <path id="path3418" style="stroke-linejoin:round;stroke:url(#linearGradient3460);fill:none" d="m12 8.5c-1.932 0-3.5 1.568-3.5 3.5s1.568 3.5 3.5 3.5 3.5-1.568 3.5-3.5-1.568-3.5-3.5-3.5zm0 1.75c0.966 0 1.75 0.784 1.75 1.75s-0.784 1.75-1.75 1.75-1.75-0.784-1.75-1.75 0.784-1.75 1.75-1.75z"/>
   <path id="path3281" style="opacity:.8;stroke:url(#linearGradient3462);fill:none" d="m12 7.5c-2.4943 0-4.5 2.0057-4.5 4.5 0 2.494 2.0057 4.5 4.5 4.5 2.494 0 4.5-2.006 4.5-4.5 0-2.4943-2.006-4.5-4.5-4.5z"/>
   <g id="g3527" transform="matrix(.48936 0 0 .48936 .2553 .2553)">
    <path id="path3296" style="opacity:.8;fill:url(#linearGradient3464)" d="m15.857 5.7308l4.768 10.613c1.035-0.459 2.17-0.719 3.375-0.719h0.094l0.014-11.62c-2.942-0.0709-5.543 0.657-8.251 1.7258z" transform="matrix(.99960 .028243 -.028243 .99960 .69241 -.67083)"/>
    <path id="path3308" style="opacity:.8;fill:url(#linearGradient3466)" d="m12.121 7.906l6.931 9.36c0.914-0.67 1.966-1.167 3.143-1.425 0.031-0.007 0.06-0.014 0.092-0.02l-2.43-11.395c-2.889 0.5616-5.319 1.8559-7.736 3.48z"/>
    <path id="path3310" style="opacity:.8;fill:url(#linearGradient3468)" d="m8.2524 11.647l9.2136 7.155c0.709-0.883 1.597-1.636 2.667-2.19 0.028-0.014 0.054-0.028 0.083-0.043l-5.35-10.318c-2.645 1.2895-4.7 3.2014-6.6136 5.396z"/>
    <path id="path3312" style="opacity:.8;fill:url(#linearGradient3470)" d="m5.6329 16.074c7.1751 2.242 7.8501 7.031 12.777 1.754l-7.91-8.6959c-2.2213 1.9309-3.5867 4.3269-4.8671 6.9419z"/>
    <path id="path3314" style="opacity:.8;fill:url(#linearGradient3472)" d="m7.1553 13.193c-1.1831 1.752-1.9077 3.637-2.5251 5.644l11.339 2.975c0.215-0.763 0.518-1.514 0.969-2.218 0.017-0.027 0.044-0.067 0.062-0.094l-9.8447-6.307z"/>
   </g>
   <path id="path3272" style="opacity:.5;stroke:url(#linearGradient3474);fill:none" d="m12 2.4574c-5.2893 0-9.5426 4.2533-9.5426 9.5426 0 5.289 4.2533 9.543 9.5426 9.543 5.289 0 9.543-4.254 9.543-9.543 0-5.2893-4.254-9.5426-9.543-9.5426z"/>
   <g id="g3297" transform="matrix(-.48936 0 0 -.48936 23.745 23.74)">
    <path id="path3299" style="opacity:.8;fill:url(#linearGradient3464)" d="m15.857 5.7308l4.768 10.613c1.035-0.459 2.17-0.719 3.375-0.719h0.094l0.014-11.62c-2.942-0.0709-5.543 0.657-8.251 1.7258z" transform="matrix(.99960 .028243 -.028243 .99960 .69241 -.67083)"/>
    <path id="path3301" style="opacity:.8;fill:url(#linearGradient3466)" d="m12.121 7.906l6.931 9.36c0.914-0.67 1.966-1.167 3.143-1.425 0.031-0.007 0.06-0.014 0.092-0.02l-2.43-11.395c-2.889 0.5616-5.319 1.8559-7.736 3.48z"/>
    <path id="path3303" style="opacity:.8;fill:url(#linearGradient3468)" d="m8.2524 11.647l9.2136 7.155c0.709-0.883 1.597-1.636 2.667-2.19 0.028-0.014 0.054-0.028 0.083-0.043l-5.35-10.318c-2.645 1.2895-4.7 3.2014-6.6136 5.396z"/>
    <path id="path3305" style="opacity:.8;fill:url(#linearGradient3470)" d="m5.6329 16.074c7.1751 2.242 7.8501 7.031 12.777 1.754l-7.91-8.6959c-2.2213 1.9309-3.5867 4.3269-4.8671 6.9419z"/>
    <path id="path3307" style="opacity:.8;fill:url(#linearGradient3472)" d="m7.1553 13.193c-1.1831 1.752-1.9077 3.637-2.5251 5.644l11.339 2.975c0.215-0.763 0.518-1.514 0.969-2.218 0.017-0.027 0.044-0.067 0.062-0.094l-9.8447-6.307z"/>
   </g>
  </g>
 </g>
 <g id="g3708" transform="translate(55.201 11.387)">
  <path id="path4348" style="stroke-linejoin:round;stroke:#548820;stroke-linecap:round;stroke-width:.98046;fill:url(#linearGradient3712)" d="m-33.691 3.1228l-6.612 7.0002-6.611-7.0002h3.111v-6h7v6h3.112z"/>
  <path id="path4360" style="opacity:0.354;stroke:url(#linearGradient3714);stroke-width:.98046;fill:none" d="m-35.908 4.1228l-4.395 4.5864-4.348-4.5864h1.848v-6h5v6h1.895z"/>
 </g>
</svg>
