<?xml version="1.0" encoding="UTF-8" standalone="no"?>
<!-- Created with Inkscape (http://www.inkscape.org/) -->
<svg id="svg2" xmlns="http://www.w3.org/2000/svg" height="22" width="22" version="1.0" xmlns:xlink="http://www.w3.org/1999/xlink">
 <defs id="defs4">
  <linearGradient id="linearGradient2406" y2="5.4676" gradientUnits="userSpaceOnUse" x2="63.397" gradientTransform="matrix(1.0863 0 0 1.0862 -56.567 14.814)" y1="-12.489" x1="63.397">
   <stop id="stop4875" style="stop-color:#fff" offset="0"/>
   <stop id="stop4877" style="stop-color:#fff;stop-opacity:0" offset="1"/>
  </linearGradient>
  <linearGradient id="linearGradient2411" y2="3.0816" gradientUnits="userSpaceOnUse" x2="18.379" gradientTransform="matrix(.51604 0 0 .51604 -1.385 -1.385)" y1="44.98" x1="18.379">
   <stop id="stop2492" style="stop-color:#791235" offset="0"/>
   <stop id="stop2494" style="stop-color:#dd3b27" offset="1"/>
  </linearGradient>
  <radialGradient id="radialGradient2409" gradientUnits="userSpaceOnUse" cy="3.99" cx="23.896" gradientTransform="matrix(0 1.2316 -1.6257 0 17.487 -29.721)" r="20.397">
   <stop id="stop3244" style="stop-color:#f8b17e" offset="0"/>
   <stop id="stop3246" style="stop-color:#e35d4f" offset=".26238"/>
   <stop id="stop3248" style="stop-color:#c6262e" offset=".66094"/>
   <stop id="stop3250" style="stop-color:#690b54" offset="1"/>
  </radialGradient>
 </defs>
 <g id="layer1">
  <g id="g2505">
   <path id="path2555" style="stroke-linejoin:round;stroke:url(#linearGradient2411);stroke-linecap:round;stroke-width:1.0037;fill:url(#radialGradient2409)" d="m11 0.50178c-5.7926 0-10.498 4.7057-10.498 10.498 0 5.7926 4.7057 10.498 10.498 10.498 5.7926 0 10.498-4.7057 10.498-10.498 0-5.7926-4.7057-10.498-10.498-10.498z"/>
   <path id="path2463" style="opacity:.4;stroke:url(#linearGradient2406);fill:none" d="m20.5 11c0 5.2469-4.2536 9.5003-9.4999 9.5003-5.2468 0-9.5001-4.2535-9.5001-9.5003 0-5.2466 4.2534-9.4997 9.5001-9.4997 5.2463 0 9.4999 4.253 9.4999 9.4997z"/>
  </g>
  <g id="g2481" transform="translate(34.813 -.11376)">
   <path id="path3295" style="opacity:.2" d="m-25.214 4.4004c0.33194 2.8104 0.71217 5.6015 0.99474 8.423h0.90177c0.23438-2.7095 0.61243-5.4026 0.88514-8.1087 0.13901-0.64077-0.24055-1.4016-1.0212-1.5573-0.77141-0.19549-1.6333 0.2886-1.7358 0.98007-0.01701 0.086803-0.0246 0.1749-0.0246 0.26292h-0.000002zm-0.09838 11.426c-0.0351 0.83656 1.0269 1.4923 1.9336 1.2271 0.87824-0.19428 1.3408-1.151 0.89072-1.8311-0.40292-0.70303-1.5844-0.93466-2.2641-0.3966-0.34357 0.24465-0.57128 0.60988-0.56022 1.0006v-0.000001z"/>
   <path id="text2315" style="fill:#fff" d="m-25.214 5.4004c0.33194 2.8104 0.71217 5.6016 0.99474 8.423h0.90177c0.23438-2.7095 0.61243-5.4026 0.88514-8.1087 0.13901-0.64077-0.24055-1.4016-1.0212-1.5573-0.77141-0.19549-1.6333 0.2886-1.7358 0.98007-0.01701 0.086803-0.0246 0.1749-0.0246 0.26292h-0.000002zm-0.09838 11.426c-0.0351 0.83656 1.0269 1.4923 1.9336 1.2271 0.87824-0.19428 1.3408-1.151 0.89072-1.8311-0.40292-0.70303-1.5844-0.93466-2.2641-0.3966-0.34357 0.24465-0.57128 0.60988-0.56022 1.0006v-0.000001z"/>
  </g>
 </g>
</svg>
